<?xml version="1.0" encoding="UTF-8" standalone="no"?>
<!DOCTYPE svg PUBLIC "-//W3C//DTD SVG 1.1//EN"
 "http://www.w3.org/Graphics/SVG/1.1/DTD/svg11.dtd">
<!-- Generated by graphviz version 2.40.1 (20161225.0304)
 -->
<!-- Title: ABLFieldInit.cpp Pages: 1 -->
<!--zoomable 263 -->
<svg id="main" version="1.1" xmlns="http://www.w3.org/2000/svg" xmlns:xlink="http://www.w3.org/1999/xlink" xml:space="preserve" onload="init(evt)">
<style type="text/css"><![CDATA[
.edge:hover path { stroke: red; }
.edge:hover polygon { stroke: red; fill: red; }
]]></style>
<script type="text/javascript"><![CDATA[
var edges = document.getElementsByTagName('g');
if (edges && edges.length) {
  for (var i=0;i<edges.length;i++) {
    if (edges[i].id.substr(0,4)=='edge') {
      edges[i].setAttribute('class','edge');
    }
  }
}
]]></script>
        <defs>
                <circle id="rim" cx="0" cy="0" r="7"/>
                <circle id="rim2" cx="0" cy="0" r="3.5"/>
                <g id="zoomPlus">
                        <use xlink:href="#rim" fill="#404040">
                                <set attributeName="fill" to="#808080" begin="zoomplus.mouseover" end="zoomplus.mouseout"/>
                        </use>
                        <path d="M-4,0h8M0,-4v8" fill="none" stroke="white" stroke-width="1.5" pointer-events="none"/>
                </g>
                <g id="zoomMin">
                        <use xlink:href="#rim" fill="#404040">
                                <set attributeName="fill" to="#808080" begin="zoomminus.mouseover" end="zoomminus.mouseout"/>
                        </use>
                        <path d="M-4,0h8" fill="none" stroke="white" stroke-width="1.5" pointer-events="none"/>
                </g>
                <g id="dirArrow">
                        <path fill="none" stroke="white" stroke-width="1.5" d="M0,-3.0v7 M-2.5,-0.5L0,-3.0L2.5,-0.5"/>
                </g>
               <g id="resetDef">
                       <use xlink:href="#rim2" fill="#404040">
                               <set attributeName="fill" to="#808080" begin="reset.mouseover" end="reset.mouseout"/>
                       </use>
               </g>
        </defs>

<script type="text/javascript">
var viewWidth = 1241;
var viewHeight = 263;
var sectionId = 'dynsection-0';
</script>
<script xlink:href="svgpan.js"/>
<svg id="graph" class="graph">
<g id="viewport">
<title>ABLFieldInit.cpp</title>
<polygon fill="#ffffff" stroke="transparent" points="-4,4 -4,-259 1236.5,-259 1236.5,4 -4,4"/>
<!-- Node0 -->
<g id="node1" class="node">
<title>Node0</title>
<polygon fill="#bfbfbf" stroke="#000000" points="710.5,-235.5 710.5,-254.5 799.5,-254.5 799.5,-235.5 710.5,-235.5"/>
<text text-anchor="middle" x="755" y="-242.5" font-family="Helvetica,sans-Serif" font-size="10.00" fill="#000000">ABLFieldInit.cpp</text>
</g>
<!-- Node1 -->
<g id="node2" class="node">
<title>Node1</title>
<polygon fill="#ffffff" stroke="#bfbfbf" points="417,-174 417,-193 461,-193 461,-174 417,-174"/>
<text text-anchor="middle" x="439" y="-181" font-family="Helvetica,sans-Serif" font-size="10.00" fill="#000000">cmath</text>
</g>
<!-- Node0&#45;&gt;Node1 -->
<g id="edge1" class="edge">
<title>Node0&#45;&gt;Node1</title>
<path fill="none" stroke="#191970" d="M710.0806,-241.9768C653.0818,-237.1896 552.2866,-225.5253 470,-199 468.3857,-198.4796 466.7511,-197.8859 465.1201,-197.2414"/>
<polygon fill="#191970" stroke="#191970" points="466.5443,-194.0443 455.9873,-193.1499 463.6823,-200.4325 466.5443,-194.0443"/>
</g>
<!-- Node2 -->
<g id="node3" class="node">
<title>Node2</title>
<g id="a_node3"><a xlink:href="_a_b_l_field_init_8_h.html" target="_top" xlink:title="amr&#45;wind/wind_energy\l/ABLFieldInit.H">
<polygon fill="#ffffff" stroke="#000000" points="479,-168.5 479,-198.5 593,-198.5 593,-168.5 479,-168.5"/>
<text text-anchor="start" x="487" y="-186.5" font-family="Helvetica,sans-Serif" font-size="10.00" fill="#000000">amr&#45;wind/wind_energy</text>
<text text-anchor="middle" x="536" y="-175.5" font-family="Helvetica,sans-Serif" font-size="10.00" fill="#000000">/ABLFieldInit.H</text>
</a>
</g>
</g>
<!-- Node0&#45;&gt;Node2 -->
<g id="edge2" class="edge">
<title>Node0&#45;&gt;Node2</title>
<path fill="none" stroke="#191970" d="M720.7813,-235.3906C688.3979,-226.2967 638.9888,-212.4215 599.4082,-201.3064"/>
<polygon fill="#191970" stroke="#191970" points="600.1473,-197.8786 589.5734,-198.5446 598.2547,-204.618 600.1473,-197.8786"/>
</g>
<!-- Node9 -->
<g id="node10" class="node">
<title>Node9</title>
<polygon fill="#ffffff" stroke="#bfbfbf" points="1147.5,-56.5 1147.5,-75.5 1232.5,-75.5 1232.5,-56.5 1147.5,-56.5"/>
<text text-anchor="middle" x="1190" y="-63.5" font-family="Helvetica,sans-Serif" font-size="10.00" fill="#000000">AMReX_Gpu.H</text>
</g>
<!-- Node0&#45;&gt;Node9 -->
<g id="edge24" class="edge">
<title>Node0&#45;&gt;Node9</title>
<path fill="none" stroke="#191970" d="M778.3875,-235.3762C851.126,-205.4447 1073.5111,-113.9345 1157.459,-79.3904"/>
<polygon fill="#191970" stroke="#191970" points="1158.8457,-82.6046 1166.7615,-75.5625 1156.1819,-76.1312 1158.8457,-82.6046"/>
</g>
<!-- Node19 -->
<g id="node20" class="node">
<title>Node19</title>
<polygon fill="#ffffff" stroke="#bfbfbf" points="966,-174 966,-193 1082,-193 1082,-174 966,-174"/>
<text text-anchor="middle" x="1024" y="-181" font-family="Helvetica,sans-Serif" font-size="10.00" fill="#000000">AMReX_ParmParse.H</text>
</g>
<!-- Node0&#45;&gt;Node19 -->
<g id="edge25" class="edge">
<title>Node0&#45;&gt;Node19</title>
<path fill="none" stroke="#191970" d="M796.7361,-235.4581C844.0515,-224.6406 921.2292,-206.9959 972.3136,-195.3168"/>
<polygon fill="#191970" stroke="#191970" points="973.1976,-198.7051 982.166,-193.0643 971.6374,-191.8811 973.1976,-198.7051"/>
</g>
<!-- Node3 -->
<g id="node4" class="node">
<title>Node3</title>
<g id="a_node4"><a xlink:href="_field_8_h.html" target="_top" xlink:title="amr&#45;wind/core/Field.H">
<polygon fill="#ffffff" stroke="#000000" points="758.5,-112.5 758.5,-131.5 871.5,-131.5 871.5,-112.5 758.5,-112.5"/>
<text text-anchor="middle" x="815" y="-119.5" font-family="Helvetica,sans-Serif" font-size="10.00" fill="#000000">amr&#45;wind/core/Field.H</text>
</a>
</g>
</g>
<!-- Node2&#45;&gt;Node3 -->
<g id="edge3" class="edge">
<title>Node2&#45;&gt;Node3</title>
<path fill="none" stroke="#191970" d="M593.1331,-170.9062C642.547,-160.0138 713.443,-144.3862 761.7022,-133.7484"/>
<polygon fill="#191970" stroke="#191970" points="762.6286,-137.1283 771.6407,-131.5577 761.1217,-130.2924 762.6286,-137.1283"/>
</g>
<!-- Node2&#45;&gt;Node9 -->
<g id="edge23" class="edge">
<title>Node2&#45;&gt;Node9</title>
<path fill="none" stroke="#191970" d="M593.2624,-179.995C662.6153,-174.6069 782.3999,-161.6134 881,-132 901.1864,-125.9373 903.8681,-118.2414 924,-112 1013.4679,-84.2627 1041.8013,-92.7005 1137.3523,-76.2248"/>
<polygon fill="#191970" stroke="#191970" points="1138.2044,-79.6284 1147.44,-74.4367 1136.9825,-72.7358 1138.2044,-79.6284"/>
</g>
<!-- Node13 -->
<g id="node14" class="node">
<title>Node13</title>
<polygon fill="#ffffff" stroke="#bfbfbf" points="405.5,-.5 405.5,-19.5 500.5,-19.5 500.5,-.5 405.5,-.5"/>
<text text-anchor="middle" x="453" y="-7.5" font-family="Helvetica,sans-Serif" font-size="10.00" fill="#000000">AMReX_Vector.H</text>
</g>
<!-- Node2&#45;&gt;Node13 -->
<g id="edge22" class="edge">
<title>Node2&#45;&gt;Node13</title>
<path fill="none" stroke="#191970" d="M546.7105,-168.334C556.1135,-152.9724 566.6256,-129.1014 555,-112 530.5476,-76.0301 491.3359,-109.8304 464,-76 453.6305,-63.1669 451.3813,-44.258 451.4337,-29.9653"/>
<polygon fill="#191970" stroke="#191970" points="454.9421,-29.8327 451.8581,-19.6967 447.9481,-29.5436 454.9421,-29.8327"/>
</g>
<!-- Node14 -->
<g id="node15" class="node">
<title>Node14</title>
<polygon fill="#ffffff" stroke="#bfbfbf" points="0,-112.5 0,-131.5 90,-131.5 90,-112.5 0,-112.5"/>
<text text-anchor="middle" x="45" y="-119.5" font-family="Helvetica,sans-Serif" font-size="10.00" fill="#000000">AMReX_Array.H</text>
</g>
<!-- Node2&#45;&gt;Node14 -->
<g id="edge17" class="edge">
<title>Node2&#45;&gt;Node14</title>
<path fill="none" stroke="#191970" d="M478.8569,-169.586C475.8688,-169.0132 472.9032,-168.4795 470,-168 309.7438,-141.5291 264.7896,-154.5691 100.0247,-132.0302"/>
<polygon fill="#191970" stroke="#191970" points="100.4206,-128.5517 90.0337,-130.6403 99.456,-135.4849 100.4206,-128.5517"/>
</g>
<!-- Node15 -->
<g id="node16" class="node">
<title>Node15</title>
<polygon fill="#ffffff" stroke="#bfbfbf" points="108.5,-112.5 108.5,-131.5 203.5,-131.5 203.5,-112.5 108.5,-112.5"/>
<text text-anchor="middle" x="156" y="-119.5" font-family="Helvetica,sans-Serif" font-size="10.00" fill="#000000">AMReX_Array4.H</text>
</g>
<!-- Node2&#45;&gt;Node15 -->
<g id="edge18" class="edge">
<title>Node2&#45;&gt;Node15</title>
<path fill="none" stroke="#191970" d="M478.8304,-169.7362C475.8492,-169.1242 472.8924,-168.541 470,-168 359.729,-147.373 328.616,-149.8124 213.4785,-132.0206"/>
<polygon fill="#191970" stroke="#191970" points="213.9858,-128.5575 203.5653,-130.4712 212.9048,-135.4735 213.9858,-128.5575"/>
</g>
<!-- Node16 -->
<g id="node17" class="node">
<title>Node16</title>
<polygon fill="#ffffff" stroke="#bfbfbf" points="222,-112.5 222,-131.5 306,-131.5 306,-112.5 222,-112.5"/>
<text text-anchor="middle" x="264" y="-119.5" font-family="Helvetica,sans-Serif" font-size="10.00" fill="#000000">AMReX_Box.H</text>
</g>
<!-- Node2&#45;&gt;Node16 -->
<g id="edge19" class="edge">
<title>Node2&#45;&gt;Node16</title>
<path fill="none" stroke="#191970" d="M478.7715,-170.0195C475.8057,-169.3335 472.8682,-168.657 470,-168 417.697,-156.0191 357.8314,-142.6945 316.166,-133.483"/>
<polygon fill="#191970" stroke="#191970" points="316.765,-130.031 306.2454,-131.2914 315.255,-136.8662 316.765,-130.031"/>
</g>
<!-- Node17 -->
<g id="node18" class="node">
<title>Node17</title>
<polygon fill="#ffffff" stroke="#bfbfbf" points="324,-112.5 324,-131.5 434,-131.5 434,-112.5 324,-112.5"/>
<text text-anchor="middle" x="379" y="-119.5" font-family="Helvetica,sans-Serif" font-size="10.00" fill="#000000">AMReX_Geometry.H</text>
</g>
<!-- Node2&#45;&gt;Node17 -->
<g id="edge20" class="edge">
<title>Node2&#45;&gt;Node17</title>
<path fill="none" stroke="#191970" d="M497.5935,-168.4554C471.6274,-158.284 437.661,-144.9787 412.737,-135.2155"/>
<polygon fill="#191970" stroke="#191970" points="413.9171,-131.9188 403.3294,-131.5303 411.364,-138.4366 413.9171,-131.9188"/>
</g>
<!-- Node18 -->
<g id="node19" class="node">
<title>Node18</title>
<polygon fill="#ffffff" stroke="#bfbfbf" points="452.5,-112.5 452.5,-131.5 545.5,-131.5 545.5,-112.5 452.5,-112.5"/>
<text text-anchor="middle" x="499" y="-119.5" font-family="Helvetica,sans-Serif" font-size="10.00" fill="#000000">AMReX_REAL.H</text>
</g>
<!-- Node2&#45;&gt;Node18 -->
<g id="edge21" class="edge">
<title>Node2&#45;&gt;Node18</title>
<path fill="none" stroke="#191970" d="M526.8539,-168.2977C521.8249,-159.9388 515.5445,-149.4997 510.2209,-140.6509"/>
<polygon fill="#191970" stroke="#191970" points="513.0785,-138.6114 504.9242,-131.8469 507.0803,-142.2201 513.0785,-138.6114"/>
</g>
<!-- Node4 -->
<g id="node5" class="node">
<title>Node4</title>
<polygon fill="#ffffff" stroke="#bfbfbf" points="923.5,-.5 923.5,-19.5 964.5,-19.5 964.5,-.5 923.5,-.5"/>
<text text-anchor="middle" x="944" y="-7.5" font-family="Helvetica,sans-Serif" font-size="10.00" fill="#000000">string</text>
</g>
<!-- Node3&#45;&gt;Node4 -->
<g id="edge4" class="edge">
<title>Node3&#45;&gt;Node4</title>
<path fill="none" stroke="#191970" d="M843.8733,-112.3968C863.2049,-104.8529 888.2627,-92.7982 906,-76 919.9049,-62.8313 930.2399,-43.4359 936.5933,-29.0756"/>
<polygon fill="#191970" stroke="#191970" points="939.8968,-30.247 940.51,-19.6699 933.4347,-27.556 939.8968,-30.247"/>
</g>
<!-- Node5 -->
<g id="node6" class="node">
<title>Node5</title>
<polygon fill="#ffffff" stroke="#bfbfbf" points="976,-56.5 976,-75.5 1028,-75.5 1028,-56.5 976,-56.5"/>
<text text-anchor="middle" x="1002" y="-63.5" font-family="Helvetica,sans-Serif" font-size="10.00" fill="#000000">memory</text>
</g>
<!-- Node3&#45;&gt;Node5 -->
<g id="edge5" class="edge">
<title>Node3&#45;&gt;Node5</title>
<path fill="none" stroke="#191970" d="M847.1464,-112.3733C880.3168,-102.4399 931.9318,-86.983 966.3383,-76.6794"/>
<polygon fill="#191970" stroke="#191970" points="967.4144,-80.0108 975.99,-73.7891 965.4062,-73.3051 967.4144,-80.0108"/>
</g>
<!-- Node6 -->
<g id="node7" class="node">
<title>Node6</title>
<polygon fill="#ffffff" stroke="#bfbfbf" points="1046.5,-56.5 1046.5,-75.5 1129.5,-75.5 1129.5,-56.5 1046.5,-56.5"/>
<text text-anchor="middle" x="1088" y="-63.5" font-family="Helvetica,sans-Serif" font-size="10.00" fill="#000000">unordered_map</text>
</g>
<!-- Node3&#45;&gt;Node6 -->
<g id="edge6" class="edge">
<title>Node3&#45;&gt;Node6</title>
<path fill="none" stroke="#191970" d="M861.6202,-112.4369C910.2037,-102.471 986.1332,-86.8958 1036.4686,-76.5705"/>
<polygon fill="#191970" stroke="#191970" points="1037.3975,-79.953 1046.4902,-74.5148 1035.9909,-73.0957 1037.3975,-79.953"/>
</g>
<!-- Node7 -->
<g id="node8" class="node">
<title>Node7</title>
<polygon fill="#ffffff" stroke="#bfbfbf" points="582,-.5 582,-19.5 686,-19.5 686,-.5 582,-.5"/>
<text text-anchor="middle" x="634" y="-7.5" font-family="Helvetica,sans-Serif" font-size="10.00" fill="#000000">AMReX_MultiFab.H</text>
</g>
<!-- Node3&#45;&gt;Node7 -->
<g id="edge7" class="edge">
<title>Node3&#45;&gt;Node7</title>
<path fill="none" stroke="#191970" d="M758.3746,-118.3338C666.7318,-111.8179 494.2662,-96.9122 476,-76 444.4989,-39.9357 515.1933,-23.1257 571.9493,-15.618"/>
<polygon fill="#191970" stroke="#191970" points="572.5069,-19.0756 581.9965,-14.3641 571.64,-12.1295 572.5069,-19.0756"/>
</g>
<!-- Node8 -->
<g id="node9" class="node">
<title>Node8</title>
<polygon fill="#ffffff" stroke="#bfbfbf" points="484.5,-56.5 484.5,-75.5 583.5,-75.5 583.5,-56.5 484.5,-56.5"/>
<text text-anchor="middle" x="534" y="-63.5" font-family="Helvetica,sans-Serif" font-size="10.00" fill="#000000">AMReX_BCRec.H</text>
</g>
<!-- Node3&#45;&gt;Node8 -->
<g id="edge8" class="edge">
<title>Node3&#45;&gt;Node8</title>
<path fill="none" stroke="#191970" d="M767.0137,-112.4369C718.5186,-102.7724 643.5527,-87.8326 591.8121,-77.5213"/>
<polygon fill="#191970" stroke="#191970" points="592.2797,-74.0457 581.7884,-75.5237 590.9115,-80.9107 592.2797,-74.0457"/>
</g>
<!-- Node3&#45;&gt;Node9 -->
<g id="edge9" class="edge">
<title>Node3&#45;&gt;Node9</title>
<path fill="none" stroke="#191970" d="M871.8635,-113.9654C953.2483,-102.4613 1096.9657,-82.1268 1137.5647,-76.0502"/>
<polygon fill="#191970" stroke="#191970" points="1138.1087,-79.5078 1147.4539,-74.516 1137.0355,-72.5905 1138.1087,-79.5078"/>
</g>
<!-- Node10 -->
<g id="node11" class="node">
<title>Node10</title>
<g id="a_node11"><a xlink:href="incflo__enums_8_h.html" target="_top" xlink:title="amr&#45;wind/incflo_enums.H">
<polygon fill="#ffffff" stroke="#000000" points="602,-56.5 602,-75.5 730,-75.5 730,-56.5 602,-56.5"/>
<text text-anchor="middle" x="666" y="-63.5" font-family="Helvetica,sans-Serif" font-size="10.00" fill="#000000">amr&#45;wind/incflo_enums.H</text>
</a>
</g>
</g>
<!-- Node3&#45;&gt;Node10 -->
<g id="edge10" class="edge">
<title>Node3&#45;&gt;Node10</title>
<path fill="none" stroke="#191970" d="M789.386,-112.3733C764.9313,-103.1822 727.8946,-89.2624 700.7791,-79.0713"/>
<polygon fill="#191970" stroke="#191970" points="701.8719,-75.7431 691.2798,-75.5011 699.4091,-82.2956 701.8719,-75.7431"/>
</g>
<!-- Node11 -->
<g id="node12" class="node">
<title>Node11</title>
<g id="a_node12"><a xlink:href="_field_desc_types_8_h.html" target="_top" xlink:title="amr&#45;wind/core/FieldDescTypes.H">
<polygon fill="#ffffff" stroke="#000000" points="736.5,-.5 736.5,-19.5 899.5,-19.5 899.5,-.5 736.5,-.5"/>
<text text-anchor="middle" x="818" y="-7.5" font-family="Helvetica,sans-Serif" font-size="10.00" fill="#000000">amr&#45;wind/core/FieldDescTypes.H</text>
</a>
</g>
</g>
<!-- Node3&#45;&gt;Node11 -->
<g id="edge11" class="edge">
<title>Node3&#45;&gt;Node11</title>
<path fill="none" stroke="#191970" d="M844.5685,-112.3976C861.4108,-105.2338 881.0794,-93.6009 891,-76 903.3486,-54.0914 877.3627,-35.5571 853.043,-23.7597"/>
<polygon fill="#191970" stroke="#191970" points="854.4373,-20.5488 843.8873,-19.5752 851.5275,-26.9153 854.4373,-20.5488"/>
</g>
<!-- Node12 -->
<g id="node13" class="node">
<title>Node12</title>
<g id="a_node13"><a xlink:href="_view_field_8_h.html" target="_top" xlink:title="amr&#45;wind/core/ViewField.H">
<polygon fill="#ffffff" stroke="#000000" points="748,-56.5 748,-75.5 882,-75.5 882,-56.5 748,-56.5"/>
<text text-anchor="middle" x="815" y="-63.5" font-family="Helvetica,sans-Serif" font-size="10.00" fill="#000000">amr&#45;wind/core/ViewField.H</text>
</a>
</g>
</g>
<!-- Node3&#45;&gt;Node12 -->
<g id="edge12" class="edge">
<title>Node3&#45;&gt;Node12</title>
<path fill="none" stroke="#191970" d="M815,-112.2455C815,-104.9382 815,-94.6944 815,-85.7046"/>
<polygon fill="#191970" stroke="#191970" points="818.5001,-85.6426 815,-75.6427 811.5001,-85.6427 818.5001,-85.6426"/>
</g>
<!-- Node12&#45;&gt;Node4 -->
<g id="edge13" class="edge">
<title>Node12&#45;&gt;Node4</title>
<path fill="none" stroke="#191970" d="M837.1759,-56.3733C858.3548,-47.1793 890.4339,-33.2535 913.9117,-23.0616"/>
<polygon fill="#191970" stroke="#191970" points="915.6109,-26.1396 923.3901,-18.9469 912.8234,-19.7185 915.6109,-26.1396"/>
</g>
<!-- Node12&#45;&gt;Node7 -->
<g id="edge15" class="edge">
<title>Node12&#45;&gt;Node7</title>
<path fill="none" stroke="#191970" d="M783.885,-56.3733C753.6571,-47.021 707.604,-32.7725 674.5261,-22.5385"/>
<polygon fill="#191970" stroke="#191970" points="675.2967,-19.1133 664.709,-19.5011 673.2277,-25.8005 675.2967,-19.1133"/>
</g>
<!-- Node12&#45;&gt;Node11 -->
<g id="edge14" class="edge">
<title>Node12&#45;&gt;Node11</title>
<path fill="none" stroke="#191970" d="M815.5226,-56.2455C815.914,-48.9382 816.4628,-38.6944 816.9444,-29.7046"/>
<polygon fill="#191970" stroke="#191970" points="820.4434,-29.8156 817.4834,-19.6427 813.4534,-29.4411 820.4434,-29.8156"/>
</g>
<!-- Node12&#45;&gt;Node13 -->
<g id="edge16" class="edge">
<title>Node12&#45;&gt;Node13</title>
<path fill="none" stroke="#191970" d="M753.1813,-56.4369C685.3259,-45.9399 577.2416,-29.2197 510.9595,-18.9661"/>
<polygon fill="#191970" stroke="#191970" points="511.1106,-15.4479 500.6931,-17.3779 510.0404,-22.3656 511.1106,-15.4479"/>
</g>
</g>
</svg>
        <g id="navigator" transform="translate(0 0)" fill="#404254">
                <rect fill="#f2f5e9" fill-opacity="0.5" stroke="#606060" stroke-width=".5" x="0" y="0" width="60" height="60"/>
                <use id="zoomplus" xlink:href="#zoomPlus" x="17" y="9" onmousedown="handleZoom(evt,'in')"/>
                <use id="zoomminus" xlink:href="#zoomMin" x="42" y="9" onmousedown="handleZoom(evt,'out')"/>
                <use id="reset" xlink:href="#resetDef" x="30" y="36" onmousedown="handleReset()"/>
                <g id="arrowUp" xlink:href="#dirArrow" transform="translate(30 24)" onmousedown="handlePan(0,-1)">
                  <use xlink:href="#rim" fill="#404040">
                        <set attributeName="fill" to="#808080" begin="arrowUp.mouseover" end="arrowUp.mouseout"/>
                  </use>
                  <path fill="none" stroke="white" stroke-width="1.5" d="M0,-3.0v7 M-2.5,-0.5L0,-3.0L2.5,-0.5"/>
                </g>
                <g id="arrowRight" xlink:href="#dirArrow" transform="rotate(90) translate(36 -43)" onmousedown="handlePan(1,0)">
                  <use xlink:href="#rim" fill="#404040">
                        <set attributeName="fill" to="#808080" begin="arrowRight.mouseover" end="arrowRight.mouseout"/>
                  </use>
                  <path fill="none" stroke="white" stroke-width="1.5" d="M0,-3.0v7 M-2.5,-0.5L0,-3.0L2.5,-0.5"/>
                </g>
                <g id="arrowDown" xlink:href="#dirArrow" transform="rotate(180) translate(-30 -48)" onmousedown="handlePan(0,1)">
                  <use xlink:href="#rim" fill="#404040">
                        <set attributeName="fill" to="#808080" begin="arrowDown.mouseover" end="arrowDown.mouseout"/>
                  </use>
                  <path fill="none" stroke="white" stroke-width="1.5" d="M0,-3.0v7 M-2.5,-0.5L0,-3.0L2.5,-0.5"/>
                </g>
                <g id="arrowLeft" xlink:href="#dirArrow" transform="rotate(270) translate(-36 17)" onmousedown="handlePan(-1,0)">
                  <use xlink:href="#rim" fill="#404040">
                        <set attributeName="fill" to="#808080" begin="arrowLeft.mouseover" end="arrowLeft.mouseout"/>
                  </use>
                  <path fill="none" stroke="white" stroke-width="1.5" d="M0,-3.0v7 M-2.5,-0.5L0,-3.0L2.5,-0.5"/>
                </g>
        </g>
        <svg viewBox="0 0 15 15" width="100%" height="30px" preserveAspectRatio="xMaxYMin meet">
         <g id="arrow_out" transform="scale(0.3 0.3)">
          <a xlink:href="_a_b_l_field_init_8cpp__incl_org.svg" target="_base">
           <rect id="button" ry="5" rx="5" y="6" x="6" height="38" width="38"
                fill="#f2f5e9" fill-opacity="0.5" stroke="#606060" stroke-width="1.0"/>
           <path id="arrow"
             d="M 11.500037,31.436501 C 11.940474,20.09759 22.043105,11.32322 32.158766,21.979434 L 37.068811,17.246167 C 37.068811,17.246167 37.088388,32 37.088388,32 L 22.160133,31.978069 C 22.160133,31.978069 26.997745,27.140456 26.997745,27.140456 C 18.528582,18.264221 13.291696,25.230495 11.500037,31.436501 z"
             style="fill:#404040;"/>
          </a>
         </g>
        </svg>
</svg>
