<?xml version="1.0" encoding="UTF-8" standalone="no"?>
<!DOCTYPE svg PUBLIC "-//W3C//DTD SVG 1.1//EN"
 "http://www.w3.org/Graphics/SVG/1.1/DTD/svg11.dtd">
<!-- Generated by graphviz version 2.40.1 (20161225.0304)
 -->
<!-- Title: ABLMeanBoussinesq.H Pages: 1 -->
<svg width="2312pt" height="408pt"
 viewBox="0.00 0.00 2312.01 408.00" xmlns="http://www.w3.org/2000/svg" xmlns:xlink="http://www.w3.org/1999/xlink">
<g id="graph0" class="graph" transform="scale(1 1) rotate(0) translate(4 404)">
<title>ABLMeanBoussinesq.H</title>
<polygon fill="#ffffff" stroke="transparent" points="-4,4 -4,-404 2308.0055,-404 2308.0055,4 -4,4"/>
<!-- Node0 -->
<g id="node1" class="node">
<title>Node0</title>
<polygon fill="#bfbfbf" stroke="#000000" points="595.5055,-380.5 595.5055,-399.5 716.5055,-399.5 716.5055,-380.5 595.5055,-380.5"/>
<text text-anchor="middle" x="656.0055" y="-387.5" font-family="Helvetica,sans-Serif" font-size="10.00" fill="#000000">ABLMeanBoussinesq.H</text>
</g>
<!-- Node1 -->
<g id="node2" class="node">
<title>Node1</title>
<g id="a_node2"><a xlink:href="_field_repo_8_h.html" target="_top" xlink:title="amr&#45;wind/core/FieldRepo.H">
<polygon fill="#ffffff" stroke="#000000" points="588.0055,-185 588.0055,-204 724.0055,-204 724.0055,-185 588.0055,-185"/>
<text text-anchor="middle" x="656.0055" y="-192" font-family="Helvetica,sans-Serif" font-size="10.00" fill="#000000">amr&#45;wind/core/FieldRepo.H</text>
</a>
</g>
</g>
<!-- Node0&#45;&gt;Node1 -->
<g id="edge1" class="edge">
<title>Node0&#45;&gt;Node1</title>
<path fill="none" stroke="#191970" d="M656.0055,-380.3051C656.0055,-349.8813 656.0055,-255.8666 656.0055,-214.4452"/>
<polygon fill="#191970" stroke="#191970" points="659.5056,-214.2534 656.0055,-204.2534 652.5056,-214.2534 659.5056,-214.2534"/>
</g>
<!-- Node20 -->
<g id="node21" class="node">
<title>Node20</title>
<g id="a_node21"><a xlink:href="_momentum_source_8_h.html" target="_top" xlink:title="amr&#45;wind/equation_systems\l/icns/MomentumSource.H">
<polygon fill="#ffffff" stroke="#000000" points="392.5055,-246.5 392.5055,-276.5 531.5055,-276.5 531.5055,-246.5 392.5055,-246.5"/>
<text text-anchor="start" x="400.5055" y="-264.5" font-family="Helvetica,sans-Serif" font-size="10.00" fill="#000000">amr&#45;wind/equation_systems</text>
<text text-anchor="middle" x="462.0055" y="-253.5" font-family="Helvetica,sans-Serif" font-size="10.00" fill="#000000">/icns/MomentumSource.H</text>
</a>
</g>
</g>
<!-- Node0&#45;&gt;Node20 -->
<g id="edge37" class="edge">
<title>Node0&#45;&gt;Node20</title>
<path fill="none" stroke="#191970" d="M641.424,-380.3416C610.1624,-359.6348 536.0821,-310.5662 493.5305,-282.3813"/>
<polygon fill="#191970" stroke="#191970" points="495.2256,-279.3059 484.9558,-276.7016 491.36,-285.1418 495.2256,-279.3059"/>
</g>
<!-- Node25 -->
<g id="node26" class="node">
<title>Node25</title>
<g id="a_node26"><a xlink:href="_field_plane_averaging_8_h.html" target="_top" xlink:title="amr&#45;wind/utilities\l/FieldPlaneAveraging.H">
<polygon fill="#ffffff" stroke="#000000" points="917.5055,-313.5 917.5055,-343.5 1036.5055,-343.5 1036.5055,-313.5 917.5055,-313.5"/>
<text text-anchor="start" x="925.5055" y="-331.5" font-family="Helvetica,sans-Serif" font-size="10.00" fill="#000000">amr&#45;wind/utilities</text>
<text text-anchor="middle" x="977.0055" y="-320.5" font-family="Helvetica,sans-Serif" font-size="10.00" fill="#000000">/FieldPlaneAveraging.H</text>
</a>
</g>
</g>
<!-- Node0&#45;&gt;Node25 -->
<g id="edge48" class="edge">
<title>Node0&#45;&gt;Node25</title>
<path fill="none" stroke="#191970" d="M705.8096,-380.4581C759.857,-370.1032 846.5567,-353.4925 907.3416,-341.8468"/>
<polygon fill="#191970" stroke="#191970" points="908.0795,-345.2692 917.2423,-339.95 906.7623,-338.3942 908.0795,-345.2692"/>
</g>
<!-- Node2 -->
<g id="node3" class="node">
<title>Node2</title>
<polygon fill="#ffffff" stroke="#bfbfbf" points="1008.5055,-.5 1008.5055,-19.5 1049.5055,-19.5 1049.5055,-.5 1008.5055,-.5"/>
<text text-anchor="middle" x="1029.0055" y="-7.5" font-family="Helvetica,sans-Serif" font-size="10.00" fill="#000000">string</text>
</g>
<!-- Node1&#45;&gt;Node2 -->
<g id="edge2" class="edge">
<title>Node1&#45;&gt;Node2</title>
<path fill="none" stroke="#191970" d="M683.2227,-184.9067C758.4434,-158.3332 964.4521,-85.1253 977.0055,-76 994.4281,-63.3352 1009.0518,-43.3233 1018.3093,-28.653"/>
<polygon fill="#191970" stroke="#191970" points="1021.4138,-30.283 1023.5933,-19.9148 1015.4238,-26.6608 1021.4138,-30.283"/>
</g>
<!-- Node3 -->
<g id="node4" class="node">
<title>Node3</title>
<polygon fill="#ffffff" stroke="#bfbfbf" points="1534.5055,-56.5 1534.5055,-75.5 1617.5055,-75.5 1617.5055,-56.5 1534.5055,-56.5"/>
<text text-anchor="middle" x="1576.0055" y="-63.5" font-family="Helvetica,sans-Serif" font-size="10.00" fill="#000000">unordered_map</text>
</g>
<!-- Node1&#45;&gt;Node3 -->
<g id="edge3" class="edge">
<title>Node1&#45;&gt;Node3</title>
<path fill="none" stroke="#191970" d="M724.0697,-189.9225C819.3718,-182.7549 987.1736,-167.1533 1043.0055,-143 1063.0098,-134.346 1060.7855,-120.1371 1081.0055,-112 1170.0586,-76.1624 1411.7094,-88.7142 1524.1745,-75.8519"/>
<polygon fill="#191970" stroke="#191970" points="1524.8385,-79.2959 1534.3212,-74.5707 1523.9615,-72.351 1524.8385,-79.2959"/>
</g>
<!-- Node4 -->
<g id="node5" class="node">
<title>Node4</title>
<g id="a_node5"><a xlink:href="_field_desc_types_8_h.html" target="_top" xlink:title="amr&#45;wind/core/FieldDescTypes.H">
<polygon fill="#ffffff" stroke="#000000" points="315.5055,-.5 315.5055,-19.5 478.5055,-19.5 478.5055,-.5 315.5055,-.5"/>
<text text-anchor="middle" x="397.0055" y="-7.5" font-family="Helvetica,sans-Serif" font-size="10.00" fill="#000000">amr&#45;wind/core/FieldDescTypes.H</text>
</a>
</g>
</g>
<!-- Node1&#45;&gt;Node4 -->
<g id="edge4" class="edge">
<title>Node1&#45;&gt;Node4</title>
<path fill="none" stroke="#191970" d="M587.9693,-188.7492C495.1042,-180.2005 338.1524,-162.9843 321.0055,-143 288.8938,-105.5745 343.1756,-52.5863 375.543,-26.2163"/>
<polygon fill="#191970" stroke="#191970" points="377.956,-28.7698 383.6179,-19.8147 373.6073,-23.2844 377.956,-28.7698"/>
</g>
<!-- Node5 -->
<g id="node6" class="node">
<title>Node5</title>
<g id="a_node6"><a xlink:href="_field_utils_8_h.html" target="_top" xlink:title="amr&#45;wind/core/FieldUtils.H">
<polygon fill="#ffffff" stroke="#000000" points="125.5055,-118 125.5055,-137 258.5055,-137 258.5055,-118 125.5055,-118"/>
<text text-anchor="middle" x="192.0055" y="-125" font-family="Helvetica,sans-Serif" font-size="10.00" fill="#000000">amr&#45;wind/core/FieldUtils.H</text>
</a>
</g>
</g>
<!-- Node1&#45;&gt;Node5 -->
<g id="edge5" class="edge">
<title>Node1&#45;&gt;Node5</title>
<path fill="none" stroke="#191970" d="M587.6896,-186.4728C510.9503,-177.1867 382.7649,-160.867 273.0055,-143 265.3545,-141.7546 257.3169,-140.3426 249.3983,-138.8904"/>
<polygon fill="#191970" stroke="#191970" points="249.942,-135.4315 239.4698,-137.0387 248.6586,-142.3128 249.942,-135.4315"/>
</g>
<!-- Node6 -->
<g id="node7" class="node">
<title>Node6</title>
<polygon fill="#ffffff" stroke="#bfbfbf" points="560.0055,-.5 560.0055,-19.5 664.0055,-19.5 664.0055,-.5 560.0055,-.5"/>
<text text-anchor="middle" x="612.0055" y="-7.5" font-family="Helvetica,sans-Serif" font-size="10.00" fill="#000000">AMReX_MultiFab.H</text>
</g>
<!-- Node1&#45;&gt;Node6 -->
<g id="edge35" class="edge">
<title>Node1&#45;&gt;Node6</title>
<path fill="none" stroke="#191970" d="M647.3293,-184.6618C639.235,-174.8512 627.5934,-158.9788 622.0055,-143 608.6223,-104.7298 608.868,-56.5942 610.3602,-29.99"/>
<polygon fill="#191970" stroke="#191970" points="613.8737,-29.9111 611.0644,-19.6955 606.89,-29.4333 613.8737,-29.9111"/>
</g>
<!-- Node8 -->
<g id="node9" class="node">
<title>Node8</title>
<g id="a_node9"><a xlink:href="_field_8_h.html" target="_top" xlink:title="amr&#45;wind/core/Field.H">
<polygon fill="#ffffff" stroke="#000000" points="920.5055,-118 920.5055,-137 1033.5055,-137 1033.5055,-118 920.5055,-118"/>
<text text-anchor="middle" x="977.0055" y="-125" font-family="Helvetica,sans-Serif" font-size="10.00" fill="#000000">amr&#45;wind/core/Field.H</text>
</a>
</g>
</g>
<!-- Node1&#45;&gt;Node8 -->
<g id="edge9" class="edge">
<title>Node1&#45;&gt;Node8</title>
<path fill="none" stroke="#191970" d="M701.6561,-184.9717C759.453,-172.9082 858.9763,-152.1354 921.2181,-139.1441"/>
<polygon fill="#191970" stroke="#191970" points="922.1789,-142.5191 931.2528,-137.0496 920.7486,-135.6667 922.1789,-142.5191"/>
</g>
<!-- Node15 -->
<g id="node16" class="node">
<title>Node15</title>
<g id="a_node16"><a xlink:href="_int_field_8_h.html" target="_top" xlink:title="amr&#45;wind/core/IntField.H">
<polygon fill="#ffffff" stroke="#000000" points="330.0055,-118 330.0055,-137 454.0055,-137 454.0055,-118 330.0055,-118"/>
<text text-anchor="middle" x="392.0055" y="-125" font-family="Helvetica,sans-Serif" font-size="10.00" fill="#000000">amr&#45;wind/core/IntField.H</text>
</a>
</g>
</g>
<!-- Node1&#45;&gt;Node15 -->
<g id="edge23" class="edge">
<title>Node1&#45;&gt;Node15</title>
<path fill="none" stroke="#191970" d="M618.4611,-184.9717C571.484,-173.0495 490.989,-152.6208 439.698,-139.6038"/>
<polygon fill="#191970" stroke="#191970" points="440.4015,-136.1714 429.8478,-137.1039 438.6796,-142.9563 440.4015,-136.1714"/>
</g>
<!-- Node16 -->
<g id="node17" class="node">
<title>Node16</title>
<polygon fill="#ffffff" stroke="#bfbfbf" points="400.5055,-56.5 400.5055,-75.5 507.5055,-75.5 507.5055,-56.5 400.5055,-56.5"/>
<text text-anchor="middle" x="454.0055" y="-63.5" font-family="Helvetica,sans-Serif" font-size="10.00" fill="#000000">AMReX_iMultiFab.H</text>
</g>
<!-- Node1&#45;&gt;Node16 -->
<g id="edge36" class="edge">
<title>Node1&#45;&gt;Node16</title>
<path fill="none" stroke="#191970" d="M617.2451,-184.9699C589.1207,-176.8285 551.0708,-163.1915 522.0055,-143 498.895,-126.9453 478.4411,-101.431 466.148,-84.2162"/>
<polygon fill="#191970" stroke="#191970" points="468.7644,-81.8467 460.1931,-75.6191 463.0101,-85.8326 468.7644,-81.8467"/>
</g>
<!-- Node17 -->
<g id="node18" class="node">
<title>Node17</title>
<g id="a_node18"><a xlink:href="_scratch_field_8_h.html" target="_top" xlink:title="amr&#45;wind/core/ScratchField.H">
<polygon fill="#ffffff" stroke="#000000" points="631.0055,-118 631.0055,-137 777.0055,-137 777.0055,-118 631.0055,-118"/>
<text text-anchor="middle" x="704.0055" y="-125" font-family="Helvetica,sans-Serif" font-size="10.00" fill="#000000">amr&#45;wind/core/ScratchField.H</text>
</a>
</g>
</g>
<!-- Node1&#45;&gt;Node17 -->
<g id="edge27" class="edge">
<title>Node1&#45;&gt;Node17</title>
<path fill="none" stroke="#191970" d="M662.8827,-184.9005C670.2253,-174.6515 682.0296,-158.1747 691.1117,-145.4976"/>
<polygon fill="#191970" stroke="#191970" points="694.1623,-147.2492 697.141,-137.0817 688.4719,-143.1724 694.1623,-147.2492"/>
</g>
<!-- Node19 -->
<g id="node20" class="node">
<title>Node19</title>
<polygon fill="#ffffff" stroke="#bfbfbf" points="1362.0055,-118 1362.0055,-137 1468.0055,-137 1468.0055,-118 1362.0055,-118"/>
<text text-anchor="middle" x="1415.0055" y="-125" font-family="Helvetica,sans-Serif" font-size="10.00" fill="#000000">AMReX_AmrCore.H</text>
</g>
<!-- Node1&#45;&gt;Node19 -->
<g id="edge34" class="edge">
<title>Node1&#45;&gt;Node19</title>
<path fill="none" stroke="#191970" d="M724.2283,-193.3268C849.5412,-190.3162 1124.4885,-179.7294 1353.0055,-143 1358.9706,-142.0412 1365.2032,-140.789 1371.3197,-139.4117"/>
<polygon fill="#191970" stroke="#191970" points="1372.5173,-142.7245 1381.4358,-137.0051 1370.8972,-135.9145 1372.5173,-142.7245"/>
</g>
<!-- Node5&#45;&gt;Node4 -->
<g id="edge6" class="edge">
<title>Node5&#45;&gt;Node4</title>
<path fill="none" stroke="#191970" d="M196.5655,-117.5919C204.1855,-102.1289 220.9713,-72.3412 244.0055,-56 267.3773,-39.4193 296.8032,-28.7296 323.5905,-21.8766"/>
<polygon fill="#191970" stroke="#191970" points="324.4275,-25.2751 333.324,-19.5215 322.7813,-18.4714 324.4275,-25.2751"/>
</g>
<!-- Node5&#45;&gt;Node6 -->
<g id="edge7" class="edge">
<title>Node5&#45;&gt;Node6</title>
<path fill="none" stroke="#191970" d="M210.4036,-117.9196C240.4864,-102.6379 302.4271,-72.7631 358.0055,-56 421.9615,-36.7102 497.5548,-24.2883 549.5493,-17.2764"/>
<polygon fill="#191970" stroke="#191970" points="550.1676,-20.7252 559.6231,-15.9457 549.2508,-13.7855 550.1676,-20.7252"/>
</g>
<!-- Node7 -->
<g id="node8" class="node">
<title>Node7</title>
<polygon fill="#ffffff" stroke="#bfbfbf" points="76.0055,-56.5 76.0055,-75.5 192.0055,-75.5 192.0055,-56.5 76.0055,-56.5"/>
<text text-anchor="middle" x="134.0055" y="-63.5" font-family="Helvetica,sans-Serif" font-size="10.00" fill="#000000">AMReX_Interpolater.H</text>
</g>
<!-- Node5&#45;&gt;Node7 -->
<g id="edge8" class="edge">
<title>Node5&#45;&gt;Node7</title>
<path fill="none" stroke="#191970" d="M182.943,-117.8906C174.2262,-108.6478 160.8515,-94.466 150.2859,-83.2628"/>
<polygon fill="#191970" stroke="#191970" points="152.6031,-80.6186 143.1958,-75.7449 147.5106,-85.4213 152.6031,-80.6186"/>
</g>
<!-- Node8&#45;&gt;Node2 -->
<g id="edge10" class="edge">
<title>Node8&#45;&gt;Node2</title>
<path fill="none" stroke="#191970" d="M1020.5522,-117.9483C1029.6228,-115.9713 1039.1245,-113.9097 1048.0055,-112 1123.5107,-95.7637 1169.3797,-136.0014 1218.0055,-76 1223.6021,-69.0942 1223.4977,-62.9892 1218.0055,-56 1198.6555,-31.3756 1108.1369,-18.2865 1059.7303,-12.9434"/>
<polygon fill="#191970" stroke="#191970" points="1059.8318,-9.4347 1049.5189,-11.8624 1059.0948,-16.3958 1059.8318,-9.4347"/>
</g>
<!-- Node8&#45;&gt;Node3 -->
<g id="edge12" class="edge">
<title>Node8&#45;&gt;Node3</title>
<path fill="none" stroke="#191970" d="M1015.8877,-117.987C1026.2698,-115.7284 1037.5189,-113.5327 1048.0055,-112 1255.0863,-81.7329 1312.5359,-103.7904 1524.1302,-75.9535"/>
<polygon fill="#191970" stroke="#191970" points="1524.8762,-79.3849 1534.3238,-74.5898 1523.948,-72.4467 1524.8762,-79.3849"/>
</g>
<!-- Node8&#45;&gt;Node4 -->
<g id="edge17" class="edge">
<title>Node8&#45;&gt;Node4</title>
<path fill="none" stroke="#191970" d="M1017.3516,-117.9441C1065.0796,-106.2367 1139.1042,-86.6495 1147.0055,-76 1152.3019,-68.8614 1153.0985,-62.4721 1147.0055,-56 1101.5302,-7.695 617.2185,-24.1495 551.0055,-20 530.7834,-18.7327 509.0698,-17.3415 488.5106,-16.0102"/>
<polygon fill="#191970" stroke="#191970" points="488.7279,-12.517 478.5223,-15.3622 488.2747,-19.5023 488.7279,-12.517"/>
</g>
<!-- Node8&#45;&gt;Node6 -->
<g id="edge13" class="edge">
<title>Node8&#45;&gt;Node6</title>
<path fill="none" stroke="#191970" d="M1020.1851,-117.9586C1078.2949,-104.9151 1175.024,-82.4031 1180.0055,-76 1185.4637,-68.9842 1186.0319,-62.5342 1180.0055,-56 1163.0364,-37.6011 817.8748,-19.5425 674.0625,-12.7861"/>
<polygon fill="#191970" stroke="#191970" points="674.2156,-9.2896 664.0633,-12.3194 673.8892,-16.282 674.2156,-9.2896"/>
</g>
<!-- Node9 -->
<g id="node10" class="node">
<title>Node9</title>
<polygon fill="#ffffff" stroke="#bfbfbf" points="1952.0055,-56.5 1952.0055,-75.5 2004.0055,-75.5 2004.0055,-56.5 1952.0055,-56.5"/>
<text text-anchor="middle" x="1978.0055" y="-63.5" font-family="Helvetica,sans-Serif" font-size="10.00" fill="#000000">memory</text>
</g>
<!-- Node8&#45;&gt;Node9 -->
<g id="edge11" class="edge">
<title>Node8&#45;&gt;Node9</title>
<path fill="none" stroke="#191970" d="M1033.2755,-117.9989C1048.7079,-115.6978 1065.4676,-113.4781 1081.0055,-112 1459.3723,-76.0061 1562.6494,-136.0252 1941.6362,-75.8418"/>
<polygon fill="#191970" stroke="#191970" points="1942.4645,-79.2537 1951.7831,-74.2123 1941.3546,-72.3422 1942.4645,-79.2537"/>
</g>
<!-- Node10 -->
<g id="node11" class="node">
<title>Node10</title>
<polygon fill="#ffffff" stroke="#bfbfbf" points="1270.5055,-56.5 1270.5055,-75.5 1369.5055,-75.5 1369.5055,-56.5 1270.5055,-56.5"/>
<text text-anchor="middle" x="1320.0055" y="-63.5" font-family="Helvetica,sans-Serif" font-size="10.00" fill="#000000">AMReX_BCRec.H</text>
</g>
<!-- Node8&#45;&gt;Node10 -->
<g id="edge14" class="edge">
<title>Node8&#45;&gt;Node10</title>
<path fill="none" stroke="#191970" d="M1018.986,-117.9903C1028.5097,-115.929 1038.5916,-113.8225 1048.0055,-112 1087.642,-104.3263 1193.0434,-86.8089 1260.3963,-75.7416"/>
<polygon fill="#191970" stroke="#191970" points="1261.1532,-79.1643 1270.4541,-74.0904 1260.0191,-72.2567 1261.1532,-79.1643"/>
</g>
<!-- Node11 -->
<g id="node12" class="node">
<title>Node11</title>
<polygon fill="#ffffff" stroke="#bfbfbf" points="1052.5055,-56.5 1052.5055,-75.5 1137.5055,-75.5 1137.5055,-56.5 1052.5055,-56.5"/>
<text text-anchor="middle" x="1095.0055" y="-63.5" font-family="Helvetica,sans-Serif" font-size="10.00" fill="#000000">AMReX_Gpu.H</text>
</g>
<!-- Node8&#45;&gt;Node11 -->
<g id="edge15" class="edge">
<title>Node8&#45;&gt;Node11</title>
<path fill="none" stroke="#191970" d="M995.443,-117.8906C1014.8402,-107.7811 1045.5745,-91.7628 1067.7672,-80.1962"/>
<polygon fill="#191970" stroke="#191970" points="1069.4473,-83.2675 1076.6975,-75.5419 1066.212,-77.06 1069.4473,-83.2675"/>
</g>
<!-- Node12 -->
<g id="node13" class="node">
<title>Node12</title>
<g id="a_node13"><a xlink:href="incflo__enums_8_h.html" target="_top" xlink:title="amr&#45;wind/incflo_enums.H">
<polygon fill="#ffffff" stroke="#000000" points="1388.0055,-56.5 1388.0055,-75.5 1516.0055,-75.5 1516.0055,-56.5 1388.0055,-56.5"/>
<text text-anchor="middle" x="1452.0055" y="-63.5" font-family="Helvetica,sans-Serif" font-size="10.00" fill="#000000">amr&#45;wind/incflo_enums.H</text>
</a>
</g>
</g>
<!-- Node8&#45;&gt;Node12 -->
<g id="edge16" class="edge">
<title>Node8&#45;&gt;Node12</title>
<path fill="none" stroke="#191970" d="M1017.0395,-117.9789C1027.1076,-115.8003 1037.9192,-113.6447 1048.0055,-112 1190.7749,-88.7202 1230.3661,-93.7953 1377.6023,-76.1348"/>
<polygon fill="#191970" stroke="#191970" points="1378.4196,-79.5613 1387.9245,-74.8808 1377.5754,-72.6124 1378.4196,-79.5613"/>
</g>
<!-- Node13 -->
<g id="node14" class="node">
<title>Node13</title>
<g id="a_node14"><a xlink:href="_view_field_8_h.html" target="_top" xlink:title="amr&#45;wind/core/ViewField.H">
<polygon fill="#ffffff" stroke="#000000" points="786.0055,-56.5 786.0055,-75.5 920.0055,-75.5 920.0055,-56.5 786.0055,-56.5"/>
<text text-anchor="middle" x="853.0055" y="-63.5" font-family="Helvetica,sans-Serif" font-size="10.00" fill="#000000">amr&#45;wind/core/ViewField.H</text>
</a>
</g>
</g>
<!-- Node8&#45;&gt;Node13 -->
<g id="edge18" class="edge">
<title>Node8&#45;&gt;Node13</title>
<path fill="none" stroke="#191970" d="M957.6305,-117.8906C937.156,-107.7359 904.6614,-91.6196 881.317,-80.0416"/>
<polygon fill="#191970" stroke="#191970" points="882.7583,-76.8496 872.2445,-75.5419 879.648,-83.1207 882.7583,-76.8496"/>
</g>
<!-- Node13&#45;&gt;Node2 -->
<g id="edge19" class="edge">
<title>Node13&#45;&gt;Node2</title>
<path fill="none" stroke="#191970" d="M884.346,-56.4788C912.1841,-47.9586 954.2005,-34.9458 998.8675,-20.3196"/>
<polygon fill="#191970" stroke="#191970" points="1000.0279,-23.6225 1008.4351,-17.175 997.8422,-16.9724 1000.0279,-23.6225"/>
</g>
<!-- Node13&#45;&gt;Node4 -->
<g id="edge20" class="edge">
<title>Node13&#45;&gt;Node4</title>
<path fill="none" stroke="#191970" d="M785.8736,-57.1285C782.877,-56.7446 779.9102,-56.3669 777.0055,-56 678.2586,-43.5271 564.9853,-29.9034 487.9837,-20.7449"/>
<polygon fill="#191970" stroke="#191970" points="488.1792,-17.2436 477.836,-19.5388 487.353,-24.1946 488.1792,-17.2436"/>
</g>
<!-- Node13&#45;&gt;Node6 -->
<g id="edge21" class="edge">
<title>Node13&#45;&gt;Node6</title>
<path fill="none" stroke="#191970" d="M811.85,-56.4369C770.6913,-46.8731 707.3005,-32.1432 662.9813,-21.845"/>
<polygon fill="#191970" stroke="#191970" points="663.524,-18.3779 652.9913,-19.5237 661.9396,-25.1963 663.524,-18.3779"/>
</g>
<!-- Node14 -->
<g id="node15" class="node">
<title>Node14</title>
<polygon fill="#ffffff" stroke="#bfbfbf" points="895.5055,-.5 895.5055,-19.5 990.5055,-19.5 990.5055,-.5 895.5055,-.5"/>
<text text-anchor="middle" x="943.0055" y="-7.5" font-family="Helvetica,sans-Serif" font-size="10.00" fill="#000000">AMReX_Vector.H</text>
</g>
<!-- Node13&#45;&gt;Node14 -->
<g id="edge22" class="edge">
<title>Node13&#45;&gt;Node14</title>
<path fill="none" stroke="#191970" d="M868.6823,-56.2455C882.4911,-47.6534 902.8248,-35.0014 918.7347,-25.1018"/>
<polygon fill="#191970" stroke="#191970" points="920.8668,-27.8974 927.5084,-19.6427 917.1687,-21.954 920.8668,-27.8974"/>
</g>
<!-- Node15&#45;&gt;Node2 -->
<g id="edge24" class="edge">
<title>Node15&#45;&gt;Node2</title>
<path fill="none" stroke="#191970" d="M388.2879,-117.6583C383.1934,-102.2863 376.3396,-72.621 392.0055,-56 436.6999,-8.5809 897.487,-31.2976 998.2792,-19.436"/>
<polygon fill="#191970" stroke="#191970" points="998.9288,-22.8774 1008.2841,-17.9045 997.8696,-15.958 998.9288,-22.8774"/>
</g>
<!-- Node15&#45;&gt;Node4 -->
<g id="edge25" class="edge">
<title>Node15&#45;&gt;Node4</title>
<path fill="none" stroke="#191970" d="M381.6788,-117.5705C368.8684,-103.9896 349.6736,-78.7114 358.0055,-56 362.0623,-44.9418 370.0852,-34.7193 377.8049,-26.7335"/>
<polygon fill="#191970" stroke="#191970" points="380.4927,-29.0041 385.2655,-19.5451 375.6357,-23.9632 380.4927,-29.0041"/>
</g>
<!-- Node15&#45;&gt;Node16 -->
<g id="edge26" class="edge">
<title>Node15&#45;&gt;Node16</title>
<path fill="none" stroke="#191970" d="M401.693,-117.8906C411.1014,-108.5581 425.5862,-94.1902 436.9304,-82.9374"/>
<polygon fill="#191970" stroke="#191970" points="439.5466,-85.2722 444.1814,-75.7449 434.6169,-80.3024 439.5466,-85.2722"/>
</g>
<!-- Node17&#45;&gt;Node2 -->
<g id="edge28" class="edge">
<title>Node17&#45;&gt;Node2</title>
<path fill="none" stroke="#191970" d="M777.1072,-121.2187C827.1662,-114.764 894.0024,-101.8113 948.0055,-76 973.3708,-63.8764 997.7114,-42.242 1012.9712,-27.0562"/>
<polygon fill="#191970" stroke="#191970" points="1015.5905,-29.3837 1020.0806,-19.7873 1010.5862,-24.4891 1015.5905,-29.3837"/>
</g>
<!-- Node17&#45;&gt;Node4 -->
<g id="edge29" class="edge">
<title>Node17&#45;&gt;Node4</title>
<path fill="none" stroke="#191970" d="M679.1425,-117.984C624.537,-97.0845 494.0337,-47.1362 431.5267,-23.2125"/>
<polygon fill="#191970" stroke="#191970" points="432.691,-19.9106 422.1006,-19.6048 430.1889,-26.4481 432.691,-19.9106"/>
</g>
<!-- Node17&#45;&gt;Node6 -->
<g id="edge31" class="edge">
<title>Node17&#45;&gt;Node6</title>
<path fill="none" stroke="#191970" d="M683.4284,-117.8992C666.9338,-109.1875 644.4022,-94.8308 631.0055,-76 621.2973,-62.3538 616.5226,-43.8147 614.1902,-29.8593"/>
<polygon fill="#191970" stroke="#191970" points="617.6397,-29.2536 612.7957,-19.831 610.7065,-30.2178 617.6397,-29.2536"/>
</g>
<!-- Node17&#45;&gt;Node13 -->
<g id="edge30" class="edge">
<title>Node17&#45;&gt;Node13</title>
<path fill="none" stroke="#191970" d="M727.2868,-117.8906C752.3265,-107.5554 792.3281,-91.0447 820.4715,-79.4284"/>
<polygon fill="#191970" stroke="#191970" points="821.9795,-82.5925 829.8877,-75.5419 819.3088,-76.122 821.9795,-82.5925"/>
</g>
<!-- Node17&#45;&gt;Node14 -->
<g id="edge32" class="edge">
<title>Node17&#45;&gt;Node14</title>
<path fill="none" stroke="#191970" d="M777.2312,-119.3014C834.5453,-111.3737 907.9595,-97.3853 929.0055,-76 940.9214,-63.8921 943.8292,-44.3201 944.1112,-29.6274"/>
<polygon fill="#191970" stroke="#191970" points="947.6092,-29.4794 943.9207,-19.5473 940.6104,-29.6117 947.6092,-29.4794"/>
</g>
<!-- Node18 -->
<g id="node19" class="node">
<title>Node18</title>
<polygon fill="#ffffff" stroke="#bfbfbf" points="640.0055,-56.5 640.0055,-75.5 768.0055,-75.5 768.0055,-56.5 640.0055,-56.5"/>
<text text-anchor="middle" x="704.0055" y="-63.5" font-family="Helvetica,sans-Serif" font-size="10.00" fill="#000000">AMReX_PhysBCFunct.H</text>
</g>
<!-- Node17&#45;&gt;Node18 -->
<g id="edge33" class="edge">
<title>Node17&#45;&gt;Node18</title>
<path fill="none" stroke="#191970" d="M704.0055,-117.8906C704.0055,-109.3657 704.0055,-96.6392 704.0055,-85.9235"/>
<polygon fill="#191970" stroke="#191970" points="707.5056,-85.7448 704.0055,-75.7449 700.5056,-85.7449 707.5056,-85.7448"/>
</g>
<!-- Node20&#45;&gt;Node1 -->
<g id="edge46" class="edge">
<title>Node20&#45;&gt;Node1</title>
<path fill="none" stroke="#191970" d="M505.5429,-246.4639C539.6611,-234.6808 586.6123,-218.4657 618.9474,-207.2984"/>
<polygon fill="#191970" stroke="#191970" points="620.1731,-210.578 628.4827,-204.0053 617.888,-203.9615 620.1731,-210.578"/>
</g>
<!-- Node20&#45;&gt;Node4 -->
<g id="edge44" class="edge">
<title>Node20&#45;&gt;Node4</title>
<path fill="none" stroke="#191970" d="M392.394,-258.0998C277.2281,-251.755 57.3454,-236.3167 34.0055,-210 -11.4092,-158.7931 -11.2477,-107.3497 34.0055,-56 51.6945,-35.928 203.299,-22.3531 304.9089,-15.4164"/>
<polygon fill="#191970" stroke="#191970" points="305.4506,-18.888 315.1934,-14.7252 304.9812,-11.9038 305.4506,-18.888"/>
</g>
<!-- Node20&#45;&gt;Node5 -->
<g id="edge45" class="edge">
<title>Node20&#45;&gt;Node5</title>
<path fill="none" stroke="#191970" d="M431.5579,-246.389C378.9551,-220.2824 271.7837,-167.0936 220.5388,-141.661"/>
<polygon fill="#191970" stroke="#191970" points="221.8707,-138.4147 211.3572,-137.1042 218.7587,-144.6849 221.8707,-138.4147"/>
</g>
<!-- Node20&#45;&gt;Node6 -->
<g id="edge47" class="edge">
<title>Node20&#45;&gt;Node6</title>
<path fill="none" stroke="#191970" d="M392.3127,-251.6511C253.4146,-229.3722 -36.0483,-168.1183 67.0055,-56 68.0193,-54.897 406.5809,-26.9089 549.5084,-15.1389"/>
<polygon fill="#191970" stroke="#191970" points="550.1838,-18.5952 559.8628,-14.2864 549.6093,-11.6188 550.1838,-18.5952"/>
</g>
<!-- Node21 -->
<g id="node22" class="node">
<title>Node21</title>
<g id="a_node22"><a xlink:href="_factory_8_h.html" target="_top" xlink:title="amr&#45;wind/core/Factory.H">
<polygon fill="#ffffff" stroke="#000000" points="1869.5055,-118 1869.5055,-137 1994.5055,-137 1994.5055,-118 1869.5055,-118"/>
<text text-anchor="middle" x="1932.0055" y="-125" font-family="Helvetica,sans-Serif" font-size="10.00" fill="#000000">amr&#45;wind/core/Factory.H</text>
</a>
</g>
</g>
<!-- Node20&#45;&gt;Node21 -->
<g id="edge38" class="edge">
<title>Node20&#45;&gt;Node21</title>
<path fill="none" stroke="#191970" d="M531.7484,-258.5224C606.3131,-255.3539 728.0111,-250.2254 833.0055,-246 1039.6597,-237.6834 1562.4314,-260.4493 1763.0055,-210 1818.6255,-196.0102 1877.4864,-162.3755 1908.9528,-142.6424"/>
<polygon fill="#191970" stroke="#191970" points="1910.8859,-145.5609 1917.441,-137.2373 1907.126,-139.6564 1910.8859,-145.5609"/>
</g>
<!-- Node21&#45;&gt;Node3 -->
<g id="edge40" class="edge">
<title>Node21&#45;&gt;Node3</title>
<path fill="none" stroke="#191970" d="M1890.0351,-117.9378C1880.5109,-115.8793 1870.4262,-113.7872 1861.0055,-112 1779.8824,-96.6103 1685.1404,-81.9778 1627.9046,-73.5014"/>
<polygon fill="#191970" stroke="#191970" points="1628.0693,-69.9879 1617.6657,-71.9915 1627.0481,-76.913 1628.0693,-69.9879"/>
</g>
<!-- Node21&#45;&gt;Node9 -->
<g id="edge39" class="edge">
<title>Node21&#45;&gt;Node9</title>
<path fill="none" stroke="#191970" d="M1939.193,-117.8906C1945.9721,-108.8273 1956.3033,-95.0149 1964.6029,-83.9188"/>
<polygon fill="#191970" stroke="#191970" points="1967.5298,-85.849 1970.7167,-75.7449 1961.9243,-81.6563 1967.5298,-85.849"/>
</g>
<!-- Node22 -->
<g id="node23" class="node">
<title>Node22</title>
<polygon fill="#ffffff" stroke="#bfbfbf" points="1880.0055,-56.5 1880.0055,-75.5 1934.0055,-75.5 1934.0055,-56.5 1880.0055,-56.5"/>
<text text-anchor="middle" x="1907.0055" y="-63.5" font-family="Helvetica,sans-Serif" font-size="10.00" fill="#000000">iostream</text>
</g>
<!-- Node21&#45;&gt;Node22 -->
<g id="edge41" class="edge">
<title>Node21&#45;&gt;Node22</title>
<path fill="none" stroke="#191970" d="M1928.0993,-117.8906C1924.5609,-109.1862 1919.2419,-96.1015 1914.8305,-85.2494"/>
<polygon fill="#191970" stroke="#191970" points="1917.975,-83.6907 1910.9668,-75.7449 1911.4903,-86.3268 1917.975,-83.6907"/>
</g>
<!-- Node23 -->
<g id="node24" class="node">
<title>Node23</title>
<polygon fill="#ffffff" stroke="#bfbfbf" points="2022.5055,-56.5 2022.5055,-75.5 2109.5055,-75.5 2109.5055,-56.5 2022.5055,-56.5"/>
<text text-anchor="middle" x="2066.0055" y="-63.5" font-family="Helvetica,sans-Serif" font-size="10.00" fill="#000000">AMReX_Print.H</text>
</g>
<!-- Node21&#45;&gt;Node23 -->
<g id="edge42" class="edge">
<title>Node21&#45;&gt;Node23</title>
<path fill="none" stroke="#191970" d="M1952.943,-117.8906C1975.2653,-107.6457 2010.8092,-91.3326 2036.0812,-79.7339"/>
<polygon fill="#191970" stroke="#191970" points="2037.5865,-82.8942 2045.215,-75.5419 2034.6666,-76.5322 2037.5865,-82.8942"/>
</g>
<!-- Node24 -->
<g id="node25" class="node">
<title>Node24</title>
<polygon fill="#ffffff" stroke="#bfbfbf" points="1800.0055,-56.5 1800.0055,-75.5 1862.0055,-75.5 1862.0055,-56.5 1800.0055,-56.5"/>
<text text-anchor="middle" x="1831.0055" y="-63.5" font-family="Helvetica,sans-Serif" font-size="10.00" fill="#000000">AMReX.H</text>
</g>
<!-- Node21&#45;&gt;Node24 -->
<g id="edge43" class="edge">
<title>Node21&#45;&gt;Node24</title>
<path fill="none" stroke="#191970" d="M1916.2243,-117.8906C1899.9181,-107.9616 1874.2515,-92.333 1855.3441,-80.8201"/>
<polygon fill="#191970" stroke="#191970" points="1857.0374,-77.7533 1846.6759,-75.5419 1853.3968,-83.7322 1857.0374,-77.7533"/>
</g>
<!-- Node25&#45;&gt;Node8 -->
<g id="edge75" class="edge">
<title>Node25&#45;&gt;Node8</title>
<path fill="none" stroke="#191970" d="M977.0055,-313.3923C977.0055,-277.5844 977.0055,-187.5545 977.0055,-147.386"/>
<polygon fill="#191970" stroke="#191970" points="980.5056,-147.2562 977.0055,-137.2562 973.5056,-147.2562 980.5056,-147.2562"/>
</g>
<!-- Node26 -->
<g id="node27" class="node">
<title>Node26</title>
<g id="a_node27"><a xlink:href="_direction_selector_8_h.html" target="_top" xlink:title="amr&#45;wind/utilities\l/DirectionSelector.H">
<polygon fill="#ffffff" stroke="#000000" points="841.5055,-246.5 841.5055,-276.5 946.5055,-276.5 946.5055,-246.5 841.5055,-246.5"/>
<text text-anchor="start" x="849.5055" y="-264.5" font-family="Helvetica,sans-Serif" font-size="10.00" fill="#000000">amr&#45;wind/utilities</text>
<text text-anchor="middle" x="894.0055" y="-253.5" font-family="Helvetica,sans-Serif" font-size="10.00" fill="#000000">/DirectionSelector.H</text>
</a>
</g>
</g>
<!-- Node25&#45;&gt;Node26 -->
<g id="edge49" class="edge">
<title>Node25&#45;&gt;Node26</title>
<path fill="none" stroke="#191970" d="M958.1715,-313.2967C947.135,-304.3876 933.0133,-292.9882 920.829,-283.1527"/>
<polygon fill="#191970" stroke="#191970" points="922.7446,-280.201 912.765,-276.6432 918.3477,-285.6478 922.7446,-280.201"/>
</g>
<!-- Node27 -->
<g id="node28" class="node">
<title>Node27</title>
<g id="a_node28"><a xlink:href="_c_f_d_sim_8_h.html" target="_top" xlink:title="amr&#45;wind/CFDSim.H">
<polygon fill="#ffffff" stroke="#000000" points="1290.0055,-252 1290.0055,-271 1398.0055,-271 1398.0055,-252 1290.0055,-252"/>
<text text-anchor="middle" x="1344.0055" y="-259" font-family="Helvetica,sans-Serif" font-size="10.00" fill="#000000">amr&#45;wind/CFDSim.H</text>
</a>
</g>
</g>
<!-- Node25&#45;&gt;Node27 -->
<g id="edge51" class="edge">
<title>Node25&#45;&gt;Node27</title>
<path fill="none" stroke="#191970" d="M1036.7872,-317.5862C1104.1158,-305.2946 1213.0382,-285.4096 1281.4747,-272.9157"/>
<polygon fill="#191970" stroke="#191970" points="1282.4743,-276.2912 1291.6831,-271.0521 1281.217,-269.405 1282.4743,-276.2912"/>
</g>
<!-- Node28 -->
<g id="node29" class="node">
<title>Node28</title>
<g id="a_node29"><a xlink:href="_sim_time_8_h.html" target="_top" xlink:title="amr&#45;wind/core/SimTime.H">
<polygon fill="#ffffff" stroke="#000000" points="1223.5055,-185 1223.5055,-204 1354.5055,-204 1354.5055,-185 1223.5055,-185"/>
<text text-anchor="middle" x="1289.0055" y="-192" font-family="Helvetica,sans-Serif" font-size="10.00" fill="#000000">amr&#45;wind/core/SimTime.H</text>
</a>
</g>
</g>
<!-- Node25&#45;&gt;Node28 -->
<g id="edge76" class="edge">
<title>Node25&#45;&gt;Node28</title>
<path fill="none" stroke="#191970" d="M1012.1894,-313.389C1073.354,-287.1196 1198.3646,-233.4291 1257.1342,-208.1883"/>
<polygon fill="#191970" stroke="#191970" points="1258.8364,-211.2665 1266.6436,-204.1042 1256.0739,-204.8346 1258.8364,-211.2665"/>
</g>
<!-- Node26&#45;&gt;Node11 -->
<g id="edge50" class="edge">
<title>Node26&#45;&gt;Node11</title>
<path fill="none" stroke="#191970" d="M890.7624,-246.1372C885.4301,-216.2881 878.4811,-150.0557 912.0055,-112 920.7604,-102.0618 991.4825,-86.3229 1042.387,-76.0781"/>
<polygon fill="#191970" stroke="#191970" points="1043.1569,-79.4936 1052.2795,-74.1057 1041.7881,-72.6287 1043.1569,-79.4936"/>
</g>
<!-- Node27&#45;&gt;Node1 -->
<g id="edge57" class="edge">
<title>Node27&#45;&gt;Node1</title>
<path fill="none" stroke="#191970" d="M1289.7321,-256.2147C1168.5412,-244.4126 875.502,-215.8754 734.4465,-202.1389"/>
<polygon fill="#191970" stroke="#191970" points="734.4396,-198.6217 724.1474,-201.1359 733.761,-205.5888 734.4396,-198.6217"/>
</g>
<!-- Node27&#45;&gt;Node19 -->
<g id="edge52" class="edge">
<title>Node27&#45;&gt;Node19</title>
<path fill="none" stroke="#191970" d="M1349.1117,-251.8631C1360.83,-229.7466 1389.8203,-175.0326 1405.1455,-146.109"/>
<polygon fill="#191970" stroke="#191970" points="1408.3564,-147.5246 1409.9456,-137.0496 1402.171,-144.2472 1408.3564,-147.5246"/>
</g>
<!-- Node27&#45;&gt;Node28 -->
<g id="edge53" class="edge">
<title>Node27&#45;&gt;Node28</title>
<path fill="none" stroke="#191970" d="M1336.1254,-251.9005C1327.6303,-241.552 1313.9231,-224.8542 1303.4775,-212.1295"/>
<polygon fill="#191970" stroke="#191970" points="1305.9213,-209.5902 1296.8711,-204.0817 1300.5108,-214.0317 1305.9213,-209.5902"/>
</g>
<!-- Node32 -->
<g id="node33" class="node">
<title>Node32</title>
<g id="a_node33"><a xlink:href="_p_d_e_base_8_h.html" target="_top" xlink:title="amr&#45;wind/equation_systems\l/PDEBase.H">
<polygon fill="#ffffff" stroke="#000000" points="1614.5055,-179.5 1614.5055,-209.5 1753.5055,-209.5 1753.5055,-179.5 1614.5055,-179.5"/>
<text text-anchor="start" x="1622.5055" y="-197.5" font-family="Helvetica,sans-Serif" font-size="10.00" fill="#000000">amr&#45;wind/equation_systems</text>
<text text-anchor="middle" x="1684.0055" y="-186.5" font-family="Helvetica,sans-Serif" font-size="10.00" fill="#000000">/PDEBase.H</text>
</a>
</g>
</g>
<!-- Node27&#45;&gt;Node32 -->
<g id="edge58" class="edge">
<title>Node27&#45;&gt;Node32</title>
<path fill="none" stroke="#191970" d="M1392.3581,-251.9717C1447.5507,-241.0955 1538.6675,-223.1401 1604.3819,-210.1905"/>
<polygon fill="#191970" stroke="#191970" points="1605.1585,-213.6049 1614.2931,-208.2375 1603.805,-206.737 1605.1585,-213.6049"/>
</g>
<!-- Node36 -->
<g id="node37" class="node">
<title>Node36</title>
<g id="a_node37"><a xlink:href="_physics_8_h.html" target="_top" xlink:title="amr&#45;wind/core/Physics.H">
<polygon fill="#ffffff" stroke="#000000" points="2011.5055,-185 2011.5055,-204 2138.5055,-204 2138.5055,-185 2011.5055,-185"/>
<text text-anchor="middle" x="2075.0055" y="-192" font-family="Helvetica,sans-Serif" font-size="10.00" fill="#000000">amr&#45;wind/core/Physics.H</text>
</a>
</g>
</g>
<!-- Node27&#45;&gt;Node36 -->
<g id="edge70" class="edge">
<title>Node27&#45;&gt;Node36</title>
<path fill="none" stroke="#191970" d="M1398.0545,-256.5461C1527.2394,-244.7057 1854.0804,-214.7489 2001.2177,-201.263"/>
<polygon fill="#191970" stroke="#191970" points="2001.857,-204.7192 2011.4958,-200.321 2001.2181,-197.7484 2001.857,-204.7192"/>
</g>
<!-- Node29 -->
<g id="node30" class="node">
<title>Node29</title>
<polygon fill="#ffffff" stroke="#bfbfbf" points="1486.5055,-118 1486.5055,-137 1579.5055,-137 1579.5055,-118 1486.5055,-118"/>
<text text-anchor="middle" x="1533.0055" y="-125" font-family="Helvetica,sans-Serif" font-size="10.00" fill="#000000">AMReX_REAL.H</text>
</g>
<!-- Node28&#45;&gt;Node29 -->
<g id="edge54" class="edge">
<title>Node28&#45;&gt;Node29</title>
<path fill="none" stroke="#191970" d="M1324.0088,-184.9411C1361.7698,-174.6221 1423.6603,-157.6892 1477.0055,-143 1480.835,-141.9455 1484.8113,-140.8487 1488.7986,-139.7476"/>
<polygon fill="#191970" stroke="#191970" points="1489.9494,-143.0608 1498.6555,-137.0231 1488.0844,-136.3138 1489.9494,-143.0608"/>
</g>
<!-- Node30 -->
<g id="node31" class="node">
<title>Node30</title>
<polygon fill="#ffffff" stroke="#bfbfbf" points="1090.0055,-118 1090.0055,-137 1216.0055,-137 1216.0055,-118 1090.0055,-118"/>
<text text-anchor="middle" x="1153.0055" y="-125" font-family="Helvetica,sans-Serif" font-size="10.00" fill="#000000">AMReX_GpuQualifiers.H</text>
</g>
<!-- Node28&#45;&gt;Node30 -->
<g id="edge55" class="edge">
<title>Node28&#45;&gt;Node30</title>
<path fill="none" stroke="#191970" d="M1269.52,-184.9005C1246.4942,-173.5569 1207.9827,-154.5844 1181.5823,-141.5783"/>
<polygon fill="#191970" stroke="#191970" points="1182.9721,-138.3613 1172.4548,-137.0817 1179.8786,-144.6407 1182.9721,-138.3613"/>
</g>
<!-- Node31 -->
<g id="node32" class="node">
<title>Node31</title>
<polygon fill="#ffffff" stroke="#bfbfbf" points="1234.0055,-118 1234.0055,-137 1344.0055,-137 1344.0055,-118 1234.0055,-118"/>
<text text-anchor="middle" x="1289.0055" y="-125" font-family="Helvetica,sans-Serif" font-size="10.00" fill="#000000">AMReX_Extension.H</text>
</g>
<!-- Node28&#45;&gt;Node31 -->
<g id="edge56" class="edge">
<title>Node28&#45;&gt;Node31</title>
<path fill="none" stroke="#191970" d="M1289.0055,-184.9005C1289.0055,-175.149 1289.0055,-159.7597 1289.0055,-147.3695"/>
<polygon fill="#191970" stroke="#191970" points="1292.5056,-147.0816 1289.0055,-137.0817 1285.5056,-147.0817 1292.5056,-147.0816"/>
</g>
<!-- Node32&#45;&gt;Node2 -->
<g id="edge59" class="edge">
<title>Node32&#45;&gt;Node2</title>
<path fill="none" stroke="#191970" d="M1686.7027,-179.2095C1690.8277,-150.2821 1694.9134,-87.6185 1660.0055,-56 1637.5084,-35.6228 1183.2815,-16.1347 1059.773,-11.1969"/>
<polygon fill="#191970" stroke="#191970" points="1059.6458,-7.6892 1049.5149,-10.79 1059.3683,-14.6837 1059.6458,-7.6892"/>
</g>
<!-- Node32&#45;&gt;Node4 -->
<g id="edge68" class="edge">
<title>Node32&#45;&gt;Node4</title>
<path fill="none" stroke="#191970" d="M1682.8861,-179.1263C1679.8096,-149.473 1668.4407,-84.7695 1627.0055,-56 1577.8756,-21.8879 610.7445,-22.9382 551.0055,-20 530.9747,-19.0148 509.4914,-17.7508 489.1176,-16.4552"/>
<polygon fill="#191970" stroke="#191970" points="489.1028,-12.9471 478.8985,-15.7971 488.6528,-19.9326 489.1028,-12.9471"/>
</g>
<!-- Node32&#45;&gt;Node12 -->
<g id="edge69" class="edge">
<title>Node32&#45;&gt;Node12</title>
<path fill="none" stroke="#191970" d="M1667.998,-179.233C1645.6608,-158.1736 1605.9765,-121.706 1589.0055,-112 1562.5479,-96.8684 1530.3504,-85.7393 1503.8184,-78.2215"/>
<polygon fill="#191970" stroke="#191970" points="1504.5204,-74.7849 1493.9509,-75.5162 1502.6695,-81.5358 1504.5204,-74.7849"/>
</g>
<!-- Node32&#45;&gt;Node21 -->
<g id="edge60" class="edge">
<title>Node32&#45;&gt;Node21</title>
<path fill="none" stroke="#191970" d="M1739.6616,-179.4639C1784.1226,-167.4522 1845.6313,-150.835 1887.0162,-139.6544"/>
<polygon fill="#191970" stroke="#191970" points="1888.0807,-142.9923 1896.8218,-137.0053 1886.255,-136.2346 1888.0807,-142.9923"/>
</g>
<!-- Node33 -->
<g id="node34" class="node">
<title>Node33</title>
<g id="a_node34"><a xlink:href="_coll_mgr_8_h.html" target="_top" xlink:title="amr&#45;wind/core/CollMgr.H">
<polygon fill="#ffffff" stroke="#000000" points="2012.5055,-118 2012.5055,-137 2137.5055,-137 2137.5055,-118 2012.5055,-118"/>
<text text-anchor="middle" x="2075.0055" y="-125" font-family="Helvetica,sans-Serif" font-size="10.00" fill="#000000">amr&#45;wind/core/CollMgr.H</text>
</a>
</g>
</g>
<!-- Node32&#45;&gt;Node33 -->
<g id="edge61" class="edge">
<title>Node32&#45;&gt;Node33</title>
<path fill="none" stroke="#191970" d="M1753.801,-184.4054C1818.7575,-174.7412 1918.1728,-159.263 2004.0055,-143 2010.1881,-141.8286 2016.6566,-140.5253 2023.0648,-139.1859"/>
<polygon fill="#191970" stroke="#191970" points="2023.9826,-142.5691 2033.0357,-137.0654 2022.5263,-135.7222 2023.9826,-142.5691"/>
</g>
<!-- Node34 -->
<g id="node35" class="node">
<title>Node34</title>
<g id="a_node35"><a xlink:href="_p_d_e_fields_8_h.html" target="_top" xlink:title="amr&#45;wind/equation_systems\l/PDEFields.H">
<polygon fill="#ffffff" stroke="#000000" points="1712.5055,-112.5 1712.5055,-142.5 1851.5055,-142.5 1851.5055,-112.5 1712.5055,-112.5"/>
<text text-anchor="start" x="1720.5055" y="-130.5" font-family="Helvetica,sans-Serif" font-size="10.00" fill="#000000">amr&#45;wind/equation_systems</text>
<text text-anchor="middle" x="1782.0055" y="-119.5" font-family="Helvetica,sans-Serif" font-size="10.00" fill="#000000">/PDEFields.H</text>
</a>
</g>
</g>
<!-- Node32&#45;&gt;Node34 -->
<g id="edge66" class="edge">
<title>Node32&#45;&gt;Node34</title>
<path fill="none" stroke="#191970" d="M1706.2432,-179.2967C1719.6502,-170.1306 1736.9131,-158.3285 1751.5735,-148.3055"/>
<polygon fill="#191970" stroke="#191970" points="1753.576,-151.1763 1759.8558,-142.6432 1749.6253,-145.3977 1753.576,-151.1763"/>
</g>
<!-- Node33&#45;&gt;Node2 -->
<g id="edge62" class="edge">
<title>Node33&#45;&gt;Node2</title>
<path fill="none" stroke="#191970" d="M2116.5178,-117.952C2159.6406,-106.2389 2217.2936,-84.3907 2190.0055,-56 2169.8427,-35.0225 1242.4749,-14.4829 1059.9892,-10.6403"/>
<polygon fill="#191970" stroke="#191970" points="1059.8233,-7.1362 1049.7521,-10.4259 1059.6766,-14.1346 1059.8233,-7.1362"/>
</g>
<!-- Node33&#45;&gt;Node3 -->
<g id="edge64" class="edge">
<title>Node33&#45;&gt;Node3</title>
<path fill="none" stroke="#191970" d="M2034.973,-117.97C2024.9048,-115.7916 2014.0929,-113.6383 2004.0055,-112 1932.7429,-100.4264 1725.2539,-80.1205 1627.7579,-70.8557"/>
<polygon fill="#191970" stroke="#191970" points="1627.8362,-67.3475 1617.5504,-69.8879 1627.1754,-74.3163 1627.8362,-67.3475"/>
</g>
<!-- Node33&#45;&gt;Node9 -->
<g id="edge63" class="edge">
<title>Node33&#45;&gt;Node9</title>
<path fill="none" stroke="#191970" d="M2059.8493,-117.8906C2044.3312,-108.0519 2019.9862,-92.6167 2001.8771,-81.1351"/>
<polygon fill="#191970" stroke="#191970" points="2003.3751,-77.9407 1993.0553,-75.5419 1999.6268,-83.8526 2003.3751,-77.9407"/>
</g>
<!-- Node33&#45;&gt;Node14 -->
<g id="edge65" class="edge">
<title>Node33&#45;&gt;Node14</title>
<path fill="none" stroke="#191970" d="M2088.5353,-117.8079C2107.4349,-103.1555 2137.459,-75.0567 2119.0055,-56 2077.1738,-12.8009 1128.132,-25.4549 1000.6756,-19.533"/>
<polygon fill="#191970" stroke="#191970" points="1000.7321,-16.029 990.5209,-18.8541 1000.2651,-23.0134 1000.7321,-16.029"/>
</g>
<!-- Node35 -->
<g id="node36" class="node">
<title>Node35</title>
<polygon fill="#ffffff" stroke="#bfbfbf" points="1736.5055,-56.5 1736.5055,-75.5 1781.5055,-75.5 1781.5055,-56.5 1736.5055,-56.5"/>
<text text-anchor="middle" x="1759.0055" y="-63.5" font-family="Helvetica,sans-Serif" font-size="10.00" fill="#000000">iosfwd</text>
</g>
<!-- Node34&#45;&gt;Node35 -->
<g id="edge67" class="edge">
<title>Node34&#45;&gt;Node35</title>
<path fill="none" stroke="#191970" d="M1776.3201,-112.2977C1773.2605,-104.1166 1769.4557,-93.943 1766.1927,-85.2179"/>
<polygon fill="#191970" stroke="#191970" points="1769.4693,-83.9873 1762.6881,-75.8469 1762.9128,-86.4394 1769.4693,-83.9873"/>
</g>
<!-- Node36&#45;&gt;Node6 -->
<g id="edge73" class="edge">
<title>Node36&#45;&gt;Node6</title>
<path fill="none" stroke="#191970" d="M2098.4795,-184.8543C2115.3692,-176.516 2136.8854,-162.6812 2147.0055,-143 2165.5806,-106.876 2153.2433,-77.8575 2119.0055,-56 2061.2903,-19.1544 955.4424,-22.2442 887.0055,-20 813.9599,-17.6047 730.0139,-14.5012 674.279,-12.3913"/>
<polygon fill="#191970" stroke="#191970" points="674.335,-8.891 664.2094,-12.0092 674.0695,-15.8859 674.335,-8.891"/>
</g>
<!-- Node36&#45;&gt;Node21 -->
<g id="edge71" class="edge">
<title>Node36&#45;&gt;Node21</title>
<path fill="none" stroke="#191970" d="M2054.5171,-184.9005C2030.1999,-173.5072 1989.4569,-154.4178 1961.6886,-141.4075"/>
<polygon fill="#191970" stroke="#191970" points="1962.9962,-138.1551 1952.4559,-137.0817 1960.0263,-144.4938 1962.9962,-138.1551"/>
</g>
<!-- Node36&#45;&gt;Node33 -->
<g id="edge72" class="edge">
<title>Node36&#45;&gt;Node33</title>
<path fill="none" stroke="#191970" d="M2075.0055,-184.9005C2075.0055,-175.149 2075.0055,-159.7597 2075.0055,-147.3695"/>
<polygon fill="#191970" stroke="#191970" points="2078.5056,-147.0816 2075.0055,-137.0817 2071.5056,-147.0817 2078.5056,-147.0816"/>
</g>
<!-- Node37 -->
<g id="node38" class="node">
<title>Node37</title>
<polygon fill="#ffffff" stroke="#bfbfbf" points="2194.0055,-118 2194.0055,-137 2304.0055,-137 2304.0055,-118 2194.0055,-118"/>
<text text-anchor="middle" x="2249.0055" y="-125" font-family="Helvetica,sans-Serif" font-size="10.00" fill="#000000">AMReX_Geometry.H</text>
</g>
<!-- Node36&#45;&gt;Node37 -->
<g id="edge74" class="edge">
<title>Node36&#45;&gt;Node37</title>
<path fill="none" stroke="#191970" d="M2099.9355,-184.9005C2130.0411,-173.3082 2180.8376,-153.7486 2214.6435,-140.7313"/>
<polygon fill="#191970" stroke="#191970" points="2216.0474,-143.9413 2224.1218,-137.0817 2213.532,-137.4089 2216.0474,-143.9413"/>
</g>
</g>
</svg>
