<?xml version="1.0" encoding="UTF-8" standalone="no"?>
<!DOCTYPE svg PUBLIC "-//W3C//DTD SVG 1.1//EN"
 "http://www.w3.org/Graphics/SVG/1.1/DTD/svg11.dtd">
<!-- Generated by graphviz version 2.40.1 (20161225.0304)
 -->
<!-- Title: ABLBoundaryPlane.H Pages: 1 -->
<svg width="2357pt" height="330pt"
 viewBox="0.00 0.00 2356.60 330.00" xmlns="http://www.w3.org/2000/svg" xmlns:xlink="http://www.w3.org/1999/xlink">
<g id="graph0" class="graph" transform="scale(1 1) rotate(0) translate(4 326)">
<title>ABLBoundaryPlane.H</title>
<polygon fill="#ffffff" stroke="transparent" points="-4,4 -4,-326 2352.5965,-326 2352.5965,4 -4,4"/>
<!-- Node0 -->
<g id="node1" class="node">
<title>Node0</title>
<polygon fill="#bfbfbf" stroke="#000000" points="1666.0965,-302.5 1666.0965,-321.5 1778.0965,-321.5 1778.0965,-302.5 1666.0965,-302.5"/>
<text text-anchor="middle" x="1722.0965" y="-309.5" font-family="Helvetica,sans-Serif" font-size="10.00" fill="#000000">ABLBoundaryPlane.H</text>
</g>
<!-- Node1 -->
<g id="node2" class="node">
<title>Node1</title>
<g id="a_node2"><a xlink:href="_field_8_h.html" target="_top" xlink:title="amr&#45;wind/core/Field.H">
<polygon fill="#ffffff" stroke="#000000" points="1083.5965,-129 1083.5965,-148 1196.5965,-148 1196.5965,-129 1083.5965,-129"/>
<text text-anchor="middle" x="1140.0965" y="-136" font-family="Helvetica,sans-Serif" font-size="10.00" fill="#000000">amr&#45;wind/core/Field.H</text>
</a>
</g>
</g>
<!-- Node0&#45;&gt;Node1 -->
<g id="edge1" class="edge">
<title>Node0&#45;&gt;Node1</title>
<path fill="none" stroke="#191970" d="M1666.0093,-308.6385C1573.0244,-302.5269 1391.2268,-288.1442 1331.0965,-266 1260.692,-240.0721 1190.5862,-183.367 1158.3838,-155.1433"/>
<polygon fill="#191970" stroke="#191970" points="1160.4854,-152.3286 1150.6857,-148.3016 1155.8352,-157.5608 1160.4854,-152.3286"/>
</g>
<!-- Node7 -->
<g id="node8" class="node">
<title>Node7</title>
<polygon fill="#ffffff" stroke="#bfbfbf" points="1915.5965,-62 1915.5965,-81 2000.5965,-81 2000.5965,-62 1915.5965,-62"/>
<text text-anchor="middle" x="1958.0965" y="-69" font-family="Helvetica,sans-Serif" font-size="10.00" fill="#000000">AMReX_Gpu.H</text>
</g>
<!-- Node0&#45;&gt;Node7 -->
<g id="edge66" class="edge">
<title>Node0&#45;&gt;Node7</title>
<path fill="none" stroke="#191970" d="M1733.0633,-302.4324C1760.3868,-278.4256 1833.3105,-213.3084 1889.0965,-154 1909.1417,-132.6892 1930.4978,-106.5594 1944.0508,-89.493"/>
<polygon fill="#191970" stroke="#191970" points="1946.9351,-91.4878 1950.3786,-81.4681 1941.4384,-87.1535 1946.9351,-91.4878"/>
</g>
<!-- Node12 -->
<g id="node13" class="node">
<title>Node12</title>
<g id="a_node13"><a xlink:href="_c_f_d_sim_8_h.html" target="_top" xlink:title="amr&#45;wind/CFDSim.H">
<polygon fill="#ffffff" stroke="#000000" points="1340.0965,-246.5 1340.0965,-265.5 1448.0965,-265.5 1448.0965,-246.5 1340.0965,-246.5"/>
<text text-anchor="middle" x="1394.0965" y="-253.5" font-family="Helvetica,sans-Serif" font-size="10.00" fill="#000000">amr&#45;wind/CFDSim.H</text>
</a>
</g>
</g>
<!-- Node0&#45;&gt;Node12 -->
<g id="edge15" class="edge">
<title>Node0&#45;&gt;Node12</title>
<path fill="none" stroke="#191970" d="M1666.084,-302.4369C1608.487,-292.6033 1518.9008,-277.308 1458.4328,-266.9842"/>
<polygon fill="#191970" stroke="#191970" points="1458.689,-263.4774 1448.2425,-265.2444 1457.5108,-270.3776 1458.689,-263.4774"/>
</g>
<!-- Node35 -->
<g id="node36" class="node">
<title>Node35</title>
<g id="a_node36"><a xlink:href="nc__interface_8_h.html" target="_top" xlink:title="Interface to NetCDF library. ">
<polygon fill="#ffffff" stroke="#000000" points="2175.5965,-56.5 2175.5965,-86.5 2290.5965,-86.5 2290.5965,-56.5 2175.5965,-56.5"/>
<text text-anchor="start" x="2183.5965" y="-74.5" font-family="Helvetica,sans-Serif" font-size="10.00" fill="#000000">amr&#45;wind/utilities</text>
<text text-anchor="middle" x="2233.0965" y="-63.5" font-family="Helvetica,sans-Serif" font-size="10.00" fill="#000000">/ncutils/nc_interface.H</text>
</a>
</g>
</g>
<!-- Node0&#45;&gt;Node35 -->
<g id="edge67" class="edge">
<title>Node0&#45;&gt;Node35</title>
<path fill="none" stroke="#191970" d="M1742.4437,-302.4237C1818.5859,-266.5877 2087.6536,-139.9521 2191.6455,-91.0087"/>
<polygon fill="#191970" stroke="#191970" points="2193.3339,-94.0825 2200.8914,-86.6572 2190.353,-87.7489 2193.3339,-94.0825"/>
</g>
<!-- Node2 -->
<g id="node3" class="node">
<title>Node2</title>
<polygon fill="#ffffff" stroke="#bfbfbf" points="1081.5965,-.5 1081.5965,-19.5 1122.5965,-19.5 1122.5965,-.5 1081.5965,-.5"/>
<text text-anchor="middle" x="1102.0965" y="-7.5" font-family="Helvetica,sans-Serif" font-size="10.00" fill="#000000">string</text>
</g>
<!-- Node1&#45;&gt;Node2 -->
<g id="edge2" class="edge">
<title>Node1&#45;&gt;Node2</title>
<path fill="none" stroke="#191970" d="M1147.724,-128.9434C1159.3411,-113.1439 1178.8412,-80.8553 1166.0965,-56 1158.7411,-41.6551 1144.6012,-30.7711 1131.4792,-23.2007"/>
<polygon fill="#191970" stroke="#191970" points="1133.1229,-20.1107 1122.6531,-18.4872 1129.8253,-26.2853 1133.1229,-20.1107"/>
</g>
<!-- Node3 -->
<g id="node4" class="node">
<title>Node3</title>
<polygon fill="#ffffff" stroke="#bfbfbf" points="1636.0965,-.5 1636.0965,-19.5 1688.0965,-19.5 1688.0965,-.5 1636.0965,-.5"/>
<text text-anchor="middle" x="1662.0965" y="-7.5" font-family="Helvetica,sans-Serif" font-size="10.00" fill="#000000">memory</text>
</g>
<!-- Node1&#45;&gt;Node3 -->
<g id="edge3" class="edge">
<title>Node1&#45;&gt;Node3</title>
<path fill="none" stroke="#191970" d="M1176.2158,-128.9948C1185.8669,-126.7362 1196.3301,-124.5385 1206.0965,-123 1254.4419,-115.3842 1608.2267,-119.1852 1645.0965,-87 1661.1623,-72.9756 1663.9706,-47.5076 1663.7071,-29.7159"/>
<polygon fill="#191970" stroke="#191970" points="1667.1953,-29.3855 1663.2182,-19.5655 1660.2034,-29.7223 1667.1953,-29.3855"/>
</g>
<!-- Node4 -->
<g id="node5" class="node">
<title>Node4</title>
<polygon fill="#ffffff" stroke="#bfbfbf" points="1706.5965,-.5 1706.5965,-19.5 1789.5965,-19.5 1789.5965,-.5 1706.5965,-.5"/>
<text text-anchor="middle" x="1748.0965" y="-7.5" font-family="Helvetica,sans-Serif" font-size="10.00" fill="#000000">unordered_map</text>
</g>
<!-- Node1&#45;&gt;Node4 -->
<g id="edge4" class="edge">
<title>Node1&#45;&gt;Node4</title>
<path fill="none" stroke="#191970" d="M1176.2116,-128.968C1185.8628,-126.7096 1196.327,-124.5187 1206.0965,-123 1307.8523,-107.182 1574.1539,-129.181 1668.0965,-87 1696.8107,-74.1071 1721.441,-46.3364 1735.5157,-27.9115"/>
<polygon fill="#191970" stroke="#191970" points="1738.4346,-29.8503 1741.5488,-19.7234 1732.7991,-25.6979 1738.4346,-29.8503"/>
</g>
<!-- Node5 -->
<g id="node6" class="node">
<title>Node5</title>
<polygon fill="#ffffff" stroke="#bfbfbf" points="606.0965,-.5 606.0965,-19.5 710.0965,-19.5 710.0965,-.5 606.0965,-.5"/>
<text text-anchor="middle" x="658.0965" y="-7.5" font-family="Helvetica,sans-Serif" font-size="10.00" fill="#000000">AMReX_MultiFab.H</text>
</g>
<!-- Node1&#45;&gt;Node5 -->
<g id="edge5" class="edge">
<title>Node1&#45;&gt;Node5</title>
<path fill="none" stroke="#191970" d="M1103.261,-128.9898C1093.8032,-126.7851 1083.612,-124.6146 1074.0965,-123 924.2821,-97.5795 871.0097,-152.9192 734.0965,-87 726.7059,-83.4416 694.0148,-48.8873 673.9924,-27.2945"/>
<polygon fill="#191970" stroke="#191970" points="676.3748,-24.7154 667.0181,-19.7451 671.2331,-29.4654 676.3748,-24.7154"/>
</g>
<!-- Node6 -->
<g id="node7" class="node">
<title>Node6</title>
<polygon fill="#ffffff" stroke="#bfbfbf" points="1394.5965,-62 1394.5965,-81 1493.5965,-81 1493.5965,-62 1394.5965,-62"/>
<text text-anchor="middle" x="1444.0965" y="-69" font-family="Helvetica,sans-Serif" font-size="10.00" fill="#000000">AMReX_BCRec.H</text>
</g>
<!-- Node1&#45;&gt;Node6 -->
<g id="edge6" class="edge">
<title>Node1&#45;&gt;Node6</title>
<path fill="none" stroke="#191970" d="M1179.8366,-128.9487C1188.4814,-126.9321 1197.5864,-124.8546 1206.0965,-123 1285.3842,-105.7213 1306.0424,-105.3173 1385.0965,-87 1389.7522,-85.9213 1394.5998,-84.7412 1399.4269,-83.5291"/>
<polygon fill="#191970" stroke="#191970" points="1400.4185,-86.8882 1409.2386,-81.0182 1398.683,-80.1067 1400.4185,-86.8882"/>
</g>
<!-- Node1&#45;&gt;Node7 -->
<g id="edge7" class="edge">
<title>Node1&#45;&gt;Node7</title>
<path fill="none" stroke="#191970" d="M1175.5004,-128.9742C1185.3408,-126.6584 1196.0769,-124.4375 1206.0965,-123 1497.7669,-81.154 1575.3002,-120.0609 1868.0965,-87 1880.1589,-85.638 1893.0562,-83.7043 1905.2101,-81.6626"/>
<polygon fill="#191970" stroke="#191970" points="1905.9531,-85.0862 1915.2099,-79.9325 1904.7596,-78.1887 1905.9531,-85.0862"/>
</g>
<!-- Node8 -->
<g id="node9" class="node">
<title>Node8</title>
<g id="a_node9"><a xlink:href="incflo__enums_8_h.html" target="_top" xlink:title="amr&#45;wind/incflo_enums.H">
<polygon fill="#ffffff" stroke="#000000" points="1731.0965,-62 1731.0965,-81 1859.0965,-81 1859.0965,-62 1731.0965,-62"/>
<text text-anchor="middle" x="1795.0965" y="-69" font-family="Helvetica,sans-Serif" font-size="10.00" fill="#000000">amr&#45;wind/incflo_enums.H</text>
</a>
</g>
</g>
<!-- Node1&#45;&gt;Node8 -->
<g id="edge8" class="edge">
<title>Node1&#45;&gt;Node8</title>
<path fill="none" stroke="#191970" d="M1175.8597,-128.9995C1185.606,-126.7127 1196.2051,-124.5 1206.0965,-123 1431.1969,-88.864 1491.4407,-117.2475 1717.0965,-87 1725.2685,-85.9046 1733.8724,-84.4768 1742.262,-82.9313"/>
<polygon fill="#191970" stroke="#191970" points="1743.1816,-86.3189 1752.3458,-81.0021 1741.8662,-79.4436 1743.1816,-86.3189"/>
</g>
<!-- Node9 -->
<g id="node10" class="node">
<title>Node9</title>
<g id="a_node10"><a xlink:href="_field_desc_types_8_h.html" target="_top" xlink:title="amr&#45;wind/core/FieldDescTypes.H">
<polygon fill="#ffffff" stroke="#000000" points="290.5965,-.5 290.5965,-19.5 453.5965,-19.5 453.5965,-.5 290.5965,-.5"/>
<text text-anchor="middle" x="372.0965" y="-7.5" font-family="Helvetica,sans-Serif" font-size="10.00" fill="#000000">amr&#45;wind/core/FieldDescTypes.H</text>
</a>
</g>
</g>
<!-- Node1&#45;&gt;Node9 -->
<g id="edge9" class="edge">
<title>Node1&#45;&gt;Node9</title>
<path fill="none" stroke="#191970" d="M1104.3353,-128.9871C1094.589,-126.7004 1083.9894,-124.4908 1074.0965,-123 958.4615,-105.5748 659.0851,-126.7194 549.0965,-87 526.9374,-78.9978 527.0193,-66.8304 506.0965,-56 478.3988,-41.6626 445.2641,-30.2428 418.8737,-22.3678"/>
<polygon fill="#191970" stroke="#191970" points="419.6948,-18.9615 409.115,-19.5245 417.7367,-25.6821 419.6948,-18.9615"/>
</g>
<!-- Node10 -->
<g id="node11" class="node">
<title>Node10</title>
<g id="a_node11"><a xlink:href="_view_field_8_h.html" target="_top" xlink:title="amr&#45;wind/core/ViewField.H">
<polygon fill="#ffffff" stroke="#000000" points="743.0965,-62 743.0965,-81 877.0965,-81 877.0965,-62 743.0965,-62"/>
<text text-anchor="middle" x="810.0965" y="-69" font-family="Helvetica,sans-Serif" font-size="10.00" fill="#000000">amr&#45;wind/core/ViewField.H</text>
</a>
</g>
</g>
<!-- Node1&#45;&gt;Node10 -->
<g id="edge10" class="edge">
<title>Node1&#45;&gt;Node10</title>
<path fill="none" stroke="#191970" d="M1100.7148,-128.9928C1091.9655,-126.9528 1082.7271,-124.8545 1074.0965,-123 1005.2567,-108.2076 925.9243,-92.9745 872.3408,-82.9514"/>
<polygon fill="#191970" stroke="#191970" points="872.7835,-79.4737 862.3111,-81.0799 871.4994,-86.3549 872.7835,-79.4737"/>
</g>
<!-- Node10&#45;&gt;Node2 -->
<g id="edge11" class="edge">
<title>Node10&#45;&gt;Node2</title>
<path fill="none" stroke="#191970" d="M855.4012,-61.9581C915.4972,-49.3009 1019.9723,-27.2967 1071.5268,-16.4385"/>
<polygon fill="#191970" stroke="#191970" points="1072.3328,-19.8456 1081.3968,-14.3597 1070.8901,-12.9959 1072.3328,-19.8456"/>
</g>
<!-- Node10&#45;&gt;Node5 -->
<g id="edge13" class="edge">
<title>Node10&#45;&gt;Node5</title>
<path fill="none" stroke="#191970" d="M786.3465,-61.8906C760.8026,-51.5554 719.9957,-35.0447 691.2855,-23.4284"/>
<polygon fill="#191970" stroke="#191970" points="692.2625,-20.0481 681.6798,-19.5419 689.637,-26.5371 692.2625,-20.0481"/>
</g>
<!-- Node10&#45;&gt;Node9 -->
<g id="edge12" class="edge">
<title>Node10&#45;&gt;Node9</title>
<path fill="none" stroke="#191970" d="M742.6189,-62.0254C663.7214,-50.9473 533.361,-32.6433 450.1677,-20.962"/>
<polygon fill="#191970" stroke="#191970" points="450.4008,-17.4605 440.0113,-19.536 449.4275,-24.3925 450.4008,-17.4605"/>
</g>
<!-- Node11 -->
<g id="node12" class="node">
<title>Node11</title>
<polygon fill="#ffffff" stroke="#bfbfbf" points="857.5965,-.5 857.5965,-19.5 952.5965,-19.5 952.5965,-.5 857.5965,-.5"/>
<text text-anchor="middle" x="905.0965" y="-7.5" font-family="Helvetica,sans-Serif" font-size="10.00" fill="#000000">AMReX_Vector.H</text>
</g>
<!-- Node10&#45;&gt;Node11 -->
<g id="edge14" class="edge">
<title>Node10&#45;&gt;Node11</title>
<path fill="none" stroke="#191970" d="M824.9403,-61.8906C840.1384,-52.0519 863.9814,-36.6167 881.7172,-25.1351"/>
<polygon fill="#191970" stroke="#191970" points="883.8645,-27.9144 890.357,-19.5419 880.0605,-22.0382 883.8645,-27.9144"/>
</g>
<!-- Node13 -->
<g id="node14" class="node">
<title>Node13</title>
<polygon fill="#ffffff" stroke="#bfbfbf" points="1215.0965,-129 1215.0965,-148 1321.0965,-148 1321.0965,-129 1215.0965,-129"/>
<text text-anchor="middle" x="1268.0965" y="-136" font-family="Helvetica,sans-Serif" font-size="10.00" fill="#000000">AMReX_AmrCore.H</text>
</g>
<!-- Node12&#45;&gt;Node13 -->
<g id="edge16" class="edge">
<title>Node12&#45;&gt;Node13</title>
<path fill="none" stroke="#191970" d="M1383.7854,-246.3845C1362.3732,-226.4167 1312.8593,-180.243 1286.0761,-155.2667"/>
<polygon fill="#191970" stroke="#191970" points="1288.2506,-152.5088 1278.5501,-148.2484 1283.4766,-157.6282 1288.2506,-152.5088"/>
</g>
<!-- Node14 -->
<g id="node15" class="node">
<title>Node14</title>
<g id="a_node15"><a xlink:href="_sim_time_8_h.html" target="_top" xlink:title="amr&#45;wind/core/SimTime.H">
<polygon fill="#ffffff" stroke="#000000" points="1404.5965,-190.5 1404.5965,-209.5 1535.5965,-209.5 1535.5965,-190.5 1404.5965,-190.5"/>
<text text-anchor="middle" x="1470.0965" y="-197.5" font-family="Helvetica,sans-Serif" font-size="10.00" fill="#000000">amr&#45;wind/core/SimTime.H</text>
</a>
</g>
</g>
<!-- Node12&#45;&gt;Node14 -->
<g id="edge17" class="edge">
<title>Node12&#45;&gt;Node14</title>
<path fill="none" stroke="#191970" d="M1407.3347,-246.2455C1418.7775,-237.814 1435.5262,-225.4729 1448.844,-215.6598"/>
<polygon fill="#191970" stroke="#191970" points="1451.0357,-218.3924 1457.0101,-209.6427 1446.8833,-212.757 1451.0357,-218.3924"/>
</g>
<!-- Node18 -->
<g id="node19" class="node">
<title>Node18</title>
<g id="a_node19"><a xlink:href="_field_repo_8_h.html" target="_top" xlink:title="amr&#45;wind/core/FieldRepo.H">
<polygon fill="#ffffff" stroke="#000000" points="689.0965,-190.5 689.0965,-209.5 825.0965,-209.5 825.0965,-190.5 689.0965,-190.5"/>
<text text-anchor="middle" x="757.0965" y="-197.5" font-family="Helvetica,sans-Serif" font-size="10.00" fill="#000000">amr&#45;wind/core/FieldRepo.H</text>
</a>
</g>
</g>
<!-- Node12&#45;&gt;Node18 -->
<g id="edge21" class="edge">
<title>Node12&#45;&gt;Node18</title>
<path fill="none" stroke="#191970" d="M1340.0611,-251.2496C1227.3407,-241.3401 966.7357,-218.4298 835.544,-206.8965"/>
<polygon fill="#191970" stroke="#191970" points="835.8271,-203.408 825.559,-206.0187 835.214,-210.3811 835.8271,-203.408"/>
</g>
<!-- Node25 -->
<g id="node26" class="node">
<title>Node25</title>
<g id="a_node26"><a xlink:href="_p_d_e_base_8_h.html" target="_top" xlink:title="amr&#45;wind/equation_systems\l/PDEBase.H">
<polygon fill="#ffffff" stroke="#000000" points="1722.5965,-123.5 1722.5965,-153.5 1861.5965,-153.5 1861.5965,-123.5 1722.5965,-123.5"/>
<text text-anchor="start" x="1730.5965" y="-141.5" font-family="Helvetica,sans-Serif" font-size="10.00" fill="#000000">amr&#45;wind/equation_systems</text>
<text text-anchor="middle" x="1792.0965" y="-130.5" font-family="Helvetica,sans-Serif" font-size="10.00" fill="#000000">/PDEBase.H</text>
</a>
</g>
</g>
<!-- Node12&#45;&gt;Node25 -->
<g id="edge44" class="edge">
<title>Node12&#45;&gt;Node25</title>
<path fill="none" stroke="#191970" d="M1426.3294,-246.484C1492.7274,-226.8816 1645.6861,-181.7242 1731.2808,-156.4544"/>
<polygon fill="#191970" stroke="#191970" points="1732.5218,-159.7374 1741.1215,-153.5492 1730.5397,-153.0239 1732.5218,-159.7374"/>
</g>
<!-- Node33 -->
<g id="node34" class="node">
<title>Node33</title>
<g id="a_node34"><a xlink:href="_physics_8_h.html" target="_top" xlink:title="amr&#45;wind/core/Physics.H">
<polygon fill="#ffffff" stroke="#000000" points="938.5965,-129 938.5965,-148 1065.5965,-148 1065.5965,-129 938.5965,-129"/>
<text text-anchor="middle" x="1002.0965" y="-136" font-family="Helvetica,sans-Serif" font-size="10.00" fill="#000000">amr&#45;wind/core/Physics.H</text>
</a>
</g>
</g>
<!-- Node12&#45;&gt;Node33 -->
<g id="edge61" class="edge">
<title>Node12&#45;&gt;Node33</title>
<path fill="none" stroke="#191970" d="M1362.3496,-246.484C1291.8206,-225.3433 1122.1298,-174.4794 1043.4472,-150.8947"/>
<polygon fill="#191970" stroke="#191970" points="1044.4497,-147.5414 1033.8658,-148.0227 1042.4398,-154.2466 1044.4497,-147.5414"/>
</g>
<!-- Node15 -->
<g id="node16" class="node">
<title>Node15</title>
<polygon fill="#ffffff" stroke="#bfbfbf" points="1611.5965,-129 1611.5965,-148 1704.5965,-148 1704.5965,-129 1611.5965,-129"/>
<text text-anchor="middle" x="1658.0965" y="-136" font-family="Helvetica,sans-Serif" font-size="10.00" fill="#000000">AMReX_REAL.H</text>
</g>
<!-- Node14&#45;&gt;Node15 -->
<g id="edge18" class="edge">
<title>Node14&#45;&gt;Node15</title>
<path fill="none" stroke="#191970" d="M1499.4715,-190.3906C1531.7552,-179.8298 1583.7501,-162.8208 1619.3512,-151.1747"/>
<polygon fill="#191970" stroke="#191970" points="1620.5117,-154.4776 1628.9278,-148.0419 1618.3352,-147.8246 1620.5117,-154.4776"/>
</g>
<!-- Node16 -->
<g id="node17" class="node">
<title>Node16</title>
<polygon fill="#ffffff" stroke="#bfbfbf" points="1339.0965,-129 1339.0965,-148 1465.0965,-148 1465.0965,-129 1339.0965,-129"/>
<text text-anchor="middle" x="1402.0965" y="-136" font-family="Helvetica,sans-Serif" font-size="10.00" fill="#000000">AMReX_GpuQualifiers.H</text>
</g>
<!-- Node14&#45;&gt;Node16 -->
<g id="edge19" class="edge">
<title>Node14&#45;&gt;Node16</title>
<path fill="none" stroke="#191970" d="M1459.4715,-190.3906C1449.0534,-180.9683 1432.9601,-166.4134 1420.4661,-155.1137"/>
<polygon fill="#191970" stroke="#191970" points="1422.6357,-152.3568 1412.8713,-148.2449 1417.9403,-157.5484 1422.6357,-152.3568"/>
</g>
<!-- Node17 -->
<g id="node18" class="node">
<title>Node17</title>
<polygon fill="#ffffff" stroke="#bfbfbf" points="1483.0965,-129 1483.0965,-148 1593.0965,-148 1593.0965,-129 1483.0965,-129"/>
<text text-anchor="middle" x="1538.0965" y="-136" font-family="Helvetica,sans-Serif" font-size="10.00" fill="#000000">AMReX_Extension.H</text>
</g>
<!-- Node14&#45;&gt;Node17 -->
<g id="edge20" class="edge">
<title>Node14&#45;&gt;Node17</title>
<path fill="none" stroke="#191970" d="M1480.7215,-190.3906C1491.1397,-180.9683 1507.233,-166.4134 1519.727,-155.1137"/>
<polygon fill="#191970" stroke="#191970" points="1522.2528,-157.5484 1527.3217,-148.2449 1517.5574,-152.3568 1522.2528,-157.5484"/>
</g>
<!-- Node18&#45;&gt;Node1 -->
<g id="edge29" class="edge">
<title>Node18&#45;&gt;Node1</title>
<path fill="none" stroke="#191970" d="M825.4009,-191.8246C889.7928,-183.7077 988.8618,-170.1614 1074.0965,-154 1079.8749,-152.9044 1085.9121,-151.6459 1091.8869,-150.3299"/>
<polygon fill="#191970" stroke="#191970" points="1092.8462,-153.7014 1101.8264,-148.0795 1091.3004,-146.8742 1092.8462,-153.7014"/>
</g>
<!-- Node18&#45;&gt;Node2 -->
<g id="edge22" class="edge">
<title>Node18&#45;&gt;Node2</title>
<path fill="none" stroke="#191970" d="M780.7908,-190.444C824.4235,-172.4811 919.8938,-131.4632 995.0965,-87 1015.3768,-75.0094 1018.9755,-69.7641 1038.0965,-56 1052.216,-45.8363 1068.0967,-34.4219 1080.5065,-25.5061"/>
<polygon fill="#191970" stroke="#191970" points="1082.7749,-28.1861 1088.8546,-19.5092 1078.6909,-22.5009 1082.7749,-28.1861"/>
</g>
<!-- Node18&#45;&gt;Node4 -->
<g id="edge23" class="edge">
<title>Node18&#45;&gt;Node4</title>
<path fill="none" stroke="#191970" d="M825.4553,-198.4402C1064.8495,-192.8184 1851.9368,-172.9258 1870.0965,-154 1880.4784,-143.1802 1887.4669,-83.2889 1868.0965,-56 1859.1913,-43.4543 1825.0555,-31.076 1795.4576,-22.3256"/>
<polygon fill="#191970" stroke="#191970" points="1796.2148,-18.9016 1785.637,-19.5021 1794.2806,-25.629 1796.2148,-18.9016"/>
</g>
<!-- Node18&#45;&gt;Node5 -->
<g id="edge42" class="edge">
<title>Node18&#45;&gt;Node5</title>
<path fill="none" stroke="#191970" d="M729.8447,-190.4309C712.1065,-182.963 689.6453,-170.983 675.0965,-154 645.8526,-119.863 646.2313,-100.784 650.0965,-56 650.8441,-47.3385 652.3694,-37.8607 653.8896,-29.7708"/>
<polygon fill="#191970" stroke="#191970" points="657.3532,-30.2991 655.8859,-19.8064 650.4896,-28.924 657.3532,-30.2991"/>
</g>
<!-- Node18&#45;&gt;Node9 -->
<g id="edge24" class="edge">
<title>Node18&#45;&gt;Node9</title>
<path fill="none" stroke="#191970" d="M688.9589,-199.1556C546.3977,-196.732 221.1755,-187.5854 116.0965,-154 61.5703,-136.5723 34.1345,-136.9071 6.0965,-87 -.6518,-74.988 -3.0182,-66.332 6.0965,-56 8.3763,-53.4157 173.1829,-33.4957 280.8414,-20.7305"/>
<polygon fill="#191970" stroke="#191970" points="281.5554,-24.1705 291.0742,-19.5183 280.7318,-17.2191 281.5554,-24.1705"/>
</g>
<!-- Node18&#45;&gt;Node13 -->
<g id="edge41" class="edge">
<title>Node18&#45;&gt;Node13</title>
<path fill="none" stroke="#191970" d="M825.428,-195.9462C913.6291,-190.0373 1071.6317,-177.1548 1205.0965,-154 1210.9264,-152.9886 1217.0164,-151.7396 1223.0144,-150.3931"/>
<polygon fill="#191970" stroke="#191970" points="1224.0232,-153.7515 1232.9594,-148.0598 1222.4242,-146.9366 1224.0232,-153.7515"/>
</g>
<!-- Node19 -->
<g id="node20" class="node">
<title>Node19</title>
<g id="a_node20"><a xlink:href="_field_utils_8_h.html" target="_top" xlink:title="amr&#45;wind/core/FieldUtils.H">
<polygon fill="#ffffff" stroke="#000000" points="179.5965,-62 179.5965,-81 312.5965,-81 312.5965,-62 179.5965,-62"/>
<text text-anchor="middle" x="246.0965" y="-69" font-family="Helvetica,sans-Serif" font-size="10.00" fill="#000000">amr&#45;wind/core/FieldUtils.H</text>
</a>
</g>
</g>
<!-- Node18&#45;&gt;Node19 -->
<g id="edge25" class="edge">
<title>Node18&#45;&gt;Node19</title>
<path fill="none" stroke="#191970" d="M719.106,-190.4466C627.5336,-167.4191 394.7589,-108.8838 293.9033,-83.5219"/>
<polygon fill="#191970" stroke="#191970" points="294.5416,-80.0735 283.99,-81.029 292.8344,-86.8621 294.5416,-80.0735"/>
</g>
<!-- Node21 -->
<g id="node22" class="node">
<title>Node21</title>
<g id="a_node22"><a xlink:href="_int_field_8_h.html" target="_top" xlink:title="amr&#45;wind/core/IntField.H">
<polygon fill="#ffffff" stroke="#000000" points="176.0965,-129 176.0965,-148 300.0965,-148 300.0965,-129 176.0965,-129"/>
<text text-anchor="middle" x="238.0965" y="-136" font-family="Helvetica,sans-Serif" font-size="10.00" fill="#000000">amr&#45;wind/core/IntField.H</text>
</a>
</g>
</g>
<!-- Node18&#45;&gt;Node21 -->
<g id="edge30" class="edge">
<title>Node18&#45;&gt;Node21</title>
<path fill="none" stroke="#191970" d="M688.9797,-191.9284C590.8696,-180.3026 410.5797,-158.9388 310.2633,-147.0516"/>
<polygon fill="#191970" stroke="#191970" points="310.5596,-143.5623 300.2172,-145.8611 309.7359,-150.5136 310.5596,-143.5623"/>
</g>
<!-- Node22 -->
<g id="node23" class="node">
<title>Node22</title>
<polygon fill="#ffffff" stroke="#bfbfbf" points="15.5965,-62 15.5965,-81 122.5965,-81 122.5965,-62 15.5965,-62"/>
<text text-anchor="middle" x="69.0965" y="-69" font-family="Helvetica,sans-Serif" font-size="10.00" fill="#000000">AMReX_iMultiFab.H</text>
</g>
<!-- Node18&#45;&gt;Node22 -->
<g id="edge43" class="edge">
<title>Node18&#45;&gt;Node22</title>
<path fill="none" stroke="#191970" d="M688.861,-197.0306C543.8455,-190.3811 214.3366,-173.3505 167.0965,-154 132.3415,-139.7636 100.7941,-108.4089 83.3466,-88.7159"/>
<polygon fill="#191970" stroke="#191970" points="85.9423,-86.3664 76.764,-81.0739 80.6385,-90.9349 85.9423,-86.3664"/>
</g>
<!-- Node23 -->
<g id="node24" class="node">
<title>Node23</title>
<g id="a_node24"><a xlink:href="_scratch_field_8_h.html" target="_top" xlink:title="amr&#45;wind/core/ScratchField.H">
<polygon fill="#ffffff" stroke="#000000" points="684.0965,-129 684.0965,-148 830.0965,-148 830.0965,-129 684.0965,-129"/>
<text text-anchor="middle" x="757.0965" y="-136" font-family="Helvetica,sans-Serif" font-size="10.00" fill="#000000">amr&#45;wind/core/ScratchField.H</text>
</a>
</g>
</g>
<!-- Node18&#45;&gt;Node23 -->
<g id="edge34" class="edge">
<title>Node18&#45;&gt;Node23</title>
<path fill="none" stroke="#191970" d="M757.0965,-190.3906C757.0965,-181.8657 757.0965,-169.1392 757.0965,-158.4235"/>
<polygon fill="#191970" stroke="#191970" points="760.5966,-158.2448 757.0965,-148.2449 753.5966,-158.2449 760.5966,-158.2448"/>
</g>
<!-- Node19&#45;&gt;Node5 -->
<g id="edge27" class="edge">
<title>Node19&#45;&gt;Node5</title>
<path fill="none" stroke="#191970" d="M310.0195,-61.9581C387.891,-50.3341 518.5743,-30.8267 595.7329,-19.3091"/>
<polygon fill="#191970" stroke="#191970" points="596.4187,-22.7456 605.7924,-17.8075 595.3852,-15.8223 596.4187,-22.7456"/>
</g>
<!-- Node19&#45;&gt;Node9 -->
<g id="edge26" class="edge">
<title>Node19&#45;&gt;Node9</title>
<path fill="none" stroke="#191970" d="M265.784,-61.8906C286.5888,-51.7359 319.6075,-35.6196 343.3284,-24.0416"/>
<polygon fill="#191970" stroke="#191970" points="345.0959,-27.0736 352.5473,-19.5419 342.0254,-20.783 345.0959,-27.0736"/>
</g>
<!-- Node20 -->
<g id="node21" class="node">
<title>Node20</title>
<polygon fill="#ffffff" stroke="#bfbfbf" points="156.0965,-.5 156.0965,-19.5 272.0965,-19.5 272.0965,-.5 156.0965,-.5"/>
<text text-anchor="middle" x="214.0965" y="-7.5" font-family="Helvetica,sans-Serif" font-size="10.00" fill="#000000">AMReX_Interpolater.H</text>
</g>
<!-- Node19&#45;&gt;Node20 -->
<g id="edge28" class="edge">
<title>Node19&#45;&gt;Node20</title>
<path fill="none" stroke="#191970" d="M241.0965,-61.8906C236.5207,-53.0965 229.6185,-39.8312 223.9382,-28.9145"/>
<polygon fill="#191970" stroke="#191970" points="226.8877,-27.0003 219.167,-19.7449 220.678,-30.2314 226.8877,-27.0003"/>
</g>
<!-- Node21&#45;&gt;Node2 -->
<g id="edge31" class="edge">
<title>Node21&#45;&gt;Node2</title>
<path fill="none" stroke="#191970" d="M300.2625,-136.186C440.1875,-130.5524 776.2149,-114.5301 886.0965,-87 919.4965,-78.6319 924.8646,-68.1114 957.0965,-56 996.0187,-41.3747 1041.9083,-27.3404 1071.4746,-18.7017"/>
<polygon fill="#191970" stroke="#191970" points="1072.5832,-22.0245 1081.2136,-15.879 1070.6345,-15.3012 1072.5832,-22.0245"/>
</g>
<!-- Node21&#45;&gt;Node9 -->
<g id="edge32" class="edge">
<title>Node21&#45;&gt;Node9</title>
<path fill="none" stroke="#191970" d="M219.9308,-128.9283C193.244,-113.6363 148.7962,-82.6963 170.0965,-56 178.6228,-45.3138 248.2694,-31.0958 303.4308,-21.3102"/>
<polygon fill="#191970" stroke="#191970" points="304.2991,-24.7115 313.5441,-19.5365 303.0898,-17.8167 304.2991,-24.7115"/>
</g>
<!-- Node21&#45;&gt;Node22 -->
<g id="edge33" class="edge">
<title>Node21&#45;&gt;Node22</title>
<path fill="none" stroke="#191970" d="M213.883,-128.9005C184.768,-117.3579 135.7287,-97.9163 102.8948,-84.8993"/>
<polygon fill="#191970" stroke="#191970" points="103.8512,-81.5135 93.2652,-81.0817 101.2714,-88.0208 103.8512,-81.5135"/>
</g>
<!-- Node23&#45;&gt;Node2 -->
<g id="edge35" class="edge">
<title>Node23&#45;&gt;Node2</title>
<path fill="none" stroke="#191970" d="M813.8787,-128.9358C854.8177,-120.842 910.7864,-107.2785 957.0965,-87 980.3597,-76.8135 982.9095,-68.3561 1005.0965,-56 1026.9662,-43.8207 1052.5876,-31.7594 1072.0045,-23.0447"/>
<polygon fill="#191970" stroke="#191970" points="1073.5489,-26.1885 1081.2666,-18.9298 1070.7068,-19.7914 1073.5489,-26.1885"/>
</g>
<!-- Node23&#45;&gt;Node5 -->
<g id="edge38" class="edge">
<title>Node23&#45;&gt;Node5</title>
<path fill="none" stroke="#191970" d="M722.5268,-128.8878C701.6205,-121.1547 676.4938,-108.0302 663.0965,-87 652.3361,-70.1089 652.4384,-46.6862 654.3857,-30.1211"/>
<polygon fill="#191970" stroke="#191970" points="657.8947,-30.3218 655.9178,-19.9131 650.9722,-29.2828 657.8947,-30.3218"/>
</g>
<!-- Node23&#45;&gt;Node9 -->
<g id="edge36" class="edge">
<title>Node23&#45;&gt;Node9</title>
<path fill="none" stroke="#191970" d="M683.7819,-134.1521C574.9337,-126.9392 381.0843,-110.8862 360.0965,-87 346.1368,-71.1124 353.6998,-45.917 361.7059,-28.7049"/>
<polygon fill="#191970" stroke="#191970" points="364.9098,-30.1256 366.3117,-19.6239 358.6668,-26.9592 364.9098,-30.1256"/>
</g>
<!-- Node23&#45;&gt;Node10 -->
<g id="edge37" class="edge">
<title>Node23&#45;&gt;Node10</title>
<path fill="none" stroke="#191970" d="M764.6901,-128.9005C772.8763,-118.552 786.085,-101.8542 796.1508,-89.1295"/>
<polygon fill="#191970" stroke="#191970" points="799.0579,-91.0959 802.517,-81.0817 793.5679,-86.7531 799.0579,-91.0959"/>
</g>
<!-- Node23&#45;&gt;Node11 -->
<g id="edge39" class="edge">
<title>Node23&#45;&gt;Node11</title>
<path fill="none" stroke="#191970" d="M810.8961,-128.9981C837.0678,-121.7138 866.9348,-109.0051 886.0965,-87 899.835,-71.223 903.9585,-47.0503 905.0407,-30.0051"/>
<polygon fill="#191970" stroke="#191970" points="908.5544,-29.6437 905.3849,-19.5341 901.5582,-29.4137 908.5544,-29.6437"/>
</g>
<!-- Node24 -->
<g id="node25" class="node">
<title>Node24</title>
<polygon fill="#ffffff" stroke="#bfbfbf" points="369.0965,-62 369.0965,-81 497.0965,-81 497.0965,-62 369.0965,-62"/>
<text text-anchor="middle" x="433.0965" y="-69" font-family="Helvetica,sans-Serif" font-size="10.00" fill="#000000">AMReX_PhysBCFunct.H</text>
</g>
<!-- Node23&#45;&gt;Node24 -->
<g id="edge40" class="edge">
<title>Node23&#45;&gt;Node24</title>
<path fill="none" stroke="#191970" d="M711.0193,-128.9717C652.6823,-116.9082 552.2288,-96.1354 489.4054,-83.1441"/>
<polygon fill="#191970" stroke="#191970" points="489.7784,-79.6473 479.2768,-81.0496 488.3608,-86.5022 489.7784,-79.6473"/>
</g>
<!-- Node25&#45;&gt;Node2 -->
<g id="edge45" class="edge">
<title>Node25&#45;&gt;Node2</title>
<path fill="none" stroke="#191970" d="M1722.3837,-124.3612C1719.2501,-123.8711 1716.1434,-123.4139 1713.0965,-123 1505.0632,-94.7408 1443.3002,-146.9462 1242.0965,-87 1236.0156,-85.1883 1167.094,-46.6229 1128.2775,-24.7735"/>
<polygon fill="#191970" stroke="#191970" points="1129.5446,-21.4702 1119.1141,-19.6113 1126.1088,-27.569 1129.5446,-21.4702"/>
</g>
<!-- Node25&#45;&gt;Node8 -->
<g id="edge60" class="edge">
<title>Node25&#45;&gt;Node8</title>
<path fill="none" stroke="#191970" d="M1792.7773,-123.2967C1793.2039,-113.7699 1793.7579,-101.3954 1794.2176,-91.1306"/>
<polygon fill="#191970" stroke="#191970" points="1797.7178,-91.2016 1794.6687,-81.055 1790.7248,-90.8884 1797.7178,-91.2016"/>
</g>
<!-- Node25&#45;&gt;Node9 -->
<g id="edge59" class="edge">
<title>Node25&#45;&gt;Node9</title>
<path fill="none" stroke="#191970" d="M1722.4027,-124.21C1719.264,-123.7609 1716.151,-123.3536 1713.0965,-123 1280.5797,-72.9312 1166.2032,-140.4932 734.0965,-87 618.4012,-72.6773 484.8661,-39.9792 416.8929,-22.1465"/>
<polygon fill="#191970" stroke="#191970" points="417.5166,-18.6913 406.9544,-19.5222 415.7294,-25.4593 417.5166,-18.6913"/>
</g>
<!-- Node26 -->
<g id="node27" class="node">
<title>Node26</title>
<g id="a_node27"><a xlink:href="_factory_8_h.html" target="_top" xlink:title="amr&#45;wind/core/Factory.H">
<polygon fill="#ffffff" stroke="#000000" points="1511.5965,-62 1511.5965,-81 1636.5965,-81 1636.5965,-62 1511.5965,-62"/>
<text text-anchor="middle" x="1574.0965" y="-69" font-family="Helvetica,sans-Serif" font-size="10.00" fill="#000000">amr&#45;wind/core/Factory.H</text>
</a>
</g>
</g>
<!-- Node25&#45;&gt;Node26 -->
<g id="edge46" class="edge">
<title>Node25&#45;&gt;Node26</title>
<path fill="none" stroke="#191970" d="M1743.1731,-123.4639C1704.5036,-111.5792 1651.1637,-95.1858 1614.8032,-84.0108"/>
<polygon fill="#191970" stroke="#191970" points="1615.6112,-80.5976 1605.0242,-81.0053 1613.5547,-87.2887 1615.6112,-80.5976"/>
</g>
<!-- Node30 -->
<g id="node31" class="node">
<title>Node30</title>
<g id="a_node31"><a xlink:href="_coll_mgr_8_h.html" target="_top" xlink:title="amr&#45;wind/core/CollMgr.H">
<polygon fill="#ffffff" stroke="#000000" points="1251.5965,-62 1251.5965,-81 1376.5965,-81 1376.5965,-62 1251.5965,-62"/>
<text text-anchor="middle" x="1314.0965" y="-69" font-family="Helvetica,sans-Serif" font-size="10.00" fill="#000000">amr&#45;wind/core/CollMgr.H</text>
</a>
</g>
</g>
<!-- Node25&#45;&gt;Node30 -->
<g id="edge52" class="edge">
<title>Node25&#45;&gt;Node30</title>
<path fill="none" stroke="#191970" d="M1722.3656,-124.4872C1719.2368,-123.963 1716.1362,-123.4642 1713.0965,-123 1568.1238,-100.8626 1529.8265,-110.6726 1385.0965,-87 1378.3203,-85.8917 1371.2165,-84.5541 1364.2306,-83.1348"/>
<polygon fill="#191970" stroke="#191970" points="1364.6375,-79.644 1354.1316,-81.0141 1363.1989,-86.4946 1364.6375,-79.644"/>
</g>
<!-- Node31 -->
<g id="node32" class="node">
<title>Node31</title>
<g id="a_node32"><a xlink:href="_p_d_e_fields_8_h.html" target="_top" xlink:title="amr&#45;wind/equation_systems\l/PDEFields.H">
<polygon fill="#ffffff" stroke="#000000" points="2018.5965,-56.5 2018.5965,-86.5 2157.5965,-86.5 2157.5965,-56.5 2018.5965,-56.5"/>
<text text-anchor="start" x="2026.5965" y="-74.5" font-family="Helvetica,sans-Serif" font-size="10.00" fill="#000000">amr&#45;wind/equation_systems</text>
<text text-anchor="middle" x="2088.0965" y="-63.5" font-family="Helvetica,sans-Serif" font-size="10.00" fill="#000000">/PDEFields.H</text>
</a>
</g>
</g>
<!-- Node25&#45;&gt;Node31 -->
<g id="edge57" class="edge">
<title>Node25&#45;&gt;Node31</title>
<path fill="none" stroke="#191970" d="M1858.5247,-123.4639C1903.9568,-113.1803 1964.3027,-99.5209 2011.722,-88.7875"/>
<polygon fill="#191970" stroke="#191970" points="2012.6539,-92.1652 2021.6345,-86.5438 2011.1085,-85.3379 2012.6539,-92.1652"/>
</g>
<!-- Node26&#45;&gt;Node3 -->
<g id="edge47" class="edge">
<title>Node26&#45;&gt;Node3</title>
<path fill="none" stroke="#191970" d="M1587.8465,-61.8906C1601.7956,-52.1421 1623.6063,-36.8994 1639.9863,-25.4521"/>
<polygon fill="#191970" stroke="#191970" points="1642.2513,-28.1392 1648.4431,-19.5419 1638.2414,-22.4015 1642.2513,-28.1392"/>
</g>
<!-- Node26&#45;&gt;Node4 -->
<g id="edge48" class="edge">
<title>Node26&#45;&gt;Node4</title>
<path fill="none" stroke="#191970" d="M1601.284,-61.8906C1630.9082,-51.42 1678.4652,-34.6111 1711.3883,-22.9745"/>
<polygon fill="#191970" stroke="#191970" points="1712.8379,-26.1744 1721.1,-19.5419 1710.5052,-19.5745 1712.8379,-26.1744"/>
</g>
<!-- Node27 -->
<g id="node28" class="node">
<title>Node27</title>
<polygon fill="#ffffff" stroke="#bfbfbf" points="1458.0965,-.5 1458.0965,-19.5 1512.0965,-19.5 1512.0965,-.5 1458.0965,-.5"/>
<text text-anchor="middle" x="1485.0965" y="-7.5" font-family="Helvetica,sans-Serif" font-size="10.00" fill="#000000">iostream</text>
</g>
<!-- Node26&#45;&gt;Node27 -->
<g id="edge49" class="edge">
<title>Node26&#45;&gt;Node27</title>
<path fill="none" stroke="#191970" d="M1560.1903,-61.8906C1546.0827,-52.1421 1524.0241,-36.8994 1507.4581,-25.4521"/>
<polygon fill="#191970" stroke="#191970" points="1509.1218,-22.3474 1498.9051,-19.5419 1505.1423,-28.1063 1509.1218,-22.3474"/>
</g>
<!-- Node28 -->
<g id="node29" class="node">
<title>Node28</title>
<polygon fill="#ffffff" stroke="#bfbfbf" points="1530.5965,-.5 1530.5965,-19.5 1617.5965,-19.5 1617.5965,-.5 1530.5965,-.5"/>
<text text-anchor="middle" x="1574.0965" y="-7.5" font-family="Helvetica,sans-Serif" font-size="10.00" fill="#000000">AMReX_Print.H</text>
</g>
<!-- Node26&#45;&gt;Node28 -->
<g id="edge50" class="edge">
<title>Node26&#45;&gt;Node28</title>
<path fill="none" stroke="#191970" d="M1574.0965,-61.8906C1574.0965,-53.3657 1574.0965,-40.6392 1574.0965,-29.9235"/>
<polygon fill="#191970" stroke="#191970" points="1577.5966,-29.7448 1574.0965,-19.7449 1570.5966,-29.7449 1577.5966,-29.7448"/>
</g>
<!-- Node29 -->
<g id="node30" class="node">
<title>Node29</title>
<polygon fill="#ffffff" stroke="#bfbfbf" points="1378.0965,-.5 1378.0965,-19.5 1440.0965,-19.5 1440.0965,-.5 1378.0965,-.5"/>
<text text-anchor="middle" x="1409.0965" y="-7.5" font-family="Helvetica,sans-Serif" font-size="10.00" fill="#000000">AMReX.H</text>
</g>
<!-- Node26&#45;&gt;Node29 -->
<g id="edge51" class="edge">
<title>Node26&#45;&gt;Node29</title>
<path fill="none" stroke="#191970" d="M1548.3153,-61.8906C1520.3445,-51.4652 1475.5147,-34.7559 1444.3105,-23.1252"/>
<polygon fill="#191970" stroke="#191970" points="1445.2894,-19.7549 1434.6967,-19.5419 1442.8446,-26.3141 1445.2894,-19.7549"/>
</g>
<!-- Node30&#45;&gt;Node2 -->
<g id="edge53" class="edge">
<title>Node30&#45;&gt;Node2</title>
<path fill="none" stroke="#191970" d="M1280.9715,-61.8906C1240.3487,-50.1062 1172.0494,-30.2929 1132.642,-18.8611"/>
<polygon fill="#191970" stroke="#191970" points="1133.3892,-15.4336 1122.81,-16.0089 1131.4389,-22.1564 1133.3892,-15.4336"/>
</g>
<!-- Node30&#45;&gt;Node3 -->
<g id="edge54" class="edge">
<title>Node30&#45;&gt;Node3</title>
<path fill="none" stroke="#191970" d="M1355.6759,-61.9368C1365.311,-59.856 1375.5414,-57.7546 1385.0965,-56 1491.615,-36.4397 1520.1675,-42.5352 1626.0965,-20 1626.1957,-19.9789 1626.2949,-19.9577 1626.3943,-19.9364"/>
<polygon fill="#191970" stroke="#191970" points="1626.9212,-23.4087 1635.8424,-17.6936 1625.3044,-16.5979 1626.9212,-23.4087"/>
</g>
<!-- Node30&#45;&gt;Node4 -->
<g id="edge55" class="edge">
<title>Node30&#45;&gt;Node4</title>
<path fill="none" stroke="#191970" d="M1354.5113,-61.9445C1364.4728,-59.792 1375.1401,-57.6569 1385.0965,-56 1519.5624,-33.6224 1557.4063,-41.0712 1696.2231,-20.0201"/>
<polygon fill="#191970" stroke="#191970" points="1697.0441,-23.435 1706.3952,-18.4544 1695.9791,-16.5165 1697.0441,-23.435"/>
</g>
<!-- Node30&#45;&gt;Node11 -->
<g id="edge56" class="edge">
<title>Node30&#45;&gt;Node11</title>
<path fill="none" stroke="#191970" d="M1251.533,-62.0925C1172.8291,-50.2581 1038.7789,-30.1014 962.559,-18.6404"/>
<polygon fill="#191970" stroke="#191970" points="963.0619,-15.1768 952.6526,-17.1509 962.021,-22.099 963.0619,-15.1768"/>
</g>
<!-- Node32 -->
<g id="node33" class="node">
<title>Node32</title>
<polygon fill="#ffffff" stroke="#bfbfbf" points="2065.5965,-.5 2065.5965,-19.5 2110.5965,-19.5 2110.5965,-.5 2065.5965,-.5"/>
<text text-anchor="middle" x="2088.0965" y="-7.5" font-family="Helvetica,sans-Serif" font-size="10.00" fill="#000000">iosfwd</text>
</g>
<!-- Node31&#45;&gt;Node32 -->
<g id="edge58" class="edge">
<title>Node31&#45;&gt;Node32</title>
<path fill="none" stroke="#191970" d="M2088.0965,-56.2977C2088.0965,-48.3834 2088.0965,-38.6043 2088.0965,-30.0759"/>
<polygon fill="#191970" stroke="#191970" points="2091.5966,-29.8469 2088.0965,-19.8469 2084.5966,-29.847 2091.5966,-29.8469"/>
</g>
<!-- Node33&#45;&gt;Node5 -->
<g id="edge64" class="edge">
<title>Node33&#45;&gt;Node5</title>
<path fill="none" stroke="#191970" d="M938.5672,-130.5924C856.0389,-119.8689 720.1973,-100.5061 701.0965,-87 681.4372,-73.0989 669.705,-47.2214 663.5792,-29.3264"/>
<polygon fill="#191970" stroke="#191970" points="666.8695,-28.1218 660.5356,-19.6288 660.1908,-30.218 666.8695,-28.1218"/>
</g>
<!-- Node33&#45;&gt;Node26 -->
<g id="edge62" class="edge">
<title>Node33&#45;&gt;Node26</title>
<path fill="none" stroke="#191970" d="M1041.9179,-128.9752C1052.3411,-126.7441 1063.5998,-124.5647 1074.0965,-123 1262.9042,-94.8549 1313.2888,-115.1451 1502.0965,-87 1509.313,-85.9243 1516.8897,-84.558 1524.3074,-83.0841"/>
<polygon fill="#191970" stroke="#191970" points="1525.1902,-86.4757 1534.2752,-81.0248 1523.7739,-79.6205 1525.1902,-86.4757"/>
</g>
<!-- Node33&#45;&gt;Node30 -->
<g id="edge63" class="edge">
<title>Node33&#45;&gt;Node30</title>
<path fill="none" stroke="#191970" d="M1046.265,-128.9867C1055.4628,-127.0069 1065.0959,-124.9345 1074.0965,-123 1137.6931,-109.3312 1210.7757,-93.6531 1259.4219,-83.2215"/>
<polygon fill="#191970" stroke="#191970" points="1260.3754,-86.5966 1269.4193,-81.0777 1258.9077,-79.7522 1260.3754,-86.5966"/>
</g>
<!-- Node34 -->
<g id="node35" class="node">
<title>Node34</title>
<polygon fill="#ffffff" stroke="#bfbfbf" points="1047.0965,-62 1047.0965,-81 1157.0965,-81 1157.0965,-62 1047.0965,-62"/>
<text text-anchor="middle" x="1102.0965" y="-69" font-family="Helvetica,sans-Serif" font-size="10.00" fill="#000000">AMReX_Geometry.H</text>
</g>
<!-- Node33&#45;&gt;Node34 -->
<g id="edge65" class="edge">
<title>Node33&#45;&gt;Node34</title>
<path fill="none" stroke="#191970" d="M1016.4241,-128.9005C1032.8351,-117.9052 1059.9441,-99.7422 1079.2717,-86.7927"/>
<polygon fill="#191970" stroke="#191970" points="1081.436,-89.5556 1087.7956,-81.0817 1077.5397,-83.7402 1081.436,-89.5556"/>
</g>
<!-- Node35&#45;&gt;Node2 -->
<g id="edge68" class="edge">
<title>Node35&#45;&gt;Node2</title>
<path fill="none" stroke="#191970" d="M2175.4778,-57.4609C2172.3145,-56.9121 2169.1724,-56.4186 2166.0965,-56 2113.6042,-48.8555 1302.0985,-17.6266 1132.8736,-11.1705"/>
<polygon fill="#191970" stroke="#191970" points="1132.7969,-7.6651 1122.6708,-10.7816 1132.5302,-14.6601 1132.7969,-7.6651"/>
</g>
<!-- Node35&#45;&gt;Node4 -->
<g id="edge69" class="edge">
<title>Node35&#45;&gt;Node4</title>
<path fill="none" stroke="#191970" d="M2175.44,-57.7076C2172.2865,-57.0952 2169.1568,-56.5205 2166.0965,-56 2035.2222,-33.7399 1879.3771,-19.8944 1800.0635,-13.7404"/>
<polygon fill="#191970" stroke="#191970" points="1800.0907,-10.2323 1789.8525,-12.958 1799.5558,-17.2119 1800.0907,-10.2323"/>
</g>
<!-- Node36 -->
<g id="node37" class="node">
<title>Node36</title>
<polygon fill="#ffffff" stroke="#bfbfbf" points="2145.0965,-.5 2145.0965,-19.5 2189.0965,-19.5 2189.0965,-.5 2145.0965,-.5"/>
<text text-anchor="middle" x="2167.0965" y="-7.5" font-family="Helvetica,sans-Serif" font-size="10.00" fill="#000000">vector</text>
</g>
<!-- Node35&#45;&gt;Node36 -->
<g id="edge70" class="edge">
<title>Node35&#45;&gt;Node36</title>
<path fill="none" stroke="#191970" d="M2216.7819,-56.2977C2207.1433,-47.3163 2194.9275,-35.9334 2185.0207,-26.702"/>
<polygon fill="#191970" stroke="#191970" points="2187.3661,-24.1036 2177.664,-19.8469 2182.594,-29.2249 2187.3661,-24.1036"/>
</g>
<!-- Node37 -->
<g id="node38" class="node">
<title>Node37</title>
<polygon fill="#ffffff" stroke="#bfbfbf" points="2207.0965,-.5 2207.0965,-19.5 2259.0965,-19.5 2259.0965,-.5 2207.0965,-.5"/>
<text text-anchor="middle" x="2233.0965" y="-7.5" font-family="Helvetica,sans-Serif" font-size="10.00" fill="#000000">netcdf.h</text>
</g>
<!-- Node35&#45;&gt;Node37 -->
<g id="edge71" class="edge">
<title>Node35&#45;&gt;Node37</title>
<path fill="none" stroke="#191970" d="M2233.0965,-56.2977C2233.0965,-48.3834 2233.0965,-38.6043 2233.0965,-30.0759"/>
<polygon fill="#191970" stroke="#191970" points="2236.5966,-29.8469 2233.0965,-19.8469 2229.5966,-29.847 2236.5966,-29.8469"/>
</g>
<!-- Node38 -->
<g id="node39" class="node">
<title>Node38</title>
<polygon fill="#ffffff" stroke="#bfbfbf" points="2277.5965,-.5 2277.5965,-19.5 2348.5965,-19.5 2348.5965,-.5 2277.5965,-.5"/>
<text text-anchor="middle" x="2313.0965" y="-7.5" font-family="Helvetica,sans-Serif" font-size="10.00" fill="#000000">netcdf_par.h</text>
</g>
<!-- Node35&#45;&gt;Node38 -->
<g id="edge72" class="edge">
<title>Node35&#45;&gt;Node38</title>
<path fill="none" stroke="#191970" d="M2252.8718,-56.2977C2264.7864,-47.1384 2279.9497,-35.4816 2292.0803,-26.1562"/>
<polygon fill="#191970" stroke="#191970" points="2294.4926,-28.7165 2300.2875,-19.8469 2290.2263,-23.1668 2294.4926,-28.7165"/>
</g>
</g>
</svg>
