<?xml version="1.0" encoding="UTF-8" standalone="no"?>
<!DOCTYPE svg PUBLIC "-//W3C//DTD SVG 1.1//EN"
 "http://www.w3.org/Graphics/SVG/1.1/DTD/svg11.dtd">
<!-- Generated by graphviz version 2.40.1 (20161225.0304)
 -->
<!-- Title: ABLFieldInit.H Pages: 1 -->
<!--zoomable 196 -->
<svg id="main" version="1.1" xmlns="http://www.w3.org/2000/svg" xmlns:xlink="http://www.w3.org/1999/xlink" xml:space="preserve" onload="init(evt)">
<style type="text/css"><![CDATA[
.edge:hover path { stroke: red; }
.edge:hover polygon { stroke: red; fill: red; }
]]></style>
<script type="text/javascript"><![CDATA[
var edges = document.getElementsByTagName('g');
if (edges && edges.length) {
  for (var i=0;i<edges.length;i++) {
    if (edges[i].id.substr(0,4)=='edge') {
      edges[i].setAttribute('class','edge');
    }
  }
}
]]></script>
        <defs>
                <circle id="rim" cx="0" cy="0" r="7"/>
                <circle id="rim2" cx="0" cy="0" r="3.5"/>
                <g id="zoomPlus">
                        <use xlink:href="#rim" fill="#404040">
                                <set attributeName="fill" to="#808080" begin="zoomplus.mouseover" end="zoomplus.mouseout"/>
                        </use>
                        <path d="M-4,0h8M0,-4v8" fill="none" stroke="white" stroke-width="1.5" pointer-events="none"/>
                </g>
                <g id="zoomMin">
                        <use xlink:href="#rim" fill="#404040">
                                <set attributeName="fill" to="#808080" begin="zoomminus.mouseover" end="zoomminus.mouseout"/>
                        </use>
                        <path d="M-4,0h8" fill="none" stroke="white" stroke-width="1.5" pointer-events="none"/>
                </g>
                <g id="dirArrow">
                        <path fill="none" stroke="white" stroke-width="1.5" d="M0,-3.0v7 M-2.5,-0.5L0,-3.0L2.5,-0.5"/>
                </g>
               <g id="resetDef">
                       <use xlink:href="#rim2" fill="#404040">
                               <set attributeName="fill" to="#808080" begin="reset.mouseover" end="reset.mouseout"/>
                       </use>
               </g>
        </defs>

<script type="text/javascript">
var viewWidth = 1145;
var viewHeight = 196;
var sectionId = 'dynsection-0';
</script>
<script xlink:href="svgpan.js"/>
<svg id="graph" class="graph">
<g id="viewport">
<title>ABLFieldInit.H</title>
<polygon fill="#ffffff" stroke="transparent" points="-4,4 -4,-192 1141.1547,-192 1141.1547,4 -4,4"/>
<!-- Node0 -->
<g id="node1" class="node">
<title>Node0</title>
<polygon fill="#bfbfbf" stroke="#000000" points="651.6547,-168.5 651.6547,-187.5 731.6547,-187.5 731.6547,-168.5 651.6547,-168.5"/>
<text text-anchor="middle" x="691.6547" y="-175.5" font-family="Helvetica,sans-Serif" font-size="10.00" fill="#000000">ABLFieldInit.H</text>
</g>
<!-- Node1 -->
<g id="node2" class="node">
<title>Node1</title>
<g id="a_node2"><a xlink:href="_field_8_h.html" target="_top" xlink:title="amr&#45;wind/core/Field.H">
<polygon fill="#ffffff" stroke="#000000" points="422.1547,-112.5 422.1547,-131.5 535.1547,-131.5 535.1547,-112.5 422.1547,-112.5"/>
<text text-anchor="middle" x="478.6547" y="-119.5" font-family="Helvetica,sans-Serif" font-size="10.00" fill="#000000">amr&#45;wind/core/Field.H</text>
</a>
</g>
</g>
<!-- Node0&#45;&gt;Node1 -->
<g id="edge1" class="edge">
<title>Node0&#45;&gt;Node1</title>
<path fill="none" stroke="#191970" d="M655.0386,-168.3733C619.0067,-158.9001 563.8669,-144.4032 524.8433,-134.1435"/>
<polygon fill="#191970" stroke="#191970" points="525.3542,-130.6589 514.7929,-131.5011 523.5742,-137.4289 525.3542,-130.6589"/>
</g>
<!-- Node7 -->
<g id="node8" class="node">
<title>Node7</title>
<polygon fill="#ffffff" stroke="#bfbfbf" points="716.1547,-56.5 716.1547,-75.5 801.1547,-75.5 801.1547,-56.5 716.1547,-56.5"/>
<text text-anchor="middle" x="758.6547" y="-63.5" font-family="Helvetica,sans-Serif" font-size="10.00" fill="#000000">AMReX_Gpu.H</text>
</g>
<!-- Node0&#45;&gt;Node7 -->
<g id="edge21" class="edge">
<title>Node0&#45;&gt;Node7</title>
<path fill="none" stroke="#191970" d="M651.3099,-169.7713C611.7617,-159.8413 560.4124,-140.8028 582.6547,-112 590.3748,-102.0028 657.1776,-86.5365 706.2048,-76.3407"/>
<polygon fill="#191970" stroke="#191970" points="706.9706,-79.7565 716.0595,-74.3119 705.5591,-72.9002 706.9706,-79.7565"/>
</g>
<!-- Node11 -->
<g id="node12" class="node">
<title>Node11</title>
<polygon fill="#ffffff" stroke="#bfbfbf" points="48.1547,-.5 48.1547,-19.5 143.1547,-19.5 143.1547,-.5 48.1547,-.5"/>
<text text-anchor="middle" x="95.6547" y="-7.5" font-family="Helvetica,sans-Serif" font-size="10.00" fill="#000000">AMReX_Vector.H</text>
</g>
<!-- Node0&#45;&gt;Node11 -->
<g id="edge20" class="edge">
<title>Node0&#45;&gt;Node11</title>
<path fill="none" stroke="#191970" d="M651.2266,-175.0266C510.4904,-164.272 48.2626,-125.4117 5.6547,-76 -13.4382,-53.8584 21.2433,-34.8889 52.9413,-23.0443"/>
<polygon fill="#191970" stroke="#191970" points="54.3712,-26.2506 62.6199,-19.6015 52.0252,-19.6554 54.3712,-26.2506"/>
</g>
<!-- Node12 -->
<g id="node13" class="node">
<title>Node12</title>
<polygon fill="#ffffff" stroke="#bfbfbf" points="591.6547,-112.5 591.6547,-131.5 681.6547,-131.5 681.6547,-112.5 591.6547,-112.5"/>
<text text-anchor="middle" x="636.6547" y="-119.5" font-family="Helvetica,sans-Serif" font-size="10.00" fill="#000000">AMReX_Array.H</text>
</g>
<!-- Node0&#45;&gt;Node12 -->
<g id="edge15" class="edge">
<title>Node0&#45;&gt;Node12</title>
<path fill="none" stroke="#191970" d="M682.0744,-168.2455C674.1089,-160.1352 662.5906,-148.4075 653.1467,-138.7919"/>
<polygon fill="#191970" stroke="#191970" points="655.6293,-136.3247 646.1251,-131.6427 650.6352,-141.2297 655.6293,-136.3247"/>
</g>
<!-- Node13 -->
<g id="node14" class="node">
<title>Node13</title>
<polygon fill="#ffffff" stroke="#bfbfbf" points="700.1547,-112.5 700.1547,-131.5 795.1547,-131.5 795.1547,-112.5 700.1547,-112.5"/>
<text text-anchor="middle" x="747.6547" y="-119.5" font-family="Helvetica,sans-Serif" font-size="10.00" fill="#000000">AMReX_Array4.H</text>
</g>
<!-- Node0&#45;&gt;Node13 -->
<g id="edge16" class="edge">
<title>Node0&#45;&gt;Node13</title>
<path fill="none" stroke="#191970" d="M701.4091,-168.2455C709.5194,-160.1352 721.2471,-148.4075 730.8627,-138.7919"/>
<polygon fill="#191970" stroke="#191970" points="733.4158,-141.1887 738.012,-131.6427 728.466,-136.2389 733.4158,-141.1887"/>
</g>
<!-- Node14 -->
<g id="node15" class="node">
<title>Node14</title>
<polygon fill="#ffffff" stroke="#bfbfbf" points="813.6547,-112.5 813.6547,-131.5 897.6547,-131.5 897.6547,-112.5 813.6547,-112.5"/>
<text text-anchor="middle" x="855.6547" y="-119.5" font-family="Helvetica,sans-Serif" font-size="10.00" fill="#000000">AMReX_Box.H</text>
</g>
<!-- Node0&#45;&gt;Node14 -->
<g id="edge17" class="edge">
<title>Node0&#45;&gt;Node14</title>
<path fill="none" stroke="#191970" d="M719.8473,-168.3733C746.9999,-159.1016 788.2453,-145.0178 818.1571,-134.804"/>
<polygon fill="#191970" stroke="#191970" points="819.4975,-138.0449 827.8299,-131.5011 817.2354,-131.4204 819.4975,-138.0449"/>
</g>
<!-- Node15 -->
<g id="node16" class="node">
<title>Node15</title>
<polygon fill="#ffffff" stroke="#bfbfbf" points="915.6547,-112.5 915.6547,-131.5 1025.6547,-131.5 1025.6547,-112.5 915.6547,-112.5"/>
<text text-anchor="middle" x="970.6547" y="-119.5" font-family="Helvetica,sans-Serif" font-size="10.00" fill="#000000">AMReX_Geometry.H</text>
</g>
<!-- Node0&#45;&gt;Node15 -->
<g id="edge18" class="edge">
<title>Node0&#45;&gt;Node15</title>
<path fill="none" stroke="#191970" d="M731.9257,-169.9169C779.4182,-160.3844 858.7249,-144.4662 912.7904,-133.6143"/>
<polygon fill="#191970" stroke="#191970" points="913.7983,-136.9819 922.914,-131.5824 912.4207,-130.1188 913.7983,-136.9819"/>
</g>
<!-- Node16 -->
<g id="node17" class="node">
<title>Node16</title>
<polygon fill="#ffffff" stroke="#bfbfbf" points="1044.1547,-112.5 1044.1547,-131.5 1137.1547,-131.5 1137.1547,-112.5 1044.1547,-112.5"/>
<text text-anchor="middle" x="1090.6547" y="-119.5" font-family="Helvetica,sans-Serif" font-size="10.00" fill="#000000">AMReX_REAL.H</text>
</g>
<!-- Node0&#45;&gt;Node16 -->
<g id="edge19" class="edge">
<title>Node0&#45;&gt;Node16</title>
<path fill="none" stroke="#191970" d="M731.8689,-173.1811C794.2045,-165.5858 918.1524,-149.9843 1033.8368,-132.0721"/>
<polygon fill="#191970" stroke="#191970" points="1034.587,-135.4976 1043.9292,-130.5002 1033.5096,-128.581 1034.587,-135.4976"/>
</g>
<!-- Node2 -->
<g id="node3" class="node">
<title>Node2</title>
<polygon fill="#ffffff" stroke="#bfbfbf" points="269.1547,-.5 269.1547,-19.5 310.1547,-19.5 310.1547,-.5 269.1547,-.5"/>
<text text-anchor="middle" x="289.6547" y="-7.5" font-family="Helvetica,sans-Serif" font-size="10.00" fill="#000000">string</text>
</g>
<!-- Node1&#45;&gt;Node2 -->
<g id="edge2" class="edge">
<title>Node1&#45;&gt;Node2</title>
<path fill="none" stroke="#191970" d="M422.0724,-113.0019C378.7738,-105.0108 323.8235,-92.1128 307.6547,-76 295.4536,-63.8411 291.2998,-44.276 289.9913,-29.5987"/>
<polygon fill="#191970" stroke="#191970" points="293.4822,-29.3326 289.4591,-19.5313 286.492,-29.7021 293.4822,-29.3326"/>
</g>
<!-- Node3 -->
<g id="node4" class="node">
<title>Node3</title>
<polygon fill="#ffffff" stroke="#bfbfbf" points="544.6547,-56.5 544.6547,-75.5 596.6547,-75.5 596.6547,-56.5 544.6547,-56.5"/>
<text text-anchor="middle" x="570.6547" y="-63.5" font-family="Helvetica,sans-Serif" font-size="10.00" fill="#000000">memory</text>
</g>
<!-- Node1&#45;&gt;Node3 -->
<g id="edge3" class="edge">
<title>Node1&#45;&gt;Node3</title>
<path fill="none" stroke="#191970" d="M494.6798,-112.2455C508.7955,-103.6534 529.581,-91.0014 545.8445,-81.1018"/>
<polygon fill="#191970" stroke="#191970" points="548.0909,-83.8319 554.8131,-75.6427 544.4513,-77.8525 548.0909,-83.8319"/>
</g>
<!-- Node4 -->
<g id="node5" class="node">
<title>Node4</title>
<polygon fill="#ffffff" stroke="#bfbfbf" points="615.1547,-56.5 615.1547,-75.5 698.1547,-75.5 698.1547,-56.5 615.1547,-56.5"/>
<text text-anchor="middle" x="656.6547" y="-63.5" font-family="Helvetica,sans-Serif" font-size="10.00" fill="#000000">unordered_map</text>
</g>
<!-- Node1&#45;&gt;Node4 -->
<g id="edge4" class="edge">
<title>Node1&#45;&gt;Node4</title>
<path fill="none" stroke="#191970" d="M509.2539,-112.3733C538.9808,-103.021 584.2706,-88.7725 616.8002,-78.5385"/>
<polygon fill="#191970" stroke="#191970" points="617.966,-81.8409 626.4547,-75.5011 615.8652,-75.1636 617.966,-81.8409"/>
</g>
<!-- Node5 -->
<g id="node6" class="node">
<title>Node5</title>
<polygon fill="#ffffff" stroke="#bfbfbf" points="330.6547,-.5 330.6547,-19.5 434.6547,-19.5 434.6547,-.5 330.6547,-.5"/>
<text text-anchor="middle" x="382.6547" y="-7.5" font-family="Helvetica,sans-Serif" font-size="10.00" fill="#000000">AMReX_MultiFab.H</text>
</g>
<!-- Node1&#45;&gt;Node5 -->
<g id="edge5" class="edge">
<title>Node1&#45;&gt;Node5</title>
<path fill="none" stroke="#191970" d="M478.0879,-112.499C476.8238,-98.7255 472.7508,-73.004 459.6547,-56 448.9764,-42.1354 432.8343,-31.5788 418.0835,-24.0978"/>
<polygon fill="#191970" stroke="#191970" points="419.1969,-20.7518 408.6624,-19.6219 416.193,-27.0746 419.1969,-20.7518"/>
</g>
<!-- Node6 -->
<g id="node7" class="node">
<title>Node6</title>
<polygon fill="#ffffff" stroke="#bfbfbf" points="15.1547,-56.5 15.1547,-75.5 114.1547,-75.5 114.1547,-56.5 15.1547,-56.5"/>
<text text-anchor="middle" x="64.6547" y="-63.5" font-family="Helvetica,sans-Serif" font-size="10.00" fill="#000000">AMReX_BCRec.H</text>
</g>
<!-- Node1&#45;&gt;Node6 -->
<g id="edge6" class="edge">
<title>Node1&#45;&gt;Node6</title>
<path fill="none" stroke="#191970" d="M421.9948,-115.3499C353.9002,-107.2031 235.9253,-92.598 124.2952,-76.0467"/>
<polygon fill="#191970" stroke="#191970" points="124.6135,-72.5556 114.2067,-74.5429 123.5814,-79.4791 124.6135,-72.5556"/>
</g>
<!-- Node1&#45;&gt;Node7 -->
<g id="edge7" class="edge">
<title>Node1&#45;&gt;Node7</title>
<path fill="none" stroke="#191970" d="M526.4702,-112.4369C576.4035,-102.4502 654.5011,-86.8307 706.1249,-76.5059"/>
<polygon fill="#191970" stroke="#191970" points="706.9611,-79.9081 716.0805,-74.5148 705.5883,-73.044 706.9611,-79.9081"/>
</g>
<!-- Node8 -->
<g id="node9" class="node">
<title>Node8</title>
<g id="a_node9"><a xlink:href="incflo__enums_8_h.html" target="_top" xlink:title="amr&#45;wind/incflo_enums.H">
<polygon fill="#ffffff" stroke="#000000" points="132.6547,-56.5 132.6547,-75.5 260.6547,-75.5 260.6547,-56.5 132.6547,-56.5"/>
<text text-anchor="middle" x="196.6547" y="-63.5" font-family="Helvetica,sans-Serif" font-size="10.00" fill="#000000">amr&#45;wind/incflo_enums.H</text>
</a>
</g>
</g>
<!-- Node1&#45;&gt;Node8 -->
<g id="edge8" class="edge">
<title>Node1&#45;&gt;Node8</title>
<path fill="none" stroke="#191970" d="M430.4975,-112.4369C381.8299,-102.7724 306.5972,-87.8326 254.6725,-77.5213"/>
<polygon fill="#191970" stroke="#191970" points="255.1034,-74.0386 244.6131,-75.5237 253.7399,-80.9045 255.1034,-74.0386"/>
</g>
<!-- Node9 -->
<g id="node10" class="node">
<title>Node9</title>
<g id="a_node10"><a xlink:href="_field_desc_types_8_h.html" target="_top" xlink:title="amr&#45;wind/core/FieldDescTypes.H">
<polygon fill="#ffffff" stroke="#000000" points="453.1547,-.5 453.1547,-19.5 616.1547,-19.5 616.1547,-.5 453.1547,-.5"/>
<text text-anchor="middle" x="534.6547" y="-7.5" font-family="Helvetica,sans-Serif" font-size="10.00" fill="#000000">amr&#45;wind/core/FieldDescTypes.H</text>
</a>
</g>
</g>
<!-- Node1&#45;&gt;Node9 -->
<g id="edge9" class="edge">
<title>Node1&#45;&gt;Node9</title>
<path fill="none" stroke="#191970" d="M483.4292,-112.4509C492.6867,-93.936 513.2251,-52.8591 525.2953,-28.7187"/>
<polygon fill="#191970" stroke="#191970" points="528.5505,-30.0344 529.8922,-19.5249 522.2895,-26.9039 528.5505,-30.0344"/>
</g>
<!-- Node10 -->
<g id="node11" class="node">
<title>Node10</title>
<g id="a_node11"><a xlink:href="_view_field_8_h.html" target="_top" xlink:title="amr&#45;wind/core/ViewField.H">
<polygon fill="#ffffff" stroke="#000000" points="316.6547,-56.5 316.6547,-75.5 450.6547,-75.5 450.6547,-56.5 316.6547,-56.5"/>
<text text-anchor="middle" x="383.6547" y="-63.5" font-family="Helvetica,sans-Serif" font-size="10.00" fill="#000000">amr&#45;wind/core/ViewField.H</text>
</a>
</g>
</g>
<!-- Node1&#45;&gt;Node10 -->
<g id="edge10" class="edge">
<title>Node1&#45;&gt;Node10</title>
<path fill="none" stroke="#191970" d="M462.1069,-112.2455C447.3948,-103.5731 425.6659,-90.7645 408.8042,-80.825"/>
<polygon fill="#191970" stroke="#191970" points="410.4048,-77.7057 400.0128,-75.6427 406.8501,-83.736 410.4048,-77.7057"/>
</g>
<!-- Node10&#45;&gt;Node2 -->
<g id="edge11" class="edge">
<title>Node10&#45;&gt;Node2</title>
<path fill="none" stroke="#191970" d="M367.2811,-56.2455C352.7238,-47.5731 331.2237,-34.7645 314.5394,-24.825"/>
<polygon fill="#191970" stroke="#191970" points="316.2229,-21.7539 305.8406,-19.6427 312.6403,-27.7676 316.2229,-21.7539"/>
</g>
<!-- Node10&#45;&gt;Node5 -->
<g id="edge13" class="edge">
<title>Node10&#45;&gt;Node5</title>
<path fill="none" stroke="#191970" d="M383.4805,-56.2455C383.35,-48.9382 383.1671,-38.6944 383.0065,-29.7046"/>
<polygon fill="#191970" stroke="#191970" points="386.5049,-29.5786 382.8268,-19.6427 379.506,-29.7036 386.5049,-29.5786"/>
</g>
<!-- Node10&#45;&gt;Node9 -->
<g id="edge12" class="edge">
<title>Node10&#45;&gt;Node9</title>
<path fill="none" stroke="#191970" d="M409.6125,-56.3733C434.3954,-47.1822 471.9293,-33.2624 499.4087,-23.0713"/>
<polygon fill="#191970" stroke="#191970" points="500.8766,-26.26 509.0356,-19.5011 498.4425,-19.6968 500.8766,-26.26"/>
</g>
<!-- Node10&#45;&gt;Node11 -->
<g id="edge14" class="edge">
<title>Node10&#45;&gt;Node11</title>
<path fill="none" stroke="#191970" d="M334.4729,-56.4369C284.2134,-46.6642 206.213,-31.4974 153.1353,-21.1768"/>
<polygon fill="#191970" stroke="#191970" points="153.6817,-17.7176 143.1975,-19.2444 152.3456,-24.5889 153.6817,-17.7176"/>
</g>
</g>
</svg>
        <g id="navigator" transform="translate(0 0)" fill="#404254">
                <rect fill="#f2f5e9" fill-opacity="0.5" stroke="#606060" stroke-width=".5" x="0" y="0" width="60" height="60"/>
                <use id="zoomplus" xlink:href="#zoomPlus" x="17" y="9" onmousedown="handleZoom(evt,'in')"/>
                <use id="zoomminus" xlink:href="#zoomMin" x="42" y="9" onmousedown="handleZoom(evt,'out')"/>
                <use id="reset" xlink:href="#resetDef" x="30" y="36" onmousedown="handleReset()"/>
                <g id="arrowUp" xlink:href="#dirArrow" transform="translate(30 24)" onmousedown="handlePan(0,-1)">
                  <use xlink:href="#rim" fill="#404040">
                        <set attributeName="fill" to="#808080" begin="arrowUp.mouseover" end="arrowUp.mouseout"/>
                  </use>
                  <path fill="none" stroke="white" stroke-width="1.5" d="M0,-3.0v7 M-2.5,-0.5L0,-3.0L2.5,-0.5"/>
                </g>
                <g id="arrowRight" xlink:href="#dirArrow" transform="rotate(90) translate(36 -43)" onmousedown="handlePan(1,0)">
                  <use xlink:href="#rim" fill="#404040">
                        <set attributeName="fill" to="#808080" begin="arrowRight.mouseover" end="arrowRight.mouseout"/>
                  </use>
                  <path fill="none" stroke="white" stroke-width="1.5" d="M0,-3.0v7 M-2.5,-0.5L0,-3.0L2.5,-0.5"/>
                </g>
                <g id="arrowDown" xlink:href="#dirArrow" transform="rotate(180) translate(-30 -48)" onmousedown="handlePan(0,1)">
                  <use xlink:href="#rim" fill="#404040">
                        <set attributeName="fill" to="#808080" begin="arrowDown.mouseover" end="arrowDown.mouseout"/>
                  </use>
                  <path fill="none" stroke="white" stroke-width="1.5" d="M0,-3.0v7 M-2.5,-0.5L0,-3.0L2.5,-0.5"/>
                </g>
                <g id="arrowLeft" xlink:href="#dirArrow" transform="rotate(270) translate(-36 17)" onmousedown="handlePan(-1,0)">
                  <use xlink:href="#rim" fill="#404040">
                        <set attributeName="fill" to="#808080" begin="arrowLeft.mouseover" end="arrowLeft.mouseout"/>
                  </use>
                  <path fill="none" stroke="white" stroke-width="1.5" d="M0,-3.0v7 M-2.5,-0.5L0,-3.0L2.5,-0.5"/>
                </g>
        </g>
        <svg viewBox="0 0 15 15" width="100%" height="30px" preserveAspectRatio="xMaxYMin meet">
         <g id="arrow_out" transform="scale(0.3 0.3)">
          <a xlink:href="_a_b_l_field_init_8_h__incl_org.svg" target="_base">
           <rect id="button" ry="5" rx="5" y="6" x="6" height="38" width="38"
                fill="#f2f5e9" fill-opacity="0.5" stroke="#606060" stroke-width="1.0"/>
           <path id="arrow"
             d="M 11.500037,31.436501 C 11.940474,20.09759 22.043105,11.32322 32.158766,21.979434 L 37.068811,17.246167 C 37.068811,17.246167 37.088388,32 37.088388,32 L 22.160133,31.978069 C 22.160133,31.978069 26.997745,27.140456 26.997745,27.140456 C 18.528582,18.264221 13.291696,25.230495 11.500037,31.436501 z"
             style="fill:#404040;"/>
          </a>
         </g>
        </svg>
</svg>
