<?xml version="1.0" encoding="UTF-8" standalone="no"?>
<!DOCTYPE svg PUBLIC "-//W3C//DTD SVG 1.1//EN"
 "http://www.w3.org/Graphics/SVG/1.1/DTD/svg11.dtd">
<!-- Generated by graphviz version 2.40.1 (20161225.0304)
 -->
<!-- Title: AdvOp_MOL.H Pages: 1 -->
<svg width="2916pt" height="408pt"
 viewBox="0.00 0.00 2916.45 408.00" xmlns="http://www.w3.org/2000/svg" xmlns:xlink="http://www.w3.org/1999/xlink">
<g id="graph0" class="graph" transform="scale(1 1) rotate(0) translate(4 404)">
<title>AdvOp_MOL.H</title>
<polygon fill="#ffffff" stroke="transparent" points="-4,4 -4,-404 2912.4462,-404 2912.4462,4 -4,4"/>
<!-- Node0 -->
<g id="node1" class="node">
<title>Node0</title>
<polygon fill="#bfbfbf" stroke="#000000" points="754.9462,-380.5 754.9462,-399.5 837.9462,-399.5 837.9462,-380.5 754.9462,-380.5"/>
<text text-anchor="middle" x="796.4462" y="-387.5" font-family="Helvetica,sans-Serif" font-size="10.00" fill="#000000">AdvOp_MOL.H</text>
</g>
<!-- Node1 -->
<g id="node2" class="node">
<title>Node1</title>
<polygon fill="#ffffff" stroke="#bfbfbf" points="348.4462,-319 348.4462,-338 410.4462,-338 410.4462,-319 348.4462,-319"/>
<text text-anchor="middle" x="379.4462" y="-326" font-family="Helvetica,sans-Serif" font-size="10.00" fill="#000000">type_traits</text>
</g>
<!-- Node0&#45;&gt;Node1 -->
<g id="edge1" class="edge">
<title>Node0&#45;&gt;Node1</title>
<path fill="none" stroke="#191970" d="M754.6874,-388.1579C684.6641,-384.3465 539.5351,-373.3436 420.4462,-344 417.4399,-343.2592 414.3536,-342.3624 411.2885,-341.3778"/>
<polygon fill="#191970" stroke="#191970" points="412.2898,-338.0201 401.695,-338.0176 409.9758,-344.6266 412.2898,-338.0201"/>
</g>
<!-- Node2 -->
<g id="node3" class="node">
<title>Node2</title>
<g id="a_node3"><a xlink:href="_m_o_l_8_h.html" target="_top" xlink:title="amr&#45;wind/convection\l/MOL.H">
<polygon fill="#ffffff" stroke="#000000" points="742.9462,-313.5 742.9462,-343.5 849.9462,-343.5 849.9462,-313.5 742.9462,-313.5"/>
<text text-anchor="start" x="750.9462" y="-331.5" font-family="Helvetica,sans-Serif" font-size="10.00" fill="#000000">amr&#45;wind/convection</text>
<text text-anchor="middle" x="796.4462" y="-320.5" font-family="Helvetica,sans-Serif" font-size="10.00" fill="#000000">/MOL.H</text>
</a>
</g>
</g>
<!-- Node0&#45;&gt;Node2 -->
<g id="edge2" class="edge">
<title>Node0&#45;&gt;Node2</title>
<path fill="none" stroke="#191970" d="M796.4462,-380.3906C796.4462,-373.2234 796.4462,-363.0862 796.4462,-353.671"/>
<polygon fill="#191970" stroke="#191970" points="799.9463,-353.5446 796.4462,-343.5446 792.9463,-353.5446 799.9463,-353.5446"/>
</g>
<!-- Node13 -->
<g id="node14" class="node">
<title>Node13</title>
<polygon fill="#ffffff" stroke="#bfbfbf" points="1308.9462,-56.5 1308.9462,-75.5 1393.9462,-75.5 1393.9462,-56.5 1308.9462,-56.5"/>
<text text-anchor="middle" x="1351.4462" y="-63.5" font-family="Helvetica,sans-Serif" font-size="10.00" fill="#000000">AMReX_Gpu.H</text>
</g>
<!-- Node0&#45;&gt;Node13 -->
<g id="edge107" class="edge">
<title>Node0&#45;&gt;Node13</title>
<path fill="none" stroke="#191970" d="M815.6865,-380.4901C829.7843,-372.5738 848.3281,-360.0219 859.4462,-344 920.4947,-256.0253 842.7164,-181.186 924.4462,-112 938.5703,-100.0437 1187.6441,-78.9628 1298.7212,-70.1035"/>
<polygon fill="#191970" stroke="#191970" points="1299.0179,-73.5911 1308.7094,-69.3102 1298.4636,-66.6131 1299.0179,-73.5911"/>
</g>
<!-- Node22 -->
<g id="node23" class="node">
<title>Node22</title>
<g id="a_node23"><a xlink:href="_scheme_traits_8_h.html" target="_top" xlink:title="amr&#45;wind/equation_systems\l/SchemeTraits.H">
<polygon fill="#ffffff" stroke="#000000" points="428.9462,-313.5 428.9462,-343.5 567.9462,-343.5 567.9462,-313.5 428.9462,-313.5"/>
<text text-anchor="start" x="436.9462" y="-331.5" font-family="Helvetica,sans-Serif" font-size="10.00" fill="#000000">amr&#45;wind/equation_systems</text>
<text text-anchor="middle" x="498.4462" y="-320.5" font-family="Helvetica,sans-Serif" font-size="10.00" fill="#000000">/SchemeTraits.H</text>
</a>
</g>
</g>
<!-- Node0&#45;&gt;Node22 -->
<g id="edge39" class="edge">
<title>Node0&#45;&gt;Node22</title>
<path fill="none" stroke="#191970" d="M754.6968,-381.3839C709.0615,-371.9659 634.8721,-356.655 578.0352,-344.9253"/>
<polygon fill="#191970" stroke="#191970" points="578.4962,-341.4467 567.9951,-342.8532 577.0813,-348.3022 578.4962,-341.4467"/>
</g>
<!-- Node23 -->
<g id="node24" class="node">
<title>Node23</title>
<g id="a_node24"><a xlink:href="_p_d_e_traits_8_h.html" target="_top" xlink:title="amr&#45;wind/equation_systems\l/PDETraits.H">
<polygon fill="#ffffff" stroke="#000000" points="585.9462,-313.5 585.9462,-343.5 724.9462,-343.5 724.9462,-313.5 585.9462,-313.5"/>
<text text-anchor="start" x="593.9462" y="-331.5" font-family="Helvetica,sans-Serif" font-size="10.00" fill="#000000">amr&#45;wind/equation_systems</text>
<text text-anchor="middle" x="655.4462" y="-320.5" font-family="Helvetica,sans-Serif" font-size="10.00" fill="#000000">/PDETraits.H</text>
</a>
</g>
</g>
<!-- Node0&#45;&gt;Node23 -->
<g id="edge41" class="edge">
<title>Node0&#45;&gt;Node23</title>
<path fill="none" stroke="#191970" d="M774.415,-380.3906C754.3605,-371.6435 724.1644,-358.4728 699.2128,-347.5897"/>
<polygon fill="#191970" stroke="#191970" points="700.5041,-344.3345 689.9387,-343.5446 697.7055,-350.7507 700.5041,-344.3345"/>
</g>
<!-- Node30 -->
<g id="node31" class="node">
<title>Node30</title>
<g id="a_node31"><a xlink:href="_p_d_e_ops_8_h.html" target="_top" xlink:title="amr&#45;wind/equation_systems\l/PDEOps.H">
<polygon fill="#ffffff" stroke="#000000" points="1848.9462,-313.5 1848.9462,-343.5 1987.9462,-343.5 1987.9462,-313.5 1848.9462,-313.5"/>
<text text-anchor="start" x="1856.9462" y="-331.5" font-family="Helvetica,sans-Serif" font-size="10.00" fill="#000000">amr&#45;wind/equation_systems</text>
<text text-anchor="middle" x="1918.4462" y="-320.5" font-family="Helvetica,sans-Serif" font-size="10.00" fill="#000000">/PDEOps.H</text>
</a>
</g>
</g>
<!-- Node0&#45;&gt;Node30 -->
<g id="edge55" class="edge">
<title>Node0&#45;&gt;Node30</title>
<path fill="none" stroke="#191970" d="M838.0452,-387.7198C1003.6721,-378.6414 1617.9095,-344.9733 1838.7311,-332.8694"/>
<polygon fill="#191970" stroke="#191970" points="1839.1523,-336.3517 1848.9457,-332.3095 1838.7691,-329.3622 1839.1523,-336.3517"/>
</g>
<!-- Node50 -->
<g id="node50" class="node">
<title>Node50</title>
<polygon fill="#ffffff" stroke="#bfbfbf" points="2643.4462,-252 2643.4462,-271 2759.4462,-271 2759.4462,-252 2643.4462,-252"/>
<text text-anchor="middle" x="2701.4462" y="-259" font-family="Helvetica,sans-Serif" font-size="10.00" fill="#000000">AMReX_ParmParse.H</text>
</g>
<!-- Node0&#45;&gt;Node50 -->
<g id="edge108" class="edge">
<title>Node0&#45;&gt;Node50</title>
<path fill="none" stroke="#191970" d="M837.9874,-389.4218C991.838,-387.0653 1543.7447,-376.7005 1997.4462,-344 2279.1783,-323.6942 2350.5387,-321.6752 2629.4462,-277 2636.3172,-275.8994 2643.5207,-274.5663 2650.6049,-273.1492"/>
<polygon fill="#191970" stroke="#191970" points="2651.7625,-276.4839 2660.8459,-271.0303 2650.3441,-269.6291 2651.7625,-276.4839"/>
</g>
<!-- Node3 -->
<g id="node4" class="node">
<title>Node3</title>
<g id="a_node4"><a xlink:href="_field_repo_8_h.html" target="_top" xlink:title="amr&#45;wind/core/FieldRepo.H">
<polygon fill="#ffffff" stroke="#000000" points="608.4462,-185 608.4462,-204 744.4462,-204 744.4462,-185 608.4462,-185"/>
<text text-anchor="middle" x="676.4462" y="-192" font-family="Helvetica,sans-Serif" font-size="10.00" fill="#000000">amr&#45;wind/core/FieldRepo.H</text>
</a>
</g>
</g>
<!-- Node2&#45;&gt;Node3 -->
<g id="edge3" class="edge">
<title>Node2&#45;&gt;Node3</title>
<path fill="none" stroke="#191970" d="M791.6846,-313.3881C785.527,-295.6792 773.4144,-266.1934 755.4462,-246 741.7085,-230.561 722.3117,-217.8264 706.1763,-208.8828"/>
<polygon fill="#191970" stroke="#191970" points="707.5924,-205.6717 697.1204,-204.0632 704.3037,-211.851 707.5924,-205.6717"/>
</g>
<!-- Node4 -->
<g id="node5" class="node">
<title>Node4</title>
<polygon fill="#ffffff" stroke="#bfbfbf" points="462.9462,-.5 462.9462,-19.5 503.9462,-19.5 503.9462,-.5 462.9462,-.5"/>
<text text-anchor="middle" x="483.4462" y="-7.5" font-family="Helvetica,sans-Serif" font-size="10.00" fill="#000000">string</text>
</g>
<!-- Node3&#45;&gt;Node4 -->
<g id="edge4" class="edge">
<title>Node3&#45;&gt;Node4</title>
<path fill="none" stroke="#191970" d="M608.1281,-192.0462C501.4671,-187.2925 301.0064,-174.3851 237.4462,-143 200.2459,-124.631 188.0323,-114.4494 172.4462,-76 169.1069,-67.7622 166.6388,-62.7295 172.4462,-56 190.6296,-34.9293 377.2652,-18.2334 452.3803,-12.317"/>
<polygon fill="#191970" stroke="#191970" points="452.9209,-15.7857 462.6204,-11.5231 452.3797,-8.8066 452.9209,-15.7857"/>
</g>
<!-- Node5 -->
<g id="node6" class="node">
<title>Node5</title>
<polygon fill="#ffffff" stroke="#bfbfbf" points="2417.9462,-56.5 2417.9462,-75.5 2500.9462,-75.5 2500.9462,-56.5 2417.9462,-56.5"/>
<text text-anchor="middle" x="2459.4462" y="-63.5" font-family="Helvetica,sans-Serif" font-size="10.00" fill="#000000">unordered_map</text>
</g>
<!-- Node3&#45;&gt;Node5 -->
<g id="edge5" class="edge">
<title>Node3&#45;&gt;Node5</title>
<path fill="none" stroke="#191970" d="M675.5613,-184.9188C674.5239,-167.2314 675.2265,-129.6504 697.4462,-112 733.4701,-83.3842 2257.9983,-81.2081 2407.529,-75.3725"/>
<polygon fill="#191970" stroke="#191970" points="2408.0072,-78.8507 2417.7872,-74.7763 2407.6009,-71.8625 2408.0072,-78.8507"/>
</g>
<!-- Node6 -->
<g id="node7" class="node">
<title>Node6</title>
<g id="a_node7"><a xlink:href="_field_desc_types_8_h.html" target="_top" xlink:title="amr&#45;wind/core/FieldDescTypes.H">
<polygon fill="#ffffff" stroke="#000000" points="890.9462,-.5 890.9462,-19.5 1053.9462,-19.5 1053.9462,-.5 890.9462,-.5"/>
<text text-anchor="middle" x="972.4462" y="-7.5" font-family="Helvetica,sans-Serif" font-size="10.00" fill="#000000">amr&#45;wind/core/FieldDescTypes.H</text>
</a>
</g>
</g>
<!-- Node3&#45;&gt;Node6 -->
<g id="edge6" class="edge">
<title>Node3&#45;&gt;Node6</title>
<path fill="none" stroke="#191970" d="M608.2619,-188.9265C545.8768,-180.7065 467.1244,-160.6159 494.4462,-112 506.1721,-91.1351 563.8246,-63.8168 586.4462,-56 639.0433,-37.8254 784.0597,-23.9774 880.5963,-16.4238"/>
<polygon fill="#191970" stroke="#191970" points="880.9567,-19.9065 890.657,-15.6456 880.4168,-12.9273 880.9567,-19.9065"/>
</g>
<!-- Node7 -->
<g id="node8" class="node">
<title>Node7</title>
<g id="a_node8"><a xlink:href="_field_utils_8_h.html" target="_top" xlink:title="amr&#45;wind/core/FieldUtils.H">
<polygon fill="#ffffff" stroke="#000000" points="705.9462,-118 705.9462,-137 838.9462,-137 838.9462,-118 705.9462,-118"/>
<text text-anchor="middle" x="772.4462" y="-125" font-family="Helvetica,sans-Serif" font-size="10.00" fill="#000000">amr&#45;wind/core/FieldUtils.H</text>
</a>
</g>
</g>
<!-- Node3&#45;&gt;Node7 -->
<g id="edge7" class="edge">
<title>Node3&#45;&gt;Node7</title>
<path fill="none" stroke="#191970" d="M690.2007,-184.9005C705.8839,-173.9549 731.7446,-155.9064 750.282,-142.9688"/>
<polygon fill="#191970" stroke="#191970" points="752.52,-145.675 758.7173,-137.0817 748.5138,-139.9347 752.52,-145.675"/>
</g>
<!-- Node8 -->
<g id="node9" class="node">
<title>Node8</title>
<polygon fill="#ffffff" stroke="#bfbfbf" points="686.4462,-.5 686.4462,-19.5 790.4462,-19.5 790.4462,-.5 686.4462,-.5"/>
<text text-anchor="middle" x="738.4462" y="-7.5" font-family="Helvetica,sans-Serif" font-size="10.00" fill="#000000">AMReX_MultiFab.H</text>
</g>
<!-- Node3&#45;&gt;Node8 -->
<g id="edge37" class="edge">
<title>Node3&#45;&gt;Node8</title>
<path fill="none" stroke="#191970" d="M608.3213,-187.3209C552.3971,-179.8559 479.5708,-165.9788 461.4462,-143 452.9137,-132.1823 453.654,-123.3626 461.4462,-112 487.3631,-74.2082 612.2523,-39.4397 685.1841,-21.9137"/>
<polygon fill="#191970" stroke="#191970" points="686.1933,-25.2715 695.1146,-19.5566 684.5766,-18.4607 686.1933,-25.2715"/>
</g>
<!-- Node10 -->
<g id="node11" class="node">
<title>Node10</title>
<g id="a_node11"><a xlink:href="_field_8_h.html" target="_top" xlink:title="amr&#45;wind/core/Field.H">
<polygon fill="#ffffff" stroke="#000000" points="1362.9462,-118 1362.9462,-137 1475.9462,-137 1475.9462,-118 1362.9462,-118"/>
<text text-anchor="middle" x="1419.4462" y="-125" font-family="Helvetica,sans-Serif" font-size="10.00" fill="#000000">amr&#45;wind/core/Field.H</text>
</a>
</g>
</g>
<!-- Node3&#45;&gt;Node10 -->
<g id="edge11" class="edge">
<title>Node3&#45;&gt;Node10</title>
<path fill="none" stroke="#191970" d="M744.7295,-190.1871C860.6203,-182.5852 1103.1396,-165.4568 1307.4462,-143 1322.1109,-141.3881 1337.8182,-139.3867 1352.6921,-137.3635"/>
<polygon fill="#191970" stroke="#191970" points="1353.4056,-140.7982 1362.8331,-135.9638 1352.4485,-133.864 1353.4056,-140.7982"/>
</g>
<!-- Node17 -->
<g id="node18" class="node">
<title>Node17</title>
<g id="a_node18"><a xlink:href="_int_field_8_h.html" target="_top" xlink:title="amr&#45;wind/core/IntField.H">
<polygon fill="#ffffff" stroke="#000000" points="270.4462,-118 270.4462,-137 394.4462,-137 394.4462,-118 270.4462,-118"/>
<text text-anchor="middle" x="332.4462" y="-125" font-family="Helvetica,sans-Serif" font-size="10.00" fill="#000000">amr&#45;wind/core/IntField.H</text>
</a>
</g>
</g>
<!-- Node3&#45;&gt;Node17 -->
<g id="edge25" class="edge">
<title>Node3&#45;&gt;Node17</title>
<path fill="none" stroke="#191970" d="M627.5247,-184.9717C565.3312,-172.8584 458.052,-151.9639 391.4078,-138.9838"/>
<polygon fill="#191970" stroke="#191970" points="391.9618,-135.526 381.4771,-137.0496 390.6236,-142.3969 391.9618,-135.526"/>
</g>
<!-- Node18 -->
<g id="node19" class="node">
<title>Node18</title>
<polygon fill="#ffffff" stroke="#bfbfbf" points="180.9462,-56.5 180.9462,-75.5 287.9462,-75.5 287.9462,-56.5 180.9462,-56.5"/>
<text text-anchor="middle" x="234.4462" y="-63.5" font-family="Helvetica,sans-Serif" font-size="10.00" fill="#000000">AMReX_iMultiFab.H</text>
</g>
<!-- Node3&#45;&gt;Node18 -->
<g id="edge38" class="edge">
<title>Node3&#45;&gt;Node18</title>
<path fill="none" stroke="#191970" d="M608.0113,-189.9355C497.1278,-181.9629 287.8698,-164.3024 261.4462,-143 244.2664,-129.1498 237.9971,-103.644 235.7214,-85.796"/>
<polygon fill="#191970" stroke="#191970" points="239.1831,-85.2286 234.7432,-75.6089 232.2151,-85.8977 239.1831,-85.2286"/>
</g>
<!-- Node19 -->
<g id="node20" class="node">
<title>Node19</title>
<g id="a_node20"><a xlink:href="_scratch_field_8_h.html" target="_top" xlink:title="amr&#45;wind/core/ScratchField.H">
<polygon fill="#ffffff" stroke="#000000" points="503.4462,-118 503.4462,-137 649.4462,-137 649.4462,-118 503.4462,-118"/>
<text text-anchor="middle" x="576.4462" y="-125" font-family="Helvetica,sans-Serif" font-size="10.00" fill="#000000">amr&#45;wind/core/ScratchField.H</text>
</a>
</g>
</g>
<!-- Node3&#45;&gt;Node19 -->
<g id="edge29" class="edge">
<title>Node3&#45;&gt;Node19</title>
<path fill="none" stroke="#191970" d="M662.1187,-184.9005C645.7077,-173.9052 618.5987,-155.7422 599.2711,-142.7927"/>
<polygon fill="#191970" stroke="#191970" points="601.0031,-139.7402 590.7472,-137.0817 597.1068,-145.5556 601.0031,-139.7402"/>
</g>
<!-- Node21 -->
<g id="node22" class="node">
<title>Node21</title>
<polygon fill="#ffffff" stroke="#bfbfbf" points="933.4462,-118 933.4462,-137 1039.4462,-137 1039.4462,-118 933.4462,-118"/>
<text text-anchor="middle" x="986.4462" y="-125" font-family="Helvetica,sans-Serif" font-size="10.00" fill="#000000">AMReX_AmrCore.H</text>
</g>
<!-- Node3&#45;&gt;Node21 -->
<g id="edge36" class="edge">
<title>Node3&#45;&gt;Node21</title>
<path fill="none" stroke="#191970" d="M720.5324,-184.9717C776.1547,-172.9501 871.7937,-152.2797 931.9421,-139.2799"/>
<polygon fill="#191970" stroke="#191970" points="932.9753,-142.6375 942.0102,-137.1039 931.4965,-135.7955 932.9753,-142.6375"/>
</g>
<!-- Node7&#45;&gt;Node6 -->
<g id="edge8" class="edge">
<title>Node7&#45;&gt;Node6</title>
<path fill="none" stroke="#191970" d="M832.3816,-117.9712C896.6045,-107.1528 990.8175,-89.2844 1001.4462,-76 1013.0806,-61.4586 1001.393,-41.5239 989.5642,-27.3782"/>
<polygon fill="#191970" stroke="#191970" points="992.0452,-24.9026 982.7584,-19.8029 986.838,-29.5808 992.0452,-24.9026"/>
</g>
<!-- Node7&#45;&gt;Node8 -->
<g id="edge9" class="edge">
<title>Node7&#45;&gt;Node8</title>
<path fill="none" stroke="#191970" d="M734.4242,-117.9159C699.1834,-108.1727 650.5722,-92.2391 639.4462,-76 622.5504,-51.3393 656.3927,-33.469 689.0086,-22.5924"/>
<polygon fill="#191970" stroke="#191970" points="690.0956,-25.9195 698.5815,-19.576 687.9919,-19.2431 690.0956,-25.9195"/>
</g>
<!-- Node9 -->
<g id="node10" class="node">
<title>Node9</title>
<polygon fill="#ffffff" stroke="#bfbfbf" points="648.4462,-56.5 648.4462,-75.5 764.4462,-75.5 764.4462,-56.5 648.4462,-56.5"/>
<text text-anchor="middle" x="706.4462" y="-63.5" font-family="Helvetica,sans-Serif" font-size="10.00" fill="#000000">AMReX_Interpolater.H</text>
</g>
<!-- Node7&#45;&gt;Node9 -->
<g id="edge10" class="edge">
<title>Node7&#45;&gt;Node9</title>
<path fill="none" stroke="#191970" d="M762.1337,-117.8906C752.022,-108.4683 736.4021,-93.9134 724.2755,-82.6137"/>
<polygon fill="#191970" stroke="#191970" points="726.6063,-80.0015 716.9041,-75.7449 721.8342,-85.1228 726.6063,-80.0015"/>
</g>
<!-- Node10&#45;&gt;Node4 -->
<g id="edge12" class="edge">
<title>Node10&#45;&gt;Node4</title>
<path fill="none" stroke="#191970" d="M1380.2769,-117.9501C1346.6401,-109.0897 1297.2644,-94.4955 1256.4462,-76 1240.825,-68.9217 1239.8126,-61.1251 1223.4462,-56 1206.2538,-50.6163 652.903,-19.4529 514.5563,-11.7308"/>
<polygon fill="#191970" stroke="#191970" points="514.4279,-8.2183 504.2485,-11.156 514.0381,-15.2074 514.4279,-8.2183"/>
</g>
<!-- Node10&#45;&gt;Node5 -->
<g id="edge14" class="edge">
<title>Node10&#45;&gt;Node5</title>
<path fill="none" stroke="#191970" d="M1476.152,-123.8625C1527.8205,-120.5935 1606.2461,-115.7451 1674.4462,-112 1997.2252,-94.2751 2082.4911,-115.0905 2407.5941,-75.9171"/>
<polygon fill="#191970" stroke="#191970" points="2408.2713,-79.3606 2417.7762,-74.6801 2407.427,-72.4117 2408.2713,-79.3606"/>
</g>
<!-- Node10&#45;&gt;Node6 -->
<g id="edge19" class="edge">
<title>Node10&#45;&gt;Node6</title>
<path fill="none" stroke="#191970" d="M1420.473,-117.9172C1421.5508,-102.3542 1421.1072,-71.7438 1403.4462,-56 1348.8917,-7.3677 1154.5911,-26.5262 1064.4938,-19.9216"/>
<polygon fill="#191970" stroke="#191970" points="1064.569,-16.4144 1054.2971,-19.0101 1063.9457,-23.3866 1064.569,-16.4144"/>
</g>
<!-- Node10&#45;&gt;Node8 -->
<g id="edge15" class="edge">
<title>Node10&#45;&gt;Node8</title>
<path fill="none" stroke="#191970" d="M1397.022,-117.9394C1373.06,-107.6895 1333.9876,-90.8795 1300.4462,-76 1280.8106,-67.2893 1277.2184,-61.4725 1256.4462,-56 1213.3601,-44.6489 928.7142,-23.4516 800.6662,-14.3426"/>
<polygon fill="#191970" stroke="#191970" points="800.8381,-10.8461 790.6155,-13.6296 800.3427,-17.8286 800.8381,-10.8461"/>
</g>
<!-- Node11 -->
<g id="node12" class="node">
<title>Node11</title>
<polygon fill="#ffffff" stroke="#bfbfbf" points="1991.4462,-56.5 1991.4462,-75.5 2043.4462,-75.5 2043.4462,-56.5 1991.4462,-56.5"/>
<text text-anchor="middle" x="2017.4462" y="-63.5" font-family="Helvetica,sans-Serif" font-size="10.00" fill="#000000">memory</text>
</g>
<!-- Node10&#45;&gt;Node11 -->
<g id="edge13" class="edge">
<title>Node10&#45;&gt;Node11</title>
<path fill="none" stroke="#191970" d="M1476.0101,-123.678C1595.059,-115.42 1869.068,-95.2357 1981.1818,-75.8793"/>
<polygon fill="#191970" stroke="#191970" points="1981.9806,-79.2918 1991.1989,-74.0693 1980.7359,-72.4033 1981.9806,-79.2918"/>
</g>
<!-- Node12 -->
<g id="node13" class="node">
<title>Node12</title>
<polygon fill="#ffffff" stroke="#bfbfbf" points="1450.9462,-56.5 1450.9462,-75.5 1549.9462,-75.5 1549.9462,-56.5 1450.9462,-56.5"/>
<text text-anchor="middle" x="1500.4462" y="-63.5" font-family="Helvetica,sans-Serif" font-size="10.00" fill="#000000">AMReX_BCRec.H</text>
</g>
<!-- Node10&#45;&gt;Node12 -->
<g id="edge16" class="edge">
<title>Node10&#45;&gt;Node12</title>
<path fill="none" stroke="#191970" d="M1432.1025,-117.8906C1444.8231,-108.2324 1464.6466,-93.1812 1479.6747,-81.771"/>
<polygon fill="#191970" stroke="#191970" points="1482.0309,-84.3766 1487.8789,-75.5419 1477.7979,-78.8015 1482.0309,-84.3766"/>
</g>
<!-- Node10&#45;&gt;Node13 -->
<g id="edge17" class="edge">
<title>Node10&#45;&gt;Node13</title>
<path fill="none" stroke="#191970" d="M1408.8212,-117.8906C1398.4031,-108.4683 1382.3098,-93.9134 1369.8158,-82.6137"/>
<polygon fill="#191970" stroke="#191970" points="1371.9854,-79.8568 1362.221,-75.7449 1367.29,-85.0484 1371.9854,-79.8568"/>
</g>
<!-- Node14 -->
<g id="node15" class="node">
<title>Node14</title>
<g id="a_node15"><a xlink:href="incflo__enums_8_h.html" target="_top" xlink:title="amr&#45;wind/incflo_enums.H">
<polygon fill="#ffffff" stroke="#000000" points="1679.4462,-56.5 1679.4462,-75.5 1807.4462,-75.5 1807.4462,-56.5 1679.4462,-56.5"/>
<text text-anchor="middle" x="1743.4462" y="-63.5" font-family="Helvetica,sans-Serif" font-size="10.00" fill="#000000">amr&#45;wind/incflo_enums.H</text>
</a>
</g>
</g>
<!-- Node10&#45;&gt;Node14 -->
<g id="edge18" class="edge">
<title>Node10&#45;&gt;Node14</title>
<path fill="none" stroke="#191970" d="M1469.7157,-117.9581C1527.3831,-107.012 1621.8792,-89.0752 1683.374,-77.4026"/>
<polygon fill="#191970" stroke="#191970" points="1684.1535,-80.8172 1693.3254,-75.5137 1682.8481,-73.94 1684.1535,-80.8172"/>
</g>
<!-- Node15 -->
<g id="node16" class="node">
<title>Node15</title>
<g id="a_node16"><a xlink:href="_view_field_8_h.html" target="_top" xlink:title="amr&#45;wind/core/ViewField.H">
<polygon fill="#ffffff" stroke="#000000" points="858.4462,-56.5 858.4462,-75.5 992.4462,-75.5 992.4462,-56.5 858.4462,-56.5"/>
<text text-anchor="middle" x="925.4462" y="-63.5" font-family="Helvetica,sans-Serif" font-size="10.00" fill="#000000">amr&#45;wind/core/ViewField.H</text>
</a>
</g>
</g>
<!-- Node10&#45;&gt;Node15 -->
<g id="edge20" class="edge">
<title>Node10&#45;&gt;Node15</title>
<path fill="none" stroke="#191970" d="M1362.7824,-119.4599C1345.0704,-117 1325.4536,-114.3301 1307.4462,-112 1202.0441,-98.3614 1080.1022,-83.9073 1002.8938,-74.9195"/>
<polygon fill="#191970" stroke="#191970" points="1003.1077,-71.4209 992.7703,-73.7425 1002.2992,-78.3741 1003.1077,-71.4209"/>
</g>
<!-- Node15&#45;&gt;Node4 -->
<g id="edge21" class="edge">
<title>Node15&#45;&gt;Node4</title>
<path fill="none" stroke="#191970" d="M858.3159,-57.4948C761.1494,-45.1841 585.2022,-22.8922 514.2943,-13.9084"/>
<polygon fill="#191970" stroke="#191970" points="514.5902,-10.4179 504.2295,-12.6332 513.7103,-17.3624 514.5902,-10.4179"/>
</g>
<!-- Node15&#45;&gt;Node6 -->
<g id="edge22" class="edge">
<title>Node15&#45;&gt;Node6</title>
<path fill="none" stroke="#191970" d="M933.633,-56.2455C940.3051,-48.2958 949.8942,-36.8706 957.8715,-27.3656"/>
<polygon fill="#191970" stroke="#191970" points="960.6054,-29.5525 964.3533,-19.6427 955.2436,-25.0524 960.6054,-29.5525"/>
</g>
<!-- Node15&#45;&gt;Node8 -->
<g id="edge23" class="edge">
<title>Node15&#45;&gt;Node8</title>
<path fill="none" stroke="#191970" d="M893.2998,-56.3733C861.9353,-46.9807 814.0797,-32.6496 779.8746,-22.4064"/>
<polygon fill="#191970" stroke="#191970" points="780.757,-19.0171 770.1732,-19.5011 778.7488,-25.7229 780.757,-19.0171"/>
</g>
<!-- Node16 -->
<g id="node17" class="node">
<title>Node16</title>
<polygon fill="#ffffff" stroke="#bfbfbf" points="1071.9462,-.5 1071.9462,-19.5 1166.9462,-19.5 1166.9462,-.5 1071.9462,-.5"/>
<text text-anchor="middle" x="1119.4462" y="-7.5" font-family="Helvetica,sans-Serif" font-size="10.00" fill="#000000">AMReX_Vector.H</text>
</g>
<!-- Node15&#45;&gt;Node16 -->
<g id="edge24" class="edge">
<title>Node15&#45;&gt;Node16</title>
<path fill="none" stroke="#191970" d="M958.796,-56.3733C991.4742,-46.9404 1041.408,-32.5265 1076.9232,-22.2747"/>
<polygon fill="#191970" stroke="#191970" points="1077.8946,-25.6373 1086.5316,-19.5011 1075.9532,-18.9119 1077.8946,-25.6373"/>
</g>
<!-- Node17&#45;&gt;Node4 -->
<g id="edge26" class="edge">
<title>Node17&#45;&gt;Node4</title>
<path fill="none" stroke="#191970" d="M344.8032,-117.8845C370.6851,-97.7446 430.8276,-50.945 462.7233,-26.1255"/>
<polygon fill="#191970" stroke="#191970" points="465.1758,-28.6519 470.9185,-19.7484 460.8769,-23.1274 465.1758,-28.6519"/>
</g>
<!-- Node17&#45;&gt;Node6 -->
<g id="edge27" class="edge">
<title>Node17&#45;&gt;Node6</title>
<path fill="none" stroke="#191970" d="M353.6116,-117.9161C389.2851,-102.2089 464.0048,-71.2151 530.4462,-56 594.8956,-41.2411 771.178,-25.6248 880.6522,-16.9153"/>
<polygon fill="#191970" stroke="#191970" points="881.0115,-20.3979 890.7043,-16.12 880.4593,-13.4197 881.0115,-20.3979"/>
</g>
<!-- Node17&#45;&gt;Node18 -->
<g id="edge28" class="edge">
<title>Node17&#45;&gt;Node18</title>
<path fill="none" stroke="#191970" d="M317.1337,-117.8906C301.3838,-108.0067 276.6339,-92.4749 258.3125,-80.9773"/>
<polygon fill="#191970" stroke="#191970" points="259.9819,-77.8929 249.6512,-75.5419 256.261,-83.8221 259.9819,-77.8929"/>
</g>
<!-- Node19&#45;&gt;Node4 -->
<g id="edge30" class="edge">
<title>Node19&#45;&gt;Node4</title>
<path fill="none" stroke="#191970" d="M519.8027,-117.986C495.3915,-110.7724 469.1243,-98.1283 454.4462,-76 444.3629,-60.7986 455.1613,-41.5132 466.3325,-27.7215"/>
<polygon fill="#191970" stroke="#191970" points="469.2,-29.7596 473.1529,-19.9298 463.9328,-25.149 469.2,-29.7596"/>
</g>
<!-- Node19&#45;&gt;Node6 -->
<g id="edge31" class="edge">
<title>Node19&#45;&gt;Node6</title>
<path fill="none" stroke="#191970" d="M577.4752,-117.7814C579.7027,-102.0233 586.5025,-71.1386 606.4462,-56 627.899,-39.716 779.1988,-24.97 880.4321,-16.7722"/>
<polygon fill="#191970" stroke="#191970" points="880.9894,-20.2388 890.6778,-15.951 880.4301,-13.2612 880.9894,-20.2388"/>
</g>
<!-- Node19&#45;&gt;Node8 -->
<g id="edge33" class="edge">
<title>Node19&#45;&gt;Node8</title>
<path fill="none" stroke="#191970" d="M581.5059,-117.8962C589.8634,-102.8502 607.8928,-73.6234 630.4462,-56 649.3001,-41.2675 673.5762,-30.3729 694.3355,-22.8948"/>
<polygon fill="#191970" stroke="#191970" points="695.5857,-26.166 703.8984,-19.5972 693.3037,-19.5484 695.5857,-26.166"/>
</g>
<!-- Node19&#45;&gt;Node15 -->
<g id="edge32" class="edge">
<title>Node19&#45;&gt;Node15</title>
<path fill="none" stroke="#191970" d="M629.8139,-117.9701C640.9281,-115.9916 652.5688,-113.9239 663.4462,-112 730.8412,-100.0801 808.0093,-86.5453 861.0493,-77.2599"/>
<polygon fill="#191970" stroke="#191970" points="861.7479,-80.691 870.9947,-75.5192 860.541,-73.7958 861.7479,-80.691"/>
</g>
<!-- Node19&#45;&gt;Node16 -->
<g id="edge34" class="edge">
<title>Node19&#45;&gt;Node16</title>
<path fill="none" stroke="#191970" d="M581.6875,-117.7505C590.9357,-101.6538 611.8155,-69.9177 639.4462,-56 721.2597,-14.7902 954.4871,-31.2055 1061.8463,-19.9847"/>
<polygon fill="#191970" stroke="#191970" points="1062.3112,-23.4542 1071.8337,-18.8096 1061.4932,-16.5021 1062.3112,-23.4542"/>
</g>
<!-- Node20 -->
<g id="node21" class="node">
<title>Node20</title>
<polygon fill="#ffffff" stroke="#bfbfbf" points="1086.4462,-56.5 1086.4462,-75.5 1214.4462,-75.5 1214.4462,-56.5 1086.4462,-56.5"/>
<text text-anchor="middle" x="1150.4462" y="-63.5" font-family="Helvetica,sans-Serif" font-size="10.00" fill="#000000">AMReX_PhysBCFunct.H</text>
</g>
<!-- Node19&#45;&gt;Node20 -->
<g id="edge35" class="edge">
<title>Node19&#45;&gt;Node20</title>
<path fill="none" stroke="#191970" d="M626.0233,-117.9415C638.228,-115.7891 651.2847,-113.6549 663.4462,-112 809.1842,-92.1688 980.6232,-78.1167 1076.2871,-71.1007"/>
<polygon fill="#191970" stroke="#191970" points="1076.7181,-74.5787 1086.4375,-70.3619 1076.2098,-67.5972 1076.7181,-74.5787"/>
</g>
<!-- Node22&#45;&gt;Node4 -->
<g id="edge40" class="edge">
<title>Node22&#45;&gt;Node4</title>
<path fill="none" stroke="#191970" d="M428.7256,-314.4169C425.5941,-313.9118 422.49,-313.4361 419.4462,-313 332.1957,-300.4984 92.4646,-333.0574 24.4462,-277 -5.0222,-252.7135 .4462,-232.6867 .4462,-194.5 .4462,-194.5 .4462,-194.5 .4462,-127.5 .4462,-93.9798 -1.7564,-76.9052 24.4462,-56 57.898,-29.3112 355.4502,-15.1224 452.783,-11.165"/>
<polygon fill="#191970" stroke="#191970" points="453.0081,-14.6589 462.8606,-10.7629 452.729,-7.6644 453.0081,-14.6589"/>
</g>
<!-- Node23&#45;&gt;Node4 -->
<g id="edge42" class="edge">
<title>Node23&#45;&gt;Node4</title>
<path fill="none" stroke="#191970" d="M585.8679,-314.2978C424.5067,-281.2438 38.4462,-201.4366 38.4462,-194.5 38.4462,-194.5 38.4462,-194.5 38.4462,-127.5 38.4462,-41.6348 352.0848,-17.1272 452.7458,-11.4728"/>
<polygon fill="#191970" stroke="#191970" points="453.078,-14.9601 462.8754,-10.9278 452.7018,-7.9702 453.078,-14.9601"/>
</g>
<!-- Node24 -->
<g id="node25" class="node">
<title>Node24</title>
<polygon fill="#ffffff" stroke="#bfbfbf" points="465.9462,-252 465.9462,-271 588.9462,-271 588.9462,-252 465.9462,-252"/>
<text text-anchor="middle" x="527.4462" y="-259" font-family="Helvetica,sans-Serif" font-size="10.00" fill="#000000">AMReX_MLTensorOp.H</text>
</g>
<!-- Node23&#45;&gt;Node24 -->
<g id="edge43" class="edge">
<title>Node23&#45;&gt;Node24</title>
<path fill="none" stroke="#191970" d="M626.7205,-313.4639C605.2438,-302.2222 576.06,-286.9463 554.8968,-275.8686"/>
<polygon fill="#191970" stroke="#191970" points="556.2768,-272.6406 545.794,-271.1039 553.0306,-278.8423 556.2768,-272.6406"/>
</g>
<!-- Node25 -->
<g id="node26" class="node">
<title>Node25</title>
<g id="a_node26"><a xlink:href="_source_term_8_h.html" target="_top" xlink:title="amr&#45;wind/equation_systems\l/SourceTerm.H">
<polygon fill="#ffffff" stroke="#000000" points="606.9462,-246.5 606.9462,-276.5 745.9462,-276.5 745.9462,-246.5 606.9462,-246.5"/>
<text text-anchor="start" x="614.9462" y="-264.5" font-family="Helvetica,sans-Serif" font-size="10.00" fill="#000000">amr&#45;wind/equation_systems</text>
<text text-anchor="middle" x="676.4462" y="-253.5" font-family="Helvetica,sans-Serif" font-size="10.00" fill="#000000">/SourceTerm.H</text>
</a>
</g>
</g>
<!-- Node23&#45;&gt;Node25 -->
<g id="edge44" class="edge">
<title>Node23&#45;&gt;Node25</title>
<path fill="none" stroke="#191970" d="M660.2115,-313.2967C662.7085,-305.3299 665.8297,-295.3718 668.6664,-286.3213"/>
<polygon fill="#191970" stroke="#191970" points="672.0487,-287.2323 671.6999,-276.6432 665.3691,-285.1386 672.0487,-287.2323"/>
</g>
<!-- Node25&#45;&gt;Node3 -->
<g id="edge53" class="edge">
<title>Node25&#45;&gt;Node3</title>
<path fill="none" stroke="#191970" d="M676.4462,-246.2967C676.4462,-236.7699 676.4462,-224.3954 676.4462,-214.1306"/>
<polygon fill="#191970" stroke="#191970" points="679.9463,-214.0549 676.4462,-204.055 672.9463,-214.055 679.9463,-214.0549"/>
</g>
<!-- Node25&#45;&gt;Node6 -->
<g id="edge51" class="edge">
<title>Node25&#45;&gt;Node6</title>
<path fill="none" stroke="#191970" d="M606.6547,-247.396C499.4392,-224.9438 300.0327,-179.8471 237.4462,-143 195.8526,-118.5122 139.3091,-91.0943 172.4462,-56 196.4001,-30.6313 764.6133,-22.0067 799.4462,-20 825.6964,-18.4877 854.1868,-16.8425 880.3282,-15.3314"/>
<polygon fill="#191970" stroke="#191970" points="880.8223,-18.8087 890.6036,-14.7373 880.4183,-11.8204 880.8223,-18.8087"/>
</g>
<!-- Node25&#45;&gt;Node7 -->
<g id="edge52" class="edge">
<title>Node25&#45;&gt;Node7</title>
<path fill="none" stroke="#191970" d="M710.0553,-246.3569C725.4695,-237.7838 742.671,-225.6215 753.4462,-210 766.3777,-191.2525 770.6157,-164.9746 771.9466,-147.1509"/>
<polygon fill="#191970" stroke="#191970" points="775.4475,-147.22 772.4576,-137.0558 768.4565,-146.8661 775.4475,-147.22"/>
</g>
<!-- Node25&#45;&gt;Node8 -->
<g id="edge54" class="edge">
<title>Node25&#45;&gt;Node8</title>
<path fill="none" stroke="#191970" d="M606.774,-247.2314C603.9656,-246.7906 601.1816,-246.3775 598.4462,-246 547.6601,-238.9916 173.2548,-247.6392 138.4462,-210 91.9751,-159.7499 91.9353,-106.2133 138.4462,-56 156.5261,-36.481 525.8465,-18.8953 675.8929,-12.5284"/>
<polygon fill="#191970" stroke="#191970" points="676.4657,-16.0074 686.3095,-12.0895 676.171,-9.0136 676.4657,-16.0074"/>
</g>
<!-- Node26 -->
<g id="node27" class="node">
<title>Node26</title>
<g id="a_node27"><a xlink:href="_factory_8_h.html" target="_top" xlink:title="amr&#45;wind/core/Factory.H">
<polygon fill="#ffffff" stroke="#000000" points="2473.9462,-118 2473.9462,-137 2598.9462,-137 2598.9462,-118 2473.9462,-118"/>
<text text-anchor="middle" x="2536.4462" y="-125" font-family="Helvetica,sans-Serif" font-size="10.00" fill="#000000">amr&#45;wind/core/Factory.H</text>
</a>
</g>
</g>
<!-- Node25&#45;&gt;Node26 -->
<g id="edge45" class="edge">
<title>Node25&#45;&gt;Node26</title>
<path fill="none" stroke="#191970" d="M746.2206,-260.0876C1043.5329,-253.9607 2192.9137,-229.1322 2267.4462,-210 2296.9024,-202.4387 2299.9466,-189.6119 2328.4462,-179 2356.3912,-168.5946 2430.9044,-151.0255 2482.7032,-139.3453"/>
<polygon fill="#191970" stroke="#191970" points="2483.7494,-142.6976 2492.7396,-137.0917 2482.2157,-135.8677 2483.7494,-142.6976"/>
</g>
<!-- Node26&#45;&gt;Node5 -->
<g id="edge47" class="edge">
<title>Node26&#45;&gt;Node5</title>
<path fill="none" stroke="#191970" d="M2524.415,-117.8906C2512.4356,-108.3227 2493.8296,-93.4621 2479.5938,-82.0919"/>
<polygon fill="#191970" stroke="#191970" points="2481.3909,-79.0479 2471.393,-75.5419 2477.0224,-84.5175 2481.3909,-79.0479"/>
</g>
<!-- Node26&#45;&gt;Node11 -->
<g id="edge46" class="edge">
<title>Node26&#45;&gt;Node11</title>
<path fill="none" stroke="#191970" d="M2496.6214,-117.9985C2486.1982,-115.7671 2474.9404,-113.5817 2464.4462,-112 2285.8853,-85.0863 2234.9759,-108.5449 2053.5564,-75.8885"/>
<polygon fill="#191970" stroke="#191970" points="2054.1585,-72.4406 2043.6914,-74.081 2052.8969,-79.326 2054.1585,-72.4406"/>
</g>
<!-- Node27 -->
<g id="node28" class="node">
<title>Node27</title>
<polygon fill="#ffffff" stroke="#bfbfbf" points="2345.4462,-56.5 2345.4462,-75.5 2399.4462,-75.5 2399.4462,-56.5 2345.4462,-56.5"/>
<text text-anchor="middle" x="2372.4462" y="-63.5" font-family="Helvetica,sans-Serif" font-size="10.00" fill="#000000">iostream</text>
</g>
<!-- Node26&#45;&gt;Node27 -->
<g id="edge48" class="edge">
<title>Node26&#45;&gt;Node27</title>
<path fill="none" stroke="#191970" d="M2510.8212,-117.8906C2483.02,-107.4652 2438.4618,-90.7559 2407.4468,-79.1252"/>
<polygon fill="#191970" stroke="#191970" points="2408.4835,-75.776 2397.8913,-75.5419 2406.0256,-82.3303 2408.4835,-75.776"/>
</g>
<!-- Node28 -->
<g id="node29" class="node">
<title>Node28</title>
<polygon fill="#ffffff" stroke="#bfbfbf" points="2518.9462,-56.5 2518.9462,-75.5 2605.9462,-75.5 2605.9462,-56.5 2518.9462,-56.5"/>
<text text-anchor="middle" x="2562.4462" y="-63.5" font-family="Helvetica,sans-Serif" font-size="10.00" fill="#000000">AMReX_Print.H</text>
</g>
<!-- Node26&#45;&gt;Node28 -->
<g id="edge49" class="edge">
<title>Node26&#45;&gt;Node28</title>
<path fill="none" stroke="#191970" d="M2540.5087,-117.8906C2544.1886,-109.1862 2549.7204,-96.1015 2554.3083,-85.2494"/>
<polygon fill="#191970" stroke="#191970" points="2557.6562,-86.3185 2558.3264,-75.7449 2551.2087,-83.5927 2557.6562,-86.3185"/>
</g>
<!-- Node29 -->
<g id="node30" class="node">
<title>Node29</title>
<polygon fill="#ffffff" stroke="#bfbfbf" points="2624.4462,-56.5 2624.4462,-75.5 2686.4462,-75.5 2686.4462,-56.5 2624.4462,-56.5"/>
<text text-anchor="middle" x="2655.4462" y="-63.5" font-family="Helvetica,sans-Serif" font-size="10.00" fill="#000000">AMReX.H</text>
</g>
<!-- Node26&#45;&gt;Node29 -->
<g id="edge50" class="edge">
<title>Node26&#45;&gt;Node29</title>
<path fill="none" stroke="#191970" d="M2555.04,-117.8906C2574.6015,-107.7811 2605.5963,-91.7628 2627.9771,-80.1962"/>
<polygon fill="#191970" stroke="#191970" points="2629.7062,-83.2425 2636.983,-75.5419 2626.4923,-77.0238 2629.7062,-83.2425"/>
</g>
<!-- Node30&#45;&gt;Node7 -->
<g id="edge56" class="edge">
<title>Node30&#45;&gt;Node7</title>
<path fill="none" stroke="#191970" d="M1848.7625,-326.7925C1641.1564,-320.7696 1030.2592,-295.9982 853.4462,-210 823.5275,-195.4481 798.3955,-165.1553 784.3939,-145.6051"/>
<polygon fill="#191970" stroke="#191970" points="787.1698,-143.4656 778.6043,-137.23 781.4118,-147.4462 787.1698,-143.4656"/>
</g>
<!-- Node31 -->
<g id="node32" class="node">
<title>Node31</title>
<g id="a_node32"><a xlink:href="_p_d_e_helpers_8_h.html" target="_top" xlink:title="amr&#45;wind/equation_systems\l/PDEHelpers.H">
<polygon fill="#ffffff" stroke="#000000" points="1627.9462,-246.5 1627.9462,-276.5 1766.9462,-276.5 1766.9462,-246.5 1627.9462,-246.5"/>
<text text-anchor="start" x="1635.9462" y="-264.5" font-family="Helvetica,sans-Serif" font-size="10.00" fill="#000000">amr&#45;wind/equation_systems</text>
<text text-anchor="middle" x="1697.4462" y="-253.5" font-family="Helvetica,sans-Serif" font-size="10.00" fill="#000000">/PDEHelpers.H</text>
</a>
</g>
</g>
<!-- Node30&#45;&gt;Node31 -->
<g id="edge57" class="edge">
<title>Node30&#45;&gt;Node31</title>
<path fill="none" stroke="#191970" d="M1868.8495,-313.4639C1835.6968,-303.4131 1791.9073,-290.1375 1756.8879,-279.5208"/>
<polygon fill="#191970" stroke="#191970" points="1757.8446,-276.1536 1747.2593,-276.6017 1755.8137,-282.8525 1757.8446,-276.1536"/>
</g>
<!-- Node43 -->
<g id="node44" class="node">
<title>Node43</title>
<g id="a_node44"><a xlink:href="_turbulence_model_8_h.html" target="_top" xlink:title="amr&#45;wind/turbulence\l/TurbulenceModel.H">
<polygon fill="#ffffff" stroke="#000000" points="2483.4462,-179.5 2483.4462,-209.5 2587.4462,-209.5 2587.4462,-179.5 2483.4462,-179.5"/>
<text text-anchor="start" x="2491.4462" y="-197.5" font-family="Helvetica,sans-Serif" font-size="10.00" fill="#000000">amr&#45;wind/turbulence</text>
<text text-anchor="middle" x="2535.4462" y="-186.5" font-family="Helvetica,sans-Serif" font-size="10.00" fill="#000000">/TurbulenceModel.H</text>
</a>
</g>
</g>
<!-- Node30&#45;&gt;Node43 -->
<g id="edge83" class="edge">
<title>Node30&#45;&gt;Node43</title>
<path fill="none" stroke="#191970" d="M1988.2718,-314.3998C2093.6427,-292.9392 2299.476,-250.3061 2473.4462,-210 2473.5476,-209.9765 2473.649,-209.953 2473.7505,-209.9295"/>
<polygon fill="#191970" stroke="#191970" points="2474.4547,-213.3595 2483.3826,-207.6548 2472.8458,-206.5469 2474.4547,-213.3595"/>
</g>
<!-- Node44 -->
<g id="node45" class="node">
<title>Node44</title>
<g id="a_node45"><a xlink:href="_i_o_manager_8_h.html" target="_top" xlink:title="amr&#45;wind/utilities\l/IOManager.H">
<polygon fill="#ffffff" stroke="#000000" points="2818.4462,-112.5 2818.4462,-142.5 2908.4462,-142.5 2908.4462,-112.5 2818.4462,-112.5"/>
<text text-anchor="start" x="2826.4462" y="-130.5" font-family="Helvetica,sans-Serif" font-size="10.00" fill="#000000">amr&#45;wind/utilities</text>
<text text-anchor="middle" x="2863.4462" y="-119.5" font-family="Helvetica,sans-Serif" font-size="10.00" fill="#000000">/IOManager.H</text>
</a>
</g>
</g>
<!-- Node30&#45;&gt;Node44 -->
<g id="edge87" class="edge">
<title>Node30&#45;&gt;Node44</title>
<path fill="none" stroke="#191970" d="M1988.2816,-313.9107C1990.0192,-313.5982 1991.7429,-313.2941 1993.4462,-313 2107.9699,-293.2287 2137.8114,-296.116 2252.4462,-277 2406.0865,-251.3796 2445.3746,-247.9353 2596.4462,-210 2671.5322,-191.1453 2756.7488,-163.7425 2810.2945,-145.7733"/>
<polygon fill="#191970" stroke="#191970" points="2811.5555,-149.0418 2819.9145,-142.532 2809.3204,-142.4082 2811.5555,-149.0418"/>
</g>
<!-- Node46 -->
<g id="node47" class="node">
<title>Node46</title>
<g id="a_node47"><a xlink:href="_c_f_d_sim_8_h.html" target="_top" xlink:title="amr&#45;wind/CFDSim.H">
<polygon fill="#ffffff" stroke="#000000" points="1864.4462,-252 1864.4462,-271 1972.4462,-271 1972.4462,-252 1864.4462,-252"/>
<text text-anchor="middle" x="1918.4462" y="-259" font-family="Helvetica,sans-Serif" font-size="10.00" fill="#000000">amr&#45;wind/CFDSim.H</text>
</a>
</g>
</g>
<!-- Node30&#45;&gt;Node46 -->
<g id="edge92" class="edge">
<title>Node30&#45;&gt;Node46</title>
<path fill="none" stroke="#191970" d="M1918.4462,-313.2967C1918.4462,-303.7699 1918.4462,-291.3954 1918.4462,-281.1306"/>
<polygon fill="#191970" stroke="#191970" points="1921.9463,-281.0549 1918.4462,-271.055 1914.9463,-281.055 1921.9463,-281.0549"/>
</g>
<!-- Node30&#45;&gt;Node50 -->
<g id="edge106" class="edge">
<title>Node30&#45;&gt;Node50</title>
<path fill="none" stroke="#191970" d="M1988.1764,-326.6798C2115.9384,-322.6288 2395.9074,-310.4288 2629.4462,-277 2636.8389,-275.9418 2644.6061,-274.5597 2652.1921,-273.0565"/>
<polygon fill="#191970" stroke="#191970" points="2652.9283,-276.4784 2662.0135,-271.0277 2651.5122,-269.6231 2652.9283,-276.4784"/>
</g>
<!-- Node31&#45;&gt;Node3 -->
<g id="edge65" class="edge">
<title>Node31&#45;&gt;Node3</title>
<path fill="none" stroke="#191970" d="M1627.9303,-257.8809C1483.5591,-250.2275 1140.7503,-231.3415 853.4462,-210 821.1101,-207.598 785.4864,-204.5552 754.727,-201.8029"/>
<polygon fill="#191970" stroke="#191970" points="754.7673,-198.2925 744.4938,-200.882 754.1398,-205.2643 754.7673,-198.2925"/>
</g>
<!-- Node31&#45;&gt;Node4 -->
<g id="edge58" class="edge">
<title>Node31&#45;&gt;Node4</title>
<path fill="none" stroke="#191970" d="M1627.9045,-259.386C1484.5227,-254.4641 1160.5909,-240.2813 1054.4462,-210 933.97,-175.6302 914.501,-139.4032 806.4462,-76 791.6546,-67.3207 789.5501,-61.8982 773.4462,-56 683.2107,-22.9503 568.6169,-13.6311 514.469,-11.0145"/>
<polygon fill="#191970" stroke="#191970" points="514.3097,-7.5042 504.1661,-10.5635 514.0035,-14.4976 514.3097,-7.5042"/>
</g>
<!-- Node32 -->
<g id="node33" class="node">
<title>Node32</title>
<g id="a_node33"><a xlink:href="_p_d_e_fields_8_h.html" target="_top" xlink:title="amr&#45;wind/equation_systems\l/PDEFields.H">
<polygon fill="#ffffff" stroke="#000000" points="2111.9462,-112.5 2111.9462,-142.5 2250.9462,-142.5 2250.9462,-112.5 2111.9462,-112.5"/>
<text text-anchor="start" x="2119.9462" y="-130.5" font-family="Helvetica,sans-Serif" font-size="10.00" fill="#000000">amr&#45;wind/equation_systems</text>
<text text-anchor="middle" x="2181.4462" y="-119.5" font-family="Helvetica,sans-Serif" font-size="10.00" fill="#000000">/PDEFields.H</text>
</a>
</g>
</g>
<!-- Node31&#45;&gt;Node32 -->
<g id="edge59" class="edge">
<title>Node31&#45;&gt;Node32</title>
<path fill="none" stroke="#191970" d="M1752.0263,-246.389C1842.0439,-221.4668 2021.2064,-171.8639 2117.1948,-145.2886"/>
<polygon fill="#191970" stroke="#191970" points="2118.362,-148.5972 2127.0656,-142.5558 2116.4942,-141.851 2118.362,-148.5972"/>
</g>
<!-- Node34 -->
<g id="node35" class="node">
<title>Node34</title>
<g id="a_node35"><a xlink:href="_sim_time_8_h.html" target="_top" xlink:title="amr&#45;wind/core/SimTime.H">
<polygon fill="#ffffff" stroke="#000000" points="1852.9462,-118 1852.9462,-137 1983.9462,-137 1983.9462,-118 1852.9462,-118"/>
<text text-anchor="middle" x="1918.4462" y="-125" font-family="Helvetica,sans-Serif" font-size="10.00" fill="#000000">amr&#45;wind/core/SimTime.H</text>
</a>
</g>
</g>
<!-- Node31&#45;&gt;Node34 -->
<g id="edge61" class="edge">
<title>Node31&#45;&gt;Node34</title>
<path fill="none" stroke="#191970" d="M1722.3681,-246.389C1765.0665,-220.4995 1851.6904,-167.9764 1894.0353,-142.3012"/>
<polygon fill="#191970" stroke="#191970" points="1895.8702,-145.2818 1902.6065,-137.1042 1892.2409,-139.2961 1895.8702,-145.2818"/>
</g>
<!-- Node38 -->
<g id="node39" class="node">
<title>Node38</title>
<g id="a_node39"><a xlink:href="_field_fill_patch_ops_8_h.html" target="_top" xlink:title="amr&#45;wind/core/FieldFillPatch\lOps.H">
<polygon fill="#ffffff" stroke="#000000" points="1130.4462,-179.5 1130.4462,-209.5 1270.4462,-209.5 1270.4462,-179.5 1130.4462,-179.5"/>
<text text-anchor="start" x="1138.4462" y="-197.5" font-family="Helvetica,sans-Serif" font-size="10.00" fill="#000000">amr&#45;wind/core/FieldFillPatch</text>
<text text-anchor="middle" x="1200.4462" y="-186.5" font-family="Helvetica,sans-Serif" font-size="10.00" fill="#000000">Ops.H</text>
</a>
</g>
</g>
<!-- Node31&#45;&gt;Node38 -->
<g id="edge66" class="edge">
<title>Node31&#45;&gt;Node38</title>
<path fill="none" stroke="#191970" d="M1627.8172,-252.1134C1536.6071,-239.8175 1377.0041,-218.3016 1280.7791,-205.3296"/>
<polygon fill="#191970" stroke="#191970" points="1281.185,-201.8527 1270.807,-203.9853 1280.2498,-208.79 1281.185,-201.8527"/>
</g>
<!-- Node40 -->
<g id="node41" class="node">
<title>Node40</title>
<g id="a_node41"><a xlink:href="_field_b_c_ops_8_h.html" target="_top" xlink:title="amr&#45;wind/core/FieldBCOps.H">
<polygon fill="#ffffff" stroke="#000000" points="1624.9462,-185 1624.9462,-204 1769.9462,-204 1769.9462,-185 1624.9462,-185"/>
<text text-anchor="middle" x="1697.4462" y="-192" font-family="Helvetica,sans-Serif" font-size="10.00" fill="#000000">amr&#45;wind/core/FieldBCOps.H</text>
</a>
</g>
</g>
<!-- Node31&#45;&gt;Node40 -->
<g id="edge76" class="edge">
<title>Node31&#45;&gt;Node40</title>
<path fill="none" stroke="#191970" d="M1697.4462,-246.2967C1697.4462,-236.7699 1697.4462,-224.3954 1697.4462,-214.1306"/>
<polygon fill="#191970" stroke="#191970" points="1700.9463,-214.0549 1697.4462,-204.055 1693.9463,-214.055 1700.9463,-214.0549"/>
</g>
<!-- Node33 -->
<g id="node34" class="node">
<title>Node33</title>
<polygon fill="#ffffff" stroke="#bfbfbf" points="2205.9462,-56.5 2205.9462,-75.5 2250.9462,-75.5 2250.9462,-56.5 2205.9462,-56.5"/>
<text text-anchor="middle" x="2228.4462" y="-63.5" font-family="Helvetica,sans-Serif" font-size="10.00" fill="#000000">iosfwd</text>
</g>
<!-- Node32&#45;&gt;Node33 -->
<g id="edge60" class="edge">
<title>Node32&#45;&gt;Node33</title>
<path fill="none" stroke="#191970" d="M2193.0642,-112.2977C2199.6563,-103.672 2207.9411,-92.8312 2214.8364,-83.8087"/>
<polygon fill="#191970" stroke="#191970" points="2217.6297,-85.9176 2220.9209,-75.8469 2212.0679,-81.6671 2217.6297,-85.9176"/>
</g>
<!-- Node35 -->
<g id="node36" class="node">
<title>Node35</title>
<polygon fill="#ffffff" stroke="#bfbfbf" points="1567.9462,-56.5 1567.9462,-75.5 1660.9462,-75.5 1660.9462,-56.5 1567.9462,-56.5"/>
<text text-anchor="middle" x="1614.4462" y="-63.5" font-family="Helvetica,sans-Serif" font-size="10.00" fill="#000000">AMReX_REAL.H</text>
</g>
<!-- Node34&#45;&gt;Node35 -->
<g id="edge62" class="edge">
<title>Node34&#45;&gt;Node35</title>
<path fill="none" stroke="#191970" d="M1871.2798,-117.9581C1817.3166,-107.0412 1728.9823,-89.171 1671.2731,-77.4962"/>
<polygon fill="#191970" stroke="#191970" points="1671.719,-74.0156 1661.2236,-75.4632 1670.331,-80.8766 1671.719,-74.0156"/>
</g>
<!-- Node36 -->
<g id="node37" class="node">
<title>Node36</title>
<polygon fill="#ffffff" stroke="#bfbfbf" points="2061.4462,-56.5 2061.4462,-75.5 2187.4462,-75.5 2187.4462,-56.5 2061.4462,-56.5"/>
<text text-anchor="middle" x="2124.4462" y="-63.5" font-family="Helvetica,sans-Serif" font-size="10.00" fill="#000000">AMReX_GpuQualifiers.H</text>
</g>
<!-- Node34&#45;&gt;Node36 -->
<g id="edge63" class="edge">
<title>Node34&#45;&gt;Node36</title>
<path fill="none" stroke="#191970" d="M1950.6337,-117.8906C1986.1595,-107.2846 2043.4688,-90.1753 2082.4904,-78.5257"/>
<polygon fill="#191970" stroke="#191970" points="2083.9039,-81.7564 2092.4848,-75.5419 2081.9014,-75.0489 2083.9039,-81.7564"/>
</g>
<!-- Node37 -->
<g id="node38" class="node">
<title>Node37</title>
<polygon fill="#ffffff" stroke="#bfbfbf" points="1863.4462,-56.5 1863.4462,-75.5 1973.4462,-75.5 1973.4462,-56.5 1863.4462,-56.5"/>
<text text-anchor="middle" x="1918.4462" y="-63.5" font-family="Helvetica,sans-Serif" font-size="10.00" fill="#000000">AMReX_Extension.H</text>
</g>
<!-- Node34&#45;&gt;Node37 -->
<g id="edge64" class="edge">
<title>Node34&#45;&gt;Node37</title>
<path fill="none" stroke="#191970" d="M1918.4462,-117.8906C1918.4462,-109.3657 1918.4462,-96.6392 1918.4462,-85.9235"/>
<polygon fill="#191970" stroke="#191970" points="1921.9463,-85.7448 1918.4462,-75.7449 1914.9463,-85.7449 1921.9463,-85.7448"/>
</g>
<!-- Node38&#45;&gt;Node6 -->
<g id="edge69" class="edge">
<title>Node38&#45;&gt;Node6</title>
<path fill="none" stroke="#191970" d="M1181.788,-179.4016C1139.313,-145.0304 1035.7284,-61.2086 992.2125,-25.9951"/>
<polygon fill="#191970" stroke="#191970" points="994.3215,-23.1993 984.3461,-19.6295 989.9181,-28.6408 994.3215,-23.1993"/>
</g>
<!-- Node38&#45;&gt;Node7 -->
<g id="edge70" class="edge">
<title>Node38&#45;&gt;Node7</title>
<path fill="none" stroke="#191970" d="M1130.25,-183.5113C1050.992,-171.1041 922.7525,-151.0293 843.2466,-138.5832"/>
<polygon fill="#191970" stroke="#191970" points="843.7413,-135.1181 833.3203,-137.0294 842.6587,-142.0339 843.7413,-135.1181"/>
</g>
<!-- Node38&#45;&gt;Node8 -->
<g id="edge72" class="edge">
<title>Node38&#45;&gt;Node8</title>
<path fill="none" stroke="#191970" d="M1167.6278,-179.4247C1146.9068,-169.6196 1119.746,-156.2361 1096.4462,-143 1074.3648,-130.456 1072.0658,-121.3302 1048.4462,-112 964.8519,-78.9787 933.6372,-107.469 849.4462,-76 815.8185,-63.4306 780.8311,-40.7636 759.3413,-25.5486"/>
<polygon fill="#191970" stroke="#191970" points="761.1596,-22.5447 751.0011,-19.5352 757.0657,-28.2227 761.1596,-22.5447"/>
</g>
<!-- Node38&#45;&gt;Node10 -->
<g id="edge67" class="edge">
<title>Node38&#45;&gt;Node10</title>
<path fill="none" stroke="#191970" d="M1249.5941,-179.4639C1288.441,-167.5792 1342.0255,-151.1858 1378.5529,-140.0108"/>
<polygon fill="#191970" stroke="#191970" points="1379.8382,-143.2777 1388.3767,-137.0053 1377.7903,-136.584 1379.8382,-143.2777"/>
</g>
<!-- Node38&#45;&gt;Node20 -->
<g id="edge74" class="edge">
<title>Node38&#45;&gt;Node20</title>
<path fill="none" stroke="#191970" d="M1189.6742,-179.3647C1183.0304,-169.4284 1174.7871,-155.9239 1169.4462,-143 1161.7446,-124.3635 1156.6366,-101.8498 1153.6753,-85.9944"/>
<polygon fill="#191970" stroke="#191970" points="1157.0592,-85.0259 1151.892,-75.7766 1150.1635,-86.2295 1157.0592,-85.0259"/>
</g>
<!-- Node38&#45;&gt;Node21 -->
<g id="edge71" class="edge">
<title>Node38&#45;&gt;Node21</title>
<path fill="none" stroke="#191970" d="M1152.4205,-179.4639C1114.4605,-167.5792 1062.0993,-151.1858 1026.4059,-140.0108"/>
<polygon fill="#191970" stroke="#191970" points="1027.3954,-136.6531 1016.8064,-137.0053 1025.3038,-143.3333 1027.3954,-136.6531"/>
</g>
<!-- Node38&#45;&gt;Node34 -->
<g id="edge68" class="edge">
<title>Node38&#45;&gt;Node34</title>
<path fill="none" stroke="#191970" d="M1270.8889,-189.684C1383.8448,-181.6961 1612.407,-164.4412 1805.4462,-143 1817.7144,-141.6374 1830.708,-140.0193 1843.3463,-138.351"/>
<polygon fill="#191970" stroke="#191970" points="1843.9384,-141.803 1853.3852,-137.0062 1843.009,-134.865 1843.9384,-141.803"/>
</g>
<!-- Node38&#45;&gt;Node35 -->
<g id="edge73" class="edge">
<title>Node38&#45;&gt;Node35</title>
<path fill="none" stroke="#191970" d="M1270.5377,-188.9009C1329.3969,-182.5492 1414.9369,-169.4156 1485.4462,-143 1526.5593,-127.5974 1569.379,-99.1594 1593.8858,-81.4877"/>
<polygon fill="#191970" stroke="#191970" points="1596.0499,-84.241 1602.049,-75.5082 1591.9134,-78.5939 1596.0499,-84.241"/>
</g>
<!-- Node39 -->
<g id="node40" class="node">
<title>Node39</title>
<polygon fill="#ffffff" stroke="#bfbfbf" points="1178.4462,-118 1178.4462,-137 1298.4462,-137 1298.4462,-118 1178.4462,-118"/>
<text text-anchor="middle" x="1238.4462" y="-125" font-family="Helvetica,sans-Serif" font-size="10.00" fill="#000000">AMReX_FillPatchUtil.H</text>
</g>
<!-- Node38&#45;&gt;Node39 -->
<g id="edge75" class="edge">
<title>Node38&#45;&gt;Node39</title>
<path fill="none" stroke="#191970" d="M1209.069,-179.2967C1214.7022,-169.3645 1222.0909,-156.3371 1228.0489,-145.8321"/>
<polygon fill="#191970" stroke="#191970" points="1231.138,-147.4801 1233.027,-137.055 1225.0491,-144.0266 1231.138,-147.4801"/>
</g>
<!-- Node40&#45;&gt;Node6 -->
<g id="edge77" class="edge">
<title>Node40&#45;&gt;Node6</title>
<path fill="none" stroke="#191970" d="M1689.8063,-184.7994C1677.7305,-168.2132 1657.2795,-134.0619 1674.4462,-112 1716.1081,-58.4579 1863.258,-105.1032 1816.4462,-56 1788.8175,-27.0188 1163.9082,-23.5536 1064.5387,-19.7608"/>
<polygon fill="#191970" stroke="#191970" points="1064.4428,-16.2513 1054.2763,-19.2332 1064.0833,-23.2421 1064.4428,-16.2513"/>
</g>
<!-- Node40&#45;&gt;Node10 -->
<g id="edge78" class="edge">
<title>Node40&#45;&gt;Node10</title>
<path fill="none" stroke="#191970" d="M1657.9108,-184.9717C1608.3395,-173.0246 1523.3255,-152.5357 1469.3307,-139.5225"/>
<polygon fill="#191970" stroke="#191970" points="1469.837,-136.0444 1459.2953,-137.1039 1468.1969,-142.8496 1469.837,-136.0444"/>
</g>
<!-- Node40&#45;&gt;Node13 -->
<g id="edge79" class="edge">
<title>Node40&#45;&gt;Node13</title>
<path fill="none" stroke="#191970" d="M1728.9208,-184.9776C1770.0574,-171.01 1833.7194,-143.2158 1805.4462,-112 1778.2373,-81.9592 1482.7578,-80.2137 1442.4462,-76 1430.0965,-74.7091 1416.8095,-73.2748 1404.3073,-71.9048"/>
<polygon fill="#191970" stroke="#191970" points="1404.3508,-68.3885 1394.0279,-70.7737 1403.5851,-75.3465 1404.3508,-68.3885"/>
</g>
<!-- Node40&#45;&gt;Node20 -->
<g id="edge82" class="edge">
<title>Node40&#45;&gt;Node20</title>
<path fill="none" stroke="#191970" d="M1624.639,-187.2923C1539.0106,-178.1667 1402.4497,-161.4012 1354.4462,-143 1331.0807,-134.0433 1330.1493,-122.5235 1307.4462,-112 1275.1494,-97.0295 1236.8453,-85.6919 1206.1572,-78.0182"/>
<polygon fill="#191970" stroke="#191970" points="1206.6062,-74.5252 1196.0616,-75.5563 1204.9477,-81.3259 1206.6062,-74.5252"/>
</g>
<!-- Node41 -->
<g id="node42" class="node">
<title>Node41</title>
<polygon fill="#ffffff" stroke="#bfbfbf" points="1682.9462,-118 1682.9462,-137 1795.9462,-137 1795.9462,-118 1682.9462,-118"/>
<text text-anchor="middle" x="1739.4462" y="-125" font-family="Helvetica,sans-Serif" font-size="10.00" fill="#000000">AMReX_FArrayBox.H</text>
</g>
<!-- Node40&#45;&gt;Node41 -->
<g id="edge80" class="edge">
<title>Node40&#45;&gt;Node41</title>
<path fill="none" stroke="#191970" d="M1703.4638,-184.9005C1709.8262,-174.751 1720.0171,-158.4941 1727.932,-145.8679"/>
<polygon fill="#191970" stroke="#191970" points="1731.0939,-147.4135 1733.4398,-137.0817 1725.1629,-143.6956 1731.0939,-147.4135"/>
</g>
<!-- Node42 -->
<g id="node43" class="node">
<title>Node42</title>
<polygon fill="#ffffff" stroke="#bfbfbf" points="2345.4462,-118 2345.4462,-137 2455.4462,-137 2455.4462,-118 2345.4462,-118"/>
<text text-anchor="middle" x="2400.4462" y="-125" font-family="Helvetica,sans-Serif" font-size="10.00" fill="#000000">AMReX_Geometry.H</text>
</g>
<!-- Node40&#45;&gt;Node42 -->
<g id="edge81" class="edge">
<title>Node40&#45;&gt;Node42</title>
<path fill="none" stroke="#191970" d="M1770.368,-188.2762C1877.7404,-179.0108 2084.67,-160.7683 2260.4462,-143 2284.8191,-140.5363 2311.5546,-137.6273 2335.0717,-134.9988"/>
<polygon fill="#191970" stroke="#191970" points="2335.7354,-138.4463 2345.2825,-133.8526 2334.9545,-131.49 2335.7354,-138.4463"/>
</g>
<!-- Node43&#45;&gt;Node5 -->
<g id="edge84" class="edge">
<title>Node43&#45;&gt;Node5</title>
<path fill="none" stroke="#191970" d="M2569.6355,-179.4711C2584.4021,-171.045 2600.1668,-158.9734 2608.4462,-143 2614.7865,-130.7678 2616.6264,-123.0866 2608.4462,-112 2602.2466,-103.5977 2549.404,-88.616 2508.3891,-78.0367"/>
<polygon fill="#191970" stroke="#191970" points="2509.0728,-74.599 2498.5177,-75.5157 2507.3407,-81.3813 2509.0728,-74.599"/>
</g>
<!-- Node43&#45;&gt;Node6 -->
<g id="edge86" class="edge">
<title>Node43&#45;&gt;Node6</title>
<path fill="none" stroke="#191970" d="M2587.6626,-179.92C2661.2486,-157.0165 2780.9449,-109.646 2728.4462,-56 2697.1331,-24.0025 1210.2475,-23.058 1064.2863,-19.6811"/>
<polygon fill="#191970" stroke="#191970" points="1064.384,-16.1825 1054.2689,-19.3344 1064.1419,-23.1783 1064.384,-16.1825"/>
</g>
<!-- Node43&#45;&gt;Node26 -->
<g id="edge85" class="edge">
<title>Node43&#45;&gt;Node26</title>
<path fill="none" stroke="#191970" d="M2535.6731,-179.2967C2535.8153,-169.7699 2536,-157.3954 2536.1532,-147.1306"/>
<polygon fill="#191970" stroke="#191970" points="2539.6539,-147.1061 2536.3036,-137.055 2532.6547,-147.0016 2539.6539,-147.1061"/>
</g>
<!-- Node44&#45;&gt;Node4 -->
<g id="edge88" class="edge">
<title>Node44&#45;&gt;Node4</title>
<path fill="none" stroke="#191970" d="M2836.8643,-112.3651C2804.6059,-94.9175 2747.9933,-67.2058 2695.4462,-56 2476.12,-9.2279 901.5694,-27.7733 677.4462,-20 619.9272,-18.0051 552.8849,-14.226 514.5765,-11.9281"/>
<polygon fill="#191970" stroke="#191970" points="514.302,-8.4051 504.1086,-11.294 513.8787,-15.3923 514.302,-8.4051"/>
</g>
<!-- Node44&#45;&gt;Node5 -->
<g id="edge89" class="edge">
<title>Node44&#45;&gt;Node5</title>
<path fill="none" stroke="#191970" d="M2818.0736,-120.0694C2801.8012,-117.4522 2783.311,-114.533 2766.4462,-112 2656.0412,-95.4176 2625.4659,-95.0675 2511.3557,-76.0783"/>
<polygon fill="#191970" stroke="#191970" points="2511.6024,-72.5708 2501.1613,-74.3695 2510.4451,-79.4745 2511.6024,-72.5708"/>
</g>
<!-- Node44&#45;&gt;Node16 -->
<g id="edge91" class="edge">
<title>Node44&#45;&gt;Node16</title>
<path fill="none" stroke="#191970" d="M2867.3175,-112.4664C2870.5401,-96.0461 2872.4806,-70.1972 2857.4462,-56 2826.2182,-26.5108 1475.8558,-13.0905 1177.4207,-10.4818"/>
<polygon fill="#191970" stroke="#191970" points="1177.2821,-6.9805 1167.2521,-10.3935 1177.2213,-13.9803 1177.2821,-6.9805"/>
</g>
<!-- Node45 -->
<g id="node46" class="node">
<title>Node45</title>
<polygon fill="#ffffff" stroke="#bfbfbf" points="2818.4462,-56.5 2818.4462,-75.5 2848.4462,-75.5 2848.4462,-56.5 2818.4462,-56.5"/>
<text text-anchor="middle" x="2833.4462" y="-63.5" font-family="Helvetica,sans-Serif" font-size="10.00" fill="#000000">set</text>
</g>
<!-- Node44&#45;&gt;Node45 -->
<g id="edge90" class="edge">
<title>Node44&#45;&gt;Node45</title>
<path fill="none" stroke="#191970" d="M2856.0305,-112.2977C2851.9963,-104.0277 2846.9689,-93.7215 2842.6823,-84.9339"/>
<polygon fill="#191970" stroke="#191970" points="2845.7796,-83.3001 2838.2496,-75.8469 2839.4882,-86.3691 2845.7796,-83.3001"/>
</g>
<!-- Node46&#45;&gt;Node3 -->
<g id="edge95" class="edge">
<title>Node46&#45;&gt;Node3</title>
<path fill="none" stroke="#191970" d="M1864.239,-254.786C1837.795,-251.7144 1805.4973,-248.2634 1776.4462,-246 1763.705,-245.0073 1004.2329,-209.7161 754.8411,-198.1382"/>
<polygon fill="#191970" stroke="#191970" points="754.9192,-194.6381 744.7677,-197.6705 754.5946,-201.6306 754.9192,-194.6381"/>
</g>
<!-- Node46&#45;&gt;Node21 -->
<g id="edge93" class="edge">
<title>Node46&#45;&gt;Node21</title>
<path fill="none" stroke="#191970" d="M1864.2307,-254.8896C1837.7848,-251.842 1805.4878,-248.3814 1776.4462,-246 1631.1586,-234.0866 1260.636,-253.3201 1121.4462,-210 1076.1674,-195.9078 1030.5613,-163.3015 1005.6623,-143.5619"/>
<polygon fill="#191970" stroke="#191970" points="1007.7303,-140.733 997.7533,-137.1677 1003.3294,-146.1766 1007.7303,-140.733"/>
</g>
<!-- Node46&#45;&gt;Node34 -->
<g id="edge94" class="edge">
<title>Node46&#45;&gt;Node34</title>
<path fill="none" stroke="#191970" d="M1918.4462,-251.8631C1918.4462,-230.0364 1918.4462,-176.4605 1918.4462,-147.2589"/>
<polygon fill="#191970" stroke="#191970" points="1921.9463,-147.0496 1918.4462,-137.0496 1914.9463,-147.0497 1921.9463,-147.0496"/>
</g>
<!-- Node47 -->
<g id="node48" class="node">
<title>Node47</title>
<g id="a_node48"><a xlink:href="_p_d_e_base_8_h.html" target="_top" xlink:title="amr&#45;wind/equation_systems\l/PDEBase.H">
<polygon fill="#ffffff" stroke="#ff0000" points="2118.9462,-179.5 2118.9462,-209.5 2257.9462,-209.5 2257.9462,-179.5 2118.9462,-179.5"/>
<text text-anchor="start" x="2126.9462" y="-197.5" font-family="Helvetica,sans-Serif" font-size="10.00" fill="#000000">amr&#45;wind/equation_systems</text>
<text text-anchor="middle" x="2188.4462" y="-186.5" font-family="Helvetica,sans-Serif" font-size="10.00" fill="#000000">/PDEBase.H</text>
</a>
</g>
</g>
<!-- Node46&#45;&gt;Node47 -->
<g id="edge96" class="edge">
<title>Node46&#45;&gt;Node47</title>
<path fill="none" stroke="#191970" d="M1956.8439,-251.9717C1998.6971,-241.5859 2066.564,-224.7449 2118.0386,-211.9715"/>
<polygon fill="#191970" stroke="#191970" points="2118.9128,-215.3608 2127.7754,-209.5553 2117.2268,-208.5669 2118.9128,-215.3608"/>
</g>
<!-- Node49 -->
<g id="node49" class="node">
<title>Node49</title>
<g id="a_node49"><a xlink:href="_physics_8_h.html" target="_top" xlink:title="amr&#45;wind/core/Physics.H">
<polygon fill="#ffffff" stroke="#ff0000" points="2336.9462,-185 2336.9462,-204 2463.9462,-204 2463.9462,-185 2336.9462,-185"/>
<text text-anchor="middle" x="2400.4462" y="-192" font-family="Helvetica,sans-Serif" font-size="10.00" fill="#000000">amr&#45;wind/core/Physics.H</text>
</a>
</g>
</g>
<!-- Node46&#45;&gt;Node49 -->
<g id="edge102" class="edge">
<title>Node46&#45;&gt;Node49</title>
<path fill="none" stroke="#191970" d="M1972.4717,-254.9832C2047.8318,-245.7523 2188.7345,-227.9826 2308.4462,-210 2317.3861,-208.6571 2326.8007,-207.163 2336.0582,-205.6475"/>
<polygon fill="#191970" stroke="#191970" points="2336.7175,-209.0861 2346.0121,-204.0007 2335.5749,-202.1799 2336.7175,-209.0861"/>
</g>
<!-- Node47&#45;&gt;Node4 -->
<g id="edge97" class="edge">
<title>Node47&#45;&gt;Node4</title>
<path fill="none" stroke="#191970" d="M2222.1795,-179.3642C2236.7464,-170.9147 2252.2939,-158.8543 2260.4462,-143 2278.1281,-108.613 2287.4751,-83.6505 2260.4462,-56 2229.7007,-24.5473 721.3995,-21.6323 677.4462,-20 619.9322,-17.8641 552.8883,-14.1321 514.5781,-11.8811"/>
<polygon fill="#191970" stroke="#191970" points="514.2994,-8.3585 504.1098,-11.2607 513.8852,-15.3462 514.2994,-8.3585"/>
</g>
<!-- Node47&#45;&gt;Node6 -->
<g id="edge100" class="edge">
<title>Node47&#45;&gt;Node6</title>
<path fill="none" stroke="#191970" d="M2246.4852,-179.3962C2264.7014,-171.6248 2282.8133,-160.0582 2293.4462,-143 2313.9001,-110.1861 2320.3848,-83.7385 2293.4462,-56 2247.3073,-8.4909 1200.2388,-23.6916 1064.498,-19.7489"/>
<polygon fill="#191970" stroke="#191970" points="1064.4134,-16.242 1054.2709,-19.3048 1064.1097,-23.2354 1064.4134,-16.242"/>
</g>
<!-- Node47&#45;&gt;Node14 -->
<g id="edge101" class="edge">
<title>Node47&#45;&gt;Node14</title>
<path fill="none" stroke="#191970" d="M2158.4737,-179.3823C2120.8281,-160.9703 2053.8362,-130.0937 1993.4462,-112 1935.5055,-94.6402 1867.9473,-82.6835 1817.6773,-75.3203"/>
<polygon fill="#191970" stroke="#191970" points="1817.9387,-71.822 1807.5425,-73.8637 1816.9428,-78.7508 1817.9387,-71.822"/>
</g>
<!-- Node47&#45;&gt;Node26 -->
<g id="edge98" class="edge">
<title>Node47&#45;&gt;Node26</title>
<path fill="none" stroke="#191970" d="M2258.0241,-182.0652C2313.8936,-171.9483 2394.3161,-157.0889 2464.4462,-143 2470.534,-141.777 2476.903,-140.4602 2483.2275,-139.1293"/>
<polygon fill="#191970" stroke="#191970" points="2484.0272,-142.5376 2493.0825,-137.0375 2482.5737,-135.6901 2484.0272,-142.5376"/>
</g>
<!-- Node47&#45;&gt;Node32 -->
<g id="edge99" class="edge">
<title>Node47&#45;&gt;Node32</title>
<path fill="none" stroke="#191970" d="M2186.8578,-179.2967C2186.0344,-171.4156 2185.0074,-161.5857 2184.07,-152.6135"/>
<polygon fill="#191970" stroke="#191970" points="2187.5486,-152.2253 2183.0283,-142.6432 2180.5865,-152.9528 2187.5486,-152.2253"/>
</g>
<!-- Node49&#45;&gt;Node8 -->
<g id="edge104" class="edge">
<title>Node49&#45;&gt;Node8</title>
<path fill="none" stroke="#191970" d="M2442.9313,-184.9657C2499.3323,-172.1574 2593.5778,-150.1728 2608.4462,-143 2657.6976,-119.2403 2733.7272,-95.0486 2695.4462,-56 2660.1839,-20.0305 932.7672,-22.2455 882.4462,-20 855.7118,-18.807 826.2247,-16.8693 800.9333,-15.0157"/>
<polygon fill="#191970" stroke="#191970" points="800.969,-11.5088 790.7367,-14.2565 800.4492,-18.4894 800.969,-11.5088"/>
</g>
<!-- Node49&#45;&gt;Node26 -->
<g id="edge103" class="edge">
<title>Node49&#45;&gt;Node26</title>
<path fill="none" stroke="#191970" d="M2419.9317,-184.9005C2442.9576,-173.5569 2481.469,-154.5844 2507.8695,-141.5783"/>
<polygon fill="#191970" stroke="#191970" points="2509.5731,-144.6407 2516.9969,-137.0817 2506.4796,-138.3613 2509.5731,-144.6407"/>
</g>
<!-- Node49&#45;&gt;Node42 -->
<g id="edge105" class="edge">
<title>Node49&#45;&gt;Node42</title>
<path fill="none" stroke="#191970" d="M2400.4462,-184.9005C2400.4462,-175.149 2400.4462,-159.7597 2400.4462,-147.3695"/>
<polygon fill="#191970" stroke="#191970" points="2403.9463,-147.0816 2400.4462,-137.0817 2396.9463,-147.0817 2403.9463,-147.0816"/>
</g>
</g>
</svg>
