<?xml version="1.0" encoding="UTF-8" standalone="no"?>
<!DOCTYPE svg PUBLIC "-//W3C//DTD SVG 1.1//EN"
 "http://www.w3.org/Graphics/SVG/1.1/DTD/svg11.dtd">
<!-- Generated by graphviz version 2.40.1 (20161225.0304)
 -->
<!-- Title: AdvOp_MOL.H Pages: 1 -->
<svg width="610pt" height="140pt"
 viewBox="0.00 0.00 610.00 140.00" xmlns="http://www.w3.org/2000/svg" xmlns:xlink="http://www.w3.org/1999/xlink">
<g id="graph0" class="graph" transform="scale(1 1) rotate(0) translate(4 136)">
<title>AdvOp_MOL.H</title>
<polygon fill="#ffffff" stroke="transparent" points="-4,4 -4,-136 606,-136 606,4 -4,4"/>
<!-- Node51 -->
<g id="node1" class="node">
<title>Node51</title>
<polygon fill="#bfbfbf" stroke="#000000" points="273,-112.5 273,-131.5 356,-131.5 356,-112.5 273,-112.5"/>
<text text-anchor="middle" x="314.5" y="-119.5" font-family="Helvetica,sans-Serif" font-size="10.00" fill="#000000">AdvOp_MOL.H</text>
</g>
<!-- Node52 -->
<g id="node2" class="node">
<title>Node52</title>
<g id="a_node2"><a xlink:href="density_8cpp.html" target="_top" xlink:title="density.cpp">
<polygon fill="#ffffff" stroke="#000000" points="0,-56.5 0,-75.5 67,-75.5 67,-56.5 0,-56.5"/>
<text text-anchor="middle" x="33.5" y="-63.5" font-family="Helvetica,sans-Serif" font-size="10.00" fill="#000000">density.cpp</text>
</a>
</g>
</g>
<!-- Node51&#45;&gt;Node52 -->
<g id="edge1" class="edge">
<title>Node51&#45;&gt;Node52</title>
<path fill="none" stroke="#191970" d="M262.8007,-112.587C214.5144,-103.6583 140.4838,-89.6183 76.5,-76 73.5014,-75.3618 70.39,-74.6789 67.2743,-73.9808"/>
<polygon fill="#191970" stroke="#191970" points="262.2318,-116.0411 272.7008,-114.4128 263.5014,-109.1572 262.2318,-116.0411"/>
</g>
<!-- Node53 -->
<g id="node3" class="node">
<title>Node53</title>
<g id="a_node3"><a xlink:href="icns__ops_8_h.html" target="_top" xlink:title="icns_ops.H">
<polygon fill="#ffffff" stroke="#000000" points="85.5,-56.5 85.5,-75.5 151.5,-75.5 151.5,-56.5 85.5,-56.5"/>
<text text-anchor="middle" x="118.5" y="-63.5" font-family="Helvetica,sans-Serif" font-size="10.00" fill="#000000">icns_ops.H</text>
</a>
</g>
</g>
<!-- Node51&#45;&gt;Node53 -->
<g id="edge2" class="edge">
<title>Node51&#45;&gt;Node53</title>
<path fill="none" stroke="#191970" d="M271.0587,-109.5882C235.0484,-99.2996 184.6132,-84.8895 151.7539,-75.5011"/>
<polygon fill="#191970" stroke="#191970" points="270.2296,-112.9913 280.8064,-112.3733 272.1527,-106.2606 270.2296,-112.9913"/>
</g>
<!-- Node55 -->
<g id="node5" class="node">
<title>Node55</title>
<g id="a_node5"><a xlink:href="icns__advection_8_h.html" target="_top" xlink:title="icns_advection.H">
<polygon fill="#ffffff" stroke="#000000" points="169.5,-56.5 169.5,-75.5 261.5,-75.5 261.5,-56.5 169.5,-56.5"/>
<text text-anchor="middle" x="215.5" y="-63.5" font-family="Helvetica,sans-Serif" font-size="10.00" fill="#000000">icns_advection.H</text>
</a>
</g>
</g>
<!-- Node51&#45;&gt;Node55 -->
<g id="edge4" class="edge">
<title>Node51&#45;&gt;Node55</title>
<path fill="none" stroke="#191970" d="M288.0643,-107.0465C270.4492,-97.0824 247.8153,-84.2794 232.5469,-75.6427"/>
<polygon fill="#191970" stroke="#191970" points="286.8283,-110.3684 297.2555,-112.2455 290.2747,-104.2756 286.8283,-110.3684"/>
</g>
<!-- Node57 -->
<g id="node7" class="node">
<title>Node57</title>
<g id="a_node7"><a xlink:href="levelset_8cpp.html" target="_top" xlink:title="levelset.cpp">
<polygon fill="#ffffff" stroke="#000000" points="280,-56.5 280,-75.5 349,-75.5 349,-56.5 280,-56.5"/>
<text text-anchor="middle" x="314.5" y="-63.5" font-family="Helvetica,sans-Serif" font-size="10.00" fill="#000000">levelset.cpp</text>
</a>
</g>
</g>
<!-- Node51&#45;&gt;Node57 -->
<g id="edge7" class="edge">
<title>Node51&#45;&gt;Node57</title>
<path fill="none" stroke="#191970" d="M314.5,-102.1575C314.5,-93.155 314.5,-82.9199 314.5,-75.6427"/>
<polygon fill="#191970" stroke="#191970" points="311.0001,-102.2455 314.5,-112.2455 318.0001,-102.2456 311.0001,-102.2455"/>
</g>
<!-- Node58 -->
<g id="node8" class="node">
<title>Node58</title>
<g id="a_node8"><a xlink:href="_s_d_r_8cpp.html" target="_top" xlink:title="SDR.cpp">
<polygon fill="#ffffff" stroke="#000000" points="367,-56.5 367,-75.5 424,-75.5 424,-56.5 367,-56.5"/>
<text text-anchor="middle" x="395.5" y="-63.5" font-family="Helvetica,sans-Serif" font-size="10.00" fill="#000000">SDR.cpp</text>
</a>
</g>
</g>
<!-- Node51&#45;&gt;Node58 -->
<g id="edge8" class="edge">
<title>Node51&#45;&gt;Node58</title>
<path fill="none" stroke="#191970" d="M336.934,-106.49C351.2254,-96.6096 369.2916,-84.1194 381.5526,-75.6427"/>
<polygon fill="#191970" stroke="#191970" points="334.8443,-103.6797 328.6091,-112.2455 338.8251,-109.4376 334.8443,-103.6797"/>
</g>
<!-- Node59 -->
<g id="node9" class="node">
<title>Node59</title>
<g id="a_node9"><a xlink:href="temperature_8cpp.html" target="_top" xlink:title="temperature.cpp">
<polygon fill="#ffffff" stroke="#000000" points="442,-56.5 442,-75.5 529,-75.5 529,-56.5 442,-56.5"/>
<text text-anchor="middle" x="485.5" y="-63.5" font-family="Helvetica,sans-Serif" font-size="10.00" fill="#000000">temperature.cpp</text>
</a>
</g>
</g>
<!-- Node51&#45;&gt;Node59 -->
<g id="edge9" class="edge">
<title>Node51&#45;&gt;Node59</title>
<path fill="none" stroke="#191970" d="M353.6148,-109.1905C384.9432,-98.9309 428.1871,-84.7691 456.4876,-75.5011"/>
<polygon fill="#191970" stroke="#191970" points="352.31,-105.9348 343.8959,-112.3733 354.4886,-112.5872 352.31,-105.9348"/>
</g>
<!-- Node60 -->
<g id="node10" class="node">
<title>Node60</title>
<g id="a_node10"><a xlink:href="_t_k_e_8cpp.html" target="_top" xlink:title="TKE.cpp">
<polygon fill="#ffffff" stroke="#000000" points="547,-56.5 547,-75.5 602,-75.5 602,-56.5 547,-56.5"/>
<text text-anchor="middle" x="574.5" y="-63.5" font-family="Helvetica,sans-Serif" font-size="10.00" fill="#000000">TKE.cpp</text>
</a>
</g>
</g>
<!-- Node51&#45;&gt;Node60 -->
<g id="edge10" class="edge">
<title>Node51&#45;&gt;Node60</title>
<path fill="none" stroke="#191970" d="M366.3213,-112.4011C411.8653,-103.7169 479.8371,-90.1535 538.5,-76 541.1484,-75.361 543.8968,-74.6625 546.6411,-73.9413"/>
<polygon fill="#191970" stroke="#191970" points="365.5588,-108.9832 356.3864,-114.2859 366.8636,-115.8606 365.5588,-108.9832"/>
</g>
<!-- Node54 -->
<g id="node4" class="node">
<title>Node54</title>
<g id="a_node4"><a xlink:href="icns_8cpp.html" target="_top" xlink:title="icns.cpp">
<polygon fill="#ffffff" stroke="#000000" points="93,-.5 93,-19.5 146,-19.5 146,-.5 93,-.5"/>
<text text-anchor="middle" x="119.5" y="-7.5" font-family="Helvetica,sans-Serif" font-size="10.00" fill="#000000">icns.cpp</text>
</a>
</g>
</g>
<!-- Node53&#45;&gt;Node54 -->
<g id="edge3" class="edge">
<title>Node53&#45;&gt;Node54</title>
<path fill="none" stroke="#191970" d="M118.8543,-46.1575C119.0151,-37.155 119.1979,-26.9199 119.3278,-19.6427"/>
<polygon fill="#191970" stroke="#191970" points="115.3534,-46.1846 118.6742,-56.2455 122.3523,-46.3097 115.3534,-46.1846"/>
</g>
<!-- Node55&#45;&gt;Node54 -->
<g id="edge5" class="edge">
<title>Node55&#45;&gt;Node54</title>
<path fill="none" stroke="#191970" d="M189.8654,-51.0465C172.7841,-41.0824 150.836,-28.2794 136.0303,-19.6427"/>
<polygon fill="#191970" stroke="#191970" points="188.3767,-54.23 198.7781,-56.2455 191.9038,-48.1836 188.3767,-54.23"/>
</g>
<!-- Node56 -->
<g id="node6" class="node">
<title>Node56</title>
<g id="a_node6"><a xlink:href="icns__advection_8cpp.html" target="_top" xlink:title="icns_advection.cpp">
<polygon fill="#ffffff" stroke="#000000" points="165,-.5 165,-19.5 266,-19.5 266,-.5 165,-.5"/>
<text text-anchor="middle" x="215.5" y="-7.5" font-family="Helvetica,sans-Serif" font-size="10.00" fill="#000000">icns_advection.cpp</text>
</a>
</g>
</g>
<!-- Node55&#45;&gt;Node56 -->
<g id="edge6" class="edge">
<title>Node55&#45;&gt;Node56</title>
<path fill="none" stroke="#191970" d="M215.5,-46.1575C215.5,-37.155 215.5,-26.9199 215.5,-19.6427"/>
<polygon fill="#191970" stroke="#191970" points="212.0001,-46.2455 215.5,-56.2455 219.0001,-46.2456 212.0001,-46.2455"/>
</g>
</g>
</svg>
