<?xml version="1.0" encoding="UTF-8" standalone="no"?>
<!DOCTYPE svg PUBLIC "-//W3C//DTD SVG 1.1//EN"
 "http://www.w3.org/Graphics/SVG/1.1/DTD/svg11.dtd">
<!-- Generated by graphviz version 2.40.1 (20161225.0304)
 -->
<!-- Title: BCInterface.H Pages: 1 -->
<svg width="812pt" height="196pt"
 viewBox="0.00 0.00 812.08 196.00" xmlns="http://www.w3.org/2000/svg" xmlns:xlink="http://www.w3.org/1999/xlink">
<g id="graph0" class="graph" transform="scale(1 1) rotate(0) translate(4 192)">
<title>BCInterface.H</title>
<polygon fill="#ffffff" stroke="transparent" points="-4,4 -4,-192 808.0842,-192 808.0842,4 -4,4"/>
<!-- Node0 -->
<g id="node1" class="node">
<title>Node0</title>
<polygon fill="#bfbfbf" stroke="#000000" points="602.0842,-168.5 602.0842,-187.5 682.0842,-187.5 682.0842,-168.5 602.0842,-168.5"/>
<text text-anchor="middle" x="642.0842" y="-175.5" font-family="Helvetica,sans-Serif" font-size="10.00" fill="#000000">BCInterface.H</text>
</g>
<!-- Node1 -->
<g id="node2" class="node">
<title>Node1</title>
<g id="a_node2"><a xlink:href="_field_8_h.html" target="_top" xlink:title="amr&#45;wind/core/Field.H">
<polygon fill="#ffffff" stroke="#000000" points="354.5842,-112.5 354.5842,-131.5 467.5842,-131.5 467.5842,-112.5 354.5842,-112.5"/>
<text text-anchor="middle" x="411.0842" y="-119.5" font-family="Helvetica,sans-Serif" font-size="10.00" fill="#000000">amr&#45;wind/core/Field.H</text>
</a>
</g>
</g>
<!-- Node0&#45;&gt;Node1 -->
<g id="edge1" class="edge">
<title>Node0&#45;&gt;Node1</title>
<path fill="none" stroke="#191970" d="M602.6364,-168.4369C563.2686,-158.8932 502.6808,-144.2052 460.2134,-133.9101"/>
<polygon fill="#191970" stroke="#191970" points="460.9125,-130.4783 450.3694,-131.5237 459.2632,-137.2812 460.9125,-130.4783"/>
</g>
<!-- Node8 -->
<g id="node9" class="node">
<title>Node8</title>
<g id="a_node9"><a xlink:href="incflo__enums_8_h.html" target="_top" xlink:title="amr&#45;wind/incflo_enums.H">
<polygon fill="#ffffff" stroke="#000000" points="636.0842,-56.5 636.0842,-75.5 764.0842,-75.5 764.0842,-56.5 636.0842,-56.5"/>
<text text-anchor="middle" x="700.0842" y="-63.5" font-family="Helvetica,sans-Serif" font-size="10.00" fill="#000000">amr&#45;wind/incflo_enums.H</text>
</a>
</g>
</g>
<!-- Node0&#45;&gt;Node8 -->
<g id="edge15" class="edge">
<title>Node0&#45;&gt;Node8</title>
<path fill="none" stroke="#191970" d="M633.0791,-168.1359C622.0596,-154.8082 606.1385,-130.5806 617.0842,-112 625.8788,-97.071 641.4559,-86.6447 656.7584,-79.541"/>
<polygon fill="#191970" stroke="#191970" points="658.3513,-82.6672 666.1877,-75.5368 655.6152,-76.224 658.3513,-82.6672"/>
</g>
<!-- Node12 -->
<g id="node13" class="node">
<title>Node12</title>
<polygon fill="#ffffff" stroke="#bfbfbf" points="626.5842,-112.5 626.5842,-131.5 745.5842,-131.5 745.5842,-112.5 626.5842,-112.5"/>
<text text-anchor="middle" x="686.0842" y="-119.5" font-family="Helvetica,sans-Serif" font-size="10.00" fill="#000000">AMReX_BC_TYPES.H</text>
</g>
<!-- Node0&#45;&gt;Node12 -->
<g id="edge16" class="edge">
<title>Node0&#45;&gt;Node12</title>
<path fill="none" stroke="#191970" d="M649.7484,-168.2455C655.9316,-160.3761 664.7906,-149.101 672.2131,-139.6542"/>
<polygon fill="#191970" stroke="#191970" points="675.0817,-141.6683 678.5078,-131.6427 669.5775,-137.3435 675.0817,-141.6683"/>
</g>
<!-- Node13 -->
<g id="node14" class="node">
<title>Node13</title>
<polygon fill="#ffffff" stroke="#bfbfbf" points="764.0842,-112.5 764.0842,-131.5 804.0842,-131.5 804.0842,-112.5 764.0842,-112.5"/>
<text text-anchor="middle" x="784.0842" y="-119.5" font-family="Helvetica,sans-Serif" font-size="10.00" fill="#000000">utility</text>
</g>
<!-- Node0&#45;&gt;Node13 -->
<g id="edge17" class="edge">
<title>Node0&#45;&gt;Node13</title>
<path fill="none" stroke="#191970" d="M666.4949,-168.3733C690.8235,-158.7789 728.2186,-144.0315 754.2849,-133.7519"/>
<polygon fill="#191970" stroke="#191970" points="755.6508,-136.9756 763.6694,-130.0509 753.0826,-130.4637 755.6508,-136.9756"/>
</g>
<!-- Node2 -->
<g id="node3" class="node">
<title>Node2</title>
<polygon fill="#ffffff" stroke="#bfbfbf" points="109.5842,-.5 109.5842,-19.5 150.5842,-19.5 150.5842,-.5 109.5842,-.5"/>
<text text-anchor="middle" x="130.0842" y="-7.5" font-family="Helvetica,sans-Serif" font-size="10.00" fill="#000000">string</text>
</g>
<!-- Node1&#45;&gt;Node2 -->
<g id="edge2" class="edge">
<title>Node1&#45;&gt;Node2</title>
<path fill="none" stroke="#191970" d="M354.2575,-119.6496C248.4364,-114.6862 29.7949,-101.4433 7.0842,-76 -22.6343,-42.7057 54.0529,-23.1591 99.4371,-14.8101"/>
<polygon fill="#191970" stroke="#191970" points="100.1626,-18.2364 109.4077,-13.0617 98.9535,-11.3416 100.1626,-18.2364"/>
</g>
<!-- Node3 -->
<g id="node4" class="node">
<title>Node3</title>
<polygon fill="#ffffff" stroke="#bfbfbf" points="16.0842,-56.5 16.0842,-75.5 68.0842,-75.5 68.0842,-56.5 16.0842,-56.5"/>
<text text-anchor="middle" x="42.0842" y="-63.5" font-family="Helvetica,sans-Serif" font-size="10.00" fill="#000000">memory</text>
</g>
<!-- Node1&#45;&gt;Node3 -->
<g id="edge3" class="edge">
<title>Node1&#45;&gt;Node3</title>
<path fill="none" stroke="#191970" d="M354.5239,-116.6758C289.8446,-110.0381 180.6846,-97.1639 78.2482,-76.0109"/>
<polygon fill="#191970" stroke="#191970" points="78.863,-72.5638 68.3577,-73.938 77.427,-79.415 78.863,-72.5638"/>
</g>
<!-- Node4 -->
<g id="node5" class="node">
<title>Node4</title>
<polygon fill="#ffffff" stroke="#bfbfbf" points="86.5842,-56.5 86.5842,-75.5 169.5842,-75.5 169.5842,-56.5 86.5842,-56.5"/>
<text text-anchor="middle" x="128.0842" y="-63.5" font-family="Helvetica,sans-Serif" font-size="10.00" fill="#000000">unordered_map</text>
</g>
<!-- Node1&#45;&gt;Node4 -->
<g id="edge4" class="edge">
<title>Node1&#45;&gt;Node4</title>
<path fill="none" stroke="#191970" d="M362.4348,-112.4318C317.5031,-103.5866 248.6135,-90.0044 179.9506,-76.3679"/>
<polygon fill="#191970" stroke="#191970" points="180.3149,-72.8719 169.8246,-74.3561 178.9508,-79.7377 180.3149,-72.8719"/>
</g>
<!-- Node5 -->
<g id="node6" class="node">
<title>Node5</title>
<polygon fill="#ffffff" stroke="#bfbfbf" points="423.0842,-.5 423.0842,-19.5 527.0842,-19.5 527.0842,-.5 423.0842,-.5"/>
<text text-anchor="middle" x="475.0842" y="-7.5" font-family="Helvetica,sans-Serif" font-size="10.00" fill="#000000">AMReX_MultiFab.H</text>
</g>
<!-- Node1&#45;&gt;Node5 -->
<g id="edge5" class="edge">
<title>Node1&#45;&gt;Node5</title>
<path fill="none" stroke="#191970" d="M459.2489,-112.451C495.2284,-104.2255 540.019,-91.2829 551.0842,-76 566.5315,-54.6647 537.442,-35.5732 510.9057,-23.4795"/>
<polygon fill="#191970" stroke="#191970" points="512.271,-20.2567 501.7031,-19.5014 509.4934,-26.6821 512.271,-20.2567"/>
</g>
<!-- Node6 -->
<g id="node7" class="node">
<title>Node6</title>
<polygon fill="#ffffff" stroke="#bfbfbf" points="187.5842,-56.5 187.5842,-75.5 286.5842,-75.5 286.5842,-56.5 187.5842,-56.5"/>
<text text-anchor="middle" x="237.0842" y="-63.5" font-family="Helvetica,sans-Serif" font-size="10.00" fill="#000000">AMReX_BCRec.H</text>
</g>
<!-- Node1&#45;&gt;Node6 -->
<g id="edge6" class="edge">
<title>Node1&#45;&gt;Node6</title>
<path fill="none" stroke="#191970" d="M381.1726,-112.3733C352.239,-103.0613 308.2231,-88.8953 276.4549,-78.671"/>
<polygon fill="#191970" stroke="#191970" points="277.197,-75.2331 266.6056,-75.5011 275.0524,-81.8965 277.197,-75.2331"/>
</g>
<!-- Node7 -->
<g id="node8" class="node">
<title>Node7</title>
<polygon fill="#ffffff" stroke="#bfbfbf" points="304.5842,-56.5 304.5842,-75.5 389.5842,-75.5 389.5842,-56.5 304.5842,-56.5"/>
<text text-anchor="middle" x="347.0842" y="-63.5" font-family="Helvetica,sans-Serif" font-size="10.00" fill="#000000">AMReX_Gpu.H</text>
</g>
<!-- Node1&#45;&gt;Node7 -->
<g id="edge7" class="edge">
<title>Node1&#45;&gt;Node7</title>
<path fill="none" stroke="#191970" d="M399.9363,-112.2455C390.5756,-104.0549 376.9984,-92.1749 365.9493,-82.5069"/>
<polygon fill="#191970" stroke="#191970" points="367.935,-79.5937 358.1044,-75.6427 363.3254,-84.8618 367.935,-79.5937"/>
</g>
<!-- Node1&#45;&gt;Node8 -->
<g id="edge8" class="edge">
<title>Node1&#45;&gt;Node8</title>
<path fill="none" stroke="#191970" d="M460.4367,-112.4369C510.4164,-102.7522 587.734,-87.7703 640.9585,-77.4569"/>
<polygon fill="#191970" stroke="#191970" points="641.7837,-80.8622 650.9353,-75.5237 640.452,-73.99 641.7837,-80.8622"/>
</g>
<!-- Node9 -->
<g id="node10" class="node">
<title>Node9</title>
<g id="a_node10"><a xlink:href="_field_desc_types_8_h.html" target="_top" xlink:title="amr&#45;wind/core/FieldDescTypes.H">
<polygon fill="#ffffff" stroke="#000000" points="545.5842,-.5 545.5842,-19.5 708.5842,-19.5 708.5842,-.5 545.5842,-.5"/>
<text text-anchor="middle" x="627.0842" y="-7.5" font-family="Helvetica,sans-Serif" font-size="10.00" fill="#000000">amr&#45;wind/core/FieldDescTypes.H</text>
</a>
</g>
</g>
<!-- Node1&#45;&gt;Node9 -->
<g id="edge9" class="edge">
<title>Node1&#45;&gt;Node9</title>
<path fill="none" stroke="#191970" d="M467.6414,-113.3213C499.0121,-106.6388 537.7036,-95.1819 568.0842,-76 587.6711,-63.6331 604.6453,-42.9511 615.2939,-28.0316"/>
<polygon fill="#191970" stroke="#191970" points="618.2993,-29.8378 621.0736,-19.6127 612.5283,-25.876 618.2993,-29.8378"/>
</g>
<!-- Node10 -->
<g id="node11" class="node">
<title>Node10</title>
<g id="a_node11"><a xlink:href="_view_field_8_h.html" target="_top" xlink:title="amr&#45;wind/core/ViewField.H">
<polygon fill="#ffffff" stroke="#000000" points="408.0842,-56.5 408.0842,-75.5 542.0842,-75.5 542.0842,-56.5 408.0842,-56.5"/>
<text text-anchor="middle" x="475.0842" y="-63.5" font-family="Helvetica,sans-Serif" font-size="10.00" fill="#000000">amr&#45;wind/core/ViewField.H</text>
</a>
</g>
</g>
<!-- Node1&#45;&gt;Node10 -->
<g id="edge10" class="edge">
<title>Node1&#45;&gt;Node10</title>
<path fill="none" stroke="#191970" d="M422.2322,-112.2455C431.5929,-104.0549 445.17,-92.1749 456.2192,-82.5069"/>
<polygon fill="#191970" stroke="#191970" points="458.843,-84.8618 464.064,-75.6427 454.2335,-79.5937 458.843,-84.8618"/>
</g>
<!-- Node10&#45;&gt;Node2 -->
<g id="edge11" class="edge">
<title>Node10&#45;&gt;Node2</title>
<path fill="none" stroke="#191970" d="M416.1686,-56.4369C342.2211,-44.4338 218.1425,-24.2935 160.8224,-14.9894"/>
<polygon fill="#191970" stroke="#191970" points="161.0345,-11.4781 150.6029,-13.3306 159.9129,-18.3877 161.0345,-11.4781"/>
</g>
<!-- Node10&#45;&gt;Node5 -->
<g id="edge13" class="edge">
<title>Node10&#45;&gt;Node5</title>
<path fill="none" stroke="#191970" d="M475.0842,-56.2455C475.0842,-48.9382 475.0842,-38.6944 475.0842,-29.7046"/>
<polygon fill="#191970" stroke="#191970" points="478.5843,-29.6426 475.0842,-19.6427 471.5843,-29.6427 478.5843,-29.6426"/>
</g>
<!-- Node10&#45;&gt;Node9 -->
<g id="edge12" class="edge">
<title>Node10&#45;&gt;Node9</title>
<path fill="none" stroke="#191970" d="M501.214,-56.3733C526.161,-47.1822 563.9434,-33.2624 591.6049,-23.0713"/>
<polygon fill="#191970" stroke="#191970" points="593.122,-26.2424 601.2955,-19.5011 590.702,-19.674 593.122,-26.2424"/>
</g>
<!-- Node11 -->
<g id="node12" class="node">
<title>Node11</title>
<polygon fill="#ffffff" stroke="#bfbfbf" points="309.5842,-.5 309.5842,-19.5 404.5842,-19.5 404.5842,-.5 309.5842,-.5"/>
<text text-anchor="middle" x="357.0842" y="-7.5" font-family="Helvetica,sans-Serif" font-size="10.00" fill="#000000">AMReX_Vector.H</text>
</g>
<!-- Node10&#45;&gt;Node11 -->
<g id="edge14" class="edge">
<title>Node10&#45;&gt;Node11</title>
<path fill="none" stroke="#191970" d="M454.7993,-56.3733C435.9422,-47.4241 407.6383,-33.9917 386.3387,-23.8835"/>
<polygon fill="#191970" stroke="#191970" points="387.6393,-20.6266 377.1045,-19.5011 384.6381,-26.9506 387.6393,-20.6266"/>
</g>
</g>
</svg>
