<?xml version="1.0" encoding="UTF-8" standalone="no"?>
<!DOCTYPE svg PUBLIC "-//W3C//DTD SVG 1.1//EN"
 "http://www.w3.org/Graphics/SVG/1.1/DTD/svg11.dtd">
<!-- Generated by graphviz version 2.40.1 (20161225.0304)
 -->
<!-- Title: BCInterface.cpp Pages: 1 -->
<svg width="1691pt" height="330pt"
 viewBox="0.00 0.00 1690.67 330.00" xmlns="http://www.w3.org/2000/svg" xmlns:xlink="http://www.w3.org/1999/xlink">
<g id="graph0" class="graph" transform="scale(1 1) rotate(0) translate(4 326)">
<title>BCInterface.cpp</title>
<polygon fill="#ffffff" stroke="transparent" points="-4,4 -4,-326 1686.6691,-326 1686.6691,4 -4,4"/>
<!-- Node0 -->
<g id="node1" class="node">
<title>Node0</title>
<polygon fill="#bfbfbf" stroke="#000000" points="1100.6691,-302.5 1100.6691,-321.5 1188.6691,-321.5 1188.6691,-302.5 1100.6691,-302.5"/>
<text text-anchor="middle" x="1144.6691" y="-309.5" font-family="Helvetica,sans-Serif" font-size="10.00" fill="#000000">BCInterface.cpp</text>
</g>
<!-- Node1 -->
<g id="node2" class="node">
<title>Node1</title>
<g id="a_node2"><a xlink:href="_b_c_interface_8_h.html" target="_top" xlink:title="amr&#45;wind/boundary_conditions\l/BCInterface.H">
<polygon fill="#ffffff" stroke="#000000" points="1402.1691,-168.5 1402.1691,-198.5 1551.1691,-198.5 1551.1691,-168.5 1402.1691,-168.5"/>
<text text-anchor="start" x="1410.1691" y="-186.5" font-family="Helvetica,sans-Serif" font-size="10.00" fill="#000000">amr&#45;wind/boundary_conditions</text>
<text text-anchor="middle" x="1476.6691" y="-175.5" font-family="Helvetica,sans-Serif" font-size="10.00" fill="#000000">/BCInterface.H</text>
</a>
</g>
</g>
<!-- Node0&#45;&gt;Node1 -->
<g id="edge1" class="edge">
<title>Node0&#45;&gt;Node1</title>
<path fill="none" stroke="#191970" d="M1150.4321,-302.385C1160.9473,-285.7499 1184.9279,-251.7743 1214.6691,-235 1244.516,-218.166 1327.2691,-203.5996 1391.8672,-194.2961"/>
<polygon fill="#191970" stroke="#191970" points="1392.659,-197.7189 1402.0681,-192.8485 1391.6755,-190.7883 1392.659,-197.7189"/>
</g>
<!-- Node15 -->
<g id="node16" class="node">
<title>Node15</title>
<g id="a_node16"><a xlink:href="_field_repo_8_h.html" target="_top" xlink:title="amr&#45;wind/core/FieldRepo.H">
<polygon fill="#ffffff" stroke="#000000" points="513.6691,-174 513.6691,-193 649.6691,-193 649.6691,-174 513.6691,-174"/>
<text text-anchor="middle" x="581.6691" y="-181" font-family="Helvetica,sans-Serif" font-size="10.00" fill="#000000">amr&#45;wind/core/FieldRepo.H</text>
</a>
</g>
</g>
<!-- Node0&#45;&gt;Node15 -->
<g id="edge19" class="edge">
<title>Node0&#45;&gt;Node15</title>
<path fill="none" stroke="#191970" d="M1102.8125,-302.4466C1001.6159,-279.3493 743.9038,-220.5287 633.3345,-195.2922"/>
<polygon fill="#191970" stroke="#191970" points="633.9467,-191.842 623.4186,-193.029 632.389,-198.6665 633.9467,-191.842"/>
</g>
<!-- Node23 -->
<g id="node24" class="node">
<title>Node23</title>
<g id="a_node24"><a xlink:href="_fixed_gradient_b_c_8_h.html" target="_top" xlink:title="amr&#45;wind/boundary_conditions\l/FixedGradientBC.H">
<polygon fill="#ffffff" stroke="#000000" points="1019.1691,-235.5 1019.1691,-265.5 1168.1691,-265.5 1168.1691,-235.5 1019.1691,-235.5"/>
<text text-anchor="start" x="1027.1691" y="-253.5" font-family="Helvetica,sans-Serif" font-size="10.00" fill="#000000">amr&#45;wind/boundary_conditions</text>
<text text-anchor="middle" x="1093.6691" y="-242.5" font-family="Helvetica,sans-Serif" font-size="10.00" fill="#000000">/FixedGradientBC.H</text>
</a>
</g>
</g>
<!-- Node0&#45;&gt;Node23 -->
<g id="edge42" class="edge">
<title>Node0&#45;&gt;Node23</title>
<path fill="none" stroke="#191970" d="M1136.7003,-302.3906C1130.2454,-294.6068 1120.8858,-283.3202 1112.543,-273.2597"/>
<polygon fill="#191970" stroke="#191970" points="1115.2226,-271.008 1106.1451,-265.5446 1109.8343,-275.4764 1115.2226,-271.008"/>
</g>
<!-- Node28 -->
<g id="node29" class="node">
<title>Node28</title>
<polygon fill="#ffffff" stroke="#bfbfbf" points="1223.6691,-241 1223.6691,-260 1339.6691,-260 1339.6691,-241 1223.6691,-241"/>
<text text-anchor="middle" x="1281.6691" y="-248" font-family="Helvetica,sans-Serif" font-size="10.00" fill="#000000">AMReX_ParmParse.H</text>
</g>
<!-- Node0&#45;&gt;Node28 -->
<g id="edge52" class="edge">
<title>Node0&#45;&gt;Node28</title>
<path fill="none" stroke="#191970" d="M1166.0753,-302.3906C1188.8974,-292.1457 1225.237,-275.8326 1251.0748,-264.2339"/>
<polygon fill="#191970" stroke="#191970" points="1252.7235,-267.3303 1260.4131,-260.0419 1249.8568,-260.9443 1252.7235,-267.3303"/>
</g>
<!-- Node2 -->
<g id="node3" class="node">
<title>Node2</title>
<g id="a_node3"><a xlink:href="_field_8_h.html" target="_top" xlink:title="amr&#45;wind/core/Field.H">
<polygon fill="#ffffff" stroke="#000000" points="1037.1691,-112.5 1037.1691,-131.5 1150.1691,-131.5 1150.1691,-112.5 1037.1691,-112.5"/>
<text text-anchor="middle" x="1093.6691" y="-119.5" font-family="Helvetica,sans-Serif" font-size="10.00" fill="#000000">amr&#45;wind/core/Field.H</text>
</a>
</g>
</g>
<!-- Node1&#45;&gt;Node2 -->
<g id="edge2" class="edge">
<title>Node1&#45;&gt;Node2</title>
<path fill="none" stroke="#191970" d="M1401.9136,-171.4962C1331.7183,-160.2246 1227.6814,-143.519 1160.2695,-132.6943"/>
<polygon fill="#191970" stroke="#191970" points="1160.6153,-129.2051 1150.1868,-131.0753 1159.5054,-136.1166 1160.6153,-129.2051"/>
</g>
<!-- Node9 -->
<g id="node10" class="node">
<title>Node9</title>
<g id="a_node10"><a xlink:href="incflo__enums_8_h.html" target="_top" xlink:title="amr&#45;wind/incflo_enums.H">
<polygon fill="#ffffff" stroke="#000000" points="1456.6691,-56.5 1456.6691,-75.5 1584.6691,-75.5 1584.6691,-56.5 1456.6691,-56.5"/>
<text text-anchor="middle" x="1520.6691" y="-63.5" font-family="Helvetica,sans-Serif" font-size="10.00" fill="#000000">amr&#45;wind/incflo_enums.H</text>
</a>
</g>
</g>
<!-- Node1&#45;&gt;Node9 -->
<g id="edge16" class="edge">
<title>Node1&#45;&gt;Node9</title>
<path fill="none" stroke="#191970" d="M1479.9232,-168.4135C1483.3132,-153.7343 1489.1752,-130.9368 1496.6691,-112 1500.3855,-102.6087 1505.4504,-92.6196 1509.9696,-84.3579"/>
<polygon fill="#191970" stroke="#191970" points="1513.0492,-86.0223 1514.9107,-75.5923 1506.9512,-82.585 1513.0492,-86.0223"/>
</g>
<!-- Node13 -->
<g id="node14" class="node">
<title>Node13</title>
<polygon fill="#ffffff" stroke="#bfbfbf" points="1505.1691,-112.5 1505.1691,-131.5 1624.1691,-131.5 1624.1691,-112.5 1505.1691,-112.5"/>
<text text-anchor="middle" x="1564.6691" y="-119.5" font-family="Helvetica,sans-Serif" font-size="10.00" fill="#000000">AMReX_BC_TYPES.H</text>
</g>
<!-- Node1&#45;&gt;Node13 -->
<g id="edge17" class="edge">
<title>Node1&#45;&gt;Node13</title>
<path fill="none" stroke="#191970" d="M1498.4219,-168.2977C1511.8659,-158.9022 1529.0702,-146.8787 1542.5768,-137.4395"/>
<polygon fill="#191970" stroke="#191970" points="1544.6502,-140.2605 1550.8419,-131.6633 1540.6403,-134.5228 1544.6502,-140.2605"/>
</g>
<!-- Node14 -->
<g id="node15" class="node">
<title>Node14</title>
<polygon fill="#ffffff" stroke="#bfbfbf" points="1642.6691,-112.5 1642.6691,-131.5 1682.6691,-131.5 1682.6691,-112.5 1642.6691,-112.5"/>
<text text-anchor="middle" x="1662.6691" y="-119.5" font-family="Helvetica,sans-Serif" font-size="10.00" fill="#000000">utility</text>
</g>
<!-- Node1&#45;&gt;Node14 -->
<g id="edge18" class="edge">
<title>Node1&#45;&gt;Node14</title>
<path fill="none" stroke="#191970" d="M1523.1008,-168.4725C1552.1853,-159.013 1590.6799,-146.4093 1632.7875,-132.2671"/>
<polygon fill="#191970" stroke="#191970" points="1634.0391,-135.5389 1642.4009,-129.0326 1631.8068,-128.9043 1634.0391,-135.5389"/>
</g>
<!-- Node3 -->
<g id="node4" class="node">
<title>Node3</title>
<polygon fill="#ffffff" stroke="#bfbfbf" points="672.1691,-.5 672.1691,-19.5 713.1691,-19.5 713.1691,-.5 672.1691,-.5"/>
<text text-anchor="middle" x="692.6691" y="-7.5" font-family="Helvetica,sans-Serif" font-size="10.00" fill="#000000">string</text>
</g>
<!-- Node2&#45;&gt;Node3 -->
<g id="edge3" class="edge">
<title>Node2&#45;&gt;Node3</title>
<path fill="none" stroke="#191970" d="M1094.8078,-112.219C1095.9054,-97.6037 1095.5139,-70.262 1079.6691,-56 1022.3767,-4.431 810.6557,-32.9543 734.6691,-20 730.9792,-19.371 727.1308,-18.6068 723.326,-17.7842"/>
<polygon fill="#191970" stroke="#191970" points="724.0255,-14.3538 713.4954,-15.5228 722.4562,-21.1756 724.0255,-14.3538"/>
</g>
<!-- Node4 -->
<g id="node5" class="node">
<title>Node4</title>
<polygon fill="#ffffff" stroke="#bfbfbf" points="1126.6691,-56.5 1126.6691,-75.5 1178.6691,-75.5 1178.6691,-56.5 1126.6691,-56.5"/>
<text text-anchor="middle" x="1152.6691" y="-63.5" font-family="Helvetica,sans-Serif" font-size="10.00" fill="#000000">memory</text>
</g>
<!-- Node2&#45;&gt;Node4 -->
<g id="edge4" class="edge">
<title>Node2&#45;&gt;Node4</title>
<path fill="none" stroke="#191970" d="M1103.9461,-112.2455C1112.4909,-104.1352 1124.8469,-92.4075 1134.9776,-82.7919"/>
<polygon fill="#191970" stroke="#191970" points="1137.6662,-85.0655 1142.5098,-75.6427 1132.8472,-79.9884 1137.6662,-85.0655"/>
</g>
<!-- Node5 -->
<g id="node6" class="node">
<title>Node5</title>
<polygon fill="#ffffff" stroke="#bfbfbf" points="987.1691,-56.5 987.1691,-75.5 1070.1691,-75.5 1070.1691,-56.5 987.1691,-56.5"/>
<text text-anchor="middle" x="1028.6691" y="-63.5" font-family="Helvetica,sans-Serif" font-size="10.00" fill="#000000">unordered_map</text>
</g>
<!-- Node2&#45;&gt;Node5 -->
<g id="edge5" class="edge">
<title>Node2&#45;&gt;Node5</title>
<path fill="none" stroke="#191970" d="M1082.3469,-112.2455C1072.7467,-103.9746 1058.7799,-91.9416 1047.4996,-82.2232"/>
<polygon fill="#191970" stroke="#191970" points="1049.722,-79.5182 1039.8614,-75.6427 1045.1531,-84.8214 1049.722,-79.5182"/>
</g>
<!-- Node6 -->
<g id="node7" class="node">
<title>Node6</title>
<polygon fill="#ffffff" stroke="#bfbfbf" points="868.6691,-.5 868.6691,-19.5 972.6691,-19.5 972.6691,-.5 868.6691,-.5"/>
<text text-anchor="middle" x="920.6691" y="-7.5" font-family="Helvetica,sans-Serif" font-size="10.00" fill="#000000">AMReX_MultiFab.H</text>
</g>
<!-- Node2&#45;&gt;Node6 -->
<g id="edge6" class="edge">
<title>Node2&#45;&gt;Node6</title>
<path fill="none" stroke="#191970" d="M1150.2151,-113.4528C1209.6312,-103.8968 1295.8586,-88.1674 1305.6691,-76 1311.2484,-69.0802 1311.5698,-62.6478 1305.6691,-56 1284.6404,-32.3092 1086.39,-18.5879 982.9023,-12.9834"/>
<polygon fill="#191970" stroke="#191970" points="983.0612,-9.487 972.8893,-12.4504 982.6891,-16.4771 983.0612,-9.487"/>
</g>
<!-- Node7 -->
<g id="node8" class="node">
<title>Node7</title>
<polygon fill="#ffffff" stroke="#bfbfbf" points="1197.1691,-56.5 1197.1691,-75.5 1296.1691,-75.5 1296.1691,-56.5 1197.1691,-56.5"/>
<text text-anchor="middle" x="1246.6691" y="-63.5" font-family="Helvetica,sans-Serif" font-size="10.00" fill="#000000">AMReX_BCRec.H</text>
</g>
<!-- Node2&#45;&gt;Node7 -->
<g id="edge7" class="edge">
<title>Node2&#45;&gt;Node7</title>
<path fill="none" stroke="#191970" d="M1119.9707,-112.3733C1145.0819,-103.1822 1183.1129,-89.2624 1210.9563,-79.0713"/>
<polygon fill="#191970" stroke="#191970" points="1212.5229,-82.2251 1220.7106,-75.5011 1210.1169,-75.6516 1212.5229,-82.2251"/>
</g>
<!-- Node8 -->
<g id="node9" class="node">
<title>Node8</title>
<polygon fill="#ffffff" stroke="#bfbfbf" points="1353.1691,-56.5 1353.1691,-75.5 1438.1691,-75.5 1438.1691,-56.5 1353.1691,-56.5"/>
<text text-anchor="middle" x="1395.6691" y="-63.5" font-family="Helvetica,sans-Serif" font-size="10.00" fill="#000000">AMReX_Gpu.H</text>
</g>
<!-- Node2&#45;&gt;Node8 -->
<g id="edge8" class="edge">
<title>Node2&#45;&gt;Node8</title>
<path fill="none" stroke="#191970" d="M1145.2416,-112.4369C1200.4327,-102.2028 1287.5253,-86.0531 1343.0977,-75.7483"/>
<polygon fill="#191970" stroke="#191970" points="1343.8985,-79.1596 1353.0927,-73.8949 1342.6222,-72.2769 1343.8985,-79.1596"/>
</g>
<!-- Node2&#45;&gt;Node9 -->
<g id="edge9" class="edge">
<title>Node2&#45;&gt;Node9</title>
<path fill="none" stroke="#191970" d="M1150.3974,-114.7513C1218.2735,-106.0507 1335.6468,-90.9185 1446.5555,-76.1419"/>
<polygon fill="#191970" stroke="#191970" points="1447.1289,-79.5965 1456.5784,-74.8051 1446.2034,-72.6579 1447.1289,-79.5965"/>
</g>
<!-- Node10 -->
<g id="node11" class="node">
<title>Node10</title>
<g id="a_node11"><a xlink:href="_field_desc_types_8_h.html" target="_top" xlink:title="amr&#45;wind/core/FieldDescTypes.H">
<polygon fill="#ffffff" stroke="#000000" points="294.1691,-.5 294.1691,-19.5 457.1691,-19.5 457.1691,-.5 294.1691,-.5"/>
<text text-anchor="middle" x="375.6691" y="-7.5" font-family="Helvetica,sans-Serif" font-size="10.00" fill="#000000">amr&#45;wind/core/FieldDescTypes.H</text>
</a>
</g>
</g>
<!-- Node2&#45;&gt;Node10 -->
<g id="edge10" class="edge">
<title>Node2&#45;&gt;Node10</title>
<path fill="none" stroke="#191970" d="M1036.9542,-115.1525C968.6778,-106.7392 850.5937,-91.646 749.6691,-76 742.0235,-74.8147 544.4319,-39.8691 439.6159,-21.3197"/>
<polygon fill="#191970" stroke="#191970" points="439.9209,-17.8194 429.4639,-19.523 438.7009,-24.7122 439.9209,-17.8194"/>
</g>
<!-- Node11 -->
<g id="node12" class="node">
<title>Node11</title>
<g id="a_node12"><a xlink:href="_view_field_8_h.html" target="_top" xlink:title="amr&#45;wind/core/ViewField.H">
<polygon fill="#ffffff" stroke="#000000" points="758.6691,-56.5 758.6691,-75.5 892.6691,-75.5 892.6691,-56.5 758.6691,-56.5"/>
<text text-anchor="middle" x="825.6691" y="-63.5" font-family="Helvetica,sans-Serif" font-size="10.00" fill="#000000">amr&#45;wind/core/ViewField.H</text>
</a>
</g>
</g>
<!-- Node2&#45;&gt;Node11 -->
<g id="edge11" class="edge">
<title>Node2&#45;&gt;Node11</title>
<path fill="none" stroke="#191970" d="M1047.9027,-112.4369C1001.7475,-102.7925 930.4512,-87.8948 881.1153,-77.5858"/>
<polygon fill="#191970" stroke="#191970" points="881.7511,-74.1431 871.2466,-75.5237 880.3193,-80.9951 881.7511,-74.1431"/>
</g>
<!-- Node11&#45;&gt;Node3 -->
<g id="edge12" class="edge">
<title>Node11&#45;&gt;Node3</title>
<path fill="none" stroke="#191970" d="M802.8055,-56.3733C780.7419,-47.0833 747.2041,-32.9621 722.9349,-22.7435"/>
<polygon fill="#191970" stroke="#191970" points="724.0603,-19.4198 713.4857,-18.7649 721.3438,-25.8713 724.0603,-19.4198"/>
</g>
<!-- Node11&#45;&gt;Node6 -->
<g id="edge14" class="edge">
<title>Node11&#45;&gt;Node6</title>
<path fill="none" stroke="#191970" d="M842.2168,-56.2455C856.9289,-47.5731 878.6578,-34.7645 895.5195,-24.825"/>
<polygon fill="#191970" stroke="#191970" points="897.4736,-27.736 904.3109,-19.6427 893.9189,-21.7057 897.4736,-27.736"/>
</g>
<!-- Node11&#45;&gt;Node10 -->
<g id="edge13" class="edge">
<title>Node11&#45;&gt;Node10</title>
<path fill="none" stroke="#191970" d="M758.2995,-57.6162C679.4086,-47.7987 548.5599,-31.5153 462.2146,-20.7701"/>
<polygon fill="#191970" stroke="#191970" points="462.5294,-17.2824 452.1736,-19.5206 461.6649,-24.2288 462.5294,-17.2824"/>
</g>
<!-- Node12 -->
<g id="node13" class="node">
<title>Node12</title>
<polygon fill="#ffffff" stroke="#bfbfbf" points="743.1691,-.5 743.1691,-19.5 838.1691,-19.5 838.1691,-.5 743.1691,-.5"/>
<text text-anchor="middle" x="790.6691" y="-7.5" font-family="Helvetica,sans-Serif" font-size="10.00" fill="#000000">AMReX_Vector.H</text>
</g>
<!-- Node11&#45;&gt;Node12 -->
<g id="edge15" class="edge">
<title>Node11&#45;&gt;Node12</title>
<path fill="none" stroke="#191970" d="M819.5725,-56.2455C814.7545,-48.5367 807.8939,-37.5598 802.0658,-28.2348"/>
<polygon fill="#191970" stroke="#191970" points="804.9638,-26.2677 796.6957,-19.6427 799.0278,-29.9777 804.9638,-26.2677"/>
</g>
<!-- Node15&#45;&gt;Node2 -->
<g id="edge27" class="edge">
<title>Node15&#45;&gt;Node2</title>
<path fill="none" stroke="#191970" d="M649.8327,-175.7927C735.8436,-165.9925 888.297,-148.3726 1018.6691,-132 1021.4794,-131.6471 1024.3485,-131.2826 1027.2464,-130.9112"/>
<polygon fill="#191970" stroke="#191970" points="1027.6987,-134.3819 1037.1668,-129.6274 1026.8003,-127.4398 1027.6987,-134.3819"/>
</g>
<!-- Node15&#45;&gt;Node3 -->
<g id="edge20" class="edge">
<title>Node15&#45;&gt;Node3</title>
<path fill="none" stroke="#191970" d="M565.497,-173.9894C530.9152,-152.4817 455.5978,-98.6556 489.6691,-56 510.8821,-29.4422 610.5368,-17.0763 661.8941,-12.3857"/>
<polygon fill="#191970" stroke="#191970" points="662.416,-15.8536 672.0745,-11.499 661.8085,-8.88 662.416,-15.8536"/>
</g>
<!-- Node15&#45;&gt;Node5 -->
<g id="edge21" class="edge">
<title>Node15&#45;&gt;Node5</title>
<path fill="none" stroke="#191970" d="M649.8809,-180.3986C746.7635,-175.0095 918.4886,-161.5336 972.6691,-132 992.7738,-121.041 1008.785,-99.7454 1018.453,-84.3007"/>
<polygon fill="#191970" stroke="#191970" points="1021.5325,-85.9697 1023.6328,-75.5851 1015.515,-82.3933 1021.5325,-85.9697"/>
</g>
<!-- Node15&#45;&gt;Node6 -->
<g id="edge40" class="edge">
<title>Node15&#45;&gt;Node6</title>
<path fill="none" stroke="#191970" d="M639.1954,-173.9669C727.4057,-158.0096 889.3057,-122.9611 921.6691,-76 930.9965,-62.4653 929.5576,-43.3777 926.489,-29.2088"/>
<polygon fill="#191970" stroke="#191970" points="929.8715,-28.3091 923.976,-19.5061 923.0951,-30.0642 929.8715,-28.3091"/>
</g>
<!-- Node15&#45;&gt;Node10 -->
<g id="edge22" class="edge">
<title>Node15&#45;&gt;Node10</title>
<path fill="none" stroke="#191970" d="M513.5401,-182.4208C369.0191,-179.4244 42.1538,-168.6293 8.6691,-132 -5.9958,-115.958 -1.1411,-76.6592 21.6691,-56 26.5452,-51.5837 180.7718,-32.7795 284.0282,-20.6228"/>
<polygon fill="#191970" stroke="#191970" points="284.6434,-24.0747 294.1664,-19.4313 283.8262,-17.1225 284.6434,-24.0747"/>
</g>
<!-- Node16 -->
<g id="node17" class="node">
<title>Node16</title>
<g id="a_node17"><a xlink:href="_field_utils_8_h.html" target="_top" xlink:title="amr&#45;wind/core/FieldUtils.H">
<polygon fill="#ffffff" stroke="#000000" points="195.1691,-56.5 195.1691,-75.5 328.1691,-75.5 328.1691,-56.5 195.1691,-56.5"/>
<text text-anchor="middle" x="261.6691" y="-63.5" font-family="Helvetica,sans-Serif" font-size="10.00" fill="#000000">amr&#45;wind/core/FieldUtils.H</text>
</a>
</g>
</g>
<!-- Node15&#45;&gt;Node16 -->
<g id="edge23" class="edge">
<title>Node15&#45;&gt;Node16</title>
<path fill="none" stroke="#191970" d="M513.4789,-175.0126C467.457,-167.6081 406.1435,-154.4257 355.6691,-132 327.1676,-119.3369 298.4049,-97.511 280.3391,-82.4454"/>
<polygon fill="#191970" stroke="#191970" points="282.2595,-79.4835 272.3777,-75.6624 277.7198,-84.8119 282.2595,-79.4835"/>
</g>
<!-- Node18 -->
<g id="node19" class="node">
<title>Node18</title>
<g id="a_node19"><a xlink:href="_int_field_8_h.html" target="_top" xlink:title="amr&#45;wind/core/IntField.H">
<polygon fill="#ffffff" stroke="#000000" points="179.6691,-112.5 179.6691,-131.5 303.6691,-131.5 303.6691,-112.5 179.6691,-112.5"/>
<text text-anchor="middle" x="241.6691" y="-119.5" font-family="Helvetica,sans-Serif" font-size="10.00" fill="#000000">amr&#45;wind/core/IntField.H</text>
</a>
</g>
</g>
<!-- Node15&#45;&gt;Node18 -->
<g id="edge28" class="edge">
<title>Node15&#45;&gt;Node18</title>
<path fill="none" stroke="#191970" d="M528.9171,-173.9581C468.2772,-162.9894 368.8303,-145.0012 304.3091,-133.3305"/>
<polygon fill="#191970" stroke="#191970" points="304.7283,-129.8496 294.265,-131.5137 303.4823,-136.7378 304.7283,-129.8496"/>
</g>
<!-- Node19 -->
<g id="node20" class="node">
<title>Node19</title>
<polygon fill="#ffffff" stroke="#bfbfbf" points="31.1691,-56.5 31.1691,-75.5 138.1691,-75.5 138.1691,-56.5 31.1691,-56.5"/>
<text text-anchor="middle" x="84.6691" y="-63.5" font-family="Helvetica,sans-Serif" font-size="10.00" fill="#000000">AMReX_iMultiFab.H</text>
</g>
<!-- Node15&#45;&gt;Node19 -->
<g id="edge41" class="edge">
<title>Node15&#45;&gt;Node19</title>
<path fill="none" stroke="#191970" d="M513.258,-179.2804C412.8986,-172.357 231.1216,-156.822 170.6691,-132 143.3896,-120.799 117.2863,-98.5846 101.1388,-83.0346"/>
<polygon fill="#191970" stroke="#191970" points="103.213,-80.1621 93.6488,-75.6041 98.283,-85.1316 103.213,-80.1621"/>
</g>
<!-- Node20 -->
<g id="node21" class="node">
<title>Node20</title>
<g id="a_node21"><a xlink:href="_scratch_field_8_h.html" target="_top" xlink:title="amr&#45;wind/core/ScratchField.H">
<polygon fill="#ffffff" stroke="#000000" points="619.6691,-112.5 619.6691,-131.5 765.6691,-131.5 765.6691,-112.5 619.6691,-112.5"/>
<text text-anchor="middle" x="692.6691" y="-119.5" font-family="Helvetica,sans-Serif" font-size="10.00" fill="#000000">amr&#45;wind/core/ScratchField.H</text>
</a>
</g>
</g>
<!-- Node15&#45;&gt;Node20 -->
<g id="edge32" class="edge">
<title>Node15&#45;&gt;Node20</title>
<path fill="none" stroke="#191970" d="M599.0128,-173.8906C617.0964,-163.8713 645.655,-148.0483 666.4855,-136.5071"/>
<polygon fill="#191970" stroke="#191970" points="668.3962,-139.4498 675.4471,-131.5419 665.0037,-133.3268 668.3962,-139.4498"/>
</g>
<!-- Node22 -->
<g id="node23" class="node">
<title>Node22</title>
<polygon fill="#ffffff" stroke="#bfbfbf" points="17.6691,-112.5 17.6691,-131.5 123.6691,-131.5 123.6691,-112.5 17.6691,-112.5"/>
<text text-anchor="middle" x="70.6691" y="-119.5" font-family="Helvetica,sans-Serif" font-size="10.00" fill="#000000">AMReX_AmrCore.H</text>
</g>
<!-- Node15&#45;&gt;Node22 -->
<g id="edge39" class="edge">
<title>Node15&#45;&gt;Node22</title>
<path fill="none" stroke="#191970" d="M513.5063,-176.2934C426.2807,-166.9107 270.5603,-149.6196 137.6691,-132 136.3902,-131.8304 135.098,-131.6571 133.7958,-131.4805"/>
<polygon fill="#191970" stroke="#191970" points="134.0632,-127.9841 123.6767,-130.075 133.1001,-134.9175 134.0632,-127.9841"/>
</g>
<!-- Node16&#45;&gt;Node6 -->
<g id="edge25" class="edge">
<title>Node16&#45;&gt;Node6</title>
<path fill="none" stroke="#191970" d="M328.5763,-62.0107C437.5227,-55.2311 659.9628,-40.2068 847.6691,-20 851.1448,-19.6258 854.7103,-19.2176 858.3069,-18.7868"/>
<polygon fill="#191970" stroke="#191970" points="858.9842,-22.2297 868.4761,-17.5227 858.1207,-15.2831 858.9842,-22.2297"/>
</g>
<!-- Node16&#45;&gt;Node10 -->
<g id="edge24" class="edge">
<title>Node16&#45;&gt;Node10</title>
<path fill="none" stroke="#191970" d="M281.2663,-56.3733C299.4022,-47.4644 326.5826,-34.1127 347.1277,-24.0203"/>
<polygon fill="#191970" stroke="#191970" points="348.8951,-27.0517 356.3275,-19.5011 345.8087,-20.7688 348.8951,-27.0517"/>
</g>
<!-- Node17 -->
<g id="node18" class="node">
<title>Node17</title>
<polygon fill="#ffffff" stroke="#bfbfbf" points="159.6691,-.5 159.6691,-19.5 275.6691,-19.5 275.6691,-.5 159.6691,-.5"/>
<text text-anchor="middle" x="217.6691" y="-7.5" font-family="Helvetica,sans-Serif" font-size="10.00" fill="#000000">AMReX_Interpolater.H</text>
</g>
<!-- Node16&#45;&gt;Node17 -->
<g id="edge26" class="edge">
<title>Node16&#45;&gt;Node17</title>
<path fill="none" stroke="#191970" d="M254.0048,-56.2455C247.8217,-48.3761 238.9627,-37.101 231.5402,-27.6542"/>
<polygon fill="#191970" stroke="#191970" points="234.1758,-25.3435 225.2454,-19.6427 228.6716,-29.6683 234.1758,-25.3435"/>
</g>
<!-- Node18&#45;&gt;Node3 -->
<g id="edge29" class="edge">
<title>Node18&#45;&gt;Node3</title>
<path fill="none" stroke="#191970" d="M269.5776,-112.3987C310.3309,-98.6156 388.6783,-73.0118 456.6691,-56 529.5861,-37.7557 616.6852,-22.4186 661.9408,-14.9252"/>
<polygon fill="#191970" stroke="#191970" points="662.6879,-18.3495 671.9894,-13.2768 661.5547,-11.4418 662.6879,-18.3495"/>
</g>
<!-- Node18&#45;&gt;Node10 -->
<g id="edge30" class="edge">
<title>Node18&#45;&gt;Node10</title>
<path fill="none" stroke="#191970" d="M223.1365,-112.3483C201.1821,-99.6548 169.5011,-76.5494 185.6691,-56 198.5188,-39.668 242.5528,-28.435 284.9959,-21.1599"/>
<polygon fill="#191970" stroke="#191970" points="285.5726,-24.6122 294.8697,-19.5314 284.4334,-17.7055 285.5726,-24.6122"/>
</g>
<!-- Node18&#45;&gt;Node19 -->
<g id="edge31" class="edge">
<title>Node18&#45;&gt;Node19</title>
<path fill="none" stroke="#191970" d="M214.6798,-112.3733C188.7991,-103.1419 149.5443,-89.1402 120.9402,-78.9375"/>
<polygon fill="#191970" stroke="#191970" points="121.9008,-75.5642 111.3061,-75.5011 119.549,-82.1573 121.9008,-75.5642"/>
</g>
<!-- Node20&#45;&gt;Node3 -->
<g id="edge33" class="edge">
<title>Node20&#45;&gt;Node3</title>
<path fill="none" stroke="#191970" d="M692.6691,-112.4509C692.6691,-94.184 692.6691,-53.9553 692.6691,-29.6976"/>
<polygon fill="#191970" stroke="#191970" points="696.1691,-29.5249 692.6691,-19.5249 689.1691,-29.5249 696.1691,-29.5249"/>
</g>
<!-- Node20&#45;&gt;Node6 -->
<g id="edge36" class="edge">
<title>Node20&#45;&gt;Node6</title>
<path fill="none" stroke="#191970" d="M765.9345,-113.8755C818.0281,-106.6556 882.0936,-94.3673 901.6691,-76 914.28,-64.1673 918.7002,-44.5587 920.1626,-29.7825"/>
<polygon fill="#191970" stroke="#191970" points="923.6663,-29.8311 920.7911,-19.6339 916.6796,-29.3984 923.6663,-29.8311"/>
</g>
<!-- Node20&#45;&gt;Node10 -->
<g id="edge34" class="edge">
<title>Node20&#45;&gt;Node10</title>
<path fill="none" stroke="#191970" d="M627.6408,-112.4201C587.0574,-105.1929 534.2434,-93.4847 489.6691,-76 455.6135,-62.6413 419.6075,-40.2083 397.3849,-25.2567"/>
<polygon fill="#191970" stroke="#191970" points="399.2572,-22.297 389.0257,-19.5461 395.3086,-28.077 399.2572,-22.297"/>
</g>
<!-- Node20&#45;&gt;Node11 -->
<g id="edge35" class="edge">
<title>Node20&#45;&gt;Node11</title>
<path fill="none" stroke="#191970" d="M715.5326,-112.3733C737.074,-103.3032 769.5528,-89.6279 793.6646,-79.4755"/>
<polygon fill="#191970" stroke="#191970" points="795.2457,-82.6075 803.1039,-75.5011 792.5293,-76.156 795.2457,-82.6075"/>
</g>
<!-- Node20&#45;&gt;Node12 -->
<g id="edge37" class="edge">
<title>Node20&#45;&gt;Node12</title>
<path fill="none" stroke="#191970" d="M701.1194,-112.1184C712.2062,-99.1762 732.295,-75.8023 749.6691,-56 758.0099,-46.4934 767.3906,-35.9574 775.072,-27.37"/>
<polygon fill="#191970" stroke="#191970" points="777.7604,-29.6145 781.8267,-19.831 772.5469,-24.9433 777.7604,-29.6145"/>
</g>
<!-- Node21 -->
<g id="node22" class="node">
<title>Node21</title>
<polygon fill="#ffffff" stroke="#bfbfbf" points="498.6691,-56.5 498.6691,-75.5 626.6691,-75.5 626.6691,-56.5 498.6691,-56.5"/>
<text text-anchor="middle" x="562.6691" y="-63.5" font-family="Helvetica,sans-Serif" font-size="10.00" fill="#000000">AMReX_PhysBCFunct.H</text>
</g>
<!-- Node20&#45;&gt;Node21 -->
<g id="edge38" class="edge">
<title>Node20&#45;&gt;Node21</title>
<path fill="none" stroke="#191970" d="M670.3213,-112.3733C649.2657,-103.3032 617.5195,-89.6279 593.9516,-79.4755"/>
<polygon fill="#191970" stroke="#191970" points="595.2941,-76.243 584.7252,-75.5011 592.5247,-82.6719 595.2941,-76.243"/>
</g>
<!-- Node23&#45;&gt;Node15 -->
<g id="edge50" class="edge">
<title>Node23&#45;&gt;Node15</title>
<path fill="none" stroke="#191970" d="M1018.9459,-240.7218C923.1117,-228.181 757.6678,-206.5311 660.0843,-193.7614"/>
<polygon fill="#191970" stroke="#191970" points="660.3548,-190.267 649.9852,-192.4398 659.4465,-197.2078 660.3548,-190.267"/>
</g>
<!-- Node24 -->
<g id="node25" class="node">
<title>Node24</title>
<g id="a_node25"><a xlink:href="_field_b_c_ops_8_h.html" target="_top" xlink:title="amr&#45;wind/core/FieldBCOps.H">
<polygon fill="#ffffff" stroke="#000000" points="1021.1691,-174 1021.1691,-193 1166.1691,-193 1166.1691,-174 1021.1691,-174"/>
<text text-anchor="middle" x="1093.6691" y="-181" font-family="Helvetica,sans-Serif" font-size="10.00" fill="#000000">amr&#45;wind/core/FieldBCOps.H</text>
</a>
</g>
</g>
<!-- Node23&#45;&gt;Node24 -->
<g id="edge43" class="edge">
<title>Node23&#45;&gt;Node24</title>
<path fill="none" stroke="#191970" d="M1093.6691,-235.2967C1093.6691,-225.7699 1093.6691,-213.3954 1093.6691,-203.1306"/>
<polygon fill="#191970" stroke="#191970" points="1097.1692,-203.0549 1093.6691,-193.055 1090.1692,-203.055 1097.1692,-203.0549"/>
</g>
<!-- Node27 -->
<g id="node28" class="node">
<title>Node27</title>
<polygon fill="#ffffff" stroke="#bfbfbf" points="1184.6691,-174 1184.6691,-193 1298.6691,-193 1298.6691,-174 1184.6691,-174"/>
<text text-anchor="middle" x="1241.6691" y="-181" font-family="Helvetica,sans-Serif" font-size="10.00" fill="#000000">AMReX_Orientation.H</text>
</g>
<!-- Node23&#45;&gt;Node27 -->
<g id="edge51" class="edge">
<title>Node23&#45;&gt;Node27</title>
<path fill="none" stroke="#191970" d="M1126.8831,-235.4639C1152.1631,-224.0196 1186.6783,-208.3945 1211.2429,-197.274"/>
<polygon fill="#191970" stroke="#191970" points="1212.7879,-200.4166 1220.4544,-193.1039 1209.901,-194.0396 1212.7879,-200.4166"/>
</g>
<!-- Node24&#45;&gt;Node2 -->
<g id="edge45" class="edge">
<title>Node24&#45;&gt;Node2</title>
<path fill="none" stroke="#191970" d="M1093.6691,-173.8906C1093.6691,-165.3657 1093.6691,-152.6392 1093.6691,-141.9235"/>
<polygon fill="#191970" stroke="#191970" points="1097.1691,-141.7448 1093.6691,-131.7449 1090.1691,-141.7449 1097.1691,-141.7448"/>
</g>
<!-- Node24&#45;&gt;Node8 -->
<g id="edge46" class="edge">
<title>Node24&#45;&gt;Node8</title>
<path fill="none" stroke="#191970" d="M1104.7976,-173.8355C1123.1116,-158.4356 1161.3091,-128.3984 1198.6691,-112 1245.3636,-91.5044 1302.4619,-79.4604 1343.1418,-72.8741"/>
<polygon fill="#191970" stroke="#191970" points="1343.7745,-76.3178 1353.1141,-71.3154 1342.6935,-69.4017 1343.7745,-76.3178"/>
</g>
<!-- Node24&#45;&gt;Node10 -->
<g id="edge44" class="edge">
<title>Node24&#45;&gt;Node10</title>
<path fill="none" stroke="#191970" d="M1020.7249,-178.6624C900.3542,-170.2528 665.4047,-151.9209 584.6691,-132 520.0055,-116.0448 501.7605,-111.9125 445.6691,-76 424.5031,-62.4485 404.0355,-42.0261 390.7575,-27.4915"/>
<polygon fill="#191970" stroke="#191970" points="393.0871,-24.8451 383.8195,-19.7106 387.8624,-29.5038 393.0871,-24.8451"/>
</g>
<!-- Node24&#45;&gt;Node21 -->
<g id="edge49" class="edge">
<title>Node24&#45;&gt;Node21</title>
<path fill="none" stroke="#191970" d="M1020.8266,-178.993C894.6076,-170.7046 645.3487,-152.0461 610.6691,-132 592.1545,-121.2979 578.7861,-100.2723 570.9318,-84.817"/>
<polygon fill="#191970" stroke="#191970" points="574.0199,-83.1607 566.5679,-75.6295 567.6969,-86.164 574.0199,-83.1607"/>
</g>
<!-- Node25 -->
<g id="node26" class="node">
<title>Node25</title>
<polygon fill="#ffffff" stroke="#bfbfbf" points="1207.1691,-112.5 1207.1691,-131.5 1320.1691,-131.5 1320.1691,-112.5 1207.1691,-112.5"/>
<text text-anchor="middle" x="1263.6691" y="-119.5" font-family="Helvetica,sans-Serif" font-size="10.00" fill="#000000">AMReX_FArrayBox.H</text>
</g>
<!-- Node24&#45;&gt;Node25 -->
<g id="edge47" class="edge">
<title>Node24&#45;&gt;Node25</title>
<path fill="none" stroke="#191970" d="M1120.2316,-173.8906C1149.1747,-163.42 1195.6385,-146.6111 1227.8047,-134.9745"/>
<polygon fill="#191970" stroke="#191970" points="1229.0802,-138.2351 1237.2931,-131.5419 1226.6988,-131.6526 1229.0802,-138.2351"/>
</g>
<!-- Node26 -->
<g id="node27" class="node">
<title>Node26</title>
<polygon fill="#ffffff" stroke="#bfbfbf" points="1338.6691,-112.5 1338.6691,-131.5 1448.6691,-131.5 1448.6691,-112.5 1338.6691,-112.5"/>
<text text-anchor="middle" x="1393.6691" y="-119.5" font-family="Helvetica,sans-Serif" font-size="10.00" fill="#000000">AMReX_Geometry.H</text>
</g>
<!-- Node24&#45;&gt;Node26 -->
<g id="edge48" class="edge">
<title>Node24&#45;&gt;Node26</title>
<path fill="none" stroke="#191970" d="M1140.2149,-173.9581C1193.3128,-163.073 1280.132,-145.2751 1337.091,-133.5985"/>
<polygon fill="#191970" stroke="#191970" points="1337.9206,-137.0013 1347.014,-131.5643 1336.5148,-130.1439 1337.9206,-137.0013"/>
</g>
</g>
</svg>
