<?xml version="1.0" encoding="UTF-8" standalone="no"?>
<!DOCTYPE svg PUBLIC "-//W3C//DTD SVG 1.1//EN"
 "http://www.w3.org/Graphics/SVG/1.1/DTD/svg11.dtd">
<!-- Generated by graphviz version 2.40.1 (20161225.0304)
 -->
<!-- Title: BoussinesqBubble.H Pages: 1 -->
<svg width="1776pt" height="207pt"
 viewBox="0.00 0.00 1775.50 207.00" xmlns="http://www.w3.org/2000/svg" xmlns:xlink="http://www.w3.org/1999/xlink">
<g id="graph0" class="graph" transform="scale(1 1) rotate(0) translate(4 203)">
<title>BoussinesqBubble.H</title>
<polygon fill="#ffffff" stroke="transparent" points="-4,4 -4,-203 1771.5,-203 1771.5,4 -4,4"/>
<!-- Node0 -->
<g id="node1" class="node">
<title>Node0</title>
<polygon fill="#bfbfbf" stroke="#000000" points="735,-179.5 735,-198.5 843,-198.5 843,-179.5 735,-179.5"/>
<text text-anchor="middle" x="789" y="-186.5" font-family="Helvetica,sans-Serif" font-size="10.00" fill="#000000">BoussinesqBubble.H</text>
</g>
<!-- Node1 -->
<g id="node2" class="node">
<title>Node1</title>
<g id="a_node2"><a xlink:href="_physics_8_h.html" target="_top" xlink:title="amr&#45;wind/core/Physics.H">
<polygon fill="#ffffff" stroke="#000000" points="311.5,-118 311.5,-137 438.5,-137 438.5,-118 311.5,-118"/>
<text text-anchor="middle" x="375" y="-125" font-family="Helvetica,sans-Serif" font-size="10.00" fill="#000000">amr&#45;wind/core/Physics.H</text>
</a>
</g>
</g>
<!-- Node0&#45;&gt;Node1 -->
<g id="edge1" class="edge">
<title>Node0&#45;&gt;Node1</title>
<path fill="none" stroke="#191970" d="M734.8767,-180.9599C661.6564,-170.083 530.7774,-150.6408 448.6527,-138.4412"/>
<polygon fill="#191970" stroke="#191970" points="449.0446,-134.9611 438.6389,-136.9536 448.016,-141.8851 449.0446,-134.9611"/>
</g>
<!-- Node13 -->
<g id="node14" class="node">
<title>Node13</title>
<g id="a_node14"><a xlink:href="_boussinesq_bubble_field_init_8_h.html" target="_top" xlink:title="amr&#45;wind/physics/Boussinesq\lBubbleFieldInit.H">
<polygon fill="#ffffff" stroke="#000000" points="715.5,-112.5 715.5,-142.5 862.5,-142.5 862.5,-112.5 715.5,-112.5"/>
<text text-anchor="start" x="723.5" y="-130.5" font-family="Helvetica,sans-Serif" font-size="10.00" fill="#000000">amr&#45;wind/physics/Boussinesq</text>
<text text-anchor="middle" x="789" y="-119.5" font-family="Helvetica,sans-Serif" font-size="10.00" fill="#000000">BubbleFieldInit.H</text>
</a>
</g>
</g>
<!-- Node0&#45;&gt;Node13 -->
<g id="edge15" class="edge">
<title>Node0&#45;&gt;Node13</title>
<path fill="none" stroke="#191970" d="M789,-179.3906C789,-172.2234 789,-162.0862 789,-152.671"/>
<polygon fill="#191970" stroke="#191970" points="792.5001,-152.5446 789,-142.5446 785.5001,-152.5446 792.5001,-152.5446"/>
</g>
<!-- Node19 -->
<g id="node20" class="node">
<title>Node19</title>
<g id="a_node20"><a xlink:href="_field_8_h.html" target="_top" xlink:title="amr&#45;wind/core/Field.H">
<polygon fill="#ffffff" stroke="#000000" points="1176.5,-118 1176.5,-137 1289.5,-137 1289.5,-118 1176.5,-118"/>
<text text-anchor="middle" x="1233" y="-125" font-family="Helvetica,sans-Serif" font-size="10.00" fill="#000000">amr&#45;wind/core/Field.H</text>
</a>
</g>
</g>
<!-- Node0&#45;&gt;Node19 -->
<g id="edge23" class="edge">
<title>Node0&#45;&gt;Node19</title>
<path fill="none" stroke="#191970" d="M843.4431,-181.4589C924.8563,-170.1821 1078.147,-148.9492 1166.2131,-136.7509"/>
<polygon fill="#191970" stroke="#191970" points="1166.9333,-140.1846 1176.3584,-135.3456 1165.9728,-133.2508 1166.9333,-140.1846"/>
</g>
<!-- Node2 -->
<g id="node3" class="node">
<title>Node2</title>
<g id="a_node3"><a xlink:href="_factory_8_h.html" target="_top" xlink:title="amr&#45;wind/core/Factory.H">
<polygon fill="#ffffff" stroke="#000000" points="78.5,-56.5 78.5,-75.5 203.5,-75.5 203.5,-56.5 78.5,-56.5"/>
<text text-anchor="middle" x="141" y="-63.5" font-family="Helvetica,sans-Serif" font-size="10.00" fill="#000000">amr&#45;wind/core/Factory.H</text>
</a>
</g>
</g>
<!-- Node1&#45;&gt;Node2 -->
<g id="edge2" class="edge">
<title>Node1&#45;&gt;Node2</title>
<path fill="none" stroke="#191970" d="M338.6942,-117.9581C297.8781,-107.2308 231.5162,-89.7895 187.077,-78.11"/>
<polygon fill="#191970" stroke="#191970" points="187.9522,-74.7212 177.3909,-75.5643 186.1728,-81.4913 187.9522,-74.7212"/>
</g>
<!-- Node8 -->
<g id="node9" class="node">
<title>Node8</title>
<g id="a_node9"><a xlink:href="_coll_mgr_8_h.html" target="_top" xlink:title="amr&#45;wind/core/CollMgr.H">
<polygon fill="#ffffff" stroke="#000000" points="221.5,-56.5 221.5,-75.5 346.5,-75.5 346.5,-56.5 221.5,-56.5"/>
<text text-anchor="middle" x="284" y="-63.5" font-family="Helvetica,sans-Serif" font-size="10.00" fill="#000000">amr&#45;wind/core/CollMgr.H</text>
</a>
</g>
</g>
<!-- Node1&#45;&gt;Node8 -->
<g id="edge8" class="edge">
<title>Node1&#45;&gt;Node8</title>
<path fill="none" stroke="#191970" d="M360.7813,-117.8906C346.3566,-108.1421 323.8024,-92.8994 306.864,-81.4521"/>
<polygon fill="#191970" stroke="#191970" points="308.3641,-78.2415 298.1189,-75.5419 304.4444,-84.0412 308.3641,-78.2415"/>
</g>
<!-- Node11 -->
<g id="node12" class="node">
<title>Node11</title>
<polygon fill="#ffffff" stroke="#bfbfbf" points="1482,-.5 1482,-19.5 1586,-19.5 1586,-.5 1482,-.5"/>
<text text-anchor="middle" x="1534" y="-7.5" font-family="Helvetica,sans-Serif" font-size="10.00" fill="#000000">AMReX_MultiFab.H</text>
</g>
<!-- Node1&#45;&gt;Node11 -->
<g id="edge13" class="edge">
<title>Node1&#45;&gt;Node11</title>
<path fill="none" stroke="#191970" d="M374.3124,-117.9912C373.7594,-102.2491 375.2592,-71.022 394,-56 404.6008,-47.5027 1235.0215,-19.7621 1471.6895,-12.0218"/>
<polygon fill="#191970" stroke="#191970" points="1471.9659,-15.5147 1481.8463,-11.69 1471.7373,-8.5185 1471.9659,-15.5147"/>
</g>
<!-- Node12 -->
<g id="node13" class="node">
<title>Node12</title>
<polygon fill="#ffffff" stroke="#bfbfbf" points="403,-56.5 403,-75.5 513,-75.5 513,-56.5 403,-56.5"/>
<text text-anchor="middle" x="458" y="-63.5" font-family="Helvetica,sans-Serif" font-size="10.00" fill="#000000">AMReX_Geometry.H</text>
</g>
<!-- Node1&#45;&gt;Node12 -->
<g id="edge14" class="edge">
<title>Node1&#45;&gt;Node12</title>
<path fill="none" stroke="#191970" d="M387.9688,-117.8906C401.0034,-108.2324 421.3164,-93.1812 436.7155,-81.771"/>
<polygon fill="#191970" stroke="#191970" points="439.1713,-84.3075 445.1223,-75.5419 435.0039,-78.6832 439.1713,-84.3075"/>
</g>
<!-- Node3 -->
<g id="node4" class="node">
<title>Node3</title>
<polygon fill="#ffffff" stroke="#bfbfbf" points="258,-.5 258,-19.5 310,-19.5 310,-.5 258,-.5"/>
<text text-anchor="middle" x="284" y="-7.5" font-family="Helvetica,sans-Serif" font-size="10.00" fill="#000000">memory</text>
</g>
<!-- Node2&#45;&gt;Node3 -->
<g id="edge3" class="edge">
<title>Node2&#45;&gt;Node3</title>
<path fill="none" stroke="#191970" d="M165.5826,-56.3733C188.9496,-47.2226 224.2862,-33.3844 250.2784,-23.2057"/>
<polygon fill="#191970" stroke="#191970" points="251.703,-26.4066 259.7382,-19.5011 249.1505,-19.8886 251.703,-26.4066"/>
</g>
<!-- Node4 -->
<g id="node5" class="node">
<title>Node4</title>
<polygon fill="#ffffff" stroke="#bfbfbf" points="328.5,-.5 328.5,-19.5 411.5,-19.5 411.5,-.5 328.5,-.5"/>
<text text-anchor="middle" x="370" y="-7.5" font-family="Helvetica,sans-Serif" font-size="10.00" fill="#000000">unordered_map</text>
</g>
<!-- Node2&#45;&gt;Node4 -->
<g id="edge4" class="edge">
<title>Node2&#45;&gt;Node4</title>
<path fill="none" stroke="#191970" d="M180.1063,-56.4369C219.1332,-46.8932 279.1965,-32.2052 321.2962,-21.9101"/>
<polygon fill="#191970" stroke="#191970" points="322.1726,-25.299 331.055,-19.5237 320.5098,-18.4993 322.1726,-25.299"/>
</g>
<!-- Node5 -->
<g id="node6" class="node">
<title>Node5</title>
<polygon fill="#ffffff" stroke="#bfbfbf" points="80,-.5 80,-19.5 134,-19.5 134,-.5 80,-.5"/>
<text text-anchor="middle" x="107" y="-7.5" font-family="Helvetica,sans-Serif" font-size="10.00" fill="#000000">iostream</text>
</g>
<!-- Node2&#45;&gt;Node5 -->
<g id="edge5" class="edge">
<title>Node2&#45;&gt;Node5</title>
<path fill="none" stroke="#191970" d="M135.0777,-56.2455C130.3973,-48.5367 123.7327,-37.5598 118.0711,-28.2348"/>
<polygon fill="#191970" stroke="#191970" points="121.0361,-26.3741 112.8545,-19.6427 115.0525,-30.007 121.0361,-26.3741"/>
</g>
<!-- Node6 -->
<g id="node7" class="node">
<title>Node6</title>
<polygon fill="#ffffff" stroke="#bfbfbf" points="152.5,-.5 152.5,-19.5 239.5,-19.5 239.5,-.5 152.5,-.5"/>
<text text-anchor="middle" x="196" y="-7.5" font-family="Helvetica,sans-Serif" font-size="10.00" fill="#000000">AMReX_Print.H</text>
</g>
<!-- Node2&#45;&gt;Node6 -->
<g id="edge6" class="edge">
<title>Node2&#45;&gt;Node6</title>
<path fill="none" stroke="#191970" d="M150.5803,-56.2455C158.5458,-48.1352 170.0641,-36.4075 179.5079,-26.7919"/>
<polygon fill="#191970" stroke="#191970" points="182.0195,-29.2297 186.5295,-19.6427 177.0253,-24.3247 182.0195,-29.2297"/>
</g>
<!-- Node7 -->
<g id="node8" class="node">
<title>Node7</title>
<polygon fill="#ffffff" stroke="#bfbfbf" points="0,-.5 0,-19.5 62,-19.5 62,-.5 0,-.5"/>
<text text-anchor="middle" x="31" y="-7.5" font-family="Helvetica,sans-Serif" font-size="10.00" fill="#000000">AMReX.H</text>
</g>
<!-- Node2&#45;&gt;Node7 -->
<g id="edge7" class="edge">
<title>Node2&#45;&gt;Node7</title>
<path fill="none" stroke="#191970" d="M121.8395,-56.2455C104.4889,-47.4125 78.7099,-34.2887 59.0417,-24.2758"/>
<polygon fill="#191970" stroke="#191970" points="60.4405,-21.0605 49.941,-19.6427 57.2647,-27.2986 60.4405,-21.0605"/>
</g>
<!-- Node8&#45;&gt;Node3 -->
<g id="edge10" class="edge">
<title>Node8&#45;&gt;Node3</title>
<path fill="none" stroke="#191970" d="M284,-56.2455C284,-48.9382 284,-38.6944 284,-29.7046"/>
<polygon fill="#191970" stroke="#191970" points="287.5001,-29.6426 284,-19.6427 280.5001,-29.6427 287.5001,-29.6426"/>
</g>
<!-- Node8&#45;&gt;Node4 -->
<g id="edge11" class="edge">
<title>Node8&#45;&gt;Node4</title>
<path fill="none" stroke="#191970" d="M298.9801,-56.2455C312.1751,-47.6534 331.6051,-35.0014 346.8079,-25.1018"/>
<polygon fill="#191970" stroke="#191970" points="348.7215,-28.0325 355.1916,-19.6427 344.9017,-22.1665 348.7215,-28.0325"/>
</g>
<!-- Node9 -->
<g id="node10" class="node">
<title>Node9</title>
<polygon fill="#ffffff" stroke="#bfbfbf" points="1173.5,-.5 1173.5,-19.5 1214.5,-19.5 1214.5,-.5 1173.5,-.5"/>
<text text-anchor="middle" x="1194" y="-7.5" font-family="Helvetica,sans-Serif" font-size="10.00" fill="#000000">string</text>
</g>
<!-- Node8&#45;&gt;Node9 -->
<g id="edge9" class="edge">
<title>Node8&#45;&gt;Node9</title>
<path fill="none" stroke="#191970" d="M346.5711,-57.4722C351.4486,-56.9302 356.3016,-56.4305 361,-56 658.4053,-28.7491 733.8446,-37.2003 1032,-20 1077.6207,-17.3682 1130.4506,-14.0579 1163.0493,-11.9848"/>
<polygon fill="#191970" stroke="#191970" points="1163.5323,-15.4612 1173.2893,-11.332 1163.0868,-8.4754 1163.5323,-15.4612"/>
</g>
<!-- Node10 -->
<g id="node11" class="node">
<title>Node10</title>
<polygon fill="#ffffff" stroke="#bfbfbf" points="928.5,-.5 928.5,-19.5 1023.5,-19.5 1023.5,-.5 928.5,-.5"/>
<text text-anchor="middle" x="976" y="-7.5" font-family="Helvetica,sans-Serif" font-size="10.00" fill="#000000">AMReX_Vector.H</text>
</g>
<!-- Node8&#45;&gt;Node10 -->
<g id="edge12" class="edge">
<title>Node8&#45;&gt;Node10</title>
<path fill="none" stroke="#191970" d="M346.5818,-57.5827C351.4569,-57.0156 356.3064,-56.48 361,-56 565.5645,-35.0819 809.3294,-19.6602 918.3443,-13.261"/>
<polygon fill="#191970" stroke="#191970" points="918.6887,-16.747 928.4677,-12.67 918.2806,-9.7589 918.6887,-16.747"/>
</g>
<!-- Node13&#45;&gt;Node10 -->
<g id="edge21" class="edge">
<title>Node13&#45;&gt;Node10</title>
<path fill="none" stroke="#191970" d="M860.8814,-112.4033C899.5708,-102.9407 942.1427,-89.9254 956,-76 968.1138,-63.8267 972.9316,-44.5749 974.8263,-29.9985"/>
<polygon fill="#191970" stroke="#191970" points="978.3187,-30.2434 975.7779,-19.9578 971.3499,-29.5829 978.3187,-30.2434"/>
</g>
<!-- Node13&#45;&gt;Node12 -->
<g id="edge19" class="edge">
<title>Node13&#45;&gt;Node12</title>
<path fill="none" stroke="#191970" d="M715.1291,-113.7747C656.2062,-102.8268 574.6559,-87.6747 519.309,-77.3912"/>
<polygon fill="#191970" stroke="#191970" points="519.7619,-73.9156 509.2908,-75.5299 518.4831,-80.7978 519.7619,-73.9156"/>
</g>
<!-- Node14 -->
<g id="node15" class="node">
<title>Node14</title>
<polygon fill="#ffffff" stroke="#bfbfbf" points="744,-56.5 744,-75.5 834,-75.5 834,-56.5 744,-56.5"/>
<text text-anchor="middle" x="789" y="-63.5" font-family="Helvetica,sans-Serif" font-size="10.00" fill="#000000">AMReX_Array.H</text>
</g>
<!-- Node13&#45;&gt;Node14 -->
<g id="edge16" class="edge">
<title>Node13&#45;&gt;Node14</title>
<path fill="none" stroke="#191970" d="M789,-112.2977C789,-104.3834 789,-94.6043 789,-86.0759"/>
<polygon fill="#191970" stroke="#191970" points="792.5001,-85.8469 789,-75.8469 785.5001,-85.847 792.5001,-85.8469"/>
</g>
<!-- Node15 -->
<g id="node16" class="node">
<title>Node15</title>
<polygon fill="#ffffff" stroke="#bfbfbf" points="852.5,-56.5 852.5,-75.5 947.5,-75.5 947.5,-56.5 852.5,-56.5"/>
<text text-anchor="middle" x="900" y="-63.5" font-family="Helvetica,sans-Serif" font-size="10.00" fill="#000000">AMReX_Array4.H</text>
</g>
<!-- Node13&#45;&gt;Node15 -->
<g id="edge17" class="edge">
<title>Node13&#45;&gt;Node15</title>
<path fill="none" stroke="#191970" d="M816.1537,-112.4554C833.6995,-102.734 856.4122,-90.15 873.7721,-80.5317"/>
<polygon fill="#191970" stroke="#191970" points="875.748,-83.4383 882.7989,-75.5303 872.3555,-77.3153 875.748,-83.4383"/>
</g>
<!-- Node16 -->
<g id="node17" class="node">
<title>Node16</title>
<polygon fill="#ffffff" stroke="#bfbfbf" points="531,-56.5 531,-75.5 615,-75.5 615,-56.5 531,-56.5"/>
<text text-anchor="middle" x="573" y="-63.5" font-family="Helvetica,sans-Serif" font-size="10.00" fill="#000000">AMReX_Box.H</text>
</g>
<!-- Node13&#45;&gt;Node16 -->
<g id="edge18" class="edge">
<title>Node13&#45;&gt;Node16</title>
<path fill="none" stroke="#191970" d="M736.1605,-112.4554C699.3299,-101.9689 650.8002,-88.1515 616.2655,-78.3187"/>
<polygon fill="#191970" stroke="#191970" points="617.0486,-74.9026 606.4723,-75.5303 615.1316,-81.635 617.0486,-74.9026"/>
</g>
<!-- Node17 -->
<g id="node18" class="node">
<title>Node17</title>
<polygon fill="#ffffff" stroke="#bfbfbf" points="632.5,-56.5 632.5,-75.5 725.5,-75.5 725.5,-56.5 632.5,-56.5"/>
<text text-anchor="middle" x="679" y="-63.5" font-family="Helvetica,sans-Serif" font-size="10.00" fill="#000000">AMReX_REAL.H</text>
</g>
<!-- Node13&#45;&gt;Node17 -->
<g id="edge20" class="edge">
<title>Node13&#45;&gt;Node17</title>
<path fill="none" stroke="#191970" d="M762.091,-112.4554C744.7032,-102.734 722.1951,-90.15 704.9916,-80.5317"/>
<polygon fill="#191970" stroke="#191970" points="706.4826,-77.3554 696.0461,-75.5303 703.0665,-83.4653 706.4826,-77.3554"/>
</g>
<!-- Node18 -->
<g id="node19" class="node">
<title>Node18</title>
<polygon fill="#ffffff" stroke="#bfbfbf" points="1004.5,-56.5 1004.5,-75.5 1089.5,-75.5 1089.5,-56.5 1004.5,-56.5"/>
<text text-anchor="middle" x="1047" y="-63.5" font-family="Helvetica,sans-Serif" font-size="10.00" fill="#000000">AMReX_Gpu.H</text>
</g>
<!-- Node13&#45;&gt;Node18 -->
<g id="edge22" class="edge">
<title>Node13&#45;&gt;Node18</title>
<path fill="none" stroke="#191970" d="M852.1139,-112.4554C896.7667,-101.8114 955.8166,-87.7356 997.1692,-77.8783"/>
<polygon fill="#191970" stroke="#191970" points="998.1033,-81.2538 1007.0192,-75.5303 996.4801,-74.4445 998.1033,-81.2538"/>
</g>
<!-- Node19&#45;&gt;Node3 -->
<g id="edge25" class="edge">
<title>Node19&#45;&gt;Node3</title>
<path fill="none" stroke="#191970" d="M1213.4561,-117.9702C1192.977,-107.8831 1159.9576,-91.3325 1132,-76 1116.6283,-67.5698 1114.8048,-60.9956 1098,-56 934.8895,-7.5118 505.8961,-46.527 320.2228,-19.7455"/>
<polygon fill="#191970" stroke="#191970" points="320.642,-16.2688 310.2245,-18.1995 319.5722,-23.1866 320.642,-16.2688"/>
</g>
<!-- Node19&#45;&gt;Node4 -->
<g id="edge26" class="edge">
<title>Node19&#45;&gt;Node4</title>
<path fill="none" stroke="#191970" d="M1223.4722,-117.8819C1206.7118,-101.6788 1170.1022,-69.3992 1132,-56 1065.439,-32.5928 582.3494,-16.2978 421.753,-11.4792"/>
<polygon fill="#191970" stroke="#191970" points="421.7488,-7.9777 411.6491,-11.1785 421.5405,-14.9746 421.7488,-7.9777"/>
</g>
<!-- Node19&#45;&gt;Node9 -->
<g id="edge24" class="edge">
<title>Node19&#45;&gt;Node9</title>
<path fill="none" stroke="#191970" d="M1228.8996,-117.7236C1224.6565,-107.4355 1217.9668,-90.7231 1213,-76 1207.8189,-60.6416 1202.7828,-42.9842 1199.1986,-29.7999"/>
<polygon fill="#191970" stroke="#191970" points="1202.5228,-28.6821 1196.5581,-19.9258 1195.7604,-30.4906 1202.5228,-28.6821"/>
</g>
<!-- Node19&#45;&gt;Node11 -->
<g id="edge27" class="edge">
<title>Node19&#45;&gt;Node11</title>
<path fill="none" stroke="#191970" d="M1289.5374,-124.2188C1393.612,-117.5985 1606.9529,-101.1 1629,-76 1648.9636,-53.272 1612.5434,-34.4401 1579.1803,-22.7882"/>
<polygon fill="#191970" stroke="#191970" points="1580.0403,-19.3857 1569.4468,-19.5506 1577.831,-26.028 1580.0403,-19.3857"/>
</g>
<!-- Node19&#45;&gt;Node18 -->
<g id="edge29" class="edge">
<title>Node19&#45;&gt;Node18</title>
<path fill="none" stroke="#191970" d="M1203.9375,-117.8906C1172.1338,-107.3749 1120.9949,-90.466 1085.7856,-78.8243"/>
<polygon fill="#191970" stroke="#191970" points="1086.4517,-75.3582 1075.8584,-75.5419 1084.2541,-82.0043 1086.4517,-75.3582"/>
</g>
<!-- Node20 -->
<g id="node21" class="node">
<title>Node20</title>
<polygon fill="#ffffff" stroke="#bfbfbf" points="1222.5,-56.5 1222.5,-75.5 1321.5,-75.5 1321.5,-56.5 1222.5,-56.5"/>
<text text-anchor="middle" x="1272" y="-63.5" font-family="Helvetica,sans-Serif" font-size="10.00" fill="#000000">AMReX_BCRec.H</text>
</g>
<!-- Node19&#45;&gt;Node20 -->
<g id="edge28" class="edge">
<title>Node19&#45;&gt;Node20</title>
<path fill="none" stroke="#191970" d="M1239.0938,-117.8906C1244.7843,-108.917 1253.4272,-95.2879 1260.4274,-84.2491"/>
<polygon fill="#191970" stroke="#191970" points="1263.4207,-86.0644 1265.8203,-75.7449 1257.5091,-82.3155 1263.4207,-86.0644"/>
</g>
<!-- Node21 -->
<g id="node22" class="node">
<title>Node21</title>
<g id="a_node22"><a xlink:href="incflo__enums_8_h.html" target="_top" xlink:title="amr&#45;wind/incflo_enums.H">
<polygon fill="#ffffff" stroke="#000000" points="1340,-56.5 1340,-75.5 1468,-75.5 1468,-56.5 1340,-56.5"/>
<text text-anchor="middle" x="1404" y="-63.5" font-family="Helvetica,sans-Serif" font-size="10.00" fill="#000000">amr&#45;wind/incflo_enums.H</text>
</a>
</g>
</g>
<!-- Node19&#45;&gt;Node21 -->
<g id="edge30" class="edge">
<title>Node19&#45;&gt;Node21</title>
<path fill="none" stroke="#191970" d="M1259.7188,-117.8906C1288.8321,-107.42 1335.5692,-90.6111 1367.9247,-78.9745"/>
<polygon fill="#191970" stroke="#191970" points="1369.2435,-82.2197 1377.4689,-75.5419 1366.8744,-75.6328 1369.2435,-82.2197"/>
</g>
<!-- Node22 -->
<g id="node23" class="node">
<title>Node22</title>
<g id="a_node23"><a xlink:href="_field_desc_types_8_h.html" target="_top" xlink:title="amr&#45;wind/core/FieldDescTypes.H">
<polygon fill="#ffffff" stroke="#000000" points="1604.5,-.5 1604.5,-19.5 1767.5,-19.5 1767.5,-.5 1604.5,-.5"/>
<text text-anchor="middle" x="1686" y="-7.5" font-family="Helvetica,sans-Serif" font-size="10.00" fill="#000000">amr&#45;wind/core/FieldDescTypes.H</text>
</a>
</g>
</g>
<!-- Node19&#45;&gt;Node22 -->
<g id="edge31" class="edge">
<title>Node19&#45;&gt;Node22</title>
<path fill="none" stroke="#191970" d="M1289.5345,-126.3604C1388.3185,-123.4121 1587.3332,-112.9334 1645,-76 1661.9821,-65.1236 1673.1122,-44.442 1679.4337,-29.1167"/>
<polygon fill="#191970" stroke="#191970" points="1682.7885,-30.1403 1683.0547,-19.5488 1676.2416,-27.6626 1682.7885,-30.1403"/>
</g>
<!-- Node23 -->
<g id="node24" class="node">
<title>Node23</title>
<g id="a_node24"><a xlink:href="_view_field_8_h.html" target="_top" xlink:title="amr&#45;wind/core/ViewField.H">
<polygon fill="#ffffff" stroke="#000000" points="1486,-56.5 1486,-75.5 1620,-75.5 1620,-56.5 1486,-56.5"/>
<text text-anchor="middle" x="1553" y="-63.5" font-family="Helvetica,sans-Serif" font-size="10.00" fill="#000000">amr&#45;wind/core/ViewField.H</text>
</a>
</g>
</g>
<!-- Node19&#45;&gt;Node23 -->
<g id="edge32" class="edge">
<title>Node19&#45;&gt;Node23</title>
<path fill="none" stroke="#191970" d="M1282.6489,-117.9581C1339.6044,-107.012 1432.9338,-89.0752 1493.6694,-77.4026"/>
<polygon fill="#191970" stroke="#191970" points="1494.3382,-80.8382 1503.4979,-75.5137 1493.017,-73.964 1494.3382,-80.8382"/>
</g>
<!-- Node23&#45;&gt;Node9 -->
<g id="edge33" class="edge">
<title>Node23&#45;&gt;Node9</title>
<path fill="none" stroke="#191970" d="M1491.6936,-56.4369C1414.2082,-44.35 1283.8269,-24.012 1224.7469,-14.7962"/>
<polygon fill="#191970" stroke="#191970" points="1224.9939,-11.2925 1214.574,-13.2093 1223.915,-18.2088 1224.9939,-11.2925"/>
</g>
<!-- Node23&#45;&gt;Node10 -->
<g id="edge36" class="edge">
<title>Node23&#45;&gt;Node10</title>
<path fill="none" stroke="#191970" d="M1485.8807,-57.0232C1482.8806,-56.6678 1479.9097,-56.3249 1477,-56 1316.7737,-38.1101 1127.1462,-22.1042 1033.8114,-14.5659"/>
<polygon fill="#191970" stroke="#191970" points="1033.976,-11.0679 1023.7274,-13.7541 1033.4143,-18.0453 1033.976,-11.0679"/>
</g>
<!-- Node23&#45;&gt;Node11 -->
<g id="edge35" class="edge">
<title>Node23&#45;&gt;Node11</title>
<path fill="none" stroke="#191970" d="M1549.6905,-56.2455C1547.1567,-48.7776 1543.5823,-38.2427 1540.485,-29.1137"/>
<polygon fill="#191970" stroke="#191970" points="1543.7991,-27.9879 1537.2716,-19.6427 1537.1702,-30.237 1543.7991,-27.9879"/>
</g>
<!-- Node23&#45;&gt;Node22 -->
<g id="edge34" class="edge">
<title>Node23&#45;&gt;Node22</title>
<path fill="none" stroke="#191970" d="M1575.8635,-56.3733C1597.405,-47.3032 1629.8838,-33.6279 1653.9956,-23.4755"/>
<polygon fill="#191970" stroke="#191970" points="1655.5767,-26.6075 1663.4348,-19.5011 1652.8603,-20.156 1655.5767,-26.6075"/>
</g>
</g>
</svg>
