<?xml version="1.0" encoding="UTF-8" standalone="no"?>
<!DOCTYPE svg PUBLIC "-//W3C//DTD SVG 1.1//EN"
 "http://www.w3.org/Graphics/SVG/1.1/DTD/svg11.dtd">
<!-- Generated by graphviz version 2.40.1 (20161225.0304)
 -->
<!-- Title: CFDSim.H Pages: 1 -->
<svg width="4985pt" height="196pt"
 viewBox="0.00 0.00 4985.00 196.00" xmlns="http://www.w3.org/2000/svg" xmlns:xlink="http://www.w3.org/1999/xlink">
<g id="graph0" class="graph" transform="scale(1 1) rotate(0) translate(4 192)">
<title>CFDSim.H</title>
<polygon fill="#ffffff" stroke="transparent" points="-4,4 -4,-192 4981,-192 4981,4 -4,4"/>
<!-- Node34 -->
<g id="node1" class="node">
<title>Node34</title>
<polygon fill="#bfbfbf" stroke="#000000" points="2199.5,-168.5 2199.5,-187.5 2264.5,-187.5 2264.5,-168.5 2199.5,-168.5"/>
<text text-anchor="middle" x="2232" y="-175.5" font-family="Helvetica,sans-Serif" font-size="10.00" fill="#000000">CFDSim.H</text>
</g>
<!-- Node35 -->
<g id="node2" class="node">
<title>Node35</title>
<g id="a_node2"><a xlink:href="incflo_8_h.html" target="_top" xlink:title="incflo.H">
<polygon fill="#ffffff" stroke="#ff0000" points="0,-112.5 0,-131.5 50,-131.5 50,-112.5 0,-112.5"/>
<text text-anchor="middle" x="25" y="-119.5" font-family="Helvetica,sans-Serif" font-size="10.00" fill="#000000">incflo.H</text>
</a>
</g>
</g>
<!-- Node34&#45;&gt;Node35 -->
<g id="edge1" class="edge">
<title>Node34&#45;&gt;Node35</title>
<path fill="none" stroke="#191970" d="M2188.8343,-177.6805C1902.4609,-175.4819 281.5015,-161.788 64,-132 59.4294,-131.374 54.6232,-130.4061 50.0068,-129.3143"/>
<polygon fill="#191970" stroke="#191970" points="2189.1871,-181.1832 2199.2135,-177.7596 2189.2405,-174.1834 2189.1871,-181.1832"/>
</g>
<!-- Node54 -->
<g id="node3" class="node">
<title>Node54</title>
<g id="a_node3"><a xlink:href="_a_b_l_wall_function_8_h.html" target="_top" xlink:title="ABLWallFunction.H">
<polygon fill="#ffffff" stroke="#ff0000" points="156.5,-56.5 156.5,-75.5 259.5,-75.5 259.5,-56.5 156.5,-56.5"/>
<text text-anchor="middle" x="208" y="-63.5" font-family="Helvetica,sans-Serif" font-size="10.00" fill="#000000">ABLWallFunction.H</text>
</a>
</g>
</g>
<!-- Node34&#45;&gt;Node54 -->
<g id="edge2" class="edge">
<title>Node34&#45;&gt;Node54</title>
<path fill="none" stroke="#191970" d="M2189.2026,-177.8953C1910.749,-177.1018 364.9956,-170.9499 274,-132 246.5892,-120.2671 224.4857,-91.3045 214.2208,-75.9412"/>
<polygon fill="#191970" stroke="#191970" points="2189.3,-181.3954 2199.3097,-177.9233 2189.3195,-174.3955 2189.3,-181.3954"/>
</g>
<!-- Node59 -->
<g id="node4" class="node">
<title>Node59</title>
<g id="a_node4"><a xlink:href="_a_b_l_stats_8_h.html" target="_top" xlink:title="ABLStats.H">
<polygon fill="#ffffff" stroke="#ff0000" points="93.5,-.5 93.5,-19.5 162.5,-19.5 162.5,-.5 93.5,-.5"/>
<text text-anchor="middle" x="128" y="-7.5" font-family="Helvetica,sans-Serif" font-size="10.00" fill="#000000">ABLStats.H</text>
</a>
</g>
</g>
<!-- Node34&#45;&gt;Node59 -->
<g id="edge10" class="edge">
<title>Node34&#45;&gt;Node59</title>
<path fill="none" stroke="#191970" d="M2188.6594,-177.8989C1888.9348,-177.0996 134.9426,-170.7689 97,-132 66.1233,-100.4508 103.2751,-42.7306 120.3224,-19.7836"/>
<polygon fill="#191970" stroke="#191970" points="2189.0899,-181.3999 2199.099,-177.926 2189.1082,-174.3999 2189.0899,-181.3999"/>
</g>
<!-- Node61 -->
<g id="node5" class="node">
<title>Node61</title>
<g id="a_node5"><a xlink:href="_boussinesq_bubble_8cpp.html" target="_top" xlink:title="BoussinesqBubble.cpp">
<polygon fill="#ffffff" stroke="#000000" points="205,-.5 205,-19.5 321,-19.5 321,-.5 205,-.5"/>
<text text-anchor="middle" x="263" y="-7.5" font-family="Helvetica,sans-Serif" font-size="10.00" fill="#000000">BoussinesqBubble.cpp</text>
</a>
</g>
</g>
<!-- Node34&#45;&gt;Node61 -->
<g id="edge29" class="edge">
<title>Node34&#45;&gt;Node61</title>
<path fill="none" stroke="#191970" d="M2189.4147,-177.5329C1912.4838,-174.427 377.3998,-156.1413 336,-132 292.2892,-106.5111 271.7727,-43.6117 265.3329,-19.5618"/>
<polygon fill="#191970" stroke="#191970" points="2189.4291,-181.0332 2199.4676,-177.6452 2189.5073,-174.0336 2189.4291,-181.0332"/>
</g>
<!-- Node62 -->
<g id="node6" class="node">
<title>Node62</title>
<g id="a_node6"><a xlink:href="_field_plane_averaging_8_h.html" target="_top" xlink:title="FieldPlaneAveraging.H">
<polygon fill="#ffffff" stroke="#ff0000" points="106,-112.5 106,-131.5 222,-131.5 222,-112.5 106,-112.5"/>
<text text-anchor="middle" x="164" y="-119.5" font-family="Helvetica,sans-Serif" font-size="10.00" fill="#000000">FieldPlaneAveraging.H</text>
</a>
</g>
</g>
<!-- Node34&#45;&gt;Node62 -->
<g id="edge5" class="edge">
<title>Node34&#45;&gt;Node62</title>
<path fill="none" stroke="#191970" d="M2189.0014,-177.683C1935.5931,-175.7125 634.5071,-164.1589 236,-132 231.4715,-131.6346 226.7929,-131.1741 222.0958,-130.6527"/>
<polygon fill="#191970" stroke="#191970" points="2189.2401,-181.1848 2199.2668,-177.762 2189.294,-174.185 2189.2401,-181.1848"/>
</g>
<!-- Node68 -->
<g id="node7" class="node">
<title>Node68</title>
<g id="a_node7"><a xlink:href="_a_b_l_boundary_plane_8_h.html" target="_top" xlink:title="ABLBoundaryPlane.H">
<polygon fill="#ffffff" stroke="#ff0000" points="354,-112.5 354,-131.5 466,-131.5 466,-112.5 354,-112.5"/>
<text text-anchor="middle" x="410" y="-119.5" font-family="Helvetica,sans-Serif" font-size="10.00" fill="#000000">ABLBoundaryPlane.H</text>
</a>
</g>
</g>
<!-- Node34&#45;&gt;Node68 -->
<g id="edge8" class="edge">
<title>Node34&#45;&gt;Node68</title>
<path fill="none" stroke="#191970" d="M2189.0432,-177.6134C1954.1404,-175.3873 822.9595,-163.195 475,-132 472.157,-131.7451 469.2494,-131.4447 466.317,-131.1099"/>
<polygon fill="#191970" stroke="#191970" points="2189.2004,-181.1149 2199.2329,-177.709 2189.2662,-174.1152 2189.2004,-181.1149"/>
</g>
<!-- Node69 -->
<g id="node8" class="node">
<title>Node69</title>
<g id="a_node8"><a xlink:href="_a_b_l_boundary_plane_8cpp.html" target="_top" xlink:title="ABLBoundaryPlane.cpp">
<polygon fill="#ffffff" stroke="#000000" points="333,-56.5 333,-75.5 453,-75.5 453,-56.5 333,-56.5"/>
<text text-anchor="middle" x="393" y="-63.5" font-family="Helvetica,sans-Serif" font-size="10.00" fill="#000000">ABLBoundaryPlane.cpp</text>
</a>
</g>
</g>
<!-- Node34&#45;&gt;Node69 -->
<g id="edge59" class="edge">
<title>Node34&#45;&gt;Node69</title>
<path fill="none" stroke="#191970" d="M2189.4238,-177.7775C1912.5754,-176.2322 378.3134,-166.1354 345,-132 327.3858,-113.9512 357.4724,-89.0932 377.4416,-75.6209"/>
<polygon fill="#191970" stroke="#191970" points="2189.4547,-181.2776 2199.4739,-177.8329 2189.4933,-174.2777 2189.4547,-181.2776"/>
</g>
<!-- Node72 -->
<g id="node9" class="node">
<title>Node72</title>
<g id="a_node9"><a xlink:href="_c_f_d_sim_8cpp.html" target="_top" xlink:title="CFDSim.cpp">
<polygon fill="#ffffff" stroke="#000000" points="484,-112.5 484,-131.5 558,-131.5 558,-112.5 484,-112.5"/>
<text text-anchor="middle" x="521" y="-119.5" font-family="Helvetica,sans-Serif" font-size="10.00" fill="#000000">CFDSim.cpp</text>
</a>
</g>
</g>
<!-- Node34&#45;&gt;Node72 -->
<g id="edge11" class="edge">
<title>Node34&#45;&gt;Node72</title>
<path fill="none" stroke="#191970" d="M2189.2459,-177.7766C1962.5367,-176.4457 899.0183,-168.3372 572,-132 567.5162,-131.5018 562.8384,-130.8167 558.2134,-130.0368"/>
<polygon fill="#191970" stroke="#191970" points="2189.3828,-181.2773 2199.4028,-177.8349 2189.4231,-174.2774 2189.3828,-181.2773"/>
</g>
<!-- Node73 -->
<g id="node10" class="node">
<title>Node73</title>
<g id="a_node10"><a xlink:href="_p_d_e_ops_8_h.html" target="_top" xlink:title="PDEOps.H">
<polygon fill="#ffffff" stroke="#ff0000" points="614,-112.5 614,-131.5 680,-131.5 680,-112.5 614,-112.5"/>
<text text-anchor="middle" x="647" y="-119.5" font-family="Helvetica,sans-Serif" font-size="10.00" fill="#000000">PDEOps.H</text>
</a>
</g>
</g>
<!-- Node34&#45;&gt;Node73 -->
<g id="edge12" class="edge">
<title>Node34&#45;&gt;Node73</title>
<path fill="none" stroke="#191970" d="M2189.138,-177.9029C1971.8707,-177.2306 990.7497,-171.9943 689,-132 686.1764,-131.6258 683.2656,-131.1423 680.3558,-130.5902"/>
<polygon fill="#191970" stroke="#191970" points="2189.1815,-181.4029 2199.1917,-177.9324 2189.2021,-174.4029 2189.1815,-181.4029"/>
</g>
<!-- Node88 -->
<g id="node11" class="node">
<title>Node88</title>
<g id="a_node11"><a xlink:href="_p_d_e_8_h.html" target="_top" xlink:title="PDE.H">
<polygon fill="#ffffff" stroke="#ff0000" points="592,-56.5 592,-75.5 640,-75.5 640,-56.5 592,-56.5"/>
<text text-anchor="middle" x="616" y="-63.5" font-family="Helvetica,sans-Serif" font-size="10.00" fill="#000000">PDE.H</text>
</a>
</g>
</g>
<!-- Node34&#45;&gt;Node88 -->
<g id="edge14" class="edge">
<title>Node34&#45;&gt;Node88</title>
<path fill="none" stroke="#191970" d="M2189.074,-177.6044C1934.5418,-175.1597 633.4292,-161.2443 605,-132 590.2632,-116.8407 602.0401,-89.8775 610.0799,-75.5561"/>
<polygon fill="#191970" stroke="#191970" points="2189.3543,-181.1071 2199.3873,-177.7027 2189.4211,-174.1075 2189.3543,-181.1071"/>
</g>
<!-- Node56 -->
<g id="node12" class="node">
<title>Node56</title>
<g id="a_node12"><a xlink:href="_a_b_l_forcing_8cpp.html" target="_top" xlink:title="ABLForcing.cpp">
<polygon fill="#ffffff" stroke="#000000" points="698,-112.5 698,-131.5 784,-131.5 784,-112.5 698,-112.5"/>
<text text-anchor="middle" x="741" y="-119.5" font-family="Helvetica,sans-Serif" font-size="10.00" fill="#000000">ABLForcing.cpp</text>
</a>
</g>
</g>
<!-- Node34&#45;&gt;Node56 -->
<g id="edge15" class="edge">
<title>Node34&#45;&gt;Node56</title>
<path fill="none" stroke="#191970" d="M2189.1034,-177.5438C1980.8439,-175.1889 1073.7968,-163.2891 793,-132 790.0763,-131.6742 787.071,-131.2736 784.0502,-130.822"/>
<polygon fill="#191970" stroke="#191970" points="2189.2872,-181.0459 2199.3257,-177.658 2189.3655,-174.0464 2189.2872,-181.0459"/>
</g>
<!-- Node57 -->
<g id="node13" class="node">
<title>Node57</title>
<g id="a_node13"><a xlink:href="_a_b_l_mean_boussinesq_8cpp.html" target="_top" xlink:title="ABLMeanBoussinesq.cpp">
<polygon fill="#ffffff" stroke="#000000" points="802.5,-112.5 802.5,-131.5 931.5,-131.5 931.5,-112.5 802.5,-112.5"/>
<text text-anchor="middle" x="867" y="-119.5" font-family="Helvetica,sans-Serif" font-size="10.00" fill="#000000">ABLMeanBoussinesq.cpp</text>
</a>
</g>
</g>
<!-- Node34&#45;&gt;Node57 -->
<g id="edge16" class="edge">
<title>Node34&#45;&gt;Node57</title>
<path fill="none" stroke="#191970" d="M2189.1976,-177.0559C1994.4632,-172.6715 1190.871,-153.5938 940,-132 937.3236,-131.7696 934.595,-131.5098 931.8409,-131.2268"/>
<polygon fill="#191970" stroke="#191970" points="2189.2447,-180.5577 2199.3207,-177.2829 2189.4017,-173.5595 2189.2447,-180.5577"/>
</g>
<!-- Node102 -->
<g id="node14" class="node">
<title>Node102</title>
<g id="a_node14"><a xlink:href="_body_force_8cpp.html" target="_top" xlink:title="BodyForce.cpp">
<polygon fill="#ffffff" stroke="#000000" points="949.5,-112.5 949.5,-131.5 1032.5,-131.5 1032.5,-112.5 949.5,-112.5"/>
<text text-anchor="middle" x="991" y="-119.5" font-family="Helvetica,sans-Serif" font-size="10.00" fill="#000000">BodyForce.cpp</text>
</a>
</g>
</g>
<!-- Node34&#45;&gt;Node102 -->
<g id="edge17" class="edge">
<title>Node34&#45;&gt;Node102</title>
<path fill="none" stroke="#191970" d="M2189.2174,-176.7403C1989.9431,-170.8194 1157.5644,-145.4811 1042,-132 1038.9529,-131.6445 1035.8156,-131.2071 1032.6658,-130.7158"/>
<polygon fill="#191970" stroke="#191970" points="2189.1988,-180.2412 2199.2982,-177.0393 2189.4064,-173.2442 2189.1988,-180.2412"/>
</g>
<!-- Node103 -->
<g id="node15" class="node">
<title>Node103</title>
<g id="a_node15"><a xlink:href="_boussinesq_buoyancy_8cpp.html" target="_top" xlink:title="BoussinesqBuoyancy.cpp">
<polygon fill="#ffffff" stroke="#000000" points="1051,-112.5 1051,-131.5 1181,-131.5 1181,-112.5 1051,-112.5"/>
<text text-anchor="middle" x="1116" y="-119.5" font-family="Helvetica,sans-Serif" font-size="10.00" fill="#000000">BoussinesqBuoyancy.cpp</text>
</a>
</g>
</g>
<!-- Node34&#45;&gt;Node103 -->
<g id="edge18" class="edge">
<title>Node34&#45;&gt;Node103</title>
<path fill="none" stroke="#191970" d="M2188.9997,-177.4906C2046.4736,-175.5058 1576.6621,-166.5896 1190,-132 1187.1593,-131.7459 1184.2603,-131.4616 1181.334,-131.1542"/>
<polygon fill="#191970" stroke="#191970" points="2189.0321,-180.9913 2199.0785,-177.6269 2189.1268,-173.9919 2189.0321,-180.9913"/>
</g>
<!-- Node104 -->
<g id="node16" class="node">
<title>Node104</title>
<g id="a_node16"><a xlink:href="_coriolis_forcing_8cpp.html" target="_top" xlink:title="CoriolisForcing.cpp">
<polygon fill="#ffffff" stroke="#000000" points="1199.5,-112.5 1199.5,-131.5 1300.5,-131.5 1300.5,-112.5 1199.5,-112.5"/>
<text text-anchor="middle" x="1250" y="-119.5" font-family="Helvetica,sans-Serif" font-size="10.00" fill="#000000">CoriolisForcing.cpp</text>
</a>
</g>
</g>
<!-- Node34&#45;&gt;Node104 -->
<g id="edge19" class="edge">
<title>Node34&#45;&gt;Node104</title>
<path fill="none" stroke="#191970" d="M2189.1018,-177.6603C2057.3045,-176.2316 1646.7494,-168.9086 1309,-132 1306.3148,-131.7066 1303.5665,-131.3696 1300.7955,-131.0009"/>
<polygon fill="#191970" stroke="#191970" points="2189.1538,-181.1609 2199.1892,-177.7639 2189.2257,-174.1613 2189.1538,-181.1609"/>
</g>
<!-- Node105 -->
<g id="node17" class="node">
<title>Node105</title>
<g id="a_node17"><a xlink:href="_density_buoyancy_8cpp.html" target="_top" xlink:title="DensityBuoyancy.cpp">
<polygon fill="#ffffff" stroke="#000000" points="1318.5,-112.5 1318.5,-131.5 1431.5,-131.5 1431.5,-112.5 1318.5,-112.5"/>
<text text-anchor="middle" x="1375" y="-119.5" font-family="Helvetica,sans-Serif" font-size="10.00" fill="#000000">DensityBuoyancy.cpp</text>
</a>
</g>
</g>
<!-- Node34&#45;&gt;Node105 -->
<g id="edge20" class="edge">
<title>Node34&#45;&gt;Node105</title>
<path fill="none" stroke="#191970" d="M2188.9694,-176.8932C2069.8079,-173.5273 1725.5319,-161.7647 1441,-132 1438.0032,-131.6865 1434.9343,-131.3335 1431.8389,-130.9524"/>
<polygon fill="#191970" stroke="#191970" points="2189.0424,-180.3965 2199.1357,-177.1753 2189.2366,-173.3992 2189.0424,-180.3965"/>
</g>
<!-- Node106 -->
<g id="node18" class="node">
<title>Node106</title>
<g id="a_node18"><a xlink:href="_geostrophic_forcing_8cpp.html" target="_top" xlink:title="GeostrophicForcing.cpp">
<polygon fill="#ffffff" stroke="#000000" points="1450,-112.5 1450,-131.5 1570,-131.5 1570,-112.5 1450,-112.5"/>
<text text-anchor="middle" x="1510" y="-119.5" font-family="Helvetica,sans-Serif" font-size="10.00" fill="#000000">GeostrophicForcing.cpp</text>
</a>
</g>
</g>
<!-- Node34&#45;&gt;Node106 -->
<g id="edge21" class="edge">
<title>Node34&#45;&gt;Node106</title>
<path fill="none" stroke="#191970" d="M2189.1605,-176.0753C2084.6601,-171.1426 1808.4158,-156.671 1579,-132 1576.1116,-131.6894 1573.1584,-131.3491 1570.1778,-130.9875"/>
<polygon fill="#191970" stroke="#191970" points="2189.1581,-179.579 2199.3106,-176.5498 2189.485,-172.5866 2189.1581,-179.579"/>
</g>
<!-- Node107 -->
<g id="node19" class="node">
<title>Node107</title>
<g id="a_node19"><a xlink:href="_p_d_e_base_8cpp.html" target="_top" xlink:title="PDEBase.cpp">
<polygon fill="#ffffff" stroke="#000000" points="1588.5,-112.5 1588.5,-131.5 1667.5,-131.5 1667.5,-112.5 1588.5,-112.5"/>
<text text-anchor="middle" x="1628" y="-119.5" font-family="Helvetica,sans-Serif" font-size="10.00" fill="#000000">PDEBase.cpp</text>
</a>
</g>
</g>
<!-- Node34&#45;&gt;Node107 -->
<g id="edge22" class="edge">
<title>Node34&#45;&gt;Node107</title>
<path fill="none" stroke="#191970" d="M2189.1298,-176.1819C2095.6952,-171.8398 1866.8487,-159.1422 1677,-132 1673.9058,-131.5576 1670.7129,-131.0419 1667.5102,-130.4823"/>
<polygon fill="#191970" stroke="#191970" points="2189.17,-179.6873 2199.3192,-176.6471 2189.4893,-172.6946 2189.17,-179.6873"/>
</g>
<!-- Node108 -->
<g id="node20" class="node">
<title>Node108</title>
<g id="a_node20"><a xlink:href="_ksgs_m84_src_8cpp.html" target="_top" xlink:title="KsgsM84Src.cpp">
<polygon fill="#ffffff" stroke="#000000" points="1686,-112.5 1686,-131.5 1778,-131.5 1778,-112.5 1686,-112.5"/>
<text text-anchor="middle" x="1732" y="-119.5" font-family="Helvetica,sans-Serif" font-size="10.00" fill="#000000">KsgsM84Src.cpp</text>
</a>
</g>
</g>
<!-- Node34&#45;&gt;Node108 -->
<g id="edge23" class="edge">
<title>Node34&#45;&gt;Node108</title>
<path fill="none" stroke="#191970" d="M2189.3323,-174.4106C2110.6181,-167.5952 1937.3149,-151.6869 1792,-132 1787.5002,-131.3904 1782.8192,-130.7034 1778.1448,-129.9823"/>
<polygon fill="#191970" stroke="#191970" points="2189.0882,-177.9024 2199.3516,-175.2731 2189.6886,-170.9282 2189.0882,-177.9024"/>
</g>
<!-- Node109 -->
<g id="node21" class="node">
<title>Node109</title>
<g id="a_node21"><a xlink:href="_m_m_s_8_h.html" target="_top" xlink:title="MMS.H">
<polygon fill="#ffffff" stroke="#000000" points="1834,-112.5 1834,-131.5 1884,-131.5 1884,-112.5 1834,-112.5"/>
<text text-anchor="middle" x="1859" y="-119.5" font-family="Helvetica,sans-Serif" font-size="10.00" fill="#000000">MMS.H</text>
</a>
</g>
</g>
<!-- Node34&#45;&gt;Node109 -->
<g id="edge24" class="edge">
<title>Node34&#45;&gt;Node109</title>
<path fill="none" stroke="#191970" d="M2189.2591,-174.2921C2124.6221,-168.215 1998.3634,-154.5081 1893,-132 1890.1118,-131.383 1887.1114,-130.6458 1884.1424,-129.8552"/>
<polygon fill="#191970" stroke="#191970" points="2189.1871,-177.8003 2199.467,-175.2363 2189.8319,-170.83 2189.1871,-177.8003"/>
</g>
<!-- Node110 -->
<g id="node22" class="node">
<title>Node110</title>
<g id="a_node22"><a xlink:href="_m_m_s_8cpp.html" target="_top" xlink:title="MMS.cpp">
<polygon fill="#ffffff" stroke="#000000" points="1802.5,-56.5 1802.5,-75.5 1861.5,-75.5 1861.5,-56.5 1802.5,-56.5"/>
<text text-anchor="middle" x="1832" y="-63.5" font-family="Helvetica,sans-Serif" font-size="10.00" fill="#000000">MMS.cpp</text>
</a>
</g>
</g>
<!-- Node34&#45;&gt;Node110 -->
<g id="edge26" class="edge">
<title>Node34&#45;&gt;Node110</title>
<path fill="none" stroke="#191970" d="M2189.3646,-176.3354C2089.8787,-172.014 1848.9929,-158.8574 1825,-132 1811.1822,-116.5325 1820.2564,-90.1868 1826.862,-75.9072"/>
<polygon fill="#191970" stroke="#191970" points="2189.24,-179.8331 2199.3796,-176.7612 2189.5374,-172.8394 2189.24,-179.8331"/>
</g>
<!-- Node111 -->
<g id="node23" class="node">
<title>Node111</title>
<g id="a_node23"><a xlink:href="_m_m_s_forcing_8cpp.html" target="_top" xlink:title="MMSForcing.cpp">
<polygon fill="#ffffff" stroke="#000000" points="1902.5,-112.5 1902.5,-131.5 1993.5,-131.5 1993.5,-112.5 1902.5,-112.5"/>
<text text-anchor="middle" x="1948" y="-119.5" font-family="Helvetica,sans-Serif" font-size="10.00" fill="#000000">MMSForcing.cpp</text>
</a>
</g>
</g>
<!-- Node34&#45;&gt;Node111 -->
<g id="edge27" class="edge">
<title>Node34&#45;&gt;Node111</title>
<path fill="none" stroke="#191970" d="M2189.413,-169.6026C2136.8311,-159.2343 2047.7519,-141.6694 1993.7527,-131.0217"/>
<polygon fill="#191970" stroke="#191970" points="2188.9334,-173.0753 2199.4216,-171.5761 2190.2876,-166.2075 2188.9334,-173.0753"/>
</g>
<!-- Node112 -->
<g id="node24" class="node">
<title>Node112</title>
<g id="a_node24"><a xlink:href="_tioga_interface_8cpp.html" target="_top" xlink:title="TiogaInterface.cpp">
<polygon fill="#ffffff" stroke="#000000" points="2012,-112.5 2012,-131.5 2110,-131.5 2110,-112.5 2012,-112.5"/>
<text text-anchor="middle" x="2061" y="-119.5" font-family="Helvetica,sans-Serif" font-size="10.00" fill="#000000">TiogaInterface.cpp</text>
</a>
</g>
</g>
<!-- Node34&#45;&gt;Node112 -->
<g id="edge28" class="edge">
<title>Node34&#45;&gt;Node112</title>
<path fill="none" stroke="#191970" d="M2192.8852,-165.1905C2161.5568,-154.9309 2118.3129,-140.7691 2090.0124,-131.5011"/>
<polygon fill="#191970" stroke="#191970" points="2192.0114,-168.5872 2202.6041,-168.3733 2194.19,-161.9348 2192.0114,-168.5872"/>
</g>
<!-- Node113 -->
<g id="node25" class="node">
<title>Node113</title>
<g id="a_node25"><a xlink:href="_convecting_taylor_vortex_8_h.html" target="_top" xlink:title="ConvectingTaylorVortex.H">
<polygon fill="#ffffff" stroke="#000000" points="2166,-112.5 2166,-131.5 2298,-131.5 2298,-112.5 2166,-112.5"/>
<text text-anchor="middle" x="2232" y="-119.5" font-family="Helvetica,sans-Serif" font-size="10.00" fill="#000000">ConvectingTaylorVortex.H</text>
</a>
</g>
</g>
<!-- Node34&#45;&gt;Node113 -->
<g id="edge30" class="edge">
<title>Node34&#45;&gt;Node113</title>
<path fill="none" stroke="#191970" d="M2232,-158.1575C2232,-149.155 2232,-138.9199 2232,-131.6427"/>
<polygon fill="#191970" stroke="#191970" points="2228.5001,-158.2455 2232,-168.2455 2235.5001,-158.2456 2228.5001,-158.2455"/>
</g>
<!-- Node114 -->
<g id="node26" class="node">
<title>Node114</title>
<g id="a_node26"><a xlink:href="_convecting_taylor_vortex_8cpp.html" target="_top" xlink:title="ConvectingTaylorVortex.cpp">
<polygon fill="#ffffff" stroke="#000000" points="2095,-56.5 2095,-75.5 2235,-75.5 2235,-56.5 2095,-56.5"/>
<text text-anchor="middle" x="2165" y="-63.5" font-family="Helvetica,sans-Serif" font-size="10.00" fill="#000000">ConvectingTaylorVortex.cpp</text>
</a>
</g>
</g>
<!-- Node34&#45;&gt;Node114 -->
<g id="edge32" class="edge">
<title>Node34&#45;&gt;Node114</title>
<path fill="none" stroke="#191970" d="M2193.9729,-164.1435C2179.7415,-156.8855 2165.0789,-146.4324 2157,-132 2146.9647,-114.0725 2154.7524,-89.1671 2160.4297,-75.6547"/>
<polygon fill="#191970" stroke="#191970" points="2192.6489,-167.3882 2203.1892,-168.4613 2195.6186,-161.0494 2192.6489,-167.3882"/>
</g>
<!-- Node115 -->
<g id="node27" class="node">
<title>Node115</title>
<g id="a_node27"><a xlink:href="_ekman_spiral_8_h.html" target="_top" xlink:title="EkmanSpiral.H">
<polygon fill="#ffffff" stroke="#000000" points="2354.5,-112.5 2354.5,-131.5 2437.5,-131.5 2437.5,-112.5 2354.5,-112.5"/>
<text text-anchor="middle" x="2396" y="-119.5" font-family="Helvetica,sans-Serif" font-size="10.00" fill="#000000">EkmanSpiral.H</text>
</a>
</g>
</g>
<!-- Node34&#45;&gt;Node115 -->
<g id="edge33" class="edge">
<title>Node34&#45;&gt;Node115</title>
<path fill="none" stroke="#191970" d="M2269.9044,-165.057C2299.9184,-154.8084 2341.1507,-140.729 2368.1753,-131.5011"/>
<polygon fill="#191970" stroke="#191970" points="2268.5251,-161.8295 2260.1926,-168.3733 2270.7871,-168.454 2268.5251,-161.8295"/>
</g>
<!-- Node116 -->
<g id="node28" class="node">
<title>Node116</title>
<g id="a_node28"><a xlink:href="_ekman_spiral_8cpp.html" target="_top" xlink:title="EkmanSpiral.cpp">
<polygon fill="#ffffff" stroke="#000000" points="2315.5,-56.5 2315.5,-75.5 2406.5,-75.5 2406.5,-56.5 2315.5,-56.5"/>
<text text-anchor="middle" x="2361" y="-63.5" font-family="Helvetica,sans-Serif" font-size="10.00" fill="#000000">EkmanSpiral.cpp</text>
</a>
</g>
</g>
<!-- Node34&#45;&gt;Node116 -->
<g id="edge35" class="edge">
<title>Node34&#45;&gt;Node116</title>
<path fill="none" stroke="#191970" d="M2260.5133,-163.5022C2275.2034,-155.3169 2292.9346,-144.2771 2307,-132 2326.8534,-114.6707 2345.205,-89.5317 2354.5449,-75.8213"/>
<polygon fill="#191970" stroke="#191970" points="2258.4957,-160.6144 2251.3679,-168.4532 2261.8283,-166.7702 2258.4957,-160.6144"/>
</g>
<!-- Node117 -->
<g id="node29" class="node">
<title>Node117</title>
<g id="a_node29"><a xlink:href="_free_stream_8cpp.html" target="_top" xlink:title="FreeStream.cpp">
<polygon fill="#ffffff" stroke="#000000" points="2456,-112.5 2456,-131.5 2542,-131.5 2542,-112.5 2456,-112.5"/>
<text text-anchor="middle" x="2499" y="-119.5" font-family="Helvetica,sans-Serif" font-size="10.00" fill="#000000">FreeStream.cpp</text>
</a>
</g>
</g>
<!-- Node34&#45;&gt;Node117 -->
<g id="edge36" class="edge">
<title>Node34&#45;&gt;Node117</title>
<path fill="none" stroke="#191970" d="M2274.5266,-169.0806C2324.1885,-158.6646 2405.8843,-141.5299 2455.8237,-131.0557"/>
<polygon fill="#191970" stroke="#191970" points="2273.808,-165.655 2264.7394,-171.1333 2275.245,-172.506 2273.808,-165.655"/>
</g>
<!-- Node118 -->
<g id="node30" class="node">
<title>Node118</title>
<g id="a_node30"><a xlink:href="_dam_break_8cpp.html" target="_top" xlink:title="DamBreak.cpp">
<polygon fill="#ffffff" stroke="#000000" points="2560,-112.5 2560,-131.5 2642,-131.5 2642,-112.5 2560,-112.5"/>
<text text-anchor="middle" x="2601" y="-119.5" font-family="Helvetica,sans-Serif" font-size="10.00" fill="#000000">DamBreak.cpp</text>
</a>
</g>
</g>
<!-- Node34&#45;&gt;Node118 -->
<g id="edge37" class="edge">
<title>Node34&#45;&gt;Node118</title>
<path fill="none" stroke="#191970" d="M2274.7729,-172.5812C2336.0961,-164.6423 2452.4752,-148.9433 2551,-132 2553.8791,-131.5049 2556.8467,-130.9713 2559.8322,-130.4173"/>
<polygon fill="#191970" stroke="#191970" points="2274.1674,-169.1302 2264.6969,-173.8798 2275.0623,-176.0728 2274.1674,-169.1302"/>
</g>
<!-- Node119 -->
<g id="node31" class="node">
<title>Node119</title>
<g id="a_node31"><a xlink:href="_multi_phase_8cpp.html" target="_top" xlink:title="MultiPhase.cpp">
<polygon fill="#ffffff" stroke="#000000" points="2660,-112.5 2660,-131.5 2744,-131.5 2744,-112.5 2660,-112.5"/>
<text text-anchor="middle" x="2702" y="-119.5" font-family="Helvetica,sans-Serif" font-size="10.00" fill="#000000">MultiPhase.cpp</text>
</a>
</g>
</g>
<!-- Node34&#45;&gt;Node119 -->
<g id="edge38" class="edge">
<title>Node34&#45;&gt;Node119</title>
<path fill="none" stroke="#191970" d="M2274.8544,-174.4965C2350.8702,-168.0147 2514.1972,-152.8835 2651,-132 2653.8542,-131.5643 2656.7918,-131.0813 2659.7472,-130.5695"/>
<polygon fill="#191970" stroke="#191970" points="2274.3891,-171.0233 2264.7196,-175.3534 2274.9789,-177.9984 2274.3891,-171.0233"/>
</g>
<!-- Node120 -->
<g id="node32" class="node">
<title>Node120</title>
<g id="a_node32"><a xlink:href="_vortex_patch_8cpp.html" target="_top" xlink:title="VortexPatch.cpp">
<polygon fill="#ffffff" stroke="#000000" points="2761.5,-112.5 2761.5,-131.5 2850.5,-131.5 2850.5,-112.5 2761.5,-112.5"/>
<text text-anchor="middle" x="2806" y="-119.5" font-family="Helvetica,sans-Serif" font-size="10.00" fill="#000000">VortexPatch.cpp</text>
</a>
</g>
</g>
<!-- Node34&#45;&gt;Node120 -->
<g id="edge39" class="edge">
<title>Node34&#45;&gt;Node120</title>
<path fill="none" stroke="#191970" d="M2274.7459,-175.655C2363.9409,-170.448 2576.2763,-156.4133 2753,-132 2755.6899,-131.6284 2758.4506,-131.2127 2761.2314,-130.7676"/>
<polygon fill="#191970" stroke="#191970" points="2274.522,-172.162 2264.7402,-176.2321 2274.9251,-179.1504 2274.522,-172.162"/>
</g>
<!-- Node121 -->
<g id="node33" class="node">
<title>Node121</title>
<g id="a_node33"><a xlink:href="_zalesak_disk_8cpp.html" target="_top" xlink:title="ZalesakDisk.cpp">
<polygon fill="#ffffff" stroke="#000000" points="2869,-112.5 2869,-131.5 2959,-131.5 2959,-112.5 2869,-112.5"/>
<text text-anchor="middle" x="2914" y="-119.5" font-family="Helvetica,sans-Serif" font-size="10.00" fill="#000000">ZalesakDisk.cpp</text>
</a>
</g>
</g>
<!-- Node34&#45;&gt;Node121 -->
<g id="edge40" class="edge">
<title>Node34&#45;&gt;Node121</title>
<path fill="none" stroke="#191970" d="M2274.947,-176.4288C2376.7229,-172.3615 2640.442,-159.8057 2859,-132 2862.1771,-131.5958 2865.449,-131.1296 2868.7385,-130.6242"/>
<polygon fill="#191970" stroke="#191970" points="2274.6142,-172.9391 2264.7594,-176.829 2274.8891,-179.9337 2274.6142,-172.9391"/>
</g>
<!-- Node122 -->
<g id="node34" class="node">
<title>Node122</title>
<g id="a_node34"><a xlink:href="_rayleigh_taylor_8cpp.html" target="_top" xlink:title="RayleighTaylor.cpp">
<polygon fill="#ffffff" stroke="#000000" points="2977.5,-112.5 2977.5,-131.5 3078.5,-131.5 3078.5,-112.5 2977.5,-112.5"/>
<text text-anchor="middle" x="3028" y="-119.5" font-family="Helvetica,sans-Serif" font-size="10.00" fill="#000000">RayleighTaylor.cpp</text>
</a>
</g>
</g>
<!-- Node34&#45;&gt;Node122 -->
<g id="edge41" class="edge">
<title>Node34&#45;&gt;Node122</title>
<path fill="none" stroke="#191970" d="M2274.763,-176.8631C2388.1164,-173.5176 2705.5761,-161.9891 2968,-132 2971.0427,-131.6523 2974.166,-131.255 2977.3126,-130.8239"/>
<polygon fill="#191970" stroke="#191970" points="2274.646,-173.3649 2264.7515,-177.1528 2274.8486,-180.362 2274.646,-173.3649"/>
</g>
<!-- Node123 -->
<g id="node35" class="node">
<title>Node123</title>
<g id="a_node35"><a xlink:href="_taylor_green_vortex_8cpp.html" target="_top" xlink:title="TaylorGreenVortex.cpp">
<polygon fill="#ffffff" stroke="#000000" points="3096.5,-112.5 3096.5,-131.5 3213.5,-131.5 3213.5,-112.5 3096.5,-112.5"/>
<text text-anchor="middle" x="3155" y="-119.5" font-family="Helvetica,sans-Serif" font-size="10.00" fill="#000000">TaylorGreenVortex.cpp</text>
</a>
</g>
</g>
<!-- Node34&#45;&gt;Node123 -->
<g id="edge42" class="edge">
<title>Node34&#45;&gt;Node123</title>
<path fill="none" stroke="#191970" d="M2275.0198,-177.0883C2400.4529,-174.1283 2776.5596,-163.1106 3087,-132 3090.087,-131.6906 3093.2484,-131.341 3096.4371,-130.9624"/>
<polygon fill="#191970" stroke="#191970" points="2274.6153,-173.5966 2264.6989,-177.3268 2274.7772,-180.5947 2274.6153,-173.5966"/>
</g>
<!-- Node124 -->
<g id="node36" class="node">
<title>Node124</title>
<g id="a_node36"><a xlink:href="_turb_model_8_h.html" target="_top" xlink:title="TurbModel.H">
<polygon fill="#ffffff" stroke="#ff0000" points="3231.5,-112.5 3231.5,-131.5 3304.5,-131.5 3304.5,-112.5 3231.5,-112.5"/>
<text text-anchor="middle" x="3268" y="-119.5" font-family="Helvetica,sans-Serif" font-size="10.00" fill="#000000">TurbModel.H</text>
</a>
</g>
</g>
<!-- Node34&#45;&gt;Node124 -->
<g id="edge43" class="edge">
<title>Node34&#45;&gt;Node124</title>
<path fill="none" stroke="#191970" d="M2274.819,-176.967C2439.8308,-172.8378 3034.6123,-156.5454 3222,-132 3225.0793,-131.5967 3228.258,-131.0927 3231.4387,-130.5269"/>
<polygon fill="#191970" stroke="#191970" points="2274.4903,-173.474 2264.5803,-177.2214 2274.6642,-180.4719 2274.4903,-173.474"/>
</g>
<!-- Node127 -->
<g id="node37" class="node">
<title>Node127</title>
<g id="a_node37"><a xlink:href="turbulence__utils_8_h.html" target="_top" xlink:title="turbulence_utils.H">
<polygon fill="#ffffff" stroke="#000000" points="3322.5,-112.5 3322.5,-131.5 3417.5,-131.5 3417.5,-112.5 3322.5,-112.5"/>
<text text-anchor="middle" x="3370" y="-119.5" font-family="Helvetica,sans-Serif" font-size="10.00" fill="#000000">turbulence_utils.H</text>
</a>
</g>
</g>
<!-- Node34&#45;&gt;Node127 -->
<g id="edge44" class="edge">
<title>Node34&#45;&gt;Node127</title>
<path fill="none" stroke="#191970" d="M2274.6843,-176.9329C2448.8582,-172.4627 3106.3149,-154.43 3313,-132 3316.0964,-131.664 3319.2787,-131.2627 3322.4807,-130.8169"/>
<polygon fill="#191970" stroke="#191970" points="2274.5304,-173.4356 2264.623,-177.1898 2274.7091,-180.4333 2274.5304,-173.4356"/>
</g>
<!-- Node132 -->
<g id="node38" class="node">
<title>Node132</title>
<g id="a_node38"><a xlink:href="_derived_quantity_8_h.html" target="_top" xlink:title="DerivedQuantity.H">
<polygon fill="#ffffff" stroke="#ff0000" points="3474,-112.5 3474,-131.5 3572,-131.5 3572,-112.5 3474,-112.5"/>
<text text-anchor="middle" x="3523" y="-119.5" font-family="Helvetica,sans-Serif" font-size="10.00" fill="#000000">DerivedQuantity.H</text>
</a>
</g>
</g>
<!-- Node34&#45;&gt;Node132 -->
<g id="edge45" class="edge">
<title>Node34&#45;&gt;Node132</title>
<path fill="none" stroke="#191970" d="M2274.816,-177.0868C2463.5937,-172.954 3222.6931,-155.1941 3460,-132 3464.519,-131.5583 3469.2064,-131.0016 3473.8925,-130.3781"/>
<polygon fill="#191970" stroke="#191970" points="2274.6495,-173.5895 2264.7281,-177.3065 2274.802,-180.5878 2274.6495,-173.5895"/>
</g>
<!-- Node135 -->
<g id="node39" class="node">
<title>Node135</title>
<g id="a_node39"><a xlink:href="_i_o_manager_8cpp.html" target="_top" xlink:title="IOManager.cpp">
<polygon fill="#ffffff" stroke="#000000" points="3442.5,-56.5 3442.5,-75.5 3525.5,-75.5 3525.5,-56.5 3442.5,-56.5"/>
<text text-anchor="middle" x="3484" y="-63.5" font-family="Helvetica,sans-Serif" font-size="10.00" fill="#000000">IOManager.cpp</text>
</a>
</g>
</g>
<!-- Node34&#45;&gt;Node135 -->
<g id="edge47" class="edge">
<title>Node34&#45;&gt;Node135</title>
<path fill="none" stroke="#191970" d="M2274.977,-177.2936C2482.498,-173.7627 3373.0667,-157.1899 3426,-132 3451.3441,-119.9393 3470.219,-91.1201 3478.8313,-75.8634"/>
<polygon fill="#191970" stroke="#191970" points="2274.7193,-173.7974 2264.7799,-177.466 2274.8377,-180.7964 2274.7193,-173.7974"/>
</g>
<!-- Node137 -->
<g id="node40" class="node">
<title>Node137</title>
<g id="a_node40"><a xlink:href="_post_processing_8cpp.html" target="_top" xlink:title="PostProcessing.cpp">
<polygon fill="#ffffff" stroke="#000000" points="3590,-112.5 3590,-131.5 3694,-131.5 3694,-112.5 3590,-112.5"/>
<text text-anchor="middle" x="3642" y="-119.5" font-family="Helvetica,sans-Serif" font-size="10.00" fill="#000000">PostProcessing.cpp</text>
</a>
</g>
</g>
<!-- Node34&#45;&gt;Node137 -->
<g id="edge48" class="edge">
<title>Node34&#45;&gt;Node137</title>
<path fill="none" stroke="#191970" d="M2274.7519,-177.2823C2474.6597,-173.813 3318.5291,-157.881 3581,-132 3583.8836,-131.7157 3586.8374,-131.3801 3589.8146,-131.0072"/>
<polygon fill="#191970" stroke="#191970" points="2274.5849,-173.7846 2264.6468,-177.4566 2274.7057,-180.7835 2274.5849,-173.7846"/>
</g>
<!-- Node138 -->
<g id="node41" class="node">
<title>Node138</title>
<g id="a_node41"><a xlink:href="_line_sampler_8cpp.html" target="_top" xlink:title="LineSampler.cpp">
<polygon fill="#ffffff" stroke="#000000" points="3712.5,-112.5 3712.5,-131.5 3801.5,-131.5 3801.5,-112.5 3712.5,-112.5"/>
<text text-anchor="middle" x="3757" y="-119.5" font-family="Helvetica,sans-Serif" font-size="10.00" fill="#000000">LineSampler.cpp</text>
</a>
</g>
</g>
<!-- Node34&#45;&gt;Node138 -->
<g id="edge49" class="edge">
<title>Node34&#45;&gt;Node138</title>
<path fill="none" stroke="#191970" d="M2274.8396,-177.5392C2485.7756,-175.1359 3415.3913,-162.9462 3703,-132 3706.0335,-131.6736 3709.1524,-131.2726 3712.2879,-130.8206"/>
<polygon fill="#191970" stroke="#191970" points="2274.7375,-174.04 2264.7776,-177.6526 2274.8164,-181.0396 2274.7375,-174.04"/>
</g>
<!-- Node139 -->
<g id="node42" class="node">
<title>Node139</title>
<g id="a_node42"><a xlink:href="_probe_sampler_8cpp.html" target="_top" xlink:title="ProbeSampler.cpp">
<polygon fill="#ffffff" stroke="#000000" points="3819.5,-112.5 3819.5,-131.5 3916.5,-131.5 3916.5,-112.5 3819.5,-112.5"/>
<text text-anchor="middle" x="3868" y="-119.5" font-family="Helvetica,sans-Serif" font-size="10.00" fill="#000000">ProbeSampler.cpp</text>
</a>
</g>
</g>
<!-- Node34&#45;&gt;Node139 -->
<g id="edge50" class="edge">
<title>Node34&#45;&gt;Node139</title>
<path fill="none" stroke="#191970" d="M2274.7441,-177.5914C2494.6912,-175.3613 3500.6125,-163.5809 3811,-132 3813.6987,-131.7254 3816.4623,-131.3975 3819.2469,-131.0306"/>
<polygon fill="#191970" stroke="#191970" points="2274.5411,-174.0932 2264.5767,-177.6933 2274.6113,-181.0928 2274.5411,-174.0932"/>
</g>
<!-- Node140 -->
<g id="node43" class="node">
<title>Node140</title>
<g id="a_node43"><a xlink:href="_sampling_8_h.html" target="_top" xlink:title="Sampling.H">
<polygon fill="#ffffff" stroke="#ff0000" points="3935,-112.5 3935,-131.5 4003,-131.5 4003,-112.5 3935,-112.5"/>
<text text-anchor="middle" x="3969" y="-119.5" font-family="Helvetica,sans-Serif" font-size="10.00" fill="#000000">Sampling.H</text>
</a>
</g>
</g>
<!-- Node34&#45;&gt;Node140 -->
<g id="edge51" class="edge">
<title>Node34&#45;&gt;Node140</title>
<path fill="none" stroke="#191970" d="M2274.6562,-177.356C2521.1374,-173.566 3757.9807,-153.5943 3926,-132 3928.8887,-131.6287 3931.8673,-131.1473 3934.8455,-130.5967"/>
<polygon fill="#191970" stroke="#191970" points="2274.5994,-173.8563 2264.6543,-177.5092 2274.7067,-180.8555 2274.5994,-173.8563"/>
</g>
<!-- Node142 -->
<g id="node44" class="node">
<title>Node142</title>
<g id="a_node44"><a xlink:href="_cart_box_refinement_8cpp.html" target="_top" xlink:title="CartBoxRefinement.cpp">
<polygon fill="#ffffff" stroke="#000000" points="4021,-112.5 4021,-131.5 4143,-131.5 4143,-112.5 4021,-112.5"/>
<text text-anchor="middle" x="4082" y="-119.5" font-family="Helvetica,sans-Serif" font-size="10.00" fill="#000000">CartBoxRefinement.cpp</text>
</a>
</g>
</g>
<!-- Node34&#45;&gt;Node142 -->
<g id="edge52" class="edge">
<title>Node34&#45;&gt;Node142</title>
<path fill="none" stroke="#191970" d="M2274.7491,-177.5697C2510.9966,-175.0895 3658.9396,-161.6797 4012,-132 4014.9359,-131.7532 4017.9366,-131.4648 4020.9641,-131.1447"/>
<polygon fill="#191970" stroke="#191970" points="2274.4715,-174.0723 2264.5085,-177.6764 2274.5444,-181.072 2274.4715,-174.0723"/>
</g>
<!-- Node143 -->
<g id="node45" class="node">
<title>Node143</title>
<g id="a_node45"><a xlink:href="_field_refinement_8cpp.html" target="_top" xlink:title="FieldRefinement.cpp">
<polygon fill="#ffffff" stroke="#000000" points="4161.5,-112.5 4161.5,-131.5 4268.5,-131.5 4268.5,-112.5 4161.5,-112.5"/>
<text text-anchor="middle" x="4215" y="-119.5" font-family="Helvetica,sans-Serif" font-size="10.00" fill="#000000">FieldRefinement.cpp</text>
</a>
</g>
</g>
<!-- Node34&#45;&gt;Node143 -->
<g id="edge53" class="edge">
<title>Node34&#45;&gt;Node143</title>
<path fill="none" stroke="#191970" d="M2274.5508,-177.7539C2521.1953,-176.2103 3769.6062,-166.7729 4152,-132 4155.0881,-131.7192 4158.2543,-131.3802 4161.4447,-130.999"/>
<polygon fill="#191970" stroke="#191970" points="2274.5265,-174.2539 2264.5483,-177.8156 2274.5698,-181.2537 2274.5265,-174.2539"/>
</g>
<!-- Node144 -->
<g id="node46" class="node">
<title>Node144</title>
<g id="a_node46"><a xlink:href="_geometry_refinement_8cpp.html" target="_top" xlink:title="GeometryRefinement.cpp">
<polygon fill="#ffffff" stroke="#000000" points="4287,-112.5 4287,-131.5 4415,-131.5 4415,-112.5 4287,-112.5"/>
<text text-anchor="middle" x="4351" y="-119.5" font-family="Helvetica,sans-Serif" font-size="10.00" fill="#000000">GeometryRefinement.cpp</text>
</a>
</g>
</g>
<!-- Node34&#45;&gt;Node144 -->
<g id="edge54" class="edge">
<title>Node34&#45;&gt;Node144</title>
<path fill="none" stroke="#191970" d="M2274.8636,-177.7009C2531.6507,-175.8089 3868.8367,-164.5186 4278,-132 4280.9329,-131.7669 4283.9281,-131.495 4286.9506,-131.1931"/>
<polygon fill="#191970" stroke="#191970" points="2274.7877,-174.2013 2264.8135,-177.7742 2274.8388,-181.2011 2274.7877,-174.2013"/>
</g>
<!-- Node145 -->
<g id="node47" class="node">
<title>Node145</title>
<g id="a_node47"><a xlink:href="_overset_refinement_8cpp.html" target="_top" xlink:title="OversetRefinement.cpp">
<polygon fill="#ffffff" stroke="#000000" points="4433,-112.5 4433,-131.5 4553,-131.5 4553,-112.5 4433,-112.5"/>
<text text-anchor="middle" x="4493" y="-119.5" font-family="Helvetica,sans-Serif" font-size="10.00" fill="#000000">OversetRefinement.cpp</text>
</a>
</g>
</g>
<!-- Node34&#45;&gt;Node145 -->
<g id="edge55" class="edge">
<title>Node34&#45;&gt;Node145</title>
<path fill="none" stroke="#191970" d="M2274.9209,-177.8202C2542.4471,-176.5909 3984.1446,-168.3502 4424,-132 4426.8952,-131.7607 4429.8539,-131.4785 4432.8389,-131.1633"/>
<polygon fill="#191970" stroke="#191970" points="2274.8167,-174.3206 2264.8326,-177.8658 2274.8484,-181.3205 2274.8167,-174.3206"/>
</g>
<!-- Node146 -->
<g id="node48" class="node">
<title>Node146</title>
<g id="a_node48"><a xlink:href="_q_criterion_refinement_8cpp.html" target="_top" xlink:title="QCriterionRefinement.cpp">
<polygon fill="#ffffff" stroke="#000000" points="4571,-112.5 4571,-131.5 4701,-131.5 4701,-112.5 4571,-112.5"/>
<text text-anchor="middle" x="4636" y="-119.5" font-family="Helvetica,sans-Serif" font-size="10.00" fill="#000000">QCriterionRefinement.cpp</text>
</a>
</g>
</g>
<!-- Node34&#45;&gt;Node146 -->
<g id="edge56" class="edge">
<title>Node34&#45;&gt;Node146</title>
<path fill="none" stroke="#191970" d="M2274.5232,-177.8274C2550.6393,-176.606 4092.5372,-168.2347 4562,-132 4564.8436,-131.7805 4567.745,-131.5249 4570.6732,-131.241"/>
<polygon fill="#191970" stroke="#191970" points="2274.4893,-174.3274 2264.5047,-177.871 2274.5199,-181.3273 2274.4893,-174.3274"/>
</g>
<!-- Node147 -->
<g id="node49" class="node">
<title>Node147</title>
<g id="a_node49"><a xlink:href="_refinement_criteria_8cpp.html" target="_top" xlink:title="RefinementCriteria.cpp">
<polygon fill="#ffffff" stroke="#000000" points="4719.5,-112.5 4719.5,-131.5 4836.5,-131.5 4836.5,-112.5 4719.5,-112.5"/>
<text text-anchor="middle" x="4778" y="-119.5" font-family="Helvetica,sans-Serif" font-size="10.00" fill="#000000">RefinementCriteria.cpp</text>
</a>
</g>
</g>
<!-- Node34&#45;&gt;Node147 -->
<g id="edge57" class="edge">
<title>Node34&#45;&gt;Node147</title>
<path fill="none" stroke="#191970" d="M2274.9224,-177.9526C2562.2154,-177.5229 4209.6149,-173.2682 4710,-132 4713.092,-131.745 4716.2573,-131.4386 4719.4492,-131.094"/>
<polygon fill="#191970" stroke="#191970" points="2274.5148,-174.4531 2264.5198,-177.9674 2274.5248,-181.4531 2274.5148,-174.4531"/>
</g>
<!-- Node148 -->
<g id="node50" class="node">
<title>Node148</title>
<g id="a_node50"><a xlink:href="_vorticity_refinement_8cpp.html" target="_top" xlink:title="VorticityRefinement.cpp">
<polygon fill="#ffffff" stroke="#000000" points="4855,-112.5 4855,-131.5 4977,-131.5 4977,-112.5 4855,-112.5"/>
<text text-anchor="middle" x="4916" y="-119.5" font-family="Helvetica,sans-Serif" font-size="10.00" fill="#000000">VorticityRefinement.cpp</text>
</a>
</g>
</g>
<!-- Node34&#45;&gt;Node148 -->
<g id="edge58" class="edge">
<title>Node34&#45;&gt;Node148</title>
<path fill="none" stroke="#191970" d="M2274.6768,-177.5698C2592.0557,-174.3284 4579.6774,-153.2834 4846,-132 4848.9369,-131.7653 4851.9384,-131.4867 4854.9665,-131.1745"/>
<polygon fill="#191970" stroke="#191970" points="2274.4776,-174.0716 2264.5138,-177.6733 2274.5489,-181.0712 2274.4776,-174.0716"/>
</g>
<!-- Node54&#45;&gt;Node59 -->
<g id="edge3" class="edge">
<title>Node54&#45;&gt;Node59</title>
<path fill="none" stroke="#191970" d="M185.8429,-50.49C171.728,-40.6096 153.8849,-28.1194 141.7752,-19.6427"/>
<polygon fill="#191970" stroke="#191970" points="183.8656,-53.3782 194.0651,-56.2455 187.8799,-47.6436 183.8656,-53.3782"/>
</g>
<!-- Node54&#45;&gt;Node61 -->
<g id="edge4" class="edge">
<title>Node54&#45;&gt;Node61</title>
<path fill="none" stroke="#191970" d="M224.6226,-49.0751C234.0855,-39.4402 245.5969,-27.7196 253.5295,-19.6427"/>
<polygon fill="#191970" stroke="#191970" points="222.0903,-46.6585 217.5803,-56.2455 227.0845,-51.5635 222.0903,-46.6585"/>
</g>
<!-- Node62&#45;&gt;Node54 -->
<g id="edge6" class="edge">
<title>Node62&#45;&gt;Node54</title>
<path fill="none" stroke="#191970" d="M177.9769,-104.2112C185.4129,-94.7472 194.266,-83.4797 200.4236,-75.6427"/>
<polygon fill="#191970" stroke="#191970" points="175.0903,-102.22 171.6642,-112.2455 180.5946,-106.5447 175.0903,-102.22"/>
</g>
<!-- Node62&#45;&gt;Node59 -->
<g id="edge7" class="edge">
<title>Node62&#45;&gt;Node59</title>
<path fill="none" stroke="#191970" d="M156.5423,-102.7931C153.45,-94.5874 149.9124,-84.8731 147,-76 140.5298,-56.2875 134.0775,-32.8813 130.6078,-19.9092"/>
<polygon fill="#191970" stroke="#191970" points="153.2998,-104.1129 160.1407,-112.2032 159.8381,-101.6127 153.2998,-104.1129"/>
</g>
<!-- Node68&#45;&gt;Node69 -->
<g id="edge9" class="edge">
<title>Node68&#45;&gt;Node69</title>
<path fill="none" stroke="#191970" d="M404.0663,-102.4538C401.3119,-93.3803 398.1607,-82.9998 395.9272,-75.6427"/>
<polygon fill="#191970" stroke="#191970" points="400.7849,-103.6934 407.0388,-112.2455 407.483,-101.66 400.7849,-103.6934"/>
</g>
<!-- Node73&#45;&gt;Node88 -->
<g id="edge13" class="edge">
<title>Node73&#45;&gt;Node88</title>
<path fill="none" stroke="#191970" d="M636.6688,-103.3372C631.5335,-94.0605 625.5434,-83.2398 621.3379,-75.6427"/>
<polygon fill="#191970" stroke="#191970" points="633.6949,-105.1917 641.6002,-112.2455 639.8191,-101.8015 633.6949,-105.1917"/>
</g>
<!-- Node109&#45;&gt;Node110 -->
<g id="edge25" class="edge">
<title>Node109&#45;&gt;Node110</title>
<path fill="none" stroke="#191970" d="M1849.8604,-103.0437C1845.4195,-93.8331 1840.2735,-83.1598 1836.6491,-75.6427"/>
<polygon fill="#191970" stroke="#191970" points="1846.8012,-104.7579 1854.297,-112.2455 1853.1066,-101.7178 1846.8012,-104.7579"/>
</g>
<!-- Node113&#45;&gt;Node114 -->
<g id="edge31" class="edge">
<title>Node113&#45;&gt;Node114</title>
<path fill="none" stroke="#191970" d="M2212.4324,-105.645C2200.7802,-95.9058 2186.3916,-83.8795 2176.5368,-75.6427"/>
<polygon fill="#191970" stroke="#191970" points="2210.4121,-108.5179 2220.3295,-112.2455 2214.9012,-103.1469 2210.4121,-108.5179"/>
</g>
<!-- Node115&#45;&gt;Node116 -->
<g id="edge34" class="edge">
<title>Node115&#45;&gt;Node116</title>
<path fill="none" stroke="#191970" d="M2384.5185,-103.6296C2378.6804,-94.2887 2371.8248,-83.3197 2367.0267,-75.6427"/>
<polygon fill="#191970" stroke="#191970" points="2381.6354,-105.6206 2389.9035,-112.2455 2387.5714,-101.9105 2381.6354,-105.6206"/>
</g>
<!-- Node132&#45;&gt;Node135 -->
<g id="edge46" class="edge">
<title>Node132&#45;&gt;Node135</title>
<path fill="none" stroke="#191970" d="M3510.4092,-103.9209C3503.8605,-94.5176 3496.1176,-83.3997 3490.7154,-75.6427"/>
<polygon fill="#191970" stroke="#191970" points="3507.6196,-106.0397 3516.2067,-112.2455 3513.3639,-102.0392 3507.6196,-106.0397"/>
</g>
</g>
</svg>
