<?xml version="1.0" encoding="UTF-8" standalone="no"?>
<!DOCTYPE svg PUBLIC "-//W3C//DTD SVG 1.1//EN"
 "http://www.w3.org/Graphics/SVG/1.1/DTD/svg11.dtd">
<!-- Generated by graphviz version 2.40.1 (20161225.0304)
 -->
<!-- Title: CFDSim.H Pages: 1 -->
<svg width="2460pt" height="274pt"
 viewBox="0.00 0.00 2460.00 274.00" xmlns="http://www.w3.org/2000/svg" xmlns:xlink="http://www.w3.org/1999/xlink">
<g id="graph0" class="graph" transform="scale(1 1) rotate(0) translate(4 270)">
<title>CFDSim.H</title>
<polygon fill="#ffffff" stroke="transparent" points="-4,4 -4,-270 2456,-270 2456,4 -4,4"/>
<!-- Node0 -->
<g id="node1" class="node">
<title>Node0</title>
<polygon fill="#bfbfbf" stroke="#000000" points="631.5,-246.5 631.5,-265.5 696.5,-265.5 696.5,-246.5 631.5,-246.5"/>
<text text-anchor="middle" x="664" y="-253.5" font-family="Helvetica,sans-Serif" font-size="10.00" fill="#000000">CFDSim.H</text>
</g>
<!-- Node1 -->
<g id="node2" class="node">
<title>Node1</title>
<polygon fill="#ffffff" stroke="#bfbfbf" points="611,-129 611,-148 717,-148 717,-129 611,-129"/>
<text text-anchor="middle" x="664" y="-136" font-family="Helvetica,sans-Serif" font-size="10.00" fill="#000000">AMReX_AmrCore.H</text>
</g>
<!-- Node0&#45;&gt;Node1 -->
<g id="edge1" class="edge">
<title>Node0&#45;&gt;Node1</title>
<path fill="none" stroke="#191970" d="M664,-246.3845C664,-227.1913 664,-183.786 664,-158.2663"/>
<polygon fill="#191970" stroke="#191970" points="667.5001,-158.2483 664,-148.2484 660.5001,-158.2484 667.5001,-158.2483"/>
</g>
<!-- Node2 -->
<g id="node3" class="node">
<title>Node2</title>
<g id="a_node3"><a xlink:href="_sim_time_8_h.html" target="_top" xlink:title="amr&#45;wind/core/SimTime.H">
<polygon fill="#ffffff" stroke="#000000" points="2131.5,-190.5 2131.5,-209.5 2262.5,-209.5 2262.5,-190.5 2131.5,-190.5"/>
<text text-anchor="middle" x="2197" y="-197.5" font-family="Helvetica,sans-Serif" font-size="10.00" fill="#000000">amr&#45;wind/core/SimTime.H</text>
</a>
</g>
</g>
<!-- Node0&#45;&gt;Node2 -->
<g id="edge2" class="edge">
<title>Node0&#45;&gt;Node2</title>
<path fill="none" stroke="#191970" d="M696.7281,-254.8045C886.0884,-247.8872 1842.5327,-212.9486 2120.8952,-202.7801"/>
<polygon fill="#191970" stroke="#191970" points="2121.4283,-206.263 2131.2938,-202.4002 2121.1727,-199.2677 2121.4283,-206.263"/>
</g>
<!-- Node6 -->
<g id="node7" class="node">
<title>Node6</title>
<g id="a_node7"><a xlink:href="_field_repo_8_h.html" target="_top" xlink:title="amr&#45;wind/core/FieldRepo.H">
<polygon fill="#ffffff" stroke="#000000" points="1498,-190.5 1498,-209.5 1634,-209.5 1634,-190.5 1498,-190.5"/>
<text text-anchor="middle" x="1566" y="-197.5" font-family="Helvetica,sans-Serif" font-size="10.00" fill="#000000">amr&#45;wind/core/FieldRepo.H</text>
</a>
</g>
</g>
<!-- Node0&#45;&gt;Node6 -->
<g id="edge6" class="edge">
<title>Node0&#45;&gt;Node6</title>
<path fill="none" stroke="#191970" d="M696.6355,-253.9738C825.2636,-245.9881 1299.31,-216.5573 1487.884,-204.8498"/>
<polygon fill="#191970" stroke="#191970" points="1488.2349,-208.3348 1497.9988,-204.2218 1487.8011,-201.3483 1488.2349,-208.3348"/>
</g>
<!-- Node24 -->
<g id="node25" class="node">
<title>Node24</title>
<g id="a_node25"><a xlink:href="_p_d_e_base_8_h.html" target="_top" xlink:title="amr&#45;wind/equation_systems\l/PDEBase.H">
<polygon fill="#ffffff" stroke="#000000" points="453.5,-123.5 453.5,-153.5 592.5,-153.5 592.5,-123.5 453.5,-123.5"/>
<text text-anchor="start" x="461.5" y="-141.5" font-family="Helvetica,sans-Serif" font-size="10.00" fill="#000000">amr&#45;wind/equation_systems</text>
<text text-anchor="middle" x="523" y="-130.5" font-family="Helvetica,sans-Serif" font-size="10.00" fill="#000000">/PDEBase.H</text>
</a>
</g>
</g>
<!-- Node0&#45;&gt;Node24 -->
<g id="edge42" class="edge">
<title>Node0&#45;&gt;Node24</title>
<path fill="none" stroke="#191970" d="M652.4614,-246.3845C630.0015,-227.6679 579.912,-185.9267 549.0398,-160.1998"/>
<polygon fill="#191970" stroke="#191970" points="551.1801,-157.4274 541.2572,-153.7143 546.6988,-162.805 551.1801,-157.4274"/>
</g>
<!-- Node32 -->
<g id="node33" class="node">
<title>Node32</title>
<g id="a_node33"><a xlink:href="_physics_8_h.html" target="_top" xlink:title="amr&#45;wind/core/Physics.H">
<polygon fill="#ffffff" stroke="#000000" points="270.5,-129 270.5,-148 397.5,-148 397.5,-129 270.5,-129"/>
<text text-anchor="middle" x="334" y="-136" font-family="Helvetica,sans-Serif" font-size="10.00" fill="#000000">amr&#45;wind/core/Physics.H</text>
</a>
</g>
</g>
<!-- Node0&#45;&gt;Node32 -->
<g id="edge59" class="edge">
<title>Node0&#45;&gt;Node32</title>
<path fill="none" stroke="#191970" d="M637.2742,-246.484C578.457,-225.5415 437.7198,-175.4305 370.6937,-151.5652"/>
<polygon fill="#191970" stroke="#191970" points="371.5699,-148.162 360.9752,-148.1048 369.2218,-154.7564 371.5699,-148.162"/>
</g>
<!-- Node3 -->
<g id="node4" class="node">
<title>Node3</title>
<polygon fill="#ffffff" stroke="#bfbfbf" points="2086.5,-129 2086.5,-148 2179.5,-148 2179.5,-129 2086.5,-129"/>
<text text-anchor="middle" x="2133" y="-136" font-family="Helvetica,sans-Serif" font-size="10.00" fill="#000000">AMReX_REAL.H</text>
</g>
<!-- Node2&#45;&gt;Node3 -->
<g id="edge3" class="edge">
<title>Node2&#45;&gt;Node3</title>
<path fill="none" stroke="#191970" d="M2187,-190.3906C2177.2881,-181.0581 2162.3361,-166.6902 2150.6259,-155.4374"/>
<polygon fill="#191970" stroke="#191970" points="2152.7766,-152.65 2143.141,-148.2449 2147.9264,-157.6974 2152.7766,-152.65"/>
</g>
<!-- Node4 -->
<g id="node5" class="node">
<title>Node4</title>
<polygon fill="#ffffff" stroke="#bfbfbf" points="2198,-129 2198,-148 2324,-148 2324,-129 2198,-129"/>
<text text-anchor="middle" x="2261" y="-136" font-family="Helvetica,sans-Serif" font-size="10.00" fill="#000000">AMReX_GpuQualifiers.H</text>
</g>
<!-- Node2&#45;&gt;Node4 -->
<g id="edge4" class="edge">
<title>Node2&#45;&gt;Node4</title>
<path fill="none" stroke="#191970" d="M2207,-190.3906C2216.7119,-181.0581 2231.6639,-166.6902 2243.3741,-155.4374"/>
<polygon fill="#191970" stroke="#191970" points="2246.0736,-157.6974 2250.859,-148.2449 2241.2234,-152.65 2246.0736,-157.6974"/>
</g>
<!-- Node5 -->
<g id="node6" class="node">
<title>Node5</title>
<polygon fill="#ffffff" stroke="#bfbfbf" points="2342,-129 2342,-148 2452,-148 2452,-129 2342,-129"/>
<text text-anchor="middle" x="2397" y="-136" font-family="Helvetica,sans-Serif" font-size="10.00" fill="#000000">AMReX_Extension.H</text>
</g>
<!-- Node2&#45;&gt;Node5 -->
<g id="edge5" class="edge">
<title>Node2&#45;&gt;Node5</title>
<path fill="none" stroke="#191970" d="M2228.25,-190.3906C2262.7411,-179.7846 2318.3812,-162.6753 2356.2662,-151.0257"/>
<polygon fill="#191970" stroke="#191970" points="2357.4399,-154.3266 2365.9694,-148.0419 2355.3824,-147.6357 2357.4399,-154.3266"/>
</g>
<!-- Node6&#45;&gt;Node1 -->
<g id="edge39" class="edge">
<title>Node6&#45;&gt;Node1</title>
<path fill="none" stroke="#191970" d="M1497.9562,-197.7654C1326.2379,-191.8825 878.5136,-174.9668 731,-154 724.1701,-153.0292 717.01,-151.707 710.0168,-150.2415"/>
<polygon fill="#191970" stroke="#191970" points="710.4679,-146.7568 699.9482,-148.0161 708.9572,-153.5919 710.4679,-146.7568"/>
</g>
<!-- Node7 -->
<g id="node8" class="node">
<title>Node7</title>
<polygon fill="#ffffff" stroke="#bfbfbf" points="1385.5,-.5 1385.5,-19.5 1426.5,-19.5 1426.5,-.5 1385.5,-.5"/>
<text text-anchor="middle" x="1406" y="-7.5" font-family="Helvetica,sans-Serif" font-size="10.00" fill="#000000">string</text>
</g>
<!-- Node6&#45;&gt;Node7 -->
<g id="edge7" class="edge">
<title>Node6&#45;&gt;Node7</title>
<path fill="none" stroke="#191970" d="M1588.1359,-190.3779C1637.3882,-167.6929 1748.2471,-108.7945 1703,-56 1685.8022,-35.9335 1509.8078,-18.8177 1437.1329,-12.5502"/>
<polygon fill="#191970" stroke="#191970" points="1437.0533,-9.031 1426.7929,-11.6719 1436.4607,-16.0058 1437.0533,-9.031"/>
</g>
<!-- Node8 -->
<g id="node9" class="node">
<title>Node8</title>
<polygon fill="#ffffff" stroke="#bfbfbf" points="382.5,-.5 382.5,-19.5 465.5,-19.5 465.5,-.5 382.5,-.5"/>
<text text-anchor="middle" x="424" y="-7.5" font-family="Helvetica,sans-Serif" font-size="10.00" fill="#000000">unordered_map</text>
</g>
<!-- Node6&#45;&gt;Node8 -->
<g id="edge8" class="edge">
<title>Node6&#45;&gt;Node8</title>
<path fill="none" stroke="#191970" d="M1497.9647,-194.9474C1394.7576,-187.1267 1192.4831,-171.1887 1021,-154 1012.9725,-153.1954 450.0859,-92.2963 444,-87 427.7699,-72.8757 423.8864,-47.4294 423.3333,-29.67"/>
<polygon fill="#191970" stroke="#191970" points="426.8333,-29.5451 423.3463,-19.5406 419.8333,-29.536 426.8333,-29.5451"/>
</g>
<!-- Node9 -->
<g id="node10" class="node">
<title>Node9</title>
<g id="a_node10"><a xlink:href="_field_desc_types_8_h.html" target="_top" xlink:title="amr&#45;wind/core/FieldDescTypes.H">
<polygon fill="#ffffff" stroke="#000000" points="1736.5,-.5 1736.5,-19.5 1899.5,-19.5 1899.5,-.5 1736.5,-.5"/>
<text text-anchor="middle" x="1818" y="-7.5" font-family="Helvetica,sans-Serif" font-size="10.00" fill="#000000">amr&#45;wind/core/FieldDescTypes.H</text>
</a>
</g>
</g>
<!-- Node6&#45;&gt;Node9 -->
<g id="edge9" class="edge">
<title>Node6&#45;&gt;Node9</title>
<path fill="none" stroke="#191970" d="M1634.0961,-196.6496C1725.1223,-191.288 1880.9308,-178.7644 1932,-154 1970.1759,-135.4878 1983.6186,-126.1376 2000,-87 2005.3196,-74.2906 2008.465,-66.8707 2000,-56 1987.5336,-39.9907 1944.1365,-28.6724 1902.8473,-21.2692"/>
<polygon fill="#191970" stroke="#191970" points="1903.4245,-17.8171 1892.9746,-19.5637 1902.2329,-24.715 1903.4245,-17.8171"/>
</g>
<!-- Node10 -->
<g id="node11" class="node">
<title>Node10</title>
<g id="a_node11"><a xlink:href="_field_utils_8_h.html" target="_top" xlink:title="amr&#45;wind/core/FieldUtils.H">
<polygon fill="#ffffff" stroke="#000000" points="2048.5,-62 2048.5,-81 2181.5,-81 2181.5,-62 2048.5,-62"/>
<text text-anchor="middle" x="2115" y="-69" font-family="Helvetica,sans-Serif" font-size="10.00" fill="#000000">amr&#45;wind/core/FieldUtils.H</text>
</a>
</g>
</g>
<!-- Node6&#45;&gt;Node10 -->
<g id="edge10" class="edge">
<title>Node6&#45;&gt;Node10</title>
<path fill="none" stroke="#191970" d="M1634.2112,-198.9672C1746.5802,-196.3302 1965.0492,-186.9907 2034,-154 2064.0115,-139.6404 2089.1161,-109.2909 2103.0869,-89.6768"/>
<polygon fill="#191970" stroke="#191970" points="2106.0836,-91.4958 2108.8621,-81.2718 2100.3142,-87.5316 2106.0836,-91.4958"/>
</g>
<!-- Node11 -->
<g id="node12" class="node">
<title>Node11</title>
<polygon fill="#ffffff" stroke="#bfbfbf" points="1263,-.5 1263,-19.5 1367,-19.5 1367,-.5 1263,-.5"/>
<text text-anchor="middle" x="1315" y="-7.5" font-family="Helvetica,sans-Serif" font-size="10.00" fill="#000000">AMReX_MultiFab.H</text>
</g>
<!-- Node6&#45;&gt;Node11 -->
<g id="edge40" class="edge">
<title>Node6&#45;&gt;Node11</title>
<path fill="none" stroke="#191970" d="M1497.901,-198.5033C1355.1324,-193.6612 1032.9401,-173.2075 976,-87 925.9444,-11.2157 993.4657,-57.7862 1253,-20 1253.1011,-19.9853 1253.2024,-19.9705 1253.3037,-19.9557"/>
<polygon fill="#191970" stroke="#191970" points="1253.5497,-23.4579 1262.9226,-18.5184 1252.5151,-16.5348 1253.5497,-23.4579"/>
</g>
<!-- Node13 -->
<g id="node14" class="node">
<title>Node13</title>
<g id="a_node14"><a xlink:href="_field_8_h.html" target="_top" xlink:title="amr&#45;wind/core/Field.H">
<polygon fill="#ffffff" stroke="#000000" points="1142.5,-129 1142.5,-148 1255.5,-148 1255.5,-129 1142.5,-129"/>
<text text-anchor="middle" x="1199" y="-136" font-family="Helvetica,sans-Serif" font-size="10.00" fill="#000000">amr&#45;wind/core/Field.H</text>
</a>
</g>
</g>
<!-- Node6&#45;&gt;Node13 -->
<g id="edge14" class="edge">
<title>Node6&#45;&gt;Node13</title>
<path fill="none" stroke="#191970" d="M1509.0589,-190.4581C1443.3341,-179.4443 1335.3752,-161.3531 1265.7565,-149.6867"/>
<polygon fill="#191970" stroke="#191970" points="1266.2137,-146.2146 1255.7727,-148.0137 1265.0567,-153.1183 1266.2137,-146.2146"/>
</g>
<!-- Node20 -->
<g id="node21" class="node">
<title>Node20</title>
<g id="a_node21"><a xlink:href="_int_field_8_h.html" target="_top" xlink:title="amr&#45;wind/core/IntField.H">
<polygon fill="#ffffff" stroke="#000000" points="1774,-129 1774,-148 1898,-148 1898,-129 1774,-129"/>
<text text-anchor="middle" x="1836" y="-136" font-family="Helvetica,sans-Serif" font-size="10.00" fill="#000000">amr&#45;wind/core/IntField.H</text>
</a>
</g>
</g>
<!-- Node6&#45;&gt;Node20 -->
<g id="edge28" class="edge">
<title>Node6&#45;&gt;Node20</title>
<path fill="none" stroke="#191970" d="M1607.8913,-190.4581C1655.3826,-179.6406 1732.8472,-161.9959 1784.1215,-150.3168"/>
<polygon fill="#191970" stroke="#191970" points="1785.0375,-153.6978 1794.0105,-148.0643 1783.4829,-146.8727 1785.0375,-153.6978"/>
</g>
<!-- Node21 -->
<g id="node22" class="node">
<title>Node21</title>
<polygon fill="#ffffff" stroke="#bfbfbf" points="1884.5,-62 1884.5,-81 1991.5,-81 1991.5,-62 1884.5,-62"/>
<text text-anchor="middle" x="1938" y="-69" font-family="Helvetica,sans-Serif" font-size="10.00" fill="#000000">AMReX_iMultiFab.H</text>
</g>
<!-- Node6&#45;&gt;Node21 -->
<g id="edge41" class="edge">
<title>Node6&#45;&gt;Node21</title>
<path fill="none" stroke="#191970" d="M1634.3172,-194.5397C1727.7051,-186.5103 1886.0917,-170.6576 1907,-154 1926.1071,-138.7774 1933.4391,-110.4517 1936.2515,-91.2888"/>
<polygon fill="#191970" stroke="#191970" points="1939.742,-91.5748 1937.44,-81.2331 1932.7904,-90.7531 1939.742,-91.5748"/>
</g>
<!-- Node22 -->
<g id="node23" class="node">
<title>Node22</title>
<g id="a_node23"><a xlink:href="_scratch_field_8_h.html" target="_top" xlink:title="amr&#45;wind/core/ScratchField.H">
<polygon fill="#ffffff" stroke="#000000" points="1493,-129 1493,-148 1639,-148 1639,-129 1493,-129"/>
<text text-anchor="middle" x="1566" y="-136" font-family="Helvetica,sans-Serif" font-size="10.00" fill="#000000">amr&#45;wind/core/ScratchField.H</text>
</a>
</g>
</g>
<!-- Node6&#45;&gt;Node22 -->
<g id="edge32" class="edge">
<title>Node6&#45;&gt;Node22</title>
<path fill="none" stroke="#191970" d="M1566,-190.3906C1566,-181.8657 1566,-169.1392 1566,-158.4235"/>
<polygon fill="#191970" stroke="#191970" points="1569.5001,-158.2448 1566,-148.2449 1562.5001,-158.2449 1569.5001,-158.2448"/>
</g>
<!-- Node10&#45;&gt;Node9 -->
<g id="edge11" class="edge">
<title>Node10&#45;&gt;Node9</title>
<path fill="none" stroke="#191970" d="M2068.9196,-61.9581C2016.3527,-51.073 1930.4017,-33.2751 1874.0123,-21.5985"/>
<polygon fill="#191970" stroke="#191970" points="1874.6905,-18.1648 1864.1885,-19.5643 1873.271,-25.0193 1874.6905,-18.1648"/>
</g>
<!-- Node10&#45;&gt;Node11 -->
<g id="edge12" class="edge">
<title>Node10&#45;&gt;Node11</title>
<path fill="none" stroke="#191970" d="M2050.9294,-61.9825C2034.3683,-59.7647 2016.5441,-57.5898 2000,-56 1726.8548,-29.7518 1653.8866,-50.0044 1377.5332,-20.0591"/>
<polygon fill="#191970" stroke="#191970" points="1377.5157,-16.5363 1367.1939,-18.9258 1376.7529,-23.4946 1377.5157,-16.5363"/>
</g>
<!-- Node12 -->
<g id="node13" class="node">
<title>Node12</title>
<polygon fill="#ffffff" stroke="#bfbfbf" points="2057,-.5 2057,-19.5 2173,-19.5 2173,-.5 2057,-.5"/>
<text text-anchor="middle" x="2115" y="-7.5" font-family="Helvetica,sans-Serif" font-size="10.00" fill="#000000">AMReX_Interpolater.H</text>
</g>
<!-- Node10&#45;&gt;Node12 -->
<g id="edge13" class="edge">
<title>Node10&#45;&gt;Node12</title>
<path fill="none" stroke="#191970" d="M2115,-61.8906C2115,-53.3657 2115,-40.6392 2115,-29.9235"/>
<polygon fill="#191970" stroke="#191970" points="2118.5001,-29.7448 2115,-19.7449 2111.5001,-29.7449 2118.5001,-29.7448"/>
</g>
<!-- Node13&#45;&gt;Node7 -->
<g id="edge15" class="edge">
<title>Node13&#45;&gt;Node7</title>
<path fill="none" stroke="#191970" d="M1213.4159,-128.9439C1228.4992,-118.8354 1252.755,-102.2676 1273,-87 1290.4021,-73.8764 1292.622,-67.718 1311,-56 1331.6575,-42.8285 1356.6489,-30.8685 1375.8133,-22.4469"/>
<polygon fill="#191970" stroke="#191970" points="1377.4531,-25.5514 1385.25,-18.3778 1374.6814,-19.1235 1377.4531,-25.5514"/>
</g>
<!-- Node13&#45;&gt;Node8 -->
<g id="edge17" class="edge">
<title>Node13&#45;&gt;Node8</title>
<path fill="none" stroke="#191970" d="M1148.8786,-128.9953C1103.3361,-119.8714 1034.5254,-104.8632 976,-87 939.1326,-75.7473 932.5559,-64.6825 895,-56 719.3655,-15.3955 670.0025,-41.3147 491,-20 486.1462,-19.422 481.1025,-18.7682 476.0583,-18.0782"/>
<polygon fill="#191970" stroke="#191970" points="476.1562,-14.5574 465.7649,-16.6243 475.1771,-21.4886 476.1562,-14.5574"/>
</g>
<!-- Node13&#45;&gt;Node9 -->
<g id="edge22" class="edge">
<title>Node13&#45;&gt;Node9</title>
<path fill="none" stroke="#191970" d="M1255.6466,-130.7172C1309.6344,-122.5367 1392.858,-107.9294 1463,-87 1497.9567,-76.5694 1503.8945,-65.9182 1539,-56 1600.3742,-38.6602 1671.3081,-27.073 1726.2931,-19.8653"/>
<polygon fill="#191970" stroke="#191970" points="1726.8965,-23.3167 1736.3685,-18.5701 1726.0039,-16.3738 1726.8965,-23.3167"/>
</g>
<!-- Node13&#45;&gt;Node11 -->
<g id="edge18" class="edge">
<title>Node13&#45;&gt;Node11</title>
<path fill="none" stroke="#191970" d="M1207.7189,-128.8416C1227.2009,-107.2602 1274.4943,-54.8706 1299.2697,-27.4254"/>
<polygon fill="#191970" stroke="#191970" points="1302.0771,-29.5387 1306.18,-19.7705 1296.8811,-24.8481 1302.0771,-29.5387"/>
</g>
<!-- Node14 -->
<g id="node15" class="node">
<title>Node14</title>
<polygon fill="#ffffff" stroke="#bfbfbf" points="310,-.5 310,-19.5 362,-19.5 362,-.5 310,-.5"/>
<text text-anchor="middle" x="336" y="-7.5" font-family="Helvetica,sans-Serif" font-size="10.00" fill="#000000">memory</text>
</g>
<!-- Node13&#45;&gt;Node14 -->
<g id="edge16" class="edge">
<title>Node13&#45;&gt;Node14</title>
<path fill="none" stroke="#191970" d="M1142.4593,-132.869C1066.8762,-124.6722 937.4886,-108.1032 895,-87 876.9775,-78.0486 880.4245,-64.0917 862,-56 762.2366,-12.1855 480.4135,-38.2973 373,-20 372.6679,-19.9434 372.3345,-19.8852 371.9999,-19.8254"/>
<polygon fill="#191970" stroke="#191970" points="372.649,-16.3852 362.1393,-17.7258 371.1912,-23.2317 372.649,-16.3852"/>
</g>
<!-- Node15 -->
<g id="node16" class="node">
<title>Node15</title>
<polygon fill="#ffffff" stroke="#bfbfbf" points="985.5,-62 985.5,-81 1084.5,-81 1084.5,-62 985.5,-62"/>
<text text-anchor="middle" x="1035" y="-69" font-family="Helvetica,sans-Serif" font-size="10.00" fill="#000000">AMReX_BCRec.H</text>
</g>
<!-- Node13&#45;&gt;Node15 -->
<g id="edge19" class="edge">
<title>Node13&#45;&gt;Node15</title>
<path fill="none" stroke="#191970" d="M1175.5028,-128.9005C1147.2492,-117.3579 1099.6608,-97.9163 1067.7983,-84.8993"/>
<polygon fill="#191970" stroke="#191970" points="1069.0346,-81.6236 1058.4536,-81.0817 1066.3872,-88.1037 1069.0346,-81.6236"/>
</g>
<!-- Node16 -->
<g id="node17" class="node">
<title>Node16</title>
<polygon fill="#ffffff" stroke="#bfbfbf" points="1102.5,-62 1102.5,-81 1187.5,-81 1187.5,-62 1102.5,-62"/>
<text text-anchor="middle" x="1145" y="-69" font-family="Helvetica,sans-Serif" font-size="10.00" fill="#000000">AMReX_Gpu.H</text>
</g>
<!-- Node13&#45;&gt;Node16 -->
<g id="edge20" class="edge">
<title>Node13&#45;&gt;Node16</title>
<path fill="none" stroke="#191970" d="M1191.2631,-128.9005C1182.9225,-118.552 1169.4646,-101.8542 1159.2088,-89.1295"/>
<polygon fill="#191970" stroke="#191970" points="1161.7229,-86.6713 1152.7225,-81.0817 1156.2727,-91.064 1161.7229,-86.6713"/>
</g>
<!-- Node17 -->
<g id="node18" class="node">
<title>Node17</title>
<g id="a_node18"><a xlink:href="incflo__enums_8_h.html" target="_top" xlink:title="amr&#45;wind/incflo_enums.H">
<polygon fill="#ffffff" stroke="#000000" points="725,-62 725,-81 853,-81 853,-62 725,-62"/>
<text text-anchor="middle" x="789" y="-69" font-family="Helvetica,sans-Serif" font-size="10.00" fill="#000000">amr&#45;wind/incflo_enums.H</text>
</a>
</g>
</g>
<!-- Node13&#45;&gt;Node17 -->
<g id="edge21" class="edge">
<title>Node13&#45;&gt;Node17</title>
<path fill="none" stroke="#191970" d="M1142.486,-130.4764C1076.3203,-120.9106 963.4943,-104.0638 867,-87 859.8963,-85.7438 852.4431,-84.3547 845.079,-82.9393"/>
<polygon fill="#191970" stroke="#191970" points="845.618,-79.4786 835.1334,-81.0028 844.2801,-86.3495 845.618,-79.4786"/>
</g>
<!-- Node18 -->
<g id="node19" class="node">
<title>Node18</title>
<g id="a_node19"><a xlink:href="_view_field_8_h.html" target="_top" xlink:title="amr&#45;wind/core/ViewField.H">
<polygon fill="#ffffff" stroke="#000000" points="1320,-62 1320,-81 1454,-81 1454,-62 1320,-62"/>
<text text-anchor="middle" x="1387" y="-69" font-family="Helvetica,sans-Serif" font-size="10.00" fill="#000000">amr&#45;wind/core/ViewField.H</text>
</a>
</g>
</g>
<!-- Node13&#45;&gt;Node18 -->
<g id="edge23" class="edge">
<title>Node13&#45;&gt;Node18</title>
<path fill="none" stroke="#191970" d="M1225.9358,-128.9005C1258.6033,-117.2584 1313.8188,-97.5805 1350.3425,-84.5641"/>
<polygon fill="#191970" stroke="#191970" points="1351.8694,-87.7356 1360.1142,-81.0817 1349.5195,-81.1418 1351.8694,-87.7356"/>
</g>
<!-- Node18&#45;&gt;Node7 -->
<g id="edge24" class="edge">
<title>Node18&#45;&gt;Node7</title>
<path fill="none" stroke="#191970" d="M1389.9688,-61.8906C1392.6302,-53.276 1396.6171,-40.3708 1399.9491,-29.5858"/>
<polygon fill="#191970" stroke="#191970" points="1403.3816,-30.3324 1402.9894,-19.7449 1396.6935,-28.2661 1403.3816,-30.3324"/>
</g>
<!-- Node18&#45;&gt;Node9 -->
<g id="edge25" class="edge">
<title>Node18&#45;&gt;Node9</title>
<path fill="none" stroke="#191970" d="M1434.4604,-61.9375C1445.4514,-59.8566 1457.116,-57.7551 1468,-56 1555.3681,-41.9117 1655.531,-29.0813 1726.2577,-20.572"/>
<polygon fill="#191970" stroke="#191970" points="1726.9614,-24.0128 1736.4742,-19.3482 1726.1289,-17.0625 1726.9614,-24.0128"/>
</g>
<!-- Node18&#45;&gt;Node11 -->
<g id="edge26" class="edge">
<title>Node18&#45;&gt;Node11</title>
<path fill="none" stroke="#191970" d="M1375.75,-61.8906C1364.614,-52.3786 1347.354,-37.6357 1334.0732,-26.2917"/>
<polygon fill="#191970" stroke="#191970" points="1336.2856,-23.5784 1326.4086,-19.7449 1331.7392,-28.9011 1336.2856,-23.5784"/>
</g>
<!-- Node19 -->
<g id="node20" class="node">
<title>Node19</title>
<polygon fill="#ffffff" stroke="#bfbfbf" points="1149.5,-.5 1149.5,-19.5 1244.5,-19.5 1244.5,-.5 1149.5,-.5"/>
<text text-anchor="middle" x="1197" y="-7.5" font-family="Helvetica,sans-Serif" font-size="10.00" fill="#000000">AMReX_Vector.H</text>
</g>
<!-- Node18&#45;&gt;Node19 -->
<g id="edge27" class="edge">
<title>Node18&#45;&gt;Node19</title>
<path fill="none" stroke="#191970" d="M1357.3125,-61.8906C1324.6854,-51.3298 1272.1374,-34.3208 1236.1575,-22.6747"/>
<polygon fill="#191970" stroke="#191970" points="1237.0709,-19.2916 1226.479,-19.5419 1234.9152,-25.9514 1237.0709,-19.2916"/>
</g>
<!-- Node20&#45;&gt;Node7 -->
<g id="edge29" class="edge">
<title>Node20&#45;&gt;Node7</title>
<path fill="none" stroke="#191970" d="M1829.9174,-128.8348C1818.1132,-111.0074 1790.2263,-73.2024 1756,-56 1700.2848,-27.9972 1511.9964,-15.4476 1437.1011,-11.4775"/>
<polygon fill="#191970" stroke="#191970" points="1437.0696,-7.9714 1426.903,-10.9532 1436.7101,-14.9622 1437.0696,-7.9714"/>
</g>
<!-- Node20&#45;&gt;Node9 -->
<g id="edge30" class="edge">
<title>Node20&#45;&gt;Node9</title>
<path fill="none" stroke="#191970" d="M1836.3001,-128.7622C1836.6058,-113.2424 1836.5144,-81.9961 1832,-56 1830.4508,-47.0788 1827.701,-37.4593 1825.0462,-29.3348"/>
<polygon fill="#191970" stroke="#191970" points="1828.2917,-28.0104 1821.7198,-19.7002 1821.675,-30.2949 1828.2917,-28.0104"/>
</g>
<!-- Node20&#45;&gt;Node21 -->
<g id="edge31" class="edge">
<title>Node20&#45;&gt;Node21</title>
<path fill="none" stroke="#191970" d="M1850.6141,-128.9005C1867.429,-117.8554 1895.2549,-99.5776 1914.9858,-86.6172"/>
<polygon fill="#191970" stroke="#191970" points="1916.9764,-89.4972 1923.413,-81.0817 1913.1333,-83.6465 1916.9764,-89.4972"/>
</g>
<!-- Node22&#45;&gt;Node7 -->
<g id="edge33" class="edge">
<title>Node22&#45;&gt;Node7</title>
<path fill="none" stroke="#191970" d="M1603.1339,-128.9091C1647.7812,-115.6287 1713.3841,-89.4471 1685,-56 1669.0576,-37.2139 1506.5355,-19.6027 1437.1391,-12.877"/>
<polygon fill="#191970" stroke="#191970" points="1437.1253,-9.3599 1426.8376,-11.8926 1436.4593,-16.3281 1437.1253,-9.3599"/>
</g>
<!-- Node22&#45;&gt;Node9 -->
<g id="edge34" class="edge">
<title>Node22&#45;&gt;Node9</title>
<path fill="none" stroke="#191970" d="M1597.6175,-128.9185C1625.9654,-119.7943 1668.3103,-104.8307 1703,-87 1738.0898,-68.9637 1775.4781,-42.3859 1797.7798,-25.6444"/>
<polygon fill="#191970" stroke="#191970" points="1799.9729,-28.3738 1805.8228,-19.5403 1795.7411,-22.7977 1799.9729,-28.3738"/>
</g>
<!-- Node22&#45;&gt;Node11 -->
<g id="edge36" class="edge">
<title>Node22&#45;&gt;Node11</title>
<path fill="none" stroke="#191970" d="M1556.6572,-128.9492C1539.5587,-111.975 1501.4426,-76.4229 1463,-56 1434.0922,-40.6426 1399.2361,-29.4931 1370.6136,-22.0204"/>
<polygon fill="#191970" stroke="#191970" points="1371.3224,-18.5895 1360.7694,-19.5297 1369.6054,-25.3757 1371.3224,-18.5895"/>
</g>
<!-- Node22&#45;&gt;Node18 -->
<g id="edge35" class="edge">
<title>Node22&#45;&gt;Node18</title>
<path fill="none" stroke="#191970" d="M1540.3537,-128.9005C1509.383,-117.3082 1457.1268,-97.7486 1422.3494,-84.7313"/>
<polygon fill="#191970" stroke="#191970" points="1423.1912,-81.3093 1412.5988,-81.0817 1420.7373,-87.8651 1423.1912,-81.3093"/>
</g>
<!-- Node22&#45;&gt;Node19 -->
<g id="edge37" class="edge">
<title>Node22&#45;&gt;Node19</title>
<path fill="none" stroke="#191970" d="M1492.8593,-131.4812C1440.6226,-124.6343 1369.5293,-111.516 1311,-87 1274.4389,-71.6857 1237.3684,-43.8643 1215.8161,-26.1897"/>
<polygon fill="#191970" stroke="#191970" points="1218.0107,-23.4625 1208.0911,-19.7405 1213.5245,-28.836 1218.0107,-23.4625"/>
</g>
<!-- Node23 -->
<g id="node24" class="node">
<title>Node23</title>
<polygon fill="#ffffff" stroke="#bfbfbf" points="1548,-62 1548,-81 1676,-81 1676,-62 1548,-62"/>
<text text-anchor="middle" x="1612" y="-69" font-family="Helvetica,sans-Serif" font-size="10.00" fill="#000000">AMReX_PhysBCFunct.H</text>
</g>
<!-- Node22&#45;&gt;Node23 -->
<g id="edge38" class="edge">
<title>Node22&#45;&gt;Node23</title>
<path fill="none" stroke="#191970" d="M1572.5907,-128.9005C1579.6273,-118.6515 1590.9398,-102.1747 1599.6434,-89.4976"/>
<polygon fill="#191970" stroke="#191970" points="1602.6468,-91.3067 1605.4215,-81.0817 1596.876,-87.3446 1602.6468,-91.3067"/>
</g>
<!-- Node24&#45;&gt;Node7 -->
<g id="edge43" class="edge">
<title>Node24&#45;&gt;Node7</title>
<path fill="none" stroke="#191970" d="M559.2007,-123.4182C581.4544,-113.7655 610.3321,-100.5472 635,-87 657.2597,-74.7753 658.8357,-63.8117 683,-56 826.7218,-9.5383 1208.3894,-47.0357 1375.0301,-19.5419"/>
<polygon fill="#191970" stroke="#191970" points="1375.9791,-22.9281 1385.2101,-17.7282 1374.7512,-16.0366 1375.9791,-22.9281"/>
</g>
<!-- Node24&#45;&gt;Node9 -->
<g id="edge57" class="edge">
<title>Node24&#45;&gt;Node9</title>
<path fill="none" stroke="#191970" d="M579.4628,-123.4175C608.2848,-114.6589 643.4134,-102.316 673,-87 693.9226,-76.1691 693.7358,-63.7051 716,-56 763.349,-39.6135 1470.0789,-19.2688 1726.1941,-12.3953"/>
<polygon fill="#191970" stroke="#191970" points="1726.3123,-15.8935 1736.2151,-12.1271 1726.125,-8.896 1726.3123,-15.8935"/>
</g>
<!-- Node24&#45;&gt;Node17 -->
<g id="edge58" class="edge">
<title>Node24&#45;&gt;Node17</title>
<path fill="none" stroke="#191970" d="M582.6956,-123.4639C630.5852,-111.4015 696.9149,-94.6944 741.3072,-83.5128"/>
<polygon fill="#191970" stroke="#191970" points="742.4204,-86.8419 751.2626,-81.0053 740.7106,-80.0539 742.4204,-86.8419"/>
</g>
<!-- Node25 -->
<g id="node26" class="node">
<title>Node25</title>
<g id="a_node26"><a xlink:href="_factory_8_h.html" target="_top" xlink:title="amr&#45;wind/core/Factory.H">
<polygon fill="#ffffff" stroke="#000000" points="128.5,-62 128.5,-81 253.5,-81 253.5,-62 128.5,-62"/>
<text text-anchor="middle" x="191" y="-69" font-family="Helvetica,sans-Serif" font-size="10.00" fill="#000000">amr&#45;wind/core/Factory.H</text>
</a>
</g>
</g>
<!-- Node24&#45;&gt;Node25 -->
<g id="edge44" class="edge">
<title>Node24&#45;&gt;Node25</title>
<path fill="none" stroke="#191970" d="M453.408,-125.1631C400.7844,-114.9823 326.778,-100.4604 262,-87 256.2231,-85.7996 250.1875,-84.5205 244.1804,-83.2316"/>
<polygon fill="#191970" stroke="#191970" points="244.6622,-79.755 234.1487,-81.0652 243.1845,-86.5973 244.6622,-79.755"/>
</g>
<!-- Node29 -->
<g id="node30" class="node">
<title>Node29</title>
<g id="a_node30"><a xlink:href="_coll_mgr_8_h.html" target="_top" xlink:title="amr&#45;wind/core/CollMgr.H">
<polygon fill="#ffffff" stroke="#000000" points="271.5,-62 271.5,-81 396.5,-81 396.5,-62 271.5,-62"/>
<text text-anchor="middle" x="334" y="-69" font-family="Helvetica,sans-Serif" font-size="10.00" fill="#000000">amr&#45;wind/core/CollMgr.H</text>
</a>
</g>
</g>
<!-- Node24&#45;&gt;Node29 -->
<g id="edge50" class="edge">
<title>Node24&#45;&gt;Node29</title>
<path fill="none" stroke="#191970" d="M480.5847,-123.4639C447.4891,-111.7316 401.9988,-95.6054 370.5112,-84.4431"/>
<polygon fill="#191970" stroke="#191970" points="371.4082,-81.0477 360.8134,-81.0053 369.0693,-87.6454 371.4082,-81.0477"/>
</g>
<!-- Node30 -->
<g id="node31" class="node">
<title>Node30</title>
<g id="a_node31"><a xlink:href="_p_d_e_fields_8_h.html" target="_top" xlink:title="amr&#45;wind/equation_systems\l/PDEFields.H">
<polygon fill="#ffffff" stroke="#000000" points="453.5,-56.5 453.5,-86.5 592.5,-86.5 592.5,-56.5 453.5,-56.5"/>
<text text-anchor="start" x="461.5" y="-74.5" font-family="Helvetica,sans-Serif" font-size="10.00" fill="#000000">amr&#45;wind/equation_systems</text>
<text text-anchor="middle" x="523" y="-63.5" font-family="Helvetica,sans-Serif" font-size="10.00" fill="#000000">/PDEFields.H</text>
</a>
</g>
</g>
<!-- Node24&#45;&gt;Node30 -->
<g id="edge55" class="edge">
<title>Node24&#45;&gt;Node30</title>
<path fill="none" stroke="#191970" d="M523,-123.2967C523,-115.5013 523,-105.7991 523,-96.9064"/>
<polygon fill="#191970" stroke="#191970" points="526.5001,-96.6431 523,-86.6432 519.5001,-96.6432 526.5001,-96.6431"/>
</g>
<!-- Node25&#45;&gt;Node8 -->
<g id="edge46" class="edge">
<title>Node25&#45;&gt;Node8</title>
<path fill="none" stroke="#191970" d="M227.1506,-61.9581C267.7069,-51.2533 333.5931,-33.8628 377.8407,-22.1837"/>
<polygon fill="#191970" stroke="#191970" points="378.989,-25.5005 387.7646,-19.5643 377.2025,-18.7323 378.989,-25.5005"/>
</g>
<!-- Node25&#45;&gt;Node14 -->
<g id="edge45" class="edge">
<title>Node25&#45;&gt;Node14</title>
<path fill="none" stroke="#191970" d="M213.6563,-61.8906C237.9174,-51.6005 276.6118,-35.1888 303.98,-23.5809"/>
<polygon fill="#191970" stroke="#191970" points="305.6633,-26.6688 313.5028,-19.5419 302.93,-20.2245 305.6633,-26.6688"/>
</g>
<!-- Node26 -->
<g id="node27" class="node">
<title>Node26</title>
<polygon fill="#ffffff" stroke="#bfbfbf" points="52,-.5 52,-19.5 106,-19.5 106,-.5 52,-.5"/>
<text text-anchor="middle" x="79" y="-7.5" font-family="Helvetica,sans-Serif" font-size="10.00" fill="#000000">iostream</text>
</g>
<!-- Node25&#45;&gt;Node26 -->
<g id="edge47" class="edge">
<title>Node25&#45;&gt;Node26</title>
<path fill="none" stroke="#191970" d="M173.5,-61.8906C155.2535,-51.8713 126.4376,-36.0483 105.4194,-24.5071"/>
<polygon fill="#191970" stroke="#191970" points="106.8272,-21.2872 96.3771,-19.5419 103.458,-27.423 106.8272,-21.2872"/>
</g>
<!-- Node27 -->
<g id="node28" class="node">
<title>Node27</title>
<polygon fill="#ffffff" stroke="#bfbfbf" points="124.5,-.5 124.5,-19.5 211.5,-19.5 211.5,-.5 124.5,-.5"/>
<text text-anchor="middle" x="168" y="-7.5" font-family="Helvetica,sans-Serif" font-size="10.00" fill="#000000">AMReX_Print.H</text>
</g>
<!-- Node25&#45;&gt;Node27 -->
<g id="edge48" class="edge">
<title>Node25&#45;&gt;Node27</title>
<path fill="none" stroke="#191970" d="M187.4063,-61.8906C184.1509,-53.1862 179.2575,-40.1015 175.199,-29.2494"/>
<polygon fill="#191970" stroke="#191970" points="178.4256,-27.8852 171.6444,-19.7449 171.8691,-30.3373 178.4256,-27.8852"/>
</g>
<!-- Node28 -->
<g id="node29" class="node">
<title>Node28</title>
<polygon fill="#ffffff" stroke="#bfbfbf" points="230,-.5 230,-19.5 292,-19.5 292,-.5 230,-.5"/>
<text text-anchor="middle" x="261" y="-7.5" font-family="Helvetica,sans-Serif" font-size="10.00" fill="#000000">AMReX.H</text>
</g>
<!-- Node25&#45;&gt;Node28 -->
<g id="edge49" class="edge">
<title>Node25&#45;&gt;Node28</title>
<path fill="none" stroke="#191970" d="M201.9375,-61.8906C212.662,-52.4683 229.2287,-37.9134 242.0901,-26.6137"/>
<polygon fill="#191970" stroke="#191970" points="244.7059,-28.9745 249.9083,-19.7449 240.0857,-23.7158 244.7059,-28.9745"/>
</g>
<!-- Node29&#45;&gt;Node7 -->
<g id="edge51" class="edge">
<title>Node29&#45;&gt;Node7</title>
<path fill="none" stroke="#191970" d="M393.5304,-61.9888C409.8531,-59.6877 427.5763,-57.4705 444,-56 853.5531,-19.3304 966.3665,-93.081 1375.1964,-19.5851"/>
<polygon fill="#191970" stroke="#191970" points="1376.0034,-22.9958 1385.2169,-17.765 1374.7524,-16.1085 1376.0034,-22.9958"/>
</g>
<!-- Node29&#45;&gt;Node8 -->
<g id="edge53" class="edge">
<title>Node29&#45;&gt;Node8</title>
<path fill="none" stroke="#191970" d="M348.0625,-61.8906C362.3286,-52.1421 384.635,-36.8994 401.3872,-25.4521"/>
<polygon fill="#191970" stroke="#191970" points="403.7545,-28.0736 410.0362,-19.5419 399.8051,-22.2941 403.7545,-28.0736"/>
</g>
<!-- Node29&#45;&gt;Node14 -->
<g id="edge52" class="edge">
<title>Node29&#45;&gt;Node14</title>
<path fill="none" stroke="#191970" d="M334.3125,-61.8906C334.5897,-53.3657 335.0036,-40.6392 335.3521,-29.9235"/>
<polygon fill="#191970" stroke="#191970" points="338.8561,-29.8534 335.6831,-19.7449 331.8598,-29.6258 338.8561,-29.8534"/>
</g>
<!-- Node29&#45;&gt;Node19 -->
<g id="edge54" class="edge">
<title>Node29&#45;&gt;Node19</title>
<path fill="none" stroke="#191970" d="M395.2769,-61.9915C411.1181,-59.7736 428.1694,-57.5964 444,-56 702.5675,-29.926 1012.6815,-16.6363 1139.0998,-11.9772"/>
<polygon fill="#191970" stroke="#191970" points="1139.455,-15.4667 1149.3209,-11.6047 1139.2,-8.4713 1139.455,-15.4667"/>
</g>
<!-- Node31 -->
<g id="node32" class="node">
<title>Node31</title>
<polygon fill="#ffffff" stroke="#bfbfbf" points="500.5,-.5 500.5,-19.5 545.5,-19.5 545.5,-.5 500.5,-.5"/>
<text text-anchor="middle" x="523" y="-7.5" font-family="Helvetica,sans-Serif" font-size="10.00" fill="#000000">iosfwd</text>
</g>
<!-- Node30&#45;&gt;Node31 -->
<g id="edge56" class="edge">
<title>Node30&#45;&gt;Node31</title>
<path fill="none" stroke="#191970" d="M523,-56.2977C523,-48.3834 523,-38.6043 523,-30.0759"/>
<polygon fill="#191970" stroke="#191970" points="526.5001,-29.8469 523,-19.8469 519.5001,-29.847 526.5001,-29.8469"/>
</g>
<!-- Node32&#45;&gt;Node11 -->
<g id="edge62" class="edge">
<title>Node32&#45;&gt;Node11</title>
<path fill="none" stroke="#191970" d="M392.3558,-128.972C465.2215,-116.8078 582.5911,-96.2335 601,-87 619.2788,-77.8317 616.1549,-63.9394 635,-56 761.7746,-2.5899 1116.251,-34.9719 1253,-20 1253.1016,-19.9889 1253.2033,-19.9777 1253.3051,-19.9665"/>
<polygon fill="#191970" stroke="#191970" points="1253.4549,-23.4743 1262.9569,-18.7879 1252.6064,-16.5259 1253.4549,-23.4743"/>
</g>
<!-- Node32&#45;&gt;Node25 -->
<g id="edge60" class="edge">
<title>Node32&#45;&gt;Node25</title>
<path fill="none" stroke="#191970" d="M313.5116,-128.9005C289.1944,-117.5072 248.4514,-98.4178 220.6831,-85.4075"/>
<polygon fill="#191970" stroke="#191970" points="221.9907,-82.1551 211.4504,-81.0817 219.0208,-88.4938 221.9907,-82.1551"/>
</g>
<!-- Node32&#45;&gt;Node29 -->
<g id="edge61" class="edge">
<title>Node32&#45;&gt;Node29</title>
<path fill="none" stroke="#191970" d="M334,-128.9005C334,-119.149 334,-103.7597 334,-91.3695"/>
<polygon fill="#191970" stroke="#191970" points="337.5001,-91.0816 334,-81.0817 330.5001,-91.0817 337.5001,-91.0816"/>
</g>
<!-- Node33 -->
<g id="node34" class="node">
<title>Node33</title>
<polygon fill="#ffffff" stroke="#bfbfbf" points="0,-62 0,-81 110,-81 110,-62 0,-62"/>
<text text-anchor="middle" x="55" y="-69" font-family="Helvetica,sans-Serif" font-size="10.00" fill="#000000">AMReX_Geometry.H</text>
</g>
<!-- Node32&#45;&gt;Node33 -->
<g id="edge63" class="edge">
<title>Node32&#45;&gt;Node33</title>
<path fill="none" stroke="#191970" d="M293.9712,-128.9434C250.7883,-118.6264 180.0103,-101.695 119,-87 114.2486,-85.8556 109.2993,-84.6611 104.3508,-83.4653"/>
<polygon fill="#191970" stroke="#191970" points="104.8005,-79.9732 94.258,-81.0242 103.1549,-86.777 104.8005,-79.9732"/>
</g>
</g>
</svg>
