<?xml version="1.0" encoding="UTF-8" standalone="no"?>
<!DOCTYPE svg PUBLIC "-//W3C//DTD SVG 1.1//EN"
 "http://www.w3.org/Graphics/SVG/1.1/DTD/svg11.dtd">
<!-- Generated by graphviz version 2.40.1 (20161225.0304)
 -->
<!-- Title: CartBoxRefinement.cpp Pages: 1 -->
<svg width="2626pt" height="341pt"
 viewBox="0.00 0.00 2625.50 341.00" xmlns="http://www.w3.org/2000/svg" xmlns:xlink="http://www.w3.org/1999/xlink">
<g id="graph0" class="graph" transform="scale(1 1) rotate(0) translate(4 337)">
<title>CartBoxRefinement.cpp</title>
<polygon fill="#ffffff" stroke="transparent" points="-4,4 -4,-337 2621.5,-337 2621.5,4 -4,4"/>
<!-- Node0 -->
<g id="node1" class="node">
<title>Node0</title>
<polygon fill="#bfbfbf" stroke="#000000" points="2278.5,-313.5 2278.5,-332.5 2400.5,-332.5 2400.5,-313.5 2278.5,-313.5"/>
<text text-anchor="middle" x="2339.5" y="-320.5" font-family="Helvetica,sans-Serif" font-size="10.00" fill="#000000">CartBoxRefinement.cpp</text>
</g>
<!-- Node1 -->
<g id="node2" class="node">
<title>Node1</title>
<polygon fill="#ffffff" stroke="#bfbfbf" points="2052.5,-56.5 2052.5,-75.5 2106.5,-75.5 2106.5,-56.5 2052.5,-56.5"/>
<text text-anchor="middle" x="2079.5" y="-63.5" font-family="Helvetica,sans-Serif" font-size="10.00" fill="#000000">iostream</text>
</g>
<!-- Node0&#45;&gt;Node1 -->
<g id="edge1" class="edge">
<title>Node0&#45;&gt;Node1</title>
<path fill="none" stroke="#191970" d="M2308.8285,-313.3667C2290.7162,-306.1438 2268.7988,-294.4594 2255.5,-277 2209.8402,-217.055 2267.2814,-167.6729 2216.5,-112 2202.9193,-97.1111 2152.4363,-82.7947 2116.7118,-74.1951"/>
<polygon fill="#191970" stroke="#191970" points="2117.1492,-70.7025 2106.6136,-71.8205 2115.5468,-77.5167 2117.1492,-70.7025"/>
</g>
<!-- Node2 -->
<g id="node3" class="node">
<title>Node2</title>
<polygon fill="#ffffff" stroke="#bfbfbf" points="2433.5,-252 2433.5,-271 2483.5,-271 2483.5,-252 2433.5,-252"/>
<text text-anchor="middle" x="2458.5" y="-259" font-family="Helvetica,sans-Serif" font-size="10.00" fill="#000000">fstream</text>
</g>
<!-- Node0&#45;&gt;Node2 -->
<g id="edge2" class="edge">
<title>Node0&#45;&gt;Node2</title>
<path fill="none" stroke="#191970" d="M2358.0938,-313.3906C2377.6553,-303.2811 2408.6501,-287.2628 2431.0309,-275.6962"/>
<polygon fill="#191970" stroke="#191970" points="2432.76,-278.7425 2440.0368,-271.0419 2429.5461,-272.5238 2432.76,-278.7425"/>
</g>
<!-- Node3 -->
<g id="node4" class="node">
<title>Node3</title>
<g id="a_node4"><a xlink:href="_cart_box_refinement_8_h.html" target="_top" xlink:title="amr&#45;wind/utilities\l/tagging/CartBoxRefinement.H">
<polygon fill="#ffffff" stroke="#000000" points="2264,-246.5 2264,-276.5 2415,-276.5 2415,-246.5 2264,-246.5"/>
<text text-anchor="start" x="2272" y="-264.5" font-family="Helvetica,sans-Serif" font-size="10.00" fill="#000000">amr&#45;wind/utilities</text>
<text text-anchor="middle" x="2339.5" y="-253.5" font-family="Helvetica,sans-Serif" font-size="10.00" fill="#000000">/tagging/CartBoxRefinement.H</text>
</a>
</g>
</g>
<!-- Node0&#45;&gt;Node3 -->
<g id="edge3" class="edge">
<title>Node0&#45;&gt;Node3</title>
<path fill="none" stroke="#191970" d="M2339.5,-313.3906C2339.5,-306.2234 2339.5,-296.0862 2339.5,-286.671"/>
<polygon fill="#191970" stroke="#191970" points="2343.0001,-286.5446 2339.5,-276.5446 2336.0001,-286.5446 2343.0001,-286.5446"/>
</g>
<!-- Node15 -->
<g id="node16" class="node">
<title>Node15</title>
<g id="a_node16"><a xlink:href="_c_f_d_sim_8_h.html" target="_top" xlink:title="amr&#45;wind/CFDSim.H">
<polygon fill="#ffffff" stroke="#000000" points="1412.5,-252 1412.5,-271 1520.5,-271 1520.5,-252 1412.5,-252"/>
<text text-anchor="middle" x="1466.5" y="-259" font-family="Helvetica,sans-Serif" font-size="10.00" fill="#000000">amr&#45;wind/CFDSim.H</text>
</a>
</g>
</g>
<!-- Node0&#45;&gt;Node15 -->
<g id="edge16" class="edge">
<title>Node0&#45;&gt;Node15</title>
<path fill="none" stroke="#191970" d="M2278.4593,-318.6999C2119.439,-307.4974 1693.4945,-277.491 1530.8441,-266.0328"/>
<polygon fill="#191970" stroke="#191970" points="1530.7383,-262.5168 1520.517,-265.3053 1530.2463,-269.4995 1530.7383,-262.5168"/>
</g>
<!-- Node40 -->
<g id="node41" class="node">
<title>Node40</title>
<polygon fill="#ffffff" stroke="#bfbfbf" points="2501.5,-252 2501.5,-271 2617.5,-271 2617.5,-252 2501.5,-252"/>
<text text-anchor="middle" x="2559.5" y="-259" font-family="Helvetica,sans-Serif" font-size="10.00" fill="#000000">AMReX_ParmParse.H</text>
</g>
<!-- Node0&#45;&gt;Node40 -->
<g id="edge75" class="edge">
<title>Node0&#45;&gt;Node40</title>
<path fill="none" stroke="#191970" d="M2373.875,-313.3906C2412.0573,-302.7169 2473.8016,-285.4566 2515.4884,-273.8033"/>
<polygon fill="#191970" stroke="#191970" points="2516.6779,-277.105 2525.3664,-271.0419 2514.7933,-270.3634 2516.6779,-277.105"/>
</g>
<!-- Node4 -->
<g id="node5" class="node">
<title>Node4</title>
<polygon fill="#ffffff" stroke="#bfbfbf" points="2167,-56.5 2167,-75.5 2212,-75.5 2212,-56.5 2167,-56.5"/>
<text text-anchor="middle" x="2189.5" y="-63.5" font-family="Helvetica,sans-Serif" font-size="10.00" fill="#000000">iosfwd</text>
</g>
<!-- Node3&#45;&gt;Node4 -->
<g id="edge4" class="edge">
<title>Node3&#45;&gt;Node4</title>
<path fill="none" stroke="#191970" d="M2323.2326,-246.3846C2313.4347,-236.6684 2301.2111,-223.3947 2292.5,-210 2266.5688,-170.1265 2278.8533,-149.426 2249.5,-112 2240.0112,-99.9016 2226.6434,-89.2437 2214.9332,-81.2412"/>
<polygon fill="#191970" stroke="#191970" points="2216.6788,-78.2008 2206.3932,-75.6594 2212.8489,-84.0602 2216.6788,-78.2008"/>
</g>
<!-- Node5 -->
<g id="node6" class="node">
<title>Node5</title>
<g id="a_node6"><a xlink:href="_refinement_criteria_8_h.html" target="_top" xlink:title="amr&#45;wind/utilities\l/tagging/RefinementCriteria.H">
<polygon fill="#ffffff" stroke="#000000" points="1928.5,-179.5 1928.5,-209.5 2074.5,-209.5 2074.5,-179.5 1928.5,-179.5"/>
<text text-anchor="start" x="1936.5" y="-197.5" font-family="Helvetica,sans-Serif" font-size="10.00" fill="#000000">amr&#45;wind/utilities</text>
<text text-anchor="middle" x="2001.5" y="-186.5" font-family="Helvetica,sans-Serif" font-size="10.00" fill="#000000">/tagging/RefinementCriteria.H</text>
</a>
</g>
</g>
<!-- Node3&#45;&gt;Node5 -->
<g id="edge5" class="edge">
<title>Node3&#45;&gt;Node5</title>
<path fill="none" stroke="#191970" d="M2263.6462,-246.4639C2210.509,-235.9308 2139.5054,-221.8561 2084.7968,-211.0115"/>
<polygon fill="#191970" stroke="#191970" points="2085.2689,-207.537 2074.7791,-209.0257 2083.9077,-214.4034 2085.2689,-207.537"/>
</g>
<!-- Node13 -->
<g id="node14" class="node">
<title>Node13</title>
<polygon fill="#ffffff" stroke="#bfbfbf" points="2301.5,-185 2301.5,-204 2405.5,-204 2405.5,-185 2301.5,-185"/>
<text text-anchor="middle" x="2353.5" y="-192" font-family="Helvetica,sans-Serif" font-size="10.00" fill="#000000">AMReX_RealBox.H</text>
</g>
<!-- Node3&#45;&gt;Node13 -->
<g id="edge14" class="edge">
<title>Node3&#45;&gt;Node13</title>
<path fill="none" stroke="#191970" d="M2342.6768,-246.2967C2344.6675,-236.7699 2347.2532,-224.3954 2349.3981,-214.1306"/>
<polygon fill="#191970" stroke="#191970" points="2352.884,-214.5595 2351.5034,-204.055 2346.032,-213.1277 2352.884,-214.5595"/>
</g>
<!-- Node14 -->
<g id="node15" class="node">
<title>Node14</title>
<polygon fill="#ffffff" stroke="#bfbfbf" points="1528,-.5 1528,-19.5 1623,-19.5 1623,-.5 1528,-.5"/>
<text text-anchor="middle" x="1575.5" y="-7.5" font-family="Helvetica,sans-Serif" font-size="10.00" fill="#000000">AMReX_Vector.H</text>
</g>
<!-- Node3&#45;&gt;Node14 -->
<g id="edge15" class="edge">
<title>Node3&#45;&gt;Node14</title>
<path fill="none" stroke="#191970" d="M2374.9931,-246.4687C2390.045,-238.0984 2406.0391,-226.0734 2414.5,-210 2420.9177,-197.8082 2421.1259,-191.0799 2414.5,-179 2365.5829,-89.8182 2318.0772,-87.9236 2221.5,-56 2113.2931,-20.2322 1771.3782,-12.2666 1633.7401,-10.5003"/>
<polygon fill="#191970" stroke="#191970" points="1633.4483,-6.9966 1623.4064,-10.3745 1633.3631,-13.996 1633.4483,-6.9966"/>
</g>
<!-- Node6 -->
<g id="node7" class="node">
<title>Node6</title>
<polygon fill="#ffffff" stroke="#bfbfbf" points="1333.5,-118 1333.5,-137 1439.5,-137 1439.5,-118 1333.5,-118"/>
<text text-anchor="middle" x="1386.5" y="-125" font-family="Helvetica,sans-Serif" font-size="10.00" fill="#000000">AMReX_AmrCore.H</text>
</g>
<!-- Node5&#45;&gt;Node6 -->
<g id="edge6" class="edge">
<title>Node5&#45;&gt;Node6</title>
<path fill="none" stroke="#191970" d="M1928.4423,-189.0858C1800.0188,-179.3364 1538.8569,-158.4099 1448.5,-143 1442.6845,-142.0082 1436.61,-140.7597 1430.6351,-139.404"/>
<polygon fill="#191970" stroke="#191970" points="1431.2758,-135.9587 1420.737,-137.0475 1429.6545,-142.7684 1431.2758,-135.9587"/>
</g>
<!-- Node7 -->
<g id="node8" class="node">
<title>Node7</title>
<polygon fill="#ffffff" stroke="#bfbfbf" points="2106,-118 2106,-137 2207,-137 2207,-118 2106,-118"/>
<text text-anchor="middle" x="2156.5" y="-125" font-family="Helvetica,sans-Serif" font-size="10.00" fill="#000000">AMReX_TagBox.H</text>
</g>
<!-- Node5&#45;&gt;Node7 -->
<g id="edge7" class="edge">
<title>Node5&#45;&gt;Node7</title>
<path fill="none" stroke="#191970" d="M2036.285,-179.4639C2062.8778,-167.969 2099.2284,-152.2561 2124.9757,-141.1266"/>
<polygon fill="#191970" stroke="#191970" points="2126.4916,-144.2844 2134.282,-137.1039 2123.7141,-137.859 2126.4916,-144.2844"/>
</g>
<!-- Node8 -->
<g id="node9" class="node">
<title>Node8</title>
<g id="a_node9"><a xlink:href="_factory_8_h.html" target="_top" xlink:title="amr&#45;wind/core/Factory.H">
<polygon fill="#ffffff" stroke="#000000" points="1806,-118 1806,-137 1931,-137 1931,-118 1806,-118"/>
<text text-anchor="middle" x="1868.5" y="-125" font-family="Helvetica,sans-Serif" font-size="10.00" fill="#000000">amr&#45;wind/core/Factory.H</text>
</a>
</g>
</g>
<!-- Node5&#45;&gt;Node8 -->
<g id="edge8" class="edge">
<title>Node5&#45;&gt;Node8</title>
<path fill="none" stroke="#191970" d="M1971.6522,-179.4639C1949.236,-168.1715 1918.7394,-152.8086 1896.7262,-141.7192"/>
<polygon fill="#191970" stroke="#191970" points="1898.07,-138.4772 1887.5645,-137.1039 1894.9207,-144.7287 1898.07,-138.4772"/>
</g>
<!-- Node8&#45;&gt;Node1 -->
<g id="edge11" class="edge">
<title>Node8&#45;&gt;Node1</title>
<path fill="none" stroke="#191970" d="M1901.4688,-117.8906C1939.8281,-106.71 2002.9827,-88.3024 2042.8502,-76.6823"/>
<polygon fill="#191970" stroke="#191970" points="2043.8339,-80.0413 2052.455,-73.8828 2041.875,-73.3209 2043.8339,-80.0413"/>
</g>
<!-- Node9 -->
<g id="node10" class="node">
<title>Node9</title>
<polygon fill="#ffffff" stroke="#bfbfbf" points="1614.5,-56.5 1614.5,-75.5 1666.5,-75.5 1666.5,-56.5 1614.5,-56.5"/>
<text text-anchor="middle" x="1640.5" y="-63.5" font-family="Helvetica,sans-Serif" font-size="10.00" fill="#000000">memory</text>
</g>
<!-- Node8&#45;&gt;Node9 -->
<g id="edge9" class="edge">
<title>Node8&#45;&gt;Node9</title>
<path fill="none" stroke="#191970" d="M1832.875,-117.8906C1790.2059,-106.3812 1719.1445,-87.2133 1676.368,-75.6749"/>
<polygon fill="#191970" stroke="#191970" points="1677.221,-72.28 1666.6545,-73.0548 1675.3979,-79.0384 1677.221,-72.28"/>
</g>
<!-- Node10 -->
<g id="node11" class="node">
<title>Node10</title>
<polygon fill="#ffffff" stroke="#bfbfbf" points="1475,-56.5 1475,-75.5 1558,-75.5 1558,-56.5 1475,-56.5"/>
<text text-anchor="middle" x="1516.5" y="-63.5" font-family="Helvetica,sans-Serif" font-size="10.00" fill="#000000">unordered_map</text>
</g>
<!-- Node8&#45;&gt;Node10 -->
<g id="edge10" class="edge">
<title>Node8&#45;&gt;Node10</title>
<path fill="none" stroke="#191970" d="M1813.8862,-117.9581C1746.7985,-106.2368 1633.8318,-86.4997 1568.1365,-75.0217"/>
<polygon fill="#191970" stroke="#191970" points="1568.4661,-71.5264 1558.0129,-73.253 1567.2613,-78.4219 1568.4661,-71.5264"/>
</g>
<!-- Node11 -->
<g id="node12" class="node">
<title>Node11</title>
<polygon fill="#ffffff" stroke="#bfbfbf" points="1816,-56.5 1816,-75.5 1903,-75.5 1903,-56.5 1816,-56.5"/>
<text text-anchor="middle" x="1859.5" y="-63.5" font-family="Helvetica,sans-Serif" font-size="10.00" fill="#000000">AMReX_Print.H</text>
</g>
<!-- Node8&#45;&gt;Node11 -->
<g id="edge12" class="edge">
<title>Node8&#45;&gt;Node11</title>
<path fill="none" stroke="#191970" d="M1867.0938,-117.8906C1865.8462,-109.3657 1863.9838,-96.6392 1862.4156,-85.9235"/>
<polygon fill="#191970" stroke="#191970" points="1865.8373,-85.1326 1860.9261,-75.7449 1858.911,-86.1463 1865.8373,-85.1326"/>
</g>
<!-- Node12 -->
<g id="node13" class="node">
<title>Node12</title>
<polygon fill="#ffffff" stroke="#bfbfbf" points="1921.5,-56.5 1921.5,-75.5 1983.5,-75.5 1983.5,-56.5 1921.5,-56.5"/>
<text text-anchor="middle" x="1952.5" y="-63.5" font-family="Helvetica,sans-Serif" font-size="10.00" fill="#000000">AMReX.H</text>
</g>
<!-- Node8&#45;&gt;Node12 -->
<g id="edge13" class="edge">
<title>Node8&#45;&gt;Node12</title>
<path fill="none" stroke="#191970" d="M1881.625,-117.8906C1894.94,-108.1421 1915.7594,-92.8994 1931.3947,-81.4521"/>
<polygon fill="#191970" stroke="#191970" points="1933.4661,-84.2734 1939.4672,-75.5419 1929.3309,-78.6253 1933.4661,-84.2734"/>
</g>
<!-- Node15&#45;&gt;Node6 -->
<g id="edge17" class="edge">
<title>Node15&#45;&gt;Node6</title>
<path fill="none" stroke="#191970" d="M1460.7466,-251.8631C1447.4851,-229.6501 1414.592,-174.5541 1397.3845,-145.7316"/>
<polygon fill="#191970" stroke="#191970" points="1400.3326,-143.8417 1392.2013,-137.0496 1394.3222,-147.43 1400.3326,-143.8417"/>
</g>
<!-- Node16 -->
<g id="node17" class="node">
<title>Node16</title>
<g id="a_node17"><a xlink:href="_sim_time_8_h.html" target="_top" xlink:title="amr&#45;wind/core/SimTime.H">
<polygon fill="#ffffff" stroke="#000000" points="1123,-185 1123,-204 1254,-204 1254,-185 1123,-185"/>
<text text-anchor="middle" x="1188.5" y="-192" font-family="Helvetica,sans-Serif" font-size="10.00" fill="#000000">amr&#45;wind/core/SimTime.H</text>
</a>
</g>
</g>
<!-- Node15&#45;&gt;Node16 -->
<g id="edge18" class="edge">
<title>Node15&#45;&gt;Node16</title>
<path fill="none" stroke="#191970" d="M1426.9646,-251.9717C1377.3932,-240.0246 1292.3793,-219.5357 1238.3845,-206.5225"/>
<polygon fill="#191970" stroke="#191970" points="1238.8908,-203.0444 1228.3491,-204.1039 1237.2507,-209.8496 1238.8908,-203.0444"/>
</g>
<!-- Node20 -->
<g id="node21" class="node">
<title>Node20</title>
<g id="a_node21"><a xlink:href="_field_repo_8_h.html" target="_top" xlink:title="amr&#45;wind/core/FieldRepo.H">
<polygon fill="#ffffff" stroke="#000000" points="566.5,-185 566.5,-204 702.5,-204 702.5,-185 566.5,-185"/>
<text text-anchor="middle" x="634.5" y="-192" font-family="Helvetica,sans-Serif" font-size="10.00" fill="#000000">amr&#45;wind/core/FieldRepo.H</text>
</a>
</g>
</g>
<!-- Node15&#45;&gt;Node20 -->
<g id="edge22" class="edge">
<title>Node15&#45;&gt;Node20</title>
<path fill="none" stroke="#191970" d="M1412.2311,-257.1298C1268.9415,-245.5908 880.0207,-214.2715 712.7301,-200.7998"/>
<polygon fill="#191970" stroke="#191970" points="713.0078,-197.3109 702.7591,-199.9968 712.4459,-204.2883 713.0078,-197.3109"/>
</g>
<!-- Node35 -->
<g id="node36" class="node">
<title>Node35</title>
<g id="a_node36"><a xlink:href="_p_d_e_base_8_h.html" target="_top" xlink:title="amr&#45;wind/equation_systems\l/PDEBase.H">
<polygon fill="#ffffff" stroke="#000000" points="1617,-179.5 1617,-209.5 1756,-209.5 1756,-179.5 1617,-179.5"/>
<text text-anchor="start" x="1625" y="-197.5" font-family="Helvetica,sans-Serif" font-size="10.00" fill="#000000">amr&#45;wind/equation_systems</text>
<text text-anchor="middle" x="1686.5" y="-186.5" font-family="Helvetica,sans-Serif" font-size="10.00" fill="#000000">/PDEBase.H</text>
</a>
</g>
</g>
<!-- Node15&#45;&gt;Node35 -->
<g id="edge58" class="edge">
<title>Node15&#45;&gt;Node35</title>
<path fill="none" stroke="#191970" d="M1498.0206,-251.9005C1531.6789,-241.6501 1585.792,-225.1702 1627.4206,-212.4924"/>
<polygon fill="#191970" stroke="#191970" points="1628.6283,-215.7834 1637.1748,-209.5218 1626.5889,-209.087 1628.6283,-215.7834"/>
</g>
<!-- Node38 -->
<g id="node39" class="node">
<title>Node38</title>
<g id="a_node39"><a xlink:href="_physics_8_h.html" target="_top" xlink:title="amr&#45;wind/core/Physics.H">
<polygon fill="#ffffff" stroke="#000000" points="1449,-185 1449,-204 1576,-204 1576,-185 1449,-185"/>
<text text-anchor="middle" x="1512.5" y="-192" font-family="Helvetica,sans-Serif" font-size="10.00" fill="#000000">amr&#45;wind/core/Physics.H</text>
</a>
</g>
</g>
<!-- Node15&#45;&gt;Node38 -->
<g id="edge70" class="edge">
<title>Node15&#45;&gt;Node38</title>
<path fill="none" stroke="#191970" d="M1473.0907,-251.9005C1480.1273,-241.6515 1491.4398,-225.1747 1500.1434,-212.4976"/>
<polygon fill="#191970" stroke="#191970" points="1503.1468,-214.3067 1505.9215,-204.0817 1497.376,-210.3446 1503.1468,-214.3067"/>
</g>
<!-- Node17 -->
<g id="node18" class="node">
<title>Node17</title>
<polygon fill="#ffffff" stroke="#bfbfbf" points="1078,-118 1078,-137 1171,-137 1171,-118 1078,-118"/>
<text text-anchor="middle" x="1124.5" y="-125" font-family="Helvetica,sans-Serif" font-size="10.00" fill="#000000">AMReX_REAL.H</text>
</g>
<!-- Node16&#45;&gt;Node17 -->
<g id="edge19" class="edge">
<title>Node16&#45;&gt;Node17</title>
<path fill="none" stroke="#191970" d="M1179.3304,-184.9005C1169.2551,-174.353 1152.8793,-157.2096 1140.6431,-144.3998"/>
<polygon fill="#191970" stroke="#191970" points="1143.0909,-141.8952 1133.6526,-137.0817 1138.0291,-146.7304 1143.0909,-141.8952"/>
</g>
<!-- Node18 -->
<g id="node19" class="node">
<title>Node18</title>
<polygon fill="#ffffff" stroke="#bfbfbf" points="1189.5,-118 1189.5,-137 1315.5,-137 1315.5,-118 1189.5,-118"/>
<text text-anchor="middle" x="1252.5" y="-125" font-family="Helvetica,sans-Serif" font-size="10.00" fill="#000000">AMReX_GpuQualifiers.H</text>
</g>
<!-- Node16&#45;&gt;Node18 -->
<g id="edge20" class="edge">
<title>Node16&#45;&gt;Node18</title>
<path fill="none" stroke="#191970" d="M1197.6696,-184.9005C1207.7449,-174.353 1224.1207,-157.2096 1236.3569,-144.3998"/>
<polygon fill="#191970" stroke="#191970" points="1238.9709,-146.7304 1243.3474,-137.0817 1233.9091,-141.8952 1238.9709,-146.7304"/>
</g>
<!-- Node19 -->
<g id="node20" class="node">
<title>Node19</title>
<polygon fill="#ffffff" stroke="#bfbfbf" points="949.5,-118 949.5,-137 1059.5,-137 1059.5,-118 949.5,-118"/>
<text text-anchor="middle" x="1004.5" y="-125" font-family="Helvetica,sans-Serif" font-size="10.00" fill="#000000">AMReX_Extension.H</text>
</g>
<!-- Node16&#45;&gt;Node19 -->
<g id="edge21" class="edge">
<title>Node16&#45;&gt;Node19</title>
<path fill="none" stroke="#191970" d="M1162.1373,-184.9005C1130.1649,-173.2584 1076.1241,-153.5805 1040.3775,-140.5641"/>
<polygon fill="#191970" stroke="#191970" points="1041.4078,-137.2145 1030.8138,-137.0817 1039.0127,-143.792 1041.4078,-137.2145"/>
</g>
<!-- Node20&#45;&gt;Node6 -->
<g id="edge55" class="edge">
<title>Node20&#45;&gt;Node6</title>
<path fill="none" stroke="#191970" d="M702.5263,-193.2595C826.806,-190.144 1098.5755,-179.3991 1324.5,-143 1330.4647,-142.039 1336.6972,-140.7855 1342.8135,-139.4075"/>
<polygon fill="#191970" stroke="#191970" points="1344.0113,-142.7203 1352.9295,-137.0004 1342.3909,-135.9104 1344.0113,-142.7203"/>
</g>
<!-- Node20&#45;&gt;Node10 -->
<g id="edge24" class="edge">
<title>Node20&#45;&gt;Node10</title>
<path fill="none" stroke="#191970" d="M702.5282,-189.2656C757.0802,-183.1876 834.6401,-170.2464 897.5,-143 919.1165,-133.6304 918.3653,-120.0696 940.5,-112 1041.4125,-75.2106 1315.5278,-85.6824 1422.5,-76 1436.1759,-74.7621 1450.9538,-73.2652 1464.6523,-71.8108"/>
<polygon fill="#191970" stroke="#191970" points="1465.3122,-75.2601 1474.8811,-70.7118 1464.5644,-68.3001 1465.3122,-75.2601"/>
</g>
<!-- Node21 -->
<g id="node22" class="node">
<title>Node21</title>
<polygon fill="#ffffff" stroke="#bfbfbf" points="1350,-.5 1350,-19.5 1391,-19.5 1391,-.5 1350,-.5"/>
<text text-anchor="middle" x="1370.5" y="-7.5" font-family="Helvetica,sans-Serif" font-size="10.00" fill="#000000">string</text>
</g>
<!-- Node20&#45;&gt;Node21 -->
<g id="edge23" class="edge">
<title>Node20&#45;&gt;Node21</title>
<path fill="none" stroke="#191970" d="M702.7057,-188.8144C750.2953,-182.6157 814.0598,-169.7243 864.5,-143 882.2815,-133.579 879.0849,-120.1131 897.5,-112 994.1707,-69.4102 1299.6877,-153.4732 1371.5,-76 1382.9092,-63.6915 1380.9371,-43.8655 1377.1601,-29.1517"/>
<polygon fill="#191970" stroke="#191970" points="1380.4944,-28.0856 1374.2565,-19.5218 1373.7924,-30.1065 1380.4944,-28.0856"/>
</g>
<!-- Node22 -->
<g id="node23" class="node">
<title>Node22</title>
<g id="a_node23"><a xlink:href="_field_desc_types_8_h.html" target="_top" xlink:title="amr&#45;wind/core/FieldDescTypes.H">
<polygon fill="#ffffff" stroke="#000000" points="320,-.5 320,-19.5 483,-19.5 483,-.5 320,-.5"/>
<text text-anchor="middle" x="401.5" y="-7.5" font-family="Helvetica,sans-Serif" font-size="10.00" fill="#000000">amr&#45;wind/core/FieldDescTypes.H</text>
</a>
</g>
</g>
<!-- Node20&#45;&gt;Node22 -->
<g id="edge25" class="edge">
<title>Node20&#45;&gt;Node22</title>
<path fill="none" stroke="#191970" d="M566.4665,-192.4824C465.8027,-188.4064 283.0846,-176.5058 227.5,-143 196.348,-124.2219 191.4528,-110.6857 180.5,-76 177.8234,-67.5237 174.8915,-62.8961 180.5,-56 197.0226,-35.6842 256.5186,-24.0436 309.6195,-17.5572"/>
<polygon fill="#191970" stroke="#191970" points="310.2683,-21.0053 319.7935,-16.3664 309.4544,-14.0527 310.2683,-21.0053"/>
</g>
<!-- Node23 -->
<g id="node24" class="node">
<title>Node23</title>
<g id="a_node24"><a xlink:href="_field_utils_8_h.html" target="_top" xlink:title="amr&#45;wind/core/FieldUtils.H">
<polygon fill="#ffffff" stroke="#000000" points="0,-56.5 0,-75.5 133,-75.5 133,-56.5 0,-56.5"/>
<text text-anchor="middle" x="66.5" y="-63.5" font-family="Helvetica,sans-Serif" font-size="10.00" fill="#000000">amr&#45;wind/core/FieldUtils.H</text>
</a>
</g>
</g>
<!-- Node20&#45;&gt;Node23 -->
<g id="edge26" class="edge">
<title>Node20&#45;&gt;Node23</title>
<path fill="none" stroke="#191970" d="M566.4153,-192.6712C450.5125,-188.6743 220.342,-176.6472 147.5,-143 118.7394,-129.7149 93.7151,-102.0523 79.3611,-83.7571"/>
<polygon fill="#191970" stroke="#191970" points="82.0324,-81.4872 73.2021,-75.6324 76.454,-85.7159 82.0324,-81.4872"/>
</g>
<!-- Node24 -->
<g id="node25" class="node">
<title>Node24</title>
<polygon fill="#ffffff" stroke="#bfbfbf" points="631.5,-.5 631.5,-19.5 735.5,-19.5 735.5,-.5 631.5,-.5"/>
<text text-anchor="middle" x="683.5" y="-7.5" font-family="Helvetica,sans-Serif" font-size="10.00" fill="#000000">AMReX_MultiFab.H</text>
</g>
<!-- Node20&#45;&gt;Node24 -->
<g id="edge56" class="edge">
<title>Node20&#45;&gt;Node24</title>
<path fill="none" stroke="#191970" d="M566.3758,-186.7862C512.2584,-179.0901 442.8722,-165.1726 425.5,-143 401.6526,-112.563 400.6738,-85.6441 425.5,-56 449.9864,-26.7617 553.0434,-16.0907 621.2649,-12.2076"/>
<polygon fill="#191970" stroke="#191970" points="621.6816,-15.6904 631.4806,-11.6617 621.308,-8.7004 621.6816,-15.6904"/>
</g>
<!-- Node26 -->
<g id="node27" class="node">
<title>Node26</title>
<g id="a_node27"><a xlink:href="_field_8_h.html" target="_top" xlink:title="amr&#45;wind/core/Field.H">
<polygon fill="#ffffff" stroke="#000000" points="578,-118 578,-137 691,-137 691,-118 578,-118"/>
<text text-anchor="middle" x="634.5" y="-125" font-family="Helvetica,sans-Serif" font-size="10.00" fill="#000000">amr&#45;wind/core/Field.H</text>
</a>
</g>
</g>
<!-- Node20&#45;&gt;Node26 -->
<g id="edge30" class="edge">
<title>Node20&#45;&gt;Node26</title>
<path fill="none" stroke="#191970" d="M634.5,-184.9005C634.5,-175.149 634.5,-159.7597 634.5,-147.3695"/>
<polygon fill="#191970" stroke="#191970" points="638.0001,-147.0816 634.5,-137.0817 631.0001,-147.0817 638.0001,-147.0816"/>
</g>
<!-- Node31 -->
<g id="node32" class="node">
<title>Node31</title>
<g id="a_node32"><a xlink:href="_int_field_8_h.html" target="_top" xlink:title="amr&#45;wind/core/IntField.H">
<polygon fill="#ffffff" stroke="#000000" points="249.5,-118 249.5,-137 373.5,-137 373.5,-118 249.5,-118"/>
<text text-anchor="middle" x="311.5" y="-125" font-family="Helvetica,sans-Serif" font-size="10.00" fill="#000000">amr&#45;wind/core/IntField.H</text>
</a>
</g>
</g>
<!-- Node20&#45;&gt;Node31 -->
<g id="edge44" class="edge">
<title>Node20&#45;&gt;Node31</title>
<path fill="none" stroke="#191970" d="M588.565,-184.9717C530.408,-172.9082 430.2646,-152.1354 367.635,-139.1441"/>
<polygon fill="#191970" stroke="#191970" points="368.0402,-135.6537 357.5377,-137.0496 366.6184,-142.5078 368.0402,-135.6537"/>
</g>
<!-- Node32 -->
<g id="node33" class="node">
<title>Node32</title>
<polygon fill="#ffffff" stroke="#bfbfbf" points="190,-56.5 190,-75.5 297,-75.5 297,-56.5 190,-56.5"/>
<text text-anchor="middle" x="243.5" y="-63.5" font-family="Helvetica,sans-Serif" font-size="10.00" fill="#000000">AMReX_iMultiFab.H</text>
</g>
<!-- Node20&#45;&gt;Node32 -->
<g id="edge57" class="edge">
<title>Node20&#45;&gt;Node32</title>
<path fill="none" stroke="#191970" d="M566.1167,-190.4042C458.9972,-183.2829 261.6047,-167.0428 240.5,-143 226.8329,-127.4302 230.7985,-102.5209 236.0654,-85.2688"/>
<polygon fill="#191970" stroke="#191970" points="239.4245,-86.2632 239.3668,-75.6685 232.805,-83.9867 239.4245,-86.2632"/>
</g>
<!-- Node33 -->
<g id="node34" class="node">
<title>Node33</title>
<g id="a_node34"><a xlink:href="_scratch_field_8_h.html" target="_top" xlink:title="amr&#45;wind/core/ScratchField.H">
<polygon fill="#ffffff" stroke="#000000" points="709.5,-118 709.5,-137 855.5,-137 855.5,-118 709.5,-118"/>
<text text-anchor="middle" x="782.5" y="-125" font-family="Helvetica,sans-Serif" font-size="10.00" fill="#000000">amr&#45;wind/core/ScratchField.H</text>
</a>
</g>
</g>
<!-- Node20&#45;&gt;Node33 -->
<g id="edge48" class="edge">
<title>Node20&#45;&gt;Node33</title>
<path fill="none" stroke="#191970" d="M655.7048,-184.9005C680.9821,-173.4574 723.4084,-154.2509 752.1548,-141.2374"/>
<polygon fill="#191970" stroke="#191970" points="753.668,-144.3943 761.3345,-137.0817 750.7811,-138.0173 753.668,-144.3943"/>
</g>
<!-- Node23&#45;&gt;Node22 -->
<g id="edge27" class="edge">
<title>Node23&#45;&gt;Node22</title>
<path fill="none" stroke="#191970" d="M123.7079,-56.4369C182.1246,-46.6717 272.7599,-31.5207 334.4966,-21.2006"/>
<polygon fill="#191970" stroke="#191970" points="335.242,-24.6246 344.528,-19.5237 334.0878,-17.7204 335.242,-24.6246"/>
</g>
<!-- Node23&#45;&gt;Node24 -->
<g id="edge28" class="edge">
<title>Node23&#45;&gt;Node24</title>
<path fill="none" stroke="#191970" d="M133.116,-59.9538C253.1997,-49.0548 504.3182,-26.2629 621.1889,-15.6555"/>
<polygon fill="#191970" stroke="#191970" points="621.754,-19.1187 631.3966,-14.729 621.1212,-12.1473 621.754,-19.1187"/>
</g>
<!-- Node25 -->
<g id="node26" class="node">
<title>Node25</title>
<polygon fill="#ffffff" stroke="#bfbfbf" points="8.5,-.5 8.5,-19.5 124.5,-19.5 124.5,-.5 8.5,-.5"/>
<text text-anchor="middle" x="66.5" y="-7.5" font-family="Helvetica,sans-Serif" font-size="10.00" fill="#000000">AMReX_Interpolater.H</text>
</g>
<!-- Node23&#45;&gt;Node25 -->
<g id="edge29" class="edge">
<title>Node23&#45;&gt;Node25</title>
<path fill="none" stroke="#191970" d="M66.5,-56.2455C66.5,-48.9382 66.5,-38.6944 66.5,-29.7046"/>
<polygon fill="#191970" stroke="#191970" points="70.0001,-29.6426 66.5,-19.6427 63.0001,-29.6427 70.0001,-29.6426"/>
</g>
<!-- Node26&#45;&gt;Node9 -->
<g id="edge32" class="edge">
<title>Node26&#45;&gt;Node9</title>
<path fill="none" stroke="#191970" d="M669.5491,-117.97C679.4824,-115.6243 690.3547,-113.3892 700.5,-112 1082.5999,-59.6791 1183.3548,-110.2093 1567.5,-76 1579.4014,-74.9401 1592.3363,-73.3224 1603.9661,-71.695"/>
<polygon fill="#191970" stroke="#191970" points="1604.8164,-75.1086 1614.2126,-70.2135 1603.8146,-68.1806 1604.8164,-75.1086"/>
</g>
<!-- Node26&#45;&gt;Node10 -->
<g id="edge33" class="edge">
<title>Node26&#45;&gt;Node10</title>
<path fill="none" stroke="#191970" d="M669.9048,-117.9803C679.7451,-115.6645 690.481,-113.4421 700.5,-112 987.3195,-70.7159 1062.21,-92.765 1351.5,-76 1389.3738,-73.8051 1432.1301,-71.2105 1464.6274,-69.2143"/>
<polygon fill="#191970" stroke="#191970" points="1465.0326,-72.6961 1474.7988,-68.5885 1464.6027,-65.7093 1465.0326,-72.6961"/>
</g>
<!-- Node26&#45;&gt;Node21 -->
<g id="edge31" class="edge">
<title>Node26&#45;&gt;Node21</title>
<path fill="none" stroke="#191970" d="M672.0531,-117.9669C681.3135,-115.8137 691.2337,-113.6728 700.5,-112 825.2746,-89.4754 859.0367,-100.1855 983.5,-76 1017.7865,-69.3375 1025.283,-63.0104 1059.5,-56 1161.4717,-35.1079 1284.1072,-19.815 1340.0289,-13.3733"/>
<polygon fill="#191970" stroke="#191970" points="1340.4469,-16.8484 1349.9865,-12.239 1339.6545,-9.8934 1340.4469,-16.8484"/>
</g>
<!-- Node26&#45;&gt;Node22 -->
<g id="edge38" class="edge">
<title>Node26&#45;&gt;Node22</title>
<path fill="none" stroke="#191970" d="M615.4326,-117.8845C574.4553,-97.2199 477.8221,-48.4886 429.7206,-24.2314"/>
<polygon fill="#191970" stroke="#191970" points="431.0089,-20.9613 420.5041,-19.5836 427.857,-27.2115 431.0089,-20.9613"/>
</g>
<!-- Node26&#45;&gt;Node24 -->
<g id="edge34" class="edge">
<title>Node26&#45;&gt;Node24</title>
<path fill="none" stroke="#191970" d="M667.6347,-117.9146C699.8373,-107.8496 745.3321,-91.3782 755.5,-76 769.4321,-54.9286 742.7693,-36.0317 718.039,-23.9137"/>
<polygon fill="#191970" stroke="#191970" points="719.2893,-20.6357 708.7441,-19.6109 716.3486,-26.9881 719.2893,-20.6357"/>
</g>
<!-- Node27 -->
<g id="node28" class="node">
<title>Node27</title>
<polygon fill="#ffffff" stroke="#bfbfbf" points="544,-56.5 544,-75.5 643,-75.5 643,-56.5 544,-56.5"/>
<text text-anchor="middle" x="593.5" y="-63.5" font-family="Helvetica,sans-Serif" font-size="10.00" fill="#000000">AMReX_BCRec.H</text>
</g>
<!-- Node26&#45;&gt;Node27 -->
<g id="edge35" class="edge">
<title>Node26&#45;&gt;Node27</title>
<path fill="none" stroke="#191970" d="M628.0938,-117.8906C622.1114,-108.917 613.0253,-95.2879 605.6661,-84.2491"/>
<polygon fill="#191970" stroke="#191970" points="608.4558,-82.1239 599.9966,-75.7449 602.6314,-86.0068 608.4558,-82.1239"/>
</g>
<!-- Node28 -->
<g id="node29" class="node">
<title>Node28</title>
<polygon fill="#ffffff" stroke="#bfbfbf" points="661,-56.5 661,-75.5 746,-75.5 746,-56.5 661,-56.5"/>
<text text-anchor="middle" x="703.5" y="-63.5" font-family="Helvetica,sans-Serif" font-size="10.00" fill="#000000">AMReX_Gpu.H</text>
</g>
<!-- Node26&#45;&gt;Node28 -->
<g id="edge36" class="edge">
<title>Node26&#45;&gt;Node28</title>
<path fill="none" stroke="#191970" d="M645.2813,-117.8906C655.8526,-108.4683 672.1825,-93.9134 684.8603,-82.6137"/>
<polygon fill="#191970" stroke="#191970" points="687.4304,-85.0114 692.5667,-75.7449 682.7728,-79.7858 687.4304,-85.0114"/>
</g>
<!-- Node29 -->
<g id="node30" class="node">
<title>Node29</title>
<g id="a_node30"><a xlink:href="incflo__enums_8_h.html" target="_top" xlink:title="amr&#45;wind/incflo_enums.H">
<polygon fill="#ffffff" stroke="#000000" points="1214.5,-56.5 1214.5,-75.5 1342.5,-75.5 1342.5,-56.5 1214.5,-56.5"/>
<text text-anchor="middle" x="1278.5" y="-63.5" font-family="Helvetica,sans-Serif" font-size="10.00" fill="#000000">amr&#45;wind/incflo_enums.H</text>
</a>
</g>
</g>
<!-- Node26&#45;&gt;Node29 -->
<g id="edge37" class="edge">
<title>Node26&#45;&gt;Node29</title>
<path fill="none" stroke="#191970" d="M670.6083,-117.9243C680.2596,-115.6662 690.7255,-113.4864 700.5,-112 919.6978,-78.6657 979.9377,-98.6749 1204.3174,-76.0533"/>
<polygon fill="#191970" stroke="#191970" points="1204.8436,-79.5178 1214.4343,-75.0158 1204.1294,-72.5543 1204.8436,-79.5178"/>
</g>
<!-- Node30 -->
<g id="node31" class="node">
<title>Node30</title>
<g id="a_node31"><a xlink:href="_view_field_8_h.html" target="_top" xlink:title="amr&#45;wind/core/ViewField.H">
<polygon fill="#ffffff" stroke="#000000" points="840.5,-56.5 840.5,-75.5 974.5,-75.5 974.5,-56.5 840.5,-56.5"/>
<text text-anchor="middle" x="907.5" y="-63.5" font-family="Helvetica,sans-Serif" font-size="10.00" fill="#000000">amr&#45;wind/core/ViewField.H</text>
</a>
</g>
</g>
<!-- Node26&#45;&gt;Node30 -->
<g id="edge39" class="edge">
<title>Node26&#45;&gt;Node30</title>
<path fill="none" stroke="#191970" d="M674.6197,-117.9968C683.1579,-115.9971 692.1238,-113.9142 700.5,-112 752.5537,-100.1043 812.0701,-86.9222 853.8839,-77.7297"/>
<polygon fill="#191970" stroke="#191970" points="854.8355,-81.1042 863.8517,-75.5402 853.3336,-74.2672 854.8355,-81.1042"/>
</g>
<!-- Node30&#45;&gt;Node14 -->
<g id="edge43" class="edge">
<title>Node30&#45;&gt;Node14</title>
<path fill="none" stroke="#191970" d="M974.6089,-60.3741C1105.905,-49.3672 1394.6595,-25.1603 1517.9079,-14.8281"/>
<polygon fill="#191970" stroke="#191970" points="1518.2301,-18.3134 1527.9027,-13.9902 1517.6453,-11.3379 1518.2301,-18.3134"/>
</g>
<!-- Node30&#45;&gt;Node21 -->
<g id="edge40" class="edge">
<title>Node30&#45;&gt;Node21</title>
<path fill="none" stroke="#191970" d="M974.8242,-57.8571C1076.6587,-45.5402 1265.8166,-22.6615 1339.7545,-13.7187"/>
<polygon fill="#191970" stroke="#191970" points="1340.2959,-17.1788 1349.8032,-12.5033 1339.4553,-10.2294 1340.2959,-17.1788"/>
</g>
<!-- Node30&#45;&gt;Node22 -->
<g id="edge41" class="edge">
<title>Node30&#45;&gt;Node22</title>
<path fill="none" stroke="#191970" d="M840.3071,-58.5636C751.1594,-48.6975 593.4158,-31.2397 493.3288,-20.1629"/>
<polygon fill="#191970" stroke="#191970" points="493.5502,-16.6661 483.2259,-19.0448 492.7802,-23.6236 493.5502,-16.6661"/>
</g>
<!-- Node30&#45;&gt;Node24 -->
<g id="edge42" class="edge">
<title>Node30&#45;&gt;Node24</title>
<path fill="none" stroke="#191970" d="M869.2475,-56.4369C831.1533,-46.9133 772.5687,-32.2672 731.4013,-21.9753"/>
<polygon fill="#191970" stroke="#191970" points="732.145,-18.5536 721.5947,-19.5237 730.4472,-25.3446 732.145,-18.5536"/>
</g>
<!-- Node31&#45;&gt;Node21 -->
<g id="edge45" class="edge">
<title>Node31&#45;&gt;Node21</title>
<path fill="none" stroke="#191970" d="M334.5415,-117.9859C374.5978,-101.94 460.0223,-69.891 535.5,-56 694.3471,-26.7657 1207.8152,-13.6006 1339.4981,-10.6553"/>
<polygon fill="#191970" stroke="#191970" points="1339.7618,-14.1504 1349.6823,-10.431 1339.6076,-7.1521 1339.7618,-14.1504"/>
</g>
<!-- Node31&#45;&gt;Node22 -->
<g id="edge46" class="edge">
<title>Node31&#45;&gt;Node22</title>
<path fill="none" stroke="#191970" d="M315.4172,-117.591C321.4129,-103.1476 333.8361,-75.8721 349.5,-56 358.2439,-44.907 369.879,-34.3308 379.926,-26.1227"/>
<polygon fill="#191970" stroke="#191970" points="382.2184,-28.7721 387.8937,-19.8255 377.8779,-23.2802 382.2184,-28.7721"/>
</g>
<!-- Node31&#45;&gt;Node32 -->
<g id="edge47" class="edge">
<title>Node31&#45;&gt;Node32</title>
<path fill="none" stroke="#191970" d="M300.875,-117.8906C290.4569,-108.4683 274.3636,-93.9134 261.8696,-82.6137"/>
<polygon fill="#191970" stroke="#191970" points="264.0392,-79.8568 254.2748,-75.7449 259.3438,-85.0484 264.0392,-79.8568"/>
</g>
<!-- Node33&#45;&gt;Node14 -->
<g id="edge53" class="edge">
<title>Node33&#45;&gt;Node14</title>
<path fill="none" stroke="#191970" d="M854.8146,-117.96C872.0618,-115.8434 890.4204,-113.7206 907.5,-112 1113.3003,-91.2678 1168.5848,-116.1128 1371.5,-76 1433.4427,-63.755 1502.8625,-38.7607 1542.6557,-23.2884"/>
<polygon fill="#191970" stroke="#191970" points="1544.0841,-26.4877 1552.1117,-19.5734 1541.5244,-19.9724 1544.0841,-26.4877"/>
</g>
<!-- Node33&#45;&gt;Node21 -->
<g id="edge49" class="edge">
<title>Node33&#45;&gt;Node21</title>
<path fill="none" stroke="#191970" d="M831.1411,-117.9333C843.6066,-115.7297 857.0184,-113.5738 869.5,-112 922.7828,-105.2814 1309.826,-109.8744 1351.5,-76 1364.9191,-65.0923 1369.2318,-45.3607 1370.4491,-30.304"/>
<polygon fill="#191970" stroke="#191970" points="1373.962,-30.0604 1370.8763,-19.9249 1366.968,-29.7725 1373.962,-30.0604"/>
</g>
<!-- Node33&#45;&gt;Node22 -->
<g id="edge50" class="edge">
<title>Node33&#45;&gt;Node22</title>
<path fill="none" stroke="#191970" d="M781.8887,-117.8212C780.3366,-102.1201 774.8527,-71.3157 755.5,-56 735.2586,-39.981 591.4313,-25.3295 493.4498,-17.0503"/>
<polygon fill="#191970" stroke="#191970" points="493.4839,-13.541 483.227,-16.1955 492.9006,-20.5167 493.4839,-13.541"/>
</g>
<!-- Node33&#45;&gt;Node24 -->
<g id="edge52" class="edge">
<title>Node33&#45;&gt;Node24</title>
<path fill="none" stroke="#191970" d="M832.6311,-117.9645C889.0593,-106.7264 974.1411,-88.0592 983.5,-76 988.9498,-68.9778 989.2895,-62.7449 983.5,-56 968.2216,-38.2004 829.042,-22.9061 745.7242,-15.2443"/>
<polygon fill="#191970" stroke="#191970" points="745.8789,-11.744 735.6035,-14.3258 745.2462,-18.7154 745.8789,-11.744"/>
</g>
<!-- Node33&#45;&gt;Node30 -->
<g id="edge51" class="edge">
<title>Node33&#45;&gt;Node30</title>
<path fill="none" stroke="#191970" d="M802.0313,-117.8906C822.6708,-107.7359 855.4276,-91.6196 878.9602,-80.0416"/>
<polygon fill="#191970" stroke="#191970" points="880.6782,-83.0971 888.1059,-75.5419 877.588,-76.8161 880.6782,-83.0971"/>
</g>
<!-- Node34 -->
<g id="node35" class="node">
<title>Node34</title>
<polygon fill="#ffffff" stroke="#bfbfbf" points="1068.5,-56.5 1068.5,-75.5 1196.5,-75.5 1196.5,-56.5 1068.5,-56.5"/>
<text text-anchor="middle" x="1132.5" y="-63.5" font-family="Helvetica,sans-Serif" font-size="10.00" fill="#000000">AMReX_PhysBCFunct.H</text>
</g>
<!-- Node33&#45;&gt;Node34 -->
<g id="edge54" class="edge">
<title>Node33&#45;&gt;Node34</title>
<path fill="none" stroke="#191970" d="M835.8667,-117.9647C846.981,-115.9865 858.622,-113.9203 869.5,-112 937.1484,-100.0579 1014.6116,-86.5265 1067.8552,-77.2481"/>
<polygon fill="#191970" stroke="#191970" points="1068.588,-80.6733 1077.8388,-75.5087 1067.3865,-73.7771 1068.588,-80.6733"/>
</g>
<!-- Node35&#45;&gt;Node8 -->
<g id="edge60" class="edge">
<title>Node35&#45;&gt;Node8</title>
<path fill="none" stroke="#191970" d="M1727.3444,-179.4639C1759.0762,-167.7824 1802.6407,-151.7449 1832.9466,-140.5884"/>
<polygon fill="#191970" stroke="#191970" points="1834.5045,-143.7445 1842.6797,-137.0053 1832.0862,-137.1755 1834.5045,-143.7445"/>
</g>
<!-- Node35&#45;&gt;Node21 -->
<g id="edge59" class="edge">
<title>Node35&#45;&gt;Node21</title>
<path fill="none" stroke="#191970" d="M1720.2333,-179.3642C1734.8002,-170.9147 1750.3477,-158.8543 1758.5,-143 1764.8004,-130.7472 1764.9675,-124.1655 1758.5,-112 1737.6111,-72.7075 1716.9625,-72.1589 1675.5,-56 1625.7549,-36.6131 1468.4622,-19.5195 1401.3404,-12.9085"/>
<polygon fill="#191970" stroke="#191970" points="1401.2946,-9.3876 1391.0028,-11.9033 1400.6171,-16.3548 1401.2946,-9.3876"/>
</g>
<!-- Node35&#45;&gt;Node22 -->
<g id="edge68" class="edge">
<title>Node35&#45;&gt;Node22</title>
<path fill="none" stroke="#191970" d="M1616.8148,-182.7188C1606.3445,-181.2643 1595.6556,-179.9559 1585.5,-179 1473.0373,-168.4145 675.513,-182.0018 569.5,-143 503.4417,-118.6974 443.257,-57.6644 416.3496,-27.4722"/>
<polygon fill="#191970" stroke="#191970" points="418.8837,-25.0531 409.6655,-19.8304 413.6148,-29.6617 418.8837,-25.0531"/>
</g>
<!-- Node35&#45;&gt;Node29 -->
<g id="edge69" class="edge">
<title>Node35&#45;&gt;Node29</title>
<path fill="none" stroke="#191970" d="M1665.1949,-179.4179C1650.9993,-169.2779 1631.9919,-155.5261 1615.5,-143 1597.8673,-129.6075 1596.7859,-120.8743 1576.5,-112 1537.5077,-94.9423 1427.8252,-80.9955 1352.9831,-73.0894"/>
<polygon fill="#191970" stroke="#191970" points="1352.9737,-69.5696 1342.6648,-72.0143 1352.2481,-76.5319 1352.9737,-69.5696"/>
</g>
<!-- Node36 -->
<g id="node37" class="node">
<title>Node36</title>
<g id="a_node37"><a xlink:href="_coll_mgr_8_h.html" target="_top" xlink:title="amr&#45;wind/core/CollMgr.H">
<polygon fill="#ffffff" stroke="#000000" points="1624,-118 1624,-137 1749,-137 1749,-118 1624,-118"/>
<text text-anchor="middle" x="1686.5" y="-125" font-family="Helvetica,sans-Serif" font-size="10.00" fill="#000000">amr&#45;wind/core/CollMgr.H</text>
</a>
</g>
</g>
<!-- Node35&#45;&gt;Node36 -->
<g id="edge61" class="edge">
<title>Node35&#45;&gt;Node36</title>
<path fill="none" stroke="#191970" d="M1686.5,-179.2967C1686.5,-169.7699 1686.5,-157.3954 1686.5,-147.1306"/>
<polygon fill="#191970" stroke="#191970" points="1690.0001,-147.0549 1686.5,-137.055 1683.0001,-147.055 1690.0001,-147.0549"/>
</g>
<!-- Node37 -->
<g id="node38" class="node">
<title>Node37</title>
<g id="a_node38"><a xlink:href="_p_d_e_fields_8_h.html" target="_top" xlink:title="amr&#45;wind/equation_systems\l/PDEFields.H">
<polygon fill="#ffffff" stroke="#000000" points="1949,-112.5 1949,-142.5 2088,-142.5 2088,-112.5 1949,-112.5"/>
<text text-anchor="start" x="1957" y="-130.5" font-family="Helvetica,sans-Serif" font-size="10.00" fill="#000000">amr&#45;wind/equation_systems</text>
<text text-anchor="middle" x="2018.5" y="-119.5" font-family="Helvetica,sans-Serif" font-size="10.00" fill="#000000">/PDEFields.H</text>
</a>
</g>
</g>
<!-- Node35&#45;&gt;Node37 -->
<g id="edge66" class="edge">
<title>Node35&#45;&gt;Node37</title>
<path fill="none" stroke="#191970" d="M1756.0981,-180.4546C1809.5512,-169.6674 1883.4127,-154.7616 1939.1569,-143.512"/>
<polygon fill="#191970" stroke="#191970" points="1939.8836,-146.936 1948.9935,-141.5269 1938.4988,-140.0743 1939.8836,-146.936"/>
</g>
<!-- Node36&#45;&gt;Node9 -->
<g id="edge63" class="edge">
<title>Node36&#45;&gt;Node9</title>
<path fill="none" stroke="#191970" d="M1679.3125,-117.8906C1672.5334,-108.8273 1662.2022,-95.0149 1653.9027,-83.9188"/>
<polygon fill="#191970" stroke="#191970" points="1656.5812,-81.6563 1647.7888,-75.7449 1650.9757,-85.849 1656.5812,-81.6563"/>
</g>
<!-- Node36&#45;&gt;Node10 -->
<g id="edge64" class="edge">
<title>Node36&#45;&gt;Node10</title>
<path fill="none" stroke="#191970" d="M1659.9375,-117.8906C1630.9944,-107.42 1584.5306,-90.6111 1552.3644,-78.9745"/>
<polygon fill="#191970" stroke="#191970" points="1553.4702,-75.6526 1542.876,-75.5419 1551.0889,-82.2351 1553.4702,-75.6526"/>
</g>
<!-- Node36&#45;&gt;Node14 -->
<g id="edge65" class="edge">
<title>Node36&#45;&gt;Node14</title>
<path fill="none" stroke="#191970" d="M1687.724,-117.6056C1689.0166,-102.6891 1689.2631,-74.2498 1675.5,-56 1663.8012,-40.4875 1645.6216,-30.0411 1627.9543,-23.0835"/>
<polygon fill="#191970" stroke="#191970" points="1628.8305,-19.6785 1618.2363,-19.5671 1626.4487,-26.2608 1628.8305,-19.6785"/>
</g>
<!-- Node36&#45;&gt;Node21 -->
<g id="edge62" class="edge">
<title>Node36&#45;&gt;Node21</title>
<path fill="none" stroke="#191970" d="M1671.9267,-117.9583C1645.1587,-100.5659 1588.9424,-64.6943 1567.5,-56 1511.1513,-33.1522 1440.9192,-20.1691 1401.3528,-14.1577"/>
<polygon fill="#191970" stroke="#191970" points="1401.6801,-10.6683 1391.2776,-12.6778 1400.6628,-17.594 1401.6801,-10.6683"/>
</g>
<!-- Node37&#45;&gt;Node4 -->
<g id="edge67" class="edge">
<title>Node37&#45;&gt;Node4</title>
<path fill="none" stroke="#191970" d="M2060.3313,-112.4554C2090.2721,-101.6872 2129.979,-87.4067 2157.4271,-77.535"/>
<polygon fill="#191970" stroke="#191970" points="2158.7187,-80.79 2166.9441,-74.1122 2156.3497,-74.2031 2158.7187,-80.79"/>
</g>
<!-- Node38&#45;&gt;Node8 -->
<g id="edge71" class="edge">
<title>Node38&#45;&gt;Node8</title>
<path fill="none" stroke="#191970" d="M1563.128,-184.9717C1627.6233,-172.8335 1738.9688,-151.8781 1807.906,-138.9039"/>
<polygon fill="#191970" stroke="#191970" points="1808.5786,-142.3389 1817.7587,-137.0496 1807.2839,-135.4596 1808.5786,-142.3389"/>
</g>
<!-- Node38&#45;&gt;Node24 -->
<g id="edge73" class="edge">
<title>Node38&#45;&gt;Node24</title>
<path fill="none" stroke="#191970" d="M1448.7995,-190.3527C1398.4977,-187.1218 1326.5259,-182.5962 1263.5,-179 1186.4106,-174.6013 634.2345,-185.09 569.5,-143 534.6955,-120.3703 510.8837,-89.4289 535.5,-56 546.146,-41.5428 585.9122,-29.658 621.5447,-21.5924"/>
<polygon fill="#191970" stroke="#191970" points="622.4388,-24.9796 631.4576,-19.4198 620.9401,-18.1419 622.4388,-24.9796"/>
</g>
<!-- Node38&#45;&gt;Node36 -->
<g id="edge72" class="edge">
<title>Node38&#45;&gt;Node36</title>
<path fill="none" stroke="#191970" d="M1537.43,-184.9005C1567.5355,-173.3082 1618.3321,-153.7486 1652.138,-140.7313"/>
<polygon fill="#191970" stroke="#191970" points="1653.5419,-143.9413 1661.6163,-137.0817 1651.0265,-137.4089 1653.5419,-143.9413"/>
</g>
<!-- Node39 -->
<g id="node40" class="node">
<title>Node39</title>
<polygon fill="#ffffff" stroke="#bfbfbf" points="1457.5,-118 1457.5,-137 1567.5,-137 1567.5,-118 1457.5,-118"/>
<text text-anchor="middle" x="1512.5" y="-125" font-family="Helvetica,sans-Serif" font-size="10.00" fill="#000000">AMReX_Geometry.H</text>
</g>
<!-- Node38&#45;&gt;Node39 -->
<g id="edge74" class="edge">
<title>Node38&#45;&gt;Node39</title>
<path fill="none" stroke="#191970" d="M1512.5,-184.9005C1512.5,-175.149 1512.5,-159.7597 1512.5,-147.3695"/>
<polygon fill="#191970" stroke="#191970" points="1516.0001,-147.0816 1512.5,-137.0817 1509.0001,-147.0817 1516.0001,-147.0816"/>
</g>
</g>
</svg>
