<?xml version="1.0" encoding="UTF-8" standalone="no"?>
<!DOCTYPE svg PUBLIC "-//W3C//DTD SVG 1.1//EN"
 "http://www.w3.org/Graphics/SVG/1.1/DTD/svg11.dtd">
<!-- Generated by graphviz version 2.40.1 (20161225.0304)
 -->
<!-- Title: ConstTransport.H Pages: 1 -->
<svg width="1794pt" height="319pt"
 viewBox="0.00 0.00 1794.21 319.00" xmlns="http://www.w3.org/2000/svg" xmlns:xlink="http://www.w3.org/1999/xlink">
<g id="graph0" class="graph" transform="scale(1 1) rotate(0) translate(4 315)">
<title>ConstTransport.H</title>
<polygon fill="#ffffff" stroke="transparent" points="-4,4 -4,-315 1790.2077,-315 1790.2077,4 -4,4"/>
<!-- Node0 -->
<g id="node1" class="node">
<title>Node0</title>
<polygon fill="#bfbfbf" stroke="#000000" points="668.5,-291.5 668.5,-310.5 763.5,-310.5 763.5,-291.5 668.5,-291.5"/>
<text text-anchor="middle" x="716" y="-298.5" font-family="Helvetica,sans-Serif" font-size="10.00" fill="#000000">ConstTransport.H</text>
</g>
<!-- Node1 -->
<g id="node2" class="node">
<title>Node1</title>
<g id="a_node2"><a xlink:href="_transport_model_8_h.html" target="_top" xlink:title="amr&#45;wind/transport\l_models/TransportModel.H">
<polygon fill="#ffffff" stroke="#000000" points="578,-224.5 578,-254.5 712,-254.5 712,-224.5 578,-224.5"/>
<text text-anchor="start" x="586" y="-242.5" font-family="Helvetica,sans-Serif" font-size="10.00" fill="#000000">amr&#45;wind/transport</text>
<text text-anchor="middle" x="645" y="-231.5" font-family="Helvetica,sans-Serif" font-size="10.00" fill="#000000">_models/TransportModel.H</text>
</a>
</g>
</g>
<!-- Node0&#45;&gt;Node1 -->
<g id="edge1" class="edge">
<title>Node0&#45;&gt;Node1</title>
<path fill="none" stroke="#191970" d="M704.9063,-291.3906C695.6532,-283.3756 682.1124,-271.6466 670.2444,-261.3666"/>
<polygon fill="#191970" stroke="#191970" points="672.2188,-258.4464 662.3686,-254.5446 667.6357,-263.7374 672.2188,-258.4464"/>
</g>
<!-- Node25 -->
<g id="node26" class="node">
<title>Node25</title>
<polygon fill="#ffffff" stroke="#bfbfbf" points="730,-230 730,-249 846,-249 846,-230 730,-230"/>
<text text-anchor="middle" x="788" y="-237" font-family="Helvetica,sans-Serif" font-size="10.00" fill="#000000">AMReX_ParmParse.H</text>
</g>
<!-- Node0&#45;&gt;Node25 -->
<g id="edge44" class="edge">
<title>Node0&#45;&gt;Node25</title>
<path fill="none" stroke="#191970" d="M727.25,-291.3906C738.386,-281.8786 755.646,-267.1357 768.9268,-255.7917"/>
<polygon fill="#191970" stroke="#191970" points="771.2608,-258.4011 776.5914,-249.2449 766.7144,-253.0784 771.2608,-258.4011"/>
</g>
<!-- Node2 -->
<g id="node3" class="node">
<title>Node2</title>
<g id="a_node3"><a xlink:href="_factory_8_h.html" target="_top" xlink:title="amr&#45;wind/core/Factory.H">
<polygon fill="#ffffff" stroke="#000000" points="154.5,-112.5 154.5,-131.5 279.5,-131.5 279.5,-112.5 154.5,-112.5"/>
<text text-anchor="middle" x="217" y="-119.5" font-family="Helvetica,sans-Serif" font-size="10.00" fill="#000000">amr&#45;wind/core/Factory.H</text>
</a>
</g>
</g>
<!-- Node1&#45;&gt;Node2 -->
<g id="edge2" class="edge">
<title>Node1&#45;&gt;Node2</title>
<path fill="none" stroke="#191970" d="M590.3588,-224.4992C504.8436,-201.0225 341.0048,-156.0434 261.9119,-134.3298"/>
<polygon fill="#191970" stroke="#191970" points="262.3557,-130.8222 251.7859,-131.5499 260.5025,-137.5724 262.3557,-130.8222"/>
</g>
<!-- Node8 -->
<g id="node9" class="node">
<title>Node8</title>
<g id="a_node9"><a xlink:href="_field_repo_8_h.html" target="_top" xlink:title="amr&#45;wind/core/FieldRepo.H">
<polygon fill="#ffffff" stroke="#000000" points="981,-168.5 981,-187.5 1117,-187.5 1117,-168.5 981,-168.5"/>
<text text-anchor="middle" x="1049" y="-175.5" font-family="Helvetica,sans-Serif" font-size="10.00" fill="#000000">amr&#45;wind/core/FieldRepo.H</text>
</a>
</g>
</g>
<!-- Node1&#45;&gt;Node8 -->
<g id="edge8" class="edge">
<title>Node1&#45;&gt;Node8</title>
<path fill="none" stroke="#191970" d="M712.0943,-225.5819C715.1012,-225.0321 718.0803,-224.502 721,-224 806.167,-209.3576 904.3776,-196.0539 970.9662,-187.5634"/>
<polygon fill="#191970" stroke="#191970" points="971.4854,-191.0256 980.9651,-186.2943 970.604,-184.0813 971.4854,-191.0256"/>
</g>
<!-- Node3 -->
<g id="node4" class="node">
<title>Node3</title>
<polygon fill="#ffffff" stroke="#bfbfbf" points="398,-56.5 398,-75.5 450,-75.5 450,-56.5 398,-56.5"/>
<text text-anchor="middle" x="424" y="-63.5" font-family="Helvetica,sans-Serif" font-size="10.00" fill="#000000">memory</text>
</g>
<!-- Node2&#45;&gt;Node3 -->
<g id="edge3" class="edge">
<title>Node2&#45;&gt;Node3</title>
<path fill="none" stroke="#191970" d="M252.5846,-112.3733C290.3054,-102.1686 349.5742,-86.1345 387.6015,-75.8469"/>
<polygon fill="#191970" stroke="#191970" points="388.9894,-79.0974 397.7283,-73.1073 387.1613,-72.3403 388.9894,-79.0974"/>
</g>
<!-- Node4 -->
<g id="node5" class="node">
<title>Node4</title>
<polygon fill="#ffffff" stroke="#bfbfbf" points="258.5,-56.5 258.5,-75.5 341.5,-75.5 341.5,-56.5 258.5,-56.5"/>
<text text-anchor="middle" x="300" y="-63.5" font-family="Helvetica,sans-Serif" font-size="10.00" fill="#000000">unordered_map</text>
</g>
<!-- Node2&#45;&gt;Node4 -->
<g id="edge4" class="edge">
<title>Node2&#45;&gt;Node4</title>
<path fill="none" stroke="#191970" d="M231.4575,-112.2455C244.0732,-103.7337 262.5944,-91.2375 277.2045,-81.3801"/>
<polygon fill="#191970" stroke="#191970" points="279.3761,-84.1371 285.7082,-75.6427 275.4609,-78.3343 279.3761,-84.1371"/>
</g>
<!-- Node5 -->
<g id="node6" class="node">
<title>Node5</title>
<polygon fill="#ffffff" stroke="#bfbfbf" points="0,-56.5 0,-75.5 54,-75.5 54,-56.5 0,-56.5"/>
<text text-anchor="middle" x="27" y="-63.5" font-family="Helvetica,sans-Serif" font-size="10.00" fill="#000000">iostream</text>
</g>
<!-- Node2&#45;&gt;Node5 -->
<g id="edge5" class="edge">
<title>Node2&#45;&gt;Node5</title>
<path fill="none" stroke="#191970" d="M184.3378,-112.3733C150.8285,-102.4968 98.7927,-87.16 63.8365,-76.8571"/>
<polygon fill="#191970" stroke="#191970" points="64.5998,-73.4332 54.0182,-73.9633 62.6208,-80.1477 64.5998,-73.4332"/>
</g>
<!-- Node6 -->
<g id="node7" class="node">
<title>Node6</title>
<polygon fill="#ffffff" stroke="#bfbfbf" points="72.5,-56.5 72.5,-75.5 159.5,-75.5 159.5,-56.5 72.5,-56.5"/>
<text text-anchor="middle" x="116" y="-63.5" font-family="Helvetica,sans-Serif" font-size="10.00" fill="#000000">AMReX_Print.H</text>
</g>
<!-- Node2&#45;&gt;Node6 -->
<g id="edge6" class="edge">
<title>Node2&#45;&gt;Node6</title>
<path fill="none" stroke="#191970" d="M199.4071,-112.2455C183.621,-103.4928 160.2361,-90.527 142.2413,-80.5496"/>
<polygon fill="#191970" stroke="#191970" points="143.8341,-77.4308 133.3913,-75.6427 140.4397,-83.5528 143.8341,-77.4308"/>
</g>
<!-- Node7 -->
<g id="node8" class="node">
<title>Node7</title>
<polygon fill="#ffffff" stroke="#bfbfbf" points="178,-56.5 178,-75.5 240,-75.5 240,-56.5 178,-56.5"/>
<text text-anchor="middle" x="209" y="-63.5" font-family="Helvetica,sans-Serif" font-size="10.00" fill="#000000">AMReX.H</text>
</g>
<!-- Node2&#45;&gt;Node7 -->
<g id="edge7" class="edge">
<title>Node2&#45;&gt;Node7</title>
<path fill="none" stroke="#191970" d="M215.6065,-112.2455C214.5626,-104.9382 213.0992,-94.6944 211.8149,-85.7046"/>
<polygon fill="#191970" stroke="#191970" points="215.2566,-85.0472 210.3775,-75.6427 208.327,-86.0372 215.2566,-85.0472"/>
</g>
<!-- Node8&#45;&gt;Node4 -->
<g id="edge10" class="edge">
<title>Node8&#45;&gt;Node4</title>
<path fill="none" stroke="#191970" d="M980.7317,-176.4798C816.8751,-172.4046 410.8162,-159.6198 356,-132 335.5514,-121.6968 319.6057,-100.2763 310.0471,-84.6231"/>
<polygon fill="#191970" stroke="#191970" points="312.9687,-82.6834 304.9377,-75.773 306.9065,-86.1833 312.9687,-82.6834"/>
</g>
<!-- Node9 -->
<g id="node10" class="node">
<title>Node9</title>
<polygon fill="#ffffff" stroke="#bfbfbf" points="900.5,-.5 900.5,-19.5 941.5,-19.5 941.5,-.5 900.5,-.5"/>
<text text-anchor="middle" x="921" y="-7.5" font-family="Helvetica,sans-Serif" font-size="10.00" fill="#000000">string</text>
</g>
<!-- Node8&#45;&gt;Node9 -->
<g id="edge9" class="edge">
<title>Node8&#45;&gt;Node9</title>
<path fill="none" stroke="#191970" d="M980.7482,-172.4584C819.791,-158.698 427.1182,-120.8253 389,-76 383.2417,-69.2285 382.9914,-62.5505 389,-56 423.0034,-18.9296 781.7632,-11.6525 890.1568,-10.2961"/>
<polygon fill="#191970" stroke="#191970" points="890.457,-13.793 900.4155,-10.1764 890.3753,-6.7934 890.457,-13.793"/>
</g>
<!-- Node10 -->
<g id="node11" class="node">
<title>Node10</title>
<g id="a_node11"><a xlink:href="_field_desc_types_8_h.html" target="_top" xlink:title="amr&#45;wind/core/FieldDescTypes.H">
<polygon fill="#ffffff" stroke="#000000" points="985.5,-.5 985.5,-19.5 1148.5,-19.5 1148.5,-.5 985.5,-.5"/>
<text text-anchor="middle" x="1067" y="-7.5" font-family="Helvetica,sans-Serif" font-size="10.00" fill="#000000">amr&#45;wind/core/FieldDescTypes.H</text>
</a>
</g>
</g>
<!-- Node8&#45;&gt;Node10 -->
<g id="edge11" class="edge">
<title>Node8&#45;&gt;Node10</title>
<path fill="none" stroke="#191970" d="M1022.399,-168.397C1006.4127,-161.0839 987.4002,-149.291 978,-132 973.7544,-124.1906 975.7185,-120.5911 978,-112 985.3576,-84.2945 991.4134,-77.8235 1010,-56 1019.7589,-44.5416 1032.6782,-33.8456 1043.7495,-25.6564"/>
<polygon fill="#191970" stroke="#191970" points="1046.0377,-28.323 1052.1366,-19.6596 1041.9663,-22.6288 1046.0377,-28.323"/>
</g>
<!-- Node11 -->
<g id="node12" class="node">
<title>Node11</title>
<g id="a_node12"><a xlink:href="_field_utils_8_h.html" target="_top" xlink:title="amr&#45;wind/core/FieldUtils.H">
<polygon fill="#ffffff" stroke="#000000" points="1639.5,-56.5 1639.5,-75.5 1772.5,-75.5 1772.5,-56.5 1639.5,-56.5"/>
<text text-anchor="middle" x="1706" y="-63.5" font-family="Helvetica,sans-Serif" font-size="10.00" fill="#000000">amr&#45;wind/core/FieldUtils.H</text>
</a>
</g>
</g>
<!-- Node8&#45;&gt;Node11 -->
<g id="edge12" class="edge">
<title>Node8&#45;&gt;Node11</title>
<path fill="none" stroke="#191970" d="M1117.3617,-175.2715C1239.8183,-169.8474 1491.6696,-156.1058 1576,-132 1615.8819,-120.5998 1657.9748,-96.7498 1683.1054,-81.0607"/>
<polygon fill="#191970" stroke="#191970" points="1684.9979,-84.0051 1691.5611,-75.6879 1681.2438,-78.0969 1684.9979,-84.0051"/>
</g>
<!-- Node12 -->
<g id="node13" class="node">
<title>Node12</title>
<polygon fill="#ffffff" stroke="#bfbfbf" points="1413,-.5 1413,-19.5 1517,-19.5 1517,-.5 1413,-.5"/>
<text text-anchor="middle" x="1465" y="-7.5" font-family="Helvetica,sans-Serif" font-size="10.00" fill="#000000">AMReX_MultiFab.H</text>
</g>
<!-- Node8&#45;&gt;Node12 -->
<g id="edge42" class="edge">
<title>Node8&#45;&gt;Node12</title>
<path fill="none" stroke="#191970" d="M1117.4044,-174.4939C1246.361,-167.5428 1520.8305,-151.0313 1614,-132 1691.1133,-116.2484 1735.98,-139.8493 1782,-76 1787.1974,-68.789 1787.8166,-62.7216 1782,-56 1765.5918,-37.0389 1614.9581,-21.9626 1527.3742,-14.7086"/>
<polygon fill="#191970" stroke="#191970" points="1527.5314,-11.2099 1517.2796,-13.884 1526.9614,-18.1866 1527.5314,-11.2099"/>
</g>
<!-- Node14 -->
<g id="node15" class="node">
<title>Node14</title>
<g id="a_node15"><a xlink:href="_field_8_h.html" target="_top" xlink:title="amr&#45;wind/core/Field.H">
<polygon fill="#ffffff" stroke="#000000" points="742.5,-112.5 742.5,-131.5 855.5,-131.5 855.5,-112.5 742.5,-112.5"/>
<text text-anchor="middle" x="799" y="-119.5" font-family="Helvetica,sans-Serif" font-size="10.00" fill="#000000">amr&#45;wind/core/Field.H</text>
</a>
</g>
</g>
<!-- Node8&#45;&gt;Node14 -->
<g id="edge16" class="edge">
<title>Node8&#45;&gt;Node14</title>
<path fill="none" stroke="#191970" d="M1006.3075,-168.4369C963.4321,-158.8328 897.2995,-144.0191 851.2998,-133.7152"/>
<polygon fill="#191970" stroke="#191970" points="852.0396,-130.2942 841.5164,-131.5237 850.5095,-137.1249 852.0396,-130.2942"/>
</g>
<!-- Node20 -->
<g id="node21" class="node">
<title>Node20</title>
<g id="a_node21"><a xlink:href="_int_field_8_h.html" target="_top" xlink:title="amr&#45;wind/core/IntField.H">
<polygon fill="#ffffff" stroke="#000000" points="987,-112.5 987,-131.5 1111,-131.5 1111,-112.5 987,-112.5"/>
<text text-anchor="middle" x="1049" y="-119.5" font-family="Helvetica,sans-Serif" font-size="10.00" fill="#000000">amr&#45;wind/core/IntField.H</text>
</a>
</g>
</g>
<!-- Node8&#45;&gt;Node20 -->
<g id="edge30" class="edge">
<title>Node8&#45;&gt;Node20</title>
<path fill="none" stroke="#191970" d="M1049,-168.2455C1049,-160.9382 1049,-150.6944 1049,-141.7046"/>
<polygon fill="#191970" stroke="#191970" points="1052.5001,-141.6426 1049,-131.6427 1045.5001,-141.6427 1052.5001,-141.6426"/>
</g>
<!-- Node21 -->
<g id="node22" class="node">
<title>Node21</title>
<polygon fill="#ffffff" stroke="#bfbfbf" points="1215.5,-56.5 1215.5,-75.5 1322.5,-75.5 1322.5,-56.5 1215.5,-56.5"/>
<text text-anchor="middle" x="1269" y="-63.5" font-family="Helvetica,sans-Serif" font-size="10.00" fill="#000000">AMReX_iMultiFab.H</text>
</g>
<!-- Node8&#45;&gt;Node21 -->
<g id="edge43" class="edge">
<title>Node8&#45;&gt;Node21</title>
<path fill="none" stroke="#191970" d="M1067.7571,-168.4509C1106.5611,-148.6961 1195.8175,-103.2565 1241.2864,-80.1088"/>
<polygon fill="#191970" stroke="#191970" points="1242.9667,-83.1808 1250.2904,-75.5249 1239.7908,-76.9427 1242.9667,-83.1808"/>
</g>
<!-- Node22 -->
<g id="node23" class="node">
<title>Node22</title>
<g id="a_node23"><a xlink:href="_scratch_field_8_h.html" target="_top" xlink:title="amr&#45;wind/core/ScratchField.H">
<polygon fill="#ffffff" stroke="#000000" points="1297,-112.5 1297,-131.5 1443,-131.5 1443,-112.5 1297,-112.5"/>
<text text-anchor="middle" x="1370" y="-119.5" font-family="Helvetica,sans-Serif" font-size="10.00" fill="#000000">amr&#45;wind/core/ScratchField.H</text>
</a>
</g>
</g>
<!-- Node8&#45;&gt;Node22 -->
<g id="edge34" class="edge">
<title>Node8&#45;&gt;Node22</title>
<path fill="none" stroke="#191970" d="M1103.8171,-168.4369C1159.6771,-158.6918 1246.2821,-143.5832 1305.4305,-133.2645"/>
<polygon fill="#191970" stroke="#191970" points="1306.1593,-136.6903 1315.409,-131.5237 1304.9562,-129.7944 1306.1593,-136.6903"/>
</g>
<!-- Node24 -->
<g id="node25" class="node">
<title>Node24</title>
<polygon fill="#ffffff" stroke="#bfbfbf" points="1461,-112.5 1461,-131.5 1567,-131.5 1567,-112.5 1461,-112.5"/>
<text text-anchor="middle" x="1514" y="-119.5" font-family="Helvetica,sans-Serif" font-size="10.00" fill="#000000">AMReX_AmrCore.H</text>
</g>
<!-- Node8&#45;&gt;Node24 -->
<g id="edge41" class="edge">
<title>Node8&#45;&gt;Node24</title>
<path fill="none" stroke="#191970" d="M1117.217,-171.1856C1195.3441,-163.1623 1327.4319,-148.931 1450.9125,-132.0993"/>
<polygon fill="#191970" stroke="#191970" points="1451.4927,-135.5526 1460.9243,-130.7262 1450.5414,-128.6175 1451.4927,-135.5526"/>
</g>
<!-- Node11&#45;&gt;Node10 -->
<g id="edge13" class="edge">
<title>Node11&#45;&gt;Node10</title>
<path fill="none" stroke="#191970" d="M1639.2941,-57.0338C1636.1538,-56.6712 1633.0436,-56.3244 1630,-56 1464.276,-38.3377 1270.4731,-23.8537 1158.9046,-16.1118"/>
<polygon fill="#191970" stroke="#191970" points="1158.9169,-12.6044 1148.6994,-15.4065 1158.4342,-19.5877 1158.9169,-12.6044"/>
</g>
<!-- Node11&#45;&gt;Node12 -->
<g id="edge14" class="edge">
<title>Node11&#45;&gt;Node12</title>
<path fill="none" stroke="#191970" d="M1664.8445,-56.4369C1623.6858,-46.8731 1560.295,-32.1432 1515.9758,-21.845"/>
<polygon fill="#191970" stroke="#191970" points="1516.5185,-18.3779 1505.9858,-19.5237 1514.9341,-25.1963 1516.5185,-18.3779"/>
</g>
<!-- Node13 -->
<g id="node14" class="node">
<title>Node13</title>
<polygon fill="#ffffff" stroke="#bfbfbf" points="1648,-.5 1648,-19.5 1764,-19.5 1764,-.5 1648,-.5"/>
<text text-anchor="middle" x="1706" y="-7.5" font-family="Helvetica,sans-Serif" font-size="10.00" fill="#000000">AMReX_Interpolater.H</text>
</g>
<!-- Node11&#45;&gt;Node13 -->
<g id="edge15" class="edge">
<title>Node11&#45;&gt;Node13</title>
<path fill="none" stroke="#191970" d="M1706,-56.2455C1706,-48.9382 1706,-38.6944 1706,-29.7046"/>
<polygon fill="#191970" stroke="#191970" points="1709.5001,-29.6426 1706,-19.6427 1702.5001,-29.6427 1709.5001,-29.6426"/>
</g>
<!-- Node14&#45;&gt;Node3 -->
<g id="edge18" class="edge">
<title>Node14&#45;&gt;Node3</title>
<path fill="none" stroke="#191970" d="M742.3258,-116.8504C676.6083,-110.3189 564.9282,-97.4936 460.3668,-76.0472"/>
<polygon fill="#191970" stroke="#191970" points="460.7756,-72.5573 450.272,-73.9448 459.3483,-79.4103 460.7756,-72.5573"/>
</g>
<!-- Node14&#45;&gt;Node4 -->
<g id="edge19" class="edge">
<title>Node14&#45;&gt;Node4</title>
<path fill="none" stroke="#191970" d="M742.2935,-115.6408C663.1734,-106.7673 515.1664,-90.1656 389,-76 376.9285,-74.6446 363.9361,-73.1852 351.7091,-71.8114"/>
<polygon fill="#191970" stroke="#191970" points="351.9837,-68.3204 341.6554,-70.6818 351.2021,-75.2766 351.9837,-68.3204"/>
</g>
<!-- Node14&#45;&gt;Node9 -->
<g id="edge17" class="edge">
<title>Node14&#45;&gt;Node9</title>
<path fill="none" stroke="#191970" d="M809.3398,-112.0559C822.9142,-99.0462 847.5404,-75.5994 869,-56 879.8467,-46.0935 892.1514,-35.1937 902.0674,-26.4917"/>
<polygon fill="#191970" stroke="#191970" points="904.5296,-28.988 909.7507,-19.7689 899.9201,-23.7199 904.5296,-28.988"/>
</g>
<!-- Node14&#45;&gt;Node10 -->
<g id="edge24" class="edge">
<title>Node14&#45;&gt;Node10</title>
<path fill="none" stroke="#191970" d="M819.1335,-112.4047C847.1296,-99.1759 899.5095,-74.8356 945,-56 973.4915,-44.2029 1006.208,-31.935 1030.5844,-23.0381"/>
<polygon fill="#191970" stroke="#191970" points="1031.9479,-26.2667 1040.1521,-19.5628 1029.558,-19.6873 1031.9479,-26.2667"/>
</g>
<!-- Node14&#45;&gt;Node12 -->
<g id="edge20" class="edge">
<title>Node14&#45;&gt;Node12</title>
<path fill="none" stroke="#191970" d="M855.596,-117.3751C944.0934,-109.7341 1111.009,-93.563 1168,-76 1186.6157,-70.2632 1188.541,-62.2227 1207,-56 1272.0084,-34.085 1349.9414,-22.0276 1403.0216,-15.8182"/>
<polygon fill="#191970" stroke="#191970" points="1403.4234,-19.2952 1412.9647,-14.6895 1402.6337,-12.3399 1403.4234,-19.2952"/>
</g>
<!-- Node15 -->
<g id="node16" class="node">
<title>Node15</title>
<polygon fill="#ffffff" stroke="#bfbfbf" points="468.5,-56.5 468.5,-75.5 567.5,-75.5 567.5,-56.5 468.5,-56.5"/>
<text text-anchor="middle" x="518" y="-63.5" font-family="Helvetica,sans-Serif" font-size="10.00" fill="#000000">AMReX_BCRec.H</text>
</g>
<!-- Node14&#45;&gt;Node15 -->
<g id="edge21" class="edge">
<title>Node14&#45;&gt;Node15</title>
<path fill="none" stroke="#191970" d="M751.0137,-112.4369C702.5186,-102.7724 627.5527,-87.8326 575.8121,-77.5213"/>
<polygon fill="#191970" stroke="#191970" points="576.2797,-74.0457 565.7884,-75.5237 574.9115,-80.9107 576.2797,-74.0457"/>
</g>
<!-- Node16 -->
<g id="node17" class="node">
<title>Node16</title>
<polygon fill="#ffffff" stroke="#bfbfbf" points="585.5,-56.5 585.5,-75.5 670.5,-75.5 670.5,-56.5 585.5,-56.5"/>
<text text-anchor="middle" x="628" y="-63.5" font-family="Helvetica,sans-Serif" font-size="10.00" fill="#000000">AMReX_Gpu.H</text>
</g>
<!-- Node14&#45;&gt;Node16 -->
<g id="edge22" class="edge">
<title>Node14&#45;&gt;Node16</title>
<path fill="none" stroke="#191970" d="M769.6041,-112.3733C741.1693,-103.0613 697.9123,-88.8953 666.6919,-78.671"/>
<polygon fill="#191970" stroke="#191970" points="667.605,-75.2872 657.0124,-75.5011 665.4264,-81.9396 667.605,-75.2872"/>
</g>
<!-- Node17 -->
<g id="node18" class="node">
<title>Node17</title>
<g id="a_node18"><a xlink:href="incflo__enums_8_h.html" target="_top" xlink:title="amr&#45;wind/incflo_enums.H">
<polygon fill="#ffffff" stroke="#000000" points="689,-56.5 689,-75.5 817,-75.5 817,-56.5 689,-56.5"/>
<text text-anchor="middle" x="753" y="-63.5" font-family="Helvetica,sans-Serif" font-size="10.00" fill="#000000">amr&#45;wind/incflo_enums.H</text>
</a>
</g>
</g>
<!-- Node14&#45;&gt;Node17 -->
<g id="edge23" class="edge">
<title>Node14&#45;&gt;Node17</title>
<path fill="none" stroke="#191970" d="M790.9874,-112.2455C784.5232,-104.3761 775.2615,-93.101 767.5017,-83.6542"/>
<polygon fill="#191970" stroke="#191970" points="769.9727,-81.1484 760.9208,-75.6427 764.5636,-85.5916 769.9727,-81.1484"/>
</g>
<!-- Node18 -->
<g id="node19" class="node">
<title>Node18</title>
<g id="a_node19"><a xlink:href="_view_field_8_h.html" target="_top" xlink:title="amr&#45;wind/core/ViewField.H">
<polygon fill="#ffffff" stroke="#000000" points="1025,-56.5 1025,-75.5 1159,-75.5 1159,-56.5 1025,-56.5"/>
<text text-anchor="middle" x="1092" y="-63.5" font-family="Helvetica,sans-Serif" font-size="10.00" fill="#000000">amr&#45;wind/core/ViewField.H</text>
</a>
</g>
</g>
<!-- Node14&#45;&gt;Node18 -->
<g id="edge25" class="edge">
<title>Node14&#45;&gt;Node18</title>
<path fill="none" stroke="#191970" d="M849.0356,-112.4369C899.707,-102.7522 978.0948,-87.7703 1032.0559,-77.4569"/>
<polygon fill="#191970" stroke="#191970" points="1033.0057,-80.8388 1042.1708,-75.5237 1031.6915,-73.9633 1033.0057,-80.8388"/>
</g>
<!-- Node18&#45;&gt;Node9 -->
<g id="edge26" class="edge">
<title>Node18&#45;&gt;Node9</title>
<path fill="none" stroke="#191970" d="M1062.6041,-56.3733C1031.5844,-46.2148 982.9249,-30.2795 951.4958,-19.9869"/>
<polygon fill="#191970" stroke="#191970" points="952.5339,-16.644 941.9412,-16.8579 950.3553,-23.2964 952.5339,-16.644"/>
</g>
<!-- Node18&#45;&gt;Node10 -->
<g id="edge27" class="edge">
<title>Node18&#45;&gt;Node10</title>
<path fill="none" stroke="#191970" d="M1087.6453,-56.2455C1084.2756,-48.6973 1079.507,-38.0158 1075.4017,-28.8197"/>
<polygon fill="#191970" stroke="#191970" points="1078.5773,-27.3473 1071.3048,-19.6427 1072.1853,-30.2009 1078.5773,-27.3473"/>
</g>
<!-- Node18&#45;&gt;Node12 -->
<g id="edge28" class="edge">
<title>Node18&#45;&gt;Node12</title>
<path fill="none" stroke="#191970" d="M1155.6972,-56.4369C1224.7688,-46.0669 1334.295,-29.6233 1402.7823,-19.341"/>
<polygon fill="#191970" stroke="#191970" points="1403.6247,-22.7538 1412.9942,-17.8078 1402.5853,-15.8314 1403.6247,-22.7538"/>
</g>
<!-- Node19 -->
<g id="node20" class="node">
<title>Node19</title>
<polygon fill="#ffffff" stroke="#bfbfbf" points="1233.5,-.5 1233.5,-19.5 1328.5,-19.5 1328.5,-.5 1233.5,-.5"/>
<text text-anchor="middle" x="1281" y="-7.5" font-family="Helvetica,sans-Serif" font-size="10.00" fill="#000000">AMReX_Vector.H</text>
</g>
<!-- Node18&#45;&gt;Node19 -->
<g id="edge29" class="edge">
<title>Node18&#45;&gt;Node19</title>
<path fill="none" stroke="#191970" d="M1124.4903,-56.3733C1156.1902,-46.9807 1204.5576,-32.6496 1239.1286,-22.4064"/>
<polygon fill="#191970" stroke="#191970" points="1240.3401,-25.6979 1248.9337,-19.5011 1238.3514,-18.9863 1240.3401,-25.6979"/>
</g>
<!-- Node20&#45;&gt;Node9 -->
<g id="edge31" class="edge">
<title>Node20&#45;&gt;Node9</title>
<path fill="none" stroke="#191970" d="M1038.0868,-112.4509C1016.1711,-93.2747 966.5957,-49.8962 939.5129,-26.1988"/>
<polygon fill="#191970" stroke="#191970" points="941.7162,-23.4759 931.8856,-19.5249 937.1066,-28.744 941.7162,-23.4759"/>
</g>
<!-- Node20&#45;&gt;Node10 -->
<g id="edge32" class="edge">
<title>Node20&#45;&gt;Node10</title>
<path fill="none" stroke="#191970" d="M1038.2236,-112.2924C1025.4426,-99.5383 1006.9423,-76.3676 1016,-56 1021.4508,-43.7432 1031.9599,-33.3755 1042.0289,-25.6036"/>
<polygon fill="#191970" stroke="#191970" points="1044.1744,-28.3721 1050.2627,-19.7012 1040.096,-22.6828 1044.1744,-28.3721"/>
</g>
<!-- Node20&#45;&gt;Node21 -->
<g id="edge33" class="edge">
<title>Node20&#45;&gt;Node21</title>
<path fill="none" stroke="#191970" d="M1086.8193,-112.3733C1124.1938,-102.8598 1181.4724,-88.2797 1221.8071,-78.0127"/>
<polygon fill="#191970" stroke="#191970" points="1222.8466,-81.3598 1231.6742,-75.5011 1221.1198,-74.5761 1222.8466,-81.3598"/>
</g>
<!-- Node22&#45;&gt;Node9 -->
<g id="edge35" class="edge">
<title>Node22&#45;&gt;Node9</title>
<path fill="none" stroke="#191970" d="M1367.5193,-112.4122C1363.1179,-97.5331 1352.4215,-69.2221 1332,-56 1265.2541,-12.7848 1054.7331,-31.1207 976,-20 968.0487,-18.8769 959.4916,-17.4352 951.5511,-15.998"/>
<polygon fill="#191970" stroke="#191970" points="952.0423,-12.5294 941.5704,-14.1387 950.7602,-19.411 952.0423,-12.5294"/>
</g>
<!-- Node22&#45;&gt;Node10 -->
<g id="edge36" class="edge">
<title>Node22&#45;&gt;Node10</title>
<path fill="none" stroke="#191970" d="M1372.5487,-112.4918C1375.7389,-98.233 1379.2041,-71.3505 1365,-56 1350.9853,-40.8542 1241.1885,-26.9154 1158.9129,-18.4422"/>
<polygon fill="#191970" stroke="#191970" points="1159.0733,-14.9406 1148.7705,-17.4109 1158.3651,-21.9047 1159.0733,-14.9406"/>
</g>
<!-- Node22&#45;&gt;Node12 -->
<g id="edge38" class="edge">
<title>Node22&#45;&gt;Node12</title>
<path fill="none" stroke="#191970" d="M1381.5412,-112.3856C1391.9037,-103.4789 1407.2487,-89.5938 1419,-76 1432.0615,-60.8905 1444.8841,-42.0673 1453.6592,-28.394"/>
<polygon fill="#191970" stroke="#191970" points="1456.6675,-30.1851 1459.0407,-19.8595 1450.7463,-26.4514 1456.6675,-30.1851"/>
</g>
<!-- Node22&#45;&gt;Node18 -->
<g id="edge37" class="edge">
<title>Node22&#45;&gt;Node18</title>
<path fill="none" stroke="#191970" d="M1322.526,-112.4369C1274.5486,-102.7724 1200.383,-87.8326 1149.1949,-77.5213"/>
<polygon fill="#191970" stroke="#191970" points="1149.7725,-74.0674 1139.2782,-75.5237 1148.3901,-80.9296 1149.7725,-74.0674"/>
</g>
<!-- Node22&#45;&gt;Node19 -->
<g id="edge39" class="edge">
<title>Node22&#45;&gt;Node19</title>
<path fill="none" stroke="#191970" d="M1381.4114,-112.125C1395.4186,-98.785 1415.826,-74.5435 1403,-56 1394.1787,-43.2464 1359.8539,-30.968 1329.8515,-22.3093"/>
<polygon fill="#191970" stroke="#191970" points="1330.4591,-18.8448 1319.8855,-19.5162 1328.57,-25.5851 1330.4591,-18.8448"/>
</g>
<!-- Node23 -->
<g id="node24" class="node">
<title>Node23</title>
<polygon fill="#ffffff" stroke="#bfbfbf" points="1493,-56.5 1493,-75.5 1621,-75.5 1621,-56.5 1493,-56.5"/>
<text text-anchor="middle" x="1557" y="-63.5" font-family="Helvetica,sans-Serif" font-size="10.00" fill="#000000">AMReX_PhysBCFunct.H</text>
</g>
<!-- Node22&#45;&gt;Node23 -->
<g id="edge40" class="edge">
<title>Node22&#45;&gt;Node23</title>
<path fill="none" stroke="#191970" d="M1402.1464,-112.3733C1433.5109,-102.9807 1481.3665,-88.6496 1515.5716,-78.4064"/>
<polygon fill="#191970" stroke="#191970" points="1516.6975,-81.7229 1525.273,-75.5011 1514.6893,-75.0171 1516.6975,-81.7229"/>
</g>
</g>
</svg>
