<?xml version="1.0" encoding="UTF-8" standalone="no"?>
<!DOCTYPE svg PUBLIC "-//W3C//DTD SVG 1.1//EN"
 "http://www.w3.org/Graphics/SVG/1.1/DTD/svg11.dtd">
<!-- Generated by graphviz version 2.40.1 (20161225.0304)
 -->
<!-- Title: ConvectingTaylorVortex.H Pages: 1 -->
<svg width="2323pt" height="330pt"
 viewBox="0.00 0.00 2323.00 330.00" xmlns="http://www.w3.org/2000/svg" xmlns:xlink="http://www.w3.org/1999/xlink">
<g id="graph0" class="graph" transform="scale(1 1) rotate(0) translate(4 326)">
<title>ConvectingTaylorVortex.H</title>
<polygon fill="#ffffff" stroke="transparent" points="-4,4 -4,-326 2319,-326 2319,4 -4,4"/>
<!-- Node0 -->
<g id="node1" class="node">
<title>Node0</title>
<polygon fill="#bfbfbf" stroke="#000000" points="951,-302.5 951,-321.5 1083,-321.5 1083,-302.5 951,-302.5"/>
<text text-anchor="middle" x="1017" y="-309.5" font-family="Helvetica,sans-Serif" font-size="10.00" fill="#000000">ConvectingTaylorVortex.H</text>
</g>
<!-- Node1 -->
<g id="node2" class="node">
<title>Node1</title>
<g id="a_node2"><a xlink:href="_physics_8_h.html" target="_top" xlink:title="amr&#45;wind/core/Physics.H">
<polygon fill="#ffffff" stroke="#000000" points="354.5,-185 354.5,-204 481.5,-204 481.5,-185 354.5,-185"/>
<text text-anchor="middle" x="418" y="-192" font-family="Helvetica,sans-Serif" font-size="10.00" fill="#000000">amr&#45;wind/core/Physics.H</text>
</a>
</g>
</g>
<!-- Node0&#45;&gt;Node1 -->
<g id="edge1" class="edge">
<title>Node0&#45;&gt;Node1</title>
<path fill="none" stroke="#191970" d="M968.4887,-302.484C859.2893,-281.0634 594.5264,-229.1275 476.4852,-205.9725"/>
<polygon fill="#191970" stroke="#191970" points="477.0322,-202.5131 466.5454,-204.0227 475.6847,-209.3822 477.0322,-202.5131"/>
</g>
<!-- Node13 -->
<g id="node14" class="node">
<title>Node13</title>
<g id="a_node14"><a xlink:href="_field_8_h.html" target="_top" xlink:title="amr&#45;wind/core/Field.H">
<polygon fill="#ffffff" stroke="#000000" points="1264.5,-118 1264.5,-137 1377.5,-137 1377.5,-118 1264.5,-118"/>
<text text-anchor="middle" x="1321" y="-125" font-family="Helvetica,sans-Serif" font-size="10.00" fill="#000000">amr&#45;wind/core/Field.H</text>
</a>
</g>
</g>
<!-- Node0&#45;&gt;Node13 -->
<g id="edge15" class="edge">
<title>Node0&#45;&gt;Node13</title>
<path fill="none" stroke="#191970" d="M1032.9163,-302.3402C1082.7811,-272.0769 1236.225,-178.9506 1296.4124,-142.4224"/>
<polygon fill="#191970" stroke="#191970" points="1298.5084,-145.2446 1305.2412,-137.0641 1294.8765,-139.2604 1298.5084,-145.2446"/>
</g>
<!-- Node19 -->
<g id="node20" class="node">
<title>Node19</title>
<g id="a_node20"><a xlink:href="_c_f_d_sim_8_h.html" target="_top" xlink:title="amr&#45;wind/CFDSim.H">
<polygon fill="#ffffff" stroke="#000000" points="963,-246.5 963,-265.5 1071,-265.5 1071,-246.5 963,-246.5"/>
<text text-anchor="middle" x="1017" y="-253.5" font-family="Helvetica,sans-Serif" font-size="10.00" fill="#000000">amr&#45;wind/CFDSim.H</text>
</a>
</g>
</g>
<!-- Node0&#45;&gt;Node19 -->
<g id="edge29" class="edge">
<title>Node0&#45;&gt;Node19</title>
<path fill="none" stroke="#191970" d="M1017,-302.2455C1017,-294.9382 1017,-284.6944 1017,-275.7046"/>
<polygon fill="#191970" stroke="#191970" points="1020.5001,-275.6426 1017,-265.6427 1013.5001,-275.6427 1020.5001,-275.6426"/>
</g>
<!-- Node2 -->
<g id="node3" class="node">
<title>Node2</title>
<g id="a_node3"><a xlink:href="_factory_8_h.html" target="_top" xlink:title="amr&#45;wind/core/Factory.H">
<polygon fill="#ffffff" stroke="#000000" points="283.5,-118 283.5,-137 408.5,-137 408.5,-118 283.5,-118"/>
<text text-anchor="middle" x="346" y="-125" font-family="Helvetica,sans-Serif" font-size="10.00" fill="#000000">amr&#45;wind/core/Factory.H</text>
</a>
</g>
</g>
<!-- Node1&#45;&gt;Node2 -->
<g id="edge2" class="edge">
<title>Node1&#45;&gt;Node2</title>
<path fill="none" stroke="#191970" d="M407.6842,-184.9005C396.2425,-174.2535 377.5785,-156.8856 363.7727,-144.0385"/>
<polygon fill="#191970" stroke="#191970" points="366.0017,-141.3317 356.2967,-137.0817 361.2331,-146.4562 366.0017,-141.3317"/>
</g>
<!-- Node8 -->
<g id="node9" class="node">
<title>Node8</title>
<g id="a_node9"><a xlink:href="_coll_mgr_8_h.html" target="_top" xlink:title="amr&#45;wind/core/CollMgr.H">
<polygon fill="#ffffff" stroke="#000000" points="426.5,-118 426.5,-137 551.5,-137 551.5,-118 426.5,-118"/>
<text text-anchor="middle" x="489" y="-125" font-family="Helvetica,sans-Serif" font-size="10.00" fill="#000000">amr&#45;wind/core/CollMgr.H</text>
</a>
</g>
</g>
<!-- Node1&#45;&gt;Node8 -->
<g id="edge8" class="edge">
<title>Node1&#45;&gt;Node8</title>
<path fill="none" stroke="#191970" d="M428.1726,-184.9005C439.4553,-174.2535 457.8601,-156.8856 471.4742,-144.0385"/>
<polygon fill="#191970" stroke="#191970" points="473.9754,-146.4905 478.8463,-137.0817 469.1712,-141.3994 473.9754,-146.4905"/>
</g>
<!-- Node11 -->
<g id="node12" class="node">
<title>Node11</title>
<polygon fill="#ffffff" stroke="#bfbfbf" points="1703,-.5 1703,-19.5 1807,-19.5 1807,-.5 1703,-.5"/>
<text text-anchor="middle" x="1755" y="-7.5" font-family="Helvetica,sans-Serif" font-size="10.00" fill="#000000">AMReX_MultiFab.H</text>
</g>
<!-- Node1&#45;&gt;Node11 -->
<g id="edge13" class="edge">
<title>Node1&#45;&gt;Node11</title>
<path fill="none" stroke="#191970" d="M358.277,-184.9813C261.9685,-167.3526 89.6296,-125.0045 157,-56 186.1548,-26.138 1617.3509,-22.6641 1659,-20 1669.8828,-19.3039 1681.4364,-18.3155 1692.6164,-17.2283"/>
<polygon fill="#191970" stroke="#191970" points="1693.15,-20.6924 1702.7488,-16.2077 1692.4484,-13.7276 1693.15,-20.6924"/>
</g>
<!-- Node12 -->
<g id="node13" class="node">
<title>Node12</title>
<polygon fill="#ffffff" stroke="#bfbfbf" points="0,-118 0,-137 110,-137 110,-118 0,-118"/>
<text text-anchor="middle" x="55" y="-125" font-family="Helvetica,sans-Serif" font-size="10.00" fill="#000000">AMReX_Geometry.H</text>
</g>
<!-- Node1&#45;&gt;Node12 -->
<g id="edge14" class="edge">
<title>Node1&#45;&gt;Node12</title>
<path fill="none" stroke="#191970" d="M358.718,-184.9661C299.2307,-175.1993 205.0494,-159.1926 124,-143 118.1381,-141.8289 112.0102,-140.5426 105.9294,-139.2273"/>
<polygon fill="#191970" stroke="#191970" points="106.3137,-135.7283 95.7957,-137.0015 104.812,-142.5654 106.3137,-135.7283"/>
</g>
<!-- Node3 -->
<g id="node4" class="node">
<title>Node3</title>
<polygon fill="#ffffff" stroke="#bfbfbf" points="500,-56.5 500,-75.5 552,-75.5 552,-56.5 500,-56.5"/>
<text text-anchor="middle" x="526" y="-63.5" font-family="Helvetica,sans-Serif" font-size="10.00" fill="#000000">memory</text>
</g>
<!-- Node2&#45;&gt;Node3 -->
<g id="edge3" class="edge">
<title>Node2&#45;&gt;Node3</title>
<path fill="none" stroke="#191970" d="M374.125,-117.8906C405.4427,-107.1904 456.1343,-89.8708 490.2445,-78.2165"/>
<polygon fill="#191970" stroke="#191970" points="491.4952,-81.4879 499.8265,-74.9426 489.2319,-74.8638 491.4952,-81.4879"/>
</g>
<!-- Node4 -->
<g id="node5" class="node">
<title>Node4</title>
<polygon fill="#ffffff" stroke="#bfbfbf" points="608.5,-56.5 608.5,-75.5 691.5,-75.5 691.5,-56.5 608.5,-56.5"/>
<text text-anchor="middle" x="650" y="-63.5" font-family="Helvetica,sans-Serif" font-size="10.00" fill="#000000">unordered_map</text>
</g>
<!-- Node2&#45;&gt;Node4 -->
<g id="edge4" class="edge">
<title>Node2&#45;&gt;Node4</title>
<path fill="none" stroke="#191970" d="M389.1489,-117.9355C398.3345,-115.94 407.9825,-113.8742 417,-112 479.2442,-99.0628 551.032,-85.0228 598.2879,-75.9015"/>
<polygon fill="#191970" stroke="#191970" points="599.1237,-79.3049 608.2805,-73.9754 597.7988,-72.4314 599.1237,-79.3049"/>
</g>
<!-- Node5 -->
<g id="node6" class="node">
<title>Node5</title>
<polygon fill="#ffffff" stroke="#bfbfbf" points="246,-56.5 246,-75.5 300,-75.5 300,-56.5 246,-56.5"/>
<text text-anchor="middle" x="273" y="-63.5" font-family="Helvetica,sans-Serif" font-size="10.00" fill="#000000">iostream</text>
</g>
<!-- Node2&#45;&gt;Node5 -->
<g id="edge5" class="edge">
<title>Node2&#45;&gt;Node5</title>
<path fill="none" stroke="#191970" d="M334.5938,-117.8906C323.3031,-108.3786 305.8033,-93.6357 292.3381,-82.2917"/>
<polygon fill="#191970" stroke="#191970" points="294.4699,-79.5111 284.5671,-75.7449 289.9598,-84.8646 294.4699,-79.5111"/>
</g>
<!-- Node6 -->
<g id="node7" class="node">
<title>Node6</title>
<polygon fill="#ffffff" stroke="#bfbfbf" points="318.5,-56.5 318.5,-75.5 405.5,-75.5 405.5,-56.5 318.5,-56.5"/>
<text text-anchor="middle" x="362" y="-63.5" font-family="Helvetica,sans-Serif" font-size="10.00" fill="#000000">AMReX_Print.H</text>
</g>
<!-- Node2&#45;&gt;Node6 -->
<g id="edge6" class="edge">
<title>Node2&#45;&gt;Node6</title>
<path fill="none" stroke="#191970" d="M348.5,-117.8906C350.7412,-109.276 354.0986,-96.3708 356.9045,-85.5858"/>
<polygon fill="#191970" stroke="#191970" points="360.3341,-86.304 359.4648,-75.7449 353.5596,-84.5414 360.3341,-86.304"/>
</g>
<!-- Node7 -->
<g id="node8" class="node">
<title>Node7</title>
<polygon fill="#ffffff" stroke="#bfbfbf" points="166,-56.5 166,-75.5 228,-75.5 228,-56.5 166,-56.5"/>
<text text-anchor="middle" x="197" y="-63.5" font-family="Helvetica,sans-Serif" font-size="10.00" fill="#000000">AMReX.H</text>
</g>
<!-- Node2&#45;&gt;Node7 -->
<g id="edge7" class="edge">
<title>Node2&#45;&gt;Node7</title>
<path fill="none" stroke="#191970" d="M322.7188,-117.8906C297.679,-107.5554 257.6775,-91.0447 229.534,-79.4284"/>
<polygon fill="#191970" stroke="#191970" points="230.6967,-76.122 220.1178,-75.5419 228.026,-82.5925 230.6967,-76.122"/>
</g>
<!-- Node8&#45;&gt;Node3 -->
<g id="edge10" class="edge">
<title>Node8&#45;&gt;Node3</title>
<path fill="none" stroke="#191970" d="M494.7813,-117.8906C500.126,-109.0068 508.2159,-95.5601 514.8211,-84.5811"/>
<polygon fill="#191970" stroke="#191970" points="517.9811,-86.118 520.1372,-75.7449 511.9829,-82.5093 517.9811,-86.118"/>
</g>
<!-- Node8&#45;&gt;Node4 -->
<g id="edge11" class="edge">
<title>Node8&#45;&gt;Node4</title>
<path fill="none" stroke="#191970" d="M514.1563,-117.8906C541.449,-107.4652 585.192,-90.7559 615.6397,-79.1252"/>
<polygon fill="#191970" stroke="#191970" points="616.9277,-82.3799 625.0204,-75.5419 614.4298,-75.8408 616.9277,-82.3799"/>
</g>
<!-- Node9 -->
<g id="node10" class="node">
<title>Node9</title>
<polygon fill="#ffffff" stroke="#bfbfbf" points="1205.5,-.5 1205.5,-19.5 1246.5,-19.5 1246.5,-.5 1205.5,-.5"/>
<text text-anchor="middle" x="1226" y="-7.5" font-family="Helvetica,sans-Serif" font-size="10.00" fill="#000000">string</text>
</g>
<!-- Node8&#45;&gt;Node9 -->
<g id="edge9" class="edge">
<title>Node8&#45;&gt;Node9</title>
<path fill="none" stroke="#191970" d="M478.7342,-117.7705C464.1594,-102.8155 441.0239,-74.0233 458,-56 483.7173,-28.6962 1055.7033,-13.8895 1195.4208,-10.6723"/>
<polygon fill="#191970" stroke="#191970" points="1195.5253,-14.1709 1205.4432,-10.4444 1195.3662,-7.1727 1195.5253,-14.1709"/>
</g>
<!-- Node10 -->
<g id="node11" class="node">
<title>Node10</title>
<polygon fill="#ffffff" stroke="#bfbfbf" points="1292.5,-.5 1292.5,-19.5 1387.5,-19.5 1387.5,-.5 1292.5,-.5"/>
<text text-anchor="middle" x="1340" y="-7.5" font-family="Helvetica,sans-Serif" font-size="10.00" fill="#000000">AMReX_Vector.H</text>
</g>
<!-- Node8&#45;&gt;Node10 -->
<g id="edge12" class="edge">
<title>Node8&#45;&gt;Node10</title>
<path fill="none" stroke="#191970" d="M485.5884,-117.5847C480.9659,-102.1117 474.9984,-72.3106 491,-56 520.7574,-25.6681 1212.6516,-23.4845 1255,-20 1263.8227,-19.274 1273.1426,-18.3444 1282.2505,-17.3451"/>
<polygon fill="#191970" stroke="#191970" points="1282.8632,-20.7982 1292.4056,-16.1945 1282.0751,-13.8427 1282.8632,-20.7982"/>
</g>
<!-- Node13&#45;&gt;Node3 -->
<g id="edge17" class="edge">
<title>Node13&#45;&gt;Node3</title>
<path fill="none" stroke="#191970" d="M1264.4422,-118.1286C1249.0848,-115.8416 1232.4344,-113.5964 1217,-112 943.3278,-83.6928 872.8346,-102.6906 599,-76 587.1079,-74.8409 574.1754,-73.1963 562.5451,-71.5749"/>
<polygon fill="#191970" stroke="#191970" points="562.6926,-68.0604 552.2973,-70.1069 561.7,-74.9896 562.6926,-68.0604"/>
</g>
<!-- Node13&#45;&gt;Node4 -->
<g id="edge18" class="edge">
<title>Node13&#45;&gt;Node4</title>
<path fill="none" stroke="#191970" d="M1282.4984,-117.9969C1272.0138,-115.7101 1260.619,-113.4981 1250,-112 1010.7507,-78.2481 944.6555,-107.2742 701.8719,-76.0941"/>
<polygon fill="#191970" stroke="#191970" points="702.0422,-72.5867 691.6732,-74.7625 701.1358,-79.5278 702.0422,-72.5867"/>
</g>
<!-- Node13&#45;&gt;Node9 -->
<g id="edge16" class="edge">
<title>Node13&#45;&gt;Node9</title>
<path fill="none" stroke="#191970" d="M1279.8118,-117.9283C1270.0669,-115.8248 1259.6903,-113.7157 1250,-112 1191.6971,-101.6776 1024.9365,-120.6064 986,-76 980.1546,-69.3034 980.337,-62.8515 986,-56 1012.2081,-24.2916 1136.4362,-14.2261 1195.1367,-11.2092"/>
<polygon fill="#191970" stroke="#191970" points="1195.4747,-14.6971 1205.2964,-10.7242 1195.1409,-7.7051 1195.4747,-14.6971"/>
</g>
<!-- Node13&#45;&gt;Node11 -->
<g id="edge19" class="edge">
<title>Node13&#45;&gt;Node11</title>
<path fill="none" stroke="#191970" d="M1364.0163,-117.9634C1407.5515,-108.1319 1476.7146,-92.0196 1536,-76 1599.3053,-58.8942 1672.0664,-36.3939 1715.7422,-22.5766"/>
<polygon fill="#191970" stroke="#191970" points="1716.9274,-25.8726 1725.4009,-19.5124 1714.8106,-19.2003 1716.9274,-25.8726"/>
</g>
<!-- Node14 -->
<g id="node15" class="node">
<title>Node14</title>
<polygon fill="#ffffff" stroke="#bfbfbf" points="995.5,-56.5 995.5,-75.5 1094.5,-75.5 1094.5,-56.5 995.5,-56.5"/>
<text text-anchor="middle" x="1045" y="-63.5" font-family="Helvetica,sans-Serif" font-size="10.00" fill="#000000">AMReX_BCRec.H</text>
</g>
<!-- Node13&#45;&gt;Node14 -->
<g id="edge20" class="edge">
<title>Node13&#45;&gt;Node14</title>
<path fill="none" stroke="#191970" d="M1278.1778,-117.9581C1229.53,-107.1181 1150.115,-89.4224 1097.7042,-77.7439"/>
<polygon fill="#191970" stroke="#191970" points="1098.4445,-74.3231 1087.9226,-75.5643 1096.922,-81.1555 1098.4445,-74.3231"/>
</g>
<!-- Node15 -->
<g id="node16" class="node">
<title>Node15</title>
<polygon fill="#ffffff" stroke="#bfbfbf" points="1112.5,-56.5 1112.5,-75.5 1197.5,-75.5 1197.5,-56.5 1112.5,-56.5"/>
<text text-anchor="middle" x="1155" y="-63.5" font-family="Helvetica,sans-Serif" font-size="10.00" fill="#000000">AMReX_Gpu.H</text>
</g>
<!-- Node13&#45;&gt;Node15 -->
<g id="edge21" class="edge">
<title>Node13&#45;&gt;Node15</title>
<path fill="none" stroke="#191970" d="M1295.0625,-117.8906C1266.9222,-107.4652 1221.8207,-90.7559 1190.4274,-79.1252"/>
<polygon fill="#191970" stroke="#191970" points="1191.3485,-75.734 1180.7554,-75.5419 1188.9166,-82.298 1191.3485,-75.734"/>
</g>
<!-- Node16 -->
<g id="node17" class="node">
<title>Node16</title>
<g id="a_node17"><a xlink:href="incflo__enums_8_h.html" target="_top" xlink:title="amr&#45;wind/incflo_enums.H">
<polygon fill="#ffffff" stroke="#000000" points="811,-56.5 811,-75.5 939,-75.5 939,-56.5 811,-56.5"/>
<text text-anchor="middle" x="875" y="-63.5" font-family="Helvetica,sans-Serif" font-size="10.00" fill="#000000">amr&#45;wind/incflo_enums.H</text>
</a>
</g>
</g>
<!-- Node13&#45;&gt;Node16 -->
<g id="edge22" class="edge">
<title>Node13&#45;&gt;Node16</title>
<path fill="none" stroke="#191970" d="M1280.5784,-117.985C1270.6171,-115.8313 1259.9516,-113.6855 1250,-112 1118.901,-89.7954 1084.9441,-92.4544 953,-76 951.7426,-75.8432 950.4739,-75.6846 949.1963,-75.5246"/>
<polygon fill="#191970" stroke="#191970" points="949.6275,-72.0513 939.2687,-74.2752 948.7533,-78.9966 949.6275,-72.0513"/>
</g>
<!-- Node17 -->
<g id="node18" class="node">
<title>Node17</title>
<g id="a_node18"><a xlink:href="_field_desc_types_8_h.html" target="_top" xlink:title="amr&#45;wind/core/FieldDescTypes.H">
<polygon fill="#ffffff" stroke="#000000" points="1486.5,-.5 1486.5,-19.5 1649.5,-19.5 1649.5,-.5 1486.5,-.5"/>
<text text-anchor="middle" x="1568" y="-7.5" font-family="Helvetica,sans-Serif" font-size="10.00" fill="#000000">amr&#45;wind/core/FieldDescTypes.H</text>
</a>
</g>
</g>
<!-- Node13&#45;&gt;Node17 -->
<g id="edge23" class="edge">
<title>Node13&#45;&gt;Node17</title>
<path fill="none" stroke="#191970" d="M1377.7339,-121.0547C1417.4743,-114.4926 1470.5013,-101.4791 1511,-76 1530.3144,-63.8487 1546.6437,-43.1284 1556.808,-28.141"/>
<polygon fill="#191970" stroke="#191970" points="1559.794,-29.9693 1562.3116,-19.6779 1553.9257,-26.1531 1559.794,-29.9693"/>
</g>
<!-- Node18 -->
<g id="node19" class="node">
<title>Node18</title>
<g id="a_node19"><a xlink:href="_view_field_8_h.html" target="_top" xlink:title="amr&#45;wind/core/ViewField.H">
<polygon fill="#ffffff" stroke="#000000" points="1368,-56.5 1368,-75.5 1502,-75.5 1502,-56.5 1368,-56.5"/>
<text text-anchor="middle" x="1435" y="-63.5" font-family="Helvetica,sans-Serif" font-size="10.00" fill="#000000">amr&#45;wind/core/ViewField.H</text>
</a>
</g>
</g>
<!-- Node13&#45;&gt;Node18 -->
<g id="edge24" class="edge">
<title>Node13&#45;&gt;Node18</title>
<path fill="none" stroke="#191970" d="M1338.8125,-117.8906C1357.4685,-107.8262 1386.9797,-91.9057 1408.3974,-80.3514"/>
<polygon fill="#191970" stroke="#191970" points="1410.1734,-83.3702 1417.3126,-75.5419 1406.8498,-77.2095 1410.1734,-83.3702"/>
</g>
<!-- Node18&#45;&gt;Node9 -->
<g id="edge25" class="edge">
<title>Node18&#45;&gt;Node9</title>
<path fill="none" stroke="#191970" d="M1399.0716,-56.3733C1358.8527,-45.5969 1294.3717,-28.3197 1256.5068,-18.1741"/>
<polygon fill="#191970" stroke="#191970" points="1257.1402,-14.7204 1246.575,-15.5129 1255.3284,-21.4819 1257.1402,-14.7204"/>
</g>
<!-- Node18&#45;&gt;Node10 -->
<g id="edge28" class="edge">
<title>Node18&#45;&gt;Node10</title>
<path fill="none" stroke="#191970" d="M1418.4523,-56.2455C1403.7401,-47.5731 1382.0112,-34.7645 1365.1495,-24.825"/>
<polygon fill="#191970" stroke="#191970" points="1366.7502,-21.7057 1356.3581,-19.6427 1363.1954,-27.736 1366.7502,-21.7057"/>
</g>
<!-- Node18&#45;&gt;Node11 -->
<g id="edge27" class="edge">
<title>Node18&#45;&gt;Node11</title>
<path fill="none" stroke="#191970" d="M1489.6464,-56.4369C1546.0917,-46.559 1634.0278,-31.1701 1693.0284,-20.845"/>
<polygon fill="#191970" stroke="#191970" points="1693.719,-24.2775 1702.9659,-19.106 1692.5123,-17.3822 1693.719,-24.2775"/>
</g>
<!-- Node18&#45;&gt;Node17 -->
<g id="edge26" class="edge">
<title>Node18&#45;&gt;Node17</title>
<path fill="none" stroke="#191970" d="M1457.8635,-56.3733C1479.405,-47.3032 1511.8838,-33.6279 1535.9956,-23.4755"/>
<polygon fill="#191970" stroke="#191970" points="1537.5767,-26.6075 1545.4348,-19.5011 1534.8603,-20.156 1537.5767,-26.6075"/>
</g>
<!-- Node19&#45;&gt;Node1 -->
<g id="edge66" class="edge">
<title>Node19&#45;&gt;Node1</title>
<path fill="none" stroke="#191970" d="M962.7863,-250.4338C855.0831,-239.3758 614.0535,-214.629 491.9364,-202.0911"/>
<polygon fill="#191970" stroke="#191970" points="492.2302,-198.603 481.9249,-201.0632 491.5152,-205.5664 492.2302,-198.603"/>
</g>
<!-- Node20 -->
<g id="node21" class="node">
<title>Node20</title>
<polygon fill="#ffffff" stroke="#bfbfbf" points="2209,-118 2209,-137 2315,-137 2315,-118 2209,-118"/>
<text text-anchor="middle" x="2262" y="-125" font-family="Helvetica,sans-Serif" font-size="10.00" fill="#000000">AMReX_AmrCore.H</text>
</g>
<!-- Node19&#45;&gt;Node20 -->
<g id="edge30" class="edge">
<title>Node19&#45;&gt;Node20</title>
<path fill="none" stroke="#191970" d="M1071.0696,-254.1929C1234.0947,-248.5723 1719.2199,-230.5386 1876,-210 2000.6666,-193.6683 2144.91,-158.3692 2216.6316,-139.6797"/>
<polygon fill="#191970" stroke="#191970" points="2217.8904,-142.9681 2226.6763,-137.047 2216.1156,-136.1968 2217.8904,-142.9681"/>
</g>
<!-- Node21 -->
<g id="node22" class="node">
<title>Node21</title>
<g id="a_node22"><a xlink:href="_sim_time_8_h.html" target="_top" xlink:title="amr&#45;wind/core/SimTime.H">
<polygon fill="#ffffff" stroke="#000000" points="951.5,-185 951.5,-204 1082.5,-204 1082.5,-185 951.5,-185"/>
<text text-anchor="middle" x="1017" y="-192" font-family="Helvetica,sans-Serif" font-size="10.00" fill="#000000">amr&#45;wind/core/SimTime.H</text>
</a>
</g>
</g>
<!-- Node19&#45;&gt;Node21 -->
<g id="edge31" class="edge">
<title>Node19&#45;&gt;Node21</title>
<path fill="none" stroke="#191970" d="M1017,-246.3906C1017,-237.8657 1017,-225.1392 1017,-214.4235"/>
<polygon fill="#191970" stroke="#191970" points="1020.5001,-214.2448 1017,-204.2449 1013.5001,-214.2449 1020.5001,-214.2448"/>
</g>
<!-- Node25 -->
<g id="node26" class="node">
<title>Node25</title>
<g id="a_node26"><a xlink:href="_field_repo_8_h.html" target="_top" xlink:title="amr&#45;wind/core/FieldRepo.H">
<polygon fill="#ffffff" stroke="#000000" points="1731,-185 1731,-204 1867,-204 1867,-185 1731,-185"/>
<text text-anchor="middle" x="1799" y="-192" font-family="Helvetica,sans-Serif" font-size="10.00" fill="#000000">amr&#45;wind/core/FieldRepo.H</text>
</a>
</g>
</g>
<!-- Node19&#45;&gt;Node25 -->
<g id="edge35" class="edge">
<title>Node19&#45;&gt;Node25</title>
<path fill="none" stroke="#191970" d="M1071.0586,-251.7486C1206.7138,-241.08 1561.9871,-213.1398 1720.5834,-200.667"/>
<polygon fill="#191970" stroke="#191970" points="1721.0462,-204.1415 1730.741,-199.8682 1720.4973,-197.1631 1721.0462,-204.1415"/>
</g>
<!-- Node32 -->
<g id="node33" class="node">
<title>Node32</title>
<g id="a_node33"><a xlink:href="_p_d_e_base_8_h.html" target="_top" xlink:title="amr&#45;wind/equation_systems\l/PDEBase.H">
<polygon fill="#ffffff" stroke="#000000" points="608.5,-179.5 608.5,-209.5 747.5,-209.5 747.5,-179.5 608.5,-179.5"/>
<text text-anchor="start" x="616.5" y="-197.5" font-family="Helvetica,sans-Serif" font-size="10.00" fill="#000000">amr&#45;wind/equation_systems</text>
<text text-anchor="middle" x="678" y="-186.5" font-family="Helvetica,sans-Serif" font-size="10.00" fill="#000000">/PDEBase.H</text>
</a>
</g>
</g>
<!-- Node19&#45;&gt;Node32 -->
<g id="edge58" class="edge">
<title>Node19&#45;&gt;Node32</title>
<path fill="none" stroke="#191970" d="M964.4032,-246.4581C909.1492,-236.4342 821.5808,-220.5478 757.8067,-208.9782"/>
<polygon fill="#191970" stroke="#191970" points="758.2484,-205.5013 747.7843,-207.16 756.9989,-212.3889 758.2484,-205.5013"/>
</g>
<!-- Node22 -->
<g id="node23" class="node">
<title>Node22</title>
<polygon fill="#ffffff" stroke="#bfbfbf" points="842.5,-118 842.5,-137 935.5,-137 935.5,-118 842.5,-118"/>
<text text-anchor="middle" x="889" y="-125" font-family="Helvetica,sans-Serif" font-size="10.00" fill="#000000">AMReX_REAL.H</text>
</g>
<!-- Node21&#45;&gt;Node22 -->
<g id="edge32" class="edge">
<title>Node21&#45;&gt;Node22</title>
<path fill="none" stroke="#191970" d="M998.6607,-184.9005C977.0844,-173.6067 941.0609,-154.7506 916.2234,-141.7497"/>
<polygon fill="#191970" stroke="#191970" points="917.7881,-138.6183 907.3053,-137.0817 914.5418,-144.8201 917.7881,-138.6183"/>
</g>
<!-- Node23 -->
<g id="node24" class="node">
<title>Node23</title>
<polygon fill="#ffffff" stroke="#bfbfbf" points="954,-118 954,-137 1080,-137 1080,-118 954,-118"/>
<text text-anchor="middle" x="1017" y="-125" font-family="Helvetica,sans-Serif" font-size="10.00" fill="#000000">AMReX_GpuQualifiers.H</text>
</g>
<!-- Node21&#45;&gt;Node23 -->
<g id="edge33" class="edge">
<title>Node21&#45;&gt;Node23</title>
<path fill="none" stroke="#191970" d="M1017,-184.9005C1017,-175.149 1017,-159.7597 1017,-147.3695"/>
<polygon fill="#191970" stroke="#191970" points="1020.5001,-147.0816 1017,-137.0817 1013.5001,-147.0817 1020.5001,-147.0816"/>
</g>
<!-- Node24 -->
<g id="node25" class="node">
<title>Node24</title>
<polygon fill="#ffffff" stroke="#bfbfbf" points="1098,-118 1098,-137 1208,-137 1208,-118 1098,-118"/>
<text text-anchor="middle" x="1153" y="-125" font-family="Helvetica,sans-Serif" font-size="10.00" fill="#000000">AMReX_Extension.H</text>
</g>
<!-- Node21&#45;&gt;Node24 -->
<g id="edge34" class="edge">
<title>Node21&#45;&gt;Node24</title>
<path fill="none" stroke="#191970" d="M1036.4855,-184.9005C1059.5113,-173.5569 1098.0228,-154.5844 1124.4232,-141.5783"/>
<polygon fill="#191970" stroke="#191970" points="1126.1269,-144.6407 1133.5507,-137.0817 1123.0334,-138.3613 1126.1269,-144.6407"/>
</g>
<!-- Node25&#45;&gt;Node4 -->
<g id="edge37" class="edge">
<title>Node25&#45;&gt;Node4</title>
<path fill="none" stroke="#191970" d="M1730.7848,-192.9634C1604.5036,-189.314 1339.4756,-177.6591 1255,-143 1234.8353,-134.7267 1237.266,-120.0219 1217,-112 1112.7403,-70.7307 829.6092,-90.224 701.7172,-75.9825"/>
<polygon fill="#191970" stroke="#191970" points="702.027,-72.4943 691.6749,-74.7494 701.1738,-79.4422 702.027,-72.4943"/>
</g>
<!-- Node25&#45;&gt;Node9 -->
<g id="edge36" class="edge">
<title>Node25&#45;&gt;Node9</title>
<path fill="none" stroke="#191970" d="M1730.693,-186.0181C1666.9231,-177.4505 1569.3441,-162.6764 1486,-143 1440.7139,-132.3086 1430.6091,-125.2348 1386,-112 1329.7548,-95.3129 1304.1848,-113.4207 1259,-76 1244.5501,-64.0331 1235.8331,-44.1579 1231.0187,-29.3393"/>
<polygon fill="#191970" stroke="#191970" points="1234.3447,-28.2426 1228.1767,-19.6282 1227.6264,-30.2088 1234.3447,-28.2426"/>
</g>
<!-- Node25&#45;&gt;Node11 -->
<g id="edge56" class="edge">
<title>Node25&#45;&gt;Node11</title>
<path fill="none" stroke="#191970" d="M1844.0587,-184.9044C1897.8869,-173.2493 1984.6066,-153.81 2016,-143 2087.4203,-118.407 2212.3234,-112.3315 2162,-56 2139.4832,-30.795 1925.941,-17.6567 1817.52,-12.5637"/>
<polygon fill="#191970" stroke="#191970" points="1817.5163,-9.0599 1807.3658,-12.0958 1817.1941,-16.0525 1817.5163,-9.0599"/>
</g>
<!-- Node25&#45;&gt;Node13 -->
<g id="edge43" class="edge">
<title>Node25&#45;&gt;Node13</title>
<path fill="none" stroke="#191970" d="M1730.6724,-187.7337C1649.588,-179.2705 1510.4483,-163.3815 1392,-143 1385.4003,-141.8644 1378.4851,-140.5334 1371.669,-139.1368"/>
<polygon fill="#191970" stroke="#191970" points="1372.3084,-135.6947 1361.8018,-137.0588 1370.8659,-142.5445 1372.3084,-135.6947"/>
</g>
<!-- Node25&#45;&gt;Node17 -->
<g id="edge38" class="edge">
<title>Node25&#45;&gt;Node17</title>
<path fill="none" stroke="#191970" d="M1800.2542,-184.8506C1802.9251,-159.8024 1806.3139,-92.1486 1771,-56 1755.12,-39.7446 1705.8452,-28.3585 1659.8221,-20.9808"/>
<polygon fill="#191970" stroke="#191970" points="1660.1763,-17.494 1649.7582,-19.4212 1659.1042,-24.4114 1660.1763,-17.494"/>
</g>
<!-- Node25&#45;&gt;Node20 -->
<g id="edge55" class="edge">
<title>Node25&#45;&gt;Node20</title>
<path fill="none" stroke="#191970" d="M1867.2824,-187.6767C1946.4538,-179.2901 2080.7157,-163.5996 2195,-143 2201.1686,-141.8881 2207.625,-140.5804 2213.9916,-139.2039"/>
<polygon fill="#191970" stroke="#191970" points="2214.8692,-142.5943 2223.8682,-137.0025 2213.3463,-135.7619 2214.8692,-142.5943"/>
</g>
<!-- Node26 -->
<g id="node27" class="node">
<title>Node26</title>
<g id="a_node27"><a xlink:href="_field_utils_8_h.html" target="_top" xlink:title="amr&#45;wind/core/FieldUtils.H">
<polygon fill="#ffffff" stroke="#000000" points="2019.5,-56.5 2019.5,-75.5 2152.5,-75.5 2152.5,-56.5 2019.5,-56.5"/>
<text text-anchor="middle" x="2086" y="-63.5" font-family="Helvetica,sans-Serif" font-size="10.00" fill="#000000">amr&#45;wind/core/FieldUtils.H</text>
</a>
</g>
</g>
<!-- Node25&#45;&gt;Node26 -->
<g id="edge39" class="edge">
<title>Node25&#45;&gt;Node26</title>
<path fill="none" stroke="#191970" d="M1847.8106,-184.9975C1884.5059,-176.7692 1935.398,-163.0104 1977,-143 2011.3164,-126.4939 2046.4974,-99.4441 2067.2882,-82.1925"/>
<polygon fill="#191970" stroke="#191970" points="2069.6322,-84.7943 2075.0224,-75.6731 2065.1206,-79.4421 2069.6322,-84.7943"/>
</g>
<!-- Node28 -->
<g id="node29" class="node">
<title>Node28</title>
<g id="a_node29"><a xlink:href="_int_field_8_h.html" target="_top" xlink:title="amr&#45;wind/core/IntField.H">
<polygon fill="#ffffff" stroke="#000000" points="1827,-118 1827,-137 1951,-137 1951,-118 1827,-118"/>
<text text-anchor="middle" x="1889" y="-125" font-family="Helvetica,sans-Serif" font-size="10.00" fill="#000000">amr&#45;wind/core/IntField.H</text>
</a>
</g>
</g>
<!-- Node25&#45;&gt;Node28 -->
<g id="edge44" class="edge">
<title>Node25&#45;&gt;Node28</title>
<path fill="none" stroke="#191970" d="M1811.8948,-184.9005C1826.4642,-174.0544 1850.4022,-156.2339 1867.7454,-143.3229"/>
<polygon fill="#191970" stroke="#191970" points="1870.1978,-145.8606 1876.1291,-137.0817 1866.0177,-140.2457 1870.1978,-145.8606"/>
</g>
<!-- Node29 -->
<g id="node30" class="node">
<title>Node29</title>
<polygon fill="#ffffff" stroke="#bfbfbf" points="1894.5,-56.5 1894.5,-75.5 2001.5,-75.5 2001.5,-56.5 1894.5,-56.5"/>
<text text-anchor="middle" x="1948" y="-63.5" font-family="Helvetica,sans-Serif" font-size="10.00" fill="#000000">AMReX_iMultiFab.H</text>
</g>
<!-- Node25&#45;&gt;Node29 -->
<g id="edge57" class="edge">
<title>Node25&#45;&gt;Node29</title>
<path fill="none" stroke="#191970" d="M1850.2,-184.9152C1892.1986,-175.8892 1946.8059,-161.0731 1960,-143 1972.2877,-126.1685 1965.4444,-101.7156 1958.0434,-84.9061"/>
<polygon fill="#191970" stroke="#191970" points="1961.0314,-83.0452 1953.5292,-75.564 1954.7287,-86.0908 1961.0314,-83.0452"/>
</g>
<!-- Node30 -->
<g id="node31" class="node">
<title>Node30</title>
<g id="a_node31"><a xlink:href="_scratch_field_8_h.html" target="_top" xlink:title="amr&#45;wind/core/ScratchField.H">
<polygon fill="#ffffff" stroke="#000000" points="1495,-118 1495,-137 1641,-137 1641,-118 1495,-118"/>
<text text-anchor="middle" x="1568" y="-125" font-family="Helvetica,sans-Serif" font-size="10.00" fill="#000000">amr&#45;wind/core/ScratchField.H</text>
</a>
</g>
</g>
<!-- Node25&#45;&gt;Node30 -->
<g id="edge48" class="edge">
<title>Node25&#45;&gt;Node30</title>
<path fill="none" stroke="#191970" d="M1765.9033,-184.9005C1725.0779,-173.0594 1655.5918,-152.9054 1610.7609,-139.9025"/>
<polygon fill="#191970" stroke="#191970" points="1611.6145,-136.5059 1601.0353,-137.0817 1609.6645,-143.2288 1611.6145,-136.5059"/>
</g>
<!-- Node26&#45;&gt;Node11 -->
<g id="edge41" class="edge">
<title>Node26&#45;&gt;Node11</title>
<path fill="none" stroke="#191970" d="M2029.4752,-56.4369C1970.4442,-46.4498 1878.1159,-30.8293 1817.0893,-20.5045"/>
<polygon fill="#191970" stroke="#191970" points="1817.6431,-17.0486 1807.1993,-18.8313 1816.4754,-23.9505 1817.6431,-17.0486"/>
</g>
<!-- Node26&#45;&gt;Node17 -->
<g id="edge40" class="edge">
<title>Node26&#45;&gt;Node17</title>
<path fill="none" stroke="#191970" d="M2019.3564,-57.0119C2016.534,-56.6636 2013.7394,-56.3248 2011,-56 1889.745,-41.624 1749.5185,-27.4804 1659.864,-18.7527"/>
<polygon fill="#191970" stroke="#191970" points="1660.0191,-15.2514 1649.7276,-17.7681 1659.3423,-22.2186 1660.0191,-15.2514"/>
</g>
<!-- Node27 -->
<g id="node28" class="node">
<title>Node27</title>
<polygon fill="#ffffff" stroke="#bfbfbf" points="2028,-.5 2028,-19.5 2144,-19.5 2144,-.5 2028,-.5"/>
<text text-anchor="middle" x="2086" y="-7.5" font-family="Helvetica,sans-Serif" font-size="10.00" fill="#000000">AMReX_Interpolater.H</text>
</g>
<!-- Node26&#45;&gt;Node27 -->
<g id="edge42" class="edge">
<title>Node26&#45;&gt;Node27</title>
<path fill="none" stroke="#191970" d="M2086,-56.2455C2086,-48.9382 2086,-38.6944 2086,-29.7046"/>
<polygon fill="#191970" stroke="#191970" points="2089.5001,-29.6426 2086,-19.6427 2082.5001,-29.6427 2089.5001,-29.6426"/>
</g>
<!-- Node28&#45;&gt;Node9 -->
<g id="edge45" class="edge">
<title>Node28&#45;&gt;Node9</title>
<path fill="none" stroke="#191970" d="M1826.9802,-122.7448C1696.7245,-112.5735 1403.0506,-88.6074 1359,-76 1318.3885,-64.3769 1275.2707,-40.5894 1249.497,-24.9741"/>
<polygon fill="#191970" stroke="#191970" points="1251.1724,-21.8954 1240.8229,-19.6285 1247.4999,-27.8546 1251.1724,-21.8954"/>
</g>
<!-- Node28&#45;&gt;Node17 -->
<g id="edge46" class="edge">
<title>Node28&#45;&gt;Node17</title>
<path fill="none" stroke="#191970" d="M1885.5709,-117.7708C1879.4683,-101.9974 1865.1448,-71.0912 1842,-56 1812.5035,-36.7672 1727.5263,-24.5098 1659.9479,-17.5272"/>
<polygon fill="#191970" stroke="#191970" points="1659.9885,-14.0136 1649.6879,-16.4933 1659.2866,-20.9783 1659.9885,-14.0136"/>
</g>
<!-- Node28&#45;&gt;Node29 -->
<g id="edge47" class="edge">
<title>Node28&#45;&gt;Node29</title>
<path fill="none" stroke="#191970" d="M1898.2188,-117.8906C1907.0858,-108.6478 1920.6912,-94.466 1931.4389,-83.2628"/>
<polygon fill="#191970" stroke="#191970" points="1934.2541,-85.3841 1938.6513,-75.7449 1929.2027,-80.5381 1934.2541,-85.3841"/>
</g>
<!-- Node30&#45;&gt;Node9 -->
<g id="edge49" class="edge">
<title>Node30&#45;&gt;Node9</title>
<path fill="none" stroke="#191970" d="M1494.7128,-119.2749C1424.0409,-110.412 1322.8231,-94.9908 1288,-76 1267.1976,-64.6554 1249.3993,-43.792 1238.2784,-28.5503"/>
<polygon fill="#191970" stroke="#191970" points="1240.8464,-26.1148 1232.2498,-19.9221 1235.1083,-30.1241 1240.8464,-26.1148"/>
</g>
<!-- Node30&#45;&gt;Node10 -->
<g id="edge53" class="edge">
<title>Node30&#45;&gt;Node10</title>
<path fill="none" stroke="#191970" d="M1498.4336,-117.9728C1445.6688,-109.3893 1378.9289,-95.1722 1359,-76 1346.5376,-64.0108 1342.0977,-44.4231 1340.5902,-29.6944"/>
<polygon fill="#191970" stroke="#191970" points="1344.0741,-29.3331 1339.9247,-19.5847 1337.0892,-29.793 1344.0741,-29.3331"/>
</g>
<!-- Node30&#45;&gt;Node11 -->
<g id="edge52" class="edge">
<title>Node30&#45;&gt;Node11</title>
<path fill="none" stroke="#191970" d="M1641.0699,-118.4595C1692.4878,-110.422 1754.8972,-96.6981 1771,-76 1781.5881,-62.3904 1774.8565,-42.7903 1767.1387,-28.4862"/>
<polygon fill="#191970" stroke="#191970" points="1769.9564,-26.3765 1761.8388,-19.5681 1763.9388,-29.9527 1769.9564,-26.3765"/>
</g>
<!-- Node30&#45;&gt;Node17 -->
<g id="edge50" class="edge">
<title>Node30&#45;&gt;Node17</title>
<path fill="none" stroke="#191970" d="M1568,-117.8845C1568,-98.6913 1568,-55.286 1568,-29.7663"/>
<polygon fill="#191970" stroke="#191970" points="1571.5001,-29.7483 1568,-19.7484 1564.5001,-29.7484 1571.5001,-29.7483"/>
</g>
<!-- Node30&#45;&gt;Node18 -->
<g id="edge51" class="edge">
<title>Node30&#45;&gt;Node18</title>
<path fill="none" stroke="#191970" d="M1547.2188,-117.8906C1525.1606,-107.6908 1490.095,-91.4763 1465.0331,-79.8875"/>
<polygon fill="#191970" stroke="#191970" points="1466.1809,-76.5622 1455.6353,-75.5419 1463.2429,-82.9158 1466.1809,-76.5622"/>
</g>
<!-- Node31 -->
<g id="node32" class="node">
<title>Node31</title>
<polygon fill="#ffffff" stroke="#bfbfbf" points="1634,-56.5 1634,-75.5 1762,-75.5 1762,-56.5 1634,-56.5"/>
<text text-anchor="middle" x="1698" y="-63.5" font-family="Helvetica,sans-Serif" font-size="10.00" fill="#000000">AMReX_PhysBCFunct.H</text>
</g>
<!-- Node30&#45;&gt;Node31 -->
<g id="edge54" class="edge">
<title>Node30&#45;&gt;Node31</title>
<path fill="none" stroke="#191970" d="M1588.3125,-117.8906C1609.8731,-107.6908 1644.1478,-91.4763 1668.6444,-79.8875"/>
<polygon fill="#191970" stroke="#191970" points="1670.2874,-82.9822 1677.8301,-75.5419 1667.2939,-76.6545 1670.2874,-82.9822"/>
</g>
<!-- Node32&#45;&gt;Node2 -->
<g id="edge60" class="edge">
<title>Node32&#45;&gt;Node2</title>
<path fill="none" stroke="#191970" d="M608.408,-181.1631C555.7844,-170.9823 481.778,-156.4604 417,-143 411.2231,-141.7996 405.1875,-140.5205 399.1804,-139.2316"/>
<polygon fill="#191970" stroke="#191970" points="399.6622,-135.755 389.1487,-137.0652 398.1845,-142.5973 399.6622,-135.755"/>
</g>
<!-- Node32&#45;&gt;Node8 -->
<g id="edge61" class="edge">
<title>Node32&#45;&gt;Node8</title>
<path fill="none" stroke="#191970" d="M635.5847,-179.4639C602.4891,-167.7316 556.9988,-151.6054 525.5112,-140.4431"/>
<polygon fill="#191970" stroke="#191970" points="526.4082,-137.0477 515.8134,-137.0053 524.0693,-143.6454 526.4082,-137.0477"/>
</g>
<!-- Node32&#45;&gt;Node9 -->
<g id="edge59" class="edge">
<title>Node32&#45;&gt;Node9</title>
<path fill="none" stroke="#191970" d="M639.8386,-179.471C624.2387,-171.2068 607.8135,-159.2664 599,-143 580.5796,-109.0029 572.6778,-84.3241 599,-56 619.5104,-33.9297 1071.2117,-15.7062 1194.9192,-11.1161"/>
<polygon fill="#191970" stroke="#191970" points="1195.3382,-14.6032 1205.2029,-10.738 1195.081,-7.6079 1195.3382,-14.6032"/>
</g>
<!-- Node32&#45;&gt;Node16 -->
<g id="edge65" class="edge">
<title>Node32&#45;&gt;Node16</title>
<path fill="none" stroke="#191970" d="M718.4304,-179.4238C740.4486,-170.3635 767.6748,-157.7395 790,-143 816.5609,-125.4641 843.0914,-99.8073 859.2744,-83.0073"/>
<polygon fill="#191970" stroke="#191970" points="862.0062,-85.2129 866.3423,-75.546 856.9242,-80.3989 862.0062,-85.2129"/>
</g>
<!-- Node32&#45;&gt;Node17 -->
<g id="edge64" class="edge">
<title>Node32&#45;&gt;Node17</title>
<path fill="none" stroke="#191970" d="M708.0437,-179.4296C723.757,-170.451 742.4798,-157.9024 756,-143 785.3893,-110.6063 765.2283,-79.6839 802,-56 803.7554,-54.8694 1273.1606,-27.2621 1476.1941,-15.3692"/>
<polygon fill="#191970" stroke="#191970" points="1476.4673,-18.8593 1486.2455,-14.7805 1476.058,-11.8712 1476.4673,-18.8593"/>
</g>
<!-- Node33 -->
<g id="node34" class="node">
<title>Node33</title>
<g id="a_node34"><a xlink:href="_p_d_e_fields_8_h.html" target="_top" xlink:title="amr&#45;wind/equation_systems\l/PDEFields.H">
<polygon fill="#ffffff" stroke="#000000" points="608.5,-112.5 608.5,-142.5 747.5,-142.5 747.5,-112.5 608.5,-112.5"/>
<text text-anchor="start" x="616.5" y="-130.5" font-family="Helvetica,sans-Serif" font-size="10.00" fill="#000000">amr&#45;wind/equation_systems</text>
<text text-anchor="middle" x="678" y="-119.5" font-family="Helvetica,sans-Serif" font-size="10.00" fill="#000000">/PDEFields.H</text>
</a>
</g>
</g>
<!-- Node32&#45;&gt;Node33 -->
<g id="edge62" class="edge">
<title>Node32&#45;&gt;Node33</title>
<path fill="none" stroke="#191970" d="M678,-179.2967C678,-171.5013 678,-161.7991 678,-152.9064"/>
<polygon fill="#191970" stroke="#191970" points="681.5001,-152.6431 678,-142.6432 674.5001,-152.6432 681.5001,-152.6431"/>
</g>
<!-- Node34 -->
<g id="node35" class="node">
<title>Node34</title>
<polygon fill="#ffffff" stroke="#bfbfbf" points="709.5,-56.5 709.5,-75.5 754.5,-75.5 754.5,-56.5 709.5,-56.5"/>
<text text-anchor="middle" x="732" y="-63.5" font-family="Helvetica,sans-Serif" font-size="10.00" fill="#000000">iosfwd</text>
</g>
<!-- Node33&#45;&gt;Node34 -->
<g id="edge63" class="edge">
<title>Node33&#45;&gt;Node34</title>
<path fill="none" stroke="#191970" d="M691.3483,-112.2977C699.0002,-103.5831 708.6373,-92.6075 716.6076,-83.5302"/>
<polygon fill="#191970" stroke="#191970" points="719.3859,-85.6707 723.3539,-75.8469 714.1258,-81.052 719.3859,-85.6707"/>
</g>
</g>
</svg>
