<?xml version="1.0" encoding="UTF-8" standalone="no"?>
<!DOCTYPE svg PUBLIC "-//W3C//DTD SVG 1.1//EN"
 "http://www.w3.org/Graphics/SVG/1.1/DTD/svg11.dtd">
<!-- Generated by graphviz version 2.40.1 (20161225.0304)
 -->
<!-- Title: DensityBuoyancy.cpp Pages: 1 -->
<!--zoomable 408 -->
<svg id="main" version="1.1" xmlns="http://www.w3.org/2000/svg" xmlns:xlink="http://www.w3.org/1999/xlink" xml:space="preserve" onload="init(evt)">
<style type="text/css"><![CDATA[
.edge:hover path { stroke: red; }
.edge:hover polygon { stroke: red; fill: red; }
]]></style>
<script type="text/javascript"><![CDATA[
var edges = document.getElementsByTagName('g');
if (edges && edges.length) {
  for (var i=0;i<edges.length;i++) {
    if (edges[i].id.substr(0,4)=='edge') {
      edges[i].setAttribute('class','edge');
    }
  }
}
]]></script>
        <defs>
                <circle id="rim" cx="0" cy="0" r="7"/>
                <circle id="rim2" cx="0" cy="0" r="3.5"/>
                <g id="zoomPlus">
                        <use xlink:href="#rim" fill="#404040">
                                <set attributeName="fill" to="#808080" begin="zoomplus.mouseover" end="zoomplus.mouseout"/>
                        </use>
                        <path d="M-4,0h8M0,-4v8" fill="none" stroke="white" stroke-width="1.5" pointer-events="none"/>
                </g>
                <g id="zoomMin">
                        <use xlink:href="#rim" fill="#404040">
                                <set attributeName="fill" to="#808080" begin="zoomminus.mouseover" end="zoomminus.mouseout"/>
                        </use>
                        <path d="M-4,0h8" fill="none" stroke="white" stroke-width="1.5" pointer-events="none"/>
                </g>
                <g id="dirArrow">
                        <path fill="none" stroke="white" stroke-width="1.5" d="M0,-3.0v7 M-2.5,-0.5L0,-3.0L2.5,-0.5"/>
                </g>
               <g id="resetDef">
                       <use xlink:href="#rim2" fill="#404040">
                               <set attributeName="fill" to="#808080" begin="reset.mouseover" end="reset.mouseout"/>
                       </use>
               </g>
        </defs>

<script type="text/javascript">
var viewWidth = 2698;
var viewHeight = 408;
var sectionId = 'dynsection-0';
</script>
<script xlink:href="svgpan.js"/>
<svg id="graph" class="graph">
<g id="viewport">
<title>DensityBuoyancy.cpp</title>
<polygon fill="#ffffff" stroke="transparent" points="-4,4 -4,-404 2693.5,-404 2693.5,4 -4,4"/>
<!-- Node0 -->
<g id="node1" class="node">
<title>Node0</title>
<polygon fill="#bfbfbf" stroke="#000000" points="622,-380.5 622,-399.5 735,-399.5 735,-380.5 622,-380.5"/>
<text text-anchor="middle" x="678.5" y="-387.5" font-family="Helvetica,sans-Serif" font-size="10.00" fill="#000000">DensityBuoyancy.cpp</text>
</g>
<!-- Node1 -->
<g id="node2" class="node">
<title>Node1</title>
<g id="a_node2"><a xlink:href="_density_buoyancy_8_h.html" target="_top" xlink:title="amr&#45;wind/equation_systems\l/icns/source_terms/DensityBuoyancy.H">
<polygon fill="#ffffff" stroke="#000000" points="521,-313.5 521,-343.5 712,-343.5 712,-313.5 521,-313.5"/>
<text text-anchor="start" x="529" y="-331.5" font-family="Helvetica,sans-Serif" font-size="10.00" fill="#000000">amr&#45;wind/equation_systems</text>
<text text-anchor="middle" x="616.5" y="-320.5" font-family="Helvetica,sans-Serif" font-size="10.00" fill="#000000">/icns/source_terms/DensityBuoyancy.H</text>
</a>
</g>
</g>
<!-- Node0&#45;&gt;Node1 -->
<g id="edge1" class="edge">
<title>Node0&#45;&gt;Node1</title>
<path fill="none" stroke="#191970" d="M668.8125,-380.3906C660.81,-372.4527 649.135,-360.8718 638.8437,-350.6635"/>
<polygon fill="#191970" stroke="#191970" points="641.2314,-348.1021 631.6669,-343.5446 636.3017,-353.0719 641.2314,-348.1021"/>
</g>
<!-- Node6 -->
<g id="node7" class="node">
<title>Node6</title>
<g id="a_node7"><a xlink:href="_field_utils_8_h.html" target="_top" xlink:title="amr&#45;wind/core/FieldUtils.H">
<polygon fill="#ffffff" stroke="#000000" points="0,-118 0,-137 133,-137 133,-118 0,-118"/>
<text text-anchor="middle" x="66.5" y="-125" font-family="Helvetica,sans-Serif" font-size="10.00" fill="#000000">amr&#45;wind/core/FieldUtils.H</text>
</a>
</g>
</g>
<!-- Node0&#45;&gt;Node6 -->
<g id="edge73" class="edge">
<title>Node0&#45;&gt;Node6</title>
<path fill="none" stroke="#191970" d="M642.0923,-380.4308C608.3664,-371.4436 556.8718,-357.4088 512.5,-344 329.3928,-288.6665 245.6696,-337.9759 103.5,-210 84.9698,-193.3198 75.1905,-165.5809 70.4363,-146.9261"/>
<polygon fill="#191970" stroke="#191970" points="73.8394,-146.1071 68.1897,-137.1443 67.0171,-147.6741 73.8394,-146.1071"/>
</g>
<!-- Node26 -->
<g id="node27" class="node">
<title>Node26</title>
<g id="a_node27"><a xlink:href="_c_f_d_sim_8_h.html" target="_top" xlink:title="amr&#45;wind/CFDSim.H">
<polygon fill="#ffffff" stroke="#000000" points="1184.5,-252 1184.5,-271 1292.5,-271 1292.5,-252 1184.5,-252"/>
<text text-anchor="middle" x="1238.5" y="-259" font-family="Helvetica,sans-Serif" font-size="10.00" fill="#000000">amr&#45;wind/CFDSim.H</text>
</a>
</g>
</g>
<!-- Node0&#45;&gt;Node26 -->
<g id="edge49" class="edge">
<title>Node0&#45;&gt;Node26</title>
<path fill="none" stroke="#191970" d="M687.1812,-380.3216C704.3215,-361.4643 742.3331,-320.9479 759.5,-313 831.6294,-279.6055 1060.6922,-267.4101 1173.8993,-263.3433"/>
<polygon fill="#191970" stroke="#191970" points="1174.2828,-266.8322 1184.1547,-262.9858 1174.0388,-259.8364 1174.2828,-266.8322"/>
</g>
<!-- Node37 -->
<g id="node38" class="node">
<title>Node37</title>
<polygon fill="#ffffff" stroke="#bfbfbf" points="768.5,-319 768.5,-338 884.5,-338 884.5,-319 768.5,-319"/>
<text text-anchor="middle" x="826.5" y="-326" font-family="Helvetica,sans-Serif" font-size="10.00" fill="#000000">AMReX_ParmParse.H</text>
</g>
<!-- Node0&#45;&gt;Node37 -->
<g id="edge74" class="edge">
<title>Node0&#45;&gt;Node37</title>
<path fill="none" stroke="#191970" d="M701.625,-380.3906C726.4967,-370.0554 766.2298,-353.5447 794.1844,-341.9284"/>
<polygon fill="#191970" stroke="#191970" points="795.646,-345.1113 803.5374,-338.0419 792.9598,-338.6472 795.646,-345.1113"/>
</g>
<!-- Node2 -->
<g id="node3" class="node">
<title>Node2</title>
<g id="a_node3"><a xlink:href="_field_repo_8_h.html" target="_top" xlink:title="amr&#45;wind/core/FieldRepo.H">
<polygon fill="#ffffff" stroke="#000000" points="548.5,-185 548.5,-204 684.5,-204 684.5,-185 548.5,-185"/>
<text text-anchor="middle" x="616.5" y="-192" font-family="Helvetica,sans-Serif" font-size="10.00" fill="#000000">amr&#45;wind/core/FieldRepo.H</text>
</a>
</g>
</g>
<!-- Node1&#45;&gt;Node2 -->
<g id="edge2" class="edge">
<title>Node1&#45;&gt;Node2</title>
<path fill="none" stroke="#191970" d="M628.2909,-313.2379C635.0746,-303.4664 642.9394,-290.1862 646.5,-277 650.0917,-263.6986 650.0917,-259.3014 646.5,-246 643.2294,-233.8876 636.327,-221.696 629.9669,-212.2173"/>
<polygon fill="#191970" stroke="#191970" points="632.8136,-210.1809 624.1714,-204.052 627.1052,-214.2325 632.8136,-210.1809"/>
</g>
<!-- Node21 -->
<g id="node22" class="node">
<title>Node21</title>
<g id="a_node22"><a xlink:href="_momentum_source_8_h.html" target="_top" xlink:title="amr&#45;wind/equation_systems\l/icns/MomentumSource.H">
<polygon fill="#ffffff" stroke="#000000" points="498,-246.5 498,-276.5 637,-276.5 637,-246.5 498,-246.5"/>
<text text-anchor="start" x="506" y="-264.5" font-family="Helvetica,sans-Serif" font-size="10.00" fill="#000000">amr&#45;wind/equation_systems</text>
<text text-anchor="middle" x="567.5" y="-253.5" font-family="Helvetica,sans-Serif" font-size="10.00" fill="#000000">/icns/MomentumSource.H</text>
</a>
</g>
</g>
<!-- Node1&#45;&gt;Node21 -->
<g id="edge38" class="edge">
<title>Node1&#45;&gt;Node21</title>
<path fill="none" stroke="#191970" d="M605.3811,-313.2967C599.2415,-304.9016 591.4846,-294.2952 584.5914,-284.8698"/>
<polygon fill="#191970" stroke="#191970" points="587.3032,-282.6488 578.5749,-276.6432 581.653,-286.781 587.3032,-282.6488"/>
</g>
<!-- Node3 -->
<g id="node4" class="node">
<title>Node3</title>
<polygon fill="#ffffff" stroke="#bfbfbf" points="793,-.5 793,-19.5 834,-19.5 834,-.5 793,-.5"/>
<text text-anchor="middle" x="813.5" y="-7.5" font-family="Helvetica,sans-Serif" font-size="10.00" fill="#000000">string</text>
</g>
<!-- Node2&#45;&gt;Node3 -->
<g id="edge3" class="edge">
<title>Node2&#45;&gt;Node3</title>
<path fill="none" stroke="#191970" d="M587.8564,-184.876C569.0086,-176.8759 545.8053,-163.4503 534.5,-143 515.7926,-109.16 509.4811,-85.4816 534.5,-56 550.4424,-37.2139 712.9645,-19.6027 782.3609,-12.877"/>
<polygon fill="#191970" stroke="#191970" points="783.0407,-16.3281 792.6624,-11.8926 782.3747,-9.3599 783.0407,-16.3281"/>
</g>
<!-- Node4 -->
<g id="node5" class="node">
<title>Node4</title>
<polygon fill="#ffffff" stroke="#bfbfbf" points="1513,-56.5 1513,-75.5 1596,-75.5 1596,-56.5 1513,-56.5"/>
<text text-anchor="middle" x="1554.5" y="-63.5" font-family="Helvetica,sans-Serif" font-size="10.00" fill="#000000">unordered_map</text>
</g>
<!-- Node2&#45;&gt;Node4 -->
<g id="edge4" class="edge">
<title>Node2&#45;&gt;Node4</title>
<path fill="none" stroke="#191970" d="M684.5943,-192.8432C801.9165,-189.1369 1049.42,-177.5767 1255.5,-143 1349.7547,-127.1857 1457.7531,-96.0497 1514.6317,-78.6051"/>
<polygon fill="#191970" stroke="#191970" points="1515.7874,-81.9113 1524.31,-75.6172 1513.7225,-75.2228 1515.7874,-81.9113"/>
</g>
<!-- Node5 -->
<g id="node6" class="node">
<title>Node5</title>
<g id="a_node6"><a xlink:href="_field_desc_types_8_h.html" target="_top" xlink:title="amr&#45;wind/core/FieldDescTypes.H">
<polygon fill="#ffffff" stroke="#000000" points="320,-.5 320,-19.5 483,-19.5 483,-.5 320,-.5"/>
<text text-anchor="middle" x="401.5" y="-7.5" font-family="Helvetica,sans-Serif" font-size="10.00" fill="#000000">amr&#45;wind/core/FieldDescTypes.H</text>
</a>
</g>
</g>
<!-- Node2&#45;&gt;Node5 -->
<g id="edge5" class="edge">
<title>Node2&#45;&gt;Node5</title>
<path fill="none" stroke="#191970" d="M548.3089,-188.8677C465.4206,-181.1618 331.0869,-165.6545 286.5,-143 248.9562,-123.924 235.6156,-114.9065 219.5,-76 216.0984,-67.7877 214.0387,-63.0133 219.5,-56 231.9664,-39.9907 275.3635,-28.6724 316.6527,-21.2692"/>
<polygon fill="#191970" stroke="#191970" points="317.2671,-24.715 326.5254,-19.5637 316.0755,-17.8171 317.2671,-24.715"/>
</g>
<!-- Node2&#45;&gt;Node6 -->
<g id="edge6" class="edge">
<title>Node2&#45;&gt;Node6</title>
<path fill="none" stroke="#191970" d="M548.1706,-186.5618C463.1552,-176.6329 313.5573,-158.9902 185.5,-143 171.8586,-141.2966 157.3435,-139.4416 143.3114,-137.6263"/>
<polygon fill="#191970" stroke="#191970" points="143.5659,-134.13 133.1986,-136.3142 142.6651,-141.0718 143.5659,-134.13"/>
</g>
<!-- Node7 -->
<g id="node8" class="node">
<title>Node7</title>
<polygon fill="#ffffff" stroke="#bfbfbf" points="1286.5,-.5 1286.5,-19.5 1390.5,-19.5 1390.5,-.5 1286.5,-.5"/>
<text text-anchor="middle" x="1338.5" y="-7.5" font-family="Helvetica,sans-Serif" font-size="10.00" fill="#000000">AMReX_MultiFab.H</text>
</g>
<!-- Node2&#45;&gt;Node7 -->
<g id="edge36" class="edge">
<title>Node2&#45;&gt;Node7</title>
<path fill="none" stroke="#191970" d="M684.7582,-193.4603C937.5469,-189.3866 1812.1434,-173.2285 1933.5,-143 2000.0466,-126.4241 2036.0236,-134.0748 2072.5,-76 2077.2278,-68.4727 2078.5857,-62.479 2072.5,-56 2049.6382,-31.6606 1573.8629,-16.3797 1400.7668,-11.6082"/>
<polygon fill="#191970" stroke="#191970" points="1400.6357,-8.1034 1390.5439,-11.3289 1400.4445,-15.1008 1400.6357,-8.1034"/>
</g>
<!-- Node9 -->
<g id="node10" class="node">
<title>Node9</title>
<g id="a_node10"><a xlink:href="_field_8_h.html" target="_top" xlink:title="amr&#45;wind/core/Field.H">
<polygon fill="#ffffff" stroke="#000000" points="1133,-118 1133,-137 1246,-137 1246,-118 1133,-118"/>
<text text-anchor="middle" x="1189.5" y="-125" font-family="Helvetica,sans-Serif" font-size="10.00" fill="#000000">amr&#45;wind/core/Field.H</text>
</a>
</g>
</g>
<!-- Node2&#45;&gt;Node9 -->
<g id="edge10" class="edge">
<title>Node2&#45;&gt;Node9</title>
<path fill="none" stroke="#191970" d="M684.7642,-186.518C795.5553,-173.5633 1013.1475,-148.1206 1122.8749,-135.2904"/>
<polygon fill="#191970" stroke="#191970" points="1123.3038,-138.7642 1132.8296,-134.1264 1122.4908,-131.8115 1123.3038,-138.7642"/>
</g>
<!-- Node16 -->
<g id="node17" class="node">
<title>Node16</title>
<g id="a_node17"><a xlink:href="_int_field_8_h.html" target="_top" xlink:title="amr&#45;wind/core/IntField.H">
<polygon fill="#ffffff" stroke="#000000" points="321.5,-118 321.5,-137 445.5,-137 445.5,-118 321.5,-118"/>
<text text-anchor="middle" x="383.5" y="-125" font-family="Helvetica,sans-Serif" font-size="10.00" fill="#000000">amr&#45;wind/core/IntField.H</text>
</a>
</g>
</g>
<!-- Node2&#45;&gt;Node16 -->
<g id="edge24" class="edge">
<title>Node2&#45;&gt;Node16</title>
<path fill="none" stroke="#191970" d="M583.1168,-184.9005C541.9379,-173.0594 471.8502,-152.9054 426.6311,-139.9025"/>
<polygon fill="#191970" stroke="#191970" points="427.3991,-136.4816 416.8213,-137.0817 425.4646,-143.209 427.3991,-136.4816"/>
</g>
<!-- Node17 -->
<g id="node18" class="node">
<title>Node17</title>
<polygon fill="#ffffff" stroke="#bfbfbf" points="228,-56.5 228,-75.5 335,-75.5 335,-56.5 228,-56.5"/>
<text text-anchor="middle" x="281.5" y="-63.5" font-family="Helvetica,sans-Serif" font-size="10.00" fill="#000000">AMReX_iMultiFab.H</text>
</g>
<!-- Node2&#45;&gt;Node17 -->
<g id="edge37" class="edge">
<title>Node2&#45;&gt;Node17</title>
<path fill="none" stroke="#191970" d="M548.2803,-190.6052C470.0082,-184.8445 347.8867,-171.4951 312.5,-143 294.9325,-128.8538 287.2585,-103.2229 283.947,-85.4384"/>
<polygon fill="#191970" stroke="#191970" points="287.4039,-84.8902 282.3995,-75.5518 280.4882,-85.9728 287.4039,-84.8902"/>
</g>
<!-- Node18 -->
<g id="node19" class="node">
<title>Node18</title>
<g id="a_node19"><a xlink:href="_scratch_field_8_h.html" target="_top" xlink:title="amr&#45;wind/core/ScratchField.H">
<polygon fill="#ffffff" stroke="#000000" points="543.5,-118 543.5,-137 689.5,-137 689.5,-118 543.5,-118"/>
<text text-anchor="middle" x="616.5" y="-125" font-family="Helvetica,sans-Serif" font-size="10.00" fill="#000000">amr&#45;wind/core/ScratchField.H</text>
</a>
</g>
</g>
<!-- Node2&#45;&gt;Node18 -->
<g id="edge28" class="edge">
<title>Node2&#45;&gt;Node18</title>
<path fill="none" stroke="#191970" d="M616.5,-184.9005C616.5,-175.149 616.5,-159.7597 616.5,-147.3695"/>
<polygon fill="#191970" stroke="#191970" points="620.0001,-147.0816 616.5,-137.0817 613.0001,-147.0817 620.0001,-147.0816"/>
</g>
<!-- Node20 -->
<g id="node21" class="node">
<title>Node20</title>
<polygon fill="#ffffff" stroke="#bfbfbf" points="707.5,-118 707.5,-137 813.5,-137 813.5,-118 707.5,-118"/>
<text text-anchor="middle" x="760.5" y="-125" font-family="Helvetica,sans-Serif" font-size="10.00" fill="#000000">AMReX_AmrCore.H</text>
</g>
<!-- Node2&#45;&gt;Node20 -->
<g id="edge35" class="edge">
<title>Node2&#45;&gt;Node20</title>
<path fill="none" stroke="#191970" d="M637.1317,-184.9005C661.6189,-173.5072 702.6468,-154.4178 730.6093,-141.4075"/>
<polygon fill="#191970" stroke="#191970" points="732.3164,-144.4736 739.9066,-137.0817 729.3634,-138.1269 732.3164,-144.4736"/>
</g>
<!-- Node6&#45;&gt;Node5 -->
<g id="edge7" class="edge">
<title>Node6&#45;&gt;Node5</title>
<path fill="none" stroke="#191970" d="M48.753,-117.7868C25.4157,-103.815 -10.5187,-77.3747 8.5,-56 28.2053,-33.8537 200.0073,-20.6593 309.841,-14.4132"/>
<polygon fill="#191970" stroke="#191970" points="310.1509,-17.9015 319.9399,-13.8485 309.76,-10.9124 310.1509,-17.9015"/>
</g>
<!-- Node6&#45;&gt;Node7 -->
<g id="edge8" class="edge">
<title>Node6&#45;&gt;Node7</title>
<path fill="none" stroke="#191970" d="M133.0506,-123.1369C182.5399,-119.9337 251.7301,-115.5422 312.5,-112 461.7941,-103.2979 841.5962,-120.0789 984.5,-76 1000.8881,-70.9451 1001.3524,-61.7775 1017.5,-56 1063.7912,-39.4374 1196.3353,-24.0628 1275.8913,-15.9647"/>
<polygon fill="#191970" stroke="#191970" points="1276.6752,-19.4035 1286.2739,-14.9185 1275.9734,-12.4388 1276.6752,-19.4035"/>
</g>
<!-- Node8 -->
<g id="node9" class="node">
<title>Node8</title>
<polygon fill="#ffffff" stroke="#bfbfbf" points="17.5,-56.5 17.5,-75.5 133.5,-75.5 133.5,-56.5 17.5,-56.5"/>
<text text-anchor="middle" x="75.5" y="-63.5" font-family="Helvetica,sans-Serif" font-size="10.00" fill="#000000">AMReX_Interpolater.H</text>
</g>
<!-- Node6&#45;&gt;Node8 -->
<g id="edge9" class="edge">
<title>Node6&#45;&gt;Node8</title>
<path fill="none" stroke="#191970" d="M67.9063,-117.8906C69.1538,-109.3657 71.0162,-96.6392 72.5844,-85.9235"/>
<polygon fill="#191970" stroke="#191970" points="76.089,-86.1463 74.0739,-75.7449 69.1627,-85.1326 76.089,-86.1463"/>
</g>
<!-- Node9&#45;&gt;Node3 -->
<g id="edge11" class="edge">
<title>Node9&#45;&gt;Node3</title>
<path fill="none" stroke="#191970" d="M1164.13,-117.9815C1125.5945,-103.6763 1049.8735,-76.1641 984.5,-56 958.2981,-47.9181 885.584,-28.7644 843.9,-17.8928"/>
<polygon fill="#191970" stroke="#191970" points="844.5774,-14.4525 834.0181,-15.319 842.8131,-21.2266 844.5774,-14.4525"/>
</g>
<!-- Node9&#45;&gt;Node4 -->
<g id="edge13" class="edge">
<title>Node9&#45;&gt;Node4</title>
<path fill="none" stroke="#191970" d="M1246.0299,-118.7699C1306.8748,-109.2516 1406.7499,-93.2768 1502.8818,-76.0687"/>
<polygon fill="#191970" stroke="#191970" points="1503.548,-79.5051 1512.7713,-74.2916 1502.3099,-72.6155 1503.548,-79.5051"/>
</g>
<!-- Node9&#45;&gt;Node5 -->
<g id="edge18" class="edge">
<title>Node9&#45;&gt;Node5</title>
<path fill="none" stroke="#191970" d="M1132.9028,-119.4901C1062.4843,-109.4884 938.5719,-91.772 832.5,-76 705.6871,-57.1439 558.0234,-34.3499 472.603,-21.0816"/>
<polygon fill="#191970" stroke="#191970" points="472.9189,-17.5888 462.5001,-19.5117 471.844,-24.5058 472.9189,-17.5888"/>
</g>
<!-- Node9&#45;&gt;Node7 -->
<g id="edge14" class="edge">
<title>Node9&#45;&gt;Node7</title>
<path fill="none" stroke="#191970" d="M1242.7071,-117.9677C1269.139,-110.656 1299.5966,-97.9317 1319.5,-76 1330.8812,-63.4591 1335.482,-44.5181 1337.3229,-30.1389"/>
<polygon fill="#191970" stroke="#191970" points="1340.8438,-30.0756 1338.2843,-19.7946 1333.8738,-29.4278 1340.8438,-30.0756"/>
</g>
<!-- Node10 -->
<g id="node11" class="node">
<title>Node10</title>
<polygon fill="#ffffff" stroke="#bfbfbf" points="1715.5,-56.5 1715.5,-75.5 1767.5,-75.5 1767.5,-56.5 1715.5,-56.5"/>
<text text-anchor="middle" x="1741.5" y="-63.5" font-family="Helvetica,sans-Serif" font-size="10.00" fill="#000000">memory</text>
</g>
<!-- Node9&#45;&gt;Node10 -->
<g id="edge12" class="edge">
<title>Node9&#45;&gt;Node10</title>
<path fill="none" stroke="#191970" d="M1246.3374,-121.9283C1336.1024,-113.0072 1516.1562,-94.6202 1668.5,-76 1680.3602,-74.5504 1693.284,-72.8273 1704.9163,-71.2233"/>
<polygon fill="#191970" stroke="#191970" points="1705.747,-74.6415 1715.1684,-69.795 1704.7811,-67.7085 1705.747,-74.6415"/>
</g>
<!-- Node11 -->
<g id="node12" class="node">
<title>Node11</title>
<polygon fill="#ffffff" stroke="#bfbfbf" points="1211,-56.5 1211,-75.5 1310,-75.5 1310,-56.5 1211,-56.5"/>
<text text-anchor="middle" x="1260.5" y="-63.5" font-family="Helvetica,sans-Serif" font-size="10.00" fill="#000000">AMReX_BCRec.H</text>
</g>
<!-- Node9&#45;&gt;Node11 -->
<g id="edge15" class="edge">
<title>Node9&#45;&gt;Node11</title>
<path fill="none" stroke="#191970" d="M1200.5938,-117.8906C1211.4715,-108.4683 1228.2748,-93.9134 1241.32,-82.6137"/>
<polygon fill="#191970" stroke="#191970" points="1243.9827,-84.9377 1249.2498,-75.7449 1239.3996,-79.6466 1243.9827,-84.9377"/>
</g>
<!-- Node12 -->
<g id="node13" class="node">
<title>Node12</title>
<polygon fill="#ffffff" stroke="#bfbfbf" points="1108,-56.5 1108,-75.5 1193,-75.5 1193,-56.5 1108,-56.5"/>
<text text-anchor="middle" x="1150.5" y="-63.5" font-family="Helvetica,sans-Serif" font-size="10.00" fill="#000000">AMReX_Gpu.H</text>
</g>
<!-- Node9&#45;&gt;Node12 -->
<g id="edge16" class="edge">
<title>Node9&#45;&gt;Node12</title>
<path fill="none" stroke="#191970" d="M1183.4063,-117.8906C1177.7157,-108.917 1169.0728,-95.2879 1162.0726,-84.2491"/>
<polygon fill="#191970" stroke="#191970" points="1164.9909,-82.3155 1156.6797,-75.7449 1159.0793,-86.0644 1164.9909,-82.3155"/>
</g>
<!-- Node13 -->
<g id="node14" class="node">
<title>Node13</title>
<g id="a_node14"><a xlink:href="incflo__enums_8_h.html" target="_top" xlink:title="amr&#45;wind/incflo_enums.H">
<polygon fill="#ffffff" stroke="#000000" points="1366.5,-56.5 1366.5,-75.5 1494.5,-75.5 1494.5,-56.5 1366.5,-56.5"/>
<text text-anchor="middle" x="1430.5" y="-63.5" font-family="Helvetica,sans-Serif" font-size="10.00" fill="#000000">amr&#45;wind/incflo_enums.H</text>
</a>
</g>
</g>
<!-- Node9&#45;&gt;Node13 -->
<g id="edge17" class="edge">
<title>Node9&#45;&gt;Node13</title>
<path fill="none" stroke="#191970" d="M1226.8918,-117.9581C1268.929,-107.2308 1337.276,-89.7895 1383.0446,-78.11"/>
<polygon fill="#191970" stroke="#191970" points="1384.1964,-81.4283 1393.0205,-75.5643 1382.4655,-74.6457 1384.1964,-81.4283"/>
</g>
<!-- Node14 -->
<g id="node15" class="node">
<title>Node14</title>
<g id="a_node15"><a xlink:href="_view_field_8_h.html" target="_top" xlink:title="amr&#45;wind/core/ViewField.H">
<polygon fill="#ffffff" stroke="#000000" points="841.5,-56.5 841.5,-75.5 975.5,-75.5 975.5,-56.5 841.5,-56.5"/>
<text text-anchor="middle" x="908.5" y="-63.5" font-family="Helvetica,sans-Serif" font-size="10.00" fill="#000000">amr&#45;wind/core/ViewField.H</text>
</a>
</g>
</g>
<!-- Node9&#45;&gt;Node14 -->
<g id="edge19" class="edge">
<title>Node9&#45;&gt;Node14</title>
<path fill="none" stroke="#191970" d="M1145.9021,-117.9581C1096.3729,-107.1181 1015.5193,-89.4224 962.1589,-77.7439"/>
<polygon fill="#191970" stroke="#191970" points="962.7173,-74.2833 952.2002,-75.5643 961.2207,-81.1214 962.7173,-74.2833"/>
</g>
<!-- Node14&#45;&gt;Node3 -->
<g id="edge20" class="edge">
<title>Node14&#45;&gt;Node3</title>
<path fill="none" stroke="#191970" d="M891.9523,-56.2455C877.2401,-47.5731 855.5112,-34.7645 838.6495,-24.825"/>
<polygon fill="#191970" stroke="#191970" points="840.2502,-21.7057 829.8581,-19.6427 836.6954,-27.736 840.2502,-21.7057"/>
</g>
<!-- Node14&#45;&gt;Node5 -->
<g id="edge21" class="edge">
<title>Node14&#45;&gt;Node5</title>
<path fill="none" stroke="#191970" d="M841.436,-58.5925C752.06,-48.7206 593.5406,-31.2116 493.1752,-20.1259"/>
<polygon fill="#191970" stroke="#191970" points="493.3693,-16.6261 483.0454,-19.007 492.6007,-23.5838 493.3693,-16.6261"/>
</g>
<!-- Node14&#45;&gt;Node7 -->
<g id="edge22" class="edge">
<title>Node14&#45;&gt;Node7</title>
<path fill="none" stroke="#191970" d="M975.6875,-57.25C1058.0268,-46.5267 1196.426,-28.5027 1276.3814,-18.0899"/>
<polygon fill="#191970" stroke="#191970" points="1276.8465,-21.5589 1286.3107,-16.7967 1275.9424,-14.6176 1276.8465,-21.5589"/>
</g>
<!-- Node15 -->
<g id="node16" class="node">
<title>Node15</title>
<polygon fill="#ffffff" stroke="#bfbfbf" points="861,-.5 861,-19.5 956,-19.5 956,-.5 861,-.5"/>
<text text-anchor="middle" x="908.5" y="-7.5" font-family="Helvetica,sans-Serif" font-size="10.00" fill="#000000">AMReX_Vector.H</text>
</g>
<!-- Node14&#45;&gt;Node15 -->
<g id="edge23" class="edge">
<title>Node14&#45;&gt;Node15</title>
<path fill="none" stroke="#191970" d="M908.5,-56.2455C908.5,-48.9382 908.5,-38.6944 908.5,-29.7046"/>
<polygon fill="#191970" stroke="#191970" points="912.0001,-29.6426 908.5,-19.6427 905.0001,-29.6427 912.0001,-29.6426"/>
</g>
<!-- Node16&#45;&gt;Node3 -->
<g id="edge25" class="edge">
<title>Node16&#45;&gt;Node3</title>
<path fill="none" stroke="#191970" d="M390.9019,-117.8821C403.7452,-101.9794 431.8376,-70.5216 463.5,-56 520.1796,-30.0045 707.8992,-16.271 782.5206,-11.7309"/>
<polygon fill="#191970" stroke="#191970" points="782.9058,-15.2143 792.6806,-11.1274 782.4906,-8.2266 782.9058,-15.2143"/>
</g>
<!-- Node16&#45;&gt;Node5 -->
<g id="edge26" class="edge">
<title>Node16&#45;&gt;Node5</title>
<path fill="none" stroke="#191970" d="M383.3106,-117.7003C383.2094,-103.8453 383.6325,-77.7895 387.5,-56 389.0824,-47.0846 391.8373,-37.466 394.4869,-29.3406"/>
<polygon fill="#191970" stroke="#191970" points="397.8586,-30.2987 397.802,-19.704 391.2393,-28.0215 397.8586,-30.2987"/>
</g>
<!-- Node16&#45;&gt;Node17 -->
<g id="edge27" class="edge">
<title>Node16&#45;&gt;Node17</title>
<path fill="none" stroke="#191970" d="M367.5625,-117.8906C351.0949,-107.9616 325.1742,-92.333 306.0796,-80.8201"/>
<polygon fill="#191970" stroke="#191970" points="307.6966,-77.7081 297.3256,-75.5419 304.0822,-83.7027 307.6966,-77.7081"/>
</g>
<!-- Node18&#45;&gt;Node3 -->
<g id="edge29" class="edge">
<title>Node18&#45;&gt;Node3</title>
<path fill="none" stroke="#191970" d="M632.6213,-117.8845C666.9781,-97.3925 747.6089,-49.3005 788.6123,-24.8442"/>
<polygon fill="#191970" stroke="#191970" points="790.6367,-27.7121 797.4322,-19.5836 787.0509,-21.7002 790.6367,-27.7121"/>
</g>
<!-- Node18&#45;&gt;Node5 -->
<g id="edge30" class="edge">
<title>Node18&#45;&gt;Node5</title>
<path fill="none" stroke="#191970" d="M598.9056,-117.8845C561.1729,-97.2631 472.2981,-48.692 427.819,-24.3837"/>
<polygon fill="#191970" stroke="#191970" points="429.4895,-21.308 419.0359,-19.5836 426.1325,-27.4506 429.4895,-21.308"/>
</g>
<!-- Node18&#45;&gt;Node7 -->
<g id="edge32" class="edge">
<title>Node18&#45;&gt;Node7</title>
<path fill="none" stroke="#191970" d="M663.6617,-117.9636C675.0407,-115.835 687.1822,-113.7059 698.5,-112 839.5842,-90.7351 877.0215,-100.9544 1017.5,-76 1054.4346,-69.439 1062.8484,-63.9918 1099.5,-56 1159.2417,-42.9735 1227.8095,-29.9758 1276.1365,-21.1366"/>
<polygon fill="#191970" stroke="#191970" points="1276.921,-24.5513 1286.1313,-19.315 1275.6658,-17.6648 1276.921,-24.5513"/>
</g>
<!-- Node18&#45;&gt;Node14 -->
<g id="edge31" class="edge">
<title>Node18&#45;&gt;Node14</title>
<path fill="none" stroke="#191970" d="M661.8046,-117.9581C713.3796,-107.0956 797.6408,-89.3488 853.086,-77.6711"/>
<polygon fill="#191970" stroke="#191970" points="854.0251,-81.0502 863.0891,-75.5643 852.5824,-74.2004 854.0251,-81.0502"/>
</g>
<!-- Node18&#45;&gt;Node15 -->
<g id="edge33" class="edge">
<title>Node18&#45;&gt;Node15</title>
<path fill="none" stroke="#191970" d="M640.3956,-117.8845C692.3925,-96.9611 815.8965,-47.2634 875.3698,-23.3315"/>
<polygon fill="#191970" stroke="#191970" points="876.7133,-26.5637 884.6838,-19.5836 874.1001,-20.0697 876.7133,-26.5637"/>
</g>
<!-- Node19 -->
<g id="node20" class="node">
<title>Node19</title>
<polygon fill="#ffffff" stroke="#bfbfbf" points="543.5,-56.5 543.5,-75.5 671.5,-75.5 671.5,-56.5 543.5,-56.5"/>
<text text-anchor="middle" x="607.5" y="-63.5" font-family="Helvetica,sans-Serif" font-size="10.00" fill="#000000">AMReX_PhysBCFunct.H</text>
</g>
<!-- Node18&#45;&gt;Node19 -->
<g id="edge34" class="edge">
<title>Node18&#45;&gt;Node19</title>
<path fill="none" stroke="#191970" d="M615.0938,-117.8906C613.8462,-109.3657 611.9838,-96.6392 610.4156,-85.9235"/>
<polygon fill="#191970" stroke="#191970" points="613.8373,-85.1326 608.9261,-75.7449 606.911,-86.1463 613.8373,-85.1326"/>
</g>
<!-- Node21&#45;&gt;Node2 -->
<g id="edge47" class="edge">
<title>Node21&#45;&gt;Node2</title>
<path fill="none" stroke="#191970" d="M578.6189,-246.2967C586.0309,-236.1618 595.8,-222.804 603.561,-212.1921"/>
<polygon fill="#191970" stroke="#191970" points="606.4339,-214.1928 609.512,-204.055 600.7837,-210.0606 606.4339,-214.1928"/>
</g>
<!-- Node21&#45;&gt;Node5 -->
<g id="edge45" class="edge">
<title>Node21&#45;&gt;Node5</title>
<path fill="none" stroke="#191970" d="M497.7453,-254.0615C423.575,-242.5897 307.396,-213.8833 236.5,-143 208.1347,-114.6398 187.7168,-87.5386 212.5,-56 225.2975,-39.7142 269.2248,-28.474 311.5112,-21.1833"/>
<polygon fill="#191970" stroke="#191970" points="312.3398,-24.5938 321.6328,-19.5054 311.195,-17.688 312.3398,-24.5938"/>
</g>
<!-- Node21&#45;&gt;Node6 -->
<g id="edge46" class="edge">
<title>Node21&#45;&gt;Node6</title>
<path fill="none" stroke="#191970" d="M497.9595,-258.5141C394.9556,-253.1656 207.5351,-239.6167 147.5,-210 117.6632,-195.2808 92.5071,-165.0374 78.4783,-145.5427"/>
<polygon fill="#191970" stroke="#191970" points="81.2569,-143.4079 72.6759,-137.1937 75.5087,-147.4028 81.2569,-143.4079"/>
</g>
<!-- Node21&#45;&gt;Node7 -->
<g id="edge48" class="edge">
<title>Node21&#45;&gt;Node7</title>
<path fill="none" stroke="#191970" d="M637.2438,-260.8238C804.1295,-258.5962 1239.4533,-249.1785 1600.5,-210 1779.2667,-190.6014 1834.2896,-213.9884 1999.5,-143 2044.9896,-123.4538 2066.3977,-120.304 2088.5,-76 2092.4681,-68.046 2094.59,-62.4749 2088.5,-56 2065.0588,-31.0771 1576.2218,-16.1073 1400.6225,-11.5175"/>
<polygon fill="#191970" stroke="#191970" points="1400.5949,-8.0157 1390.5076,-11.2556 1400.4136,-15.0134 1400.5949,-8.0157"/>
</g>
<!-- Node22 -->
<g id="node23" class="node">
<title>Node22</title>
<g id="a_node23"><a xlink:href="_factory_8_h.html" target="_top" xlink:title="amr&#45;wind/core/Factory.H">
<polygon fill="#ffffff" stroke="#000000" points="1799,-118 1799,-137 1924,-137 1924,-118 1799,-118"/>
<text text-anchor="middle" x="1861.5" y="-125" font-family="Helvetica,sans-Serif" font-size="10.00" fill="#000000">amr&#45;wind/core/Factory.H</text>
</a>
</g>
</g>
<!-- Node21&#45;&gt;Node22 -->
<g id="edge39" class="edge">
<title>Node21&#45;&gt;Node22</title>
<path fill="none" stroke="#191970" d="M637.3277,-259.2747C825.6441,-253.0191 1341.0899,-234.1481 1509.5,-210 1623.0298,-193.7211 1753.8233,-158.6501 1819.3966,-139.9069"/>
<polygon fill="#191970" stroke="#191970" points="1820.7053,-143.1724 1829.348,-137.0443 1818.7702,-136.4452 1820.7053,-143.1724"/>
</g>
<!-- Node22&#45;&gt;Node4 -->
<g id="edge41" class="edge">
<title>Node22&#45;&gt;Node4</title>
<path fill="none" stroke="#191970" d="M1813.8681,-117.9581C1757.6247,-106.6911 1664.409,-88.0176 1606.3783,-76.3926"/>
<polygon fill="#191970" stroke="#191970" points="1606.8144,-72.9104 1596.3217,-74.378 1605.4394,-79.7741 1606.8144,-72.9104"/>
</g>
<!-- Node22&#45;&gt;Node10 -->
<g id="edge40" class="edge">
<title>Node22&#45;&gt;Node10</title>
<path fill="none" stroke="#191970" d="M1842.75,-117.8906C1823.024,-107.7811 1791.7688,-91.7628 1769.2,-80.1962"/>
<polygon fill="#191970" stroke="#191970" points="1770.614,-76.9881 1760.1183,-75.5419 1767.4213,-83.2176 1770.614,-76.9881"/>
</g>
<!-- Node23 -->
<g id="node24" class="node">
<title>Node23</title>
<polygon fill="#ffffff" stroke="#bfbfbf" points="2009.5,-56.5 2009.5,-75.5 2063.5,-75.5 2063.5,-56.5 2009.5,-56.5"/>
<text text-anchor="middle" x="2036.5" y="-63.5" font-family="Helvetica,sans-Serif" font-size="10.00" fill="#000000">iostream</text>
</g>
<!-- Node22&#45;&gt;Node23 -->
<g id="edge42" class="edge">
<title>Node22&#45;&gt;Node23</title>
<path fill="none" stroke="#191970" d="M1888.8438,-117.8906C1918.6382,-107.42 1966.4685,-90.6111 1999.5808,-78.9745"/>
<polygon fill="#191970" stroke="#191970" points="2001.0743,-82.1595 2009.3483,-75.5419 1998.7534,-75.5554 2001.0743,-82.1595"/>
</g>
<!-- Node24 -->
<g id="node25" class="node">
<title>Node24</title>
<polygon fill="#ffffff" stroke="#bfbfbf" points="1824,-56.5 1824,-75.5 1911,-75.5 1911,-56.5 1824,-56.5"/>
<text text-anchor="middle" x="1867.5" y="-63.5" font-family="Helvetica,sans-Serif" font-size="10.00" fill="#000000">AMReX_Print.H</text>
</g>
<!-- Node22&#45;&gt;Node24 -->
<g id="edge43" class="edge">
<title>Node22&#45;&gt;Node24</title>
<path fill="none" stroke="#191970" d="M1862.4375,-117.8906C1863.2692,-109.3657 1864.5108,-96.6392 1865.5562,-85.9235"/>
<polygon fill="#191970" stroke="#191970" points="1869.0617,-86.0375 1866.5493,-75.7449 1862.0947,-85.3577 1869.0617,-86.0375"/>
</g>
<!-- Node25 -->
<g id="node26" class="node">
<title>Node25</title>
<polygon fill="#ffffff" stroke="#bfbfbf" points="1929.5,-56.5 1929.5,-75.5 1991.5,-75.5 1991.5,-56.5 1929.5,-56.5"/>
<text text-anchor="middle" x="1960.5" y="-63.5" font-family="Helvetica,sans-Serif" font-size="10.00" fill="#000000">AMReX.H</text>
</g>
<!-- Node22&#45;&gt;Node25 -->
<g id="edge44" class="edge">
<title>Node22&#45;&gt;Node25</title>
<path fill="none" stroke="#191970" d="M1876.9688,-117.8906C1892.9521,-107.9616 1918.1103,-92.333 1936.6433,-80.8201"/>
<polygon fill="#191970" stroke="#191970" points="1938.4924,-83.7918 1945.1399,-75.5419 1934.7985,-77.8457 1938.4924,-83.7918"/>
</g>
<!-- Node26&#45;&gt;Node2 -->
<g id="edge55" class="edge">
<title>Node26&#45;&gt;Node2</title>
<path fill="none" stroke="#191970" d="M1184.3897,-255.6714C1074.1735,-243.7992 823.2637,-216.772 695.0657,-202.9629"/>
<polygon fill="#191970" stroke="#191970" points="695.243,-199.4618 684.9257,-201.8706 694.4933,-206.4215 695.243,-199.4618"/>
</g>
<!-- Node26&#45;&gt;Node20 -->
<g id="edge50" class="edge">
<title>Node26&#45;&gt;Node20</title>
<path fill="none" stroke="#191970" d="M1204.5066,-251.9705C1119.7214,-228.2022 898.946,-166.3112 804.4533,-139.8216"/>
<polygon fill="#191970" stroke="#191970" points="805.2134,-136.3999 794.6399,-137.0706 803.3239,-143.14 805.2134,-136.3999"/>
</g>
<!-- Node27 -->
<g id="node28" class="node">
<title>Node27</title>
<g id="a_node28"><a xlink:href="_sim_time_8_h.html" target="_top" xlink:title="amr&#45;wind/core/SimTime.H">
<polygon fill="#ffffff" stroke="#000000" points="2373,-185 2373,-204 2504,-204 2504,-185 2373,-185"/>
<text text-anchor="middle" x="2438.5" y="-192" font-family="Helvetica,sans-Serif" font-size="10.00" fill="#000000">amr&#45;wind/core/SimTime.H</text>
</a>
</g>
</g>
<!-- Node26&#45;&gt;Node27 -->
<g id="edge51" class="edge">
<title>Node26&#45;&gt;Node27</title>
<path fill="none" stroke="#191970" d="M1292.6565,-259.5611C1445.7977,-253.9118 1895.0298,-236.191 2267.5,-210 2298.6215,-207.8116 2332.8774,-204.8219 2362.5031,-202.0518"/>
<polygon fill="#191970" stroke="#191970" points="2363.1491,-205.5065 2372.7763,-201.0829 2362.4918,-198.5375 2363.1491,-205.5065"/>
</g>
<!-- Node31 -->
<g id="node32" class="node">
<title>Node31</title>
<g id="a_node32"><a xlink:href="_p_d_e_base_8_h.html" target="_top" xlink:title="amr&#45;wind/equation_systems\l/PDEBase.H">
<polygon fill="#ffffff" stroke="#000000" points="1361,-179.5 1361,-209.5 1500,-209.5 1500,-179.5 1361,-179.5"/>
<text text-anchor="start" x="1369" y="-197.5" font-family="Helvetica,sans-Serif" font-size="10.00" fill="#000000">amr&#45;wind/equation_systems</text>
<text text-anchor="middle" x="1430.5" y="-186.5" font-family="Helvetica,sans-Serif" font-size="10.00" fill="#000000">/PDEBase.H</text>
</a>
</g>
</g>
<!-- Node26&#45;&gt;Node31 -->
<g id="edge56" class="edge">
<title>Node26&#45;&gt;Node31</title>
<path fill="none" stroke="#191970" d="M1266.0089,-251.9005C1295.0116,-241.7798 1341.4167,-225.5864 1377.555,-212.9756"/>
<polygon fill="#191970" stroke="#191970" points="1379.1641,-216.1211 1387.4526,-209.5218 1376.8577,-209.512 1379.1641,-216.1211"/>
</g>
<!-- Node35 -->
<g id="node36" class="node">
<title>Node35</title>
<g id="a_node36"><a xlink:href="_physics_8_h.html" target="_top" xlink:title="amr&#45;wind/core/Physics.H">
<polygon fill="#ffffff" stroke="#000000" points="2131,-185 2131,-204 2258,-204 2258,-185 2131,-185"/>
<text text-anchor="middle" x="2194.5" y="-192" font-family="Helvetica,sans-Serif" font-size="10.00" fill="#000000">amr&#45;wind/core/Physics.H</text>
</a>
</g>
</g>
<!-- Node26&#45;&gt;Node35 -->
<g id="edge68" class="edge">
<title>Node26&#45;&gt;Node35</title>
<path fill="none" stroke="#191970" d="M1292.6913,-260.9094C1430.6911,-258.8454 1806.3948,-249.7149 2116.5,-210 2124.8665,-208.9285 2133.6821,-207.4857 2142.2558,-205.9097"/>
<polygon fill="#191970" stroke="#191970" points="2143.0042,-209.3301 2152.1682,-204.0129 2141.6885,-202.4549 2143.0042,-209.3301"/>
</g>
<!-- Node28 -->
<g id="node29" class="node">
<title>Node28</title>
<polygon fill="#ffffff" stroke="#bfbfbf" points="2452,-118 2452,-137 2545,-137 2545,-118 2452,-118"/>
<text text-anchor="middle" x="2498.5" y="-125" font-family="Helvetica,sans-Serif" font-size="10.00" fill="#000000">AMReX_REAL.H</text>
</g>
<!-- Node27&#45;&gt;Node28 -->
<g id="edge52" class="edge">
<title>Node27&#45;&gt;Node28</title>
<path fill="none" stroke="#191970" d="M2447.0965,-184.9005C2456.453,-174.4525 2471.6052,-157.5325 2483.0401,-144.7635"/>
<polygon fill="#191970" stroke="#191970" points="2485.8555,-146.8661 2489.9194,-137.0817 2480.6408,-142.1963 2485.8555,-146.8661"/>
</g>
<!-- Node29 -->
<g id="node30" class="node">
<title>Node29</title>
<polygon fill="#ffffff" stroke="#bfbfbf" points="2563.5,-118 2563.5,-137 2689.5,-137 2689.5,-118 2563.5,-118"/>
<text text-anchor="middle" x="2626.5" y="-125" font-family="Helvetica,sans-Serif" font-size="10.00" fill="#000000">AMReX_GpuQualifiers.H</text>
</g>
<!-- Node27&#45;&gt;Node29 -->
<g id="edge53" class="edge">
<title>Node27&#45;&gt;Node29</title>
<path fill="none" stroke="#191970" d="M2465.4358,-184.9005C2498.1033,-173.2584 2553.3188,-153.5805 2589.8425,-140.5641"/>
<polygon fill="#191970" stroke="#191970" points="2591.3694,-143.7356 2599.6142,-137.0817 2589.0195,-137.1418 2591.3694,-143.7356"/>
</g>
<!-- Node30 -->
<g id="node31" class="node">
<title>Node30</title>
<polygon fill="#ffffff" stroke="#bfbfbf" points="2323.5,-118 2323.5,-137 2433.5,-137 2433.5,-118 2323.5,-118"/>
<text text-anchor="middle" x="2378.5" y="-125" font-family="Helvetica,sans-Serif" font-size="10.00" fill="#000000">AMReX_Extension.H</text>
</g>
<!-- Node27&#45;&gt;Node30 -->
<g id="edge54" class="edge">
<title>Node27&#45;&gt;Node30</title>
<path fill="none" stroke="#191970" d="M2429.9035,-184.9005C2420.547,-174.4525 2405.3948,-157.5325 2393.9599,-144.7635"/>
<polygon fill="#191970" stroke="#191970" points="2396.3592,-142.1963 2387.0806,-137.0817 2391.1445,-146.8661 2396.3592,-142.1963"/>
</g>
<!-- Node31&#45;&gt;Node3 -->
<g id="edge57" class="edge">
<title>Node31&#45;&gt;Node3</title>
<path fill="none" stroke="#191970" d="M1360.8424,-189.857C1219.9297,-179.0486 908.0143,-147.489 832.5,-76 819.9418,-64.1112 815.5146,-44.5101 814.0362,-29.751"/>
<polygon fill="#191970" stroke="#191970" points="817.5195,-29.3751 813.3945,-19.6163 810.5335,-29.8175 817.5195,-29.3751"/>
</g>
<!-- Node31&#45;&gt;Node5 -->
<g id="edge66" class="edge">
<title>Node31&#45;&gt;Node5</title>
<path fill="none" stroke="#191970" d="M1360.9856,-193.3436C1163.5946,-189.6641 609.1006,-176.4405 534.5,-143 478.8422,-118.0508 433.5997,-58.7052 413.2039,-28.4383"/>
<polygon fill="#191970" stroke="#191970" points="415.8887,-26.1504 407.4733,-19.7137 410.0379,-29.9934 415.8887,-26.1504"/>
</g>
<!-- Node31&#45;&gt;Node13 -->
<g id="edge67" class="edge">
<title>Node31&#45;&gt;Node13</title>
<path fill="none" stroke="#191970" d="M1430.5,-179.2548C1430.5,-155.9744 1430.5,-111.5607 1430.5,-85.8117"/>
<polygon fill="#191970" stroke="#191970" points="1434.0001,-85.7358 1430.5,-75.7358 1427.0001,-85.7358 1434.0001,-85.7358"/>
</g>
<!-- Node31&#45;&gt;Node22 -->
<g id="edge58" class="edge">
<title>Node31&#45;&gt;Node22</title>
<path fill="none" stroke="#191970" d="M1500.1573,-185.0633C1570.6946,-175.3096 1682.8636,-159.2566 1779.5,-143 1787.1349,-141.7156 1795.1553,-140.2921 1803.0676,-138.8434"/>
<polygon fill="#191970" stroke="#191970" points="1803.8001,-142.2674 1812.9949,-137.0036 1802.5245,-135.3846 1803.8001,-142.2674"/>
</g>
<!-- Node32 -->
<g id="node33" class="node">
<title>Node32</title>
<g id="a_node33"><a xlink:href="_coll_mgr_8_h.html" target="_top" xlink:title="amr&#45;wind/core/CollMgr.H">
<polygon fill="#ffffff" stroke="#000000" points="1645,-118 1645,-137 1770,-137 1770,-118 1645,-118"/>
<text text-anchor="middle" x="1707.5" y="-125" font-family="Helvetica,sans-Serif" font-size="10.00" fill="#000000">amr&#45;wind/core/CollMgr.H</text>
</a>
</g>
</g>
<!-- Node31&#45;&gt;Node32 -->
<g id="edge59" class="edge">
<title>Node31&#45;&gt;Node32</title>
<path fill="none" stroke="#191970" d="M1492.6642,-179.4639C1542.7442,-167.3507 1612.1889,-150.5536 1658.4177,-139.3719"/>
<polygon fill="#191970" stroke="#191970" points="1659.3052,-142.7582 1668.202,-137.0053 1657.6594,-135.9544 1659.3052,-142.7582"/>
</g>
<!-- Node33 -->
<g id="node34" class="node">
<title>Node33</title>
<g id="a_node34"><a xlink:href="_p_d_e_fields_8_h.html" target="_top" xlink:title="amr&#45;wind/equation_systems\l/PDEFields.H">
<polygon fill="#ffffff" stroke="#000000" points="1465,-112.5 1465,-142.5 1604,-142.5 1604,-112.5 1465,-112.5"/>
<text text-anchor="start" x="1473" y="-130.5" font-family="Helvetica,sans-Serif" font-size="10.00" fill="#000000">amr&#45;wind/equation_systems</text>
<text text-anchor="middle" x="1534.5" y="-119.5" font-family="Helvetica,sans-Serif" font-size="10.00" fill="#000000">/PDEFields.H</text>
</a>
</g>
</g>
<!-- Node31&#45;&gt;Node33 -->
<g id="edge64" class="edge">
<title>Node31&#45;&gt;Node33</title>
<path fill="none" stroke="#191970" d="M1453.8396,-179.4639C1468.0574,-170.3044 1486.4323,-158.4667 1502.0522,-148.4038"/>
<polygon fill="#191970" stroke="#191970" points="1504.3674,-151.0758 1510.8784,-142.7177 1500.5764,-145.1912 1504.3674,-151.0758"/>
</g>
<!-- Node32&#45;&gt;Node3 -->
<g id="edge60" class="edge">
<title>Node32&#45;&gt;Node3</title>
<path fill="none" stroke="#191970" d="M1705.4168,-117.7674C1701.403,-101.6956 1690.9338,-69.9952 1668.5,-56 1591.5001,-7.9639 942.2688,-33.342 852.5,-20 849.8057,-19.5996 847.028,-19.0893 844.2547,-18.512"/>
<polygon fill="#191970" stroke="#191970" points="844.9215,-15.0735 834.3871,-16.2035 843.3269,-21.8895 844.9215,-15.0735"/>
</g>
<!-- Node32&#45;&gt;Node4 -->
<g id="edge62" class="edge">
<title>Node32&#45;&gt;Node4</title>
<path fill="none" stroke="#191970" d="M1683.5938,-117.8906C1657.7695,-107.5103 1616.4473,-90.9004 1587.5295,-79.2766"/>
<polygon fill="#191970" stroke="#191970" points="1588.8222,-76.0241 1578.2384,-75.5419 1586.2115,-82.519 1588.8222,-76.0241"/>
</g>
<!-- Node32&#45;&gt;Node10 -->
<g id="edge61" class="edge">
<title>Node32&#45;&gt;Node10</title>
<path fill="none" stroke="#191970" d="M1712.8125,-117.8906C1717.7239,-109.0068 1725.1579,-95.5601 1731.2275,-84.5811"/>
<polygon fill="#191970" stroke="#191970" points="1734.3373,-86.1899 1736.1126,-75.7449 1728.2112,-82.8031 1734.3373,-86.1899"/>
</g>
<!-- Node32&#45;&gt;Node15 -->
<g id="edge63" class="edge">
<title>Node32&#45;&gt;Node15</title>
<path fill="none" stroke="#191970" d="M1728.6982,-117.8368C1756.0176,-104.1441 1797.6303,-78.2798 1776.5,-56 1762.5271,-41.267 1158.1762,-18.7813 966.3127,-12.0022"/>
<polygon fill="#191970" stroke="#191970" points="966.2647,-8.4984 956.1476,-11.6441 966.0182,-15.4941 966.2647,-8.4984"/>
</g>
<!-- Node34 -->
<g id="node35" class="node">
<title>Node34</title>
<polygon fill="#ffffff" stroke="#bfbfbf" points="1614,-56.5 1614,-75.5 1659,-75.5 1659,-56.5 1614,-56.5"/>
<text text-anchor="middle" x="1636.5" y="-63.5" font-family="Helvetica,sans-Serif" font-size="10.00" fill="#000000">iosfwd</text>
</g>
<!-- Node33&#45;&gt;Node34 -->
<g id="edge65" class="edge">
<title>Node33&#45;&gt;Node34</title>
<path fill="none" stroke="#191970" d="M1559.452,-112.4554C1575.4259,-102.8241 1596.0602,-90.3828 1611.9543,-80.7996"/>
<polygon fill="#191970" stroke="#191970" points="1613.937,-83.6912 1620.6936,-75.5303 1610.3226,-77.6965 1613.937,-83.6912"/>
</g>
<!-- Node35&#45;&gt;Node7 -->
<g id="edge71" class="edge">
<title>Node35&#45;&gt;Node7</title>
<path fill="none" stroke="#191970" d="M2192.3401,-184.6575C2185.7831,-155.7448 2165.2228,-72.0902 2143.5,-56 2113.7781,-33.9848 1584.3077,-16.9636 1400.6356,-11.6989"/>
<polygon fill="#191970" stroke="#191970" points="1400.6905,-8.1991 1390.5949,-11.4129 1400.4911,-15.1963 1400.6905,-8.1991"/>
</g>
<!-- Node35&#45;&gt;Node22 -->
<g id="edge69" class="edge">
<title>Node35&#45;&gt;Node22</title>
<path fill="none" stroke="#191970" d="M2147.1429,-184.9717C2087.0617,-172.8833 1983.5156,-152.0497 1918.974,-139.0638"/>
<polygon fill="#191970" stroke="#191970" points="1919.457,-135.5909 1908.9631,-137.0496 1918.0762,-142.4534 1919.457,-135.5909"/>
</g>
<!-- Node35&#45;&gt;Node32 -->
<g id="edge70" class="edge">
<title>Node35&#45;&gt;Node32</title>
<path fill="none" stroke="#191970" d="M2130.6639,-187.5176C2050.8965,-178.5272 1910.2946,-161.8049 1790.5,-143 1782.5725,-141.7556 1774.2401,-140.3346 1766.0385,-138.8695"/>
<polygon fill="#191970" stroke="#191970" points="1766.5999,-135.4143 1756.1352,-137.0694 1765.348,-142.3014 1766.5999,-135.4143"/>
</g>
<!-- Node36 -->
<g id="node37" class="node">
<title>Node36</title>
<polygon fill="#ffffff" stroke="#bfbfbf" points="2195.5,-118 2195.5,-137 2305.5,-137 2305.5,-118 2195.5,-118"/>
<text text-anchor="middle" x="2250.5" y="-125" font-family="Helvetica,sans-Serif" font-size="10.00" fill="#000000">AMReX_Geometry.H</text>
</g>
<!-- Node35&#45;&gt;Node36 -->
<g id="edge72" class="edge">
<title>Node35&#45;&gt;Node36</title>
<path fill="none" stroke="#191970" d="M2202.5234,-184.9005C2211.2561,-174.4525 2225.3982,-157.5325 2236.0708,-144.7635"/>
<polygon fill="#191970" stroke="#191970" points="2238.7638,-146.9991 2242.4914,-137.0817 2233.3928,-142.5099 2238.7638,-146.9991"/>
</g>
</g>
</svg>
        <g id="navigator" transform="translate(0 0)" fill="#404254">
                <rect fill="#f2f5e9" fill-opacity="0.5" stroke="#606060" stroke-width=".5" x="0" y="0" width="60" height="60"/>
                <use id="zoomplus" xlink:href="#zoomPlus" x="17" y="9" onmousedown="handleZoom(evt,'in')"/>
                <use id="zoomminus" xlink:href="#zoomMin" x="42" y="9" onmousedown="handleZoom(evt,'out')"/>
                <use id="reset" xlink:href="#resetDef" x="30" y="36" onmousedown="handleReset()"/>
                <g id="arrowUp" xlink:href="#dirArrow" transform="translate(30 24)" onmousedown="handlePan(0,-1)">
                  <use xlink:href="#rim" fill="#404040">
                        <set attributeName="fill" to="#808080" begin="arrowUp.mouseover" end="arrowUp.mouseout"/>
                  </use>
                  <path fill="none" stroke="white" stroke-width="1.5" d="M0,-3.0v7 M-2.5,-0.5L0,-3.0L2.5,-0.5"/>
                </g>
                <g id="arrowRight" xlink:href="#dirArrow" transform="rotate(90) translate(36 -43)" onmousedown="handlePan(1,0)">
                  <use xlink:href="#rim" fill="#404040">
                        <set attributeName="fill" to="#808080" begin="arrowRight.mouseover" end="arrowRight.mouseout"/>
                  </use>
                  <path fill="none" stroke="white" stroke-width="1.5" d="M0,-3.0v7 M-2.5,-0.5L0,-3.0L2.5,-0.5"/>
                </g>
                <g id="arrowDown" xlink:href="#dirArrow" transform="rotate(180) translate(-30 -48)" onmousedown="handlePan(0,1)">
                  <use xlink:href="#rim" fill="#404040">
                        <set attributeName="fill" to="#808080" begin="arrowDown.mouseover" end="arrowDown.mouseout"/>
                  </use>
                  <path fill="none" stroke="white" stroke-width="1.5" d="M0,-3.0v7 M-2.5,-0.5L0,-3.0L2.5,-0.5"/>
                </g>
                <g id="arrowLeft" xlink:href="#dirArrow" transform="rotate(270) translate(-36 17)" onmousedown="handlePan(-1,0)">
                  <use xlink:href="#rim" fill="#404040">
                        <set attributeName="fill" to="#808080" begin="arrowLeft.mouseover" end="arrowLeft.mouseout"/>
                  </use>
                  <path fill="none" stroke="white" stroke-width="1.5" d="M0,-3.0v7 M-2.5,-0.5L0,-3.0L2.5,-0.5"/>
                </g>
        </g>
        <svg viewBox="0 0 15 15" width="100%" height="30px" preserveAspectRatio="xMaxYMin meet">
         <g id="arrow_out" transform="scale(0.3 0.3)">
          <a xlink:href="_density_buoyancy_8cpp__incl_org.svg" target="_base">
           <rect id="button" ry="5" rx="5" y="6" x="6" height="38" width="38"
                fill="#f2f5e9" fill-opacity="0.5" stroke="#606060" stroke-width="1.0"/>
           <path id="arrow"
             d="M 11.500037,31.436501 C 11.940474,20.09759 22.043105,11.32322 32.158766,21.979434 L 37.068811,17.246167 C 37.068811,17.246167 37.088388,32 37.088388,32 L 22.160133,31.978069 C 22.160133,31.978069 26.997745,27.140456 26.997745,27.140456 C 18.528582,18.264221 13.291696,25.230495 11.500037,31.436501 z"
             style="fill:#404040;"/>
          </a>
         </g>
        </svg>
</svg>
