<?xml version="1.0" encoding="UTF-8" standalone="no"?>
<!DOCTYPE svg PUBLIC "-//W3C//DTD SVG 1.1//EN"
 "http://www.w3.org/Graphics/SVG/1.1/DTD/svg11.dtd">
<!-- Generated by graphviz version 2.40.1 (20161225.0304)
 -->
<!-- Title: DensityBuoyancy.H Pages: 1 -->
<svg width="1885pt" height="319pt"
 viewBox="0.00 0.00 1884.50 319.00" xmlns="http://www.w3.org/2000/svg" xmlns:xlink="http://www.w3.org/1999/xlink">
<g id="graph0" class="graph" transform="scale(1 1) rotate(0) translate(4 315)">
<title>DensityBuoyancy.H</title>
<polygon fill="#ffffff" stroke="transparent" points="-4,4 -4,-315 1880.5,-315 1880.5,4 -4,4"/>
<!-- Node0 -->
<g id="node1" class="node">
<title>Node0</title>
<polygon fill="#bfbfbf" stroke="#000000" points="970.5,-291.5 970.5,-310.5 1074.5,-310.5 1074.5,-291.5 970.5,-291.5"/>
<text text-anchor="middle" x="1022.5" y="-298.5" font-family="Helvetica,sans-Serif" font-size="10.00" fill="#000000">DensityBuoyancy.H</text>
</g>
<!-- Node1 -->
<g id="node2" class="node">
<title>Node1</title>
<g id="a_node2"><a xlink:href="_field_repo_8_h.html" target="_top" xlink:title="amr&#45;wind/core/FieldRepo.H">
<polygon fill="#ffffff" stroke="#000000" points="591.5,-168.5 591.5,-187.5 727.5,-187.5 727.5,-168.5 591.5,-168.5"/>
<text text-anchor="middle" x="659.5" y="-175.5" font-family="Helvetica,sans-Serif" font-size="10.00" fill="#000000">amr&#45;wind/core/FieldRepo.H</text>
</a>
</g>
</g>
<!-- Node0&#45;&gt;Node1 -->
<g id="edge1" class="edge">
<title>Node0&#45;&gt;Node1</title>
<path fill="none" stroke="#191970" d="M994.3181,-291.4507C929.7251,-269.5639 770.9276,-215.7565 697.6655,-190.9321"/>
<polygon fill="#191970" stroke="#191970" points="698.5086,-187.5224 687.9143,-187.628 696.2621,-194.1521 698.5086,-187.5224"/>
</g>
<!-- Node20 -->
<g id="node21" class="node">
<title>Node20</title>
<g id="a_node21"><a xlink:href="_momentum_source_8_h.html" target="_top" xlink:title="amr&#45;wind/equation_systems\l/icns/MomentumSource.H">
<polygon fill="#ffffff" stroke="#000000" points="1159,-224.5 1159,-254.5 1298,-254.5 1298,-224.5 1159,-224.5"/>
<text text-anchor="start" x="1167" y="-242.5" font-family="Helvetica,sans-Serif" font-size="10.00" fill="#000000">amr&#45;wind/equation_systems</text>
<text text-anchor="middle" x="1228.5" y="-231.5" font-family="Helvetica,sans-Serif" font-size="10.00" fill="#000000">/icns/MomentumSource.H</text>
</a>
</g>
</g>
<!-- Node0&#45;&gt;Node20 -->
<g id="edge37" class="edge">
<title>Node0&#45;&gt;Node20</title>
<path fill="none" stroke="#191970" d="M1054.6875,-291.3906C1085.0195,-282.3352 1131.2311,-268.539 1168.382,-257.4479"/>
<polygon fill="#191970" stroke="#191970" points="1169.5259,-260.7591 1178.1067,-254.5446 1167.5234,-254.0516 1169.5259,-260.7591"/>
</g>
<!-- Node2 -->
<g id="node3" class="node">
<title>Node2</title>
<polygon fill="#ffffff" stroke="#bfbfbf" points="219,-.5 219,-19.5 260,-19.5 260,-.5 219,-.5"/>
<text text-anchor="middle" x="239.5" y="-7.5" font-family="Helvetica,sans-Serif" font-size="10.00" fill="#000000">string</text>
</g>
<!-- Node1&#45;&gt;Node2 -->
<g id="edge2" class="edge">
<title>Node1&#45;&gt;Node2</title>
<path fill="none" stroke="#191970" d="M591.248,-175.9973C466.2446,-171.7011 205.4892,-159.6521 119.5,-132 73.2052,-117.1127 49.5261,-118.2799 25.5,-76 21.1083,-68.2718 19.914,-62.9144 25.5,-56 48.1771,-27.9304 154.9838,-16.1918 208.615,-12.0019"/>
<polygon fill="#191970" stroke="#191970" points="209.1832,-15.4695 218.8975,-11.2405 208.6663,-8.4886 209.1832,-15.4695"/>
</g>
<!-- Node3 -->
<g id="node4" class="node">
<title>Node3</title>
<polygon fill="#ffffff" stroke="#bfbfbf" points="1179,-56.5 1179,-75.5 1262,-75.5 1262,-56.5 1179,-56.5"/>
<text text-anchor="middle" x="1220.5" y="-63.5" font-family="Helvetica,sans-Serif" font-size="10.00" fill="#000000">unordered_map</text>
</g>
<!-- Node1&#45;&gt;Node3 -->
<g id="edge3" class="edge">
<title>Node1&#45;&gt;Node3</title>
<path fill="none" stroke="#191970" d="M727.5845,-168.9973C787.1568,-160.7191 875.898,-147.4159 952.5,-132 1031.7166,-116.0579 1122.8582,-92.4804 1175.8414,-78.2442"/>
<polygon fill="#191970" stroke="#191970" points="1176.8534,-81.5964 1185.5967,-75.6126 1175.0302,-74.838 1176.8534,-81.5964"/>
</g>
<!-- Node4 -->
<g id="node5" class="node">
<title>Node4</title>
<g id="a_node5"><a xlink:href="_field_desc_types_8_h.html" target="_top" xlink:title="amr&#45;wind/core/FieldDescTypes.H">
<polygon fill="#ffffff" stroke="#000000" points="512,-.5 512,-19.5 675,-19.5 675,-.5 512,-.5"/>
<text text-anchor="middle" x="593.5" y="-7.5" font-family="Helvetica,sans-Serif" font-size="10.00" fill="#000000">amr&#45;wind/core/FieldDescTypes.H</text>
</a>
</g>
</g>
<!-- Node1&#45;&gt;Node4 -->
<g id="edge4" class="edge">
<title>Node1&#45;&gt;Node4</title>
<path fill="none" stroke="#191970" d="M645.5919,-168.369C634.7334,-160.0516 620.2329,-147.0247 612.5,-132 595.5715,-99.1088 592.8322,-55.1231 592.8447,-29.9468"/>
<polygon fill="#191970" stroke="#191970" points="596.3464,-29.8638 593.003,-19.8104 589.3472,-29.7545 596.3464,-29.8638"/>
</g>
<!-- Node5 -->
<g id="node6" class="node">
<title>Node5</title>
<g id="a_node6"><a xlink:href="_field_utils_8_h.html" target="_top" xlink:title="amr&#45;wind/core/FieldUtils.H">
<polygon fill="#ffffff" stroke="#000000" points="1319,-112.5 1319,-131.5 1452,-131.5 1452,-112.5 1319,-112.5"/>
<text text-anchor="middle" x="1385.5" y="-119.5" font-family="Helvetica,sans-Serif" font-size="10.00" fill="#000000">amr&#45;wind/core/FieldUtils.H</text>
</a>
</g>
</g>
<!-- Node1&#45;&gt;Node5 -->
<g id="edge5" class="edge">
<title>Node1&#45;&gt;Node5</title>
<path fill="none" stroke="#191970" d="M727.8565,-174.2882C845.7144,-167.6283 1094.7163,-152.4165 1304.5,-132 1305.8089,-131.8726 1307.1294,-131.7413 1308.4588,-131.6066"/>
<polygon fill="#191970" stroke="#191970" points="1309.2091,-135.0468 1318.785,-130.5133 1308.4721,-128.0857 1309.2091,-135.0468"/>
</g>
<!-- Node6 -->
<g id="node7" class="node">
<title>Node6</title>
<polygon fill="#ffffff" stroke="#bfbfbf" points="1168.5,-.5 1168.5,-19.5 1272.5,-19.5 1272.5,-.5 1168.5,-.5"/>
<text text-anchor="middle" x="1220.5" y="-7.5" font-family="Helvetica,sans-Serif" font-size="10.00" fill="#000000">AMReX_MultiFab.H</text>
</g>
<!-- Node1&#45;&gt;Node6 -->
<g id="edge35" class="edge">
<title>Node1&#45;&gt;Node6</title>
<path fill="none" stroke="#191970" d="M727.6806,-171.7005C880.0459,-156.9203 1237.4982,-118.0711 1271.5,-76 1285.3922,-58.8109 1264.5919,-38.6585 1245.528,-25.1859"/>
<polygon fill="#191970" stroke="#191970" points="1247.2808,-22.1476 1237.0219,-19.5005 1243.3909,-27.9673 1247.2808,-22.1476"/>
</g>
<!-- Node8 -->
<g id="node9" class="node">
<title>Node8</title>
<g id="a_node9"><a xlink:href="_field_8_h.html" target="_top" xlink:title="amr&#45;wind/core/Field.H">
<polygon fill="#ffffff" stroke="#000000" points="830,-112.5 830,-131.5 943,-131.5 943,-112.5 830,-112.5"/>
<text text-anchor="middle" x="886.5" y="-119.5" font-family="Helvetica,sans-Serif" font-size="10.00" fill="#000000">amr&#45;wind/core/Field.H</text>
</a>
</g>
</g>
<!-- Node1&#45;&gt;Node8 -->
<g id="edge9" class="edge">
<title>Node1&#45;&gt;Node8</title>
<path fill="none" stroke="#191970" d="M698.2648,-168.4369C736.8692,-158.9133 796.2384,-144.2672 837.9572,-133.9753"/>
<polygon fill="#191970" stroke="#191970" points="839.0245,-137.317 847.8951,-131.5237 837.3479,-130.5208 839.0245,-137.317"/>
</g>
<!-- Node15 -->
<g id="node16" class="node">
<title>Node15</title>
<g id="a_node16"><a xlink:href="_int_field_8_h.html" target="_top" xlink:title="amr&#45;wind/core/IntField.H">
<polygon fill="#ffffff" stroke="#000000" points="376.5,-112.5 376.5,-131.5 500.5,-131.5 500.5,-112.5 376.5,-112.5"/>
<text text-anchor="middle" x="438.5" y="-119.5" font-family="Helvetica,sans-Serif" font-size="10.00" fill="#000000">amr&#45;wind/core/IntField.H</text>
</a>
</g>
</g>
<!-- Node1&#45;&gt;Node15 -->
<g id="edge23" class="edge">
<title>Node1&#45;&gt;Node15</title>
<path fill="none" stroke="#191970" d="M621.7599,-168.4369C584.2552,-158.9335 526.6201,-144.3291 486.0176,-134.0407"/>
<polygon fill="#191970" stroke="#191970" points="486.6379,-130.5873 476.0845,-131.5237 484.9184,-137.3728 486.6379,-130.5873"/>
</g>
<!-- Node16 -->
<g id="node17" class="node">
<title>Node16</title>
<polygon fill="#ffffff" stroke="#bfbfbf" points="458,-56.5 458,-75.5 565,-75.5 565,-56.5 458,-56.5"/>
<text text-anchor="middle" x="511.5" y="-63.5" font-family="Helvetica,sans-Serif" font-size="10.00" fill="#000000">AMReX_iMultiFab.H</text>
</g>
<!-- Node1&#45;&gt;Node16 -->
<g id="edge36" class="edge">
<title>Node1&#45;&gt;Node16</title>
<path fill="none" stroke="#191970" d="M639.9132,-168.484C623.1776,-159.9532 598.815,-146.5665 579.5,-132 559.9551,-117.2602 540.1577,-97.3578 527.0044,-83.2738"/>
<polygon fill="#191970" stroke="#191970" points="529.4227,-80.7328 520.0798,-75.7368 524.268,-85.4687 529.4227,-80.7328"/>
</g>
<!-- Node17 -->
<g id="node18" class="node">
<title>Node17</title>
<g id="a_node18"><a xlink:href="_scratch_field_8_h.html" target="_top" xlink:title="amr&#45;wind/core/ScratchField.H">
<polygon fill="#ffffff" stroke="#000000" points="128.5,-112.5 128.5,-131.5 274.5,-131.5 274.5,-112.5 128.5,-112.5"/>
<text text-anchor="middle" x="201.5" y="-119.5" font-family="Helvetica,sans-Serif" font-size="10.00" fill="#000000">amr&#45;wind/core/ScratchField.H</text>
</a>
</g>
</g>
<!-- Node1&#45;&gt;Node17 -->
<g id="edge27" class="edge">
<title>Node1&#45;&gt;Node17</title>
<path fill="none" stroke="#191970" d="M591.4273,-169.6767C509.7272,-159.6872 372.7682,-142.9411 284.8234,-132.188"/>
<polygon fill="#191970" stroke="#191970" points="285.2306,-128.7118 274.8797,-130.9722 284.381,-135.6601 285.2306,-128.7118"/>
</g>
<!-- Node19 -->
<g id="node20" class="node">
<title>Node19</title>
<polygon fill="#ffffff" stroke="#bfbfbf" points="621.5,-112.5 621.5,-131.5 727.5,-131.5 727.5,-112.5 621.5,-112.5"/>
<text text-anchor="middle" x="674.5" y="-119.5" font-family="Helvetica,sans-Serif" font-size="10.00" fill="#000000">AMReX_AmrCore.H</text>
</g>
<!-- Node1&#45;&gt;Node19 -->
<g id="edge34" class="edge">
<title>Node1&#45;&gt;Node19</title>
<path fill="none" stroke="#191970" d="M662.1128,-168.2455C664.0916,-160.8579 666.8744,-150.4689 669.3012,-141.4087"/>
<polygon fill="#191970" stroke="#191970" points="672.7105,-142.2078 671.9171,-131.6427 665.9489,-140.3966 672.7105,-142.2078"/>
</g>
<!-- Node5&#45;&gt;Node4 -->
<g id="edge6" class="edge">
<title>Node5&#45;&gt;Node4</title>
<path fill="none" stroke="#191970" d="M1373.3951,-112.4362C1353.4798,-97.3188 1311.9649,-68.352 1271.5,-56 1164.6049,-23.3699 844.5643,-13.8425 685.4267,-11.0942"/>
<polygon fill="#191970" stroke="#191970" points="685.2384,-7.5907 675.1812,-10.9228 685.1212,-14.5897 685.2384,-7.5907"/>
</g>
<!-- Node5&#45;&gt;Node6 -->
<g id="edge7" class="edge">
<title>Node5&#45;&gt;Node6</title>
<path fill="none" stroke="#191970" d="M1396.5254,-112.2978C1410.6143,-98.7289 1431.5882,-73.7568 1417.5,-56 1400.8211,-34.9779 1333.8596,-22.6623 1282.5883,-16.1496"/>
<polygon fill="#191970" stroke="#191970" points="1282.9137,-12.6634 1272.5628,-14.9236 1282.0639,-19.6117 1282.9137,-12.6634"/>
</g>
<!-- Node7 -->
<g id="node8" class="node">
<title>Node7</title>
<polygon fill="#ffffff" stroke="#bfbfbf" points="1464.5,-56.5 1464.5,-75.5 1580.5,-75.5 1580.5,-56.5 1464.5,-56.5"/>
<text text-anchor="middle" x="1522.5" y="-63.5" font-family="Helvetica,sans-Serif" font-size="10.00" fill="#000000">AMReX_Interpolater.H</text>
</g>
<!-- Node5&#45;&gt;Node7 -->
<g id="edge8" class="edge">
<title>Node5&#45;&gt;Node7</title>
<path fill="none" stroke="#191970" d="M1409.0511,-112.3733C1431.3391,-103.2629 1464.9937,-89.5062 1489.8637,-79.3404"/>
<polygon fill="#191970" stroke="#191970" points="1491.3239,-82.5247 1499.2562,-75.5011 1488.6753,-76.0451 1491.3239,-82.5247"/>
</g>
<!-- Node8&#45;&gt;Node2 -->
<g id="edge10" class="edge">
<title>Node8&#45;&gt;Node2</title>
<path fill="none" stroke="#191970" d="M845.7968,-112.4102C786.4067,-98.6412 672.4065,-73.0546 574.5,-56 463.1583,-36.605 329.8245,-20.3663 270.5436,-13.5052"/>
<polygon fill="#191970" stroke="#191970" points="270.6926,-9.9993 260.3583,-12.3346 269.8932,-16.9536 270.6926,-9.9993"/>
</g>
<!-- Node8&#45;&gt;Node3 -->
<g id="edge12" class="edge">
<title>Node8&#45;&gt;Node3</title>
<path fill="none" stroke="#191970" d="M943.2395,-112.8283C999.4464,-103.6916 1087.9633,-89.1653 1164.5,-76 1165.96,-75.7489 1167.4411,-75.4928 1168.9359,-75.2333"/>
<polygon fill="#191970" stroke="#191970" points="1169.6737,-78.6575 1178.9205,-73.4856 1168.4667,-71.7623 1169.6737,-78.6575"/>
</g>
<!-- Node8&#45;&gt;Node4 -->
<g id="edge17" class="edge">
<title>Node8&#45;&gt;Node4</title>
<path fill="none" stroke="#191970" d="M860.997,-112.3309C836.5034,-103.0383 798.4614,-88.5893 765.5,-76 717.7738,-57.7714 662.6426,-36.5953 627.9279,-23.2467"/>
<polygon fill="#191970" stroke="#191970" points="628.8611,-19.8558 618.2712,-19.5329 626.3484,-26.3893 628.8611,-19.8558"/>
</g>
<!-- Node8&#45;&gt;Node6 -->
<g id="edge13" class="edge">
<title>Node8&#45;&gt;Node6</title>
<path fill="none" stroke="#191970" d="M943.1015,-118.6175C994.1706,-113.9062 1070.4247,-102.679 1131.5,-76 1159.2227,-63.8901 1186.4718,-41.7513 1203.3669,-26.4756"/>
<polygon fill="#191970" stroke="#191970" points="1205.829,-28.9658 1210.7858,-19.602 1201.0716,-23.8309 1205.829,-28.9658"/>
</g>
<!-- Node9 -->
<g id="node10" class="node">
<title>Node9</title>
<polygon fill="#ffffff" stroke="#bfbfbf" points="1356.5,-56.5 1356.5,-75.5 1408.5,-75.5 1408.5,-56.5 1356.5,-56.5"/>
<text text-anchor="middle" x="1382.5" y="-63.5" font-family="Helvetica,sans-Serif" font-size="10.00" fill="#000000">memory</text>
</g>
<!-- Node8&#45;&gt;Node9 -->
<g id="edge11" class="edge">
<title>Node8&#45;&gt;Node9</title>
<path fill="none" stroke="#191970" d="M943.3975,-115.5761C1046.3577,-103.9515 1260.8215,-79.7379 1346.2476,-70.093"/>
<polygon fill="#191970" stroke="#191970" points="1346.7016,-73.5641 1356.2458,-68.9642 1345.9162,-66.6083 1346.7016,-73.5641"/>
</g>
<!-- Node10 -->
<g id="node11" class="node">
<title>Node10</title>
<polygon fill="#ffffff" stroke="#bfbfbf" points="774,-56.5 774,-75.5 873,-75.5 873,-56.5 774,-56.5"/>
<text text-anchor="middle" x="823.5" y="-63.5" font-family="Helvetica,sans-Serif" font-size="10.00" fill="#000000">AMReX_BCRec.H</text>
</g>
<!-- Node8&#45;&gt;Node10 -->
<g id="edge14" class="edge">
<title>Node8&#45;&gt;Node10</title>
<path fill="none" stroke="#191970" d="M875.5262,-112.2455C866.3118,-104.0549 852.9468,-92.1749 842.0703,-82.5069"/>
<polygon fill="#191970" stroke="#191970" points="844.1474,-79.6704 834.348,-75.6427 839.4968,-84.9023 844.1474,-79.6704"/>
</g>
<!-- Node11 -->
<g id="node12" class="node">
<title>Node11</title>
<polygon fill="#ffffff" stroke="#bfbfbf" points="891,-56.5 891,-75.5 976,-75.5 976,-56.5 891,-56.5"/>
<text text-anchor="middle" x="933.5" y="-63.5" font-family="Helvetica,sans-Serif" font-size="10.00" fill="#000000">AMReX_Gpu.H</text>
</g>
<!-- Node8&#45;&gt;Node11 -->
<g id="edge15" class="edge">
<title>Node8&#45;&gt;Node11</title>
<path fill="none" stroke="#191970" d="M894.6868,-112.2455C901.3589,-104.2958 910.9479,-92.8706 918.9253,-83.3656"/>
<polygon fill="#191970" stroke="#191970" points="921.6592,-85.5525 925.407,-75.6427 916.2974,-81.0524 921.6592,-85.5525"/>
</g>
<!-- Node12 -->
<g id="node13" class="node">
<title>Node12</title>
<g id="a_node13"><a xlink:href="incflo__enums_8_h.html" target="_top" xlink:title="amr&#45;wind/incflo_enums.H">
<polygon fill="#ffffff" stroke="#000000" points="994.5,-56.5 994.5,-75.5 1122.5,-75.5 1122.5,-56.5 994.5,-56.5"/>
<text text-anchor="middle" x="1058.5" y="-63.5" font-family="Helvetica,sans-Serif" font-size="10.00" fill="#000000">amr&#45;wind/incflo_enums.H</text>
</a>
</g>
</g>
<!-- Node8&#45;&gt;Node12 -->
<g id="edge16" class="edge">
<title>Node8&#45;&gt;Node12</title>
<path fill="none" stroke="#191970" d="M916.0679,-112.3733C944.6688,-103.0613 988.1788,-88.8953 1019.5819,-78.671"/>
<polygon fill="#191970" stroke="#191970" points="1020.8928,-81.9251 1029.318,-75.5011 1018.7257,-75.269 1020.8928,-81.9251"/>
</g>
<!-- Node13 -->
<g id="node14" class="node">
<title>Node13</title>
<g id="a_node14"><a xlink:href="_view_field_8_h.html" target="_top" xlink:title="amr&#45;wind/core/ViewField.H">
<polygon fill="#ffffff" stroke="#000000" points="267.5,-56.5 267.5,-75.5 401.5,-75.5 401.5,-56.5 267.5,-56.5"/>
<text text-anchor="middle" x="334.5" y="-63.5" font-family="Helvetica,sans-Serif" font-size="10.00" fill="#000000">amr&#45;wind/core/ViewField.H</text>
</a>
</g>
</g>
<!-- Node8&#45;&gt;Node13 -->
<g id="edge18" class="edge">
<title>Node8&#45;&gt;Node13</title>
<path fill="none" stroke="#191970" d="M829.7631,-116.2441C730.3837,-106.1621 524.7142,-85.2971 412.199,-73.8825"/>
<polygon fill="#191970" stroke="#191970" points="412.242,-70.369 401.9398,-72.8417 411.5354,-77.3332 412.242,-70.369"/>
</g>
<!-- Node13&#45;&gt;Node2 -->
<g id="edge19" class="edge">
<title>Node13&#45;&gt;Node2</title>
<path fill="none" stroke="#191970" d="M317.9523,-56.2455C303.2401,-47.5731 281.5112,-34.7645 264.6495,-24.825"/>
<polygon fill="#191970" stroke="#191970" points="266.2502,-21.7057 255.8581,-19.6427 262.6954,-27.736 266.2502,-21.7057"/>
</g>
<!-- Node13&#45;&gt;Node4 -->
<g id="edge20" class="edge">
<title>Node13&#45;&gt;Node4</title>
<path fill="none" stroke="#191970" d="M378.7294,-56.4369C423.2415,-46.8127 491.949,-31.957 539.6169,-21.6504"/>
<polygon fill="#191970" stroke="#191970" points="540.4186,-25.058 549.453,-19.5237 538.9392,-18.2161 540.4186,-25.058"/>
</g>
<!-- Node13&#45;&gt;Node6 -->
<g id="edge21" class="edge">
<title>Node13&#45;&gt;Node6</title>
<path fill="none" stroke="#191970" d="M401.6701,-59.8505C417.3593,-58.4998 434.0101,-57.1354 449.5,-56 712.5187,-36.7218 1026.4643,-19.9147 1157.8482,-13.1603"/>
<polygon fill="#191970" stroke="#191970" points="1158.3084,-16.6413 1168.116,-12.6338 1157.9499,-9.6505 1158.3084,-16.6413"/>
</g>
<!-- Node14 -->
<g id="node15" class="node">
<title>Node14</title>
<polygon fill="#ffffff" stroke="#bfbfbf" points="0,-.5 0,-19.5 95,-19.5 95,-.5 0,-.5"/>
<text text-anchor="middle" x="47.5" y="-7.5" font-family="Helvetica,sans-Serif" font-size="10.00" fill="#000000">AMReX_Vector.H</text>
</g>
<!-- Node13&#45;&gt;Node14 -->
<g id="edge22" class="edge">
<title>Node13&#45;&gt;Node14</title>
<path fill="none" stroke="#191970" d="M285.489,-56.4369C235.5545,-46.6936 158.141,-31.5885 105.2582,-21.2699"/>
<polygon fill="#191970" stroke="#191970" points="105.8383,-17.8171 95.3531,-19.3372 104.4977,-24.6876 105.8383,-17.8171"/>
</g>
<!-- Node15&#45;&gt;Node2 -->
<g id="edge24" class="edge">
<title>Node15&#45;&gt;Node2</title>
<path fill="none" stroke="#191970" d="M376.2546,-112.8209C331.1836,-104.9661 275.3401,-92.3407 258.5,-76 246.0893,-63.9574 241.6425,-44.3767 240.1193,-29.6642"/>
<polygon fill="#191970" stroke="#191970" points="243.6035,-29.3107 239.4409,-19.5679 236.6193,-29.78 243.6035,-29.3107"/>
</g>
<!-- Node15&#45;&gt;Node4 -->
<g id="edge25" class="edge">
<title>Node15&#45;&gt;Node4</title>
<path fill="none" stroke="#191970" d="M437.215,-112.1836C435.9375,-98.0171 435.8171,-71.8109 449.5,-56 461.1843,-42.4986 501.1293,-30.3541 535.9919,-21.9385"/>
<polygon fill="#191970" stroke="#191970" points="537.1998,-25.2502 546.1354,-19.5576 535.6002,-18.4354 537.1998,-25.2502"/>
</g>
<!-- Node15&#45;&gt;Node16 -->
<g id="edge26" class="edge">
<title>Node15&#45;&gt;Node16</title>
<path fill="none" stroke="#191970" d="M451.2156,-112.2455C462.102,-103.8943 477.9883,-91.7076 490.72,-81.9408"/>
<polygon fill="#191970" stroke="#191970" points="493.1261,-84.5063 498.9301,-75.6427 488.8654,-78.9523 493.1261,-84.5063"/>
</g>
<!-- Node17&#45;&gt;Node2 -->
<g id="edge28" class="edge">
<title>Node17&#45;&gt;Node2</title>
<path fill="none" stroke="#191970" d="M128.2769,-116.4215C71.5194,-109.2003 7.0879,-92.8226 36.5,-56 57.7131,-29.4422 157.3678,-17.0763 208.7251,-12.3857"/>
<polygon fill="#191970" stroke="#191970" points="209.2469,-15.8536 218.9055,-11.499 208.6394,-8.88 209.2469,-15.8536"/>
</g>
<!-- Node17&#45;&gt;Node4 -->
<g id="edge29" class="edge">
<title>Node17&#45;&gt;Node4</title>
<path fill="none" stroke="#191970" d="M206.6806,-112.4291C215.2829,-97.5732 234.0186,-69.2933 258.5,-56 299.2756,-33.859 417.4235,-21.5223 501.8454,-15.324"/>
<polygon fill="#191970" stroke="#191970" points="502.2421,-18.8046 511.9661,-14.5983 501.7414,-11.8225 502.2421,-18.8046"/>
</g>
<!-- Node17&#45;&gt;Node6 -->
<g id="edge31" class="edge">
<title>Node17&#45;&gt;Node6</title>
<path fill="none" stroke="#191970" d="M274.9155,-113.0352C382.5009,-99.9829 589.3382,-75.211 765.5,-56 905.7654,-40.7036 1070.5549,-24.4769 1158.2249,-15.9829"/>
<polygon fill="#191970" stroke="#191970" points="1158.6531,-19.4579 1168.2695,-15.0109 1157.9788,-12.4905 1158.6531,-19.4579"/>
</g>
<!-- Node17&#45;&gt;Node13 -->
<g id="edge30" class="edge">
<title>Node17&#45;&gt;Node13</title>
<path fill="none" stroke="#191970" d="M224.3635,-112.3733C245.905,-103.3032 278.3838,-89.6279 302.4956,-79.4755"/>
<polygon fill="#191970" stroke="#191970" points="304.0767,-82.6075 311.9348,-75.5011 301.3603,-76.156 304.0767,-82.6075"/>
</g>
<!-- Node17&#45;&gt;Node14 -->
<g id="edge32" class="edge">
<title>Node17&#45;&gt;Node14</title>
<path fill="none" stroke="#191970" d="M130.8647,-112.4397C87.8372,-105.0052 38.6742,-93.06 25.5,-76 14.7209,-62.0415 23.3952,-42.5346 32.8382,-28.3497"/>
<polygon fill="#191970" stroke="#191970" points="35.922,-30.0591 38.9579,-19.9085 30.2546,-25.9504 35.922,-30.0591"/>
</g>
<!-- Node18 -->
<g id="node19" class="node">
<title>Node18</title>
<polygon fill="#ffffff" stroke="#bfbfbf" points="45.5,-56.5 45.5,-75.5 173.5,-75.5 173.5,-56.5 45.5,-56.5"/>
<text text-anchor="middle" x="109.5" y="-63.5" font-family="Helvetica,sans-Serif" font-size="10.00" fill="#000000">AMReX_PhysBCFunct.H</text>
</g>
<!-- Node17&#45;&gt;Node18 -->
<g id="edge33" class="edge">
<title>Node17&#45;&gt;Node18</title>
<path fill="none" stroke="#191970" d="M185.4748,-112.2455C171.3592,-103.6534 150.5737,-91.0014 134.3101,-81.1018"/>
<polygon fill="#191970" stroke="#191970" points="135.7034,-77.8525 125.3415,-75.6427 132.0637,-83.8319 135.7034,-77.8525"/>
</g>
<!-- Node20&#45;&gt;Node1 -->
<g id="edge46" class="edge">
<title>Node20&#45;&gt;Node1</title>
<path fill="none" stroke="#191970" d="M1158.7023,-232.4732C1064.11,-222.8692 889.9638,-204.9016 741.5,-188 740.2175,-187.854 738.9239,-187.7059 737.6215,-187.556"/>
<polygon fill="#191970" stroke="#191970" points="737.8409,-184.058 727.5032,-186.378 737.0313,-191.0111 737.8409,-184.058"/>
</g>
<!-- Node20&#45;&gt;Node4 -->
<g id="edge44" class="edge">
<title>Node20&#45;&gt;Node4</title>
<path fill="none" stroke="#191970" d="M1158.7651,-225.5791C1076.6345,-208.1614 936.7869,-175.2846 821.5,-132 769.0255,-112.2984 757.941,-102.4068 708.5,-76 677.0908,-59.2241 641.6512,-38.6242 618.5199,-24.9467"/>
<polygon fill="#191970" stroke="#191970" points="620.0888,-21.8079 609.7026,-19.7157 616.5171,-27.8282 620.0888,-21.8079"/>
</g>
<!-- Node20&#45;&gt;Node5 -->
<g id="edge45" class="edge">
<title>Node20&#45;&gt;Node5</title>
<path fill="none" stroke="#191970" d="M1248.7036,-224.3795C1278.5533,-202.0397 1334.1663,-160.4185 1364.4787,-137.7325"/>
<polygon fill="#191970" stroke="#191970" points="1366.7576,-140.3986 1372.6666,-131.6046 1362.5633,-134.7943 1366.7576,-140.3986"/>
</g>
<!-- Node20&#45;&gt;Node6 -->
<g id="edge47" class="edge">
<title>Node20&#45;&gt;Node6</title>
<path fill="none" stroke="#191970" d="M1298.1497,-230.3382C1426.5692,-210.765 1679.666,-158.1041 1589.5,-56 1569.5861,-33.4495 1383.0341,-19.3502 1283.0731,-13.3508"/>
<polygon fill="#191970" stroke="#191970" points="1282.9859,-9.8397 1272.797,-12.7443 1282.5734,-16.8275 1282.9859,-9.8397"/>
</g>
<!-- Node21 -->
<g id="node22" class="node">
<title>Node21</title>
<g id="a_node22"><a xlink:href="_factory_8_h.html" target="_top" xlink:title="amr&#45;wind/core/Factory.H">
<polygon fill="#ffffff" stroke="#000000" points="1637,-112.5 1637,-131.5 1762,-131.5 1762,-112.5 1637,-112.5"/>
<text text-anchor="middle" x="1699.5" y="-119.5" font-family="Helvetica,sans-Serif" font-size="10.00" fill="#000000">amr&#45;wind/core/Factory.H</text>
</a>
</g>
</g>
<!-- Node20&#45;&gt;Node21 -->
<g id="edge38" class="edge">
<title>Node20&#45;&gt;Node21</title>
<path fill="none" stroke="#191970" d="M1298.2796,-235.1761C1395.4713,-228.342 1566.0284,-213.1713 1622.5,-188 1647.4666,-176.8715 1670.4702,-154.9675 1684.7096,-139.4502"/>
<polygon fill="#191970" stroke="#191970" points="1687.6589,-141.3996 1691.6755,-131.5956 1682.4217,-136.755 1687.6589,-141.3996"/>
</g>
<!-- Node21&#45;&gt;Node3 -->
<g id="edge40" class="edge">
<title>Node21&#45;&gt;Node3</title>
<path fill="none" stroke="#191970" d="M1636.8791,-114.679C1541.2574,-103.4998 1360.6436,-82.3842 1272.0886,-72.0312"/>
<polygon fill="#191970" stroke="#191970" points="1272.3526,-68.5384 1262.0138,-70.8534 1271.5398,-75.491 1272.3526,-68.5384"/>
</g>
<!-- Node21&#45;&gt;Node9 -->
<g id="edge39" class="edge">
<title>Node21&#45;&gt;Node9</title>
<path fill="none" stroke="#191970" d="M1645.3659,-112.4369C1580.7425,-101.0208 1474.4513,-82.2438 1418.8973,-72.4298"/>
<polygon fill="#191970" stroke="#191970" points="1419.2695,-68.9414 1408.8131,-70.6484 1418.0517,-75.8347 1419.2695,-68.9414"/>
</g>
<!-- Node22 -->
<g id="node23" class="node">
<title>Node22</title>
<polygon fill="#ffffff" stroke="#bfbfbf" points="1822.5,-56.5 1822.5,-75.5 1876.5,-75.5 1876.5,-56.5 1822.5,-56.5"/>
<text text-anchor="middle" x="1849.5" y="-63.5" font-family="Helvetica,sans-Serif" font-size="10.00" fill="#000000">iostream</text>
</g>
<!-- Node21&#45;&gt;Node22 -->
<g id="edge41" class="edge">
<title>Node21&#45;&gt;Node22</title>
<path fill="none" stroke="#191970" d="M1725.2859,-112.3733C1749.9047,-103.1822 1787.19,-89.2624 1814.4875,-79.0713"/>
<polygon fill="#191970" stroke="#191970" points="1815.9063,-82.2777 1824.0506,-75.5011 1813.458,-75.7198 1815.9063,-82.2777"/>
</g>
<!-- Node23 -->
<g id="node24" class="node">
<title>Node23</title>
<polygon fill="#ffffff" stroke="#bfbfbf" points="1637,-56.5 1637,-75.5 1724,-75.5 1724,-56.5 1637,-56.5"/>
<text text-anchor="middle" x="1680.5" y="-63.5" font-family="Helvetica,sans-Serif" font-size="10.00" fill="#000000">AMReX_Print.H</text>
</g>
<!-- Node21&#45;&gt;Node23 -->
<g id="edge42" class="edge">
<title>Node21&#45;&gt;Node23</title>
<path fill="none" stroke="#191970" d="M1696.1905,-112.2455C1693.6567,-104.7776 1690.0823,-94.2427 1686.985,-85.1137"/>
<polygon fill="#191970" stroke="#191970" points="1690.2991,-83.9879 1683.7716,-75.6427 1683.6702,-86.237 1690.2991,-83.9879"/>
</g>
<!-- Node24 -->
<g id="node25" class="node">
<title>Node24</title>
<polygon fill="#ffffff" stroke="#bfbfbf" points="1742.5,-56.5 1742.5,-75.5 1804.5,-75.5 1804.5,-56.5 1742.5,-56.5"/>
<text text-anchor="middle" x="1773.5" y="-63.5" font-family="Helvetica,sans-Serif" font-size="10.00" fill="#000000">AMReX.H</text>
</g>
<!-- Node21&#45;&gt;Node24 -->
<g id="edge43" class="edge">
<title>Node21&#45;&gt;Node24</title>
<path fill="none" stroke="#191970" d="M1712.3898,-112.2455C1723.4254,-103.8943 1739.5292,-91.7076 1752.4353,-81.9408"/>
<polygon fill="#191970" stroke="#191970" points="1754.8959,-84.4681 1760.7579,-75.6427 1750.6717,-78.8862 1754.8959,-84.4681"/>
</g>
</g>
</svg>
