<?xml version="1.0" encoding="UTF-8" standalone="no"?>
<!DOCTYPE svg PUBLIC "-//W3C//DTD SVG 1.1//EN"
 "http://www.w3.org/Graphics/SVG/1.1/DTD/svg11.dtd">
<!-- Generated by graphviz version 2.40.1 (20161225.0304)
 -->
<!-- Title: DerivedQuantity.H Pages: 1 -->
<svg width="2507pt" height="330pt"
 viewBox="0.00 0.00 2507.19 330.00" xmlns="http://www.w3.org/2000/svg" xmlns:xlink="http://www.w3.org/1999/xlink">
<g id="graph0" class="graph" transform="scale(1 1) rotate(0) translate(4 326)">
<title>DerivedQuantity.H</title>
<polygon fill="#ffffff" stroke="transparent" points="-4,4 -4,-326 2503.186,-326 2503.186,4 -4,4"/>
<!-- Node0 -->
<g id="node1" class="node">
<title>Node0</title>
<polygon fill="#bfbfbf" stroke="#000000" points="740.186,-302.5 740.186,-321.5 838.186,-321.5 838.186,-302.5 740.186,-302.5"/>
<text text-anchor="middle" x="789.186" y="-309.5" font-family="Helvetica,sans-Serif" font-size="10.00" fill="#000000">DerivedQuantity.H</text>
</g>
<!-- Node1 -->
<g id="node2" class="node">
<title>Node1</title>
<polygon fill="#ffffff" stroke="#bfbfbf" points="1113.686,-.5 1113.686,-19.5 1154.686,-19.5 1154.686,-.5 1113.686,-.5"/>
<text text-anchor="middle" x="1134.186" y="-7.5" font-family="Helvetica,sans-Serif" font-size="10.00" fill="#000000">string</text>
</g>
<!-- Node0&#45;&gt;Node1 -->
<g id="edge1" class="edge">
<title>Node0&#45;&gt;Node1</title>
<path fill="none" stroke="#191970" d="M740.055,-309.7676C569.4744,-301.3725 13.186,-268.3347 13.186,-194.5 13.186,-194.5 13.186,-194.5 13.186,-127.5 13.186,-98.2208 -115.8906,-112.3806 436.186,-56 693.5397,-29.7178 1005.8864,-15.3248 1103.5237,-11.2323"/>
<polygon fill="#191970" stroke="#191970" points="1103.7383,-14.7265 1113.5848,-10.8153 1103.4484,-7.7325 1103.7383,-14.7265"/>
</g>
<!-- Node2 -->
<g id="node3" class="node">
<title>Node2</title>
<polygon fill="#ffffff" stroke="#bfbfbf" points="930.686,-56.5 930.686,-75.5 1013.686,-75.5 1013.686,-56.5 930.686,-56.5"/>
<text text-anchor="middle" x="972.186" y="-63.5" font-family="Helvetica,sans-Serif" font-size="10.00" fill="#000000">unordered_map</text>
</g>
<!-- Node0&#45;&gt;Node2 -->
<g id="edge2" class="edge">
<title>Node0&#45;&gt;Node2</title>
<path fill="none" stroke="#191970" d="M838.2886,-304.5768C876.8781,-297.6518 931.4035,-285.4211 976.186,-266 1018.0317,-247.8525 1038.3901,-248.9121 1062.186,-210 1084.9671,-172.747 1092.5284,-148.9039 1069.186,-112 1058.9301,-95.7858 1041.2387,-85.1736 1023.7495,-78.2798"/>
<polygon fill="#191970" stroke="#191970" points="1024.6972,-74.9015 1014.1027,-74.8206 1022.3343,-81.4907 1024.6972,-74.9015"/>
</g>
<!-- Node3 -->
<g id="node4" class="node">
<title>Node3</title>
<polygon fill="#ffffff" stroke="#bfbfbf" points="1116.186,-246.5 1116.186,-265.5 1160.186,-265.5 1160.186,-246.5 1116.186,-246.5"/>
<text text-anchor="middle" x="1138.186" y="-253.5" font-family="Helvetica,sans-Serif" font-size="10.00" fill="#000000">vector</text>
</g>
<!-- Node0&#45;&gt;Node3 -->
<g id="edge3" class="edge">
<title>Node0&#45;&gt;Node3</title>
<path fill="none" stroke="#191970" d="M838.3161,-306.7063C900.2391,-299.5937 1009.7614,-285.5483 1102.186,-266 1103.4354,-265.7357 1104.7055,-265.453 1105.9859,-265.1561"/>
<polygon fill="#191970" stroke="#191970" points="1106.9821,-268.5146 1115.8242,-262.6778 1105.2722,-261.7266 1106.9821,-268.5146"/>
</g>
<!-- Node4 -->
<g id="node5" class="node">
<title>Node4</title>
<g id="a_node5"><a xlink:href="_factory_8_h.html" target="_top" xlink:title="amr&#45;wind/core/Factory.H">
<polygon fill="#ffffff" stroke="#000000" points="625.686,-118 625.686,-137 750.686,-137 750.686,-118 625.686,-118"/>
<text text-anchor="middle" x="688.186" y="-125" font-family="Helvetica,sans-Serif" font-size="10.00" fill="#000000">amr&#45;wind/core/Factory.H</text>
</a>
</g>
</g>
<!-- Node0&#45;&gt;Node4 -->
<g id="edge4" class="edge">
<title>Node0&#45;&gt;Node4</title>
<path fill="none" stroke="#191970" d="M780.4916,-302.2468C772.7334,-293.2467 761.3678,-279.3024 753.186,-266 728.3706,-225.654 706.5869,-174.3114 695.6526,-146.8701"/>
<polygon fill="#191970" stroke="#191970" points="698.8028,-145.3163 691.8901,-137.2873 692.287,-147.8747 698.8028,-145.3163"/>
</g>
<!-- Node9 -->
<g id="node10" class="node">
<title>Node9</title>
<g id="a_node10"><a xlink:href="_coll_mgr_8_h.html" target="_top" xlink:title="amr&#45;wind/core/CollMgr.H">
<polygon fill="#ffffff" stroke="#000000" points="768.686,-118 768.686,-137 893.686,-137 893.686,-118 768.686,-118"/>
<text text-anchor="middle" x="831.186" y="-125" font-family="Helvetica,sans-Serif" font-size="10.00" fill="#000000">amr&#45;wind/core/CollMgr.H</text>
</a>
</g>
</g>
<!-- Node0&#45;&gt;Node9 -->
<g id="edge10" class="edge">
<title>Node0&#45;&gt;Node9</title>
<path fill="none" stroke="#191970" d="M782.826,-302.4192C768.6403,-279.7474 737.321,-221.522 759.186,-179 767.5667,-162.7015 783.7628,-150.4125 798.6746,-141.9341"/>
<polygon fill="#191970" stroke="#191970" points="800.5143,-144.9203 807.712,-137.1457 797.237,-138.7349 800.5143,-144.9203"/>
</g>
<!-- Node11 -->
<g id="node12" class="node">
<title>Node11</title>
<g id="a_node12"><a xlink:href="_c_f_d_sim_8_h.html" target="_top" xlink:title="amr&#45;wind/CFDSim.H">
<polygon fill="#ffffff" stroke="#000000" points="859.186,-246.5 859.186,-265.5 967.186,-265.5 967.186,-246.5 859.186,-246.5"/>
<text text-anchor="middle" x="913.186" y="-253.5" font-family="Helvetica,sans-Serif" font-size="10.00" fill="#000000">amr&#45;wind/CFDSim.H</text>
</a>
</g>
</g>
<!-- Node0&#45;&gt;Node11 -->
<g id="edge15" class="edge">
<title>Node0&#45;&gt;Node11</title>
<path fill="none" stroke="#191970" d="M810.5023,-302.3733C830.4075,-293.3838 860.3295,-279.8706 882.7459,-269.7471"/>
<polygon fill="#191970" stroke="#191970" points="884.4746,-272.8068 892.1478,-265.5011 881.5935,-266.4272 884.4746,-272.8068"/>
</g>
<!-- Node4&#45;&gt;Node2 -->
<g id="edge6" class="edge">
<title>Node4&#45;&gt;Node2</title>
<path fill="none" stroke="#191970" d="M731.7386,-117.9759C740.8088,-115.9969 750.3088,-113.9276 759.186,-112 814.2903,-100.0349 877.433,-86.409 920.5739,-77.1124"/>
<polygon fill="#191970" stroke="#191970" points="921.511,-80.4909 930.5494,-74.9631 920.0365,-73.6479 921.511,-80.4909"/>
</g>
<!-- Node5 -->
<g id="node6" class="node">
<title>Node5</title>
<polygon fill="#ffffff" stroke="#bfbfbf" points="860.186,-56.5 860.186,-75.5 912.186,-75.5 912.186,-56.5 860.186,-56.5"/>
<text text-anchor="middle" x="886.186" y="-63.5" font-family="Helvetica,sans-Serif" font-size="10.00" fill="#000000">memory</text>
</g>
<!-- Node4&#45;&gt;Node5 -->
<g id="edge5" class="edge">
<title>Node4&#45;&gt;Node5</title>
<path fill="none" stroke="#191970" d="M719.1235,-117.8906C754.5162,-106.8974 812.403,-88.9174 849.8949,-77.2722"/>
<polygon fill="#191970" stroke="#191970" points="851.3814,-80.4755 859.8931,-74.1667 849.3049,-73.7906 851.3814,-80.4755"/>
</g>
<!-- Node6 -->
<g id="node7" class="node">
<title>Node6</title>
<polygon fill="#ffffff" stroke="#bfbfbf" points="606.186,-56.5 606.186,-75.5 660.186,-75.5 660.186,-56.5 606.186,-56.5"/>
<text text-anchor="middle" x="633.186" y="-63.5" font-family="Helvetica,sans-Serif" font-size="10.00" fill="#000000">iostream</text>
</g>
<!-- Node4&#45;&gt;Node6 -->
<g id="edge7" class="edge">
<title>Node4&#45;&gt;Node6</title>
<path fill="none" stroke="#191970" d="M679.5922,-117.8906C671.3263,-108.6478 658.6434,-94.466 648.6243,-83.2628"/>
<polygon fill="#191970" stroke="#191970" points="651.176,-80.8657 641.9009,-75.7449 645.9582,-85.5321 651.176,-80.8657"/>
</g>
<!-- Node7 -->
<g id="node8" class="node">
<title>Node7</title>
<polygon fill="#ffffff" stroke="#bfbfbf" points="678.686,-56.5 678.686,-75.5 765.686,-75.5 765.686,-56.5 678.686,-56.5"/>
<text text-anchor="middle" x="722.186" y="-63.5" font-family="Helvetica,sans-Serif" font-size="10.00" fill="#000000">AMReX_Print.H</text>
</g>
<!-- Node4&#45;&gt;Node7 -->
<g id="edge8" class="edge">
<title>Node4&#45;&gt;Node7</title>
<path fill="none" stroke="#191970" d="M693.4985,-117.8906C698.4099,-109.0068 705.8438,-95.5601 711.9135,-84.5811"/>
<polygon fill="#191970" stroke="#191970" points="715.0233,-86.1899 716.7986,-75.7449 708.8971,-82.8031 715.0233,-86.1899"/>
</g>
<!-- Node8 -->
<g id="node9" class="node">
<title>Node8</title>
<polygon fill="#ffffff" stroke="#bfbfbf" points="526.186,-56.5 526.186,-75.5 588.186,-75.5 588.186,-56.5 526.186,-56.5"/>
<text text-anchor="middle" x="557.186" y="-63.5" font-family="Helvetica,sans-Serif" font-size="10.00" fill="#000000">AMReX.H</text>
</g>
<!-- Node4&#45;&gt;Node8 -->
<g id="edge9" class="edge">
<title>Node4&#45;&gt;Node8</title>
<path fill="none" stroke="#191970" d="M667.7172,-117.8906C645.9908,-107.6908 611.4525,-91.4763 586.7674,-79.8875"/>
<polygon fill="#191970" stroke="#191970" points="588.0505,-76.6234 577.511,-75.5419 585.0757,-82.9598 588.0505,-76.6234"/>
</g>
<!-- Node9&#45;&gt;Node1 -->
<g id="edge11" class="edge">
<title>Node9&#45;&gt;Node1</title>
<path fill="none" stroke="#191970" d="M825.0755,-117.8806C816.3591,-102.8133 802.9989,-73.5579 818.186,-56 836.7231,-34.569 1027.1923,-18.0301 1103.1559,-12.2379"/>
<polygon fill="#191970" stroke="#191970" points="1103.7886,-15.7003 1113.4988,-11.4619 1103.2649,-8.7199 1103.7886,-15.7003"/>
</g>
<!-- Node9&#45;&gt;Node2 -->
<g id="edge13" class="edge">
<title>Node9&#45;&gt;Node2</title>
<path fill="none" stroke="#191970" d="M853.2172,-117.8906C876.8091,-107.6005 914.436,-91.1888 941.0492,-79.5809"/>
<polygon fill="#191970" stroke="#191970" points="942.5427,-82.748 950.3094,-75.5419 939.7441,-76.3318 942.5427,-82.748"/>
</g>
<!-- Node9&#45;&gt;Node5 -->
<g id="edge12" class="edge">
<title>Node9&#45;&gt;Node5</title>
<path fill="none" stroke="#191970" d="M839.7797,-117.8906C848.0456,-108.6478 860.7286,-94.466 870.7476,-83.2628"/>
<polygon fill="#191970" stroke="#191970" points="873.4137,-85.5321 877.471,-75.7449 868.1959,-80.8657 873.4137,-85.5321"/>
</g>
<!-- Node10 -->
<g id="node11" class="node">
<title>Node10</title>
<polygon fill="#ffffff" stroke="#bfbfbf" points="1570.686,-.5 1570.686,-19.5 1665.686,-19.5 1665.686,-.5 1570.686,-.5"/>
<text text-anchor="middle" x="1618.186" y="-7.5" font-family="Helvetica,sans-Serif" font-size="10.00" fill="#000000">AMReX_Vector.H</text>
</g>
<!-- Node9&#45;&gt;Node10 -->
<g id="edge14" class="edge">
<title>Node9&#45;&gt;Node10</title>
<path fill="none" stroke="#191970" d="M830.6693,-117.7629C830.4247,-101.9781 832.5284,-71.0561 851.186,-56 878.6862,-33.8082 1386.2648,-16.835 1560.2438,-11.6479"/>
<polygon fill="#191970" stroke="#191970" points="1560.5896,-15.1393 1570.4816,-11.3448 1560.3824,-8.1424 1560.5896,-15.1393"/>
</g>
<!-- Node12 -->
<g id="node13" class="node">
<title>Node12</title>
<polygon fill="#ffffff" stroke="#bfbfbf" points="2393.186,-118 2393.186,-137 2499.186,-137 2499.186,-118 2393.186,-118"/>
<text text-anchor="middle" x="2446.186" y="-125" font-family="Helvetica,sans-Serif" font-size="10.00" fill="#000000">AMReX_AmrCore.H</text>
</g>
<!-- Node11&#45;&gt;Node12 -->
<g id="edge16" class="edge">
<title>Node11&#45;&gt;Node12</title>
<path fill="none" stroke="#191970" d="M967.5291,-252.9523C1006.4166,-250.8316 1060.0143,-248.0313 1107.186,-246 1338.4433,-236.0418 1919.3945,-245.1227 2148.186,-210 2244.8422,-195.1619 2354.8301,-159.6681 2410.2366,-140.4275"/>
<polygon fill="#191970" stroke="#191970" points="2411.6502,-143.641 2419.9316,-137.0327 2409.3367,-137.0343 2411.6502,-143.641"/>
</g>
<!-- Node13 -->
<g id="node14" class="node">
<title>Node13</title>
<g id="a_node14"><a xlink:href="_sim_time_8_h.html" target="_top" xlink:title="amr&#45;wind/core/SimTime.H">
<polygon fill="#ffffff" stroke="#000000" points="234.686,-185 234.686,-204 365.686,-204 365.686,-185 234.686,-185"/>
<text text-anchor="middle" x="300.186" y="-192" font-family="Helvetica,sans-Serif" font-size="10.00" fill="#000000">amr&#45;wind/core/SimTime.H</text>
</a>
</g>
</g>
<!-- Node11&#45;&gt;Node13 -->
<g id="edge17" class="edge">
<title>Node11&#45;&gt;Node13</title>
<path fill="none" stroke="#191970" d="M859.0552,-250.5693C749.632,-239.5912 501.8812,-214.7353 376.2656,-202.1328"/>
<polygon fill="#191970" stroke="#191970" points="376.2664,-198.6154 365.9669,-201.0996 375.5676,-205.5804 376.2664,-198.6154"/>
</g>
<!-- Node17 -->
<g id="node18" class="node">
<title>Node17</title>
<g id="a_node18"><a xlink:href="_field_repo_8_h.html" target="_top" xlink:title="amr&#45;wind/core/FieldRepo.H">
<polygon fill="#ffffff" stroke="#000000" points="2003.186,-185 2003.186,-204 2139.186,-204 2139.186,-185 2003.186,-185"/>
<text text-anchor="middle" x="2071.186" y="-192" font-family="Helvetica,sans-Serif" font-size="10.00" fill="#000000">amr&#45;wind/core/FieldRepo.H</text>
</a>
</g>
</g>
<!-- Node11&#45;&gt;Node17 -->
<g id="edge21" class="edge">
<title>Node11&#45;&gt;Node17</title>
<path fill="none" stroke="#191970" d="M967.4855,-253.1162C1154.555,-243.1812 1772.8155,-210.3461 1992.7077,-198.6679"/>
<polygon fill="#191970" stroke="#191970" points="1993.074,-202.1535 2002.8743,-198.128 1992.7027,-195.1633 1993.074,-202.1535"/>
</g>
<!-- Node31 -->
<g id="node32" class="node">
<title>Node31</title>
<g id="a_node32"><a xlink:href="_p_d_e_base_8_h.html" target="_top" xlink:title="amr&#45;wind/equation_systems\l/PDEBase.H">
<polygon fill="#ffffff" stroke="#000000" points="768.686,-179.5 768.686,-209.5 907.686,-209.5 907.686,-179.5 768.686,-179.5"/>
<text text-anchor="start" x="776.686" y="-197.5" font-family="Helvetica,sans-Serif" font-size="10.00" fill="#000000">amr&#45;wind/equation_systems</text>
<text text-anchor="middle" x="838.186" y="-186.5" font-family="Helvetica,sans-Serif" font-size="10.00" fill="#000000">/PDEBase.H</text>
</a>
</g>
</g>
<!-- Node11&#45;&gt;Node31 -->
<g id="edge57" class="edge">
<title>Node11&#45;&gt;Node31</title>
<path fill="none" stroke="#191970" d="M901.4672,-246.3906C891.5988,-238.2986 877.1137,-226.4207 864.4914,-216.0705"/>
<polygon fill="#191970" stroke="#191970" points="866.485,-213.179 856.533,-209.5446 862.0464,-218.5919 866.485,-213.179"/>
</g>
<!-- Node34 -->
<g id="node35" class="node">
<title>Node34</title>
<g id="a_node35"><a xlink:href="_physics_8_h.html" target="_top" xlink:title="amr&#45;wind/core/Physics.H">
<polygon fill="#ffffff" stroke="#000000" points="925.686,-185 925.686,-204 1052.686,-204 1052.686,-185 925.686,-185"/>
<text text-anchor="middle" x="989.186" y="-192" font-family="Helvetica,sans-Serif" font-size="10.00" fill="#000000">amr&#45;wind/core/Physics.H</text>
</a>
</g>
</g>
<!-- Node11&#45;&gt;Node34 -->
<g id="edge65" class="edge">
<title>Node11&#45;&gt;Node34</title>
<path fill="none" stroke="#191970" d="M925.061,-246.3906C936.8156,-236.8786 955.0345,-222.1357 969.0531,-210.7917"/>
<polygon fill="#191970" stroke="#191970" points="971.5716,-213.2562 977.1435,-204.2449 967.1682,-207.8146 971.5716,-213.2562"/>
</g>
<!-- Node14 -->
<g id="node15" class="node">
<title>Node14</title>
<polygon fill="#ffffff" stroke="#bfbfbf" points="313.686,-118 313.686,-137 406.686,-137 406.686,-118 313.686,-118"/>
<text text-anchor="middle" x="360.186" y="-125" font-family="Helvetica,sans-Serif" font-size="10.00" fill="#000000">AMReX_REAL.H</text>
</g>
<!-- Node13&#45;&gt;Node14 -->
<g id="edge18" class="edge">
<title>Node13&#45;&gt;Node14</title>
<path fill="none" stroke="#191970" d="M308.7825,-184.9005C318.139,-174.4525 333.2912,-157.5325 344.7261,-144.7635"/>
<polygon fill="#191970" stroke="#191970" points="347.5415,-146.8661 351.6054,-137.0817 342.3268,-142.1963 347.5415,-146.8661"/>
</g>
<!-- Node15 -->
<g id="node16" class="node">
<title>Node15</title>
<polygon fill="#ffffff" stroke="#bfbfbf" points="41.186,-118 41.186,-137 167.186,-137 167.186,-118 41.186,-118"/>
<text text-anchor="middle" x="104.186" y="-125" font-family="Helvetica,sans-Serif" font-size="10.00" fill="#000000">AMReX_GpuQualifiers.H</text>
</g>
<!-- Node13&#45;&gt;Node15 -->
<g id="edge19" class="edge">
<title>Node13&#45;&gt;Node15</title>
<path fill="none" stroke="#191970" d="M272.1039,-184.9005C237.9008,-173.2086 179.9888,-153.4122 141.9162,-140.3976"/>
<polygon fill="#191970" stroke="#191970" points="142.8104,-137.0045 132.2159,-137.0817 140.5462,-143.6282 142.8104,-137.0045"/>
</g>
<!-- Node16 -->
<g id="node17" class="node">
<title>Node16</title>
<polygon fill="#ffffff" stroke="#bfbfbf" points="185.186,-118 185.186,-137 295.186,-137 295.186,-118 185.186,-118"/>
<text text-anchor="middle" x="240.186" y="-125" font-family="Helvetica,sans-Serif" font-size="10.00" fill="#000000">AMReX_Extension.H</text>
</g>
<!-- Node13&#45;&gt;Node16 -->
<g id="edge20" class="edge">
<title>Node13&#45;&gt;Node16</title>
<path fill="none" stroke="#191970" d="M291.5894,-184.9005C282.2329,-174.4525 267.0807,-157.5325 255.6458,-144.7635"/>
<polygon fill="#191970" stroke="#191970" points="258.0451,-142.1963 248.7665,-137.0817 252.8304,-146.8661 258.0451,-142.1963"/>
</g>
<!-- Node17&#45;&gt;Node1 -->
<g id="edge22" class="edge">
<title>Node17&#45;&gt;Node1</title>
<path fill="none" stroke="#191970" d="M2003.0492,-191.8553C1839.7404,-185.2144 1429.5216,-166.6623 1294.186,-143 1267.6505,-138.3605 1077.3896,-97.5197 1061.186,-76 1044.8018,-54.2406 1077.1338,-33.9869 1103.8606,-21.802"/>
<polygon fill="#191970" stroke="#191970" points="1105.5683,-24.8767 1113.3532,-17.6901 1102.7859,-18.4534 1105.5683,-24.8767"/>
</g>
<!-- Node17&#45;&gt;Node2 -->
<g id="edge23" class="edge">
<title>Node17&#45;&gt;Node2</title>
<path fill="none" stroke="#191970" d="M2002.9086,-192.6992C1803.4163,-187.1558 1230.4678,-169.1287 1150.186,-143 1126.0371,-135.1405 1124.9781,-123.2008 1102.186,-112 1074.3972,-98.3437 1041.5064,-86.7453 1015.7613,-78.6109"/>
<polygon fill="#191970" stroke="#191970" points="1016.5032,-75.1766 1005.9152,-75.5579 1014.43,-81.8625 1016.5032,-75.1766"/>
</g>
<!-- Node17&#45;&gt;Node12 -->
<g id="edge54" class="edge">
<title>Node17&#45;&gt;Node12</title>
<path fill="none" stroke="#191970" d="M2135.1026,-184.9897C2197.542,-175.4222 2295.1755,-159.7247 2379.186,-143 2384.962,-141.8501 2390.9997,-140.5679 2396.9837,-139.247"/>
<polygon fill="#191970" stroke="#191970" points="2397.9609,-142.6147 2406.9482,-137.0041 2396.4237,-135.7855 2397.9609,-142.6147"/>
</g>
<!-- Node18 -->
<g id="node19" class="node">
<title>Node18</title>
<g id="a_node19"><a xlink:href="_field_desc_types_8_h.html" target="_top" xlink:title="amr&#45;wind/core/FieldDescTypes.H">
<polygon fill="#ffffff" stroke="#000000" points="2043.686,-.5 2043.686,-19.5 2206.686,-19.5 2206.686,-.5 2043.686,-.5"/>
<text text-anchor="middle" x="2125.186" y="-7.5" font-family="Helvetica,sans-Serif" font-size="10.00" fill="#000000">amr&#45;wind/core/FieldDescTypes.H</text>
</a>
</g>
</g>
<!-- Node17&#45;&gt;Node18 -->
<g id="edge24" class="edge">
<title>Node17&#45;&gt;Node18</title>
<path fill="none" stroke="#191970" d="M2115.8673,-184.9597C2176.9842,-171.7426 2279.8602,-148.8263 2286.186,-143 2309.2396,-121.7667 2303.2349,-106.9485 2308.186,-76 2309.5901,-67.2227 2313.6518,-63.0098 2308.186,-56 2295.6447,-39.9161 2252.009,-28.5958 2210.4944,-21.2102"/>
<polygon fill="#191970" stroke="#191970" points="2211.0153,-17.7485 2200.5679,-19.5093 2209.8331,-24.648 2211.0153,-17.7485"/>
</g>
<!-- Node19 -->
<g id="node20" class="node">
<title>Node19</title>
<g id="a_node20"><a xlink:href="_field_utils_8_h.html" target="_top" xlink:title="amr&#45;wind/core/FieldUtils.H">
<polygon fill="#ffffff" stroke="#000000" points="2355.686,-56.5 2355.686,-75.5 2488.686,-75.5 2488.686,-56.5 2355.686,-56.5"/>
<text text-anchor="middle" x="2422.186" y="-63.5" font-family="Helvetica,sans-Serif" font-size="10.00" fill="#000000">amr&#45;wind/core/FieldUtils.H</text>
</a>
</g>
</g>
<!-- Node17&#45;&gt;Node19 -->
<g id="edge25" class="edge">
<title>Node17&#45;&gt;Node19</title>
<path fill="none" stroke="#191970" d="M2139.4383,-185.9518C2207.5056,-176.6363 2306.7461,-160.6802 2341.186,-143 2369.2214,-128.6076 2394.2879,-101.4824 2408.8673,-83.5749"/>
<polygon fill="#191970" stroke="#191970" points="2411.6981,-85.6376 2415.1491,-75.6205 2406.2046,-81.2992 2411.6981,-85.6376"/>
</g>
<!-- Node20 -->
<g id="node21" class="node">
<title>Node20</title>
<polygon fill="#ffffff" stroke="#bfbfbf" points="1756.186,-.5 1756.186,-19.5 1860.186,-19.5 1860.186,-.5 1756.186,-.5"/>
<text text-anchor="middle" x="1808.186" y="-7.5" font-family="Helvetica,sans-Serif" font-size="10.00" fill="#000000">AMReX_MultiFab.H</text>
</g>
<!-- Node17&#45;&gt;Node20 -->
<g id="edge55" class="edge">
<title>Node17&#45;&gt;Node20</title>
<path fill="none" stroke="#191970" d="M2071.4559,-184.7159C2071.586,-159.3424 2068.2062,-90.9713 2030.186,-56 2007.2301,-34.885 1927.6136,-22.2838 1870.2894,-15.7475"/>
<polygon fill="#191970" stroke="#191970" points="1870.5461,-12.2546 1860.2221,-14.6352 1869.7773,-19.2123 1870.5461,-12.2546"/>
</g>
<!-- Node22 -->
<g id="node23" class="node">
<title>Node22</title>
<g id="a_node23"><a xlink:href="_field_8_h.html" target="_top" xlink:title="amr&#45;wind/core/Field.H">
<polygon fill="#ffffff" stroke="#000000" points="1302.686,-118 1302.686,-137 1415.686,-137 1415.686,-118 1302.686,-118"/>
<text text-anchor="middle" x="1359.186" y="-125" font-family="Helvetica,sans-Serif" font-size="10.00" fill="#000000">amr&#45;wind/core/Field.H</text>
</a>
</g>
</g>
<!-- Node17&#45;&gt;Node22 -->
<g id="edge29" class="edge">
<title>Node17&#45;&gt;Node22</title>
<path fill="none" stroke="#191970" d="M2002.9164,-188.0758C1866.3785,-175.2274 1561.181,-146.508 1425.919,-133.7797"/>
<polygon fill="#191970" stroke="#191970" points="1425.9834,-130.2703 1415.6995,-132.818 1425.3276,-137.2396 1425.9834,-130.2703"/>
</g>
<!-- Node27 -->
<g id="node28" class="node">
<title>Node27</title>
<g id="a_node28"><a xlink:href="_int_field_8_h.html" target="_top" xlink:title="amr&#45;wind/core/IntField.H">
<polygon fill="#ffffff" stroke="#000000" points="2137.186,-118 2137.186,-137 2261.186,-137 2261.186,-118 2137.186,-118"/>
<text text-anchor="middle" x="2199.186" y="-125" font-family="Helvetica,sans-Serif" font-size="10.00" fill="#000000">amr&#45;wind/core/IntField.H</text>
</a>
</g>
</g>
<!-- Node17&#45;&gt;Node27 -->
<g id="edge43" class="edge">
<title>Node17&#45;&gt;Node27</title>
<path fill="none" stroke="#191970" d="M2089.5252,-184.9005C2111.1016,-173.6067 2147.125,-154.7506 2171.9626,-141.7497"/>
<polygon fill="#191970" stroke="#191970" points="2173.6442,-144.8201 2180.8807,-137.0817 2170.3979,-138.6183 2173.6442,-144.8201"/>
</g>
<!-- Node28 -->
<g id="node29" class="node">
<title>Node28</title>
<polygon fill="#ffffff" stroke="#bfbfbf" points="2191.686,-56.5 2191.686,-75.5 2298.686,-75.5 2298.686,-56.5 2191.686,-56.5"/>
<text text-anchor="middle" x="2245.186" y="-63.5" font-family="Helvetica,sans-Serif" font-size="10.00" fill="#000000">AMReX_iMultiFab.H</text>
</g>
<!-- Node17&#45;&gt;Node28 -->
<g id="edge56" class="edge">
<title>Node17&#45;&gt;Node28</title>
<path fill="none" stroke="#191970" d="M2139.4424,-185.8039C2190.4663,-177.7377 2254.0747,-163.8115 2270.186,-143 2283.5433,-125.7457 2271.5053,-101.1003 2259.9611,-84.374"/>
<polygon fill="#191970" stroke="#191970" points="2262.5234,-81.9523 2253.763,-75.9936 2256.8954,-86.1148 2262.5234,-81.9523"/>
</g>
<!-- Node29 -->
<g id="node30" class="node">
<title>Node29</title>
<g id="a_node30"><a xlink:href="_scratch_field_8_h.html" target="_top" xlink:title="amr&#45;wind/core/ScratchField.H">
<polygon fill="#ffffff" stroke="#000000" points="1792.186,-118 1792.186,-137 1938.186,-137 1938.186,-118 1792.186,-118"/>
<text text-anchor="middle" x="1865.186" y="-125" font-family="Helvetica,sans-Serif" font-size="10.00" fill="#000000">amr&#45;wind/core/ScratchField.H</text>
</a>
</g>
</g>
<!-- Node17&#45;&gt;Node29 -->
<g id="edge47" class="edge">
<title>Node17&#45;&gt;Node29</title>
<path fill="none" stroke="#191970" d="M2041.6712,-184.9005C2005.57,-173.1589 1944.3378,-153.2436 1904.3315,-140.2318"/>
<polygon fill="#191970" stroke="#191970" points="1905.2382,-136.8463 1894.646,-137.0817 1903.0731,-143.5031 1905.2382,-136.8463"/>
</g>
<!-- Node19&#45;&gt;Node18 -->
<g id="edge26" class="edge">
<title>Node19&#45;&gt;Node18</title>
<path fill="none" stroke="#191970" d="M2371.4673,-56.4369C2319.9973,-46.7321 2240.3157,-31.708 2185.6076,-21.3926"/>
<polygon fill="#191970" stroke="#191970" points="2186.1708,-17.9372 2175.6954,-19.5237 2184.8737,-24.816 2186.1708,-17.9372"/>
</g>
<!-- Node19&#45;&gt;Node20 -->
<g id="edge27" class="edge">
<title>Node19&#45;&gt;Node20</title>
<path fill="none" stroke="#191970" d="M2355.6014,-59.9271C2236.1133,-49.0292 1986.9297,-26.3024 1870.5633,-15.6891"/>
<polygon fill="#191970" stroke="#191970" points="1870.6739,-12.1848 1860.3973,-14.7619 1870.0381,-19.1559 1870.6739,-12.1848"/>
</g>
<!-- Node21 -->
<g id="node22" class="node">
<title>Node21</title>
<polygon fill="#ffffff" stroke="#bfbfbf" points="2364.186,-.5 2364.186,-19.5 2480.186,-19.5 2480.186,-.5 2364.186,-.5"/>
<text text-anchor="middle" x="2422.186" y="-7.5" font-family="Helvetica,sans-Serif" font-size="10.00" fill="#000000">AMReX_Interpolater.H</text>
</g>
<!-- Node19&#45;&gt;Node21 -->
<g id="edge28" class="edge">
<title>Node19&#45;&gt;Node21</title>
<path fill="none" stroke="#191970" d="M2422.186,-56.2455C2422.186,-48.9382 2422.186,-38.6944 2422.186,-29.7046"/>
<polygon fill="#191970" stroke="#191970" points="2425.6861,-29.6426 2422.186,-19.6427 2418.6861,-29.6427 2425.6861,-29.6426"/>
</g>
<!-- Node22&#45;&gt;Node1 -->
<g id="edge30" class="edge">
<title>Node22&#45;&gt;Node1</title>
<path fill="none" stroke="#191970" d="M1336.3397,-117.926C1313.2735,-108.0655 1276.7819,-91.9311 1246.186,-76 1215.0442,-59.7847 1180.392,-38.9046 1157.9957,-25.0171"/>
<polygon fill="#191970" stroke="#191970" points="1159.8152,-22.0269 1149.4778,-19.7056 1156.1113,-27.9668 1159.8152,-22.0269"/>
</g>
<!-- Node22&#45;&gt;Node2 -->
<g id="edge32" class="edge">
<title>Node22&#45;&gt;Node2</title>
<path fill="none" stroke="#191970" d="M1302.4984,-118.4915C1227.5587,-106.5825 1096.5669,-85.766 1024.1003,-74.25"/>
<polygon fill="#191970" stroke="#191970" points="1024.2723,-70.7334 1013.8468,-72.6205 1023.1736,-77.6467 1024.2723,-70.7334"/>
</g>
<!-- Node22&#45;&gt;Node5 -->
<g id="edge31" class="edge">
<title>Node22&#45;&gt;Node5</title>
<path fill="none" stroke="#191970" d="M1302.533,-123.6185C1218.7915,-117.2518 1057.298,-102.5635 922.186,-76 922.0865,-75.9804 921.9869,-75.9608 921.8872,-75.9409"/>
<polygon fill="#191970" stroke="#191970" points="922.9476,-72.5928 912.4205,-73.7892 921.396,-79.4187 922.9476,-72.5928"/>
</g>
<!-- Node22&#45;&gt;Node18 -->
<g id="edge37" class="edge">
<title>Node22&#45;&gt;Node18</title>
<path fill="none" stroke="#191970" d="M1415.8328,-119.9893C1487.982,-110.3225 1616.4744,-92.7691 1726.186,-76 1843.9221,-58.0044 1980.8201,-34.8784 2059.7898,-21.3226"/>
<polygon fill="#191970" stroke="#191970" points="2060.8066,-24.6993 2070.0692,-19.5559 2059.6209,-17.8004 2060.8066,-24.6993"/>
</g>
<!-- Node22&#45;&gt;Node20 -->
<g id="edge33" class="edge">
<title>Node22&#45;&gt;Node20</title>
<path fill="none" stroke="#191970" d="M1415.8592,-125.1836C1483.7526,-120.9698 1600.1124,-109.1362 1694.186,-76 1712.4996,-69.5492 1756.6745,-42.6183 1784.3458,-25.2142"/>
<polygon fill="#191970" stroke="#191970" points="1786.4536,-28.0225 1793.0361,-19.7206 1782.7132,-22.1056 1786.4536,-28.0225"/>
</g>
<!-- Node23 -->
<g id="node24" class="node">
<title>Node23</title>
<polygon fill="#ffffff" stroke="#bfbfbf" points="1254.686,-56.5 1254.686,-75.5 1353.686,-75.5 1353.686,-56.5 1254.686,-56.5"/>
<text text-anchor="middle" x="1304.186" y="-63.5" font-family="Helvetica,sans-Serif" font-size="10.00" fill="#000000">AMReX_BCRec.H</text>
</g>
<!-- Node22&#45;&gt;Node23 -->
<g id="edge34" class="edge">
<title>Node22&#45;&gt;Node23</title>
<path fill="none" stroke="#191970" d="M1350.5922,-117.8906C1342.3263,-108.6478 1329.6434,-94.466 1319.6243,-83.2628"/>
<polygon fill="#191970" stroke="#191970" points="1322.176,-80.8657 1312.9009,-75.7449 1316.9582,-85.5321 1322.176,-80.8657"/>
</g>
<!-- Node24 -->
<g id="node25" class="node">
<title>Node24</title>
<polygon fill="#ffffff" stroke="#bfbfbf" points="1371.686,-56.5 1371.686,-75.5 1456.686,-75.5 1456.686,-56.5 1371.686,-56.5"/>
<text text-anchor="middle" x="1414.186" y="-63.5" font-family="Helvetica,sans-Serif" font-size="10.00" fill="#000000">AMReX_Gpu.H</text>
</g>
<!-- Node22&#45;&gt;Node24 -->
<g id="edge35" class="edge">
<title>Node22&#45;&gt;Node24</title>
<path fill="none" stroke="#191970" d="M1367.7797,-117.8906C1376.0456,-108.6478 1388.7286,-94.466 1398.7476,-83.2628"/>
<polygon fill="#191970" stroke="#191970" points="1401.4137,-85.5321 1405.471,-75.7449 1396.1959,-80.8657 1401.4137,-85.5321"/>
</g>
<!-- Node25 -->
<g id="node26" class="node">
<title>Node25</title>
<g id="a_node26"><a xlink:href="incflo__enums_8_h.html" target="_top" xlink:title="amr&#45;wind/incflo_enums.H">
<polygon fill="#ffffff" stroke="#000000" points="1070.186,-56.5 1070.186,-75.5 1198.186,-75.5 1198.186,-56.5 1070.186,-56.5"/>
<text text-anchor="middle" x="1134.186" y="-63.5" font-family="Helvetica,sans-Serif" font-size="10.00" fill="#000000">amr&#45;wind/incflo_enums.H</text>
</a>
</g>
</g>
<!-- Node22&#45;&gt;Node25 -->
<g id="edge36" class="edge">
<title>Node22&#45;&gt;Node25</title>
<path fill="none" stroke="#191970" d="M1324.0297,-117.8906C1284.897,-107.1944 1221.565,-89.8836 1178.9277,-78.2294"/>
<polygon fill="#191970" stroke="#191970" points="1179.6643,-74.8024 1169.0953,-75.5419 1177.8186,-81.5547 1179.6643,-74.8024"/>
</g>
<!-- Node26 -->
<g id="node27" class="node">
<title>Node26</title>
<g id="a_node27"><a xlink:href="_view_field_8_h.html" target="_top" xlink:title="amr&#45;wind/core/ViewField.H">
<polygon fill="#ffffff" stroke="#000000" points="1551.186,-56.5 1551.186,-75.5 1685.186,-75.5 1685.186,-56.5 1551.186,-56.5"/>
<text text-anchor="middle" x="1618.186" y="-63.5" font-family="Helvetica,sans-Serif" font-size="10.00" fill="#000000">amr&#45;wind/core/ViewField.H</text>
</a>
</g>
</g>
<!-- Node22&#45;&gt;Node26 -->
<g id="edge38" class="edge">
<title>Node22&#45;&gt;Node26</title>
<path fill="none" stroke="#191970" d="M1399.3705,-117.9581C1444.8321,-107.1632 1518.9262,-89.5694 1568.1132,-77.8899"/>
<polygon fill="#191970" stroke="#191970" points="1568.9863,-81.28 1577.9071,-75.5643 1567.369,-74.4693 1568.9863,-81.28"/>
</g>
<!-- Node26&#45;&gt;Node1 -->
<g id="edge39" class="edge">
<title>Node26&#45;&gt;Node1</title>
<path fill="none" stroke="#191970" d="M1551.0081,-57.6583C1546.331,-57.0923 1541.6885,-56.5349 1537.186,-56 1398.4126,-39.514 1232.6153,-20.9448 1165.0868,-13.4292"/>
<polygon fill="#191970" stroke="#191970" points="1165.0697,-9.9058 1154.7441,-12.2791 1164.296,-16.863 1165.0697,-9.9058"/>
</g>
<!-- Node26&#45;&gt;Node10 -->
<g id="edge42" class="edge">
<title>Node26&#45;&gt;Node10</title>
<path fill="none" stroke="#191970" d="M1618.186,-56.2455C1618.186,-48.9382 1618.186,-38.6944 1618.186,-29.7046"/>
<polygon fill="#191970" stroke="#191970" points="1621.6861,-29.6426 1618.186,-19.6427 1614.6861,-29.6427 1621.6861,-29.6426"/>
</g>
<!-- Node26&#45;&gt;Node18 -->
<g id="edge40" class="edge">
<title>Node26&#45;&gt;Node18</title>
<path fill="none" stroke="#191970" d="M1685.25,-58.5925C1774.6259,-48.7206 1933.1454,-31.2116 2033.5108,-20.1259"/>
<polygon fill="#191970" stroke="#191970" points="2034.0852,-23.5838 2043.6405,-19.007 2033.3167,-16.6261 2034.0852,-23.5838"/>
</g>
<!-- Node26&#45;&gt;Node20 -->
<g id="edge41" class="edge">
<title>Node26&#45;&gt;Node20</title>
<path fill="none" stroke="#191970" d="M1650.8481,-56.3733C1682.7158,-46.9807 1731.3391,-32.6496 1766.093,-22.4064"/>
<polygon fill="#191970" stroke="#191970" points="1767.3475,-25.6855 1775.95,-19.5011 1765.3684,-18.9711 1767.3475,-25.6855"/>
</g>
<!-- Node27&#45;&gt;Node1 -->
<g id="edge44" class="edge">
<title>Node27&#45;&gt;Node1</title>
<path fill="none" stroke="#191970" d="M2137.0413,-123.2601C1978.7113,-112.373 1570.6107,-83.7456 1542.186,-76 1522.6245,-70.6696 1520.6183,-61.7833 1501.186,-56 1438.2721,-37.2759 1241.7789,-19.1204 1165.1887,-12.5672"/>
<polygon fill="#191970" stroke="#191970" points="1165.0486,-9.0429 1154.7887,-11.6859 1164.4574,-16.0179 1165.0486,-9.0429"/>
</g>
<!-- Node27&#45;&gt;Node18 -->
<g id="edge45" class="edge">
<title>Node27&#45;&gt;Node18</title>
<path fill="none" stroke="#191970" d="M2193.1302,-117.8845C2180.8258,-98.3471 2152.721,-53.7211 2136.7807,-28.4106"/>
<polygon fill="#191970" stroke="#191970" points="2139.6161,-26.3449 2131.3254,-19.7484 2133.6929,-30.0753 2139.6161,-26.3449"/>
</g>
<!-- Node27&#45;&gt;Node28 -->
<g id="edge46" class="edge">
<title>Node27&#45;&gt;Node28</title>
<path fill="none" stroke="#191970" d="M2206.3735,-117.8906C2213.1525,-108.8273 2223.4838,-95.0149 2231.7833,-83.9188"/>
<polygon fill="#191970" stroke="#191970" points="2234.7102,-85.849 2237.8971,-75.7449 2229.1048,-81.6563 2234.7102,-85.849"/>
</g>
<!-- Node29&#45;&gt;Node1 -->
<g id="edge48" class="edge">
<title>Node29&#45;&gt;Node1</title>
<path fill="none" stroke="#191970" d="M1791.9165,-123.158C1718.9897,-117.3888 1604.4971,-104.3912 1509.186,-76 1488.9859,-69.9828 1486.4039,-61.9566 1466.186,-56 1358.4649,-24.263 1224.4797,-14.2345 1165.0478,-11.2204"/>
<polygon fill="#191970" stroke="#191970" points="1164.9961,-7.7141 1154.8413,-10.7356 1164.6639,-14.7062 1164.9961,-7.7141"/>
</g>
<!-- Node29&#45;&gt;Node10 -->
<g id="edge52" class="edge">
<title>Node29&#45;&gt;Node10</title>
<path fill="none" stroke="#191970" d="M1844.9729,-117.8845C1801.352,-97.1336 1698.2375,-48.0812 1647.4662,-23.9289"/>
<polygon fill="#191970" stroke="#191970" points="1648.8657,-20.7188 1638.3319,-19.5836 1645.8586,-27.04 1648.8657,-20.7188"/>
</g>
<!-- Node29&#45;&gt;Node18 -->
<g id="edge49" class="edge">
<title>Node29&#45;&gt;Node18</title>
<path fill="none" stroke="#191970" d="M1907.8995,-117.9817C1942.0357,-109.4846 1990.5584,-95.3805 2030.186,-76 2058.3753,-62.2136 2087.545,-40.6685 2105.9964,-25.9722"/>
<polygon fill="#191970" stroke="#191970" points="2108.3417,-28.5767 2113.91,-19.5631 2103.9361,-23.137 2108.3417,-28.5767"/>
</g>
<!-- Node29&#45;&gt;Node20 -->
<g id="edge51" class="edge">
<title>Node29&#45;&gt;Node20</title>
<path fill="none" stroke="#191970" d="M1860.5214,-117.8845C1851.0854,-98.4331 1829.5858,-54.1138 1817.2799,-28.7462"/>
<polygon fill="#191970" stroke="#191970" points="1820.4287,-27.218 1812.915,-19.7484 1814.1306,-30.2733 1820.4287,-27.218"/>
</g>
<!-- Node29&#45;&gt;Node26 -->
<g id="edge50" class="edge">
<title>Node29&#45;&gt;Node26</title>
<path fill="none" stroke="#191970" d="M1826.8632,-117.9581C1783.689,-107.2082 1713.4364,-89.7162 1666.5275,-78.0365"/>
<polygon fill="#191970" stroke="#191970" points="1667.148,-74.5842 1656.5986,-75.5643 1665.4567,-81.3768 1667.148,-74.5842"/>
</g>
<!-- Node30 -->
<g id="node31" class="node">
<title>Node30</title>
<polygon fill="#ffffff" stroke="#bfbfbf" points="1893.186,-56.5 1893.186,-75.5 2021.186,-75.5 2021.186,-56.5 1893.186,-56.5"/>
<text text-anchor="middle" x="1957.186" y="-63.5" font-family="Helvetica,sans-Serif" font-size="10.00" fill="#000000">AMReX_PhysBCFunct.H</text>
</g>
<!-- Node29&#45;&gt;Node30 -->
<g id="edge53" class="edge">
<title>Node29&#45;&gt;Node30</title>
<path fill="none" stroke="#191970" d="M1879.561,-117.8906C1894.2791,-108.0519 1917.3692,-92.6167 1934.5449,-81.1351"/>
<polygon fill="#191970" stroke="#191970" points="1936.5434,-84.0091 1942.9119,-75.5419 1932.6532,-78.1896 1936.5434,-84.0091"/>
</g>
<!-- Node31&#45;&gt;Node1 -->
<g id="edge58" class="edge">
<title>Node31&#45;&gt;Node1</title>
<path fill="none" stroke="#191970" d="M768.4064,-189.8173C664.2315,-182.1283 477.9855,-165.415 457.186,-143 430.8571,-114.6264 426.754,-84.2776 453.186,-56 475.6909,-31.9236 973.4853,-14.9507 1103.4009,-10.9204"/>
<polygon fill="#191970" stroke="#191970" points="1103.5789,-14.4166 1113.4667,-10.6113 1103.364,-7.4199 1103.5789,-14.4166"/>
</g>
<!-- Node31&#45;&gt;Node4 -->
<g id="edge59" class="edge">
<title>Node31&#45;&gt;Node4</title>
<path fill="none" stroke="#191970" d="M804.523,-179.4639C778.9015,-168.0196 743.9198,-152.3945 719.0232,-141.274"/>
<polygon fill="#191970" stroke="#191970" points="720.2453,-137.9866 709.6873,-137.1039 717.3904,-144.378 720.2453,-137.9866"/>
</g>
<!-- Node31&#45;&gt;Node9 -->
<g id="edge60" class="edge">
<title>Node31&#45;&gt;Node9</title>
<path fill="none" stroke="#191970" d="M836.5975,-179.2967C835.6022,-169.7699 834.3094,-157.3954 833.2369,-147.1306"/>
<polygon fill="#191970" stroke="#191970" points="836.7045,-146.6371 832.1842,-137.055 829.7424,-147.3646 836.7045,-146.6371"/>
</g>
<!-- Node31&#45;&gt;Node18 -->
<g id="edge63" class="edge">
<title>Node31&#45;&gt;Node18</title>
<path fill="none" stroke="#191970" d="M907.8789,-180.2031C911.0179,-179.7558 914.1311,-179.3508 917.186,-179 1144.7191,-152.87 1727.4003,-207.4079 1947.186,-143 2017.9079,-122.275 2082.2031,-58.4164 2110.2796,-27.3422"/>
<polygon fill="#191970" stroke="#191970" points="2113.2053,-29.3176 2117.2134,-19.5101 2107.9641,-24.6775 2113.2053,-29.3176"/>
</g>
<!-- Node31&#45;&gt;Node25 -->
<g id="edge64" class="edge">
<title>Node31&#45;&gt;Node25</title>
<path fill="none" stroke="#191970" d="M856.8094,-179.4994C886.1587,-155.871 939.9895,-112.5848 941.186,-112 978.2417,-93.8868 1022.8575,-82.6542 1059.8539,-75.8284"/>
<polygon fill="#191970" stroke="#191970" points="1060.8379,-79.2086 1070.0741,-74.018 1059.6169,-72.316 1060.8379,-79.2086"/>
</g>
<!-- Node32 -->
<g id="node33" class="node">
<title>Node32</title>
<g id="a_node33"><a xlink:href="_p_d_e_fields_8_h.html" target="_top" xlink:title="amr&#45;wind/equation_systems\l/PDEFields.H">
<polygon fill="#ffffff" stroke="#000000" points="466.686,-112.5 466.686,-142.5 605.686,-142.5 605.686,-112.5 466.686,-112.5"/>
<text text-anchor="start" x="474.686" y="-130.5" font-family="Helvetica,sans-Serif" font-size="10.00" fill="#000000">amr&#45;wind/equation_systems</text>
<text text-anchor="middle" x="536.186" y="-119.5" font-family="Helvetica,sans-Serif" font-size="10.00" fill="#000000">/PDEFields.H</text>
</a>
</g>
</g>
<!-- Node31&#45;&gt;Node32 -->
<g id="edge61" class="edge">
<title>Node31&#45;&gt;Node32</title>
<path fill="none" stroke="#191970" d="M770.4113,-179.4639C723.9613,-169.1588 662.2314,-155.4637 613.8052,-144.7202"/>
<polygon fill="#191970" stroke="#191970" points="614.5159,-141.2928 603.9952,-142.5438 612.9997,-148.1267 614.5159,-141.2928"/>
</g>
<!-- Node33 -->
<g id="node34" class="node">
<title>Node33</title>
<polygon fill="#ffffff" stroke="#bfbfbf" points="462.686,-56.5 462.686,-75.5 507.686,-75.5 507.686,-56.5 462.686,-56.5"/>
<text text-anchor="middle" x="485.186" y="-63.5" font-family="Helvetica,sans-Serif" font-size="10.00" fill="#000000">iosfwd</text>
</g>
<!-- Node32&#45;&gt;Node33 -->
<g id="edge62" class="edge">
<title>Node32&#45;&gt;Node33</title>
<path fill="none" stroke="#191970" d="M523.5792,-112.2977C516.4261,-103.672 507.4362,-92.8312 499.9541,-83.8087"/>
<polygon fill="#191970" stroke="#191970" points="502.4293,-81.3103 493.3517,-75.8469 497.0409,-85.7787 502.4293,-81.3103"/>
</g>
<!-- Node34&#45;&gt;Node4 -->
<g id="edge66" class="edge">
<title>Node34&#45;&gt;Node4</title>
<path fill="none" stroke="#191970" d="M946.3797,-184.9717C892.3723,-172.9501 799.5099,-152.2797 741.1077,-139.2799"/>
<polygon fill="#191970" stroke="#191970" points="741.8535,-135.8603 731.3319,-137.1039 740.3325,-142.6931 741.8535,-135.8603"/>
</g>
<!-- Node34&#45;&gt;Node9 -->
<g id="edge67" class="edge">
<title>Node34&#45;&gt;Node9</title>
<path fill="none" stroke="#191970" d="M966.5484,-184.9005C939.4458,-173.4077 893.876,-154.0838 863.1821,-141.068"/>
<polygon fill="#191970" stroke="#191970" points="864.3544,-137.7635 853.7815,-137.0817 861.6215,-144.208 864.3544,-137.7635"/>
</g>
<!-- Node34&#45;&gt;Node20 -->
<g id="edge68" class="edge">
<title>Node34&#45;&gt;Node20</title>
<path fill="none" stroke="#191970" d="M1052.739,-188.964C1208.8167,-174.6286 1606.919,-133.3721 1726.186,-76 1751.7092,-63.7223 1776.383,-42.1204 1791.8812,-26.9842"/>
<polygon fill="#191970" stroke="#191970" points="1794.521,-29.2937 1799.1052,-19.7419 1789.565,-24.3502 1794.521,-29.2937"/>
</g>
<!-- Node35 -->
<g id="node36" class="node">
<title>Node35</title>
<polygon fill="#ffffff" stroke="#bfbfbf" points="950.186,-118 950.186,-137 1060.186,-137 1060.186,-118 950.186,-118"/>
<text text-anchor="middle" x="1005.186" y="-125" font-family="Helvetica,sans-Serif" font-size="10.00" fill="#000000">AMReX_Geometry.H</text>
</g>
<!-- Node34&#45;&gt;Node35 -->
<g id="edge69" class="edge">
<title>Node34&#45;&gt;Node35</title>
<path fill="none" stroke="#191970" d="M991.4784,-184.9005C993.8309,-175.0495 997.5573,-159.4451 1000.5313,-146.9912"/>
<polygon fill="#191970" stroke="#191970" points="1003.9793,-147.6212 1002.8978,-137.0817 997.1707,-145.9952 1003.9793,-147.6212"/>
</g>
</g>
</svg>
