<?xml version="1.0" encoding="UTF-8" standalone="no"?>
<!DOCTYPE svg PUBLIC "-//W3C//DTD SVG 1.1//EN"
 "http://www.w3.org/Graphics/SVG/1.1/DTD/svg11.dtd">
<!-- Generated by graphviz version 2.40.1 (20161225.0304)
 -->
<!-- Title: EkmanSpiral.cpp Pages: 1 -->
<svg width="2533pt" height="386pt"
 viewBox="0.00 0.00 2533.00 386.00" xmlns="http://www.w3.org/2000/svg" xmlns:xlink="http://www.w3.org/1999/xlink">
<g id="graph0" class="graph" transform="scale(1 1) rotate(0) translate(4 382)">
<title>EkmanSpiral.cpp</title>
<polygon fill="#ffffff" stroke="transparent" points="-4,4 -4,-382 2529,-382 2529,4 -4,4"/>
<!-- Node0 -->
<g id="node1" class="node">
<title>Node0</title>
<polygon fill="#bfbfbf" stroke="#000000" points="2178.5,-358.5 2178.5,-377.5 2269.5,-377.5 2269.5,-358.5 2178.5,-358.5"/>
<text text-anchor="middle" x="2224" y="-365.5" font-family="Helvetica,sans-Serif" font-size="10.00" fill="#000000">EkmanSpiral.cpp</text>
</g>
<!-- Node1 -->
<g id="node2" class="node">
<title>Node1</title>
<g id="a_node2"><a xlink:href="_ekman_spiral_8_h.html" target="_top" xlink:title="amr&#45;wind/physics/EkmanSpiral.H">
<polygon fill="#ffffff" stroke="#000000" points="1135,-302.5 1135,-321.5 1297,-321.5 1297,-302.5 1135,-302.5"/>
<text text-anchor="middle" x="1216" y="-309.5" font-family="Helvetica,sans-Serif" font-size="10.00" fill="#000000">amr&#45;wind/physics/EkmanSpiral.H</text>
</a>
</g>
</g>
<!-- Node0&#45;&gt;Node1 -->
<g id="edge1" class="edge">
<title>Node0&#45;&gt;Node1</title>
<path fill="none" stroke="#191970" d="M2178.4001,-365.4667C2023.639,-356.8688 1516.4908,-328.6939 1307.3886,-317.0771"/>
<polygon fill="#191970" stroke="#191970" points="1307.5365,-313.5801 1297.3578,-316.5199 1307.1482,-320.5693 1307.5365,-313.5801"/>
</g>
<!-- Node20 -->
<g id="node21" class="node">
<title>Node20</title>
<g id="a_node21"><a xlink:href="_c_f_d_sim_8_h.html" target="_top" xlink:title="amr&#45;wind/CFDSim.H">
<polygon fill="#ffffff" stroke="#000000" points="1053,-246.5 1053,-265.5 1161,-265.5 1161,-246.5 1053,-246.5"/>
<text text-anchor="middle" x="1107" y="-253.5" font-family="Helvetica,sans-Serif" font-size="10.00" fill="#000000">amr&#45;wind/CFDSim.H</text>
</a>
</g>
</g>
<!-- Node0&#45;&gt;Node20 -->
<g id="edge68" class="edge">
<title>Node0&#45;&gt;Node20</title>
<path fill="none" stroke="#191970" d="M2178.4509,-367.5675C1976.2533,-365.4606 1167.9761,-354.9957 1126,-322 1112.255,-311.1956 1108.0221,-291.1166 1106.9142,-275.9315"/>
<polygon fill="#191970" stroke="#191970" points="1110.3982,-275.3871 1106.5702,-265.508 1103.402,-275.618 1110.3982,-275.3871"/>
</g>
<!-- Node30 -->
<g id="node31" class="node">
<title>Node30</title>
<polygon fill="#ffffff" stroke="#bfbfbf" points="2084.5,-56.5 2084.5,-75.5 2191.5,-75.5 2191.5,-56.5 2084.5,-56.5"/>
<text text-anchor="middle" x="2138" y="-63.5" font-family="Helvetica,sans-Serif" font-size="10.00" fill="#000000">AMReX_iMultiFab.H</text>
</g>
<!-- Node0&#45;&gt;Node30 -->
<g id="edge69" class="edge">
<title>Node0&#45;&gt;Node30</title>
<path fill="none" stroke="#191970" d="M2226.8035,-358.2066C2232.0887,-338.8521 2243,-294.2612 2243,-256 2243,-256 2243,-256 2243,-194.5 2243,-156.8735 2246.8606,-141.8855 2224,-112 2212.7344,-97.2726 2195.3704,-86.7277 2179.1867,-79.482"/>
<polygon fill="#191970" stroke="#191970" points="2180.4263,-76.2068 2169.8494,-75.5903 2177.7333,-82.6681 2180.4263,-76.2068"/>
</g>
<!-- Node36 -->
<g id="node37" class="node">
<title>Node36</title>
<polygon fill="#ffffff" stroke="#bfbfbf" points="2271.5,-302.5 2271.5,-321.5 2390.5,-321.5 2390.5,-302.5 2271.5,-302.5"/>
<text text-anchor="middle" x="2331" y="-309.5" font-family="Helvetica,sans-Serif" font-size="10.00" fill="#000000">AMReX_MultiFabUtil.H</text>
</g>
<!-- Node0&#45;&gt;Node36 -->
<g id="edge70" class="edge">
<title>Node0&#45;&gt;Node36</title>
<path fill="none" stroke="#191970" d="M2242.638,-358.2455C2259.4386,-349.4527 2284.3634,-336.4079 2303.4618,-326.4125"/>
<polygon fill="#191970" stroke="#191970" points="2305.3386,-329.3807 2312.5756,-321.6427 2302.0927,-323.1787 2305.3386,-329.3807"/>
</g>
<!-- Node37 -->
<g id="node38" class="node">
<title>Node37</title>
<polygon fill="#ffffff" stroke="#bfbfbf" points="2409,-302.5 2409,-321.5 2525,-321.5 2525,-302.5 2409,-302.5"/>
<text text-anchor="middle" x="2467" y="-309.5" font-family="Helvetica,sans-Serif" font-size="10.00" fill="#000000">AMReX_ParmParse.H</text>
</g>
<!-- Node0&#45;&gt;Node37 -->
<g id="edge71" class="edge">
<title>Node0&#45;&gt;Node37</title>
<path fill="none" stroke="#191970" d="M2265.4971,-358.4369C2307.0847,-348.8529 2371.1834,-334.0812 2415.8831,-323.78"/>
<polygon fill="#191970" stroke="#191970" points="2416.7155,-327.18 2425.6741,-321.5237 2415.1435,-320.3588 2416.7155,-327.18"/>
</g>
<!-- Node38 -->
<g id="node39" class="node">
<title>Node38</title>
<g id="a_node39"><a xlink:href="trig__ops_8_h.html" target="_top" xlink:title="Trigonometric utilities. ">
<polygon fill="#ffffff" stroke="#000000" points="2111,-179.5 2111,-209.5 2201,-209.5 2201,-179.5 2111,-179.5"/>
<text text-anchor="start" x="2119" y="-197.5" font-family="Helvetica,sans-Serif" font-size="10.00" fill="#000000">amr&#45;wind/utilities</text>
<text text-anchor="middle" x="2156" y="-186.5" font-family="Helvetica,sans-Serif" font-size="10.00" fill="#000000">/trig_ops.H</text>
</a>
</g>
</g>
<!-- Node0&#45;&gt;Node38 -->
<g id="edge72" class="edge">
<title>Node0&#45;&gt;Node38</title>
<path fill="none" stroke="#191970" d="M2220.2472,-358.4248C2209.947,-332.1442 2180.9901,-258.2616 2165.7144,-219.2861"/>
<polygon fill="#191970" stroke="#191970" points="2168.8778,-217.7657 2161.9701,-209.7325 2162.3605,-220.3201 2168.8778,-217.7657"/>
</g>
<!-- Node2 -->
<g id="node3" class="node">
<title>Node2</title>
<g id="a_node3"><a xlink:href="_physics_8_h.html" target="_top" xlink:title="amr&#45;wind/core/Physics.H">
<polygon fill="#ffffff" stroke="#000000" points="362.5,-185 362.5,-204 489.5,-204 489.5,-185 362.5,-185"/>
<text text-anchor="middle" x="426" y="-192" font-family="Helvetica,sans-Serif" font-size="10.00" fill="#000000">amr&#45;wind/core/Physics.H</text>
</a>
</g>
</g>
<!-- Node1&#45;&gt;Node2 -->
<g id="edge2" class="edge">
<title>Node1&#45;&gt;Node2</title>
<path fill="none" stroke="#191970" d="M1152.0202,-302.484C1007.0427,-280.9209 654.1587,-228.435 500.0525,-205.5141"/>
<polygon fill="#191970" stroke="#191970" points="500.1556,-201.9911 489.7495,-203.9817 499.1258,-208.9149 500.1556,-201.9911"/>
</g>
<!-- Node14 -->
<g id="node15" class="node">
<title>Node14</title>
<g id="a_node15"><a xlink:href="_field_8_h.html" target="_top" xlink:title="amr&#45;wind/core/Field.H">
<polygon fill="#ffffff" stroke="#000000" points="1159.5,-118 1159.5,-137 1272.5,-137 1272.5,-118 1159.5,-118"/>
<text text-anchor="middle" x="1216" y="-125" font-family="Helvetica,sans-Serif" font-size="10.00" fill="#000000">amr&#45;wind/core/Field.H</text>
</a>
</g>
</g>
<!-- Node1&#45;&gt;Node14 -->
<g id="edge16" class="edge">
<title>Node1&#45;&gt;Node14</title>
<path fill="none" stroke="#191970" d="M1216,-302.3402C1216,-273.3223 1216,-186.5088 1216,-147.2113"/>
<polygon fill="#191970" stroke="#191970" points="1219.5001,-147.0641 1216,-137.0641 1212.5001,-147.0642 1219.5001,-147.0641"/>
</g>
<!-- Node1&#45;&gt;Node20 -->
<g id="edge30" class="edge">
<title>Node1&#45;&gt;Node20</title>
<path fill="none" stroke="#191970" d="M1197.0136,-302.2455C1179.8208,-293.4125 1154.2762,-280.2887 1134.7868,-270.2758"/>
<polygon fill="#191970" stroke="#191970" points="1136.263,-267.0993 1125.7688,-265.6427 1133.0641,-273.3257 1136.263,-267.0993"/>
</g>
<!-- Node3 -->
<g id="node4" class="node">
<title>Node3</title>
<g id="a_node4"><a xlink:href="_factory_8_h.html" target="_top" xlink:title="amr&#45;wind/core/Factory.H">
<polygon fill="#ffffff" stroke="#000000" points="291.5,-118 291.5,-137 416.5,-137 416.5,-118 291.5,-118"/>
<text text-anchor="middle" x="354" y="-125" font-family="Helvetica,sans-Serif" font-size="10.00" fill="#000000">amr&#45;wind/core/Factory.H</text>
</a>
</g>
</g>
<!-- Node2&#45;&gt;Node3 -->
<g id="edge3" class="edge">
<title>Node2&#45;&gt;Node3</title>
<path fill="none" stroke="#191970" d="M415.6842,-184.9005C404.2425,-174.2535 385.5785,-156.8856 371.7727,-144.0385"/>
<polygon fill="#191970" stroke="#191970" points="374.0017,-141.3317 364.2967,-137.0817 369.2331,-146.4562 374.0017,-141.3317"/>
</g>
<!-- Node9 -->
<g id="node10" class="node">
<title>Node9</title>
<g id="a_node10"><a xlink:href="_coll_mgr_8_h.html" target="_top" xlink:title="amr&#45;wind/core/CollMgr.H">
<polygon fill="#ffffff" stroke="#000000" points="434.5,-118 434.5,-137 559.5,-137 559.5,-118 434.5,-118"/>
<text text-anchor="middle" x="497" y="-125" font-family="Helvetica,sans-Serif" font-size="10.00" fill="#000000">amr&#45;wind/core/CollMgr.H</text>
</a>
</g>
</g>
<!-- Node2&#45;&gt;Node9 -->
<g id="edge9" class="edge">
<title>Node2&#45;&gt;Node9</title>
<path fill="none" stroke="#191970" d="M436.1726,-184.9005C447.4553,-174.2535 465.8601,-156.8856 479.4742,-144.0385"/>
<polygon fill="#191970" stroke="#191970" points="481.9754,-146.4905 486.8463,-137.0817 477.1712,-141.3994 481.9754,-146.4905"/>
</g>
<!-- Node12 -->
<g id="node13" class="node">
<title>Node12</title>
<polygon fill="#ffffff" stroke="#bfbfbf" points="1433,-.5 1433,-19.5 1537,-19.5 1537,-.5 1433,-.5"/>
<text text-anchor="middle" x="1485" y="-7.5" font-family="Helvetica,sans-Serif" font-size="10.00" fill="#000000">AMReX_MultiFab.H</text>
</g>
<!-- Node2&#45;&gt;Node12 -->
<g id="edge14" class="edge">
<title>Node2&#45;&gt;Node12</title>
<path fill="none" stroke="#191970" d="M362.2324,-184.9939C262.8011,-167.7538 88.9177,-126.4406 157,-56 197.8337,-13.7519 1155.2807,-22.0833 1214,-20 1285.4971,-17.4633 1367.5991,-14.4147 1422.5252,-12.3557"/>
<polygon fill="#191970" stroke="#191970" points="1422.9346,-15.8429 1432.7963,-11.9703 1422.6721,-8.8478 1422.9346,-15.8429"/>
</g>
<!-- Node13 -->
<g id="node14" class="node">
<title>Node13</title>
<polygon fill="#ffffff" stroke="#bfbfbf" points="0,-118 0,-137 110,-137 110,-118 0,-118"/>
<text text-anchor="middle" x="55" y="-125" font-family="Helvetica,sans-Serif" font-size="10.00" fill="#000000">AMReX_Geometry.H</text>
</g>
<!-- Node2&#45;&gt;Node13 -->
<g id="edge15" class="edge">
<title>Node2&#45;&gt;Node13</title>
<path fill="none" stroke="#191970" d="M364.5174,-184.9772C303.3716,-175.2804 206.9663,-159.3813 124,-143 118.1355,-141.8421 112.0059,-140.564 105.9242,-139.2533"/>
<polygon fill="#191970" stroke="#191970" points="106.3071,-135.7542 95.7896,-137.0321 104.8084,-142.5919 106.3071,-135.7542"/>
</g>
<!-- Node4 -->
<g id="node5" class="node">
<title>Node4</title>
<polygon fill="#ffffff" stroke="#bfbfbf" points="424,-56.5 424,-75.5 476,-75.5 476,-56.5 424,-56.5"/>
<text text-anchor="middle" x="450" y="-63.5" font-family="Helvetica,sans-Serif" font-size="10.00" fill="#000000">memory</text>
</g>
<!-- Node3&#45;&gt;Node4 -->
<g id="edge4" class="edge">
<title>Node3&#45;&gt;Node4</title>
<path fill="none" stroke="#191970" d="M369,-117.8906C384.3581,-108.0519 408.4521,-92.6167 426.3745,-81.1351"/>
<polygon fill="#191970" stroke="#191970" points="428.573,-83.8833 435.1053,-75.5419 424.797,-77.9891 428.573,-83.8833"/>
</g>
<!-- Node5 -->
<g id="node6" class="node">
<title>Node5</title>
<polygon fill="#ffffff" stroke="#bfbfbf" points="633.5,-56.5 633.5,-75.5 716.5,-75.5 716.5,-56.5 633.5,-56.5"/>
<text text-anchor="middle" x="675" y="-63.5" font-family="Helvetica,sans-Serif" font-size="10.00" fill="#000000">unordered_map</text>
</g>
<!-- Node3&#45;&gt;Node5 -->
<g id="edge5" class="edge">
<title>Node3&#45;&gt;Node5</title>
<path fill="none" stroke="#191970" d="M396.3723,-117.9885C405.7841,-115.9487 415.7204,-113.8517 425,-112 510.0437,-95.0304 534.0097,-92.7912 623.241,-76.1173"/>
<polygon fill="#191970" stroke="#191970" points="624.0788,-79.5213 633.261,-74.2358 622.7868,-72.6415 624.0788,-79.5213"/>
</g>
<!-- Node6 -->
<g id="node7" class="node">
<title>Node6</title>
<polygon fill="#ffffff" stroke="#bfbfbf" points="352,-56.5 352,-75.5 406,-75.5 406,-56.5 352,-56.5"/>
<text text-anchor="middle" x="379" y="-63.5" font-family="Helvetica,sans-Serif" font-size="10.00" fill="#000000">iostream</text>
</g>
<!-- Node3&#45;&gt;Node6 -->
<g id="edge6" class="edge">
<title>Node3&#45;&gt;Node6</title>
<path fill="none" stroke="#191970" d="M357.9063,-117.8906C361.4446,-109.1862 366.7636,-96.1015 371.175,-85.2494"/>
<polygon fill="#191970" stroke="#191970" points="374.5152,-86.3268 375.0387,-75.7449 368.0305,-83.6907 374.5152,-86.3268"/>
</g>
<!-- Node7 -->
<g id="node8" class="node">
<title>Node7</title>
<polygon fill="#ffffff" stroke="#bfbfbf" points="166.5,-56.5 166.5,-75.5 253.5,-75.5 253.5,-56.5 166.5,-56.5"/>
<text text-anchor="middle" x="210" y="-63.5" font-family="Helvetica,sans-Serif" font-size="10.00" fill="#000000">AMReX_Print.H</text>
</g>
<!-- Node3&#45;&gt;Node7 -->
<g id="edge7" class="edge">
<title>Node3&#45;&gt;Node7</title>
<path fill="none" stroke="#191970" d="M331.5,-117.8906C307.4062,-107.6005 268.9787,-91.1888 241.7992,-79.5809"/>
<polygon fill="#191970" stroke="#191970" points="242.9131,-76.2508 232.342,-75.5419 240.1637,-82.6883 242.9131,-76.2508"/>
</g>
<!-- Node8 -->
<g id="node9" class="node">
<title>Node8</title>
<polygon fill="#ffffff" stroke="#bfbfbf" points="272,-56.5 272,-75.5 334,-75.5 334,-56.5 272,-56.5"/>
<text text-anchor="middle" x="303" y="-63.5" font-family="Helvetica,sans-Serif" font-size="10.00" fill="#000000">AMReX.H</text>
</g>
<!-- Node3&#45;&gt;Node8 -->
<g id="edge8" class="edge">
<title>Node3&#45;&gt;Node8</title>
<path fill="none" stroke="#191970" d="M346.0313,-117.8906C338.4409,-108.7376 326.8339,-94.7409 317.5868,-83.59"/>
<polygon fill="#191970" stroke="#191970" points="320.1587,-81.2083 311.0811,-75.7449 314.7703,-85.6766 320.1587,-81.2083"/>
</g>
<!-- Node9&#45;&gt;Node4 -->
<g id="edge11" class="edge">
<title>Node9&#45;&gt;Node4</title>
<path fill="none" stroke="#191970" d="M489.6563,-117.8906C482.7298,-108.8273 472.174,-95.0149 463.694,-83.9188"/>
<polygon fill="#191970" stroke="#191970" points="466.3003,-81.565 457.4473,-75.7449 460.7385,-85.8155 466.3003,-81.565"/>
</g>
<!-- Node9&#45;&gt;Node5 -->
<g id="edge12" class="edge">
<title>Node9&#45;&gt;Node5</title>
<path fill="none" stroke="#191970" d="M524.8125,-117.8906C555.2483,-107.3749 604.1877,-90.466 637.8826,-78.8243"/>
<polygon fill="#191970" stroke="#191970" points="639.074,-82.1157 647.3828,-75.5419 636.788,-75.4995 639.074,-82.1157"/>
</g>
<!-- Node10 -->
<g id="node11" class="node">
<title>Node10</title>
<polygon fill="#ffffff" stroke="#bfbfbf" points="1164.5,-.5 1164.5,-19.5 1205.5,-19.5 1205.5,-.5 1164.5,-.5"/>
<text text-anchor="middle" x="1185" y="-7.5" font-family="Helvetica,sans-Serif" font-size="10.00" fill="#000000">string</text>
</g>
<!-- Node9&#45;&gt;Node10 -->
<g id="edge10" class="edge">
<title>Node9&#45;&gt;Node10</title>
<path fill="none" stroke="#191970" d="M502.1802,-117.9329C511.5064,-101.8069 532.8062,-69.6404 561,-56 677.2518,.2438 1009.1127,-42.9908 1154.0953,-19.5123"/>
<polygon fill="#191970" stroke="#191970" points="1154.9779,-22.9101 1164.2055,-17.7043 1153.7455,-16.0194 1154.9779,-22.9101"/>
</g>
<!-- Node11 -->
<g id="node12" class="node">
<title>Node11</title>
<polygon fill="#ffffff" stroke="#bfbfbf" points="1051.5,-.5 1051.5,-19.5 1146.5,-19.5 1146.5,-.5 1051.5,-.5"/>
<text text-anchor="middle" x="1099" y="-7.5" font-family="Helvetica,sans-Serif" font-size="10.00" fill="#000000">AMReX_Vector.H</text>
</g>
<!-- Node9&#45;&gt;Node11 -->
<g id="edge13" class="edge">
<title>Node9&#45;&gt;Node11</title>
<path fill="none" stroke="#191970" d="M498.0578,-117.9257C500.367,-102.0873 507.4237,-70.7219 528,-56 569.0403,-26.6365 903.9168,-14.919 1040.9134,-11.3241"/>
<polygon fill="#191970" stroke="#191970" points="1041.3022,-14.8154 1051.2089,-11.0595 1041.1223,-7.8177 1041.3022,-14.8154"/>
</g>
<!-- Node14&#45;&gt;Node4 -->
<g id="edge18" class="edge">
<title>Node14&#45;&gt;Node4</title>
<path fill="none" stroke="#191970" d="M1159.4346,-118.2014C1144.0772,-115.9143 1127.4287,-113.6509 1112,-112 867.9819,-85.8896 805.6735,-95.0114 561,-76 535.9673,-74.0549 507.7917,-71.5123 486.0916,-69.4777"/>
<polygon fill="#191970" stroke="#191970" points="486.2859,-65.9806 476.0011,-68.5246 485.6276,-72.9496 486.2859,-65.9806"/>
</g>
<!-- Node14&#45;&gt;Node5 -->
<g id="edge19" class="edge">
<title>Node14&#45;&gt;Node5</title>
<path fill="none" stroke="#191970" d="M1176.3508,-117.9834C1166.177,-115.7788 1155.2197,-113.6099 1145,-112 1065.446,-99.4676 831.1992,-79.0797 726.5378,-70.2739"/>
<polygon fill="#191970" stroke="#191970" points="726.7816,-66.7821 716.5238,-69.4334 726.1961,-73.7576 726.7816,-66.7821"/>
</g>
<!-- Node14&#45;&gt;Node10 -->
<g id="edge17" class="edge">
<title>Node14&#45;&gt;Node10</title>
<path fill="none" stroke="#191970" d="M1172.64,-117.967C1106.2,-103.3355 986.7384,-76.922 986,-76 952.0666,-33.6282 972.8368,-68.1291 1154.5278,-19.8627"/>
<polygon fill="#191970" stroke="#191970" points="1155.6916,-23.174 1164.4358,-17.1915 1153.8694,-16.4153 1155.6916,-23.174"/>
</g>
<!-- Node14&#45;&gt;Node12 -->
<g id="edge20" class="edge">
<title>Node14&#45;&gt;Node12</title>
<path fill="none" stroke="#191970" d="M1212.8345,-117.8117C1208.5493,-102.6498 1203.0356,-73.2671 1218,-56 1244.0583,-25.9318 1352.2828,-15.5155 1422.6925,-11.9086"/>
<polygon fill="#191970" stroke="#191970" points="1422.9713,-15.3994 1432.7922,-11.4244 1422.636,-8.4074 1422.9713,-15.3994"/>
</g>
<!-- Node15 -->
<g id="node16" class="node">
<title>Node15</title>
<polygon fill="#ffffff" stroke="#bfbfbf" points="995.5,-56.5 995.5,-75.5 1094.5,-75.5 1094.5,-56.5 995.5,-56.5"/>
<text text-anchor="middle" x="1045" y="-63.5" font-family="Helvetica,sans-Serif" font-size="10.00" fill="#000000">AMReX_BCRec.H</text>
</g>
<!-- Node14&#45;&gt;Node15 -->
<g id="edge21" class="edge">
<title>Node14&#45;&gt;Node15</title>
<path fill="none" stroke="#191970" d="M1189.2813,-117.8906C1160.1679,-107.42 1113.4308,-90.6111 1081.0753,-78.9745"/>
<polygon fill="#191970" stroke="#191970" points="1082.1256,-75.6328 1071.5311,-75.5419 1079.7565,-82.2197 1082.1256,-75.6328"/>
</g>
<!-- Node16 -->
<g id="node17" class="node">
<title>Node16</title>
<polygon fill="#ffffff" stroke="#bfbfbf" points="1601.5,-56.5 1601.5,-75.5 1686.5,-75.5 1686.5,-56.5 1601.5,-56.5"/>
<text text-anchor="middle" x="1644" y="-63.5" font-family="Helvetica,sans-Serif" font-size="10.00" fill="#000000">AMReX_Gpu.H</text>
</g>
<!-- Node14&#45;&gt;Node16 -->
<g id="edge22" class="edge">
<title>Node14&#45;&gt;Node16</title>
<path fill="none" stroke="#191970" d="M1272.5175,-120.7226C1344.1951,-111.9126 1471.8195,-95.5119 1591.4015,-76.0238"/>
<polygon fill="#191970" stroke="#191970" points="1592.1646,-79.4454 1601.4662,-74.373 1591.0315,-72.5377 1592.1646,-79.4454"/>
</g>
<!-- Node17 -->
<g id="node18" class="node">
<title>Node17</title>
<g id="a_node18"><a xlink:href="incflo__enums_8_h.html" target="_top" xlink:title="amr&#45;wind/incflo_enums.H">
<polygon fill="#ffffff" stroke="#000000" points="811,-56.5 811,-75.5 939,-75.5 939,-56.5 811,-56.5"/>
<text text-anchor="middle" x="875" y="-63.5" font-family="Helvetica,sans-Serif" font-size="10.00" fill="#000000">amr&#45;wind/incflo_enums.H</text>
</a>
</g>
</g>
<!-- Node14&#45;&gt;Node17 -->
<g id="edge23" class="edge">
<title>Node14&#45;&gt;Node17</title>
<path fill="none" stroke="#191970" d="M1174.0179,-117.9988C1164.4943,-115.9371 1154.4128,-113.8283 1145,-112 1077.5474,-98.8985 1000.2146,-85.9309 945.6485,-77.1205"/>
<polygon fill="#191970" stroke="#191970" points="946.1614,-73.6581 935.7323,-75.5247 945.0491,-80.5692 946.1614,-73.6581"/>
</g>
<!-- Node18 -->
<g id="node19" class="node">
<title>Node18</title>
<g id="a_node19"><a xlink:href="_field_desc_types_8_h.html" target="_top" xlink:title="amr&#45;wind/core/FieldDescTypes.H">
<polygon fill="#ffffff" stroke="#000000" points="1747.5,-.5 1747.5,-19.5 1910.5,-19.5 1910.5,-.5 1747.5,-.5"/>
<text text-anchor="middle" x="1829" y="-7.5" font-family="Helvetica,sans-Serif" font-size="10.00" fill="#000000">amr&#45;wind/core/FieldDescTypes.H</text>
</a>
</g>
</g>
<!-- Node14&#45;&gt;Node18 -->
<g id="edge24" class="edge">
<title>Node14&#45;&gt;Node18</title>
<path fill="none" stroke="#191970" d="M1244.5768,-117.9006C1296.9965,-100.412 1406.7429,-64.3865 1446,-56 1544.2493,-35.0111 1658.8697,-22.825 1736.9367,-16.3324"/>
<polygon fill="#191970" stroke="#191970" points="1737.5442,-19.7945 1747.226,-15.492 1736.9743,-12.8177 1737.5442,-19.7945"/>
</g>
<!-- Node19 -->
<g id="node20" class="node">
<title>Node19</title>
<g id="a_node20"><a xlink:href="_view_field_8_h.html" target="_top" xlink:title="amr&#45;wind/core/ViewField.H">
<polygon fill="#ffffff" stroke="#000000" points="1227,-56.5 1227,-75.5 1361,-75.5 1361,-56.5 1227,-56.5"/>
<text text-anchor="middle" x="1294" y="-63.5" font-family="Helvetica,sans-Serif" font-size="10.00" fill="#000000">amr&#45;wind/core/ViewField.H</text>
</a>
</g>
</g>
<!-- Node14&#45;&gt;Node19 -->
<g id="edge25" class="edge">
<title>Node14&#45;&gt;Node19</title>
<path fill="none" stroke="#191970" d="M1228.1875,-117.8906C1240.437,-108.2324 1259.5263,-93.1812 1273.9977,-81.771"/>
<polygon fill="#191970" stroke="#191970" points="1276.2124,-84.4819 1281.8981,-75.5419 1271.8783,-78.985 1276.2124,-84.4819"/>
</g>
<!-- Node19&#45;&gt;Node10 -->
<g id="edge26" class="edge">
<title>Node19&#45;&gt;Node10</title>
<path fill="none" stroke="#191970" d="M1275.0136,-56.2455C1257.8208,-47.4125 1232.2762,-34.2887 1212.7868,-24.2758"/>
<polygon fill="#191970" stroke="#191970" points="1214.263,-21.0993 1203.7688,-19.6427 1211.0641,-27.3257 1214.263,-21.0993"/>
</g>
<!-- Node19&#45;&gt;Node11 -->
<g id="edge29" class="edge">
<title>Node19&#45;&gt;Node11</title>
<path fill="none" stroke="#191970" d="M1260.4783,-56.3733C1227.6317,-46.9404 1177.4405,-32.5265 1141.7422,-22.2747"/>
<polygon fill="#191970" stroke="#191970" points="1142.6619,-18.8974 1132.0843,-19.5011 1140.7297,-25.6255 1142.6619,-18.8974"/>
</g>
<!-- Node19&#45;&gt;Node12 -->
<g id="edge28" class="edge">
<title>Node19&#45;&gt;Node12</title>
<path fill="none" stroke="#191970" d="M1326.8341,-56.3733C1358.8695,-46.9807 1407.7487,-32.6496 1442.6855,-22.4064"/>
<polygon fill="#191970" stroke="#191970" points="1443.9831,-25.6733 1452.5944,-19.5011 1442.0136,-18.9561 1443.9831,-25.6733"/>
</g>
<!-- Node19&#45;&gt;Node18 -->
<g id="edge27" class="edge">
<title>Node19&#45;&gt;Node18</title>
<path fill="none" stroke="#191970" d="M1361.1703,-57.5927C1365.8492,-57.0423 1370.4942,-56.5063 1375,-56 1500.3963,-41.9085 1645.5027,-27.5448 1737.2501,-18.7027"/>
<polygon fill="#191970" stroke="#191970" points="1737.7206,-22.1736 1747.3393,-17.7318 1737.05,-15.2058 1737.7206,-22.1736"/>
</g>
<!-- Node20&#45;&gt;Node2 -->
<g id="edge67" class="edge">
<title>Node20&#45;&gt;Node2</title>
<path fill="none" stroke="#191970" d="M1052.9938,-251.1228C931.6872,-240.1678 637.469,-213.5974 499.5925,-201.146"/>
<polygon fill="#191970" stroke="#191970" points="499.8146,-197.6519 489.5403,-200.2382 499.1849,-204.6235 499.8146,-197.6519"/>
</g>
<!-- Node21 -->
<g id="node22" class="node">
<title>Node21</title>
<polygon fill="#ffffff" stroke="#bfbfbf" points="2009,-118 2009,-137 2115,-137 2115,-118 2009,-118"/>
<text text-anchor="middle" x="2062" y="-125" font-family="Helvetica,sans-Serif" font-size="10.00" fill="#000000">AMReX_AmrCore.H</text>
</g>
<!-- Node20&#45;&gt;Node21 -->
<g id="edge31" class="edge">
<title>Node20&#45;&gt;Node21</title>
<path fill="none" stroke="#191970" d="M1161.1375,-254.2505C1264.4602,-250.3546 1496.7058,-238.9152 1690,-210 1809.4151,-192.1365 1947.6523,-157.8074 2017.1681,-139.5728"/>
<polygon fill="#191970" stroke="#191970" points="2018.1381,-142.9368 2026.9155,-137.0031 2016.3536,-136.168 2018.1381,-142.9368"/>
</g>
<!-- Node22 -->
<g id="node23" class="node">
<title>Node22</title>
<g id="a_node23"><a xlink:href="_sim_time_8_h.html" target="_top" xlink:title="amr&#45;wind/core/SimTime.H">
<polygon fill="#ffffff" stroke="#000000" points="1007.5,-185 1007.5,-204 1138.5,-204 1138.5,-185 1007.5,-185"/>
<text text-anchor="middle" x="1073" y="-192" font-family="Helvetica,sans-Serif" font-size="10.00" fill="#000000">amr&#45;wind/core/SimTime.H</text>
</a>
</g>
</g>
<!-- Node20&#45;&gt;Node22 -->
<g id="edge32" class="edge">
<title>Node20&#45;&gt;Node22</title>
<path fill="none" stroke="#191970" d="M1101.6875,-246.3906C1096.7761,-237.5068 1089.3421,-224.0601 1083.2725,-213.0811"/>
<polygon fill="#191970" stroke="#191970" points="1086.2888,-211.3031 1078.3874,-204.2449 1080.1627,-214.6899 1086.2888,-211.3031"/>
</g>
<!-- Node26 -->
<g id="node27" class="node">
<title>Node26</title>
<g id="a_node27"><a xlink:href="_field_repo_8_h.html" target="_top" xlink:title="amr&#45;wind/core/FieldRepo.H">
<polygon fill="#ffffff" stroke="#000000" points="1545,-185 1545,-204 1681,-204 1681,-185 1545,-185"/>
<text text-anchor="middle" x="1613" y="-192" font-family="Helvetica,sans-Serif" font-size="10.00" fill="#000000">amr&#45;wind/core/FieldRepo.H</text>
</a>
</g>
</g>
<!-- Node20&#45;&gt;Node26 -->
<g id="edge36" class="edge">
<title>Node20&#45;&gt;Node26</title>
<path fill="none" stroke="#191970" d="M1161.1509,-249.4184C1250.9618,-238.5027 1431.0847,-216.6103 1534.7307,-204.013"/>
<polygon fill="#191970" stroke="#191970" points="1535.3197,-207.4672 1544.8243,-202.7862 1534.475,-200.5184 1535.3197,-207.4672"/>
</g>
<!-- Node33 -->
<g id="node34" class="node">
<title>Node33</title>
<g id="a_node34"><a xlink:href="_p_d_e_base_8_h.html" target="_top" xlink:title="amr&#45;wind/equation_systems\l/PDEBase.H">
<polygon fill="#ffffff" stroke="#000000" points="675.5,-179.5 675.5,-209.5 814.5,-209.5 814.5,-179.5 675.5,-179.5"/>
<text text-anchor="start" x="683.5" y="-197.5" font-family="Helvetica,sans-Serif" font-size="10.00" fill="#000000">amr&#45;wind/equation_systems</text>
<text text-anchor="middle" x="745" y="-186.5" font-family="Helvetica,sans-Serif" font-size="10.00" fill="#000000">/PDEBase.H</text>
</a>
</g>
</g>
<!-- Node20&#45;&gt;Node33 -->
<g id="edge59" class="edge">
<title>Node20&#45;&gt;Node33</title>
<path fill="none" stroke="#191970" d="M1052.8049,-246.7928C992.3654,-236.5248 894.0166,-219.8164 824.785,-208.0546"/>
<polygon fill="#191970" stroke="#191970" points="825.2347,-204.581 814.7897,-206.3565 824.0622,-211.4821 825.2347,-204.581"/>
</g>
<!-- Node23 -->
<g id="node24" class="node">
<title>Node23</title>
<polygon fill="#ffffff" stroke="#bfbfbf" points="1783.5,-118 1783.5,-137 1876.5,-137 1876.5,-118 1783.5,-118"/>
<text text-anchor="middle" x="1830" y="-125" font-family="Helvetica,sans-Serif" font-size="10.00" fill="#000000">AMReX_REAL.H</text>
</g>
<!-- Node22&#45;&gt;Node23 -->
<g id="edge33" class="edge">
<title>Node22&#45;&gt;Node23</title>
<path fill="none" stroke="#191970" d="M1138.5939,-191.3333C1288.5761,-183.8247 1652.9379,-163.9906 1774,-143 1779.1483,-142.1073 1784.5059,-140.9414 1789.7772,-139.6492"/>
<polygon fill="#191970" stroke="#191970" points="1790.9404,-142.9628 1799.7302,-137.0476 1789.1701,-136.1904 1790.9404,-142.9628"/>
</g>
<!-- Node24 -->
<g id="node25" class="node">
<title>Node24</title>
<polygon fill="#ffffff" stroke="#bfbfbf" points="977,-118 977,-137 1103,-137 1103,-118 977,-118"/>
<text text-anchor="middle" x="1040" y="-125" font-family="Helvetica,sans-Serif" font-size="10.00" fill="#000000">AMReX_GpuQualifiers.H</text>
</g>
<!-- Node22&#45;&gt;Node24 -->
<g id="edge34" class="edge">
<title>Node22&#45;&gt;Node24</title>
<path fill="none" stroke="#191970" d="M1068.2719,-184.9005C1063.3219,-174.8505 1055.4224,-158.8122 1049.2303,-146.2403"/>
<polygon fill="#191970" stroke="#191970" points="1052.2777,-144.5061 1044.7193,-137.0817 1045.9981,-147.5991 1052.2777,-144.5061"/>
</g>
<!-- Node25 -->
<g id="node26" class="node">
<title>Node25</title>
<polygon fill="#ffffff" stroke="#bfbfbf" points="849,-118 849,-137 959,-137 959,-118 849,-118"/>
<text text-anchor="middle" x="904" y="-125" font-family="Helvetica,sans-Serif" font-size="10.00" fill="#000000">AMReX_Extension.H</text>
</g>
<!-- Node22&#45;&gt;Node25 -->
<g id="edge35" class="edge">
<title>Node22&#45;&gt;Node25</title>
<path fill="none" stroke="#191970" d="M1048.7864,-184.9005C1019.6714,-173.3579 970.6322,-153.9163 937.7982,-140.8993"/>
<polygon fill="#191970" stroke="#191970" points="938.7547,-137.5135 928.1687,-137.0817 936.1748,-144.0208 938.7547,-137.5135"/>
</g>
<!-- Node26&#45;&gt;Node5 -->
<g id="edge38" class="edge">
<title>Node26&#45;&gt;Node5</title>
<path fill="none" stroke="#191970" d="M1544.9756,-191.6516C1434.0607,-186.2239 1219.6304,-172.2372 1150,-143 1129.9038,-134.5618 1132.121,-120.3789 1112,-112 1094.4359,-104.6859 838.8018,-80.8308 726.8607,-70.661"/>
<polygon fill="#191970" stroke="#191970" points="727.0837,-67.1669 716.8085,-69.7494 726.4515,-74.1383 727.0837,-67.1669"/>
</g>
<!-- Node26&#45;&gt;Node10 -->
<g id="edge37" class="edge">
<title>Node26&#45;&gt;Node10</title>
<path fill="none" stroke="#191970" d="M1564.0107,-184.9493C1470.4248,-165.8929 1270.8191,-121.0906 1218,-76 1203.7306,-63.8185 1194.9875,-43.9742 1190.1179,-29.2215"/>
<polygon fill="#191970" stroke="#191970" points="1193.4482,-28.1416 1187.2329,-19.5614 1186.7409,-30.1448 1193.4482,-28.1416"/>
</g>
<!-- Node26&#45;&gt;Node12 -->
<g id="edge57" class="edge">
<title>Node26&#45;&gt;Node12</title>
<path fill="none" stroke="#191970" d="M1612.6021,-184.9178C1612.4203,-168.2081 1614.3788,-133.4747 1632,-112 1659.5309,-78.4485 1739.4732,-89.5988 1712,-56 1691.5175,-30.9506 1607.0722,-19.2164 1547.1823,-13.9559"/>
<polygon fill="#191970" stroke="#191970" points="1547.3094,-10.4543 1537.0519,-13.1065 1546.7245,-17.4298 1547.3094,-10.4543"/>
</g>
<!-- Node26&#45;&gt;Node14 -->
<g id="edge44" class="edge">
<title>Node26&#45;&gt;Node14</title>
<path fill="none" stroke="#191970" d="M1545.3717,-184.99C1479.301,-175.4226 1375.9742,-159.7252 1287,-143 1280.7344,-141.8222 1274.1759,-140.5055 1267.6845,-139.1505"/>
<polygon fill="#191970" stroke="#191970" points="1268.0996,-135.6606 1257.5903,-137.0043 1266.6438,-142.5076 1268.0996,-135.6606"/>
</g>
<!-- Node26&#45;&gt;Node18 -->
<g id="edge39" class="edge">
<title>Node26&#45;&gt;Node18</title>
<path fill="none" stroke="#191970" d="M1656.9615,-184.9344C1666.5229,-182.9187 1676.5917,-180.8451 1686,-179 1730.3146,-170.3092 1857.0342,-177.6452 1886,-143 1915.7716,-107.3911 1872.8787,-53.9038 1846.7014,-26.893"/>
<polygon fill="#191970" stroke="#191970" points="1849.0683,-24.3101 1839.5239,-19.7107 1844.1169,-29.2582 1849.0683,-24.3101"/>
</g>
<!-- Node26&#45;&gt;Node21 -->
<g id="edge56" class="edge">
<title>Node26&#45;&gt;Node21</title>
<path fill="none" stroke="#191970" d="M1681.2715,-187.2426C1757.9299,-178.6424 1885.8865,-162.9316 1995,-143 2001.089,-141.8877 2007.4595,-140.5903 2013.7479,-139.2283"/>
<polygon fill="#191970" stroke="#191970" points="2014.5109,-142.6442 2023.5098,-137.0521 2012.9878,-135.8119 2014.5109,-142.6442"/>
</g>
<!-- Node27 -->
<g id="node28" class="node">
<title>Node27</title>
<g id="a_node28"><a xlink:href="_field_utils_8_h.html" target="_top" xlink:title="amr&#45;wind/core/FieldUtils.H">
<polygon fill="#ffffff" stroke="#000000" points="1933.5,-56.5 1933.5,-75.5 2066.5,-75.5 2066.5,-56.5 1933.5,-56.5"/>
<text text-anchor="middle" x="2000" y="-63.5" font-family="Helvetica,sans-Serif" font-size="10.00" fill="#000000">amr&#45;wind/core/FieldUtils.H</text>
</a>
</g>
</g>
<!-- Node26&#45;&gt;Node27 -->
<g id="edge40" class="edge">
<title>Node26&#45;&gt;Node27</title>
<path fill="none" stroke="#191970" d="M1681.2357,-187.7117C1758.3216,-179.2275 1878.3394,-163.3184 1919,-143 1947.1903,-128.9131 1972.2151,-101.7058 1986.7434,-83.6974"/>
<polygon fill="#191970" stroke="#191970" points="1989.5988,-85.7276 1993.0002,-75.6936 1984.0839,-81.4164 1989.5988,-85.7276"/>
</g>
<!-- Node29 -->
<g id="node30" class="node">
<title>Node29</title>
<g id="a_node30"><a xlink:href="_int_field_8_h.html" target="_top" xlink:title="amr&#45;wind/core/IntField.H">
<polygon fill="#ffffff" stroke="#000000" points="1641,-118 1641,-137 1765,-137 1765,-118 1641,-118"/>
<text text-anchor="middle" x="1703" y="-125" font-family="Helvetica,sans-Serif" font-size="10.00" fill="#000000">amr&#45;wind/core/IntField.H</text>
</a>
</g>
</g>
<!-- Node26&#45;&gt;Node29 -->
<g id="edge45" class="edge">
<title>Node26&#45;&gt;Node29</title>
<path fill="none" stroke="#191970" d="M1625.8948,-184.9005C1640.4642,-174.0544 1664.4022,-156.2339 1681.7454,-143.3229"/>
<polygon fill="#191970" stroke="#191970" points="1684.1978,-145.8606 1690.1291,-137.0817 1680.0177,-140.2457 1684.1978,-145.8606"/>
</g>
<!-- Node26&#45;&gt;Node30 -->
<g id="edge58" class="edge">
<title>Node26&#45;&gt;Node30</title>
<path fill="none" stroke="#191970" d="M1681.11,-187.6871C1765.6685,-178.6235 1904.6526,-161.569 1953,-143 1976.3598,-134.0281 1977.494,-122.9387 2000,-112 2029.1302,-97.8417 2063.7082,-86.3244 2090.9645,-78.3553"/>
<polygon fill="#191970" stroke="#191970" points="2092.0013,-81.6992 2100.6514,-75.5816 2090.0743,-74.9697 2092.0013,-81.6992"/>
</g>
<!-- Node31 -->
<g id="node32" class="node">
<title>Node31</title>
<g id="a_node32"><a xlink:href="_scratch_field_8_h.html" target="_top" xlink:title="amr&#45;wind/core/ScratchField.H">
<polygon fill="#ffffff" stroke="#000000" points="1439,-118 1439,-137 1585,-137 1585,-118 1439,-118"/>
<text text-anchor="middle" x="1512" y="-125" font-family="Helvetica,sans-Serif" font-size="10.00" fill="#000000">amr&#45;wind/core/ScratchField.H</text>
</a>
</g>
</g>
<!-- Node26&#45;&gt;Node31 -->
<g id="edge49" class="edge">
<title>Node26&#45;&gt;Node31</title>
<path fill="none" stroke="#191970" d="M1598.5292,-184.9005C1581.8791,-173.8554 1554.326,-155.5776 1534.7886,-142.6172"/>
<polygon fill="#191970" stroke="#191970" points="1536.712,-139.693 1526.444,-137.0817 1532.8424,-145.5263 1536.712,-139.693"/>
</g>
<!-- Node27&#45;&gt;Node12 -->
<g id="edge42" class="edge">
<title>Node27&#45;&gt;Node12</title>
<path fill="none" stroke="#191970" d="M1933.4641,-58.765C1833.2744,-47.8706 1645.0302,-27.4013 1547.356,-16.7805"/>
<polygon fill="#191970" stroke="#191970" points="1547.6541,-13.2923 1537.3344,-15.6907 1546.8974,-20.2513 1547.6541,-13.2923"/>
</g>
<!-- Node27&#45;&gt;Node18 -->
<g id="edge41" class="edge">
<title>Node27&#45;&gt;Node18</title>
<path fill="none" stroke="#191970" d="M1970.6041,-56.3733C1942.1693,-47.0613 1898.9123,-32.8953 1867.6919,-22.671"/>
<polygon fill="#191970" stroke="#191970" points="1868.605,-19.2872 1858.0124,-19.5011 1866.4264,-25.9396 1868.605,-19.2872"/>
</g>
<!-- Node28 -->
<g id="node29" class="node">
<title>Node28</title>
<polygon fill="#ffffff" stroke="#bfbfbf" points="1942,-.5 1942,-19.5 2058,-19.5 2058,-.5 1942,-.5"/>
<text text-anchor="middle" x="2000" y="-7.5" font-family="Helvetica,sans-Serif" font-size="10.00" fill="#000000">AMReX_Interpolater.H</text>
</g>
<!-- Node27&#45;&gt;Node28 -->
<g id="edge43" class="edge">
<title>Node27&#45;&gt;Node28</title>
<path fill="none" stroke="#191970" d="M2000,-56.2455C2000,-48.9382 2000,-38.6944 2000,-29.7046"/>
<polygon fill="#191970" stroke="#191970" points="2003.5001,-29.6426 2000,-19.6427 1996.5001,-29.6427 2003.5001,-29.6426"/>
</g>
<!-- Node29&#45;&gt;Node10 -->
<g id="edge46" class="edge">
<title>Node29&#45;&gt;Node10</title>
<path fill="none" stroke="#191970" d="M1705.5163,-117.5499C1708.7799,-102.0294 1712.291,-72.1642 1696,-56 1678.8451,-38.9786 1323.4596,-17.754 1215.7028,-11.6888"/>
<polygon fill="#191970" stroke="#191970" points="1215.6803,-8.1821 1205.5005,-11.1183 1215.2895,-15.1712 1215.6803,-8.1821"/>
</g>
<!-- Node29&#45;&gt;Node18 -->
<g id="edge47" class="edge">
<title>Node29&#45;&gt;Node18</title>
<path fill="none" stroke="#191970" d="M1744.0465,-117.923C1781.0283,-108.3648 1831.3308,-92.7263 1843,-76 1852.6928,-62.1067 1846.9656,-42.8467 1840.1477,-28.7179"/>
<polygon fill="#191970" stroke="#191970" points="1843.2284,-27.0566 1835.4295,-19.8853 1837.0541,-30.3548 1843.2284,-27.0566"/>
</g>
<!-- Node29&#45;&gt;Node30 -->
<g id="edge48" class="edge">
<title>Node29&#45;&gt;Node30</title>
<path fill="none" stroke="#191970" d="M1743.9945,-117.9851C1754.096,-115.8314 1764.9107,-113.6856 1775,-112 1904.645,-90.3405 1940.8249,-94.506 2074.0636,-76.2225"/>
<polygon fill="#191970" stroke="#191970" points="2074.8287,-79.6499 2084.2518,-74.8069 2073.8653,-72.7165 2074.8287,-79.6499"/>
</g>
<!-- Node31&#45;&gt;Node10 -->
<g id="edge50" class="edge">
<title>Node31&#45;&gt;Node10</title>
<path fill="none" stroke="#191970" d="M1495.9211,-117.9042C1470.1429,-102.8691 1417.6187,-73.657 1370,-56 1317.326,-36.4685 1253.1686,-22.6142 1215.9145,-15.4955"/>
<polygon fill="#191970" stroke="#191970" points="1216.1788,-11.9843 1205.7056,-13.5853 1214.8913,-18.8649 1216.1788,-11.9843"/>
</g>
<!-- Node31&#45;&gt;Node11 -->
<g id="edge54" class="edge">
<title>Node31&#45;&gt;Node11</title>
<path fill="none" stroke="#191970" d="M1438.6964,-121.4878C1378.1517,-114.9197 1290.6707,-101.6979 1218,-76 1182.017,-63.2756 1144.0577,-40.3266 1120.9468,-25.1254"/>
<polygon fill="#191970" stroke="#191970" points="1122.8262,-22.1717 1112.5676,-19.5234 1118.9356,-27.991 1122.8262,-22.1717"/>
</g>
<!-- Node31&#45;&gt;Node12 -->
<g id="edge53" class="edge">
<title>Node31&#45;&gt;Node12</title>
<path fill="none" stroke="#191970" d="M1556.5501,-117.9742C1608.2113,-106.4812 1687.4297,-87.2984 1696,-76 1701.372,-68.918 1701.5759,-62.9225 1696,-56 1677.5679,-33.1166 1602.6055,-21.0105 1547.2477,-15.0629"/>
<polygon fill="#191970" stroke="#191970" points="1547.4636,-11.5667 1537.1574,-14.0228 1546.7458,-18.5298 1547.4636,-11.5667"/>
</g>
<!-- Node31&#45;&gt;Node18 -->
<g id="edge51" class="edge">
<title>Node31&#45;&gt;Node18</title>
<path fill="none" stroke="#191970" d="M1564.1487,-117.9766C1605.2183,-109.5547 1663.441,-95.5538 1712,-76 1746.4148,-62.1418 1783.2381,-40.0207 1806.1871,-25.2575"/>
<polygon fill="#191970" stroke="#191970" points="1808.3752,-28.0091 1814.84,-19.6152 1804.5517,-22.1455 1808.3752,-28.0091"/>
</g>
<!-- Node31&#45;&gt;Node19 -->
<g id="edge52" class="edge">
<title>Node31&#45;&gt;Node19</title>
<path fill="none" stroke="#191970" d="M1477.9375,-117.8906C1440.1023,-107.2169 1378.9194,-89.9566 1337.6115,-78.3033"/>
<polygon fill="#191970" stroke="#191970" points="1338.398,-74.8886 1327.8233,-75.5419 1336.4973,-81.6256 1338.398,-74.8886"/>
</g>
<!-- Node32 -->
<g id="node33" class="node">
<title>Node32</title>
<polygon fill="#ffffff" stroke="#bfbfbf" points="1455,-56.5 1455,-75.5 1583,-75.5 1583,-56.5 1455,-56.5"/>
<text text-anchor="middle" x="1519" y="-63.5" font-family="Helvetica,sans-Serif" font-size="10.00" fill="#000000">AMReX_PhysBCFunct.H</text>
</g>
<!-- Node31&#45;&gt;Node32 -->
<g id="edge55" class="edge">
<title>Node31&#45;&gt;Node32</title>
<path fill="none" stroke="#191970" d="M1513.0938,-117.8906C1514.0641,-109.3657 1515.5126,-96.6392 1516.7323,-85.9235"/>
<polygon fill="#191970" stroke="#191970" points="1520.2374,-86.0766 1517.8908,-75.7449 1513.2823,-85.2849 1520.2374,-86.0766"/>
</g>
<!-- Node33&#45;&gt;Node3 -->
<g id="edge61" class="edge">
<title>Node33&#45;&gt;Node3</title>
<path fill="none" stroke="#191970" d="M675.2045,-184.4054C610.248,-174.7412 510.8327,-159.263 425,-143 418.8174,-141.8286 412.349,-140.5253 405.9407,-139.1859"/>
<polygon fill="#191970" stroke="#191970" points="406.4792,-135.7222 395.9698,-137.0654 405.023,-142.5691 406.4792,-135.7222"/>
</g>
<!-- Node33&#45;&gt;Node9 -->
<g id="edge62" class="edge">
<title>Node33&#45;&gt;Node9</title>
<path fill="none" stroke="#191970" d="M689.344,-179.4639C644.883,-167.4522 583.3742,-150.835 541.9893,-139.6544"/>
<polygon fill="#191970" stroke="#191970" points="542.7505,-136.2346 532.1837,-137.0053 540.9248,-142.9923 542.7505,-136.2346"/>
</g>
<!-- Node33&#45;&gt;Node10 -->
<g id="edge60" class="edge">
<title>Node33&#45;&gt;Node10</title>
<path fill="none" stroke="#191970" d="M742.3612,-179.2733C738.336,-150.455 734.4136,-87.9698 769,-56 830.1009,.4785 1054.6013,-35.1037 1154.1057,-19.473"/>
<polygon fill="#191970" stroke="#191970" points="1154.9875,-22.8695 1164.1874,-17.6148 1153.7186,-15.9855 1154.9875,-22.8695"/>
</g>
<!-- Node33&#45;&gt;Node17 -->
<g id="edge66" class="edge">
<title>Node33&#45;&gt;Node17</title>
<path fill="none" stroke="#191970" d="M760.4232,-179.2548C784.9258,-155.0349 832.5691,-107.9413 858.016,-82.788"/>
<polygon fill="#191970" stroke="#191970" points="860.499,-85.2549 865.1506,-75.7358 855.5781,-80.2765 860.499,-85.2549"/>
</g>
<!-- Node33&#45;&gt;Node18 -->
<g id="edge65" class="edge">
<title>Node33&#45;&gt;Node18</title>
<path fill="none" stroke="#191970" d="M749.0709,-179.1713C758.1307,-146.3147 780.8323,-70.8755 802,-56 811.5138,-49.3142 1486.6782,-23.0092 1736.9783,-13.4748"/>
<polygon fill="#191970" stroke="#191970" points="1737.2794,-16.966 1747.139,-13.0881 1737.0131,-9.971 1737.2794,-16.966"/>
</g>
<!-- Node34 -->
<g id="node35" class="node">
<title>Node34</title>
<g id="a_node35"><a xlink:href="_p_d_e_fields_8_h.html" target="_top" xlink:title="amr&#45;wind/equation_systems\l/PDEFields.H">
<polygon fill="#ffffff" stroke="#000000" points="577.5,-112.5 577.5,-142.5 716.5,-142.5 716.5,-112.5 577.5,-112.5"/>
<text text-anchor="start" x="585.5" y="-130.5" font-family="Helvetica,sans-Serif" font-size="10.00" fill="#000000">amr&#45;wind/equation_systems</text>
<text text-anchor="middle" x="647" y="-119.5" font-family="Helvetica,sans-Serif" font-size="10.00" fill="#000000">/PDEFields.H</text>
</a>
</g>
</g>
<!-- Node33&#45;&gt;Node34 -->
<g id="edge63" class="edge">
<title>Node33&#45;&gt;Node34</title>
<path fill="none" stroke="#191970" d="M722.7623,-179.2967C709.3553,-170.1306 692.0924,-158.3285 677.432,-148.3055"/>
<polygon fill="#191970" stroke="#191970" points="679.3802,-145.3977 669.1497,-142.6432 675.4295,-151.1763 679.3802,-145.3977"/>
</g>
<!-- Node35 -->
<g id="node36" class="node">
<title>Node35</title>
<polygon fill="#ffffff" stroke="#bfbfbf" points="570.5,-56.5 570.5,-75.5 615.5,-75.5 615.5,-56.5 570.5,-56.5"/>
<text text-anchor="middle" x="593" y="-63.5" font-family="Helvetica,sans-Serif" font-size="10.00" fill="#000000">iosfwd</text>
</g>
<!-- Node34&#45;&gt;Node35 -->
<g id="edge64" class="edge">
<title>Node34&#45;&gt;Node35</title>
<path fill="none" stroke="#191970" d="M633.6517,-112.2977C625.9998,-103.5831 616.3627,-92.6075 608.3924,-83.5302"/>
<polygon fill="#191970" stroke="#191970" points="610.8742,-81.052 601.6461,-75.8469 605.6141,-85.6707 610.8742,-81.052"/>
</g>
<!-- Node38&#45;&gt;Node16 -->
<g id="edge75" class="edge">
<title>Node38&#45;&gt;Node16</title>
<path fill="none" stroke="#191970" d="M2154.8128,-179.4964C2152.4348,-160.4514 2145.3098,-128.1381 2124,-112 2090.5158,-86.6421 1814.5297,-72.7721 1696.8426,-67.9627"/>
<polygon fill="#191970" stroke="#191970" points="1696.7631,-64.4568 1686.6305,-67.5519 1696.4817,-71.4511 1696.7631,-64.4568"/>
</g>
<!-- Node38&#45;&gt;Node23 -->
<g id="edge74" class="edge">
<title>Node38&#45;&gt;Node23</title>
<path fill="none" stroke="#191970" d="M2110.6711,-185.1839C2051.9659,-173.1187 1949.6572,-152.0921 1886.1122,-139.0323"/>
<polygon fill="#191970" stroke="#191970" points="1886.7589,-135.5921 1876.259,-137.0072 1885.3497,-142.4488 1886.7589,-135.5921"/>
</g>
<!-- Node39 -->
<g id="node40" class="node">
<title>Node39</title>
<polygon fill="#ffffff" stroke="#bfbfbf" points="2171,-118 2171,-137 2215,-137 2215,-118 2171,-118"/>
<text text-anchor="middle" x="2193" y="-125" font-family="Helvetica,sans-Serif" font-size="10.00" fill="#000000">cmath</text>
</g>
<!-- Node38&#45;&gt;Node39 -->
<g id="edge73" class="edge">
<title>Node38&#45;&gt;Node39</title>
<path fill="none" stroke="#191970" d="M2164.3959,-179.2967C2169.8808,-169.3645 2177.0751,-156.3371 2182.8763,-145.8321"/>
<polygon fill="#191970" stroke="#191970" points="2185.953,-147.5009 2187.7234,-137.055 2179.8252,-144.1169 2185.953,-147.5009"/>
</g>
</g>
</svg>
