<?xml version="1.0" encoding="UTF-8" standalone="no"?>
<!DOCTYPE svg PUBLIC "-//W3C//DTD SVG 1.1//EN"
 "http://www.w3.org/Graphics/SVG/1.1/DTD/svg11.dtd">
<!-- Generated by graphviz version 2.40.1 (20161225.0304)
 -->
<!-- Title: Field.cpp Pages: 1 -->
<!--zoomable 263 -->
<svg id="main" version="1.1" xmlns="http://www.w3.org/2000/svg" xmlns:xlink="http://www.w3.org/1999/xlink" xml:space="preserve" onload="init(evt)">
<style type="text/css"><![CDATA[
.edge:hover path { stroke: red; }
.edge:hover polygon { stroke: red; fill: red; }
]]></style>
<script type="text/javascript"><![CDATA[
var edges = document.getElementsByTagName('g');
if (edges && edges.length) {
  for (var i=0;i<edges.length;i++) {
    if (edges[i].id.substr(0,4)=='edge') {
      edges[i].setAttribute('class','edge');
    }
  }
}
]]></script>
        <defs>
                <circle id="rim" cx="0" cy="0" r="7"/>
                <circle id="rim2" cx="0" cy="0" r="3.5"/>
                <g id="zoomPlus">
                        <use xlink:href="#rim" fill="#404040">
                                <set attributeName="fill" to="#808080" begin="zoomplus.mouseover" end="zoomplus.mouseout"/>
                        </use>
                        <path d="M-4,0h8M0,-4v8" fill="none" stroke="white" stroke-width="1.5" pointer-events="none"/>
                </g>
                <g id="zoomMin">
                        <use xlink:href="#rim" fill="#404040">
                                <set attributeName="fill" to="#808080" begin="zoomminus.mouseover" end="zoomminus.mouseout"/>
                        </use>
                        <path d="M-4,0h8" fill="none" stroke="white" stroke-width="1.5" pointer-events="none"/>
                </g>
                <g id="dirArrow">
                        <path fill="none" stroke="white" stroke-width="1.5" d="M0,-3.0v7 M-2.5,-0.5L0,-3.0L2.5,-0.5"/>
                </g>
               <g id="resetDef">
                       <use xlink:href="#rim2" fill="#404040">
                               <set attributeName="fill" to="#808080" begin="reset.mouseover" end="reset.mouseout"/>
                       </use>
               </g>
        </defs>

<script type="text/javascript">
var viewWidth = 2154;
var viewHeight = 263;
var sectionId = 'dynsection-0';
</script>
<script xlink:href="svgpan.js"/>
<svg id="graph" class="graph">
<g id="viewport">
<title>Field.cpp</title>
<polygon fill="#ffffff" stroke="transparent" points="-4,4 -4,-259 2150.3075,-259 2150.3075,4 -4,4"/>
<!-- Node0 -->
<g id="node1" class="node">
<title>Node0</title>
<polygon fill="#bfbfbf" stroke="#000000" points="1325.3075,-235.5 1325.3075,-254.5 1381.3075,-254.5 1381.3075,-235.5 1325.3075,-235.5"/>
<text text-anchor="middle" x="1353.3075" y="-242.5" font-family="Helvetica,sans-Serif" font-size="10.00" fill="#000000">Field.cpp</text>
</g>
<!-- Node1 -->
<g id="node2" class="node">
<title>Node1</title>
<g id="a_node2"><a xlink:href="_field_8_h.html" target="_top" xlink:title="amr&#45;wind/core/Field.H">
<polygon fill="#ffffff" stroke="#000000" points="1123.8075,-112.5 1123.8075,-131.5 1236.8075,-131.5 1236.8075,-112.5 1123.8075,-112.5"/>
<text text-anchor="middle" x="1180.3075" y="-119.5" font-family="Helvetica,sans-Serif" font-size="10.00" fill="#000000">amr&#45;wind/core/Field.H</text>
</a>
</g>
</g>
<!-- Node0&#45;&gt;Node1 -->
<g id="edge1" class="edge">
<title>Node0&#45;&gt;Node1</title>
<path fill="none" stroke="#191970" d="M1325.2542,-240.7704C1283.7165,-233.915 1208.8591,-219.0921 1191.3075,-199 1177.6796,-183.3995 1176.4341,-158.8478 1177.6248,-141.6736"/>
<polygon fill="#191970" stroke="#191970" points="1181.1172,-141.9257 1178.6534,-131.6213 1174.1536,-141.2131 1181.1172,-141.9257"/>
</g>
<!-- Node12 -->
<g id="node13" class="node">
<title>Node12</title>
<g id="a_node13"><a xlink:href="_field_repo_8_h.html" target="_top" xlink:title="amr&#45;wind/core/FieldRepo.H">
<polygon fill="#ffffff" stroke="#000000" points="453.3075,-174 453.3075,-193 589.3075,-193 589.3075,-174 453.3075,-174"/>
<text text-anchor="middle" x="521.3075" y="-181" font-family="Helvetica,sans-Serif" font-size="10.00" fill="#000000">amr&#45;wind/core/FieldRepo.H</text>
</a>
</g>
</g>
<!-- Node0&#45;&gt;Node12 -->
<g id="edge15" class="edge">
<title>Node0&#45;&gt;Node12</title>
<path fill="none" stroke="#191970" d="M1325.1487,-242.9185C1210.7749,-234.4642 778.5834,-202.5174 599.6334,-189.2897"/>
<polygon fill="#191970" stroke="#191970" points="599.7331,-185.7876 589.5023,-188.5408 599.217,-192.7686 599.7331,-185.7876"/>
</g>
<!-- Node20 -->
<g id="node21" class="node">
<title>Node20</title>
<g id="a_node21"><a xlink:href="_field_fill_patch_ops_8_h.html" target="_top" xlink:title="amr&#45;wind/core/FieldFillPatch\lOps.H">
<polygon fill="#ffffff" stroke="#000000" points="1364.3075,-168.5 1364.3075,-198.5 1504.3075,-198.5 1504.3075,-168.5 1364.3075,-168.5"/>
<text text-anchor="start" x="1372.3075" y="-186.5" font-family="Helvetica,sans-Serif" font-size="10.00" fill="#000000">amr&#45;wind/core/FieldFillPatch</text>
<text text-anchor="middle" x="1434.3075" y="-175.5" font-family="Helvetica,sans-Serif" font-size="10.00" fill="#000000">Ops.H</text>
</a>
</g>
</g>
<!-- Node0&#45;&gt;Node20 -->
<g id="edge38" class="edge">
<title>Node0&#45;&gt;Node20</title>
<path fill="none" stroke="#191970" d="M1365.9638,-235.3906C1376.7231,-227.2215 1392.564,-215.1941 1406.2866,-204.7752"/>
<polygon fill="#191970" stroke="#191970" points="1408.6447,-207.3793 1414.4927,-198.5446 1404.4117,-201.8042 1408.6447,-207.3793"/>
</g>
<!-- Node21 -->
<g id="node22" class="node">
<title>Node21</title>
<g id="a_node22"><a xlink:href="_sim_time_8_h.html" target="_top" xlink:title="amr&#45;wind/core/SimTime.H">
<polygon fill="#ffffff" stroke="#000000" points="1910.8075,-112.5 1910.8075,-131.5 2041.8075,-131.5 2041.8075,-112.5 1910.8075,-112.5"/>
<text text-anchor="middle" x="1976.3075" y="-119.5" font-family="Helvetica,sans-Serif" font-size="10.00" fill="#000000">amr&#45;wind/core/SimTime.H</text>
</a>
</g>
</g>
<!-- Node0&#45;&gt;Node21 -->
<g id="edge58" class="edge">
<title>Node0&#45;&gt;Node21</title>
<path fill="none" stroke="#191970" d="M1381.4619,-244.2664C1449.1771,-241.9903 1626.1464,-232.9925 1769.3075,-199 1834.3076,-183.5662 1906.7158,-153.473 1946.3388,-135.8241"/>
<polygon fill="#191970" stroke="#191970" points="1947.9975,-138.9159 1955.6816,-131.6217 1945.1259,-132.532 1947.9975,-138.9159"/>
</g>
<!-- Node26 -->
<g id="node27" class="node">
<title>Node26</title>
<g id="a_node27"><a xlink:href="_field_b_c_ops_8_h.html" target="_top" xlink:title="amr&#45;wind/core/FieldBCOps.H">
<polygon fill="#ffffff" stroke="#000000" points="1200.8075,-174 1200.8075,-193 1345.8075,-193 1345.8075,-174 1200.8075,-174"/>
<text text-anchor="middle" x="1273.3075" y="-181" font-family="Helvetica,sans-Serif" font-size="10.00" fill="#000000">amr&#45;wind/core/FieldBCOps.H</text>
</a>
</g>
</g>
<!-- Node0&#45;&gt;Node26 -->
<g id="edge51" class="edge">
<title>Node0&#45;&gt;Node26</title>
<path fill="none" stroke="#191970" d="M1340.8075,-235.3906C1328.244,-225.7324 1308.6652,-210.6812 1293.8227,-199.271"/>
<polygon fill="#191970" stroke="#191970" points="1295.781,-196.3618 1285.7198,-193.0419 1291.5147,-201.9115 1295.781,-196.3618"/>
</g>
<!-- Node29 -->
<g id="node30" class="node">
<title>Node29</title>
<g id="a_node30"><a xlink:href="_b_c_interface_8_h.html" target="_top" xlink:title="amr&#45;wind/boundary_conditions\l/BCInterface.H">
<polygon fill="#ffffff" stroke="#000000" points="1611.8075,-168.5 1611.8075,-198.5 1760.8075,-198.5 1760.8075,-168.5 1611.8075,-168.5"/>
<text text-anchor="start" x="1619.8075" y="-186.5" font-family="Helvetica,sans-Serif" font-size="10.00" fill="#000000">amr&#45;wind/boundary_conditions</text>
<text text-anchor="middle" x="1686.3075" y="-175.5" font-family="Helvetica,sans-Serif" font-size="10.00" fill="#000000">/BCInterface.H</text>
</a>
</g>
</g>
<!-- Node0&#45;&gt;Node29 -->
<g id="edge59" class="edge">
<title>Node0&#45;&gt;Node29</title>
<path fill="none" stroke="#191970" d="M1381.4119,-239.8095C1429.4838,-230.9314 1529.3057,-212.4958 1601.6668,-199.1318"/>
<polygon fill="#191970" stroke="#191970" points="1602.4888,-202.5393 1611.6868,-197.2813 1601.2174,-195.6557 1602.4888,-202.5393"/>
</g>
<!-- Node2 -->
<g id="node3" class="node">
<title>Node2</title>
<polygon fill="#ffffff" stroke="#bfbfbf" points="179.8075,-.5 179.8075,-19.5 220.8075,-19.5 220.8075,-.5 179.8075,-.5"/>
<text text-anchor="middle" x="200.3075" y="-7.5" font-family="Helvetica,sans-Serif" font-size="10.00" fill="#000000">string</text>
</g>
<!-- Node1&#45;&gt;Node2 -->
<g id="edge2" class="edge">
<title>Node1&#45;&gt;Node2</title>
<path fill="none" stroke="#191970" d="M1123.6062,-113.0204C1046.369,-100.71 916.4494,-79.6909 906.3075,-76 889.833,-70.0045 889.0729,-61.1265 872.3075,-56 748.3908,-18.1088 419.4067,-31.1582 290.3075,-20 270.592,-18.296 248.5056,-15.85 231.1464,-13.8037"/>
<polygon fill="#191970" stroke="#191970" points="231.3571,-10.304 221.0121,-12.5914 230.5256,-17.2545 231.3571,-10.304"/>
</g>
<!-- Node3 -->
<g id="node4" class="node">
<title>Node3</title>
<polygon fill="#ffffff" stroke="#bfbfbf" points="1076.3075,-56.5 1076.3075,-75.5 1128.3075,-75.5 1128.3075,-56.5 1076.3075,-56.5"/>
<text text-anchor="middle" x="1102.3075" y="-63.5" font-family="Helvetica,sans-Serif" font-size="10.00" fill="#000000">memory</text>
</g>
<!-- Node1&#45;&gt;Node3 -->
<g id="edge3" class="edge">
<title>Node1&#45;&gt;Node3</title>
<path fill="none" stroke="#191970" d="M1166.721,-112.2455C1154.9771,-103.814 1137.7877,-91.4729 1124.1193,-81.6598"/>
<polygon fill="#191970" stroke="#191970" points="1125.9029,-78.6316 1115.7384,-75.6427 1121.8204,-84.3179 1125.9029,-78.6316"/>
</g>
<!-- Node4 -->
<g id="node5" class="node">
<title>Node4</title>
<polygon fill="#ffffff" stroke="#bfbfbf" points="780.8075,-56.5 780.8075,-75.5 863.8075,-75.5 863.8075,-56.5 780.8075,-56.5"/>
<text text-anchor="middle" x="822.3075" y="-63.5" font-family="Helvetica,sans-Serif" font-size="10.00" fill="#000000">unordered_map</text>
</g>
<!-- Node1&#45;&gt;Node4 -->
<g id="edge4" class="edge">
<title>Node1&#45;&gt;Node4</title>
<path fill="none" stroke="#191970" d="M1123.5618,-113.3949C1039.4562,-100.6352 890.2767,-77.9799 878.3075,-76 876.846,-75.7582 875.3635,-75.5105 873.8674,-75.2582"/>
<polygon fill="#191970" stroke="#191970" points="874.3248,-71.7857 863.877,-73.545 873.1415,-78.6849 874.3248,-71.7857"/>
</g>
<!-- Node5 -->
<g id="node6" class="node">
<title>Node5</title>
<polygon fill="#ffffff" stroke="#bfbfbf" points="673.3075,-.5 673.3075,-19.5 777.3075,-19.5 777.3075,-.5 673.3075,-.5"/>
<text text-anchor="middle" x="725.3075" y="-7.5" font-family="Helvetica,sans-Serif" font-size="10.00" fill="#000000">AMReX_MultiFab.H</text>
</g>
<!-- Node1&#45;&gt;Node5 -->
<g id="edge5" class="edge">
<title>Node1&#45;&gt;Node5</title>
<path fill="none" stroke="#191970" d="M1177.1003,-112.4072C1171.5714,-97.5214 1158.7298,-69.2012 1137.3075,-56 1108.2223,-38.0766 895.6335,-21.4353 787.7504,-14.0343"/>
<polygon fill="#191970" stroke="#191970" points="787.8611,-10.5338 777.6466,-13.3471 787.3861,-17.5177 787.8611,-10.5338"/>
</g>
<!-- Node6 -->
<g id="node7" class="node">
<title>Node6</title>
<polygon fill="#ffffff" stroke="#bfbfbf" points="958.8075,-56.5 958.8075,-75.5 1057.8075,-75.5 1057.8075,-56.5 958.8075,-56.5"/>
<text text-anchor="middle" x="1008.3075" y="-63.5" font-family="Helvetica,sans-Serif" font-size="10.00" fill="#000000">AMReX_BCRec.H</text>
</g>
<!-- Node1&#45;&gt;Node6 -->
<g id="edge6" class="edge">
<title>Node1&#45;&gt;Node6</title>
<path fill="none" stroke="#191970" d="M1150.7397,-112.3733C1122.1387,-103.0613 1078.6287,-88.8953 1047.2257,-78.671"/>
<polygon fill="#191970" stroke="#191970" points="1048.0818,-75.269 1037.4895,-75.5011 1045.9147,-81.9251 1048.0818,-75.269"/>
</g>
<!-- Node7 -->
<g id="node8" class="node">
<title>Node7</title>
<polygon fill="#ffffff" stroke="#bfbfbf" points="1184.8075,-56.5 1184.8075,-75.5 1269.8075,-75.5 1269.8075,-56.5 1184.8075,-56.5"/>
<text text-anchor="middle" x="1227.3075" y="-63.5" font-family="Helvetica,sans-Serif" font-size="10.00" fill="#000000">AMReX_Gpu.H</text>
</g>
<!-- Node1&#45;&gt;Node7 -->
<g id="edge7" class="edge">
<title>Node1&#45;&gt;Node7</title>
<path fill="none" stroke="#191970" d="M1188.4943,-112.2455C1195.1664,-104.2958 1204.7555,-92.8706 1212.7328,-83.3656"/>
<polygon fill="#191970" stroke="#191970" points="1215.4667,-85.5525 1219.2146,-75.6427 1210.1049,-81.0524 1215.4667,-85.5525"/>
</g>
<!-- Node8 -->
<g id="node9" class="node">
<title>Node8</title>
<g id="a_node9"><a xlink:href="incflo__enums_8_h.html" target="_top" xlink:title="amr&#45;wind/incflo_enums.H">
<polygon fill="#ffffff" stroke="#000000" points="1472.3075,-56.5 1472.3075,-75.5 1600.3075,-75.5 1600.3075,-56.5 1472.3075,-56.5"/>
<text text-anchor="middle" x="1536.3075" y="-63.5" font-family="Helvetica,sans-Serif" font-size="10.00" fill="#000000">amr&#45;wind/incflo_enums.H</text>
</a>
</g>
</g>
<!-- Node1&#45;&gt;Node8 -->
<g id="edge8" class="edge">
<title>Node1&#45;&gt;Node8</title>
<path fill="none" stroke="#191970" d="M1237.1104,-113.0647C1299.195,-103.2986 1398.741,-87.6397 1465.7793,-77.0943"/>
<polygon fill="#191970" stroke="#191970" points="1466.5024,-80.5237 1475.8371,-75.5122 1465.4146,-73.6087 1466.5024,-80.5237"/>
</g>
<!-- Node9 -->
<g id="node10" class="node">
<title>Node9</title>
<g id="a_node10"><a xlink:href="_field_desc_types_8_h.html" target="_top" xlink:title="amr&#45;wind/core/FieldDescTypes.H">
<polygon fill="#ffffff" stroke="#000000" points="465.8075,-.5 465.8075,-19.5 628.8075,-19.5 628.8075,-.5 465.8075,-.5"/>
<text text-anchor="middle" x="547.3075" y="-7.5" font-family="Helvetica,sans-Serif" font-size="10.00" fill="#000000">amr&#45;wind/core/FieldDescTypes.H</text>
</a>
</g>
</g>
<!-- Node1&#45;&gt;Node9 -->
<g id="edge9" class="edge">
<title>Node1&#45;&gt;Node9</title>
<path fill="none" stroke="#191970" d="M1124.5979,-112.4841C1067.0175,-102.3671 981.1788,-86.419 949.3075,-76 929.2737,-69.4507 926.5557,-61.8531 906.3075,-56 857.7736,-41.9705 728.5664,-27.4163 639.1828,-18.532"/>
<polygon fill="#191970" stroke="#191970" points="639.3281,-15.0295 629.0327,-17.5305 638.6406,-21.9956 639.3281,-15.0295"/>
</g>
<!-- Node10 -->
<g id="node11" class="node">
<title>Node10</title>
<g id="a_node11"><a xlink:href="_view_field_8_h.html" target="_top" xlink:title="amr&#45;wind/core/ViewField.H">
<polygon fill="#ffffff" stroke="#000000" points="342.3075,-56.5 342.3075,-75.5 476.3075,-75.5 476.3075,-56.5 342.3075,-56.5"/>
<text text-anchor="middle" x="409.3075" y="-63.5" font-family="Helvetica,sans-Serif" font-size="10.00" fill="#000000">amr&#45;wind/core/ViewField.H</text>
</a>
</g>
</g>
<!-- Node1&#45;&gt;Node10 -->
<g id="edge10" class="edge">
<title>Node1&#45;&gt;Node10</title>
<path fill="none" stroke="#191970" d="M1123.4659,-113.0727C1120.3712,-112.6851 1117.3032,-112.3239 1114.3075,-112 869.4363,-85.5275 807.0798,-92.0844 561.3075,-76 537.0622,-74.4133 510.642,-72.6775 486.7307,-71.1039"/>
<polygon fill="#191970" stroke="#191970" points="486.8586,-67.6049 476.6503,-70.4404 486.3988,-74.5898 486.8586,-67.6049"/>
</g>
<!-- Node10&#45;&gt;Node2 -->
<g id="edge11" class="edge">
<title>Node10&#45;&gt;Node2</title>
<path fill="none" stroke="#191970" d="M373.3791,-56.3733C333.1603,-45.5969 268.6792,-28.3197 230.8143,-18.1741"/>
<polygon fill="#191970" stroke="#191970" points="231.4477,-14.7204 220.8826,-15.5129 229.636,-21.4819 231.4477,-14.7204"/>
</g>
<!-- Node10&#45;&gt;Node5 -->
<g id="edge13" class="edge">
<title>Node10&#45;&gt;Node5</title>
<path fill="none" stroke="#191970" d="M463.2708,-56.4369C518.646,-46.6236 604.7127,-31.3712 662.9636,-21.0483"/>
<polygon fill="#191970" stroke="#191970" points="663.9067,-24.4358 673.1425,-19.2444 662.6851,-17.5432 663.9067,-24.4358"/>
</g>
<!-- Node10&#45;&gt;Node9 -->
<g id="edge12" class="edge">
<title>Node10&#45;&gt;Node9</title>
<path fill="none" stroke="#191970" d="M433.0306,-56.3733C455.4812,-47.2629 489.3814,-33.5062 514.433,-23.3404"/>
<polygon fill="#191970" stroke="#191970" points="515.944,-26.5045 523.894,-19.5011 513.3118,-20.0182 515.944,-26.5045"/>
</g>
<!-- Node11 -->
<g id="node12" class="node">
<title>Node11</title>
<polygon fill="#ffffff" stroke="#bfbfbf" points="299.8075,-.5 299.8075,-19.5 394.8075,-19.5 394.8075,-.5 299.8075,-.5"/>
<text text-anchor="middle" x="347.3075" y="-7.5" font-family="Helvetica,sans-Serif" font-size="10.00" fill="#000000">AMReX_Vector.H</text>
</g>
<!-- Node10&#45;&gt;Node11 -->
<g id="edge14" class="edge">
<title>Node10&#45;&gt;Node11</title>
<path fill="none" stroke="#191970" d="M398.508,-56.2455C389.4398,-48.0549 376.2869,-36.1749 365.5831,-26.5069"/>
<polygon fill="#191970" stroke="#191970" points="367.7504,-23.7482 357.9833,-19.6427 363.0584,-28.9429 367.7504,-23.7482"/>
</g>
<!-- Node12&#45;&gt;Node1 -->
<g id="edge23" class="edge">
<title>Node12&#45;&gt;Node1</title>
<path fill="none" stroke="#191970" d="M589.4877,-178.9979C698.0451,-171.5163 917.0778,-155.1431 1113.2461,-132.059"/>
<polygon fill="#191970" stroke="#191970" points="1113.9385,-135.5016 1123.457,-130.8489 1113.1146,-128.5502 1113.9385,-135.5016"/>
</g>
<!-- Node12&#45;&gt;Node2 -->
<g id="edge16" class="edge">
<title>Node12&#45;&gt;Node2</title>
<path fill="none" stroke="#191970" d="M453.2058,-181.574C321.5074,-177.1437 42.2647,-164.0412 13.3075,-132 3.8224,-121.5046 -10.7631,-87.4438 14.3075,-56 33.4424,-32.0009 121.6456,-18.6982 169.3948,-13.1417"/>
<polygon fill="#191970" stroke="#191970" points="169.9383,-16.6028 179.4871,-12.0126 169.16,-9.6462 169.9383,-16.6028"/>
</g>
<!-- Node12&#45;&gt;Node4 -->
<g id="edge17" class="edge">
<title>Node12&#45;&gt;Node4</title>
<path fill="none" stroke="#191970" d="M559.7944,-173.9613C594.6999,-164.8146 647.275,-149.7918 691.3075,-132 709.3685,-124.7023 712.9291,-120.8003 730.3075,-112 751.4115,-101.3131 775.3087,-89.3692 793.4576,-80.3307"/>
<polygon fill="#191970" stroke="#191970" points="795.5011,-83.2233 802.8946,-75.6347 792.3826,-76.9563 795.5011,-83.2233"/>
</g>
<!-- Node12&#45;&gt;Node5 -->
<g id="edge36" class="edge">
<title>Node12&#45;&gt;Node5</title>
<path fill="none" stroke="#191970" d="M521.2731,-173.8171C521.7447,-149.9667 526.4462,-88.0073 561.3075,-56 576.4183,-42.1263 623.3206,-29.7794 663.1165,-21.3794"/>
<polygon fill="#191970" stroke="#191970" points="663.9699,-24.7772 673.0574,-19.3303 662.5566,-17.9213 663.9699,-24.7772"/>
</g>
<!-- Node12&#45;&gt;Node9 -->
<g id="edge18" class="edge">
<title>Node12&#45;&gt;Node9</title>
<path fill="none" stroke="#191970" d="M453.1683,-174.1165C403.8344,-165.7904 343.1471,-151.8496 327.3075,-132 306.232,-105.5889 303.9759,-82.2048 325.3075,-56 341.9402,-35.5676 401.8861,-23.9257 455.2966,-17.4679"/>
<polygon fill="#191970" stroke="#191970" points="455.9977,-20.9102 465.5286,-16.283 455.1923,-13.9567 455.9977,-20.9102"/>
</g>
<!-- Node13 -->
<g id="node14" class="node">
<title>Node13</title>
<g id="a_node14"><a xlink:href="_field_utils_8_h.html" target="_top" xlink:title="amr&#45;wind/core/FieldUtils.H">
<polygon fill="#ffffff" stroke="#000000" points="549.8075,-112.5 549.8075,-131.5 682.8075,-131.5 682.8075,-112.5 549.8075,-112.5"/>
<text text-anchor="middle" x="616.3075" y="-119.5" font-family="Helvetica,sans-Serif" font-size="10.00" fill="#000000">amr&#45;wind/core/FieldUtils.H</text>
</a>
</g>
</g>
<!-- Node12&#45;&gt;Node13 -->
<g id="edge19" class="edge">
<title>Node12&#45;&gt;Node13</title>
<path fill="none" stroke="#191970" d="M536.1513,-173.8906C551.3494,-164.0519 575.1924,-148.6167 592.9282,-137.1351"/>
<polygon fill="#191970" stroke="#191970" points="595.0755,-139.9144 601.568,-131.5419 591.2714,-134.0382 595.0755,-139.9144"/>
</g>
<!-- Node15 -->
<g id="node16" class="node">
<title>Node15</title>
<g id="a_node16"><a xlink:href="_int_field_8_h.html" target="_top" xlink:title="amr&#45;wind/core/IntField.H">
<polygon fill="#ffffff" stroke="#000000" points="22.3075,-112.5 22.3075,-131.5 146.3075,-131.5 146.3075,-112.5 22.3075,-112.5"/>
<text text-anchor="middle" x="84.3075" y="-119.5" font-family="Helvetica,sans-Serif" font-size="10.00" fill="#000000">amr&#45;wind/core/IntField.H</text>
</a>
</g>
</g>
<!-- Node12&#45;&gt;Node15 -->
<g id="edge24" class="edge">
<title>Node12&#45;&gt;Node15</title>
<path fill="none" stroke="#191970" d="M453.5058,-173.9581C372.9575,-162.6224 239.1371,-143.7895 156.6478,-132.1806"/>
<polygon fill="#191970" stroke="#191970" points="156.9918,-128.6946 146.6016,-130.7668 156.0162,-135.6263 156.9918,-128.6946"/>
</g>
<!-- Node16 -->
<g id="node17" class="node">
<title>Node16</title>
<polygon fill="#ffffff" stroke="#bfbfbf" points="64.8075,-56.5 64.8075,-75.5 171.8075,-75.5 171.8075,-56.5 64.8075,-56.5"/>
<text text-anchor="middle" x="118.3075" y="-63.5" font-family="Helvetica,sans-Serif" font-size="10.00" fill="#000000">AMReX_iMultiFab.H</text>
</g>
<!-- Node12&#45;&gt;Node16 -->
<g id="edge37" class="edge">
<title>Node12&#45;&gt;Node16</title>
<path fill="none" stroke="#191970" d="M453.126,-174.3952C400.2449,-166.2736 325.5534,-152.4703 262.3075,-132 219.7596,-118.2288 173.1613,-95.3216 144.8269,-80.442"/>
<polygon fill="#191970" stroke="#191970" points="146.4237,-77.3272 135.9502,-75.7284 143.1408,-83.5096 146.4237,-77.3272"/>
</g>
<!-- Node17 -->
<g id="node18" class="node">
<title>Node17</title>
<g id="a_node18"><a xlink:href="_scratch_field_8_h.html" target="_top" xlink:title="amr&#45;wind/core/ScratchField.H">
<polygon fill="#ffffff" stroke="#000000" points="336.3075,-112.5 336.3075,-131.5 482.3075,-131.5 482.3075,-112.5 336.3075,-112.5"/>
<text text-anchor="middle" x="409.3075" y="-119.5" font-family="Helvetica,sans-Serif" font-size="10.00" fill="#000000">amr&#45;wind/core/ScratchField.H</text>
</a>
</g>
</g>
<!-- Node12&#45;&gt;Node17 -->
<g id="edge28" class="edge">
<title>Node12&#45;&gt;Node17</title>
<path fill="none" stroke="#191970" d="M503.8075,-173.8906C485.561,-163.8713 456.7452,-148.0483 435.727,-136.5071"/>
<polygon fill="#191970" stroke="#191970" points="437.1347,-133.2872 426.6846,-131.5419 433.7655,-139.423 437.1347,-133.2872"/>
</g>
<!-- Node19 -->
<g id="node20" class="node">
<title>Node19</title>
<polygon fill="#ffffff" stroke="#bfbfbf" points="999.3075,-112.5 999.3075,-131.5 1105.3075,-131.5 1105.3075,-112.5 999.3075,-112.5"/>
<text text-anchor="middle" x="1052.3075" y="-119.5" font-family="Helvetica,sans-Serif" font-size="10.00" fill="#000000">AMReX_AmrCore.H</text>
</g>
<!-- Node12&#45;&gt;Node19 -->
<g id="edge35" class="edge">
<title>Node12&#45;&gt;Node19</title>
<path fill="none" stroke="#191970" d="M589.3992,-177.1122C678.7227,-168.4894 840.578,-152.0303 989.0236,-132.1191"/>
<polygon fill="#191970" stroke="#191970" points="989.7918,-135.5472 999.2339,-130.7411 988.8556,-128.6101 989.7918,-135.5472"/>
</g>
<!-- Node13&#45;&gt;Node5 -->
<g id="edge21" class="edge">
<title>Node13&#45;&gt;Node5</title>
<path fill="none" stroke="#191970" d="M655.3612,-112.3709C675.309,-105.4736 698.2711,-94.115 712.3075,-76 722.4671,-62.8884 725.355,-44.0099 725.9128,-29.7996"/>
<polygon fill="#191970" stroke="#191970" points="729.4134,-29.6178 725.9549,-19.6034 722.4135,-29.5888 729.4134,-29.6178"/>
</g>
<!-- Node13&#45;&gt;Node9 -->
<g id="edge20" class="edge">
<title>Node13&#45;&gt;Node9</title>
<path fill="none" stroke="#191970" d="M644.4678,-112.4329C673.76,-100.9212 713.0579,-80.1049 695.3075,-56 684.698,-41.5923 645.1674,-29.7394 609.6291,-21.6754"/>
<polygon fill="#191970" stroke="#191970" points="610.2568,-18.2299 599.7387,-19.5024 608.7546,-25.0668 610.2568,-18.2299"/>
</g>
<!-- Node14 -->
<g id="node15" class="node">
<title>Node14</title>
<polygon fill="#ffffff" stroke="#bfbfbf" points="570.3075,-56.5 570.3075,-75.5 686.3075,-75.5 686.3075,-56.5 570.3075,-56.5"/>
<text text-anchor="middle" x="628.3075" y="-63.5" font-family="Helvetica,sans-Serif" font-size="10.00" fill="#000000">AMReX_Interpolater.H</text>
</g>
<!-- Node13&#45;&gt;Node14 -->
<g id="edge22" class="edge">
<title>Node13&#45;&gt;Node14</title>
<path fill="none" stroke="#191970" d="M618.3978,-112.2455C619.9636,-104.9382 622.1587,-94.6944 624.0851,-85.7046"/>
<polygon fill="#191970" stroke="#191970" points="627.5682,-86.1541 626.2412,-75.6427 620.7236,-84.6873 627.5682,-86.1541"/>
</g>
<!-- Node15&#45;&gt;Node2 -->
<g id="edge25" class="edge">
<title>Node15&#45;&gt;Node2</title>
<path fill="none" stroke="#191970" d="M63.7302,-112.4665C39.8234,-100.0845 5.6548,-77.5034 22.3075,-56 40.2116,-32.8808 123.6712,-19.2914 169.6742,-13.4335"/>
<polygon fill="#191970" stroke="#191970" points="170.1943,-16.896 179.6938,-12.2045 169.3421,-9.9481 170.1943,-16.896"/>
</g>
<!-- Node15&#45;&gt;Node9 -->
<g id="edge26" class="edge">
<title>Node15&#45;&gt;Node9</title>
<path fill="none" stroke="#191970" d="M74.1463,-112.4067C60.6373,-98.5182 40.1373,-72.6548 55.3075,-56 61.9738,-48.6814 314.9349,-27.9927 455.4631,-17.0259"/>
<polygon fill="#191970" stroke="#191970" points="456.0984,-20.4871 465.7965,-16.2212 455.5549,-13.5083 456.0984,-20.4871"/>
</g>
<!-- Node15&#45;&gt;Node16 -->
<g id="edge27" class="edge">
<title>Node15&#45;&gt;Node16</title>
<path fill="none" stroke="#191970" d="M90.2299,-112.2455C94.9102,-104.5367 101.5748,-93.5598 107.2364,-84.2348"/>
<polygon fill="#191970" stroke="#191970" points="110.255,-86.007 112.453,-75.6427 104.2715,-82.3741 110.255,-86.007"/>
</g>
<!-- Node17&#45;&gt;Node2 -->
<g id="edge29" class="edge">
<title>Node17&#45;&gt;Node2</title>
<path fill="none" stroke="#191970" d="M379.3488,-112.3472C355.3898,-104.1064 321.296,-91.1944 293.3075,-76 266.3922,-61.3882 238.0482,-40.337 219.8292,-25.9635"/>
<polygon fill="#191970" stroke="#191970" points="221.745,-23.014 211.7494,-19.5013 217.3728,-28.4806 221.745,-23.014"/>
</g>
<!-- Node17&#45;&gt;Node5 -->
<g id="edge32" class="edge">
<title>Node17&#45;&gt;Node5</title>
<path fill="none" stroke="#191970" d="M425.2136,-112.4539C452.5416,-96.1767 507.4762,-64.0292 528.3075,-56 572.0208,-39.1513 623.6646,-27.372 663.1066,-19.9535"/>
<polygon fill="#191970" stroke="#191970" points="663.9131,-23.364 673.1161,-18.1149 662.6483,-16.4792 663.9131,-23.364"/>
</g>
<!-- Node17&#45;&gt;Node9 -->
<g id="edge30" class="edge">
<title>Node17&#45;&gt;Node9</title>
<path fill="none" stroke="#191970" d="M383.0187,-112.4831C354.2784,-100.6309 314.6381,-79.1089 333.3075,-56 348.9796,-36.6012 404.8329,-25.0024 455.5466,-18.3046"/>
<polygon fill="#191970" stroke="#191970" points="456.1268,-21.7591 465.6073,-17.0295 455.2466,-14.8147 456.1268,-21.7591"/>
</g>
<!-- Node17&#45;&gt;Node10 -->
<g id="edge31" class="edge">
<title>Node17&#45;&gt;Node10</title>
<path fill="none" stroke="#191970" d="M409.3075,-112.2455C409.3075,-104.9382 409.3075,-94.6944 409.3075,-85.7046"/>
<polygon fill="#191970" stroke="#191970" points="412.8076,-85.6426 409.3075,-75.6427 405.8076,-85.6427 412.8076,-85.6426"/>
</g>
<!-- Node17&#45;&gt;Node11 -->
<g id="edge33" class="edge">
<title>Node17&#45;&gt;Node11</title>
<path fill="none" stroke="#191970" d="M355.2895,-112.4617C334.4799,-105.8668 312.7407,-94.742 300.3075,-76 288.6797,-58.4719 306.6711,-38.9025 323.6474,-25.6566"/>
<polygon fill="#191970" stroke="#191970" points="325.7744,-28.4371 331.7654,-19.6988 321.6327,-22.7938 325.7744,-28.4371"/>
</g>
<!-- Node18 -->
<g id="node19" class="node">
<title>Node18</title>
<polygon fill="#ffffff" stroke="#bfbfbf" points="1326.3075,-56.5 1326.3075,-75.5 1454.3075,-75.5 1454.3075,-56.5 1326.3075,-56.5"/>
<text text-anchor="middle" x="1390.3075" y="-63.5" font-family="Helvetica,sans-Serif" font-size="10.00" fill="#000000">AMReX_PhysBCFunct.H</text>
</g>
<!-- Node17&#45;&gt;Node18 -->
<g id="edge34" class="edge">
<title>Node17&#45;&gt;Node18</title>
<path fill="none" stroke="#191970" d="M482.3818,-116.0649C501.2456,-114.6308 521.5266,-113.1747 540.3075,-112 868.0571,-91.5005 950.6966,-98.6068 1278.3075,-76 1290.5246,-75.157 1303.4793,-74.1266 1316.0767,-73.0514"/>
<polygon fill="#191970" stroke="#191970" points="1316.4224,-76.5347 1326.0819,-72.1822 1315.8165,-69.5609 1316.4224,-76.5347"/>
</g>
<!-- Node20&#45;&gt;Node1 -->
<g id="edge39" class="edge">
<title>Node20&#45;&gt;Node1</title>
<path fill="none" stroke="#191970" d="M1372.1721,-168.4554C1328.3045,-157.8339 1270.323,-143.7951 1229.6242,-133.9408"/>
<polygon fill="#191970" stroke="#191970" points="1230.2113,-130.4819 1219.6685,-131.5303 1228.564,-137.2854 1230.2113,-130.4819"/>
</g>
<!-- Node20&#45;&gt;Node5 -->
<g id="edge47" class="edge">
<title>Node20&#45;&gt;Node5</title>
<path fill="none" stroke="#191970" d="M1504.5866,-168.7564C1532.9981,-160.7419 1565.1804,-148.9141 1591.3075,-132 1625.4548,-109.8938 1670.3416,-85.4756 1642.3075,-56 1612.867,-25.0456 989.5655,-13.6753 787.7568,-10.7972"/>
<polygon fill="#191970" stroke="#191970" points="787.6661,-7.2957 777.6179,-10.6547 787.5677,-14.295 787.6661,-7.2957"/>
</g>
<!-- Node20&#45;&gt;Node9 -->
<g id="edge44" class="edge">
<title>Node20&#45;&gt;Node9</title>
<path fill="none" stroke="#191970" d="M1434.0298,-168.4055C1434.5869,-152.1794 1438.0774,-126.7366 1453.3075,-112 1506.2473,-60.7756 1660.3956,-109.0714 1609.3075,-56 1572.8715,-18.1495 716.7457,-23.238 664.3075,-20 656.1175,-19.4943 647.6107,-18.9004 639.089,-18.2585"/>
<polygon fill="#191970" stroke="#191970" points="639.3368,-14.7673 629.0966,-17.4855 638.7968,-21.7465 639.3368,-14.7673"/>
</g>
<!-- Node20&#45;&gt;Node13 -->
<g id="edge45" class="edge">
<title>Node20&#45;&gt;Node13</title>
<path fill="none" stroke="#191970" d="M1364.1525,-169.357C1360.8305,-168.8606 1357.5362,-168.4041 1354.3075,-168 1078.6633,-133.5029 1007.371,-152.1396 730.3075,-132 718.3099,-131.1279 705.6106,-130.1089 693.2126,-129.0614"/>
<polygon fill="#191970" stroke="#191970" points="693.1533,-125.5436 682.8911,-128.1773 692.5559,-132.5181 693.1533,-125.5436"/>
</g>
<!-- Node20&#45;&gt;Node18 -->
<g id="edge49" class="edge">
<title>Node20&#45;&gt;Node18</title>
<path fill="none" stroke="#191970" d="M1428.5553,-168.1389C1420.5559,-146.7768 1406.081,-108.1224 1397.4157,-84.982"/>
<polygon fill="#191970" stroke="#191970" points="1400.6719,-83.697 1393.8872,-75.5595 1394.1165,-86.1518 1400.6719,-83.697"/>
</g>
<!-- Node20&#45;&gt;Node19 -->
<g id="edge46" class="edge">
<title>Node20&#45;&gt;Node19</title>
<path fill="none" stroke="#191970" d="M1364.0983,-169.722C1360.7908,-169.128 1357.5144,-168.5509 1354.3075,-168 1251.1192,-150.2727 1222.5414,-148.6697 1115.3279,-132.1412"/>
<polygon fill="#191970" stroke="#191970" points="1115.8193,-128.6756 1105.4013,-130.603 1114.7474,-135.5931 1115.8193,-128.6756"/>
</g>
<!-- Node20&#45;&gt;Node21 -->
<g id="edge40" class="edge">
<title>Node20&#45;&gt;Node21</title>
<path fill="none" stroke="#191970" d="M1504.3842,-176.2736C1593.7308,-166.9476 1753.255,-149.9205 1900.3495,-132.0946"/>
<polygon fill="#191970" stroke="#191970" points="1900.9636,-135.5458 1910.4682,-130.8646 1900.1189,-128.5969 1900.9636,-135.5458"/>
</g>
<!-- Node22 -->
<g id="node23" class="node">
<title>Node22</title>
<polygon fill="#ffffff" stroke="#bfbfbf" points="1724.8075,-56.5 1724.8075,-75.5 1817.8075,-75.5 1817.8075,-56.5 1724.8075,-56.5"/>
<text text-anchor="middle" x="1771.3075" y="-63.5" font-family="Helvetica,sans-Serif" font-size="10.00" fill="#000000">AMReX_REAL.H</text>
</g>
<!-- Node20&#45;&gt;Node22 -->
<g id="edge48" class="edge">
<title>Node20&#45;&gt;Node22</title>
<path fill="none" stroke="#191970" d="M1499.7253,-168.4703C1536.7275,-159.2997 1583.5978,-146.5541 1624.3075,-132 1666.9079,-116.77 1714.348,-94.4439 1743.5129,-80.0648"/>
<polygon fill="#191970" stroke="#191970" points="1745.2718,-83.0992 1752.6696,-75.5148 1742.1568,-76.8304 1745.2718,-83.0992"/>
</g>
<!-- Node25 -->
<g id="node26" class="node">
<title>Node25</title>
<polygon fill="#ffffff" stroke="#bfbfbf" points="1462.3075,-112.5 1462.3075,-131.5 1582.3075,-131.5 1582.3075,-112.5 1462.3075,-112.5"/>
<text text-anchor="middle" x="1522.3075" y="-119.5" font-family="Helvetica,sans-Serif" font-size="10.00" fill="#000000">AMReX_FillPatchUtil.H</text>
</g>
<!-- Node20&#45;&gt;Node25 -->
<g id="edge50" class="edge">
<title>Node20&#45;&gt;Node25</title>
<path fill="none" stroke="#191970" d="M1456.0603,-168.2977C1469.5043,-158.9022 1486.7087,-146.8787 1500.2153,-137.4395"/>
<polygon fill="#191970" stroke="#191970" points="1502.2886,-140.2605 1508.4804,-131.6633 1498.2788,-134.5228 1502.2886,-140.2605"/>
</g>
<!-- Node21&#45;&gt;Node22 -->
<g id="edge41" class="edge">
<title>Node21&#45;&gt;Node22</title>
<path fill="none" stroke="#191970" d="M1941.0668,-112.3733C1906.3881,-102.9001 1853.3193,-88.4032 1815.7614,-78.1435"/>
<polygon fill="#191970" stroke="#191970" points="1816.6573,-74.7601 1806.0884,-75.5011 1814.8127,-81.5126 1816.6573,-74.7601"/>
</g>
<!-- Node23 -->
<g id="node24" class="node">
<title>Node23</title>
<polygon fill="#ffffff" stroke="#bfbfbf" points="2020.3075,-56.5 2020.3075,-75.5 2146.3075,-75.5 2146.3075,-56.5 2020.3075,-56.5"/>
<text text-anchor="middle" x="2083.3075" y="-63.5" font-family="Helvetica,sans-Serif" font-size="10.00" fill="#000000">AMReX_GpuQualifiers.H</text>
</g>
<!-- Node21&#45;&gt;Node23 -->
<g id="edge42" class="edge">
<title>Node21&#45;&gt;Node23</title>
<path fill="none" stroke="#191970" d="M1994.9455,-112.2455C2011.7462,-103.4527 2036.671,-90.4079 2055.7693,-80.4125"/>
<polygon fill="#191970" stroke="#191970" points="2057.6461,-83.3807 2064.8831,-75.6427 2054.4002,-77.1787 2057.6461,-83.3807"/>
</g>
<!-- Node24 -->
<g id="node25" class="node">
<title>Node24</title>
<polygon fill="#ffffff" stroke="#bfbfbf" points="1892.3075,-56.5 1892.3075,-75.5 2002.3075,-75.5 2002.3075,-56.5 1892.3075,-56.5"/>
<text text-anchor="middle" x="1947.3075" y="-63.5" font-family="Helvetica,sans-Serif" font-size="10.00" fill="#000000">AMReX_Extension.H</text>
</g>
<!-- Node21&#45;&gt;Node24 -->
<g id="edge43" class="edge">
<title>Node21&#45;&gt;Node24</title>
<path fill="none" stroke="#191970" d="M1971.2561,-112.2455C1967.3056,-104.617 1961.6978,-93.7881 1956.9017,-84.5267"/>
<polygon fill="#191970" stroke="#191970" points="1960.0076,-82.9131 1952.3011,-75.6427 1953.7917,-86.1321 1960.0076,-82.9131"/>
</g>
<!-- Node26&#45;&gt;Node1 -->
<g id="edge53" class="edge">
<title>Node26&#45;&gt;Node1</title>
<path fill="none" stroke="#191970" d="M1258.7763,-173.8906C1243.8982,-164.0519 1220.5571,-148.6167 1203.1947,-137.1351"/>
<polygon fill="#191970" stroke="#191970" points="1205.0085,-134.1385 1194.7367,-131.5419 1201.1473,-139.9773 1205.0085,-134.1385"/>
</g>
<!-- Node26&#45;&gt;Node7 -->
<g id="edge54" class="edge">
<title>Node26&#45;&gt;Node7</title>
<path fill="none" stroke="#191970" d="M1269.5432,-173.8845C1261.9619,-154.5192 1244.731,-110.5055 1234.7787,-85.084"/>
<polygon fill="#191970" stroke="#191970" points="1238.0286,-83.7843 1231.1239,-75.7484 1231.5103,-86.3362 1238.0286,-83.7843"/>
</g>
<!-- Node26&#45;&gt;Node9 -->
<g id="edge52" class="edge">
<title>Node26&#45;&gt;Node9</title>
<path fill="none" stroke="#191970" d="M1277.6805,-173.9247C1287.7285,-150.3199 1309.3131,-88.8767 1278.3075,-56 1231.4198,-6.2827 732.4703,-24.9103 664.3075,-20 656.1231,-19.4104 647.6201,-18.759 639.1009,-18.0798"/>
<polygon fill="#191970" stroke="#191970" points="639.3605,-14.5895 629.1109,-17.2718 638.7961,-21.5667 639.3605,-14.5895"/>
</g>
<!-- Node26&#45;&gt;Node18 -->
<g id="edge57" class="edge">
<title>Node26&#45;&gt;Node18</title>
<path fill="none" stroke="#191970" d="M1282.8821,-173.8845C1302.6792,-154.0028 1348.3462,-108.1406 1373.2894,-83.0908"/>
<polygon fill="#191970" stroke="#191970" points="1376.0248,-85.3041 1380.6006,-75.7484 1371.0645,-80.3649 1376.0248,-85.3041"/>
</g>
<!-- Node27 -->
<g id="node28" class="node">
<title>Node27</title>
<polygon fill="#ffffff" stroke="#bfbfbf" points="739.8075,-112.5 739.8075,-131.5 852.8075,-131.5 852.8075,-112.5 739.8075,-112.5"/>
<text text-anchor="middle" x="796.3075" y="-119.5" font-family="Helvetica,sans-Serif" font-size="10.00" fill="#000000">AMReX_FArrayBox.H</text>
</g>
<!-- Node26&#45;&gt;Node27 -->
<g id="edge55" class="edge">
<title>Node26&#45;&gt;Node27</title>
<path fill="none" stroke="#191970" d="M1200.4755,-174.9474C1120.4315,-165.4181 987.7782,-149.2447 862.943,-132.0585"/>
<polygon fill="#191970" stroke="#191970" points="863.2042,-128.5614 852.8193,-130.6601 862.2463,-135.4956 863.2042,-128.5614"/>
</g>
<!-- Node28 -->
<g id="node29" class="node">
<title>Node28</title>
<polygon fill="#ffffff" stroke="#bfbfbf" points="871.3075,-112.5 871.3075,-131.5 981.3075,-131.5 981.3075,-112.5 871.3075,-112.5"/>
<text text-anchor="middle" x="926.3075" y="-119.5" font-family="Helvetica,sans-Serif" font-size="10.00" fill="#000000">AMReX_Geometry.H</text>
</g>
<!-- Node26&#45;&gt;Node28 -->
<g id="edge56" class="edge">
<title>Node26&#45;&gt;Node28</title>
<path fill="none" stroke="#191970" d="M1219.4695,-173.9581C1157.5811,-162.9894 1056.0868,-145.0012 990.2372,-133.3305"/>
<polygon fill="#191970" stroke="#191970" points="990.4437,-129.8126 979.9863,-131.5137 989.2221,-136.7052 990.4437,-129.8126"/>
</g>
<!-- Node29&#45;&gt;Node1 -->
<g id="edge60" class="edge">
<title>Node29&#45;&gt;Node1</title>
<path fill="none" stroke="#191970" d="M1611.6455,-174.4255C1513.108,-162.4491 1341.136,-141.5473 1246.8432,-130.0868"/>
<polygon fill="#191970" stroke="#191970" points="1247.2018,-126.6048 1236.8526,-128.8726 1246.3572,-133.5536 1247.2018,-126.6048"/>
</g>
<!-- Node29&#45;&gt;Node8 -->
<g id="edge61" class="edge">
<title>Node29&#45;&gt;Node8</title>
<path fill="none" stroke="#191970" d="M1667.0047,-168.3795C1638.6083,-146.1356 1585.8081,-104.7754 1556.7658,-82.0256"/>
<polygon fill="#191970" stroke="#191970" points="1558.5994,-79.016 1548.5687,-75.6046 1554.2827,-84.5266 1558.5994,-79.016"/>
</g>
<!-- Node30 -->
<g id="node31" class="node">
<title>Node30</title>
<polygon fill="#ffffff" stroke="#bfbfbf" points="1714.8075,-112.5 1714.8075,-131.5 1833.8075,-131.5 1833.8075,-112.5 1714.8075,-112.5"/>
<text text-anchor="middle" x="1774.3075" y="-119.5" font-family="Helvetica,sans-Serif" font-size="10.00" fill="#000000">AMReX_BC_TYPES.H</text>
</g>
<!-- Node29&#45;&gt;Node30 -->
<g id="edge62" class="edge">
<title>Node29&#45;&gt;Node30</title>
<path fill="none" stroke="#191970" d="M1708.0603,-168.2977C1721.5043,-158.9022 1738.7087,-146.8787 1752.2153,-137.4395"/>
<polygon fill="#191970" stroke="#191970" points="1754.2886,-140.2605 1760.4804,-131.6633 1750.2788,-134.5228 1754.2886,-140.2605"/>
</g>
<!-- Node31 -->
<g id="node32" class="node">
<title>Node31</title>
<polygon fill="#ffffff" stroke="#bfbfbf" points="1852.3075,-112.5 1852.3075,-131.5 1892.3075,-131.5 1892.3075,-112.5 1852.3075,-112.5"/>
<text text-anchor="middle" x="1872.3075" y="-119.5" font-family="Helvetica,sans-Serif" font-size="10.00" fill="#000000">utility</text>
</g>
<!-- Node29&#45;&gt;Node31 -->
<g id="edge63" class="edge">
<title>Node29&#45;&gt;Node31</title>
<path fill="none" stroke="#191970" d="M1732.7393,-168.4725C1761.8238,-159.013 1800.3184,-146.4093 1842.426,-132.2671"/>
<polygon fill="#191970" stroke="#191970" points="1843.6776,-135.5389 1852.0393,-129.0326 1841.4453,-128.9043 1843.6776,-135.5389"/>
</g>
</g>
</svg>
        <g id="navigator" transform="translate(0 0)" fill="#404254">
                <rect fill="#f2f5e9" fill-opacity="0.5" stroke="#606060" stroke-width=".5" x="0" y="0" width="60" height="60"/>
                <use id="zoomplus" xlink:href="#zoomPlus" x="17" y="9" onmousedown="handleZoom(evt,'in')"/>
                <use id="zoomminus" xlink:href="#zoomMin" x="42" y="9" onmousedown="handleZoom(evt,'out')"/>
                <use id="reset" xlink:href="#resetDef" x="30" y="36" onmousedown="handleReset()"/>
                <g id="arrowUp" xlink:href="#dirArrow" transform="translate(30 24)" onmousedown="handlePan(0,-1)">
                  <use xlink:href="#rim" fill="#404040">
                        <set attributeName="fill" to="#808080" begin="arrowUp.mouseover" end="arrowUp.mouseout"/>
                  </use>
                  <path fill="none" stroke="white" stroke-width="1.5" d="M0,-3.0v7 M-2.5,-0.5L0,-3.0L2.5,-0.5"/>
                </g>
                <g id="arrowRight" xlink:href="#dirArrow" transform="rotate(90) translate(36 -43)" onmousedown="handlePan(1,0)">
                  <use xlink:href="#rim" fill="#404040">
                        <set attributeName="fill" to="#808080" begin="arrowRight.mouseover" end="arrowRight.mouseout"/>
                  </use>
                  <path fill="none" stroke="white" stroke-width="1.5" d="M0,-3.0v7 M-2.5,-0.5L0,-3.0L2.5,-0.5"/>
                </g>
                <g id="arrowDown" xlink:href="#dirArrow" transform="rotate(180) translate(-30 -48)" onmousedown="handlePan(0,1)">
                  <use xlink:href="#rim" fill="#404040">
                        <set attributeName="fill" to="#808080" begin="arrowDown.mouseover" end="arrowDown.mouseout"/>
                  </use>
                  <path fill="none" stroke="white" stroke-width="1.5" d="M0,-3.0v7 M-2.5,-0.5L0,-3.0L2.5,-0.5"/>
                </g>
                <g id="arrowLeft" xlink:href="#dirArrow" transform="rotate(270) translate(-36 17)" onmousedown="handlePan(-1,0)">
                  <use xlink:href="#rim" fill="#404040">
                        <set attributeName="fill" to="#808080" begin="arrowLeft.mouseover" end="arrowLeft.mouseout"/>
                  </use>
                  <path fill="none" stroke="white" stroke-width="1.5" d="M0,-3.0v7 M-2.5,-0.5L0,-3.0L2.5,-0.5"/>
                </g>
        </g>
        <svg viewBox="0 0 15 15" width="100%" height="30px" preserveAspectRatio="xMaxYMin meet">
         <g id="arrow_out" transform="scale(0.3 0.3)">
          <a xlink:href="_field_8cpp__incl_org.svg" target="_base">
           <rect id="button" ry="5" rx="5" y="6" x="6" height="38" width="38"
                fill="#f2f5e9" fill-opacity="0.5" stroke="#606060" stroke-width="1.0"/>
           <path id="arrow"
             d="M 11.500037,31.436501 C 11.940474,20.09759 22.043105,11.32322 32.158766,21.979434 L 37.068811,17.246167 C 37.068811,17.246167 37.088388,32 37.088388,32 L 22.160133,31.978069 C 22.160133,31.978069 26.997745,27.140456 26.997745,27.140456 C 18.528582,18.264221 13.291696,25.230495 11.500037,31.436501 z"
             style="fill:#404040;"/>
          </a>
         </g>
        </svg>
</svg>
