<?xml version="1.0" encoding="UTF-8" standalone="no"?>
<!DOCTYPE svg PUBLIC "-//W3C//DTD SVG 1.1//EN"
 "http://www.w3.org/Graphics/SVG/1.1/DTD/svg11.dtd">
<!-- Generated by graphviz version 2.40.1 (20161225.0304)
 -->
<!-- Title: FieldRepo.H Pages: 1 -->
<svg width="3394pt" height="252pt"
 viewBox="0.00 0.00 3394.00 252.00" xmlns="http://www.w3.org/2000/svg" xmlns:xlink="http://www.w3.org/1999/xlink">
<g id="graph0" class="graph" transform="scale(1 1) rotate(0) translate(4 248)">
<title>FieldRepo.H</title>
<polygon fill="#ffffff" stroke="transparent" points="-4,4 -4,-248 3390,-248 3390,4 -4,4"/>
<!-- Node19 -->
<g id="node1" class="node">
<title>Node19</title>
<polygon fill="#bfbfbf" stroke="#000000" points="1645.5,-224.5 1645.5,-243.5 1716.5,-243.5 1716.5,-224.5 1645.5,-224.5"/>
<text text-anchor="middle" x="1681" y="-231.5" font-family="Helvetica,sans-Serif" font-size="10.00" fill="#000000">FieldRepo.H</text>
</g>
<!-- Node20 -->
<g id="node2" class="node">
<title>Node20</title>
<g id="a_node2"><a xlink:href="_b_c_interface_8cpp.html" target="_top" xlink:title="BCInterface.cpp">
<polygon fill="#ffffff" stroke="#000000" points="0,-112.5 0,-131.5 88,-131.5 88,-112.5 0,-112.5"/>
<text text-anchor="middle" x="44" y="-119.5" font-family="Helvetica,sans-Serif" font-size="10.00" fill="#000000">BCInterface.cpp</text>
</a>
</g>
</g>
<!-- Node19&#45;&gt;Node20 -->
<g id="edge1" class="edge">
<title>Node19&#45;&gt;Node20</title>
<path fill="none" stroke="#191970" d="M1635.0379,-233.7032C1382.4524,-231.9413 172.0088,-221.7574 101,-188 75.8407,-176.0393 57.4016,-147.1764 49.0197,-131.8871"/>
<polygon fill="#191970" stroke="#191970" points="1635.299,-237.205 1645.3229,-233.7739 1635.3472,-230.2051 1635.299,-237.205"/>
</g>
<!-- Node21 -->
<g id="node3" class="node">
<title>Node21</title>
<g id="a_node3"><a xlink:href="_fixed_gradient_b_c_8_h.html" target="_top" xlink:title="FixedGradientBC.H">
<polygon fill="#ffffff" stroke="#000000" points="110,-168.5 110,-187.5 212,-187.5 212,-168.5 110,-168.5"/>
<text text-anchor="middle" x="161" y="-175.5" font-family="Helvetica,sans-Serif" font-size="10.00" fill="#000000">FixedGradientBC.H</text>
</a>
</g>
</g>
<!-- Node19&#45;&gt;Node21 -->
<g id="edge2" class="edge">
<title>Node19&#45;&gt;Node21</title>
<path fill="none" stroke="#191970" d="M1634.9633,-233.2373C1419.8756,-229.5671 512.543,-212.8737 230,-188 224.2123,-187.4905 218.1692,-186.8205 212.17,-186.0681"/>
<polygon fill="#191970" stroke="#191970" points="1635.2004,-236.7417 1645.2584,-233.412 1635.3192,-229.7428 1635.2004,-236.7417"/>
</g>
<!-- Node23 -->
<g id="node5" class="node">
<title>Node23</title>
<g id="a_node5"><a xlink:href="_c_f_d_sim_8_h.html" target="_top" xlink:title="CFDSim.H">
<polygon fill="#ffffff" stroke="#ff0000" points="1100.5,-168.5 1100.5,-187.5 1165.5,-187.5 1165.5,-168.5 1100.5,-168.5"/>
<text text-anchor="middle" x="1133" y="-175.5" font-family="Helvetica,sans-Serif" font-size="10.00" fill="#000000">CFDSim.H</text>
</a>
</g>
</g>
<!-- Node19&#45;&gt;Node23 -->
<g id="edge5" class="edge">
<title>Node19&#45;&gt;Node23</title>
<path fill="none" stroke="#191970" d="M1635.1524,-232.0318C1546.0126,-227.7204 1343.3098,-215.5421 1175,-188 1172.0412,-187.5158 1168.9816,-186.9388 1165.9249,-186.3098"/>
<polygon fill="#191970" stroke="#191970" points="1635.043,-235.5305 1645.1974,-232.5074 1635.3741,-228.5383 1635.043,-235.5305"/>
</g>
<!-- Node24 -->
<g id="node6" class="node">
<title>Node24</title>
<g id="a_node6"><a xlink:href="incflo_8_h.html" target="_top" xlink:title="incflo.H">
<polygon fill="#ffffff" stroke="#ff0000" points="784,-112.5 784,-131.5 834,-131.5 834,-112.5 784,-112.5"/>
<text text-anchor="middle" x="809" y="-119.5" font-family="Helvetica,sans-Serif" font-size="10.00" fill="#000000">incflo.H</text>
</a>
</g>
</g>
<!-- Node19&#45;&gt;Node24 -->
<g id="edge29" class="edge">
<title>Node19&#45;&gt;Node24</title>
<path fill="none" stroke="#191970" d="M1635.2044,-232.6254C1535.6844,-229.1581 1292.4353,-218.0812 1091,-188 977.5262,-171.0545 949.569,-162.6259 839,-132 837.4127,-131.5604 835.7855,-131.0864 834.1495,-130.5923"/>
<polygon fill="#191970" stroke="#191970" points="1635.109,-236.1241 1645.222,-232.9655 1635.3465,-229.1281 1635.109,-236.1241"/>
</g>
<!-- Node56 -->
<g id="node10" class="node">
<title>Node56</title>
<g id="a_node10"><a xlink:href="_a_b_l_mean_boussinesq_8_h.html" target="_top" xlink:title="ABLMeanBoussinesq.H">
<polygon fill="#ffffff" stroke="#ff0000" points="471.5,-56.5 471.5,-75.5 592.5,-75.5 592.5,-56.5 471.5,-56.5"/>
<text text-anchor="middle" x="532" y="-63.5" font-family="Helvetica,sans-Serif" font-size="10.00" fill="#000000">ABLMeanBoussinesq.H</text>
</a>
</g>
</g>
<!-- Node19&#45;&gt;Node56 -->
<g id="edge54" class="edge">
<title>Node19&#45;&gt;Node56</title>
<path fill="none" stroke="#191970" d="M1635.1573,-233.1647C1422.8183,-229.183 540.0665,-211.3514 419,-188 346.668,-174.0486 305.3859,-192.2495 263,-132 257.8855,-124.7299 257.2688,-118.7945 263,-112 276.3077,-96.2235 396.1279,-80.612 471.2967,-72.2502"/>
<polygon fill="#191970" stroke="#191970" points="1635.2677,-236.6673 1645.3312,-233.3545 1635.3983,-229.6685 1635.2677,-236.6673"/>
</g>
<!-- Node96 -->
<g id="node22" class="node">
<title>Node96</title>
<g id="a_node22"><a xlink:href="_p_d_e_base_8cpp.html" target="_top" xlink:title="PDEBase.cpp">
<polygon fill="#ffffff" stroke="#000000" points="1902.5,-112.5 1902.5,-131.5 1981.5,-131.5 1981.5,-112.5 1902.5,-112.5"/>
<text text-anchor="middle" x="1942" y="-119.5" font-family="Helvetica,sans-Serif" font-size="10.00" fill="#000000">PDEBase.cpp</text>
</a>
</g>
</g>
<!-- Node19&#45;&gt;Node96 -->
<g id="edge58" class="edge">
<title>Node19&#45;&gt;Node96</title>
<path fill="none" stroke="#191970" d="M1635.0269,-232.7775C1527.7992,-229.1207 1273.4891,-215.3848 1318,-168 1361.8277,-121.3425 1829.5422,-140.4204 1893,-132 1896.0985,-131.5889 1899.2945,-131.0956 1902.4993,-130.5514"/>
<polygon fill="#191970" stroke="#191970" points="1635.1243,-236.2824 1645.2331,-233.1101 1635.3524,-229.2861 1635.1243,-236.2824"/>
</g>
<!-- Node101 -->
<g id="node23" class="node">
<title>Node101</title>
<g id="a_node23"><a xlink:href="_tioga_interface_8cpp.html" target="_top" xlink:title="TiogaInterface.cpp">
<polygon fill="#ffffff" stroke="#000000" points="1999,-112.5 1999,-131.5 2097,-131.5 2097,-112.5 1999,-112.5"/>
<text text-anchor="middle" x="2048" y="-119.5" font-family="Helvetica,sans-Serif" font-size="10.00" fill="#000000">TiogaInterface.cpp</text>
</a>
</g>
</g>
<!-- Node19&#45;&gt;Node101 -->
<g id="edge64" class="edge">
<title>Node19&#45;&gt;Node101</title>
<path fill="none" stroke="#191970" d="M1635.3738,-230.9238C1549.1906,-224.6468 1369.4053,-209.1488 1351,-188 1345.1646,-181.2948 1344.8937,-174.4595 1351,-168 1399.928,-116.2425 1920.2464,-140.1678 1991,-132 1993.595,-131.7004 1996.2508,-131.3586 1998.9283,-130.9861"/>
<polygon fill="#191970" stroke="#191970" points="1635.178,-234.4187 1645.4028,-231.6433 1635.679,-227.4366 1635.178,-234.4187"/>
</g>
<!-- Node138 -->
<g id="node24" class="node">
<title>Node138</title>
<g id="a_node24"><a xlink:href="velocity__bcs_8_h.html" target="_top" xlink:title="velocity_bcs.H">
<polygon fill="#ffffff" stroke="#ff0000" points="1360,-168.5 1360,-187.5 1442,-187.5 1442,-168.5 1360,-168.5"/>
<text text-anchor="middle" x="1401" y="-175.5" font-family="Helvetica,sans-Serif" font-size="10.00" fill="#000000">velocity_bcs.H</text>
</a>
</g>
</g>
<!-- Node19&#45;&gt;Node138 -->
<g id="edge30" class="edge">
<title>Node19&#45;&gt;Node138</title>
<path fill="none" stroke="#191970" d="M1635.361,-224.8722C1581.8849,-214.177 1494.0453,-196.6091 1442.4468,-186.2894"/>
<polygon fill="#191970" stroke="#191970" points="1634.7612,-228.3215 1645.2534,-226.8507 1636.134,-221.4574 1634.7612,-228.3215"/>
</g>
<!-- Node139 -->
<g id="node25" class="node">
<title>Node139</title>
<g id="a_node25"><a xlink:href="_godunov_8_h.html" target="_top" xlink:title="Godunov.H">
<polygon fill="#ffffff" stroke="#ff0000" points="1460,-168.5 1460,-187.5 1526,-187.5 1526,-168.5 1460,-168.5"/>
<text text-anchor="middle" x="1493" y="-175.5" font-family="Helvetica,sans-Serif" font-size="10.00" fill="#000000">Godunov.H</text>
</a>
</g>
</g>
<!-- Node19&#45;&gt;Node139 -->
<g id="edge31" class="edge">
<title>Node19&#45;&gt;Node139</title>
<path fill="none" stroke="#191970" d="M1638.8883,-221.4561C1604.3782,-211.1765 1556.2801,-196.8494 1524.8966,-187.5011"/>
<polygon fill="#191970" stroke="#191970" points="1638.0986,-224.8728 1648.6816,-224.3733 1640.097,-218.1641 1638.0986,-224.8728"/>
</g>
<!-- Node145 -->
<g id="node26" class="node">
<title>Node145</title>
<g id="a_node26"><a xlink:href="_m_o_l_8_h.html" target="_top" xlink:title="MOL.H">
<polygon fill="#ffffff" stroke="#ff0000" points="1544,-168.5 1544,-187.5 1592,-187.5 1592,-168.5 1544,-168.5"/>
<text text-anchor="middle" x="1568" y="-175.5" font-family="Helvetica,sans-Serif" font-size="10.00" fill="#000000">MOL.H</text>
</a>
</g>
</g>
<!-- Node19&#45;&gt;Node145 -->
<g id="edge32" class="edge">
<title>Node19&#45;&gt;Node145</title>
<path fill="none" stroke="#191970" d="M1652.4208,-219.8368C1631.9942,-209.7139 1605.0638,-196.3679 1587.1719,-187.5011"/>
<polygon fill="#191970" stroke="#191970" points="1651.0604,-223.0688 1661.5746,-224.3733 1654.1687,-216.7968 1651.0604,-223.0688"/>
</g>
<!-- Node148 -->
<g id="node27" class="node">
<title>Node148</title>
<g id="a_node27"><a xlink:href="_field_8cpp.html" target="_top" xlink:title="Field.cpp">
<polygon fill="#ffffff" stroke="#000000" points="1610,-168.5 1610,-187.5 1666,-187.5 1666,-168.5 1610,-168.5"/>
<text text-anchor="middle" x="1638" y="-175.5" font-family="Helvetica,sans-Serif" font-size="10.00" fill="#000000">Field.cpp</text>
</a>
</g>
</g>
<!-- Node19&#45;&gt;Node148 -->
<g id="edge33" class="edge">
<title>Node19&#45;&gt;Node148</title>
<path fill="none" stroke="#191970" d="M1667.3408,-216.2112C1660.0737,-206.7472 1651.4219,-195.4797 1645.4042,-187.6427"/>
<polygon fill="#191970" stroke="#191970" points="1664.6436,-218.4456 1673.51,-224.2455 1670.1957,-214.1824 1664.6436,-218.4456"/>
</g>
<!-- Node149 -->
<g id="node28" class="node">
<title>Node149</title>
<g id="a_node28"><a xlink:href="_field_repo_8cpp.html" target="_top" xlink:title="FieldRepo.cpp">
<polygon fill="#ffffff" stroke="#000000" points="1684,-168.5 1684,-187.5 1764,-187.5 1764,-168.5 1684,-168.5"/>
<text text-anchor="middle" x="1724" y="-175.5" font-family="Helvetica,sans-Serif" font-size="10.00" fill="#000000">FieldRepo.cpp</text>
</a>
</g>
</g>
<!-- Node19&#45;&gt;Node149 -->
<g id="edge34" class="edge">
<title>Node19&#45;&gt;Node149</title>
<path fill="none" stroke="#191970" d="M1694.6592,-216.2112C1701.9263,-206.7472 1710.5781,-195.4797 1716.5958,-187.6427"/>
<polygon fill="#191970" stroke="#191970" points="1691.8043,-214.1824 1688.49,-224.2455 1697.3564,-218.4456 1691.8043,-214.1824"/>
</g>
<!-- Node150 -->
<g id="node29" class="node">
<title>Node150</title>
<g id="a_node29"><a xlink:href="_int_field_8cpp.html" target="_top" xlink:title="IntField.cpp">
<polygon fill="#ffffff" stroke="#000000" points="1782,-168.5 1782,-187.5 1850,-187.5 1850,-168.5 1782,-168.5"/>
<text text-anchor="middle" x="1816" y="-175.5" font-family="Helvetica,sans-Serif" font-size="10.00" fill="#000000">IntField.cpp</text>
</a>
</g>
</g>
<!-- Node19&#45;&gt;Node150 -->
<g id="edge35" class="edge">
<title>Node19&#45;&gt;Node150</title>
<path fill="none" stroke="#191970" d="M1713.4991,-220.5189C1738.0854,-210.3201 1771.2366,-196.5685 1793.0955,-187.5011"/>
<polygon fill="#191970" stroke="#191970" points="1712.1031,-217.3087 1704.2073,-224.3733 1714.7852,-223.7745 1712.1031,-217.3087"/>
</g>
<!-- Node151 -->
<g id="node30" class="node">
<title>Node151</title>
<g id="a_node30"><a xlink:href="_scratch_field_8cpp.html" target="_top" xlink:title="ScratchField.cpp">
<polygon fill="#ffffff" stroke="#000000" points="1868,-168.5 1868,-187.5 1958,-187.5 1958,-168.5 1868,-168.5"/>
<text text-anchor="middle" x="1913" y="-175.5" font-family="Helvetica,sans-Serif" font-size="10.00" fill="#000000">ScratchField.cpp</text>
</a>
</g>
</g>
<!-- Node19&#45;&gt;Node151 -->
<g id="edge36" class="edge">
<title>Node19&#45;&gt;Node151</title>
<path fill="none" stroke="#191970" d="M1726.6056,-222.9917C1769.356,-212.6727 1832.6192,-197.4023 1873.3289,-187.5758"/>
<polygon fill="#191970" stroke="#191970" points="1725.6411,-219.624 1716.7416,-225.3727 1727.2837,-226.4285 1725.6411,-219.624"/>
</g>
<!-- Node152 -->
<g id="node31" class="node">
<title>Node152</title>
<g id="a_node31"><a xlink:href="_view_field_8cpp.html" target="_top" xlink:title="ViewField.cpp">
<polygon fill="#ffffff" stroke="#000000" points="1976,-168.5 1976,-187.5 2054,-187.5 2054,-168.5 1976,-168.5"/>
<text text-anchor="middle" x="2015" y="-175.5" font-family="Helvetica,sans-Serif" font-size="10.00" fill="#000000">ViewField.cpp</text>
</a>
</g>
</g>
<!-- Node19&#45;&gt;Node152 -->
<g id="edge37" class="edge">
<title>Node19&#45;&gt;Node152</title>
<path fill="none" stroke="#191970" d="M1726.8156,-227.294C1783.3882,-218.861 1882.4963,-203.5897 1967,-188 1969.9298,-187.4595 1972.9558,-186.8798 1975.9968,-186.2819"/>
<polygon fill="#191970" stroke="#191970" points="1726.1375,-223.8563 1716.7603,-228.7876 1727.1661,-230.7803 1726.1375,-223.8563"/>
</g>
<!-- Node153 -->
<g id="node32" class="node">
<title>Node153</title>
<g id="a_node32"><a xlink:href="field__algebra_8cpp.html" target="_top" xlink:title="field_algebra.cpp">
<polygon fill="#ffffff" stroke="#000000" points="2072,-168.5 2072,-187.5 2162,-187.5 2162,-168.5 2072,-168.5"/>
<text text-anchor="middle" x="2117" y="-175.5" font-family="Helvetica,sans-Serif" font-size="10.00" fill="#000000">field_algebra.cpp</text>
</a>
</g>
</g>
<!-- Node19&#45;&gt;Node153 -->
<g id="edge38" class="edge">
<title>Node19&#45;&gt;Node153</title>
<path fill="none" stroke="#191970" d="M1726.7121,-229.4404C1798.5068,-222.0666 1942.001,-206.47 2063,-188 2065.9218,-187.554 2068.9278,-187.0694 2071.9549,-186.562"/>
<polygon fill="#191970" stroke="#191970" points="1726.2435,-225.97 1716.6509,-230.4681 1726.9548,-232.9338 1726.2435,-225.97"/>
</g>
<!-- Node154 -->
<g id="node33" class="node">
<title>Node154</title>
<g id="a_node33"><a xlink:href="diffusion_8_h.html" target="_top" xlink:title="diffusion.H">
<polygon fill="#ffffff" stroke="#ff0000" points="2180,-168.5 2180,-187.5 2244,-187.5 2244,-168.5 2180,-168.5"/>
<text text-anchor="middle" x="2212" y="-175.5" font-family="Helvetica,sans-Serif" font-size="10.00" fill="#000000">diffusion.H</text>
</a>
</g>
</g>
<!-- Node19&#45;&gt;Node154 -->
<g id="edge39" class="edge">
<title>Node19&#45;&gt;Node154</title>
<path fill="none" stroke="#191970" d="M1726.6463,-231.9374C1813.6147,-227.5173 2008.8545,-215.2357 2171,-188 2173.8902,-187.5145 2176.8782,-186.9366 2179.8628,-186.307"/>
<polygon fill="#191970" stroke="#191970" points="1726.4003,-228.4453 1716.5866,-232.438 1726.7482,-235.4366 1726.4003,-228.4453"/>
</g>
<!-- Node155 -->
<g id="node34" class="node">
<title>Node155</title>
<g id="a_node34"><a xlink:href="_source_term_8_h.html" target="_top" xlink:title="SourceTerm.H">
<polygon fill="#ffffff" stroke="#ff0000" points="2262,-168.5 2262,-187.5 2342,-187.5 2342,-168.5 2262,-168.5"/>
<text text-anchor="middle" x="2302" y="-175.5" font-family="Helvetica,sans-Serif" font-size="10.00" fill="#000000">SourceTerm.H</text>
</a>
</g>
</g>
<!-- Node19&#45;&gt;Node155 -->
<g id="edge40" class="edge">
<title>Node19&#45;&gt;Node155</title>
<path fill="none" stroke="#191970" d="M1726.7176,-232.2046C1823.966,-227.9731 2058.3719,-215.5826 2253,-188 2255.9228,-187.5858 2258.9335,-187.1052 2261.9573,-186.5832"/>
<polygon fill="#191970" stroke="#191970" points="1726.4835,-228.7113 1716.642,-232.635 1726.7823,-235.7049 1726.4835,-228.7113"/>
</g>
<!-- Node157 -->
<g id="node35" class="node">
<title>Node157</title>
<g id="a_node35"><a xlink:href="_p_d_e_helpers_8_h.html" target="_top" xlink:title="PDEHelpers.H">
<polygon fill="#ffffff" stroke="#ff0000" points="1184,-168.5 1184,-187.5 1266,-187.5 1266,-168.5 1184,-168.5"/>
<text text-anchor="middle" x="1225" y="-175.5" font-family="Helvetica,sans-Serif" font-size="10.00" fill="#000000">PDEHelpers.H</text>
</a>
</g>
</g>
<!-- Node19&#45;&gt;Node157 -->
<g id="edge41" class="edge">
<title>Node19&#45;&gt;Node157</title>
<path fill="none" stroke="#191970" d="M1635.5118,-229.7636C1561.0173,-222.6056 1408.4369,-207.0218 1280,-188 1275.4878,-187.3317 1270.7785,-186.5718 1266.0967,-185.7763"/>
<polygon fill="#191970" stroke="#191970" points="1635.2069,-233.2503 1645.4944,-230.7171 1635.8726,-226.282 1635.2069,-233.2503"/>
</g>
<!-- Node158 -->
<g id="node36" class="node">
<title>Node158</title>
<g id="a_node36"><a xlink:href="_density_source_8_h.html" target="_top" xlink:title="DensitySource.H">
<polygon fill="#ffffff" stroke="#ff0000" points="2360,-168.5 2360,-187.5 2452,-187.5 2452,-168.5 2360,-168.5"/>
<text text-anchor="middle" x="2406" y="-175.5" font-family="Helvetica,sans-Serif" font-size="10.00" fill="#000000">DensitySource.H</text>
</a>
</g>
</g>
<!-- Node19&#45;&gt;Node158 -->
<g id="edge44" class="edge">
<title>Node19&#45;&gt;Node158</title>
<path fill="none" stroke="#191970" d="M1727.016,-232.6058C1835.8631,-228.9238 2117.5495,-217.1449 2351,-188 2353.8891,-187.6393 2356.8564,-187.2258 2359.8439,-186.7769"/>
<polygon fill="#191970" stroke="#191970" points="1726.6038,-229.1175 1716.7254,-232.9471 1726.8359,-236.1136 1726.6038,-229.1175"/>
</g>
<!-- Node159 -->
<g id="node37" class="node">
<title>Node159</title>
<g id="a_node37"><a xlink:href="_momentum_source_8_h.html" target="_top" xlink:title="MomentumSource.H">
<polygon fill="#ffffff" stroke="#ff0000" points="520.5,-168.5 520.5,-187.5 627.5,-187.5 627.5,-168.5 520.5,-168.5"/>
<text text-anchor="middle" x="574" y="-175.5" font-family="Helvetica,sans-Serif" font-size="10.00" fill="#000000">MomentumSource.H</text>
</a>
</g>
</g>
<!-- Node19&#45;&gt;Node159 -->
<g id="edge45" class="edge">
<title>Node19&#45;&gt;Node159</title>
<path fill="none" stroke="#191970" d="M1635.0197,-232.8429C1492.0193,-229.0432 1042.4322,-215.5816 671,-188 656.9027,-186.9532 641.682,-185.5253 627.5706,-184.0764"/>
<polygon fill="#191970" stroke="#191970" points="1635.0848,-236.3457 1645.1735,-233.11 1635.269,-229.3481 1635.0848,-236.3457"/>
</g>
<!-- Node162 -->
<g id="node38" class="node">
<title>Node162</title>
<g id="a_node38"><a xlink:href="_boussinesq_buoyancy_8_h.html" target="_top" xlink:title="BoussinesqBuoyancy.H">
<polygon fill="#ffffff" stroke="#000000" points="272,-112.5 272,-131.5 394,-131.5 394,-112.5 272,-112.5"/>
<text text-anchor="middle" x="333" y="-119.5" font-family="Helvetica,sans-Serif" font-size="10.00" fill="#000000">BoussinesqBuoyancy.H</text>
</a>
</g>
</g>
<!-- Node19&#45;&gt;Node162 -->
<g id="edge55" class="edge">
<title>Node19&#45;&gt;Node162</title>
<path fill="none" stroke="#191970" d="M1635.0535,-233.27C1428.9473,-229.8558 594.7597,-214.5036 481,-188 430.3104,-176.1904 375.5928,-146.982 349.1406,-131.6889"/>
<polygon fill="#191970" stroke="#191970" points="1635.1713,-236.7723 1645.2275,-233.4372 1635.2864,-229.7732 1635.1713,-236.7723"/>
</g>
<!-- Node163 -->
<g id="node39" class="node">
<title>Node163</title>
<g id="a_node39"><a xlink:href="_coriolis_forcing_8_h.html" target="_top" xlink:title="CoriolisForcing.H">
<polygon fill="#ffffff" stroke="#000000" points="552,-112.5 552,-131.5 644,-131.5 644,-112.5 552,-112.5"/>
<text text-anchor="middle" x="598" y="-119.5" font-family="Helvetica,sans-Serif" font-size="10.00" fill="#000000">CoriolisForcing.H</text>
</a>
</g>
</g>
<!-- Node19&#45;&gt;Node163 -->
<g id="edge56" class="edge">
<title>Node19&#45;&gt;Node163</title>
<path fill="none" stroke="#191970" d="M1634.9728,-232.4111C1487.317,-227.1487 1026.5915,-209.4004 879,-188 787.7476,-174.7686 682.5055,-146.4617 630.525,-131.5856"/>
<polygon fill="#191970" stroke="#191970" points="1634.9366,-235.912 1645.0543,-232.7683 1635.1846,-228.9164 1634.9366,-235.912"/>
</g>
<!-- Node164 -->
<g id="node40" class="node">
<title>Node164</title>
<g id="a_node40"><a xlink:href="_density_buoyancy_8_h.html" target="_top" xlink:title="DensityBuoyancy.H">
<polygon fill="#ffffff" stroke="#000000" points="662,-112.5 662,-131.5 766,-131.5 766,-112.5 662,-112.5"/>
<text text-anchor="middle" x="714" y="-119.5" font-family="Helvetica,sans-Serif" font-size="10.00" fill="#000000">DensityBuoyancy.H</text>
</a>
</g>
</g>
<!-- Node19&#45;&gt;Node164 -->
<g id="edge57" class="edge">
<title>Node19&#45;&gt;Node164</title>
<path fill="none" stroke="#191970" d="M1635.228,-232.0917C1500.1441,-226.2884 1104.6608,-208.0208 977,-188 891.427,-174.5798 792.999,-146.3554 744.4022,-131.5408"/>
<polygon fill="#191970" stroke="#191970" points="1635.1058,-235.5896 1645.2461,-232.5197 1635.4046,-228.596 1635.1058,-235.5896"/>
</g>
<!-- Node166 -->
<g id="node41" class="node">
<title>Node166</title>
<g id="a_node41"><a xlink:href="_m_m_s_forcing_8_h.html" target="_top" xlink:title="MMSForcing.H">
<polygon fill="#ffffff" stroke="#ff0000" points="412.5,-112.5 412.5,-131.5 495.5,-131.5 495.5,-112.5 412.5,-112.5"/>
<text text-anchor="middle" x="454" y="-119.5" font-family="Helvetica,sans-Serif" font-size="10.00" fill="#000000">MMSForcing.H</text>
</a>
</g>
</g>
<!-- Node19&#45;&gt;Node166 -->
<g id="edge63" class="edge">
<title>Node19&#45;&gt;Node166</title>
<path fill="none" stroke="#191970" d="M1635.1316,-233.2167C1425.0177,-229.4989 562.4423,-212.7776 511,-188 485.9019,-175.9113 467.436,-147.1044 459.0343,-131.8568"/>
<polygon fill="#191970" stroke="#191970" points="1635.148,-236.7174 1645.2081,-233.3938 1635.2712,-229.7185 1635.148,-236.7174"/>
</g>
<!-- Node167 -->
<g id="node42" class="node">
<title>Node167</title>
<g id="a_node42"><a xlink:href="_s_d_r_source_8_h.html" target="_top" xlink:title="SDRSource.H">
<polygon fill="#ffffff" stroke="#ff0000" points="2470,-168.5 2470,-187.5 2550,-187.5 2550,-168.5 2470,-168.5"/>
<text text-anchor="middle" x="2510" y="-175.5" font-family="Helvetica,sans-Serif" font-size="10.00" fill="#000000">SDRSource.H</text>
</a>
</g>
</g>
<!-- Node19&#45;&gt;Node167 -->
<g id="edge59" class="edge">
<title>Node19&#45;&gt;Node167</title>
<path fill="none" stroke="#191970" d="M1726.8758,-233.5711C1847.5945,-231.951 2183.8763,-224.2619 2461,-188 2463.927,-187.617 2466.9409,-187.1593 2469.9669,-186.6536"/>
<polygon fill="#191970" stroke="#191970" points="1726.4971,-230.0755 1716.5422,-233.7018 1726.5857,-237.075 1726.4971,-230.0755"/>
</g>
<!-- Node168 -->
<g id="node43" class="node">
<title>Node168</title>
<g id="a_node43"><a xlink:href="_temperature_source_8_h.html" target="_top" xlink:title="TemperatureSource.H">
<polygon fill="#ffffff" stroke="#ff0000" points="2568.5,-168.5 2568.5,-187.5 2681.5,-187.5 2681.5,-168.5 2568.5,-168.5"/>
<text text-anchor="middle" x="2625" y="-175.5" font-family="Helvetica,sans-Serif" font-size="10.00" fill="#000000">TemperatureSource.H</text>
</a>
</g>
</g>
<!-- Node19&#45;&gt;Node168 -->
<g id="edge60" class="edge">
<title>Node19&#45;&gt;Node168</title>
<path fill="none" stroke="#191970" d="M1726.6593,-233.1853C1856.936,-230.5211 2241.4874,-220.293 2559,-188 2561.9977,-187.6951 2565.0673,-187.349 2568.1632,-186.9732"/>
<polygon fill="#191970" stroke="#191970" points="1726.569,-229.6863 1716.6409,-233.3854 1726.7089,-236.6849 1726.569,-229.6863"/>
</g>
<!-- Node169 -->
<g id="node44" class="node">
<title>Node169</title>
<g id="a_node44"><a xlink:href="_t_k_e_source_8_h.html" target="_top" xlink:title="TKESource.H">
<polygon fill="#ffffff" stroke="#ff0000" points="2699.5,-168.5 2699.5,-187.5 2776.5,-187.5 2776.5,-168.5 2699.5,-168.5"/>
<text text-anchor="middle" x="2738" y="-175.5" font-family="Helvetica,sans-Serif" font-size="10.00" fill="#000000">TKESource.H</text>
</a>
</g>
</g>
<!-- Node19&#45;&gt;Node169 -->
<g id="edge61" class="edge">
<title>Node19&#45;&gt;Node169</title>
<path fill="none" stroke="#191970" d="M1726.7308,-232.9157C1897.8823,-228.7022 2500.537,-212.4313 2691,-188 2693.7306,-187.6497 2696.5382,-187.2236 2699.3576,-186.747"/>
<polygon fill="#191970" stroke="#191970" points="1726.4672,-229.421 1716.5557,-233.1644 1726.6383,-236.4189 1726.4672,-229.421"/>
</g>
<!-- Node172 -->
<g id="node45" class="node">
<title>Node172</title>
<g id="a_node45"><a xlink:href="fvm__utils_8_h.html" target="_top" xlink:title="fvm_utils.H">
<polygon fill="#ffffff" stroke="#ff0000" points="2794.5,-168.5 2794.5,-187.5 2861.5,-187.5 2861.5,-168.5 2794.5,-168.5"/>
<text text-anchor="middle" x="2828" y="-175.5" font-family="Helvetica,sans-Serif" font-size="10.00" fill="#000000">fvm_utils.H</text>
</a>
</g>
</g>
<!-- Node19&#45;&gt;Node172 -->
<g id="edge62" class="edge">
<title>Node19&#45;&gt;Node172</title>
<path fill="none" stroke="#191970" d="M1726.7994,-233.2669C1908.1648,-230.1821 2576.3322,-217.0496 2786,-188 2788.6728,-187.6297 2791.4245,-187.1658 2794.18,-186.6419"/>
<polygon fill="#191970" stroke="#191970" points="1726.4875,-229.7715 1716.5478,-233.4393 1726.6053,-236.7705 1726.4875,-229.7715"/>
</g>
<!-- Node181 -->
<g id="node46" class="node">
<title>Node181</title>
<g id="a_node46"><a xlink:href="_linear_profile_8cpp.html" target="_top" xlink:title="LinearProfile.cpp">
<polygon fill="#ffffff" stroke="#000000" points="2879.5,-168.5 2879.5,-187.5 2968.5,-187.5 2968.5,-168.5 2879.5,-168.5"/>
<text text-anchor="middle" x="2924" y="-175.5" font-family="Helvetica,sans-Serif" font-size="10.00" fill="#000000">LinearProfile.cpp</text>
</a>
</g>
</g>
<!-- Node19&#45;&gt;Node181 -->
<g id="edge65" class="edge">
<title>Node19&#45;&gt;Node181</title>
<path fill="none" stroke="#191970" d="M1726.8244,-233.1357C1916.7963,-229.4126 2643.1568,-213.7553 2871,-188 2873.6983,-187.695 2876.4654,-187.3308 2879.2511,-186.9246"/>
<polygon fill="#191970" stroke="#191970" points="1726.562,-229.6401 1716.632,-233.3341 1726.6982,-236.6387 1726.562,-229.6401"/>
</g>
<!-- Node82 -->
<g id="node47" class="node">
<title>Node82</title>
<g id="a_node47"><a xlink:href="_power_law_profile_8cpp.html" target="_top" xlink:title="PowerLawProfile.cpp">
<polygon fill="#ffffff" stroke="#000000" points="2986.5,-168.5 2986.5,-187.5 3095.5,-187.5 3095.5,-168.5 2986.5,-168.5"/>
<text text-anchor="middle" x="3041" y="-175.5" font-family="Helvetica,sans-Serif" font-size="10.00" fill="#000000">PowerLawProfile.cpp</text>
</a>
</g>
</g>
<!-- Node19&#45;&gt;Node82 -->
<g id="edge66" class="edge">
<title>Node19&#45;&gt;Node82</title>
<path fill="none" stroke="#191970" d="M1726.9434,-233.1234C1927.5327,-229.1801 2727.6545,-212.217 2978,-188 2980.7557,-187.7334 2983.5741,-187.4235 2986.4165,-187.0814"/>
<polygon fill="#191970" stroke="#191970" points="1726.6882,-229.6276 1716.7586,-233.3225 1726.8251,-236.6263 1726.6882,-229.6276"/>
</g>
<!-- Node182 -->
<g id="node48" class="node">
<title>Node182</title>
<g id="a_node48"><a xlink:href="_u_d_f_8cpp.html" target="_top" xlink:title="UDF.cpp">
<polygon fill="#ffffff" stroke="#000000" points="3114,-168.5 3114,-187.5 3170,-187.5 3170,-168.5 3114,-168.5"/>
<text text-anchor="middle" x="3142" y="-175.5" font-family="Helvetica,sans-Serif" font-size="10.00" fill="#000000">UDF.cpp</text>
</a>
</g>
</g>
<!-- Node19&#45;&gt;Node182 -->
<g id="edge67" class="edge">
<title>Node19&#45;&gt;Node182</title>
<path fill="none" stroke="#191970" d="M1727.0139,-233.1476C1955.899,-228.8223 2966.3028,-208.6965 3105,-188 3107.8957,-187.5679 3110.8891,-186.9889 3113.8609,-186.3263"/>
<polygon fill="#191970" stroke="#191970" points="1726.6442,-229.6538 1716.7119,-233.3416 1726.7761,-236.6526 1726.6442,-229.6538"/>
</g>
<!-- Node183 -->
<g id="node49" class="node">
<title>Node183</title>
<g id="a_node49"><a xlink:href="_transport_model_8_h.html" target="_top" xlink:title="TransportModel.H">
<polygon fill="#ffffff" stroke="#ff0000" points="3188.5,-168.5 3188.5,-187.5 3283.5,-187.5 3283.5,-168.5 3188.5,-168.5"/>
<text text-anchor="middle" x="3236" y="-175.5" font-family="Helvetica,sans-Serif" font-size="10.00" fill="#000000">TransportModel.H</text>
</a>
</g>
</g>
<!-- Node19&#45;&gt;Node183 -->
<g id="edge68" class="edge">
<title>Node19&#45;&gt;Node183</title>
<path fill="none" stroke="#191970" d="M1726.7738,-233.4774C1945.65,-230.8431 2886.9321,-217.9491 3179,-188 3182.0983,-187.6823 3185.2821,-187.2949 3188.4852,-186.8593"/>
<polygon fill="#191970" stroke="#191970" points="1726.5649,-229.9795 1716.6073,-233.5986 1726.6484,-236.979 1726.5649,-229.9795"/>
</g>
<!-- Node119 -->
<g id="node50" class="node">
<title>Node119</title>
<g id="a_node50"><a xlink:href="_smagorinsky_8_h.html" target="_top" xlink:title="Smagorinsky.H">
<polygon fill="#ffffff" stroke="#ff0000" points="3302,-168.5 3302,-187.5 3386,-187.5 3386,-168.5 3302,-168.5"/>
<text text-anchor="middle" x="3344" y="-175.5" font-family="Helvetica,sans-Serif" font-size="10.00" fill="#000000">Smagorinsky.H</text>
</a>
</g>
</g>
<!-- Node19&#45;&gt;Node119 -->
<g id="edge69" class="edge">
<title>Node19&#45;&gt;Node119</title>
<path fill="none" stroke="#191970" d="M1726.8922,-233.7142C1956.0052,-232.1312 2977.4991,-223.1891 3293,-188 3295.8695,-187.68 3298.8185,-187.2837 3301.7823,-186.8352"/>
<polygon fill="#191970" stroke="#191970" points="1726.563,-230.2163 1716.587,-233.7841 1726.6105,-237.2161 1726.563,-230.2163"/>
</g>
<!-- Node21&#45;&gt;Node20 -->
<g id="edge3" class="edge">
<title>Node21&#45;&gt;Node20</title>
<path fill="none" stroke="#191970" d="M131.6958,-163.9741C110.512,-153.8348 82.4597,-140.408 63.8506,-131.5011"/>
<polygon fill="#191970" stroke="#191970" points="130.3559,-167.2129 140.887,-168.3733 133.378,-160.8989 130.3559,-167.2129"/>
</g>
<!-- Node22 -->
<g id="node4" class="node">
<title>Node22</title>
<g id="a_node4"><a xlink:href="_fixed_gradient_b_c_8cpp.html" target="_top" xlink:title="FixedGradientBC.cpp">
<polygon fill="#ffffff" stroke="#000000" points="106,-112.5 106,-131.5 216,-131.5 216,-112.5 106,-112.5"/>
<text text-anchor="middle" x="161" y="-119.5" font-family="Helvetica,sans-Serif" font-size="10.00" fill="#000000">FixedGradientBC.cpp</text>
</a>
</g>
</g>
<!-- Node21&#45;&gt;Node22 -->
<g id="edge4" class="edge">
<title>Node21&#45;&gt;Node22</title>
<path fill="none" stroke="#191970" d="M161,-158.1575C161,-149.155 161,-138.9199 161,-131.6427"/>
<polygon fill="#191970" stroke="#191970" points="157.5001,-158.2455 161,-168.2455 164.5001,-158.2456 157.5001,-158.2455"/>
</g>
<!-- Node23&#45;&gt;Node24 -->
<g id="edge6" class="edge">
<title>Node23&#45;&gt;Node24</title>
<path fill="none" stroke="#191970" d="M1090.093,-172.3157C1034.1214,-164.6174 933.2741,-149.7759 848,-132 843.4838,-131.0586 838.704,-129.9379 834.0967,-128.793"/>
<polygon fill="#191970" stroke="#191970" points="1089.9582,-175.8297 1100.3396,-173.7141 1090.9047,-168.894 1089.9582,-175.8297"/>
</g>
<!-- Node43 -->
<g id="node7" class="node">
<title>Node43</title>
<g id="a_node7"><a xlink:href="_a_b_l_wall_function_8_h.html" target="_top" xlink:title="ABLWallFunction.H">
<polygon fill="#ffffff" stroke="#ff0000" points="1242.5,-56.5 1242.5,-75.5 1345.5,-75.5 1345.5,-56.5 1242.5,-56.5"/>
<text text-anchor="middle" x="1294" y="-63.5" font-family="Helvetica,sans-Serif" font-size="10.00" fill="#000000">ABLWallFunction.H</text>
</a>
</g>
</g>
<!-- Node23&#45;&gt;Node43 -->
<g id="edge7" class="edge">
<title>Node23&#45;&gt;Node43</title>
<path fill="none" stroke="#191970" d="M1175.626,-167.2749C1225.9027,-154.5273 1302.9749,-134.6379 1305,-132 1317.7328,-115.4144 1307.1219,-89.5229 1299.6994,-75.6116"/>
<polygon fill="#191970" stroke="#191970" points="1174.4852,-163.9532 1165.6497,-169.7998 1176.2028,-170.7392 1174.4852,-163.9532"/>
</g>
<!-- Node48 -->
<g id="node8" class="node">
<title>Node48</title>
<g id="a_node8"><a xlink:href="_a_b_l_stats_8_h.html" target="_top" xlink:title="ABLStats.H">
<polygon fill="#ffffff" stroke="#ff0000" points="1179.5,-.5 1179.5,-19.5 1248.5,-19.5 1248.5,-.5 1179.5,-.5"/>
<text text-anchor="middle" x="1214" y="-7.5" font-family="Helvetica,sans-Serif" font-size="10.00" fill="#000000">ABLStats.H</text>
</a>
</g>
</g>
<!-- Node23&#45;&gt;Node48 -->
<g id="edge15" class="edge">
<title>Node23&#45;&gt;Node48</title>
<path fill="none" stroke="#191970" d="M1142.0697,-159.1887C1159.2882,-123.4762 1196.1613,-46.9988 1209.2616,-19.8279"/>
<polygon fill="#191970" stroke="#191970" points="1138.7773,-157.9585 1137.587,-168.4862 1145.0827,-160.9986 1138.7773,-157.9585"/>
</g>
<!-- Node51 -->
<g id="node9" class="node">
<title>Node51</title>
<g id="a_node9"><a xlink:href="_field_plane_averaging_8_h.html" target="_top" xlink:title="FieldPlaneAveraging.H">
<polygon fill="#ffffff" stroke="#ff0000" points="1180,-112.5 1180,-131.5 1296,-131.5 1296,-112.5 1180,-112.5"/>
<text text-anchor="middle" x="1238" y="-119.5" font-family="Helvetica,sans-Serif" font-size="10.00" fill="#000000">FieldPlaneAveraging.H</text>
</a>
</g>
</g>
<!-- Node23&#45;&gt;Node51 -->
<g id="edge9" class="edge">
<title>Node23&#45;&gt;Node51</title>
<path fill="none" stroke="#191970" d="M1160.2625,-163.46C1179.0522,-153.4388 1203.5013,-140.3993 1219.92,-131.6427"/>
<polygon fill="#191970" stroke="#191970" points="1158.4661,-160.4514 1151.2896,-168.2455 1161.7602,-166.6278 1158.4661,-160.4514"/>
</g>
<!-- Node46 -->
<g id="node11" class="node">
<title>Node46</title>
<g id="a_node11"><a xlink:href="_a_b_l_mean_boussinesq_8cpp.html" target="_top" xlink:title="ABLMeanBoussinesq.cpp">
<polygon fill="#ffffff" stroke="#000000" points="695.5,-.5 695.5,-19.5 824.5,-19.5 824.5,-.5 695.5,-.5"/>
<text text-anchor="middle" x="760" y="-7.5" font-family="Helvetica,sans-Serif" font-size="10.00" fill="#000000">ABLMeanBoussinesq.cpp</text>
</a>
</g>
</g>
<!-- Node23&#45;&gt;Node46 -->
<g id="edge21" class="edge">
<title>Node23&#45;&gt;Node46</title>
<path fill="none" stroke="#191970" d="M1090.1212,-170.6227C1045.0709,-162.2118 977.8992,-147.5955 957,-132 925.3563,-108.3867 942.1644,-80.2424 911,-56 886.2327,-36.7339 853.4135,-25.4997 824.6997,-18.9669"/>
<polygon fill="#191970" stroke="#191970" points="1089.7466,-174.1123 1100.2138,-172.4728 1091.0088,-167.227 1089.7466,-174.1123"/>
</g>
<!-- Node57 -->
<g id="node12" class="node">
<title>Node57</title>
<g id="a_node12"><a xlink:href="_a_b_l_boundary_plane_8_h.html" target="_top" xlink:title="ABLBoundaryPlane.H">
<polygon fill="#ffffff" stroke="#ff0000" points="1352,-112.5 1352,-131.5 1464,-131.5 1464,-112.5 1352,-112.5"/>
<text text-anchor="middle" x="1408" y="-119.5" font-family="Helvetica,sans-Serif" font-size="10.00" fill="#000000">ABLBoundaryPlane.H</text>
</a>
</g>
</g>
<!-- Node23&#45;&gt;Node57 -->
<g id="edge14" class="edge">
<title>Node23&#45;&gt;Node57</title>
<path fill="none" stroke="#191970" d="M1175.615,-167.9307C1243.9399,-153.1539 1311.4419,-140.0825 1356.5171,-131.5696"/>
<polygon fill="#191970" stroke="#191970" points="1174.5591,-164.5784 1165.5309,-170.1229 1176.0462,-171.4186 1174.5591,-164.5784"/>
</g>
<!-- Node61 -->
<g id="node13" class="node">
<title>Node61</title>
<g id="a_node13"><a xlink:href="_c_f_d_sim_8cpp.html" target="_top" xlink:title="CFDSim.cpp">
<polygon fill="#ffffff" stroke="#000000" points="1482,-112.5 1482,-131.5 1556,-131.5 1556,-112.5 1482,-112.5"/>
<text text-anchor="middle" x="1519" y="-119.5" font-family="Helvetica,sans-Serif" font-size="10.00" fill="#000000">CFDSim.cpp</text>
</a>
</g>
</g>
<!-- Node23&#45;&gt;Node61 -->
<g id="edge16" class="edge">
<title>Node23&#45;&gt;Node61</title>
<path fill="none" stroke="#191970" d="M1176.0376,-167.9941C1308.0962,-144.966 1344.6634,-153.6524 1473,-132 1475.9011,-131.5105 1478.896,-130.961 1481.9009,-130.3779"/>
<polygon fill="#191970" stroke="#191970" points="1175.1767,-164.5921 1165.9409,-169.7835 1176.3983,-171.4847 1175.1767,-164.5921"/>
</g>
<!-- Node62 -->
<g id="node14" class="node">
<title>Node62</title>
<g id="a_node14"><a xlink:href="_p_d_e_ops_8_h.html" target="_top" xlink:title="PDEOps.H">
<polygon fill="#ffffff" stroke="#ff0000" points="1818,-112.5 1818,-131.5 1884,-131.5 1884,-112.5 1818,-112.5"/>
<text text-anchor="middle" x="1851" y="-119.5" font-family="Helvetica,sans-Serif" font-size="10.00" fill="#000000">PDEOps.H</text>
</a>
</g>
</g>
<!-- Node23&#45;&gt;Node62 -->
<g id="edge17" class="edge">
<title>Node23&#45;&gt;Node62</title>
<path fill="none" stroke="#191970" d="M1175.8818,-168.136C1453.8281,-128.3831 1529.7272,-168.8081 1804,-132 1808.5475,-131.3897 1813.3105,-130.5801 1817.9863,-129.6849"/>
<polygon fill="#191970" stroke="#191970" points="1175.3017,-164.6835 1165.9085,-169.5843 1176.3077,-171.6108 1175.3017,-164.6835"/>
</g>
<!-- Node77 -->
<g id="node15" class="node">
<title>Node77</title>
<g id="a_node15"><a xlink:href="_p_d_e_8_h.html" target="_top" xlink:title="PDE.H">
<polygon fill="#ffffff" stroke="#ff0000" points="1796,-56.5 1796,-75.5 1844,-75.5 1844,-56.5 1796,-56.5"/>
<text text-anchor="middle" x="1820" y="-63.5" font-family="Helvetica,sans-Serif" font-size="10.00" fill="#000000">PDE.H</text>
</a>
</g>
</g>
<!-- Node23&#45;&gt;Node77 -->
<g id="edge19" class="edge">
<title>Node23&#45;&gt;Node77</title>
<path fill="none" stroke="#191970" d="M1176.1146,-168.2245C1322.4426,-150.6853 1657.0539,-193.6947 1771,-132 1794.0912,-119.4975 1809.3023,-90.8717 1816.032,-75.7586"/>
<polygon fill="#191970" stroke="#191970" points="1175.3554,-164.795 1165.91,-169.5943 1176.2867,-171.7327 1175.3554,-164.795"/>
</g>
<!-- Node45 -->
<g id="node16" class="node">
<title>Node45</title>
<g id="a_node16"><a xlink:href="_a_b_l_forcing_8cpp.html" target="_top" xlink:title="ABLForcing.cpp">
<polygon fill="#ffffff" stroke="#000000" points="1574,-112.5 1574,-131.5 1660,-131.5 1660,-112.5 1574,-112.5"/>
<text text-anchor="middle" x="1617" y="-119.5" font-family="Helvetica,sans-Serif" font-size="10.00" fill="#000000">ABLForcing.cpp</text>
</a>
</g>
</g>
<!-- Node23&#45;&gt;Node45 -->
<g id="edge20" class="edge">
<title>Node23&#45;&gt;Node45</title>
<path fill="none" stroke="#191970" d="M1175.8542,-168.0765C1348.5124,-140.3755 1395.8554,-156.0117 1565,-132 1567.9126,-131.5865 1570.9096,-131.1202 1573.9243,-130.6206"/>
<polygon fill="#191970" stroke="#191970" points="1175.2324,-164.6315 1165.9257,-169.6946 1176.3585,-171.5404 1175.2324,-164.6315"/>
</g>
<!-- Node91 -->
<g id="node17" class="node">
<title>Node91</title>
<g id="a_node17"><a xlink:href="_body_force_8cpp.html" target="_top" xlink:title="BodyForce.cpp">
<polygon fill="#ffffff" stroke="#000000" points="1678.5,-112.5 1678.5,-131.5 1761.5,-131.5 1761.5,-112.5 1678.5,-112.5"/>
<text text-anchor="middle" x="1720" y="-119.5" font-family="Helvetica,sans-Serif" font-size="10.00" fill="#000000">BodyForce.cpp</text>
</a>
</g>
</g>
<!-- Node23&#45;&gt;Node91 -->
<g id="edge22" class="edge">
<title>Node23&#45;&gt;Node91</title>
<path fill="none" stroke="#191970" d="M1176.0932,-168.0757C1394.3582,-135.1965 1454.1144,-160.7897 1669,-132 1672.0406,-131.5926 1675.1731,-131.1171 1678.3195,-130.5986"/>
<polygon fill="#191970" stroke="#191970" points="1175.2712,-164.6607 1165.9159,-169.6336 1176.3304,-171.5801 1175.2712,-164.6607"/>
</g>
<!-- Node92 -->
<g id="node18" class="node">
<title>Node92</title>
<g id="a_node18"><a xlink:href="_boussinesq_buoyancy_8cpp.html" target="_top" xlink:title="BoussinesqBuoyancy.cpp">
<polygon fill="#ffffff" stroke="#000000" points="639,-56.5 639,-75.5 769,-75.5 769,-56.5 639,-56.5"/>
<text text-anchor="middle" x="704" y="-63.5" font-family="Helvetica,sans-Serif" font-size="10.00" fill="#000000">BoussinesqBuoyancy.cpp</text>
</a>
</g>
</g>
<!-- Node23&#45;&gt;Node92 -->
<g id="edge23" class="edge">
<title>Node23&#45;&gt;Node92</title>
<path fill="none" stroke="#191970" d="M1089.9833,-172.4269C1041.2935,-165.5141 959.9169,-152.1241 892,-132 869.4472,-125.3175 865.0671,-120.1442 843,-112 806.1567,-98.4024 763.1563,-84.4629 734.8501,-75.5469"/>
<polygon fill="#191970" stroke="#191970" points="1089.7677,-175.9306 1100.155,-173.8441 1090.7337,-168.9976 1089.7677,-175.9306"/>
</g>
<!-- Node93 -->
<g id="node19" class="node">
<title>Node93</title>
<g id="a_node19"><a xlink:href="_coriolis_forcing_8cpp.html" target="_top" xlink:title="CoriolisForcing.cpp">
<polygon fill="#ffffff" stroke="#000000" points="801.5,-56.5 801.5,-75.5 902.5,-75.5 902.5,-56.5 801.5,-56.5"/>
<text text-anchor="middle" x="852" y="-63.5" font-family="Helvetica,sans-Serif" font-size="10.00" fill="#000000">CoriolisForcing.cpp</text>
</a>
</g>
</g>
<!-- Node23&#45;&gt;Node93 -->
<g id="edge24" class="edge">
<title>Node23&#45;&gt;Node93</title>
<path fill="none" stroke="#191970" d="M1090.3923,-175.1386C1046.5275,-170.7424 977.2575,-159.6787 924,-132 896.6156,-117.7679 871.7773,-90.4136 859.7058,-75.7885"/>
<polygon fill="#191970" stroke="#191970" points="1090.1496,-178.631 1100.4309,-176.0725 1090.7981,-171.6611 1090.1496,-178.631"/>
</g>
<!-- Node94 -->
<g id="node20" class="node">
<title>Node94</title>
<g id="a_node20"><a xlink:href="_density_buoyancy_8cpp.html" target="_top" xlink:title="DensityBuoyancy.cpp">
<polygon fill="#ffffff" stroke="#000000" points="988.5,-56.5 988.5,-75.5 1101.5,-75.5 1101.5,-56.5 988.5,-56.5"/>
<text text-anchor="middle" x="1045" y="-63.5" font-family="Helvetica,sans-Serif" font-size="10.00" fill="#000000">DensityBuoyancy.cpp</text>
</a>
</g>
</g>
<!-- Node23&#45;&gt;Node94 -->
<g id="edge25" class="edge">
<title>Node23&#45;&gt;Node94</title>
<path fill="none" stroke="#191970" d="M1124.2624,-159.4719C1117.3182,-145.6897 1106.8303,-126.7885 1095,-112 1083.8002,-97.9997 1068.2732,-84.4079 1057.5059,-75.6752"/>
<polygon fill="#191970" stroke="#191970" points="1121.1251,-161.0236 1128.6611,-168.4708 1127.414,-157.9496 1121.1251,-161.0236"/>
</g>
<!-- Node95 -->
<g id="node21" class="node">
<title>Node95</title>
<g id="a_node21"><a xlink:href="_geostrophic_forcing_8cpp.html" target="_top" xlink:title="GeostrophicForcing.cpp">
<polygon fill="#ffffff" stroke="#000000" points="966,-112.5 966,-131.5 1086,-131.5 1086,-112.5 966,-112.5"/>
<text text-anchor="middle" x="1026" y="-119.5" font-family="Helvetica,sans-Serif" font-size="10.00" fill="#000000">GeostrophicForcing.cpp</text>
</a>
</g>
</g>
<!-- Node23&#45;&gt;Node95 -->
<g id="edge26" class="edge">
<title>Node23&#45;&gt;Node95</title>
<path fill="none" stroke="#191970" d="M1105.4801,-163.5971C1086.2983,-153.558 1061.2322,-140.4393 1044.4244,-131.6427"/>
<polygon fill="#191970" stroke="#191970" points="1103.8791,-166.7095 1114.362,-168.2455 1107.125,-160.5075 1103.8791,-166.7095"/>
</g>
<!-- Node23&#45;&gt;Node96 -->
<g id="edge27" class="edge">
<title>Node23&#45;&gt;Node96</title>
<path fill="none" stroke="#191970" d="M1175.8395,-168.1537C1493.0613,-123.8075 1579.2596,-171.6485 1893,-132 1896.0148,-131.619 1899.1212,-131.1553 1902.2377,-130.6385"/>
<polygon fill="#191970" stroke="#191970" points="1175.315,-164.6929 1165.9053,-169.5618 1176.2975,-171.6237 1175.315,-164.6929"/>
</g>
<!-- Node23&#45;&gt;Node101 -->
<g id="edge28" class="edge">
<title>Node23&#45;&gt;Node101</title>
<path fill="none" stroke="#191970" d="M1175.8256,-168.1645C1536.2713,-118.6956 1633.39,-171.0912 1991,-132 1993.5967,-131.7161 1996.254,-131.3868 1998.9326,-131.0241"/>
<polygon fill="#191970" stroke="#191970" points="1175.3259,-164.7002 1165.9026,-169.5428 1176.289,-171.6336 1175.3259,-164.7002"/>
</g>
<!-- Node43&#45;&gt;Node48 -->
<g id="edge8" class="edge">
<title>Node43&#45;&gt;Node48</title>
<path fill="none" stroke="#191970" d="M1271.8429,-50.49C1257.728,-40.6096 1239.8849,-28.1194 1227.7752,-19.6427"/>
<polygon fill="#191970" stroke="#191970" points="1269.8656,-53.3782 1280.0651,-56.2455 1273.8799,-47.6436 1269.8656,-53.3782"/>
</g>
<!-- Node51&#45;&gt;Node43 -->
<g id="edge10" class="edge">
<title>Node51&#45;&gt;Node43</title>
<path fill="none" stroke="#191970" d="M1254.9249,-105.0751C1264.5598,-95.4402 1276.2804,-83.7196 1284.3573,-75.6427"/>
<polygon fill="#191970" stroke="#191970" points="1252.3507,-102.6996 1247.7545,-112.2455 1257.3004,-107.6493 1252.3507,-102.6996"/>
</g>
<!-- Node51&#45;&gt;Node48 -->
<g id="edge11" class="edge">
<title>Node51&#45;&gt;Node48</title>
<path fill="none" stroke="#191970" d="M1233.8426,-102.5987C1228.6492,-78.363 1219.9689,-37.8551 1216.041,-19.5249"/>
<polygon fill="#191970" stroke="#191970" points="1230.4361,-103.4063 1235.9538,-112.4509 1237.2807,-101.9395 1230.4361,-103.4063"/>
</g>
<!-- Node51&#45;&gt;Node56 -->
<g id="edge12" class="edge">
<title>Node51&#45;&gt;Node56</title>
<path fill="none" stroke="#191970" d="M1169.2577,-117.0272C1033.02,-107.1342 733.0217,-85.1518 630,-76 617.905,-74.9256 604.9809,-73.6779 592.6178,-72.4357"/>
<polygon fill="#191970" stroke="#191970" points="1169.3386,-120.5422 1179.5658,-117.7754 1169.8454,-113.5606 1169.3386,-120.5422"/>
</g>
<!-- Node56&#45;&gt;Node46 -->
<g id="edge13" class="edge">
<title>Node56&#45;&gt;Node46</title>
<path fill="none" stroke="#191970" d="M580.6646,-54.0473C622.6297,-43.7401 682.4264,-29.0532 721.2251,-19.5237"/>
<polygon fill="#191970" stroke="#191970" points="579.812,-50.6526 570.9355,-56.4369 581.4818,-57.4505 579.812,-50.6526"/>
</g>
<!-- Node62&#45;&gt;Node77 -->
<g id="edge18" class="edge">
<title>Node62&#45;&gt;Node77</title>
<path fill="none" stroke="#191970" d="M1840.6688,-103.3372C1835.5335,-94.0605 1829.5434,-83.2398 1825.3379,-75.6427"/>
<polygon fill="#191970" stroke="#191970" points="1837.6949,-105.1917 1845.6002,-112.2455 1843.8191,-101.8015 1837.6949,-105.1917"/>
</g>
<!-- Node157&#45;&gt;Node62 -->
<g id="edge42" class="edge">
<title>Node157&#45;&gt;Node62</title>
<path fill="none" stroke="#191970" d="M1276.1404,-168.5061C1277.4388,-168.3282 1278.727,-168.159 1280,-168 1511.639,-139.0759 1572.8174,-164.3706 1804,-132 1808.544,-131.3637 1813.3049,-130.5393 1817.9798,-129.6369"/>
<polygon fill="#191970" stroke="#191970" points="1275.4384,-165.0722 1266.0686,-170.0175 1276.4773,-171.9947 1275.4384,-165.0722"/>
</g>
<!-- Node157&#45;&gt;Node96 -->
<g id="edge43" class="edge">
<title>Node157&#45;&gt;Node96</title>
<path fill="none" stroke="#191970" d="M1276.1383,-168.4891C1277.4373,-168.3162 1278.7262,-168.1526 1280,-168 1550.9754,-135.5302 1622.3886,-167.3759 1893,-132 1896.0132,-131.6061 1899.1183,-131.133 1902.234,-130.6097"/>
<polygon fill="#191970" stroke="#191970" points="1275.4465,-165.0531 1266.0631,-169.9726 1276.4663,-171.9784 1275.4465,-165.0531"/>
</g>
<!-- Node159&#45;&gt;Node56 -->
<g id="edge46" class="edge">
<title>Node159&#45;&gt;Node56</title>
<path fill="none" stroke="#191970" d="M559.5725,-160.4594C553.5499,-152.2739 547.0305,-142.1181 543,-132 535.4341,-113.0066 533.0721,-88.9338 532.3347,-75.7431"/>
<polygon fill="#191970" stroke="#191970" points="556.8846,-162.7049 565.7715,-168.4732 562.4214,-158.422 556.8846,-162.7049"/>
</g>
<!-- Node159&#45;&gt;Node162 -->
<g id="edge47" class="edge">
<title>Node159&#45;&gt;Node162</title>
<path fill="none" stroke="#191970" d="M522.8412,-166.1125C478.4696,-155.8021 415.0832,-141.0733 373.9858,-131.5237"/>
<polygon fill="#191970" stroke="#191970" points="522.3118,-169.5826 532.8445,-168.4369 523.8962,-162.7643 522.3118,-169.5826"/>
</g>
<!-- Node159&#45;&gt;Node163 -->
<g id="edge49" class="edge">
<title>Node159&#45;&gt;Node163</title>
<path fill="none" stroke="#191970" d="M582.1241,-159.0437C586.0715,-149.8331 590.6458,-139.1598 593.8674,-131.6427"/>
<polygon fill="#191970" stroke="#191970" points="578.9027,-157.6753 578.1805,-168.2455 585.3367,-160.4328 578.9027,-157.6753"/>
</g>
<!-- Node159&#45;&gt;Node164 -->
<g id="edge51" class="edge">
<title>Node159&#45;&gt;Node164</title>
<path fill="none" stroke="#191970" d="M607.3649,-164.6541C632.8952,-154.4419 667.4784,-140.6086 690.2472,-131.5011"/>
<polygon fill="#191970" stroke="#191970" points="606.0517,-161.4096 598.0669,-168.3733 608.6515,-167.909 606.0517,-161.4096"/>
</g>
<!-- Node159&#45;&gt;Node166 -->
<g id="edge53" class="edge">
<title>Node159&#45;&gt;Node166</title>
<path fill="none" stroke="#191970" d="M544.2376,-164.1109C522.4768,-153.9559 493.5318,-140.4482 474.3595,-131.5011"/>
<polygon fill="#191970" stroke="#191970" points="542.8293,-167.316 553.3713,-168.3733 545.7895,-160.9727 542.8293,-167.316"/>
</g>
<!-- Node162&#45;&gt;Node92 -->
<g id="edge48" class="edge">
<title>Node162&#45;&gt;Node92</title>
<path fill="none" stroke="#191970" d="M404.5284,-111.2033C472.982,-100.8706 575.2446,-85.4348 640.7825,-75.5423"/>
<polygon fill="#191970" stroke="#191970" points="403.6287,-107.7993 394.2631,-112.7527 404.6735,-114.7209 403.6287,-107.7993"/>
</g>
<!-- Node163&#45;&gt;Node93 -->
<g id="edge50" class="edge">
<title>Node163&#45;&gt;Node93</title>
<path fill="none" stroke="#191970" d="M651.3288,-110.2425C698.1205,-99.9262 765.3067,-85.1135 808.8034,-75.5237"/>
<polygon fill="#191970" stroke="#191970" points="650.3874,-106.8659 641.3756,-112.4369 651.8946,-113.7017 650.3874,-106.8659"/>
</g>
<!-- Node164&#45;&gt;Node94 -->
<g id="edge52" class="edge">
<title>Node164&#45;&gt;Node94</title>
<path fill="none" stroke="#191970" d="M775.9892,-111.5124C837.1249,-101.1692 929.7449,-85.4994 988.794,-75.5092"/>
<polygon fill="#191970" stroke="#191970" points="775.3589,-108.0692 766.0829,-113.1884 776.5266,-114.9711 775.3589,-108.0692"/>
</g>
</g>
</svg>
