<?xml version="1.0" encoding="UTF-8" standalone="no"?>
<!DOCTYPE svg PUBLIC "-//W3C//DTD SVG 1.1//EN"
 "http://www.w3.org/Graphics/SVG/1.1/DTD/svg11.dtd">
<!-- Generated by graphviz version 2.40.1 (20161225.0304)
 -->
<!-- Title: FieldBCOps.H Pages: 1 -->
<!--zoomable 196 -->
<svg id="main" version="1.1" xmlns="http://www.w3.org/2000/svg" xmlns:xlink="http://www.w3.org/1999/xlink" xml:space="preserve" onload="init(evt)">
<style type="text/css"><![CDATA[
.edge:hover path { stroke: red; }
.edge:hover polygon { stroke: red; fill: red; }
]]></style>
<script type="text/javascript"><![CDATA[
var edges = document.getElementsByTagName('g');
if (edges && edges.length) {
  for (var i=0;i<edges.length;i++) {
    if (edges[i].id.substr(0,4)=='edge') {
      edges[i].setAttribute('class','edge');
    }
  }
}
]]></script>
        <defs>
                <circle id="rim" cx="0" cy="0" r="7"/>
                <circle id="rim2" cx="0" cy="0" r="3.5"/>
                <g id="zoomPlus">
                        <use xlink:href="#rim" fill="#404040">
                                <set attributeName="fill" to="#808080" begin="zoomplus.mouseover" end="zoomplus.mouseout"/>
                        </use>
                        <path d="M-4,0h8M0,-4v8" fill="none" stroke="white" stroke-width="1.5" pointer-events="none"/>
                </g>
                <g id="zoomMin">
                        <use xlink:href="#rim" fill="#404040">
                                <set attributeName="fill" to="#808080" begin="zoomminus.mouseover" end="zoomminus.mouseout"/>
                        </use>
                        <path d="M-4,0h8" fill="none" stroke="white" stroke-width="1.5" pointer-events="none"/>
                </g>
                <g id="dirArrow">
                        <path fill="none" stroke="white" stroke-width="1.5" d="M0,-3.0v7 M-2.5,-0.5L0,-3.0L2.5,-0.5"/>
                </g>
               <g id="resetDef">
                       <use xlink:href="#rim2" fill="#404040">
                               <set attributeName="fill" to="#808080" begin="reset.mouseover" end="reset.mouseout"/>
                       </use>
               </g>
        </defs>

<script type="text/javascript">
var viewWidth = 1239;
var viewHeight = 196;
var sectionId = 'dynsection-0';
</script>
<script xlink:href="svgpan.js"/>
<svg id="graph" class="graph">
<g id="viewport">
<title>FieldBCOps.H</title>
<polygon fill="#ffffff" stroke="transparent" points="-4,4 -4,-192 1234.5,-192 1234.5,4 -4,4"/>
<!-- Node0 -->
<g id="node1" class="node">
<title>Node0</title>
<polygon fill="#bfbfbf" stroke="#000000" points="816.5,-168.5 816.5,-187.5 896.5,-187.5 896.5,-168.5 816.5,-168.5"/>
<text text-anchor="middle" x="856.5" y="-175.5" font-family="Helvetica,sans-Serif" font-size="10.00" fill="#000000">FieldBCOps.H</text>
</g>
<!-- Node1 -->
<g id="node2" class="node">
<title>Node1</title>
<g id="a_node2"><a xlink:href="_field_desc_types_8_h.html" target="_top" xlink:title="amr&#45;wind/core/FieldDescTypes.H">
<polygon fill="#ffffff" stroke="#000000" points="642,-.5 642,-19.5 805,-19.5 805,-.5 642,-.5"/>
<text text-anchor="middle" x="723.5" y="-7.5" font-family="Helvetica,sans-Serif" font-size="10.00" fill="#000000">amr&#45;wind/core/FieldDescTypes.H</text>
</a>
</g>
</g>
<!-- Node0&#45;&gt;Node1 -->
<g id="edge1" class="edge">
<title>Node0&#45;&gt;Node1</title>
<path fill="none" stroke="#191970" d="M851.6206,-168.2321C837.3559,-139.6976 796.5965,-58.3284 794.5,-56 782.9216,-43.1411 766.9631,-32.3753 753.1081,-24.4996"/>
<polygon fill="#191970" stroke="#191970" points="754.3904,-21.2133 743.932,-19.5187 751.0509,-27.3654 754.3904,-21.2133"/>
</g>
<!-- Node2 -->
<g id="node3" class="node">
<title>Node2</title>
<g id="a_node3"><a xlink:href="_field_8_h.html" target="_top" xlink:title="amr&#45;wind/core/Field.H">
<polygon fill="#ffffff" stroke="#000000" points="461,-112.5 461,-131.5 574,-131.5 574,-112.5 461,-112.5"/>
<text text-anchor="middle" x="517.5" y="-119.5" font-family="Helvetica,sans-Serif" font-size="10.00" fill="#000000">amr&#45;wind/core/Field.H</text>
</a>
</g>
</g>
<!-- Node0&#45;&gt;Node2 -->
<g id="edge2" class="edge">
<title>Node0&#45;&gt;Node2</title>
<path fill="none" stroke="#191970" d="M816.281,-171.3562C758.9435,-161.8845 653.0132,-144.3857 583.9218,-132.9723"/>
<polygon fill="#191970" stroke="#191970" points="584.4422,-129.5109 574.0054,-131.3342 583.3012,-136.4173 584.4422,-129.5109"/>
</g>
<!-- Node8 -->
<g id="node9" class="node">
<title>Node8</title>
<polygon fill="#ffffff" stroke="#bfbfbf" points="701,-56.5 701,-75.5 786,-75.5 786,-56.5 701,-56.5"/>
<text text-anchor="middle" x="743.5" y="-63.5" font-family="Helvetica,sans-Serif" font-size="10.00" fill="#000000">AMReX_Gpu.H</text>
</g>
<!-- Node0&#45;&gt;Node8 -->
<g id="edge16" class="edge">
<title>Node0&#45;&gt;Node8</title>
<path fill="none" stroke="#191970" d="M843.5191,-168.3555C831.8169,-159.4286 814.3689,-145.5306 800.5,-132 784.8542,-116.7357 768.7265,-97.6967 757.6368,-83.9956"/>
<polygon fill="#191970" stroke="#191970" points="760.1094,-81.4832 751.1324,-75.8561 754.6409,-85.8531 760.1094,-81.4832"/>
</g>
<!-- Node12 -->
<g id="node13" class="node">
<title>Node12</title>
<polygon fill="#ffffff" stroke="#bfbfbf" points="843,-112.5 843,-131.5 956,-131.5 956,-112.5 843,-112.5"/>
<text text-anchor="middle" x="899.5" y="-119.5" font-family="Helvetica,sans-Serif" font-size="10.00" fill="#000000">AMReX_FArrayBox.H</text>
</g>
<!-- Node0&#45;&gt;Node12 -->
<g id="edge17" class="edge">
<title>Node0&#45;&gt;Node12</title>
<path fill="none" stroke="#191970" d="M863.99,-168.2455C870.0326,-160.3761 878.6903,-149.101 885.9441,-139.6542"/>
<polygon fill="#191970" stroke="#191970" points="888.7815,-141.7058 892.0958,-131.6427 883.2295,-137.4426 888.7815,-141.7058"/>
</g>
<!-- Node13 -->
<g id="node14" class="node">
<title>Node13</title>
<polygon fill="#ffffff" stroke="#bfbfbf" points="974.5,-112.5 974.5,-131.5 1084.5,-131.5 1084.5,-112.5 974.5,-112.5"/>
<text text-anchor="middle" x="1029.5" y="-119.5" font-family="Helvetica,sans-Serif" font-size="10.00" fill="#000000">AMReX_Geometry.H</text>
</g>
<!-- Node0&#45;&gt;Node13 -->
<g id="edge18" class="edge">
<title>Node0&#45;&gt;Node13</title>
<path fill="none" stroke="#191970" d="M886.2398,-168.3733C915.007,-159.0613 958.77,-144.8953 990.3556,-134.671"/>
<polygon fill="#191970" stroke="#191970" points="991.7122,-137.9107 1000.1483,-131.5011 989.5564,-131.251 991.7122,-137.9107"/>
</g>
<!-- Node14 -->
<g id="node15" class="node">
<title>Node14</title>
<polygon fill="#ffffff" stroke="#bfbfbf" points="1102.5,-112.5 1102.5,-131.5 1230.5,-131.5 1230.5,-112.5 1102.5,-112.5"/>
<text text-anchor="middle" x="1166.5" y="-119.5" font-family="Helvetica,sans-Serif" font-size="10.00" fill="#000000">AMReX_PhysBCFunct.H</text>
</g>
<!-- Node0&#45;&gt;Node14 -->
<g id="edge19" class="edge">
<title>Node0&#45;&gt;Node14</title>
<path fill="none" stroke="#191970" d="M896.7093,-170.7364C949.2397,-161.247 1041.789,-144.5284 1103.629,-133.3573"/>
<polygon fill="#191970" stroke="#191970" points="1104.4407,-136.7674 1113.6592,-131.5454 1103.1963,-129.8789 1104.4407,-136.7674"/>
</g>
<!-- Node2&#45;&gt;Node1 -->
<g id="edge10" class="edge">
<title>Node2&#45;&gt;Node1</title>
<path fill="none" stroke="#191970" d="M531.2502,-112.3843C550.8042,-98.9183 587.9969,-74.0676 621.5,-56 643.8343,-43.9555 669.9329,-32.226 690.1394,-23.6259"/>
<polygon fill="#191970" stroke="#191970" points="691.6842,-26.7732 699.5433,-19.6678 688.9686,-20.3214 691.6842,-26.7732"/>
</g>
<!-- Node3 -->
<g id="node4" class="node">
<title>Node3</title>
<polygon fill="#ffffff" stroke="#bfbfbf" points="347,-.5 347,-19.5 388,-19.5 388,-.5 347,-.5"/>
<text text-anchor="middle" x="367.5" y="-7.5" font-family="Helvetica,sans-Serif" font-size="10.00" fill="#000000">string</text>
</g>
<!-- Node2&#45;&gt;Node3 -->
<g id="edge3" class="edge">
<title>Node2&#45;&gt;Node3</title>
<path fill="none" stroke="#191970" d="M463.5614,-112.4166C439.5302,-105.7403 412.4397,-94.5639 393.5,-76 380.8845,-63.6348 374.2436,-44.4062 370.8426,-29.8872"/>
<polygon fill="#191970" stroke="#191970" points="374.2353,-29.0052 368.8281,-19.8941 367.3734,-30.3886 374.2353,-29.0052"/>
</g>
<!-- Node4 -->
<g id="node5" class="node">
<title>Node4</title>
<polygon fill="#ffffff" stroke="#bfbfbf" points="630.5,-56.5 630.5,-75.5 682.5,-75.5 682.5,-56.5 630.5,-56.5"/>
<text text-anchor="middle" x="656.5" y="-63.5" font-family="Helvetica,sans-Serif" font-size="10.00" fill="#000000">memory</text>
</g>
<!-- Node2&#45;&gt;Node4 -->
<g id="edge4" class="edge">
<title>Node2&#45;&gt;Node4</title>
<path fill="none" stroke="#191970" d="M541.395,-112.3733C564.0082,-103.2629 598.1542,-89.5062 623.3873,-79.3404"/>
<polygon fill="#191970" stroke="#191970" points="624.9493,-82.4845 632.9169,-75.5011 622.3334,-75.9917 624.9493,-82.4845"/>
</g>
<!-- Node5 -->
<g id="node6" class="node">
<title>Node5</title>
<polygon fill="#ffffff" stroke="#bfbfbf" points="0,-56.5 0,-75.5 83,-75.5 83,-56.5 0,-56.5"/>
<text text-anchor="middle" x="41.5" y="-63.5" font-family="Helvetica,sans-Serif" font-size="10.00" fill="#000000">unordered_map</text>
</g>
<!-- Node2&#45;&gt;Node5 -->
<g id="edge5" class="edge">
<title>Node2&#45;&gt;Node5</title>
<path fill="none" stroke="#191970" d="M460.7844,-117.5079C380.944,-110.8235 230.6751,-96.925 93.4672,-76.1985"/>
<polygon fill="#191970" stroke="#191970" points="93.6059,-72.6792 83.1922,-74.6296 92.5493,-79.599 93.6059,-72.6792"/>
</g>
<!-- Node6 -->
<g id="node7" class="node">
<title>Node6</title>
<polygon fill="#ffffff" stroke="#bfbfbf" points="519.5,-.5 519.5,-19.5 623.5,-19.5 623.5,-.5 519.5,-.5"/>
<text text-anchor="middle" x="571.5" y="-7.5" font-family="Helvetica,sans-Serif" font-size="10.00" fill="#000000">AMReX_MultiFab.H</text>
</g>
<!-- Node2&#45;&gt;Node6 -->
<g id="edge6" class="edge">
<title>Node2&#45;&gt;Node6</title>
<path fill="none" stroke="#191970" d="M524.0094,-112.4058C530.0335,-103.2863 539.0116,-89.0621 545.5,-76 553.1086,-60.6827 560.1136,-42.5612 564.9308,-29.1857"/>
<polygon fill="#191970" stroke="#191970" points="568.2787,-30.2153 568.2947,-19.6205 561.6752,-27.8929 568.2787,-30.2153"/>
</g>
<!-- Node7 -->
<g id="node8" class="node">
<title>Node7</title>
<polygon fill="#ffffff" stroke="#bfbfbf" points="101,-56.5 101,-75.5 200,-75.5 200,-56.5 101,-56.5"/>
<text text-anchor="middle" x="150.5" y="-63.5" font-family="Helvetica,sans-Serif" font-size="10.00" fill="#000000">AMReX_BCRec.H</text>
</g>
<!-- Node2&#45;&gt;Node7 -->
<g id="edge7" class="edge">
<title>Node2&#45;&gt;Node7</title>
<path fill="none" stroke="#191970" d="M460.9641,-113.8961C401.2614,-105.2617 304.1177,-90.9958 210.0378,-76.061"/>
<polygon fill="#191970" stroke="#191970" points="210.4888,-72.5888 200.0629,-74.4731 209.3883,-79.5017 210.4888,-72.5888"/>
</g>
<!-- Node2&#45;&gt;Node8 -->
<g id="edge8" class="edge">
<title>Node2&#45;&gt;Node8</title>
<path fill="none" stroke="#191970" d="M556.094,-112.4369C594.5284,-102.9133 653.636,-88.2672 695.171,-77.9753"/>
<polygon fill="#191970" stroke="#191970" points="696.2006,-81.3261 705.0652,-75.5237 694.5169,-74.5316 696.2006,-81.3261"/>
</g>
<!-- Node9 -->
<g id="node10" class="node">
<title>Node9</title>
<g id="a_node10"><a xlink:href="incflo__enums_8_h.html" target="_top" xlink:title="amr&#45;wind/incflo_enums.H">
<polygon fill="#ffffff" stroke="#000000" points="218.5,-56.5 218.5,-75.5 346.5,-75.5 346.5,-56.5 218.5,-56.5"/>
<text text-anchor="middle" x="282.5" y="-63.5" font-family="Helvetica,sans-Serif" font-size="10.00" fill="#000000">amr&#45;wind/incflo_enums.H</text>
</a>
</g>
</g>
<!-- Node2&#45;&gt;Node9 -->
<g id="edge9" class="edge">
<title>Node2&#45;&gt;Node9</title>
<path fill="none" stroke="#191970" d="M477.3691,-112.4369C437.2351,-102.8731 375.4225,-88.1432 332.2067,-77.845"/>
<polygon fill="#191970" stroke="#191970" points="333.0044,-74.4372 322.4654,-75.5237 331.3817,-81.2465 333.0044,-74.4372"/>
</g>
<!-- Node10 -->
<g id="node11" class="node">
<title>Node10</title>
<g id="a_node11"><a xlink:href="_view_field_8_h.html" target="_top" xlink:title="amr&#45;wind/core/ViewField.H">
<polygon fill="#ffffff" stroke="#000000" points="402.5,-56.5 402.5,-75.5 536.5,-75.5 536.5,-56.5 402.5,-56.5"/>
<text text-anchor="middle" x="469.5" y="-63.5" font-family="Helvetica,sans-Serif" font-size="10.00" fill="#000000">amr&#45;wind/core/ViewField.H</text>
</a>
</g>
</g>
<!-- Node2&#45;&gt;Node10 -->
<g id="edge11" class="edge">
<title>Node2&#45;&gt;Node10</title>
<path fill="none" stroke="#191970" d="M509.139,-112.2455C502.325,-104.2958 492.5319,-92.8706 484.3848,-83.3656"/>
<polygon fill="#191970" stroke="#191970" points="486.9305,-80.9575 477.7651,-75.6427 481.6157,-85.513 486.9305,-80.9575"/>
</g>
<!-- Node10&#45;&gt;Node1 -->
<g id="edge13" class="edge">
<title>Node10&#45;&gt;Node1</title>
<path fill="none" stroke="#191970" d="M512.8756,-56.4369C556.437,-46.8328 623.6277,-32.0191 670.3634,-21.7152"/>
<polygon fill="#191970" stroke="#191970" points="671.2915,-25.0947 680.3034,-19.5237 669.7843,-18.2588 671.2915,-25.0947"/>
</g>
<!-- Node10&#45;&gt;Node3 -->
<g id="edge12" class="edge">
<title>Node10&#45;&gt;Node3</title>
<path fill="none" stroke="#191970" d="M451.733,-56.2455C435.7905,-47.4928 412.1741,-34.527 394.0011,-24.5496"/>
<polygon fill="#191970" stroke="#191970" points="395.5137,-21.3873 385.0634,-19.6427 392.1448,-27.5233 395.5137,-21.3873"/>
</g>
<!-- Node10&#45;&gt;Node6 -->
<g id="edge14" class="edge">
<title>Node10&#45;&gt;Node6</title>
<path fill="none" stroke="#191970" d="M487.267,-56.2455C503.2095,-47.4928 526.8259,-34.527 544.9989,-24.5496"/>
<polygon fill="#191970" stroke="#191970" points="546.8552,-27.5233 553.9366,-19.6427 543.4863,-21.3873 546.8552,-27.5233"/>
</g>
<!-- Node11 -->
<g id="node12" class="node">
<title>Node11</title>
<polygon fill="#ffffff" stroke="#bfbfbf" points="406,-.5 406,-19.5 501,-19.5 501,-.5 406,-.5"/>
<text text-anchor="middle" x="453.5" y="-7.5" font-family="Helvetica,sans-Serif" font-size="10.00" fill="#000000">AMReX_Vector.H</text>
</g>
<!-- Node10&#45;&gt;Node11 -->
<g id="edge15" class="edge">
<title>Node10&#45;&gt;Node11</title>
<path fill="none" stroke="#191970" d="M466.713,-56.2455C464.6023,-48.8579 461.634,-38.4689 459.0453,-29.4087"/>
<polygon fill="#191970" stroke="#191970" points="462.3677,-28.2964 456.255,-19.6427 455.637,-30.2195 462.3677,-28.2964"/>
</g>
</g>
</svg>
        <g id="navigator" transform="translate(0 0)" fill="#404254">
                <rect fill="#f2f5e9" fill-opacity="0.5" stroke="#606060" stroke-width=".5" x="0" y="0" width="60" height="60"/>
                <use id="zoomplus" xlink:href="#zoomPlus" x="17" y="9" onmousedown="handleZoom(evt,'in')"/>
                <use id="zoomminus" xlink:href="#zoomMin" x="42" y="9" onmousedown="handleZoom(evt,'out')"/>
                <use id="reset" xlink:href="#resetDef" x="30" y="36" onmousedown="handleReset()"/>
                <g id="arrowUp" xlink:href="#dirArrow" transform="translate(30 24)" onmousedown="handlePan(0,-1)">
                  <use xlink:href="#rim" fill="#404040">
                        <set attributeName="fill" to="#808080" begin="arrowUp.mouseover" end="arrowUp.mouseout"/>
                  </use>
                  <path fill="none" stroke="white" stroke-width="1.5" d="M0,-3.0v7 M-2.5,-0.5L0,-3.0L2.5,-0.5"/>
                </g>
                <g id="arrowRight" xlink:href="#dirArrow" transform="rotate(90) translate(36 -43)" onmousedown="handlePan(1,0)">
                  <use xlink:href="#rim" fill="#404040">
                        <set attributeName="fill" to="#808080" begin="arrowRight.mouseover" end="arrowRight.mouseout"/>
                  </use>
                  <path fill="none" stroke="white" stroke-width="1.5" d="M0,-3.0v7 M-2.5,-0.5L0,-3.0L2.5,-0.5"/>
                </g>
                <g id="arrowDown" xlink:href="#dirArrow" transform="rotate(180) translate(-30 -48)" onmousedown="handlePan(0,1)">
                  <use xlink:href="#rim" fill="#404040">
                        <set attributeName="fill" to="#808080" begin="arrowDown.mouseover" end="arrowDown.mouseout"/>
                  </use>
                  <path fill="none" stroke="white" stroke-width="1.5" d="M0,-3.0v7 M-2.5,-0.5L0,-3.0L2.5,-0.5"/>
                </g>
                <g id="arrowLeft" xlink:href="#dirArrow" transform="rotate(270) translate(-36 17)" onmousedown="handlePan(-1,0)">
                  <use xlink:href="#rim" fill="#404040">
                        <set attributeName="fill" to="#808080" begin="arrowLeft.mouseover" end="arrowLeft.mouseout"/>
                  </use>
                  <path fill="none" stroke="white" stroke-width="1.5" d="M0,-3.0v7 M-2.5,-0.5L0,-3.0L2.5,-0.5"/>
                </g>
        </g>
        <svg viewBox="0 0 15 15" width="100%" height="30px" preserveAspectRatio="xMaxYMin meet">
         <g id="arrow_out" transform="scale(0.3 0.3)">
          <a xlink:href="_field_b_c_ops_8_h__incl_org.svg" target="_base">
           <rect id="button" ry="5" rx="5" y="6" x="6" height="38" width="38"
                fill="#f2f5e9" fill-opacity="0.5" stroke="#606060" stroke-width="1.0"/>
           <path id="arrow"
             d="M 11.500037,31.436501 C 11.940474,20.09759 22.043105,11.32322 32.158766,21.979434 L 37.068811,17.246167 C 37.068811,17.246167 37.088388,32 37.088388,32 L 22.160133,31.978069 C 22.160133,31.978069 26.997745,27.140456 26.997745,27.140456 C 18.528582,18.264221 13.291696,25.230495 11.500037,31.436501 z"
             style="fill:#404040;"/>
          </a>
         </g>
        </svg>
</svg>
