<?xml version="1.0" encoding="UTF-8" standalone="no"?>
<!DOCTYPE svg PUBLIC "-//W3C//DTD SVG 1.1//EN"
 "http://www.w3.org/Graphics/SVG/1.1/DTD/svg11.dtd">
<!-- Generated by graphviz version 2.40.1 (20161225.0304)
 -->
<!-- Title: FieldFillPatchOps.H Pages: 1 -->
<!--zoomable 196 -->
<svg id="main" version="1.1" xmlns="http://www.w3.org/2000/svg" xmlns:xlink="http://www.w3.org/1999/xlink" xml:space="preserve" onload="init(evt)">
<style type="text/css"><![CDATA[
.edge:hover path { stroke: red; }
.edge:hover polygon { stroke: red; fill: red; }
]]></style>
<script type="text/javascript"><![CDATA[
var edges = document.getElementsByTagName('g');
if (edges && edges.length) {
  for (var i=0;i<edges.length;i++) {
    if (edges[i].id.substr(0,4)=='edge') {
      edges[i].setAttribute('class','edge');
    }
  }
}
]]></script>
        <defs>
                <circle id="rim" cx="0" cy="0" r="7"/>
                <circle id="rim2" cx="0" cy="0" r="3.5"/>
                <g id="zoomPlus">
                        <use xlink:href="#rim" fill="#404040">
                                <set attributeName="fill" to="#808080" begin="zoomplus.mouseover" end="zoomplus.mouseout"/>
                        </use>
                        <path d="M-4,0h8M0,-4v8" fill="none" stroke="white" stroke-width="1.5" pointer-events="none"/>
                </g>
                <g id="zoomMin">
                        <use xlink:href="#rim" fill="#404040">
                                <set attributeName="fill" to="#808080" begin="zoomminus.mouseover" end="zoomminus.mouseout"/>
                        </use>
                        <path d="M-4,0h8" fill="none" stroke="white" stroke-width="1.5" pointer-events="none"/>
                </g>
                <g id="dirArrow">
                        <path fill="none" stroke="white" stroke-width="1.5" d="M0,-3.0v7 M-2.5,-0.5L0,-3.0L2.5,-0.5"/>
                </g>
               <g id="resetDef">
                       <use xlink:href="#rim2" fill="#404040">
                               <set attributeName="fill" to="#808080" begin="reset.mouseover" end="reset.mouseout"/>
                       </use>
               </g>
        </defs>

<script type="text/javascript">
var viewWidth = 1513;
var viewHeight = 196;
var sectionId = 'dynsection-0';
</script>
<script xlink:href="svgpan.js"/>
<svg id="graph" class="graph">
<g id="viewport">
<title>FieldFillPatchOps.H</title>
<polygon fill="#ffffff" stroke="transparent" points="-4,4 -4,-192 1509,-192 1509,4 -4,4"/>
<!-- Node0 -->
<g id="node1" class="node">
<title>Node0</title>
<polygon fill="#bfbfbf" stroke="#000000" points="885,-168.5 885,-187.5 989,-187.5 989,-168.5 885,-168.5"/>
<text text-anchor="middle" x="937" y="-175.5" font-family="Helvetica,sans-Serif" font-size="10.00" fill="#000000">FieldFillPatchOps.H</text>
</g>
<!-- Node1 -->
<g id="node2" class="node">
<title>Node1</title>
<g id="a_node2"><a xlink:href="_field_8_h.html" target="_top" xlink:title="amr&#45;wind/core/Field.H">
<polygon fill="#ffffff" stroke="#000000" points="605.5,-112.5 605.5,-131.5 718.5,-131.5 718.5,-112.5 605.5,-112.5"/>
<text text-anchor="middle" x="662" y="-119.5" font-family="Helvetica,sans-Serif" font-size="10.00" fill="#000000">amr&#45;wind/core/Field.H</text>
</a>
</g>
</g>
<!-- Node0&#45;&gt;Node1 -->
<g id="edge1" class="edge">
<title>Node0&#45;&gt;Node1</title>
<path fill="none" stroke="#191970" d="M890.0383,-168.4369C842.5787,-158.7724 769.2134,-143.8326 718.5777,-133.5213"/>
<polygon fill="#191970" stroke="#191970" points="719.2653,-130.0895 708.768,-131.5237 717.8685,-136.9488 719.2653,-130.0895"/>
</g>
<!-- Node5 -->
<g id="node6" class="node">
<title>Node5</title>
<polygon fill="#ffffff" stroke="#bfbfbf" points="316,-.5 316,-19.5 420,-19.5 420,-.5 316,-.5"/>
<text text-anchor="middle" x="368" y="-7.5" font-family="Helvetica,sans-Serif" font-size="10.00" fill="#000000">AMReX_MultiFab.H</text>
</g>
<!-- Node0&#45;&gt;Node5 -->
<g id="edge25" class="edge">
<title>Node0&#45;&gt;Node5</title>
<path fill="none" stroke="#191970" d="M884.7508,-176.4535C758.5461,-171.5323 442.5802,-151.7465 376,-76 365.0698,-63.5651 363.8766,-44.3448 364.9404,-29.8467"/>
<polygon fill="#191970" stroke="#191970" points="368.4225,-30.2013 366.07,-19.871 361.467,-29.4136 368.4225,-30.2013"/>
</g>
<!-- Node9 -->
<g id="node10" class="node">
<title>Node9</title>
<g id="a_node10"><a xlink:href="_field_desc_types_8_h.html" target="_top" xlink:title="amr&#45;wind/core/FieldDescTypes.H">
<polygon fill="#ffffff" stroke="#000000" points="134.5,-.5 134.5,-19.5 297.5,-19.5 297.5,-.5 134.5,-.5"/>
<text text-anchor="middle" x="216" y="-7.5" font-family="Helvetica,sans-Serif" font-size="10.00" fill="#000000">amr&#45;wind/core/FieldDescTypes.H</text>
</a>
</g>
</g>
<!-- Node0&#45;&gt;Node9 -->
<g id="edge19" class="edge">
<title>Node0&#45;&gt;Node9</title>
<path fill="none" stroke="#191970" d="M884.8645,-175.8891C774.4612,-170.9814 520.4571,-157.2552 438,-132 358.5846,-107.6764 275.5206,-52.8431 237.4131,-25.7541"/>
<polygon fill="#191970" stroke="#191970" points="239.3019,-22.8014 229.1399,-19.804 235.2147,-28.4843 239.3019,-22.8014"/>
</g>
<!-- Node12 -->
<g id="node13" class="node">
<title>Node12</title>
<g id="a_node13"><a xlink:href="_sim_time_8_h.html" target="_top" xlink:title="amr&#45;wind/core/SimTime.H">
<polygon fill="#ffffff" stroke="#000000" points="965.5,-112.5 965.5,-131.5 1096.5,-131.5 1096.5,-112.5 965.5,-112.5"/>
<text text-anchor="middle" x="1031" y="-119.5" font-family="Helvetica,sans-Serif" font-size="10.00" fill="#000000">amr&#45;wind/core/SimTime.H</text>
</a>
</g>
</g>
<!-- Node0&#45;&gt;Node12 -->
<g id="edge15" class="edge">
<title>Node0&#45;&gt;Node12</title>
<path fill="none" stroke="#191970" d="M953.3736,-168.2455C967.9308,-159.5731 989.431,-146.7645 1006.1152,-136.825"/>
<polygon fill="#191970" stroke="#191970" points="1008.0144,-139.7676 1014.8141,-131.6427 1004.4317,-133.7539 1008.0144,-139.7676"/>
</g>
<!-- Node13 -->
<g id="node14" class="node">
<title>Node13</title>
<polygon fill="#ffffff" stroke="#bfbfbf" points="1131.5,-56.5 1131.5,-75.5 1224.5,-75.5 1224.5,-56.5 1131.5,-56.5"/>
<text text-anchor="middle" x="1178" y="-63.5" font-family="Helvetica,sans-Serif" font-size="10.00" fill="#000000">AMReX_REAL.H</text>
</g>
<!-- Node0&#45;&gt;Node13 -->
<g id="edge26" class="edge">
<title>Node0&#45;&gt;Node13</title>
<path fill="none" stroke="#191970" d="M936.8551,-168.3416C937.1949,-153.8865 940.0832,-126.7511 956,-112 962.1229,-106.3256 1057.6504,-87.9659 1121.3808,-76.2289"/>
<polygon fill="#191970" stroke="#191970" points="1122.1138,-79.6529 1131.3176,-74.405 1120.85,-72.768 1122.1138,-79.6529"/>
</g>
<!-- Node16 -->
<g id="node17" class="node">
<title>Node16</title>
<g id="a_node17"><a xlink:href="_field_utils_8_h.html" target="_top" xlink:title="amr&#45;wind/core/FieldUtils.H">
<polygon fill="#ffffff" stroke="#000000" points="99.5,-56.5 99.5,-75.5 232.5,-75.5 232.5,-56.5 99.5,-56.5"/>
<text text-anchor="middle" x="166" y="-63.5" font-family="Helvetica,sans-Serif" font-size="10.00" fill="#000000">amr&#45;wind/core/FieldUtils.H</text>
</a>
</g>
</g>
<!-- Node0&#45;&gt;Node16 -->
<g id="edge20" class="edge">
<title>Node0&#45;&gt;Node16</title>
<path fill="none" stroke="#191970" d="M884.9289,-176.351C734.4201,-171.3304 305.7865,-155.1494 247,-132 220.554,-121.5859 196.1371,-99.1951 181.1725,-83.3899"/>
<polygon fill="#191970" stroke="#191970" points="183.5811,-80.8375 174.2479,-75.8234 178.4172,-85.5634 183.5811,-80.8375"/>
</g>
<!-- Node18 -->
<g id="node19" class="node">
<title>Node18</title>
<polygon fill="#ffffff" stroke="#bfbfbf" points="1115,-112.5 1115,-131.5 1221,-131.5 1221,-112.5 1115,-112.5"/>
<text text-anchor="middle" x="1168" y="-119.5" font-family="Helvetica,sans-Serif" font-size="10.00" fill="#000000">AMReX_AmrCore.H</text>
</g>
<!-- Node0&#45;&gt;Node18 -->
<g id="edge24" class="edge">
<title>Node0&#45;&gt;Node18</title>
<path fill="none" stroke="#191970" d="M976.4478,-168.4369C1015.8156,-158.8932 1076.4034,-144.2052 1118.8708,-133.9101"/>
<polygon fill="#191970" stroke="#191970" points="1119.821,-137.2812 1128.7149,-131.5237 1118.1717,-130.4783 1119.821,-137.2812"/>
</g>
<!-- Node19 -->
<g id="node20" class="node">
<title>Node19</title>
<polygon fill="#ffffff" stroke="#bfbfbf" points="1239,-112.5 1239,-131.5 1367,-131.5 1367,-112.5 1239,-112.5"/>
<text text-anchor="middle" x="1303" y="-119.5" font-family="Helvetica,sans-Serif" font-size="10.00" fill="#000000">AMReX_PhysBCFunct.H</text>
</g>
<!-- Node0&#45;&gt;Node19 -->
<g id="edge27" class="edge">
<title>Node0&#45;&gt;Node19</title>
<path fill="none" stroke="#191970" d="M989.0502,-170.036C1052.2533,-160.3656 1159.2192,-143.9993 1230.4743,-133.0968"/>
<polygon fill="#191970" stroke="#191970" points="1231.3632,-136.5016 1240.7187,-131.5294 1230.3044,-129.5822 1231.3632,-136.5016"/>
</g>
<!-- Node20 -->
<g id="node21" class="node">
<title>Node20</title>
<polygon fill="#ffffff" stroke="#bfbfbf" points="1385,-112.5 1385,-131.5 1505,-131.5 1505,-112.5 1385,-112.5"/>
<text text-anchor="middle" x="1445" y="-119.5" font-family="Helvetica,sans-Serif" font-size="10.00" fill="#000000">AMReX_FillPatchUtil.H</text>
</g>
<!-- Node0&#45;&gt;Node20 -->
<g id="edge28" class="edge">
<title>Node0&#45;&gt;Node20</title>
<path fill="none" stroke="#191970" d="M989.1112,-173.2118C1069.559,-165.672 1229.089,-150.1335 1374.788,-132.1124"/>
<polygon fill="#191970" stroke="#191970" points="1375.3165,-135.5738 1384.8081,-130.8664 1374.4526,-128.6273 1375.3165,-135.5738"/>
</g>
<!-- Node2 -->
<g id="node3" class="node">
<title>Node2</title>
<polygon fill="#ffffff" stroke="#bfbfbf" points="551.5,-.5 551.5,-19.5 592.5,-19.5 592.5,-.5 551.5,-.5"/>
<text text-anchor="middle" x="572" y="-7.5" font-family="Helvetica,sans-Serif" font-size="10.00" fill="#000000">string</text>
</g>
<!-- Node1&#45;&gt;Node2 -->
<g id="edge2" class="edge">
<title>Node1&#45;&gt;Node2</title>
<path fill="none" stroke="#191970" d="M633.9498,-112.3896C616.8554,-105.0736 596.0493,-93.2802 584,-76 574.6441,-62.5824 571.9422,-44.021 571.4091,-29.999"/>
<polygon fill="#191970" stroke="#191970" points="574.9088,-29.8949 571.361,-19.9117 567.9089,-29.9284 574.9088,-29.8949"/>
</g>
<!-- Node3 -->
<g id="node4" class="node">
<title>Node3</title>
<polygon fill="#ffffff" stroke="#bfbfbf" points="593,-56.5 593,-75.5 645,-75.5 645,-56.5 593,-56.5"/>
<text text-anchor="middle" x="619" y="-63.5" font-family="Helvetica,sans-Serif" font-size="10.00" fill="#000000">memory</text>
</g>
<!-- Node1&#45;&gt;Node3 -->
<g id="edge3" class="edge">
<title>Node1&#45;&gt;Node3</title>
<path fill="none" stroke="#191970" d="M654.51,-112.2455C648.4674,-104.3761 639.8097,-93.101 632.5559,-83.6542"/>
<polygon fill="#191970" stroke="#191970" points="635.2705,-81.4426 626.4042,-75.6427 629.7185,-85.7058 635.2705,-81.4426"/>
</g>
<!-- Node4 -->
<g id="node5" class="node">
<title>Node4</title>
<polygon fill="#ffffff" stroke="#bfbfbf" points="663.5,-56.5 663.5,-75.5 746.5,-75.5 746.5,-56.5 663.5,-56.5"/>
<text text-anchor="middle" x="705" y="-63.5" font-family="Helvetica,sans-Serif" font-size="10.00" fill="#000000">unordered_map</text>
</g>
<!-- Node1&#45;&gt;Node4 -->
<g id="edge4" class="edge">
<title>Node1&#45;&gt;Node4</title>
<path fill="none" stroke="#191970" d="M669.49,-112.2455C675.5326,-104.3761 684.1903,-93.101 691.4441,-83.6542"/>
<polygon fill="#191970" stroke="#191970" points="694.2815,-85.7058 697.5958,-75.6427 688.7295,-81.4426 694.2815,-85.7058"/>
</g>
<!-- Node1&#45;&gt;Node5 -->
<g id="edge5" class="edge">
<title>Node1&#45;&gt;Node5</title>
<path fill="none" stroke="#191970" d="M605.445,-118.7321C536.6123,-113.6792 425.6356,-101.727 394,-76 380.1427,-64.7308 373.6417,-45.0473 370.6094,-30.1002"/>
<polygon fill="#191970" stroke="#191970" points="373.992,-29.1034 368.9024,-19.8112 367.0864,-30.2492 373.992,-29.1034"/>
</g>
<!-- Node6 -->
<g id="node7" class="node">
<title>Node6</title>
<polygon fill="#ffffff" stroke="#bfbfbf" points="764.5,-56.5 764.5,-75.5 863.5,-75.5 863.5,-56.5 764.5,-56.5"/>
<text text-anchor="middle" x="814" y="-63.5" font-family="Helvetica,sans-Serif" font-size="10.00" fill="#000000">AMReX_BCRec.H</text>
</g>
<!-- Node1&#45;&gt;Node6 -->
<g id="edge6" class="edge">
<title>Node1&#45;&gt;Node6</title>
<path fill="none" stroke="#191970" d="M688.1297,-112.3733C713.0768,-103.1822 750.8592,-89.2624 778.5206,-79.0713"/>
<polygon fill="#191970" stroke="#191970" points="780.0378,-82.2424 788.2112,-75.5011 777.6178,-75.674 780.0378,-82.2424"/>
</g>
<!-- Node7 -->
<g id="node8" class="node">
<title>Node7</title>
<polygon fill="#ffffff" stroke="#bfbfbf" points="881.5,-56.5 881.5,-75.5 966.5,-75.5 966.5,-56.5 881.5,-56.5"/>
<text text-anchor="middle" x="924" y="-63.5" font-family="Helvetica,sans-Serif" font-size="10.00" fill="#000000">AMReX_Gpu.H</text>
</g>
<!-- Node1&#45;&gt;Node7 -->
<g id="edge7" class="edge">
<title>Node1&#45;&gt;Node7</title>
<path fill="none" stroke="#191970" d="M706.7417,-112.4369C752.3152,-102.696 822.9613,-87.5961 871.2367,-77.2776"/>
<polygon fill="#191970" stroke="#191970" points="872.134,-80.665 881.1815,-75.152 870.6708,-73.8196 872.134,-80.665"/>
</g>
<!-- Node8 -->
<g id="node9" class="node">
<title>Node8</title>
<g id="a_node9"><a xlink:href="incflo__enums_8_h.html" target="_top" xlink:title="amr&#45;wind/incflo_enums.H">
<polygon fill="#ffffff" stroke="#000000" points="985,-56.5 985,-75.5 1113,-75.5 1113,-56.5 985,-56.5"/>
<text text-anchor="middle" x="1049" y="-63.5" font-family="Helvetica,sans-Serif" font-size="10.00" fill="#000000">amr&#45;wind/incflo_enums.H</text>
</a>
</g>
</g>
<!-- Node1&#45;&gt;Node8 -->
<g id="edge8" class="edge">
<title>Node1&#45;&gt;Node8</title>
<path fill="none" stroke="#191970" d="M718.6876,-113.7971C786.3617,-104.0045 899.7462,-87.5974 974.4624,-76.7858"/>
<polygon fill="#191970" stroke="#191970" points="975.3442,-80.1948 984.7398,-75.2986 974.3416,-73.2669 975.3442,-80.1948"/>
</g>
<!-- Node1&#45;&gt;Node9 -->
<g id="edge9" class="edge">
<title>Node1&#45;&gt;Node9</title>
<path fill="none" stroke="#191970" d="M605.266,-116.7923C546.9495,-110.5328 453.9182,-98.0143 376,-76 328.3062,-62.525 275.6524,-39.0165 244.228,-23.997"/>
<polygon fill="#191970" stroke="#191970" points="245.713,-20.8274 235.1861,-19.6289 242.6679,-27.1305 245.713,-20.8274"/>
</g>
<!-- Node10 -->
<g id="node11" class="node">
<title>Node10</title>
<g id="a_node11"><a xlink:href="_view_field_8_h.html" target="_top" xlink:title="amr&#45;wind/core/ViewField.H">
<polygon fill="#ffffff" stroke="#000000" points="403,-56.5 403,-75.5 537,-75.5 537,-56.5 403,-56.5"/>
<text text-anchor="middle" x="470" y="-63.5" font-family="Helvetica,sans-Serif" font-size="10.00" fill="#000000">amr&#45;wind/core/ViewField.H</text>
</a>
</g>
</g>
<!-- Node1&#45;&gt;Node10 -->
<g id="edge10" class="edge">
<title>Node1&#45;&gt;Node10</title>
<path fill="none" stroke="#191970" d="M628.994,-112.3733C596.7909,-102.9807 547.6558,-88.6496 512.5361,-78.4064"/>
<polygon fill="#191970" stroke="#191970" points="513.1553,-74.9412 502.5753,-75.5011 511.1953,-81.6612 513.1553,-74.9412"/>
</g>
<!-- Node10&#45;&gt;Node2 -->
<g id="edge11" class="edge">
<title>Node10&#45;&gt;Node2</title>
<path fill="none" stroke="#191970" d="M487.767,-56.2455C503.7095,-47.4928 527.3259,-34.527 545.4989,-24.5496"/>
<polygon fill="#191970" stroke="#191970" points="547.3552,-27.5233 554.4366,-19.6427 543.9863,-21.3873 547.3552,-27.5233"/>
</g>
<!-- Node10&#45;&gt;Node5 -->
<g id="edge13" class="edge">
<title>Node10&#45;&gt;Node5</title>
<path fill="none" stroke="#191970" d="M452.233,-56.2455C436.2905,-47.4928 412.6741,-34.527 394.5011,-24.5496"/>
<polygon fill="#191970" stroke="#191970" points="396.0137,-21.3873 385.5634,-19.6427 392.6448,-27.5233 396.0137,-21.3873"/>
</g>
<!-- Node10&#45;&gt;Node9 -->
<g id="edge12" class="edge">
<title>Node10&#45;&gt;Node9</title>
<path fill="none" stroke="#191970" d="M426.6244,-56.4369C383.063,-46.8328 315.8723,-32.0191 269.1366,-21.7152"/>
<polygon fill="#191970" stroke="#191970" points="269.7157,-18.2588 259.1966,-19.5237 268.2085,-25.0947 269.7157,-18.2588"/>
</g>
<!-- Node11 -->
<g id="node12" class="node">
<title>Node11</title>
<polygon fill="#ffffff" stroke="#bfbfbf" points="438.5,-.5 438.5,-19.5 533.5,-19.5 533.5,-.5 438.5,-.5"/>
<text text-anchor="middle" x="486" y="-7.5" font-family="Helvetica,sans-Serif" font-size="10.00" fill="#000000">AMReX_Vector.H</text>
</g>
<!-- Node10&#45;&gt;Node11 -->
<g id="edge14" class="edge">
<title>Node10&#45;&gt;Node11</title>
<path fill="none" stroke="#191970" d="M472.787,-56.2455C474.8977,-48.8579 477.866,-38.4689 480.4547,-29.4087"/>
<polygon fill="#191970" stroke="#191970" points="483.863,-30.2195 483.245,-19.6427 477.1323,-28.2964 483.863,-30.2195"/>
</g>
<!-- Node12&#45;&gt;Node13 -->
<g id="edge16" class="edge">
<title>Node12&#45;&gt;Node13</title>
<path fill="none" stroke="#191970" d="M1056.2702,-112.3733C1080.3966,-103.1822 1116.9362,-89.2624 1143.6877,-79.0713"/>
<polygon fill="#191970" stroke="#191970" points="1144.9607,-82.3318 1153.0596,-75.5011 1142.4687,-75.7904 1144.9607,-82.3318"/>
</g>
<!-- Node14 -->
<g id="node15" class="node">
<title>Node14</title>
<polygon fill="#ffffff" stroke="#bfbfbf" points="1371,-56.5 1371,-75.5 1497,-75.5 1497,-56.5 1371,-56.5"/>
<text text-anchor="middle" x="1434" y="-63.5" font-family="Helvetica,sans-Serif" font-size="10.00" fill="#000000">AMReX_GpuQualifiers.H</text>
</g>
<!-- Node12&#45;&gt;Node14 -->
<g id="edge17" class="edge">
<title>Node12&#45;&gt;Node14</title>
<path fill="none" stroke="#191970" d="M1096.6458,-112.878C1168.9653,-102.8286 1284.9869,-86.7065 1360.3526,-76.2339"/>
<polygon fill="#191970" stroke="#191970" points="1361.2853,-79.638 1370.7084,-74.7949 1360.3218,-72.7046 1361.2853,-79.638"/>
</g>
<!-- Node15 -->
<g id="node16" class="node">
<title>Node15</title>
<polygon fill="#ffffff" stroke="#bfbfbf" points="1243,-56.5 1243,-75.5 1353,-75.5 1353,-56.5 1243,-56.5"/>
<text text-anchor="middle" x="1298" y="-63.5" font-family="Helvetica,sans-Serif" font-size="10.00" fill="#000000">AMReX_Extension.H</text>
</g>
<!-- Node12&#45;&gt;Node15 -->
<g id="edge18" class="edge">
<title>Node12&#45;&gt;Node15</title>
<path fill="none" stroke="#191970" d="M1076.5956,-112.4369C1122.5785,-102.7925 1193.6088,-87.8948 1242.7606,-77.5858"/>
<polygon fill="#191970" stroke="#191970" points="1243.5239,-81.0019 1252.5925,-75.5237 1242.087,-74.151 1243.5239,-81.0019"/>
</g>
<!-- Node16&#45;&gt;Node5 -->
<g id="edge22" class="edge">
<title>Node16&#45;&gt;Node5</title>
<path fill="none" stroke="#191970" d="M200.725,-56.3733C234.7508,-46.9404 286.7437,-32.5265 323.7234,-22.2747"/>
<polygon fill="#191970" stroke="#191970" points="325.0266,-25.5455 333.7281,-19.5011 323.1565,-18.7999 325.0266,-25.5455"/>
</g>
<!-- Node16&#45;&gt;Node9 -->
<g id="edge21" class="edge">
<title>Node16&#45;&gt;Node9</title>
<path fill="none" stroke="#191970" d="M174.7093,-56.2455C181.8073,-48.2958 192.0084,-36.8706 200.495,-27.3656"/>
<polygon fill="#191970" stroke="#191970" points="203.3411,-29.4331 207.3905,-19.6427 198.1195,-24.771 203.3411,-29.4331"/>
</g>
<!-- Node17 -->
<g id="node18" class="node">
<title>Node17</title>
<polygon fill="#ffffff" stroke="#bfbfbf" points="0,-.5 0,-19.5 116,-19.5 116,-.5 0,-.5"/>
<text text-anchor="middle" x="58" y="-7.5" font-family="Helvetica,sans-Serif" font-size="10.00" fill="#000000">AMReX_Interpolater.H</text>
</g>
<!-- Node16&#45;&gt;Node17 -->
<g id="edge23" class="edge">
<title>Node16&#45;&gt;Node17</title>
<path fill="none" stroke="#191970" d="M147.1878,-56.2455C130.1527,-47.4125 104.8425,-34.2887 85.5319,-24.2758"/>
<polygon fill="#191970" stroke="#191970" points="87.0853,-21.1388 76.5966,-19.6427 83.863,-27.353 87.0853,-21.1388"/>
</g>
</g>
</svg>
        <g id="navigator" transform="translate(0 0)" fill="#404254">
                <rect fill="#f2f5e9" fill-opacity="0.5" stroke="#606060" stroke-width=".5" x="0" y="0" width="60" height="60"/>
                <use id="zoomplus" xlink:href="#zoomPlus" x="17" y="9" onmousedown="handleZoom(evt,'in')"/>
                <use id="zoomminus" xlink:href="#zoomMin" x="42" y="9" onmousedown="handleZoom(evt,'out')"/>
                <use id="reset" xlink:href="#resetDef" x="30" y="36" onmousedown="handleReset()"/>
                <g id="arrowUp" xlink:href="#dirArrow" transform="translate(30 24)" onmousedown="handlePan(0,-1)">
                  <use xlink:href="#rim" fill="#404040">
                        <set attributeName="fill" to="#808080" begin="arrowUp.mouseover" end="arrowUp.mouseout"/>
                  </use>
                  <path fill="none" stroke="white" stroke-width="1.5" d="M0,-3.0v7 M-2.5,-0.5L0,-3.0L2.5,-0.5"/>
                </g>
                <g id="arrowRight" xlink:href="#dirArrow" transform="rotate(90) translate(36 -43)" onmousedown="handlePan(1,0)">
                  <use xlink:href="#rim" fill="#404040">
                        <set attributeName="fill" to="#808080" begin="arrowRight.mouseover" end="arrowRight.mouseout"/>
                  </use>
                  <path fill="none" stroke="white" stroke-width="1.5" d="M0,-3.0v7 M-2.5,-0.5L0,-3.0L2.5,-0.5"/>
                </g>
                <g id="arrowDown" xlink:href="#dirArrow" transform="rotate(180) translate(-30 -48)" onmousedown="handlePan(0,1)">
                  <use xlink:href="#rim" fill="#404040">
                        <set attributeName="fill" to="#808080" begin="arrowDown.mouseover" end="arrowDown.mouseout"/>
                  </use>
                  <path fill="none" stroke="white" stroke-width="1.5" d="M0,-3.0v7 M-2.5,-0.5L0,-3.0L2.5,-0.5"/>
                </g>
                <g id="arrowLeft" xlink:href="#dirArrow" transform="rotate(270) translate(-36 17)" onmousedown="handlePan(-1,0)">
                  <use xlink:href="#rim" fill="#404040">
                        <set attributeName="fill" to="#808080" begin="arrowLeft.mouseover" end="arrowLeft.mouseout"/>
                  </use>
                  <path fill="none" stroke="white" stroke-width="1.5" d="M0,-3.0v7 M-2.5,-0.5L0,-3.0L2.5,-0.5"/>
                </g>
        </g>
        <svg viewBox="0 0 15 15" width="100%" height="30px" preserveAspectRatio="xMaxYMin meet">
         <g id="arrow_out" transform="scale(0.3 0.3)">
          <a xlink:href="_field_fill_patch_ops_8_h__incl_org.svg" target="_base">
           <rect id="button" ry="5" rx="5" y="6" x="6" height="38" width="38"
                fill="#f2f5e9" fill-opacity="0.5" stroke="#606060" stroke-width="1.0"/>
           <path id="arrow"
             d="M 11.500037,31.436501 C 11.940474,20.09759 22.043105,11.32322 32.158766,21.979434 L 37.068811,17.246167 C 37.068811,17.246167 37.088388,32 37.088388,32 L 22.160133,31.978069 C 22.160133,31.978069 26.997745,27.140456 26.997745,27.140456 C 18.528582,18.264221 13.291696,25.230495 11.500037,31.436501 z"
             style="fill:#404040;"/>
          </a>
         </g>
        </svg>
</svg>
