<?xml version="1.0" encoding="UTF-8" standalone="no"?>
<!DOCTYPE svg PUBLIC "-//W3C//DTD SVG 1.1//EN"
 "http://www.w3.org/Graphics/SVG/1.1/DTD/svg11.dtd">
<!-- Generated by graphviz version 2.40.1 (20161225.0304)
 -->
<!-- Title: FieldFillPatchOps.H Pages: 1 -->
<svg width="1475pt" height="420pt"
 viewBox="0.00 0.00 1474.92 420.00" xmlns="http://www.w3.org/2000/svg" xmlns:xlink="http://www.w3.org/1999/xlink">
<g id="graph0" class="graph" transform="scale(1 1) rotate(0) translate(4 416)">
<title>FieldFillPatchOps.H</title>
<polygon fill="#ffffff" stroke="transparent" points="-4,4 -4,-416 1470.9158,-416 1470.9158,4 -4,4"/>
<!-- Node21 -->
<g id="node1" class="node">
<title>Node21</title>
<polygon fill="#bfbfbf" stroke="#000000" points="1155.4158,-392.5 1155.4158,-411.5 1259.4158,-411.5 1259.4158,-392.5 1155.4158,-392.5"/>
<text text-anchor="middle" x="1207.4158" y="-399.5" font-family="Helvetica,sans-Serif" font-size="10.00" fill="#000000">FieldFillPatchOps.H</text>
</g>
<!-- Node22 -->
<g id="node2" class="node">
<title>Node22</title>
<g id="a_node2"><a xlink:href="velocity__bcs_8_h.html" target="_top" xlink:title="velocity_bcs.H">
<polygon fill="#ffffff" stroke="#000000" points="1164.4158,-224.5 1164.4158,-243.5 1246.4158,-243.5 1246.4158,-224.5 1164.4158,-224.5"/>
<text text-anchor="middle" x="1205.4158" y="-231.5" font-family="Helvetica,sans-Serif" font-size="10.00" fill="#000000">velocity_bcs.H</text>
</a>
</g>
</g>
<!-- Node21&#45;&gt;Node22 -->
<g id="edge1" class="edge">
<title>Node21&#45;&gt;Node22</title>
<path fill="none" stroke="#191970" d="M1202.6838,-382.2549C1200.9737,-374.1687 1199.2576,-364.6868 1198.4158,-356 1194.364,-314.1894 1200.7673,-264.0735 1203.8767,-243.5109"/>
<polygon fill="#191970" stroke="#191970" points="1199.3147,-383.2257 1204.9293,-392.2105 1206.1432,-381.6854 1199.3147,-383.2257"/>
</g>
<!-- Node25 -->
<g id="node5" class="node">
<title>Node25</title>
<g id="a_node5"><a xlink:href="_field_8cpp.html" target="_top" xlink:title="Field.cpp">
<polygon fill="#ffffff" stroke="#000000" points="1207.4158,-336.5 1207.4158,-355.5 1263.4158,-355.5 1263.4158,-336.5 1207.4158,-336.5"/>
<text text-anchor="middle" x="1235.4158" y="-343.5" font-family="Helvetica,sans-Serif" font-size="10.00" fill="#000000">Field.cpp</text>
</a>
</g>
</g>
<!-- Node21&#45;&gt;Node25 -->
<g id="edge4" class="edge">
<title>Node21&#45;&gt;Node25</title>
<path fill="none" stroke="#191970" d="M1216.8939,-383.0437C1221.4992,-373.8331 1226.8359,-363.1598 1230.5944,-355.6427"/>
<polygon fill="#191970" stroke="#191970" points="1213.6347,-381.736 1212.293,-392.2455 1219.8957,-384.8665 1213.6347,-381.736"/>
</g>
<!-- Node26 -->
<g id="node6" class="node">
<title>Node26</title>
<g id="a_node6"><a xlink:href="_p_d_e_helpers_8_h.html" target="_top" xlink:title="PDEHelpers.H">
<polygon fill="#ffffff" stroke="#000000" points="718.4158,-336.5 718.4158,-355.5 800.4158,-355.5 800.4158,-336.5 718.4158,-336.5"/>
<text text-anchor="middle" x="759.4158" y="-343.5" font-family="Helvetica,sans-Serif" font-size="10.00" fill="#000000">PDEHelpers.H</text>
</a>
</g>
</g>
<!-- Node21&#45;&gt;Node26 -->
<g id="edge5" class="edge">
<title>Node21&#45;&gt;Node26</title>
<path fill="none" stroke="#191970" d="M1145.0234,-394.201C1051.933,-382.5647 879.2185,-360.9753 800.4671,-351.1314"/>
<polygon fill="#191970" stroke="#191970" points="1144.7908,-397.699 1155.1477,-395.4665 1145.6591,-390.7531 1144.7908,-397.699"/>
</g>
<!-- Node55 -->
<g id="node35" class="node">
<title>Node55</title>
<g id="a_node35"><a xlink:href="_a_b_l_fill_inflow_8_h.html" target="_top" xlink:title="ABLFillInflow.H">
<polygon fill="#ffffff" stroke="#000000" points="1281.9158,-336.5 1281.9158,-355.5 1366.9158,-355.5 1366.9158,-336.5 1281.9158,-336.5"/>
<text text-anchor="middle" x="1324.4158" y="-343.5" font-family="Helvetica,sans-Serif" font-size="10.00" fill="#000000">ABLFillInflow.H</text>
</a>
</g>
</g>
<!-- Node21&#45;&gt;Node55 -->
<g id="edge76" class="edge">
<title>Node21&#45;&gt;Node55</title>
<path fill="none" stroke="#191970" d="M1236.72,-387.9741C1257.9038,-377.8348 1285.9561,-364.408 1304.5652,-355.5011"/>
<polygon fill="#191970" stroke="#191970" points="1235.0378,-384.8989 1227.5288,-392.3733 1238.0599,-391.2129 1235.0378,-384.8989"/>
</g>
<!-- Node23 -->
<g id="node3" class="node">
<title>Node23</title>
<g id="a_node3"><a xlink:href="icns__bcop_8_h.html" target="_top" xlink:title="icns_bcop.H">
<polygon fill="#ffffff" stroke="#000000" points="1179.9158,-56.5 1179.9158,-75.5 1250.9158,-75.5 1250.9158,-56.5 1179.9158,-56.5"/>
<text text-anchor="middle" x="1215.4158" y="-63.5" font-family="Helvetica,sans-Serif" font-size="10.00" fill="#000000">icns_bcop.H</text>
</a>
</g>
</g>
<!-- Node22&#45;&gt;Node23 -->
<g id="edge2" class="edge">
<title>Node22&#45;&gt;Node23</title>
<path fill="none" stroke="#191970" d="M1206.5908,-214.2601C1208.7392,-178.1669 1213.2274,-102.7656 1214.8308,-75.8279"/>
<polygon fill="#191970" stroke="#191970" points="1203.0825,-214.2959 1205.9821,-224.4862 1210.0702,-214.7119 1203.0825,-214.2959"/>
</g>
<!-- Node24 -->
<g id="node4" class="node">
<title>Node24</title>
<g id="a_node4"><a xlink:href="icns_8cpp.html" target="_top" xlink:title="icns.cpp">
<polygon fill="#ffffff" stroke="#000000" points="1052.9158,-.5 1052.9158,-19.5 1105.9158,-19.5 1105.9158,-.5 1052.9158,-.5"/>
<text text-anchor="middle" x="1079.4158" y="-7.5" font-family="Helvetica,sans-Serif" font-size="10.00" fill="#000000">icns.cpp</text>
</a>
</g>
</g>
<!-- Node23&#45;&gt;Node24 -->
<g id="edge3" class="edge">
<title>Node23&#45;&gt;Node24</title>
<path fill="none" stroke="#191970" d="M1182.6759,-52.5189C1157.9075,-42.3201 1124.5108,-28.5685 1102.4899,-19.5011"/>
<polygon fill="#191970" stroke="#191970" points="1181.4571,-55.8021 1192.0365,-56.3733 1184.1224,-49.3293 1181.4571,-55.8021"/>
</g>
<!-- Node27 -->
<g id="node7" class="node">
<title>Node27</title>
<g id="a_node7"><a xlink:href="_p_d_e_ops_8_h.html" target="_top" xlink:title="PDEOps.H">
<polygon fill="#ffffff" stroke="#000000" points="771.4158,-280.5 771.4158,-299.5 837.4158,-299.5 837.4158,-280.5 771.4158,-280.5"/>
<text text-anchor="middle" x="804.4158" y="-287.5" font-family="Helvetica,sans-Serif" font-size="10.00" fill="#000000">PDEOps.H</text>
</a>
</g>
</g>
<!-- Node26&#45;&gt;Node27 -->
<g id="edge6" class="edge">
<title>Node26&#45;&gt;Node27</title>
<path fill="none" stroke="#191970" d="M773.7103,-328.2112C781.3154,-318.7472 790.3696,-307.4797 796.6672,-299.6427"/>
<polygon fill="#191970" stroke="#191970" points="770.7898,-326.2581 767.2542,-336.2455 776.2464,-330.6428 770.7898,-326.2581"/>
</g>
<!-- Node30 -->
<g id="node10" class="node">
<title>Node30</title>
<g id="a_node10"><a xlink:href="icns__ops_8_h.html" target="_top" xlink:title="icns_ops.H">
<polygon fill="#ffffff" stroke="#000000" points="951.4158,-56.5 951.4158,-75.5 1017.4158,-75.5 1017.4158,-56.5 951.4158,-56.5"/>
<text text-anchor="middle" x="984.4158" y="-63.5" font-family="Helvetica,sans-Serif" font-size="10.00" fill="#000000">icns_ops.H</text>
</a>
</g>
</g>
<!-- Node26&#45;&gt;Node30 -->
<g id="edge69" class="edge">
<title>Node26&#45;&gt;Node30</title>
<path fill="none" stroke="#191970" d="M804.7706,-333.0385C824.2406,-325.7496 846.1924,-315.029 862.4158,-300 935.3486,-232.4366 972.2971,-111.2803 981.8621,-75.9336"/>
<polygon fill="#191970" stroke="#191970" points="803.4128,-329.8063 795.1543,-336.4432 805.7491,-336.4049 803.4128,-329.8063"/>
</g>
<!-- Node41 -->
<g id="node21" class="node">
<title>Node41</title>
<g id="a_node21"><a xlink:href="density_8_h.html" target="_top" xlink:title="density.H">
<polygon fill="#ffffff" stroke="#000000" points="113.9158,-112.5 113.9158,-131.5 172.9158,-131.5 172.9158,-112.5 113.9158,-112.5"/>
<text text-anchor="middle" x="143.4158" y="-119.5" font-family="Helvetica,sans-Serif" font-size="10.00" fill="#000000">density.H</text>
</a>
</g>
</g>
<!-- Node26&#45;&gt;Node41 -->
<g id="edge66" class="edge">
<title>Node26&#45;&gt;Node41</title>
<path fill="none" stroke="#191970" d="M708.0402,-344.1878C645.7314,-340.6729 538.2627,-330.3444 451.4158,-300 327.2298,-256.6093 196.476,-162.1983 156.0547,-131.7063"/>
<polygon fill="#191970" stroke="#191970" points="708.218,-347.7019 718.388,-344.7319 708.5856,-340.7115 708.218,-347.7019"/>
</g>
<!-- Node43 -->
<g id="node23" class="node">
<title>Node43</title>
<g id="a_node23"><a xlink:href="icns_8_h.html" target="_top" xlink:title="icns.H">
<polygon fill="#ffffff" stroke="#000000" points="1110.9158,-112.5 1110.9158,-131.5 1155.9158,-131.5 1155.9158,-112.5 1110.9158,-112.5"/>
<text text-anchor="middle" x="1133.4158" y="-119.5" font-family="Helvetica,sans-Serif" font-size="10.00" fill="#000000">icns.H</text>
</a>
</g>
</g>
<!-- Node26&#45;&gt;Node43 -->
<g id="edge68" class="edge">
<title>Node26&#45;&gt;Node43</title>
<path fill="none" stroke="#191970" d="M810.6676,-342.2436C899.803,-335.2419 1075.8839,-319.1564 1096.4158,-300 1145.3418,-254.3517 1138.6084,-162.2376 1134.8484,-131.9219"/>
<polygon fill="#191970" stroke="#191970" points="810.2031,-338.7691 800.5039,-343.0322 810.7447,-345.7481 810.2031,-338.7691"/>
</g>
<!-- Node44 -->
<g id="node24" class="node">
<title>Node44</title>
<g id="a_node24"><a xlink:href="icns__diffusion_8_h.html" target="_top" xlink:title="icns_diffusion.H">
<polygon fill="#ffffff" stroke="#000000" points="1035.9158,-56.5 1035.9158,-75.5 1122.9158,-75.5 1122.9158,-56.5 1035.9158,-56.5"/>
<text text-anchor="middle" x="1079.4158" y="-63.5" font-family="Helvetica,sans-Serif" font-size="10.00" fill="#000000">icns_diffusion.H</text>
</a>
</g>
</g>
<!-- Node26&#45;&gt;Node44 -->
<g id="edge70" class="edge">
<title>Node26&#45;&gt;Node44</title>
<path fill="none" stroke="#191970" d="M810.7753,-339.0488C901.9101,-325.2638 1082.4158,-290.7922 1082.4158,-234 1082.4158,-234 1082.4158,-234 1082.4158,-178 1082.4158,-140.0697 1080.6751,-94.9397 1079.8456,-75.5861"/>
<polygon fill="#191970" stroke="#191970" points="810.0302,-335.621 800.652,-340.5506 811.0574,-342.5452 810.0302,-335.621"/>
</g>
<!-- Node46 -->
<g id="node26" class="node">
<title>Node46</title>
<g id="a_node26"><a xlink:href="levelset_8_h.html" target="_top" xlink:title="levelset.H">
<polygon fill="#ffffff" stroke="#000000" points="341.9158,-112.5 341.9158,-131.5 402.9158,-131.5 402.9158,-112.5 341.9158,-112.5"/>
<text text-anchor="middle" x="372.4158" y="-119.5" font-family="Helvetica,sans-Serif" font-size="10.00" fill="#000000">levelset.H</text>
</a>
</g>
</g>
<!-- Node26&#45;&gt;Node46 -->
<g id="edge71" class="edge">
<title>Node26&#45;&gt;Node46</title>
<path fill="none" stroke="#191970" d="M707.9314,-342.3107C659.7678,-337.3631 586.7081,-325.9593 528.4158,-300 490.4136,-283.0765 482.0077,-274.2171 453.4158,-244 418.468,-207.0658 388.6877,-153.3784 377.3311,-131.6575"/>
<polygon fill="#191970" stroke="#191970" points="707.8244,-345.8166 718.1157,-343.2987 708.5004,-338.8493 707.8244,-345.8166"/>
</g>
<!-- Node48 -->
<g id="node28" class="node">
<title>Node48</title>
<g id="a_node28"><a xlink:href="_s_d_r_8_h.html" target="_top" xlink:title="SDR.H">
<polygon fill="#ffffff" stroke="#000000" points="420.9158,-112.5 420.9158,-131.5 469.9158,-131.5 469.9158,-112.5 420.9158,-112.5"/>
<text text-anchor="middle" x="445.4158" y="-119.5" font-family="Helvetica,sans-Serif" font-size="10.00" fill="#000000">SDR.H</text>
</a>
</g>
</g>
<!-- Node26&#45;&gt;Node48 -->
<g id="edge73" class="edge">
<title>Node26&#45;&gt;Node48</title>
<path fill="none" stroke="#191970" d="M708.0399,-334.4069C633.5836,-316.5727 501.1057,-280.6153 469.4158,-244 440.88,-211.0291 442.4344,-154.1308 444.3598,-131.5939"/>
<polygon fill="#191970" stroke="#191970" points="707.6068,-337.9012 718.1444,-336.8013 709.2209,-331.0898 707.6068,-337.9012"/>
</g>
<!-- Node49 -->
<g id="node29" class="node">
<title>Node49</title>
<g id="a_node29"><a xlink:href="temperature_8_h.html" target="_top" xlink:title="temperature.H">
<polygon fill="#ffffff" stroke="#000000" points="665.9158,-112.5 665.9158,-131.5 744.9158,-131.5 744.9158,-112.5 665.9158,-112.5"/>
<text text-anchor="middle" x="705.4158" y="-119.5" font-family="Helvetica,sans-Serif" font-size="10.00" fill="#000000">temperature.H</text>
</a>
</g>
</g>
<!-- Node26&#45;&gt;Node49 -->
<g id="edge74" class="edge">
<title>Node26&#45;&gt;Node49</title>
<path fill="none" stroke="#191970" d="M805.9097,-332.4362C821.5735,-325.4015 837.3622,-315.0282 846.4158,-300 851.0027,-292.3861 848.8387,-288.5523 846.4158,-280 830.479,-223.748 818.4177,-209.6787 777.4158,-168 762.2281,-152.5616 740.9454,-139.7708 725.4597,-131.6292"/>
<polygon fill="#191970" stroke="#191970" points="804.163,-329.3692 796.2342,-336.3966 806.8148,-335.8475 804.163,-329.3692"/>
</g>
<!-- Node50 -->
<g id="node30" class="node">
<title>Node50</title>
<g id="a_node30"><a xlink:href="_t_k_e_8_h.html" target="_top" xlink:title="TKE.H">
<polygon fill="#ffffff" stroke="#000000" points="276.9158,-112.5 276.9158,-131.5 323.9158,-131.5 323.9158,-112.5 276.9158,-112.5"/>
<text text-anchor="middle" x="300.4158" y="-119.5" font-family="Helvetica,sans-Serif" font-size="10.00" fill="#000000">TKE.H</text>
</a>
</g>
</g>
<!-- Node26&#45;&gt;Node50 -->
<g id="edge75" class="edge">
<title>Node26&#45;&gt;Node50</title>
<path fill="none" stroke="#191970" d="M708.3505,-340.9123C640.8701,-333.5812 526.1325,-318.8331 488.4158,-300 402.762,-257.2305 329.4936,-162.407 307.2966,-131.7589"/>
<polygon fill="#191970" stroke="#191970" points="708.0368,-344.3986 718.3523,-341.9823 708.7814,-337.4383 708.0368,-344.3986"/>
</g>
<!-- Node52 -->
<g id="node32" class="node">
<title>Node52</title>
<g id="a_node32"><a xlink:href="_diffusion_ops_8_h.html" target="_top" xlink:title="DiffusionOps.H">
<polygon fill="#ffffff" stroke="#000000" points="628.4158,-224.5 628.4158,-243.5 712.4158,-243.5 712.4158,-224.5 628.4158,-224.5"/>
<text text-anchor="middle" x="670.4158" y="-231.5" font-family="Helvetica,sans-Serif" font-size="10.00" fill="#000000">DiffusionOps.H</text>
</a>
</g>
</g>
<!-- Node26&#45;&gt;Node52 -->
<g id="edge67" class="edge">
<title>Node26&#45;&gt;Node52</title>
<path fill="none" stroke="#191970" d="M708.8879,-333.4718C691.7561,-326.5494 674.4345,-315.9826 664.4158,-300 653.5383,-282.6475 660.6881,-257.5175 666.0548,-243.8148"/>
<polygon fill="#191970" stroke="#191970" points="707.7449,-336.7806 718.3384,-336.9538 710.1651,-330.2123 707.7449,-336.7806"/>
</g>
<!-- Node54 -->
<g id="node34" class="node">
<title>Node54</title>
<g id="a_node34"><a xlink:href="_p_d_e_base_8cpp.html" target="_top" xlink:title="PDEBase.cpp">
<polygon fill="#ffffff" stroke="#000000" points="673.9158,-280.5 673.9158,-299.5 752.9158,-299.5 752.9158,-280.5 673.9158,-280.5"/>
<text text-anchor="middle" x="713.4158" y="-287.5" font-family="Helvetica,sans-Serif" font-size="10.00" fill="#000000">PDEBase.cpp</text>
</a>
</g>
</g>
<!-- Node26&#45;&gt;Node54 -->
<g id="edge72" class="edge">
<title>Node26&#45;&gt;Node54</title>
<path fill="none" stroke="#191970" d="M745.0411,-328.5004C737.2187,-318.9775 727.8398,-307.5596 721.3365,-299.6427"/>
<polygon fill="#191970" stroke="#191970" points="742.3512,-330.7399 751.4032,-336.2455 747.7603,-326.2967 742.3512,-330.7399"/>
</g>
<!-- Node28 -->
<g id="node8" class="node">
<title>Node28</title>
<g id="a_node8"><a xlink:href="_adv_op___godunov_8_h.html" target="_top" xlink:title="AdvOp_Godunov.H">
<polygon fill="#ffffff" stroke="#000000" points="762.9158,-112.5 762.9158,-131.5 863.9158,-131.5 863.9158,-112.5 762.9158,-112.5"/>
<text text-anchor="middle" x="813.4158" y="-119.5" font-family="Helvetica,sans-Serif" font-size="10.00" fill="#000000">AdvOp_Godunov.H</text>
</a>
</g>
</g>
<!-- Node27&#45;&gt;Node28 -->
<g id="edge7" class="edge">
<title>Node27&#45;&gt;Node28</title>
<path fill="none" stroke="#191970" d="M805.4733,-270.2601C807.4068,-234.1669 811.4462,-158.7656 812.8893,-131.8279"/>
<polygon fill="#191970" stroke="#191970" points="801.9655,-270.3133 804.9254,-280.4862 808.9555,-270.6878 801.9655,-270.3133"/>
</g>
<!-- Node27&#45;&gt;Node30 -->
<g id="edge64" class="edge">
<title>Node27&#45;&gt;Node30</title>
<path fill="none" stroke="#191970" d="M818.5424,-272.4202C854.585,-227.5672 949.062,-109.9958 976.7102,-75.5891"/>
<polygon fill="#191970" stroke="#191970" points="815.6858,-270.3875 812.1502,-280.375 821.1424,-274.7723 815.6858,-270.3875"/>
</g>
<!-- Node37 -->
<g id="node17" class="node">
<title>Node37</title>
<g id="a_node17"><a xlink:href="_adv_op___m_o_l_8_h.html" target="_top" xlink:title="AdvOp_MOL.H">
<polygon fill="#ffffff" stroke="#000000" points="564.9158,-112.5 564.9158,-131.5 647.9158,-131.5 647.9158,-112.5 564.9158,-112.5"/>
<text text-anchor="middle" x="606.4158" y="-119.5" font-family="Helvetica,sans-Serif" font-size="10.00" fill="#000000">AdvOp_MOL.H</text>
</a>
</g>
</g>
<!-- Node27&#45;&gt;Node37 -->
<g id="edge18" class="edge">
<title>Node27&#45;&gt;Node37</title>
<path fill="none" stroke="#191970" d="M801.5848,-270.0206C796.7219,-243.0767 784.2498,-195.3283 754.4158,-168 738.7414,-153.642 686.0389,-139.4849 647.9855,-130.7498"/>
<polygon fill="#191970" stroke="#191970" points="798.1756,-270.8634 803.2314,-280.1741 805.0853,-269.7427 798.1756,-270.8634"/>
</g>
<!-- Node38 -->
<g id="node18" class="node">
<title>Node38</title>
<g id="a_node18"><a xlink:href="_b_c_ops_8_h.html" target="_top" xlink:title="BCOps.H">
<polygon fill="#ffffff" stroke="#000000" points="487.9158,-112.5 487.9158,-131.5 546.9158,-131.5 546.9158,-112.5 487.9158,-112.5"/>
<text text-anchor="middle" x="517.4158" y="-119.5" font-family="Helvetica,sans-Serif" font-size="10.00" fill="#000000">BCOps.H</text>
</a>
</g>
</g>
<!-- Node27&#45;&gt;Node38 -->
<g id="edge26" class="edge">
<title>Node27&#45;&gt;Node38</title>
<path fill="none" stroke="#191970" d="M796.9216,-270.9471C785.1478,-243.6286 759.6431,-193.7883 721.4158,-168 658.8322,-125.7808 628.8258,-149.6104 555.4158,-132 552.7623,-131.3635 550.0103,-130.6817 547.2554,-129.9844"/>
<polygon fill="#191970" stroke="#191970" points="793.7005,-272.3168 800.7597,-280.2174 800.1681,-269.6391 793.7005,-272.3168"/>
</g>
<!-- Node39 -->
<g id="node19" class="node">
<title>Node39</title>
<g id="a_node19"><a xlink:href="_comp_r_h_s_ops_8_h.html" target="_top" xlink:title="CompRHSOps.H">
<polygon fill="#ffffff" stroke="#000000" points="478.9158,-224.5 478.9158,-243.5 571.9158,-243.5 571.9158,-224.5 478.9158,-224.5"/>
<text text-anchor="middle" x="525.4158" y="-231.5" font-family="Helvetica,sans-Serif" font-size="10.00" fill="#000000">CompRHSOps.H</text>
</a>
</g>
</g>
<!-- Node27&#45;&gt;Node39 -->
<g id="edge33" class="edge">
<title>Node27&#45;&gt;Node39</title>
<path fill="none" stroke="#191970" d="M760.9689,-279.9658C689.1144,-264.7071 617.6259,-251.0748 572.0865,-242.584"/>
<polygon fill="#191970" stroke="#191970" points="760.5974,-283.4652 771.1077,-282.1292 762.0583,-276.6193 760.5974,-283.4652"/>
</g>
<!-- Node40 -->
<g id="node20" class="node">
<title>Node40</title>
<g id="a_node20"><a xlink:href="_p_d_e_8_h.html" target="_top" xlink:title="PDE.H">
<polygon fill="#ffffff" stroke="#000000" points="501.4158,-168.5 501.4158,-187.5 549.4158,-187.5 549.4158,-168.5 501.4158,-168.5"/>
<text text-anchor="middle" x="525.4158" y="-175.5" font-family="Helvetica,sans-Serif" font-size="10.00" fill="#000000">PDE.H</text>
</a>
</g>
</g>
<!-- Node27&#45;&gt;Node40 -->
<g id="edge58" class="edge">
<title>Node27&#45;&gt;Node40</title>
<path fill="none" stroke="#191970" d="M761.4658,-279.7404C708.8847,-267.1179 625.9575,-246.9838 619.4158,-244 586.3968,-228.9395 552.8161,-201.9346 536.1612,-187.5808"/>
<polygon fill="#191970" stroke="#191970" points="760.685,-283.1523 771.2255,-282.0807 762.3174,-276.3452 760.685,-283.1523"/>
</g>
<!-- Node27&#45;&gt;Node44 -->
<g id="edge65" class="edge">
<title>Node27&#45;&gt;Node44</title>
<path fill="none" stroke="#191970" d="M825.5816,-274.0784C837.1389,-265.3083 851.6547,-254.1684 864.4158,-244 943.2444,-181.187 1035.9101,-102.9373 1067.8884,-75.8019"/>
<polygon fill="#191970" stroke="#191970" points="823.2628,-271.4439 817.3985,-280.2677 827.4854,-277.0268 823.2628,-271.4439"/>
</g>
<!-- Node27&#45;&gt;Node52 -->
<g id="edge59" class="edge">
<title>Node27&#45;&gt;Node52</title>
<path fill="none" stroke="#191970" d="M771.8329,-276.3833C747.4622,-266.1985 714.7516,-252.5284 693.1506,-243.5011"/>
<polygon fill="#191970" stroke="#191970" points="770.8041,-279.7466 781.3804,-280.3733 773.5033,-273.2879 770.8041,-279.7466"/>
</g>
<!-- Node29 -->
<g id="node9" class="node">
<title>Node29</title>
<g id="a_node9"><a xlink:href="density_8cpp.html" target="_top" xlink:title="density.cpp">
<polygon fill="#ffffff" stroke="#000000" points="310.9158,-.5 310.9158,-19.5 377.9158,-19.5 377.9158,-.5 310.9158,-.5"/>
<text text-anchor="middle" x="344.4158" y="-7.5" font-family="Helvetica,sans-Serif" font-size="10.00" fill="#000000">density.cpp</text>
</a>
</g>
</g>
<!-- Node28&#45;&gt;Node29 -->
<g id="edge8" class="edge">
<title>Node28&#45;&gt;Node29</title>
<path fill="none" stroke="#191970" d="M802.7675,-103.5227C792.7106,-87.9639 776.1015,-66.5999 755.4158,-56 682.0926,-18.4273 467.6794,-33.5731 386.4158,-20 383.7543,-19.5555 381.0107,-19.0382 378.2609,-18.4774"/>
<polygon fill="#191970" stroke="#191970" points="799.9473,-105.619 808.1604,-112.312 805.9137,-101.9581 799.9473,-105.619"/>
</g>
<!-- Node28&#45;&gt;Node30 -->
<g id="edge9" class="edge">
<title>Node28&#45;&gt;Node30</title>
<path fill="none" stroke="#191970" d="M852.5306,-109.1905C883.859,-98.9309 927.1029,-84.7691 955.4034,-75.5011"/>
<polygon fill="#191970" stroke="#191970" points="851.2258,-105.9348 842.8117,-112.3733 853.4044,-112.5872 851.2258,-105.9348"/>
</g>
<!-- Node31 -->
<g id="node11" class="node">
<title>Node31</title>
<g id="a_node11"><a xlink:href="icns__advection_8_h.html" target="_top" xlink:title="icns_advection.H">
<polygon fill="#ffffff" stroke="#000000" points="841.4158,-56.5 841.4158,-75.5 933.4158,-75.5 933.4158,-56.5 841.4158,-56.5"/>
<text text-anchor="middle" x="887.4158" y="-63.5" font-family="Helvetica,sans-Serif" font-size="10.00" fill="#000000">icns_advection.H</text>
</a>
</g>
</g>
<!-- Node28&#45;&gt;Node31 -->
<g id="edge11" class="edge">
<title>Node28&#45;&gt;Node31</title>
<path fill="none" stroke="#191970" d="M834.2815,-106.2097C847.2783,-96.3743 863.5779,-84.0394 874.6737,-75.6427"/>
<polygon fill="#191970" stroke="#191970" points="832.1676,-103.4201 826.3056,-112.2455 836.3917,-109.002 832.1676,-103.4201"/>
</g>
<!-- Node33 -->
<g id="node13" class="node">
<title>Node33</title>
<g id="a_node13"><a xlink:href="levelset_8cpp.html" target="_top" xlink:title="levelset.cpp">
<polygon fill="#ffffff" stroke="#000000" points="395.9158,-.5 395.9158,-19.5 464.9158,-19.5 464.9158,-.5 395.9158,-.5"/>
<text text-anchor="middle" x="430.4158" y="-7.5" font-family="Helvetica,sans-Serif" font-size="10.00" fill="#000000">levelset.cpp</text>
</a>
</g>
</g>
<!-- Node28&#45;&gt;Node33 -->
<g id="edge14" class="edge">
<title>Node28&#45;&gt;Node33</title>
<path fill="none" stroke="#191970" d="M811.5802,-101.7741C809.0895,-86.7594 803.2238,-67.0462 789.4158,-56 764.3303,-35.932 550.2354,-18.5719 465.1109,-12.3994"/>
<polygon fill="#191970" stroke="#191970" points="808.1627,-102.6433 812.9026,-112.1187 815.1062,-101.7556 808.1627,-102.6433"/>
</g>
<!-- Node34 -->
<g id="node14" class="node">
<title>Node34</title>
<g id="a_node14"><a xlink:href="_s_d_r_8cpp.html" target="_top" xlink:title="SDR.cpp">
<polygon fill="#ffffff" stroke="#000000" points="507.9158,-56.5 507.9158,-75.5 564.9158,-75.5 564.9158,-56.5 507.9158,-56.5"/>
<text text-anchor="middle" x="536.4158" y="-63.5" font-family="Helvetica,sans-Serif" font-size="10.00" fill="#000000">SDR.cpp</text>
</a>
</g>
</g>
<!-- Node28&#45;&gt;Node34 -->
<g id="edge15" class="edge">
<title>Node28&#45;&gt;Node34</title>
<path fill="none" stroke="#191970" d="M755.9694,-110.3863C697.8042,-98.6273 610.2113,-80.919 565.2681,-71.833"/>
<polygon fill="#191970" stroke="#191970" points="755.6172,-113.8858 766.1125,-112.4369 757.0044,-107.0246 755.6172,-113.8858"/>
</g>
<!-- Node35 -->
<g id="node15" class="node">
<title>Node35</title>
<g id="a_node15"><a xlink:href="temperature_8cpp.html" target="_top" xlink:title="temperature.cpp">
<polygon fill="#ffffff" stroke="#000000" points="659.9158,-56.5 659.9158,-75.5 746.9158,-75.5 746.9158,-56.5 659.9158,-56.5"/>
<text text-anchor="middle" x="703.4158" y="-63.5" font-family="Helvetica,sans-Serif" font-size="10.00" fill="#000000">temperature.cpp</text>
</a>
</g>
</g>
<!-- Node28&#45;&gt;Node35 -->
<g id="edge16" class="edge">
<title>Node28&#45;&gt;Node35</title>
<path fill="none" stroke="#191970" d="M785.1243,-107.5971C765.4047,-97.558 739.6358,-84.4393 722.3567,-75.6427"/>
<polygon fill="#191970" stroke="#191970" points="783.7557,-110.8277 794.2552,-112.2455 786.9315,-104.5896 783.7557,-110.8277"/>
</g>
<!-- Node36 -->
<g id="node16" class="node">
<title>Node36</title>
<g id="a_node16"><a xlink:href="_t_k_e_8cpp.html" target="_top" xlink:title="TKE.cpp">
<polygon fill="#ffffff" stroke="#000000" points="434.9158,-56.5 434.9158,-75.5 489.9158,-75.5 489.9158,-56.5 434.9158,-56.5"/>
<text text-anchor="middle" x="462.4158" y="-63.5" font-family="Helvetica,sans-Serif" font-size="10.00" fill="#000000">TKE.cpp</text>
</a>
</g>
</g>
<!-- Node28&#45;&gt;Node36 -->
<g id="edge17" class="edge">
<title>Node28&#45;&gt;Node36</title>
<path fill="none" stroke="#191970" d="M752.5105,-111.9077C638.535,-94.8383 607.2892,-98.705 498.4158,-76 495.7488,-75.4438 492.9879,-74.801 490.2357,-74.1148"/>
<polygon fill="#191970" stroke="#191970" points="752.2787,-115.4125 762.691,-113.4547 753.3304,-108.492 752.2787,-115.4125"/>
</g>
<!-- Node30&#45;&gt;Node24 -->
<g id="edge10" class="edge">
<title>Node30&#45;&gt;Node24</title>
<path fill="none" stroke="#191970" d="M1009.7833,-51.0465C1026.6867,-41.0824 1048.4062,-28.2794 1063.0577,-19.6427"/>
<polygon fill="#191970" stroke="#191970" points="1007.8008,-48.1522 1000.9635,-56.2455 1011.3556,-54.1825 1007.8008,-48.1522"/>
</g>
<!-- Node31&#45;&gt;Node24 -->
<g id="edge12" class="edge">
<title>Node31&#45;&gt;Node24</title>
<path fill="none" stroke="#191970" d="M930.0651,-53.5606C967.5577,-42.6253 1020.9586,-27.05 1052.7103,-17.7891"/>
<polygon fill="#191970" stroke="#191970" points="929.0417,-50.2132 920.4218,-56.3733 931.0018,-56.9332 929.0417,-50.2132"/>
</g>
<!-- Node32 -->
<g id="node12" class="node">
<title>Node32</title>
<g id="a_node12"><a xlink:href="icns__advection_8cpp.html" target="_top" xlink:title="icns_advection.cpp">
<polygon fill="#ffffff" stroke="#000000" points="836.9158,-.5 836.9158,-19.5 937.9158,-19.5 937.9158,-.5 836.9158,-.5"/>
<text text-anchor="middle" x="887.4158" y="-7.5" font-family="Helvetica,sans-Serif" font-size="10.00" fill="#000000">icns_advection.cpp</text>
</a>
</g>
</g>
<!-- Node31&#45;&gt;Node32 -->
<g id="edge13" class="edge">
<title>Node31&#45;&gt;Node32</title>
<path fill="none" stroke="#191970" d="M887.4158,-46.1575C887.4158,-37.155 887.4158,-26.9199 887.4158,-19.6427"/>
<polygon fill="#191970" stroke="#191970" points="883.9159,-46.2455 887.4158,-56.2455 890.9159,-46.2456 883.9159,-46.2455"/>
</g>
<!-- Node37&#45;&gt;Node29 -->
<g id="edge19" class="edge">
<title>Node37&#45;&gt;Node29</title>
<path fill="none" stroke="#191970" d="M601.6724,-102.3132C597.0116,-87.3008 588.3669,-67.3345 573.4158,-56 505.9693,-4.8685 469.1588,-37.8061 386.4158,-20 383.7778,-19.4323 381.0512,-18.8265 378.313,-18.2046"/>
<polygon fill="#191970" stroke="#191970" points="598.3599,-103.467 604.3952,-112.1748 605.1074,-101.6039 598.3599,-103.467"/>
</g>
<!-- Node37&#45;&gt;Node30 -->
<g id="edge20" class="edge">
<title>Node37&#45;&gt;Node30</title>
<path fill="none" stroke="#191970" d="M658.1882,-111.8059C784.6273,-91.7826 819.5602,-98.2899 942.4158,-76 945.2183,-75.4915 948.1143,-74.9137 951.0141,-74.2982"/>
<polygon fill="#191970" stroke="#191970" points="657.434,-108.3821 648.1167,-113.4258 658.5457,-115.2933 657.434,-108.3821"/>
</g>
<!-- Node37&#45;&gt;Node31 -->
<g id="edge21" class="edge">
<title>Node37&#45;&gt;Node31</title>
<path fill="none" stroke="#191970" d="M658.3499,-111.615C727.4722,-97.8231 796.9566,-83.9931 841.394,-75.1528"/>
<polygon fill="#191970" stroke="#191970" points="657.2788,-108.2597 648.1571,-113.649 658.6488,-115.1243 657.2788,-108.2597"/>
</g>
<!-- Node37&#45;&gt;Node33 -->
<g id="edge22" class="edge">
<title>Node37&#45;&gt;Node33</title>
<path fill="none" stroke="#191970" d="M612.658,-102.4827C615.9446,-88.1547 617.4713,-69.0029 607.4158,-56 590.1779,-33.7096 511.7519,-20.2154 465.2755,-14.0355"/>
<polygon fill="#191970" stroke="#191970" points="609.2304,-101.7481 609.9643,-112.3175 615.9817,-103.5973 609.2304,-101.7481"/>
</g>
<!-- Node37&#45;&gt;Node34 -->
<g id="edge23" class="edge">
<title>Node37&#45;&gt;Node34</title>
<path fill="none" stroke="#191970" d="M586.3258,-105.928C574.0904,-96.1397 558.8651,-83.9595 548.4691,-75.6427"/>
<polygon fill="#191970" stroke="#191970" points="584.2276,-108.7316 594.2227,-112.2455 588.6004,-103.2655 584.2276,-108.7316"/>
</g>
<!-- Node37&#45;&gt;Node35 -->
<g id="edge24" class="edge">
<title>Node37&#45;&gt;Node35</title>
<path fill="none" stroke="#191970" d="M632.3174,-107.0465C649.5767,-97.0824 671.7533,-84.2794 686.7133,-75.6427"/>
<polygon fill="#191970" stroke="#191970" points="630.2223,-104.2146 623.3119,-112.2455 633.7222,-110.2768 630.2223,-104.2146"/>
</g>
<!-- Node37&#45;&gt;Node36 -->
<g id="edge25" class="edge">
<title>Node37&#45;&gt;Node36</title>
<path fill="none" stroke="#191970" d="M572.0976,-108.6541C545.8378,-98.4419 510.2666,-84.6086 486.8472,-75.5011"/>
<polygon fill="#191970" stroke="#191970" points="571.0727,-112.0108 581.6613,-112.3733 573.6098,-105.4867 571.0727,-112.0108"/>
</g>
<!-- Node38&#45;&gt;Node23 -->
<g id="edge28" class="edge">
<title>Node38&#45;&gt;Node23</title>
<path fill="none" stroke="#191970" d="M557.4101,-111.9427C810.4521,-71.897 879.3327,-98.8644 1131.4158,-76 1147.3584,-74.554 1164.9532,-72.5264 1179.9031,-70.6747"/>
<polygon fill="#191970" stroke="#191970" points="556.4891,-108.5456 547.1689,-113.5839 557.5968,-115.4574 556.4891,-108.5456"/>
</g>
<!-- Node38&#45;&gt;Node29 -->
<g id="edge27" class="edge">
<title>Node38&#45;&gt;Node29</title>
<path fill="none" stroke="#191970" d="M481.1415,-108.7244C461.2351,-100.6561 436.5753,-89.3425 416.4158,-76 390.9628,-59.154 365.7074,-33.3683 352.9553,-19.5427"/>
<polygon fill="#191970" stroke="#191970" points="479.9048,-111.9991 490.4913,-112.4193 482.4775,-105.4889 479.9048,-111.9991"/>
</g>
<!-- Node38&#45;&gt;Node33 -->
<g id="edge29" class="edge">
<title>Node38&#45;&gt;Node33</title>
<path fill="none" stroke="#191970" d="M481.4814,-108.5984C458.5507,-99.2344 431.9465,-86.5669 425.4158,-76 414.6623,-58.6006 421.2802,-33.4889 426.3112,-19.8017"/>
<polygon fill="#191970" stroke="#191970" points="480.4292,-111.9467 491.0147,-112.3935 483.0183,-105.443 480.4292,-111.9467"/>
</g>
<!-- Node38&#45;&gt;Node34 -->
<g id="edge30" class="edge">
<title>Node38&#45;&gt;Node34</title>
<path fill="none" stroke="#191970" d="M523.9473,-102.7493C527.0493,-93.6064 530.6208,-83.0798 533.1442,-75.6427"/>
<polygon fill="#191970" stroke="#191970" points="520.6239,-101.6512 520.7253,-112.2455 527.2528,-103.9003 520.6239,-101.6512"/>
</g>
<!-- Node38&#45;&gt;Node35 -->
<g id="edge31" class="edge">
<title>Node38&#45;&gt;Node35</title>
<path fill="none" stroke="#191970" d="M556.9775,-110.0889C591.2027,-99.7846 640.0428,-85.08 671.7383,-75.5373"/>
<polygon fill="#191970" stroke="#191970" points="555.8663,-106.7682 547.2999,-113.0026 557.8844,-113.471 555.8663,-106.7682"/>
</g>
<!-- Node38&#45;&gt;Node36 -->
<g id="edge32" class="edge">
<title>Node38&#45;&gt;Node36</title>
<path fill="none" stroke="#191970" d="M500.7932,-105.0751C491.3303,-95.4402 479.8189,-83.7196 471.8863,-75.6427"/>
<polygon fill="#191970" stroke="#191970" points="498.3313,-107.5635 507.8355,-112.2455 503.3255,-102.6585 498.3313,-107.5635"/>
</g>
<!-- Node39&#45;&gt;Node40 -->
<g id="edge34" class="edge">
<title>Node39&#45;&gt;Node40</title>
<path fill="none" stroke="#191970" d="M525.4158,-214.1575C525.4158,-205.155 525.4158,-194.9199 525.4158,-187.6427"/>
<polygon fill="#191970" stroke="#191970" points="521.9159,-214.2455 525.4158,-224.2455 528.9159,-214.2456 521.9159,-214.2455"/>
</g>
<!-- Node40&#45;&gt;Node41 -->
<g id="edge35" class="edge">
<title>Node40&#45;&gt;Node41</title>
<path fill="none" stroke="#191970" d="M491.0363,-172.9601C416.8732,-162.088 242.9388,-136.5898 173.1562,-126.3598"/>
<polygon fill="#191970" stroke="#191970" points="490.8282,-176.4669 501.2302,-174.4545 491.8436,-169.5409 490.8282,-176.4669"/>
</g>
<!-- Node40&#45;&gt;Node43 -->
<g id="edge39" class="edge">
<title>Node40&#45;&gt;Node43</title>
<path fill="none" stroke="#191970" d="M559.8112,-173.7784C575.5334,-171.9059 594.4064,-169.738 611.4158,-168 804.4176,-148.2789 1038.0922,-129.494 1110.7538,-123.77"/>
<polygon fill="#191970" stroke="#191970" points="559.0025,-170.3503 549.4916,-175.0187 559.8378,-177.3003 559.0025,-170.3503"/>
</g>
<!-- Node40&#45;&gt;Node46 -->
<g id="edge47" class="edge">
<title>Node40&#45;&gt;Node46</title>
<path fill="none" stroke="#191970" d="M491.7661,-165.6838C463.7195,-155.4184 424.33,-141.0013 398.5951,-131.582"/>
<polygon fill="#191970" stroke="#191970" points="490.5787,-168.9762 501.1725,-169.1266 492.9847,-162.4027 490.5787,-168.9762"/>
</g>
<!-- Node40&#45;&gt;Node48 -->
<g id="edge51" class="edge">
<title>Node40&#45;&gt;Node48</title>
<path fill="none" stroke="#191970" d="M503.2587,-162.49C489.1438,-152.6096 471.3007,-140.1194 459.191,-131.6427"/>
<polygon fill="#191970" stroke="#191970" points="501.2814,-165.3782 511.4808,-168.2455 505.2956,-159.6436 501.2814,-165.3782"/>
</g>
<!-- Node40&#45;&gt;Node49 -->
<g id="edge53" class="edge">
<title>Node40&#45;&gt;Node49</title>
<path fill="none" stroke="#191970" d="M559.4046,-167.4257C592.5691,-157.1078 642.5765,-141.55 674.6085,-131.5845"/>
<polygon fill="#191970" stroke="#191970" points="558.2002,-164.1349 549.6914,-170.4476 560.2797,-170.8189 558.2002,-164.1349"/>
</g>
<!-- Node40&#45;&gt;Node50 -->
<g id="edge55" class="edge">
<title>Node40&#45;&gt;Node50</title>
<path fill="none" stroke="#191970" d="M490.9998,-170.5492C452.2551,-161.9872 387.5152,-147.1562 332.4158,-132 329.722,-131.259 326.9134,-130.4443 324.1277,-129.6097"/>
<polygon fill="#191970" stroke="#191970" points="490.6907,-174.0647 501.2089,-172.793 492.1933,-167.2279 490.6907,-174.0647"/>
</g>
<!-- Node41&#45;&gt;Node29 -->
<g id="edge36" class="edge">
<title>Node41&#45;&gt;Node29</title>
<path fill="none" stroke="#191970" d="M103.674,-116.9979C53.4201,-109.1138 -23.0982,-90.962 7.4158,-56 27.2182,-33.311 229.4588,-17.5721 310.802,-12.1144"/>
<polygon fill="#191970" stroke="#191970" points="103.2363,-120.4712 113.6429,-118.4833 104.268,-113.5477 103.2363,-120.4712"/>
</g>
<!-- Node42 -->
<g id="node22" class="node">
<title>Node42</title>
<g id="a_node22"><a xlink:href="density__ops_8_h.html" target="_top" xlink:title="density_ops.H">
<polygon fill="#ffffff" stroke="#000000" points="16.4158,-56.5 16.4158,-75.5 96.4158,-75.5 96.4158,-56.5 16.4158,-56.5"/>
<text text-anchor="middle" x="56.4158" y="-63.5" font-family="Helvetica,sans-Serif" font-size="10.00" fill="#000000">density_ops.H</text>
</a>
</g>
</g>
<!-- Node41&#45;&gt;Node42 -->
<g id="edge37" class="edge">
<title>Node41&#45;&gt;Node42</title>
<path fill="none" stroke="#191970" d="M119.7533,-106.769C104.3367,-96.8456 84.6898,-84.1994 71.3964,-75.6427"/>
<polygon fill="#191970" stroke="#191970" points="117.9585,-109.7761 128.2615,-112.2455 121.7473,-103.89 117.9585,-109.7761"/>
</g>
<!-- Node42&#45;&gt;Node29 -->
<g id="edge38" class="edge">
<title>Node42&#45;&gt;Node29</title>
<path fill="none" stroke="#191970" d="M106.6323,-55.7742C185.5501,-40.1655 266.3583,-24.7659 310.7495,-16.3569"/>
<polygon fill="#191970" stroke="#191970" points="105.649,-52.4009 96.5198,-57.7775 107.0093,-59.2674 105.649,-52.4009"/>
</g>
<!-- Node43&#45;&gt;Node23 -->
<g id="edge45" class="edge">
<title>Node43&#45;&gt;Node23</title>
<path fill="none" stroke="#191970" d="M1156.1268,-106.49C1170.5946,-96.6096 1188.8838,-84.1194 1201.2962,-75.6427"/>
<polygon fill="#191970" stroke="#191970" points="1153.9832,-103.7156 1147.6991,-112.2455 1157.931,-109.4962 1153.9832,-103.7156"/>
</g>
<!-- Node43&#45;&gt;Node24 -->
<g id="edge40" class="edge">
<title>Node43&#45;&gt;Node24</title>
<path fill="none" stroke="#191970" d="M1136.7812,-102.3025C1138.1884,-88.6617 1138.1831,-70.4339 1131.4158,-56 1123.9966,-40.1758 1108.2995,-27.5199 1096.082,-19.5199"/>
<polygon fill="#191970" stroke="#191970" points="1133.2742,-102.1153 1135.3844,-112.4979 1140.2094,-103.0656 1133.2742,-102.1153"/>
</g>
<!-- Node43&#45;&gt;Node30 -->
<g id="edge41" class="edge">
<title>Node43&#45;&gt;Node30</title>
<path fill="none" stroke="#191970" d="M1101.2534,-109.9121C1073.8484,-99.6123 1035.0022,-85.0123 1009.7575,-75.5244"/>
<polygon fill="#191970" stroke="#191970" points="1100.1938,-113.2529 1110.7859,-113.4948 1102.6565,-106.7004 1100.1938,-113.2529"/>
</g>
<!-- Node43&#45;&gt;Node31 -->
<g id="edge42" class="edge">
<title>Node43&#45;&gt;Node31</title>
<path fill="none" stroke="#191970" d="M1100.787,-114.5723C1056.5889,-104.5109 977.659,-86.5432 929.1811,-75.5076"/>
<polygon fill="#191970" stroke="#191970" points="1100.1862,-118.025 1110.7136,-116.832 1101.74,-111.1996 1100.1862,-118.025"/>
</g>
<!-- Node43&#45;&gt;Node44 -->
<g id="edge43" class="edge">
<title>Node43&#45;&gt;Node44</title>
<path fill="none" stroke="#191970" d="M1116.8188,-104.7884C1107.5811,-95.2085 1096.4254,-83.6396 1088.7141,-75.6427"/>
<polygon fill="#191970" stroke="#191970" points="1114.5488,-107.4766 1124.0097,-112.2455 1119.5878,-102.6176 1114.5488,-107.4766"/>
</g>
<!-- Node45 -->
<g id="node25" class="node">
<title>Node45</title>
<g id="a_node25"><a xlink:href="_power_law_profile_8cpp.html" target="_top" xlink:title="PowerLawProfile.cpp">
<polygon fill="#ffffff" stroke="#000000" points="1268.9158,-56.5 1268.9158,-75.5 1377.9158,-75.5 1377.9158,-56.5 1268.9158,-56.5"/>
<text text-anchor="middle" x="1323.4158" y="-63.5" font-family="Helvetica,sans-Serif" font-size="10.00" fill="#000000">PowerLawProfile.cpp</text>
</a>
</g>
</g>
<!-- Node43&#45;&gt;Node45 -->
<g id="edge46" class="edge">
<title>Node43&#45;&gt;Node45</title>
<path fill="none" stroke="#191970" d="M1165.6702,-112.4934C1200.6253,-102.1909 1256.0823,-85.8457 1291.0722,-75.5328"/>
<polygon fill="#191970" stroke="#191970" points="1164.5599,-109.1717 1155.9574,-115.3562 1166.539,-115.8862 1164.5599,-109.1717"/>
</g>
<!-- Node44&#45;&gt;Node24 -->
<g id="edge44" class="edge">
<title>Node44&#45;&gt;Node24</title>
<path fill="none" stroke="#191970" d="M1079.4158,-46.1575C1079.4158,-37.155 1079.4158,-26.9199 1079.4158,-19.6427"/>
<polygon fill="#191970" stroke="#191970" points="1075.9159,-46.2455 1079.4158,-56.2455 1082.9159,-46.2456 1075.9159,-46.2455"/>
</g>
<!-- Node46&#45;&gt;Node33 -->
<g id="edge48" class="edge">
<title>Node46&#45;&gt;Node33</title>
<path fill="none" stroke="#191970" d="M376.3024,-101.9925C379.4419,-88.4708 384.634,-70.5074 392.4158,-56 399.8583,-42.1249 411.8593,-28.5097 420.3818,-19.7373"/>
<polygon fill="#191970" stroke="#191970" points="372.8026,-101.6221 374.1363,-112.1327 379.6482,-103.0845 372.8026,-101.6221"/>
</g>
<!-- Node47 -->
<g id="node27" class="node">
<title>Node47</title>
<g id="a_node27"><a xlink:href="levelset__ops_8_h.html" target="_top" xlink:title="levelset_ops.H">
<polygon fill="#ffffff" stroke="#000000" points="220.4158,-56.5 220.4158,-75.5 302.4158,-75.5 302.4158,-56.5 220.4158,-56.5"/>
<text text-anchor="middle" x="261.4158" y="-63.5" font-family="Helvetica,sans-Serif" font-size="10.00" fill="#000000">levelset_ops.H</text>
</a>
</g>
</g>
<!-- Node46&#45;&gt;Node47 -->
<g id="edge49" class="edge">
<title>Node46&#45;&gt;Node47</title>
<path fill="none" stroke="#191970" d="M344.3424,-107.8368C324.2773,-97.7139 297.8236,-84.3679 280.2484,-75.5011"/>
<polygon fill="#191970" stroke="#191970" points="342.8295,-110.9938 353.3342,-112.3733 345.9826,-104.7441 342.8295,-110.9938"/>
</g>
<!-- Node47&#45;&gt;Node33 -->
<g id="edge50" class="edge">
<title>Node47&#45;&gt;Node33</title>
<path fill="none" stroke="#191970" d="M300.0731,-53.1905C331.0351,-42.9309 373.7732,-28.7691 401.7428,-19.5011"/>
<polygon fill="#191970" stroke="#191970" points="298.8594,-49.9054 290.4679,-56.3733 301.0613,-56.5501 298.8594,-49.9054"/>
</g>
<!-- Node48&#45;&gt;Node34 -->
<g id="edge52" class="edge">
<title>Node48&#45;&gt;Node34</title>
<path fill="none" stroke="#191970" d="M470.1662,-106.769C486.2916,-96.8456 506.8418,-84.1994 520.7464,-75.6427"/>
<polygon fill="#191970" stroke="#191970" points="467.949,-104.0237 461.2668,-112.2455 471.6177,-109.9853 467.949,-104.0237"/>
</g>
<!-- Node49&#45;&gt;Node35 -->
<g id="edge54" class="edge">
<title>Node49&#45;&gt;Node35</title>
<path fill="none" stroke="#191970" d="M704.7071,-102.1575C704.3856,-93.155 704.0201,-82.9199 703.7602,-75.6427"/>
<polygon fill="#191970" stroke="#191970" points="701.2126,-102.3769 705.0674,-112.2455 708.2082,-102.127 701.2126,-102.3769"/>
</g>
<!-- Node50&#45;&gt;Node36 -->
<g id="edge56" class="edge">
<title>Node50&#45;&gt;Node36</title>
<path fill="none" stroke="#191970" d="M333.531,-110.5528C363.3699,-100.2381 406.7342,-85.248 434.759,-75.5604"/>
<polygon fill="#191970" stroke="#191970" points="332.2797,-107.282 323.972,-113.8571 334.5667,-113.8979 332.2797,-107.282"/>
</g>
<!-- Node51 -->
<g id="node31" class="node">
<title>Node51</title>
<g id="a_node31"><a xlink:href="_one_eq_ksgs_8cpp.html" target="_top" xlink:title="OneEqKsgs.cpp">
<polygon fill="#ffffff" stroke="#000000" points="114.4158,-56.5 114.4158,-75.5 202.4158,-75.5 202.4158,-56.5 114.4158,-56.5"/>
<text text-anchor="middle" x="158.4158" y="-63.5" font-family="Helvetica,sans-Serif" font-size="10.00" fill="#000000">OneEqKsgs.cpp</text>
</a>
</g>
</g>
<!-- Node50&#45;&gt;Node51 -->
<g id="edge57" class="edge">
<title>Node50&#45;&gt;Node51</title>
<path fill="none" stroke="#191970" d="M267.2407,-108.9169C241.3686,-98.7138 206.0328,-84.7785 182.7369,-75.5914"/>
<polygon fill="#191970" stroke="#191970" points="266.0614,-112.2141 276.6482,-112.6269 268.6295,-105.7022 266.0614,-112.2141"/>
</g>
<!-- Node52&#45;&gt;Node30 -->
<g id="edge62" class="edge">
<title>Node52&#45;&gt;Node30</title>
<path fill="none" stroke="#191970" d="M699.7479,-219.9305C739.3315,-200.7759 811.8693,-165.0808 872.4158,-132 907.4724,-112.8461 947.593,-88.6277 969.0166,-75.5043"/>
<polygon fill="#191970" stroke="#191970" points="697.9058,-216.9332 690.4216,-224.4323 700.9488,-223.2372 697.9058,-216.9332"/>
</g>
<!-- Node52&#45;&gt;Node40 -->
<g id="edge60" class="edge">
<title>Node52&#45;&gt;Node40</title>
<path fill="none" stroke="#191970" d="M636.1491,-220.766C609.4991,-210.4735 573.1945,-196.4525 549.5351,-187.315"/>
<polygon fill="#191970" stroke="#191970" points="634.8999,-224.0354 645.4894,-224.3733 637.4219,-217.5055 634.8999,-224.0354"/>
</g>
<!-- Node52&#45;&gt;Node44 -->
<g id="edge63" class="edge">
<title>Node52&#45;&gt;Node44</title>
<path fill="none" stroke="#191970" d="M708.273,-221.1159C733.8798,-212.225 768.3766,-199.9042 798.4158,-188 896.808,-149.0081 1012.0291,-96.9163 1058.4606,-75.6522"/>
<polygon fill="#191970" stroke="#191970" points="706.8855,-217.8922 698.5769,-224.4662 709.1716,-224.5084 706.8855,-217.8922"/>
</g>
<!-- Node53 -->
<g id="node33" class="node">
<title>Node53</title>
<g id="a_node33"><a xlink:href="_diffusion_ops_8cpp.html" target="_top" xlink:title="DiffusionOps.cpp">
<polygon fill="#ffffff" stroke="#000000" points="620.4158,-168.5 620.4158,-187.5 712.4158,-187.5 712.4158,-168.5 620.4158,-168.5"/>
<text text-anchor="middle" x="666.4158" y="-175.5" font-family="Helvetica,sans-Serif" font-size="10.00" fill="#000000">DiffusionOps.cpp</text>
</a>
</g>
</g>
<!-- Node52&#45;&gt;Node53 -->
<g id="edge61" class="edge">
<title>Node52&#45;&gt;Node53</title>
<path fill="none" stroke="#191970" d="M668.9985,-214.1575C668.3554,-205.155 667.6243,-194.9199 667.1045,-187.6427"/>
<polygon fill="#191970" stroke="#191970" points="665.5154,-214.5204 669.719,-224.2455 672.4976,-214.0216 665.5154,-214.5204"/>
</g>
<!-- Node56 -->
<g id="node36" class="node">
<title>Node56</title>
<g id="a_node36"><a xlink:href="_a_b_l_boundary_plane_8cpp.html" target="_top" xlink:title="ABLBoundaryPlane.cpp">
<polygon fill="#ffffff" stroke="#000000" points="1235.4158,-280.5 1235.4158,-299.5 1355.4158,-299.5 1355.4158,-280.5 1235.4158,-280.5"/>
<text text-anchor="middle" x="1295.4158" y="-287.5" font-family="Helvetica,sans-Serif" font-size="10.00" fill="#000000">ABLBoundaryPlane.cpp</text>
</a>
</g>
</g>
<!-- Node55&#45;&gt;Node56 -->
<g id="edge77" class="edge">
<title>Node55&#45;&gt;Node56</title>
<path fill="none" stroke="#191970" d="M1314.7511,-327.3372C1309.9471,-318.0605 1304.3435,-307.2398 1300.4093,-299.6427"/>
<polygon fill="#191970" stroke="#191970" points="1311.6578,-328.9751 1319.3644,-336.2455 1317.8738,-325.7561 1311.6578,-328.9751"/>
</g>
<!-- Node57 -->
<g id="node37" class="node">
<title>Node57</title>
<g id="a_node37"><a xlink:href="_a_b_l_fill_inflow_8cpp.html" target="_top" xlink:title="ABLFillInflow.cpp">
<polygon fill="#ffffff" stroke="#000000" points="1373.9158,-280.5 1373.9158,-299.5 1466.9158,-299.5 1466.9158,-280.5 1373.9158,-280.5"/>
<text text-anchor="middle" x="1420.4158" y="-287.5" font-family="Helvetica,sans-Serif" font-size="10.00" fill="#000000">ABLFillInflow.cpp</text>
</a>
</g>
</g>
<!-- Node55&#45;&gt;Node57 -->
<g id="edge78" class="edge">
<title>Node55&#45;&gt;Node57</title>
<path fill="none" stroke="#191970" d="M1350.0504,-331.0465C1367.1317,-321.0824 1389.0797,-308.2794 1403.8855,-299.6427"/>
<polygon fill="#191970" stroke="#191970" points="1348.0119,-328.1836 1341.1377,-336.2455 1351.5391,-334.23 1348.0119,-328.1836"/>
</g>
</g>
</svg>
