<?xml version="1.0" encoding="UTF-8" standalone="no"?>
<!DOCTYPE svg PUBLIC "-//W3C//DTD SVG 1.1//EN"
 "http://www.w3.org/Graphics/SVG/1.1/DTD/svg11.dtd">
<!-- Generated by graphviz version 2.40.1 (20161225.0304)
 -->
<!-- Title: Field.H Pages: 1 -->
<svg width="858pt" height="140pt"
 viewBox="0.00 0.00 857.50 140.00" xmlns="http://www.w3.org/2000/svg" xmlns:xlink="http://www.w3.org/1999/xlink">
<g id="graph0" class="graph" transform="scale(1 1) rotate(0) translate(4 136)">
<title>Field.H</title>
<polygon fill="#ffffff" stroke="transparent" points="-4,4 -4,-136 853.5,-136 853.5,4 -4,4"/>
<!-- Node0 -->
<g id="node1" class="node">
<title>Node0</title>
<polygon fill="#bfbfbf" stroke="#000000" points="331.5,-112.5 331.5,-131.5 379.5,-131.5 379.5,-112.5 331.5,-112.5"/>
<text text-anchor="middle" x="355.5" y="-119.5" font-family="Helvetica,sans-Serif" font-size="10.00" fill="#000000">Field.H</text>
</g>
<!-- Node1 -->
<g id="node2" class="node">
<title>Node1</title>
<polygon fill="#ffffff" stroke="#bfbfbf" points="0,-.5 0,-19.5 41,-19.5 41,-.5 0,-.5"/>
<text text-anchor="middle" x="20.5" y="-7.5" font-family="Helvetica,sans-Serif" font-size="10.00" fill="#000000">string</text>
</g>
<!-- Node0&#45;&gt;Node1 -->
<g id="edge1" class="edge">
<title>Node0&#45;&gt;Node1</title>
<path fill="none" stroke="#191970" d="M331.1539,-120.7979C286.3754,-117.8553 188.6551,-107.9982 113.5,-76 84.8522,-63.8028 56.3051,-41.684 38.5463,-26.4367"/>
<polygon fill="#191970" stroke="#191970" points="40.5636,-23.55 30.7418,-19.5772 35.9424,-28.8078 40.5636,-23.55"/>
</g>
<!-- Node2 -->
<g id="node3" class="node">
<title>Node2</title>
<polygon fill="#ffffff" stroke="#bfbfbf" points="329.5,-56.5 329.5,-75.5 381.5,-75.5 381.5,-56.5 329.5,-56.5"/>
<text text-anchor="middle" x="355.5" y="-63.5" font-family="Helvetica,sans-Serif" font-size="10.00" fill="#000000">memory</text>
</g>
<!-- Node0&#45;&gt;Node2 -->
<g id="edge2" class="edge">
<title>Node0&#45;&gt;Node2</title>
<path fill="none" stroke="#191970" d="M355.5,-112.2455C355.5,-104.9382 355.5,-94.6944 355.5,-85.7046"/>
<polygon fill="#191970" stroke="#191970" points="359.0001,-85.6426 355.5,-75.6427 352.0001,-85.6427 359.0001,-85.6426"/>
</g>
<!-- Node3 -->
<g id="node4" class="node">
<title>Node3</title>
<polygon fill="#ffffff" stroke="#bfbfbf" points="400,-56.5 400,-75.5 483,-75.5 483,-56.5 400,-56.5"/>
<text text-anchor="middle" x="441.5" y="-63.5" font-family="Helvetica,sans-Serif" font-size="10.00" fill="#000000">unordered_map</text>
</g>
<!-- Node0&#45;&gt;Node3 -->
<g id="edge3" class="edge">
<title>Node0&#45;&gt;Node3</title>
<path fill="none" stroke="#191970" d="M370.4801,-112.2455C383.6751,-103.6534 403.1051,-91.0014 418.3079,-81.1018"/>
<polygon fill="#191970" stroke="#191970" points="420.2215,-84.0325 426.6916,-75.6427 416.4017,-78.1665 420.2215,-84.0325"/>
</g>
<!-- Node4 -->
<g id="node5" class="node">
<title>Node4</title>
<polygon fill="#ffffff" stroke="#bfbfbf" points="59.5,-.5 59.5,-19.5 163.5,-19.5 163.5,-.5 59.5,-.5"/>
<text text-anchor="middle" x="111.5" y="-7.5" font-family="Helvetica,sans-Serif" font-size="10.00" fill="#000000">AMReX_MultiFab.H</text>
</g>
<!-- Node0&#45;&gt;Node4 -->
<g id="edge4" class="edge">
<title>Node0&#45;&gt;Node4</title>
<path fill="none" stroke="#191970" d="M331.3364,-120.1789C279.4324,-115.7872 159.6327,-102.9274 130.5,-76 117.8008,-64.2621 113.3923,-44.6409 111.9567,-29.836"/>
<polygon fill="#191970" stroke="#191970" points="115.4392,-29.4376 111.3502,-19.6637 108.4516,-29.8543 115.4392,-29.4376"/>
</g>
<!-- Node5 -->
<g id="node6" class="node">
<title>Node5</title>
<polygon fill="#ffffff" stroke="#bfbfbf" points="501,-56.5 501,-75.5 600,-75.5 600,-56.5 501,-56.5"/>
<text text-anchor="middle" x="550.5" y="-63.5" font-family="Helvetica,sans-Serif" font-size="10.00" fill="#000000">AMReX_BCRec.H</text>
</g>
<!-- Node0&#45;&gt;Node5 -->
<g id="edge5" class="edge">
<title>Node0&#45;&gt;Node5</title>
<path fill="none" stroke="#191970" d="M379.8026,-115.0208C411.7355,-105.8503 468.3548,-89.5904 507.5826,-78.325"/>
<polygon fill="#191970" stroke="#191970" points="508.7582,-81.6289 517.4037,-75.5046 506.826,-74.9009 508.7582,-81.6289"/>
</g>
<!-- Node6 -->
<g id="node7" class="node">
<title>Node6</title>
<polygon fill="#ffffff" stroke="#bfbfbf" points="618,-56.5 618,-75.5 703,-75.5 703,-56.5 618,-56.5"/>
<text text-anchor="middle" x="660.5" y="-63.5" font-family="Helvetica,sans-Serif" font-size="10.00" fill="#000000">AMReX_Gpu.H</text>
</g>
<!-- Node0&#45;&gt;Node6 -->
<g id="edge6" class="edge">
<title>Node0&#45;&gt;Node6</title>
<path fill="none" stroke="#191970" d="M379.6865,-117.7399C423.2394,-110.0429 517.9907,-93.1807 607.85,-76.2932"/>
<polygon fill="#191970" stroke="#191970" points="608.7527,-79.6848 617.9321,-74.3944 607.4571,-72.8058 608.7527,-79.6848"/>
</g>
<!-- Node7 -->
<g id="node8" class="node">
<title>Node7</title>
<g id="a_node8"><a xlink:href="incflo__enums_8_h.html" target="_top" xlink:title="amr&#45;wind/incflo_enums.H">
<polygon fill="#ffffff" stroke="#000000" points="721.5,-56.5 721.5,-75.5 849.5,-75.5 849.5,-56.5 721.5,-56.5"/>
<text text-anchor="middle" x="785.5" y="-63.5" font-family="Helvetica,sans-Serif" font-size="10.00" fill="#000000">amr&#45;wind/incflo_enums.H</text>
</a>
</g>
</g>
<!-- Node0&#45;&gt;Node7 -->
<g id="edge7" class="edge">
<title>Node0&#45;&gt;Node7</title>
<path fill="none" stroke="#191970" d="M379.7493,-118.9433C435.9699,-111.8422 579.8132,-93.5907 711.1706,-76.1687"/>
<polygon fill="#191970" stroke="#191970" points="711.9576,-79.595 721.4098,-74.809 711.0361,-72.6559 711.9576,-79.595"/>
</g>
<!-- Node8 -->
<g id="node9" class="node">
<title>Node8</title>
<g id="a_node9"><a xlink:href="_field_desc_types_8_h.html" target="_top" xlink:title="amr&#45;wind/core/FieldDescTypes.H">
<polygon fill="#ffffff" stroke="#000000" points="295,-.5 295,-19.5 458,-19.5 458,-.5 295,-.5"/>
<text text-anchor="middle" x="376.5" y="-7.5" font-family="Helvetica,sans-Serif" font-size="10.00" fill="#000000">amr&#45;wind/core/FieldDescTypes.H</text>
</a>
</g>
</g>
<!-- Node0&#45;&gt;Node8 -->
<g id="edge8" class="edge">
<title>Node0&#45;&gt;Node8</title>
<path fill="none" stroke="#191970" d="M344.059,-112.3033C330.4908,-99.561 310.8557,-76.4029 320.5,-56 326.5246,-43.2547 338.0032,-32.8542 349.0074,-25.1874"/>
<polygon fill="#191970" stroke="#191970" points="351.1121,-27.9948 357.6176,-19.6324 347.3172,-22.1127 351.1121,-27.9948"/>
</g>
<!-- Node9 -->
<g id="node10" class="node">
<title>Node9</title>
<g id="a_node10"><a xlink:href="_view_field_8_h.html" target="_top" xlink:title="amr&#45;wind/core/ViewField.H">
<polygon fill="#ffffff" stroke="#000000" points="139.5,-56.5 139.5,-75.5 273.5,-75.5 273.5,-56.5 139.5,-56.5"/>
<text text-anchor="middle" x="206.5" y="-63.5" font-family="Helvetica,sans-Serif" font-size="10.00" fill="#000000">amr&#45;wind/core/ViewField.H</text>
</a>
</g>
</g>
<!-- Node0&#45;&gt;Node9 -->
<g id="edge9" class="edge">
<title>Node0&#45;&gt;Node9</title>
<path fill="none" stroke="#191970" d="M331.229,-112.878C306.9192,-103.7414 269.2536,-89.5852 241.6711,-79.2187"/>
<polygon fill="#191970" stroke="#191970" points="242.6009,-75.8291 232.0088,-75.5872 240.1382,-82.3816 242.6009,-75.8291"/>
</g>
<!-- Node9&#45;&gt;Node1 -->
<g id="edge10" class="edge">
<title>Node9&#45;&gt;Node1</title>
<path fill="none" stroke="#191970" d="M172.9233,-56.4671C143.24,-47.9581 98.5507,-34.9502 50.7287,-19.9967"/>
<polygon fill="#191970" stroke="#191970" points="51.7153,-16.638 41.126,-16.9808 49.6178,-23.3164 51.7153,-16.638"/>
</g>
<!-- Node9&#45;&gt;Node4 -->
<g id="edge12" class="edge">
<title>Node9&#45;&gt;Node4</title>
<path fill="none" stroke="#191970" d="M189.9523,-56.2455C175.2401,-47.5731 153.5112,-34.7645 136.6495,-24.825"/>
<polygon fill="#191970" stroke="#191970" points="138.2502,-21.7057 127.8581,-19.6427 134.6954,-27.736 138.2502,-21.7057"/>
</g>
<!-- Node9&#45;&gt;Node8 -->
<g id="edge11" class="edge">
<title>Node9&#45;&gt;Node8</title>
<path fill="none" stroke="#191970" d="M235.724,-56.3733C263.9925,-47.0613 306.9965,-32.8953 338.0344,-22.671"/>
<polygon fill="#191970" stroke="#191970" points="339.2544,-25.9542 347.6573,-19.5011 337.0643,-19.3056 339.2544,-25.9542"/>
</g>
<!-- Node10 -->
<g id="node11" class="node">
<title>Node10</title>
<polygon fill="#ffffff" stroke="#bfbfbf" points="182,-.5 182,-19.5 277,-19.5 277,-.5 182,-.5"/>
<text text-anchor="middle" x="229.5" y="-7.5" font-family="Helvetica,sans-Serif" font-size="10.00" fill="#000000">AMReX_Vector.H</text>
</g>
<!-- Node9&#45;&gt;Node10 -->
<g id="edge13" class="edge">
<title>Node9&#45;&gt;Node10</title>
<path fill="none" stroke="#191970" d="M210.5063,-56.2455C213.5735,-48.7776 217.9003,-38.2427 221.6497,-29.1137"/>
<polygon fill="#191970" stroke="#191970" points="224.9779,-30.2226 225.5396,-19.6427 218.5028,-27.5631 224.9779,-30.2226"/>
</g>
</g>
</svg>
