<?xml version="1.0" encoding="UTF-8" standalone="no"?>
<!DOCTYPE svg PUBLIC "-//W3C//DTD SVG 1.1//EN"
 "http://www.w3.org/Graphics/SVG/1.1/DTD/svg11.dtd">
<!-- Generated by graphviz version 2.40.1 (20161225.0304)
 -->
<!-- Title: FieldPlaneAveraging.H Pages: 1 -->
<!--zoomable 341 -->
<svg id="main" version="1.1" xmlns="http://www.w3.org/2000/svg" xmlns:xlink="http://www.w3.org/1999/xlink" xml:space="preserve" onload="init(evt)">
<style type="text/css"><![CDATA[
.edge:hover path { stroke: red; }
.edge:hover polygon { stroke: red; fill: red; }
]]></style>
<script type="text/javascript"><![CDATA[
var edges = document.getElementsByTagName('g');
if (edges && edges.length) {
  for (var i=0;i<edges.length;i++) {
    if (edges[i].id.substr(0,4)=='edge') {
      edges[i].setAttribute('class','edge');
    }
  }
}
]]></script>
        <defs>
                <circle id="rim" cx="0" cy="0" r="7"/>
                <circle id="rim2" cx="0" cy="0" r="3.5"/>
                <g id="zoomPlus">
                        <use xlink:href="#rim" fill="#404040">
                                <set attributeName="fill" to="#808080" begin="zoomplus.mouseover" end="zoomplus.mouseout"/>
                        </use>
                        <path d="M-4,0h8M0,-4v8" fill="none" stroke="white" stroke-width="1.5" pointer-events="none"/>
                </g>
                <g id="zoomMin">
                        <use xlink:href="#rim" fill="#404040">
                                <set attributeName="fill" to="#808080" begin="zoomminus.mouseover" end="zoomminus.mouseout"/>
                        </use>
                        <path d="M-4,0h8" fill="none" stroke="white" stroke-width="1.5" pointer-events="none"/>
                </g>
                <g id="dirArrow">
                        <path fill="none" stroke="white" stroke-width="1.5" d="M0,-3.0v7 M-2.5,-0.5L0,-3.0L2.5,-0.5"/>
                </g>
               <g id="resetDef">
                       <use xlink:href="#rim2" fill="#404040">
                               <set attributeName="fill" to="#808080" begin="reset.mouseover" end="reset.mouseout"/>
                       </use>
               </g>
        </defs>

<script type="text/javascript">
var viewWidth = 2328;
var viewHeight = 341;
var sectionId = 'dynsection-0';
</script>
<script xlink:href="svgpan.js"/>
<svg id="graph" class="graph">
<g id="viewport">
<title>FieldPlaneAveraging.H</title>
<polygon fill="#ffffff" stroke="transparent" points="-4,4 -4,-337 2324.4647,-337 2324.4647,4 -4,4"/>
<!-- Node0 -->
<g id="node1" class="node">
<title>Node0</title>
<polygon fill="#bfbfbf" stroke="#000000" points="643,-313.5 643,-332.5 759,-332.5 759,-313.5 643,-313.5"/>
<text text-anchor="middle" x="701" y="-320.5" font-family="Helvetica,sans-Serif" font-size="10.00" fill="#000000">FieldPlaneAveraging.H</text>
</g>
<!-- Node1 -->
<g id="node2" class="node">
<title>Node1</title>
<g id="a_node2"><a xlink:href="_direction_selector_8_h.html" target="_top" xlink:title="amr&#45;wind/utilities\l/DirectionSelector.H">
<polygon fill="#ffffff" stroke="#000000" points="1616.5,-246.5 1616.5,-276.5 1721.5,-276.5 1721.5,-246.5 1616.5,-246.5"/>
<text text-anchor="start" x="1624.5" y="-264.5" font-family="Helvetica,sans-Serif" font-size="10.00" fill="#000000">amr&#45;wind/utilities</text>
<text text-anchor="middle" x="1669" y="-253.5" font-family="Helvetica,sans-Serif" font-size="10.00" fill="#000000">/DirectionSelector.H</text>
</a>
</g>
</g>
<!-- Node0&#45;&gt;Node1 -->
<g id="edge1" class="edge">
<title>Node0&#45;&gt;Node1</title>
<path fill="none" stroke="#191970" d="M759.0129,-319.3143C929.779,-308.465 1429.7169,-276.7024 1606.3232,-265.482"/>
<polygon fill="#191970" stroke="#191970" points="1606.7294,-268.9634 1616.4873,-264.8363 1606.2855,-261.9775 1606.7294,-268.9634"/>
</g>
<!-- Node3 -->
<g id="node4" class="node">
<title>Node3</title>
<g id="a_node4"><a xlink:href="_c_f_d_sim_8_h.html" target="_top" xlink:title="amr&#45;wind/CFDSim.H">
<polygon fill="#ffffff" stroke="#000000" points="606,-252 606,-271 714,-271 714,-252 606,-252"/>
<text text-anchor="middle" x="660" y="-259" font-family="Helvetica,sans-Serif" font-size="10.00" fill="#000000">amr&#45;wind/CFDSim.H</text>
</a>
</g>
</g>
<!-- Node0&#45;&gt;Node3 -->
<g id="edge3" class="edge">
<title>Node0&#45;&gt;Node3</title>
<path fill="none" stroke="#191970" d="M694.5938,-313.3906C688.6114,-304.417 679.5253,-290.7879 672.1661,-279.7491"/>
<polygon fill="#191970" stroke="#191970" points="674.9558,-277.6239 666.4966,-271.2449 669.1314,-281.5068 674.9558,-277.6239"/>
</g>
<!-- Node5 -->
<g id="node6" class="node">
<title>Node5</title>
<g id="a_node6"><a xlink:href="_sim_time_8_h.html" target="_top" xlink:title="amr&#45;wind/core/SimTime.H">
<polygon fill="#ffffff" stroke="#000000" points="253.5,-190.5 253.5,-209.5 384.5,-209.5 384.5,-190.5 253.5,-190.5"/>
<text text-anchor="middle" x="319" y="-197.5" font-family="Helvetica,sans-Serif" font-size="10.00" fill="#000000">amr&#45;wind/core/SimTime.H</text>
</a>
</g>
</g>
<!-- Node0&#45;&gt;Node5 -->
<g id="edge68" class="edge">
<title>Node0&#45;&gt;Node5</title>
<path fill="none" stroke="#191970" d="M671.343,-313.4507C603.1462,-291.4921 435.1629,-237.4032 358.4076,-212.6888"/>
<polygon fill="#191970" stroke="#191970" points="359.2296,-209.2766 348.6381,-209.5432 357.0841,-215.9397 359.2296,-209.2766"/>
</g>
<!-- Node16 -->
<g id="node17" class="node">
<title>Node16</title>
<g id="a_node17"><a xlink:href="_field_8_h.html" target="_top" xlink:title="amr&#45;wind/core/Field.H">
<polygon fill="#ffffff" stroke="#000000" points="1474.5,-129 1474.5,-148 1587.5,-148 1587.5,-129 1474.5,-129"/>
<text text-anchor="middle" x="1531" y="-136" font-family="Helvetica,sans-Serif" font-size="10.00" fill="#000000">amr&#45;wind/core/Field.H</text>
</a>
</g>
</g>
<!-- Node0&#45;&gt;Node16 -->
<g id="edge67" class="edge">
<title>Node0&#45;&gt;Node16</title>
<path fill="none" stroke="#191970" d="M744.9698,-313.4827C862.121,-288.0799 1191.4994,-216.3626 1465,-154 1470.1048,-152.836 1475.4284,-151.6085 1480.7406,-150.3748"/>
<polygon fill="#191970" stroke="#191970" points="1481.9381,-153.6895 1490.8817,-148.0095 1480.348,-146.8725 1481.9381,-153.6895"/>
</g>
<!-- Node2 -->
<g id="node3" class="node">
<title>Node2</title>
<polygon fill="#ffffff" stroke="#bfbfbf" points="1953.5,-62 1953.5,-81 2038.5,-81 2038.5,-62 1953.5,-62"/>
<text text-anchor="middle" x="1996" y="-69" font-family="Helvetica,sans-Serif" font-size="10.00" fill="#000000">AMReX_Gpu.H</text>
</g>
<!-- Node1&#45;&gt;Node2 -->
<g id="edge2" class="edge">
<title>Node1&#45;&gt;Node2</title>
<path fill="none" stroke="#191970" d="M1721.7411,-253.0694C1810.4612,-237.6929 1983.395,-202.1824 2019,-154 2033.1471,-134.8554 2020.6051,-107.3913 2009.2222,-89.5002"/>
<polygon fill="#191970" stroke="#191970" points="2012.0377,-87.4162 2003.5228,-81.1117 2006.2477,-91.3502 2012.0377,-87.4162"/>
</g>
<!-- Node4 -->
<g id="node5" class="node">
<title>Node4</title>
<polygon fill="#ffffff" stroke="#bfbfbf" points="529,-129 529,-148 635,-148 635,-129 529,-129"/>
<text text-anchor="middle" x="582" y="-136" font-family="Helvetica,sans-Serif" font-size="10.00" fill="#000000">AMReX_AmrCore.H</text>
</g>
<!-- Node3&#45;&gt;Node4 -->
<g id="edge4" class="edge">
<title>Node3&#45;&gt;Node4</title>
<path fill="none" stroke="#191970" d="M653.8795,-251.8484C640.8933,-231.3703 610.3983,-183.282 593.6024,-156.7962"/>
<polygon fill="#191970" stroke="#191970" points="596.4033,-154.6775 588.0921,-148.1068 590.4918,-158.4263 596.4033,-154.6775"/>
</g>
<!-- Node3&#45;&gt;Node5 -->
<g id="edge5" class="edge">
<title>Node3&#45;&gt;Node5</title>
<path fill="none" stroke="#191970" d="M607.0929,-251.9581C546.2746,-240.9894 446.5353,-223.0012 381.8243,-211.3305"/>
<polygon fill="#191970" stroke="#191970" points="382.2131,-207.8442 371.7506,-209.5137 380.9706,-214.7331 382.2131,-207.8442"/>
</g>
<!-- Node9 -->
<g id="node10" class="node">
<title>Node9</title>
<g id="a_node10"><a xlink:href="_field_repo_8_h.html" target="_top" xlink:title="amr&#45;wind/core/FieldRepo.H">
<polygon fill="#ffffff" stroke="#000000" points="1463,-190.5 1463,-209.5 1599,-209.5 1599,-190.5 1463,-190.5"/>
<text text-anchor="middle" x="1531" y="-197.5" font-family="Helvetica,sans-Serif" font-size="10.00" fill="#000000">amr&#45;wind/core/FieldRepo.H</text>
</a>
</g>
</g>
<!-- Node3&#45;&gt;Node9 -->
<g id="edge9" class="edge">
<title>Node3&#45;&gt;Node9</title>
<path fill="none" stroke="#191970" d="M714.1559,-257.6761C863.0145,-247.1654 1278.8412,-217.8046 1452.8614,-205.5173"/>
<polygon fill="#191970" stroke="#191970" points="1453.2405,-208.9993 1462.9691,-204.8036 1452.7474,-202.0167 1453.2405,-208.9993"/>
</g>
<!-- Node26 -->
<g id="node27" class="node">
<title>Node26</title>
<g id="a_node27"><a xlink:href="_p_d_e_base_8_h.html" target="_top" xlink:title="amr&#45;wind/equation_systems\l/PDEBase.H">
<polygon fill="#ffffff" stroke="#000000" points="691.5,-123.5 691.5,-153.5 830.5,-153.5 830.5,-123.5 691.5,-123.5"/>
<text text-anchor="start" x="699.5" y="-141.5" font-family="Helvetica,sans-Serif" font-size="10.00" fill="#000000">amr&#45;wind/equation_systems</text>
<text text-anchor="middle" x="761" y="-130.5" font-family="Helvetica,sans-Serif" font-size="10.00" fill="#000000">/PDEBase.H</text>
</a>
</g>
</g>
<!-- Node3&#45;&gt;Node26 -->
<g id="edge45" class="edge">
<title>Node3&#45;&gt;Node26</title>
<path fill="none" stroke="#191970" d="M667.9253,-251.8484C683.7714,-232.5507 719.7507,-188.7343 742.0462,-161.5823"/>
<polygon fill="#191970" stroke="#191970" points="744.8476,-163.686 748.4887,-153.7365 739.4377,-159.2437 744.8476,-163.686"/>
</g>
<!-- Node34 -->
<g id="node35" class="node">
<title>Node34</title>
<g id="a_node35"><a xlink:href="_physics_8_h.html" target="_top" xlink:title="amr&#45;wind/core/Physics.H">
<polygon fill="#ffffff" stroke="#000000" points="383.5,-129 383.5,-148 510.5,-148 510.5,-129 383.5,-129"/>
<text text-anchor="middle" x="447" y="-136" font-family="Helvetica,sans-Serif" font-size="10.00" fill="#000000">amr&#45;wind/core/Physics.H</text>
</a>
</g>
</g>
<!-- Node3&#45;&gt;Node34 -->
<g id="edge62" class="edge">
<title>Node3&#45;&gt;Node34</title>
<path fill="none" stroke="#191970" d="M643.2862,-251.8484C606.1132,-230.3823 516.4027,-178.5776 472.3159,-153.1191"/>
<polygon fill="#191970" stroke="#191970" points="474.0462,-150.0766 463.6361,-148.1068 470.5457,-156.1385 474.0462,-150.0766"/>
</g>
<!-- Node6 -->
<g id="node7" class="node">
<title>Node6</title>
<polygon fill="#ffffff" stroke="#bfbfbf" points="272.5,-129 272.5,-148 365.5,-148 365.5,-129 272.5,-129"/>
<text text-anchor="middle" x="319" y="-136" font-family="Helvetica,sans-Serif" font-size="10.00" fill="#000000">AMReX_REAL.H</text>
</g>
<!-- Node5&#45;&gt;Node6 -->
<g id="edge6" class="edge">
<title>Node5&#45;&gt;Node6</title>
<path fill="none" stroke="#191970" d="M319,-190.3906C319,-181.8657 319,-169.1392 319,-158.4235"/>
<polygon fill="#191970" stroke="#191970" points="322.5001,-158.2448 319,-148.2449 315.5001,-158.2449 322.5001,-158.2448"/>
</g>
<!-- Node7 -->
<g id="node8" class="node">
<title>Node7</title>
<polygon fill="#ffffff" stroke="#bfbfbf" points="0,-129 0,-148 126,-148 126,-129 0,-129"/>
<text text-anchor="middle" x="63" y="-136" font-family="Helvetica,sans-Serif" font-size="10.00" fill="#000000">AMReX_GpuQualifiers.H</text>
</g>
<!-- Node5&#45;&gt;Node7 -->
<g id="edge7" class="edge">
<title>Node5&#45;&gt;Node7</title>
<path fill="none" stroke="#191970" d="M279.2809,-190.4581C234.4397,-179.6857 161.4157,-162.1428 112.7975,-150.4631"/>
<polygon fill="#191970" stroke="#191970" points="113.3532,-146.9971 102.8123,-148.0643 111.7181,-153.8034 113.3532,-146.9971"/>
</g>
<!-- Node8 -->
<g id="node9" class="node">
<title>Node8</title>
<polygon fill="#ffffff" stroke="#bfbfbf" points="144,-129 144,-148 254,-148 254,-129 144,-129"/>
<text text-anchor="middle" x="199" y="-136" font-family="Helvetica,sans-Serif" font-size="10.00" fill="#000000">AMReX_Extension.H</text>
</g>
<!-- Node5&#45;&gt;Node8 -->
<g id="edge8" class="edge">
<title>Node5&#45;&gt;Node8</title>
<path fill="none" stroke="#191970" d="M300.25,-190.3906C280.524,-180.2811 249.2688,-164.2628 226.7,-152.6962"/>
<polygon fill="#191970" stroke="#191970" points="228.114,-149.4881 217.6183,-148.0419 224.9213,-155.7176 228.114,-149.4881"/>
</g>
<!-- Node9&#45;&gt;Node4 -->
<g id="edge42" class="edge">
<title>Node9&#45;&gt;Node4</title>
<path fill="none" stroke="#191970" d="M1462.733,-197.9887C1284.0959,-192.4774 805.8684,-176.0623 649,-154 642.1686,-153.0392 635.0078,-151.7225 628.0143,-150.2595"/>
<polygon fill="#191970" stroke="#191970" points="628.465,-146.7748 617.9454,-148.0358 626.9553,-153.6101 628.465,-146.7748"/>
</g>
<!-- Node10 -->
<g id="node11" class="node">
<title>Node10</title>
<polygon fill="#ffffff" stroke="#bfbfbf" points="1244.5,-.5 1244.5,-19.5 1285.5,-19.5 1285.5,-.5 1244.5,-.5"/>
<text text-anchor="middle" x="1265" y="-7.5" font-family="Helvetica,sans-Serif" font-size="10.00" fill="#000000">string</text>
</g>
<!-- Node9&#45;&gt;Node10 -->
<g id="edge10" class="edge">
<title>Node9&#45;&gt;Node10</title>
<path fill="none" stroke="#191970" d="M1462.8385,-197.1018C1324.3615,-189.6342 1017.8191,-164.5297 954,-87 945.2437,-76.3626 944.9986,-66.4308 954,-56 972.1834,-34.9293 1158.819,-18.2334 1233.9341,-12.317"/>
<polygon fill="#191970" stroke="#191970" points="1234.4747,-15.7857 1244.1742,-11.5231 1233.9335,-8.8066 1234.4747,-15.7857"/>
</g>
<!-- Node11 -->
<g id="node12" class="node">
<title>Node11</title>
<polygon fill="#ffffff" stroke="#bfbfbf" points="667.5,-.5 667.5,-19.5 750.5,-19.5 750.5,-.5 667.5,-.5"/>
<text text-anchor="middle" x="709" y="-7.5" font-family="Helvetica,sans-Serif" font-size="10.00" fill="#000000">unordered_map</text>
</g>
<!-- Node9&#45;&gt;Node11 -->
<g id="edge11" class="edge">
<title>Node9&#45;&gt;Node11</title>
<path fill="none" stroke="#191970" d="M1462.6769,-198.3479C1266.439,-193.3329 713.1242,-177.1964 682,-154 646.0447,-127.203 639.7784,-96.9736 658,-56 663.4508,-43.7432 673.9599,-33.3755 684.0289,-25.6036"/>
<polygon fill="#191970" stroke="#191970" points="686.1744,-28.3721 692.2627,-19.7012 682.096,-22.6828 686.1744,-28.3721"/>
</g>
<!-- Node12 -->
<g id="node13" class="node">
<title>Node12</title>
<g id="a_node13"><a xlink:href="_field_desc_types_8_h.html" target="_top" xlink:title="amr&#45;wind/core/FieldDescTypes.H">
<polygon fill="#ffffff" stroke="#000000" points="1601.5,-.5 1601.5,-19.5 1764.5,-19.5 1764.5,-.5 1601.5,-.5"/>
<text text-anchor="middle" x="1683" y="-7.5" font-family="Helvetica,sans-Serif" font-size="10.00" fill="#000000">amr&#45;wind/core/FieldDescTypes.H</text>
</a>
</g>
</g>
<!-- Node9&#45;&gt;Node12 -->
<g id="edge12" class="edge">
<title>Node9&#45;&gt;Node12</title>
<path fill="none" stroke="#191970" d="M1599.1435,-197.9094C1739.2522,-193.1382 2055.2839,-179.8127 2160,-154 2232.4722,-136.1355 2273.0812,-149.426 2314,-87 2321.553,-75.477 2323.3815,-66.0903 2314,-56 2295.9284,-36.5631 1945.3834,-20.2522 1774.7583,-13.4285"/>
<polygon fill="#191970" stroke="#191970" points="1774.6622,-9.922 1764.5311,-13.0223 1774.3842,-16.9165 1774.6622,-9.922"/>
</g>
<!-- Node13 -->
<g id="node14" class="node">
<title>Node13</title>
<g id="a_node14"><a xlink:href="_field_utils_8_h.html" target="_top" xlink:title="amr&#45;wind/core/FieldUtils.H">
<polygon fill="#ffffff" stroke="#000000" points="2171.5,-62 2171.5,-81 2304.5,-81 2304.5,-62 2171.5,-62"/>
<text text-anchor="middle" x="2238" y="-69" font-family="Helvetica,sans-Serif" font-size="10.00" fill="#000000">amr&#45;wind/core/FieldUtils.H</text>
</a>
</g>
</g>
<!-- Node9&#45;&gt;Node13 -->
<g id="edge13" class="edge">
<title>Node9&#45;&gt;Node13</title>
<path fill="none" stroke="#191970" d="M1599.2263,-199.1146C1733.0131,-196.6523 2024.9511,-187.4948 2119,-154 2159.5285,-139.5661 2199.0508,-107.5615 2220.8002,-87.9287"/>
<polygon fill="#191970" stroke="#191970" points="2223.2548,-90.4262 2228.2307,-81.0725 2218.5078,-85.2816 2223.2548,-90.4262"/>
</g>
<!-- Node14 -->
<g id="node15" class="node">
<title>Node14</title>
<polygon fill="#ffffff" stroke="#bfbfbf" points="1460,-.5 1460,-19.5 1564,-19.5 1564,-.5 1460,-.5"/>
<text text-anchor="middle" x="1512" y="-7.5" font-family="Helvetica,sans-Serif" font-size="10.00" fill="#000000">AMReX_MultiFab.H</text>
</g>
<!-- Node9&#45;&gt;Node14 -->
<g id="edge43" class="edge">
<title>Node9&#45;&gt;Node14</title>
<path fill="none" stroke="#191970" d="M1599.1745,-196.77C1724.8843,-190.3485 1983.6518,-174.7854 2019,-154 2060.476,-129.6113 2097.7032,-91.2925 2065,-56 2029.2506,-17.4202 1645.3367,-25.2237 1593,-20 1586.8933,-19.3905 1580.5343,-18.701 1574.1833,-17.976"/>
<polygon fill="#191970" stroke="#191970" points="1574.5858,-14.4993 1564.2469,-16.8139 1573.7726,-21.4519 1574.5858,-14.4993"/>
</g>
<!-- Node9&#45;&gt;Node16 -->
<g id="edge17" class="edge">
<title>Node9&#45;&gt;Node16</title>
<path fill="none" stroke="#191970" d="M1531,-190.3906C1531,-181.8657 1531,-169.1392 1531,-158.4235"/>
<polygon fill="#191970" stroke="#191970" points="1534.5001,-158.2448 1531,-148.2449 1527.5001,-158.2449 1534.5001,-158.2448"/>
</g>
<!-- Node22 -->
<g id="node23" class="node">
<title>Node22</title>
<g id="a_node23"><a xlink:href="_int_field_8_h.html" target="_top" xlink:title="amr&#45;wind/core/IntField.H">
<polygon fill="#ffffff" stroke="#000000" points="1886,-129 1886,-148 2010,-148 2010,-129 1886,-129"/>
<text text-anchor="middle" x="1948" y="-136" font-family="Helvetica,sans-Serif" font-size="10.00" fill="#000000">amr&#45;wind/core/IntField.H</text>
</a>
</g>
</g>
<!-- Node9&#45;&gt;Node22 -->
<g id="edge31" class="edge">
<title>Node9&#45;&gt;Node22</title>
<path fill="none" stroke="#191970" d="M1595.6987,-190.4581C1671.4502,-179.2861 1796.5778,-160.8321 1875.529,-149.1882"/>
<polygon fill="#191970" stroke="#191970" points="1876.493,-152.5839 1885.8753,-147.6623 1875.4716,-145.6588 1876.493,-152.5839"/>
</g>
<!-- Node23 -->
<g id="node24" class="node">
<title>Node23</title>
<polygon fill="#ffffff" stroke="#bfbfbf" points="1828.5,-62 1828.5,-81 1935.5,-81 1935.5,-62 1828.5,-62"/>
<text text-anchor="middle" x="1882" y="-69" font-family="Helvetica,sans-Serif" font-size="10.00" fill="#000000">AMReX_iMultiFab.H</text>
</g>
<!-- Node9&#45;&gt;Node23 -->
<g id="edge44" class="edge">
<title>Node9&#45;&gt;Node23</title>
<path fill="none" stroke="#191970" d="M1557.0953,-190.4466C1619.0301,-167.7725 1775.0013,-110.6719 1845.9096,-84.7126"/>
<polygon fill="#191970" stroke="#191970" points="1847.5457,-87.8409 1855.7329,-81.1163 1845.1392,-81.2675 1847.5457,-87.8409"/>
</g>
<!-- Node24 -->
<g id="node25" class="node">
<title>Node24</title>
<g id="a_node25"><a xlink:href="_scratch_field_8_h.html" target="_top" xlink:title="amr&#45;wind/core/ScratchField.H">
<polygon fill="#ffffff" stroke="#000000" points="1310,-129 1310,-148 1456,-148 1456,-129 1310,-129"/>
<text text-anchor="middle" x="1383" y="-136" font-family="Helvetica,sans-Serif" font-size="10.00" fill="#000000">amr&#45;wind/core/ScratchField.H</text>
</a>
</g>
</g>
<!-- Node9&#45;&gt;Node24 -->
<g id="edge35" class="edge">
<title>Node9&#45;&gt;Node24</title>
<path fill="none" stroke="#191970" d="M1507.875,-190.3906C1483.0033,-180.0554 1443.2702,-163.5447 1415.3156,-151.9284"/>
<polygon fill="#191970" stroke="#191970" points="1416.5402,-148.6472 1405.9626,-148.0419 1413.854,-155.1113 1416.5402,-148.6472"/>
</g>
<!-- Node13&#45;&gt;Node12 -->
<g id="edge14" class="edge">
<title>Node13&#45;&gt;Node12</title>
<path fill="none" stroke="#191970" d="M2192.2884,-61.9888C2180.8032,-59.8099 2168.4791,-57.6517 2157,-56 2024.7446,-36.9699 1870.569,-23.6345 1774.8574,-16.3879"/>
<polygon fill="#191970" stroke="#191970" points="1774.8658,-12.8787 1764.6318,-15.62 1774.3416,-19.8591 1774.8658,-12.8787"/>
</g>
<!-- Node13&#45;&gt;Node14 -->
<g id="edge15" class="edge">
<title>Node13&#45;&gt;Node14</title>
<path fill="none" stroke="#191970" d="M2171.3681,-62.0907C2154.3195,-59.884 2136.0005,-57.6873 2119,-56 1885.8211,-32.8564 1826.255,-42.3638 1593,-20 1586.891,-19.4143 1580.5304,-18.7405 1574.1784,-18.0252"/>
<polygon fill="#191970" stroke="#191970" points="1574.5775,-14.5481 1564.2411,-16.8738 1573.7717,-21.5016 1574.5775,-14.5481"/>
</g>
<!-- Node15 -->
<g id="node16" class="node">
<title>Node15</title>
<polygon fill="#ffffff" stroke="#bfbfbf" points="2180,-.5 2180,-19.5 2296,-19.5 2296,-.5 2180,-.5"/>
<text text-anchor="middle" x="2238" y="-7.5" font-family="Helvetica,sans-Serif" font-size="10.00" fill="#000000">AMReX_Interpolater.H</text>
</g>
<!-- Node13&#45;&gt;Node15 -->
<g id="edge16" class="edge">
<title>Node13&#45;&gt;Node15</title>
<path fill="none" stroke="#191970" d="M2238,-61.8906C2238,-53.3657 2238,-40.6392 2238,-29.9235"/>
<polygon fill="#191970" stroke="#191970" points="2241.5001,-29.7448 2238,-19.7449 2234.5001,-29.7449 2241.5001,-29.7448"/>
</g>
<!-- Node16&#45;&gt;Node2 -->
<g id="edge23" class="edge">
<title>Node16&#45;&gt;Node2</title>
<path fill="none" stroke="#191970" d="M1587.7587,-134.5345C1668.0012,-128.2297 1818.8928,-113.8004 1945,-87 1949.1752,-86.1127 1953.5015,-85.0419 1957.7889,-83.8827"/>
<polygon fill="#191970" stroke="#191970" points="1958.9839,-87.1811 1967.6328,-81.0617 1957.0555,-80.452 1958.9839,-87.1811"/>
</g>
<!-- Node16&#45;&gt;Node10 -->
<g id="edge18" class="edge">
<title>Node16&#45;&gt;Node10</title>
<path fill="none" stroke="#191970" d="M1527.1806,-128.8305C1519.7468,-111.3384 1501.6035,-74.5389 1474,-56 1445.0615,-36.5645 1346.2492,-20.9057 1295.5495,-13.9297"/>
<polygon fill="#191970" stroke="#191970" points="1295.8817,-10.4429 1285.5035,-12.5747 1294.9459,-17.3801 1295.8817,-10.4429"/>
</g>
<!-- Node16&#45;&gt;Node11 -->
<g id="edge20" class="edge">
<title>Node16&#45;&gt;Node11</title>
<path fill="none" stroke="#191970" d="M1490.9048,-128.9534C1434.8217,-115.549 1337.992,-92.2012 1322,-87 1287.309,-75.7172 1281.4653,-64.5427 1246,-56 1199.6026,-44.824 886.1072,-22.2464 760.6988,-13.5377"/>
<polygon fill="#191970" stroke="#191970" points="760.7962,-10.0361 750.5782,-12.8366 760.3124,-17.0194 760.7962,-10.0361"/>
</g>
<!-- Node16&#45;&gt;Node12 -->
<g id="edge25" class="edge">
<title>Node16&#45;&gt;Node12</title>
<path fill="none" stroke="#191970" d="M1542.4247,-128.8416C1568.283,-106.9812 1631.5323,-53.5105 1663.6323,-26.3733"/>
<polygon fill="#191970" stroke="#191970" points="1666.0656,-28.8994 1671.4427,-19.7705 1661.5463,-23.5537 1666.0656,-28.8994"/>
</g>
<!-- Node16&#45;&gt;Node14 -->
<g id="edge21" class="edge">
<title>Node16&#45;&gt;Node14</title>
<path fill="none" stroke="#191970" d="M1535.6414,-128.6319C1542.371,-112.9338 1553.1838,-81.4474 1545,-56 1541.6054,-45.4445 1534.7942,-35.2592 1528.2369,-27.1676"/>
<polygon fill="#191970" stroke="#191970" points="1530.8431,-24.8307 1521.6492,-19.5654 1525.553,-29.4149 1530.8431,-24.8307"/>
</g>
<!-- Node17 -->
<g id="node18" class="node">
<title>Node17</title>
<polygon fill="#ffffff" stroke="#bfbfbf" points="575,-.5 575,-19.5 627,-19.5 627,-.5 575,-.5"/>
<text text-anchor="middle" x="601" y="-7.5" font-family="Helvetica,sans-Serif" font-size="10.00" fill="#000000">memory</text>
</g>
<!-- Node16&#45;&gt;Node17 -->
<g id="edge19" class="edge">
<title>Node16&#45;&gt;Node17</title>
<path fill="none" stroke="#191970" d="M1495.9481,-128.9904C1486.0147,-126.645 1475.1431,-124.4048 1465,-123 1376.0928,-110.6864 737.2338,-129.1677 658,-87 634.4622,-74.4733 618.0514,-47.4398 609.0719,-28.9808"/>
<polygon fill="#191970" stroke="#191970" points="612.1936,-27.3912 604.8497,-19.7546 605.8284,-30.3041 612.1936,-27.3912"/>
</g>
<!-- Node18 -->
<g id="node19" class="node">
<title>Node18</title>
<polygon fill="#ffffff" stroke="#bfbfbf" points="1711.5,-62 1711.5,-81 1810.5,-81 1810.5,-62 1711.5,-62"/>
<text text-anchor="middle" x="1761" y="-69" font-family="Helvetica,sans-Serif" font-size="10.00" fill="#000000">AMReX_BCRec.H</text>
</g>
<!-- Node16&#45;&gt;Node18 -->
<g id="edge22" class="edge">
<title>Node16&#45;&gt;Node18</title>
<path fill="none" stroke="#191970" d="M1563.9534,-128.9005C1604.6021,-117.0594 1673.7873,-96.9054 1718.4242,-83.9025"/>
<polygon fill="#191970" stroke="#191970" points="1719.4857,-87.2389 1728.1077,-81.0817 1717.5279,-80.5182 1719.4857,-87.2389"/>
</g>
<!-- Node19 -->
<g id="node20" class="node">
<title>Node19</title>
<g id="a_node20"><a xlink:href="incflo__enums_8_h.html" target="_top" xlink:title="amr&#45;wind/incflo_enums.H">
<polygon fill="#ffffff" stroke="#000000" points="963,-62 963,-81 1091,-81 1091,-62 963,-62"/>
<text text-anchor="middle" x="1027" y="-69" font-family="Helvetica,sans-Serif" font-size="10.00" fill="#000000">amr&#45;wind/incflo_enums.H</text>
</a>
</g>
</g>
<!-- Node16&#45;&gt;Node19 -->
<g id="edge24" class="edge">
<title>Node16&#45;&gt;Node19</title>
<path fill="none" stroke="#191970" d="M1494.1724,-128.9425C1484.7145,-126.7387 1474.5212,-124.5804 1465,-123 1304.191,-96.3073 1261.086,-111.9668 1100,-87 1092.8702,-85.8949 1085.388,-84.5372 1078.044,-83.089"/>
<polygon fill="#191970" stroke="#191970" points="1078.6591,-79.6425 1068.1614,-81.0734 1077.2602,-86.5013 1078.6591,-79.6425"/>
</g>
<!-- Node20 -->
<g id="node21" class="node">
<title>Node20</title>
<g id="a_node21"><a xlink:href="_view_field_8_h.html" target="_top" xlink:title="amr&#45;wind/core/ViewField.H">
<polygon fill="#ffffff" stroke="#000000" points="1331,-62 1331,-81 1465,-81 1465,-62 1331,-62"/>
<text text-anchor="middle" x="1398" y="-69" font-family="Helvetica,sans-Serif" font-size="10.00" fill="#000000">amr&#45;wind/core/ViewField.H</text>
</a>
</g>
</g>
<!-- Node16&#45;&gt;Node20 -->
<g id="edge26" class="edge">
<title>Node16&#45;&gt;Node20</title>
<path fill="none" stroke="#191970" d="M1511.9443,-128.9005C1489.5252,-117.6067 1452.0946,-98.7506 1426.2868,-85.7497"/>
<polygon fill="#191970" stroke="#191970" points="1427.5258,-82.4549 1417.0203,-81.0817 1424.3765,-88.7065 1427.5258,-82.4549"/>
</g>
<!-- Node20&#45;&gt;Node10 -->
<g id="edge27" class="edge">
<title>Node20&#45;&gt;Node10</title>
<path fill="none" stroke="#191970" d="M1377.2188,-61.8906C1355.1606,-51.6908 1320.095,-35.4763 1295.0331,-23.8875"/>
<polygon fill="#191970" stroke="#191970" points="1296.1809,-20.5622 1285.6353,-19.5419 1293.2429,-26.9158 1296.1809,-20.5622"/>
</g>
<!-- Node20&#45;&gt;Node12 -->
<g id="edge28" class="edge">
<title>Node20&#45;&gt;Node12</title>
<path fill="none" stroke="#191970" d="M1442.2185,-61.9581C1492.4527,-51.1181 1574.4573,-33.4224 1628.5772,-21.7439"/>
<polygon fill="#191970" stroke="#191970" points="1629.641,-25.095 1638.6777,-19.5643 1628.1644,-18.2524 1629.641,-25.095"/>
</g>
<!-- Node20&#45;&gt;Node14 -->
<g id="edge29" class="edge">
<title>Node20&#45;&gt;Node14</title>
<path fill="none" stroke="#191970" d="M1415.8125,-61.8906C1434.4685,-51.8262 1463.9797,-35.9057 1485.3974,-24.3514"/>
<polygon fill="#191970" stroke="#191970" points="1487.1734,-27.3702 1494.3126,-19.5419 1483.8498,-21.2095 1487.1734,-27.3702"/>
</g>
<!-- Node21 -->
<g id="node22" class="node">
<title>Node21</title>
<polygon fill="#ffffff" stroke="#bfbfbf" points="887.5,-.5 887.5,-19.5 982.5,-19.5 982.5,-.5 887.5,-.5"/>
<text text-anchor="middle" x="935" y="-7.5" font-family="Helvetica,sans-Serif" font-size="10.00" fill="#000000">AMReX_Vector.H</text>
</g>
<!-- Node20&#45;&gt;Node21 -->
<g id="edge30" class="edge">
<title>Node20&#45;&gt;Node21</title>
<path fill="none" stroke="#191970" d="M1350.9812,-61.9318C1339.8649,-59.8282 1328.0348,-57.7181 1317,-56 1202.5854,-38.186 1067.9674,-23.4054 992.9674,-15.7181"/>
<polygon fill="#191970" stroke="#191970" points="993.0919,-12.2127 982.7886,-14.6809 992.3822,-19.1767 993.0919,-12.2127"/>
</g>
<!-- Node22&#45;&gt;Node10 -->
<g id="edge32" class="edge">
<title>Node22&#45;&gt;Node10</title>
<path fill="none" stroke="#191970" d="M1976.2358,-128.9176C2014.726,-114.4473 2075.8709,-85.5563 2048,-56 2044.7137,-52.5149 1441.6339,-19.5831 1296.2583,-11.6928"/>
<polygon fill="#191970" stroke="#191970" points="1296.0218,-8.1749 1285.8469,-11.1281 1295.6426,-15.1647 1296.0218,-8.1749"/>
</g>
<!-- Node22&#45;&gt;Node12 -->
<g id="edge33" class="edge">
<title>Node22&#45;&gt;Node12</title>
<path fill="none" stroke="#191970" d="M1991.6042,-128.952C2041.3658,-116.1401 2112.092,-90.8926 2081,-56 2060.975,-33.5273 1886.0692,-20.4141 1774.8852,-14.2776"/>
<polygon fill="#191970" stroke="#191970" points="1774.8401,-10.7701 1764.6652,-13.7233 1774.4609,-17.7599 1774.8401,-10.7701"/>
</g>
<!-- Node22&#45;&gt;Node23 -->
<g id="edge34" class="edge">
<title>Node22&#45;&gt;Node23</title>
<path fill="none" stroke="#191970" d="M1938.5438,-128.9005C1928.1537,-118.353 1911.2662,-101.2096 1898.6476,-88.3998"/>
<polygon fill="#191970" stroke="#191970" points="1900.9498,-85.7495 1891.4386,-81.0817 1895.963,-90.6619 1900.9498,-85.7495"/>
</g>
<!-- Node24&#45;&gt;Node10 -->
<g id="edge36" class="edge">
<title>Node24&#45;&gt;Node10</title>
<path fill="none" stroke="#191970" d="M1369.6129,-128.6586C1356.7067,-118.8456 1336.9819,-102.9715 1322,-87 1304.4977,-68.3417 1287.4504,-44.3076 1276.6296,-28.0931"/>
<polygon fill="#191970" stroke="#191970" points="1279.4351,-25.9889 1271.0216,-19.5497 1273.5832,-29.8302 1279.4351,-25.9889"/>
</g>
<!-- Node24&#45;&gt;Node12 -->
<g id="edge37" class="edge">
<title>Node24&#45;&gt;Node12</title>
<path fill="none" stroke="#191970" d="M1429.476,-128.9563C1479.773,-118.2029 1556.3626,-100.4693 1583,-87 1602.4507,-77.1647 1603.7989,-69.3859 1621,-56 1634.278,-45.667 1649.442,-34.407 1661.4496,-25.6138"/>
<polygon fill="#191970" stroke="#191970" points="1663.5468,-28.4163 1669.5631,-19.6954 1659.4215,-22.761 1663.5468,-28.4163"/>
</g>
<!-- Node24&#45;&gt;Node14 -->
<g id="edge39" class="edge">
<title>Node24&#45;&gt;Node14</title>
<path fill="none" stroke="#191970" d="M1408.4754,-128.9897C1428.3872,-120.4972 1455.6718,-106.3952 1474,-87 1489.6222,-70.4683 1500.1211,-46.2903 1506.0543,-29.453"/>
<polygon fill="#191970" stroke="#191970" points="1509.4947,-30.1957 1509.3019,-19.6026 1502.8467,-28.0038 1509.4947,-30.1957"/>
</g>
<!-- Node24&#45;&gt;Node20 -->
<g id="edge38" class="edge">
<title>Node24&#45;&gt;Node20</title>
<path fill="none" stroke="#191970" d="M1385.1491,-128.9005C1387.3546,-119.0495 1390.8481,-103.4451 1393.6363,-90.9912"/>
<polygon fill="#191970" stroke="#191970" points="1397.0855,-91.6048 1395.8549,-81.0817 1390.2546,-90.0754 1397.0855,-91.6048"/>
</g>
<!-- Node24&#45;&gt;Node21 -->
<g id="edge40" class="edge">
<title>Node24&#45;&gt;Node21</title>
<path fill="none" stroke="#191970" d="M1309.7094,-134.2077C1194.1782,-126.7796 980.0927,-110.0785 954,-87 937.9337,-72.7896 934.385,-47.362 934.0688,-29.6304"/>
<polygon fill="#191970" stroke="#191970" points="937.57,-29.5696 934.2175,-19.5191 930.5707,-29.4666 937.57,-29.5696"/>
</g>
<!-- Node25 -->
<g id="node26" class="node">
<title>Node25</title>
<polygon fill="#ffffff" stroke="#bfbfbf" points="1109,-62 1109,-81 1237,-81 1237,-62 1109,-62"/>
<text text-anchor="middle" x="1173" y="-69" font-family="Helvetica,sans-Serif" font-size="10.00" fill="#000000">AMReX_PhysBCFunct.H</text>
</g>
<!-- Node24&#45;&gt;Node25 -->
<g id="edge41" class="edge">
<title>Node24&#45;&gt;Node25</title>
<path fill="none" stroke="#191970" d="M1352.9121,-128.9005C1316.032,-117.134 1253.4242,-97.1591 1212.6468,-84.1492"/>
<polygon fill="#191970" stroke="#191970" points="1213.6228,-80.7868 1203.0321,-81.0817 1211.4951,-87.4557 1213.6228,-80.7868"/>
</g>
<!-- Node26&#45;&gt;Node10 -->
<g id="edge46" class="edge">
<title>Node26&#45;&gt;Node10</title>
<path fill="none" stroke="#191970" d="M771.4422,-123.2191C785.6061,-103.8744 812.8626,-71.2374 845,-56 914.1233,-23.2265 1149.4202,-13.3217 1234.2201,-10.7768"/>
<polygon fill="#191970" stroke="#191970" points="1234.3545,-14.2745 1244.2501,-10.4894 1234.1539,-7.2773 1234.3545,-14.2745"/>
</g>
<!-- Node26&#45;&gt;Node12 -->
<g id="edge60" class="edge">
<title>Node26&#45;&gt;Node12</title>
<path fill="none" stroke="#191970" d="M830.7227,-135.9548C985.2855,-129.908 1352.6098,-113.1969 1474,-87 1540.3471,-72.6818 1613.9672,-41.7989 1653.6957,-23.7979"/>
<polygon fill="#191970" stroke="#191970" points="1655.1739,-26.9706 1662.8085,-19.6245 1652.2592,-20.6063 1655.1739,-26.9706"/>
</g>
<!-- Node26&#45;&gt;Node19 -->
<g id="edge61" class="edge">
<title>Node26&#45;&gt;Node19</title>
<path fill="none" stroke="#191970" d="M820.6956,-123.4639C868.5852,-111.4015 934.9149,-94.6944 979.3072,-83.5128"/>
<polygon fill="#191970" stroke="#191970" points="980.4204,-86.8419 989.2626,-81.0053 978.7106,-80.0539 980.4204,-86.8419"/>
</g>
<!-- Node27 -->
<g id="node28" class="node">
<title>Node27</title>
<g id="a_node28"><a xlink:href="_factory_8_h.html" target="_top" xlink:title="amr&#45;wind/core/Factory.H">
<polygon fill="#ffffff" stroke="#000000" points="290.5,-62 290.5,-81 415.5,-81 415.5,-62 290.5,-62"/>
<text text-anchor="middle" x="353" y="-69" font-family="Helvetica,sans-Serif" font-size="10.00" fill="#000000">amr&#45;wind/core/Factory.H</text>
</a>
</g>
</g>
<!-- Node26&#45;&gt;Node27 -->
<g id="edge47" class="edge">
<title>Node26&#45;&gt;Node27</title>
<path fill="none" stroke="#191970" d="M691.4011,-129.1753C623.1057,-119.7166 516.0932,-104.0715 424,-87 417.7314,-85.838 411.1712,-84.5308 404.6788,-83.181"/>
<polygon fill="#191970" stroke="#191970" points="405.0924,-79.6909 394.5838,-81.0396 403.6398,-86.5386 405.0924,-79.6909"/>
</g>
<!-- Node31 -->
<g id="node32" class="node">
<title>Node31</title>
<g id="a_node32"><a xlink:href="_coll_mgr_8_h.html" target="_top" xlink:title="amr&#45;wind/core/CollMgr.H">
<polygon fill="#ffffff" stroke="#000000" points="667.5,-62 667.5,-81 792.5,-81 792.5,-62 667.5,-62"/>
<text text-anchor="middle" x="730" y="-69" font-family="Helvetica,sans-Serif" font-size="10.00" fill="#000000">amr&#45;wind/core/CollMgr.H</text>
</a>
</g>
</g>
<!-- Node26&#45;&gt;Node31 -->
<g id="edge53" class="edge">
<title>Node26&#45;&gt;Node31</title>
<path fill="none" stroke="#191970" d="M753.9656,-123.2967C749.417,-113.4658 743.4654,-100.6026 738.6312,-90.1545"/>
<polygon fill="#191970" stroke="#191970" points="741.7967,-88.6609 734.421,-81.055 735.4437,-91.6003 741.7967,-88.6609"/>
</g>
<!-- Node32 -->
<g id="node33" class="node">
<title>Node32</title>
<g id="a_node33"><a xlink:href="_p_d_e_fields_8_h.html" target="_top" xlink:title="amr&#45;wind/equation_systems\l/PDEFields.H">
<polygon fill="#ffffff" stroke="#000000" points="433.5,-56.5 433.5,-86.5 572.5,-86.5 572.5,-56.5 433.5,-56.5"/>
<text text-anchor="start" x="441.5" y="-74.5" font-family="Helvetica,sans-Serif" font-size="10.00" fill="#000000">amr&#45;wind/equation_systems</text>
<text text-anchor="middle" x="503" y="-63.5" font-family="Helvetica,sans-Serif" font-size="10.00" fill="#000000">/PDEFields.H</text>
</a>
</g>
</g>
<!-- Node26&#45;&gt;Node32 -->
<g id="edge58" class="edge">
<title>Node26&#45;&gt;Node32</title>
<path fill="none" stroke="#191970" d="M703.0998,-123.4639C663.9831,-113.3057 612.1821,-99.8535 571.0866,-89.1814"/>
<polygon fill="#191970" stroke="#191970" points="571.7115,-85.7277 561.1528,-86.6017 569.952,-92.5029 571.7115,-85.7277"/>
</g>
<!-- Node27&#45;&gt;Node11 -->
<g id="edge49" class="edge">
<title>Node27&#45;&gt;Node11</title>
<path fill="none" stroke="#191970" d="M394.9704,-61.9378C404.4946,-59.8793 414.5793,-57.7872 424,-56 505.1231,-40.6103 599.8651,-25.9778 657.1009,-17.5014"/>
<polygon fill="#191970" stroke="#191970" points="657.9574,-20.913 667.3398,-15.9915 656.9362,-13.9879 657.9574,-20.913"/>
</g>
<!-- Node27&#45;&gt;Node17 -->
<g id="edge48" class="edge">
<title>Node27&#45;&gt;Node17</title>
<path fill="none" stroke="#191970" d="M391.4779,-61.9581C438.9101,-50.1957 518.8932,-30.3612 565.1057,-18.9012"/>
<polygon fill="#191970" stroke="#191970" points="566.1191,-22.256 574.9826,-16.4519 564.4342,-15.4618 566.1191,-22.256"/>
</g>
<!-- Node28 -->
<g id="node29" class="node">
<title>Node28</title>
<polygon fill="#ffffff" stroke="#bfbfbf" points="229,-.5 229,-19.5 283,-19.5 283,-.5 229,-.5"/>
<text text-anchor="middle" x="256" y="-7.5" font-family="Helvetica,sans-Serif" font-size="10.00" fill="#000000">iostream</text>
</g>
<!-- Node27&#45;&gt;Node28 -->
<g id="edge50" class="edge">
<title>Node27&#45;&gt;Node28</title>
<path fill="none" stroke="#191970" d="M337.8438,-61.8906C322.3257,-52.0519 297.9807,-36.6167 279.8716,-25.1351"/>
<polygon fill="#191970" stroke="#191970" points="281.3696,-21.9407 271.0498,-19.5419 277.6213,-27.8526 281.3696,-21.9407"/>
</g>
<!-- Node29 -->
<g id="node30" class="node">
<title>Node29</title>
<polygon fill="#ffffff" stroke="#bfbfbf" points="301.5,-.5 301.5,-19.5 388.5,-19.5 388.5,-.5 301.5,-.5"/>
<text text-anchor="middle" x="345" y="-7.5" font-family="Helvetica,sans-Serif" font-size="10.00" fill="#000000">AMReX_Print.H</text>
</g>
<!-- Node27&#45;&gt;Node29 -->
<g id="edge51" class="edge">
<title>Node27&#45;&gt;Node29</title>
<path fill="none" stroke="#191970" d="M351.75,-61.8906C350.6411,-53.3657 348.9856,-40.6392 347.5917,-29.9235"/>
<polygon fill="#191970" stroke="#191970" points="351.0284,-29.2098 346.2676,-19.7449 344.0869,-30.1128 351.0284,-29.2098"/>
</g>
<!-- Node30 -->
<g id="node31" class="node">
<title>Node30</title>
<polygon fill="#ffffff" stroke="#bfbfbf" points="407,-.5 407,-19.5 469,-19.5 469,-.5 407,-.5"/>
<text text-anchor="middle" x="438" y="-7.5" font-family="Helvetica,sans-Serif" font-size="10.00" fill="#000000">AMReX.H</text>
</g>
<!-- Node27&#45;&gt;Node30 -->
<g id="edge52" class="edge">
<title>Node27&#45;&gt;Node30</title>
<path fill="none" stroke="#191970" d="M366.2813,-61.8906C379.7548,-52.1421 400.822,-36.8994 416.6435,-25.4521"/>
<polygon fill="#191970" stroke="#191970" points="418.7619,-28.2394 424.812,-19.5419 414.6586,-22.5682 418.7619,-28.2394"/>
</g>
<!-- Node31&#45;&gt;Node10 -->
<g id="edge54" class="edge">
<title>Node31&#45;&gt;Node10</title>
<path fill="none" stroke="#191970" d="M773.44,-61.9776C784.3584,-59.7991 796.0777,-57.6437 807,-56 967.0546,-31.9128 1160.5328,-17.1461 1234.3615,-12.029"/>
<polygon fill="#191970" stroke="#191970" points="1234.6302,-15.5189 1244.3678,-11.3441 1234.1521,-8.5353 1234.6302,-15.5189"/>
</g>
<!-- Node31&#45;&gt;Node11 -->
<g id="edge56" class="edge">
<title>Node31&#45;&gt;Node11</title>
<path fill="none" stroke="#191970" d="M726.7188,-61.8906C723.7465,-53.1862 719.2786,-40.1015 715.573,-29.2494"/>
<polygon fill="#191970" stroke="#191970" points="718.8712,-28.0773 712.3275,-19.7449 712.2468,-30.3394 718.8712,-28.0773"/>
</g>
<!-- Node31&#45;&gt;Node17 -->
<g id="edge55" class="edge">
<title>Node31&#45;&gt;Node17</title>
<path fill="none" stroke="#191970" d="M709.8438,-61.8906C688.449,-51.6908 654.438,-35.4763 630.1298,-23.8875"/>
<polygon fill="#191970" stroke="#191970" points="631.5476,-20.686 621.0147,-19.5419 628.5352,-27.0047 631.5476,-20.686"/>
</g>
<!-- Node31&#45;&gt;Node21 -->
<g id="edge57" class="edge">
<title>Node31&#45;&gt;Node21</title>
<path fill="none" stroke="#191970" d="M762.0313,-61.8906C797.3846,-51.2846 854.4157,-34.1753 893.2478,-22.5257"/>
<polygon fill="#191970" stroke="#191970" points="894.6212,-25.7678 903.1937,-19.5419 892.6097,-19.0631 894.6212,-25.7678"/>
</g>
<!-- Node33 -->
<g id="node34" class="node">
<title>Node33</title>
<polygon fill="#ffffff" stroke="#bfbfbf" points="487.5,-.5 487.5,-19.5 532.5,-19.5 532.5,-.5 487.5,-.5"/>
<text text-anchor="middle" x="510" y="-7.5" font-family="Helvetica,sans-Serif" font-size="10.00" fill="#000000">iosfwd</text>
</g>
<!-- Node32&#45;&gt;Node33 -->
<g id="edge59" class="edge">
<title>Node32&#45;&gt;Node33</title>
<path fill="none" stroke="#191970" d="M504.7303,-56.2977C505.6413,-48.2945 506.7693,-38.3843 507.7476,-29.7889"/>
<polygon fill="#191970" stroke="#191970" points="511.2258,-30.1786 508.8792,-19.8469 504.2707,-29.3869 511.2258,-30.1786"/>
</g>
<!-- Node34&#45;&gt;Node14 -->
<g id="edge65" class="edge">
<title>Node34&#45;&gt;Node14</title>
<path fill="none" stroke="#191970" d="M488.9638,-128.9763C499.0946,-126.8472 509.9093,-124.7147 520,-123 644.1302,-101.9067 676.7729,-107.515 801,-87 869.4546,-75.6953 885.3076,-65.7559 954,-56 1132.8742,-30.5957 1346.1504,-17.8323 1449.5828,-12.7457"/>
<polygon fill="#191970" stroke="#191970" points="1450.0261,-16.2284 1459.845,-12.2486 1449.6873,-9.2366 1450.0261,-16.2284"/>
</g>
<!-- Node34&#45;&gt;Node27 -->
<g id="edge63" class="edge">
<title>Node34&#45;&gt;Node27</title>
<path fill="none" stroke="#191970" d="M433.5321,-128.9005C418.1756,-117.9549 392.8537,-99.9064 374.7024,-86.9688"/>
<polygon fill="#191970" stroke="#191970" points="376.6176,-84.0358 366.4429,-81.0817 372.5546,-89.736 376.6176,-84.0358"/>
</g>
<!-- Node34&#45;&gt;Node31 -->
<g id="edge64" class="edge">
<title>Node34&#45;&gt;Node31</title>
<path fill="none" stroke="#191970" d="M487.2465,-128.9717C537.8143,-116.9998 624.6124,-96.4504 679.5607,-83.4415"/>
<polygon fill="#191970" stroke="#191970" points="680.5095,-86.8137 689.4342,-81.1039 678.8968,-80.002 680.5095,-86.8137"/>
</g>
<!-- Node35 -->
<g id="node36" class="node">
<title>Node35</title>
<polygon fill="#ffffff" stroke="#bfbfbf" points="162,-62 162,-81 272,-81 272,-62 162,-62"/>
<text text-anchor="middle" x="217" y="-69" font-family="Helvetica,sans-Serif" font-size="10.00" fill="#000000">AMReX_Geometry.H</text>
</g>
<!-- Node34&#45;&gt;Node35 -->
<g id="edge66" class="edge">
<title>Node34&#45;&gt;Node35</title>
<path fill="none" stroke="#191970" d="M414.0466,-128.9005C373.3979,-117.0594 304.2127,-96.9054 259.5758,-83.9025"/>
<polygon fill="#191970" stroke="#191970" points="260.4721,-80.5182 249.8923,-81.0817 258.5143,-87.2389 260.4721,-80.5182"/>
</g>
</g>
</svg>
        <g id="navigator" transform="translate(0 0)" fill="#404254">
                <rect fill="#f2f5e9" fill-opacity="0.5" stroke="#606060" stroke-width=".5" x="0" y="0" width="60" height="60"/>
                <use id="zoomplus" xlink:href="#zoomPlus" x="17" y="9" onmousedown="handleZoom(evt,'in')"/>
                <use id="zoomminus" xlink:href="#zoomMin" x="42" y="9" onmousedown="handleZoom(evt,'out')"/>
                <use id="reset" xlink:href="#resetDef" x="30" y="36" onmousedown="handleReset()"/>
                <g id="arrowUp" xlink:href="#dirArrow" transform="translate(30 24)" onmousedown="handlePan(0,-1)">
                  <use xlink:href="#rim" fill="#404040">
                        <set attributeName="fill" to="#808080" begin="arrowUp.mouseover" end="arrowUp.mouseout"/>
                  </use>
                  <path fill="none" stroke="white" stroke-width="1.5" d="M0,-3.0v7 M-2.5,-0.5L0,-3.0L2.5,-0.5"/>
                </g>
                <g id="arrowRight" xlink:href="#dirArrow" transform="rotate(90) translate(36 -43)" onmousedown="handlePan(1,0)">
                  <use xlink:href="#rim" fill="#404040">
                        <set attributeName="fill" to="#808080" begin="arrowRight.mouseover" end="arrowRight.mouseout"/>
                  </use>
                  <path fill="none" stroke="white" stroke-width="1.5" d="M0,-3.0v7 M-2.5,-0.5L0,-3.0L2.5,-0.5"/>
                </g>
                <g id="arrowDown" xlink:href="#dirArrow" transform="rotate(180) translate(-30 -48)" onmousedown="handlePan(0,1)">
                  <use xlink:href="#rim" fill="#404040">
                        <set attributeName="fill" to="#808080" begin="arrowDown.mouseover" end="arrowDown.mouseout"/>
                  </use>
                  <path fill="none" stroke="white" stroke-width="1.5" d="M0,-3.0v7 M-2.5,-0.5L0,-3.0L2.5,-0.5"/>
                </g>
                <g id="arrowLeft" xlink:href="#dirArrow" transform="rotate(270) translate(-36 17)" onmousedown="handlePan(-1,0)">
                  <use xlink:href="#rim" fill="#404040">
                        <set attributeName="fill" to="#808080" begin="arrowLeft.mouseover" end="arrowLeft.mouseout"/>
                  </use>
                  <path fill="none" stroke="white" stroke-width="1.5" d="M0,-3.0v7 M-2.5,-0.5L0,-3.0L2.5,-0.5"/>
                </g>
        </g>
        <svg viewBox="0 0 15 15" width="100%" height="30px" preserveAspectRatio="xMaxYMin meet">
         <g id="arrow_out" transform="scale(0.3 0.3)">
          <a xlink:href="_field_plane_averaging_8_h__incl_org.svg" target="_base">
           <rect id="button" ry="5" rx="5" y="6" x="6" height="38" width="38"
                fill="#f2f5e9" fill-opacity="0.5" stroke="#606060" stroke-width="1.0"/>
           <path id="arrow"
             d="M 11.500037,31.436501 C 11.940474,20.09759 22.043105,11.32322 32.158766,21.979434 L 37.068811,17.246167 C 37.068811,17.246167 37.088388,32 37.088388,32 L 22.160133,31.978069 C 22.160133,31.978069 26.997745,27.140456 26.997745,27.140456 C 18.528582,18.264221 13.291696,25.230495 11.500037,31.436501 z"
             style="fill:#404040;"/>
          </a>
         </g>
        </svg>
</svg>
