<?xml version="1.0" encoding="UTF-8" standalone="no"?>
<!DOCTYPE svg PUBLIC "-//W3C//DTD SVG 1.1//EN"
 "http://www.w3.org/Graphics/SVG/1.1/DTD/svg11.dtd">
<!-- Generated by graphviz version 2.40.1 (20161225.0304)
 -->
<!-- Title: FixedGradientBC.cpp Pages: 1 -->
<svg width="1550pt" height="319pt"
 viewBox="0.00 0.00 1549.64 319.00" xmlns="http://www.w3.org/2000/svg" xmlns:xlink="http://www.w3.org/1999/xlink">
<g id="graph0" class="graph" transform="scale(1 1) rotate(0) translate(4 315)">
<title>FixedGradientBC.cpp</title>
<polygon fill="#ffffff" stroke="transparent" points="-4,4 -4,-315 1545.6377,-315 1545.6377,4 -4,4"/>
<!-- Node0 -->
<g id="node1" class="node">
<title>Node0</title>
<polygon fill="#bfbfbf" stroke="#000000" points="917.5176,-291.5 917.5176,-310.5 1027.5176,-310.5 1027.5176,-291.5 917.5176,-291.5"/>
<text text-anchor="middle" x="972.5176" y="-298.5" font-family="Helvetica,sans-Serif" font-size="10.00" fill="#000000">FixedGradientBC.cpp</text>
</g>
<!-- Node1 -->
<g id="node2" class="node">
<title>Node1</title>
<g id="a_node2"><a xlink:href="_fixed_gradient_b_c_8_h.html" target="_top" xlink:title="amr&#45;wind/boundary_conditions\l/FixedGradientBC.H">
<polygon fill="#ffffff" stroke="#000000" points="898.0176,-224.5 898.0176,-254.5 1047.0176,-254.5 1047.0176,-224.5 898.0176,-224.5"/>
<text text-anchor="start" x="906.0176" y="-242.5" font-family="Helvetica,sans-Serif" font-size="10.00" fill="#000000">amr&#45;wind/boundary_conditions</text>
<text text-anchor="middle" x="972.5176" y="-231.5" font-family="Helvetica,sans-Serif" font-size="10.00" fill="#000000">/FixedGradientBC.H</text>
</a>
</g>
</g>
<!-- Node0&#45;&gt;Node1 -->
<g id="edge1" class="edge">
<title>Node0&#45;&gt;Node1</title>
<path fill="none" stroke="#191970" d="M972.5176,-291.3906C972.5176,-284.2234 972.5176,-274.0862 972.5176,-264.671"/>
<polygon fill="#191970" stroke="#191970" points="976.0177,-264.5446 972.5176,-254.5446 969.0177,-264.5446 976.0177,-264.5446"/>
</g>
<!-- Node2 -->
<g id="node3" class="node">
<title>Node2</title>
<g id="a_node3"><a xlink:href="_field_b_c_ops_8_h.html" target="_top" xlink:title="amr&#45;wind/core/FieldBCOps.H">
<polygon fill="#ffffff" stroke="#000000" points="397.0176,-168.5 397.0176,-187.5 542.0176,-187.5 542.0176,-168.5 397.0176,-168.5"/>
<text text-anchor="middle" x="469.5176" y="-175.5" font-family="Helvetica,sans-Serif" font-size="10.00" fill="#000000">amr&#45;wind/core/FieldBCOps.H</text>
</a>
</g>
</g>
<!-- Node1&#45;&gt;Node2 -->
<g id="edge2" class="edge">
<title>Node1&#45;&gt;Node2</title>
<path fill="none" stroke="#191970" d="M897.7566,-230.3592C805.2452,-219.0482 648.2209,-199.8494 552.1962,-188.1088"/>
<polygon fill="#191970" stroke="#191970" points="552.5871,-184.6306 542.2362,-186.891 551.7375,-191.5789 552.5871,-184.6306"/>
</g>
<!-- Node17 -->
<g id="node18" class="node">
<title>Node17</title>
<g id="a_node18"><a xlink:href="_field_repo_8_h.html" target="_top" xlink:title="amr&#45;wind/core/FieldRepo.H">
<polygon fill="#ffffff" stroke="#000000" points="904.5176,-168.5 904.5176,-187.5 1040.5176,-187.5 1040.5176,-168.5 904.5176,-168.5"/>
<text text-anchor="middle" x="972.5176" y="-175.5" font-family="Helvetica,sans-Serif" font-size="10.00" fill="#000000">amr&#45;wind/core/FieldRepo.H</text>
</a>
</g>
</g>
<!-- Node1&#45;&gt;Node17 -->
<g id="edge22" class="edge">
<title>Node1&#45;&gt;Node17</title>
<path fill="none" stroke="#191970" d="M972.5176,-224.2977C972.5176,-216.3834 972.5176,-206.6043 972.5176,-198.0759"/>
<polygon fill="#191970" stroke="#191970" points="976.0177,-197.8469 972.5176,-187.8469 969.0177,-197.847 976.0177,-197.8469"/>
</g>
<!-- Node24 -->
<g id="node25" class="node">
<title>Node24</title>
<polygon fill="#ffffff" stroke="#bfbfbf" points="1058.5176,-168.5 1058.5176,-187.5 1172.5176,-187.5 1172.5176,-168.5 1058.5176,-168.5"/>
<text text-anchor="middle" x="1115.5176" y="-175.5" font-family="Helvetica,sans-Serif" font-size="10.00" fill="#000000">AMReX_Orientation.H</text>
</g>
<!-- Node1&#45;&gt;Node24 -->
<g id="edge45" class="edge">
<title>Node1&#45;&gt;Node24</title>
<path fill="none" stroke="#191970" d="M1007.4994,-224.4554C1030.836,-214.419 1061.2674,-201.3314 1083.8806,-191.6061"/>
<polygon fill="#191970" stroke="#191970" points="1085.554,-194.6965 1093.3577,-187.5303 1082.7884,-188.2659 1085.554,-194.6965"/>
</g>
<!-- Node3 -->
<g id="node4" class="node">
<title>Node3</title>
<g id="a_node4"><a xlink:href="_field_desc_types_8_h.html" target="_top" xlink:title="amr&#45;wind/core/FieldDescTypes.H">
<polygon fill="#ffffff" stroke="#000000" points="1122.0176,-.5 1122.0176,-19.5 1285.0176,-19.5 1285.0176,-.5 1122.0176,-.5"/>
<text text-anchor="middle" x="1203.5176" y="-7.5" font-family="Helvetica,sans-Serif" font-size="10.00" fill="#000000">amr&#45;wind/core/FieldDescTypes.H</text>
</a>
</g>
</g>
<!-- Node2&#45;&gt;Node3 -->
<g id="edge3" class="edge">
<title>Node2&#45;&gt;Node3</title>
<path fill="none" stroke="#191970" d="M542.1077,-174.7259C688.265,-167.7804 1008.0836,-150.6694 1054.5176,-132 1112.1465,-108.8296 1164.6031,-55.0375 1189.0441,-27.2713"/>
<polygon fill="#191970" stroke="#191970" points="1191.8215,-29.4101 1195.7046,-19.5525 1186.5217,-24.837 1191.8215,-29.4101"/>
</g>
<!-- Node4 -->
<g id="node5" class="node">
<title>Node4</title>
<g id="a_node5"><a xlink:href="_field_8_h.html" target="_top" xlink:title="amr&#45;wind/core/Field.H">
<polygon fill="#ffffff" stroke="#000000" points="413.0176,-112.5 413.0176,-131.5 526.0176,-131.5 526.0176,-112.5 413.0176,-112.5"/>
<text text-anchor="middle" x="469.5176" y="-119.5" font-family="Helvetica,sans-Serif" font-size="10.00" fill="#000000">amr&#45;wind/core/Field.H</text>
</a>
</g>
</g>
<!-- Node2&#45;&gt;Node4 -->
<g id="edge4" class="edge">
<title>Node2&#45;&gt;Node4</title>
<path fill="none" stroke="#191970" d="M469.5176,-168.2455C469.5176,-160.9382 469.5176,-150.6944 469.5176,-141.7046"/>
<polygon fill="#191970" stroke="#191970" points="473.0177,-141.6426 469.5176,-131.6427 466.0177,-141.6427 473.0177,-141.6426"/>
</g>
<!-- Node10 -->
<g id="node11" class="node">
<title>Node10</title>
<polygon fill="#ffffff" stroke="#bfbfbf" points="14.0176,-56.5 14.0176,-75.5 99.0176,-75.5 99.0176,-56.5 14.0176,-56.5"/>
<text text-anchor="middle" x="56.5176" y="-63.5" font-family="Helvetica,sans-Serif" font-size="10.00" fill="#000000">AMReX_Gpu.H</text>
</g>
<!-- Node2&#45;&gt;Node10 -->
<g id="edge18" class="edge">
<title>Node2&#45;&gt;Node10</title>
<path fill="none" stroke="#191970" d="M396.6589,-173.8274C289.514,-167.0473 99.4814,-152.3225 75.5176,-132 62.3287,-120.8151 57.9854,-101.1203 56.6982,-86.1477"/>
<polygon fill="#191970" stroke="#191970" points="60.1794,-85.6623 56.2137,-75.8377 53.1871,-85.991 60.1794,-85.6623"/>
</g>
<!-- Node14 -->
<g id="node15" class="node">
<title>Node14</title>
<polygon fill="#ffffff" stroke="#bfbfbf" points="85.0176,-112.5 85.0176,-131.5 198.0176,-131.5 198.0176,-112.5 85.0176,-112.5"/>
<text text-anchor="middle" x="141.5176" y="-119.5" font-family="Helvetica,sans-Serif" font-size="10.00" fill="#000000">AMReX_FArrayBox.H</text>
</g>
<!-- Node2&#45;&gt;Node14 -->
<g id="edge19" class="edge">
<title>Node2&#45;&gt;Node14</title>
<path fill="none" stroke="#191970" d="M413.5051,-168.4369C356.427,-158.6918 267.9335,-143.5832 207.4952,-133.2645"/>
<polygon fill="#191970" stroke="#191970" points="207.7456,-129.7566 197.2991,-131.5237 206.5674,-136.6568 207.7456,-129.7566"/>
</g>
<!-- Node15 -->
<g id="node16" class="node">
<title>Node15</title>
<polygon fill="#ffffff" stroke="#bfbfbf" points="216.5176,-112.5 216.5176,-131.5 326.5176,-131.5 326.5176,-112.5 216.5176,-112.5"/>
<text text-anchor="middle" x="271.5176" y="-119.5" font-family="Helvetica,sans-Serif" font-size="10.00" fill="#000000">AMReX_Geometry.H</text>
</g>
<!-- Node2&#45;&gt;Node15 -->
<g id="edge20" class="edge">
<title>Node2&#45;&gt;Node15</title>
<path fill="none" stroke="#191970" d="M435.4802,-168.3733C402.1282,-158.9404 351.1649,-144.5265 314.9174,-134.2747"/>
<polygon fill="#191970" stroke="#191970" points="315.686,-130.8548 305.1109,-131.5011 313.7809,-137.5906 315.686,-130.8548"/>
</g>
<!-- Node16 -->
<g id="node17" class="node">
<title>Node16</title>
<polygon fill="#ffffff" stroke="#bfbfbf" points="895.5176,-56.5 895.5176,-75.5 1023.5176,-75.5 1023.5176,-56.5 895.5176,-56.5"/>
<text text-anchor="middle" x="959.5176" y="-63.5" font-family="Helvetica,sans-Serif" font-size="10.00" fill="#000000">AMReX_PhysBCFunct.H</text>
</g>
<!-- Node2&#45;&gt;Node16 -->
<g id="edge21" class="edge">
<title>Node2&#45;&gt;Node16</title>
<path fill="none" stroke="#191970" d="M511.2947,-168.4509C600.7053,-148.0142 810.3787,-100.0889 907.9219,-77.7933"/>
<polygon fill="#191970" stroke="#191970" points="908.8776,-81.1652 917.8462,-75.5249 907.3177,-74.3412 908.8776,-81.1652"/>
</g>
<!-- Node4&#45;&gt;Node3 -->
<g id="edge12" class="edge">
<title>Node4&#45;&gt;Node3</title>
<path fill="none" stroke="#191970" d="M526.199,-117.6539C616.7337,-110.2869 789.7562,-94.3465 848.5176,-76 866.7356,-70.312 868.3672,-61.9001 886.5176,-56 960.1882,-32.0522 1047.543,-20.5463 1111.8776,-15.0326"/>
<polygon fill="#191970" stroke="#191970" points="1112.3211,-18.5081 1121.9997,-14.1982 1111.7459,-11.5317 1112.3211,-18.5081"/>
</g>
<!-- Node5 -->
<g id="node6" class="node">
<title>Node5</title>
<polygon fill="#ffffff" stroke="#bfbfbf" points="752.0176,-.5 752.0176,-19.5 793.0176,-19.5 793.0176,-.5 752.0176,-.5"/>
<text text-anchor="middle" x="772.5176" y="-7.5" font-family="Helvetica,sans-Serif" font-size="10.00" fill="#000000">string</text>
</g>
<!-- Node4&#45;&gt;Node5 -->
<g id="edge5" class="edge">
<title>Node4&#45;&gt;Node5</title>
<path fill="none" stroke="#191970" d="M473.8734,-112.0313C480.9281,-97.1709 496.3366,-69.5134 518.5176,-56 603.1299,-4.4515 641.9175,-42.0205 738.5176,-20 739.5974,-19.7539 740.6935,-19.4929 741.7981,-19.2204"/>
<polygon fill="#191970" stroke="#191970" points="743.0155,-22.5176 751.7671,-16.546 741.2017,-15.7567 743.0155,-22.5176"/>
</g>
<!-- Node6 -->
<g id="node7" class="node">
<title>Node6</title>
<polygon fill="#ffffff" stroke="#bfbfbf" points="301.5176,-56.5 301.5176,-75.5 353.5176,-75.5 353.5176,-56.5 301.5176,-56.5"/>
<text text-anchor="middle" x="327.5176" y="-63.5" font-family="Helvetica,sans-Serif" font-size="10.00" fill="#000000">memory</text>
</g>
<!-- Node4&#45;&gt;Node6 -->
<g id="edge6" class="edge">
<title>Node4&#45;&gt;Node6</title>
<path fill="none" stroke="#191970" d="M445.107,-112.3733C421.9034,-103.2226 386.8138,-89.3844 361.0034,-79.2057"/>
<polygon fill="#191970" stroke="#191970" points="362.1966,-75.9139 351.6098,-75.5011 359.6284,-82.4258 362.1966,-75.9139"/>
</g>
<!-- Node7 -->
<g id="node8" class="node">
<title>Node7</title>
<polygon fill="#ffffff" stroke="#bfbfbf" points="528.0176,-56.5 528.0176,-75.5 611.0176,-75.5 611.0176,-56.5 528.0176,-56.5"/>
<text text-anchor="middle" x="569.5176" y="-63.5" font-family="Helvetica,sans-Serif" font-size="10.00" fill="#000000">unordered_map</text>
</g>
<!-- Node4&#45;&gt;Node7 -->
<g id="edge7" class="edge">
<title>Node4&#45;&gt;Node7</title>
<path fill="none" stroke="#191970" d="M486.9363,-112.2455C502.5662,-103.4928 525.7195,-90.527 543.5362,-80.5496"/>
<polygon fill="#191970" stroke="#191970" points="545.2836,-83.5825 552.2986,-75.6427 541.8634,-77.475 545.2836,-83.5825"/>
</g>
<!-- Node8 -->
<g id="node9" class="node">
<title>Node8</title>
<polygon fill="#ffffff" stroke="#bfbfbf" points="625.5176,-.5 625.5176,-19.5 729.5176,-19.5 729.5176,-.5 625.5176,-.5"/>
<text text-anchor="middle" x="677.5176" y="-7.5" font-family="Helvetica,sans-Serif" font-size="10.00" fill="#000000">AMReX_MultiFab.H</text>
</g>
<!-- Node4&#45;&gt;Node8 -->
<g id="edge8" class="edge">
<title>Node4&#45;&gt;Node8</title>
<path fill="none" stroke="#191970" d="M412.9382,-115.875C322.6438,-105.8292 155.1715,-85.9737 146.5176,-76 140.6922,-69.2861 140.5096,-62.551 146.5176,-56 177.6429,-22.0618 481.4327,-13.0899 615.0226,-10.7778"/>
<polygon fill="#191970" stroke="#191970" points="615.1687,-14.2759 625.1092,-10.6103 615.0524,-7.2769 615.1687,-14.2759"/>
</g>
<!-- Node9 -->
<g id="node10" class="node">
<title>Node9</title>
<polygon fill="#ffffff" stroke="#bfbfbf" points="372.0176,-56.5 372.0176,-75.5 471.0176,-75.5 471.0176,-56.5 372.0176,-56.5"/>
<text text-anchor="middle" x="421.5176" y="-63.5" font-family="Helvetica,sans-Serif" font-size="10.00" fill="#000000">AMReX_BCRec.H</text>
</g>
<!-- Node4&#45;&gt;Node9 -->
<g id="edge9" class="edge">
<title>Node4&#45;&gt;Node9</title>
<path fill="none" stroke="#191970" d="M461.1567,-112.2455C454.3426,-104.2958 444.5495,-92.8706 436.4024,-83.3656"/>
<polygon fill="#191970" stroke="#191970" points="438.9481,-80.9575 429.7828,-75.6427 433.6333,-85.513 438.9481,-80.9575"/>
</g>
<!-- Node4&#45;&gt;Node10 -->
<g id="edge10" class="edge">
<title>Node4&#45;&gt;Node10</title>
<path fill="none" stroke="#191970" d="M412.9906,-115.495C342.6799,-107.2199 219.0238,-92.063 113.5176,-76 112.0588,-75.7779 110.5797,-75.5484 109.0875,-75.313"/>
<polygon fill="#191970" stroke="#191970" points="109.5572,-71.8434 99.1248,-73.6914 108.4326,-78.7525 109.5572,-71.8434"/>
</g>
<!-- Node11 -->
<g id="node12" class="node">
<title>Node11</title>
<g id="a_node12"><a xlink:href="incflo__enums_8_h.html" target="_top" xlink:title="amr&#45;wind/incflo_enums.H">
<polygon fill="#ffffff" stroke="#000000" points="155.5176,-56.5 155.5176,-75.5 283.5176,-75.5 283.5176,-56.5 155.5176,-56.5"/>
<text text-anchor="middle" x="219.5176" y="-63.5" font-family="Helvetica,sans-Serif" font-size="10.00" fill="#000000">amr&#45;wind/incflo_enums.H</text>
</a>
</g>
</g>
<!-- Node4&#45;&gt;Node11 -->
<g id="edge11" class="edge">
<title>Node4&#45;&gt;Node11</title>
<path fill="none" stroke="#191970" d="M426.8251,-112.4369C383.9497,-102.8328 317.8172,-88.0191 271.8174,-77.7152"/>
<polygon fill="#191970" stroke="#191970" points="272.5573,-74.2942 262.034,-75.5237 271.0271,-81.1249 272.5573,-74.2942"/>
</g>
<!-- Node12 -->
<g id="node13" class="node">
<title>Node12</title>
<g id="a_node13"><a xlink:href="_view_field_8_h.html" target="_top" xlink:title="amr&#45;wind/core/ViewField.H">
<polygon fill="#ffffff" stroke="#000000" points="705.5176,-56.5 705.5176,-75.5 839.5176,-75.5 839.5176,-56.5 705.5176,-56.5"/>
<text text-anchor="middle" x="772.5176" y="-63.5" font-family="Helvetica,sans-Serif" font-size="10.00" fill="#000000">amr&#45;wind/core/ViewField.H</text>
</a>
</g>
</g>
<!-- Node4&#45;&gt;Node12 -->
<g id="edge13" class="edge">
<title>Node4&#45;&gt;Node12</title>
<path fill="none" stroke="#191970" d="M521.2609,-112.4369C573.7707,-102.7321 655.062,-87.708 710.8754,-77.3926"/>
<polygon fill="#191970" stroke="#191970" points="711.7904,-80.7829 720.9878,-75.5237 710.5182,-73.8994 711.7904,-80.7829"/>
</g>
<!-- Node12&#45;&gt;Node3 -->
<g id="edge15" class="edge">
<title>Node12&#45;&gt;Node3</title>
<path fill="none" stroke="#191970" d="M839.8614,-57.25C915.4673,-47.4265 1038.2296,-31.4759 1119.9119,-20.8629"/>
<polygon fill="#191970" stroke="#191970" points="1120.6946,-24.2907 1130.1602,-19.5314 1119.7926,-17.3491 1120.6946,-24.2907"/>
</g>
<!-- Node12&#45;&gt;Node5 -->
<g id="edge14" class="edge">
<title>Node12&#45;&gt;Node5</title>
<path fill="none" stroke="#191970" d="M772.5176,-56.2455C772.5176,-48.9382 772.5176,-38.6944 772.5176,-29.7046"/>
<polygon fill="#191970" stroke="#191970" points="776.0177,-29.6426 772.5176,-19.6427 769.0177,-29.6427 776.0177,-29.6426"/>
</g>
<!-- Node12&#45;&gt;Node8 -->
<g id="edge16" class="edge">
<title>Node12&#45;&gt;Node8</title>
<path fill="none" stroke="#191970" d="M755.9699,-56.2455C741.2577,-47.5731 719.5288,-34.7645 702.6671,-24.825"/>
<polygon fill="#191970" stroke="#191970" points="704.2678,-21.7057 693.8757,-19.6427 700.7131,-27.736 704.2678,-21.7057"/>
</g>
<!-- Node13 -->
<g id="node14" class="node">
<title>Node13</title>
<polygon fill="#ffffff" stroke="#bfbfbf" points="910.0176,-.5 910.0176,-19.5 1005.0176,-19.5 1005.0176,-.5 910.0176,-.5"/>
<text text-anchor="middle" x="957.5176" y="-7.5" font-family="Helvetica,sans-Serif" font-size="10.00" fill="#000000">AMReX_Vector.H</text>
</g>
<!-- Node12&#45;&gt;Node13 -->
<g id="edge17" class="edge">
<title>Node12&#45;&gt;Node13</title>
<path fill="none" stroke="#191970" d="M804.3203,-56.3733C835.3493,-46.9807 882.693,-32.6496 916.5324,-22.4064"/>
<polygon fill="#191970" stroke="#191970" points="917.5729,-25.7483 926.13,-19.5011 915.5448,-19.0485 917.5729,-25.7483"/>
</g>
<!-- Node17&#45;&gt;Node3 -->
<g id="edge25" class="edge">
<title>Node17&#45;&gt;Node3</title>
<path fill="none" stroke="#191970" d="M1040.5237,-169.0515C1043.5623,-168.6884 1046.5711,-168.3362 1049.5176,-168 1159.1611,-155.4911 1477.9448,-168.8938 1537.5176,-76 1542.3161,-68.5176 1543.3585,-62.7005 1537.5176,-56 1521.7226,-37.8805 1388.6811,-24.0747 1295.3608,-16.507"/>
<polygon fill="#191970" stroke="#191970" points="1295.5728,-13.0129 1285.3256,-15.7047 1295.0149,-19.9906 1295.5728,-13.0129"/>
</g>
<!-- Node17&#45;&gt;Node4 -->
<g id="edge30" class="edge">
<title>Node17&#45;&gt;Node4</title>
<path fill="none" stroke="#191970" d="M904.4193,-170.4185C807.8306,-159.6651 632.1535,-140.1066 536.2931,-129.4342"/>
<polygon fill="#191970" stroke="#191970" points="536.4659,-125.9319 526.14,-128.3039 535.6913,-132.889 536.4659,-125.9319"/>
</g>
<!-- Node17&#45;&gt;Node5 -->
<g id="edge23" class="edge">
<title>Node17&#45;&gt;Node5</title>
<path fill="none" stroke="#191970" d="M929.6892,-168.4402C859.2242,-151.7476 723.8902,-115.298 696.5176,-76 680.4352,-52.911 714.649,-32.7568 742.2519,-20.9797"/>
<polygon fill="#191970" stroke="#191970" points="743.6932,-24.1722 751.6464,-17.1723 741.0639,-17.6847 743.6932,-24.1722"/>
</g>
<!-- Node17&#45;&gt;Node7 -->
<g id="edge24" class="edge">
<title>Node17&#45;&gt;Node7</title>
<path fill="none" stroke="#191970" d="M904.3025,-174.748C817.2089,-169.613 672.1951,-157.4691 625.5176,-132 605.4175,-121.0326 589.4054,-99.7386 579.736,-84.2966"/>
<polygon fill="#191970" stroke="#191970" points="582.6741,-82.3896 574.5552,-75.5827 576.6572,-85.9669 582.6741,-82.3896"/>
</g>
<!-- Node17&#45;&gt;Node8 -->
<g id="edge43" class="edge">
<title>Node17&#45;&gt;Node8</title>
<path fill="none" stroke="#191970" d="M904.4418,-174.254C774.9929,-166.84 497.8572,-149.4946 403.5176,-132 372.5434,-126.2561 366.4094,-118.1719 335.5176,-112 262.9622,-97.5042 53.9267,-131.0742 4.5176,-76 -1.4183,-69.3835 -1.5497,-62.4962 4.5176,-56 25.1972,-33.8587 452.2778,-17.4533 615.1572,-11.9801"/>
<polygon fill="#191970" stroke="#191970" points="615.6188,-15.4668 625.4966,-11.6355 615.3855,-8.4707 615.6188,-15.4668"/>
</g>
<!-- Node18 -->
<g id="node19" class="node">
<title>Node18</title>
<g id="a_node19"><a xlink:href="_field_utils_8_h.html" target="_top" xlink:title="amr&#45;wind/core/FieldUtils.H">
<polygon fill="#ffffff" stroke="#000000" points="1395.0176,-56.5 1395.0176,-75.5 1528.0176,-75.5 1528.0176,-56.5 1395.0176,-56.5"/>
<text text-anchor="middle" x="1461.5176" y="-63.5" font-family="Helvetica,sans-Serif" font-size="10.00" fill="#000000">amr&#45;wind/core/FieldUtils.H</text>
</a>
</g>
</g>
<!-- Node17&#45;&gt;Node18 -->
<g id="edge26" class="edge">
<title>Node17&#45;&gt;Node18</title>
<path fill="none" stroke="#191970" d="M1040.5272,-169.0812C1043.5648,-168.7101 1046.5724,-168.348 1049.5176,-168 1199.5456,-150.2707 1249.4044,-193.2165 1387.5176,-132 1411.9509,-121.1703 1433.9647,-99.2027 1447.5076,-83.5891"/>
<polygon fill="#191970" stroke="#191970" points="1450.3916,-85.5962 1454.1215,-75.6796 1445.0217,-81.1058 1450.3916,-85.5962"/>
</g>
<!-- Node20 -->
<g id="node21" class="node">
<title>Node20</title>
<g id="a_node21"><a xlink:href="_int_field_8_h.html" target="_top" xlink:title="amr&#45;wind/core/IntField.H">
<polygon fill="#ffffff" stroke="#000000" points="1114.5176,-112.5 1114.5176,-131.5 1238.5176,-131.5 1238.5176,-112.5 1114.5176,-112.5"/>
<text text-anchor="middle" x="1176.5176" y="-119.5" font-family="Helvetica,sans-Serif" font-size="10.00" fill="#000000">amr&#45;wind/core/IntField.H</text>
</a>
</g>
</g>
<!-- Node17&#45;&gt;Node20 -->
<g id="edge31" class="edge">
<title>Node17&#45;&gt;Node20</title>
<path fill="none" stroke="#191970" d="M1007.5865,-168.3733C1041.9491,-158.9404 1094.4568,-144.5265 1131.8027,-134.2747"/>
<polygon fill="#191970" stroke="#191970" points="1133.1897,-137.5235 1141.9064,-131.5011 1131.3366,-130.7732 1133.1897,-137.5235"/>
</g>
<!-- Node21 -->
<g id="node22" class="node">
<title>Node21</title>
<polygon fill="#ffffff" stroke="#bfbfbf" points="1270.0176,-56.5 1270.0176,-75.5 1377.0176,-75.5 1377.0176,-56.5 1270.0176,-56.5"/>
<text text-anchor="middle" x="1323.5176" y="-63.5" font-family="Helvetica,sans-Serif" font-size="10.00" fill="#000000">AMReX_iMultiFab.H</text>
</g>
<!-- Node17&#45;&gt;Node21 -->
<g id="edge44" class="edge">
<title>Node17&#45;&gt;Node21</title>
<path fill="none" stroke="#191970" d="M1040.5295,-169.1005C1043.5665,-168.7242 1046.5734,-168.3557 1049.5176,-168 1120.9991,-159.3632 1323.5166,-185.6666 1371.5176,-132 1386.0157,-115.7907 1365.8725,-95.2923 1347.4165,-81.4752"/>
<polygon fill="#191970" stroke="#191970" points="1349.3671,-78.5677 1339.1859,-75.6364 1345.3169,-84.277 1349.3671,-78.5677"/>
</g>
<!-- Node22 -->
<g id="node23" class="node">
<title>Node22</title>
<g id="a_node23"><a xlink:href="_scratch_field_8_h.html" target="_top" xlink:title="amr&#45;wind/core/ScratchField.H">
<polygon fill="#ffffff" stroke="#000000" points="899.5176,-112.5 899.5176,-131.5 1045.5176,-131.5 1045.5176,-112.5 899.5176,-112.5"/>
<text text-anchor="middle" x="972.5176" y="-119.5" font-family="Helvetica,sans-Serif" font-size="10.00" fill="#000000">amr&#45;wind/core/ScratchField.H</text>
</a>
</g>
</g>
<!-- Node17&#45;&gt;Node22 -->
<g id="edge35" class="edge">
<title>Node17&#45;&gt;Node22</title>
<path fill="none" stroke="#191970" d="M972.5176,-168.2455C972.5176,-160.9382 972.5176,-150.6944 972.5176,-141.7046"/>
<polygon fill="#191970" stroke="#191970" points="976.0177,-141.6426 972.5176,-131.6427 969.0177,-141.6427 976.0177,-141.6426"/>
</g>
<!-- Node23 -->
<g id="node24" class="node">
<title>Node23</title>
<polygon fill="#ffffff" stroke="#bfbfbf" points="1256.5176,-112.5 1256.5176,-131.5 1362.5176,-131.5 1362.5176,-112.5 1256.5176,-112.5"/>
<text text-anchor="middle" x="1309.5176" y="-119.5" font-family="Helvetica,sans-Serif" font-size="10.00" fill="#000000">AMReX_AmrCore.H</text>
</g>
<!-- Node17&#45;&gt;Node23 -->
<g id="edge42" class="edge">
<title>Node17&#45;&gt;Node23</title>
<path fill="none" stroke="#191970" d="M1030.0671,-168.4369C1090.1681,-158.4498 1184.17,-142.8293 1246.3029,-132.5045"/>
<polygon fill="#191970" stroke="#191970" points="1247.0811,-135.9233 1256.3721,-130.8313 1245.9336,-129.018 1247.0811,-135.9233"/>
</g>
<!-- Node18&#45;&gt;Node3 -->
<g id="edge27" class="edge">
<title>Node18&#45;&gt;Node3</title>
<path fill="none" stroke="#191970" d="M1417.459,-56.4369C1373.1188,-46.8127 1304.6765,-31.957 1257.1927,-21.6504"/>
<polygon fill="#191970" stroke="#191970" points="1257.9094,-18.2245 1247.3945,-19.5237 1256.4246,-25.0653 1257.9094,-18.2245"/>
</g>
<!-- Node18&#45;&gt;Node8 -->
<g id="edge28" class="edge">
<title>Node18&#45;&gt;Node8</title>
<path fill="none" stroke="#191970" d="M1394.8916,-56.8471C1392.0644,-56.5439 1389.264,-56.2596 1386.5176,-56 1101.5624,-29.0659 1028.2216,-49.4719 743.5176,-20 742.2532,-19.8691 740.976,-19.7311 739.6893,-19.5868"/>
<polygon fill="#191970" stroke="#191970" points="740.0477,-16.1046 729.6982,-18.3713 739.2023,-23.0534 740.0477,-16.1046"/>
</g>
<!-- Node19 -->
<g id="node20" class="node">
<title>Node19</title>
<polygon fill="#ffffff" stroke="#bfbfbf" points="1403.5176,-.5 1403.5176,-19.5 1519.5176,-19.5 1519.5176,-.5 1403.5176,-.5"/>
<text text-anchor="middle" x="1461.5176" y="-7.5" font-family="Helvetica,sans-Serif" font-size="10.00" fill="#000000">AMReX_Interpolater.H</text>
</g>
<!-- Node18&#45;&gt;Node19 -->
<g id="edge29" class="edge">
<title>Node18&#45;&gt;Node19</title>
<path fill="none" stroke="#191970" d="M1461.5176,-56.2455C1461.5176,-48.9382 1461.5176,-38.6944 1461.5176,-29.7046"/>
<polygon fill="#191970" stroke="#191970" points="1465.0177,-29.6426 1461.5176,-19.6427 1458.0177,-29.6427 1465.0177,-29.6426"/>
</g>
<!-- Node20&#45;&gt;Node3 -->
<g id="edge33" class="edge">
<title>Node20&#45;&gt;Node3</title>
<path fill="none" stroke="#191970" d="M1189.2424,-112.2466C1199.0583,-103.8582 1211.881,-90.7955 1217.5176,-76 1223.3661,-60.6484 1218.6044,-42.3083 1213.1028,-28.8618"/>
<polygon fill="#191970" stroke="#191970" points="1216.244,-27.3144 1208.9149,-19.6637 1209.8733,-30.2151 1216.244,-27.3144"/>
</g>
<!-- Node20&#45;&gt;Node5 -->
<g id="edge32" class="edge">
<title>Node20&#45;&gt;Node5</title>
<path fill="none" stroke="#191970" d="M1161.8216,-112.478C1138.6905,-97.9496 1091.9406,-70.4193 1048.5176,-56 962.436,-27.4153 855.0984,-16.0571 803.3056,-12.003"/>
<polygon fill="#191970" stroke="#191970" points="803.3565,-8.4972 793.1242,-11.2452 802.8368,-15.4779 803.3565,-8.4972"/>
</g>
<!-- Node20&#45;&gt;Node21 -->
<g id="edge34" class="edge">
<title>Node20&#45;&gt;Node21</title>
<path fill="none" stroke="#191970" d="M1201.7878,-112.3733C1225.9142,-103.1822 1262.4538,-89.2624 1289.2053,-79.0713"/>
<polygon fill="#191970" stroke="#191970" points="1290.4783,-82.3318 1298.5772,-75.5011 1287.9863,-75.7904 1290.4783,-82.3318"/>
</g>
<!-- Node22&#45;&gt;Node3 -->
<g id="edge37" class="edge">
<title>Node22&#45;&gt;Node3</title>
<path fill="none" stroke="#191970" d="M997.0601,-112.4317C1019.3502,-103.5561 1053.0027,-89.6906 1081.5176,-76 1115.4394,-59.7135 1153.4037,-38.7196 1177.8376,-24.8327"/>
<polygon fill="#191970" stroke="#191970" points="1179.8648,-27.7055 1186.8115,-19.7059 1176.3923,-21.6275 1179.8648,-27.7055"/>
</g>
<!-- Node22&#45;&gt;Node5 -->
<g id="edge36" class="edge">
<title>Node22&#45;&gt;Node5</title>
<path fill="none" stroke="#191970" d="M992.3711,-112.378C1015.8908,-99.7166 1049.8314,-76.6459 1032.5176,-56 1017.8691,-38.5324 868.9947,-20.4359 803.3408,-13.2351"/>
<polygon fill="#191970" stroke="#191970" points="803.5059,-9.7326 793.1872,-12.1358 802.7523,-16.6919 803.5059,-9.7326"/>
</g>
<!-- Node22&#45;&gt;Node8 -->
<g id="edge39" class="edge">
<title>Node22&#45;&gt;Node8</title>
<path fill="none" stroke="#191970" d="M899.429,-118.4907C827.9834,-113.5728 725.805,-102.0952 696.5176,-76 683.6062,-64.4959 679.226,-44.8436 677.8547,-29.9678"/>
<polygon fill="#191970" stroke="#191970" points="681.3364,-29.5335 677.301,-19.7373 674.3466,-29.9118 681.3364,-29.5335"/>
</g>
<!-- Node22&#45;&gt;Node12 -->
<g id="edge38" class="edge">
<title>Node22&#45;&gt;Node12</title>
<path fill="none" stroke="#191970" d="M938.1364,-112.3733C904.4475,-102.9404 852.9694,-88.5265 816.3558,-78.2747"/>
<polygon fill="#191970" stroke="#191970" points="817.0236,-74.8271 806.4502,-75.5011 815.1361,-81.5679 817.0236,-74.8271"/>
</g>
<!-- Node22&#45;&gt;Node13 -->
<g id="edge40" class="edge">
<title>Node22&#45;&gt;Node13</title>
<path fill="none" stroke="#191970" d="M1008.6952,-112.4647C1041.7794,-101.8403 1083.0946,-82.5914 1065.5176,-56 1053.9811,-38.547 1034.3303,-27.6944 1014.928,-20.9552"/>
<polygon fill="#191970" stroke="#191970" points="1015.7451,-17.5432 1005.1556,-17.8797 1013.6436,-24.2203 1015.7451,-17.5432"/>
</g>
<!-- Node22&#45;&gt;Node16 -->
<g id="edge41" class="edge">
<title>Node22&#45;&gt;Node16</title>
<path fill="none" stroke="#191970" d="M970.2532,-112.2455C968.5382,-104.8579 966.1265,-94.4689 964.0232,-85.4087"/>
<polygon fill="#191970" stroke="#191970" points="967.4268,-84.5922 961.7561,-75.6427 960.6081,-86.1751 967.4268,-84.5922"/>
</g>
</g>
</svg>
