<?xml version="1.0" encoding="UTF-8" standalone="no"?>
<!DOCTYPE svg PUBLIC "-//W3C//DTD SVG 1.1//EN"
 "http://www.w3.org/Graphics/SVG/1.1/DTD/svg11.dtd">
<!-- Generated by graphviz version 2.40.1 (20161225.0304)
 -->
<!-- Title: GeostrophicForcing.H Pages: 1 -->
<svg width="1953pt" height="319pt"
 viewBox="0.00 0.00 1953.00 319.00" xmlns="http://www.w3.org/2000/svg" xmlns:xlink="http://www.w3.org/1999/xlink">
<g id="graph0" class="graph" transform="scale(1 1) rotate(0) translate(4 315)">
<title>GeostrophicForcing.H</title>
<polygon fill="#ffffff" stroke="transparent" points="-4,4 -4,-315 1949,-315 1949,4 -4,4"/>
<!-- Node0 -->
<g id="node1" class="node">
<title>Node0</title>
<polygon fill="#bfbfbf" stroke="#000000" points="638,-291.5 638,-310.5 750,-310.5 750,-291.5 638,-291.5"/>
<text text-anchor="middle" x="694" y="-298.5" font-family="Helvetica,sans-Serif" font-size="10.00" fill="#000000">GeostrophicForcing.H</text>
</g>
<!-- Node1 -->
<g id="node2" class="node">
<title>Node1</title>
<g id="a_node2"><a xlink:href="_momentum_source_8_h.html" target="_top" xlink:title="amr&#45;wind/equation_systems\l/icns/MomentumSource.H">
<polygon fill="#ffffff" stroke="#000000" points="469.5,-224.5 469.5,-254.5 608.5,-254.5 608.5,-224.5 469.5,-224.5"/>
<text text-anchor="start" x="477.5" y="-242.5" font-family="Helvetica,sans-Serif" font-size="10.00" fill="#000000">amr&#45;wind/equation_systems</text>
<text text-anchor="middle" x="539" y="-231.5" font-family="Helvetica,sans-Serif" font-size="10.00" fill="#000000">/icns/MomentumSource.H</text>
</a>
</g>
</g>
<!-- Node0&#45;&gt;Node1 -->
<g id="edge1" class="edge">
<title>Node0&#45;&gt;Node1</title>
<path fill="none" stroke="#191970" d="M669.7813,-291.3906C647.5414,-282.5664 613.9555,-269.2404 586.3886,-258.3026"/>
<polygon fill="#191970" stroke="#191970" points="587.5032,-254.9794 576.9173,-254.5446 584.9215,-261.486 587.5032,-254.9794"/>
</g>
<!-- Node25 -->
<g id="node26" class="node">
<title>Node25</title>
<g id="a_node26"><a xlink:href="_sim_time_8_h.html" target="_top" xlink:title="amr&#45;wind/core/SimTime.H">
<polygon fill="#ffffff" stroke="#000000" points="914.5,-230 914.5,-249 1045.5,-249 1045.5,-230 914.5,-230"/>
<text text-anchor="middle" x="980" y="-237" font-family="Helvetica,sans-Serif" font-size="10.00" fill="#000000">amr&#45;wind/core/SimTime.H</text>
</a>
</g>
</g>
<!-- Node0&#45;&gt;Node25 -->
<g id="edge47" class="edge">
<title>Node0&#45;&gt;Node25</title>
<path fill="none" stroke="#191970" d="M738.3737,-291.4581C788.8889,-280.5956 871.4188,-262.8488 925.7246,-251.1711"/>
<polygon fill="#191970" stroke="#191970" points="926.4815,-254.5884 935.5222,-249.0643 925.0098,-247.7449 926.4815,-254.5884"/>
</g>
<!-- Node2 -->
<g id="node3" class="node">
<title>Node2</title>
<g id="a_node3"><a xlink:href="_factory_8_h.html" target="_top" xlink:title="amr&#45;wind/core/Factory.H">
<polygon fill="#ffffff" stroke="#000000" points="165.5,-112.5 165.5,-131.5 290.5,-131.5 290.5,-112.5 165.5,-112.5"/>
<text text-anchor="middle" x="228" y="-119.5" font-family="Helvetica,sans-Serif" font-size="10.00" fill="#000000">amr&#45;wind/core/Factory.H</text>
</a>
</g>
</g>
<!-- Node1&#45;&gt;Node2 -->
<g id="edge2" class="edge">
<title>Node1&#45;&gt;Node2</title>
<path fill="none" stroke="#191970" d="M469.1177,-229.4552C426.0036,-221.6473 370.2882,-208.5987 324,-188 294.9672,-175.0801 265.4107,-153.1585 246.9092,-138.1512"/>
<polygon fill="#191970" stroke="#191970" points="248.9327,-135.2827 238.9968,-131.6045 244.4703,-140.676 248.9327,-135.2827"/>
</g>
<!-- Node8 -->
<g id="node9" class="node">
<title>Node8</title>
<g id="a_node9"><a xlink:href="_field_desc_types_8_h.html" target="_top" xlink:title="amr&#45;wind/core/FieldDescTypes.H">
<polygon fill="#ffffff" stroke="#000000" points="644.5,-.5 644.5,-19.5 807.5,-19.5 807.5,-.5 644.5,-.5"/>
<text text-anchor="middle" x="726" y="-7.5" font-family="Helvetica,sans-Serif" font-size="10.00" fill="#000000">amr&#45;wind/core/FieldDescTypes.H</text>
</a>
</g>
</g>
<!-- Node1&#45;&gt;Node8 -->
<g id="edge8" class="edge">
<title>Node1&#45;&gt;Node8</title>
<path fill="none" stroke="#191970" d="M510.5957,-224.4355C454.2158,-192.6746 338.0067,-116.7673 391,-56 406.8684,-37.8038 540.6763,-23.9983 634.2949,-16.4545"/>
<polygon fill="#191970" stroke="#191970" points="634.6694,-19.9359 644.3608,-15.6549 634.1151,-12.9578 634.6694,-19.9359"/>
</g>
<!-- Node9 -->
<g id="node10" class="node">
<title>Node9</title>
<g id="a_node10"><a xlink:href="_field_utils_8_h.html" target="_top" xlink:title="amr&#45;wind/core/FieldUtils.H">
<polygon fill="#ffffff" stroke="#000000" points="424.5,-112.5 424.5,-131.5 557.5,-131.5 557.5,-112.5 424.5,-112.5"/>
<text text-anchor="middle" x="491" y="-119.5" font-family="Helvetica,sans-Serif" font-size="10.00" fill="#000000">amr&#45;wind/core/FieldUtils.H</text>
</a>
</g>
</g>
<!-- Node1&#45;&gt;Node9 -->
<g id="edge9" class="edge">
<title>Node1&#45;&gt;Node9</title>
<path fill="none" stroke="#191970" d="M532.7248,-224.1389C523.9982,-202.7768 508.2074,-164.1224 498.7543,-140.982"/>
<polygon fill="#191970" stroke="#191970" points="501.927,-139.4932 494.9051,-131.5595 495.4469,-142.1405 501.927,-139.4932"/>
</g>
<!-- Node10 -->
<g id="node11" class="node">
<title>Node10</title>
<polygon fill="#ffffff" stroke="#bfbfbf" points="826,-.5 826,-19.5 930,-19.5 930,-.5 826,-.5"/>
<text text-anchor="middle" x="878" y="-7.5" font-family="Helvetica,sans-Serif" font-size="10.00" fill="#000000">AMReX_MultiFab.H</text>
</g>
<!-- Node1&#45;&gt;Node10 -->
<g id="edge46" class="edge">
<title>Node1&#45;&gt;Node10</title>
<path fill="none" stroke="#191970" d="M542.3734,-224.3752C551.5556,-184.5795 578.1146,-78.4726 605,-56 607.0335,-54.3003 735.9642,-33.0894 815.8931,-20.0718"/>
<polygon fill="#191970" stroke="#191970" points="816.5582,-23.5097 825.8661,-18.4487 815.4336,-16.6006 816.5582,-23.5097"/>
</g>
<!-- Node12 -->
<g id="node13" class="node">
<title>Node12</title>
<g id="a_node13"><a xlink:href="_field_repo_8_h.html" target="_top" xlink:title="amr&#45;wind/core/FieldRepo.H">
<polygon fill="#ffffff" stroke="#000000" points="715,-168.5 715,-187.5 851,-187.5 851,-168.5 715,-168.5"/>
<text text-anchor="middle" x="783" y="-175.5" font-family="Helvetica,sans-Serif" font-size="10.00" fill="#000000">amr&#45;wind/core/FieldRepo.H</text>
</a>
</g>
</g>
<!-- Node1&#45;&gt;Node12 -->
<g id="edge13" class="edge">
<title>Node1&#45;&gt;Node12</title>
<path fill="none" stroke="#191970" d="M598.6891,-224.4554C640.6511,-213.8789 696.0567,-199.914 735.1271,-190.0663"/>
<polygon fill="#191970" stroke="#191970" points="736.3474,-193.3683 745.1887,-187.5303 734.6365,-186.5806 736.3474,-193.3683"/>
</g>
<!-- Node3 -->
<g id="node4" class="node">
<title>Node3</title>
<polygon fill="#ffffff" stroke="#bfbfbf" points="258,-56.5 258,-75.5 310,-75.5 310,-56.5 258,-56.5"/>
<text text-anchor="middle" x="284" y="-63.5" font-family="Helvetica,sans-Serif" font-size="10.00" fill="#000000">memory</text>
</g>
<!-- Node2&#45;&gt;Node3 -->
<g id="edge3" class="edge">
<title>Node2&#45;&gt;Node3</title>
<path fill="none" stroke="#191970" d="M237.7545,-112.2455C245.8648,-104.1352 257.5925,-92.4075 267.2081,-82.7919"/>
<polygon fill="#191970" stroke="#191970" points="269.7611,-85.1887 274.3573,-75.6427 264.8113,-80.2389 269.7611,-85.1887"/>
</g>
<!-- Node4 -->
<g id="node5" class="node">
<title>Node4</title>
<polygon fill="#ffffff" stroke="#bfbfbf" points="614.5,-56.5 614.5,-75.5 697.5,-75.5 697.5,-56.5 614.5,-56.5"/>
<text text-anchor="middle" x="656" y="-63.5" font-family="Helvetica,sans-Serif" font-size="10.00" fill="#000000">unordered_map</text>
</g>
<!-- Node2&#45;&gt;Node4 -->
<g id="edge4" class="edge">
<title>Node2&#45;&gt;Node4</title>
<path fill="none" stroke="#191970" d="M290.6932,-113.7971C375.5785,-102.6907 525.4919,-83.0758 604.2902,-72.7658"/>
<polygon fill="#191970" stroke="#191970" points="605.0001,-76.2028 614.4615,-71.4349 604.0919,-69.262 605.0001,-76.2028"/>
</g>
<!-- Node5 -->
<g id="node6" class="node">
<title>Node5</title>
<polygon fill="#ffffff" stroke="#bfbfbf" points="0,-56.5 0,-75.5 54,-75.5 54,-56.5 0,-56.5"/>
<text text-anchor="middle" x="27" y="-63.5" font-family="Helvetica,sans-Serif" font-size="10.00" fill="#000000">iostream</text>
</g>
<!-- Node2&#45;&gt;Node5 -->
<g id="edge5" class="edge">
<title>Node2&#45;&gt;Node5</title>
<path fill="none" stroke="#191970" d="M193.4469,-112.3733C157.3324,-102.3115 100.8765,-86.5825 63.9069,-76.2825"/>
<polygon fill="#191970" stroke="#191970" points="64.602,-72.8429 54.0295,-73.5306 62.7232,-79.5861 64.602,-72.8429"/>
</g>
<!-- Node6 -->
<g id="node7" class="node">
<title>Node6</title>
<polygon fill="#ffffff" stroke="#bfbfbf" points="72.5,-56.5 72.5,-75.5 159.5,-75.5 159.5,-56.5 72.5,-56.5"/>
<text text-anchor="middle" x="116" y="-63.5" font-family="Helvetica,sans-Serif" font-size="10.00" fill="#000000">AMReX_Print.H</text>
</g>
<!-- Node2&#45;&gt;Node6 -->
<g id="edge6" class="edge">
<title>Node2&#45;&gt;Node6</title>
<path fill="none" stroke="#191970" d="M208.7465,-112.3733C190.9288,-103.4644 164.2253,-90.1127 144.0406,-80.0203"/>
<polygon fill="#191970" stroke="#191970" points="145.5118,-76.8428 135.0022,-75.5011 142.3813,-83.1038 145.5118,-76.8428"/>
</g>
<!-- Node7 -->
<g id="node8" class="node">
<title>Node7</title>
<polygon fill="#ffffff" stroke="#bfbfbf" points="178,-56.5 178,-75.5 240,-75.5 240,-56.5 178,-56.5"/>
<text text-anchor="middle" x="209" y="-63.5" font-family="Helvetica,sans-Serif" font-size="10.00" fill="#000000">AMReX.H</text>
</g>
<!-- Node2&#45;&gt;Node7 -->
<g id="edge7" class="edge">
<title>Node2&#45;&gt;Node7</title>
<path fill="none" stroke="#191970" d="M224.6905,-112.2455C222.1567,-104.7776 218.5823,-94.2427 215.485,-85.1137"/>
<polygon fill="#191970" stroke="#191970" points="218.7991,-83.9879 212.2716,-75.6427 212.1702,-86.237 218.7991,-83.9879"/>
</g>
<!-- Node9&#45;&gt;Node8 -->
<g id="edge10" class="edge">
<title>Node9&#45;&gt;Node8</title>
<path fill="none" stroke="#191970" d="M457.5947,-112.4344C423.5922,-101.0704 378.6883,-80.53 400,-56 415.266,-38.4287 543.0957,-24.5942 634.059,-16.8553"/>
<polygon fill="#191970" stroke="#191970" points="634.4533,-20.3346 644.1256,-16.0108 633.868,-13.3591 634.4533,-20.3346"/>
</g>
<!-- Node9&#45;&gt;Node10 -->
<g id="edge11" class="edge">
<title>Node9&#45;&gt;Node10</title>
<path fill="none" stroke="#191970" d="M471.8574,-112.2874C448.7311,-99.3332 415.029,-75.7394 433,-56 461.775,-24.3935 773.6001,-25.406 816,-20 816.1014,-19.9871 816.2029,-19.9741 816.3044,-19.9611"/>
<polygon fill="#191970" stroke="#191970" points="816.5027,-23.4664 825.941,-18.653 815.561,-16.53 816.5027,-23.4664"/>
</g>
<!-- Node11 -->
<g id="node12" class="node">
<title>Node11</title>
<polygon fill="#ffffff" stroke="#bfbfbf" points="442,-56.5 442,-75.5 558,-75.5 558,-56.5 442,-56.5"/>
<text text-anchor="middle" x="500" y="-63.5" font-family="Helvetica,sans-Serif" font-size="10.00" fill="#000000">AMReX_Interpolater.H</text>
</g>
<!-- Node9&#45;&gt;Node11 -->
<g id="edge12" class="edge">
<title>Node9&#45;&gt;Node11</title>
<path fill="none" stroke="#191970" d="M492.5677,-112.2455C493.7421,-104.9382 495.3884,-94.6944 496.8332,-85.7046"/>
<polygon fill="#191970" stroke="#191970" points="500.3191,-86.0714 498.4503,-75.6427 493.4078,-84.9606 500.3191,-86.0714"/>
</g>
<!-- Node12&#45;&gt;Node4 -->
<g id="edge15" class="edge">
<title>Node12&#45;&gt;Node4</title>
<path fill="none" stroke="#191970" d="M765.0736,-168.3519C750.0797,-159.8371 728.548,-146.5441 712,-132 695.5189,-117.5147 679.6203,-98.082 669.0015,-84.058"/>
<polygon fill="#191970" stroke="#191970" points="671.5973,-81.6822 662.8327,-75.7297 665.9723,-85.8487 671.5973,-81.6822"/>
</g>
<!-- Node12&#45;&gt;Node8 -->
<g id="edge16" class="edge">
<title>Node12&#45;&gt;Node8</title>
<path fill="none" stroke="#191970" d="M774.0229,-168.1818C766.453,-159.3574 755.9313,-145.7116 750,-132 735.2767,-97.9639 729.5061,-54.6685 727.3028,-29.8685"/>
<polygon fill="#191970" stroke="#191970" points="730.7682,-29.286 726.5031,-19.5876 723.7893,-29.829 730.7682,-29.286"/>
</g>
<!-- Node12&#45;&gt;Node9 -->
<g id="edge17" class="edge">
<title>Node12&#45;&gt;Node9</title>
<path fill="none" stroke="#191970" d="M733.1352,-168.4369C682.6367,-158.7522 604.5165,-143.7703 550.7395,-133.4569"/>
<polygon fill="#191970" stroke="#191970" points="551.1394,-129.9699 540.6591,-131.5237 549.8209,-136.8446 551.1394,-129.9699"/>
</g>
<!-- Node12&#45;&gt;Node10 -->
<g id="edge44" class="edge">
<title>Node12&#45;&gt;Node10</title>
<path fill="none" stroke="#191970" d="M780.4111,-168.4944C775.0435,-146.6269 765.0203,-91.8808 788,-56 797.7307,-40.8064 814.1633,-30.397 830.3446,-23.3798"/>
<polygon fill="#191970" stroke="#191970" points="831.7876,-26.5727 839.7903,-19.6296 829.2045,-20.0667 831.7876,-26.5727"/>
</g>
<!-- Node13 -->
<g id="node14" class="node">
<title>Node13</title>
<polygon fill="#ffffff" stroke="#bfbfbf" points="1395.5,-.5 1395.5,-19.5 1436.5,-19.5 1436.5,-.5 1395.5,-.5"/>
<text text-anchor="middle" x="1416" y="-7.5" font-family="Helvetica,sans-Serif" font-size="10.00" fill="#000000">string</text>
</g>
<!-- Node12&#45;&gt;Node13 -->
<g id="edge14" class="edge">
<title>Node12&#45;&gt;Node13</title>
<path fill="none" stroke="#191970" d="M789.1751,-168.4167C805.7433,-143.7378 854.0158,-78.3747 914,-56 1001.2466,-23.4562 1290.3129,-13.2316 1385.3909,-10.7075"/>
<polygon fill="#191970" stroke="#191970" points="1385.5893,-14.2037 1395.4966,-10.4491 1385.4104,-7.2059 1385.5893,-14.2037"/>
</g>
<!-- Node14 -->
<g id="node15" class="node">
<title>Node14</title>
<g id="a_node15"><a xlink:href="_field_8_h.html" target="_top" xlink:title="amr&#45;wind/core/Field.H">
<polygon fill="#ffffff" stroke="#000000" points="845.5,-112.5 845.5,-131.5 958.5,-131.5 958.5,-112.5 845.5,-112.5"/>
<text text-anchor="middle" x="902" y="-119.5" font-family="Helvetica,sans-Serif" font-size="10.00" fill="#000000">amr&#45;wind/core/Field.H</text>
</a>
</g>
</g>
<!-- Node12&#45;&gt;Node14 -->
<g id="edge18" class="edge">
<title>Node12&#45;&gt;Node14</title>
<path fill="none" stroke="#191970" d="M803.4568,-168.3733C822.4738,-159.4241 851.0175,-145.9917 872.4976,-135.8835"/>
<polygon fill="#191970" stroke="#191970" points="874.2522,-138.926 881.8101,-131.5011 871.2716,-132.5923 874.2522,-138.926"/>
</g>
<!-- Node20 -->
<g id="node21" class="node">
<title>Node20</title>
<g id="a_node21"><a xlink:href="_int_field_8_h.html" target="_top" xlink:title="amr&#45;wind/core/IntField.H">
<polygon fill="#ffffff" stroke="#000000" points="1300,-112.5 1300,-131.5 1424,-131.5 1424,-112.5 1300,-112.5"/>
<text text-anchor="middle" x="1362" y="-119.5" font-family="Helvetica,sans-Serif" font-size="10.00" fill="#000000">amr&#45;wind/core/IntField.H</text>
</a>
</g>
</g>
<!-- Node12&#45;&gt;Node20 -->
<g id="edge32" class="edge">
<title>Node12&#45;&gt;Node20</title>
<path fill="none" stroke="#191970" d="M851.0033,-169.0268C854.0426,-168.6704 857.0523,-168.3263 860,-168 1012.6941,-151.095 1192.0141,-135.7452 1289.6522,-127.7661"/>
<polygon fill="#191970" stroke="#191970" points="1290.0238,-131.2475 1299.7066,-126.947 1289.4553,-124.2707 1290.0238,-131.2475"/>
</g>
<!-- Node21 -->
<g id="node22" class="node">
<title>Node21</title>
<polygon fill="#ffffff" stroke="#bfbfbf" points="1539.5,-56.5 1539.5,-75.5 1646.5,-75.5 1646.5,-56.5 1539.5,-56.5"/>
<text text-anchor="middle" x="1593" y="-63.5" font-family="Helvetica,sans-Serif" font-size="10.00" fill="#000000">AMReX_iMultiFab.H</text>
</g>
<!-- Node12&#45;&gt;Node21 -->
<g id="edge45" class="edge">
<title>Node12&#45;&gt;Node21</title>
<path fill="none" stroke="#191970" d="M851.4071,-168.8764C854.3085,-168.5652 857.1822,-168.2712 860,-168 1113.9952,-143.5551 1184.3768,-189.4247 1433,-132 1481.8739,-120.7115 1535.0423,-96.081 1566.1225,-80.3087"/>
<polygon fill="#191970" stroke="#191970" points="1568.1171,-83.2184 1575.4039,-75.5273 1564.9113,-76.9956 1568.1171,-83.2184"/>
</g>
<!-- Node22 -->
<g id="node23" class="node">
<title>Node22</title>
<g id="a_node23"><a xlink:href="_scratch_field_8_h.html" target="_top" xlink:title="amr&#45;wind/core/ScratchField.H">
<polygon fill="#ffffff" stroke="#000000" points="1621,-112.5 1621,-131.5 1767,-131.5 1767,-112.5 1621,-112.5"/>
<text text-anchor="middle" x="1694" y="-119.5" font-family="Helvetica,sans-Serif" font-size="10.00" fill="#000000">amr&#45;wind/core/ScratchField.H</text>
</a>
</g>
</g>
<!-- Node12&#45;&gt;Node22 -->
<g id="edge36" class="edge">
<title>Node12&#45;&gt;Node22</title>
<path fill="none" stroke="#191970" d="M851.4041,-168.8453C854.3063,-168.5426 857.181,-168.2589 860,-168 1155.1901,-140.8923 1230.0447,-148.8069 1526,-132 1553.5481,-130.4356 1583.6331,-128.6646 1610.6346,-127.0523"/>
<polygon fill="#191970" stroke="#191970" points="1611.0474,-130.5339 1620.8205,-126.4429 1610.6293,-123.5464 1611.0474,-130.5339"/>
</g>
<!-- Node24 -->
<g id="node25" class="node">
<title>Node24</title>
<polygon fill="#ffffff" stroke="#bfbfbf" points="1785,-112.5 1785,-131.5 1891,-131.5 1891,-112.5 1785,-112.5"/>
<text text-anchor="middle" x="1838" y="-119.5" font-family="Helvetica,sans-Serif" font-size="10.00" fill="#000000">AMReX_AmrCore.H</text>
</g>
<!-- Node12&#45;&gt;Node24 -->
<g id="edge43" class="edge">
<title>Node12&#45;&gt;Node24</title>
<path fill="none" stroke="#191970" d="M851.3995,-168.7928C854.303,-168.5045 857.1792,-168.2381 860,-168 1262.7107,-134.0056 1368.8885,-171.8912 1775.0002,-131.9752"/>
<polygon fill="#191970" stroke="#191970" points="1775.3499,-135.4577 1784.9553,-130.9871 1774.6585,-128.492 1775.3499,-135.4577"/>
</g>
<!-- Node14&#45;&gt;Node3 -->
<g id="edge20" class="edge">
<title>Node14&#45;&gt;Node3</title>
<path fill="none" stroke="#191970" d="M845.2433,-116.857C720.1679,-105.5233 423.7175,-78.6605 320.3269,-69.2918"/>
<polygon fill="#191970" stroke="#191970" points="320.3667,-65.7811 310.0916,-68.3643 319.7349,-72.7525 320.3667,-65.7811"/>
</g>
<!-- Node14&#45;&gt;Node4 -->
<g id="edge21" class="edge">
<title>Node14&#45;&gt;Node4</title>
<path fill="none" stroke="#191970" d="M859.9906,-112.4369C817.8896,-102.8529 752.9995,-88.0812 707.7479,-77.78"/>
<polygon fill="#191970" stroke="#191970" points="708.3636,-74.3307 697.8361,-75.5237 706.8098,-81.1561 708.3636,-74.3307"/>
</g>
<!-- Node14&#45;&gt;Node8 -->
<g id="edge26" class="edge">
<title>Node14&#45;&gt;Node8</title>
<path fill="none" stroke="#191970" d="M886.9943,-112.4509C856.3408,-92.9441 786.3322,-48.3932 749.5571,-24.9909"/>
<polygon fill="#191970" stroke="#191970" points="751.2834,-21.9409 740.9677,-19.5249 747.5252,-27.8465 751.2834,-21.9409"/>
</g>
<!-- Node14&#45;&gt;Node10 -->
<g id="edge22" class="edge">
<title>Node14&#45;&gt;Node10</title>
<path fill="none" stroke="#191970" d="M899.9538,-112.4509C896.0217,-94.1013 887.3409,-53.5908 882.1506,-29.3693"/>
<polygon fill="#191970" stroke="#191970" points="885.5587,-28.5695 880.041,-19.5249 878.7141,-30.0363 885.5587,-28.5695"/>
</g>
<!-- Node14&#45;&gt;Node13 -->
<g id="edge19" class="edge">
<title>Node14&#45;&gt;Node13</title>
<path fill="none" stroke="#191970" d="M903.75,-112.4387C907.0182,-97.596 915.5619,-69.3339 935,-56 972.1267,-30.5323 1285.2367,-15.4299 1385.3507,-11.218"/>
<polygon fill="#191970" stroke="#191970" points="1385.5757,-14.7118 1395.4223,-10.801 1385.286,-7.7177 1385.5757,-14.7118"/>
</g>
<!-- Node15 -->
<g id="node16" class="node">
<title>Node15</title>
<polygon fill="#ffffff" stroke="#bfbfbf" points="944.5,-56.5 944.5,-75.5 1043.5,-75.5 1043.5,-56.5 944.5,-56.5"/>
<text text-anchor="middle" x="994" y="-63.5" font-family="Helvetica,sans-Serif" font-size="10.00" fill="#000000">AMReX_BCRec.H</text>
</g>
<!-- Node14&#45;&gt;Node15 -->
<g id="edge23" class="edge">
<title>Node14&#45;&gt;Node15</title>
<path fill="none" stroke="#191970" d="M918.0252,-112.2455C932.1408,-103.6534 952.9263,-91.0014 969.1899,-81.1018"/>
<polygon fill="#191970" stroke="#191970" points="971.4363,-83.8319 978.1585,-75.6427 967.7966,-77.8525 971.4363,-83.8319"/>
</g>
<!-- Node16 -->
<g id="node17" class="node">
<title>Node16</title>
<polygon fill="#ffffff" stroke="#bfbfbf" points="1061.5,-56.5 1061.5,-75.5 1146.5,-75.5 1146.5,-56.5 1061.5,-56.5"/>
<text text-anchor="middle" x="1104" y="-63.5" font-family="Helvetica,sans-Serif" font-size="10.00" fill="#000000">AMReX_Gpu.H</text>
</g>
<!-- Node14&#45;&gt;Node16 -->
<g id="edge24" class="edge">
<title>Node14&#45;&gt;Node16</title>
<path fill="none" stroke="#191970" d="M936.725,-112.3733C970.7508,-102.9404 1022.7437,-88.5265 1059.7234,-78.2747"/>
<polygon fill="#191970" stroke="#191970" points="1061.0266,-81.5455 1069.7281,-75.5011 1059.1565,-74.7999 1061.0266,-81.5455"/>
</g>
<!-- Node17 -->
<g id="node18" class="node">
<title>Node17</title>
<g id="a_node18"><a xlink:href="incflo__enums_8_h.html" target="_top" xlink:title="amr&#45;wind/incflo_enums.H">
<polygon fill="#ffffff" stroke="#000000" points="1165,-56.5 1165,-75.5 1293,-75.5 1293,-56.5 1165,-56.5"/>
<text text-anchor="middle" x="1229" y="-63.5" font-family="Helvetica,sans-Serif" font-size="10.00" fill="#000000">amr&#45;wind/incflo_enums.H</text>
</a>
</g>
</g>
<!-- Node14&#45;&gt;Node17 -->
<g id="edge25" class="edge">
<title>Node14&#45;&gt;Node17</title>
<path fill="none" stroke="#191970" d="M957.8418,-112.4369C1014.7458,-102.6918 1102.9696,-87.5832 1163.2236,-77.2645"/>
<polygon fill="#191970" stroke="#191970" points="1164.1229,-80.6615 1173.3886,-75.5237 1162.9412,-73.7619 1164.1229,-80.6615"/>
</g>
<!-- Node18 -->
<g id="node19" class="node">
<title>Node18</title>
<g id="a_node19"><a xlink:href="_view_field_8_h.html" target="_top" xlink:title="amr&#45;wind/core/ViewField.H">
<polygon fill="#ffffff" stroke="#000000" points="1349,-56.5 1349,-75.5 1483,-75.5 1483,-56.5 1349,-56.5"/>
<text text-anchor="middle" x="1416" y="-63.5" font-family="Helvetica,sans-Serif" font-size="10.00" fill="#000000">amr&#45;wind/core/ViewField.H</text>
</a>
</g>
</g>
<!-- Node14&#45;&gt;Node18 -->
<g id="edge27" class="edge">
<title>Node14&#45;&gt;Node18</title>
<path fill="none" stroke="#191970" d="M958.9709,-115.7931C1051.4263,-105.7201 1234.2693,-85.7995 1338.4812,-74.4456"/>
<polygon fill="#191970" stroke="#191970" points="1339.062,-77.9032 1348.624,-73.3406 1338.3037,-70.9443 1339.062,-77.9032"/>
</g>
<!-- Node18&#45;&gt;Node8 -->
<g id="edge29" class="edge">
<title>Node18&#45;&gt;Node8</title>
<path fill="none" stroke="#191970" d="M1348.8468,-57.4291C1344.1638,-56.9177 1339.5132,-56.4351 1335,-56 1108.5403,-34.1675 1048.5447,-40.4229 817.8831,-20.0443"/>
<polygon fill="#191970" stroke="#191970" points="818.1082,-16.5506 807.8371,-19.1496 817.4871,-23.523 818.1082,-16.5506"/>
</g>
<!-- Node18&#45;&gt;Node10 -->
<g id="edge30" class="edge">
<title>Node18&#45;&gt;Node10</title>
<path fill="none" stroke="#191970" d="M1348.8301,-57.5893C1344.1511,-57.0398 1339.506,-56.5049 1335,-56 1193.9797,-40.1998 1028.1881,-24.1384 940.2064,-15.8138"/>
<polygon fill="#191970" stroke="#191970" points="940.4129,-12.3178 930.1281,-14.8618 939.7546,-19.2868 940.4129,-12.3178"/>
</g>
<!-- Node18&#45;&gt;Node13 -->
<g id="edge28" class="edge">
<title>Node18&#45;&gt;Node13</title>
<path fill="none" stroke="#191970" d="M1416,-56.2455C1416,-48.9382 1416,-38.6944 1416,-29.7046"/>
<polygon fill="#191970" stroke="#191970" points="1419.5001,-29.6426 1416,-19.6427 1412.5001,-29.6427 1419.5001,-29.6426"/>
</g>
<!-- Node19 -->
<g id="node20" class="node">
<title>Node19</title>
<polygon fill="#ffffff" stroke="#bfbfbf" points="1597.5,-.5 1597.5,-19.5 1692.5,-19.5 1692.5,-.5 1597.5,-.5"/>
<text text-anchor="middle" x="1645" y="-7.5" font-family="Helvetica,sans-Serif" font-size="10.00" fill="#000000">AMReX_Vector.H</text>
</g>
<!-- Node18&#45;&gt;Node19 -->
<g id="edge31" class="edge">
<title>Node18&#45;&gt;Node19</title>
<path fill="none" stroke="#191970" d="M1455.1063,-56.4369C1494.1332,-46.8932 1554.1965,-32.2052 1596.2962,-21.9101"/>
<polygon fill="#191970" stroke="#191970" points="1597.1726,-25.299 1606.055,-19.5237 1595.5098,-18.4993 1597.1726,-25.299"/>
</g>
<!-- Node20&#45;&gt;Node8 -->
<g id="edge34" class="edge">
<title>Node20&#45;&gt;Node8</title>
<path fill="none" stroke="#191970" d="M1356.5094,-112.2371C1347.4033,-97.1181 1327.6127,-68.4842 1302,-56 1207.6029,-9.9886 940.3452,-28.7552 818.1459,-19.9718"/>
<polygon fill="#191970" stroke="#191970" points="818.0901,-16.4558 807.8387,-19.1314 817.5211,-23.4326 818.0901,-16.4558"/>
</g>
<!-- Node20&#45;&gt;Node13 -->
<g id="edge33" class="edge">
<title>Node20&#45;&gt;Node13</title>
<path fill="none" stroke="#191970" d="M1404.7394,-112.4972C1438.4987,-104.0233 1481.6007,-90.7109 1492,-76 1508.2425,-53.0233 1473.9874,-32.8402 1446.3319,-21.0261"/>
<polygon fill="#191970" stroke="#191970" points="1447.5008,-17.7233 1436.9186,-17.2055 1444.8682,-24.2094 1447.5008,-17.7233"/>
</g>
<!-- Node20&#45;&gt;Node21 -->
<g id="edge35" class="edge">
<title>Node20&#45;&gt;Node21</title>
<path fill="none" stroke="#191970" d="M1401.4478,-112.4369C1440.8156,-102.8932 1501.4034,-88.2052 1543.8708,-77.9101"/>
<polygon fill="#191970" stroke="#191970" points="1544.821,-81.2812 1553.7149,-75.5237 1543.1717,-74.4783 1544.821,-81.2812"/>
</g>
<!-- Node22&#45;&gt;Node8 -->
<g id="edge38" class="edge">
<title>Node22&#45;&gt;Node8</title>
<path fill="none" stroke="#191970" d="M1691.6081,-112.2706C1687.3284,-97.1975 1676.7956,-68.6254 1656,-56 1578.4994,-8.948 947.3013,-26.0487 817.8432,-19.8552"/>
<polygon fill="#191970" stroke="#191970" points="818.0209,-16.3596 807.8286,-19.2521 817.6001,-23.347 818.0209,-16.3596"/>
</g>
<!-- Node22&#45;&gt;Node10 -->
<g id="edge40" class="edge">
<title>Node22&#45;&gt;Node10</title>
<path fill="none" stroke="#191970" d="M1696.7302,-112.3156C1700.1573,-97.8266 1703.9279,-70.6476 1689,-56 1662.3723,-29.8723 1125.5624,-15.5073 940.2578,-11.3122"/>
<polygon fill="#191970" stroke="#191970" points="940.2067,-7.8102 930.1307,-11.0851 940.0497,-14.8085 940.2067,-7.8102"/>
</g>
<!-- Node22&#45;&gt;Node13 -->
<g id="edge37" class="edge">
<title>Node22&#45;&gt;Node13</title>
<path fill="none" stroke="#191970" d="M1705.4729,-112.1605C1720.1243,-98.4284 1741.8981,-73.2637 1727,-56 1708.8166,-34.9293 1522.181,-18.2334 1447.0659,-12.317"/>
<polygon fill="#191970" stroke="#191970" points="1447.0665,-8.8066 1436.8258,-11.5231 1446.5253,-15.7857 1447.0665,-8.8066"/>
</g>
<!-- Node22&#45;&gt;Node18 -->
<g id="edge39" class="edge">
<title>Node22&#45;&gt;Node18</title>
<path fill="none" stroke="#191970" d="M1646.526,-112.4369C1598.5486,-102.7724 1524.383,-87.8326 1473.1949,-77.5213"/>
<polygon fill="#191970" stroke="#191970" points="1473.7725,-74.0674 1463.2782,-75.5237 1472.3901,-80.9296 1473.7725,-74.0674"/>
</g>
<!-- Node22&#45;&gt;Node19 -->
<g id="edge41" class="edge">
<title>Node22&#45;&gt;Node19</title>
<path fill="none" stroke="#191970" d="M1718.6103,-112.4333C1745.011,-100.6924 1781.1151,-79.436 1765,-56 1756.3113,-43.3642 1722.3548,-31.0353 1692.7711,-22.3269"/>
<polygon fill="#191970" stroke="#191970" points="1693.5258,-18.9025 1682.9488,-19.5172 1691.6006,-25.6325 1693.5258,-18.9025"/>
</g>
<!-- Node23 -->
<g id="node24" class="node">
<title>Node23</title>
<polygon fill="#ffffff" stroke="#bfbfbf" points="1817,-56.5 1817,-75.5 1945,-75.5 1945,-56.5 1817,-56.5"/>
<text text-anchor="middle" x="1881" y="-63.5" font-family="Helvetica,sans-Serif" font-size="10.00" fill="#000000">AMReX_PhysBCFunct.H</text>
</g>
<!-- Node22&#45;&gt;Node23 -->
<g id="edge42" class="edge">
<title>Node22&#45;&gt;Node23</title>
<path fill="none" stroke="#191970" d="M1726.1464,-112.3733C1757.5109,-102.9807 1805.3665,-88.6496 1839.5716,-78.4064"/>
<polygon fill="#191970" stroke="#191970" points="1840.6975,-81.7229 1849.273,-75.5011 1838.6893,-75.0171 1840.6975,-81.7229"/>
</g>
<!-- Node26 -->
<g id="node27" class="node">
<title>Node26</title>
<polygon fill="#ffffff" stroke="#bfbfbf" points="869.5,-168.5 869.5,-187.5 962.5,-187.5 962.5,-168.5 869.5,-168.5"/>
<text text-anchor="middle" x="916" y="-175.5" font-family="Helvetica,sans-Serif" font-size="10.00" fill="#000000">AMReX_REAL.H</text>
</g>
<!-- Node25&#45;&gt;Node26 -->
<g id="edge48" class="edge">
<title>Node25&#45;&gt;Node26</title>
<path fill="none" stroke="#191970" d="M970,-229.8906C960.2881,-220.5581 945.3361,-206.1902 933.6259,-194.9374"/>
<polygon fill="#191970" stroke="#191970" points="935.7766,-192.15 926.141,-187.7449 930.9264,-197.1974 935.7766,-192.15"/>
</g>
<!-- Node27 -->
<g id="node28" class="node">
<title>Node27</title>
<polygon fill="#ffffff" stroke="#bfbfbf" points="981,-168.5 981,-187.5 1107,-187.5 1107,-168.5 981,-168.5"/>
<text text-anchor="middle" x="1044" y="-175.5" font-family="Helvetica,sans-Serif" font-size="10.00" fill="#000000">AMReX_GpuQualifiers.H</text>
</g>
<!-- Node25&#45;&gt;Node27 -->
<g id="edge49" class="edge">
<title>Node25&#45;&gt;Node27</title>
<path fill="none" stroke="#191970" d="M990,-229.8906C999.7119,-220.5581 1014.6639,-206.1902 1026.3741,-194.9374"/>
<polygon fill="#191970" stroke="#191970" points="1029.0736,-197.1974 1033.859,-187.7449 1024.2234,-192.15 1029.0736,-197.1974"/>
</g>
<!-- Node28 -->
<g id="node29" class="node">
<title>Node28</title>
<polygon fill="#ffffff" stroke="#bfbfbf" points="1125,-168.5 1125,-187.5 1235,-187.5 1235,-168.5 1125,-168.5"/>
<text text-anchor="middle" x="1180" y="-175.5" font-family="Helvetica,sans-Serif" font-size="10.00" fill="#000000">AMReX_Extension.H</text>
</g>
<!-- Node25&#45;&gt;Node28 -->
<g id="edge50" class="edge">
<title>Node25&#45;&gt;Node28</title>
<path fill="none" stroke="#191970" d="M1011.25,-229.8906C1045.7411,-219.2846 1101.3812,-202.1753 1139.2662,-190.5257"/>
<polygon fill="#191970" stroke="#191970" points="1140.4399,-193.8266 1148.9694,-187.5419 1138.3824,-187.1357 1140.4399,-193.8266"/>
</g>
</g>
</svg>
