<?xml version="1.0" encoding="UTF-8" standalone="no"?>
<!DOCTYPE svg PUBLIC "-//W3C//DTD SVG 1.1//EN"
 "http://www.w3.org/Graphics/SVG/1.1/DTD/svg11.dtd">
<!-- Generated by graphviz version 2.40.1 (20161225.0304)
 -->
<!-- Title: Godunov.H Pages: 1 -->
<!--zoomable 196 -->
<svg id="main" version="1.1" xmlns="http://www.w3.org/2000/svg" xmlns:xlink="http://www.w3.org/1999/xlink" xml:space="preserve" onload="init(evt)">
<style type="text/css"><![CDATA[
.edge:hover path { stroke: red; }
.edge:hover polygon { stroke: red; fill: red; }
]]></style>
<script type="text/javascript"><![CDATA[
var edges = document.getElementsByTagName('g');
if (edges && edges.length) {
  for (var i=0;i<edges.length;i++) {
    if (edges[i].id.substr(0,4)=='edge') {
      edges[i].setAttribute('class','edge');
    }
  }
}
]]></script>
        <defs>
                <circle id="rim" cx="0" cy="0" r="7"/>
                <circle id="rim2" cx="0" cy="0" r="3.5"/>
                <g id="zoomPlus">
                        <use xlink:href="#rim" fill="#404040">
                                <set attributeName="fill" to="#808080" begin="zoomplus.mouseover" end="zoomplus.mouseout"/>
                        </use>
                        <path d="M-4,0h8M0,-4v8" fill="none" stroke="white" stroke-width="1.5" pointer-events="none"/>
                </g>
                <g id="zoomMin">
                        <use xlink:href="#rim" fill="#404040">
                                <set attributeName="fill" to="#808080" begin="zoomminus.mouseover" end="zoomminus.mouseout"/>
                        </use>
                        <path d="M-4,0h8" fill="none" stroke="white" stroke-width="1.5" pointer-events="none"/>
                </g>
                <g id="dirArrow">
                        <path fill="none" stroke="white" stroke-width="1.5" d="M0,-3.0v7 M-2.5,-0.5L0,-3.0L2.5,-0.5"/>
                </g>
               <g id="resetDef">
                       <use xlink:href="#rim2" fill="#404040">
                               <set attributeName="fill" to="#808080" begin="reset.mouseover" end="reset.mouseout"/>
                       </use>
               </g>
        </defs>

<script type="text/javascript">
var viewWidth = 1096;
var viewHeight = 196;
var sectionId = 'dynsection-1';
</script>
<script xlink:href="svgpan.js"/>
<svg id="graph" class="graph">
<g id="viewport">
<title>Godunov.H</title>
<polygon fill="#ffffff" stroke="transparent" points="-4,4 -4,-192 1091.5,-192 1091.5,4 -4,4"/>
<!-- Node20 -->
<g id="node1" class="node">
<title>Node20</title>
<polygon fill="#bfbfbf" stroke="#000000" points="410,-168.5 410,-187.5 476,-187.5 476,-168.5 410,-168.5"/>
<text text-anchor="middle" x="443" y="-175.5" font-family="Helvetica,sans-Serif" font-size="10.00" fill="#000000">Godunov.H</text>
</g>
<!-- Node21 -->
<g id="node2" class="node">
<title>Node21</title>
<g id="a_node2"><a xlink:href="incflo__godunov__advection_8cpp.html" target="_top" xlink:title="incflo_godunov_advection.cpp">
<polygon fill="#ffffff" stroke="#000000" points="0,-112.5 0,-131.5 148,-131.5 148,-112.5 0,-112.5"/>
<text text-anchor="middle" x="74" y="-119.5" font-family="Helvetica,sans-Serif" font-size="10.00" fill="#000000">incflo_godunov_advection.cpp</text>
</a>
</g>
</g>
<!-- Node20&#45;&gt;Node21 -->
<g id="edge1" class="edge">
<title>Node20&#45;&gt;Node21</title>
<path fill="none" stroke="#191970" d="M400.0289,-171.4786C335.111,-161.6266 211.673,-142.8935 136.7113,-131.5172"/>
<polygon fill="#191970" stroke="#191970" points="399.517,-174.9409 409.929,-172.9811 400.5674,-168.0202 399.517,-174.9409"/>
</g>
<!-- Node22 -->
<g id="node3" class="node">
<title>Node22</title>
<g id="a_node3"><a xlink:href="incflo__godunov__plm_8cpp.html" target="_top" xlink:title="incflo_godunov_plm.cpp">
<polygon fill="#ffffff" stroke="#000000" points="166,-112.5 166,-131.5 288,-131.5 288,-112.5 166,-112.5"/>
<text text-anchor="middle" x="227" y="-119.5" font-family="Helvetica,sans-Serif" font-size="10.00" fill="#000000">incflo_godunov_plm.cpp</text>
</a>
</g>
</g>
<!-- Node20&#45;&gt;Node22 -->
<g id="edge2" class="edge">
<title>Node20&#45;&gt;Node22</title>
<path fill="none" stroke="#191970" d="M400.0348,-166.8609C360.2408,-156.5439 301.6773,-141.3608 263.9351,-131.5758"/>
<polygon fill="#191970" stroke="#191970" points="399.165,-170.251 409.7234,-169.3727 400.9218,-163.475 399.165,-170.251"/>
</g>
<!-- Node23 -->
<g id="node4" class="node">
<title>Node23</title>
<g id="a_node4"><a xlink:href="incflo__godunov__ppm_8cpp.html" target="_top" xlink:title="incflo_godunov_ppm.cpp">
<polygon fill="#ffffff" stroke="#000000" points="306.5,-112.5 306.5,-131.5 431.5,-131.5 431.5,-112.5 306.5,-112.5"/>
<text text-anchor="middle" x="369" y="-119.5" font-family="Helvetica,sans-Serif" font-size="10.00" fill="#000000">incflo_godunov_ppm.cpp</text>
</a>
</g>
</g>
<!-- Node20&#45;&gt;Node23 -->
<g id="edge3" class="edge">
<title>Node20&#45;&gt;Node23</title>
<path fill="none" stroke="#191970" d="M422.1343,-162.2097C409.1375,-152.3743 392.8378,-140.0394 381.7421,-131.6427"/>
<polygon fill="#191970" stroke="#191970" points="420.024,-165.002 430.1102,-168.2455 424.2482,-159.4201 420.024,-165.002"/>
</g>
<!-- Node24 -->
<g id="node5" class="node">
<title>Node24</title>
<g id="a_node5"><a xlink:href="incflo__godunov__predict_8cpp.html" target="_top" xlink:title="incflo_godunov_predict.cpp">
<polygon fill="#ffffff" stroke="#000000" points="449.5,-112.5 449.5,-131.5 584.5,-131.5 584.5,-112.5 449.5,-112.5"/>
<text text-anchor="middle" x="517" y="-119.5" font-family="Helvetica,sans-Serif" font-size="10.00" fill="#000000">incflo_godunov_predict.cpp</text>
</a>
</g>
</g>
<!-- Node20&#45;&gt;Node24 -->
<g id="edge4" class="edge">
<title>Node20&#45;&gt;Node24</title>
<path fill="none" stroke="#191970" d="M463.8657,-162.2097C476.8625,-152.3743 493.1622,-140.0394 504.2579,-131.6427"/>
<polygon fill="#191970" stroke="#191970" points="461.7518,-159.4201 455.8898,-168.2455 465.976,-165.002 461.7518,-159.4201"/>
</g>
<!-- Node25 -->
<g id="node6" class="node">
<title>Node25</title>
<g id="a_node6"><a xlink:href="incflo__godunov__weno_8cpp.html" target="_top" xlink:title="incflo_godunov_weno.cpp">
<polygon fill="#ffffff" stroke="#000000" points="602.5,-112.5 602.5,-131.5 731.5,-131.5 731.5,-112.5 602.5,-112.5"/>
<text text-anchor="middle" x="667" y="-119.5" font-family="Helvetica,sans-Serif" font-size="10.00" fill="#000000">incflo_godunov_weno.cpp</text>
</a>
</g>
</g>
<!-- Node20&#45;&gt;Node25 -->
<g id="edge5" class="edge">
<title>Node20&#45;&gt;Node25</title>
<path fill="none" stroke="#191970" d="M485.8384,-167.2904C527.2055,-156.9486 589.257,-141.4358 628.9341,-131.5165"/>
<polygon fill="#191970" stroke="#191970" points="484.9045,-163.9161 476.052,-169.737 486.6023,-170.7071 484.9045,-163.9161"/>
</g>
<!-- Node26 -->
<g id="node7" class="node">
<title>Node26</title>
<g id="a_node7"><a xlink:href="_adv_op___godunov_8_h.html" target="_top" xlink:title="AdvOp_Godunov.H">
<polygon fill="#ffffff" stroke="#000000" points="749.5,-112.5 749.5,-131.5 850.5,-131.5 850.5,-112.5 749.5,-112.5"/>
<text text-anchor="middle" x="800" y="-119.5" font-family="Helvetica,sans-Serif" font-size="10.00" fill="#000000">AdvOp_Godunov.H</text>
</a>
</g>
</g>
<!-- Node20&#45;&gt;Node26 -->
<g id="edge6" class="edge">
<title>Node20&#45;&gt;Node26</title>
<path fill="none" stroke="#191970" d="M485.9998,-171.5659C543.954,-162.8475 650.3271,-146.6816 741,-132 743.769,-131.5516 746.6102,-131.0866 749.4776,-130.6135"/>
<polygon fill="#191970" stroke="#191970" points="485.4672,-168.1065 476.0983,-173.0538 486.5074,-175.0288 485.4672,-168.1065"/>
</g>
<!-- Node27 -->
<g id="node8" class="node">
<title>Node27</title>
<g id="a_node8"><a xlink:href="density_8cpp.html" target="_top" xlink:title="density.cpp">
<polygon fill="#ffffff" stroke="#000000" points="485.5,-56.5 485.5,-75.5 552.5,-75.5 552.5,-56.5 485.5,-56.5"/>
<text text-anchor="middle" x="519" y="-63.5" font-family="Helvetica,sans-Serif" font-size="10.00" fill="#000000">density.cpp</text>
</a>
</g>
</g>
<!-- Node26&#45;&gt;Node27 -->
<g id="edge7" class="edge">
<title>Node26&#45;&gt;Node27</title>
<path fill="none" stroke="#191970" d="M739.3296,-110.9242C691.1581,-101.9734 622.1409,-88.8003 562,-76 559.0014,-75.3618 555.89,-74.6789 552.7743,-73.9808"/>
<polygon fill="#191970" stroke="#191970" points="738.8114,-114.3876 749.2818,-112.7684 740.0869,-107.5048 738.8114,-114.3876"/>
</g>
<!-- Node28 -->
<g id="node9" class="node">
<title>Node28</title>
<g id="a_node9"><a xlink:href="icns__ops_8_h.html" target="_top" xlink:title="icns_ops.H">
<polygon fill="#ffffff" stroke="#000000" points="571,-56.5 571,-75.5 637,-75.5 637,-56.5 571,-56.5"/>
<text text-anchor="middle" x="604" y="-63.5" font-family="Helvetica,sans-Serif" font-size="10.00" fill="#000000">icns_ops.H</text>
</a>
</g>
</g>
<!-- Node26&#45;&gt;Node28 -->
<g id="edge8" class="edge">
<title>Node26&#45;&gt;Node28</title>
<path fill="none" stroke="#191970" d="M756.5587,-109.5882C720.5484,-99.2996 670.1132,-84.8895 637.2539,-75.5011"/>
<polygon fill="#191970" stroke="#191970" points="755.7296,-112.9913 766.3064,-112.3733 757.6527,-106.2606 755.7296,-112.9913"/>
</g>
<!-- Node30 -->
<g id="node11" class="node">
<title>Node30</title>
<g id="a_node11"><a xlink:href="icns__advection_8_h.html" target="_top" xlink:title="icns_advection.H">
<polygon fill="#ffffff" stroke="#000000" points="655,-56.5 655,-75.5 747,-75.5 747,-56.5 655,-56.5"/>
<text text-anchor="middle" x="701" y="-63.5" font-family="Helvetica,sans-Serif" font-size="10.00" fill="#000000">icns_advection.H</text>
</a>
</g>
</g>
<!-- Node26&#45;&gt;Node30 -->
<g id="edge10" class="edge">
<title>Node26&#45;&gt;Node30</title>
<path fill="none" stroke="#191970" d="M773.5643,-107.0465C755.9492,-97.0824 733.3153,-84.2794 718.0469,-75.6427"/>
<polygon fill="#191970" stroke="#191970" points="772.3283,-110.3684 782.7555,-112.2455 775.7747,-104.2756 772.3283,-110.3684"/>
</g>
<!-- Node32 -->
<g id="node13" class="node">
<title>Node32</title>
<g id="a_node13"><a xlink:href="levelset_8cpp.html" target="_top" xlink:title="levelset.cpp">
<polygon fill="#ffffff" stroke="#000000" points="765.5,-56.5 765.5,-75.5 834.5,-75.5 834.5,-56.5 765.5,-56.5"/>
<text text-anchor="middle" x="800" y="-63.5" font-family="Helvetica,sans-Serif" font-size="10.00" fill="#000000">levelset.cpp</text>
</a>
</g>
</g>
<!-- Node26&#45;&gt;Node32 -->
<g id="edge13" class="edge">
<title>Node26&#45;&gt;Node32</title>
<path fill="none" stroke="#191970" d="M800,-102.1575C800,-93.155 800,-82.9199 800,-75.6427"/>
<polygon fill="#191970" stroke="#191970" points="796.5001,-102.2455 800,-112.2455 803.5001,-102.2456 796.5001,-102.2455"/>
</g>
<!-- Node33 -->
<g id="node14" class="node">
<title>Node33</title>
<g id="a_node14"><a xlink:href="_s_d_r_8cpp.html" target="_top" xlink:title="SDR.cpp">
<polygon fill="#ffffff" stroke="#000000" points="852.5,-56.5 852.5,-75.5 909.5,-75.5 909.5,-56.5 852.5,-56.5"/>
<text text-anchor="middle" x="881" y="-63.5" font-family="Helvetica,sans-Serif" font-size="10.00" fill="#000000">SDR.cpp</text>
</a>
</g>
</g>
<!-- Node26&#45;&gt;Node33 -->
<g id="edge14" class="edge">
<title>Node26&#45;&gt;Node33</title>
<path fill="none" stroke="#191970" d="M822.434,-106.49C836.7254,-96.6096 854.7916,-84.1194 867.0526,-75.6427"/>
<polygon fill="#191970" stroke="#191970" points="820.3443,-103.6797 814.1091,-112.2455 824.3251,-109.4376 820.3443,-103.6797"/>
</g>
<!-- Node34 -->
<g id="node15" class="node">
<title>Node34</title>
<g id="a_node15"><a xlink:href="temperature_8cpp.html" target="_top" xlink:title="temperature.cpp">
<polygon fill="#ffffff" stroke="#000000" points="927.5,-56.5 927.5,-75.5 1014.5,-75.5 1014.5,-56.5 927.5,-56.5"/>
<text text-anchor="middle" x="971" y="-63.5" font-family="Helvetica,sans-Serif" font-size="10.00" fill="#000000">temperature.cpp</text>
</a>
</g>
</g>
<!-- Node26&#45;&gt;Node34 -->
<g id="edge15" class="edge">
<title>Node26&#45;&gt;Node34</title>
<path fill="none" stroke="#191970" d="M839.1148,-109.1905C870.4432,-98.9309 913.6871,-84.7691 941.9876,-75.5011"/>
<polygon fill="#191970" stroke="#191970" points="837.81,-105.9348 829.3959,-112.3733 839.9886,-112.5872 837.81,-105.9348"/>
</g>
<!-- Node35 -->
<g id="node16" class="node">
<title>Node35</title>
<g id="a_node16"><a xlink:href="_t_k_e_8cpp.html" target="_top" xlink:title="TKE.cpp">
<polygon fill="#ffffff" stroke="#000000" points="1032.5,-56.5 1032.5,-75.5 1087.5,-75.5 1087.5,-56.5 1032.5,-56.5"/>
<text text-anchor="middle" x="1060" y="-63.5" font-family="Helvetica,sans-Serif" font-size="10.00" fill="#000000">TKE.cpp</text>
</a>
</g>
</g>
<!-- Node26&#45;&gt;Node35 -->
<g id="edge16" class="edge">
<title>Node26&#45;&gt;Node35</title>
<path fill="none" stroke="#191970" d="M860.865,-110.6688C906.0573,-101.9724 969.1044,-89.2446 1024,-76 1026.6484,-75.361 1029.3968,-74.6625 1032.1411,-73.9413"/>
<polygon fill="#191970" stroke="#191970" points="860.0923,-107.253 850.9289,-112.5712 861.4087,-114.1282 860.0923,-107.253"/>
</g>
<!-- Node29 -->
<g id="node10" class="node">
<title>Node29</title>
<g id="a_node10"><a xlink:href="icns_8cpp.html" target="_top" xlink:title="icns.cpp">
<polygon fill="#ffffff" stroke="#000000" points="578.5,-.5 578.5,-19.5 631.5,-19.5 631.5,-.5 578.5,-.5"/>
<text text-anchor="middle" x="605" y="-7.5" font-family="Helvetica,sans-Serif" font-size="10.00" fill="#000000">icns.cpp</text>
</a>
</g>
</g>
<!-- Node28&#45;&gt;Node29 -->
<g id="edge9" class="edge">
<title>Node28&#45;&gt;Node29</title>
<path fill="none" stroke="#191970" d="M604.3543,-46.1575C604.5151,-37.155 604.6979,-26.9199 604.8278,-19.6427"/>
<polygon fill="#191970" stroke="#191970" points="600.8534,-46.1846 604.1742,-56.2455 607.8523,-46.3097 600.8534,-46.1846"/>
</g>
<!-- Node30&#45;&gt;Node29 -->
<g id="edge11" class="edge">
<title>Node30&#45;&gt;Node29</title>
<path fill="none" stroke="#191970" d="M675.3654,-51.0465C658.2841,-41.0824 636.336,-28.2794 621.5303,-19.6427"/>
<polygon fill="#191970" stroke="#191970" points="673.8767,-54.23 684.2781,-56.2455 677.4038,-48.1836 673.8767,-54.23"/>
</g>
<!-- Node31 -->
<g id="node12" class="node">
<title>Node31</title>
<g id="a_node12"><a xlink:href="icns__advection_8cpp.html" target="_top" xlink:title="icns_advection.cpp">
<polygon fill="#ffffff" stroke="#000000" points="650.5,-.5 650.5,-19.5 751.5,-19.5 751.5,-.5 650.5,-.5"/>
<text text-anchor="middle" x="701" y="-7.5" font-family="Helvetica,sans-Serif" font-size="10.00" fill="#000000">icns_advection.cpp</text>
</a>
</g>
</g>
<!-- Node30&#45;&gt;Node31 -->
<g id="edge12" class="edge">
<title>Node30&#45;&gt;Node31</title>
<path fill="none" stroke="#191970" d="M701,-46.1575C701,-37.155 701,-26.9199 701,-19.6427"/>
<polygon fill="#191970" stroke="#191970" points="697.5001,-46.2455 701,-56.2455 704.5001,-46.2456 697.5001,-46.2455"/>
</g>
</g>
</svg>
        <g id="navigator" transform="translate(0 0)" fill="#404254">
                <rect fill="#f2f5e9" fill-opacity="0.5" stroke="#606060" stroke-width=".5" x="0" y="0" width="60" height="60"/>
                <use id="zoomplus" xlink:href="#zoomPlus" x="17" y="9" onmousedown="handleZoom(evt,'in')"/>
                <use id="zoomminus" xlink:href="#zoomMin" x="42" y="9" onmousedown="handleZoom(evt,'out')"/>
                <use id="reset" xlink:href="#resetDef" x="30" y="36" onmousedown="handleReset()"/>
                <g id="arrowUp" xlink:href="#dirArrow" transform="translate(30 24)" onmousedown="handlePan(0,-1)">
                  <use xlink:href="#rim" fill="#404040">
                        <set attributeName="fill" to="#808080" begin="arrowUp.mouseover" end="arrowUp.mouseout"/>
                  </use>
                  <path fill="none" stroke="white" stroke-width="1.5" d="M0,-3.0v7 M-2.5,-0.5L0,-3.0L2.5,-0.5"/>
                </g>
                <g id="arrowRight" xlink:href="#dirArrow" transform="rotate(90) translate(36 -43)" onmousedown="handlePan(1,0)">
                  <use xlink:href="#rim" fill="#404040">
                        <set attributeName="fill" to="#808080" begin="arrowRight.mouseover" end="arrowRight.mouseout"/>
                  </use>
                  <path fill="none" stroke="white" stroke-width="1.5" d="M0,-3.0v7 M-2.5,-0.5L0,-3.0L2.5,-0.5"/>
                </g>
                <g id="arrowDown" xlink:href="#dirArrow" transform="rotate(180) translate(-30 -48)" onmousedown="handlePan(0,1)">
                  <use xlink:href="#rim" fill="#404040">
                        <set attributeName="fill" to="#808080" begin="arrowDown.mouseover" end="arrowDown.mouseout"/>
                  </use>
                  <path fill="none" stroke="white" stroke-width="1.5" d="M0,-3.0v7 M-2.5,-0.5L0,-3.0L2.5,-0.5"/>
                </g>
                <g id="arrowLeft" xlink:href="#dirArrow" transform="rotate(270) translate(-36 17)" onmousedown="handlePan(-1,0)">
                  <use xlink:href="#rim" fill="#404040">
                        <set attributeName="fill" to="#808080" begin="arrowLeft.mouseover" end="arrowLeft.mouseout"/>
                  </use>
                  <path fill="none" stroke="white" stroke-width="1.5" d="M0,-3.0v7 M-2.5,-0.5L0,-3.0L2.5,-0.5"/>
                </g>
        </g>
        <svg viewBox="0 0 15 15" width="100%" height="30px" preserveAspectRatio="xMaxYMin meet">
         <g id="arrow_out" transform="scale(0.3 0.3)">
          <a xlink:href="_godunov_8_h__dep__incl_org.svg" target="_base">
           <rect id="button" ry="5" rx="5" y="6" x="6" height="38" width="38"
                fill="#f2f5e9" fill-opacity="0.5" stroke="#606060" stroke-width="1.0"/>
           <path id="arrow"
             d="M 11.500037,31.436501 C 11.940474,20.09759 22.043105,11.32322 32.158766,21.979434 L 37.068811,17.246167 C 37.068811,17.246167 37.088388,32 37.088388,32 L 22.160133,31.978069 C 22.160133,31.978069 26.997745,27.140456 26.997745,27.140456 C 18.528582,18.264221 13.291696,25.230495 11.500037,31.436501 z"
             style="fill:#404040;"/>
          </a>
         </g>
        </svg>
</svg>
