<?xml version="1.0" encoding="UTF-8" standalone="no"?>
<!DOCTYPE svg PUBLIC "-//W3C//DTD SVG 1.1//EN"
 "http://www.w3.org/Graphics/SVG/1.1/DTD/svg11.dtd">
<!-- Generated by graphviz version 2.40.1 (20161225.0304)
 -->
<!-- Title: Godunov.H Pages: 1 -->
<!--zoomable 252 -->
<svg id="main" version="1.1" xmlns="http://www.w3.org/2000/svg" xmlns:xlink="http://www.w3.org/1999/xlink" xml:space="preserve" onload="init(evt)">
<style type="text/css"><![CDATA[
.edge:hover path { stroke: red; }
.edge:hover polygon { stroke: red; fill: red; }
]]></style>
<script type="text/javascript"><![CDATA[
var edges = document.getElementsByTagName('g');
if (edges && edges.length) {
  for (var i=0;i<edges.length;i++) {
    if (edges[i].id.substr(0,4)=='edge') {
      edges[i].setAttribute('class','edge');
    }
  }
}
]]></script>
        <defs>
                <circle id="rim" cx="0" cy="0" r="7"/>
                <circle id="rim2" cx="0" cy="0" r="3.5"/>
                <g id="zoomPlus">
                        <use xlink:href="#rim" fill="#404040">
                                <set attributeName="fill" to="#808080" begin="zoomplus.mouseover" end="zoomplus.mouseout"/>
                        </use>
                        <path d="M-4,0h8M0,-4v8" fill="none" stroke="white" stroke-width="1.5" pointer-events="none"/>
                </g>
                <g id="zoomMin">
                        <use xlink:href="#rim" fill="#404040">
                                <set attributeName="fill" to="#808080" begin="zoomminus.mouseover" end="zoomminus.mouseout"/>
                        </use>
                        <path d="M-4,0h8" fill="none" stroke="white" stroke-width="1.5" pointer-events="none"/>
                </g>
                <g id="dirArrow">
                        <path fill="none" stroke="white" stroke-width="1.5" d="M0,-3.0v7 M-2.5,-0.5L0,-3.0L2.5,-0.5"/>
                </g>
               <g id="resetDef">
                       <use xlink:href="#rim2" fill="#404040">
                               <set attributeName="fill" to="#808080" begin="reset.mouseover" end="reset.mouseout"/>
                       </use>
               </g>
        </defs>

<script type="text/javascript">
var viewWidth = 1660;
var viewHeight = 252;
var sectionId = 'dynsection-0';
</script>
<script xlink:href="svgpan.js"/>
<svg id="graph" class="graph">
<g id="viewport">
<title>Godunov.H</title>
<polygon fill="#ffffff" stroke="transparent" points="-4,4 -4,-248 1656.1033,-248 1656.1033,4 -4,4"/>
<!-- Node0 -->
<g id="node1" class="node">
<title>Node0</title>
<polygon fill="#bfbfbf" stroke="#000000" points="667.1033,-224.5 667.1033,-243.5 733.1033,-243.5 733.1033,-224.5 667.1033,-224.5"/>
<text text-anchor="middle" x="700.1033" y="-231.5" font-family="Helvetica,sans-Serif" font-size="10.00" fill="#000000">Godunov.H</text>
</g>
<!-- Node1 -->
<g id="node2" class="node">
<title>Node1</title>
<g id="a_node2"><a xlink:href="_field_repo_8_h.html" target="_top" xlink:title="amr&#45;wind/core/FieldRepo.H">
<polygon fill="#ffffff" stroke="#000000" points="632.1033,-168.5 632.1033,-187.5 768.1033,-187.5 768.1033,-168.5 632.1033,-168.5"/>
<text text-anchor="middle" x="700.1033" y="-175.5" font-family="Helvetica,sans-Serif" font-size="10.00" fill="#000000">amr&#45;wind/core/FieldRepo.H</text>
</a>
</g>
</g>
<!-- Node0&#45;&gt;Node1 -->
<g id="edge1" class="edge">
<title>Node0&#45;&gt;Node1</title>
<path fill="none" stroke="#191970" d="M700.1033,-224.2455C700.1033,-216.9382 700.1033,-206.6944 700.1033,-197.7046"/>
<polygon fill="#191970" stroke="#191970" points="703.6034,-197.6426 700.1033,-187.6427 696.6034,-197.6427 703.6034,-197.6426"/>
</g>
<!-- Node2 -->
<g id="node3" class="node">
<title>Node2</title>
<polygon fill="#ffffff" stroke="#bfbfbf" points="1199.6033,-.5 1199.6033,-19.5 1240.6033,-19.5 1240.6033,-.5 1199.6033,-.5"/>
<text text-anchor="middle" x="1220.1033" y="-7.5" font-family="Helvetica,sans-Serif" font-size="10.00" fill="#000000">string</text>
</g>
<!-- Node1&#45;&gt;Node2 -->
<g id="edge2" class="edge">
<title>Node1&#45;&gt;Node2</title>
<path fill="none" stroke="#191970" d="M768.1345,-176.2066C910.0935,-171.9596 1233.5216,-159.5105 1340.1033,-132 1397.4807,-117.1899 1429.1922,-125.9318 1461.1033,-76 1465.8901,-68.5101 1466.7689,-62.8493 1461.1033,-56 1447.7575,-39.866 1312.7405,-21.3794 1250.8284,-13.6719"/>
<polygon fill="#191970" stroke="#191970" points="1251.2076,-10.1923 1240.855,-12.445 1250.3529,-17.1399 1251.2076,-10.1923"/>
</g>
<!-- Node3 -->
<g id="node4" class="node">
<title>Node3</title>
<polygon fill="#ffffff" stroke="#bfbfbf" points="203.6033,-56.5 203.6033,-75.5 286.6033,-75.5 286.6033,-56.5 203.6033,-56.5"/>
<text text-anchor="middle" x="245.1033" y="-63.5" font-family="Helvetica,sans-Serif" font-size="10.00" fill="#000000">unordered_map</text>
</g>
<!-- Node1&#45;&gt;Node3 -->
<g id="edge3" class="edge">
<title>Node1&#45;&gt;Node3</title>
<path fill="none" stroke="#191970" d="M647.5624,-168.4566C601.7977,-159.859 533.7678,-146.3908 475.1033,-132 407.9621,-115.5298 330.9204,-92.583 285.2219,-78.5397"/>
<polygon fill="#191970" stroke="#191970" points="285.9964,-75.1159 275.409,-75.5128 283.9331,-81.8049 285.9964,-75.1159"/>
</g>
<!-- Node4 -->
<g id="node5" class="node">
<title>Node4</title>
<g id="a_node5"><a xlink:href="_field_desc_types_8_h.html" target="_top" xlink:title="amr&#45;wind/core/FieldDescTypes.H">
<polygon fill="#ffffff" stroke="#000000" points="667.6033,-.5 667.6033,-19.5 830.6033,-19.5 830.6033,-.5 667.6033,-.5"/>
<text text-anchor="middle" x="749.1033" y="-7.5" font-family="Helvetica,sans-Serif" font-size="10.00" fill="#000000">amr&#45;wind/core/FieldDescTypes.H</text>
</a>
</g>
</g>
<!-- Node1&#45;&gt;Node4 -->
<g id="edge4" class="edge">
<title>Node1&#45;&gt;Node4</title>
<path fill="none" stroke="#191970" d="M631.8375,-172.8022C480.04,-159.9657 132.5575,-122.8579 194.1033,-56 224.7687,-22.6879 507.7137,-13.497 657.3223,-10.9631"/>
<polygon fill="#191970" stroke="#191970" points="657.4775,-14.4612 667.4192,-10.7988 657.3635,-7.4621 657.4775,-14.4612"/>
</g>
<!-- Node5 -->
<g id="node6" class="node">
<title>Node5</title>
<g id="a_node6"><a xlink:href="_field_utils_8_h.html" target="_top" xlink:title="amr&#45;wind/core/FieldUtils.H">
<polygon fill="#ffffff" stroke="#000000" points="13.6033,-56.5 13.6033,-75.5 146.6033,-75.5 146.6033,-56.5 13.6033,-56.5"/>
<text text-anchor="middle" x="80.1033" y="-63.5" font-family="Helvetica,sans-Serif" font-size="10.00" fill="#000000">amr&#45;wind/core/FieldUtils.H</text>
</a>
</g>
</g>
<!-- Node1&#45;&gt;Node5 -->
<g id="edge5" class="edge">
<title>Node1&#45;&gt;Node5</title>
<path fill="none" stroke="#191970" d="M632.0452,-177.1615C506.7616,-174.8044 244.7917,-165.8562 161.1033,-132 134.7552,-121.3408 110.3163,-99.005 95.32,-83.2792"/>
<polygon fill="#191970" stroke="#191970" points="97.7318,-80.7318 88.3785,-75.7551 92.5868,-85.4783 97.7318,-80.7318"/>
</g>
<!-- Node6 -->
<g id="node7" class="node">
<title>Node6</title>
<polygon fill="#ffffff" stroke="#bfbfbf" points="263.1033,-.5 263.1033,-19.5 367.1033,-19.5 367.1033,-.5 263.1033,-.5"/>
<text text-anchor="middle" x="315.1033" y="-7.5" font-family="Helvetica,sans-Serif" font-size="10.00" fill="#000000">AMReX_MultiFab.H</text>
</g>
<!-- Node1&#45;&gt;Node6 -->
<g id="edge35" class="edge">
<title>Node1&#45;&gt;Node6</title>
<path fill="none" stroke="#191970" d="M631.919,-175.5192C501.1906,-170.2719 219.937,-156.4749 126.1033,-132 68.3732,-116.9421 36.3104,-126.2216 4.1033,-76 -.6952,-68.5176 -1.7041,-62.7295 4.1033,-56 20.1013,-37.4617 166.4944,-22.3097 252.6082,-14.9061"/>
<polygon fill="#191970" stroke="#191970" points="253.1298,-18.3746 262.7983,-14.042 252.5382,-11.3996 253.1298,-18.3746"/>
</g>
<!-- Node8 -->
<g id="node9" class="node">
<title>Node8</title>
<g id="a_node9"><a xlink:href="_field_8_h.html" target="_top" xlink:title="amr&#45;wind/core/Field.H">
<polygon fill="#ffffff" stroke="#000000" points="484.6033,-112.5 484.6033,-131.5 597.6033,-131.5 597.6033,-112.5 484.6033,-112.5"/>
<text text-anchor="middle" x="541.1033" y="-119.5" font-family="Helvetica,sans-Serif" font-size="10.00" fill="#000000">amr&#45;wind/core/Field.H</text>
</a>
</g>
</g>
<!-- Node1&#45;&gt;Node8 -->
<g id="edge9" class="edge">
<title>Node1&#45;&gt;Node8</title>
<path fill="none" stroke="#191970" d="M672.7702,-168.3733C646.5599,-159.1419 606.805,-145.1402 577.8365,-134.9375"/>
<polygon fill="#191970" stroke="#191970" points="578.6745,-131.5219 568.0797,-131.5011 576.3491,-138.1244 578.6745,-131.5219"/>
</g>
<!-- Node15 -->
<g id="node16" class="node">
<title>Node15</title>
<g id="a_node16"><a xlink:href="_int_field_8_h.html" target="_top" xlink:title="amr&#45;wind/core/IntField.H">
<polygon fill="#ffffff" stroke="#000000" points="908.1033,-112.5 908.1033,-131.5 1032.1033,-131.5 1032.1033,-112.5 908.1033,-112.5"/>
<text text-anchor="middle" x="970.1033" y="-119.5" font-family="Helvetica,sans-Serif" font-size="10.00" fill="#000000">amr&#45;wind/core/IntField.H</text>
</a>
</g>
</g>
<!-- Node1&#45;&gt;Node15 -->
<g id="edge23" class="edge">
<title>Node1&#45;&gt;Node15</title>
<path fill="none" stroke="#191970" d="M746.2112,-168.4369C792.7108,-158.7925 864.5392,-143.8948 914.2433,-133.5858"/>
<polygon fill="#191970" stroke="#191970" points="915.1048,-136.9817 924.1856,-131.5237 913.6832,-130.1275 915.1048,-136.9817"/>
</g>
<!-- Node16 -->
<g id="node17" class="node">
<title>Node16</title>
<polygon fill="#ffffff" stroke="#bfbfbf" points="856.6033,-56.5 856.6033,-75.5 963.6033,-75.5 963.6033,-56.5 856.6033,-56.5"/>
<text text-anchor="middle" x="910.1033" y="-63.5" font-family="Helvetica,sans-Serif" font-size="10.00" fill="#000000">AMReX_iMultiFab.H</text>
</g>
<!-- Node1&#45;&gt;Node16 -->
<g id="edge36" class="edge">
<title>Node1&#45;&gt;Node16</title>
<path fill="none" stroke="#191970" d="M718.0078,-168.4509C754.9705,-148.7375 839.891,-103.4465 883.3765,-80.2543"/>
<polygon fill="#191970" stroke="#191970" points="885.0677,-83.3191 892.2442,-75.5249 881.7735,-77.1426 885.0677,-83.3191"/>
</g>
<!-- Node17 -->
<g id="node18" class="node">
<title>Node17</title>
<g id="a_node18"><a xlink:href="_scratch_field_8_h.html" target="_top" xlink:title="amr&#45;wind/core/ScratchField.H">
<polygon fill="#ffffff" stroke="#000000" points="1185.1033,-112.5 1185.1033,-131.5 1331.1033,-131.5 1331.1033,-112.5 1185.1033,-112.5"/>
<text text-anchor="middle" x="1258.1033" y="-119.5" font-family="Helvetica,sans-Serif" font-size="10.00" fill="#000000">amr&#45;wind/core/ScratchField.H</text>
</a>
</g>
</g>
<!-- Node1&#45;&gt;Node17 -->
<g id="edge27" class="edge">
<title>Node1&#45;&gt;Node17</title>
<path fill="none" stroke="#191970" d="M768.2459,-171.1613C870.7281,-160.8764 1064.2855,-141.4513 1174.938,-130.3463"/>
<polygon fill="#191970" stroke="#191970" points="1175.4531,-133.8123 1185.0535,-129.3312 1174.754,-126.8473 1175.4531,-133.8123"/>
</g>
<!-- Node19 -->
<g id="node20" class="node">
<title>Node19</title>
<polygon fill="#ffffff" stroke="#bfbfbf" points="1546.1033,-112.5 1546.1033,-131.5 1652.1033,-131.5 1652.1033,-112.5 1546.1033,-112.5"/>
<text text-anchor="middle" x="1599.1033" y="-119.5" font-family="Helvetica,sans-Serif" font-size="10.00" fill="#000000">AMReX_AmrCore.H</text>
</g>
<!-- Node1&#45;&gt;Node19 -->
<g id="edge34" class="edge">
<title>Node1&#45;&gt;Node19</title>
<path fill="none" stroke="#191970" d="M768.2146,-176.3772C910.4518,-172.517 1249.3052,-160.859 1532.1033,-132 1533.2148,-131.8866 1534.3361,-131.7678 1535.4649,-131.6442"/>
<polygon fill="#191970" stroke="#191970" points="1536.2501,-135.0755 1545.766,-130.4174 1535.4222,-128.1246 1536.2501,-135.0755"/>
</g>
<!-- Node5&#45;&gt;Node4 -->
<g id="edge6" class="edge">
<title>Node5&#45;&gt;Node4</title>
<path fill="none" stroke="#191970" d="M146.8219,-57.5231C151.6522,-56.9831 156.451,-56.4689 161.1033,-56 336.1462,-38.3569 541.0892,-23.6758 656.9506,-15.928"/>
<polygon fill="#191970" stroke="#191970" points="657.4492,-19.4026 667.1944,-15.2455 656.9838,-12.4181 657.4492,-19.4026"/>
</g>
<!-- Node5&#45;&gt;Node6 -->
<g id="edge7" class="edge">
<title>Node5&#45;&gt;Node6</title>
<path fill="none" stroke="#191970" d="M120.2342,-56.4369C160.3682,-46.8731 222.1808,-32.1432 265.3966,-21.845"/>
<polygon fill="#191970" stroke="#191970" points="266.2216,-25.2465 275.1379,-19.5237 264.5989,-18.4372 266.2216,-25.2465"/>
</g>
<!-- Node7 -->
<g id="node8" class="node">
<title>Node7</title>
<polygon fill="#ffffff" stroke="#bfbfbf" points="22.1033,-.5 22.1033,-19.5 138.1033,-19.5 138.1033,-.5 22.1033,-.5"/>
<text text-anchor="middle" x="80.1033" y="-7.5" font-family="Helvetica,sans-Serif" font-size="10.00" fill="#000000">AMReX_Interpolater.H</text>
</g>
<!-- Node5&#45;&gt;Node7 -->
<g id="edge8" class="edge">
<title>Node5&#45;&gt;Node7</title>
<path fill="none" stroke="#191970" d="M80.1033,-56.2455C80.1033,-48.9382 80.1033,-38.6944 80.1033,-29.7046"/>
<polygon fill="#191970" stroke="#191970" points="83.6034,-29.6426 80.1033,-19.6427 76.6034,-29.6427 83.6034,-29.6426"/>
</g>
<!-- Node8&#45;&gt;Node2 -->
<g id="edge10" class="edge">
<title>Node8&#45;&gt;Node2</title>
<path fill="none" stroke="#191970" d="M597.7491,-117.3128C652.8431,-111.5903 738.346,-99.599 809.1033,-76 827.5823,-69.8369 829.4847,-61.7276 848.1033,-56 911.8147,-36.4005 1111.7853,-18.7116 1189.1311,-12.4269"/>
<polygon fill="#191970" stroke="#191970" points="1189.5169,-15.9072 1199.2041,-11.6168 1188.9557,-8.9298 1189.5169,-15.9072"/>
</g>
<!-- Node8&#45;&gt;Node3 -->
<g id="edge12" class="edge">
<title>Node8&#45;&gt;Node3</title>
<path fill="none" stroke="#191970" d="M490.5554,-112.4369C436.573,-102.224 351.4526,-86.1201 296.9696,-75.8125"/>
<polygon fill="#191970" stroke="#191970" points="297.3101,-72.3149 286.8337,-73.8949 296.0088,-79.1929 297.3101,-72.3149"/>
</g>
<!-- Node8&#45;&gt;Node4 -->
<g id="edge17" class="edge">
<title>Node8&#45;&gt;Node4</title>
<path fill="none" stroke="#191970" d="M484.4095,-118.2052C422.5263,-111.9938 336.6589,-96.0321 372.1033,-56 390.7346,-34.9572 551.7769,-21.5396 657.2699,-14.9242"/>
<polygon fill="#191970" stroke="#191970" points="657.5334,-18.4147 667.2988,-14.3052 657.1022,-11.428 657.5334,-18.4147"/>
</g>
<!-- Node8&#45;&gt;Node6 -->
<g id="edge13" class="edge">
<title>Node8&#45;&gt;Node6</title>
<path fill="none" stroke="#191970" d="M486.2016,-112.4739C440.7111,-103.7857 380.3579,-90.1752 360.1033,-76 343.3016,-64.2413 330.8956,-44.0453 323.4131,-29.0828"/>
<polygon fill="#191970" stroke="#191970" points="326.441,-27.296 319.0261,-19.7283 320.1033,-30.2682 326.441,-27.296"/>
</g>
<!-- Node9 -->
<g id="node10" class="node">
<title>Node9</title>
<polygon fill="#ffffff" stroke="#bfbfbf" points="381.1033,-56.5 381.1033,-75.5 433.1033,-75.5 433.1033,-56.5 381.1033,-56.5"/>
<text text-anchor="middle" x="407.1033" y="-63.5" font-family="Helvetica,sans-Serif" font-size="10.00" fill="#000000">memory</text>
</g>
<!-- Node8&#45;&gt;Node9 -->
<g id="edge11" class="edge">
<title>Node8&#45;&gt;Node9</title>
<path fill="none" stroke="#191970" d="M518.0679,-112.3733C496.3645,-103.3032 463.6415,-89.6279 439.3484,-79.4755"/>
<polygon fill="#191970" stroke="#191970" points="440.4144,-76.1278 429.8381,-75.5011 437.7152,-82.5865 440.4144,-76.1278"/>
</g>
<!-- Node10 -->
<g id="node11" class="node">
<title>Node10</title>
<polygon fill="#ffffff" stroke="#bfbfbf" points="451.6033,-56.5 451.6033,-75.5 550.6033,-75.5 550.6033,-56.5 451.6033,-56.5"/>
<text text-anchor="middle" x="501.1033" y="-63.5" font-family="Helvetica,sans-Serif" font-size="10.00" fill="#000000">AMReX_BCRec.H</text>
</g>
<!-- Node8&#45;&gt;Node10 -->
<g id="edge14" class="edge">
<title>Node8&#45;&gt;Node10</title>
<path fill="none" stroke="#191970" d="M534.1358,-112.2455C528.5722,-104.4564 520.6253,-93.3308 513.9204,-83.9439"/>
<polygon fill="#191970" stroke="#191970" points="516.6514,-81.7457 507.9909,-75.6427 510.9553,-85.8144 516.6514,-81.7457"/>
</g>
<!-- Node11 -->
<g id="node12" class="node">
<title>Node11</title>
<polygon fill="#ffffff" stroke="#bfbfbf" points="568.6033,-56.5 568.6033,-75.5 653.6033,-75.5 653.6033,-56.5 568.6033,-56.5"/>
<text text-anchor="middle" x="611.1033" y="-63.5" font-family="Helvetica,sans-Serif" font-size="10.00" fill="#000000">AMReX_Gpu.H</text>
</g>
<!-- Node8&#45;&gt;Node11 -->
<g id="edge15" class="edge">
<title>Node8&#45;&gt;Node11</title>
<path fill="none" stroke="#191970" d="M553.2964,-112.2455C563.7354,-103.8943 578.9688,-91.7076 591.1773,-81.9408"/>
<polygon fill="#191970" stroke="#191970" points="593.4277,-84.6227 599.05,-75.6427 589.0548,-79.1566 593.4277,-84.6227"/>
</g>
<!-- Node12 -->
<g id="node13" class="node">
<title>Node12</title>
<g id="a_node13"><a xlink:href="incflo__enums_8_h.html" target="_top" xlink:title="amr&#45;wind/incflo_enums.H">
<polygon fill="#ffffff" stroke="#000000" points="672.1033,-56.5 672.1033,-75.5 800.1033,-75.5 800.1033,-56.5 672.1033,-56.5"/>
<text text-anchor="middle" x="736.1033" y="-63.5" font-family="Helvetica,sans-Serif" font-size="10.00" fill="#000000">amr&#45;wind/incflo_enums.H</text>
</a>
</g>
</g>
<!-- Node8&#45;&gt;Node12 -->
<g id="edge16" class="edge">
<title>Node8&#45;&gt;Node12</title>
<path fill="none" stroke="#191970" d="M574.625,-112.3733C607.4717,-102.9404 657.6628,-88.5265 693.3611,-78.2747"/>
<polygon fill="#191970" stroke="#191970" points="694.3736,-81.6255 703.019,-75.5011 692.4414,-74.8974 694.3736,-81.6255"/>
</g>
<!-- Node13 -->
<g id="node14" class="node">
<title>Node13</title>
<g id="a_node14"><a xlink:href="_view_field_8_h.html" target="_top" xlink:title="amr&#45;wind/core/ViewField.H">
<polygon fill="#ffffff" stroke="#000000" points="1058.1033,-56.5 1058.1033,-75.5 1192.1033,-75.5 1192.1033,-56.5 1058.1033,-56.5"/>
<text text-anchor="middle" x="1125.1033" y="-63.5" font-family="Helvetica,sans-Serif" font-size="10.00" fill="#000000">amr&#45;wind/core/ViewField.H</text>
</a>
</g>
</g>
<!-- Node8&#45;&gt;Node13 -->
<g id="edge18" class="edge">
<title>Node8&#45;&gt;Node13</title>
<path fill="none" stroke="#191970" d="M597.6303,-116.5796C702.7696,-106.4977 928.511,-84.8513 1047.7139,-73.4209"/>
<polygon fill="#191970" stroke="#191970" points="1048.2393,-76.8867 1057.8595,-72.448 1047.571,-69.9186 1048.2393,-76.8867"/>
</g>
<!-- Node13&#45;&gt;Node2 -->
<g id="edge19" class="edge">
<title>Node13&#45;&gt;Node2</title>
<path fill="none" stroke="#191970" d="M1141.6511,-56.2455C1156.3632,-47.5731 1178.0921,-34.7645 1194.9538,-24.825"/>
<polygon fill="#191970" stroke="#191970" points="1196.9079,-27.736 1203.7452,-19.6427 1193.3532,-21.7057 1196.9079,-27.736"/>
</g>
<!-- Node13&#45;&gt;Node4 -->
<g id="edge20" class="edge">
<title>Node13&#45;&gt;Node4</title>
<path fill="none" stroke="#191970" d="M1060.8938,-56.4369C994.9221,-46.6113 892.3398,-31.3331 823.025,-21.0096"/>
<polygon fill="#191970" stroke="#191970" points="823.4545,-17.5351 813.048,-19.5237 822.4232,-24.4587 823.4545,-17.5351"/>
</g>
<!-- Node13&#45;&gt;Node6 -->
<g id="edge21" class="edge">
<title>Node13&#45;&gt;Node6</title>
<path fill="none" stroke="#191970" d="M1058.0931,-60.1637C1041.1347,-58.7431 1022.9526,-57.2687 1006.1033,-56 774.2762,-38.5443 498.4298,-21.2142 377.3248,-13.7788"/>
<polygon fill="#191970" stroke="#191970" points="377.3304,-10.2727 367.135,-13.1541 376.902,-17.2595 377.3304,-10.2727"/>
</g>
<!-- Node14 -->
<g id="node15" class="node">
<title>Node14</title>
<polygon fill="#ffffff" stroke="#bfbfbf" points="1345.6033,-.5 1345.6033,-19.5 1440.6033,-19.5 1440.6033,-.5 1345.6033,-.5"/>
<text text-anchor="middle" x="1393.1033" y="-7.5" font-family="Helvetica,sans-Serif" font-size="10.00" fill="#000000">AMReX_Vector.H</text>
</g>
<!-- Node13&#45;&gt;Node14 -->
<g id="edge22" class="edge">
<title>Node13&#45;&gt;Node14</title>
<path fill="none" stroke="#191970" d="M1170.8696,-56.4369C1217.0248,-46.7925 1288.3211,-31.8948 1337.6571,-21.5858"/>
<polygon fill="#191970" stroke="#191970" points="1338.4531,-24.9951 1347.5257,-19.5237 1337.0212,-18.1431 1338.4531,-24.9951"/>
</g>
<!-- Node15&#45;&gt;Node2 -->
<g id="edge24" class="edge">
<title>Node15&#45;&gt;Node2</title>
<path fill="none" stroke="#191970" d="M1032.1956,-116.8739C1092.0183,-110.6926 1176.9107,-98.2471 1201.1033,-76 1213.8325,-64.2945 1218.2369,-44.669 1219.6635,-29.8542"/>
<polygon fill="#191970" stroke="#191970" points="1223.169,-29.8623 1220.2626,-19.6739 1216.1811,-29.451 1223.169,-29.8623"/>
</g>
<!-- Node15&#45;&gt;Node4 -->
<g id="edge25" class="edge">
<title>Node15&#45;&gt;Node4</title>
<path fill="none" stroke="#191970" d="M974.1896,-112.2336C979.3676,-98.1296 986.1517,-72.0003 973.1033,-56 956.1852,-35.2546 894.9314,-23.6008 840.7472,-17.2169"/>
<polygon fill="#191970" stroke="#191970" points="841.054,-13.7294 830.7244,-16.0852 840.2685,-20.6852 841.054,-13.7294"/>
</g>
<!-- Node15&#45;&gt;Node16 -->
<g id="edge26" class="edge">
<title>Node15&#45;&gt;Node16</title>
<path fill="none" stroke="#191970" d="M959.6521,-112.2455C950.8764,-104.0549 938.1479,-92.1749 927.7893,-82.5069"/>
<polygon fill="#191970" stroke="#191970" points="930.1335,-79.9072 920.4348,-75.6427 925.3572,-85.0246 930.1335,-79.9072"/>
</g>
<!-- Node17&#45;&gt;Node2 -->
<g id="edge28" class="edge">
<title>Node17&#45;&gt;Node2</title>
<path fill="none" stroke="#191970" d="M1263.8312,-112.199C1270.7784,-98.9428 1280.571,-74.7961 1272.1033,-56 1266.5337,-43.6369 1255.817,-33.2563 1245.5527,-25.5033"/>
<polygon fill="#191970" stroke="#191970" points="1247.3582,-22.4948 1237.16,-19.623 1243.3415,-28.2277 1247.3582,-22.4948"/>
</g>
<!-- Node17&#45;&gt;Node4 -->
<g id="edge29" class="edge">
<title>Node17&#45;&gt;Node4</title>
<path fill="none" stroke="#191970" d="M1252.9771,-112.3268C1244.4493,-97.3308 1225.8138,-68.8624 1201.1033,-56 1170.0114,-39.816 964.1792,-23.9292 841.2576,-15.7295"/>
<polygon fill="#191970" stroke="#191970" points="841.3025,-12.2249 831.093,-15.0563 840.8399,-19.2096 841.3025,-12.2249"/>
</g>
<!-- Node17&#45;&gt;Node6 -->
<g id="edge31" class="edge">
<title>Node17&#45;&gt;Node6</title>
<path fill="none" stroke="#191970" d="M1212.3171,-112.4827C1169.8912,-103.5313 1105.0812,-89.5198 1049.1033,-76 1015.1517,-67.8 1007.565,-61.6873 973.1033,-56 859.5683,-37.2629 518.7735,-19.5952 377.5064,-12.8654"/>
<polygon fill="#191970" stroke="#191970" points="377.4368,-9.3583 367.2823,-12.3809 377.1053,-16.3504 377.4368,-9.3583"/>
</g>
<!-- Node17&#45;&gt;Node13 -->
<g id="edge30" class="edge">
<title>Node17&#45;&gt;Node13</title>
<path fill="none" stroke="#191970" d="M1235.2398,-112.3733C1213.6984,-103.3032 1181.2195,-89.6279 1157.1077,-79.4755"/>
<polygon fill="#191970" stroke="#191970" points="1158.2431,-76.156 1147.6685,-75.5011 1155.5266,-82.6075 1158.2431,-76.156"/>
</g>
<!-- Node17&#45;&gt;Node14 -->
<g id="edge32" class="edge">
<title>Node17&#45;&gt;Node14</title>
<path fill="none" stroke="#191970" d="M1331.347,-114.9635C1382.6646,-108.3428 1444.8653,-96.3293 1461.1033,-76 1476.763,-56.3947 1449.6282,-36.724 1425.1315,-24.0244"/>
<polygon fill="#191970" stroke="#191970" points="1426.4845,-20.7894 1415.9668,-19.5131 1423.393,-27.0697 1426.4845,-20.7894"/>
</g>
<!-- Node18 -->
<g id="node19" class="node">
<title>Node18</title>
<polygon fill="#ffffff" stroke="#bfbfbf" points="1324.1033,-56.5 1324.1033,-75.5 1452.1033,-75.5 1452.1033,-56.5 1324.1033,-56.5"/>
<text text-anchor="middle" x="1388.1033" y="-63.5" font-family="Helvetica,sans-Serif" font-size="10.00" fill="#000000">AMReX_PhysBCFunct.H</text>
</g>
<!-- Node17&#45;&gt;Node18 -->
<g id="edge33" class="edge">
<title>Node17&#45;&gt;Node18</title>
<path fill="none" stroke="#191970" d="M1280.4511,-112.3733C1301.5067,-103.3032 1333.2529,-89.6279 1356.8208,-79.4755"/>
<polygon fill="#191970" stroke="#191970" points="1358.2477,-82.6719 1366.0471,-75.5011 1355.4783,-76.243 1358.2477,-82.6719"/>
</g>
</g>
</svg>
        <g id="navigator" transform="translate(0 0)" fill="#404254">
                <rect fill="#f2f5e9" fill-opacity="0.5" stroke="#606060" stroke-width=".5" x="0" y="0" width="60" height="60"/>
                <use id="zoomplus" xlink:href="#zoomPlus" x="17" y="9" onmousedown="handleZoom(evt,'in')"/>
                <use id="zoomminus" xlink:href="#zoomMin" x="42" y="9" onmousedown="handleZoom(evt,'out')"/>
                <use id="reset" xlink:href="#resetDef" x="30" y="36" onmousedown="handleReset()"/>
                <g id="arrowUp" xlink:href="#dirArrow" transform="translate(30 24)" onmousedown="handlePan(0,-1)">
                  <use xlink:href="#rim" fill="#404040">
                        <set attributeName="fill" to="#808080" begin="arrowUp.mouseover" end="arrowUp.mouseout"/>
                  </use>
                  <path fill="none" stroke="white" stroke-width="1.5" d="M0,-3.0v7 M-2.5,-0.5L0,-3.0L2.5,-0.5"/>
                </g>
                <g id="arrowRight" xlink:href="#dirArrow" transform="rotate(90) translate(36 -43)" onmousedown="handlePan(1,0)">
                  <use xlink:href="#rim" fill="#404040">
                        <set attributeName="fill" to="#808080" begin="arrowRight.mouseover" end="arrowRight.mouseout"/>
                  </use>
                  <path fill="none" stroke="white" stroke-width="1.5" d="M0,-3.0v7 M-2.5,-0.5L0,-3.0L2.5,-0.5"/>
                </g>
                <g id="arrowDown" xlink:href="#dirArrow" transform="rotate(180) translate(-30 -48)" onmousedown="handlePan(0,1)">
                  <use xlink:href="#rim" fill="#404040">
                        <set attributeName="fill" to="#808080" begin="arrowDown.mouseover" end="arrowDown.mouseout"/>
                  </use>
                  <path fill="none" stroke="white" stroke-width="1.5" d="M0,-3.0v7 M-2.5,-0.5L0,-3.0L2.5,-0.5"/>
                </g>
                <g id="arrowLeft" xlink:href="#dirArrow" transform="rotate(270) translate(-36 17)" onmousedown="handlePan(-1,0)">
                  <use xlink:href="#rim" fill="#404040">
                        <set attributeName="fill" to="#808080" begin="arrowLeft.mouseover" end="arrowLeft.mouseout"/>
                  </use>
                  <path fill="none" stroke="white" stroke-width="1.5" d="M0,-3.0v7 M-2.5,-0.5L0,-3.0L2.5,-0.5"/>
                </g>
        </g>
        <svg viewBox="0 0 15 15" width="100%" height="30px" preserveAspectRatio="xMaxYMin meet">
         <g id="arrow_out" transform="scale(0.3 0.3)">
          <a xlink:href="_godunov_8_h__incl_org.svg" target="_base">
           <rect id="button" ry="5" rx="5" y="6" x="6" height="38" width="38"
                fill="#f2f5e9" fill-opacity="0.5" stroke="#606060" stroke-width="1.0"/>
           <path id="arrow"
             d="M 11.500037,31.436501 C 11.940474,20.09759 22.043105,11.32322 32.158766,21.979434 L 37.068811,17.246167 C 37.068811,17.246167 37.088388,32 37.088388,32 L 22.160133,31.978069 C 22.160133,31.978069 26.997745,27.140456 26.997745,27.140456 C 18.528582,18.264221 13.291696,25.230495 11.500037,31.436501 z"
             style="fill:#404040;"/>
          </a>
         </g>
        </svg>
</svg>
