<?xml version="1.0" encoding="UTF-8" standalone="no"?>
<!DOCTYPE svg PUBLIC "-//W3C//DTD SVG 1.1//EN"
 "http://www.w3.org/Graphics/SVG/1.1/DTD/svg11.dtd">
<!-- Generated by graphviz version 2.40.1 (20161225.0304)
 -->
<!-- Title: IOManager.H Pages: 1 -->
<svg width="1591pt" height="364pt"
 viewBox="0.00 0.00 1590.50 364.00" xmlns="http://www.w3.org/2000/svg" xmlns:xlink="http://www.w3.org/1999/xlink">
<g id="graph0" class="graph" transform="scale(1 1) rotate(0) translate(4 360)">
<title>IOManager.H</title>
<polygon fill="#ffffff" stroke="transparent" points="-4,4 -4,-360 1586.5,-360 1586.5,4 -4,4"/>
<!-- Node5 -->
<g id="node1" class="node">
<title>Node5</title>
<polygon fill="#bfbfbf" stroke="#000000" points="1236.5,-336.5 1236.5,-355.5 1311.5,-355.5 1311.5,-336.5 1236.5,-336.5"/>
<text text-anchor="middle" x="1274" y="-343.5" font-family="Helvetica,sans-Serif" font-size="10.00" fill="#000000">IOManager.H</text>
</g>
<!-- Node6 -->
<g id="node2" class="node">
<title>Node6</title>
<g id="a_node2"><a xlink:href="_c_f_d_sim_8cpp.html" target="_top" xlink:title="CFDSim.cpp">
<polygon fill="#ffffff" stroke="#000000" points="840,-280.5 840,-299.5 914,-299.5 914,-280.5 840,-280.5"/>
<text text-anchor="middle" x="877" y="-287.5" font-family="Helvetica,sans-Serif" font-size="10.00" fill="#000000">CFDSim.cpp</text>
</a>
</g>
</g>
<!-- Node5&#45;&gt;Node6 -->
<g id="edge1" class="edge">
<title>Node5&#45;&gt;Node6</title>
<path fill="none" stroke="#191970" d="M1226.0939,-341.0086C1158.341,-333.6574 1030.7656,-318.7413 923,-300 920.1014,-299.4959 917.1083,-298.9358 914.1047,-298.3455"/>
<polygon fill="#191970" stroke="#191970" points="1226.1247,-344.5321 1236.442,-342.1229 1226.8742,-337.5723 1226.1247,-344.5321"/>
</g>
<!-- Node7 -->
<g id="node3" class="node">
<title>Node7</title>
<g id="a_node3"><a xlink:href="_p_d_e_ops_8_h.html" target="_top" xlink:title="PDEOps.H">
<polygon fill="#ffffff" stroke="#000000" points="932,-280.5 932,-299.5 998,-299.5 998,-280.5 932,-280.5"/>
<text text-anchor="middle" x="965" y="-287.5" font-family="Helvetica,sans-Serif" font-size="10.00" fill="#000000">PDEOps.H</text>
</a>
</g>
</g>
<!-- Node5&#45;&gt;Node7 -->
<g id="edge2" class="edge">
<title>Node5&#45;&gt;Node7</title>
<path fill="none" stroke="#191970" d="M1226.3055,-337.3563C1163.0362,-325.8901 1052.9714,-305.943 998.0896,-295.9968"/>
<polygon fill="#191970" stroke="#191970" points="1225.9556,-340.8499 1236.4195,-339.1893 1227.2039,-333.9621 1225.9556,-340.8499"/>
</g>
<!-- Node36 -->
<g id="node32" class="node">
<title>Node36</title>
<g id="a_node32"><a xlink:href="incflo_8cpp.html" target="_top" xlink:title="incflo.cpp">
<polygon fill="#ffffff" stroke="#000000" points="1244.5,-280.5 1244.5,-299.5 1303.5,-299.5 1303.5,-280.5 1244.5,-280.5"/>
<text text-anchor="middle" x="1274" y="-287.5" font-family="Helvetica,sans-Serif" font-size="10.00" fill="#000000">incflo.cpp</text>
</a>
</g>
</g>
<!-- Node5&#45;&gt;Node36 -->
<g id="edge63" class="edge">
<title>Node5&#45;&gt;Node36</title>
<path fill="none" stroke="#191970" d="M1274,-326.1575C1274,-317.155 1274,-306.9199 1274,-299.6427"/>
<polygon fill="#191970" stroke="#191970" points="1270.5001,-326.2455 1274,-336.2455 1277.5001,-326.2456 1270.5001,-326.2455"/>
</g>
<!-- Node37 -->
<g id="node33" class="node">
<title>Node37</title>
<g id="a_node33"><a xlink:href="_tioga_interface_8cpp.html" target="_top" xlink:title="TiogaInterface.cpp">
<polygon fill="#ffffff" stroke="#000000" points="1322,-280.5 1322,-299.5 1420,-299.5 1420,-280.5 1322,-280.5"/>
<text text-anchor="middle" x="1371" y="-287.5" font-family="Helvetica,sans-Serif" font-size="10.00" fill="#000000">TiogaInterface.cpp</text>
</a>
</g>
</g>
<!-- Node5&#45;&gt;Node37 -->
<g id="edge64" class="edge">
<title>Node5&#45;&gt;Node37</title>
<path fill="none" stroke="#191970" d="M1299.9016,-331.0465C1317.1609,-321.0824 1339.3376,-308.2794 1354.2975,-299.6427"/>
<polygon fill="#191970" stroke="#191970" points="1297.8065,-328.2146 1290.8961,-336.2455 1301.3064,-334.2768 1297.8065,-328.2146"/>
</g>
<!-- Node38 -->
<g id="node34" class="node">
<title>Node38</title>
<g id="a_node34"><a xlink:href="_turb_model_base_8_h.html" target="_top" xlink:title="TurbModelBase.H">
<polygon fill="#ffffff" stroke="#000000" points="1131.5,-280.5 1131.5,-299.5 1226.5,-299.5 1226.5,-280.5 1131.5,-280.5"/>
<text text-anchor="middle" x="1179" y="-287.5" font-family="Helvetica,sans-Serif" font-size="10.00" fill="#000000">TurbModelBase.H</text>
</a>
</g>
</g>
<!-- Node5&#45;&gt;Node38 -->
<g id="edge65" class="edge">
<title>Node5&#45;&gt;Node38</title>
<path fill="none" stroke="#191970" d="M1248.6324,-331.0465C1231.729,-321.0824 1210.0096,-308.2794 1195.3581,-299.6427"/>
<polygon fill="#191970" stroke="#191970" points="1247.0602,-334.1825 1257.4523,-336.2455 1250.6149,-328.1522 1247.0602,-334.1825"/>
</g>
<!-- Node43 -->
<g id="node39" class="node">
<title>Node43</title>
<g id="a_node39"><a xlink:href="io_8cpp.html" target="_top" xlink:title="io.cpp">
<polygon fill="#ffffff" stroke="#000000" points="1438.5,-280.5 1438.5,-299.5 1481.5,-299.5 1481.5,-280.5 1438.5,-280.5"/>
<text text-anchor="middle" x="1460" y="-287.5" font-family="Helvetica,sans-Serif" font-size="10.00" fill="#000000">io.cpp</text>
</a>
</g>
</g>
<!-- Node5&#45;&gt;Node43 -->
<g id="edge71" class="edge">
<title>Node5&#45;&gt;Node43</title>
<path fill="none" stroke="#191970" d="M1316.7019,-333.6208C1347.8787,-324.5112 1391.1344,-311.7244 1429,-300 1432.0251,-299.0633 1435.2102,-298.0579 1438.3404,-297.0587"/>
<polygon fill="#191970" stroke="#191970" points="1315.6459,-330.2829 1307.0261,-336.4432 1317.6062,-337.0028 1315.6459,-330.2829"/>
</g>
<!-- Node44 -->
<g id="node40" class="node">
<title>Node44</title>
<g id="a_node40"><a xlink:href="_i_o_manager_8cpp.html" target="_top" xlink:title="IOManager.cpp">
<polygon fill="#ffffff" stroke="#000000" points="1499.5,-280.5 1499.5,-299.5 1582.5,-299.5 1582.5,-280.5 1499.5,-280.5"/>
<text text-anchor="middle" x="1541" y="-287.5" font-family="Helvetica,sans-Serif" font-size="10.00" fill="#000000">IOManager.cpp</text>
</a>
</g>
</g>
<!-- Node5&#45;&gt;Node44 -->
<g id="edge72" class="edge">
<title>Node5&#45;&gt;Node44</title>
<path fill="none" stroke="#191970" d="M1321.6924,-335.9971C1372.1443,-325.4154 1450.9706,-308.8826 1499.1069,-298.7866"/>
<polygon fill="#191970" stroke="#191970" points="1320.7569,-332.6171 1311.6883,-338.0953 1322.1938,-339.468 1320.7569,-332.6171"/>
</g>
<!-- Node8 -->
<g id="node4" class="node">
<title>Node8</title>
<g id="a_node4"><a xlink:href="_adv_op___godunov_8_h.html" target="_top" xlink:title="AdvOp_Godunov.H">
<polygon fill="#ffffff" stroke="#000000" points="620.5,-112.5 620.5,-131.5 721.5,-131.5 721.5,-112.5 620.5,-112.5"/>
<text text-anchor="middle" x="671" y="-119.5" font-family="Helvetica,sans-Serif" font-size="10.00" fill="#000000">AdvOp_Godunov.H</text>
</a>
</g>
</g>
<!-- Node7&#45;&gt;Node8 -->
<g id="edge3" class="edge">
<title>Node7&#45;&gt;Node8</title>
<path fill="none" stroke="#191970" d="M957.6677,-270.5854C946.2743,-243.1914 921.6378,-193.6772 884,-168 870.6594,-158.8988 780.3558,-141.474 721.6916,-130.8782"/>
<polygon fill="#191970" stroke="#191970" points="954.5523,-272.2226 961.5042,-280.2177 961.0554,-269.6324 954.5523,-272.2226"/>
</g>
<!-- Node10 -->
<g id="node6" class="node">
<title>Node10</title>
<g id="a_node6"><a xlink:href="icns__ops_8_h.html" target="_top" xlink:title="icns_ops.H">
<polygon fill="#ffffff" stroke="#000000" points="1084,-56.5 1084,-75.5 1150,-75.5 1150,-56.5 1084,-56.5"/>
<text text-anchor="middle" x="1117" y="-63.5" font-family="Helvetica,sans-Serif" font-size="10.00" fill="#000000">icns_ops.H</text>
</a>
</g>
</g>
<!-- Node7&#45;&gt;Node10 -->
<g id="edge61" class="edge">
<title>Node7&#45;&gt;Node10</title>
<path fill="none" stroke="#191970" d="M967.8149,-270.2149C972.1362,-244.872 982.1912,-200.3632 1003,-168 1029.5716,-126.6742 1077.2734,-91.8094 1101.6891,-75.6491"/>
<polygon fill="#191970" stroke="#191970" points="964.3096,-269.9757 966.2148,-280.3978 971.2247,-271.0623 964.3096,-269.9757"/>
</g>
<!-- Node18 -->
<g id="node14" class="node">
<title>Node18</title>
<g id="a_node14"><a xlink:href="_adv_op___m_o_l_8_h.html" target="_top" xlink:title="AdvOp_MOL.H">
<polygon fill="#ffffff" stroke="#000000" points="742.5,-112.5 742.5,-131.5 825.5,-131.5 825.5,-112.5 742.5,-112.5"/>
<text text-anchor="middle" x="784" y="-119.5" font-family="Helvetica,sans-Serif" font-size="10.00" fill="#000000">AdvOp_MOL.H</text>
</a>
</g>
</g>
<!-- Node7&#45;&gt;Node18 -->
<g id="edge14" class="edge">
<title>Node7&#45;&gt;Node18</title>
<path fill="none" stroke="#191970" d="M963.3271,-270.1639C960.0238,-243.3852 950.307,-195.8266 922,-168 908.0876,-154.3236 860.704,-140.4004 825.3173,-131.5097"/>
<polygon fill="#191970" stroke="#191970" points="959.8609,-270.6701 964.3857,-280.2501 966.8227,-269.9394 959.8609,-270.6701"/>
</g>
<!-- Node19 -->
<g id="node15" class="node">
<title>Node19</title>
<g id="a_node15"><a xlink:href="_b_c_ops_8_h.html" target="_top" xlink:title="BCOps.H">
<polygon fill="#ffffff" stroke="#000000" points="526.5,-112.5 526.5,-131.5 585.5,-131.5 585.5,-112.5 526.5,-112.5"/>
<text text-anchor="middle" x="556" y="-119.5" font-family="Helvetica,sans-Serif" font-size="10.00" fill="#000000">BCOps.H</text>
</a>
</g>
</g>
<!-- Node7&#45;&gt;Node19 -->
<g id="edge22" class="edge">
<title>Node7&#45;&gt;Node19</title>
<path fill="none" stroke="#191970" d="M946.909,-273.4702C916.754,-246.8741 853.2585,-194.8539 790,-168 780.5914,-164.006 646.426,-138.7959 585.5995,-127.4827"/>
<polygon fill="#191970" stroke="#191970" points="944.7134,-276.202 954.5022,-280.2554 949.3776,-270.9823 944.7134,-276.202"/>
</g>
<!-- Node21 -->
<g id="node17" class="node">
<title>Node21</title>
<g id="a_node17"><a xlink:href="_comp_r_h_s_ops_8_h.html" target="_top" xlink:title="CompRHSOps.H">
<polygon fill="#ffffff" stroke="#000000" points="710.5,-224.5 710.5,-243.5 803.5,-243.5 803.5,-224.5 710.5,-224.5"/>
<text text-anchor="middle" x="757" y="-231.5" font-family="Helvetica,sans-Serif" font-size="10.00" fill="#000000">CompRHSOps.H</text>
</a>
</g>
</g>
<!-- Node7&#45;&gt;Node21 -->
<g id="edge30" class="edge">
<title>Node7&#45;&gt;Node21</title>
<path fill="none" stroke="#191970" d="M921.7409,-278.3533C883.4246,-268.0374 828.1729,-253.1619 792.4243,-243.5373"/>
<polygon fill="#191970" stroke="#191970" points="921.0151,-281.7825 931.5812,-281.0026 922.835,-275.0232 921.0151,-281.7825"/>
</g>
<!-- Node22 -->
<g id="node18" class="node">
<title>Node22</title>
<g id="a_node18"><a xlink:href="_p_d_e_8_h.html" target="_top" xlink:title="PDE.H">
<polygon fill="#ffffff" stroke="#000000" points="733,-168.5 733,-187.5 781,-187.5 781,-168.5 733,-168.5"/>
<text text-anchor="middle" x="757" y="-175.5" font-family="Helvetica,sans-Serif" font-size="10.00" fill="#000000">PDE.H</text>
</a>
</g>
</g>
<!-- Node7&#45;&gt;Node22 -->
<g id="edge55" class="edge">
<title>Node7&#45;&gt;Node22</title>
<path fill="none" stroke="#191970" d="M928.9045,-276.7497C907.2876,-268.3314 879.5276,-256.6605 856,-244 823.4393,-226.4786 788.0109,-201.1919 769.6443,-187.5656"/>
<polygon fill="#191970" stroke="#191970" points="927.7769,-280.0657 938.367,-280.3805 930.2846,-273.5303 927.7769,-280.0657"/>
</g>
<!-- Node26 -->
<g id="node22" class="node">
<title>Node26</title>
<g id="a_node22"><a xlink:href="icns__diffusion_8_h.html" target="_top" xlink:title="icns_diffusion.H">
<polygon fill="#ffffff" stroke="#000000" points="1206.5,-56.5 1206.5,-75.5 1293.5,-75.5 1293.5,-56.5 1206.5,-56.5"/>
<text text-anchor="middle" x="1250" y="-63.5" font-family="Helvetica,sans-Serif" font-size="10.00" fill="#000000">icns_diffusion.H</text>
</a>
</g>
</g>
<!-- Node7&#45;&gt;Node26 -->
<g id="edge62" class="edge">
<title>Node7&#45;&gt;Node26</title>
<path fill="none" stroke="#191970" d="M1007.8982,-283.1806C1038.1985,-276.7987 1078.6493,-264.9891 1109,-244 1177.7413,-196.4618 1229.3263,-105.5879 1245.028,-75.7544"/>
<polygon fill="#191970" stroke="#191970" points="1007.1653,-279.7577 998.0408,-285.1422 1008.5316,-286.6231 1007.1653,-279.7577"/>
</g>
<!-- Node34 -->
<g id="node30" class="node">
<title>Node34</title>
<g id="a_node30"><a xlink:href="_diffusion_ops_8_h.html" target="_top" xlink:title="DiffusionOps.H">
<polygon fill="#ffffff" stroke="#000000" points="1016,-224.5 1016,-243.5 1100,-243.5 1100,-224.5 1016,-224.5"/>
<text text-anchor="middle" x="1058" y="-231.5" font-family="Helvetica,sans-Serif" font-size="10.00" fill="#000000">DiffusionOps.H</text>
</a>
</g>
</g>
<!-- Node7&#45;&gt;Node34 -->
<g id="edge56" class="edge">
<title>Node7&#45;&gt;Node34</title>
<path fill="none" stroke="#191970" d="M989.8335,-275.0465C1006.3811,-265.0824 1027.6432,-252.2794 1041.9863,-243.6427"/>
<polygon fill="#191970" stroke="#191970" points="987.9607,-272.0886 981.1994,-280.2455 991.5717,-278.0854 987.9607,-272.0886"/>
</g>
<!-- Node9 -->
<g id="node5" class="node">
<title>Node9</title>
<g id="a_node5"><a xlink:href="density_8cpp.html" target="_top" xlink:title="density.cpp">
<polygon fill="#ffffff" stroke="#000000" points="312.5,-.5 312.5,-19.5 379.5,-19.5 379.5,-.5 312.5,-.5"/>
<text text-anchor="middle" x="346" y="-7.5" font-family="Helvetica,sans-Serif" font-size="10.00" fill="#000000">density.cpp</text>
</a>
</g>
</g>
<!-- Node8&#45;&gt;Node9 -->
<g id="edge4" class="edge">
<title>Node8&#45;&gt;Node9</title>
<path fill="none" stroke="#191970" d="M648.879,-106.7176C626.2479,-91.7461 589.5959,-69.2978 555,-56 495.5246,-33.1391 421.9387,-20.2637 379.8405,-14.2546"/>
<polygon fill="#191970" stroke="#191970" points="647.14,-109.7658 657.3927,-112.4366 651.0433,-103.9551 647.14,-109.7658"/>
</g>
<!-- Node8&#45;&gt;Node10 -->
<g id="edge5" class="edge">
<title>Node8&#45;&gt;Node10</title>
<path fill="none" stroke="#191970" d="M731.9635,-112.1388C732.31,-112.0922 732.6555,-112.0459 733,-112 884.5022,-91.8238 924.3456,-101.7539 1075,-76 1077.8076,-75.5201 1080.707,-74.9623 1083.6093,-74.3603"/>
<polygon fill="#191970" stroke="#191970" points="731.1315,-108.7215 721.7196,-113.5863 732.111,-115.6527 731.1315,-108.7215"/>
</g>
<!-- Node12 -->
<g id="node8" class="node">
<title>Node12</title>
<g id="a_node8"><a xlink:href="icns__advection_8_h.html" target="_top" xlink:title="icns_advection.H">
<polygon fill="#ffffff" stroke="#000000" points="846,-56.5 846,-75.5 938,-75.5 938,-56.5 846,-56.5"/>
<text text-anchor="middle" x="892" y="-63.5" font-family="Helvetica,sans-Serif" font-size="10.00" fill="#000000">icns_advection.H</text>
</a>
</g>
</g>
<!-- Node8&#45;&gt;Node12 -->
<g id="edge7" class="edge">
<title>Node8&#45;&gt;Node12</title>
<path fill="none" stroke="#191970" d="M718.6863,-109.9166C759.336,-99.6162 816.9667,-85.013 854.4155,-75.5237"/>
<polygon fill="#191970" stroke="#191970" points="717.5741,-106.5877 708.7401,-112.4369 719.2935,-113.3733 717.5741,-106.5877"/>
</g>
<!-- Node14 -->
<g id="node10" class="node">
<title>Node14</title>
<g id="a_node10"><a xlink:href="levelset_8cpp.html" target="_top" xlink:title="levelset.cpp">
<polygon fill="#ffffff" stroke="#000000" points="225.5,-.5 225.5,-19.5 294.5,-19.5 294.5,-.5 225.5,-.5"/>
<text text-anchor="middle" x="260" y="-7.5" font-family="Helvetica,sans-Serif" font-size="10.00" fill="#000000">levelset.cpp</text>
</a>
</g>
</g>
<!-- Node8&#45;&gt;Node14 -->
<g id="edge10" class="edge">
<title>Node8&#45;&gt;Node14</title>
<path fill="none" stroke="#191970" d="M633.8672,-108.9409C610.7873,-100.4178 580.7168,-88.5697 555,-76 539.2491,-68.3014 537.4826,-61.9735 521,-56 428.6751,-22.54 399.3194,-39.132 303,-20 300.2937,-19.4624 297.4981,-18.8783 294.692,-18.2713"/>
<polygon fill="#191970" stroke="#191970" points="632.7036,-112.242 643.2975,-112.3825 635.1035,-105.6662 632.7036,-112.242"/>
</g>
<!-- Node15 -->
<g id="node11" class="node">
<title>Node15</title>
<g id="a_node11"><a xlink:href="_s_d_r_8cpp.html" target="_top" xlink:title="SDR.cpp">
<polygon fill="#ffffff" stroke="#000000" points="455.5,-56.5 455.5,-75.5 512.5,-75.5 512.5,-56.5 455.5,-56.5"/>
<text text-anchor="middle" x="484" y="-63.5" font-family="Helvetica,sans-Serif" font-size="10.00" fill="#000000">SDR.cpp</text>
</a>
</g>
</g>
<!-- Node8&#45;&gt;Node15 -->
<g id="edge11" class="edge">
<title>Node8&#45;&gt;Node15</title>
<path fill="none" stroke="#191970" d="M629.2595,-109.5002C593.7811,-98.8756 543.7857,-83.9038 512.6654,-74.5843"/>
<polygon fill="#191970" stroke="#191970" points="628.2698,-112.8573 638.8536,-112.3733 630.278,-106.1515 628.2698,-112.8573"/>
</g>
<!-- Node16 -->
<g id="node12" class="node">
<title>Node16</title>
<g id="a_node12"><a xlink:href="temperature_8cpp.html" target="_top" xlink:title="temperature.cpp">
<polygon fill="#ffffff" stroke="#000000" points="350.5,-56.5 350.5,-75.5 437.5,-75.5 437.5,-56.5 350.5,-56.5"/>
<text text-anchor="middle" x="394" y="-63.5" font-family="Helvetica,sans-Serif" font-size="10.00" fill="#000000">temperature.cpp</text>
</a>
</g>
</g>
<!-- Node8&#45;&gt;Node16 -->
<g id="edge12" class="edge">
<title>Node8&#45;&gt;Node16</title>
<path fill="none" stroke="#191970" d="M613.5856,-110.3928C561.3703,-99.8366 485.4204,-84.4821 437.9088,-74.8769"/>
<polygon fill="#191970" stroke="#191970" points="613.2015,-113.8858 623.6967,-112.4369 614.5886,-107.0246 613.2015,-113.8858"/>
</g>
<!-- Node17 -->
<g id="node13" class="node">
<title>Node17</title>
<g id="a_node13"><a xlink:href="_t_k_e_8cpp.html" target="_top" xlink:title="TKE.cpp">
<polygon fill="#ffffff" stroke="#000000" points="772.5,-56.5 772.5,-75.5 827.5,-75.5 827.5,-56.5 772.5,-56.5"/>
<text text-anchor="middle" x="800" y="-63.5" font-family="Helvetica,sans-Serif" font-size="10.00" fill="#000000">TKE.cpp</text>
</a>
</g>
</g>
<!-- Node8&#45;&gt;Node17 -->
<g id="edge13" class="edge">
<title>Node8&#45;&gt;Node17</title>
<path fill="none" stroke="#191970" d="M702.3671,-108.3833C725.8284,-98.1985 757.3185,-84.5284 778.1135,-75.5011"/>
<polygon fill="#191970" stroke="#191970" points="700.9551,-105.1806 693.1759,-112.3733 703.7426,-111.6017 700.9551,-105.1806"/>
</g>
<!-- Node11 -->
<g id="node7" class="node">
<title>Node11</title>
<g id="a_node7"><a xlink:href="icns_8cpp.html" target="_top" xlink:title="icns.cpp">
<polygon fill="#ffffff" stroke="#000000" points="1090.5,-.5 1090.5,-19.5 1143.5,-19.5 1143.5,-.5 1090.5,-.5"/>
<text text-anchor="middle" x="1117" y="-7.5" font-family="Helvetica,sans-Serif" font-size="10.00" fill="#000000">icns.cpp</text>
</a>
</g>
</g>
<!-- Node10&#45;&gt;Node11 -->
<g id="edge6" class="edge">
<title>Node10&#45;&gt;Node11</title>
<path fill="none" stroke="#191970" d="M1117,-46.1575C1117,-37.155 1117,-26.9199 1117,-19.6427"/>
<polygon fill="#191970" stroke="#191970" points="1113.5001,-46.2455 1117,-56.2455 1120.5001,-46.2456 1113.5001,-46.2455"/>
</g>
<!-- Node12&#45;&gt;Node11 -->
<g id="edge8" class="edge">
<title>Node12&#45;&gt;Node11</title>
<path fill="none" stroke="#191970" d="M940.1554,-54.0147C986.039,-42.5947 1053.4357,-25.8204 1090.3689,-16.6282"/>
<polygon fill="#191970" stroke="#191970" points="939.2818,-50.6252 930.4232,-56.4369 940.9725,-57.418 939.2818,-50.6252"/>
</g>
<!-- Node13 -->
<g id="node9" class="node">
<title>Node13</title>
<g id="a_node9"><a xlink:href="icns__advection_8cpp.html" target="_top" xlink:title="icns_advection.cpp">
<polygon fill="#ffffff" stroke="#000000" points="841.5,-.5 841.5,-19.5 942.5,-19.5 942.5,-.5 841.5,-.5"/>
<text text-anchor="middle" x="892" y="-7.5" font-family="Helvetica,sans-Serif" font-size="10.00" fill="#000000">icns_advection.cpp</text>
</a>
</g>
</g>
<!-- Node12&#45;&gt;Node13 -->
<g id="edge9" class="edge">
<title>Node12&#45;&gt;Node13</title>
<path fill="none" stroke="#191970" d="M892,-46.1575C892,-37.155 892,-26.9199 892,-19.6427"/>
<polygon fill="#191970" stroke="#191970" points="888.5001,-46.2455 892,-56.2455 895.5001,-46.2456 888.5001,-46.2455"/>
</g>
<!-- Node18&#45;&gt;Node9 -->
<g id="edge15" class="edge">
<title>Node18&#45;&gt;Node9</title>
<path fill="none" stroke="#191970" d="M750.7776,-108.5046C728.8782,-99.5111 699.6179,-87.3089 674,-76 654.718,-67.4881 651.1501,-62.1822 631,-56 542.5966,-28.8774 433.5857,-16.9565 379.589,-12.4133"/>
<polygon fill="#191970" stroke="#191970" points="749.7014,-111.8459 760.282,-112.3961 752.3539,-105.3679 749.7014,-111.8459"/>
</g>
<!-- Node18&#45;&gt;Node10 -->
<g id="edge16" class="edge">
<title>Node18&#45;&gt;Node10</title>
<path fill="none" stroke="#191970" d="M835.6854,-112.054C835.7903,-112.036 835.8952,-112.018 836,-112 941.8766,-93.8532 969.5457,-96.4585 1075,-76 1077.7962,-75.4575 1080.6876,-74.8558 1083.5845,-74.2243"/>
<polygon fill="#191970" stroke="#191970" points="834.9288,-108.6335 825.6947,-113.8279 836.1526,-115.5257 834.9288,-108.6335"/>
</g>
<!-- Node18&#45;&gt;Node12 -->
<g id="edge17" class="edge">
<title>Node18&#45;&gt;Node12</title>
<path fill="none" stroke="#191970" d="M811.7771,-107.5971C831.1382,-97.558 856.4385,-84.4393 873.4034,-75.6427"/>
<polygon fill="#191970" stroke="#191970" points="810.0786,-104.5352 802.8122,-112.2455 813.3008,-110.7495 810.0786,-104.5352"/>
</g>
<!-- Node18&#45;&gt;Node14 -->
<g id="edge18" class="edge">
<title>Node18&#45;&gt;Node14</title>
<path fill="none" stroke="#191970" d="M742.4947,-109.4697C686.1786,-92.5936 588.4117,-63.775 552,-56 442.6479,-32.6499 412.8878,-40.6827 303,-20 300.2884,-19.4896 297.4891,-18.925 294.6804,-18.3316"/>
<polygon fill="#191970" stroke="#191970" points="741.584,-112.8505 752.1681,-112.3732 743.5964,-106.146 741.584,-112.8505"/>
</g>
<!-- Node18&#45;&gt;Node15 -->
<g id="edge19" class="edge">
<title>Node18&#45;&gt;Node15</title>
<path fill="none" stroke="#191970" d="M732.0838,-112.309C668.5693,-100.4529 563.2764,-80.7983 512.7653,-71.3695"/>
<polygon fill="#191970" stroke="#191970" points="731.8138,-115.819 742.2863,-114.2134 733.0983,-108.9378 731.8138,-115.819"/>
</g>
<!-- Node18&#45;&gt;Node16 -->
<g id="edge20" class="edge">
<title>Node18&#45;&gt;Node16</title>
<path fill="none" stroke="#191970" d="M732.2947,-112.3622C731.5248,-112.2392 730.7595,-112.1184 730,-112 604.2852,-92.4082 571.6467,-96.024 446,-76 443.2764,-75.5659 440.4771,-75.0963 437.6571,-74.6054"/>
<polygon fill="#191970" stroke="#191970" points="732.0317,-115.8667 742.4718,-114.0627 733.1854,-108.9624 732.0317,-115.8667"/>
</g>
<!-- Node18&#45;&gt;Node17 -->
<g id="edge21" class="edge">
<title>Node18&#45;&gt;Node17</title>
<path fill="none" stroke="#191970" d="M789.5846,-102.4538C792.177,-93.3803 795.1429,-82.9998 797.245,-75.6427"/>
<polygon fill="#191970" stroke="#191970" points="786.1689,-101.6688 786.787,-112.2455 792.8996,-103.5919 786.1689,-101.6688"/>
</g>
<!-- Node19&#45;&gt;Node9 -->
<g id="edge23" class="edge">
<title>Node19&#45;&gt;Node9</title>
<path fill="none" stroke="#191970" d="M516.2049,-112.1289C435.4637,-97.338 389.5119,-135.4392 341,-76 327.9215,-59.9755 335.7065,-33.8561 341.4816,-19.76"/>
<polygon fill="#191970" stroke="#191970" points="515.7242,-115.6035 526.2264,-114.2049 517.1443,-108.7491 515.7242,-115.6035"/>
</g>
<!-- Node19&#45;&gt;Node14 -->
<g id="edge26" class="edge">
<title>Node19&#45;&gt;Node14</title>
<path fill="none" stroke="#191970" d="M516.2659,-112.0334C432.1923,-94.9632 402.5452,-113.133 330,-76 302.9398,-62.149 278.9756,-34.6339 267.3823,-19.884"/>
<polygon fill="#191970" stroke="#191970" points="515.7231,-115.4964 526.2345,-114.1692 517.1897,-108.6518 515.7231,-115.4964"/>
</g>
<!-- Node19&#45;&gt;Node15 -->
<g id="edge27" class="edge">
<title>Node19&#45;&gt;Node15</title>
<path fill="none" stroke="#191970" d="M535.336,-105.928C522.7511,-96.1397 507.0908,-83.9595 496.3977,-75.6427"/>
<polygon fill="#191970" stroke="#191970" points="533.4162,-108.8688 543.4586,-112.2455 537.7138,-103.3434 533.4162,-108.8688"/>
</g>
<!-- Node19&#45;&gt;Node16 -->
<g id="edge28" class="edge">
<title>Node19&#45;&gt;Node16</title>
<path fill="none" stroke="#191970" d="M518.5578,-109.057C488.9099,-98.8084 448.1804,-84.729 421.4854,-75.5011"/>
<polygon fill="#191970" stroke="#191970" points="517.5564,-112.414 528.1512,-112.3733 519.8435,-105.7982 517.5564,-112.414"/>
</g>
<!-- Node19&#45;&gt;Node17 -->
<g id="edge29" class="edge">
<title>Node19&#45;&gt;Node17</title>
<path fill="none" stroke="#191970" d="M595.6146,-113.7542C637.3698,-104.9327 704.9998,-90.2746 763,-76 765.9722,-75.2685 769.0709,-74.477 772.1547,-73.6707"/>
<polygon fill="#191970" stroke="#191970" points="594.6423,-110.3821 585.578,-115.8675 596.0846,-117.232 594.6423,-110.3821"/>
</g>
<!-- Node20 -->
<g id="node16" class="node">
<title>Node20</title>
<g id="a_node16"><a xlink:href="icns__bcop_8_h.html" target="_top" xlink:title="icns_bcop.H">
<polygon fill="#ffffff" stroke="#000000" points="683.5,-56.5 683.5,-75.5 754.5,-75.5 754.5,-56.5 683.5,-56.5"/>
<text text-anchor="middle" x="719" y="-63.5" font-family="Helvetica,sans-Serif" font-size="10.00" fill="#000000">icns_bcop.H</text>
</a>
</g>
</g>
<!-- Node19&#45;&gt;Node20 -->
<g id="edge24" class="edge">
<title>Node19&#45;&gt;Node20</title>
<path fill="none" stroke="#191970" d="M593.6733,-109.057C623.5042,-98.8084 664.4852,-84.729 691.3449,-75.5011"/>
<polygon fill="#191970" stroke="#191970" points="592.3409,-105.8139 584.0207,-112.3733 594.6154,-112.4341 592.3409,-105.8139"/>
</g>
<!-- Node20&#45;&gt;Node11 -->
<g id="edge25" class="edge">
<title>Node20&#45;&gt;Node11</title>
<path fill="none" stroke="#191970" d="M764.8544,-55.7857C891.8038,-33.5678 1032.4823,-18.4175 1090.2238,-12.608"/>
<polygon fill="#191970" stroke="#191970" points="764.1991,-52.3472 754.9621,-57.5365 765.4191,-59.24 764.1991,-52.3472"/>
</g>
<!-- Node21&#45;&gt;Node22 -->
<g id="edge31" class="edge">
<title>Node21&#45;&gt;Node22</title>
<path fill="none" stroke="#191970" d="M757,-214.1575C757,-205.155 757,-194.9199 757,-187.6427"/>
<polygon fill="#191970" stroke="#191970" points="753.5001,-214.2455 757,-224.2455 760.5001,-214.2456 753.5001,-214.2455"/>
</g>
<!-- Node23 -->
<g id="node19" class="node">
<title>Node23</title>
<g id="a_node19"><a xlink:href="density_8_h.html" target="_top" xlink:title="density.H">
<polygon fill="#ffffff" stroke="#000000" points="186.5,-112.5 186.5,-131.5 245.5,-131.5 245.5,-112.5 186.5,-112.5"/>
<text text-anchor="middle" x="216" y="-119.5" font-family="Helvetica,sans-Serif" font-size="10.00" fill="#000000">density.H</text>
</a>
</g>
</g>
<!-- Node22&#45;&gt;Node23 -->
<g id="edge32" class="edge">
<title>Node22&#45;&gt;Node23</title>
<path fill="none" stroke="#191970" d="M722.6346,-174.4428C623.5841,-164.1898 338.6682,-134.6976 245.7161,-125.076"/>
<polygon fill="#191970" stroke="#191970" points="722.3961,-177.9367 732.7034,-175.485 723.1169,-170.9739 722.3961,-177.9367"/>
</g>
<!-- Node25 -->
<g id="node21" class="node">
<title>Node25</title>
<g id="a_node21"><a xlink:href="icns_8_h.html" target="_top" xlink:title="icns.H">
<polygon fill="#ffffff" stroke="#000000" points="845.5,-112.5 845.5,-131.5 890.5,-131.5 890.5,-112.5 845.5,-112.5"/>
<text text-anchor="middle" x="868" y="-119.5" font-family="Helvetica,sans-Serif" font-size="10.00" fill="#000000">icns.H</text>
</a>
</g>
</g>
<!-- Node22&#45;&gt;Node25 -->
<g id="edge36" class="edge">
<title>Node22&#45;&gt;Node25</title>
<path fill="none" stroke="#191970" d="M785.0734,-163.8368C805.1385,-153.7139 831.5922,-140.3679 849.1674,-131.5011"/>
<polygon fill="#191970" stroke="#191970" points="783.4332,-160.7441 776.0816,-168.3733 786.5862,-166.9938 783.4332,-160.7441"/>
</g>
<!-- Node28 -->
<g id="node24" class="node">
<title>Node28</title>
<g id="a_node24"><a xlink:href="levelset_8_h.html" target="_top" xlink:title="levelset.H">
<polygon fill="#ffffff" stroke="#000000" points="79.5,-112.5 79.5,-131.5 140.5,-131.5 140.5,-112.5 79.5,-112.5"/>
<text text-anchor="middle" x="110" y="-119.5" font-family="Helvetica,sans-Serif" font-size="10.00" fill="#000000">levelset.H</text>
</a>
</g>
</g>
<!-- Node22&#45;&gt;Node28 -->
<g id="edge44" class="edge">
<title>Node22&#45;&gt;Node28</title>
<path fill="none" stroke="#191970" d="M722.7708,-176.1129C633.0317,-170.9862 383.6199,-155.5845 177,-132 165.0814,-130.6396 152.024,-128.7757 140.6274,-127.0255"/>
<polygon fill="#191970" stroke="#191970" points="722.7275,-179.6159 732.9094,-176.687 723.1233,-172.6271 722.7275,-179.6159"/>
</g>
<!-- Node30 -->
<g id="node26" class="node">
<title>Node30</title>
<g id="a_node26"><a xlink:href="_s_d_r_8_h.html" target="_top" xlink:title="SDR.H">
<polygon fill="#ffffff" stroke="#000000" points="459.5,-112.5 459.5,-131.5 508.5,-131.5 508.5,-112.5 459.5,-112.5"/>
<text text-anchor="middle" x="484" y="-119.5" font-family="Helvetica,sans-Serif" font-size="10.00" fill="#000000">SDR.H</text>
</a>
</g>
</g>
<!-- Node22&#45;&gt;Node30 -->
<g id="edge48" class="edge">
<title>Node22&#45;&gt;Node30</title>
<path fill="none" stroke="#191970" d="M723.0848,-172.6525C676.3755,-165.0263 589.7598,-149.9446 517,-132 514.3264,-131.3406 511.5481,-130.5953 508.789,-129.8163"/>
<polygon fill="#191970" stroke="#191970" points="722.5439,-176.1104 732.9746,-174.2528 723.6621,-169.2003 722.5439,-176.1104"/>
</g>
<!-- Node31 -->
<g id="node27" class="node">
<title>Node31</title>
<g id="a_node27"><a xlink:href="temperature_8_h.html" target="_top" xlink:title="temperature.H">
<polygon fill="#ffffff" stroke="#000000" points="358.5,-112.5 358.5,-131.5 437.5,-131.5 437.5,-112.5 358.5,-112.5"/>
<text text-anchor="middle" x="398" y="-119.5" font-family="Helvetica,sans-Serif" font-size="10.00" fill="#000000">temperature.H</text>
</a>
</g>
</g>
<!-- Node22&#45;&gt;Node31 -->
<g id="edge50" class="edge">
<title>Node22&#45;&gt;Node31</title>
<path fill="none" stroke="#191970" d="M722.4341,-173.2947C665.5212,-165.4411 548.5646,-148.8543 450,-132 446.0129,-131.3182 441.8602,-130.5754 437.7166,-129.8126"/>
<polygon fill="#191970" stroke="#191970" points="722.2853,-176.8071 732.6689,-174.7021 723.2389,-169.8724 722.2853,-176.8071"/>
</g>
<!-- Node32 -->
<g id="node28" class="node">
<title>Node32</title>
<g id="a_node28"><a xlink:href="_t_k_e_8_h.html" target="_top" xlink:title="TKE.H">
<polygon fill="#ffffff" stroke="#000000" points="908.5,-112.5 908.5,-131.5 955.5,-131.5 955.5,-112.5 908.5,-112.5"/>
<text text-anchor="middle" x="932" y="-119.5" font-family="Helvetica,sans-Serif" font-size="10.00" fill="#000000">TKE.H</text>
</a>
</g>
</g>
<!-- Node22&#45;&gt;Node32 -->
<g id="edge52" class="edge">
<title>Node22&#45;&gt;Node32</title>
<path fill="none" stroke="#191970" d="M791.0015,-167.1195C825.5657,-156.059 878.2048,-139.2145 908.4328,-129.5415"/>
<polygon fill="#191970" stroke="#191970" points="789.7905,-163.8321 781.333,-170.2134 791.924,-170.4991 789.7905,-163.8321"/>
</g>
<!-- Node23&#45;&gt;Node9 -->
<g id="edge33" class="edge">
<title>Node23&#45;&gt;Node9</title>
<path fill="none" stroke="#191970" d="M191.1478,-106.2296C173.0587,-92.7706 153.8474,-72.9599 167,-56 169.2674,-53.0762 261.2415,-30.4738 312.4408,-18.0763"/>
<polygon fill="#191970" stroke="#191970" points="189.593,-109.4138 199.7911,-112.2862 193.6101,-103.6812 189.593,-109.4138"/>
</g>
<!-- Node24 -->
<g id="node20" class="node">
<title>Node24</title>
<g id="a_node20"><a xlink:href="density__ops_8_h.html" target="_top" xlink:title="density_ops.H">
<polygon fill="#ffffff" stroke="#000000" points="176,-56.5 176,-75.5 256,-75.5 256,-56.5 176,-56.5"/>
<text text-anchor="middle" x="216" y="-63.5" font-family="Helvetica,sans-Serif" font-size="10.00" fill="#000000">density_ops.H</text>
</a>
</g>
</g>
<!-- Node23&#45;&gt;Node24 -->
<g id="edge34" class="edge">
<title>Node23&#45;&gt;Node24</title>
<path fill="none" stroke="#191970" d="M216,-102.1575C216,-93.155 216,-82.9199 216,-75.6427"/>
<polygon fill="#191970" stroke="#191970" points="212.5001,-102.2455 216,-112.2455 219.5001,-102.2456 212.5001,-102.2455"/>
</g>
<!-- Node24&#45;&gt;Node9 -->
<g id="edge35" class="edge">
<title>Node24&#45;&gt;Node9</title>
<path fill="none" stroke="#191970" d="M247.6102,-52.3833C271.2535,-42.1985 302.9876,-28.5284 323.9438,-19.5011"/>
<polygon fill="#191970" stroke="#191970" points="246.1472,-49.2025 238.3478,-56.3733 248.9166,-55.6314 246.1472,-49.2025"/>
</g>
<!-- Node25&#45;&gt;Node10 -->
<g id="edge38" class="edge">
<title>Node25&#45;&gt;Node10</title>
<path fill="none" stroke="#191970" d="M900.3461,-111.8417C977.9355,-91.8046 1000.0888,-92.5749 1075,-76 1077.781,-75.3847 1080.6619,-74.7317 1083.5516,-74.0658"/>
<polygon fill="#191970" stroke="#191970" points="899.3904,-108.4739 890.6019,-114.391 901.1622,-115.246 899.3904,-108.4739"/>
</g>
<!-- Node25&#45;&gt;Node11 -->
<g id="edge37" class="edge">
<title>Node25&#45;&gt;Node11</title>
<path fill="none" stroke="#191970" d="M900.3756,-112.3074C971.0357,-100.8216 1122.4837,-117.9207 1159,-76 1174.8791,-57.7708 1148.371,-32.9833 1130.7435,-19.5706"/>
<polygon fill="#191970" stroke="#191970" points="899.7059,-108.872 890.5598,-114.2198 901.0447,-115.7428 899.7059,-108.872"/>
</g>
<!-- Node25&#45;&gt;Node12 -->
<g id="edge39" class="edge">
<title>Node25&#45;&gt;Node12</title>
<path fill="none" stroke="#191970" d="M876.1241,-103.0437C880.0715,-93.8331 884.6458,-83.1598 887.8674,-75.6427"/>
<polygon fill="#191970" stroke="#191970" points="872.9027,-101.6753 872.1805,-112.2455 879.3367,-104.4328 872.9027,-101.6753"/>
</g>
<!-- Node25&#45;&gt;Node20 -->
<g id="edge42" class="edge">
<title>Node25&#45;&gt;Node20</title>
<path fill="none" stroke="#191970" d="M835.8376,-109.9121C808.4326,-99.6123 769.5864,-85.0123 744.3417,-75.5244"/>
<polygon fill="#191970" stroke="#191970" points="834.778,-113.2529 845.3701,-113.4948 837.2408,-106.7004 834.778,-113.2529"/>
</g>
<!-- Node25&#45;&gt;Node26 -->
<g id="edge40" class="edge">
<title>Node25&#45;&gt;Node26</title>
<path fill="none" stroke="#191970" d="M900.3747,-112.0227C1028.8898,-84.2725 1065.3727,-94.6841 1192,-76 1196.6499,-75.3139 1201.5015,-74.5515 1206.3321,-73.7623"/>
<polygon fill="#191970" stroke="#191970" points="899.5678,-108.6164 890.5506,-114.1788 901.0685,-115.4536 899.5678,-108.6164"/>
</g>
<!-- Node27 -->
<g id="node23" class="node">
<title>Node27</title>
<g id="a_node23"><a xlink:href="_power_law_profile_8cpp.html" target="_top" xlink:title="PowerLawProfile.cpp">
<polygon fill="#ffffff" stroke="#000000" points="956.5,-56.5 956.5,-75.5 1065.5,-75.5 1065.5,-56.5 956.5,-56.5"/>
<text text-anchor="middle" x="1011" y="-63.5" font-family="Helvetica,sans-Serif" font-size="10.00" fill="#000000">PowerLawProfile.cpp</text>
</a>
</g>
</g>
<!-- Node25&#45;&gt;Node27 -->
<g id="edge43" class="edge">
<title>Node25&#45;&gt;Node27</title>
<path fill="none" stroke="#191970" d="M900.1396,-109.4139C926.3059,-99.1669 962.689,-84.919 986.5317,-75.582"/>
<polygon fill="#191970" stroke="#191970" points="898.694,-106.2211 890.6588,-113.1266 901.2465,-112.7391 898.694,-106.2211"/>
</g>
<!-- Node26&#45;&gt;Node11 -->
<g id="edge41" class="edge">
<title>Node26&#45;&gt;Node11</title>
<path fill="none" stroke="#191970" d="M1217.6603,-52.3833C1193.4715,-42.1985 1161.005,-28.5284 1139.5652,-19.5011"/>
<polygon fill="#191970" stroke="#191970" points="1216.5619,-55.7184 1227.1365,-56.3733 1219.2783,-49.2669 1216.5619,-55.7184"/>
</g>
<!-- Node28&#45;&gt;Node14 -->
<g id="edge45" class="edge">
<title>Node28&#45;&gt;Node14</title>
<path fill="none" stroke="#191970" d="M120.3458,-103.2439C129.0901,-88.7899 142.768,-69.12 159,-56 179.6791,-39.2856 207.413,-27.2243 228.5866,-19.6566"/>
<polygon fill="#191970" stroke="#191970" points="117.0987,-101.8662 115.1094,-112.2726 123.1541,-105.3781 117.0987,-101.8662"/>
</g>
<!-- Node29 -->
<g id="node25" class="node">
<title>Node29</title>
<g id="a_node25"><a xlink:href="levelset__ops_8_h.html" target="_top" xlink:title="levelset_ops.H">
<polygon fill="#ffffff" stroke="#000000" points="0,-56.5 0,-75.5 82,-75.5 82,-56.5 0,-56.5"/>
<text text-anchor="middle" x="41" y="-63.5" font-family="Helvetica,sans-Serif" font-size="10.00" fill="#000000">levelset_ops.H</text>
</a>
</g>
</g>
<!-- Node28&#45;&gt;Node29 -->
<g id="edge46" class="edge">
<title>Node28&#45;&gt;Node29</title>
<path fill="none" stroke="#191970" d="M90.197,-105.928C78.1364,-96.1397 63.1286,-83.9595 52.8812,-75.6427"/>
<polygon fill="#191970" stroke="#191970" points="88.0109,-108.6614 97.9811,-112.2455 92.4221,-103.2262 88.0109,-108.6614"/>
</g>
<!-- Node29&#45;&gt;Node14 -->
<g id="edge47" class="edge">
<title>Node29&#45;&gt;Node14</title>
<path fill="none" stroke="#191970" d="M88.4666,-53.8624C129.6955,-43.3199 188.4337,-28.3001 225.3677,-18.8557"/>
<polygon fill="#191970" stroke="#191970" points="87.4686,-50.5049 78.6474,-56.3733 89.2028,-57.2867 87.4686,-50.5049"/>
</g>
<!-- Node30&#45;&gt;Node15 -->
<g id="edge49" class="edge">
<title>Node30&#45;&gt;Node15</title>
<path fill="none" stroke="#191970" d="M484,-102.1575C484,-93.155 484,-82.9199 484,-75.6427"/>
<polygon fill="#191970" stroke="#191970" points="480.5001,-102.2455 484,-112.2455 487.5001,-102.2456 480.5001,-102.2455"/>
</g>
<!-- Node31&#45;&gt;Node16 -->
<g id="edge51" class="edge">
<title>Node31&#45;&gt;Node16</title>
<path fill="none" stroke="#191970" d="M396.5827,-102.1575C395.9396,-93.155 395.2086,-82.9199 394.6888,-75.6427"/>
<polygon fill="#191970" stroke="#191970" points="393.0996,-102.5204 397.3033,-112.2455 400.0818,-102.0216 393.0996,-102.5204"/>
</g>
<!-- Node32&#45;&gt;Node17 -->
<g id="edge53" class="edge">
<title>Node32&#45;&gt;Node17</title>
<path fill="none" stroke="#191970" d="M899.9035,-108.3833C875.8965,-98.1985 843.6741,-84.5284 822.3955,-75.5011"/>
<polygon fill="#191970" stroke="#191970" points="898.7356,-111.6897 909.3084,-112.3733 901.4695,-105.2457 898.7356,-111.6897"/>
</g>
<!-- Node33 -->
<g id="node29" class="node">
<title>Node33</title>
<g id="a_node29"><a xlink:href="_one_eq_ksgs_8cpp.html" target="_top" xlink:title="OneEqKsgs.cpp">
<polygon fill="#ffffff" stroke="#000000" points="1312,-56.5 1312,-75.5 1400,-75.5 1400,-56.5 1312,-56.5"/>
<text text-anchor="middle" x="1356" y="-63.5" font-family="Helvetica,sans-Serif" font-size="10.00" fill="#000000">OneEqKsgs.cpp</text>
</a>
</g>
</g>
<!-- Node32&#45;&gt;Node33 -->
<g id="edge54" class="edge">
<title>Node32&#45;&gt;Node33</title>
<path fill="none" stroke="#191970" d="M965.6153,-118.5511C1030.8472,-111.6995 1179.0823,-95.3528 1303,-76 1305.868,-75.5521 1308.8186,-75.066 1311.7897,-74.5576"/>
<polygon fill="#191970" stroke="#191970" points="965.0936,-115.0865 955.5112,-119.606 965.8206,-122.0486 965.0936,-115.0865"/>
</g>
<!-- Node34&#45;&gt;Node10 -->
<g id="edge59" class="edge">
<title>Node34&#45;&gt;Node10</title>
<path fill="none" stroke="#191970" d="M1084.5901,-218.778C1095.4319,-211.0584 1106.846,-200.626 1113,-188 1131.477,-150.0913 1123.6451,-97.3986 1119.2414,-75.8133"/>
<polygon fill="#191970" stroke="#191970" points="1082.5369,-215.9397 1076.1294,-224.3775 1086.4002,-221.7771 1082.5369,-215.9397"/>
</g>
<!-- Node34&#45;&gt;Node22 -->
<g id="edge57" class="edge">
<title>Node34&#45;&gt;Node22</title>
<path fill="none" stroke="#191970" d="M1005.6814,-224.2663C939.975,-212.0419 829.9685,-191.5755 781.3587,-182.5319"/>
<polygon fill="#191970" stroke="#191970" points="1005.3588,-227.7663 1015.8303,-226.1545 1006.6392,-220.8844 1005.3588,-227.7663"/>
</g>
<!-- Node34&#45;&gt;Node26 -->
<g id="edge60" class="edge">
<title>Node34&#45;&gt;Node26</title>
<path fill="none" stroke="#191970" d="M1084.9824,-219.4009C1099.1096,-211.1239 1116.2746,-200.0311 1130,-188 1163.2074,-158.8917 1162.5846,-143.0338 1194,-112 1207.7843,-98.3832 1225.2495,-84.5027 1236.9788,-75.6035"/>
<polygon fill="#191970" stroke="#191970" points="1083.1516,-216.4159 1076.2042,-224.4149 1086.6235,-222.4942 1083.1516,-216.4159"/>
</g>
<!-- Node35 -->
<g id="node31" class="node">
<title>Node35</title>
<g id="a_node31"><a xlink:href="_diffusion_ops_8cpp.html" target="_top" xlink:title="DiffusionOps.cpp">
<polygon fill="#ffffff" stroke="#000000" points="1012,-168.5 1012,-187.5 1104,-187.5 1104,-168.5 1012,-168.5"/>
<text text-anchor="middle" x="1058" y="-175.5" font-family="Helvetica,sans-Serif" font-size="10.00" fill="#000000">DiffusionOps.cpp</text>
</a>
</g>
</g>
<!-- Node34&#45;&gt;Node35 -->
<g id="edge58" class="edge">
<title>Node34&#45;&gt;Node35</title>
<path fill="none" stroke="#191970" d="M1058,-214.1575C1058,-205.155 1058,-194.9199 1058,-187.6427"/>
<polygon fill="#191970" stroke="#191970" points="1054.5001,-214.2455 1058,-224.2455 1061.5001,-214.2456 1054.5001,-214.2455"/>
</g>
<!-- Node39 -->
<g id="node35" class="node">
<title>Node39</title>
<g id="a_node35"><a xlink:href="_one_eq_ksgs_8_h.html" target="_top" xlink:title="OneEqKsgs.H">
<polygon fill="#ffffff" stroke="#000000" points="1236,-224.5 1236,-243.5 1316,-243.5 1316,-224.5 1236,-224.5"/>
<text text-anchor="middle" x="1276" y="-231.5" font-family="Helvetica,sans-Serif" font-size="10.00" fill="#000000">OneEqKsgs.H</text>
</a>
</g>
</g>
<!-- Node38&#45;&gt;Node39 -->
<g id="edge66" class="edge">
<title>Node38&#45;&gt;Node39</title>
<path fill="none" stroke="#191970" d="M1204.9016,-275.0465C1222.1609,-265.0824 1244.3376,-252.2794 1259.2975,-243.6427"/>
<polygon fill="#191970" stroke="#191970" points="1202.8065,-272.2146 1195.8961,-280.2455 1206.3064,-278.2768 1202.8065,-272.2146"/>
</g>
<!-- Node40 -->
<g id="node36" class="node">
<title>Node40</title>
<g id="a_node36"><a xlink:href="_smagorinsky_8_h.html" target="_top" xlink:title="Smagorinsky.H">
<polygon fill="#ffffff" stroke="#000000" points="1334,-224.5 1334,-243.5 1418,-243.5 1418,-224.5 1334,-224.5"/>
<text text-anchor="middle" x="1376" y="-231.5" font-family="Helvetica,sans-Serif" font-size="10.00" fill="#000000">Smagorinsky.H</text>
</a>
</g>
</g>
<!-- Node38&#45;&gt;Node40 -->
<g id="edge68" class="edge">
<title>Node38&#45;&gt;Node40</title>
<path fill="none" stroke="#191970" d="M1222.6629,-277.5882C1258.8569,-267.2996 1309.5494,-252.8895 1342.5764,-243.5011"/>
<polygon fill="#191970" stroke="#191970" points="1221.5274,-274.2723 1212.8655,-280.3733 1223.4415,-281.0055 1221.5274,-274.2723"/>
</g>
<!-- Node39&#45;&gt;Node33 -->
<g id="edge67" class="edge">
<title>Node39&#45;&gt;Node33</title>
<path fill="none" stroke="#191970" d="M1284.9577,-215.1887C1301.9637,-179.4762 1338.3815,-102.9988 1351.3201,-75.8279"/>
<polygon fill="#191970" stroke="#191970" points="1281.6697,-213.9528 1280.5304,-224.4862 1287.9898,-216.9624 1281.6697,-213.9528"/>
</g>
<!-- Node41 -->
<g id="node37" class="node">
<title>Node41</title>
<g id="a_node37"><a xlink:href="_smagorinsky_8cpp.html" target="_top" xlink:title="Smagorinsky.cpp">
<polygon fill="#ffffff" stroke="#000000" points="1323,-168.5 1323,-187.5 1415,-187.5 1415,-168.5 1323,-168.5"/>
<text text-anchor="middle" x="1369" y="-175.5" font-family="Helvetica,sans-Serif" font-size="10.00" fill="#000000">Smagorinsky.cpp</text>
</a>
</g>
</g>
<!-- Node40&#45;&gt;Node41 -->
<g id="edge69" class="edge">
<title>Node40&#45;&gt;Node41</title>
<path fill="none" stroke="#191970" d="M1373.5197,-214.1575C1372.3944,-205.155 1371.115,-194.9199 1370.2053,-187.6427"/>
<polygon fill="#191970" stroke="#191970" points="1370.0673,-214.7569 1374.7807,-224.2455 1377.0132,-213.8886 1370.0673,-214.7569"/>
</g>
<!-- Node42 -->
<g id="node38" class="node">
<title>Node42</title>
<g id="a_node38"><a xlink:href="turbulence__utils_8_h.html" target="_top" xlink:title="turbulence_utils.H">
<polygon fill="#ffffff" stroke="#000000" points="1433.5,-168.5 1433.5,-187.5 1528.5,-187.5 1528.5,-168.5 1433.5,-168.5"/>
<text text-anchor="middle" x="1481" y="-175.5" font-family="Helvetica,sans-Serif" font-size="10.00" fill="#000000">turbulence_utils.H</text>
</a>
</g>
</g>
<!-- Node40&#45;&gt;Node42 -->
<g id="edge70" class="edge">
<title>Node40&#45;&gt;Node42</title>
<path fill="none" stroke="#191970" d="M1403.2625,-219.46C1422.0522,-209.4388 1446.5013,-196.3993 1462.92,-187.6427"/>
<polygon fill="#191970" stroke="#191970" points="1401.4661,-216.4514 1394.2896,-224.2455 1404.7602,-222.6278 1401.4661,-216.4514"/>
</g>
</g>
</svg>
