<?xml version="1.0" encoding="UTF-8" standalone="no"?>
<!DOCTYPE svg PUBLIC "-//W3C//DTD SVG 1.1//EN"
 "http://www.w3.org/Graphics/SVG/1.1/DTD/svg11.dtd">
<!-- Generated by graphviz version 2.40.1 (20161225.0304)
 -->
<!-- Title: IntField.cpp Pages: 1 -->
<svg width="1513pt" height="252pt"
 viewBox="0.00 0.00 1512.90 252.00" xmlns="http://www.w3.org/2000/svg" xmlns:xlink="http://www.w3.org/1999/xlink">
<g id="graph0" class="graph" transform="scale(1 1) rotate(0) translate(4 248)">
<title>IntField.cpp</title>
<polygon fill="#ffffff" stroke="transparent" points="-4,4 -4,-248 1508.9006,-248 1508.9006,4 -4,4"/>
<!-- Node0 -->
<g id="node1" class="node">
<title>Node0</title>
<polygon fill="#bfbfbf" stroke="#000000" points="910.5,-224.5 910.5,-243.5 978.5,-243.5 978.5,-224.5 910.5,-224.5"/>
<text text-anchor="middle" x="944.5" y="-231.5" font-family="Helvetica,sans-Serif" font-size="10.00" fill="#000000">IntField.cpp</text>
</g>
<!-- Node1 -->
<g id="node2" class="node">
<title>Node1</title>
<g id="a_node2"><a xlink:href="_int_field_8_h.html" target="_top" xlink:title="amr&#45;wind/core/IntField.H">
<polygon fill="#ffffff" stroke="#000000" points="1322.5,-112.5 1322.5,-131.5 1446.5,-131.5 1446.5,-112.5 1322.5,-112.5"/>
<text text-anchor="middle" x="1384.5" y="-119.5" font-family="Helvetica,sans-Serif" font-size="10.00" fill="#000000">amr&#45;wind/core/IntField.H</text>
</a>
</g>
</g>
<!-- Node0&#45;&gt;Node1 -->
<g id="edge1" class="edge">
<title>Node0&#45;&gt;Node1</title>
<path fill="none" stroke="#191970" d="M978.6599,-225.3047C1056.6228,-205.4597 1247.8076,-156.7944 1337.1047,-134.0642"/>
<polygon fill="#191970" stroke="#191970" points="1338.1353,-137.4136 1346.9628,-131.5549 1336.4085,-130.6299 1338.1353,-137.4136"/>
</g>
<!-- Node5 -->
<g id="node6" class="node">
<title>Node5</title>
<g id="a_node6"><a xlink:href="_field_repo_8_h.html" target="_top" xlink:title="amr&#45;wind/core/FieldRepo.H">
<polygon fill="#ffffff" stroke="#000000" points="828.5,-168.5 828.5,-187.5 964.5,-187.5 964.5,-168.5 828.5,-168.5"/>
<text text-anchor="middle" x="896.5" y="-175.5" font-family="Helvetica,sans-Serif" font-size="10.00" fill="#000000">amr&#45;wind/core/FieldRepo.H</text>
</a>
</g>
</g>
<!-- Node0&#45;&gt;Node5 -->
<g id="edge5" class="edge">
<title>Node0&#45;&gt;Node5</title>
<path fill="none" stroke="#191970" d="M936.139,-224.2455C929.325,-216.2958 919.5319,-204.8706 911.3848,-195.3656"/>
<polygon fill="#191970" stroke="#191970" points="913.9305,-192.9575 904.7651,-187.6427 908.6157,-197.513 913.9305,-192.9575"/>
</g>
<!-- Node2 -->
<g id="node3" class="node">
<title>Node2</title>
<polygon fill="#ffffff" stroke="#bfbfbf" points="1282,-.5 1282,-19.5 1323,-19.5 1323,-.5 1282,-.5"/>
<text text-anchor="middle" x="1302.5" y="-7.5" font-family="Helvetica,sans-Serif" font-size="10.00" fill="#000000">string</text>
</g>
<!-- Node1&#45;&gt;Node2 -->
<g id="edge2" class="edge">
<title>Node1&#45;&gt;Node2</title>
<path fill="none" stroke="#191970" d="M1421.617,-112.4178C1456.5187,-101.5747 1500.6237,-81.9854 1480.5,-56 1462.5959,-32.8808 1379.1363,-19.2914 1333.1334,-13.4335"/>
<polygon fill="#191970" stroke="#191970" points="1333.4655,-9.9481 1323.1137,-12.2045 1332.6132,-16.896 1333.4655,-9.9481"/>
</g>
<!-- Node3 -->
<g id="node4" class="node">
<title>Node3</title>
<g id="a_node4"><a xlink:href="_field_desc_types_8_h.html" target="_top" xlink:title="amr&#45;wind/core/FieldDescTypes.H">
<polygon fill="#ffffff" stroke="#000000" points="799,-.5 799,-19.5 962,-19.5 962,-.5 799,-.5"/>
<text text-anchor="middle" x="880.5" y="-7.5" font-family="Helvetica,sans-Serif" font-size="10.00" fill="#000000">amr&#45;wind/core/FieldDescTypes.H</text>
</a>
</g>
</g>
<!-- Node1&#45;&gt;Node3 -->
<g id="edge3" class="edge">
<title>Node1&#45;&gt;Node3</title>
<path fill="none" stroke="#191970" d="M1405.0742,-112.4795C1429.9522,-99.7378 1466.2924,-76.3788 1447.5,-56 1445.5077,-53.8396 1132.6919,-29.4363 972.6111,-17.0796"/>
<polygon fill="#191970" stroke="#191970" points="972.5323,-13.5632 962.2926,-16.2835 971.9937,-20.5425 972.5323,-13.5632"/>
</g>
<!-- Node4 -->
<g id="node5" class="node">
<title>Node4</title>
<polygon fill="#ffffff" stroke="#bfbfbf" points="1331,-56.5 1331,-75.5 1438,-75.5 1438,-56.5 1331,-56.5"/>
<text text-anchor="middle" x="1384.5" y="-63.5" font-family="Helvetica,sans-Serif" font-size="10.00" fill="#000000">AMReX_iMultiFab.H</text>
</g>
<!-- Node1&#45;&gt;Node4 -->
<g id="edge4" class="edge">
<title>Node1&#45;&gt;Node4</title>
<path fill="none" stroke="#191970" d="M1384.5,-112.2455C1384.5,-104.9382 1384.5,-94.6944 1384.5,-85.7046"/>
<polygon fill="#191970" stroke="#191970" points="1388.0001,-85.6426 1384.5,-75.6427 1381.0001,-85.6427 1388.0001,-85.6426"/>
</g>
<!-- Node5&#45;&gt;Node1 -->
<g id="edge27" class="edge">
<title>Node5&#45;&gt;Node1</title>
<path fill="none" stroke="#191970" d="M964.611,-170.184C1056.2833,-159.6642 1218.6505,-141.0319 1312.348,-130.2797"/>
<polygon fill="#191970" stroke="#191970" points="1312.7743,-133.7539 1322.31,-129.1366 1311.9762,-126.7995 1312.7743,-133.7539"/>
</g>
<!-- Node5&#45;&gt;Node2 -->
<g id="edge6" class="edge">
<title>Node5&#45;&gt;Node2</title>
<path fill="none" stroke="#191970" d="M964.6894,-175.5508C1104.4014,-170.0777 1413.6027,-155.4611 1455.5,-132 1488.9868,-113.2485 1520.3028,-86.1067 1496.5,-56 1476.4998,-30.703 1382.8408,-17.8617 1333.3425,-12.7458"/>
<polygon fill="#191970" stroke="#191970" points="1333.5026,-9.2446 1323.2064,-11.7425 1332.813,-16.2106 1333.5026,-9.2446"/>
</g>
<!-- Node5&#45;&gt;Node3 -->
<g id="edge8" class="edge">
<title>Node5&#45;&gt;Node3</title>
<path fill="none" stroke="#191970" d="M874.7342,-168.3857C860.4336,-160.773 842.8748,-148.6416 834.5,-132 816.556,-96.3432 845.1604,-51.9207 864.6986,-27.7282"/>
<polygon fill="#191970" stroke="#191970" points="867.6229,-29.6891 871.3837,-19.7842 862.267,-25.1819 867.6229,-29.6891"/>
</g>
<!-- Node5&#45;&gt;Node4 -->
<g id="edge37" class="edge">
<title>Node5&#45;&gt;Node4</title>
<path fill="none" stroke="#191970" d="M947.3654,-168.4856C993.6733,-159.6463 1063.8648,-145.8038 1124.5,-132 1200.2758,-114.7494 1287.7399,-91.9442 1339.4558,-78.156"/>
<polygon fill="#191970" stroke="#191970" points="1340.551,-81.4862 1349.3083,-75.5229 1338.7437,-74.7235 1340.551,-81.4862"/>
</g>
<!-- Node6 -->
<g id="node7" class="node">
<title>Node6</title>
<polygon fill="#ffffff" stroke="#bfbfbf" points="190,-56.5 190,-75.5 273,-75.5 273,-56.5 190,-56.5"/>
<text text-anchor="middle" x="231.5" y="-63.5" font-family="Helvetica,sans-Serif" font-size="10.00" fill="#000000">unordered_map</text>
</g>
<!-- Node5&#45;&gt;Node6 -->
<g id="edge7" class="edge">
<title>Node5&#45;&gt;Node6</title>
<path fill="none" stroke="#191970" d="M828.3639,-170.1687C759.3847,-161.9214 649.7422,-147.9369 555.5,-132 458.6566,-115.6232 346.5365,-91.6558 282.8187,-77.5594"/>
<polygon fill="#191970" stroke="#191970" points="283.5385,-74.1341 273.0177,-75.3845 282.0219,-80.9678 283.5385,-74.1341"/>
</g>
<!-- Node7 -->
<g id="node8" class="node">
<title>Node7</title>
<g id="a_node8"><a xlink:href="_field_utils_8_h.html" target="_top" xlink:title="amr&#45;wind/core/FieldUtils.H">
<polygon fill="#ffffff" stroke="#000000" points="0,-56.5 0,-75.5 133,-75.5 133,-56.5 0,-56.5"/>
<text text-anchor="middle" x="66.5" y="-63.5" font-family="Helvetica,sans-Serif" font-size="10.00" fill="#000000">amr&#45;wind/core/FieldUtils.H</text>
</a>
</g>
</g>
<!-- Node5&#45;&gt;Node7 -->
<g id="edge9" class="edge">
<title>Node5&#45;&gt;Node7</title>
<path fill="none" stroke="#191970" d="M828.4683,-176.198C655.8208,-171.2889 209.9164,-156.3904 147.5,-132 121.0269,-121.6551 96.616,-99.2488 81.6602,-83.4211"/>
<polygon fill="#191970" stroke="#191970" points="84.0679,-80.8673 74.7404,-75.8427 78.8987,-85.5874 84.0679,-80.8673"/>
</g>
<!-- Node8 -->
<g id="node9" class="node">
<title>Node8</title>
<polygon fill="#ffffff" stroke="#bfbfbf" points="249.5,-.5 249.5,-19.5 353.5,-19.5 353.5,-.5 249.5,-.5"/>
<text text-anchor="middle" x="301.5" y="-7.5" font-family="Helvetica,sans-Serif" font-size="10.00" fill="#000000">AMReX_MultiFab.H</text>
</g>
<!-- Node5&#45;&gt;Node8 -->
<g id="edge36" class="edge">
<title>Node5&#45;&gt;Node8</title>
<path fill="none" stroke="#191970" d="M828.3343,-173.4878C657.3669,-161.4589 221.0811,-126.0922 180.5,-76 158.8616,-49.2902 199.6102,-31.774 239.5422,-21.5442"/>
<polygon fill="#191970" stroke="#191970" points="240.4743,-24.9197 249.3676,-19.1613 238.8244,-18.1169 240.4743,-24.9197"/>
</g>
<!-- Node10 -->
<g id="node11" class="node">
<title>Node10</title>
<g id="a_node11"><a xlink:href="_field_8_h.html" target="_top" xlink:title="amr&#45;wind/core/Field.H">
<polygon fill="#ffffff" stroke="#000000" points="565,-112.5 565,-131.5 678,-131.5 678,-112.5 565,-112.5"/>
<text text-anchor="middle" x="621.5" y="-119.5" font-family="Helvetica,sans-Serif" font-size="10.00" fill="#000000">amr&#45;wind/core/Field.H</text>
</a>
</g>
</g>
<!-- Node5&#45;&gt;Node10 -->
<g id="edge13" class="edge">
<title>Node5&#45;&gt;Node10</title>
<path fill="none" stroke="#191970" d="M849.5383,-168.4369C802.0787,-158.7724 728.7134,-143.8326 678.0777,-133.5213"/>
<polygon fill="#191970" stroke="#191970" points="678.7653,-130.0895 668.268,-131.5237 677.3685,-136.9488 678.7653,-130.0895"/>
</g>
<!-- Node17 -->
<g id="node18" class="node">
<title>Node17</title>
<g id="a_node18"><a xlink:href="_scratch_field_8_h.html" target="_top" xlink:title="amr&#45;wind/core/ScratchField.H">
<polygon fill="#ffffff" stroke="#000000" points="969.5,-112.5 969.5,-131.5 1115.5,-131.5 1115.5,-112.5 969.5,-112.5"/>
<text text-anchor="middle" x="1042.5" y="-119.5" font-family="Helvetica,sans-Serif" font-size="10.00" fill="#000000">amr&#45;wind/core/ScratchField.H</text>
</a>
</g>
</g>
<!-- Node5&#45;&gt;Node17 -->
<g id="edge28" class="edge">
<title>Node5&#45;&gt;Node17</title>
<path fill="none" stroke="#191970" d="M921.5983,-168.3733C945.4555,-159.2226 981.5335,-145.3844 1008.071,-135.2057"/>
<polygon fill="#191970" stroke="#191970" points="1009.6459,-138.3503 1017.7292,-131.5011 1007.139,-131.8145 1009.6459,-138.3503"/>
</g>
<!-- Node19 -->
<g id="node20" class="node">
<title>Node19</title>
<polygon fill="#ffffff" stroke="#bfbfbf" points="843.5,-112.5 843.5,-131.5 949.5,-131.5 949.5,-112.5 843.5,-112.5"/>
<text text-anchor="middle" x="896.5" y="-119.5" font-family="Helvetica,sans-Serif" font-size="10.00" fill="#000000">AMReX_AmrCore.H</text>
</g>
<!-- Node5&#45;&gt;Node19 -->
<g id="edge35" class="edge">
<title>Node5&#45;&gt;Node19</title>
<path fill="none" stroke="#191970" d="M896.5,-168.2455C896.5,-160.9382 896.5,-150.6944 896.5,-141.7046"/>
<polygon fill="#191970" stroke="#191970" points="900.0001,-141.6426 896.5,-131.6427 893.0001,-141.6427 900.0001,-141.6426"/>
</g>
<!-- Node7&#45;&gt;Node3 -->
<g id="edge10" class="edge">
<title>Node7&#45;&gt;Node3</title>
<path fill="none" stroke="#191970" d="M133.0902,-59.9122C148.6428,-58.5587 165.1477,-57.1776 180.5,-56 398.4117,-39.2845 654.779,-23.4004 788.6142,-15.3956"/>
<polygon fill="#191970" stroke="#191970" points="789.0483,-18.876 798.8219,-14.7862 788.631,-11.8885 789.0483,-18.876"/>
</g>
<!-- Node7&#45;&gt;Node8 -->
<g id="edge11" class="edge">
<title>Node7&#45;&gt;Node8</title>
<path fill="none" stroke="#191970" d="M106.6309,-56.4369C146.7649,-46.8731 208.5775,-32.1432 251.7933,-21.845"/>
<polygon fill="#191970" stroke="#191970" points="252.6183,-25.2465 261.5346,-19.5237 250.9956,-18.4372 252.6183,-25.2465"/>
</g>
<!-- Node9 -->
<g id="node10" class="node">
<title>Node9</title>
<polygon fill="#ffffff" stroke="#bfbfbf" points="8.5,-.5 8.5,-19.5 124.5,-19.5 124.5,-.5 8.5,-.5"/>
<text text-anchor="middle" x="66.5" y="-7.5" font-family="Helvetica,sans-Serif" font-size="10.00" fill="#000000">AMReX_Interpolater.H</text>
</g>
<!-- Node7&#45;&gt;Node9 -->
<g id="edge12" class="edge">
<title>Node7&#45;&gt;Node9</title>
<path fill="none" stroke="#191970" d="M66.5,-56.2455C66.5,-48.9382 66.5,-38.6944 66.5,-29.7046"/>
<polygon fill="#191970" stroke="#191970" points="70.0001,-29.6426 66.5,-19.6427 63.0001,-29.6427 70.0001,-29.6426"/>
</g>
<!-- Node10&#45;&gt;Node2 -->
<g id="edge14" class="edge">
<title>Node10&#45;&gt;Node2</title>
<path fill="none" stroke="#191970" d="M678.0599,-117.653C756.1447,-111.1692 901.194,-97.3865 1023.5,-76 1114.7818,-60.0384 1220.8533,-32.3866 1271.9261,-18.4895"/>
<polygon fill="#191970" stroke="#191970" points="1272.9543,-21.8369 1281.6759,-15.8215 1271.1066,-15.0852 1272.9543,-21.8369"/>
</g>
<!-- Node10&#45;&gt;Node3 -->
<g id="edge21" class="edge">
<title>Node10&#45;&gt;Node3</title>
<path fill="none" stroke="#191970" d="M654.7793,-112.4404C682.676,-104.0269 723.3152,-90.8302 757.5,-76 792.6321,-60.7589 831.2587,-39.1856 855.6791,-24.905"/>
<polygon fill="#191970" stroke="#191970" points="857.7771,-27.731 864.6117,-19.6353 854.2203,-21.7019 857.7771,-27.731"/>
</g>
<!-- Node10&#45;&gt;Node6 -->
<g id="edge16" class="edge">
<title>Node10&#45;&gt;Node6</title>
<path fill="none" stroke="#191970" d="M564.9616,-114.9113C498.4565,-106.4116 384.7746,-91.3775 287.5,-76 286.0368,-75.7687 284.5527,-75.5301 283.0554,-75.286"/>
<polygon fill="#191970" stroke="#191970" points="283.4997,-71.8118 273.0588,-73.6112 282.343,-78.7155 283.4997,-71.8118"/>
</g>
<!-- Node10&#45;&gt;Node8 -->
<g id="edge17" class="edge">
<title>Node10&#45;&gt;Node8</title>
<path fill="none" stroke="#191970" d="M564.8642,-120.4555C487.9257,-117.1954 355.8878,-107.1047 320.5,-76 307.5112,-64.5833 303.1413,-44.9194 301.7934,-30.017"/>
<polygon fill="#191970" stroke="#191970" points="305.2749,-29.569 301.2591,-19.7647 298.2844,-29.9334 305.2749,-29.569"/>
</g>
<!-- Node11 -->
<g id="node12" class="node">
<title>Node11</title>
<polygon fill="#ffffff" stroke="#bfbfbf" points="329.5,-56.5 329.5,-75.5 381.5,-75.5 381.5,-56.5 329.5,-56.5"/>
<text text-anchor="middle" x="355.5" y="-63.5" font-family="Helvetica,sans-Serif" font-size="10.00" fill="#000000">memory</text>
</g>
<!-- Node10&#45;&gt;Node11 -->
<g id="edge15" class="edge">
<title>Node10&#45;&gt;Node11</title>
<path fill="none" stroke="#191970" d="M567.084,-112.4621C522.393,-104.3348 457.2555,-91.8196 391.8794,-76.1974"/>
<polygon fill="#191970" stroke="#191970" points="392.3542,-72.7115 381.8121,-73.7671 390.7115,-79.5161 392.3542,-72.7115"/>
</g>
<!-- Node12 -->
<g id="node13" class="node">
<title>Node12</title>
<polygon fill="#ffffff" stroke="#bfbfbf" points="400,-56.5 400,-75.5 499,-75.5 499,-56.5 400,-56.5"/>
<text text-anchor="middle" x="449.5" y="-63.5" font-family="Helvetica,sans-Serif" font-size="10.00" fill="#000000">AMReX_BCRec.H</text>
</g>
<!-- Node10&#45;&gt;Node12 -->
<g id="edge18" class="edge">
<title>Node10&#45;&gt;Node12</title>
<path fill="none" stroke="#191970" d="M591.9321,-112.3733C563.3312,-103.0613 519.8212,-88.8953 488.4181,-78.671"/>
<polygon fill="#191970" stroke="#191970" points="489.2743,-75.269 478.682,-75.5011 487.1072,-81.9251 489.2743,-75.269"/>
</g>
<!-- Node13 -->
<g id="node14" class="node">
<title>Node13</title>
<polygon fill="#ffffff" stroke="#bfbfbf" points="517,-56.5 517,-75.5 602,-75.5 602,-56.5 517,-56.5"/>
<text text-anchor="middle" x="559.5" y="-63.5" font-family="Helvetica,sans-Serif" font-size="10.00" fill="#000000">AMReX_Gpu.H</text>
</g>
<!-- Node10&#45;&gt;Node13 -->
<g id="edge19" class="edge">
<title>Node10&#45;&gt;Node13</title>
<path fill="none" stroke="#191970" d="M610.7004,-112.2455C601.6322,-104.0549 588.4794,-92.1749 577.7755,-82.5069"/>
<polygon fill="#191970" stroke="#191970" points="579.9429,-79.7482 570.1758,-75.6427 575.2509,-84.9429 579.9429,-79.7482"/>
</g>
<!-- Node14 -->
<g id="node15" class="node">
<title>Node14</title>
<g id="a_node15"><a xlink:href="incflo__enums_8_h.html" target="_top" xlink:title="amr&#45;wind/incflo_enums.H">
<polygon fill="#ffffff" stroke="#000000" points="620.5,-56.5 620.5,-75.5 748.5,-75.5 748.5,-56.5 620.5,-56.5"/>
<text text-anchor="middle" x="684.5" y="-63.5" font-family="Helvetica,sans-Serif" font-size="10.00" fill="#000000">amr&#45;wind/incflo_enums.H</text>
</a>
</g>
</g>
<!-- Node10&#45;&gt;Node14 -->
<g id="edge20" class="edge">
<title>Node10&#45;&gt;Node14</title>
<path fill="none" stroke="#191970" d="M632.4738,-112.2455C641.6882,-104.0549 655.0532,-92.1749 665.9297,-82.5069"/>
<polygon fill="#191970" stroke="#191970" points="668.5032,-84.9023 673.652,-75.6427 663.8526,-79.6704 668.5032,-84.9023"/>
</g>
<!-- Node15 -->
<g id="node16" class="node">
<title>Node15</title>
<g id="a_node16"><a xlink:href="_view_field_8_h.html" target="_top" xlink:title="amr&#45;wind/core/ViewField.H">
<polygon fill="#ffffff" stroke="#000000" points="880.5,-56.5 880.5,-75.5 1014.5,-75.5 1014.5,-56.5 880.5,-56.5"/>
<text text-anchor="middle" x="947.5" y="-63.5" font-family="Helvetica,sans-Serif" font-size="10.00" fill="#000000">amr&#45;wind/core/ViewField.H</text>
</a>
</g>
</g>
<!-- Node10&#45;&gt;Node15 -->
<g id="edge22" class="edge">
<title>Node10&#45;&gt;Node15</title>
<path fill="none" stroke="#191970" d="M677.171,-112.4369C733.9011,-102.6918 821.855,-87.5832 881.9247,-77.2645"/>
<polygon fill="#191970" stroke="#191970" points="882.7956,-80.6662 892.0586,-75.5237 881.6104,-73.7673 882.7956,-80.6662"/>
</g>
<!-- Node15&#45;&gt;Node2 -->
<g id="edge23" class="edge">
<title>Node15&#45;&gt;Node2</title>
<path fill="none" stroke="#191970" d="M1008.1233,-56.4369C1084.5589,-44.3794 1213.0469,-24.1109 1271.668,-14.8636"/>
<polygon fill="#191970" stroke="#191970" points="1272.44,-18.2852 1281.7725,-13.2697 1271.3492,-11.3707 1272.44,-18.2852"/>
</g>
<!-- Node15&#45;&gt;Node3 -->
<g id="edge24" class="edge">
<title>Node15&#45;&gt;Node3</title>
<path fill="none" stroke="#191970" d="M935.8295,-56.2455C925.9339,-47.9746 911.5373,-35.9416 899.9099,-26.2232"/>
<polygon fill="#191970" stroke="#191970" points="901.9542,-23.3703 892.0368,-19.6427 897.465,-28.7413 901.9542,-23.3703"/>
</g>
<!-- Node15&#45;&gt;Node8 -->
<g id="edge25" class="edge">
<title>Node15&#45;&gt;Node8</title>
<path fill="none" stroke="#191970" d="M880.3407,-57.4905C875.6591,-56.9645 871.0106,-56.4618 866.5,-56 684.1103,-37.3248 467.9671,-21.4697 363.7859,-14.2202"/>
<polygon fill="#191970" stroke="#191970" points="363.9743,-10.7249 353.7562,-13.5248 363.4901,-17.7082 363.9743,-10.7249"/>
</g>
<!-- Node16 -->
<g id="node17" class="node">
<title>Node16</title>
<polygon fill="#ffffff" stroke="#bfbfbf" points="1026,-.5 1026,-19.5 1121,-19.5 1121,-.5 1026,-.5"/>
<text text-anchor="middle" x="1073.5" y="-7.5" font-family="Helvetica,sans-Serif" font-size="10.00" fill="#000000">AMReX_Vector.H</text>
</g>
<!-- Node15&#45;&gt;Node16 -->
<g id="edge26" class="edge">
<title>Node15&#45;&gt;Node16</title>
<path fill="none" stroke="#191970" d="M969.1602,-56.3733C989.4772,-47.3435 1020.064,-33.7494 1042.875,-23.6111"/>
<polygon fill="#191970" stroke="#191970" points="1044.4059,-26.7609 1052.1225,-19.5011 1041.5628,-20.3642 1044.4059,-26.7609"/>
</g>
<!-- Node17&#45;&gt;Node2 -->
<g id="edge29" class="edge">
<title>Node17&#45;&gt;Node2</title>
<path fill="none" stroke="#191970" d="M1115.5508,-116.4089C1177.2457,-110.2216 1259.3086,-98.0689 1283.5,-76 1296.2756,-64.3452 1300.6739,-44.713 1302.0864,-29.8829"/>
<polygon fill="#191970" stroke="#191970" points="1305.5926,-29.8747 1302.6739,-19.6899 1298.6042,-29.4719 1305.5926,-29.8747"/>
</g>
<!-- Node17&#45;&gt;Node3 -->
<g id="edge30" class="edge">
<title>Node17&#45;&gt;Node3</title>
<path fill="none" stroke="#191970" d="M1042.4208,-112.0774C1041.7639,-97.7786 1038.4399,-71.4092 1023.5,-56 1010.9429,-43.0484 970.1962,-30.6613 935.3947,-22.0109"/>
<polygon fill="#191970" stroke="#191970" points="935.8386,-18.5172 925.2953,-19.5615 934.1886,-25.32 935.8386,-18.5172"/>
</g>
<!-- Node17&#45;&gt;Node8 -->
<g id="edge32" class="edge">
<title>Node17&#45;&gt;Node8</title>
<path fill="none" stroke="#191970" d="M1007.6858,-112.4281C954.2698,-98.0861 848.6942,-71.0963 757.5,-56 617.8058,-32.875 451.9799,-19.6723 363.854,-13.7714"/>
<polygon fill="#191970" stroke="#191970" points="363.9671,-10.2713 353.7581,-13.1047 363.5057,-17.2561 363.9671,-10.2713"/>
</g>
<!-- Node17&#45;&gt;Node15 -->
<g id="edge31" class="edge">
<title>Node17&#45;&gt;Node15</title>
<path fill="none" stroke="#191970" d="M1025.9523,-112.2455C1011.2401,-103.5731 989.5112,-90.7645 972.6495,-80.825"/>
<polygon fill="#191970" stroke="#191970" points="974.2502,-77.7057 963.8581,-75.6427 970.6954,-83.736 974.2502,-77.7057"/>
</g>
<!-- Node17&#45;&gt;Node16 -->
<g id="edge33" class="edge">
<title>Node17&#45;&gt;Node16</title>
<path fill="none" stroke="#191970" d="M1045.6281,-112.1657C1048.5506,-102.8765 1052.9792,-88.5376 1056.5,-76 1060.8486,-60.5144 1065.3724,-42.8649 1068.6592,-29.7159"/>
<polygon fill="#191970" stroke="#191970" points="1072.0895,-30.424 1071.0981,-19.8757 1065.2951,-28.74 1072.0895,-30.424"/>
</g>
<!-- Node18 -->
<g id="node19" class="node">
<title>Node18</title>
<polygon fill="#ffffff" stroke="#bfbfbf" points="1146.5,-56.5 1146.5,-75.5 1274.5,-75.5 1274.5,-56.5 1146.5,-56.5"/>
<text text-anchor="middle" x="1210.5" y="-63.5" font-family="Helvetica,sans-Serif" font-size="10.00" fill="#000000">AMReX_PhysBCFunct.H</text>
</g>
<!-- Node17&#45;&gt;Node18 -->
<g id="edge34" class="edge">
<title>Node17&#45;&gt;Node18</title>
<path fill="none" stroke="#191970" d="M1071.3802,-112.3733C1099.3161,-103.0613 1141.8142,-88.8953 1172.4869,-78.671"/>
<polygon fill="#191970" stroke="#191970" points="1173.6166,-81.9839 1181.9966,-75.5011 1171.403,-75.3431 1173.6166,-81.9839"/>
</g>
</g>
</svg>
