<?xml version="1.0" encoding="UTF-8" standalone="no"?>
<!DOCTYPE svg PUBLIC "-//W3C//DTD SVG 1.1//EN"
 "http://www.w3.org/Graphics/SVG/1.1/DTD/svg11.dtd">
<!-- Generated by graphviz version 2.40.1 (20161225.0304)
 -->
<!-- Title: KsgsM84Src.H Pages: 1 -->
<svg width="1901pt" height="319pt"
 viewBox="0.00 0.00 1900.60 319.00" xmlns="http://www.w3.org/2000/svg" xmlns:xlink="http://www.w3.org/1999/xlink">
<g id="graph0" class="graph" transform="scale(1 1) rotate(0) translate(4 315)">
<title>KsgsM84Src.H</title>
<polygon fill="#ffffff" stroke="transparent" points="-4,4 -4,-315 1896.5956,-315 1896.5956,4 -4,4"/>
<!-- Node0 -->
<g id="node1" class="node">
<title>Node0</title>
<polygon fill="#bfbfbf" stroke="#000000" points="341,-291.5 341,-310.5 424,-310.5 424,-291.5 341,-291.5"/>
<text text-anchor="middle" x="382.5" y="-298.5" font-family="Helvetica,sans-Serif" font-size="10.00" fill="#000000">KsgsM84Src.H</text>
</g>
<!-- Node1 -->
<g id="node2" class="node">
<title>Node1</title>
<g id="a_node2"><a xlink:href="_t_k_e_source_8_h.html" target="_top" xlink:title="amr&#45;wind/equation_systems\l/tke/TKESource.H">
<polygon fill="#ffffff" stroke="#000000" points="313,-224.5 313,-254.5 452,-254.5 452,-224.5 313,-224.5"/>
<text text-anchor="start" x="321" y="-242.5" font-family="Helvetica,sans-Serif" font-size="10.00" fill="#000000">amr&#45;wind/equation_systems</text>
<text text-anchor="middle" x="382.5" y="-231.5" font-family="Helvetica,sans-Serif" font-size="10.00" fill="#000000">/tke/TKESource.H</text>
</a>
</g>
</g>
<!-- Node0&#45;&gt;Node1 -->
<g id="edge1" class="edge">
<title>Node0&#45;&gt;Node1</title>
<path fill="none" stroke="#191970" d="M382.5,-291.3906C382.5,-284.2234 382.5,-274.0862 382.5,-264.671"/>
<polygon fill="#191970" stroke="#191970" points="386.0001,-264.5446 382.5,-254.5446 379.0001,-264.5446 386.0001,-264.5446"/>
</g>
<!-- Node2 -->
<g id="node3" class="node">
<title>Node2</title>
<g id="a_node3"><a xlink:href="_factory_8_h.html" target="_top" xlink:title="amr&#45;wind/core/Factory.H">
<polygon fill="#ffffff" stroke="#000000" points="114,-112.5 114,-131.5 239,-131.5 239,-112.5 114,-112.5"/>
<text text-anchor="middle" x="176.5" y="-119.5" font-family="Helvetica,sans-Serif" font-size="10.00" fill="#000000">amr&#45;wind/core/Factory.H</text>
</a>
</g>
</g>
<!-- Node1&#45;&gt;Node2 -->
<g id="edge2" class="edge">
<title>Node1&#45;&gt;Node2</title>
<path fill="none" stroke="#191970" d="M334.1564,-224.4612C309.1466,-215.6427 278.6694,-203.2324 253.5,-188 230.623,-174.1549 207.7892,-153.508 192.9992,-139.0027"/>
<polygon fill="#191970" stroke="#191970" points="195.2049,-136.2585 185.6608,-131.6583 190.2531,-141.2062 195.2049,-136.2585"/>
</g>
<!-- Node8 -->
<g id="node9" class="node">
<title>Node8</title>
<g id="a_node9"><a xlink:href="_field_desc_types_8_h.html" target="_top" xlink:title="amr&#45;wind/core/FieldDescTypes.H">
<polygon fill="#ffffff" stroke="#000000" points="644,-.5 644,-19.5 807,-19.5 807,-.5 644,-.5"/>
<text text-anchor="middle" x="725.5" y="-7.5" font-family="Helvetica,sans-Serif" font-size="10.00" fill="#000000">amr&#45;wind/core/FieldDescTypes.H</text>
</a>
</g>
</g>
<!-- Node1&#45;&gt;Node8 -->
<g id="edge8" class="edge">
<title>Node1&#45;&gt;Node8</title>
<path fill="none" stroke="#191970" d="M368.0322,-224.4343C336.1971,-189.5495 266.7266,-102.6524 316.5,-56 339.1781,-34.7439 519.9731,-21.132 633.47,-14.5928"/>
<polygon fill="#191970" stroke="#191970" points="633.7709,-18.0814 643.5563,-14.02 633.3739,-11.0927 633.7709,-18.0814"/>
</g>
<!-- Node9 -->
<g id="node10" class="node">
<title>Node9</title>
<g id="a_node10"><a xlink:href="_field_utils_8_h.html" target="_top" xlink:title="amr&#45;wind/core/FieldUtils.H">
<polygon fill="#ffffff" stroke="#000000" points="316,-112.5 316,-131.5 449,-131.5 449,-112.5 316,-112.5"/>
<text text-anchor="middle" x="382.5" y="-119.5" font-family="Helvetica,sans-Serif" font-size="10.00" fill="#000000">amr&#45;wind/core/FieldUtils.H</text>
</a>
</g>
</g>
<!-- Node1&#45;&gt;Node9 -->
<g id="edge9" class="edge">
<title>Node1&#45;&gt;Node9</title>
<path fill="none" stroke="#191970" d="M382.5,-224.1389C382.5,-202.9692 382.5,-164.8174 382.5,-141.6112"/>
<polygon fill="#191970" stroke="#191970" points="386.0001,-141.5594 382.5,-131.5595 379.0001,-141.5595 386.0001,-141.5594"/>
</g>
<!-- Node10 -->
<g id="node11" class="node">
<title>Node10</title>
<polygon fill="#ffffff" stroke="#bfbfbf" points="1236.5,-.5 1236.5,-19.5 1340.5,-19.5 1340.5,-.5 1236.5,-.5"/>
<text text-anchor="middle" x="1288.5" y="-7.5" font-family="Helvetica,sans-Serif" font-size="10.00" fill="#000000">AMReX_MultiFab.H</text>
</g>
<!-- Node1&#45;&gt;Node10 -->
<g id="edge46" class="edge">
<title>Node1&#45;&gt;Node10</title>
<path fill="none" stroke="#191970" d="M452.0688,-237.3314C664.7703,-229.957 1295.4157,-202.2863 1351.5,-132 1372.5676,-105.5975 1366.7992,-86.1143 1351.5,-56 1344.639,-42.4951 1331.7468,-32.0099 1319.4034,-24.4839"/>
<polygon fill="#191970" stroke="#191970" points="1321.0367,-21.3868 1310.6066,-19.5258 1317.5997,-27.4849 1321.0367,-21.3868"/>
</g>
<!-- Node12 -->
<g id="node13" class="node">
<title>Node12</title>
<g id="a_node13"><a xlink:href="_field_repo_8_h.html" target="_top" xlink:title="amr&#45;wind/core/FieldRepo.H">
<polygon fill="#ffffff" stroke="#000000" points="960.5,-168.5 960.5,-187.5 1096.5,-187.5 1096.5,-168.5 960.5,-168.5"/>
<text text-anchor="middle" x="1028.5" y="-175.5" font-family="Helvetica,sans-Serif" font-size="10.00" fill="#000000">amr&#45;wind/core/FieldRepo.H</text>
</a>
</g>
</g>
<!-- Node1&#45;&gt;Node12 -->
<g id="edge13" class="edge">
<title>Node1&#45;&gt;Node12</title>
<path fill="none" stroke="#191970" d="M452.2471,-232.86C573.5895,-221.308 822.7222,-197.5903 949.9551,-185.4776"/>
<polygon fill="#191970" stroke="#191970" points="950.3956,-188.9516 960.0188,-184.5195 949.7321,-181.9831 950.3956,-188.9516"/>
</g>
<!-- Node3 -->
<g id="node4" class="node">
<title>Node3</title>
<polygon fill="#ffffff" stroke="#bfbfbf" points="505.5,-56.5 505.5,-75.5 557.5,-75.5 557.5,-56.5 505.5,-56.5"/>
<text text-anchor="middle" x="531.5" y="-63.5" font-family="Helvetica,sans-Serif" font-size="10.00" fill="#000000">memory</text>
</g>
<!-- Node2&#45;&gt;Node3 -->
<g id="edge3" class="edge">
<title>Node2&#45;&gt;Node3</title>
<path fill="none" stroke="#191970" d="M237.1233,-112.4369C311.2552,-100.7428 434.3493,-81.3252 495.1807,-71.7292"/>
<polygon fill="#191970" stroke="#191970" points="495.759,-75.1814 505.0915,-70.1658 494.6682,-68.2669 495.759,-75.1814"/>
</g>
<!-- Node4 -->
<g id="node5" class="node">
<title>Node4</title>
<polygon fill="#ffffff" stroke="#bfbfbf" points="614,-56.5 614,-75.5 697,-75.5 697,-56.5 614,-56.5"/>
<text text-anchor="middle" x="655.5" y="-63.5" font-family="Helvetica,sans-Serif" font-size="10.00" fill="#000000">unordered_map</text>
</g>
<!-- Node2&#45;&gt;Node4 -->
<g id="edge4" class="edge">
<title>Node2&#45;&gt;Node4</title>
<path fill="none" stroke="#191970" d="M239.1209,-114.679C334.7426,-103.4998 515.3564,-82.3842 603.9114,-72.0312"/>
<polygon fill="#191970" stroke="#191970" points="604.4602,-75.491 613.9862,-70.8534 603.6474,-68.5384 604.4602,-75.491"/>
</g>
<!-- Node5 -->
<g id="node6" class="node">
<title>Node5</title>
<polygon fill="#ffffff" stroke="#bfbfbf" points="185.5,-56.5 185.5,-75.5 239.5,-75.5 239.5,-56.5 185.5,-56.5"/>
<text text-anchor="middle" x="212.5" y="-63.5" font-family="Helvetica,sans-Serif" font-size="10.00" fill="#000000">iostream</text>
</g>
<!-- Node2&#45;&gt;Node5 -->
<g id="edge5" class="edge">
<title>Node2&#45;&gt;Node5</title>
<path fill="none" stroke="#191970" d="M182.7707,-112.2455C187.7264,-104.5367 194.783,-93.5598 200.7776,-84.2348"/>
<polygon fill="#191970" stroke="#191970" points="203.8376,-85.9471 206.3011,-75.6427 197.9494,-82.1618 203.8376,-85.9471"/>
</g>
<!-- Node6 -->
<g id="node7" class="node">
<title>Node6</title>
<polygon fill="#ffffff" stroke="#bfbfbf" points="0,-56.5 0,-75.5 87,-75.5 87,-56.5 0,-56.5"/>
<text text-anchor="middle" x="43.5" y="-63.5" font-family="Helvetica,sans-Serif" font-size="10.00" fill="#000000">AMReX_Print.H</text>
</g>
<!-- Node2&#45;&gt;Node6 -->
<g id="edge6" class="edge">
<title>Node2&#45;&gt;Node6</title>
<path fill="none" stroke="#191970" d="M153.6365,-112.3733C132.095,-103.3032 99.6162,-89.6279 75.5044,-79.4755"/>
<polygon fill="#191970" stroke="#191970" points="76.6397,-76.156 66.0652,-75.5011 73.9233,-82.6075 76.6397,-76.156"/>
</g>
<!-- Node7 -->
<g id="node8" class="node">
<title>Node7</title>
<polygon fill="#ffffff" stroke="#bfbfbf" points="105.5,-56.5 105.5,-75.5 167.5,-75.5 167.5,-56.5 105.5,-56.5"/>
<text text-anchor="middle" x="136.5" y="-63.5" font-family="Helvetica,sans-Serif" font-size="10.00" fill="#000000">AMReX.H</text>
</g>
<!-- Node2&#45;&gt;Node7 -->
<g id="edge7" class="edge">
<title>Node2&#45;&gt;Node7</title>
<path fill="none" stroke="#191970" d="M169.5325,-112.2455C163.9689,-104.4564 156.022,-93.3308 149.3171,-83.9439"/>
<polygon fill="#191970" stroke="#191970" points="152.0481,-81.7457 143.3876,-75.6427 146.352,-85.8144 152.0481,-81.7457"/>
</g>
<!-- Node9&#45;&gt;Node8 -->
<g id="edge10" class="edge">
<title>Node9&#45;&gt;Node8</title>
<path fill="none" stroke="#191970" d="M363.4184,-112.3424C340.3597,-99.4491 306.7322,-75.9226 324.5,-56 344.7119,-33.337 521.3991,-20.2748 633.3949,-14.2022"/>
<polygon fill="#191970" stroke="#191970" points="633.8885,-17.681 643.6881,-13.6539 633.516,-10.6909 633.8885,-17.681"/>
</g>
<!-- Node9&#45;&gt;Node10 -->
<g id="edge11" class="edge">
<title>Node9&#45;&gt;Node10</title>
<path fill="none" stroke="#191970" d="M433.824,-112.4602C471.2699,-104.7131 522.8846,-92.3878 566.5,-76 584.735,-69.1485 586.7289,-61.2062 605.5,-56 721.2521,-23.8961 1080.0731,-13.8108 1225.9125,-10.9884"/>
<polygon fill="#191970" stroke="#191970" points="1226.1064,-14.4854 1236.0386,-10.7975 1225.9744,-7.4867 1226.1064,-14.4854"/>
</g>
<!-- Node11 -->
<g id="node12" class="node">
<title>Node11</title>
<polygon fill="#ffffff" stroke="#bfbfbf" points="333.5,-56.5 333.5,-75.5 449.5,-75.5 449.5,-56.5 333.5,-56.5"/>
<text text-anchor="middle" x="391.5" y="-63.5" font-family="Helvetica,sans-Serif" font-size="10.00" fill="#000000">AMReX_Interpolater.H</text>
</g>
<!-- Node9&#45;&gt;Node11 -->
<g id="edge12" class="edge">
<title>Node9&#45;&gt;Node11</title>
<path fill="none" stroke="#191970" d="M384.0677,-112.2455C385.2421,-104.9382 386.8884,-94.6944 388.3332,-85.7046"/>
<polygon fill="#191970" stroke="#191970" points="391.8191,-86.0714 389.9503,-75.6427 384.9078,-84.9606 391.8191,-86.0714"/>
</g>
<!-- Node12&#45;&gt;Node4 -->
<g id="edge15" class="edge">
<title>Node12&#45;&gt;Node4</title>
<path fill="none" stroke="#191970" d="M992.9908,-168.4904C959.5053,-159.4306 907.9602,-145.2467 863.5,-132 804.1298,-114.3109 735.7421,-92.292 694.079,-78.6915"/>
<polygon fill="#191970" stroke="#191970" points="694.931,-75.2878 684.3384,-75.5061 692.7552,-81.941 694.931,-75.2878"/>
</g>
<!-- Node12&#45;&gt;Node8 -->
<g id="edge16" class="edge">
<title>Node12&#45;&gt;Node8</title>
<path fill="none" stroke="#191970" d="M960.4788,-175.3354C830.5211,-168.6641 554.6517,-146.3603 496.5,-76 490.8372,-69.1483 490.8674,-62.8765 496.5,-56 514.044,-34.5815 578.0268,-22.9245 633.9156,-16.7094"/>
<polygon fill="#191970" stroke="#191970" points="634.3101,-20.1872 643.8832,-15.6478 633.5687,-13.2266 634.3101,-20.1872"/>
</g>
<!-- Node12&#45;&gt;Node9 -->
<g id="edge17" class="edge">
<title>Node12&#45;&gt;Node9</title>
<path fill="none" stroke="#191970" d="M960.1437,-173.3565C853.816,-165.9256 642.4177,-150.3197 463.5,-132 462.1918,-131.866 460.8719,-131.7287 459.543,-131.5883"/>
<polygon fill="#191970" stroke="#191970" points="459.5414,-128.0673 449.2203,-130.4601 458.7808,-135.0259 459.5414,-128.0673"/>
</g>
<!-- Node12&#45;&gt;Node10 -->
<g id="edge44" class="edge">
<title>Node12&#45;&gt;Node10</title>
<path fill="none" stroke="#191970" d="M1028.6065,-168.1036C1029.2973,-153.8375 1032.6631,-127.5084 1047.5,-112 1082.1855,-75.7447 1108.1138,-95.1273 1154.5,-76 1192.7205,-60.2399 1235.3041,-38.5134 1261.9946,-24.3635"/>
<polygon fill="#191970" stroke="#191970" points="1263.8977,-27.3151 1271.0713,-19.5183 1260.6012,-21.1399 1263.8977,-27.3151"/>
</g>
<!-- Node13 -->
<g id="node14" class="node">
<title>Node13</title>
<polygon fill="#ffffff" stroke="#bfbfbf" points="1654,-.5 1654,-19.5 1695,-19.5 1695,-.5 1654,-.5"/>
<text text-anchor="middle" x="1674.5" y="-7.5" font-family="Helvetica,sans-Serif" font-size="10.00" fill="#000000">string</text>
</g>
<!-- Node12&#45;&gt;Node13 -->
<g id="edge14" class="edge">
<title>Node12&#45;&gt;Node13</title>
<path fill="none" stroke="#191970" d="M1096.7527,-175.6341C1246.6881,-170.0815 1600.8048,-154.9273 1718.5,-132 1796.5816,-116.7895 1841.8727,-140.4515 1888.5,-76 1893.7102,-68.7982 1894.086,-62.9144 1888.5,-56 1865.8229,-27.9304 1759.0162,-16.1918 1705.385,-12.0019"/>
<polygon fill="#191970" stroke="#191970" points="1705.3337,-8.4886 1695.1025,-11.2405 1704.8168,-15.4695 1705.3337,-8.4886"/>
</g>
<!-- Node14 -->
<g id="node15" class="node">
<title>Node14</title>
<g id="a_node15"><a xlink:href="_field_8_h.html" target="_top" xlink:title="amr&#45;wind/core/Field.H">
<polygon fill="#ffffff" stroke="#000000" points="872,-112.5 872,-131.5 985,-131.5 985,-112.5 872,-112.5"/>
<text text-anchor="middle" x="928.5" y="-119.5" font-family="Helvetica,sans-Serif" font-size="10.00" fill="#000000">amr&#45;wind/core/Field.H</text>
</a>
</g>
</g>
<!-- Node12&#45;&gt;Node14 -->
<g id="edge18" class="edge">
<title>Node12&#45;&gt;Node14</title>
<path fill="none" stroke="#191970" d="M1011.0813,-168.2455C995.4515,-159.4928 972.2981,-146.527 954.4815,-136.5496"/>
<polygon fill="#191970" stroke="#191970" points="956.1543,-133.475 945.7191,-131.6427 952.734,-139.5825 956.1543,-133.475"/>
</g>
<!-- Node20 -->
<g id="node21" class="node">
<title>Node20</title>
<g id="a_node21"><a xlink:href="_int_field_8_h.html" target="_top" xlink:title="amr&#45;wind/core/IntField.H">
<polygon fill="#ffffff" stroke="#000000" points="1218.5,-112.5 1218.5,-131.5 1342.5,-131.5 1342.5,-112.5 1218.5,-112.5"/>
<text text-anchor="middle" x="1280.5" y="-119.5" font-family="Helvetica,sans-Serif" font-size="10.00" fill="#000000">amr&#45;wind/core/IntField.H</text>
</a>
</g>
</g>
<!-- Node12&#45;&gt;Node20 -->
<g id="edge32" class="edge">
<title>Node12&#45;&gt;Node20</title>
<path fill="none" stroke="#191970" d="M1071.534,-168.4369C1114.7525,-158.8328 1181.4141,-144.0191 1227.7818,-133.7152"/>
<polygon fill="#191970" stroke="#191970" points="1228.6409,-137.1097 1237.6435,-131.5237 1227.1223,-130.2764 1228.6409,-137.1097"/>
</g>
<!-- Node21 -->
<g id="node22" class="node">
<title>Node21</title>
<polygon fill="#ffffff" stroke="#bfbfbf" points="1235,-56.5 1235,-75.5 1342,-75.5 1342,-56.5 1235,-56.5"/>
<text text-anchor="middle" x="1288.5" y="-63.5" font-family="Helvetica,sans-Serif" font-size="10.00" fill="#000000">AMReX_iMultiFab.H</text>
</g>
<!-- Node12&#45;&gt;Node21 -->
<g id="edge45" class="edge">
<title>Node12&#45;&gt;Node21</title>
<path fill="none" stroke="#191970" d="M1065.0951,-168.4407C1094.4403,-160.2527 1136.3778,-147.3662 1171.5,-132 1180.7857,-127.9375 1231.4119,-98.9581 1262.9512,-80.7754"/>
<polygon fill="#191970" stroke="#191970" points="1264.7634,-83.7706 1271.6751,-75.7408 1261.2645,-77.7078 1264.7634,-83.7706"/>
</g>
<!-- Node22 -->
<g id="node23" class="node">
<title>Node22</title>
<g id="a_node23"><a xlink:href="_scratch_field_8_h.html" target="_top" xlink:title="amr&#45;wind/core/ScratchField.H">
<polygon fill="#ffffff" stroke="#000000" points="1563.5,-112.5 1563.5,-131.5 1709.5,-131.5 1709.5,-112.5 1563.5,-112.5"/>
<text text-anchor="middle" x="1636.5" y="-119.5" font-family="Helvetica,sans-Serif" font-size="10.00" fill="#000000">amr&#45;wind/core/ScratchField.H</text>
</a>
</g>
</g>
<!-- Node12&#45;&gt;Node22 -->
<g id="edge36" class="edge">
<title>Node12&#45;&gt;Node22</title>
<path fill="none" stroke="#191970" d="M1096.7693,-171.712C1209.015,-161.3736 1432.1652,-140.8203 1553.4109,-129.6529"/>
<polygon fill="#191970" stroke="#191970" points="1553.7532,-133.1363 1563.3901,-128.7338 1553.1112,-126.1658 1553.7532,-133.1363"/>
</g>
<!-- Node24 -->
<g id="node25" class="node">
<title>Node24</title>
<polygon fill="#ffffff" stroke="#bfbfbf" points="1056.5,-112.5 1056.5,-131.5 1162.5,-131.5 1162.5,-112.5 1056.5,-112.5"/>
<text text-anchor="middle" x="1109.5" y="-119.5" font-family="Helvetica,sans-Serif" font-size="10.00" fill="#000000">AMReX_AmrCore.H</text>
</g>
<!-- Node12&#45;&gt;Node24 -->
<g id="edge43" class="edge">
<title>Node12&#45;&gt;Node24</title>
<path fill="none" stroke="#191970" d="M1042.6091,-168.2455C1054.9209,-159.7337 1072.9958,-147.2375 1087.2538,-137.3801"/>
<polygon fill="#191970" stroke="#191970" points="1089.3174,-140.2085 1095.5526,-131.6427 1085.3366,-134.4506 1089.3174,-140.2085"/>
</g>
<!-- Node14&#45;&gt;Node3 -->
<g id="edge20" class="edge">
<title>Node14&#45;&gt;Node3</title>
<path fill="none" stroke="#191970" d="M871.6196,-113.9766C788.6186,-102.2686 636.6871,-80.8375 567.5144,-71.0801"/>
<polygon fill="#191970" stroke="#191970" points="567.9272,-67.6038 557.5363,-69.6726 566.9494,-74.5352 567.9272,-67.6038"/>
</g>
<!-- Node14&#45;&gt;Node4 -->
<g id="edge21" class="edge">
<title>Node14&#45;&gt;Node4</title>
<path fill="none" stroke="#191970" d="M881.8798,-112.4369C833.2963,-102.471 757.3668,-86.8958 707.0314,-76.5705"/>
<polygon fill="#191970" stroke="#191970" points="707.5091,-73.0957 697.0098,-74.5148 706.1025,-79.953 707.5091,-73.0957"/>
</g>
<!-- Node14&#45;&gt;Node8 -->
<g id="edge26" class="edge">
<title>Node14&#45;&gt;Node8</title>
<path fill="none" stroke="#191970" d="M871.8162,-113.9739C825.0602,-106.259 763.5813,-93.234 745.5,-76 732.9306,-64.0195 728.1839,-44.4306 726.4306,-29.6992"/>
<polygon fill="#191970" stroke="#191970" points="729.9067,-29.2645 725.5934,-19.5874 722.9306,-29.8421 729.9067,-29.2645"/>
</g>
<!-- Node14&#45;&gt;Node10 -->
<g id="edge22" class="edge">
<title>Node14&#45;&gt;Node10</title>
<path fill="none" stroke="#191970" d="M972.1365,-112.4635C1009.4504,-103.9687 1064.4227,-90.6447 1111.5,-76 1162.7379,-60.0611 1220.7827,-37.5361 1256.0033,-23.3546"/>
<polygon fill="#191970" stroke="#191970" points="1257.3514,-26.5849 1265.3075,-19.5883 1254.7248,-20.0963 1257.3514,-26.5849"/>
</g>
<!-- Node14&#45;&gt;Node13 -->
<g id="edge19" class="edge">
<title>Node14&#45;&gt;Node13</title>
<path fill="none" stroke="#191970" d="M985.0821,-117.0559C1004.8266,-115.3809 1027.1369,-113.5445 1047.5,-112 1165.6532,-103.0385 1467.6872,-115.2224 1579.5,-76 1587.6369,-73.1457 1627.6157,-44.4144 1653.0485,-25.8125"/>
<polygon fill="#191970" stroke="#191970" points="1655.3688,-28.4512 1661.3618,-19.7142 1651.2284,-22.807 1655.3688,-28.4512"/>
</g>
<!-- Node15 -->
<g id="node16" class="node">
<title>Node15</title>
<polygon fill="#ffffff" stroke="#bfbfbf" points="754,-56.5 754,-75.5 853,-75.5 853,-56.5 754,-56.5"/>
<text text-anchor="middle" x="803.5" y="-63.5" font-family="Helvetica,sans-Serif" font-size="10.00" fill="#000000">AMReX_BCRec.H</text>
</g>
<!-- Node14&#45;&gt;Node15 -->
<g id="edge23" class="edge">
<title>Node14&#45;&gt;Node15</title>
<path fill="none" stroke="#191970" d="M907.0117,-112.3733C886.856,-103.3435 856.512,-89.7494 833.882,-79.6111"/>
<polygon fill="#191970" stroke="#191970" points="835.2649,-76.3955 824.7079,-75.5011 832.4029,-82.7838 835.2649,-76.3955"/>
</g>
<!-- Node16 -->
<g id="node17" class="node">
<title>Node16</title>
<polygon fill="#ffffff" stroke="#bfbfbf" points="871,-56.5 871,-75.5 956,-75.5 956,-56.5 871,-56.5"/>
<text text-anchor="middle" x="913.5" y="-63.5" font-family="Helvetica,sans-Serif" font-size="10.00" fill="#000000">AMReX_Gpu.H</text>
</g>
<!-- Node14&#45;&gt;Node16 -->
<g id="edge24" class="edge">
<title>Node14&#45;&gt;Node16</title>
<path fill="none" stroke="#191970" d="M925.8872,-112.2455C923.9084,-104.8579 921.1256,-94.4689 918.6988,-85.4087"/>
<polygon fill="#191970" stroke="#191970" points="922.0511,-84.3966 916.0829,-75.6427 915.2895,-86.2078 922.0511,-84.3966"/>
</g>
<!-- Node17 -->
<g id="node18" class="node">
<title>Node17</title>
<g id="a_node18"><a xlink:href="incflo__enums_8_h.html" target="_top" xlink:title="amr&#45;wind/incflo_enums.H">
<polygon fill="#ffffff" stroke="#000000" points="974.5,-56.5 974.5,-75.5 1102.5,-75.5 1102.5,-56.5 974.5,-56.5"/>
<text text-anchor="middle" x="1038.5" y="-63.5" font-family="Helvetica,sans-Serif" font-size="10.00" fill="#000000">amr&#45;wind/incflo_enums.H</text>
</a>
</g>
</g>
<!-- Node14&#45;&gt;Node17 -->
<g id="edge25" class="edge">
<title>Node14&#45;&gt;Node17</title>
<path fill="none" stroke="#191970" d="M947.6605,-112.2455C965.0111,-103.4125 990.7901,-90.2887 1010.4583,-80.2758"/>
<polygon fill="#191970" stroke="#191970" points="1012.2353,-83.2986 1019.559,-75.6427 1009.0595,-77.0605 1012.2353,-83.2986"/>
</g>
<!-- Node18 -->
<g id="node19" class="node">
<title>Node18</title>
<g id="a_node19"><a xlink:href="_view_field_8_h.html" target="_top" xlink:title="amr&#45;wind/core/ViewField.H">
<polygon fill="#ffffff" stroke="#000000" points="1436.5,-56.5 1436.5,-75.5 1570.5,-75.5 1570.5,-56.5 1436.5,-56.5"/>
<text text-anchor="middle" x="1503.5" y="-63.5" font-family="Helvetica,sans-Serif" font-size="10.00" fill="#000000">amr&#45;wind/core/ViewField.H</text>
</a>
</g>
</g>
<!-- Node14&#45;&gt;Node18 -->
<g id="edge27" class="edge">
<title>Node14&#45;&gt;Node18</title>
<path fill="none" stroke="#191970" d="M985.2069,-116.4772C1088.8587,-106.3825 1309,-84.9426 1426.242,-73.5243"/>
<polygon fill="#191970" stroke="#191970" points="1426.612,-77.0049 1436.2256,-72.5519 1425.9334,-70.0378 1426.612,-77.0049"/>
</g>
<!-- Node18&#45;&gt;Node8 -->
<g id="edge29" class="edge">
<title>Node18&#45;&gt;Node8</title>
<path fill="none" stroke="#191970" d="M1436.3485,-57.411C1431.6651,-56.9039 1427.014,-56.4272 1422.5,-56 1205.9961,-35.508 950.7958,-21.1531 817.3515,-14.3926"/>
<polygon fill="#191970" stroke="#191970" points="817.3362,-10.8875 807.1727,-13.8797 816.9839,-17.8786 817.3362,-10.8875"/>
</g>
<!-- Node18&#45;&gt;Node10 -->
<g id="edge30" class="edge">
<title>Node18&#45;&gt;Node10</title>
<path fill="none" stroke="#191970" d="M1466.5402,-56.3733C1430.0925,-46.8799 1374.2754,-32.3415 1334.8711,-22.0781"/>
<polygon fill="#191970" stroke="#191970" points="1335.5369,-18.6348 1324.9775,-19.5011 1333.7724,-25.4087 1335.5369,-18.6348"/>
</g>
<!-- Node18&#45;&gt;Node13 -->
<g id="edge28" class="edge">
<title>Node18&#45;&gt;Node13</title>
<path fill="none" stroke="#191970" d="M1532.8959,-56.3733C1563.9156,-46.2148 1612.5751,-30.2795 1644.0042,-19.9869"/>
<polygon fill="#191970" stroke="#191970" points="1645.1447,-23.2964 1653.5588,-16.8579 1642.9661,-16.644 1645.1447,-23.2964"/>
</g>
<!-- Node19 -->
<g id="node20" class="node">
<title>Node19</title>
<polygon fill="#ffffff" stroke="#bfbfbf" points="1498,-.5 1498,-19.5 1593,-19.5 1593,-.5 1498,-.5"/>
<text text-anchor="middle" x="1545.5" y="-7.5" font-family="Helvetica,sans-Serif" font-size="10.00" fill="#000000">AMReX_Vector.H</text>
</g>
<!-- Node18&#45;&gt;Node19 -->
<g id="edge31" class="edge">
<title>Node18&#45;&gt;Node19</title>
<path fill="none" stroke="#191970" d="M1510.8158,-56.2455C1516.7179,-48.3761 1525.1742,-37.101 1532.2594,-27.6542"/>
<polygon fill="#191970" stroke="#191970" points="1535.068,-29.7427 1538.268,-19.6427 1529.4679,-25.5427 1535.068,-29.7427"/>
</g>
<!-- Node20&#45;&gt;Node8 -->
<g id="edge34" class="edge">
<title>Node20&#45;&gt;Node8</title>
<path fill="none" stroke="#191970" d="M1261.0043,-112.4974C1230.0885,-97.8662 1167.5669,-70.0457 1111.5,-56 1012.8229,-31.2797 896.5278,-19.7225 817.5713,-14.3977"/>
<polygon fill="#191970" stroke="#191970" points="817.3741,-10.8775 807.1671,-13.7176 816.9174,-17.8625 817.3741,-10.8775"/>
</g>
<!-- Node20&#45;&gt;Node13 -->
<g id="edge33" class="edge">
<title>Node20&#45;&gt;Node13</title>
<path fill="none" stroke="#191970" d="M1342.7669,-118.3187C1425.5562,-112.5868 1566.7544,-99.6507 1612.5,-76 1633.9802,-64.8947 1652.0303,-43.3084 1663.0178,-27.8447"/>
<polygon fill="#191970" stroke="#191970" points="1665.9139,-29.8101 1668.6435,-19.5729 1660.1257,-25.8734 1665.9139,-29.8101"/>
</g>
<!-- Node20&#45;&gt;Node21 -->
<g id="edge35" class="edge">
<title>Node20&#45;&gt;Node21</title>
<path fill="none" stroke="#191970" d="M1281.8935,-112.2455C1282.9374,-104.9382 1284.4008,-94.6944 1285.6851,-85.7046"/>
<polygon fill="#191970" stroke="#191970" points="1289.173,-86.0372 1287.1225,-75.6427 1282.2434,-85.0472 1289.173,-86.0372"/>
</g>
<!-- Node22&#45;&gt;Node8 -->
<g id="edge38" class="edge">
<title>Node22&#45;&gt;Node8</title>
<path fill="none" stroke="#191970" d="M1590.7138,-112.4827C1548.2879,-103.5313 1483.4779,-89.5198 1427.5,-76 1393.5484,-67.8 1385.9515,-61.7486 1351.5,-56 1163.3129,-24.599 939.7364,-14.6332 817.1945,-11.4704"/>
<polygon fill="#191970" stroke="#191970" points="817.1862,-7.9692 807.1022,-11.2195 817.0121,-14.967 817.1862,-7.9692"/>
</g>
<!-- Node22&#45;&gt;Node10 -->
<g id="edge40" class="edge">
<title>Node22&#45;&gt;Node10</title>
<path fill="none" stroke="#191970" d="M1631.287,-112.488C1622.6404,-97.7127 1603.8451,-69.5413 1579.5,-56 1541.2917,-34.7476 1424.3383,-21.3657 1350.8528,-14.8203"/>
<polygon fill="#191970" stroke="#191970" points="1351.0512,-11.3244 1340.7849,-13.942 1350.4428,-18.2979 1351.0512,-11.3244"/>
</g>
<!-- Node22&#45;&gt;Node13 -->
<g id="edge37" class="edge">
<title>Node22&#45;&gt;Node13</title>
<path fill="none" stroke="#191970" d="M1709.607,-117.7001C1771.0735,-112.3768 1852.0945,-100.7668 1872.5,-76 1878.1523,-69.1397 1878.0287,-62.9603 1872.5,-56 1851.9566,-30.1368 1755.5961,-17.502 1705.2758,-12.5781"/>
<polygon fill="#191970" stroke="#191970" points="1705.5634,-9.0898 1695.2807,-11.6425 1704.9109,-16.0594 1705.5634,-9.0898"/>
</g>
<!-- Node22&#45;&gt;Node18 -->
<g id="edge39" class="edge">
<title>Node22&#45;&gt;Node18</title>
<path fill="none" stroke="#191970" d="M1613.6365,-112.3733C1592.095,-103.3032 1559.6162,-89.6279 1535.5044,-79.4755"/>
<polygon fill="#191970" stroke="#191970" points="1536.6397,-76.156 1526.0652,-75.5011 1533.9233,-82.6075 1536.6397,-76.156"/>
</g>
<!-- Node22&#45;&gt;Node19 -->
<g id="edge41" class="edge">
<title>Node22&#45;&gt;Node19</title>
<path fill="none" stroke="#191970" d="M1709.7437,-114.9635C1761.0612,-108.3428 1823.262,-96.3293 1839.5,-76 1845.0476,-69.0547 1845.2792,-62.7537 1839.5,-56 1831.8622,-47.0742 1686.6248,-27.6061 1603.2,-17.0854"/>
<polygon fill="#191970" stroke="#191970" points="1603.4565,-13.5902 1593.0983,-15.8171 1602.5844,-20.5357 1603.4565,-13.5902"/>
</g>
<!-- Node23 -->
<g id="node24" class="node">
<title>Node23</title>
<polygon fill="#ffffff" stroke="#bfbfbf" points="1702.5,-56.5 1702.5,-75.5 1830.5,-75.5 1830.5,-56.5 1702.5,-56.5"/>
<text text-anchor="middle" x="1766.5" y="-63.5" font-family="Helvetica,sans-Serif" font-size="10.00" fill="#000000">AMReX_PhysBCFunct.H</text>
</g>
<!-- Node22&#45;&gt;Node23 -->
<g id="edge42" class="edge">
<title>Node22&#45;&gt;Node23</title>
<path fill="none" stroke="#191970" d="M1658.8478,-112.3733C1679.9033,-103.3032 1711.6495,-89.6279 1735.2175,-79.4755"/>
<polygon fill="#191970" stroke="#191970" points="1736.6444,-82.6719 1744.4438,-75.5011 1733.875,-76.243 1736.6444,-82.6719"/>
</g>
</g>
</svg>
