<?xml version="1.0" encoding="UTF-8" standalone="no"?>
<!DOCTYPE svg PUBLIC "-//W3C//DTD SVG 1.1//EN"
 "http://www.w3.org/Graphics/SVG/1.1/DTD/svg11.dtd">
<!-- Generated by graphviz version 2.40.1 (20161225.0304)
 -->
<!-- Title: LineSampler.cpp Pages: 1 -->
<svg width="2400pt" height="352pt"
 viewBox="0.00 0.00 2400.00 352.00" xmlns="http://www.w3.org/2000/svg" xmlns:xlink="http://www.w3.org/1999/xlink">
<g id="graph0" class="graph" transform="scale(1 1) rotate(0) translate(4 348)">
<title>LineSampler.cpp</title>
<polygon fill="#ffffff" stroke="transparent" points="-4,4 -4,-348 2396,-348 2396,4 -4,4"/>
<!-- Node0 -->
<g id="node1" class="node">
<title>Node0</title>
<polygon fill="#bfbfbf" stroke="#000000" points="813,-324.5 813,-343.5 902,-343.5 902,-324.5 813,-324.5"/>
<text text-anchor="middle" x="857.5" y="-331.5" font-family="Helvetica,sans-Serif" font-size="10.00" fill="#000000">LineSampler.cpp</text>
</g>
<!-- Node1 -->
<g id="node2" class="node">
<title>Node1</title>
<g id="a_node2"><a xlink:href="_line_sampler_8_h.html" target="_top" xlink:title="amr&#45;wind/utilities\l/sampling/LineSampler.H">
<polygon fill="#ffffff" stroke="#000000" points="553.5,-257.5 553.5,-287.5 679.5,-287.5 679.5,-257.5 553.5,-257.5"/>
<text text-anchor="start" x="561.5" y="-275.5" font-family="Helvetica,sans-Serif" font-size="10.00" fill="#000000">amr&#45;wind/utilities</text>
<text text-anchor="middle" x="616.5" y="-264.5" font-family="Helvetica,sans-Serif" font-size="10.00" fill="#000000">/sampling/LineSampler.H</text>
</a>
</g>
</g>
<!-- Node0&#45;&gt;Node1 -->
<g id="edge1" class="edge">
<title>Node0&#45;&gt;Node1</title>
<path fill="none" stroke="#191970" d="M820.1082,-324.4581C784.2168,-315.2991 729.1462,-301.2458 685.3244,-290.0631"/>
<polygon fill="#191970" stroke="#191970" points="686.1427,-286.6598 675.5878,-287.5784 684.4118,-293.4424 686.1427,-286.6598"/>
</g>
<!-- Node14 -->
<g id="node15" class="node">
<title>Node14</title>
<g id="a_node15"><a xlink:href="_c_f_d_sim_8_h.html" target="_top" xlink:title="amr&#45;wind/CFDSim.H">
<polygon fill="#ffffff" stroke="#000000" points="762.5,-263 762.5,-282 870.5,-282 870.5,-263 762.5,-263"/>
<text text-anchor="middle" x="816.5" y="-270" font-family="Helvetica,sans-Serif" font-size="10.00" fill="#000000">amr&#45;wind/CFDSim.H</text>
</a>
</g>
</g>
<!-- Node0&#45;&gt;Node14 -->
<g id="edge15" class="edge">
<title>Node0&#45;&gt;Node14</title>
<path fill="none" stroke="#191970" d="M851.0938,-324.3906C845.1114,-315.417 836.0253,-301.7879 828.6661,-290.7491"/>
<polygon fill="#191970" stroke="#191970" points="831.4558,-288.6239 822.9966,-282.2449 825.6314,-292.5068 831.4558,-288.6239"/>
</g>
<!-- Node41 -->
<g id="node42" class="node">
<title>Node41</title>
<g id="a_node42"><a xlink:href="tensor__ops_8_h.html" target="_top" xlink:title="amr&#45;wind/utilities\l/tensor_ops.H">
<polygon fill="#ffffff" stroke="#000000" points="1817.5,-190.5 1817.5,-220.5 1907.5,-220.5 1907.5,-190.5 1817.5,-190.5"/>
<text text-anchor="start" x="1825.5" y="-208.5" font-family="Helvetica,sans-Serif" font-size="10.00" fill="#000000">amr&#45;wind/utilities</text>
<text text-anchor="middle" x="1862.5" y="-197.5" font-family="Helvetica,sans-Serif" font-size="10.00" fill="#000000">/tensor_ops.H</text>
</a>
</g>
</g>
<!-- Node0&#45;&gt;Node41 -->
<g id="edge74" class="edge">
<title>Node0&#45;&gt;Node41</title>
<path fill="none" stroke="#191970" d="M861.7175,-324.2594C869.7353,-307.1061 888.9634,-271.9163 917.5,-257 937.3263,-246.6366 1607.754,-216.6164 1807.1219,-207.8996"/>
<polygon fill="#191970" stroke="#191970" points="1807.5269,-211.3853 1817.3647,-207.4524 1807.2215,-204.392 1807.5269,-211.3853"/>
</g>
<!-- Node42 -->
<g id="node43" class="node">
<title>Node42</title>
<polygon fill="#ffffff" stroke="#bfbfbf" points="926.5,-263 926.5,-282 1042.5,-282 1042.5,-263 926.5,-263"/>
<text text-anchor="middle" x="984.5" y="-270" font-family="Helvetica,sans-Serif" font-size="10.00" fill="#000000">AMReX_ParmParse.H</text>
</g>
<!-- Node0&#45;&gt;Node42 -->
<g id="edge76" class="edge">
<title>Node0&#45;&gt;Node42</title>
<path fill="none" stroke="#191970" d="M877.3438,-324.3906C898.3136,-314.2359 931.5944,-298.1196 955.5036,-286.5416"/>
<polygon fill="#191970" stroke="#191970" points="957.3208,-289.5504 964.7956,-282.0419 954.2699,-283.2502 957.3208,-289.5504"/>
</g>
<!-- Node2 -->
<g id="node3" class="node">
<title>Node2</title>
<g id="a_node3"><a xlink:href="_sampler_base_8_h.html" target="_top" xlink:title="amr&#45;wind/utilities\l/sampling/SamplerBase.H">
<polygon fill="#ffffff" stroke="#000000" points="69,-123.5 69,-153.5 200,-153.5 200,-123.5 69,-123.5"/>
<text text-anchor="start" x="77" y="-141.5" font-family="Helvetica,sans-Serif" font-size="10.00" fill="#000000">amr&#45;wind/utilities</text>
<text text-anchor="middle" x="134.5" y="-130.5" font-family="Helvetica,sans-Serif" font-size="10.00" fill="#000000">/sampling/SamplerBase.H</text>
</a>
</g>
</g>
<!-- Node1&#45;&gt;Node2 -->
<g id="edge2" class="edge">
<title>Node1&#45;&gt;Node2</title>
<path fill="none" stroke="#191970" d="M557.0341,-257.4997C517.6542,-247.4513 464.9024,-233.7717 418.5,-221 340.8191,-199.6193 251.6612,-173.4518 194.2843,-156.3994"/>
<polygon fill="#191970" stroke="#191970" points="195.2367,-153.0312 184.6538,-153.5341 193.2405,-159.7406 195.2367,-153.0312"/>
</g>
<!-- Node3 -->
<g id="node4" class="node">
<title>Node3</title>
<g id="a_node4"><a xlink:href="_factory_8_h.html" target="_top" xlink:title="amr&#45;wind/core/Factory.H">
<polygon fill="#ffffff" stroke="#000000" points="339,-62 339,-81 464,-81 464,-62 339,-62"/>
<text text-anchor="middle" x="401.5" y="-69" font-family="Helvetica,sans-Serif" font-size="10.00" fill="#000000">amr&#45;wind/core/Factory.H</text>
</a>
</g>
</g>
<!-- Node2&#45;&gt;Node3 -->
<g id="edge3" class="edge">
<title>Node2&#45;&gt;Node3</title>
<path fill="none" stroke="#191970" d="M194.42,-123.4639C242.5909,-111.3761 309.3491,-94.624 353.9091,-83.4423"/>
<polygon fill="#191970" stroke="#191970" points="354.7733,-86.834 363.6207,-81.0053 353.0695,-80.0445 354.7733,-86.834"/>
</g>
<!-- Node9 -->
<g id="node10" class="node">
<title>Node9</title>
<g id="a_node10"><a xlink:href="nc__interface_8_h.html" target="_top" xlink:title="Interface to NetCDF library. ">
<polygon fill="#ffffff" stroke="#000000" points="77,-56.5 77,-86.5 192,-86.5 192,-56.5 77,-56.5"/>
<text text-anchor="start" x="85" y="-74.5" font-family="Helvetica,sans-Serif" font-size="10.00" fill="#000000">amr&#45;wind/utilities</text>
<text text-anchor="middle" x="134.5" y="-63.5" font-family="Helvetica,sans-Serif" font-size="10.00" fill="#000000">/ncutils/nc_interface.H</text>
</a>
</g>
</g>
<!-- Node2&#45;&gt;Node9 -->
<g id="edge9" class="edge">
<title>Node2&#45;&gt;Node9</title>
<path fill="none" stroke="#191970" d="M134.5,-123.2967C134.5,-115.5013 134.5,-105.7991 134.5,-96.9064"/>
<polygon fill="#191970" stroke="#191970" points="138.0001,-96.6431 134.5,-86.6432 131.0001,-96.6432 138.0001,-96.6431"/>
</g>
<!-- Node4 -->
<g id="node5" class="node">
<title>Node4</title>
<polygon fill="#ffffff" stroke="#bfbfbf" points="581.5,-.5 581.5,-19.5 633.5,-19.5 633.5,-.5 581.5,-.5"/>
<text text-anchor="middle" x="607.5" y="-7.5" font-family="Helvetica,sans-Serif" font-size="10.00" fill="#000000">memory</text>
</g>
<!-- Node3&#45;&gt;Node4 -->
<g id="edge4" class="edge">
<title>Node3&#45;&gt;Node4</title>
<path fill="none" stroke="#191970" d="M433.6875,-61.8906C471.0831,-50.7264 532.6155,-32.3563 571.5476,-20.7334"/>
<polygon fill="#191970" stroke="#191970" points="572.8291,-24.0035 581.41,-17.789 570.8266,-17.296 572.8291,-24.0035"/>
</g>
<!-- Node5 -->
<g id="node6" class="node">
<title>Node5</title>
<polygon fill="#ffffff" stroke="#bfbfbf" points="480,-.5 480,-19.5 563,-19.5 563,-.5 480,-.5"/>
<text text-anchor="middle" x="521.5" y="-7.5" font-family="Helvetica,sans-Serif" font-size="10.00" fill="#000000">unordered_map</text>
</g>
<!-- Node3&#45;&gt;Node5 -->
<g id="edge5" class="edge">
<title>Node3&#45;&gt;Node5</title>
<path fill="none" stroke="#191970" d="M420.25,-61.8906C439.976,-51.7811 471.2312,-35.7628 493.8,-24.1962"/>
<polygon fill="#191970" stroke="#191970" points="495.5787,-27.2176 502.8817,-19.5419 492.386,-20.9881 495.5787,-27.2176"/>
</g>
<!-- Node6 -->
<g id="node7" class="node">
<title>Node6</title>
<polygon fill="#ffffff" stroke="#bfbfbf" points="221.5,-.5 221.5,-19.5 275.5,-19.5 275.5,-.5 221.5,-.5"/>
<text text-anchor="middle" x="248.5" y="-7.5" font-family="Helvetica,sans-Serif" font-size="10.00" fill="#000000">iostream</text>
</g>
<!-- Node3&#45;&gt;Node6 -->
<g id="edge6" class="edge">
<title>Node3&#45;&gt;Node6</title>
<path fill="none" stroke="#191970" d="M377.5938,-61.8906C351.7695,-51.5103 310.4473,-34.9004 281.5295,-23.2766"/>
<polygon fill="#191970" stroke="#191970" points="282.8222,-20.0241 272.2384,-19.5419 280.2115,-26.519 282.8222,-20.0241"/>
</g>
<!-- Node7 -->
<g id="node8" class="node">
<title>Node7</title>
<polygon fill="#ffffff" stroke="#bfbfbf" points="294,-.5 294,-19.5 381,-19.5 381,-.5 294,-.5"/>
<text text-anchor="middle" x="337.5" y="-7.5" font-family="Helvetica,sans-Serif" font-size="10.00" fill="#000000">AMReX_Print.H</text>
</g>
<!-- Node3&#45;&gt;Node7 -->
<g id="edge7" class="edge">
<title>Node3&#45;&gt;Node7</title>
<path fill="none" stroke="#191970" d="M391.5,-61.8906C381.7881,-52.5581 366.8361,-38.1902 355.1259,-26.9374"/>
<polygon fill="#191970" stroke="#191970" points="357.2766,-24.15 347.641,-19.7449 352.4264,-29.1974 357.2766,-24.15"/>
</g>
<!-- Node8 -->
<g id="node9" class="node">
<title>Node8</title>
<polygon fill="#ffffff" stroke="#bfbfbf" points="399.5,-.5 399.5,-19.5 461.5,-19.5 461.5,-.5 399.5,-.5"/>
<text text-anchor="middle" x="430.5" y="-7.5" font-family="Helvetica,sans-Serif" font-size="10.00" fill="#000000">AMReX.H</text>
</g>
<!-- Node3&#45;&gt;Node8 -->
<g id="edge8" class="edge">
<title>Node3&#45;&gt;Node8</title>
<path fill="none" stroke="#191970" d="M406.0313,-61.8906C410.1781,-53.0965 416.4332,-39.8312 421.581,-28.9145"/>
<polygon fill="#191970" stroke="#191970" points="424.8055,-30.2825 425.9049,-19.7449 418.4741,-27.2969 424.8055,-30.2825"/>
</g>
<!-- Node9&#45;&gt;Node5 -->
<g id="edge11" class="edge">
<title>Node9&#45;&gt;Node5</title>
<path fill="none" stroke="#191970" d="M192.1718,-57.7943C195.3214,-57.1595 198.4461,-56.5563 201.5,-56 317.0396,-34.9525 349.7718,-39.3565 469.8385,-20.0167"/>
<polygon fill="#191970" stroke="#191970" points="470.4833,-23.4579 479.7887,-18.3923 469.3554,-16.5494 470.4833,-23.4579"/>
</g>
<!-- Node10 -->
<g id="node11" class="node">
<title>Node10</title>
<polygon fill="#ffffff" stroke="#bfbfbf" points="1036,-.5 1036,-19.5 1077,-19.5 1077,-.5 1036,-.5"/>
<text text-anchor="middle" x="1056.5" y="-7.5" font-family="Helvetica,sans-Serif" font-size="10.00" fill="#000000">string</text>
</g>
<!-- Node9&#45;&gt;Node10 -->
<g id="edge10" class="edge">
<title>Node9&#45;&gt;Node10</title>
<path fill="none" stroke="#191970" d="M192.1242,-57.5002C195.2861,-56.9412 198.4264,-56.4348 201.5,-56 365.5992,-32.7834 892.5003,-15.1119 1025.6886,-10.9396"/>
<polygon fill="#191970" stroke="#191970" points="1026.0847,-14.4291 1035.971,-10.6199 1025.8671,-7.4325 1026.0847,-14.4291"/>
</g>
<!-- Node11 -->
<g id="node12" class="node">
<title>Node11</title>
<polygon fill="#ffffff" stroke="#bfbfbf" points="89.5,-.5 89.5,-19.5 133.5,-19.5 133.5,-.5 89.5,-.5"/>
<text text-anchor="middle" x="111.5" y="-7.5" font-family="Helvetica,sans-Serif" font-size="10.00" fill="#000000">vector</text>
</g>
<!-- Node9&#45;&gt;Node11 -->
<g id="edge12" class="edge">
<title>Node9&#45;&gt;Node11</title>
<path fill="none" stroke="#191970" d="M128.8146,-56.2977C125.755,-48.1166 121.9502,-37.943 118.6872,-29.2179"/>
<polygon fill="#191970" stroke="#191970" points="121.9638,-27.9873 115.1826,-19.8469 115.4073,-30.4394 121.9638,-27.9873"/>
</g>
<!-- Node12 -->
<g id="node13" class="node">
<title>Node12</title>
<polygon fill="#ffffff" stroke="#bfbfbf" points="151.5,-.5 151.5,-19.5 203.5,-19.5 203.5,-.5 151.5,-.5"/>
<text text-anchor="middle" x="177.5" y="-7.5" font-family="Helvetica,sans-Serif" font-size="10.00" fill="#000000">netcdf.h</text>
</g>
<!-- Node9&#45;&gt;Node12 -->
<g id="edge13" class="edge">
<title>Node9&#45;&gt;Node12</title>
<path fill="none" stroke="#191970" d="M145.1292,-56.2977C151.0981,-47.7609 158.5838,-37.0545 164.8529,-28.0883"/>
<polygon fill="#191970" stroke="#191970" points="167.7534,-30.048 170.6152,-19.8469 162.0165,-26.0368 167.7534,-30.048"/>
</g>
<!-- Node13 -->
<g id="node14" class="node">
<title>Node13</title>
<polygon fill="#ffffff" stroke="#bfbfbf" points="0,-.5 0,-19.5 71,-19.5 71,-.5 0,-.5"/>
<text text-anchor="middle" x="35.5" y="-7.5" font-family="Helvetica,sans-Serif" font-size="10.00" fill="#000000">netcdf_par.h</text>
</g>
<!-- Node9&#45;&gt;Node13 -->
<g id="edge14" class="edge">
<title>Node9&#45;&gt;Node13</title>
<path fill="none" stroke="#191970" d="M110.2819,-56.4554C94.9227,-46.9141 75.1243,-34.6151 59.7575,-25.0691"/>
<polygon fill="#191970" stroke="#191970" points="61.1828,-21.8341 50.8415,-19.5303 57.489,-27.7802 61.1828,-21.8341"/>
</g>
<!-- Node15 -->
<g id="node16" class="node">
<title>Node15</title>
<polygon fill="#ffffff" stroke="#bfbfbf" points="904.5,-129 904.5,-148 1010.5,-148 1010.5,-129 904.5,-129"/>
<text text-anchor="middle" x="957.5" y="-136" font-family="Helvetica,sans-Serif" font-size="10.00" fill="#000000">AMReX_AmrCore.H</text>
</g>
<!-- Node14&#45;&gt;Node15 -->
<g id="edge16" class="edge">
<title>Node14&#45;&gt;Node15</title>
<path fill="none" stroke="#191970" d="M826.6404,-262.8631C850.4202,-240.2638 910.0148,-183.6278 939.873,-155.2519"/>
<polygon fill="#191970" stroke="#191970" points="942.6139,-157.4756 947.4515,-148.0496 937.7917,-152.4014 942.6139,-157.4756"/>
</g>
<!-- Node16 -->
<g id="node17" class="node">
<title>Node16</title>
<g id="a_node17"><a xlink:href="_sim_time_8_h.html" target="_top" xlink:title="amr&#45;wind/core/SimTime.H">
<polygon fill="#ffffff" stroke="#000000" points="565,-196 565,-215 696,-215 696,-196 565,-196"/>
<text text-anchor="middle" x="630.5" y="-203" font-family="Helvetica,sans-Serif" font-size="10.00" fill="#000000">amr&#45;wind/core/SimTime.H</text>
</a>
</g>
</g>
<!-- Node14&#45;&gt;Node16 -->
<g id="edge17" class="edge">
<title>Node14&#45;&gt;Node16</title>
<path fill="none" stroke="#191970" d="M789.8507,-262.9005C757.5308,-251.2584 702.9026,-231.5805 666.7675,-218.5641"/>
<polygon fill="#191970" stroke="#191970" points="667.6942,-215.1778 657.0998,-215.0817 665.3219,-221.7636 667.6942,-215.1778"/>
</g>
<!-- Node20 -->
<g id="node21" class="node">
<title>Node20</title>
<g id="a_node21"><a xlink:href="_field_repo_8_h.html" target="_top" xlink:title="amr&#45;wind/core/FieldRepo.H">
<polygon fill="#ffffff" stroke="#000000" points="1366.5,-196 1366.5,-215 1502.5,-215 1502.5,-196 1366.5,-196"/>
<text text-anchor="middle" x="1434.5" y="-203" font-family="Helvetica,sans-Serif" font-size="10.00" fill="#000000">amr&#45;wind/core/FieldRepo.H</text>
</a>
</g>
</g>
<!-- Node14&#45;&gt;Node20 -->
<g id="edge21" class="edge">
<title>Node14&#45;&gt;Node20</title>
<path fill="none" stroke="#191970" d="M854.4514,-262.9273C864.1958,-260.7238 874.696,-258.5695 884.5,-257 1051.4645,-230.2715 1249.3301,-215.9316 1356.335,-209.5941"/>
<polygon fill="#191970" stroke="#191970" points="1356.6239,-213.0832 1366.4026,-209.0056 1356.2154,-206.0952 1356.6239,-213.0832"/>
</g>
<!-- Node35 -->
<g id="node36" class="node">
<title>Node35</title>
<g id="a_node36"><a xlink:href="_p_d_e_base_8_h.html" target="_top" xlink:title="amr&#45;wind/equation_systems\l/PDEBase.H">
<polygon fill="#ffffff" stroke="#000000" points="747,-123.5 747,-153.5 886,-153.5 886,-123.5 747,-123.5"/>
<text text-anchor="start" x="755" y="-141.5" font-family="Helvetica,sans-Serif" font-size="10.00" fill="#000000">amr&#45;wind/equation_systems</text>
<text text-anchor="middle" x="816.5" y="-130.5" font-family="Helvetica,sans-Serif" font-size="10.00" fill="#000000">/PDEBase.H</text>
</a>
</g>
</g>
<!-- Node14&#45;&gt;Node35 -->
<g id="edge57" class="edge">
<title>Node14&#45;&gt;Node35</title>
<path fill="none" stroke="#191970" d="M816.5,-262.8631C816.5,-242.3397 816.5,-193.7457 816.5,-163.7388"/>
<polygon fill="#191970" stroke="#191970" points="820.0001,-163.611 816.5,-153.611 813.0001,-163.6111 820.0001,-163.611"/>
</g>
<!-- Node39 -->
<g id="node40" class="node">
<title>Node39</title>
<g id="a_node40"><a xlink:href="_physics_8_h.html" target="_top" xlink:title="amr&#45;wind/core/Physics.H">
<polygon fill="#ffffff" stroke="#000000" points="218,-129 218,-148 345,-148 345,-129 218,-129"/>
<text text-anchor="middle" x="281.5" y="-136" font-family="Helvetica,sans-Serif" font-size="10.00" fill="#000000">amr&#45;wind/core/Physics.H</text>
</a>
</g>
</g>
<!-- Node14&#45;&gt;Node39 -->
<g id="edge69" class="edge">
<title>Node14&#45;&gt;Node39</title>
<path fill="none" stroke="#191970" d="M762.425,-263.4203C709.4032,-254.1444 626.4311,-238.6318 555.5,-221 470.3497,-199.8337 372.274,-168.605 319.6371,-151.2729"/>
<polygon fill="#191970" stroke="#191970" points="320.635,-147.9166 310.0418,-148.1014 318.4382,-154.5629 320.635,-147.9166"/>
</g>
<!-- Node17 -->
<g id="node18" class="node">
<title>Node17</title>
<polygon fill="#ffffff" stroke="#bfbfbf" points="636,-129 636,-148 729,-148 729,-129 636,-129"/>
<text text-anchor="middle" x="682.5" y="-136" font-family="Helvetica,sans-Serif" font-size="10.00" fill="#000000">AMReX_REAL.H</text>
</g>
<!-- Node16&#45;&gt;Node17 -->
<g id="edge18" class="edge">
<title>Node16&#45;&gt;Node17</title>
<path fill="none" stroke="#191970" d="M637.9503,-195.9005C645.9821,-185.552 658.9415,-168.8542 668.8174,-156.1295"/>
<polygon fill="#191970" stroke="#191970" points="671.6972,-158.1275 675.0635,-148.0817 666.1672,-153.8356 671.6972,-158.1275"/>
</g>
<!-- Node18 -->
<g id="node19" class="node">
<title>Node18</title>
<polygon fill="#ffffff" stroke="#bfbfbf" points="363.5,-129 363.5,-148 489.5,-148 489.5,-129 363.5,-129"/>
<text text-anchor="middle" x="426.5" y="-136" font-family="Helvetica,sans-Serif" font-size="10.00" fill="#000000">AMReX_GpuQualifiers.H</text>
</g>
<!-- Node16&#45;&gt;Node18 -->
<g id="edge19" class="edge">
<title>Node16&#45;&gt;Node18</title>
<path fill="none" stroke="#191970" d="M601.2718,-195.9005C565.5211,-184.1589 504.8834,-164.2436 465.2655,-151.2318"/>
<polygon fill="#191970" stroke="#191970" points="466.2669,-147.8768 455.674,-148.0817 464.0826,-154.5273 466.2669,-147.8768"/>
</g>
<!-- Node19 -->
<g id="node20" class="node">
<title>Node19</title>
<polygon fill="#ffffff" stroke="#bfbfbf" points="507.5,-129 507.5,-148 617.5,-148 617.5,-129 507.5,-129"/>
<text text-anchor="middle" x="562.5" y="-136" font-family="Helvetica,sans-Serif" font-size="10.00" fill="#000000">AMReX_Extension.H</text>
</g>
<!-- Node16&#45;&gt;Node19 -->
<g id="edge20" class="edge">
<title>Node16&#45;&gt;Node19</title>
<path fill="none" stroke="#191970" d="M620.7573,-195.9005C610.0523,-185.353 592.653,-168.2096 579.6521,-155.3998"/>
<polygon fill="#191970" stroke="#191970" points="581.8044,-152.607 572.2247,-148.0817 576.8915,-157.5933 581.8044,-152.607"/>
</g>
<!-- Node20&#45;&gt;Node5 -->
<g id="edge23" class="edge">
<title>Node20&#45;&gt;Node5</title>
<path fill="none" stroke="#191970" d="M1366.3574,-202.5073C1293.5361,-197.7399 1175.4719,-185.4613 1078.5,-154 1050.3243,-144.8588 1047.9902,-131.1081 1019.5,-123 965.0751,-107.511 550.0722,-128.4024 511.5,-87 497.1358,-71.5819 504.0426,-46.2826 511.599,-28.9184"/>
<polygon fill="#191970" stroke="#191970" points="514.8273,-30.2797 515.9672,-19.7463 508.5074,-27.2697 514.8273,-30.2797"/>
</g>
<!-- Node20&#45;&gt;Node10 -->
<g id="edge22" class="edge">
<title>Node20&#45;&gt;Node10</title>
<path fill="none" stroke="#191970" d="M1390.4802,-195.9436C1276.1591,-170.9223 977.7643,-104.2343 964.5,-87 956.0967,-76.0816 957.2566,-67.7201 964.5,-56 977.8122,-34.4604 1004.6028,-22.6693 1025.8564,-16.4359"/>
<polygon fill="#191970" stroke="#191970" points="1026.996,-19.7546 1035.7619,-13.8039 1025.1984,-12.9893 1026.996,-19.7546"/>
</g>
<!-- Node20&#45;&gt;Node15 -->
<g id="edge54" class="edge">
<title>Node20&#45;&gt;Node15</title>
<path fill="none" stroke="#191970" d="M1366.3471,-199.0966C1284.7266,-190.931 1144.0409,-175.2776 1024.5,-154 1018.3289,-152.9016 1011.8712,-151.6018 1005.5038,-150.2295"/>
<polygon fill="#191970" stroke="#191970" points="1006.148,-146.7873 995.6265,-148.0317 1004.6276,-153.6202 1006.148,-146.7873"/>
</g>
<!-- Node21 -->
<g id="node22" class="node">
<title>Node21</title>
<g id="a_node22"><a xlink:href="_field_desc_types_8_h.html" target="_top" xlink:title="amr&#45;wind/core/FieldDescTypes.H">
<polygon fill="#ffffff" stroke="#000000" points="1796,-.5 1796,-19.5 1959,-19.5 1959,-.5 1796,-.5"/>
<text text-anchor="middle" x="1877.5" y="-7.5" font-family="Helvetica,sans-Serif" font-size="10.00" fill="#000000">amr&#45;wind/core/FieldDescTypes.H</text>
</a>
</g>
</g>
<!-- Node20&#45;&gt;Node21 -->
<g id="edge24" class="edge">
<title>Node20&#45;&gt;Node21</title>
<path fill="none" stroke="#191970" d="M1502.5618,-200.3715C1683.8697,-185.9962 2167.7437,-142.6968 2211.5,-87 2220.0115,-76.1658 2220.5534,-66.3857 2211.5,-56 2195.705,-37.8805 2062.6635,-24.0747 1969.3432,-16.507"/>
<polygon fill="#191970" stroke="#191970" points="1969.5552,-13.0129 1959.308,-15.7047 1968.9973,-19.9906 1969.5552,-13.0129"/>
</g>
<!-- Node22 -->
<g id="node23" class="node">
<title>Node22</title>
<g id="a_node23"><a xlink:href="_field_utils_8_h.html" target="_top" xlink:title="amr&#45;wind/core/FieldUtils.H">
<polygon fill="#ffffff" stroke="#000000" points="2259,-62 2259,-81 2392,-81 2392,-62 2259,-62"/>
<text text-anchor="middle" x="2325.5" y="-69" font-family="Helvetica,sans-Serif" font-size="10.00" fill="#000000">amr&#45;wind/core/FieldUtils.H</text>
</a>
</g>
</g>
<!-- Node20&#45;&gt;Node22 -->
<g id="edge25" class="edge">
<title>Node20&#45;&gt;Node22</title>
<path fill="none" stroke="#191970" d="M1502.6576,-202.4935C1691.7069,-193.9782 2211.0039,-169.3229 2244.5,-154 2274.9122,-140.0879 2300.0482,-109.339 2313.8937,-89.5622"/>
<polygon fill="#191970" stroke="#191970" points="2316.9095,-91.35 2319.5984,-81.102 2311.1057,-87.4364 2316.9095,-91.35"/>
</g>
<!-- Node23 -->
<g id="node24" class="node">
<title>Node23</title>
<polygon fill="#ffffff" stroke="#bfbfbf" points="1673.5,-.5 1673.5,-19.5 1777.5,-19.5 1777.5,-.5 1673.5,-.5"/>
<text text-anchor="middle" x="1725.5" y="-7.5" font-family="Helvetica,sans-Serif" font-size="10.00" fill="#000000">AMReX_MultiFab.H</text>
</g>
<!-- Node20&#45;&gt;Node23 -->
<g id="edge55" class="edge">
<title>Node20&#45;&gt;Node23</title>
<path fill="none" stroke="#191970" d="M1502.555,-202.7401C1642.3095,-195.4023 1953.3531,-169.9024 2010.5,-87 2018.3196,-75.6562 2019.4325,-66.4899 2010.5,-56 2010.5,-56 1871.5748,-33.577 1787.7143,-20.0416"/>
<polygon fill="#191970" stroke="#191970" points="1788.2034,-16.5753 1777.7734,-18.4371 1787.0879,-23.4859 1788.2034,-16.5753"/>
</g>
<!-- Node25 -->
<g id="node26" class="node">
<title>Node25</title>
<g id="a_node26"><a xlink:href="_field_8_h.html" target="_top" xlink:title="amr&#45;wind/core/Field.H">
<polygon fill="#ffffff" stroke="#000000" points="1226,-129 1226,-148 1339,-148 1339,-129 1226,-129"/>
<text text-anchor="middle" x="1282.5" y="-136" font-family="Helvetica,sans-Serif" font-size="10.00" fill="#000000">amr&#45;wind/core/Field.H</text>
</a>
</g>
</g>
<!-- Node20&#45;&gt;Node25 -->
<g id="edge29" class="edge">
<title>Node20&#45;&gt;Node25</title>
<path fill="none" stroke="#191970" d="M1412.7221,-195.9005C1386.7616,-184.4574 1343.1887,-165.2509 1313.6654,-152.2374"/>
<polygon fill="#191970" stroke="#191970" points="1314.7997,-148.9125 1304.2375,-148.0817 1311.9763,-155.3178 1314.7997,-148.9125"/>
</g>
<!-- Node31 -->
<g id="node32" class="node">
<title>Node31</title>
<g id="a_node32"><a xlink:href="_int_field_8_h.html" target="_top" xlink:title="amr&#45;wind/core/IntField.H">
<polygon fill="#ffffff" stroke="#000000" points="1462.5,-129 1462.5,-148 1586.5,-148 1586.5,-129 1462.5,-129"/>
<text text-anchor="middle" x="1524.5" y="-136" font-family="Helvetica,sans-Serif" font-size="10.00" fill="#000000">amr&#45;wind/core/IntField.H</text>
</a>
</g>
</g>
<!-- Node20&#45;&gt;Node31 -->
<g id="edge43" class="edge">
<title>Node20&#45;&gt;Node31</title>
<path fill="none" stroke="#191970" d="M1447.3948,-195.9005C1461.9642,-185.0544 1485.9022,-167.2339 1503.2454,-154.3229"/>
<polygon fill="#191970" stroke="#191970" points="1505.6978,-156.8606 1511.6291,-148.0817 1501.5177,-151.2457 1505.6978,-156.8606"/>
</g>
<!-- Node32 -->
<g id="node33" class="node">
<title>Node32</title>
<polygon fill="#ffffff" stroke="#bfbfbf" points="1389,-62 1389,-81 1496,-81 1496,-62 1389,-62"/>
<text text-anchor="middle" x="1442.5" y="-69" font-family="Helvetica,sans-Serif" font-size="10.00" fill="#000000">AMReX_iMultiFab.H</text>
</g>
<!-- Node20&#45;&gt;Node32 -->
<g id="edge56" class="edge">
<title>Node20&#45;&gt;Node32</title>
<path fill="none" stroke="#191970" d="M1435.0753,-195.8631C1436.3784,-174.0364 1439.577,-120.4605 1441.3204,-91.2589"/>
<polygon fill="#191970" stroke="#191970" points="1444.8276,-91.2405 1441.9299,-81.0496 1437.84,-90.8232 1444.8276,-91.2405"/>
</g>
<!-- Node33 -->
<g id="node34" class="node">
<title>Node33</title>
<g id="a_node34"><a xlink:href="_scratch_field_8_h.html" target="_top" xlink:title="amr&#45;wind/core/ScratchField.H">
<polygon fill="#ffffff" stroke="#000000" points="1679.5,-129 1679.5,-148 1825.5,-148 1825.5,-129 1679.5,-129"/>
<text text-anchor="middle" x="1752.5" y="-136" font-family="Helvetica,sans-Serif" font-size="10.00" fill="#000000">amr&#45;wind/core/ScratchField.H</text>
</a>
</g>
</g>
<!-- Node20&#45;&gt;Node33 -->
<g id="edge47" class="edge">
<title>Node20&#45;&gt;Node33</title>
<path fill="none" stroke="#191970" d="M1479.7239,-195.9717C1536.9807,-183.9082 1635.5739,-163.1354 1697.2339,-150.1441"/>
<polygon fill="#191970" stroke="#191970" points="1698.1114,-153.5362 1707.1749,-148.0496 1696.6681,-146.6865 1698.1114,-153.5362"/>
</g>
<!-- Node22&#45;&gt;Node21 -->
<g id="edge26" class="edge">
<title>Node22&#45;&gt;Node21</title>
<path fill="none" stroke="#191970" d="M2278.4751,-61.9706C2267.3591,-59.8653 2255.5306,-57.7448 2244.5,-56 2151.2129,-41.2437 2043.975,-28.2592 1969.6105,-19.8815"/>
<polygon fill="#191970" stroke="#191970" points="1969.6681,-16.3661 1959.3404,-18.7302 1968.8882,-23.3225 1969.6681,-16.3661"/>
</g>
<!-- Node22&#45;&gt;Node23 -->
<g id="edge27" class="edge">
<title>Node22&#45;&gt;Node23</title>
<path fill="none" stroke="#191970" d="M2259.8613,-61.9996C2244.0443,-59.8697 2227.184,-57.731 2211.5,-56 2023.5189,-35.2536 1975.2097,-43.0735 1787.5,-20 1787.3985,-19.9875 1787.297,-19.975 1787.1954,-19.9625"/>
<polygon fill="#191970" stroke="#191970" points="1787.9274,-16.5289 1777.5548,-18.6872 1787.0094,-23.4684 1787.9274,-16.5289"/>
</g>
<!-- Node24 -->
<g id="node25" class="node">
<title>Node24</title>
<polygon fill="#ffffff" stroke="#bfbfbf" points="2267.5,-.5 2267.5,-19.5 2383.5,-19.5 2383.5,-.5 2267.5,-.5"/>
<text text-anchor="middle" x="2325.5" y="-7.5" font-family="Helvetica,sans-Serif" font-size="10.00" fill="#000000">AMReX_Interpolater.H</text>
</g>
<!-- Node22&#45;&gt;Node24 -->
<g id="edge28" class="edge">
<title>Node22&#45;&gt;Node24</title>
<path fill="none" stroke="#191970" d="M2325.5,-61.8906C2325.5,-53.3657 2325.5,-40.6392 2325.5,-29.9235"/>
<polygon fill="#191970" stroke="#191970" points="2329.0001,-29.7448 2325.5,-19.7449 2322.0001,-29.7449 2329.0001,-29.7448"/>
</g>
<!-- Node25&#45;&gt;Node4 -->
<g id="edge31" class="edge">
<title>Node25&#45;&gt;Node4</title>
<path fill="none" stroke="#191970" d="M1260.4812,-128.925C1239.5067,-119.4263 1207.3834,-103.881 1181.5,-87 1163.2437,-75.0933 1163.7185,-64.1408 1143.5,-56 1052.0845,-19.1923 799.6159,-29.2132 701.5,-20 682.5562,-18.2212 661.4915,-16.0025 644.1123,-14.1073"/>
<polygon fill="#191970" stroke="#191970" points="644.142,-10.5895 633.8194,-12.9758 643.3771,-17.5476 644.142,-10.5895"/>
</g>
<!-- Node25&#45;&gt;Node5 -->
<g id="edge32" class="edge">
<title>Node25&#45;&gt;Node5</title>
<path fill="none" stroke="#191970" d="M1244.6574,-128.9309C1215.6047,-120.5598 1175.2247,-106.6471 1143.5,-87 1126.392,-76.405 1128.9514,-64.0302 1110.5,-56 1003.4208,-9.3981 706.8877,-34.2174 573.282,-19.8256"/>
<polygon fill="#191970" stroke="#191970" points="573.5223,-16.3295 563.1778,-18.619 572.6922,-23.2801 573.5223,-16.3295"/>
</g>
<!-- Node25&#45;&gt;Node10 -->
<g id="edge30" class="edge">
<title>Node25&#45;&gt;Node10</title>
<path fill="none" stroke="#191970" d="M1273.003,-128.8648C1256.0026,-112.0729 1218.6613,-77.2165 1181.5,-56 1151.1844,-38.6919 1113.1555,-25.8009 1087.0521,-18.1361"/>
<polygon fill="#191970" stroke="#191970" points="1087.9099,-14.7412 1077.3333,-15.3619 1085.9885,-21.4724 1087.9099,-14.7412"/>
</g>
<!-- Node25&#45;&gt;Node21 -->
<g id="edge37" class="edge">
<title>Node25&#45;&gt;Node21</title>
<path fill="none" stroke="#191970" d="M1339.1346,-133.2341C1451.8522,-122.5785 1696.6362,-98.499 1733.5,-87 1779.6984,-72.5892 1828.3131,-43.1601 1855.5803,-25.1489"/>
<polygon fill="#191970" stroke="#191970" points="1857.6207,-27.9947 1863.9747,-19.5166 1853.7206,-22.1818 1857.6207,-27.9947"/>
</g>
<!-- Node25&#45;&gt;Node23 -->
<g id="edge33" class="edge">
<title>Node25&#45;&gt;Node23</title>
<path fill="none" stroke="#191970" d="M1275.6052,-128.9866C1264.25,-112.0718 1244.6569,-76.6105 1263.5,-56 1292.1521,-24.6604 1587.7303,-25.4462 1663.153,-19.7854"/>
<polygon fill="#191970" stroke="#191970" points="1663.6717,-23.2518 1673.2931,-18.8156 1663.0052,-16.2836 1663.6717,-23.2518"/>
</g>
<!-- Node26 -->
<g id="node27" class="node">
<title>Node26</title>
<polygon fill="#ffffff" stroke="#bfbfbf" points="1272,-62 1272,-81 1371,-81 1371,-62 1272,-62"/>
<text text-anchor="middle" x="1321.5" y="-69" font-family="Helvetica,sans-Serif" font-size="10.00" fill="#000000">AMReX_BCRec.H</text>
</g>
<!-- Node25&#45;&gt;Node26 -->
<g id="edge34" class="edge">
<title>Node25&#45;&gt;Node26</title>
<path fill="none" stroke="#191970" d="M1288.0877,-128.9005C1293.9957,-118.751 1303.4587,-102.4941 1310.8082,-89.8679"/>
<polygon fill="#191970" stroke="#191970" points="1313.9167,-91.4849 1315.9226,-81.0817 1307.867,-87.9634 1313.9167,-91.4849"/>
</g>
<!-- Node27 -->
<g id="node28" class="node">
<title>Node27</title>
<polygon fill="#ffffff" stroke="#bfbfbf" points="2117,-62 2117,-81 2202,-81 2202,-62 2117,-62"/>
<text text-anchor="middle" x="2159.5" y="-69" font-family="Helvetica,sans-Serif" font-size="10.00" fill="#000000">AMReX_Gpu.H</text>
</g>
<!-- Node25&#45;&gt;Node27 -->
<g id="edge35" class="edge">
<title>Node25&#45;&gt;Node27</title>
<path fill="none" stroke="#191970" d="M1339.0821,-133.0302C1372.3776,-129.8968 1415.3131,-126.0032 1453.5,-123 1693.2923,-104.1418 1753.7334,-106.1827 1993.5,-87 2031.3809,-83.9693 2074.0684,-79.9704 2106.6688,-76.7935"/>
<polygon fill="#191970" stroke="#191970" points="2107.269,-80.2516 2116.8801,-75.7932 2106.5865,-73.2849 2107.269,-80.2516"/>
</g>
<!-- Node28 -->
<g id="node29" class="node">
<title>Node28</title>
<g id="a_node29"><a xlink:href="incflo__enums_8_h.html" target="_top" xlink:title="amr&#45;wind/incflo_enums.H">
<polygon fill="#ffffff" stroke="#000000" points="973.5,-62 973.5,-81 1101.5,-81 1101.5,-62 973.5,-62"/>
<text text-anchor="middle" x="1037.5" y="-69" font-family="Helvetica,sans-Serif" font-size="10.00" fill="#000000">amr&#45;wind/incflo_enums.H</text>
</a>
</g>
</g>
<!-- Node25&#45;&gt;Node28 -->
<g id="edge36" class="edge">
<title>Node25&#45;&gt;Node28</title>
<path fill="none" stroke="#191970" d="M1247.6577,-128.9717C1204.2431,-117.0991 1129.9817,-96.7909 1082.3565,-83.7669"/>
<polygon fill="#191970" stroke="#191970" points="1083.1879,-80.3658 1072.6188,-81.1039 1081.3414,-87.1179 1083.1879,-80.3658"/>
</g>
<!-- Node29 -->
<g id="node30" class="node">
<title>Node29</title>
<g id="a_node30"><a xlink:href="_view_field_8_h.html" target="_top" xlink:title="amr&#45;wind/core/ViewField.H">
<polygon fill="#ffffff" stroke="#000000" points="1590.5,-62 1590.5,-81 1724.5,-81 1724.5,-62 1590.5,-62"/>
<text text-anchor="middle" x="1657.5" y="-69" font-family="Helvetica,sans-Serif" font-size="10.00" fill="#000000">amr&#45;wind/core/ViewField.H</text>
</a>
</g>
</g>
<!-- Node25&#45;&gt;Node29 -->
<g id="edge38" class="edge">
<title>Node25&#45;&gt;Node29</title>
<path fill="none" stroke="#191970" d="M1335.8301,-128.9717C1403.9067,-116.8087 1521.5365,-95.7921 1594.1179,-82.8243"/>
<polygon fill="#191970" stroke="#191970" points="1594.8221,-86.254 1604.0506,-81.0496 1593.5909,-79.3631 1594.8221,-86.254"/>
</g>
<!-- Node29&#45;&gt;Node10 -->
<g id="edge39" class="edge">
<title>Node29&#45;&gt;Node10</title>
<path fill="none" stroke="#191970" d="M1611.7981,-61.9203C1600.3127,-59.7431 1587.986,-57.6028 1576.5,-56 1391.8071,-30.2266 1168.0776,-16.1671 1087.3796,-11.6416"/>
<polygon fill="#191970" stroke="#191970" points="1087.5694,-8.1468 1077.3915,-11.0895 1087.183,-15.1361 1087.5694,-8.1468"/>
</g>
<!-- Node29&#45;&gt;Node21 -->
<g id="edge40" class="edge">
<title>Node29&#45;&gt;Node21</title>
<path fill="none" stroke="#191970" d="M1691.875,-61.8906C1730.0573,-51.2169 1791.8016,-33.9566 1833.4884,-22.3033"/>
<polygon fill="#191970" stroke="#191970" points="1834.6779,-25.605 1843.3664,-19.5419 1832.7933,-18.8634 1834.6779,-25.605"/>
</g>
<!-- Node29&#45;&gt;Node23 -->
<g id="edge41" class="edge">
<title>Node29&#45;&gt;Node23</title>
<path fill="none" stroke="#191970" d="M1668.125,-61.8906C1678.5431,-52.4683 1694.6364,-37.9134 1707.1304,-26.6137"/>
<polygon fill="#191970" stroke="#191970" points="1709.6562,-29.0484 1714.7252,-19.7449 1704.9608,-23.8568 1709.6562,-29.0484"/>
</g>
<!-- Node30 -->
<g id="node31" class="node">
<title>Node30</title>
<polygon fill="#ffffff" stroke="#bfbfbf" points="1560,-.5 1560,-19.5 1655,-19.5 1655,-.5 1560,-.5"/>
<text text-anchor="middle" x="1607.5" y="-7.5" font-family="Helvetica,sans-Serif" font-size="10.00" fill="#000000">AMReX_Vector.H</text>
</g>
<!-- Node29&#45;&gt;Node30 -->
<g id="edge42" class="edge">
<title>Node29&#45;&gt;Node30</title>
<path fill="none" stroke="#191970" d="M1649.6875,-61.8906C1642.246,-52.7376 1630.8666,-38.7409 1621.8008,-27.59"/>
<polygon fill="#191970" stroke="#191970" points="1624.4467,-25.2962 1615.4226,-19.7449 1619.0153,-29.712 1624.4467,-25.2962"/>
</g>
<!-- Node31&#45;&gt;Node10 -->
<g id="edge44" class="edge">
<title>Node31&#45;&gt;Node10</title>
<path fill="none" stroke="#191970" d="M1525.5175,-128.8384C1526.7633,-111.3591 1526.5448,-74.5797 1505.5,-56 1474.2141,-28.3788 1184.0522,-14.873 1087.5466,-11.1179"/>
<polygon fill="#191970" stroke="#191970" points="1087.4036,-7.6101 1077.2776,-10.727 1087.1372,-14.605 1087.4036,-7.6101"/>
</g>
<!-- Node31&#45;&gt;Node21 -->
<g id="edge45" class="edge">
<title>Node31&#45;&gt;Node21</title>
<path fill="none" stroke="#191970" d="M1586.501,-131.6365C1657.1945,-123.0258 1767.7327,-106.942 1804.5,-87 1830.5609,-72.865 1852.7068,-46.0686 1865.5596,-28.1179"/>
<polygon fill="#191970" stroke="#191970" points="1868.6039,-29.8689 1871.4053,-19.6511 1862.8434,-25.8917 1868.6039,-29.8689"/>
</g>
<!-- Node31&#45;&gt;Node32 -->
<g id="edge46" class="edge">
<title>Node31&#45;&gt;Node32</title>
<path fill="none" stroke="#191970" d="M1512.7514,-128.9005C1499.5989,-118.1539 1478.0664,-100.5603 1462.3017,-87.6794"/>
<polygon fill="#191970" stroke="#191970" points="1464.1852,-84.6986 1454.2268,-81.0817 1459.7561,-90.1193 1464.1852,-84.6986"/>
</g>
<!-- Node33&#45;&gt;Node10 -->
<g id="edge48" class="edge">
<title>Node33&#45;&gt;Node10</title>
<path fill="none" stroke="#191970" d="M1711.4962,-128.9653C1676.2635,-120.1145 1624.4957,-105.5257 1581.5,-87 1556.0852,-76.0495 1553.8608,-64.4222 1527.5,-56 1444.9621,-29.6294 1178.6925,-15.4863 1087.4864,-11.3234"/>
<polygon fill="#191970" stroke="#191970" points="1087.4023,-7.8162 1077.2557,-10.8651 1087.089,-14.8092 1087.4023,-7.8162"/>
</g>
<!-- Node33&#45;&gt;Node21 -->
<g id="edge49" class="edge">
<title>Node33&#45;&gt;Node21</title>
<path fill="none" stroke="#191970" d="M1825.6352,-134.0147C1893.5248,-128.1438 1987.4734,-115.0772 2010.5,-87 2036.4049,-55.4132 1983.7486,-34.0663 1937.2371,-22.0094"/>
<polygon fill="#191970" stroke="#191970" points="1937.9844,-18.5887 1927.4358,-19.5772 1936.2985,-25.3827 1937.9844,-18.5887"/>
</g>
<!-- Node33&#45;&gt;Node23 -->
<g id="edge51" class="edge">
<title>Node33&#45;&gt;Node23</title>
<path fill="none" stroke="#191970" d="M1825.7008,-132.8151C1888.6968,-126.2217 1972.6468,-112.7802 1993.5,-87 2002.1648,-76.2879 2002.3802,-66.5342 1993.5,-56 1991.8324,-54.0218 1866.6744,-33.1657 1788.0059,-20.2252"/>
<polygon fill="#191970" stroke="#191970" points="1788.1415,-16.7006 1777.7063,-18.5325 1787.0063,-23.6079 1788.1415,-16.7006"/>
</g>
<!-- Node33&#45;&gt;Node29 -->
<g id="edge50" class="edge">
<title>Node33&#45;&gt;Node29</title>
<path fill="none" stroke="#191970" d="M1738.8888,-128.9005C1723.3689,-117.9549 1697.7777,-99.9064 1679.4333,-86.9688"/>
<polygon fill="#191970" stroke="#191970" points="1681.2752,-83.9849 1671.0859,-81.0817 1677.2408,-89.7054 1681.2752,-83.9849"/>
</g>
<!-- Node33&#45;&gt;Node30 -->
<g id="edge52" class="edge">
<title>Node33&#45;&gt;Node30</title>
<path fill="none" stroke="#191970" d="M1753.0561,-128.7831C1753.4827,-111.8649 1751.8911,-76.8191 1733.5,-56 1722.7184,-43.795 1686.1081,-31.1957 1655.1099,-22.276"/>
<polygon fill="#191970" stroke="#191970" points="1655.8566,-18.8503 1645.2826,-19.5145 1653.9628,-25.5893 1655.8566,-18.8503"/>
</g>
<!-- Node34 -->
<g id="node35" class="node">
<title>Node34</title>
<polygon fill="#ffffff" stroke="#bfbfbf" points="1856.5,-62 1856.5,-81 1984.5,-81 1984.5,-62 1856.5,-62"/>
<text text-anchor="middle" x="1920.5" y="-69" font-family="Helvetica,sans-Serif" font-size="10.00" fill="#000000">AMReX_PhysBCFunct.H</text>
</g>
<!-- Node33&#45;&gt;Node34 -->
<g id="edge53" class="edge">
<title>Node33&#45;&gt;Node34</title>
<path fill="none" stroke="#191970" d="M1776.5703,-128.9005C1805.513,-117.3579 1854.2621,-97.9163 1886.9017,-84.8993"/>
<polygon fill="#191970" stroke="#191970" points="1888.4823,-88.0371 1896.4743,-81.0817 1885.8892,-81.5351 1888.4823,-88.0371"/>
</g>
<!-- Node35&#45;&gt;Node3 -->
<g id="edge59" class="edge">
<title>Node35&#45;&gt;Node3</title>
<path fill="none" stroke="#191970" d="M746.7515,-124.5967C743.6275,-124.0429 740.5327,-123.5079 737.5,-123 622.8784,-103.8048 593.0742,-106.4761 478.5,-87 471.3834,-85.7903 463.9175,-84.4181 456.551,-83.0023"/>
<polygon fill="#191970" stroke="#191970" points="457.0957,-79.5426 446.6095,-81.0559 455.7507,-86.4122 457.0957,-79.5426"/>
</g>
<!-- Node35&#45;&gt;Node10 -->
<g id="edge58" class="edge">
<title>Node35&#45;&gt;Node10</title>
<path fill="none" stroke="#191970" d="M826.6366,-123.3474C839.8584,-104.7529 864.7266,-73.5408 893.5,-56 935.2513,-30.5477 991.5417,-18.7519 1025.864,-13.6105"/>
<polygon fill="#191970" stroke="#191970" points="1026.3534,-17.0762 1035.7701,-12.2208 1025.3808,-10.1441 1026.3534,-17.0762"/>
</g>
<!-- Node35&#45;&gt;Node21 -->
<g id="edge67" class="edge">
<title>Node35&#45;&gt;Node21</title>
<path fill="none" stroke="#191970" d="M836.6984,-123.1642C863.9969,-103.4345 914.971,-70.036 964.5,-56 1137.408,-6.9996 1588.4267,-33.0646 1785.6185,-19.9679"/>
<polygon fill="#191970" stroke="#191970" points="1785.9465,-23.4535 1795.6712,-19.2487 1785.4469,-16.4713 1785.9465,-23.4535"/>
</g>
<!-- Node35&#45;&gt;Node28 -->
<g id="edge68" class="edge">
<title>Node35&#45;&gt;Node28</title>
<path fill="none" stroke="#191970" d="M866.0967,-123.4639C905.2984,-111.5792 959.3723,-95.1858 996.2332,-84.0108"/>
<polygon fill="#191970" stroke="#191970" points="997.5923,-87.2561 1006.1467,-81.0053 995.5614,-80.5572 997.5923,-87.2561"/>
</g>
<!-- Node36 -->
<g id="node37" class="node">
<title>Node36</title>
<g id="a_node37"><a xlink:href="_coll_mgr_8_h.html" target="_top" xlink:title="amr&#45;wind/core/CollMgr.H">
<polygon fill="#ffffff" stroke="#000000" points="521,-62 521,-81 646,-81 646,-62 521,-62"/>
<text text-anchor="middle" x="583.5" y="-69" font-family="Helvetica,sans-Serif" font-size="10.00" fill="#000000">amr&#45;wind/core/CollMgr.H</text>
</a>
</g>
</g>
<!-- Node35&#45;&gt;Node36 -->
<g id="edge60" class="edge">
<title>Node35&#45;&gt;Node36</title>
<path fill="none" stroke="#191970" d="M764.2103,-123.4639C722.7034,-111.5284 665.3824,-95.0456 626.5103,-83.8678"/>
<polygon fill="#191970" stroke="#191970" points="627.1335,-80.4052 616.5557,-81.0053 625.199,-87.1326 627.1335,-80.4052"/>
</g>
<!-- Node37 -->
<g id="node38" class="node">
<title>Node37</title>
<g id="a_node38"><a xlink:href="_p_d_e_fields_8_h.html" target="_top" xlink:title="amr&#45;wind/equation_systems\l/PDEFields.H">
<polygon fill="#ffffff" stroke="#000000" points="664,-56.5 664,-86.5 803,-86.5 803,-56.5 664,-56.5"/>
<text text-anchor="start" x="672" y="-74.5" font-family="Helvetica,sans-Serif" font-size="10.00" fill="#000000">amr&#45;wind/equation_systems</text>
<text text-anchor="middle" x="733.5" y="-63.5" font-family="Helvetica,sans-Serif" font-size="10.00" fill="#000000">/PDEFields.H</text>
</a>
</g>
</g>
<!-- Node35&#45;&gt;Node37 -->
<g id="edge65" class="edge">
<title>Node35&#45;&gt;Node37</title>
<path fill="none" stroke="#191970" d="M797.666,-123.2967C786.6295,-114.3876 772.5078,-102.9882 760.3235,-93.1527"/>
<polygon fill="#191970" stroke="#191970" points="762.2391,-90.201 752.2595,-86.6432 757.8422,-95.6478 762.2391,-90.201"/>
</g>
<!-- Node36&#45;&gt;Node4 -->
<g id="edge62" class="edge">
<title>Node36&#45;&gt;Node4</title>
<path fill="none" stroke="#191970" d="M587.25,-61.8906C590.6468,-53.1862 595.7531,-40.1015 599.988,-29.2494"/>
<polygon fill="#191970" stroke="#191970" points="603.3222,-30.3331 603.6971,-19.7449 596.8011,-27.7882 603.3222,-30.3331"/>
</g>
<!-- Node36&#45;&gt;Node5 -->
<g id="edge63" class="edge">
<title>Node36&#45;&gt;Node5</title>
<path fill="none" stroke="#191970" d="M573.8125,-61.8906C564.4041,-52.5581 549.9193,-38.1902 538.5751,-26.9374"/>
<polygon fill="#191970" stroke="#191970" points="540.8886,-24.3024 531.3241,-19.7449 535.9589,-29.2722 540.8886,-24.3024"/>
</g>
<!-- Node36&#45;&gt;Node10 -->
<g id="edge61" class="edge">
<title>Node36&#45;&gt;Node10</title>
<path fill="none" stroke="#191970" d="M623.9137,-61.9378C633.8752,-59.7855 644.5428,-57.6522 654.5,-56 792.0264,-33.1798 957.9091,-18.0969 1025.539,-12.469"/>
<polygon fill="#191970" stroke="#191970" points="1026.219,-15.925 1035.8985,-11.6172 1025.6453,-8.9485 1026.219,-15.925"/>
</g>
<!-- Node36&#45;&gt;Node30 -->
<g id="edge64" class="edge">
<title>Node36&#45;&gt;Node30</title>
<path fill="none" stroke="#191970" d="M621.6153,-61.9558C632.2013,-59.64 643.7434,-57.4236 654.5,-56 828.989,-32.9065 1370.5243,-16.4545 1549.4571,-11.5318"/>
<polygon fill="#191970" stroke="#191970" points="1549.8124,-15.0235 1559.7129,-11.2514 1549.621,-8.0261 1549.8124,-15.0235"/>
</g>
<!-- Node38 -->
<g id="node39" class="node">
<title>Node38</title>
<polygon fill="#ffffff" stroke="#bfbfbf" points="711,-.5 711,-19.5 756,-19.5 756,-.5 711,-.5"/>
<text text-anchor="middle" x="733.5" y="-7.5" font-family="Helvetica,sans-Serif" font-size="10.00" fill="#000000">iosfwd</text>
</g>
<!-- Node37&#45;&gt;Node38 -->
<g id="edge66" class="edge">
<title>Node37&#45;&gt;Node38</title>
<path fill="none" stroke="#191970" d="M733.5,-56.2977C733.5,-48.3834 733.5,-38.6043 733.5,-30.0759"/>
<polygon fill="#191970" stroke="#191970" points="737.0001,-29.8469 733.5,-19.8469 730.0001,-29.847 737.0001,-29.8469"/>
</g>
<!-- Node39&#45;&gt;Node3 -->
<g id="edge70" class="edge">
<title>Node39&#45;&gt;Node3</title>
<path fill="none" stroke="#191970" d="M298.6931,-128.9005C318.7427,-117.7062 352.0988,-99.0823 375.3602,-86.0947"/>
<polygon fill="#191970" stroke="#191970" points="377.3138,-89.0126 384.3388,-81.0817 373.9013,-82.9007 377.3138,-89.0126"/>
</g>
<!-- Node39&#45;&gt;Node23 -->
<g id="edge72" class="edge">
<title>Node39&#45;&gt;Node23</title>
<path fill="none" stroke="#191970" d="M321.8745,-128.9445C332.4425,-126.7138 343.8576,-124.5423 354.5,-123 556.134,-93.7794 612.6715,-131.4675 811.5,-87 849.5225,-78.4964 855.3465,-63.8951 893.5,-56 1226.1428,12.8337 1321.4767,-54.467 1663.1298,-20.013"/>
<polygon fill="#191970" stroke="#191970" points="1663.7218,-23.4706 1673.3102,-18.9637 1663.004,-16.5075 1663.7218,-23.4706"/>
</g>
<!-- Node39&#45;&gt;Node36 -->
<g id="edge71" class="edge">
<title>Node39&#45;&gt;Node36</title>
<path fill="none" stroke="#191970" d="M324.4485,-128.9717C378.6353,-116.9501 471.8062,-96.2797 530.4025,-83.2799"/>
<polygon fill="#191970" stroke="#191970" points="531.2061,-86.6868 540.2107,-81.1039 529.69,-79.853 531.2061,-86.6868"/>
</g>
<!-- Node40 -->
<g id="node41" class="node">
<title>Node40</title>
<polygon fill="#ffffff" stroke="#bfbfbf" points="210.5,-62 210.5,-81 320.5,-81 320.5,-62 210.5,-62"/>
<text text-anchor="middle" x="265.5" y="-69" font-family="Helvetica,sans-Serif" font-size="10.00" fill="#000000">AMReX_Geometry.H</text>
</g>
<!-- Node39&#45;&gt;Node40 -->
<g id="edge73" class="edge">
<title>Node39&#45;&gt;Node40</title>
<path fill="none" stroke="#191970" d="M279.2076,-128.9005C276.8551,-119.0495 273.1287,-103.4451 270.1546,-90.9912"/>
<polygon fill="#191970" stroke="#191970" points="273.5153,-89.9952 267.7882,-81.0817 266.7067,-91.6212 273.5153,-89.9952"/>
</g>
<!-- Node41&#45;&gt;Node27 -->
<g id="edge75" class="edge">
<title>Node41&#45;&gt;Node27</title>
<path fill="none" stroke="#191970" d="M1907.585,-200.115C1950.0035,-193.6702 2014.3231,-180.2735 2064.5,-154 2096.6973,-137.141 2127.1707,-107.3485 2144.5611,-88.555"/>
<polygon fill="#191970" stroke="#191970" points="2147.2719,-90.7757 2151.3852,-81.0119 2142.0809,-86.0795 2147.2719,-90.7757"/>
</g>
</g>
</svg>
