<?xml version="1.0" encoding="UTF-8" standalone="no"?>
<!DOCTYPE svg PUBLIC "-//W3C//DTD SVG 1.1//EN"
 "http://www.w3.org/Graphics/SVG/1.1/DTD/svg11.dtd">
<!-- Generated by graphviz version 2.40.1 (20161225.0304)
 -->
<!-- Title: LinearProfile.cpp Pages: 1 -->
<svg width="1572pt" height="263pt"
 viewBox="0.00 0.00 1571.50 263.00" xmlns="http://www.w3.org/2000/svg" xmlns:xlink="http://www.w3.org/1999/xlink">
<g id="graph0" class="graph" transform="scale(1 1) rotate(0) translate(4 259)">
<title>LinearProfile.cpp</title>
<polygon fill="#ffffff" stroke="transparent" points="-4,4 -4,-259 1567.5,-259 1567.5,4 -4,4"/>
<!-- Node0 -->
<g id="node1" class="node">
<title>Node0</title>
<polygon fill="#bfbfbf" stroke="#000000" points="831,-235.5 831,-254.5 920,-254.5 920,-235.5 831,-235.5"/>
<text text-anchor="middle" x="875.5" y="-242.5" font-family="Helvetica,sans-Serif" font-size="10.00" fill="#000000">LinearProfile.cpp</text>
</g>
<!-- Node1 -->
<g id="node2" class="node">
<title>Node1</title>
<g id="a_node2"><a xlink:href="_linear_profile_8_h.html" target="_top" xlink:title="amr&#45;wind/physics/udfs\l/LinearProfile.H">
<polygon fill="#ffffff" stroke="#000000" points="274,-168.5 274,-198.5 389,-198.5 389,-168.5 274,-168.5"/>
<text text-anchor="start" x="282" y="-186.5" font-family="Helvetica,sans-Serif" font-size="10.00" fill="#000000">amr&#45;wind/physics/udfs</text>
<text text-anchor="middle" x="331.5" y="-175.5" font-family="Helvetica,sans-Serif" font-size="10.00" fill="#000000">/LinearProfile.H</text>
</a>
</g>
</g>
<!-- Node0&#45;&gt;Node1 -->
<g id="edge1" class="edge">
<title>Node0&#45;&gt;Node1</title>
<path fill="none" stroke="#191970" d="M830.9822,-239.9672C735.8746,-229.2151 512.3538,-203.9458 399.3895,-191.175"/>
<polygon fill="#191970" stroke="#191970" points="399.4702,-187.6619 389.1403,-190.0163 398.6838,-194.6176 399.4702,-187.6619"/>
</g>
<!-- Node4 -->
<g id="node5" class="node">
<title>Node4</title>
<g id="a_node5"><a xlink:href="_field_8_h.html" target="_top" xlink:title="amr&#45;wind/core/Field.H">
<polygon fill="#ffffff" stroke="#000000" points="360,-112.5 360,-131.5 473,-131.5 473,-112.5 360,-112.5"/>
<text text-anchor="middle" x="416.5" y="-119.5" font-family="Helvetica,sans-Serif" font-size="10.00" fill="#000000">amr&#45;wind/core/Field.H</text>
</a>
</g>
</g>
<!-- Node0&#45;&gt;Node4 -->
<g id="edge4" class="edge">
<title>Node0&#45;&gt;Node4</title>
<path fill="none" stroke="#191970" d="M839.865,-235.4507C757.3365,-213.3353 553.1883,-158.6289 461.8916,-134.1638"/>
<polygon fill="#191970" stroke="#191970" points="462.6775,-130.7509 452.1123,-131.5432 460.8656,-137.5124 462.6775,-130.7509"/>
</g>
<!-- Node14 -->
<g id="node15" class="node">
<title>Node14</title>
<g id="a_node15"><a xlink:href="_field_repo_8_h.html" target="_top" xlink:title="amr&#45;wind/core/FieldRepo.H">
<polygon fill="#ffffff" stroke="#000000" points="1006.5,-174 1006.5,-193 1142.5,-193 1142.5,-174 1006.5,-174"/>
<text text-anchor="middle" x="1074.5" y="-181" font-family="Helvetica,sans-Serif" font-size="10.00" fill="#000000">amr&#45;wind/core/FieldRepo.H</text>
</a>
</g>
</g>
<!-- Node0&#45;&gt;Node14 -->
<g id="edge18" class="edge">
<title>Node0&#45;&gt;Node14</title>
<path fill="none" stroke="#191970" d="M906.5938,-235.3906C940.9124,-224.7846 996.2743,-207.6753 1033.9698,-196.0257"/>
<polygon fill="#191970" stroke="#191970" points="1035.1039,-199.3386 1043.6246,-193.0419 1033.037,-192.6507 1035.1039,-199.3386"/>
</g>
<!-- Node22 -->
<g id="node23" class="node">
<title>Node22</title>
<polygon fill="#ffffff" stroke="#bfbfbf" points="1160.5,-174 1160.5,-193 1276.5,-193 1276.5,-174 1160.5,-174"/>
<text text-anchor="middle" x="1218.5" y="-181" font-family="Helvetica,sans-Serif" font-size="10.00" fill="#000000">AMReX_ParmParse.H</text>
</g>
<!-- Node0&#45;&gt;Node22 -->
<g id="edge41" class="edge">
<title>Node0&#45;&gt;Node22</title>
<path fill="none" stroke="#191970" d="M920.111,-238.4385C974.8103,-230.1922 1070.2649,-215.1499 1151.5,-199 1157.2763,-197.8516 1163.3142,-196.5703 1169.2984,-195.25"/>
<polygon fill="#191970" stroke="#191970" points="1170.2754,-198.6177 1179.263,-193.0075 1168.7385,-191.7885 1170.2754,-198.6177"/>
</g>
<!-- Node2 -->
<g id="node3" class="node">
<title>Node2</title>
<polygon fill="#ffffff" stroke="#bfbfbf" points="193.5,-112.5 193.5,-131.5 303.5,-131.5 303.5,-112.5 193.5,-112.5"/>
<text text-anchor="middle" x="248.5" y="-119.5" font-family="Helvetica,sans-Serif" font-size="10.00" fill="#000000">AMReX_Geometry.H</text>
</g>
<!-- Node1&#45;&gt;Node2 -->
<g id="edge2" class="edge">
<title>Node1&#45;&gt;Node2</title>
<path fill="none" stroke="#191970" d="M310.9831,-168.2977C298.5018,-159.0495 282.5841,-147.2551 269.9386,-137.8853"/>
<polygon fill="#191970" stroke="#191970" points="271.9078,-134.9882 261.7894,-131.8469 267.7404,-140.6126 271.9078,-134.9882"/>
</g>
<!-- Node3 -->
<g id="node4" class="node">
<title>Node3</title>
<polygon fill="#ffffff" stroke="#bfbfbf" points="0,-56.5 0,-75.5 85,-75.5 85,-56.5 0,-56.5"/>
<text text-anchor="middle" x="42.5" y="-63.5" font-family="Helvetica,sans-Serif" font-size="10.00" fill="#000000">AMReX_Gpu.H</text>
</g>
<!-- Node1&#45;&gt;Node3 -->
<g id="edge3" class="edge">
<title>Node1&#45;&gt;Node3</title>
<path fill="none" stroke="#191970" d="M331.9374,-168.2356C331.5201,-151.8608 328.1514,-126.2885 312.5,-112 304.5075,-104.7035 171.3046,-84.5169 95.0413,-73.4668"/>
<polygon fill="#191970" stroke="#191970" points="95.5276,-70.0008 85.13,-72.0357 94.5271,-76.929 95.5276,-70.0008"/>
</g>
<!-- Node4&#45;&gt;Node3 -->
<g id="edge10" class="edge">
<title>Node4&#45;&gt;Node3</title>
<path fill="none" stroke="#191970" d="M359.758,-113.9721C282.5371,-103.0111 148.3705,-83.8309 99.5,-76 98.0429,-75.7665 96.5654,-75.5269 95.0747,-75.2827"/>
<polygon fill="#191970" stroke="#191970" points="95.5587,-71.8151 85.1185,-73.6186 94.4047,-78.7193 95.5587,-71.8151"/>
</g>
<!-- Node5 -->
<g id="node6" class="node">
<title>Node5</title>
<polygon fill="#ffffff" stroke="#bfbfbf" points="807,-.5 807,-19.5 848,-19.5 848,-.5 807,-.5"/>
<text text-anchor="middle" x="827.5" y="-7.5" font-family="Helvetica,sans-Serif" font-size="10.00" fill="#000000">string</text>
</g>
<!-- Node4&#45;&gt;Node5 -->
<g id="edge5" class="edge">
<title>Node4&#45;&gt;Node5</title>
<path fill="none" stroke="#191970" d="M436.4951,-112.4417C466.935,-98.2403 527.0167,-71.5745 580.5,-56 620.7293,-44.2851 739.6861,-24.2465 796.5496,-14.9752"/>
<polygon fill="#191970" stroke="#191970" points="797.4227,-18.3793 806.7325,-13.3219 796.3009,-11.4698 797.4227,-18.3793"/>
</g>
<!-- Node6 -->
<g id="node7" class="node">
<title>Node6</title>
<polygon fill="#ffffff" stroke="#bfbfbf" points="405.5,-56.5 405.5,-75.5 457.5,-75.5 457.5,-56.5 405.5,-56.5"/>
<text text-anchor="middle" x="431.5" y="-63.5" font-family="Helvetica,sans-Serif" font-size="10.00" fill="#000000">memory</text>
</g>
<!-- Node4&#45;&gt;Node6 -->
<g id="edge6" class="edge">
<title>Node4&#45;&gt;Node6</title>
<path fill="none" stroke="#191970" d="M419.1128,-112.2455C421.0916,-104.8579 423.8744,-94.4689 426.3012,-85.4087"/>
<polygon fill="#191970" stroke="#191970" points="429.7105,-86.2078 428.9171,-75.6427 422.9489,-84.3966 429.7105,-86.2078"/>
</g>
<!-- Node7 -->
<g id="node8" class="node">
<title>Node7</title>
<polygon fill="#ffffff" stroke="#bfbfbf" points="1002,-56.5 1002,-75.5 1085,-75.5 1085,-56.5 1002,-56.5"/>
<text text-anchor="middle" x="1043.5" y="-63.5" font-family="Helvetica,sans-Serif" font-size="10.00" fill="#000000">unordered_map</text>
</g>
<!-- Node4&#45;&gt;Node7 -->
<g id="edge7" class="edge">
<title>Node4&#45;&gt;Node7</title>
<path fill="none" stroke="#191970" d="M473.1444,-119.62C574.9431,-114.8749 795.6881,-102.4563 991.9007,-75.9303"/>
<polygon fill="#191970" stroke="#191970" points="992.3825,-79.3971 1001.8163,-74.5748 991.4343,-72.4616 992.3825,-79.3971"/>
</g>
<!-- Node8 -->
<g id="node9" class="node">
<title>Node8</title>
<polygon fill="#ffffff" stroke="#bfbfbf" points="471.5,-.5 471.5,-19.5 575.5,-19.5 575.5,-.5 471.5,-.5"/>
<text text-anchor="middle" x="523.5" y="-7.5" font-family="Helvetica,sans-Serif" font-size="10.00" fill="#000000">AMReX_MultiFab.H</text>
</g>
<!-- Node4&#45;&gt;Node8 -->
<g id="edge8" class="edge">
<title>Node4&#45;&gt;Node8</title>
<path fill="none" stroke="#191970" d="M359.9514,-113.7758C278.1716,-101.7513 136.1823,-80.3268 132.5,-76 126.739,-69.2308 126.5932,-62.6424 132.5,-56 153.9285,-31.9027 356.2418,-18.3357 461.1091,-12.8687"/>
<polygon fill="#191970" stroke="#191970" points="461.4429,-16.3563 471.2508,-12.3494 461.0848,-9.3655 461.4429,-16.3563"/>
</g>
<!-- Node9 -->
<g id="node10" class="node">
<title>Node9</title>
<polygon fill="#ffffff" stroke="#bfbfbf" points="142,-56.5 142,-75.5 241,-75.5 241,-56.5 142,-56.5"/>
<text text-anchor="middle" x="191.5" y="-63.5" font-family="Helvetica,sans-Serif" font-size="10.00" fill="#000000">AMReX_BCRec.H</text>
</g>
<!-- Node4&#45;&gt;Node9 -->
<g id="edge9" class="edge">
<title>Node4&#45;&gt;Node9</title>
<path fill="none" stroke="#191970" d="M378.0768,-112.4369C339.8125,-102.9133 280.9663,-88.2672 239.6151,-77.9753"/>
<polygon fill="#191970" stroke="#191970" points="240.3141,-74.5426 229.7647,-75.5237 238.6234,-81.3353 240.3141,-74.5426"/>
</g>
<!-- Node10 -->
<g id="node11" class="node">
<title>Node10</title>
<g id="a_node11"><a xlink:href="incflo__enums_8_h.html" target="_top" xlink:title="amr&#45;wind/incflo_enums.H">
<polygon fill="#ffffff" stroke="#000000" points="259.5,-56.5 259.5,-75.5 387.5,-75.5 387.5,-56.5 259.5,-56.5"/>
<text text-anchor="middle" x="323.5" y="-63.5" font-family="Helvetica,sans-Serif" font-size="10.00" fill="#000000">amr&#45;wind/incflo_enums.H</text>
</a>
</g>
</g>
<!-- Node4&#45;&gt;Node10 -->
<g id="edge11" class="edge">
<title>Node4&#45;&gt;Node10</title>
<path fill="none" stroke="#191970" d="M400.3006,-112.2455C385.8982,-103.5731 364.6268,-90.7645 348.1201,-80.825"/>
<polygon fill="#191970" stroke="#191970" points="349.886,-77.8028 339.5137,-75.6427 346.275,-83.7996 349.886,-77.8028"/>
</g>
<!-- Node11 -->
<g id="node12" class="node">
<title>Node11</title>
<g id="a_node12"><a xlink:href="_field_desc_types_8_h.html" target="_top" xlink:title="amr&#45;wind/core/FieldDescTypes.H">
<polygon fill="#ffffff" stroke="#000000" points="1133,-.5 1133,-19.5 1296,-19.5 1296,-.5 1133,-.5"/>
<text text-anchor="middle" x="1214.5" y="-7.5" font-family="Helvetica,sans-Serif" font-size="10.00" fill="#000000">amr&#45;wind/core/FieldDescTypes.H</text>
</a>
</g>
</g>
<!-- Node4&#45;&gt;Node11 -->
<g id="edge12" class="edge">
<title>Node4&#45;&gt;Node11</title>
<path fill="none" stroke="#191970" d="M473.0878,-114.2686C536.3782,-105.5037 641.9069,-90.5374 732.5,-76 783.2907,-67.8497 795.6296,-63.637 846.5,-56 940.3029,-41.9177 1048.0137,-28.8097 1122.5607,-20.2181"/>
<polygon fill="#191970" stroke="#191970" points="1123.3192,-23.6541 1132.8546,-19.0361 1122.5206,-16.6998 1123.3192,-23.6541"/>
</g>
<!-- Node12 -->
<g id="node13" class="node">
<title>Node12</title>
<g id="a_node13"><a xlink:href="_view_field_8_h.html" target="_top" xlink:title="amr&#45;wind/core/ViewField.H">
<polygon fill="#ffffff" stroke="#000000" points="589.5,-56.5 589.5,-75.5 723.5,-75.5 723.5,-56.5 589.5,-56.5"/>
<text text-anchor="middle" x="656.5" y="-63.5" font-family="Helvetica,sans-Serif" font-size="10.00" fill="#000000">amr&#45;wind/core/ViewField.H</text>
</a>
</g>
</g>
<!-- Node4&#45;&gt;Node12 -->
<g id="edge13" class="edge">
<title>Node4&#45;&gt;Node12</title>
<path fill="none" stroke="#191970" d="M457.4848,-112.4369C498.4726,-102.8731 561.6004,-88.1432 605.7357,-77.845"/>
<polygon fill="#191970" stroke="#191970" points="606.7412,-81.2045 615.6843,-75.5237 605.1505,-74.3876 606.7412,-81.2045"/>
</g>
<!-- Node12&#45;&gt;Node5 -->
<g id="edge14" class="edge">
<title>Node12&#45;&gt;Node5</title>
<path fill="none" stroke="#191970" d="M685.8959,-56.3733C716.9156,-46.2148 765.5751,-30.2795 797.0042,-19.9869"/>
<polygon fill="#191970" stroke="#191970" points="798.1447,-23.2964 806.5588,-16.8579 795.9661,-16.644 798.1447,-23.2964"/>
</g>
<!-- Node12&#45;&gt;Node8 -->
<g id="edge16" class="edge">
<title>Node12&#45;&gt;Node8</title>
<path fill="none" stroke="#191970" d="M633.6365,-56.3733C612.095,-47.3032 579.6162,-33.6279 555.5044,-23.4755"/>
<polygon fill="#191970" stroke="#191970" points="556.6397,-20.156 546.0652,-19.5011 553.9233,-26.6075 556.6397,-20.156"/>
</g>
<!-- Node12&#45;&gt;Node11 -->
<g id="edge15" class="edge">
<title>Node12&#45;&gt;Node11</title>
<path fill="none" stroke="#191970" d="M723.5305,-59.2729C823.1767,-49.2726 1010.6576,-30.4573 1122.8943,-19.1934"/>
<polygon fill="#191970" stroke="#191970" points="1123.246,-22.6758 1132.8465,-18.1946 1122.547,-15.7108 1123.246,-22.6758"/>
</g>
<!-- Node13 -->
<g id="node14" class="node">
<title>Node13</title>
<polygon fill="#ffffff" stroke="#bfbfbf" points="651,-.5 651,-19.5 746,-19.5 746,-.5 651,-.5"/>
<text text-anchor="middle" x="698.5" y="-7.5" font-family="Helvetica,sans-Serif" font-size="10.00" fill="#000000">AMReX_Vector.H</text>
</g>
<!-- Node12&#45;&gt;Node13 -->
<g id="edge17" class="edge">
<title>Node12&#45;&gt;Node13</title>
<path fill="none" stroke="#191970" d="M663.8158,-56.2455C669.7179,-48.3761 678.1742,-37.101 685.2594,-27.6542"/>
<polygon fill="#191970" stroke="#191970" points="688.068,-29.7427 691.268,-19.6427 682.4679,-25.5427 688.068,-29.7427"/>
</g>
<!-- Node14&#45;&gt;Node4 -->
<g id="edge26" class="edge">
<title>Node14&#45;&gt;Node4</title>
<path fill="none" stroke="#191970" d="M1006.1476,-178.6716C896.5447,-170.6665 674.7725,-153.3884 487.5,-132 486.0313,-131.8323 484.5462,-131.6586 483.0492,-131.4798"/>
<polygon fill="#191970" stroke="#191970" points="483.4025,-127.9969 473.0472,-130.2367 482.5391,-134.9435 483.4025,-127.9969"/>
</g>
<!-- Node14&#45;&gt;Node5 -->
<g id="edge19" class="edge">
<title>Node14&#45;&gt;Node5</title>
<path fill="none" stroke="#191970" d="M1119.5189,-173.9752C1184.622,-160.0985 1297.6453,-135.5784 1300.5,-132 1318.8984,-108.9375 1292.8871,-69.1083 1274.5,-56 1240.6672,-31.8803 953.5824,-16.0482 858.1814,-11.4138"/>
<polygon fill="#191970" stroke="#191970" points="858.1868,-7.9101 848.0309,-10.928 857.8521,-14.9021 858.1868,-7.9101"/>
</g>
<!-- Node14&#45;&gt;Node7 -->
<g id="edge20" class="edge">
<title>Node14&#45;&gt;Node7</title>
<path fill="none" stroke="#191970" d="M1071.9631,-173.8845C1066.8767,-154.6053 1055.345,-110.8963 1048.6247,-85.4241"/>
<polygon fill="#191970" stroke="#191970" points="1052.0072,-84.5246 1046.0719,-75.7484 1045.2388,-86.3104 1052.0072,-84.5246"/>
</g>
<!-- Node14&#45;&gt;Node8 -->
<g id="edge39" class="edge">
<title>Node14&#45;&gt;Node8</title>
<path fill="none" stroke="#191970" d="M1006.1476,-177.6366C880.7426,-165.5808 620.5949,-134.136 553.5,-76 539.7041,-64.0462 531.9111,-44.4537 527.7472,-29.7143"/>
<polygon fill="#191970" stroke="#191970" points="531.0409,-28.4557 525.2312,-19.5958 524.2478,-30.1449 531.0409,-28.4557"/>
</g>
<!-- Node14&#45;&gt;Node11 -->
<g id="edge21" class="edge">
<title>Node14&#45;&gt;Node11</title>
<path fill="none" stroke="#191970" d="M1120.4611,-173.9861C1130.6678,-171.9464 1141.4416,-169.85 1151.5,-168 1199.3593,-159.1973 1336.046,-169.1302 1367.5,-132 1389.3331,-106.2269 1387.6549,-83.1057 1367.5,-56 1356.6078,-41.3513 1316.469,-29.6056 1280.0381,-21.6502"/>
<polygon fill="#191970" stroke="#191970" points="1280.3957,-18.1486 1269.8884,-19.5076 1278.9498,-24.9977 1280.3957,-18.1486"/>
</g>
<!-- Node15 -->
<g id="node16" class="node">
<title>Node15</title>
<g id="a_node16"><a xlink:href="_field_utils_8_h.html" target="_top" xlink:title="amr&#45;wind/core/FieldUtils.H">
<polygon fill="#ffffff" stroke="#000000" points="1420,-56.5 1420,-75.5 1553,-75.5 1553,-56.5 1420,-56.5"/>
<text text-anchor="middle" x="1486.5" y="-63.5" font-family="Helvetica,sans-Serif" font-size="10.00" fill="#000000">amr&#45;wind/core/FieldUtils.H</text>
</a>
</g>
</g>
<!-- Node14&#45;&gt;Node15 -->
<g id="edge22" class="edge">
<title>Node14&#45;&gt;Node15</title>
<path fill="none" stroke="#191970" d="M1119.613,-173.9645C1130.0614,-171.8824 1141.151,-169.7735 1151.5,-168 1263.8789,-148.7419 1301.0351,-177.6836 1405.5,-132 1431.5414,-120.6118 1456.049,-98.4394 1471.1448,-82.9501"/>
<polygon fill="#191970" stroke="#191970" points="1473.8126,-85.223 1478.1393,-75.5519 1468.726,-80.414 1473.8126,-85.223"/>
</g>
<!-- Node17 -->
<g id="node18" class="node">
<title>Node17</title>
<g id="a_node18"><a xlink:href="_int_field_8_h.html" target="_top" xlink:title="amr&#45;wind/core/IntField.H">
<polygon fill="#ffffff" stroke="#000000" points="1167.5,-112.5 1167.5,-131.5 1291.5,-131.5 1291.5,-112.5 1167.5,-112.5"/>
<text text-anchor="middle" x="1229.5" y="-119.5" font-family="Helvetica,sans-Serif" font-size="10.00" fill="#000000">amr&#45;wind/core/IntField.H</text>
</a>
</g>
</g>
<!-- Node14&#45;&gt;Node17 -->
<g id="edge27" class="edge">
<title>Node14&#45;&gt;Node17</title>
<path fill="none" stroke="#191970" d="M1098.7188,-173.8906C1124.8806,-163.5103 1166.7429,-146.9004 1196.0388,-135.2766"/>
<polygon fill="#191970" stroke="#191970" points="1197.4471,-138.4833 1205.4513,-131.5419 1194.8654,-131.9767 1197.4471,-138.4833"/>
</g>
<!-- Node18 -->
<g id="node19" class="node">
<title>Node18</title>
<polygon fill="#ffffff" stroke="#bfbfbf" points="1142,-56.5 1142,-75.5 1249,-75.5 1249,-56.5 1142,-56.5"/>
<text text-anchor="middle" x="1195.5" y="-63.5" font-family="Helvetica,sans-Serif" font-size="10.00" fill="#000000">AMReX_iMultiFab.H</text>
</g>
<!-- Node14&#45;&gt;Node18 -->
<g id="edge40" class="edge">
<title>Node14&#45;&gt;Node18</title>
<path fill="none" stroke="#191970" d="M1084.4019,-173.8845C1104.9645,-153.9167 1152.5135,-107.743 1178.2339,-82.7667"/>
<polygon fill="#191970" stroke="#191970" points="1180.7255,-85.2259 1185.4612,-75.7484 1175.8488,-80.204 1180.7255,-85.2259"/>
</g>
<!-- Node19 -->
<g id="node20" class="node">
<title>Node19</title>
<g id="a_node20"><a xlink:href="_scratch_field_8_h.html" target="_top" xlink:title="amr&#45;wind/core/ScratchField.H">
<polygon fill="#ffffff" stroke="#000000" points="754.5,-112.5 754.5,-131.5 900.5,-131.5 900.5,-112.5 754.5,-112.5"/>
<text text-anchor="middle" x="827.5" y="-119.5" font-family="Helvetica,sans-Serif" font-size="10.00" fill="#000000">amr&#45;wind/core/ScratchField.H</text>
</a>
</g>
</g>
<!-- Node14&#45;&gt;Node19 -->
<g id="edge31" class="edge">
<title>Node14&#45;&gt;Node19</title>
<path fill="none" stroke="#191970" d="M1036.1773,-173.9581C993.003,-163.2082 922.7505,-145.7162 875.8416,-134.0365"/>
<polygon fill="#191970" stroke="#191970" points="876.462,-130.5842 865.9126,-131.5643 874.7707,-137.3768 876.462,-130.5842"/>
</g>
<!-- Node21 -->
<g id="node22" class="node">
<title>Node21</title>
<polygon fill="#ffffff" stroke="#bfbfbf" points="1457.5,-112.5 1457.5,-131.5 1563.5,-131.5 1563.5,-112.5 1457.5,-112.5"/>
<text text-anchor="middle" x="1510.5" y="-119.5" font-family="Helvetica,sans-Serif" font-size="10.00" fill="#000000">AMReX_AmrCore.H</text>
</g>
<!-- Node14&#45;&gt;Node21 -->
<g id="edge38" class="edge">
<title>Node14&#45;&gt;Node21</title>
<path fill="none" stroke="#191970" d="M1118.7772,-173.9886C1129.4626,-171.859 1140.8661,-169.7233 1151.5,-168 1280.5765,-147.0828 1313.9367,-149.6528 1443.5,-132 1444.7782,-131.8258 1446.0699,-131.6483 1447.3715,-131.4679"/>
<polygon fill="#191970" stroke="#191970" points="1448.0751,-134.9033 1457.4876,-130.0397 1447.0965,-127.9721 1448.0751,-134.9033"/>
</g>
<!-- Node15&#45;&gt;Node8 -->
<g id="edge24" class="edge">
<title>Node15&#45;&gt;Node8</title>
<path fill="none" stroke="#191970" d="M1419.9886,-63.0407C1277.4171,-56.5507 931.8124,-40.0357 642.5,-20 624.0016,-18.7189 603.904,-17.1124 585.5823,-15.5642"/>
<polygon fill="#191970" stroke="#191970" points="585.8693,-12.0761 575.6078,-14.7126 585.2737,-19.0507 585.8693,-12.0761"/>
</g>
<!-- Node15&#45;&gt;Node11 -->
<g id="edge23" class="edge">
<title>Node15&#45;&gt;Node11</title>
<path fill="none" stroke="#191970" d="M1440.0506,-56.4369C1393.2065,-46.7925 1320.8461,-31.8948 1270.7738,-21.5858"/>
<polygon fill="#191970" stroke="#191970" points="1271.2582,-18.1122 1260.7578,-19.5237 1269.8466,-24.9684 1271.2582,-18.1122"/>
</g>
<!-- Node16 -->
<g id="node17" class="node">
<title>Node16</title>
<polygon fill="#ffffff" stroke="#bfbfbf" points="1428.5,-.5 1428.5,-19.5 1544.5,-19.5 1544.5,-.5 1428.5,-.5"/>
<text text-anchor="middle" x="1486.5" y="-7.5" font-family="Helvetica,sans-Serif" font-size="10.00" fill="#000000">AMReX_Interpolater.H</text>
</g>
<!-- Node15&#45;&gt;Node16 -->
<g id="edge25" class="edge">
<title>Node15&#45;&gt;Node16</title>
<path fill="none" stroke="#191970" d="M1486.5,-56.2455C1486.5,-48.9382 1486.5,-38.6944 1486.5,-29.7046"/>
<polygon fill="#191970" stroke="#191970" points="1490.0001,-29.6426 1486.5,-19.6427 1483.0001,-29.6427 1490.0001,-29.6426"/>
</g>
<!-- Node17&#45;&gt;Node5 -->
<g id="edge28" class="edge">
<title>Node17&#45;&gt;Node5</title>
<path fill="none" stroke="#191970" d="M1239.6323,-112.4329C1253.1052,-98.577 1273.5609,-72.7538 1258.5,-56 1231.7665,-26.2615 952.2927,-14.1943 858.212,-10.9552"/>
<polygon fill="#191970" stroke="#191970" points="858.2972,-7.4562 848.1857,-10.6196 858.0629,-14.4523 858.2972,-7.4562"/>
</g>
<!-- Node17&#45;&gt;Node11 -->
<g id="edge29" class="edge">
<title>Node17&#45;&gt;Node11</title>
<path fill="none" stroke="#191970" d="M1250.6581,-112.3196C1273.3924,-100.4692 1304.6125,-79.1076 1291.5,-56 1283.2414,-41.4463 1268.3484,-31.0054 1253.8459,-23.7891"/>
<polygon fill="#191970" stroke="#191970" points="1254.9966,-20.4671 1244.4458,-19.5017 1252.0917,-26.8359 1254.9966,-20.4671"/>
</g>
<!-- Node17&#45;&gt;Node18 -->
<g id="edge30" class="edge">
<title>Node17&#45;&gt;Node18</title>
<path fill="none" stroke="#191970" d="M1223.5777,-112.2455C1218.8973,-104.5367 1212.2327,-93.5598 1206.5711,-84.2348"/>
<polygon fill="#191970" stroke="#191970" points="1209.5361,-82.3741 1201.3545,-75.6427 1203.5525,-86.007 1209.5361,-82.3741"/>
</g>
<!-- Node19&#45;&gt;Node5 -->
<g id="edge32" class="edge">
<title>Node19&#45;&gt;Node5</title>
<path fill="none" stroke="#191970" d="M827.5,-112.4509C827.5,-94.184 827.5,-53.9553 827.5,-29.6976"/>
<polygon fill="#191970" stroke="#191970" points="831.0001,-29.5249 827.5,-19.5249 824.0001,-29.5249 831.0001,-29.5249"/>
</g>
<!-- Node19&#45;&gt;Node8 -->
<g id="edge35" class="edge">
<title>Node19&#45;&gt;Node8</title>
<path fill="none" stroke="#191970" d="M754.3793,-113.8002C692.552,-105.8888 609.5313,-92.6717 580.5,-76 560.7119,-64.6364 544.4667,-43.7763 534.4516,-28.5407"/>
<polygon fill="#191970" stroke="#191970" points="537.3221,-26.53 529.045,-19.9163 531.3912,-30.2481 537.3221,-26.53"/>
</g>
<!-- Node19&#45;&gt;Node11 -->
<g id="edge33" class="edge">
<title>Node19&#45;&gt;Node11</title>
<path fill="none" stroke="#191970" d="M900.5321,-116.0146C955.1429,-109.9726 1031.0144,-98.2236 1094.5,-76 1104.304,-72.568 1156.6392,-43.0677 1188.8722,-24.6877"/>
<polygon fill="#191970" stroke="#191970" points="1190.8223,-27.6045 1197.7697,-19.6055 1187.3504,-21.5262 1190.8223,-27.6045"/>
</g>
<!-- Node19&#45;&gt;Node12 -->
<g id="edge34" class="edge">
<title>Node19&#45;&gt;Node12</title>
<path fill="none" stroke="#191970" d="M798.1041,-112.3733C769.6693,-103.0613 726.4123,-88.8953 695.1919,-78.671"/>
<polygon fill="#191970" stroke="#191970" points="696.105,-75.2872 685.5124,-75.5011 693.9264,-81.9396 696.105,-75.2872"/>
</g>
<!-- Node19&#45;&gt;Node13 -->
<g id="edge36" class="edge">
<title>Node19&#45;&gt;Node13</title>
<path fill="none" stroke="#191970" d="M816.5015,-112.4509C794.4147,-93.2747 744.4519,-49.8962 717.1576,-26.1988"/>
<polygon fill="#191970" stroke="#191970" points="719.3164,-23.438 709.4706,-19.5249 714.7271,-28.7238 719.3164,-23.438"/>
</g>
<!-- Node20 -->
<g id="node21" class="node">
<title>Node20</title>
<polygon fill="#ffffff" stroke="#bfbfbf" points="855.5,-56.5 855.5,-75.5 983.5,-75.5 983.5,-56.5 855.5,-56.5"/>
<text text-anchor="middle" x="919.5" y="-63.5" font-family="Helvetica,sans-Serif" font-size="10.00" fill="#000000">AMReX_PhysBCFunct.H</text>
</g>
<!-- Node19&#45;&gt;Node20 -->
<g id="edge37" class="edge">
<title>Node19&#45;&gt;Node20</title>
<path fill="none" stroke="#191970" d="M843.5252,-112.2455C857.6408,-103.6534 878.4263,-91.0014 894.6899,-81.1018"/>
<polygon fill="#191970" stroke="#191970" points="896.9363,-83.8319 903.6585,-75.6427 893.2966,-77.8525 896.9363,-83.8319"/>
</g>
</g>
</svg>
