<?xml version="1.0" encoding="UTF-8" standalone="no"?>
<!DOCTYPE svg PUBLIC "-//W3C//DTD SVG 1.1//EN"
 "http://www.w3.org/Graphics/SVG/1.1/DTD/svg11.dtd">
<!-- Generated by graphviz version 2.40.1 (20161225.0304)
 -->
<!-- Title: MLMGOptions.H Pages: 1 -->
<!--zoomable 319 -->
<svg id="main" version="1.1" xmlns="http://www.w3.org/2000/svg" xmlns:xlink="http://www.w3.org/1999/xlink" xml:space="preserve" onload="init(evt)">
<style type="text/css"><![CDATA[
.edge:hover path { stroke: red; }
.edge:hover polygon { stroke: red; fill: red; }
]]></style>
<script type="text/javascript"><![CDATA[
var edges = document.getElementsByTagName('g');
if (edges && edges.length) {
  for (var i=0;i<edges.length;i++) {
    if (edges[i].id.substr(0,4)=='edge') {
      edges[i].setAttribute('class','edge');
    }
  }
}
]]></script>
        <defs>
                <circle id="rim" cx="0" cy="0" r="7"/>
                <circle id="rim2" cx="0" cy="0" r="3.5"/>
                <g id="zoomPlus">
                        <use xlink:href="#rim" fill="#404040">
                                <set attributeName="fill" to="#808080" begin="zoomplus.mouseover" end="zoomplus.mouseout"/>
                        </use>
                        <path d="M-4,0h8M0,-4v8" fill="none" stroke="white" stroke-width="1.5" pointer-events="none"/>
                </g>
                <g id="zoomMin">
                        <use xlink:href="#rim" fill="#404040">
                                <set attributeName="fill" to="#808080" begin="zoomminus.mouseover" end="zoomminus.mouseout"/>
                        </use>
                        <path d="M-4,0h8" fill="none" stroke="white" stroke-width="1.5" pointer-events="none"/>
                </g>
                <g id="dirArrow">
                        <path fill="none" stroke="white" stroke-width="1.5" d="M0,-3.0v7 M-2.5,-0.5L0,-3.0L2.5,-0.5"/>
                </g>
               <g id="resetDef">
                       <use xlink:href="#rim2" fill="#404040">
                               <set attributeName="fill" to="#808080" begin="reset.mouseover" end="reset.mouseout"/>
                       </use>
               </g>
        </defs>

<script type="text/javascript">
var viewWidth = 1333;
var viewHeight = 319;
var sectionId = 'dynsection-1';
</script>
<script xlink:href="svgpan.js"/>
<svg id="graph" class="graph">
<g id="viewport">
<title>MLMGOptions.H</title>
<polygon fill="#ffffff" stroke="transparent" points="-4,4 -4,-315 1329,-315 1329,4 -4,4"/>
<!-- Node5 -->
<g id="node1" class="node">
<title>Node5</title>
<polygon fill="#bfbfbf" stroke="#000000" points="1112.5,-291.5 1112.5,-310.5 1202.5,-310.5 1202.5,-291.5 1112.5,-291.5"/>
<text text-anchor="middle" x="1157.5" y="-298.5" font-family="Helvetica,sans-Serif" font-size="10.00" fill="#000000">MLMGOptions.H</text>
</g>
<!-- Node6 -->
<g id="node2" class="node">
<title>Node6</title>
<g id="a_node2"><a xlink:href="_m_l_m_g_options_8cpp.html" target="_top" xlink:title="MLMGOptions.cpp">
<polygon fill="#ffffff" stroke="#000000" points="866.5,-230 866.5,-249 964.5,-249 964.5,-230 866.5,-230"/>
<text text-anchor="middle" x="915.5" y="-237" font-family="Helvetica,sans-Serif" font-size="10.00" fill="#000000">MLMGOptions.cpp</text>
</a>
</g>
</g>
<!-- Node5&#45;&gt;Node6 -->
<g id="edge1" class="edge">
<title>Node5&#45;&gt;Node6</title>
<path fill="none" stroke="#191970" d="M1108.6387,-289.0127C1071.5275,-279.8527 1019.2487,-266.8307 973.5,-255 966.1337,-253.095 958.2522,-251.0161 950.7485,-249.0174"/>
<polygon fill="#191970" stroke="#191970" points="1108.1386,-292.4941 1118.6857,-291.4896 1109.8143,-285.6976 1108.1386,-292.4941"/>
</g>
<!-- Node7 -->
<g id="node3" class="node">
<title>Node7</title>
<g id="a_node3"><a xlink:href="_diffusion_ops_8_h.html" target="_top" xlink:title="DiffusionOps.H">
<polygon fill="#ffffff" stroke="#000000" points="982.5,-230 982.5,-249 1066.5,-249 1066.5,-230 982.5,-230"/>
<text text-anchor="middle" x="1024.5" y="-237" font-family="Helvetica,sans-Serif" font-size="10.00" fill="#000000">DiffusionOps.H</text>
</a>
</g>
</g>
<!-- Node5&#45;&gt;Node7 -->
<g id="edge2" class="edge">
<title>Node5&#45;&gt;Node7</title>
<path fill="none" stroke="#191970" d="M1127.6334,-287.1895C1102.5053,-275.5701 1067.2332,-259.2601 1045.1353,-249.0419"/>
<polygon fill="#191970" stroke="#191970" points="1126.1731,-290.3703 1136.7188,-291.3906 1129.1111,-284.0167 1126.1731,-290.3703"/>
</g>
<!-- Node16 -->
<g id="node12" class="node">
<title>Node16</title>
<g id="a_node12"><a xlink:href="icns__advection_8cpp.html" target="_top" xlink:title="icns_advection.cpp">
<polygon fill="#ffffff" stroke="#000000" points="1070,-.5 1070,-19.5 1171,-19.5 1171,-.5 1070,-.5"/>
<text text-anchor="middle" x="1120.5" y="-7.5" font-family="Helvetica,sans-Serif" font-size="10.00" fill="#000000">icns_advection.cpp</text>
</a>
</g>
</g>
<!-- Node5&#45;&gt;Node16 -->
<g id="edge34" class="edge">
<title>Node5&#45;&gt;Node16</title>
<path fill="none" stroke="#191970" d="M1168.0171,-282.6514C1180.4578,-259.1781 1199.5,-216.896 1199.5,-178 1199.5,-178 1199.5,-178 1199.5,-122 1199.5,-91.4754 1197.6979,-81.2188 1180.5,-56 1169.777,-40.2759 1151.9522,-27.6067 1138.5107,-19.5764"/>
<polygon fill="#191970" stroke="#191970" points="1164.9066,-281.0445 1163.1643,-291.4951 1171.0434,-284.4119 1164.9066,-281.0445"/>
</g>
<!-- Node31 -->
<g id="node27" class="node">
<title>Node31</title>
<g id="a_node27"><a xlink:href="incflo__apply__nodal__projection_8cpp.html" target="_top" xlink:title="incflo_apply_nodal\l_projection.cpp">
<polygon fill="#ffffff" stroke="#000000" points="1228,-224.5 1228,-254.5 1325,-254.5 1325,-224.5 1228,-224.5"/>
<text text-anchor="start" x="1236" y="-242.5" font-family="Helvetica,sans-Serif" font-size="10.00" fill="#000000">incflo_apply_nodal</text>
<text text-anchor="middle" x="1276.5" y="-231.5" font-family="Helvetica,sans-Serif" font-size="10.00" fill="#000000">_projection.cpp</text>
</a>
</g>
</g>
<!-- Node5&#45;&gt;Node31 -->
<g id="edge35" class="edge">
<title>Node5&#45;&gt;Node31</title>
<path fill="none" stroke="#191970" d="M1184.996,-286.7899C1203.684,-277.1318 1228.3685,-264.3747 1247.3893,-254.5446"/>
<polygon fill="#191970" stroke="#191970" points="1183.3706,-283.6901 1176.0938,-291.3906 1186.5844,-289.9087 1183.3706,-283.6901"/>
</g>
<!-- Node8 -->
<g id="node4" class="node">
<title>Node8</title>
<g id="a_node4"><a xlink:href="_p_d_e_8_h.html" target="_top" xlink:title="PDE.H">
<polygon fill="#ffffff" stroke="#000000" points="480.5,-168.5 480.5,-187.5 528.5,-187.5 528.5,-168.5 480.5,-168.5"/>
<text text-anchor="middle" x="504.5" y="-175.5" font-family="Helvetica,sans-Serif" font-size="10.00" fill="#000000">PDE.H</text>
</a>
</g>
</g>
<!-- Node7&#45;&gt;Node8 -->
<g id="edge3" class="edge">
<title>Node7&#45;&gt;Node8</title>
<path fill="none" stroke="#191970" d="M986.9914,-227.1892C982.4782,-225.979 977.9076,-224.877 973.5,-224 805.3944,-190.5512 598.3354,-181.0419 528.6612,-178.691"/>
<polygon fill="#191970" stroke="#191970" points="986.1171,-230.5794 996.6942,-229.9657 988.043,-223.8495 986.1171,-230.5794"/>
</g>
<!-- Node14 -->
<g id="node10" class="node">
<title>Node14</title>
<g id="a_node10"><a xlink:href="icns__ops_8_h.html" target="_top" xlink:title="icns_ops.H">
<polygon fill="#ffffff" stroke="#000000" points="1105.5,-56.5 1105.5,-75.5 1171.5,-75.5 1171.5,-56.5 1105.5,-56.5"/>
<text text-anchor="middle" x="1138.5" y="-63.5" font-family="Helvetica,sans-Serif" font-size="10.00" fill="#000000">icns_ops.H</text>
</a>
</g>
</g>
<!-- Node7&#45;&gt;Node14 -->
<g id="edge32" class="edge">
<title>Node7&#45;&gt;Node14</title>
<path fill="none" stroke="#191970" d="M1036.4766,-221.2725C1060.4649,-184.7639 1113.6804,-103.7737 1132.0874,-75.7595"/>
<polygon fill="#191970" stroke="#191970" points="1033.3578,-219.6454 1030.7915,-229.9248 1039.2079,-223.4893 1033.3578,-219.6454"/>
</g>
<!-- Node17 -->
<g id="node13" class="node">
<title>Node17</title>
<g id="a_node13"><a xlink:href="icns__diffusion_8_h.html" target="_top" xlink:title="icns_diffusion.H">
<polygon fill="#ffffff" stroke="#000000" points="890,-56.5 890,-75.5 977,-75.5 977,-56.5 890,-56.5"/>
<text text-anchor="middle" x="933.5" y="-63.5" font-family="Helvetica,sans-Serif" font-size="10.00" fill="#000000">icns_diffusion.H</text>
</a>
</g>
</g>
<!-- Node7&#45;&gt;Node17 -->
<g id="edge33" class="edge">
<title>Node7&#45;&gt;Node17</title>
<path fill="none" stroke="#191970" d="M1014.694,-220.804C995.4301,-184.0756 953.2496,-103.6545 938.6188,-75.7595"/>
<polygon fill="#191970" stroke="#191970" points="1011.7334,-222.6946 1019.4778,-229.9248 1017.9325,-219.4432 1011.7334,-222.6946"/>
</g>
<!-- Node30 -->
<g id="node26" class="node">
<title>Node30</title>
<g id="a_node26"><a xlink:href="_diffusion_ops_8cpp.html" target="_top" xlink:title="DiffusionOps.cpp">
<polygon fill="#ffffff" stroke="#000000" points="370.5,-168.5 370.5,-187.5 462.5,-187.5 462.5,-168.5 370.5,-168.5"/>
<text text-anchor="middle" x="416.5" y="-175.5" font-family="Helvetica,sans-Serif" font-size="10.00" fill="#000000">DiffusionOps.cpp</text>
</a>
</g>
</g>
<!-- Node7&#45;&gt;Node30 -->
<g id="edge31" class="edge">
<title>Node7&#45;&gt;Node30</title>
<path fill="none" stroke="#191970" d="M987.3358,-227.1606C982.7143,-225.9363 978.0239,-224.8387 973.5,-224 753.564,-183.2234 693.4186,-216.048 471.5,-188 468.6114,-187.6349 465.6446,-187.2181 462.6574,-186.7666"/>
<polygon fill="#191970" stroke="#191970" points="986.6751,-230.6118 997.2518,-229.9918 988.597,-223.8807 986.6751,-230.6118"/>
</g>
<!-- Node9 -->
<g id="node5" class="node">
<title>Node9</title>
<g id="a_node5"><a xlink:href="density_8_h.html" target="_top" xlink:title="density.H">
<polygon fill="#ffffff" stroke="#000000" points="514,-112.5 514,-131.5 573,-131.5 573,-112.5 514,-112.5"/>
<text text-anchor="middle" x="543.5" y="-119.5" font-family="Helvetica,sans-Serif" font-size="10.00" fill="#000000">density.H</text>
</a>
</g>
</g>
<!-- Node8&#45;&gt;Node9 -->
<g id="edge4" class="edge">
<title>Node8&#45;&gt;Node9</title>
<path fill="none" stroke="#191970" d="M517.0908,-159.9209C523.6395,-150.5176 531.3824,-139.3997 536.7846,-131.6427"/>
<polygon fill="#191970" stroke="#191970" points="514.1361,-158.0392 511.2933,-168.2455 519.8804,-162.0397 514.1361,-158.0392"/>
</g>
<!-- Node12 -->
<g id="node8" class="node">
<title>Node12</title>
<g id="a_node8"><a xlink:href="icns_8_h.html" target="_top" xlink:title="icns.H">
<polygon fill="#ffffff" stroke="#000000" points="814,-112.5 814,-131.5 859,-131.5 859,-112.5 814,-112.5"/>
<text text-anchor="middle" x="836.5" y="-119.5" font-family="Helvetica,sans-Serif" font-size="10.00" fill="#000000">icns.H</text>
</a>
</g>
</g>
<!-- Node8&#45;&gt;Node12 -->
<g id="edge8" class="edge">
<title>Node8&#45;&gt;Node12</title>
<path fill="none" stroke="#191970" d="M538.8127,-172.2123C606.7248,-160.7573 756.6329,-135.4716 813.7712,-125.8338"/>
<polygon fill="#191970" stroke="#191970" points="537.9226,-168.8129 528.6441,-173.9275 539.0869,-175.7154 537.9226,-168.8129"/>
</g>
<!-- Node20 -->
<g id="node16" class="node">
<title>Node20</title>
<g id="a_node16"><a xlink:href="levelset_8_h.html" target="_top" xlink:title="levelset.H">
<polygon fill="#ffffff" stroke="#000000" points="435,-112.5 435,-131.5 496,-131.5 496,-112.5 435,-112.5"/>
<text text-anchor="middle" x="465.5" y="-119.5" font-family="Helvetica,sans-Serif" font-size="10.00" fill="#000000">levelset.H</text>
</a>
</g>
</g>
<!-- Node8&#45;&gt;Node20 -->
<g id="edge20" class="edge">
<title>Node8&#45;&gt;Node20</title>
<path fill="none" stroke="#191970" d="M491.9092,-159.9209C485.3605,-150.5176 477.6176,-139.3997 472.2154,-131.6427"/>
<polygon fill="#191970" stroke="#191970" points="489.1196,-162.0397 497.7067,-168.2455 494.8639,-158.0392 489.1196,-162.0397"/>
</g>
<!-- Node23 -->
<g id="node19" class="node">
<title>Node23</title>
<g id="a_node19"><a xlink:href="_s_d_r_8_h.html" target="_top" xlink:title="SDR.H">
<polygon fill="#ffffff" stroke="#000000" points="35,-112.5 35,-131.5 84,-131.5 84,-112.5 35,-112.5"/>
<text text-anchor="middle" x="59.5" y="-119.5" font-family="Helvetica,sans-Serif" font-size="10.00" fill="#000000">SDR.H</text>
</a>
</g>
</g>
<!-- Node8&#45;&gt;Node23 -->
<g id="edge24" class="edge">
<title>Node8&#45;&gt;Node23</title>
<path fill="none" stroke="#191970" d="M470.5825,-168.4838C412.6501,-159.8115 164.0751,-133.1566 84.238,-124.6355"/>
<polygon fill="#191970" stroke="#191970" points="470.0352,-171.9409 480.4803,-170.166 471.2081,-165.0399 470.0352,-171.9409"/>
</g>
<!-- Node25 -->
<g id="node21" class="node">
<title>Node25</title>
<g id="a_node21"><a xlink:href="temperature_8_h.html" target="_top" xlink:title="temperature.H">
<polygon fill="#ffffff" stroke="#000000" points="163,-112.5 163,-131.5 242,-131.5 242,-112.5 163,-112.5"/>
<text text-anchor="middle" x="202.5" y="-119.5" font-family="Helvetica,sans-Serif" font-size="10.00" fill="#000000">temperature.H</text>
</a>
</g>
</g>
<!-- Node8&#45;&gt;Node25 -->
<g id="edge26" class="edge">
<title>Node8&#45;&gt;Node25</title>
<path fill="none" stroke="#191970" d="M470.7041,-168.0407C383.9176,-147.9137 292.8258,-134.1878 242.0131,-127.1806"/>
<polygon fill="#191970" stroke="#191970" points="469.9081,-171.4489 480.4438,-170.3312 471.5106,-164.6348 469.9081,-171.4489"/>
</g>
<!-- Node27 -->
<g id="node23" class="node">
<title>Node27</title>
<g id="a_node23"><a xlink:href="_t_k_e_8_h.html" target="_top" xlink:title="TKE.H">
<polygon fill="#ffffff" stroke="#000000" points="291,-112.5 291,-131.5 338,-131.5 338,-112.5 291,-112.5"/>
<text text-anchor="middle" x="314.5" y="-119.5" font-family="Helvetica,sans-Serif" font-size="10.00" fill="#000000">TKE.H</text>
</a>
</g>
</g>
<!-- Node8&#45;&gt;Node27 -->
<g id="edge28" class="edge">
<title>Node8&#45;&gt;Node27</title>
<path fill="none" stroke="#191970" d="M470.5113,-167.7228C417.8744,-152.0612 367.1452,-137.2768 338.1924,-128.868"/>
<polygon fill="#191970" stroke="#191970" points="469.7741,-171.1551 480.3572,-170.656 471.7727,-164.4465 469.7741,-171.1551"/>
</g>
<!-- Node10 -->
<g id="node6" class="node">
<title>Node10</title>
<g id="a_node6"><a xlink:href="density_8cpp.html" target="_top" xlink:title="density.cpp">
<polygon fill="#ffffff" stroke="#000000" points="526,-.5 526,-19.5 593,-19.5 593,-.5 526,-.5"/>
<text text-anchor="middle" x="559.5" y="-7.5" font-family="Helvetica,sans-Serif" font-size="10.00" fill="#000000">density.cpp</text>
</a>
</g>
</g>
<!-- Node9&#45;&gt;Node10 -->
<g id="edge5" class="edge">
<title>Node9&#45;&gt;Node10</title>
<path fill="none" stroke="#191970" d="M564.9238,-105.8901C573.6812,-97.9676 582.8367,-87.6218 587.5,-76 595.5652,-55.9002 579.7314,-32.6332 568.7605,-19.79"/>
<polygon fill="#191970" stroke="#191970" points="562.5273,-103.3325 557.1336,-112.4516 567.0368,-108.6864 562.5273,-103.3325"/>
</g>
<!-- Node11 -->
<g id="node7" class="node">
<title>Node11</title>
<g id="a_node7"><a xlink:href="density__ops_8_h.html" target="_top" xlink:title="density_ops.H">
<polygon fill="#ffffff" stroke="#000000" points="498.5,-56.5 498.5,-75.5 578.5,-75.5 578.5,-56.5 498.5,-56.5"/>
<text text-anchor="middle" x="538.5" y="-63.5" font-family="Helvetica,sans-Serif" font-size="10.00" fill="#000000">density_ops.H</text>
</a>
</g>
</g>
<!-- Node9&#45;&gt;Node11 -->
<g id="edge6" class="edge">
<title>Node9&#45;&gt;Node11</title>
<path fill="none" stroke="#191970" d="M541.7283,-102.1575C540.9246,-93.155 540.0107,-82.9199 539.361,-75.6427"/>
<polygon fill="#191970" stroke="#191970" points="538.2535,-102.5965 542.6291,-112.2455 545.2258,-101.9739 538.2535,-102.5965"/>
</g>
<!-- Node11&#45;&gt;Node10 -->
<g id="edge7" class="edge">
<title>Node11&#45;&gt;Node10</title>
<path fill="none" stroke="#191970" d="M545.719,-46.7493C549.1476,-37.6064 553.0951,-27.0798 555.884,-19.6427"/>
<polygon fill="#191970" stroke="#191970" points="542.3921,-45.6533 542.1579,-56.2455 548.9464,-48.1112 542.3921,-45.6533"/>
</g>
<!-- Node13 -->
<g id="node9" class="node">
<title>Node13</title>
<g id="a_node9"><a xlink:href="icns_8cpp.html" target="_top" xlink:title="icns.cpp">
<polygon fill="#ffffff" stroke="#000000" points="907,-.5 907,-19.5 960,-19.5 960,-.5 907,-.5"/>
<text text-anchor="middle" x="933.5" y="-7.5" font-family="Helvetica,sans-Serif" font-size="10.00" fill="#000000">icns.cpp</text>
</a>
</g>
</g>
<!-- Node12&#45;&gt;Node13 -->
<g id="edge9" class="edge">
<title>Node12&#45;&gt;Node13</title>
<path fill="none" stroke="#191970" d="M813.8353,-105.9895C797.5309,-92.4717 780.3783,-72.705 792.5,-56 806.0724,-37.2958 869.9331,-22.2058 906.8879,-14.8574"/>
<polygon fill="#191970" stroke="#191970" points="812.083,-109.0607 822.1246,-112.4395 816.3818,-103.5361 812.083,-109.0607"/>
</g>
<!-- Node12&#45;&gt;Node14 -->
<g id="edge10" class="edge">
<title>Node12&#45;&gt;Node14</title>
<path fill="none" stroke="#191970" d="M869.2857,-116.8327C918.7074,-108.9004 1015.1658,-92.8625 1096.5,-76 1099.289,-75.4218 1102.1754,-74.7949 1105.0689,-74.1465"/>
<polygon fill="#191970" stroke="#191970" points="868.5138,-113.4115 859.1909,-118.445 869.6178,-120.3239 868.5138,-113.4115"/>
</g>
<!-- Node15 -->
<g id="node11" class="node">
<title>Node15</title>
<g id="a_node11"><a xlink:href="icns__advection_8_h.html" target="_top" xlink:title="icns_advection.H">
<polygon fill="#ffffff" stroke="#000000" points="995.5,-56.5 995.5,-75.5 1087.5,-75.5 1087.5,-56.5 995.5,-56.5"/>
<text text-anchor="middle" x="1041.5" y="-63.5" font-family="Helvetica,sans-Serif" font-size="10.00" fill="#000000">icns_advection.H</text>
</a>
</g>
</g>
<!-- Node12&#45;&gt;Node15 -->
<g id="edge12" class="edge">
<title>Node12&#45;&gt;Node15</title>
<path fill="none" stroke="#191970" d="M869.1524,-113.0803C906.7466,-102.8107 968.2492,-86.01 1006.7191,-75.5011"/>
<polygon fill="#191970" stroke="#191970" points="867.9461,-109.7815 859.2219,-115.7931 869.7907,-116.5341 867.9461,-109.7815"/>
</g>
<!-- Node12&#45;&gt;Node17 -->
<g id="edge15" class="edge">
<title>Node12&#45;&gt;Node17</title>
<path fill="none" stroke="#191970" d="M862.4016,-107.0465C879.6609,-97.0824 901.8376,-84.2794 916.7975,-75.6427"/>
<polygon fill="#191970" stroke="#191970" points="860.3065,-104.2146 853.3961,-112.2455 863.8064,-110.2768 860.3065,-104.2146"/>
</g>
<!-- Node18 -->
<g id="node14" class="node">
<title>Node18</title>
<g id="a_node14"><a xlink:href="icns__bcop_8_h.html" target="_top" xlink:title="icns_bcop.H">
<polygon fill="#ffffff" stroke="#000000" points="801,-56.5 801,-75.5 872,-75.5 872,-56.5 801,-56.5"/>
<text text-anchor="middle" x="836.5" y="-63.5" font-family="Helvetica,sans-Serif" font-size="10.00" fill="#000000">icns_bcop.H</text>
</a>
</g>
</g>
<!-- Node12&#45;&gt;Node18 -->
<g id="edge17" class="edge">
<title>Node12&#45;&gt;Node18</title>
<path fill="none" stroke="#191970" d="M836.5,-102.1575C836.5,-93.155 836.5,-82.9199 836.5,-75.6427"/>
<polygon fill="#191970" stroke="#191970" points="833.0001,-102.2455 836.5,-112.2455 840.0001,-102.2456 833.0001,-102.2455"/>
</g>
<!-- Node19 -->
<g id="node15" class="node">
<title>Node19</title>
<g id="a_node15"><a xlink:href="_power_law_profile_8cpp.html" target="_top" xlink:title="PowerLawProfile.cpp">
<polygon fill="#ffffff" stroke="#000000" points="635,-56.5 635,-75.5 744,-75.5 744,-56.5 635,-56.5"/>
<text text-anchor="middle" x="689.5" y="-63.5" font-family="Helvetica,sans-Serif" font-size="10.00" fill="#000000">PowerLawProfile.cpp</text>
</a>
</g>
</g>
<!-- Node12&#45;&gt;Node19 -->
<g id="edge19" class="edge">
<title>Node12&#45;&gt;Node19</title>
<path fill="none" stroke="#191970" d="M804.4627,-109.7953C777.492,-99.5208 739.4514,-85.0291 714.6364,-75.5758"/>
<polygon fill="#191970" stroke="#191970" points="803.2625,-113.0834 813.8534,-113.3727 805.7545,-106.542 803.2625,-113.0834"/>
</g>
<!-- Node14&#45;&gt;Node13 -->
<g id="edge11" class="edge">
<title>Node14&#45;&gt;Node13</title>
<path fill="none" stroke="#191970" d="M1095.4075,-54.2284C1054.5035,-43.0546 994.3234,-26.6152 960.0236,-17.2455"/>
<polygon fill="#191970" stroke="#191970" points="1094.5381,-57.6191 1105.107,-56.878 1096.3827,-50.8665 1094.5381,-57.6191"/>
</g>
<!-- Node15&#45;&gt;Node13 -->
<g id="edge13" class="edge">
<title>Node15&#45;&gt;Node13</title>
<path fill="none" stroke="#191970" d="M1013.7229,-51.5971C994.3618,-41.558 969.0615,-28.4393 952.0966,-19.6427"/>
<polygon fill="#191970" stroke="#191970" points="1012.1992,-54.7495 1022.6878,-56.2455 1015.4214,-48.5352 1012.1992,-54.7495"/>
</g>
<!-- Node15&#45;&gt;Node16 -->
<g id="edge14" class="edge">
<title>Node15&#45;&gt;Node16</title>
<path fill="none" stroke="#191970" d="M1063.7756,-50.2097C1077.6505,-40.3743 1095.0515,-28.0394 1106.8969,-19.6427"/>
<polygon fill="#191970" stroke="#191970" points="1061.3949,-47.6071 1055.2607,-56.2455 1065.4431,-53.3178 1061.3949,-47.6071"/>
</g>
<!-- Node17&#45;&gt;Node13 -->
<g id="edge16" class="edge">
<title>Node17&#45;&gt;Node13</title>
<path fill="none" stroke="#191970" d="M933.5,-46.1575C933.5,-37.155 933.5,-26.9199 933.5,-19.6427"/>
<polygon fill="#191970" stroke="#191970" points="930.0001,-46.2455 933.5,-56.2455 937.0001,-46.2456 930.0001,-46.2455"/>
</g>
<!-- Node18&#45;&gt;Node13 -->
<g id="edge18" class="edge">
<title>Node18&#45;&gt;Node13</title>
<path fill="none" stroke="#191970" d="M862.4016,-51.0465C879.6609,-41.0824 901.8376,-28.2794 916.7975,-19.6427"/>
<polygon fill="#191970" stroke="#191970" points="860.3065,-48.2146 853.3961,-56.2455 863.8064,-54.2768 860.3065,-48.2146"/>
</g>
<!-- Node21 -->
<g id="node17" class="node">
<title>Node21</title>
<g id="a_node17"><a xlink:href="levelset_8cpp.html" target="_top" xlink:title="levelset.cpp">
<polygon fill="#ffffff" stroke="#000000" points="414,-.5 414,-19.5 483,-19.5 483,-.5 414,-.5"/>
<text text-anchor="middle" x="448.5" y="-7.5" font-family="Helvetica,sans-Serif" font-size="10.00" fill="#000000">levelset.cpp</text>
</a>
</g>
</g>
<!-- Node20&#45;&gt;Node21 -->
<g id="edge21" class="edge">
<title>Node20&#45;&gt;Node21</title>
<path fill="none" stroke="#191970" d="M462.5053,-102.2702C458.8212,-77.9985 452.7155,-37.7725 449.9457,-19.5249"/>
<polygon fill="#191970" stroke="#191970" points="459.0895,-103.0894 464.0506,-112.4509 466.0102,-102.0389 459.0895,-103.0894"/>
</g>
<!-- Node22 -->
<g id="node18" class="node">
<title>Node22</title>
<g id="a_node18"><a xlink:href="levelset__ops_8_h.html" target="_top" xlink:title="levelset_ops.H">
<polygon fill="#ffffff" stroke="#000000" points="360.5,-56.5 360.5,-75.5 442.5,-75.5 442.5,-56.5 360.5,-56.5"/>
<text text-anchor="middle" x="401.5" y="-63.5" font-family="Helvetica,sans-Serif" font-size="10.00" fill="#000000">levelset_ops.H</text>
</a>
</g>
</g>
<!-- Node20&#45;&gt;Node22 -->
<g id="edge22" class="edge">
<title>Node20&#45;&gt;Node22</title>
<path fill="none" stroke="#191970" d="M446.8086,-105.645C435.6781,-95.9058 421.9337,-83.8795 412.5202,-75.6427"/>
<polygon fill="#191970" stroke="#191970" points="444.5215,-108.2945 454.3521,-112.2455 449.131,-103.0264 444.5215,-108.2945"/>
</g>
<!-- Node22&#45;&gt;Node21 -->
<g id="edge23" class="edge">
<title>Node22&#45;&gt;Node21</title>
<path fill="none" stroke="#191970" d="M416.1872,-48.5004C424.1796,-38.9775 433.7625,-27.5596 440.407,-19.6427"/>
<polygon fill="#191970" stroke="#191970" points="413.4346,-46.3357 409.6868,-56.2455 418.7964,-50.8358 413.4346,-46.3357"/>
</g>
<!-- Node24 -->
<g id="node20" class="node">
<title>Node24</title>
<g id="a_node20"><a xlink:href="_s_d_r_8cpp.html" target="_top" xlink:title="SDR.cpp">
<polygon fill="#ffffff" stroke="#000000" points="0,-56.5 0,-75.5 57,-75.5 57,-56.5 0,-56.5"/>
<text text-anchor="middle" x="28.5" y="-63.5" font-family="Helvetica,sans-Serif" font-size="10.00" fill="#000000">SDR.cpp</text>
</a>
</g>
</g>
<!-- Node23&#45;&gt;Node24 -->
<g id="edge25" class="edge">
<title>Node23&#45;&gt;Node24</title>
<path fill="none" stroke="#191970" d="M49.1688,-103.3372C44.0335,-94.0605 38.0434,-83.2398 33.8379,-75.6427"/>
<polygon fill="#191970" stroke="#191970" points="46.1949,-105.1917 54.1002,-112.2455 52.3191,-101.8015 46.1949,-105.1917"/>
</g>
<!-- Node26 -->
<g id="node22" class="node">
<title>Node26</title>
<g id="a_node22"><a xlink:href="temperature_8cpp.html" target="_top" xlink:title="temperature.cpp">
<polygon fill="#ffffff" stroke="#000000" points="75,-56.5 75,-75.5 162,-75.5 162,-56.5 75,-56.5"/>
<text text-anchor="middle" x="118.5" y="-63.5" font-family="Helvetica,sans-Serif" font-size="10.00" fill="#000000">temperature.cpp</text>
</a>
</g>
</g>
<!-- Node25&#45;&gt;Node26 -->
<g id="edge27" class="edge">
<title>Node25&#45;&gt;Node26</title>
<path fill="none" stroke="#191970" d="M179.2351,-106.49C164.4144,-96.6096 145.6791,-84.1194 132.964,-75.6427"/>
<polygon fill="#191970" stroke="#191970" points="177.6063,-109.6107 187.8683,-112.2455 181.4893,-103.7863 177.6063,-109.6107"/>
</g>
<!-- Node28 -->
<g id="node24" class="node">
<title>Node28</title>
<g id="a_node24"><a xlink:href="_t_k_e_8cpp.html" target="_top" xlink:title="TKE.cpp">
<polygon fill="#ffffff" stroke="#000000" points="287,-56.5 287,-75.5 342,-75.5 342,-56.5 287,-56.5"/>
<text text-anchor="middle" x="314.5" y="-63.5" font-family="Helvetica,sans-Serif" font-size="10.00" fill="#000000">TKE.cpp</text>
</a>
</g>
</g>
<!-- Node27&#45;&gt;Node28 -->
<g id="edge29" class="edge">
<title>Node27&#45;&gt;Node28</title>
<path fill="none" stroke="#191970" d="M314.5,-102.1575C314.5,-93.155 314.5,-82.9199 314.5,-75.6427"/>
<polygon fill="#191970" stroke="#191970" points="311.0001,-102.2455 314.5,-112.2455 318.0001,-102.2456 311.0001,-102.2455"/>
</g>
<!-- Node29 -->
<g id="node25" class="node">
<title>Node29</title>
<g id="a_node25"><a xlink:href="_one_eq_ksgs_8cpp.html" target="_top" xlink:title="OneEqKsgs.cpp">
<polygon fill="#ffffff" stroke="#000000" points="180.5,-56.5 180.5,-75.5 268.5,-75.5 268.5,-56.5 180.5,-56.5"/>
<text text-anchor="middle" x="224.5" y="-63.5" font-family="Helvetica,sans-Serif" font-size="10.00" fill="#000000">OneEqKsgs.cpp</text>
</a>
</g>
</g>
<!-- Node27&#45;&gt;Node29 -->
<g id="edge30" class="edge">
<title>Node27&#45;&gt;Node29</title>
<path fill="none" stroke="#191970" d="M290.0216,-106.769C274.0734,-96.8456 253.749,-84.1994 239.9972,-75.6427"/>
<polygon fill="#191970" stroke="#191970" points="288.4835,-109.9342 298.8232,-112.2455 292.1817,-103.9908 288.4835,-109.9342"/>
</g>
</g>
</svg>
        <g id="navigator" transform="translate(0 0)" fill="#404254">
                <rect fill="#f2f5e9" fill-opacity="0.5" stroke="#606060" stroke-width=".5" x="0" y="0" width="60" height="60"/>
                <use id="zoomplus" xlink:href="#zoomPlus" x="17" y="9" onmousedown="handleZoom(evt,'in')"/>
                <use id="zoomminus" xlink:href="#zoomMin" x="42" y="9" onmousedown="handleZoom(evt,'out')"/>
                <use id="reset" xlink:href="#resetDef" x="30" y="36" onmousedown="handleReset()"/>
                <g id="arrowUp" xlink:href="#dirArrow" transform="translate(30 24)" onmousedown="handlePan(0,-1)">
                  <use xlink:href="#rim" fill="#404040">
                        <set attributeName="fill" to="#808080" begin="arrowUp.mouseover" end="arrowUp.mouseout"/>
                  </use>
                  <path fill="none" stroke="white" stroke-width="1.5" d="M0,-3.0v7 M-2.5,-0.5L0,-3.0L2.5,-0.5"/>
                </g>
                <g id="arrowRight" xlink:href="#dirArrow" transform="rotate(90) translate(36 -43)" onmousedown="handlePan(1,0)">
                  <use xlink:href="#rim" fill="#404040">
                        <set attributeName="fill" to="#808080" begin="arrowRight.mouseover" end="arrowRight.mouseout"/>
                  </use>
                  <path fill="none" stroke="white" stroke-width="1.5" d="M0,-3.0v7 M-2.5,-0.5L0,-3.0L2.5,-0.5"/>
                </g>
                <g id="arrowDown" xlink:href="#dirArrow" transform="rotate(180) translate(-30 -48)" onmousedown="handlePan(0,1)">
                  <use xlink:href="#rim" fill="#404040">
                        <set attributeName="fill" to="#808080" begin="arrowDown.mouseover" end="arrowDown.mouseout"/>
                  </use>
                  <path fill="none" stroke="white" stroke-width="1.5" d="M0,-3.0v7 M-2.5,-0.5L0,-3.0L2.5,-0.5"/>
                </g>
                <g id="arrowLeft" xlink:href="#dirArrow" transform="rotate(270) translate(-36 17)" onmousedown="handlePan(-1,0)">
                  <use xlink:href="#rim" fill="#404040">
                        <set attributeName="fill" to="#808080" begin="arrowLeft.mouseover" end="arrowLeft.mouseout"/>
                  </use>
                  <path fill="none" stroke="white" stroke-width="1.5" d="M0,-3.0v7 M-2.5,-0.5L0,-3.0L2.5,-0.5"/>
                </g>
        </g>
        <svg viewBox="0 0 15 15" width="100%" height="30px" preserveAspectRatio="xMaxYMin meet">
         <g id="arrow_out" transform="scale(0.3 0.3)">
          <a xlink:href="_m_l_m_g_options_8_h__dep__incl_org.svg" target="_base">
           <rect id="button" ry="5" rx="5" y="6" x="6" height="38" width="38"
                fill="#f2f5e9" fill-opacity="0.5" stroke="#606060" stroke-width="1.0"/>
           <path id="arrow"
             d="M 11.500037,31.436501 C 11.940474,20.09759 22.043105,11.32322 32.158766,21.979434 L 37.068811,17.246167 C 37.068811,17.246167 37.088388,32 37.088388,32 L 22.160133,31.978069 C 22.160133,31.978069 26.997745,27.140456 26.997745,27.140456 C 18.528582,18.264221 13.291696,25.230495 11.500037,31.436501 z"
             style="fill:#404040;"/>
          </a>
         </g>
        </svg>
</svg>
