<?xml version="1.0" encoding="UTF-8" standalone="no"?>
<!DOCTYPE svg PUBLIC "-//W3C//DTD SVG 1.1//EN"
 "http://www.w3.org/Graphics/SVG/1.1/DTD/svg11.dtd">
<!-- Generated by graphviz version 2.40.1 (20161225.0304)
 -->
<!-- Title: MMSForcing.cpp Pages: 1 -->
<!--zoomable 397 -->
<svg id="main" version="1.1" xmlns="http://www.w3.org/2000/svg" xmlns:xlink="http://www.w3.org/1999/xlink" xml:space="preserve" onload="init(evt)">
<style type="text/css"><![CDATA[
.edge:hover path { stroke: red; }
.edge:hover polygon { stroke: red; fill: red; }
]]></style>
<script type="text/javascript"><![CDATA[
var edges = document.getElementsByTagName('g');
if (edges && edges.length) {
  for (var i=0;i<edges.length;i++) {
    if (edges[i].id.substr(0,4)=='edge') {
      edges[i].setAttribute('class','edge');
    }
  }
}
]]></script>
        <defs>
                <circle id="rim" cx="0" cy="0" r="7"/>
                <circle id="rim2" cx="0" cy="0" r="3.5"/>
                <g id="zoomPlus">
                        <use xlink:href="#rim" fill="#404040">
                                <set attributeName="fill" to="#808080" begin="zoomplus.mouseover" end="zoomplus.mouseout"/>
                        </use>
                        <path d="M-4,0h8M0,-4v8" fill="none" stroke="white" stroke-width="1.5" pointer-events="none"/>
                </g>
                <g id="zoomMin">
                        <use xlink:href="#rim" fill="#404040">
                                <set attributeName="fill" to="#808080" begin="zoomminus.mouseover" end="zoomminus.mouseout"/>
                        </use>
                        <path d="M-4,0h8" fill="none" stroke="white" stroke-width="1.5" pointer-events="none"/>
                </g>
                <g id="dirArrow">
                        <path fill="none" stroke="white" stroke-width="1.5" d="M0,-3.0v7 M-2.5,-0.5L0,-3.0L2.5,-0.5"/>
                </g>
               <g id="resetDef">
                       <use xlink:href="#rim2" fill="#404040">
                               <set attributeName="fill" to="#808080" begin="reset.mouseover" end="reset.mouseout"/>
                       </use>
               </g>
        </defs>

<script type="text/javascript">
var viewWidth = 2675;
var viewHeight = 397;
var sectionId = 'dynsection-0';
</script>
<script xlink:href="svgpan.js"/>
<svg id="graph" class="graph">
<g id="viewport">
<title>MMSForcing.cpp</title>
<polygon fill="#ffffff" stroke="transparent" points="-4,4 -4,-393 2671.4699,-393 2671.4699,4 -4,4"/>
<!-- Node0 -->
<g id="node1" class="node">
<title>Node0</title>
<polygon fill="#bfbfbf" stroke="#000000" points="929.9699,-369.5 929.9699,-388.5 1020.9699,-388.5 1020.9699,-369.5 929.9699,-369.5"/>
<text text-anchor="middle" x="975.4699" y="-376.5" font-family="Helvetica,sans-Serif" font-size="10.00" fill="#000000">MMSForcing.cpp</text>
</g>
<!-- Node1 -->
<g id="node2" class="node">
<title>Node1</title>
<g id="a_node2"><a xlink:href="_m_m_s_forcing_8_h.html" target="_top" xlink:title="amr&#45;wind/mms/MMSForcing.H">
<polygon fill="#ffffff" stroke="#000000" points="570.4699,-313.5 570.4699,-332.5 720.4699,-332.5 720.4699,-313.5 570.4699,-313.5"/>
<text text-anchor="middle" x="645.4699" y="-320.5" font-family="Helvetica,sans-Serif" font-size="10.00" fill="#000000">amr&#45;wind/mms/MMSForcing.H</text>
</a>
</g>
</g>
<!-- Node0&#45;&gt;Node1 -->
<g id="edge1" class="edge">
<title>Node0&#45;&gt;Node1</title>
<path fill="none" stroke="#191970" d="M929.9313,-371.2722C873.3715,-361.6742 776.4474,-345.2265 711.6745,-334.2347"/>
<polygon fill="#191970" stroke="#191970" points="712.0106,-330.7418 701.566,-332.5193 710.8394,-337.6431 712.0106,-330.7418"/>
</g>
<!-- Node26 -->
<g id="node27" class="node">
<title>Node26</title>
<g id="a_node27"><a xlink:href="_c_f_d_sim_8_h.html" target="_top" xlink:title="amr&#45;wind/CFDSim.H">
<polygon fill="#ffffff" stroke="#000000" points="1308.4699,-252 1308.4699,-271 1416.4699,-271 1416.4699,-252 1308.4699,-252"/>
<text text-anchor="middle" x="1362.4699" y="-259" font-family="Helvetica,sans-Serif" font-size="10.00" fill="#000000">amr&#45;wind/CFDSim.H</text>
</a>
</g>
</g>
<!-- Node0&#45;&gt;Node26 -->
<g id="edge49" class="edge">
<title>Node0&#45;&gt;Node26</title>
<path fill="none" stroke="#191970" d="M975.3677,-369.1961C975.7912,-354.5509 978.9162,-327.1706 995.4699,-313 1018.0404,-293.6788 1199.1053,-275.4279 1298.1954,-266.7616"/>
<polygon fill="#191970" stroke="#191970" points="1298.7363,-270.2279 1308.3969,-265.8779 1298.1321,-263.2541 1298.7363,-270.2279"/>
</g>
<!-- Node37 -->
<g id="node38" class="node">
<title>Node37</title>
<polygon fill="#ffffff" stroke="#bfbfbf" points="1003.9699,-313.5 1003.9699,-332.5 1052.9699,-332.5 1052.9699,-313.5 1003.9699,-313.5"/>
<text text-anchor="middle" x="1028.4699" y="-320.5" font-family="Helvetica,sans-Serif" font-size="10.00" fill="#000000">masa.h</text>
</g>
<!-- Node0&#45;&gt;Node37 -->
<g id="edge73" class="edge">
<title>Node0&#45;&gt;Node37</title>
<path fill="none" stroke="#191970" d="M984.7018,-369.2455C992.3016,-361.2155 1003.2576,-349.6394 1012.3067,-340.0781"/>
<polygon fill="#191970" stroke="#191970" points="1015.012,-342.3115 1019.3438,-332.6427 1009.9279,-337.4998 1015.012,-342.3115"/>
</g>
<!-- Node2 -->
<g id="node3" class="node">
<title>Node2</title>
<g id="a_node3"><a xlink:href="_field_repo_8_h.html" target="_top" xlink:title="amr&#45;wind/core/FieldRepo.H">
<polygon fill="#ffffff" stroke="#000000" points="577.4699,-185 577.4699,-204 713.4699,-204 713.4699,-185 577.4699,-185"/>
<text text-anchor="middle" x="645.4699" y="-192" font-family="Helvetica,sans-Serif" font-size="10.00" fill="#000000">amr&#45;wind/core/FieldRepo.H</text>
</a>
</g>
</g>
<!-- Node1&#45;&gt;Node2 -->
<g id="edge2" class="edge">
<title>Node1&#45;&gt;Node2</title>
<path fill="none" stroke="#191970" d="M645.4699,-313.3416C645.4699,-292.4114 645.4699,-242.504 645.4699,-214.4762"/>
<polygon fill="#191970" stroke="#191970" points="648.97,-214.2704 645.4699,-204.2705 641.97,-214.2705 648.97,-214.2704"/>
</g>
<!-- Node21 -->
<g id="node22" class="node">
<title>Node21</title>
<g id="a_node22"><a xlink:href="_momentum_source_8_h.html" target="_top" xlink:title="amr&#45;wind/equation_systems\l/icns/MomentumSource.H">
<polygon fill="#ffffff" stroke="#000000" points="308.9699,-246.5 308.9699,-276.5 447.9699,-276.5 447.9699,-246.5 308.9699,-246.5"/>
<text text-anchor="start" x="316.9699" y="-264.5" font-family="Helvetica,sans-Serif" font-size="10.00" fill="#000000">amr&#45;wind/equation_systems</text>
<text text-anchor="middle" x="378.4699" y="-253.5" font-family="Helvetica,sans-Serif" font-size="10.00" fill="#000000">/icns/MomentumSource.H</text>
</a>
</g>
</g>
<!-- Node1&#45;&gt;Node21 -->
<g id="edge38" class="edge">
<title>Node1&#45;&gt;Node21</title>
<path fill="none" stroke="#191970" d="M604.0441,-313.4581C563.9615,-304.2256 502.2881,-290.0199 453.5528,-278.7944"/>
<polygon fill="#191970" stroke="#191970" points="454.2062,-275.3533 443.6757,-276.5193 452.6349,-282.1747 454.2062,-275.3533"/>
</g>
<!-- Node3 -->
<g id="node4" class="node">
<title>Node3</title>
<polygon fill="#ffffff" stroke="#bfbfbf" points="1367.9699,-.5 1367.9699,-19.5 1408.9699,-19.5 1408.9699,-.5 1367.9699,-.5"/>
<text text-anchor="middle" x="1388.4699" y="-7.5" font-family="Helvetica,sans-Serif" font-size="10.00" fill="#000000">string</text>
</g>
<!-- Node2&#45;&gt;Node3 -->
<g id="edge3" class="edge">
<title>Node2&#45;&gt;Node3</title>
<path fill="none" stroke="#191970" d="M713.7422,-192.8975C923.3432,-187.7324 1555.6956,-170.2551 1759.4699,-143 1894.8821,-124.8884 1974.0407,-182.613 2059.4699,-76 2065.0283,-69.0634 2065.5366,-62.4968 2059.4699,-56 2037.3523,-32.3142 1548.8674,-15.1122 1419.613,-10.9638"/>
<polygon fill="#191970" stroke="#191970" points="1419.3534,-7.4539 1409.2473,-10.6345 1419.1311,-14.4504 1419.3534,-7.4539"/>
</g>
<!-- Node4 -->
<g id="node5" class="node">
<title>Node4</title>
<polygon fill="#ffffff" stroke="#bfbfbf" points="1416.9699,-56.5 1416.9699,-75.5 1499.9699,-75.5 1499.9699,-56.5 1416.9699,-56.5"/>
<text text-anchor="middle" x="1458.4699" y="-63.5" font-family="Helvetica,sans-Serif" font-size="10.00" fill="#000000">unordered_map</text>
</g>
<!-- Node2&#45;&gt;Node4 -->
<g id="edge4" class="edge">
<title>Node2&#45;&gt;Node4</title>
<path fill="none" stroke="#191970" d="M713.7835,-192.8617C838.827,-189.0583 1099.3091,-177.1791 1182.4699,-143 1202.6295,-134.7144 1200.7279,-121.2366 1220.4699,-112 1237.114,-104.2129 1341.8282,-85.6398 1406.6934,-74.6229"/>
<polygon fill="#191970" stroke="#191970" points="1407.4663,-78.042 1416.7421,-72.9225 1406.2983,-71.1401 1407.4663,-78.042"/>
</g>
<!-- Node5 -->
<g id="node6" class="node">
<title>Node5</title>
<g id="a_node6"><a xlink:href="_field_desc_types_8_h.html" target="_top" xlink:title="amr&#45;wind/core/FieldDescTypes.H">
<polygon fill="#ffffff" stroke="#000000" points="388.9699,-.5 388.9699,-19.5 551.9699,-19.5 551.9699,-.5 388.9699,-.5"/>
<text text-anchor="middle" x="470.4699" y="-7.5" font-family="Helvetica,sans-Serif" font-size="10.00" fill="#000000">amr&#45;wind/core/FieldDescTypes.H</text>
</a>
</g>
</g>
<!-- Node2&#45;&gt;Node5 -->
<g id="edge5" class="edge">
<title>Node2&#45;&gt;Node5</title>
<path fill="none" stroke="#191970" d="M577.4576,-185.9547C509.632,-176.6415 410.7505,-160.6873 376.4699,-143 338.1986,-123.2536 323.3848,-115.6043 306.4699,-76 302.9786,-67.8255 301.0999,-63.0835 306.4699,-56 317.9903,-40.8037 359.5293,-29.2436 397.9157,-21.513"/>
<polygon fill="#191970" stroke="#191970" points="398.9586,-24.8759 408.1073,-19.5324 397.6232,-18.0044 398.9586,-24.8759"/>
</g>
<!-- Node6 -->
<g id="node7" class="node">
<title>Node6</title>
<g id="a_node7"><a xlink:href="_field_utils_8_h.html" target="_top" xlink:title="amr&#45;wind/core/FieldUtils.H">
<polygon fill="#ffffff" stroke="#000000" points="68.9699,-118 68.9699,-137 201.9699,-137 201.9699,-118 68.9699,-118"/>
<text text-anchor="middle" x="135.4699" y="-125" font-family="Helvetica,sans-Serif" font-size="10.00" fill="#000000">amr&#45;wind/core/FieldUtils.H</text>
</a>
</g>
</g>
<!-- Node2&#45;&gt;Node6 -->
<g id="edge6" class="edge">
<title>Node2&#45;&gt;Node6</title>
<path fill="none" stroke="#191970" d="M577.2842,-187.7946C492.4875,-179.1154 343.4056,-162.7397 216.4699,-143 208.7108,-141.7934 200.5587,-140.3924 192.538,-138.9357"/>
<polygon fill="#191970" stroke="#191970" points="192.959,-135.4541 182.4883,-137.0711 191.682,-142.3367 192.959,-135.4541"/>
</g>
<!-- Node7 -->
<g id="node8" class="node">
<title>Node7</title>
<polygon fill="#ffffff" stroke="#bfbfbf" points="697.4699,-.5 697.4699,-19.5 801.4699,-19.5 801.4699,-.5 697.4699,-.5"/>
<text text-anchor="middle" x="749.4699" y="-7.5" font-family="Helvetica,sans-Serif" font-size="10.00" fill="#000000">AMReX_MultiFab.H</text>
</g>
<!-- Node2&#45;&gt;Node7 -->
<g id="edge36" class="edge">
<title>Node2&#45;&gt;Node7</title>
<path fill="none" stroke="#191970" d="M634.9296,-184.9618C610.0373,-161.2904 552.0558,-98.6869 584.4699,-56 597.1384,-39.3166 645.8352,-27.0643 687.0688,-19.4187"/>
<polygon fill="#191970" stroke="#191970" points="687.8663,-22.8316 697.0916,-17.6216 686.6308,-15.9415 687.8663,-22.8316"/>
</g>
<!-- Node9 -->
<g id="node10" class="node">
<title>Node9</title>
<g id="a_node10"><a xlink:href="_field_8_h.html" target="_top" xlink:title="amr&#45;wind/core/Field.H">
<polygon fill="#ffffff" stroke="#000000" points="1059.9699,-118 1059.9699,-137 1172.9699,-137 1172.9699,-118 1059.9699,-118"/>
<text text-anchor="middle" x="1116.4699" y="-125" font-family="Helvetica,sans-Serif" font-size="10.00" fill="#000000">amr&#45;wind/core/Field.H</text>
</a>
</g>
</g>
<!-- Node2&#45;&gt;Node9 -->
<g id="edge10" class="edge">
<title>Node2&#45;&gt;Node9</title>
<path fill="none" stroke="#191970" d="M712.4525,-184.9717C802.0798,-172.2222 960.0932,-149.7447 1049.6418,-137.0063"/>
<polygon fill="#191970" stroke="#191970" points="1050.275,-140.4516 1059.6824,-135.5781 1049.2891,-133.5214 1050.275,-140.4516"/>
</g>
<!-- Node16 -->
<g id="node17" class="node">
<title>Node16</title>
<g id="a_node17"><a xlink:href="_int_field_8_h.html" target="_top" xlink:title="amr&#45;wind/core/IntField.H">
<polygon fill="#ffffff" stroke="#000000" points="409.4699,-118 409.4699,-137 533.4699,-137 533.4699,-118 409.4699,-118"/>
<text text-anchor="middle" x="471.4699" y="-125" font-family="Helvetica,sans-Serif" font-size="10.00" fill="#000000">amr&#45;wind/core/IntField.H</text>
</a>
</g>
</g>
<!-- Node2&#45;&gt;Node16 -->
<g id="edge24" class="edge">
<title>Node2&#45;&gt;Node16</title>
<path fill="none" stroke="#191970" d="M620.54,-184.9005C590.4344,-173.3082 539.6378,-153.7486 505.8319,-140.7313"/>
<polygon fill="#191970" stroke="#191970" points="506.9434,-137.4089 496.3536,-137.0817 504.428,-143.9413 506.9434,-137.4089"/>
</g>
<!-- Node17 -->
<g id="node18" class="node">
<title>Node17</title>
<polygon fill="#ffffff" stroke="#bfbfbf" points="315.9699,-56.5 315.9699,-75.5 422.9699,-75.5 422.9699,-56.5 315.9699,-56.5"/>
<text text-anchor="middle" x="369.4699" y="-63.5" font-family="Helvetica,sans-Serif" font-size="10.00" fill="#000000">AMReX_iMultiFab.H</text>
</g>
<!-- Node2&#45;&gt;Node17 -->
<g id="edge37" class="edge">
<title>Node2&#45;&gt;Node17</title>
<path fill="none" stroke="#191970" d="M577.4129,-187.4085C514.4949,-179.5968 426.868,-165.1276 400.4699,-143 383.3568,-128.6553 375.6029,-103.4654 372.1479,-85.8146"/>
<polygon fill="#191970" stroke="#191970" points="375.5641,-85.0209 370.4748,-75.7285 368.6585,-86.1665 375.5641,-85.0209"/>
</g>
<!-- Node18 -->
<g id="node19" class="node">
<title>Node18</title>
<g id="a_node19"><a xlink:href="_scratch_field_8_h.html" target="_top" xlink:title="amr&#45;wind/core/ScratchField.H">
<polygon fill="#ffffff" stroke="#000000" points="651.4699,-118 651.4699,-137 797.4699,-137 797.4699,-118 651.4699,-118"/>
<text text-anchor="middle" x="724.4699" y="-125" font-family="Helvetica,sans-Serif" font-size="10.00" fill="#000000">amr&#45;wind/core/ScratchField.H</text>
</a>
</g>
</g>
<!-- Node2&#45;&gt;Node18 -->
<g id="edge28" class="edge">
<title>Node2&#45;&gt;Node18</title>
<path fill="none" stroke="#191970" d="M656.7887,-184.9005C669.46,-174.1539 690.2047,-156.5603 705.3926,-143.6794"/>
<polygon fill="#191970" stroke="#191970" points="707.8094,-146.2191 713.1721,-137.0817 703.2817,-140.8805 707.8094,-146.2191"/>
</g>
<!-- Node20 -->
<g id="node21" class="node">
<title>Node20</title>
<polygon fill="#ffffff" stroke="#bfbfbf" points="1229.4699,-118 1229.4699,-137 1335.4699,-137 1335.4699,-118 1229.4699,-118"/>
<text text-anchor="middle" x="1282.4699" y="-125" font-family="Helvetica,sans-Serif" font-size="10.00" fill="#000000">AMReX_AmrCore.H</text>
</g>
<!-- Node2&#45;&gt;Node20 -->
<g id="edge35" class="edge">
<title>Node2&#45;&gt;Node20</title>
<path fill="none" stroke="#191970" d="M713.8447,-191.3592C821.2167,-185.7456 1035.6789,-171.7794 1215.4699,-143 1221.8913,-141.9721 1228.6132,-140.68 1235.2172,-139.2825"/>
<polygon fill="#191970" stroke="#191970" points="1236.429,-142.5992 1245.4375,-137.0227 1234.9176,-135.7642 1236.429,-142.5992"/>
</g>
<!-- Node6&#45;&gt;Node5 -->
<g id="edge7" class="edge">
<title>Node6&#45;&gt;Node5</title>
<path fill="none" stroke="#191970" d="M140.7158,-117.996C149.9466,-102.261 170.6807,-71.0441 197.4699,-56 227.9143,-38.9033 311.7368,-26.3959 378.5422,-18.7756"/>
<polygon fill="#191970" stroke="#191970" points="379.1376,-22.2309 388.6864,-17.6407 378.3592,-15.2743 379.1376,-22.2309"/>
</g>
<!-- Node6&#45;&gt;Node7 -->
<g id="edge8" class="edge">
<title>Node6&#45;&gt;Node7</title>
<path fill="none" stroke="#191970" d="M149.595,-117.8322C173.749,-101.8559 225.078,-70.2927 273.4699,-56 349.4283,-33.5655 576.5611,-19.0204 687.34,-13.0663"/>
<polygon fill="#191970" stroke="#191970" points="687.5664,-16.5593 697.3667,-12.5338 687.1951,-9.5692 687.5664,-16.5593"/>
</g>
<!-- Node8 -->
<g id="node9" class="node">
<title>Node8</title>
<polygon fill="#ffffff" stroke="#bfbfbf" points="29.4699,-56.5 29.4699,-75.5 145.4699,-75.5 145.4699,-56.5 29.4699,-56.5"/>
<text text-anchor="middle" x="87.4699" y="-63.5" font-family="Helvetica,sans-Serif" font-size="10.00" fill="#000000">AMReX_Interpolater.H</text>
</g>
<!-- Node6&#45;&gt;Node8 -->
<g id="edge9" class="edge">
<title>Node6&#45;&gt;Node8</title>
<path fill="none" stroke="#191970" d="M127.9699,-117.8906C120.8961,-108.8273 110.1157,-95.0149 101.4553,-83.9188"/>
<polygon fill="#191970" stroke="#191970" points="103.9875,-81.4746 95.0757,-75.7449 98.4693,-85.7815 103.9875,-81.4746"/>
</g>
<!-- Node9&#45;&gt;Node3 -->
<g id="edge11" class="edge">
<title>Node9&#45;&gt;Node3</title>
<path fill="none" stroke="#191970" d="M1159.6193,-117.938C1168.8049,-115.9423 1178.4528,-113.8759 1187.4699,-112 1268.1976,-95.2058 1308.7395,-131.7749 1369.4699,-76 1382.2066,-64.3026 1386.61,-44.6761 1388.0343,-29.8588"/>
<polygon fill="#191970" stroke="#191970" points="1391.5399,-29.8643 1388.6315,-19.6765 1384.5519,-29.4544 1391.5399,-29.8643"/>
</g>
<!-- Node9&#45;&gt;Node4 -->
<g id="edge13" class="edge">
<title>Node9&#45;&gt;Node4</title>
<path fill="none" stroke="#191970" d="M1158.4482,-117.9789C1167.972,-115.9182 1178.0545,-113.8149 1187.4699,-112 1282.6045,-93.6623 1307.0022,-92.5161 1402.4699,-76 1403.9296,-75.7475 1405.4105,-75.4902 1406.9052,-75.2296"/>
<polygon fill="#191970" stroke="#191970" points="1407.6448,-78.6534 1416.8888,-73.4767 1406.4342,-71.7588 1407.6448,-78.6534"/>
</g>
<!-- Node9&#45;&gt;Node5 -->
<g id="edge18" class="edge">
<title>Node9&#45;&gt;Node5</title>
<path fill="none" stroke="#191970" d="M1065.6036,-117.9431C991.7951,-104.1064 850.6808,-77.7672 730.4699,-56 663.8347,-43.934 587.5239,-30.4755 534.8943,-21.2497"/>
<polygon fill="#191970" stroke="#191970" points="535.4766,-17.7985 525.0226,-19.5202 534.2685,-24.6935 535.4766,-17.7985"/>
</g>
<!-- Node9&#45;&gt;Node7 -->
<g id="edge14" class="edge">
<title>Node9&#45;&gt;Node7</title>
<path fill="none" stroke="#191970" d="M1108.7792,-117.986C1095.4619,-102.2364 1066.4477,-70.9984 1034.4699,-56 995.978,-37.9463 883.3335,-23.6186 811.7267,-16.0075"/>
<polygon fill="#191970" stroke="#191970" points="811.7835,-12.4944 801.4733,-14.9336 811.0543,-19.4563 811.7835,-12.4944"/>
</g>
<!-- Node10 -->
<g id="node11" class="node">
<title>Node10</title>
<polygon fill="#ffffff" stroke="#bfbfbf" points="1518.4699,-56.5 1518.4699,-75.5 1570.4699,-75.5 1570.4699,-56.5 1518.4699,-56.5"/>
<text text-anchor="middle" x="1544.4699" y="-63.5" font-family="Helvetica,sans-Serif" font-size="10.00" fill="#000000">memory</text>
</g>
<!-- Node9&#45;&gt;Node10 -->
<g id="edge12" class="edge">
<title>Node9&#45;&gt;Node10</title>
<path fill="none" stroke="#191970" d="M1173.1091,-118.8064C1188.4663,-116.5181 1205.0963,-114.1028 1220.4699,-112 1345.4568,-94.9039 1380.8579,-101.4969 1508.0715,-76.0317"/>
<polygon fill="#191970" stroke="#191970" points="1509.1002,-79.3943 1518.2042,-73.9751 1507.7078,-72.5342 1509.1002,-79.3943"/>
</g>
<!-- Node11 -->
<g id="node12" class="node">
<title>Node11</title>
<polygon fill="#ffffff" stroke="#bfbfbf" points="1260.9699,-56.5 1260.9699,-75.5 1359.9699,-75.5 1359.9699,-56.5 1260.9699,-56.5"/>
<text text-anchor="middle" x="1310.4699" y="-63.5" font-family="Helvetica,sans-Serif" font-size="10.00" fill="#000000">AMReX_BCRec.H</text>
</g>
<!-- Node9&#45;&gt;Node11 -->
<g id="edge15" class="edge">
<title>Node9&#45;&gt;Node11</title>
<path fill="none" stroke="#191970" d="M1146.7824,-117.8906C1180.0964,-107.3298 1233.7507,-90.3208 1270.488,-78.6747"/>
<polygon fill="#191970" stroke="#191970" points="1271.8955,-81.9002 1280.3703,-75.5419 1269.7801,-75.2275 1271.8955,-81.9002"/>
</g>
<!-- Node12 -->
<g id="node13" class="node">
<title>Node12</title>
<polygon fill="#ffffff" stroke="#bfbfbf" points="1157.9699,-56.5 1157.9699,-75.5 1242.9699,-75.5 1242.9699,-56.5 1157.9699,-56.5"/>
<text text-anchor="middle" x="1200.4699" y="-63.5" font-family="Helvetica,sans-Serif" font-size="10.00" fill="#000000">AMReX_Gpu.H</text>
</g>
<!-- Node9&#45;&gt;Node12 -->
<g id="edge16" class="edge">
<title>Node9&#45;&gt;Node12</title>
<path fill="none" stroke="#191970" d="M1129.5949,-117.8906C1142.9099,-108.1421 1163.7293,-92.8994 1179.3647,-81.4521"/>
<polygon fill="#191970" stroke="#191970" points="1181.436,-84.2734 1187.4371,-75.5419 1177.3008,-78.6253 1181.436,-84.2734"/>
</g>
<!-- Node13 -->
<g id="node14" class="node">
<title>Node13</title>
<g id="a_node14"><a xlink:href="incflo__enums_8_h.html" target="_top" xlink:title="amr&#45;wind/incflo_enums.H">
<polygon fill="#ffffff" stroke="#000000" points="1664.4699,-56.5 1664.4699,-75.5 1792.4699,-75.5 1792.4699,-56.5 1664.4699,-56.5"/>
<text text-anchor="middle" x="1728.4699" y="-63.5" font-family="Helvetica,sans-Serif" font-size="10.00" fill="#000000">amr&#45;wind/incflo_enums.H</text>
</a>
</g>
</g>
<!-- Node9&#45;&gt;Node13 -->
<g id="edge17" class="edge">
<title>Node9&#45;&gt;Node13</title>
<path fill="none" stroke="#191970" d="M1173.0646,-118.46C1188.422,-116.1724 1205.0631,-113.8441 1220.4699,-112 1374.1793,-93.6019 1554.846,-78.8806 1653.9781,-71.3937"/>
<polygon fill="#191970" stroke="#191970" points="1654.482,-74.8658 1664.1916,-70.6262 1653.9574,-67.8855 1654.482,-74.8658"/>
</g>
<!-- Node14 -->
<g id="node15" class="node">
<title>Node14</title>
<g id="a_node15"><a xlink:href="_view_field_8_h.html" target="_top" xlink:title="amr&#45;wind/core/ViewField.H">
<polygon fill="#ffffff" stroke="#000000" points="891.4699,-56.5 891.4699,-75.5 1025.4699,-75.5 1025.4699,-56.5 891.4699,-56.5"/>
<text text-anchor="middle" x="958.4699" y="-63.5" font-family="Helvetica,sans-Serif" font-size="10.00" fill="#000000">amr&#45;wind/core/ViewField.H</text>
</a>
</g>
</g>
<!-- Node9&#45;&gt;Node14 -->
<g id="edge19" class="edge">
<title>Node9&#45;&gt;Node14</title>
<path fill="none" stroke="#191970" d="M1091.7824,-117.8906C1065.1142,-107.5103 1022.4417,-90.9004 992.5788,-79.2766"/>
<polygon fill="#191970" stroke="#191970" points="993.5726,-75.9076 982.9841,-75.5419 991.0334,-82.4309 993.5726,-75.9076"/>
</g>
<!-- Node14&#45;&gt;Node3 -->
<g id="edge20" class="edge">
<title>Node14&#45;&gt;Node3</title>
<path fill="none" stroke="#191970" d="M1025.6574,-57.25C1120.0503,-44.957 1288.1179,-23.0691 1357.3487,-14.053"/>
<polygon fill="#191970" stroke="#191970" points="1358.1206,-17.4821 1367.5848,-12.7199 1357.2165,-10.5407 1358.1206,-17.4821"/>
</g>
<!-- Node14&#45;&gt;Node5 -->
<g id="edge21" class="edge">
<title>Node14&#45;&gt;Node5</title>
<path fill="none" stroke="#191970" d="M891.3836,-58.3016C805.9722,-48.5003 658.0191,-31.522 562.2191,-20.5286"/>
<polygon fill="#191970" stroke="#191970" points="562.5831,-17.0475 552.2492,-19.3845 561.785,-24.0018 562.5831,-17.0475"/>
</g>
<!-- Node14&#45;&gt;Node7 -->
<g id="edge22" class="edge">
<title>Node14&#45;&gt;Node7</title>
<path fill="none" stroke="#191970" d="M922.5415,-56.3733C887.1862,-46.9001 833.0819,-32.4032 794.7911,-22.1435"/>
<polygon fill="#191970" stroke="#191970" points="795.4946,-18.7086 784.9295,-19.5011 793.6829,-25.4701 795.4946,-18.7086"/>
</g>
<!-- Node15 -->
<g id="node16" class="node">
<title>Node15</title>
<polygon fill="#ffffff" stroke="#bfbfbf" points="910.9699,-.5 910.9699,-19.5 1005.9699,-19.5 1005.9699,-.5 910.9699,-.5"/>
<text text-anchor="middle" x="958.4699" y="-7.5" font-family="Helvetica,sans-Serif" font-size="10.00" fill="#000000">AMReX_Vector.H</text>
</g>
<!-- Node14&#45;&gt;Node15 -->
<g id="edge23" class="edge">
<title>Node14&#45;&gt;Node15</title>
<path fill="none" stroke="#191970" d="M958.4699,-56.2455C958.4699,-48.9382 958.4699,-38.6944 958.4699,-29.7046"/>
<polygon fill="#191970" stroke="#191970" points="961.97,-29.6426 958.4699,-19.6427 954.97,-29.6427 961.97,-29.6426"/>
</g>
<!-- Node16&#45;&gt;Node3 -->
<g id="edge25" class="edge">
<title>Node16&#45;&gt;Node3</title>
<path fill="none" stroke="#191970" d="M533.4782,-121.8646C679.1883,-108.6176 1031.4086,-76.5662 1034.4699,-76 1066.7067,-70.0373 1073.4612,-63.0857 1105.4699,-56 1196.4054,-35.8698 1305.5933,-20.5921 1357.7738,-13.8274"/>
<polygon fill="#191970" stroke="#191970" points="1358.2486,-17.2952 1367.7221,-12.5516 1357.3581,-10.3521 1358.2486,-17.2952"/>
</g>
<!-- Node16&#45;&gt;Node5 -->
<g id="edge26" class="edge">
<title>Node16&#45;&gt;Node5</title>
<path fill="none" stroke="#191970" d="M471.3881,-117.8845C471.2247,-98.6913 470.8553,-55.286 470.6381,-29.7663"/>
<polygon fill="#191970" stroke="#191970" points="474.1379,-29.7182 470.5529,-19.7484 467.1382,-29.7778 474.1379,-29.7182"/>
</g>
<!-- Node16&#45;&gt;Node17 -->
<g id="edge27" class="edge">
<title>Node16&#45;&gt;Node17</title>
<path fill="none" stroke="#191970" d="M455.5324,-117.8906C439.0648,-107.9616 413.1441,-92.333 394.0495,-80.8201"/>
<polygon fill="#191970" stroke="#191970" points="395.6665,-77.7081 385.2955,-75.5419 392.0521,-83.7027 395.6665,-77.7081"/>
</g>
<!-- Node18&#45;&gt;Node3 -->
<g id="edge29" class="edge">
<title>Node18&#45;&gt;Node3</title>
<path fill="none" stroke="#191970" d="M797.7482,-123.9488C875.435,-118.7228 1001.0839,-106.0722 1105.4699,-76 1126.1114,-70.0535 1129.0023,-62.5199 1149.4699,-56 1222.4925,-32.7388 1312.0105,-19.3483 1357.9967,-13.518"/>
<polygon fill="#191970" stroke="#191970" points="1358.4266,-16.9915 1367.9222,-12.292 1357.5685,-10.0443 1358.4266,-16.9915"/>
</g>
<!-- Node18&#45;&gt;Node5 -->
<g id="edge30" class="edge">
<title>Node18&#45;&gt;Node5</title>
<path fill="none" stroke="#191970" d="M693.8154,-117.9191C665.0321,-108.5291 621.0458,-93.1587 584.4699,-76 551.8972,-60.7193 516.3052,-39.2939 493.7066,-25.0473"/>
<polygon fill="#191970" stroke="#191970" points="495.4637,-22.0169 485.1477,-19.6023 491.7064,-27.923 495.4637,-22.0169"/>
</g>
<!-- Node18&#45;&gt;Node7 -->
<g id="edge32" class="edge">
<title>Node18&#45;&gt;Node7</title>
<path fill="none" stroke="#191970" d="M726.5158,-117.8845C730.5994,-98.6913 739.8346,-55.286 745.2643,-29.7663"/>
<polygon fill="#191970" stroke="#191970" points="748.738,-30.2578 747.3958,-19.7484 741.8913,-28.801 748.738,-30.2578"/>
</g>
<!-- Node18&#45;&gt;Node14 -->
<g id="edge31" class="edge">
<title>Node18&#45;&gt;Node14</title>
<path fill="none" stroke="#191970" d="M760.7757,-117.9581C801.5918,-107.2308 867.9537,-89.7895 912.3929,-78.11"/>
<polygon fill="#191970" stroke="#191970" points="913.2971,-81.4913 922.079,-75.5643 911.5177,-74.7212 913.2971,-81.4913"/>
</g>
<!-- Node18&#45;&gt;Node15 -->
<g id="edge33" class="edge">
<title>Node18&#45;&gt;Node15</title>
<path fill="none" stroke="#191970" d="M743.6191,-117.8845C784.8583,-97.1768 882.2257,-48.285 930.4301,-24.0798"/>
<polygon fill="#191970" stroke="#191970" points="932.0183,-27.1989 939.3843,-19.5836 928.877,-20.9432 932.0183,-27.1989"/>
</g>
<!-- Node19 -->
<g id="node20" class="node">
<title>Node19</title>
<polygon fill="#ffffff" stroke="#bfbfbf" points="593.4699,-56.5 593.4699,-75.5 721.4699,-75.5 721.4699,-56.5 593.4699,-56.5"/>
<text text-anchor="middle" x="657.4699" y="-63.5" font-family="Helvetica,sans-Serif" font-size="10.00" fill="#000000">AMReX_PhysBCFunct.H</text>
</g>
<!-- Node18&#45;&gt;Node19 -->
<g id="edge34" class="edge">
<title>Node18&#45;&gt;Node19</title>
<path fill="none" stroke="#191970" d="M714.0012,-117.8906C703.7362,-108.4683 687.8796,-93.9134 675.5693,-82.6137"/>
<polygon fill="#191970" stroke="#191970" points="677.82,-79.9287 668.0863,-75.7449 673.0865,-85.0856 677.82,-79.9287"/>
</g>
<!-- Node21&#45;&gt;Node2 -->
<g id="edge47" class="edge">
<title>Node21&#45;&gt;Node2</title>
<path fill="none" stroke="#191970" d="M438.3899,-246.4639C486.5608,-234.3761 553.319,-217.624 597.879,-206.4423"/>
<polygon fill="#191970" stroke="#191970" points="598.7432,-209.834 607.5906,-204.0053 597.0395,-203.0445 598.7432,-209.834"/>
</g>
<!-- Node21&#45;&gt;Node5 -->
<g id="edge45" class="edge">
<title>Node21&#45;&gt;Node5</title>
<path fill="none" stroke="#191970" d="M308.7534,-249.2367C180.2768,-223.8282 -72.5861,-159.0533 20.4699,-56 43.9864,-29.9571 254.001,-17.8569 378.6454,-12.9249"/>
<polygon fill="#191970" stroke="#191970" points="379.0922,-16.4103 388.9492,-12.5258 378.8212,-9.4155 379.0922,-16.4103"/>
</g>
<!-- Node21&#45;&gt;Node6 -->
<g id="edge46" class="edge">
<title>Node21&#45;&gt;Node6</title>
<path fill="none" stroke="#191970" d="M345.9494,-246.4042C325.0279,-236.4837 297.3801,-222.9819 273.4699,-210 232.655,-187.8398 186.601,-159.6358 159.3588,-142.6049"/>
<polygon fill="#191970" stroke="#191970" points="160.8776,-139.426 150.5469,-137.0751 157.1568,-145.3552 160.8776,-139.426"/>
</g>
<!-- Node21&#45;&gt;Node7 -->
<g id="edge48" class="edge">
<title>Node21&#45;&gt;Node7</title>
<path fill="none" stroke="#191970" d="M364.1282,-246.3259C330.8388,-209.2911 254.9578,-113.138 306.4699,-56 319.0629,-42.0317 568.4391,-22.7225 687.378,-14.261"/>
<polygon fill="#191970" stroke="#191970" points="687.7082,-17.7465 697.4362,-13.5492 687.214,-10.764 687.7082,-17.7465"/>
</g>
<!-- Node22 -->
<g id="node23" class="node">
<title>Node22</title>
<g id="a_node23"><a xlink:href="_factory_8_h.html" target="_top" xlink:title="amr&#45;wind/core/Factory.H">
<polygon fill="#ffffff" stroke="#000000" points="1624.9699,-118 1624.9699,-137 1749.9699,-137 1749.9699,-118 1624.9699,-118"/>
<text text-anchor="middle" x="1687.4699" y="-125" font-family="Helvetica,sans-Serif" font-size="10.00" fill="#000000">amr&#45;wind/core/Factory.H</text>
</a>
</g>
</g>
<!-- Node21&#45;&gt;Node22 -->
<g id="edge39" class="edge">
<title>Node21&#45;&gt;Node22</title>
<path fill="none" stroke="#191970" d="M448.1107,-259.5981C674.5261,-253.2276 1381.0103,-231.8107 1481.4699,-210 1548.6279,-195.4194 1622.215,-161.1014 1660.6634,-141.6318"/>
<polygon fill="#191970" stroke="#191970" points="1662.3532,-144.6988 1669.6561,-137.0229 1659.1605,-138.4693 1662.3532,-144.6988"/>
</g>
<!-- Node22&#45;&gt;Node4 -->
<g id="edge41" class="edge">
<title>Node22&#45;&gt;Node4</title>
<path fill="none" stroke="#191970" d="M1651.6887,-117.8906C1611.7763,-107.1718 1547.1302,-89.8105 1503.7327,-78.1557"/>
<polygon fill="#191970" stroke="#191970" points="1504.5655,-74.7554 1493.9999,-75.5419 1502.7499,-81.5159 1504.5655,-74.7554"/>
</g>
<!-- Node22&#45;&gt;Node10 -->
<g id="edge40" class="edge">
<title>Node22&#45;&gt;Node10</title>
<path fill="none" stroke="#191970" d="M1665.1262,-117.8906C1641.1996,-107.6005 1603.039,-91.1888 1576.0483,-79.5809"/>
<polygon fill="#191970" stroke="#191970" points="1577.226,-76.2775 1566.6568,-75.5419 1574.4604,-82.708 1577.226,-76.2775"/>
</g>
<!-- Node23 -->
<g id="node24" class="node">
<title>Node23</title>
<polygon fill="#ffffff" stroke="#bfbfbf" points="1890.4699,-56.5 1890.4699,-75.5 1944.4699,-75.5 1944.4699,-56.5 1890.4699,-56.5"/>
<text text-anchor="middle" x="1917.4699" y="-63.5" font-family="Helvetica,sans-Serif" font-size="10.00" fill="#000000">iostream</text>
</g>
<!-- Node22&#45;&gt;Node23 -->
<g id="edge42" class="edge">
<title>Node22&#45;&gt;Node23</title>
<path fill="none" stroke="#191970" d="M1723.974,-117.9429C1761.0123,-108.2163 1820.253,-92.5784 1880.6519,-76.2023"/>
<polygon fill="#191970" stroke="#191970" points="1881.6188,-79.5666 1890.3523,-73.5685 1879.7845,-72.8112 1881.6188,-79.5666"/>
</g>
<!-- Node24 -->
<g id="node25" class="node">
<title>Node24</title>
<polygon fill="#ffffff" stroke="#bfbfbf" points="1962.9699,-56.5 1962.9699,-75.5 2049.9699,-75.5 2049.9699,-56.5 1962.9699,-56.5"/>
<text text-anchor="middle" x="2006.4699" y="-63.5" font-family="Helvetica,sans-Serif" font-size="10.00" fill="#000000">AMReX_Print.H</text>
</g>
<!-- Node22&#45;&gt;Node24 -->
<g id="edge43" class="edge">
<title>Node22&#45;&gt;Node24</title>
<path fill="none" stroke="#191970" d="M1736.9637,-117.9581C1795.4438,-106.6837 1892.3917,-87.9931 1952.6823,-76.3697"/>
<polygon fill="#191970" stroke="#191970" points="1953.6067,-79.756 1962.7633,-74.4262 1952.2815,-72.8826 1953.6067,-79.756"/>
</g>
<!-- Node25 -->
<g id="node26" class="node">
<title>Node25</title>
<polygon fill="#ffffff" stroke="#bfbfbf" points="1810.4699,-56.5 1810.4699,-75.5 1872.4699,-75.5 1872.4699,-56.5 1810.4699,-56.5"/>
<text text-anchor="middle" x="1841.4699" y="-63.5" font-family="Helvetica,sans-Serif" font-size="10.00" fill="#000000">AMReX.H</text>
</g>
<!-- Node22&#45;&gt;Node25 -->
<g id="edge44" class="edge">
<title>Node22&#45;&gt;Node25</title>
<path fill="none" stroke="#191970" d="M1711.5324,-117.8906C1737.5255,-107.5103 1779.1177,-90.9004 1808.2246,-79.2766"/>
<polygon fill="#191970" stroke="#191970" points="1809.5876,-82.5011 1817.5764,-75.5419 1806.9915,-76.0003 1809.5876,-82.5011"/>
</g>
<!-- Node26&#45;&gt;Node2 -->
<g id="edge55" class="edge">
<title>Node26&#45;&gt;Node2</title>
<path fill="none" stroke="#191970" d="M1308.2845,-256.4366C1182.5194,-244.6845 870.3901,-215.5176 723.8293,-201.8223"/>
<polygon fill="#191970" stroke="#191970" points="723.8502,-198.3091 713.5679,-200.8634 723.1988,-205.2787 723.8502,-198.3091"/>
</g>
<!-- Node26&#45;&gt;Node20 -->
<g id="edge50" class="edge">
<title>Node26&#45;&gt;Node20</title>
<path fill="none" stroke="#191970" d="M1356.7165,-251.8631C1343.455,-229.6501 1310.5619,-174.5541 1293.3544,-145.7316"/>
<polygon fill="#191970" stroke="#191970" points="1296.3025,-143.8417 1288.1712,-137.0496 1290.2921,-147.43 1296.3025,-143.8417"/>
</g>
<!-- Node27 -->
<g id="node28" class="node">
<title>Node27</title>
<g id="a_node28"><a xlink:href="_sim_time_8_h.html" target="_top" xlink:title="amr&#45;wind/core/SimTime.H">
<polygon fill="#ffffff" stroke="#000000" points="2346.9699,-185 2346.9699,-204 2477.9699,-204 2477.9699,-185 2346.9699,-185"/>
<text text-anchor="middle" x="2412.4699" y="-192" font-family="Helvetica,sans-Serif" font-size="10.00" fill="#000000">amr&#45;wind/core/SimTime.H</text>
</a>
</g>
</g>
<!-- Node26&#45;&gt;Node27 -->
<g id="edge51" class="edge">
<title>Node26&#45;&gt;Node27</title>
<path fill="none" stroke="#191970" d="M1416.7114,-258.0389C1590.6923,-246.9372 2135.0958,-212.1991 2336.534,-199.3454"/>
<polygon fill="#191970" stroke="#191970" points="2336.9696,-202.8249 2346.7264,-198.6951 2336.5238,-195.8391 2336.9696,-202.8249"/>
</g>
<!-- Node31 -->
<g id="node32" class="node">
<title>Node31</title>
<g id="a_node32"><a xlink:href="_p_d_e_base_8_h.html" target="_top" xlink:title="amr&#45;wind/equation_systems\l/PDEBase.H">
<polygon fill="#ffffff" stroke="#000000" points="1617.9699,-179.5 1617.9699,-209.5 1756.9699,-209.5 1756.9699,-179.5 1617.9699,-179.5"/>
<text text-anchor="start" x="1625.9699" y="-197.5" font-family="Helvetica,sans-Serif" font-size="10.00" fill="#000000">amr&#45;wind/equation_systems</text>
<text text-anchor="middle" x="1687.4699" y="-186.5" font-family="Helvetica,sans-Serif" font-size="10.00" fill="#000000">/PDEBase.H</text>
</a>
</g>
</g>
<!-- Node26&#45;&gt;Node31 -->
<g id="edge56" class="edge">
<title>Node26&#45;&gt;Node31</title>
<path fill="none" stroke="#191970" d="M1408.6893,-251.9717C1460.5068,-241.2893 1545.4509,-223.7778 1607.9784,-210.8875"/>
<polygon fill="#191970" stroke="#191970" points="1608.7254,-214.3072 1617.8128,-208.8601 1607.312,-207.4513 1608.7254,-214.3072"/>
</g>
<!-- Node35 -->
<g id="node36" class="node">
<title>Node35</title>
<g id="a_node36"><a xlink:href="_physics_8_h.html" target="_top" xlink:title="amr&#45;wind/core/Physics.H">
<polygon fill="#ffffff" stroke="#000000" points="1344.9699,-185 1344.9699,-204 1471.9699,-204 1471.9699,-185 1344.9699,-185"/>
<text text-anchor="middle" x="1408.4699" y="-192" font-family="Helvetica,sans-Serif" font-size="10.00" fill="#000000">amr&#45;wind/core/Physics.H</text>
</a>
</g>
</g>
<!-- Node26&#45;&gt;Node35 -->
<g id="edge68" class="edge">
<title>Node26&#45;&gt;Node35</title>
<path fill="none" stroke="#191970" d="M1369.0606,-251.9005C1376.0973,-241.6515 1387.4097,-225.1747 1396.1133,-212.4976"/>
<polygon fill="#191970" stroke="#191970" points="1399.1168,-214.3067 1401.8915,-204.0817 1393.3459,-210.3446 1399.1168,-214.3067"/>
</g>
<!-- Node28 -->
<g id="node29" class="node">
<title>Node28</title>
<polygon fill="#ffffff" stroke="#bfbfbf" points="2301.9699,-118 2301.9699,-137 2394.9699,-137 2394.9699,-118 2301.9699,-118"/>
<text text-anchor="middle" x="2348.4699" y="-125" font-family="Helvetica,sans-Serif" font-size="10.00" fill="#000000">AMReX_REAL.H</text>
</g>
<!-- Node27&#45;&gt;Node28 -->
<g id="edge52" class="edge">
<title>Node27&#45;&gt;Node28</title>
<path fill="none" stroke="#191970" d="M2403.3003,-184.9005C2393.225,-174.353 2376.8492,-157.2096 2364.613,-144.3998"/>
<polygon fill="#191970" stroke="#191970" points="2367.0608,-141.8952 2357.6225,-137.0817 2361.999,-146.7304 2367.0608,-141.8952"/>
</g>
<!-- Node29 -->
<g id="node30" class="node">
<title>Node29</title>
<polygon fill="#ffffff" stroke="#bfbfbf" points="2413.4699,-118 2413.4699,-137 2539.4699,-137 2539.4699,-118 2413.4699,-118"/>
<text text-anchor="middle" x="2476.4699" y="-125" font-family="Helvetica,sans-Serif" font-size="10.00" fill="#000000">AMReX_GpuQualifiers.H</text>
</g>
<!-- Node27&#45;&gt;Node29 -->
<g id="edge53" class="edge">
<title>Node27&#45;&gt;Node29</title>
<path fill="none" stroke="#191970" d="M2421.6395,-184.9005C2431.7148,-174.353 2448.0906,-157.2096 2460.3268,-144.3998"/>
<polygon fill="#191970" stroke="#191970" points="2462.9408,-146.7304 2467.3173,-137.0817 2457.879,-141.8952 2462.9408,-146.7304"/>
</g>
<!-- Node30 -->
<g id="node31" class="node">
<title>Node30</title>
<polygon fill="#ffffff" stroke="#bfbfbf" points="2557.4699,-118 2557.4699,-137 2667.4699,-137 2667.4699,-118 2557.4699,-118"/>
<text text-anchor="middle" x="2612.4699" y="-125" font-family="Helvetica,sans-Serif" font-size="10.00" fill="#000000">AMReX_Extension.H</text>
</g>
<!-- Node27&#45;&gt;Node30 -->
<g id="edge54" class="edge">
<title>Node27&#45;&gt;Node30</title>
<path fill="none" stroke="#191970" d="M2441.125,-184.9005C2476.0262,-173.2086 2535.1201,-153.4122 2573.9696,-140.3976"/>
<polygon fill="#191970" stroke="#191970" points="2575.4977,-143.577 2583.8679,-137.0817 2573.2741,-136.9395 2575.4977,-143.577"/>
</g>
<!-- Node31&#45;&gt;Node3 -->
<g id="edge57" class="edge">
<title>Node31&#45;&gt;Node3</title>
<path fill="none" stroke="#191970" d="M1757.3101,-190.5737C1867.307,-183.6686 2070.7134,-167.6983 2092.4699,-143 2118.0288,-113.9852 2118.905,-84.2187 2092.4699,-56 2069.1301,-31.0853 1552.3399,-14.6739 1419.4183,-10.8549"/>
<polygon fill="#191970" stroke="#191970" points="1419.233,-7.3483 1409.1376,-10.5628 1419.0341,-14.3455 1419.233,-7.3483"/>
</g>
<!-- Node31&#45;&gt;Node5 -->
<g id="edge66" class="edge">
<title>Node31&#45;&gt;Node5</title>
<path fill="none" stroke="#191970" d="M1617.8998,-188.7048C1577.9929,-185.5211 1526.9392,-181.6854 1481.4699,-179 1295.1785,-167.9976 819.9443,-200.6922 642.4699,-143 574.2187,-120.8134 512.475,-58.2232 485.2179,-27.4804"/>
<polygon fill="#191970" stroke="#191970" points="487.6695,-24.9656 478.4678,-19.7139 482.3861,-29.5576 487.6695,-24.9656"/>
</g>
<!-- Node31&#45;&gt;Node13 -->
<g id="edge67" class="edge">
<title>Node31&#45;&gt;Node13</title>
<path fill="none" stroke="#191970" d="M1721.2032,-179.3642C1735.7701,-170.9147 1751.3176,-158.8543 1759.4699,-143 1769.5895,-123.3198 1756.414,-99.5436 1744.2494,-83.6668"/>
<polygon fill="#191970" stroke="#191970" points="1746.7952,-81.2515 1737.7497,-75.7353 1741.381,-85.6884 1746.7952,-81.2515"/>
</g>
<!-- Node31&#45;&gt;Node22 -->
<g id="edge58" class="edge">
<title>Node31&#45;&gt;Node22</title>
<path fill="none" stroke="#191970" d="M1687.4699,-179.2967C1687.4699,-169.7699 1687.4699,-157.3954 1687.4699,-147.1306"/>
<polygon fill="#191970" stroke="#191970" points="1690.97,-147.0549 1687.4699,-137.055 1683.97,-147.055 1690.97,-147.0549"/>
</g>
<!-- Node32 -->
<g id="node33" class="node">
<title>Node32</title>
<g id="a_node33"><a xlink:href="_coll_mgr_8_h.html" target="_top" xlink:title="amr&#45;wind/core/CollMgr.H">
<polygon fill="#ffffff" stroke="#000000" points="1481.9699,-118 1481.9699,-137 1606.9699,-137 1606.9699,-118 1481.9699,-118"/>
<text text-anchor="middle" x="1544.4699" y="-125" font-family="Helvetica,sans-Serif" font-size="10.00" fill="#000000">amr&#45;wind/core/CollMgr.H</text>
</a>
</g>
</g>
<!-- Node31&#45;&gt;Node32 -->
<g id="edge59" class="edge">
<title>Node31&#45;&gt;Node32</title>
<path fill="none" stroke="#191970" d="M1655.3779,-179.4639C1631.0601,-168.0702 1597.8978,-152.5327 1574.1838,-141.4219"/>
<polygon fill="#191970" stroke="#191970" points="1575.5082,-138.1773 1564.9678,-137.1039 1572.5382,-144.5161 1575.5082,-138.1773"/>
</g>
<!-- Node33 -->
<g id="node34" class="node">
<title>Node33</title>
<g id="a_node34"><a xlink:href="_p_d_e_fields_8_h.html" target="_top" xlink:title="amr&#45;wind/equation_systems\l/PDEFields.H">
<polygon fill="#ffffff" stroke="#000000" points="2144.9699,-112.5 2144.9699,-142.5 2283.9699,-142.5 2283.9699,-112.5 2144.9699,-112.5"/>
<text text-anchor="start" x="2152.9699" y="-130.5" font-family="Helvetica,sans-Serif" font-size="10.00" fill="#000000">amr&#45;wind/equation_systems</text>
<text text-anchor="middle" x="2214.4699" y="-119.5" font-family="Helvetica,sans-Serif" font-size="10.00" fill="#000000">/PDEFields.H</text>
</a>
</g>
</g>
<!-- Node31&#45;&gt;Node33 -->
<g id="edge64" class="edge">
<title>Node31&#45;&gt;Node33</title>
<path fill="none" stroke="#191970" d="M1757.1006,-187.8565C1844.5155,-179.1829 1998.9633,-162.7545 2130.4699,-143 2131.9364,-142.7797 2133.4165,-142.553 2134.9069,-142.3206"/>
<polygon fill="#191970" stroke="#191970" points="2135.5434,-145.7633 2144.8581,-140.7148 2134.4282,-138.8527 2135.5434,-145.7633"/>
</g>
<!-- Node32&#45;&gt;Node3 -->
<g id="edge60" class="edge">
<title>Node32&#45;&gt;Node3</title>
<path fill="none" stroke="#191970" d="M1565.3748,-117.9887C1591.7901,-104.6828 1631.6328,-79.4981 1612.4699,-56 1588.4271,-26.5181 1474.8435,-15.3977 1419.2589,-11.6699"/>
<polygon fill="#191970" stroke="#191970" points="1419.4751,-8.1767 1409.274,-11.0384 1419.0331,-15.1627 1419.4751,-8.1767"/>
</g>
<!-- Node32&#45;&gt;Node4 -->
<g id="edge62" class="edge">
<title>Node32&#45;&gt;Node4</title>
<path fill="none" stroke="#191970" d="M1531.0324,-117.8906C1517.4004,-108.1421 1496.0853,-92.8994 1480.0777,-81.4521"/>
<polygon fill="#191970" stroke="#191970" points="1481.9831,-78.5118 1471.813,-75.5419 1477.9113,-84.2057 1481.9831,-78.5118"/>
</g>
<!-- Node32&#45;&gt;Node10 -->
<g id="edge61" class="edge">
<title>Node32&#45;&gt;Node10</title>
<path fill="none" stroke="#191970" d="M1544.4699,-117.8906C1544.4699,-109.3657 1544.4699,-96.6392 1544.4699,-85.9235"/>
<polygon fill="#191970" stroke="#191970" points="1547.97,-85.7448 1544.4699,-75.7449 1540.97,-85.7449 1547.97,-85.7448"/>
</g>
<!-- Node32&#45;&gt;Node15 -->
<g id="edge63" class="edge">
<title>Node32&#45;&gt;Node15</title>
<path fill="none" stroke="#191970" d="M1555.5832,-117.8948C1571.4004,-103.1061 1596.6807,-74.5328 1579.4699,-56 1560.4542,-35.5237 1166.969,-18.1133 1016.3862,-12.1761"/>
<polygon fill="#191970" stroke="#191970" points="1016.1017,-8.6624 1005.9725,-11.7686 1015.8279,-15.657 1016.1017,-8.6624"/>
</g>
<!-- Node34 -->
<g id="node35" class="node">
<title>Node34</title>
<polygon fill="#ffffff" stroke="#bfbfbf" points="2191.9699,-56.5 2191.9699,-75.5 2236.9699,-75.5 2236.9699,-56.5 2191.9699,-56.5"/>
<text text-anchor="middle" x="2214.4699" y="-63.5" font-family="Helvetica,sans-Serif" font-size="10.00" fill="#000000">iosfwd</text>
</g>
<!-- Node33&#45;&gt;Node34 -->
<g id="edge65" class="edge">
<title>Node33&#45;&gt;Node34</title>
<path fill="none" stroke="#191970" d="M2214.4699,-112.2977C2214.4699,-104.3834 2214.4699,-94.6043 2214.4699,-86.0759"/>
<polygon fill="#191970" stroke="#191970" points="2217.97,-85.8469 2214.4699,-75.8469 2210.97,-85.847 2217.97,-85.8469"/>
</g>
<!-- Node35&#45;&gt;Node7 -->
<g id="edge71" class="edge">
<title>Node35&#45;&gt;Node7</title>
<path fill="none" stroke="#191970" d="M1344.6933,-189.8306C1272.5674,-183.5107 1152.0683,-169.7997 1051.4699,-143 973.3945,-122.2005 956.2777,-108.8755 882.4699,-76 845.3506,-59.4663 803.514,-38.2685 776.845,-24.4201"/>
<polygon fill="#191970" stroke="#191970" points="778.2278,-21.1939 767.7427,-19.6728 774.9908,-27.4005 778.2278,-21.1939"/>
</g>
<!-- Node35&#45;&gt;Node22 -->
<g id="edge69" class="edge">
<title>Node35&#45;&gt;Node22</title>
<path fill="none" stroke="#191970" d="M1448.1475,-184.9717C1498.0006,-172.9998 1583.5719,-152.4504 1637.7435,-139.4415"/>
<polygon fill="#191970" stroke="#191970" points="1638.5712,-142.8423 1647.4775,-137.1039 1636.9366,-136.0358 1638.5712,-142.8423"/>
</g>
<!-- Node35&#45;&gt;Node32 -->
<g id="edge70" class="edge">
<title>Node35&#45;&gt;Node32</title>
<path fill="none" stroke="#191970" d="M1427.9554,-184.9005C1450.9812,-173.5569 1489.4927,-154.5844 1515.8932,-141.5783"/>
<polygon fill="#191970" stroke="#191970" points="1517.5968,-144.6407 1525.0206,-137.0817 1514.5033,-138.3613 1517.5968,-144.6407"/>
</g>
<!-- Node36 -->
<g id="node37" class="node">
<title>Node36</title>
<polygon fill="#ffffff" stroke="#bfbfbf" points="1353.4699,-118 1353.4699,-137 1463.4699,-137 1463.4699,-118 1353.4699,-118"/>
<text text-anchor="middle" x="1408.4699" y="-125" font-family="Helvetica,sans-Serif" font-size="10.00" fill="#000000">AMReX_Geometry.H</text>
</g>
<!-- Node35&#45;&gt;Node36 -->
<g id="edge72" class="edge">
<title>Node35&#45;&gt;Node36</title>
<path fill="none" stroke="#191970" d="M1408.4699,-184.9005C1408.4699,-175.149 1408.4699,-159.7597 1408.4699,-147.3695"/>
<polygon fill="#191970" stroke="#191970" points="1411.97,-147.0816 1408.4699,-137.0817 1404.97,-147.0817 1411.97,-147.0816"/>
</g>
</g>
</svg>
        <g id="navigator" transform="translate(0 0)" fill="#404254">
                <rect fill="#f2f5e9" fill-opacity="0.5" stroke="#606060" stroke-width=".5" x="0" y="0" width="60" height="60"/>
                <use id="zoomplus" xlink:href="#zoomPlus" x="17" y="9" onmousedown="handleZoom(evt,'in')"/>
                <use id="zoomminus" xlink:href="#zoomMin" x="42" y="9" onmousedown="handleZoom(evt,'out')"/>
                <use id="reset" xlink:href="#resetDef" x="30" y="36" onmousedown="handleReset()"/>
                <g id="arrowUp" xlink:href="#dirArrow" transform="translate(30 24)" onmousedown="handlePan(0,-1)">
                  <use xlink:href="#rim" fill="#404040">
                        <set attributeName="fill" to="#808080" begin="arrowUp.mouseover" end="arrowUp.mouseout"/>
                  </use>
                  <path fill="none" stroke="white" stroke-width="1.5" d="M0,-3.0v7 M-2.5,-0.5L0,-3.0L2.5,-0.5"/>
                </g>
                <g id="arrowRight" xlink:href="#dirArrow" transform="rotate(90) translate(36 -43)" onmousedown="handlePan(1,0)">
                  <use xlink:href="#rim" fill="#404040">
                        <set attributeName="fill" to="#808080" begin="arrowRight.mouseover" end="arrowRight.mouseout"/>
                  </use>
                  <path fill="none" stroke="white" stroke-width="1.5" d="M0,-3.0v7 M-2.5,-0.5L0,-3.0L2.5,-0.5"/>
                </g>
                <g id="arrowDown" xlink:href="#dirArrow" transform="rotate(180) translate(-30 -48)" onmousedown="handlePan(0,1)">
                  <use xlink:href="#rim" fill="#404040">
                        <set attributeName="fill" to="#808080" begin="arrowDown.mouseover" end="arrowDown.mouseout"/>
                  </use>
                  <path fill="none" stroke="white" stroke-width="1.5" d="M0,-3.0v7 M-2.5,-0.5L0,-3.0L2.5,-0.5"/>
                </g>
                <g id="arrowLeft" xlink:href="#dirArrow" transform="rotate(270) translate(-36 17)" onmousedown="handlePan(-1,0)">
                  <use xlink:href="#rim" fill="#404040">
                        <set attributeName="fill" to="#808080" begin="arrowLeft.mouseover" end="arrowLeft.mouseout"/>
                  </use>
                  <path fill="none" stroke="white" stroke-width="1.5" d="M0,-3.0v7 M-2.5,-0.5L0,-3.0L2.5,-0.5"/>
                </g>
        </g>
        <svg viewBox="0 0 15 15" width="100%" height="30px" preserveAspectRatio="xMaxYMin meet">
         <g id="arrow_out" transform="scale(0.3 0.3)">
          <a xlink:href="_m_m_s_forcing_8cpp__incl_org.svg" target="_base">
           <rect id="button" ry="5" rx="5" y="6" x="6" height="38" width="38"
                fill="#f2f5e9" fill-opacity="0.5" stroke="#606060" stroke-width="1.0"/>
           <path id="arrow"
             d="M 11.500037,31.436501 C 11.940474,20.09759 22.043105,11.32322 32.158766,21.979434 L 37.068811,17.246167 C 37.068811,17.246167 37.088388,32 37.088388,32 L 22.160133,31.978069 C 22.160133,31.978069 26.997745,27.140456 26.997745,27.140456 C 18.528582,18.264221 13.291696,25.230495 11.500037,31.436501 z"
             style="fill:#404040;"/>
          </a>
         </g>
        </svg>
</svg>
