<?xml version="1.0" encoding="UTF-8" standalone="no"?>
<!DOCTYPE svg PUBLIC "-//W3C//DTD SVG 1.1//EN"
 "http://www.w3.org/Graphics/SVG/1.1/DTD/svg11.dtd">
<!-- Generated by graphviz version 2.40.1 (20161225.0304)
 -->
<!-- Title: MMS.cpp Pages: 1 -->
<svg width="2450pt" height="386pt"
 viewBox="0.00 0.00 2449.50 386.00" xmlns="http://www.w3.org/2000/svg" xmlns:xlink="http://www.w3.org/1999/xlink">
<g id="graph0" class="graph" transform="scale(1 1) rotate(0) translate(4 382)">
<title>MMS.cpp</title>
<polygon fill="#ffffff" stroke="transparent" points="-4,4 -4,-382 2445.5,-382 2445.5,4 -4,4"/>
<!-- Node0 -->
<g id="node1" class="node">
<title>Node0</title>
<polygon fill="#bfbfbf" stroke="#000000" points="2106.5,-358.5 2106.5,-377.5 2165.5,-377.5 2165.5,-358.5 2106.5,-358.5"/>
<text text-anchor="middle" x="2136" y="-365.5" font-family="Helvetica,sans-Serif" font-size="10.00" fill="#000000">MMS.cpp</text>
</g>
<!-- Node1 -->
<g id="node2" class="node">
<title>Node1</title>
<g id="a_node2"><a xlink:href="_m_m_s_8_h.html" target="_top" xlink:title="amr&#45;wind/mms/MMS.H">
<polygon fill="#ffffff" stroke="#000000" points="1301,-302.5 1301,-321.5 1419,-321.5 1419,-302.5 1301,-302.5"/>
<text text-anchor="middle" x="1360" y="-309.5" font-family="Helvetica,sans-Serif" font-size="10.00" fill="#000000">amr&#45;wind/mms/MMS.H</text>
</a>
</g>
</g>
<!-- Node0&#45;&gt;Node1 -->
<g id="edge1" class="edge">
<title>Node0&#45;&gt;Node1</title>
<path fill="none" stroke="#191970" d="M2106.0554,-365.839C1993.2867,-357.7011 1592.3699,-328.769 1429.5192,-317.0169"/>
<polygon fill="#191970" stroke="#191970" points="1429.3684,-313.497 1419.1424,-316.268 1428.8645,-320.4788 1429.3684,-313.497"/>
</g>
<!-- Node20 -->
<g id="node21" class="node">
<title>Node20</title>
<g id="a_node21"><a xlink:href="_c_f_d_sim_8_h.html" target="_top" xlink:title="amr&#45;wind/CFDSim.H">
<polygon fill="#ffffff" stroke="#000000" points="1170,-246.5 1170,-265.5 1278,-265.5 1278,-246.5 1170,-246.5"/>
<text text-anchor="middle" x="1224" y="-253.5" font-family="Helvetica,sans-Serif" font-size="10.00" fill="#000000">amr&#45;wind/CFDSim.H</text>
</a>
</g>
</g>
<!-- Node0&#45;&gt;Node20 -->
<g id="edge68" class="edge">
<title>Node0&#45;&gt;Node20</title>
<path fill="none" stroke="#191970" d="M2106.1416,-367.6089C1964.9301,-365.594 1367.7898,-355.1626 1292,-322 1268.8171,-311.8561 1248.9444,-290.0759 1236.7731,-274.3042"/>
<polygon fill="#191970" stroke="#191970" points="1239.2845,-271.8131 1230.53,-265.8458 1233.6525,-275.9701 1239.2845,-271.8131"/>
</g>
<!-- Node30 -->
<g id="node31" class="node">
<title>Node30</title>
<polygon fill="#ffffff" stroke="#bfbfbf" points="2104.5,-56.5 2104.5,-75.5 2211.5,-75.5 2211.5,-56.5 2104.5,-56.5"/>
<text text-anchor="middle" x="2158" y="-63.5" font-family="Helvetica,sans-Serif" font-size="10.00" fill="#000000">AMReX_iMultiFab.H</text>
</g>
<!-- Node0&#45;&gt;Node30 -->
<g id="edge70" class="edge">
<title>Node0&#45;&gt;Node30</title>
<path fill="none" stroke="#191970" d="M2129.4692,-358.2931C2117.4401,-339.4432 2093,-296.1986 2093,-256 2093,-256 2093,-256 2093,-194.5 2093,-150.8581 2123.2228,-106.9854 2142.4515,-83.4888"/>
<polygon fill="#191970" stroke="#191970" points="2145.1759,-85.6875 2148.962,-75.7922 2139.8315,-81.1666 2145.1759,-85.6875"/>
</g>
<!-- Node36 -->
<g id="node37" class="node">
<title>Node36</title>
<polygon fill="#ffffff" stroke="#bfbfbf" points="2121,-302.5 2121,-321.5 2237,-321.5 2237,-302.5 2121,-302.5"/>
<text text-anchor="middle" x="2179" y="-309.5" font-family="Helvetica,sans-Serif" font-size="10.00" fill="#000000">AMReX_ParmParse.H</text>
</g>
<!-- Node0&#45;&gt;Node36 -->
<g id="edge69" class="edge">
<title>Node0&#45;&gt;Node36</title>
<path fill="none" stroke="#191970" d="M2143.49,-358.2455C2149.5326,-350.3761 2158.1903,-339.101 2165.4441,-329.6542"/>
<polygon fill="#191970" stroke="#191970" points="2168.2815,-331.7058 2171.5958,-321.6427 2162.7295,-327.4426 2168.2815,-331.7058"/>
</g>
<!-- Node37 -->
<g id="node38" class="node">
<title>Node37</title>
<polygon fill="#ffffff" stroke="#bfbfbf" points="2255.5,-302.5 2255.5,-321.5 2374.5,-321.5 2374.5,-302.5 2255.5,-302.5"/>
<text text-anchor="middle" x="2315" y="-309.5" font-family="Helvetica,sans-Serif" font-size="10.00" fill="#000000">AMReX_MultiFabUtil.H</text>
</g>
<!-- Node0&#45;&gt;Node37 -->
<g id="edge71" class="edge">
<title>Node0&#45;&gt;Node37</title>
<path fill="none" stroke="#191970" d="M2165.5582,-358.7527C2195.3448,-349.434 2241.5249,-334.9866 2274.6651,-324.6187"/>
<polygon fill="#191970" stroke="#191970" points="2276,-327.8685 2284.4988,-321.5423 2273.9099,-321.1878 2276,-327.8685"/>
</g>
<!-- Node38 -->
<g id="node39" class="node">
<title>Node38</title>
<polygon fill="#ffffff" stroke="#bfbfbf" points="2392.5,-302.5 2392.5,-321.5 2441.5,-321.5 2441.5,-302.5 2392.5,-302.5"/>
<text text-anchor="middle" x="2417" y="-309.5" font-family="Helvetica,sans-Serif" font-size="10.00" fill="#000000">masa.h</text>
</g>
<!-- Node0&#45;&gt;Node38 -->
<g id="edge72" class="edge">
<title>Node0&#45;&gt;Node38</title>
<path fill="none" stroke="#191970" d="M2165.6201,-363.5951C2210.5766,-356.675 2298.8666,-342.1688 2382.327,-322.2266"/>
<polygon fill="#191970" stroke="#191970" points="2383.3195,-325.5875 2392.2149,-319.8324 2381.6721,-318.7841 2383.3195,-325.5875"/>
</g>
<!-- Node2 -->
<g id="node3" class="node">
<title>Node2</title>
<g id="a_node3"><a xlink:href="_physics_8_h.html" target="_top" xlink:title="amr&#45;wind/core/Physics.H">
<polygon fill="#ffffff" stroke="#000000" points="299.5,-185 299.5,-204 426.5,-204 426.5,-185 299.5,-185"/>
<text text-anchor="middle" x="363" y="-192" font-family="Helvetica,sans-Serif" font-size="10.00" fill="#000000">amr&#45;wind/core/Physics.H</text>
</a>
</g>
</g>
<!-- Node1&#45;&gt;Node2 -->
<g id="edge2" class="edge">
<title>Node1&#45;&gt;Node2</title>
<path fill="none" stroke="#191970" d="M1300.9876,-305.0452C1128.6766,-284.7377 626.4904,-225.5533 436.7528,-203.192"/>
<polygon fill="#191970" stroke="#191970" points="436.9422,-199.6902 426.6013,-201.9956 436.1228,-206.6421 436.9422,-199.6902"/>
</g>
<!-- Node14 -->
<g id="node15" class="node">
<title>Node14</title>
<g id="a_node15"><a xlink:href="_field_8_h.html" target="_top" xlink:title="amr&#45;wind/core/Field.H">
<polygon fill="#ffffff" stroke="#000000" points="1333.5,-118 1333.5,-137 1446.5,-137 1446.5,-118 1333.5,-118"/>
<text text-anchor="middle" x="1390" y="-125" font-family="Helvetica,sans-Serif" font-size="10.00" fill="#000000">amr&#45;wind/core/Field.H</text>
</a>
</g>
</g>
<!-- Node1&#45;&gt;Node14 -->
<g id="edge16" class="edge">
<title>Node1&#45;&gt;Node14</title>
<path fill="none" stroke="#191970" d="M1361.5707,-302.3402C1366.2992,-273.26 1380.4657,-186.136 1386.8359,-146.959"/>
<polygon fill="#191970" stroke="#191970" points="1390.2945,-147.4963 1388.4449,-137.0641 1383.3852,-146.3727 1390.2945,-147.4963"/>
</g>
<!-- Node1&#45;&gt;Node20 -->
<g id="edge30" class="edge">
<title>Node1&#45;&gt;Node20</title>
<path fill="none" stroke="#191970" d="M1336.6208,-302.3733C1314.4955,-293.2629 1281.0866,-279.5062 1256.3981,-269.3404"/>
<polygon fill="#191970" stroke="#191970" points="1257.6536,-266.0723 1247.0742,-265.5011 1254.9883,-272.5451 1257.6536,-266.0723"/>
</g>
<!-- Node3 -->
<g id="node4" class="node">
<title>Node3</title>
<g id="a_node4"><a xlink:href="_factory_8_h.html" target="_top" xlink:title="amr&#45;wind/core/Factory.H">
<polygon fill="#ffffff" stroke="#000000" points="228.5,-118 228.5,-137 353.5,-137 353.5,-118 228.5,-118"/>
<text text-anchor="middle" x="291" y="-125" font-family="Helvetica,sans-Serif" font-size="10.00" fill="#000000">amr&#45;wind/core/Factory.H</text>
</a>
</g>
</g>
<!-- Node2&#45;&gt;Node3 -->
<g id="edge3" class="edge">
<title>Node2&#45;&gt;Node3</title>
<path fill="none" stroke="#191970" d="M352.6842,-184.9005C341.2425,-174.2535 322.5785,-156.8856 308.7727,-144.0385"/>
<polygon fill="#191970" stroke="#191970" points="311.0017,-141.3317 301.2967,-137.0817 306.2331,-146.4562 311.0017,-141.3317"/>
</g>
<!-- Node9 -->
<g id="node10" class="node">
<title>Node9</title>
<g id="a_node10"><a xlink:href="_coll_mgr_8_h.html" target="_top" xlink:title="amr&#45;wind/core/CollMgr.H">
<polygon fill="#ffffff" stroke="#000000" points="371.5,-118 371.5,-137 496.5,-137 496.5,-118 371.5,-118"/>
<text text-anchor="middle" x="434" y="-125" font-family="Helvetica,sans-Serif" font-size="10.00" fill="#000000">amr&#45;wind/core/CollMgr.H</text>
</a>
</g>
</g>
<!-- Node2&#45;&gt;Node9 -->
<g id="edge9" class="edge">
<title>Node2&#45;&gt;Node9</title>
<path fill="none" stroke="#191970" d="M373.1726,-184.9005C384.4553,-174.2535 402.8601,-156.8856 416.4742,-144.0385"/>
<polygon fill="#191970" stroke="#191970" points="418.9754,-146.4905 423.8463,-137.0817 414.1712,-141.3994 418.9754,-146.4905"/>
</g>
<!-- Node12 -->
<g id="node13" class="node">
<title>Node12</title>
<polygon fill="#ffffff" stroke="#bfbfbf" points="1413,-.5 1413,-19.5 1517,-19.5 1517,-.5 1413,-.5"/>
<text text-anchor="middle" x="1465" y="-7.5" font-family="Helvetica,sans-Serif" font-size="10.00" fill="#000000">AMReX_MultiFab.H</text>
</g>
<!-- Node2&#45;&gt;Node12 -->
<g id="edge14" class="edge">
<title>Node2&#45;&gt;Node12</title>
<path fill="none" stroke="#191970" d="M323.5141,-184.9263C248.6269,-165.0934 98.461,-116.2933 157,-56 204.1953,-7.3903 1308.4175,-24.7865 1376,-20 1384.677,-19.3855 1393.812,-18.5619 1402.7904,-17.6501"/>
<polygon fill="#191970" stroke="#191970" points="1403.2512,-21.121 1412.828,-16.5896 1402.5156,-14.1597 1403.2512,-21.121"/>
</g>
<!-- Node13 -->
<g id="node14" class="node">
<title>Node13</title>
<polygon fill="#ffffff" stroke="#bfbfbf" points="0,-118 0,-137 110,-137 110,-118 0,-118"/>
<text text-anchor="middle" x="55" y="-125" font-family="Helvetica,sans-Serif" font-size="10.00" fill="#000000">AMReX_Geometry.H</text>
</g>
<!-- Node2&#45;&gt;Node13 -->
<g id="edge15" class="edge">
<title>Node2&#45;&gt;Node13</title>
<path fill="none" stroke="#191970" d="M318.0442,-184.9352C269.9866,-174.6819 191.5694,-157.869 124,-143 118.6041,-141.8126 112.9732,-140.5637 107.3566,-139.3117"/>
<polygon fill="#191970" stroke="#191970" points="107.8388,-135.8331 97.3161,-137.0671 106.3116,-142.6645 107.8388,-135.8331"/>
</g>
<!-- Node4 -->
<g id="node5" class="node">
<title>Node4</title>
<polygon fill="#ffffff" stroke="#bfbfbf" points="500,-56.5 500,-75.5 552,-75.5 552,-56.5 500,-56.5"/>
<text text-anchor="middle" x="526" y="-63.5" font-family="Helvetica,sans-Serif" font-size="10.00" fill="#000000">memory</text>
</g>
<!-- Node3&#45;&gt;Node4 -->
<g id="edge4" class="edge">
<title>Node3&#45;&gt;Node4</title>
<path fill="none" stroke="#191970" d="M327.4609,-117.9581C371.7143,-106.3769 445.8692,-86.9704 489.9407,-75.4368"/>
<polygon fill="#191970" stroke="#191970" points="490.8755,-78.8101 499.6636,-72.8923 489.1033,-72.0382 490.8755,-78.8101"/>
</g>
<!-- Node5 -->
<g id="node6" class="node">
<title>Node5</title>
<polygon fill="#ffffff" stroke="#bfbfbf" points="730.5,-56.5 730.5,-75.5 813.5,-75.5 813.5,-56.5 730.5,-56.5"/>
<text text-anchor="middle" x="772" y="-63.5" font-family="Helvetica,sans-Serif" font-size="10.00" fill="#000000">unordered_map</text>
</g>
<!-- Node3&#45;&gt;Node5 -->
<g id="edge5" class="edge">
<title>Node3&#45;&gt;Node5</title>
<path fill="none" stroke="#191970" d="M331.4111,-117.9222C341.3727,-115.7704 352.041,-113.6413 362,-112 429.6945,-100.8439 625.6652,-80.6255 720.0229,-71.1548"/>
<polygon fill="#191970" stroke="#191970" points="720.5927,-74.6154 730.194,-70.1361 719.895,-67.6502 720.5927,-74.6154"/>
</g>
<!-- Node6 -->
<g id="node7" class="node">
<title>Node6</title>
<polygon fill="#ffffff" stroke="#bfbfbf" points="166,-56.5 166,-75.5 220,-75.5 220,-56.5 166,-56.5"/>
<text text-anchor="middle" x="193" y="-63.5" font-family="Helvetica,sans-Serif" font-size="10.00" fill="#000000">iostream</text>
</g>
<!-- Node3&#45;&gt;Node6 -->
<g id="edge6" class="edge">
<title>Node3&#45;&gt;Node6</title>
<path fill="none" stroke="#191970" d="M275.6875,-117.8906C259.9376,-108.0067 235.1877,-92.4749 216.8663,-80.9773"/>
<polygon fill="#191970" stroke="#191970" points="218.5357,-77.8929 208.205,-75.5419 214.8148,-83.8221 218.5357,-77.8929"/>
</g>
<!-- Node7 -->
<g id="node8" class="node">
<title>Node7</title>
<polygon fill="#ffffff" stroke="#bfbfbf" points="238.5,-56.5 238.5,-75.5 325.5,-75.5 325.5,-56.5 238.5,-56.5"/>
<text text-anchor="middle" x="282" y="-63.5" font-family="Helvetica,sans-Serif" font-size="10.00" fill="#000000">AMReX_Print.H</text>
</g>
<!-- Node3&#45;&gt;Node7 -->
<g id="edge7" class="edge">
<title>Node3&#45;&gt;Node7</title>
<path fill="none" stroke="#191970" d="M289.5938,-117.8906C288.3462,-109.3657 286.4838,-96.6392 284.9156,-85.9235"/>
<polygon fill="#191970" stroke="#191970" points="288.3373,-85.1326 283.4261,-75.7449 281.411,-86.1463 288.3373,-85.1326"/>
</g>
<!-- Node8 -->
<g id="node9" class="node">
<title>Node8</title>
<polygon fill="#ffffff" stroke="#bfbfbf" points="344,-56.5 344,-75.5 406,-75.5 406,-56.5 344,-56.5"/>
<text text-anchor="middle" x="375" y="-63.5" font-family="Helvetica,sans-Serif" font-size="10.00" fill="#000000">AMReX.H</text>
</g>
<!-- Node3&#45;&gt;Node8 -->
<g id="edge8" class="edge">
<title>Node3&#45;&gt;Node8</title>
<path fill="none" stroke="#191970" d="M304.125,-117.8906C317.44,-108.1421 338.2594,-92.8994 353.8947,-81.4521"/>
<polygon fill="#191970" stroke="#191970" points="355.9661,-84.2734 361.9672,-75.5419 351.8309,-78.6253 355.9661,-84.2734"/>
</g>
<!-- Node9&#45;&gt;Node4 -->
<g id="edge11" class="edge">
<title>Node9&#45;&gt;Node4</title>
<path fill="none" stroke="#191970" d="M448.375,-117.8906C463.0931,-108.0519 486.1832,-92.6167 503.3589,-81.1351"/>
<polygon fill="#191970" stroke="#191970" points="505.3575,-84.0091 511.7259,-75.5419 501.4673,-78.1896 505.3575,-84.0091"/>
</g>
<!-- Node9&#45;&gt;Node5 -->
<g id="edge12" class="edge">
<title>Node9&#45;&gt;Node5</title>
<path fill="none" stroke="#191970" d="M486.4416,-117.9581C550.1138,-106.3728 656.824,-86.9566 720.2037,-75.4245"/>
<polygon fill="#191970" stroke="#191970" points="721.1591,-78.8082 730.371,-73.5745 719.9059,-71.9213 721.1591,-78.8082"/>
</g>
<!-- Node10 -->
<g id="node11" class="node">
<title>Node10</title>
<polygon fill="#ffffff" stroke="#bfbfbf" points="1326.5,-.5 1326.5,-19.5 1367.5,-19.5 1367.5,-.5 1326.5,-.5"/>
<text text-anchor="middle" x="1347" y="-7.5" font-family="Helvetica,sans-Serif" font-size="10.00" fill="#000000">string</text>
</g>
<!-- Node9&#45;&gt;Node10 -->
<g id="edge10" class="edge">
<title>Node9&#45;&gt;Node10</title>
<path fill="none" stroke="#191970" d="M438.2982,-117.9104C446.1283,-101.7503 464.4001,-69.5339 491,-56 570.4777,-15.5621 1188.8463,-35.432 1316.066,-19.3118"/>
<polygon fill="#191970" stroke="#191970" points="1316.8626,-22.7306 1326.2144,-17.7513 1315.7986,-15.8119 1316.8626,-22.7306"/>
</g>
<!-- Node11 -->
<g id="node12" class="node">
<title>Node11</title>
<polygon fill="#ffffff" stroke="#bfbfbf" points="1213.5,-.5 1213.5,-19.5 1308.5,-19.5 1308.5,-.5 1213.5,-.5"/>
<text text-anchor="middle" x="1261" y="-7.5" font-family="Helvetica,sans-Serif" font-size="10.00" fill="#000000">AMReX_Vector.H</text>
</g>
<!-- Node9&#45;&gt;Node11 -->
<g id="edge13" class="edge">
<title>Node9&#45;&gt;Node11</title>
<path fill="none" stroke="#191970" d="M434.0492,-117.9556C434.703,-102.1612 438.5385,-70.8589 458,-56 487.566,-33.4263 1024.3934,-16.5581 1203.4305,-11.5399"/>
<polygon fill="#191970" stroke="#191970" points="1203.5477,-15.038 1213.4464,-11.261 1203.3529,-8.0408 1203.5477,-15.038"/>
</g>
<!-- Node14&#45;&gt;Node4 -->
<g id="edge18" class="edge">
<title>Node14&#45;&gt;Node4</title>
<path fill="none" stroke="#191970" d="M1333.4484,-118.0683C1318.091,-115.7814 1301.439,-113.5514 1286,-112 981.7799,-81.4296 903.3954,-104.7734 599,-76 587.1045,-74.8756 574.1712,-73.2404 562.541,-71.6169"/>
<polygon fill="#191970" stroke="#191970" points="562.69,-68.1024 552.2938,-70.1441 561.6941,-75.0312 562.69,-68.1024"/>
</g>
<!-- Node14&#45;&gt;Node5 -->
<g id="edge19" class="edge">
<title>Node14&#45;&gt;Node5</title>
<path fill="none" stroke="#191970" d="M1351.1207,-117.9666C1340.7386,-115.7082 1329.4888,-113.5177 1319,-112 1103.4579,-80.8126 1043.8103,-104.5986 823.6085,-75.9141"/>
<polygon fill="#191970" stroke="#191970" points="824.0533,-72.4425 813.6804,-74.5996 823.1345,-79.3819 824.0533,-72.4425"/>
</g>
<!-- Node14&#45;&gt;Node10 -->
<g id="edge17" class="edge">
<title>Node14&#45;&gt;Node10</title>
<path fill="none" stroke="#191970" d="M1349.5852,-117.9445C1339.6237,-115.792 1328.9564,-113.6569 1319,-112 1250.1535,-100.5427 1053.4369,-128.1031 1007,-76 1001.0858,-69.3641 1001.0882,-62.638 1007,-56 1051.2323,-6.3338 1233.4597,-32.6548 1316.1313,-19.4701"/>
<polygon fill="#191970" stroke="#191970" points="1317.0079,-22.866 1326.174,-17.5525 1315.695,-15.9903 1317.0079,-22.866"/>
</g>
<!-- Node14&#45;&gt;Node12 -->
<g id="edge20" class="edge">
<title>Node14&#45;&gt;Node12</title>
<path fill="none" stroke="#191970" d="M1375.4448,-117.9538C1356.2916,-104.1851 1326.7466,-77.9898 1342,-56 1350.8727,-43.2089 1385.2808,-30.9745 1415.4558,-22.3428"/>
<polygon fill="#191970" stroke="#191970" points="1416.785,-25.6062 1425.4838,-19.558 1414.9119,-18.8614 1416.785,-25.6062"/>
</g>
<!-- Node15 -->
<g id="node16" class="node">
<title>Node15</title>
<polygon fill="#ffffff" stroke="#bfbfbf" points="1016.5,-56.5 1016.5,-75.5 1115.5,-75.5 1115.5,-56.5 1016.5,-56.5"/>
<text text-anchor="middle" x="1066" y="-63.5" font-family="Helvetica,sans-Serif" font-size="10.00" fill="#000000">AMReX_BCRec.H</text>
</g>
<!-- Node14&#45;&gt;Node15 -->
<g id="edge21" class="edge">
<title>Node14&#45;&gt;Node15</title>
<path fill="none" stroke="#191970" d="M1347.6264,-117.9946C1338.2147,-115.9545 1328.2788,-113.8558 1319,-112 1282.9226,-104.7845 1188.4241,-87.7917 1125.6881,-76.6028"/>
<polygon fill="#191970" stroke="#191970" points="1125.9804,-73.0998 1115.5214,-74.7908 1124.7521,-79.9912 1125.9804,-73.0998"/>
</g>
<!-- Node16 -->
<g id="node17" class="node">
<title>Node16</title>
<polygon fill="#ffffff" stroke="#bfbfbf" points="1133.5,-56.5 1133.5,-75.5 1218.5,-75.5 1218.5,-56.5 1133.5,-56.5"/>
<text text-anchor="middle" x="1176" y="-63.5" font-family="Helvetica,sans-Serif" font-size="10.00" fill="#000000">AMReX_Gpu.H</text>
</g>
<!-- Node14&#45;&gt;Node16 -->
<g id="edge22" class="edge">
<title>Node14&#45;&gt;Node16</title>
<path fill="none" stroke="#191970" d="M1356.5625,-117.8906C1319.5,-107.2395 1259.6151,-90.0296 1219.0688,-78.3772"/>
<polygon fill="#191970" stroke="#191970" points="1219.7804,-74.9402 1209.2027,-75.5419 1217.847,-81.6679 1219.7804,-74.9402"/>
</g>
<!-- Node17 -->
<g id="node18" class="node">
<title>Node17</title>
<g id="a_node18"><a xlink:href="incflo__enums_8_h.html" target="_top" xlink:title="amr&#45;wind/incflo_enums.H">
<polygon fill="#ffffff" stroke="#000000" points="832,-56.5 832,-75.5 960,-75.5 960,-56.5 832,-56.5"/>
<text text-anchor="middle" x="896" y="-63.5" font-family="Helvetica,sans-Serif" font-size="10.00" fill="#000000">amr&#45;wind/incflo_enums.H</text>
</a>
</g>
</g>
<!-- Node14&#45;&gt;Node17 -->
<g id="edge23" class="edge">
<title>Node14&#45;&gt;Node17</title>
<path fill="none" stroke="#191970" d="M1349.971,-117.9481C1339.9028,-115.7702 1329.0899,-113.6227 1319,-112 1166.7899,-87.5216 1127.1344,-93.8034 974,-76 972.7414,-75.8537 971.4714,-75.7048 970.1928,-75.5538"/>
<polygon fill="#191970" stroke="#191970" points="970.6047,-72.0782 960.2585,-74.36 969.7694,-79.0282 970.6047,-72.0782"/>
</g>
<!-- Node18 -->
<g id="node19" class="node">
<title>Node18</title>
<g id="a_node19"><a xlink:href="_field_desc_types_8_h.html" target="_top" xlink:title="amr&#45;wind/core/FieldDescTypes.H">
<polygon fill="#ffffff" stroke="#000000" points="1729.5,-.5 1729.5,-19.5 1892.5,-19.5 1892.5,-.5 1729.5,-.5"/>
<text text-anchor="middle" x="1811" y="-7.5" font-family="Helvetica,sans-Serif" font-size="10.00" fill="#000000">amr&#45;wind/core/FieldDescTypes.H</text>
</a>
</g>
</g>
<!-- Node14&#45;&gt;Node18 -->
<g id="edge24" class="edge">
<title>Node14&#45;&gt;Node18</title>
<path fill="none" stroke="#191970" d="M1416.2661,-117.9955C1456.9797,-103.4661 1537.9399,-75.3808 1608,-56 1656.4824,-42.5883 1712.2615,-30.161 1753.0668,-21.613"/>
<polygon fill="#191970" stroke="#191970" points="1754.0271,-24.9883 1763.1049,-19.5252 1752.6016,-18.135 1754.0271,-24.9883"/>
</g>
<!-- Node19 -->
<g id="node20" class="node">
<title>Node19</title>
<g id="a_node20"><a xlink:href="_view_field_8_h.html" target="_top" xlink:title="amr&#45;wind/core/ViewField.H">
<polygon fill="#ffffff" stroke="#000000" points="1351,-56.5 1351,-75.5 1485,-75.5 1485,-56.5 1351,-56.5"/>
<text text-anchor="middle" x="1418" y="-63.5" font-family="Helvetica,sans-Serif" font-size="10.00" fill="#000000">amr&#45;wind/core/ViewField.H</text>
</a>
</g>
</g>
<!-- Node14&#45;&gt;Node19 -->
<g id="edge25" class="edge">
<title>Node14&#45;&gt;Node19</title>
<path fill="none" stroke="#191970" d="M1394.375,-117.8906C1398.3788,-109.0965 1404.4183,-95.8312 1409.3885,-84.9145"/>
<polygon fill="#191970" stroke="#191970" points="1412.6051,-86.2963 1413.5633,-75.7449 1406.2343,-83.3957 1412.6051,-86.2963"/>
</g>
<!-- Node19&#45;&gt;Node10 -->
<g id="edge26" class="edge">
<title>Node19&#45;&gt;Node10</title>
<path fill="none" stroke="#191970" d="M1405.6327,-56.2455C1395.0446,-47.8943 1379.5936,-35.7076 1367.2107,-25.9408"/>
<polygon fill="#191970" stroke="#191970" points="1369.2447,-23.0875 1359.2255,-19.6427 1364.9097,-28.5837 1369.2447,-23.0875"/>
</g>
<!-- Node19&#45;&gt;Node11 -->
<g id="edge29" class="edge">
<title>Node19&#45;&gt;Node11</title>
<path fill="none" stroke="#191970" d="M1391.0107,-56.3733C1365.1301,-47.1419 1325.8752,-33.1402 1297.2711,-22.9375"/>
<polygon fill="#191970" stroke="#191970" points="1298.2317,-19.5642 1287.6371,-19.5011 1295.88,-26.1573 1298.2317,-19.5642"/>
</g>
<!-- Node19&#45;&gt;Node12 -->
<g id="edge28" class="edge">
<title>Node19&#45;&gt;Node12</title>
<path fill="none" stroke="#191970" d="M1426.1868,-56.2455C1432.8589,-48.2958 1442.4479,-36.8706 1450.4253,-27.3656"/>
<polygon fill="#191970" stroke="#191970" points="1453.1592,-29.5525 1456.907,-19.6427 1447.7974,-25.0524 1453.1592,-29.5525"/>
</g>
<!-- Node19&#45;&gt;Node18 -->
<g id="edge27" class="edge">
<title>Node19&#45;&gt;Node18</title>
<path fill="none" stroke="#191970" d="M1485.1126,-56.4369C1554.2084,-46.5912 1661.727,-31.2705 1734.181,-20.9462"/>
<polygon fill="#191970" stroke="#191970" points="1734.758,-24.3994 1744.1642,-19.5237 1733.7705,-17.4694 1734.758,-24.3994"/>
</g>
<!-- Node20&#45;&gt;Node2 -->
<g id="edge67" class="edge">
<title>Node20&#45;&gt;Node2</title>
<path fill="none" stroke="#191970" d="M1169.7666,-252.6618C1054.5162,-245.4949 776.7144,-227.8341 544,-210 508.6621,-207.2919 469.4715,-203.9746 436.6198,-201.1048"/>
<polygon fill="#191970" stroke="#191970" points="436.9068,-197.6166 426.6393,-200.2297 436.2953,-204.5899 436.9068,-197.6166"/>
</g>
<!-- Node21 -->
<g id="node22" class="node">
<title>Node21</title>
<polygon fill="#ffffff" stroke="#bfbfbf" points="1171,-118 1171,-137 1277,-137 1277,-118 1171,-118"/>
<text text-anchor="middle" x="1224" y="-125" font-family="Helvetica,sans-Serif" font-size="10.00" fill="#000000">AMReX_AmrCore.H</text>
</g>
<!-- Node20&#45;&gt;Node21 -->
<g id="edge31" class="edge">
<title>Node20&#45;&gt;Node21</title>
<path fill="none" stroke="#191970" d="M1224,-246.3416C1224,-225.4114 1224,-175.504 1224,-147.4762"/>
<polygon fill="#191970" stroke="#191970" points="1227.5001,-147.2704 1224,-137.2705 1220.5001,-147.2705 1227.5001,-147.2704"/>
</g>
<!-- Node22 -->
<g id="node23" class="node">
<title>Node22</title>
<g id="a_node23"><a xlink:href="_sim_time_8_h.html" target="_top" xlink:title="amr&#45;wind/core/SimTime.H">
<polygon fill="#ffffff" stroke="#000000" points="980.5,-185 980.5,-204 1111.5,-204 1111.5,-185 980.5,-185"/>
<text text-anchor="middle" x="1046" y="-192" font-family="Helvetica,sans-Serif" font-size="10.00" fill="#000000">amr&#45;wind/core/SimTime.H</text>
</a>
</g>
</g>
<!-- Node20&#45;&gt;Node22 -->
<g id="edge32" class="edge">
<title>Node20&#45;&gt;Node22</title>
<path fill="none" stroke="#191970" d="M1196.1875,-246.3906C1165.7517,-235.8749 1116.8123,-218.966 1083.1174,-207.3243"/>
<polygon fill="#191970" stroke="#191970" points="1084.212,-203.9995 1073.6172,-204.0419 1081.926,-210.6157 1084.212,-203.9995"/>
</g>
<!-- Node26 -->
<g id="node27" class="node">
<title>Node26</title>
<g id="a_node27"><a xlink:href="_field_repo_8_h.html" target="_top" xlink:title="amr&#45;wind/core/FieldRepo.H">
<polygon fill="#ffffff" stroke="#000000" points="1445,-185 1445,-204 1581,-204 1581,-185 1445,-185"/>
<text text-anchor="middle" x="1513" y="-192" font-family="Helvetica,sans-Serif" font-size="10.00" fill="#000000">amr&#45;wind/core/FieldRepo.H</text>
</a>
</g>
</g>
<!-- Node20&#45;&gt;Node26 -->
<g id="edge36" class="edge">
<title>Node20&#45;&gt;Node26</title>
<path fill="none" stroke="#191970" d="M1268.8392,-246.4581C1319.8843,-235.5956 1403.2798,-217.8488 1458.1553,-206.1711"/>
<polygon fill="#191970" stroke="#191970" points="1459.0032,-209.5691 1468.0556,-204.0643 1457.5461,-202.7224 1459.0032,-209.5691"/>
</g>
<!-- Node33 -->
<g id="node34" class="node">
<title>Node33</title>
<g id="a_node34"><a xlink:href="_p_d_e_base_8_h.html" target="_top" xlink:title="amr&#45;wind/equation_systems\l/PDEBase.H">
<polygon fill="#ffffff" stroke="#000000" points="553.5,-179.5 553.5,-209.5 692.5,-209.5 692.5,-179.5 553.5,-179.5"/>
<text text-anchor="start" x="561.5" y="-197.5" font-family="Helvetica,sans-Serif" font-size="10.00" fill="#000000">amr&#45;wind/equation_systems</text>
<text text-anchor="middle" x="623" y="-186.5" font-family="Helvetica,sans-Serif" font-size="10.00" fill="#000000">/PDEBase.H</text>
</a>
</g>
</g>
<!-- Node20&#45;&gt;Node33 -->
<g id="edge59" class="edge">
<title>Node20&#45;&gt;Node33</title>
<path fill="none" stroke="#191970" d="M1169.8711,-250.461C1063.6473,-239.5912 827.4372,-215.4199 703.0927,-202.6958"/>
<polygon fill="#191970" stroke="#191970" points="703.1808,-199.1867 692.8764,-201.6504 702.4681,-206.1503 703.1808,-199.1867"/>
</g>
<!-- Node23 -->
<g id="node24" class="node">
<title>Node23</title>
<polygon fill="#ffffff" stroke="#bfbfbf" points="1059.5,-118 1059.5,-137 1152.5,-137 1152.5,-118 1059.5,-118"/>
<text text-anchor="middle" x="1106" y="-125" font-family="Helvetica,sans-Serif" font-size="10.00" fill="#000000">AMReX_REAL.H</text>
</g>
<!-- Node22&#45;&gt;Node23 -->
<g id="edge33" class="edge">
<title>Node22&#45;&gt;Node23</title>
<path fill="none" stroke="#191970" d="M1054.5965,-184.9005C1063.953,-174.4525 1079.1052,-157.5325 1090.5401,-144.7635"/>
<polygon fill="#191970" stroke="#191970" points="1093.3555,-146.8661 1097.4194,-137.0817 1088.1408,-142.1963 1093.3555,-146.8661"/>
</g>
<!-- Node24 -->
<g id="node25" class="node">
<title>Node24</title>
<polygon fill="#ffffff" stroke="#bfbfbf" points="787,-118 787,-137 913,-137 913,-118 787,-118"/>
<text text-anchor="middle" x="850" y="-125" font-family="Helvetica,sans-Serif" font-size="10.00" fill="#000000">AMReX_GpuQualifiers.H</text>
</g>
<!-- Node22&#45;&gt;Node24 -->
<g id="edge34" class="edge">
<title>Node22&#45;&gt;Node24</title>
<path fill="none" stroke="#191970" d="M1017.918,-184.9005C983.7149,-173.2086 925.8028,-153.4122 887.7303,-140.3976"/>
<polygon fill="#191970" stroke="#191970" points="888.6245,-137.0045 878.0299,-137.0817 886.3602,-143.6282 888.6245,-137.0045"/>
</g>
<!-- Node25 -->
<g id="node26" class="node">
<title>Node25</title>
<polygon fill="#ffffff" stroke="#bfbfbf" points="931,-118 931,-137 1041,-137 1041,-118 931,-118"/>
<text text-anchor="middle" x="986" y="-125" font-family="Helvetica,sans-Serif" font-size="10.00" fill="#000000">AMReX_Extension.H</text>
</g>
<!-- Node22&#45;&gt;Node25 -->
<g id="edge35" class="edge">
<title>Node22&#45;&gt;Node25</title>
<path fill="none" stroke="#191970" d="M1037.4035,-184.9005C1028.047,-174.4525 1012.8948,-157.5325 1001.4599,-144.7635"/>
<polygon fill="#191970" stroke="#191970" points="1003.8592,-142.1963 994.5806,-137.0817 998.6445,-146.8661 1003.8592,-142.1963"/>
</g>
<!-- Node26&#45;&gt;Node5 -->
<g id="edge38" class="edge">
<title>Node26&#45;&gt;Node5</title>
<path fill="none" stroke="#191970" d="M1453.6061,-184.9373C1415.1524,-177.1769 1364.8258,-164.0039 1324,-143 1304.6187,-133.0288 1306.2334,-120.1037 1286,-112 1193.0053,-74.7547 940.631,-89.0426 823.8755,-75.8535"/>
<polygon fill="#191970" stroke="#191970" points="824.0391,-72.3468 813.6828,-74.582 823.1726,-79.293 824.0391,-72.3468"/>
</g>
<!-- Node26&#45;&gt;Node10 -->
<g id="edge37" class="edge">
<title>Node26&#45;&gt;Node10</title>
<path fill="none" stroke="#191970" d="M1508.7697,-184.802C1500.776,-167.5946 1481.8162,-131.685 1455,-112 1412.5099,-80.8092 1373.104,-118.5536 1342,-76 1332.2735,-62.6931 1335.0163,-43.578 1339.3087,-29.341"/>
<polygon fill="#191970" stroke="#191970" points="1342.724,-30.1765 1342.7124,-19.5817 1336.1144,-27.8713 1342.724,-30.1765"/>
</g>
<!-- Node26&#45;&gt;Node12 -->
<g id="edge57" class="edge">
<title>Node26&#45;&gt;Node12</title>
<path fill="none" stroke="#191970" d="M1513.0609,-184.761C1512.9105,-161.6659 1510.784,-102.0636 1494,-56 1490.3837,-46.0751 1484.3886,-36.0385 1478.785,-27.8838"/>
<polygon fill="#191970" stroke="#191970" points="1481.473,-25.6284 1472.7723,-19.5828 1475.804,-29.7347 1481.473,-25.6284"/>
</g>
<!-- Node26&#45;&gt;Node14 -->
<g id="edge44" class="edge">
<title>Node26&#45;&gt;Node14</title>
<path fill="none" stroke="#191970" d="M1495.3771,-184.9005C1474.7349,-173.6564 1440.332,-154.9166 1416.476,-141.9219"/>
<polygon fill="#191970" stroke="#191970" points="1418.0462,-138.7916 1407.5902,-137.0817 1414.6977,-144.9388 1418.0462,-138.7916"/>
</g>
<!-- Node26&#45;&gt;Node18 -->
<g id="edge39" class="edge">
<title>Node26&#45;&gt;Node18</title>
<path fill="none" stroke="#191970" d="M1563.5227,-184.9913C1601.1909,-176.794 1653.2863,-163.0774 1696,-143 1743.4183,-120.7112 1762.7149,-118.7562 1793,-76 1802.642,-62.3875 1807.1221,-43.8451 1809.2021,-29.8799"/>
<polygon fill="#191970" stroke="#191970" points="1812.69,-30.1892 1810.4084,-19.8429 1805.7401,-29.3538 1812.69,-30.1892"/>
</g>
<!-- Node26&#45;&gt;Node21 -->
<g id="edge56" class="edge">
<title>Node26&#45;&gt;Node21</title>
<path fill="none" stroke="#191970" d="M1471.9003,-184.9717C1420.2603,-172.9998 1331.622,-152.4504 1275.5087,-139.4415"/>
<polygon fill="#191970" stroke="#191970" points="1275.958,-135.9529 1265.4259,-137.1039 1274.377,-142.772 1275.958,-135.9529"/>
</g>
<!-- Node27 -->
<g id="node28" class="node">
<title>Node27</title>
<g id="a_node28"><a xlink:href="_field_utils_8_h.html" target="_top" xlink:title="amr&#45;wind/core/FieldUtils.H">
<polygon fill="#ffffff" stroke="#000000" points="1953.5,-56.5 1953.5,-75.5 2086.5,-75.5 2086.5,-56.5 1953.5,-56.5"/>
<text text-anchor="middle" x="2020" y="-63.5" font-family="Helvetica,sans-Serif" font-size="10.00" fill="#000000">amr&#45;wind/core/FieldUtils.H</text>
</a>
</g>
</g>
<!-- Node26&#45;&gt;Node27 -->
<g id="edge40" class="edge">
<title>Node26&#45;&gt;Node27</title>
<path fill="none" stroke="#191970" d="M1581.4698,-191.431C1707.6199,-185.1712 1966.7699,-169.259 1998,-143 2014.5767,-129.0619 2019.1255,-103.5752 2020.1465,-85.7556"/>
<polygon fill="#191970" stroke="#191970" points="2023.6496,-85.6714 2020.4008,-75.587 2016.6518,-85.4964 2023.6496,-85.6714"/>
</g>
<!-- Node29 -->
<g id="node30" class="node">
<title>Node29</title>
<g id="a_node30"><a xlink:href="_int_field_8_h.html" target="_top" xlink:title="amr&#45;wind/core/IntField.H">
<polygon fill="#ffffff" stroke="#000000" points="1865,-118 1865,-137 1989,-137 1989,-118 1865,-118"/>
<text text-anchor="middle" x="1927" y="-125" font-family="Helvetica,sans-Serif" font-size="10.00" fill="#000000">amr&#45;wind/core/IntField.H</text>
</a>
</g>
</g>
<!-- Node26&#45;&gt;Node29 -->
<g id="edge45" class="edge">
<title>Node26&#45;&gt;Node29</title>
<path fill="none" stroke="#191970" d="M1581.141,-185.1377C1649.5211,-175.503 1757.7901,-159.5953 1851,-143 1857.7696,-141.7947 1864.8624,-140.4536 1871.88,-139.0787"/>
<polygon fill="#191970" stroke="#191970" points="1872.9372,-142.4371 1882.0615,-137.0522 1871.5707,-135.5717 1872.9372,-142.4371"/>
</g>
<!-- Node26&#45;&gt;Node30 -->
<g id="edge58" class="edge">
<title>Node26&#45;&gt;Node30</title>
<path fill="none" stroke="#191970" d="M1581.3462,-191.037C1700.4072,-184.4294 1940.8172,-168.379 2021,-143 2026.95,-141.1167 2094.395,-102.5821 2132.3799,-80.7561"/>
<polygon fill="#191970" stroke="#191970" points="2134.4228,-83.6188 2141.347,-75.5996 2130.9333,-77.5505 2134.4228,-83.6188"/>
</g>
<!-- Node31 -->
<g id="node32" class="node">
<title>Node31</title>
<g id="a_node32"><a xlink:href="_scratch_field_8_h.html" target="_top" xlink:title="amr&#45;wind/core/ScratchField.H">
<polygon fill="#ffffff" stroke="#000000" points="1541,-118 1541,-137 1687,-137 1687,-118 1541,-118"/>
<text text-anchor="middle" x="1614" y="-125" font-family="Helvetica,sans-Serif" font-size="10.00" fill="#000000">amr&#45;wind/core/ScratchField.H</text>
</a>
</g>
</g>
<!-- Node26&#45;&gt;Node31 -->
<g id="edge49" class="edge">
<title>Node26&#45;&gt;Node31</title>
<path fill="none" stroke="#191970" d="M1527.4708,-184.9005C1544.1209,-173.8554 1571.674,-155.5776 1591.2114,-142.6172"/>
<polygon fill="#191970" stroke="#191970" points="1593.1576,-145.5263 1599.556,-137.0817 1589.288,-139.693 1593.1576,-145.5263"/>
</g>
<!-- Node27&#45;&gt;Node12 -->
<g id="edge42" class="edge">
<title>Node27&#45;&gt;Node12</title>
<path fill="none" stroke="#191970" d="M1953.3299,-59.2729C1845.1809,-48.3606 1633.0087,-26.9522 1527.5619,-16.3126"/>
<polygon fill="#191970" stroke="#191970" points="1527.6916,-12.8079 1517.3907,-15.2863 1526.9888,-19.7726 1527.6916,-12.8079"/>
</g>
<!-- Node27&#45;&gt;Node18 -->
<g id="edge41" class="edge">
<title>Node27&#45;&gt;Node18</title>
<path fill="none" stroke="#191970" d="M1984.0716,-56.3733C1948.7163,-46.9001 1894.612,-32.4032 1856.3212,-22.1435"/>
<polygon fill="#191970" stroke="#191970" points="1857.0247,-18.7086 1846.4595,-19.5011 1855.213,-25.4701 1857.0247,-18.7086"/>
</g>
<!-- Node28 -->
<g id="node29" class="node">
<title>Node28</title>
<polygon fill="#ffffff" stroke="#bfbfbf" points="1962,-.5 1962,-19.5 2078,-19.5 2078,-.5 1962,-.5"/>
<text text-anchor="middle" x="2020" y="-7.5" font-family="Helvetica,sans-Serif" font-size="10.00" fill="#000000">AMReX_Interpolater.H</text>
</g>
<!-- Node27&#45;&gt;Node28 -->
<g id="edge43" class="edge">
<title>Node27&#45;&gt;Node28</title>
<path fill="none" stroke="#191970" d="M2020,-56.2455C2020,-48.9382 2020,-38.6944 2020,-29.7046"/>
<polygon fill="#191970" stroke="#191970" points="2023.5001,-29.6426 2020,-19.6427 2016.5001,-29.6427 2023.5001,-29.6426"/>
</g>
<!-- Node29&#45;&gt;Node10 -->
<g id="edge46" class="edge">
<title>Node29&#45;&gt;Node10</title>
<path fill="none" stroke="#191970" d="M1908.9133,-117.9582C1878.0745,-102.1676 1812.9253,-70.8708 1754,-56 1602.3776,-17.7354 1558.8878,-41.5245 1404,-20 1395.3688,-18.8005 1386.0432,-17.2659 1377.4845,-15.761"/>
<polygon fill="#191970" stroke="#191970" points="1377.9858,-12.295 1367.5233,-13.9645 1376.7433,-19.1839 1377.9858,-12.295"/>
</g>
<!-- Node29&#45;&gt;Node18 -->
<g id="edge47" class="edge">
<title>Node29&#45;&gt;Node18</title>
<path fill="none" stroke="#191970" d="M1925.7279,-117.5472C1923.3421,-102.5543 1916.915,-74.0168 1901,-56 1888.084,-41.3783 1869.4116,-30.7807 1852.4189,-23.4697"/>
<polygon fill="#191970" stroke="#191970" points="1853.2476,-20.0303 1842.6641,-19.5394 1850.6315,-26.5231 1853.2476,-20.0303"/>
</g>
<!-- Node29&#45;&gt;Node30 -->
<g id="edge48" class="edge">
<title>Node29&#45;&gt;Node30</title>
<path fill="none" stroke="#191970" d="M1962.8403,-117.9581C2003.0485,-107.2533 2068.3691,-89.8628 2112.2369,-78.1837"/>
<polygon fill="#191970" stroke="#191970" points="2113.3127,-81.5193 2122.0756,-75.5643 2111.5118,-74.7549 2113.3127,-81.5193"/>
</g>
<!-- Node31&#45;&gt;Node10 -->
<g id="edge50" class="edge">
<title>Node31&#45;&gt;Node10</title>
<path fill="none" stroke="#191970" d="M1600.1756,-117.7914C1578.4274,-102.8643 1534.5168,-74.1088 1494,-56 1455.1269,-38.6258 1407.7422,-25.069 1377.4724,-17.3021"/>
<polygon fill="#191970" stroke="#191970" points="1378.073,-13.8443 1367.5213,-14.7996 1376.3657,-20.6329 1378.073,-13.8443"/>
</g>
<!-- Node31&#45;&gt;Node11 -->
<g id="edge54" class="edge">
<title>Node31&#45;&gt;Node11</title>
<path fill="none" stroke="#191970" d="M1542.004,-117.955C1473.7871,-108.1798 1376.7525,-92.1666 1342,-76 1316.5095,-64.142 1292.1953,-42.4516 1276.9759,-27.1803"/>
<polygon fill="#191970" stroke="#191970" points="1279.3604,-24.6115 1269.888,-19.8655 1274.3333,-29.4827 1279.3604,-24.6115"/>
</g>
<!-- Node31&#45;&gt;Node12 -->
<g id="edge53" class="edge">
<title>Node31&#45;&gt;Node12</title>
<path fill="none" stroke="#191970" d="M1675.0033,-117.9195C1724.3454,-107.6014 1781.4609,-88.1775 1754,-56 1739.4512,-38.9523 1607.6566,-23.5513 1527.1562,-15.6261"/>
<polygon fill="#191970" stroke="#191970" points="1527.4137,-12.1347 1517.1219,-14.6507 1526.7364,-19.1019 1527.4137,-12.1347"/>
</g>
<!-- Node31&#45;&gt;Node18 -->
<g id="edge51" class="edge">
<title>Node31&#45;&gt;Node18</title>
<path fill="none" stroke="#191970" d="M1675.1111,-117.9268C1706.3564,-110.5932 1743.488,-97.8615 1771,-76 1786.3628,-63.7924 1797.2392,-43.952 1803.7344,-29.2072"/>
<polygon fill="#191970" stroke="#191970" points="1807.1372,-30.1336 1807.6911,-19.5533 1800.6601,-27.4789 1807.1372,-30.1336"/>
</g>
<!-- Node31&#45;&gt;Node19 -->
<g id="edge52" class="edge">
<title>Node31&#45;&gt;Node19</title>
<path fill="none" stroke="#191970" d="M1583.375,-117.8906C1549.7176,-107.3298 1495.5101,-90.3208 1458.3941,-78.6747"/>
<polygon fill="#191970" stroke="#191970" points="1458.9991,-75.1963 1448.4099,-75.5419 1456.9034,-81.8753 1458.9991,-75.1963"/>
</g>
<!-- Node32 -->
<g id="node33" class="node">
<title>Node32</title>
<polygon fill="#ffffff" stroke="#bfbfbf" points="1617,-56.5 1617,-75.5 1745,-75.5 1745,-56.5 1617,-56.5"/>
<text text-anchor="middle" x="1681" y="-63.5" font-family="Helvetica,sans-Serif" font-size="10.00" fill="#000000">AMReX_PhysBCFunct.H</text>
</g>
<!-- Node31&#45;&gt;Node32 -->
<g id="edge55" class="edge">
<title>Node31&#45;&gt;Node32</title>
<path fill="none" stroke="#191970" d="M1624.4688,-117.8906C1634.7337,-108.4683 1650.5903,-93.9134 1662.9006,-82.6137"/>
<polygon fill="#191970" stroke="#191970" points="1665.3834,-85.0856 1670.3837,-75.7449 1660.6499,-79.9287 1665.3834,-85.0856"/>
</g>
<!-- Node33&#45;&gt;Node3 -->
<g id="edge61" class="edge">
<title>Node33&#45;&gt;Node3</title>
<path fill="none" stroke="#191970" d="M553.408,-181.1631C500.7844,-170.9823 426.778,-156.4604 362,-143 356.2231,-141.7996 350.1875,-140.5205 344.1804,-139.2316"/>
<polygon fill="#191970" stroke="#191970" points="344.6622,-135.755 334.1487,-137.0652 343.1845,-142.5973 344.6622,-135.755"/>
</g>
<!-- Node33&#45;&gt;Node9 -->
<g id="edge62" class="edge">
<title>Node33&#45;&gt;Node9</title>
<path fill="none" stroke="#191970" d="M580.5847,-179.4639C547.4891,-167.7316 501.9988,-151.6054 470.5112,-140.4431"/>
<polygon fill="#191970" stroke="#191970" points="471.4082,-137.0477 460.8134,-137.0053 469.0693,-143.6454 471.4082,-137.0477"/>
</g>
<!-- Node33&#45;&gt;Node10 -->
<g id="edge60" class="edge">
<title>Node33&#45;&gt;Node10</title>
<path fill="none" stroke="#191970" d="M584.8386,-179.471C569.2387,-171.2068 552.8135,-159.2664 544,-143 522.2074,-102.7791 557.2725,-74.7472 599,-56 741.8782,8.1918 1143.8785,-47.2743 1316.1908,-19.4941"/>
<polygon fill="#191970" stroke="#191970" points="1316.9678,-22.9112 1326.211,-17.7332 1315.7561,-16.0169 1316.9678,-22.9112"/>
</g>
<!-- Node33&#45;&gt;Node17 -->
<g id="edge66" class="edge">
<title>Node33&#45;&gt;Node17</title>
<path fill="none" stroke="#191970" d="M660.4766,-179.4276C682.6772,-169.9735 711.0567,-156.9586 735,-143 755.3535,-131.1342 757.3038,-123.2573 778,-112 802.8442,-98.4864 832.5117,-86.9398 855.8838,-78.7951"/>
<polygon fill="#191970" stroke="#191970" points="857.1504,-82.0611 865.4825,-75.517 854.888,-75.4368 857.1504,-82.0611"/>
</g>
<!-- Node33&#45;&gt;Node18 -->
<g id="edge65" class="edge">
<title>Node33&#45;&gt;Node18</title>
<path fill="none" stroke="#191970" d="M657.045,-179.453C672.6592,-170.9027 690.0842,-158.7318 701,-143 723.618,-110.4032 690.4894,-81.3619 721,-56 725.7836,-52.0236 1457.5278,-23.5664 1719.2481,-13.5095"/>
<polygon fill="#191970" stroke="#191970" points="1719.6249,-16.9977 1729.4831,-13.1164 1719.3561,-10.0029 1719.6249,-16.9977"/>
</g>
<!-- Node34 -->
<g id="node35" class="node">
<title>Node34</title>
<g id="a_node35"><a xlink:href="_p_d_e_fields_8_h.html" target="_top" xlink:title="amr&#45;wind/equation_systems\l/PDEFields.H">
<polygon fill="#ffffff" stroke="#000000" points="553.5,-112.5 553.5,-142.5 692.5,-142.5 692.5,-112.5 553.5,-112.5"/>
<text text-anchor="start" x="561.5" y="-130.5" font-family="Helvetica,sans-Serif" font-size="10.00" fill="#000000">amr&#45;wind/equation_systems</text>
<text text-anchor="middle" x="623" y="-119.5" font-family="Helvetica,sans-Serif" font-size="10.00" fill="#000000">/PDEFields.H</text>
</a>
</g>
</g>
<!-- Node33&#45;&gt;Node34 -->
<g id="edge63" class="edge">
<title>Node33&#45;&gt;Node34</title>
<path fill="none" stroke="#191970" d="M623,-179.2967C623,-171.5013 623,-161.7991 623,-152.9064"/>
<polygon fill="#191970" stroke="#191970" points="626.5001,-152.6431 623,-142.6432 619.5001,-152.6432 626.5001,-152.6431"/>
</g>
<!-- Node35 -->
<g id="node36" class="node">
<title>Node35</title>
<polygon fill="#ffffff" stroke="#bfbfbf" points="608.5,-56.5 608.5,-75.5 653.5,-75.5 653.5,-56.5 608.5,-56.5"/>
<text text-anchor="middle" x="631" y="-63.5" font-family="Helvetica,sans-Serif" font-size="10.00" fill="#000000">iosfwd</text>
</g>
<!-- Node34&#45;&gt;Node35 -->
<g id="edge64" class="edge">
<title>Node34&#45;&gt;Node35</title>
<path fill="none" stroke="#191970" d="M624.9775,-112.2977C626.0186,-104.2945 627.3077,-94.3843 628.4258,-85.7889"/>
<polygon fill="#191970" stroke="#191970" points="631.8998,-86.2149 629.7191,-75.8469 624.9583,-85.3119 631.8998,-86.2149"/>
</g>
</g>
</svg>
