<?xml version="1.0" encoding="UTF-8" standalone="no"?>
<!DOCTYPE svg PUBLIC "-//W3C//DTD SVG 1.1//EN"
 "http://www.w3.org/Graphics/SVG/1.1/DTD/svg11.dtd">
<!-- Generated by graphviz version 2.40.1 (20161225.0304)
 -->
<!-- Title: MOL.H Pages: 1 -->
<svg width="610pt" height="196pt"
 viewBox="0.00 0.00 610.00 196.00" xmlns="http://www.w3.org/2000/svg" xmlns:xlink="http://www.w3.org/1999/xlink">
<g id="graph0" class="graph" transform="scale(1 1) rotate(0) translate(4 192)">
<title>MOL.H</title>
<polygon fill="#ffffff" stroke="transparent" points="-4,4 -4,-192 606,-192 606,4 -4,4"/>
<!-- Node20 -->
<g id="node1" class="node">
<title>Node20</title>
<polygon fill="#bfbfbf" stroke="#000000" points="173.5,-168.5 173.5,-187.5 221.5,-187.5 221.5,-168.5 173.5,-168.5"/>
<text text-anchor="middle" x="197.5" y="-175.5" font-family="Helvetica,sans-Serif" font-size="10.00" fill="#000000">MOL.H</text>
</g>
<!-- Node21 -->
<g id="node2" class="node">
<title>Node21</title>
<g id="a_node2"><a xlink:href="incflo__mol__fluxes_8cpp.html" target="_top" xlink:title="incflo_mol_fluxes.cpp">
<polygon fill="#ffffff" stroke="#000000" points="11,-112.5 11,-131.5 122,-131.5 122,-112.5 11,-112.5"/>
<text text-anchor="middle" x="66.5" y="-119.5" font-family="Helvetica,sans-Serif" font-size="10.00" fill="#000000">incflo_mol_fluxes.cpp</text>
</a>
</g>
</g>
<!-- Node20&#45;&gt;Node21 -->
<g id="edge1" class="edge">
<title>Node20&#45;&gt;Node21</title>
<path fill="none" stroke="#191970" d="M165.6466,-164.3833C141.8215,-154.1985 109.8432,-140.5284 88.7258,-131.5011"/>
<polygon fill="#191970" stroke="#191970" points="164.4094,-167.6608 174.9803,-168.3733 167.161,-161.2242 164.4094,-167.6608"/>
</g>
<!-- Node22 -->
<g id="node3" class="node">
<title>Node22</title>
<g id="a_node3"><a xlink:href="incflo__mol__predict_8cpp.html" target="_top" xlink:title="incflo_mol_predict.cpp">
<polygon fill="#ffffff" stroke="#000000" points="140.5,-112.5 140.5,-131.5 254.5,-131.5 254.5,-112.5 140.5,-112.5"/>
<text text-anchor="middle" x="197.5" y="-119.5" font-family="Helvetica,sans-Serif" font-size="10.00" fill="#000000">incflo_mol_predict.cpp</text>
</a>
</g>
</g>
<!-- Node20&#45;&gt;Node22 -->
<g id="edge2" class="edge">
<title>Node20&#45;&gt;Node22</title>
<path fill="none" stroke="#191970" d="M197.5,-158.1575C197.5,-149.155 197.5,-138.9199 197.5,-131.6427"/>
<polygon fill="#191970" stroke="#191970" points="194.0001,-158.2455 197.5,-168.2455 201.0001,-158.2456 194.0001,-158.2455"/>
</g>
<!-- Node23 -->
<g id="node4" class="node">
<title>Node23</title>
<g id="a_node4"><a xlink:href="_adv_op___m_o_l_8_h.html" target="_top" xlink:title="AdvOp_MOL.H">
<polygon fill="#ffffff" stroke="#000000" points="273,-112.5 273,-131.5 356,-131.5 356,-112.5 273,-112.5"/>
<text text-anchor="middle" x="314.5" y="-119.5" font-family="Helvetica,sans-Serif" font-size="10.00" fill="#000000">AdvOp_MOL.H</text>
</a>
</g>
</g>
<!-- Node20&#45;&gt;Node23 -->
<g id="edge3" class="edge">
<title>Node20&#45;&gt;Node23</title>
<path fill="none" stroke="#191970" d="M226.8042,-163.9741C247.988,-153.8348 276.0403,-140.408 294.6494,-131.5011"/>
<polygon fill="#191970" stroke="#191970" points="225.122,-160.8989 217.613,-168.3733 228.1441,-167.2129 225.122,-160.8989"/>
</g>
<!-- Node24 -->
<g id="node5" class="node">
<title>Node24</title>
<g id="a_node5"><a xlink:href="density_8cpp.html" target="_top" xlink:title="density.cpp">
<polygon fill="#ffffff" stroke="#000000" points="0,-56.5 0,-75.5 67,-75.5 67,-56.5 0,-56.5"/>
<text text-anchor="middle" x="33.5" y="-63.5" font-family="Helvetica,sans-Serif" font-size="10.00" fill="#000000">density.cpp</text>
</a>
</g>
</g>
<!-- Node23&#45;&gt;Node24 -->
<g id="edge4" class="edge">
<title>Node23&#45;&gt;Node24</title>
<path fill="none" stroke="#191970" d="M262.7614,-111.8677C178.7636,-95.6678 156.2171,-92.9362 76.5,-76 73.5011,-75.3629 70.3896,-74.6807 67.2738,-73.9831"/>
<polygon fill="#191970" stroke="#191970" points="262.2707,-115.3377 272.7537,-113.8023 263.6014,-108.4653 262.2707,-115.3377"/>
</g>
<!-- Node25 -->
<g id="node6" class="node">
<title>Node25</title>
<g id="a_node6"><a xlink:href="icns__ops_8_h.html" target="_top" xlink:title="icns_ops.H">
<polygon fill="#ffffff" stroke="#000000" points="85.5,-56.5 85.5,-75.5 151.5,-75.5 151.5,-56.5 85.5,-56.5"/>
<text text-anchor="middle" x="118.5" y="-63.5" font-family="Helvetica,sans-Serif" font-size="10.00" fill="#000000">icns_ops.H</text>
</a>
</g>
</g>
<!-- Node23&#45;&gt;Node25 -->
<g id="edge5" class="edge">
<title>Node23&#45;&gt;Node25</title>
<path fill="none" stroke="#191970" d="M271.0587,-109.5882C235.0484,-99.2996 184.6132,-84.8895 151.7539,-75.5011"/>
<polygon fill="#191970" stroke="#191970" points="270.2296,-112.9913 280.8064,-112.3733 272.1527,-106.2606 270.2296,-112.9913"/>
</g>
<!-- Node27 -->
<g id="node8" class="node">
<title>Node27</title>
<g id="a_node8"><a xlink:href="icns__advection_8_h.html" target="_top" xlink:title="icns_advection.H">
<polygon fill="#ffffff" stroke="#000000" points="169.5,-56.5 169.5,-75.5 261.5,-75.5 261.5,-56.5 169.5,-56.5"/>
<text text-anchor="middle" x="215.5" y="-63.5" font-family="Helvetica,sans-Serif" font-size="10.00" fill="#000000">icns_advection.H</text>
</a>
</g>
</g>
<!-- Node23&#45;&gt;Node27 -->
<g id="edge7" class="edge">
<title>Node23&#45;&gt;Node27</title>
<path fill="none" stroke="#191970" d="M288.0643,-107.0465C270.4492,-97.0824 247.8153,-84.2794 232.5469,-75.6427"/>
<polygon fill="#191970" stroke="#191970" points="286.8283,-110.3684 297.2555,-112.2455 290.2747,-104.2756 286.8283,-110.3684"/>
</g>
<!-- Node29 -->
<g id="node10" class="node">
<title>Node29</title>
<g id="a_node10"><a xlink:href="levelset_8cpp.html" target="_top" xlink:title="levelset.cpp">
<polygon fill="#ffffff" stroke="#000000" points="280,-56.5 280,-75.5 349,-75.5 349,-56.5 280,-56.5"/>
<text text-anchor="middle" x="314.5" y="-63.5" font-family="Helvetica,sans-Serif" font-size="10.00" fill="#000000">levelset.cpp</text>
</a>
</g>
</g>
<!-- Node23&#45;&gt;Node29 -->
<g id="edge10" class="edge">
<title>Node23&#45;&gt;Node29</title>
<path fill="none" stroke="#191970" d="M314.5,-102.1575C314.5,-93.155 314.5,-82.9199 314.5,-75.6427"/>
<polygon fill="#191970" stroke="#191970" points="311.0001,-102.2455 314.5,-112.2455 318.0001,-102.2456 311.0001,-102.2455"/>
</g>
<!-- Node30 -->
<g id="node11" class="node">
<title>Node30</title>
<g id="a_node11"><a xlink:href="_s_d_r_8cpp.html" target="_top" xlink:title="SDR.cpp">
<polygon fill="#ffffff" stroke="#000000" points="367,-56.5 367,-75.5 424,-75.5 424,-56.5 367,-56.5"/>
<text text-anchor="middle" x="395.5" y="-63.5" font-family="Helvetica,sans-Serif" font-size="10.00" fill="#000000">SDR.cpp</text>
</a>
</g>
</g>
<!-- Node23&#45;&gt;Node30 -->
<g id="edge11" class="edge">
<title>Node23&#45;&gt;Node30</title>
<path fill="none" stroke="#191970" d="M336.934,-106.49C351.2254,-96.6096 369.2916,-84.1194 381.5526,-75.6427"/>
<polygon fill="#191970" stroke="#191970" points="334.8443,-103.6797 328.6091,-112.2455 338.8251,-109.4376 334.8443,-103.6797"/>
</g>
<!-- Node31 -->
<g id="node12" class="node">
<title>Node31</title>
<g id="a_node12"><a xlink:href="temperature_8cpp.html" target="_top" xlink:title="temperature.cpp">
<polygon fill="#ffffff" stroke="#000000" points="442,-56.5 442,-75.5 529,-75.5 529,-56.5 442,-56.5"/>
<text text-anchor="middle" x="485.5" y="-63.5" font-family="Helvetica,sans-Serif" font-size="10.00" fill="#000000">temperature.cpp</text>
</a>
</g>
</g>
<!-- Node23&#45;&gt;Node31 -->
<g id="edge12" class="edge">
<title>Node23&#45;&gt;Node31</title>
<path fill="none" stroke="#191970" d="M353.6148,-109.1905C384.9432,-98.9309 428.1871,-84.7691 456.4876,-75.5011"/>
<polygon fill="#191970" stroke="#191970" points="352.31,-105.9348 343.8959,-112.3733 354.4886,-112.5872 352.31,-105.9348"/>
</g>
<!-- Node32 -->
<g id="node13" class="node">
<title>Node32</title>
<g id="a_node13"><a xlink:href="_t_k_e_8cpp.html" target="_top" xlink:title="TKE.cpp">
<polygon fill="#ffffff" stroke="#000000" points="547,-56.5 547,-75.5 602,-75.5 602,-56.5 547,-56.5"/>
<text text-anchor="middle" x="574.5" y="-63.5" font-family="Helvetica,sans-Serif" font-size="10.00" fill="#000000">TKE.cpp</text>
</a>
</g>
</g>
<!-- Node23&#45;&gt;Node32 -->
<g id="edge13" class="edge">
<title>Node23&#45;&gt;Node32</title>
<path fill="none" stroke="#191970" d="M366.3213,-112.4011C411.8653,-103.7169 479.8371,-90.1535 538.5,-76 541.1484,-75.361 543.8968,-74.6625 546.6411,-73.9413"/>
<polygon fill="#191970" stroke="#191970" points="365.5588,-108.9832 356.3864,-114.2859 366.8636,-115.8606 365.5588,-108.9832"/>
</g>
<!-- Node26 -->
<g id="node7" class="node">
<title>Node26</title>
<g id="a_node7"><a xlink:href="icns_8cpp.html" target="_top" xlink:title="icns.cpp">
<polygon fill="#ffffff" stroke="#000000" points="93,-.5 93,-19.5 146,-19.5 146,-.5 93,-.5"/>
<text text-anchor="middle" x="119.5" y="-7.5" font-family="Helvetica,sans-Serif" font-size="10.00" fill="#000000">icns.cpp</text>
</a>
</g>
</g>
<!-- Node25&#45;&gt;Node26 -->
<g id="edge6" class="edge">
<title>Node25&#45;&gt;Node26</title>
<path fill="none" stroke="#191970" d="M118.8543,-46.1575C119.0151,-37.155 119.1979,-26.9199 119.3278,-19.6427"/>
<polygon fill="#191970" stroke="#191970" points="115.3534,-46.1846 118.6742,-56.2455 122.3523,-46.3097 115.3534,-46.1846"/>
</g>
<!-- Node27&#45;&gt;Node26 -->
<g id="edge8" class="edge">
<title>Node27&#45;&gt;Node26</title>
<path fill="none" stroke="#191970" d="M189.8654,-51.0465C172.7841,-41.0824 150.836,-28.2794 136.0303,-19.6427"/>
<polygon fill="#191970" stroke="#191970" points="188.3767,-54.23 198.7781,-56.2455 191.9038,-48.1836 188.3767,-54.23"/>
</g>
<!-- Node28 -->
<g id="node9" class="node">
<title>Node28</title>
<g id="a_node9"><a xlink:href="icns__advection_8cpp.html" target="_top" xlink:title="icns_advection.cpp">
<polygon fill="#ffffff" stroke="#000000" points="165,-.5 165,-19.5 266,-19.5 266,-.5 165,-.5"/>
<text text-anchor="middle" x="215.5" y="-7.5" font-family="Helvetica,sans-Serif" font-size="10.00" fill="#000000">icns_advection.cpp</text>
</a>
</g>
</g>
<!-- Node27&#45;&gt;Node28 -->
<g id="edge9" class="edge">
<title>Node27&#45;&gt;Node28</title>
<path fill="none" stroke="#191970" d="M215.5,-46.1575C215.5,-37.155 215.5,-26.9199 215.5,-19.6427"/>
<polygon fill="#191970" stroke="#191970" points="212.0001,-46.2455 215.5,-56.2455 219.0001,-46.2456 212.0001,-46.2455"/>
</g>
</g>
</svg>
