<?xml version="1.0" encoding="UTF-8" standalone="no"?>
<!DOCTYPE svg PUBLIC "-//W3C//DTD SVG 1.1//EN"
 "http://www.w3.org/Graphics/SVG/1.1/DTD/svg11.dtd">
<!-- Generated by graphviz version 2.40.1 (20161225.0304)
 -->
<!-- Title: MomentumSource.H Pages: 1 -->
<svg width="1690pt" height="196pt"
 viewBox="0.00 0.00 1690.46 196.00" xmlns="http://www.w3.org/2000/svg" xmlns:xlink="http://www.w3.org/1999/xlink">
<g id="graph0" class="graph" transform="scale(1 1) rotate(0) translate(4 192)">
<title>MomentumSource.H</title>
<polygon fill="#ffffff" stroke="transparent" points="-4,4 -4,-192 1686.4623,-192 1686.4623,4 -4,4"/>
<!-- Node24 -->
<g id="node1" class="node">
<title>Node24</title>
<polygon fill="#bfbfbf" stroke="#000000" points="1065.4623,-168.5 1065.4623,-187.5 1172.4623,-187.5 1172.4623,-168.5 1065.4623,-168.5"/>
<text text-anchor="middle" x="1118.9623" y="-175.5" font-family="Helvetica,sans-Serif" font-size="10.00" fill="#000000">MomentumSource.H</text>
</g>
<!-- Node25 -->
<g id="node2" class="node">
<title>Node25</title>
<g id="a_node2"><a xlink:href="icns_8_h.html" target="_top" xlink:title="icns.H">
<polygon fill="#ffffff" stroke="#000000" points="218.4623,-112.5 218.4623,-131.5 263.4623,-131.5 263.4623,-112.5 218.4623,-112.5"/>
<text text-anchor="middle" x="240.9623" y="-119.5" font-family="Helvetica,sans-Serif" font-size="10.00" fill="#000000">icns.H</text>
</a>
</g>
</g>
<!-- Node24&#45;&gt;Node25 -->
<g id="edge1" class="edge">
<title>Node24&#45;&gt;Node25</title>
<path fill="none" stroke="#191970" d="M1055.3306,-173.9415C876.7666,-162.5524 376.6733,-130.6558 263.7957,-123.4563"/>
<polygon fill="#191970" stroke="#191970" points="1055.1586,-177.4375 1065.3611,-174.5812 1055.6042,-170.4517 1055.1586,-177.4375"/>
</g>
<!-- Node33 -->
<g id="node10" class="node">
<title>Node33</title>
<g id="a_node10"><a xlink:href="_a_b_l_forcing_8_h.html" target="_top" xlink:title="ABLForcing.H">
<polygon fill="#ffffff" stroke="#000000" points="674.9623,-112.5 674.9623,-131.5 752.9623,-131.5 752.9623,-112.5 674.9623,-112.5"/>
<text text-anchor="middle" x="713.9623" y="-119.5" font-family="Helvetica,sans-Serif" font-size="10.00" fill="#000000">ABLForcing.H</text>
</a>
</g>
</g>
<!-- Node24&#45;&gt;Node33 -->
<g id="edge13" class="edge">
<title>Node24&#45;&gt;Node33</title>
<path fill="none" stroke="#191970" d="M1055.1576,-169.1776C970.3454,-157.4505 823.0555,-137.0845 753.0633,-127.4066"/>
<polygon fill="#191970" stroke="#191970" points="1054.7962,-172.6609 1065.1814,-170.5636 1055.7551,-165.7268 1054.7962,-172.6609"/>
</g>
<!-- Node37 -->
<g id="node14" class="node">
<title>Node37</title>
<g id="a_node14"><a xlink:href="_a_b_l_mean_boussinesq_8_h.html" target="_top" xlink:title="ABLMeanBoussinesq.H">
<polygon fill="#ffffff" stroke="#000000" points="809.4623,-112.5 809.4623,-131.5 930.4623,-131.5 930.4623,-112.5 809.4623,-112.5"/>
<text text-anchor="middle" x="869.9623" y="-119.5" font-family="Helvetica,sans-Serif" font-size="10.00" fill="#000000">ABLMeanBoussinesq.H</text>
</a>
</g>
</g>
<!-- Node24&#45;&gt;Node37 -->
<g id="edge17" class="edge">
<title>Node24&#45;&gt;Node37</title>
<path fill="none" stroke="#191970" d="M1066.6833,-166.2425C1020.8127,-155.9262 954.949,-141.1135 912.3086,-131.5237"/>
<polygon fill="#191970" stroke="#191970" points="1065.9163,-169.6573 1076.4406,-168.4369 1067.4523,-162.8279 1065.9163,-169.6573"/>
</g>
<!-- Node39 -->
<g id="node16" class="node">
<title>Node39</title>
<g id="a_node16"><a xlink:href="_body_force_8_h.html" target="_top" xlink:title="BodyForce.H">
<polygon fill="#ffffff" stroke="#000000" points="960.9623,-112.5 960.9623,-131.5 1034.9623,-131.5 1034.9623,-112.5 960.9623,-112.5"/>
<text text-anchor="middle" x="997.9623" y="-119.5" font-family="Helvetica,sans-Serif" font-size="10.00" fill="#000000">BodyForce.H</text>
</a>
</g>
</g>
<!-- Node24&#45;&gt;Node39 -->
<g id="edge20" class="edge">
<title>Node24&#45;&gt;Node39</title>
<path fill="none" stroke="#191970" d="M1088.9519,-164.1109C1067.0098,-153.9559 1037.8235,-140.4482 1018.4915,-131.5011"/>
<polygon fill="#191970" stroke="#191970" points="1087.6164,-167.3494 1098.1616,-168.3733 1090.5565,-160.9968 1087.6164,-167.3494"/>
</g>
<!-- Node41 -->
<g id="node18" class="node">
<title>Node41</title>
<g id="a_node18"><a xlink:href="_boussinesq_buoyancy_8_h.html" target="_top" xlink:title="BoussinesqBuoyancy.H">
<polygon fill="#ffffff" stroke="#000000" points="1057.9623,-112.5 1057.9623,-131.5 1179.9623,-131.5 1179.9623,-112.5 1057.9623,-112.5"/>
<text text-anchor="middle" x="1118.9623" y="-119.5" font-family="Helvetica,sans-Serif" font-size="10.00" fill="#000000">BoussinesqBuoyancy.H</text>
</a>
</g>
</g>
<!-- Node24&#45;&gt;Node41 -->
<g id="edge22" class="edge">
<title>Node24&#45;&gt;Node41</title>
<path fill="none" stroke="#191970" d="M1118.9623,-158.1575C1118.9623,-149.155 1118.9623,-138.9199 1118.9623,-131.6427"/>
<polygon fill="#191970" stroke="#191970" points="1115.4624,-158.2455 1118.9623,-168.2455 1122.4624,-158.2456 1115.4624,-158.2455"/>
</g>
<!-- Node43 -->
<g id="node20" class="node">
<title>Node43</title>
<g id="a_node20"><a xlink:href="_coriolis_forcing_8_h.html" target="_top" xlink:title="CoriolisForcing.H">
<polygon fill="#ffffff" stroke="#000000" points="1201.9623,-112.5 1201.9623,-131.5 1293.9623,-131.5 1293.9623,-112.5 1201.9623,-112.5"/>
<text text-anchor="middle" x="1247.9623" y="-119.5" font-family="Helvetica,sans-Serif" font-size="10.00" fill="#000000">CoriolisForcing.H</text>
</a>
</g>
</g>
<!-- Node24&#45;&gt;Node43 -->
<g id="edge24" class="edge">
<title>Node24&#45;&gt;Node43</title>
<path fill="none" stroke="#191970" d="M1150.3293,-164.3833C1173.7907,-154.1985 1205.2808,-140.5284 1226.0758,-131.5011"/>
<polygon fill="#191970" stroke="#191970" points="1148.9174,-161.1806 1141.1382,-168.3733 1151.7049,-167.6017 1148.9174,-161.1806"/>
</g>
<!-- Node45 -->
<g id="node22" class="node">
<title>Node45</title>
<g id="a_node22"><a xlink:href="_density_buoyancy_8_h.html" target="_top" xlink:title="DensityBuoyancy.H">
<polygon fill="#ffffff" stroke="#000000" points="1318.9623,-112.5 1318.9623,-131.5 1422.9623,-131.5 1422.9623,-112.5 1318.9623,-112.5"/>
<text text-anchor="middle" x="1370.9623" y="-119.5" font-family="Helvetica,sans-Serif" font-size="10.00" fill="#000000">DensityBuoyancy.H</text>
</a>
</g>
</g>
<!-- Node24&#45;&gt;Node45 -->
<g id="edge26" class="edge">
<title>Node24&#45;&gt;Node45</title>
<path fill="none" stroke="#191970" d="M1171.8712,-166.2425C1218.2944,-155.9262 1284.9516,-141.1135 1328.1058,-131.5237"/>
<polygon fill="#191970" stroke="#191970" points="1170.9989,-162.8508 1161.9963,-168.4369 1172.5175,-169.6842 1170.9989,-162.8508"/>
</g>
<!-- Node47 -->
<g id="node24" class="node">
<title>Node47</title>
<g id="a_node24"><a xlink:href="_geostrophic_forcing_8_h.html" target="_top" xlink:title="GeostrophicForcing.H">
<polygon fill="#ffffff" stroke="#000000" points="1448.9623,-112.5 1448.9623,-131.5 1560.9623,-131.5 1560.9623,-112.5 1448.9623,-112.5"/>
<text text-anchor="middle" x="1504.9623" y="-119.5" font-family="Helvetica,sans-Serif" font-size="10.00" fill="#000000">GeostrophicForcing.H</text>
</a>
</g>
</g>
<!-- Node24&#45;&gt;Node47 -->
<g id="edge28" class="edge">
<title>Node24&#45;&gt;Node47</title>
<path fill="none" stroke="#191970" d="M1182.7796,-168.7415C1256.9681,-157.9784 1378.2411,-140.3844 1448.9313,-130.1288"/>
<polygon fill="#191970" stroke="#191970" points="1182.0278,-165.3139 1172.6339,-170.2134 1183.0329,-172.2413 1182.0278,-165.3139"/>
</g>
<!-- Node49 -->
<g id="node26" class="node">
<title>Node49</title>
<g id="a_node26"><a xlink:href="_m_m_s_forcing_8_h.html" target="_top" xlink:title="MMSForcing.H">
<polygon fill="#ffffff" stroke="#000000" points="1587.4623,-112.5 1587.4623,-131.5 1670.4623,-131.5 1670.4623,-112.5 1587.4623,-112.5"/>
<text text-anchor="middle" x="1628.9623" y="-119.5" font-family="Helvetica,sans-Serif" font-size="10.00" fill="#000000">MMSForcing.H</text>
</a>
</g>
</g>
<!-- Node24&#45;&gt;Node49 -->
<g id="edge30" class="edge">
<title>Node24&#45;&gt;Node49</title>
<path fill="none" stroke="#191970" d="M1182.5882,-172.8482C1270.0645,-165.4604 1432.2991,-150.666 1569.9623,-132 1575.6245,-131.2322 1581.577,-130.3328 1587.4338,-129.3937"/>
<polygon fill="#191970" stroke="#191970" points="1182.2274,-169.366 1172.5554,-173.6906 1182.8132,-176.3415 1182.2274,-169.366"/>
</g>
<!-- Node26 -->
<g id="node3" class="node">
<title>Node26</title>
<g id="a_node3"><a xlink:href="icns_8cpp.html" target="_top" xlink:title="icns.cpp">
<polygon fill="#ffffff" stroke="#000000" points="117.4623,-.5 117.4623,-19.5 170.4623,-19.5 170.4623,-.5 117.4623,-.5"/>
<text text-anchor="middle" x="143.9623" y="-7.5" font-family="Helvetica,sans-Serif" font-size="10.00" fill="#000000">icns.cpp</text>
</a>
</g>
</g>
<!-- Node25&#45;&gt;Node26 -->
<g id="edge2" class="edge">
<title>Node25&#45;&gt;Node26</title>
<path fill="none" stroke="#191970" d="M208.3205,-120.5208C150.1051,-117.1245 32.094,-106.5531 6.9623,-76 -25.4066,-36.6485 68.8981,-19.119 117.274,-12.8744"/>
<polygon fill="#191970" stroke="#191970" points="208.2828,-124.0239 218.4588,-121.0747 208.6647,-117.0343 208.2828,-124.0239"/>
</g>
<!-- Node27 -->
<g id="node4" class="node">
<title>Node27</title>
<g id="a_node4"><a xlink:href="icns__ops_8_h.html" target="_top" xlink:title="icns_ops.H">
<polygon fill="#ffffff" stroke="#000000" points="15.9623,-56.5 15.9623,-75.5 81.9623,-75.5 81.9623,-56.5 15.9623,-56.5"/>
<text text-anchor="middle" x="48.9623" y="-63.5" font-family="Helvetica,sans-Serif" font-size="10.00" fill="#000000">icns_ops.H</text>
</a>
</g>
</g>
<!-- Node25&#45;&gt;Node27 -->
<g id="edge3" class="edge">
<title>Node25&#45;&gt;Node27</title>
<path fill="none" stroke="#191970" d="M208.3684,-112.4934C173.0453,-102.1909 117.0046,-85.8457 81.6463,-75.5328"/>
<polygon fill="#191970" stroke="#191970" points="207.6034,-115.9161 218.1834,-115.3562 209.5634,-109.1961 207.6034,-115.9161"/>
</g>
<!-- Node28 -->
<g id="node5" class="node">
<title>Node28</title>
<g id="a_node5"><a xlink:href="icns__advection_8_h.html" target="_top" xlink:title="icns_advection.H">
<polygon fill="#ffffff" stroke="#000000" points="294.9623,-56.5 294.9623,-75.5 386.9623,-75.5 386.9623,-56.5 294.9623,-56.5"/>
<text text-anchor="middle" x="340.9623" y="-63.5" font-family="Helvetica,sans-Serif" font-size="10.00" fill="#000000">icns_advection.H</text>
</a>
</g>
</g>
<!-- Node25&#45;&gt;Node28 -->
<g id="edge5" class="edge">
<title>Node25&#45;&gt;Node28</title>
<path fill="none" stroke="#191970" d="M267.172,-107.3225C285.034,-97.3198 308.1778,-84.3593 323.7432,-75.6427"/>
<polygon fill="#191970" stroke="#191970" points="265.3959,-104.3057 258.381,-112.2455 268.8162,-110.4132 265.3959,-104.3057"/>
</g>
<!-- Node30 -->
<g id="node7" class="node">
<title>Node30</title>
<g id="a_node7"><a xlink:href="icns__diffusion_8_h.html" target="_top" xlink:title="icns_diffusion.H">
<polygon fill="#ffffff" stroke="#000000" points="100.4623,-56.5 100.4623,-75.5 187.4623,-75.5 187.4623,-56.5 100.4623,-56.5"/>
<text text-anchor="middle" x="143.9623" y="-63.5" font-family="Helvetica,sans-Serif" font-size="10.00" fill="#000000">icns_diffusion.H</text>
</a>
</g>
</g>
<!-- Node25&#45;&gt;Node30 -->
<g id="edge8" class="edge">
<title>Node25&#45;&gt;Node30</title>
<path fill="none" stroke="#191970" d="M215.0607,-107.0465C197.8014,-97.0824 175.6247,-84.2794 160.6648,-75.6427"/>
<polygon fill="#191970" stroke="#191970" points="213.6558,-110.2768 224.0662,-112.2455 217.1557,-104.2146 213.6558,-110.2768"/>
</g>
<!-- Node31 -->
<g id="node8" class="node">
<title>Node31</title>
<g id="a_node8"><a xlink:href="icns__bcop_8_h.html" target="_top" xlink:title="icns_bcop.H">
<polygon fill="#ffffff" stroke="#000000" points="205.4623,-56.5 205.4623,-75.5 276.4623,-75.5 276.4623,-56.5 205.4623,-56.5"/>
<text text-anchor="middle" x="240.9623" y="-63.5" font-family="Helvetica,sans-Serif" font-size="10.00" fill="#000000">icns_bcop.H</text>
</a>
</g>
</g>
<!-- Node25&#45;&gt;Node31 -->
<g id="edge10" class="edge">
<title>Node25&#45;&gt;Node31</title>
<path fill="none" stroke="#191970" d="M240.9623,-102.1575C240.9623,-93.155 240.9623,-82.9199 240.9623,-75.6427"/>
<polygon fill="#191970" stroke="#191970" points="237.4624,-102.2455 240.9623,-112.2455 244.4624,-102.2456 237.4624,-102.2455"/>
</g>
<!-- Node32 -->
<g id="node9" class="node">
<title>Node32</title>
<g id="a_node9"><a xlink:href="_power_law_profile_8cpp.html" target="_top" xlink:title="PowerLawProfile.cpp">
<polygon fill="#ffffff" stroke="#000000" points="405.4623,-56.5 405.4623,-75.5 514.4623,-75.5 514.4623,-56.5 405.4623,-56.5"/>
<text text-anchor="middle" x="459.9623" y="-63.5" font-family="Helvetica,sans-Serif" font-size="10.00" fill="#000000">PowerLawProfile.cpp</text>
</a>
</g>
</g>
<!-- Node25&#45;&gt;Node32 -->
<g id="edge12" class="edge">
<title>Node25&#45;&gt;Node32</title>
<path fill="none" stroke="#191970" d="M273.3043,-113.7299C313.1042,-103.5528 380.5537,-86.3054 422.5481,-75.5671"/>
<polygon fill="#191970" stroke="#191970" points="272.3954,-110.3496 263.5743,-116.2179 274.1297,-117.1314 272.3954,-110.3496"/>
</g>
<!-- Node27&#45;&gt;Node26 -->
<g id="edge4" class="edge">
<title>Node27&#45;&gt;Node26</title>
<path fill="none" stroke="#191970" d="M74.3299,-51.0465C91.2333,-41.0824 112.9527,-28.2794 127.6042,-19.6427"/>
<polygon fill="#191970" stroke="#191970" points="72.3474,-48.1522 65.51,-56.2455 75.9021,-54.1825 72.3474,-48.1522"/>
</g>
<!-- Node28&#45;&gt;Node26 -->
<g id="edge6" class="edge">
<title>Node28&#45;&gt;Node26</title>
<path fill="none" stroke="#191970" d="M297.1432,-53.5438C258.4369,-42.541 203.2405,-26.8507 170.7557,-17.6164"/>
<polygon fill="#191970" stroke="#191970" points="296.5208,-57.0055 307.0968,-56.3733 298.4349,-50.2723 296.5208,-57.0055"/>
</g>
<!-- Node29 -->
<g id="node6" class="node">
<title>Node29</title>
<g id="a_node6"><a xlink:href="icns__advection_8cpp.html" target="_top" xlink:title="icns_advection.cpp">
<polygon fill="#ffffff" stroke="#000000" points="290.4623,-.5 290.4623,-19.5 391.4623,-19.5 391.4623,-.5 290.4623,-.5"/>
<text text-anchor="middle" x="340.9623" y="-7.5" font-family="Helvetica,sans-Serif" font-size="10.00" fill="#000000">icns_advection.cpp</text>
</a>
</g>
</g>
<!-- Node28&#45;&gt;Node29 -->
<g id="edge7" class="edge">
<title>Node28&#45;&gt;Node29</title>
<path fill="none" stroke="#191970" d="M340.9623,-46.1575C340.9623,-37.155 340.9623,-26.9199 340.9623,-19.6427"/>
<polygon fill="#191970" stroke="#191970" points="337.4624,-46.2455 340.9623,-56.2455 344.4624,-46.2456 337.4624,-46.2455"/>
</g>
<!-- Node30&#45;&gt;Node26 -->
<g id="edge9" class="edge">
<title>Node30&#45;&gt;Node26</title>
<path fill="none" stroke="#191970" d="M143.9623,-46.1575C143.9623,-37.155 143.9623,-26.9199 143.9623,-19.6427"/>
<polygon fill="#191970" stroke="#191970" points="140.4624,-46.2455 143.9623,-56.2455 147.4624,-46.2456 140.4624,-46.2455"/>
</g>
<!-- Node31&#45;&gt;Node26 -->
<g id="edge11" class="edge">
<title>Node31&#45;&gt;Node26</title>
<path fill="none" stroke="#191970" d="M215.0607,-51.0465C197.8014,-41.0824 175.6247,-28.2794 160.6648,-19.6427"/>
<polygon fill="#191970" stroke="#191970" points="213.6558,-54.2768 224.0662,-56.2455 217.1557,-48.2146 213.6558,-54.2768"/>
</g>
<!-- Node34 -->
<g id="node11" class="node">
<title>Node34</title>
<g id="a_node11"><a xlink:href="_a_b_l_forcing_8cpp.html" target="_top" xlink:title="ABLForcing.cpp">
<polygon fill="#ffffff" stroke="#000000" points="532.9623,-56.5 532.9623,-75.5 618.9623,-75.5 618.9623,-56.5 532.9623,-56.5"/>
<text text-anchor="middle" x="575.9623" y="-63.5" font-family="Helvetica,sans-Serif" font-size="10.00" fill="#000000">ABLForcing.cpp</text>
</a>
</g>
</g>
<!-- Node33&#45;&gt;Node34 -->
<g id="edge14" class="edge">
<title>Node33&#45;&gt;Node34</title>
<path fill="none" stroke="#191970" d="M680.741,-108.5189C655.6083,-98.3201 621.7204,-84.5685 599.3758,-75.5011"/>
<polygon fill="#191970" stroke="#191970" points="679.657,-111.8562 690.2392,-112.3733 682.2892,-105.3699 679.657,-111.8562"/>
</g>
<!-- Node35 -->
<g id="node12" class="node">
<title>Node35</title>
<g id="a_node12"><a xlink:href="_a_b_l_8cpp.html" target="_top" xlink:title="ABL.cpp">
<polygon fill="#ffffff" stroke="#000000" points="732.9623,-56.5 732.9623,-75.5 786.9623,-75.5 786.9623,-56.5 732.9623,-56.5"/>
<text text-anchor="middle" x="759.9623" y="-63.5" font-family="Helvetica,sans-Serif" font-size="10.00" fill="#000000">ABL.cpp</text>
</a>
</g>
</g>
<!-- Node33&#45;&gt;Node35 -->
<g id="edge15" class="edge">
<title>Node33&#45;&gt;Node35</title>
<path fill="none" stroke="#191970" d="M728.337,-104.5004C736.1594,-94.9775 745.5383,-83.5596 752.0415,-75.6427"/>
<polygon fill="#191970" stroke="#191970" points="725.6178,-102.2967 721.9749,-112.2455 731.0269,-106.7399 725.6178,-102.2967"/>
</g>
<!-- Node36 -->
<g id="node13" class="node">
<title>Node36</title>
<g id="a_node13"><a xlink:href="_a_b_l_stats_8cpp.html" target="_top" xlink:title="ABLStats.cpp">
<polygon fill="#ffffff" stroke="#000000" points="637.4623,-56.5 637.4623,-75.5 714.4623,-75.5 714.4623,-56.5 637.4623,-56.5"/>
<text text-anchor="middle" x="675.9623" y="-63.5" font-family="Helvetica,sans-Serif" font-size="10.00" fill="#000000">ABLStats.cpp</text>
</a>
</g>
</g>
<!-- Node33&#45;&gt;Node36 -->
<g id="edge16" class="edge">
<title>Node33&#45;&gt;Node36</title>
<path fill="none" stroke="#191970" d="M701.6944,-103.9209C695.3135,-94.5176 687.7692,-83.3997 682.5055,-75.6427"/>
<polygon fill="#191970" stroke="#191970" points="698.832,-105.936 707.3432,-112.2455 704.6243,-102.0055 698.832,-105.936"/>
</g>
<!-- Node37&#45;&gt;Node35 -->
<g id="edge19" class="edge">
<title>Node37&#45;&gt;Node35</title>
<path fill="none" stroke="#191970" d="M841.6708,-107.5971C821.9512,-97.558 796.1823,-84.4393 778.9033,-75.6427"/>
<polygon fill="#191970" stroke="#191970" points="840.3022,-110.8277 850.8017,-112.2455 843.478,-104.5896 840.3022,-110.8277"/>
</g>
<!-- Node38 -->
<g id="node15" class="node">
<title>Node38</title>
<g id="a_node15"><a xlink:href="_a_b_l_mean_boussinesq_8cpp.html" target="_top" xlink:title="ABLMeanBoussinesq.cpp">
<polygon fill="#ffffff" stroke="#000000" points="805.4623,-56.5 805.4623,-75.5 934.4623,-75.5 934.4623,-56.5 805.4623,-56.5"/>
<text text-anchor="middle" x="869.9623" y="-63.5" font-family="Helvetica,sans-Serif" font-size="10.00" fill="#000000">ABLMeanBoussinesq.cpp</text>
</a>
</g>
</g>
<!-- Node37&#45;&gt;Node38 -->
<g id="edge18" class="edge">
<title>Node37&#45;&gt;Node38</title>
<path fill="none" stroke="#191970" d="M869.9623,-102.1575C869.9623,-93.155 869.9623,-82.9199 869.9623,-75.6427"/>
<polygon fill="#191970" stroke="#191970" points="866.4624,-102.2455 869.9623,-112.2455 873.4624,-102.2456 866.4624,-102.2455"/>
</g>
<!-- Node40 -->
<g id="node17" class="node">
<title>Node40</title>
<g id="a_node17"><a xlink:href="_body_force_8cpp.html" target="_top" xlink:title="BodyForce.cpp">
<polygon fill="#ffffff" stroke="#000000" points="952.4623,-56.5 952.4623,-75.5 1035.4623,-75.5 1035.4623,-56.5 952.4623,-56.5"/>
<text text-anchor="middle" x="993.9623" y="-63.5" font-family="Helvetica,sans-Serif" font-size="10.00" fill="#000000">BodyForce.cpp</text>
</a>
</g>
</g>
<!-- Node39&#45;&gt;Node40 -->
<g id="edge21" class="edge">
<title>Node39&#45;&gt;Node40</title>
<path fill="none" stroke="#191970" d="M996.545,-102.1575C995.9019,-93.155 995.1708,-82.9199 994.651,-75.6427"/>
<polygon fill="#191970" stroke="#191970" points="993.0619,-102.5204 997.2655,-112.2455 1000.0441,-102.0216 993.0619,-102.5204"/>
</g>
<!-- Node42 -->
<g id="node19" class="node">
<title>Node42</title>
<g id="a_node19"><a xlink:href="_boussinesq_buoyancy_8cpp.html" target="_top" xlink:title="BoussinesqBuoyancy.cpp">
<polygon fill="#ffffff" stroke="#000000" points="1053.9623,-56.5 1053.9623,-75.5 1183.9623,-75.5 1183.9623,-56.5 1053.9623,-56.5"/>
<text text-anchor="middle" x="1118.9623" y="-63.5" font-family="Helvetica,sans-Serif" font-size="10.00" fill="#000000">BoussinesqBuoyancy.cpp</text>
</a>
</g>
</g>
<!-- Node41&#45;&gt;Node42 -->
<g id="edge23" class="edge">
<title>Node41&#45;&gt;Node42</title>
<path fill="none" stroke="#191970" d="M1118.9623,-102.1575C1118.9623,-93.155 1118.9623,-82.9199 1118.9623,-75.6427"/>
<polygon fill="#191970" stroke="#191970" points="1115.4624,-102.2455 1118.9623,-112.2455 1122.4624,-102.2456 1115.4624,-102.2455"/>
</g>
<!-- Node44 -->
<g id="node21" class="node">
<title>Node44</title>
<g id="a_node21"><a xlink:href="_coriolis_forcing_8cpp.html" target="_top" xlink:title="CoriolisForcing.cpp">
<polygon fill="#ffffff" stroke="#000000" points="1202.4623,-56.5 1202.4623,-75.5 1303.4623,-75.5 1303.4623,-56.5 1202.4623,-56.5"/>
<text text-anchor="middle" x="1252.9623" y="-63.5" font-family="Helvetica,sans-Serif" font-size="10.00" fill="#000000">CoriolisForcing.cpp</text>
</a>
</g>
</g>
<!-- Node43&#45;&gt;Node44 -->
<g id="edge25" class="edge">
<title>Node43&#45;&gt;Node44</title>
<path fill="none" stroke="#191970" d="M1249.7339,-102.1575C1250.5377,-93.155 1251.4516,-82.9199 1252.1013,-75.6427"/>
<polygon fill="#191970" stroke="#191970" points="1246.2365,-101.9739 1248.8332,-112.2455 1253.2088,-102.5965 1246.2365,-101.9739"/>
</g>
<!-- Node46 -->
<g id="node23" class="node">
<title>Node46</title>
<g id="a_node23"><a xlink:href="_density_buoyancy_8cpp.html" target="_top" xlink:title="DensityBuoyancy.cpp">
<polygon fill="#ffffff" stroke="#000000" points="1321.4623,-56.5 1321.4623,-75.5 1434.4623,-75.5 1434.4623,-56.5 1321.4623,-56.5"/>
<text text-anchor="middle" x="1377.9623" y="-63.5" font-family="Helvetica,sans-Serif" font-size="10.00" fill="#000000">DensityBuoyancy.cpp</text>
</a>
</g>
</g>
<!-- Node45&#45;&gt;Node46 -->
<g id="edge27" class="edge">
<title>Node45&#45;&gt;Node46</title>
<path fill="none" stroke="#191970" d="M1373.4426,-102.1575C1374.5679,-93.155 1375.8473,-82.9199 1376.757,-75.6427"/>
<polygon fill="#191970" stroke="#191970" points="1369.9491,-101.8886 1372.1816,-112.2455 1376.895,-102.7569 1369.9491,-101.8886"/>
</g>
<!-- Node48 -->
<g id="node25" class="node">
<title>Node48</title>
<g id="a_node25"><a xlink:href="_geostrophic_forcing_8cpp.html" target="_top" xlink:title="GeostrophicForcing.cpp">
<polygon fill="#ffffff" stroke="#000000" points="1452.9623,-56.5 1452.9623,-75.5 1572.9623,-75.5 1572.9623,-56.5 1452.9623,-56.5"/>
<text text-anchor="middle" x="1512.9623" y="-63.5" font-family="Helvetica,sans-Serif" font-size="10.00" fill="#000000">GeostrophicForcing.cpp</text>
</a>
</g>
</g>
<!-- Node47&#45;&gt;Node48 -->
<g id="edge29" class="edge">
<title>Node47&#45;&gt;Node48</title>
<path fill="none" stroke="#191970" d="M1507.7969,-102.1575C1509.083,-93.155 1510.5452,-82.9199 1511.5848,-75.6427"/>
<polygon fill="#191970" stroke="#191970" points="1504.3053,-101.851 1506.3558,-112.2455 1511.2349,-102.8411 1504.3053,-101.851"/>
</g>
<!-- Node50 -->
<g id="node27" class="node">
<title>Node50</title>
<g id="a_node27"><a xlink:href="_m_m_s_forcing_8cpp.html" target="_top" xlink:title="MMSForcing.cpp">
<polygon fill="#ffffff" stroke="#000000" points="1591.4623,-56.5 1591.4623,-75.5 1682.4623,-75.5 1682.4623,-56.5 1591.4623,-56.5"/>
<text text-anchor="middle" x="1636.9623" y="-63.5" font-family="Helvetica,sans-Serif" font-size="10.00" fill="#000000">MMSForcing.cpp</text>
</a>
</g>
</g>
<!-- Node49&#45;&gt;Node50 -->
<g id="edge31" class="edge">
<title>Node49&#45;&gt;Node50</title>
<path fill="none" stroke="#191970" d="M1631.7969,-102.1575C1633.083,-93.155 1634.5452,-82.9199 1635.5848,-75.6427"/>
<polygon fill="#191970" stroke="#191970" points="1628.3053,-101.851 1630.3558,-112.2455 1635.2349,-102.8411 1628.3053,-101.851"/>
</g>
</g>
</svg>
