<?xml version="1.0" encoding="UTF-8" standalone="no"?>
<!DOCTYPE svg PUBLIC "-//W3C//DTD SVG 1.1//EN"
 "http://www.w3.org/Graphics/SVG/1.1/DTD/svg11.dtd">
<!-- Generated by graphviz version 2.40.1 (20161225.0304)
 -->
<!-- Title: PDEBase.H Pages: 1 -->
<svg width="4718pt" height="252pt"
 viewBox="0.00 0.00 4717.52 252.00" xmlns="http://www.w3.org/2000/svg" xmlns:xlink="http://www.w3.org/1999/xlink">
<g id="graph0" class="graph" transform="scale(1 1) rotate(0) translate(4 248)">
<title>PDEBase.H</title>
<polygon fill="#ffffff" stroke="transparent" points="-4,4 -4,-248 4713.5212,-248 4713.5212,4 -4,4"/>
<!-- Node14 -->
<g id="node1" class="node">
<title>Node14</title>
<polygon fill="#bfbfbf" stroke="#000000" points="4443.0212,-224.5 4443.0212,-243.5 4514.0212,-243.5 4514.0212,-224.5 4443.0212,-224.5"/>
<text text-anchor="middle" x="4478.5212" y="-231.5" font-family="Helvetica,sans-Serif" font-size="10.00" fill="#000000">PDEBase.H</text>
</g>
<!-- Node15 -->
<g id="node2" class="node">
<title>Node15</title>
<g id="a_node2"><a xlink:href="_c_f_d_sim_8_h.html" target="_top" xlink:title="CFDSim.H">
<polygon fill="#ffffff" stroke="#ff0000" points="2346.0212,-168.5 2346.0212,-187.5 2411.0212,-187.5 2411.0212,-168.5 2346.0212,-168.5"/>
<text text-anchor="middle" x="2378.5212" y="-175.5" font-family="Helvetica,sans-Serif" font-size="10.00" fill="#000000">CFDSim.H</text>
</a>
</g>
</g>
<!-- Node14&#45;&gt;Node15 -->
<g id="edge1" class="edge">
<title>Node14&#45;&gt;Node15</title>
<path fill="none" stroke="#191970" d="M4432.6708,-232.7773C4150.3575,-225.249 2652.1597,-185.297 2411.2319,-178.8723"/>
<polygon fill="#191970" stroke="#191970" points="4432.8631,-236.2836 4442.9528,-233.0515 4433.0497,-229.2861 4432.8631,-236.2836"/>
</g>
<!-- Node20 -->
<g id="node4" class="node">
<title>Node20</title>
<g id="a_node4"><a xlink:href="incflo_8cpp.html" target="_top" xlink:title="incflo.cpp">
<polygon fill="#ffffff" stroke="#000000" points="4365.0212,-56.5 4365.0212,-75.5 4424.0212,-75.5 4424.0212,-56.5 4365.0212,-56.5"/>
<text text-anchor="middle" x="4394.5212" y="-63.5" font-family="Helvetica,sans-Serif" font-size="10.00" fill="#000000">incflo.cpp</text>
</a>
</g>
</g>
<!-- Node14&#45;&gt;Node20 -->
<g id="edge60" class="edge">
<title>Node14&#45;&gt;Node20</title>
<path fill="none" stroke="#191970" d="M4497.1894,-217.3454C4522.3861,-192.8281 4561.4137,-146.2299 4536.5212,-112 4523.1851,-93.6616 4461.7253,-78.8994 4424.1679,-71.3936"/>
<polygon fill="#191970" stroke="#191970" points="4494.4822,-215.0867 4489.5933,-224.4861 4499.2767,-220.187 4494.4822,-215.0867"/>
</g>
<!-- Node21 -->
<g id="node5" class="node">
<title>Node21</title>
<g id="a_node5"><a xlink:href="incflo__advance_8cpp.html" target="_top" xlink:title="incflo_advance.cpp">
<polygon fill="#ffffff" stroke="#000000" points="4492.0212,-56.5 4492.0212,-75.5 4593.0212,-75.5 4593.0212,-56.5 4492.0212,-56.5"/>
<text text-anchor="middle" x="4542.5212" y="-63.5" font-family="Helvetica,sans-Serif" font-size="10.00" fill="#000000">incflo_advance.cpp</text>
</a>
</g>
</g>
<!-- Node14&#45;&gt;Node21 -->
<g id="edge61" class="edge">
<title>Node14&#45;&gt;Node21</title>
<path fill="none" stroke="#191970" d="M4523.7507,-222.306C4541.1877,-215.3508 4559.3491,-204.5397 4569.5212,-188 4587.2161,-159.228 4578.3805,-144.5953 4569.5212,-112 4565.7808,-98.2386 4556.7699,-84.3875 4550.1831,-75.5346"/>
<polygon fill="#191970" stroke="#191970" points="4522.3929,-219.0755 4514.1934,-225.7851 4524.7874,-225.6532 4522.3929,-219.0755"/>
</g>
<!-- Node69 -->
<g id="node13" class="node">
<title>Node69</title>
<g id="a_node13"><a xlink:href="_p_d_e_8_h.html" target="_top" xlink:title="PDE.H">
<polygon fill="#ffffff" stroke="#ff0000" points="221.5212,-56.5 221.5212,-75.5 269.5212,-75.5 269.5212,-56.5 221.5212,-56.5"/>
<text text-anchor="middle" x="245.5212" y="-63.5" font-family="Helvetica,sans-Serif" font-size="10.00" fill="#000000">PDE.H</text>
</a>
</g>
</g>
<!-- Node14&#45;&gt;Node69 -->
<g id="edge58" class="edge">
<title>Node14&#45;&gt;Node69</title>
<path fill="none" stroke="#191970" d="M4432.6486,-233.058C4205.4493,-228.3837 3177.9882,-207.1387 2336.5212,-188 2077.4024,-182.1065 185.5799,-317.4589 4.5212,-132 -1.6883,-125.6396 -1.1445,-118.8493 4.5212,-112 31.8745,-78.9319 165.4771,-69.4213 221.1229,-66.8706"/>
<polygon fill="#191970" stroke="#191970" points="4432.7889,-236.5616 4442.8588,-233.268 4432.9329,-229.5631 4432.7889,-236.5616"/>
</g>
<!-- Node88 -->
<g id="node21" class="node">
<title>Node88</title>
<g id="a_node21"><a xlink:href="_p_d_e_base_8cpp.html" target="_top" xlink:title="PDEBase.cpp">
<polygon fill="#ffffff" stroke="#000000" points="4333.0212,-112.5 4333.0212,-131.5 4412.0212,-131.5 4412.0212,-112.5 4333.0212,-112.5"/>
<text text-anchor="middle" x="4372.5212" y="-119.5" font-family="Helvetica,sans-Serif" font-size="10.00" fill="#000000">PDEBase.cpp</text>
</a>
</g>
</g>
<!-- Node14&#45;&gt;Node88 -->
<g id="edge59" class="edge">
<title>Node14&#45;&gt;Node88</title>
<path fill="none" stroke="#191970" d="M4462.5773,-217.1536C4440.0122,-193.3113 4399.5091,-150.5156 4381.5358,-131.5249"/>
<polygon fill="#191970" stroke="#191970" points="4460.0677,-219.5938 4469.4837,-224.4509 4465.1518,-214.7821 4460.0677,-219.5938"/>
</g>
<!-- Node93 -->
<g id="node26" class="node">
<title>Node93</title>
<g id="a_node26"><a xlink:href="_tioga_interface_8cpp.html" target="_top" xlink:title="TiogaInterface.cpp">
<polygon fill="#ffffff" stroke="#000000" points="4429.5212,-112.5 4429.5212,-131.5 4527.5212,-131.5 4527.5212,-112.5 4429.5212,-112.5"/>
<text text-anchor="middle" x="4478.5212" y="-119.5" font-family="Helvetica,sans-Serif" font-size="10.00" fill="#000000">TiogaInterface.cpp</text>
</a>
</g>
</g>
<!-- Node14&#45;&gt;Node93 -->
<g id="edge62" class="edge">
<title>Node14&#45;&gt;Node93</title>
<path fill="none" stroke="#191970" d="M4478.5212,-214.2702C4478.5212,-189.9985 4478.5212,-149.7725 4478.5212,-131.5249"/>
<polygon fill="#191970" stroke="#191970" points="4475.0212,-214.4509 4478.5212,-224.4509 4482.0212,-214.451 4475.0212,-214.4509"/>
</g>
<!-- Node80 -->
<g id="node50" class="node">
<title>Node80</title>
<g id="a_node50"><a xlink:href="_one_eq_ksgs_8cpp.html" target="_top" xlink:title="OneEqKsgs.cpp">
<polygon fill="#ffffff" stroke="#000000" points="4621.5212,-168.5 4621.5212,-187.5 4709.5212,-187.5 4709.5212,-168.5 4621.5212,-168.5"/>
<text text-anchor="middle" x="4665.5212" y="-175.5" font-family="Helvetica,sans-Serif" font-size="10.00" fill="#000000">OneEqKsgs.cpp</text>
</a>
</g>
</g>
<!-- Node14&#45;&gt;Node80 -->
<g id="edge63" class="edge">
<title>Node14&#45;&gt;Node80</title>
<path fill="none" stroke="#191970" d="M4520.4089,-221.4561C4554.7354,-211.1765 4602.5777,-196.8494 4633.7942,-187.5011"/>
<polygon fill="#191970" stroke="#191970" points="4519.2432,-218.1515 4510.6676,-224.3733 4521.2514,-224.8573 4519.2432,-218.1515"/>
</g>
<!-- Node16 -->
<g id="node3" class="node">
<title>Node16</title>
<g id="a_node3"><a xlink:href="incflo_8_h.html" target="_top" xlink:title="incflo.H">
<polygon fill="#ffffff" stroke="#ff0000" points="4264.5212,-112.5 4264.5212,-131.5 4314.5212,-131.5 4314.5212,-112.5 4264.5212,-112.5"/>
<text text-anchor="middle" x="4289.5212" y="-119.5" font-family="Helvetica,sans-Serif" font-size="10.00" fill="#000000">incflo.H</text>
</a>
</g>
</g>
<!-- Node15&#45;&gt;Node16 -->
<g id="edge2" class="edge">
<title>Node15&#45;&gt;Node16</title>
<path fill="none" stroke="#191970" d="M2421.4182,-177.5283C2683.5327,-174.5689 4064.1212,-157.8469 4250.5212,-132 4255.0907,-131.3664 4259.8964,-130.3948 4264.5126,-129.3016"/>
<polygon fill="#191970" stroke="#191970" points="2421.1292,-174.0313 2411.1692,-177.6434 2421.2079,-181.0308 2421.1292,-174.0313"/>
</g>
<!-- Node35 -->
<g id="node6" class="node">
<title>Node35</title>
<g id="a_node6"><a xlink:href="_a_b_l_wall_function_8_h.html" target="_top" xlink:title="ABLWallFunction.H">
<polygon fill="#ffffff" stroke="#ff0000" points="4055.0212,-56.5 4055.0212,-75.5 4158.0212,-75.5 4158.0212,-56.5 4055.0212,-56.5"/>
<text text-anchor="middle" x="4106.5212" y="-63.5" font-family="Helvetica,sans-Serif" font-size="10.00" fill="#000000">ABLWallFunction.H</text>
</a>
</g>
</g>
<!-- Node15&#45;&gt;Node35 -->
<g id="edge5" class="edge">
<title>Node15&#45;&gt;Node35</title>
<path fill="none" stroke="#191970" d="M2421.409,-177.708C2674.455,-175.8735 3964.029,-164.9312 4040.5212,-132 4067.9074,-120.2098 4090.0216,-91.2723 4100.2946,-75.9276"/>
<polygon fill="#191970" stroke="#191970" points="2421.1279,-174.2099 2411.1533,-177.7815 2421.1781,-181.2097 2421.1279,-174.2099"/>
</g>
<!-- Node40 -->
<g id="node7" class="node">
<title>Node40</title>
<g id="a_node7"><a xlink:href="_a_b_l_stats_8_h.html" target="_top" xlink:title="ABLStats.H">
<polygon fill="#ffffff" stroke="#ff0000" points="4152.0212,-.5 4152.0212,-19.5 4221.0212,-19.5 4221.0212,-.5 4152.0212,-.5"/>
<text text-anchor="middle" x="4186.5212" y="-7.5" font-family="Helvetica,sans-Serif" font-size="10.00" fill="#000000">ABLStats.H</text>
</a>
</g>
</g>
<!-- Node15&#45;&gt;Node40 -->
<g id="edge12" class="edge">
<title>Node15&#45;&gt;Node40</title>
<path fill="none" stroke="#191970" d="M2421.717,-177.7459C2696.0469,-176.0322 4185.1328,-165.2086 4217.5212,-132 4248.3432,-100.3974 4211.223,-42.708 4194.1915,-19.7765"/>
<polygon fill="#191970" stroke="#191970" points="2421.3571,-174.2479 2411.3789,-177.8097 2421.4003,-181.2478 2421.3571,-174.2479"/>
</g>
<!-- Node42 -->
<g id="node8" class="node">
<title>Node42</title>
<g id="a_node8"><a xlink:href="_boussinesq_bubble_8cpp.html" target="_top" xlink:title="BoussinesqBubble.cpp">
<polygon fill="#ffffff" stroke="#000000" points="3993.5212,-.5 3993.5212,-19.5 4109.5212,-19.5 4109.5212,-.5 3993.5212,-.5"/>
<text text-anchor="middle" x="4051.5212" y="-7.5" font-family="Helvetica,sans-Serif" font-size="10.00" fill="#000000">BoussinesqBubble.cpp</text>
</a>
</g>
</g>
<!-- Node15&#45;&gt;Node42 -->
<g id="edge31" class="edge">
<title>Node15&#45;&gt;Node42</title>
<path fill="none" stroke="#191970" d="M2421.5455,-177.3584C2673.8344,-173.5243 3951.2514,-153.094 3985.5212,-132 4027.562,-106.1227 4044.5943,-43.4569 4049.7121,-19.5156"/>
<polygon fill="#191970" stroke="#191970" points="2421.2613,-173.8622 2411.3155,-177.5133 2421.3673,-180.8614 2421.2613,-173.8622"/>
</g>
<!-- Node43 -->
<g id="node9" class="node">
<title>Node43</title>
<g id="a_node9"><a xlink:href="_field_plane_averaging_8_h.html" target="_top" xlink:title="FieldPlaneAveraging.H">
<polygon fill="#ffffff" stroke="#ff0000" points="4092.5212,-112.5 4092.5212,-131.5 4208.5212,-131.5 4208.5212,-112.5 4092.5212,-112.5"/>
<text text-anchor="middle" x="4150.5212" y="-119.5" font-family="Helvetica,sans-Serif" font-size="10.00" fill="#000000">FieldPlaneAveraging.H</text>
</a>
</g>
</g>
<!-- Node15&#45;&gt;Node43 -->
<g id="edge8" class="edge">
<title>Node15&#45;&gt;Node43</title>
<path fill="none" stroke="#191970" d="M2421.526,-177.4842C2651.9327,-174.6219 3742.3525,-159.8069 4078.5212,-132 4083.0489,-131.6255 4087.727,-131.1585 4092.4237,-130.6326"/>
<polygon fill="#191970" stroke="#191970" points="2421.1668,-173.9882 2411.2107,-177.6114 2421.2532,-180.9877 2421.1668,-173.9882"/>
</g>
<!-- Node49 -->
<g id="node10" class="node">
<title>Node49</title>
<g id="a_node10"><a xlink:href="_a_b_l_boundary_plane_8_h.html" target="_top" xlink:title="ABLBoundaryPlane.H">
<polygon fill="#ffffff" stroke="#ff0000" points="13.5212,-112.5 13.5212,-131.5 125.5212,-131.5 125.5212,-112.5 13.5212,-112.5"/>
<text text-anchor="middle" x="69.5212" y="-119.5" font-family="Helvetica,sans-Serif" font-size="10.00" fill="#000000">ABLBoundaryPlane.H</text>
</a>
</g>
</g>
<!-- Node15&#45;&gt;Node49 -->
<g id="edge11" class="edge">
<title>Node15&#45;&gt;Node49</title>
<path fill="none" stroke="#191970" d="M2335.4478,-177.8949C2063.8207,-177.1151 585.1283,-171.1081 134.5212,-132 131.6775,-131.7532 128.7693,-131.4592 125.8364,-131.1297"/>
<polygon fill="#191970" stroke="#191970" points="2335.673,-181.3955 2345.6827,-177.9235 2335.6925,-174.3955 2335.673,-181.3955"/>
</g>
<!-- Node53 -->
<g id="node11" class="node">
<title>Node53</title>
<g id="a_node11"><a xlink:href="_c_f_d_sim_8cpp.html" target="_top" xlink:title="CFDSim.cpp">
<polygon fill="#ffffff" stroke="#000000" points="143.5212,-112.5 143.5212,-131.5 217.5212,-131.5 217.5212,-112.5 143.5212,-112.5"/>
<text text-anchor="middle" x="180.5212" y="-119.5" font-family="Helvetica,sans-Serif" font-size="10.00" fill="#000000">CFDSim.cpp</text>
</a>
</g>
</g>
<!-- Node15&#45;&gt;Node53 -->
<g id="edge13" class="edge">
<title>Node15&#45;&gt;Node53</title>
<path fill="none" stroke="#191970" d="M2335.3404,-177.5224C2050.6109,-174.3142 447.5576,-155.3186 231.5212,-132 227.0358,-131.5159 222.3571,-130.8394 217.7316,-130.0641"/>
<polygon fill="#191970" stroke="#191970" points="2335.6257,-181.0258 2345.6644,-177.6383 2335.7043,-174.0262 2335.6257,-181.0258"/>
</g>
<!-- Node54 -->
<g id="node12" class="node">
<title>Node54</title>
<g id="a_node12"><a xlink:href="_p_d_e_ops_8_h.html" target="_top" xlink:title="PDEOps.H">
<polygon fill="#ffffff" stroke="#ff0000" points="273.5212,-112.5 273.5212,-131.5 339.5212,-131.5 339.5212,-112.5 273.5212,-112.5"/>
<text text-anchor="middle" x="306.5212" y="-119.5" font-family="Helvetica,sans-Serif" font-size="10.00" fill="#000000">PDEOps.H</text>
</a>
</g>
</g>
<!-- Node15&#45;&gt;Node54 -->
<g id="edge14" class="edge">
<title>Node15&#45;&gt;Node54</title>
<path fill="none" stroke="#191970" d="M2335.5469,-177.5712C2060.4837,-174.7545 551.7588,-158.1987 348.5212,-132 345.6962,-131.6358 342.7846,-131.1595 339.8741,-130.6122"/>
<polygon fill="#191970" stroke="#191970" points="2335.8694,-181.0746 2345.9045,-177.6767 2335.9408,-174.0749 2335.8694,-181.0746"/>
</g>
<!-- Node15&#45;&gt;Node69 -->
<g id="edge16" class="edge">
<title>Node15&#45;&gt;Node69</title>
<path fill="none" stroke="#191970" d="M2335.2467,-177.7645C2037.8568,-176.0613 307.0588,-164.7505 264.5212,-132 247.1371,-118.6157 244.9272,-90.3756 245.0592,-75.5493"/>
<polygon fill="#191970" stroke="#191970" points="2335.5897,-181.2664 2345.6095,-177.8233 2335.6295,-174.2665 2335.5897,-181.2664"/>
</g>
<!-- Node37 -->
<g id="node14" class="node">
<title>Node37</title>
<g id="a_node14"><a xlink:href="_a_b_l_forcing_8cpp.html" target="_top" xlink:title="ABLForcing.cpp">
<polygon fill="#ffffff" stroke="#000000" points="357.5212,-112.5 357.5212,-131.5 443.5212,-131.5 443.5212,-112.5 357.5212,-112.5"/>
<text text-anchor="middle" x="400.5212" y="-119.5" font-family="Helvetica,sans-Serif" font-size="10.00" fill="#000000">ABLForcing.cpp</text>
</a>
</g>
</g>
<!-- Node15&#45;&gt;Node37 -->
<g id="edge17" class="edge">
<title>Node15&#45;&gt;Node37</title>
<path fill="none" stroke="#191970" d="M2335.8187,-177.9452C2088.2981,-177.4817 835.4918,-173.1093 452.5212,-132 449.5961,-131.686 446.5899,-131.2943 443.5684,-130.8491"/>
<polygon fill="#191970" stroke="#191970" points="2335.8506,-181.4452 2345.8567,-177.9629 2335.8629,-174.4452 2335.8506,-181.4452"/>
</g>
<!-- Node38 -->
<g id="node15" class="node">
<title>Node38</title>
<g id="a_node15"><a xlink:href="_a_b_l_mean_boussinesq_8cpp.html" target="_top" xlink:title="ABLMeanBoussinesq.cpp">
<polygon fill="#ffffff" stroke="#000000" points="462.0212,-112.5 462.0212,-131.5 591.0212,-131.5 591.0212,-112.5 462.0212,-112.5"/>
<text text-anchor="middle" x="526.5212" y="-119.5" font-family="Helvetica,sans-Serif" font-size="10.00" fill="#000000">ABLMeanBoussinesq.cpp</text>
</a>
</g>
</g>
<!-- Node15&#45;&gt;Node38 -->
<g id="edge18" class="edge">
<title>Node15&#45;&gt;Node38</title>
<path fill="none" stroke="#191970" d="M2335.4176,-177.5316C2098.4668,-174.8588 952.2775,-160.6342 599.5212,-132 596.8436,-131.7827 594.1142,-131.5337 591.3593,-131.2597"/>
<polygon fill="#191970" stroke="#191970" points="2335.6538,-181.0344 2345.6924,-177.6467 2335.7323,-174.0348 2335.6538,-181.0344"/>
</g>
<!-- Node83 -->
<g id="node16" class="node">
<title>Node83</title>
<g id="a_node16"><a xlink:href="_body_force_8cpp.html" target="_top" xlink:title="BodyForce.cpp">
<polygon fill="#ffffff" stroke="#000000" points="609.0212,-112.5 609.0212,-131.5 692.0212,-131.5 692.0212,-112.5 609.0212,-112.5"/>
<text text-anchor="middle" x="650.5212" y="-119.5" font-family="Helvetica,sans-Serif" font-size="10.00" fill="#000000">BodyForce.cpp</text>
</a>
</g>
</g>
<!-- Node15&#45;&gt;Node83 -->
<g id="edge19" class="edge">
<title>Node15&#45;&gt;Node83</title>
<path fill="none" stroke="#191970" d="M2335.699,-177.7901C2107.4575,-176.5247 1032.0692,-168.6825 701.5212,-132 698.4721,-131.6616 695.3334,-131.2368 692.1826,-130.7543"/>
<polygon fill="#191970" stroke="#191970" points="2335.9021,-181.2912 2345.921,-177.8455 2335.9401,-174.2913 2335.9021,-181.2912"/>
</g>
<!-- Node84 -->
<g id="node17" class="node">
<title>Node84</title>
<g id="a_node17"><a xlink:href="_boussinesq_buoyancy_8cpp.html" target="_top" xlink:title="BoussinesqBuoyancy.cpp">
<polygon fill="#ffffff" stroke="#000000" points="710.5212,-112.5 710.5212,-131.5 840.5212,-131.5 840.5212,-112.5 710.5212,-112.5"/>
<text text-anchor="middle" x="775.5212" y="-119.5" font-family="Helvetica,sans-Serif" font-size="10.00" fill="#000000">BoussinesqBuoyancy.cpp</text>
</a>
</g>
</g>
<!-- Node15&#45;&gt;Node84 -->
<g id="edge20" class="edge">
<title>Node15&#45;&gt;Node84</title>
<path fill="none" stroke="#191970" d="M2335.4374,-177.3118C2119.0985,-173.7634 1149.8201,-156.7399 849.5212,-132 846.6787,-131.7658 843.7783,-131.498 840.8509,-131.2042"/>
<polygon fill="#191970" stroke="#191970" points="2335.6876,-180.8163 2345.7434,-177.48 2335.8019,-173.8172 2335.6876,-180.8163"/>
</g>
<!-- Node85 -->
<g id="node18" class="node">
<title>Node85</title>
<g id="a_node18"><a xlink:href="_coriolis_forcing_8cpp.html" target="_top" xlink:title="CoriolisForcing.cpp">
<polygon fill="#ffffff" stroke="#000000" points="859.0212,-112.5 859.0212,-131.5 960.0212,-131.5 960.0212,-112.5 859.0212,-112.5"/>
<text text-anchor="middle" x="909.5212" y="-119.5" font-family="Helvetica,sans-Serif" font-size="10.00" fill="#000000">CoriolisForcing.cpp</text>
</a>
</g>
</g>
<!-- Node15&#45;&gt;Node85 -->
<g id="edge21" class="edge">
<title>Node15&#45;&gt;Node85</title>
<path fill="none" stroke="#191970" d="M2335.8345,-177.387C2130.5702,-174.3198 1243.6783,-159.6785 968.5212,-132 965.8335,-131.7296 963.0833,-131.4111 960.3108,-131.0568"/>
<polygon fill="#191970" stroke="#191970" points="2335.8654,-180.8877 2345.9163,-177.5365 2335.9693,-173.8885 2335.8654,-180.8877"/>
</g>
<!-- Node86 -->
<g id="node19" class="node">
<title>Node86</title>
<g id="a_node19"><a xlink:href="_density_buoyancy_8cpp.html" target="_top" xlink:title="DensityBuoyancy.cpp">
<polygon fill="#ffffff" stroke="#000000" points="978.0212,-112.5 978.0212,-131.5 1091.0212,-131.5 1091.0212,-112.5 978.0212,-112.5"/>
<text text-anchor="middle" x="1034.5212" y="-119.5" font-family="Helvetica,sans-Serif" font-size="10.00" fill="#000000">DensityBuoyancy.cpp</text>
</a>
</g>
</g>
<!-- Node15&#45;&gt;Node86 -->
<g id="edge22" class="edge">
<title>Node15&#45;&gt;Node86</title>
<path fill="none" stroke="#191970" d="M2335.8586,-177.1216C2142.6493,-173.0423 1348.3788,-155.1612 1100.5212,-132 1097.5211,-131.7197 1094.4496,-131.3931 1091.3521,-131.0326"/>
<polygon fill="#191970" stroke="#191970" points="2335.8341,-180.6217 2345.9055,-177.3326 2335.9812,-173.6233 2335.8341,-180.6217"/>
</g>
<!-- Node87 -->
<g id="node20" class="node">
<title>Node87</title>
<g id="a_node20"><a xlink:href="_geostrophic_forcing_8cpp.html" target="_top" xlink:title="GeostrophicForcing.cpp">
<polygon fill="#ffffff" stroke="#000000" points="1109.5212,-112.5 1109.5212,-131.5 1229.5212,-131.5 1229.5212,-112.5 1109.5212,-112.5"/>
<text text-anchor="middle" x="1169.5212" y="-119.5" font-family="Helvetica,sans-Serif" font-size="10.00" fill="#000000">GeostrophicForcing.cpp</text>
</a>
</g>
</g>
<!-- Node15&#45;&gt;Node87 -->
<g id="edge23" class="edge">
<title>Node15&#45;&gt;Node87</title>
<path fill="none" stroke="#191970" d="M2335.6073,-176.8648C2155.219,-172.0008 1457.651,-152.2451 1238.5212,-132 1235.6284,-131.7327 1232.6717,-131.4277 1229.6883,-131.0943"/>
<polygon fill="#191970" stroke="#191970" points="2335.6735,-180.3677 2345.7639,-177.1376 2335.8615,-173.3702 2335.6735,-180.3677"/>
</g>
<!-- Node15&#45;&gt;Node88 -->
<g id="edge24" class="edge">
<title>Node15&#45;&gt;Node88</title>
<path fill="none" stroke="#191970" d="M2421.3799,-177.4439C2689.301,-173.9066 4128.8325,-153.9917 4323.5212,-132 4326.5407,-131.6589 4329.6506,-131.2242 4332.7695,-130.7278"/>
<polygon fill="#191970" stroke="#191970" points="2421.228,-173.9455 2411.2749,-177.5768 2421.3201,-180.9449 2421.228,-173.9455"/>
</g>
<!-- Node89 -->
<g id="node22" class="node">
<title>Node89</title>
<g id="a_node22"><a xlink:href="_ksgs_m84_src_8cpp.html" target="_top" xlink:title="KsgsM84Src.cpp">
<polygon fill="#ffffff" stroke="#000000" points="1247.5212,-112.5 1247.5212,-131.5 1339.5212,-131.5 1339.5212,-112.5 1247.5212,-112.5"/>
<text text-anchor="middle" x="1293.5212" y="-119.5" font-family="Helvetica,sans-Serif" font-size="10.00" fill="#000000">KsgsM84Src.cpp</text>
</a>
</g>
</g>
<!-- Node15&#45;&gt;Node89 -->
<g id="edge25" class="edge">
<title>Node15&#45;&gt;Node89</title>
<path fill="none" stroke="#191970" d="M2335.926,-176.8673C2167.098,-172.2585 1544.6316,-154.1047 1348.5212,-132 1345.6279,-131.6739 1342.6575,-131.2869 1339.6677,-130.8577"/>
<polygon fill="#191970" stroke="#191970" points="2335.8343,-180.366 2345.9257,-177.1389 2336.0244,-173.3686 2335.8343,-180.366"/>
</g>
<!-- Node90 -->
<g id="node23" class="node">
<title>Node90</title>
<g id="a_node23"><a xlink:href="_m_m_s_8_h.html" target="_top" xlink:title="MMS.H">
<polygon fill="#ffffff" stroke="#000000" points="1357.5212,-112.5 1357.5212,-131.5 1407.5212,-131.5 1407.5212,-112.5 1357.5212,-112.5"/>
<text text-anchor="middle" x="1382.5212" y="-119.5" font-family="Helvetica,sans-Serif" font-size="10.00" fill="#000000">MMS.H</text>
</a>
</g>
</g>
<!-- Node15&#45;&gt;Node90 -->
<g id="edge26" class="edge">
<title>Node15&#45;&gt;Node90</title>
<path fill="none" stroke="#191970" d="M2335.7747,-177.3086C2173.7132,-174.4776 1597.2203,-162.4449 1416.5212,-132 1413.6089,-131.5093 1410.5934,-130.8511 1407.6157,-130.1054"/>
<polygon fill="#191970" stroke="#191970" points="2335.7827,-180.8092 2345.8415,-177.4819 2335.9032,-173.8102 2335.7827,-180.8092"/>
</g>
<!-- Node91 -->
<g id="node24" class="node">
<title>Node91</title>
<g id="a_node24"><a xlink:href="_m_m_s_8cpp.html" target="_top" xlink:title="MMS.cpp">
<polygon fill="#ffffff" stroke="#000000" points="1422.0212,-56.5 1422.0212,-75.5 1481.0212,-75.5 1481.0212,-56.5 1422.0212,-56.5"/>
<text text-anchor="middle" x="1451.5212" y="-63.5" font-family="Helvetica,sans-Serif" font-size="10.00" fill="#000000">MMS.cpp</text>
</a>
</g>
</g>
<!-- Node15&#45;&gt;Node91 -->
<g id="edge28" class="edge">
<title>Node15&#45;&gt;Node91</title>
<path fill="none" stroke="#191970" d="M2335.4335,-176.7462C2177.893,-172 1638.4656,-154.2705 1564.5212,-132 1554.0792,-128.8551 1495.7377,-93.3026 1467.2195,-75.7228"/>
<polygon fill="#191970" stroke="#191970" points="2335.5776,-180.252 2345.6779,-177.0527 2335.787,-173.2551 2335.5776,-180.252"/>
</g>
<!-- Node92 -->
<g id="node25" class="node">
<title>Node92</title>
<g id="a_node25"><a xlink:href="_m_m_s_forcing_8cpp.html" target="_top" xlink:title="MMSForcing.cpp">
<polygon fill="#ffffff" stroke="#000000" points="1426.0212,-112.5 1426.0212,-131.5 1517.0212,-131.5 1517.0212,-112.5 1426.0212,-112.5"/>
<text text-anchor="middle" x="1471.5212" y="-119.5" font-family="Helvetica,sans-Serif" font-size="10.00" fill="#000000">MMSForcing.cpp</text>
</a>
</g>
</g>
<!-- Node15&#45;&gt;Node92 -->
<g id="edge29" class="edge">
<title>Node15&#45;&gt;Node92</title>
<path fill="none" stroke="#191970" d="M2335.4411,-177.3461C2210.6702,-175.0899 1838.3922,-165.8002 1531.5212,-132 1526.9025,-131.4913 1522.0991,-130.862 1517.3108,-130.1687"/>
<polygon fill="#191970" stroke="#191970" points="2335.6524,-180.8502 2345.7122,-177.5259 2335.775,-173.8513 2335.6524,-180.8502"/>
</g>
<!-- Node15&#45;&gt;Node93 -->
<g id="edge30" class="edge">
<title>Node15&#45;&gt;Node93</title>
<path fill="none" stroke="#191970" d="M2421.3414,-177.9181C2677.8653,-177.2944 4013.6395,-172.1386 4421.5212,-132 4424.1208,-131.7442 4426.7804,-131.4372 4429.4608,-131.092"/>
<polygon fill="#191970" stroke="#191970" points="2421.2933,-174.4181 2411.3015,-177.9415 2421.3096,-181.4181 2421.2933,-174.4181"/>
</g>
<!-- Node94 -->
<g id="node27" class="node">
<title>Node94</title>
<g id="a_node27"><a xlink:href="_convecting_taylor_vortex_8_h.html" target="_top" xlink:title="ConvectingTaylorVortex.H">
<polygon fill="#ffffff" stroke="#000000" points="1573.5212,-112.5 1573.5212,-131.5 1705.5212,-131.5 1705.5212,-112.5 1573.5212,-112.5"/>
<text text-anchor="middle" x="1639.5212" y="-119.5" font-family="Helvetica,sans-Serif" font-size="10.00" fill="#000000">ConvectingTaylorVortex.H</text>
</a>
</g>
</g>
<!-- Node15&#45;&gt;Node94 -->
<g id="edge32" class="edge">
<title>Node15&#45;&gt;Node94</title>
<path fill="none" stroke="#191970" d="M2335.6931,-175.8234C2230.5859,-170.3048 1951.5502,-154.5829 1719.5212,-132 1715.0632,-131.5661 1710.4697,-131.0845 1705.8443,-130.5737"/>
<polygon fill="#191970" stroke="#191970" points="2335.7292,-179.33 2345.898,-176.3558 2336.0939,-172.3395 2335.7292,-179.33"/>
</g>
<!-- Node95 -->
<g id="node28" class="node">
<title>Node95</title>
<g id="a_node28"><a xlink:href="_convecting_taylor_vortex_8cpp.html" target="_top" xlink:title="ConvectingTaylorVortex.cpp">
<polygon fill="#ffffff" stroke="#000000" points="1584.5212,-56.5 1584.5212,-75.5 1724.5212,-75.5 1724.5212,-56.5 1584.5212,-56.5"/>
<text text-anchor="middle" x="1654.5212" y="-63.5" font-family="Helvetica,sans-Serif" font-size="10.00" fill="#000000">ConvectingTaylorVortex.cpp</text>
</a>
</g>
</g>
<!-- Node15&#45;&gt;Node95 -->
<g id="edge34" class="edge">
<title>Node15&#45;&gt;Node95</title>
<path fill="none" stroke="#191970" d="M2335.8437,-177.7035C2213.0473,-176.4047 1860.7216,-169.4273 1752.5212,-132 1734.1049,-125.6297 1689.0427,-92.3597 1667.0316,-75.6283"/>
<polygon fill="#191970" stroke="#191970" points="2335.9501,-181.2047 2345.9841,-177.8033 2336.019,-174.205 2335.9501,-181.2047"/>
</g>
<!-- Node96 -->
<g id="node29" class="node">
<title>Node96</title>
<g id="a_node29"><a xlink:href="_ekman_spiral_8_h.html" target="_top" xlink:title="EkmanSpiral.H">
<polygon fill="#ffffff" stroke="#000000" points="1762.0212,-112.5 1762.0212,-131.5 1845.0212,-131.5 1845.0212,-112.5 1762.0212,-112.5"/>
<text text-anchor="middle" x="1803.5212" y="-119.5" font-family="Helvetica,sans-Serif" font-size="10.00" fill="#000000">EkmanSpiral.H</text>
</a>
</g>
</g>
<!-- Node15&#45;&gt;Node96 -->
<g id="edge35" class="edge">
<title>Node15&#45;&gt;Node96</title>
<path fill="none" stroke="#191970" d="M2335.8434,-175.7915C2246.3014,-170.8204 2032.3896,-157.1729 1854.5212,-132 1851.4837,-131.5701 1848.3534,-131.078 1845.2086,-130.5479"/>
<polygon fill="#191970" stroke="#191970" points="2335.708,-179.2893 2345.8845,-176.3414 2336.0908,-172.2998 2335.708,-179.2893"/>
</g>
<!-- Node97 -->
<g id="node30" class="node">
<title>Node97</title>
<g id="a_node30"><a xlink:href="_ekman_spiral_8cpp.html" target="_top" xlink:title="EkmanSpiral.cpp">
<polygon fill="#ffffff" stroke="#000000" points="2269.0212,-56.5 2269.0212,-75.5 2360.0212,-75.5 2360.0212,-56.5 2269.0212,-56.5"/>
<text text-anchor="middle" x="2314.5212" y="-63.5" font-family="Helvetica,sans-Serif" font-size="10.00" fill="#000000">EkmanSpiral.cpp</text>
</a>
</g>
</g>
<!-- Node15&#45;&gt;Node97 -->
<g id="edge37" class="edge">
<title>Node15&#45;&gt;Node97</title>
<path fill="none" stroke="#191970" d="M2421.6019,-176.8642C2529.7778,-173.5695 2806.1796,-162.2451 2833.5212,-132 2839.4821,-125.4061 2839.5227,-118.557 2833.5212,-112 2801.877,-77.4272 2481.3145,-68.684 2360.3727,-66.6078"/>
<polygon fill="#191970" stroke="#191970" points="2421.2623,-173.3726 2411.3702,-177.167 2421.4694,-180.3696 2421.2623,-173.3726"/>
</g>
<!-- Node98 -->
<g id="node31" class="node">
<title>Node98</title>
<g id="a_node31"><a xlink:href="_free_stream_8cpp.html" target="_top" xlink:title="FreeStream.cpp">
<polygon fill="#ffffff" stroke="#000000" points="1863.5212,-112.5 1863.5212,-131.5 1949.5212,-131.5 1949.5212,-112.5 1863.5212,-112.5"/>
<text text-anchor="middle" x="1906.5212" y="-119.5" font-family="Helvetica,sans-Serif" font-size="10.00" fill="#000000">FreeStream.cpp</text>
</a>
</g>
</g>
<!-- Node15&#45;&gt;Node98 -->
<g id="edge38" class="edge">
<title>Node15&#45;&gt;Node98</title>
<path fill="none" stroke="#191970" d="M2335.8601,-174.4767C2259.7998,-167.9394 2095.8602,-152.692 1958.5212,-132 1955.6122,-131.5617 1952.6179,-131.0768 1949.6052,-130.5636"/>
<polygon fill="#191970" stroke="#191970" points="2335.7362,-177.9788 2345.9974,-175.341 2336.3309,-171.0041 2335.7362,-177.9788"/>
</g>
<!-- Node99 -->
<g id="node32" class="node">
<title>Node99</title>
<g id="a_node32"><a xlink:href="_dam_break_8cpp.html" target="_top" xlink:title="DamBreak.cpp">
<polygon fill="#ffffff" stroke="#000000" points="1967.5212,-112.5 1967.5212,-131.5 2049.5212,-131.5 2049.5212,-112.5 1967.5212,-112.5"/>
<text text-anchor="middle" x="2008.5212" y="-119.5" font-family="Helvetica,sans-Serif" font-size="10.00" fill="#000000">DamBreak.cpp</text>
</a>
</g>
</g>
<!-- Node15&#45;&gt;Node99 -->
<g id="edge39" class="edge">
<title>Node15&#45;&gt;Node99</title>
<path fill="none" stroke="#191970" d="M2335.6135,-172.5895C2274.0972,-164.6606 2157.3523,-148.9736 2058.5212,-132 2055.642,-131.5055 2052.6743,-130.9724 2049.6887,-130.4187"/>
<polygon fill="#191970" stroke="#191970" points="2335.3571,-176.0852 2345.7212,-173.8864 2336.248,-169.1421 2335.3571,-176.0852"/>
</g>
<!-- Node100 -->
<g id="node33" class="node">
<title>Node100</title>
<g id="a_node33"><a xlink:href="_multi_phase_8cpp.html" target="_top" xlink:title="MultiPhase.cpp">
<polygon fill="#ffffff" stroke="#000000" points="2067.5212,-112.5 2067.5212,-131.5 2151.5212,-131.5 2151.5212,-112.5 2067.5212,-112.5"/>
<text text-anchor="middle" x="2109.5212" y="-119.5" font-family="Helvetica,sans-Serif" font-size="10.00" fill="#000000">MultiPhase.cpp</text>
</a>
</g>
</g>
<!-- Node15&#45;&gt;Node100 -->
<g id="edge40" class="edge">
<title>Node15&#45;&gt;Node100</title>
<path fill="none" stroke="#191970" d="M2335.8705,-169.1211C2285.4231,-158.619 2201.9709,-141.246 2151.7211,-130.7851"/>
<polygon fill="#191970" stroke="#191970" points="2335.3019,-172.5777 2345.8054,-171.1893 2336.7287,-165.7246 2335.3019,-172.5777"/>
</g>
<!-- Node101 -->
<g id="node34" class="node">
<title>Node101</title>
<g id="a_node34"><a xlink:href="_vortex_patch_8cpp.html" target="_top" xlink:title="VortexPatch.cpp">
<polygon fill="#ffffff" stroke="#000000" points="2169.0212,-112.5 2169.0212,-131.5 2258.0212,-131.5 2258.0212,-112.5 2169.0212,-112.5"/>
<text text-anchor="middle" x="2213.5212" y="-119.5" font-family="Helvetica,sans-Serif" font-size="10.00" fill="#000000">VortexPatch.cpp</text>
</a>
</g>
</g>
<!-- Node15&#45;&gt;Node101 -->
<g id="edge41" class="edge">
<title>Node15&#45;&gt;Node101</title>
<path fill="none" stroke="#191970" d="M2340.3856,-165.057C2310.1887,-154.8084 2268.7049,-140.729 2241.5155,-131.5011"/>
<polygon fill="#191970" stroke="#191970" points="2339.5623,-168.4736 2350.1566,-168.3733 2341.812,-161.845 2339.5623,-168.4736"/>
</g>
<!-- Node102 -->
<g id="node35" class="node">
<title>Node102</title>
<g id="a_node35"><a xlink:href="_zalesak_disk_8cpp.html" target="_top" xlink:title="ZalesakDisk.cpp">
<polygon fill="#ffffff" stroke="#000000" points="2276.5212,-112.5 2276.5212,-131.5 2366.5212,-131.5 2366.5212,-112.5 2276.5212,-112.5"/>
<text text-anchor="middle" x="2321.5212" y="-119.5" font-family="Helvetica,sans-Serif" font-size="10.00" fill="#000000">ZalesakDisk.cpp</text>
</a>
</g>
</g>
<!-- Node15&#45;&gt;Node102 -->
<g id="edge42" class="edge">
<title>Node15&#45;&gt;Node102</title>
<path fill="none" stroke="#191970" d="M2361.2941,-161.0751C2351.4871,-151.4402 2339.5571,-139.7196 2331.336,-131.6427"/>
<polygon fill="#191970" stroke="#191970" points="2359.0062,-163.734 2368.5925,-168.2455 2363.912,-158.7406 2359.0062,-163.734"/>
</g>
<!-- Node103 -->
<g id="node36" class="node">
<title>Node103</title>
<g id="a_node36"><a xlink:href="_rayleigh_taylor_8cpp.html" target="_top" xlink:title="RayleighTaylor.cpp">
<polygon fill="#ffffff" stroke="#000000" points="2385.0212,-112.5 2385.0212,-131.5 2486.0212,-131.5 2486.0212,-112.5 2385.0212,-112.5"/>
<text text-anchor="middle" x="2435.5212" y="-119.5" font-family="Helvetica,sans-Serif" font-size="10.00" fill="#000000">RayleighTaylor.cpp</text>
</a>
</g>
</g>
<!-- Node15&#45;&gt;Node103 -->
<g id="edge43" class="edge">
<title>Node15&#45;&gt;Node103</title>
<path fill="none" stroke="#191970" d="M2395.7482,-161.0751C2405.5552,-151.4402 2417.4852,-139.7196 2425.7063,-131.6427"/>
<polygon fill="#191970" stroke="#191970" points="2393.1303,-158.7406 2388.4498,-168.2455 2398.0361,-163.734 2393.1303,-158.7406"/>
</g>
<!-- Node104 -->
<g id="node37" class="node">
<title>Node104</title>
<g id="a_node37"><a xlink:href="_taylor_green_vortex_8cpp.html" target="_top" xlink:title="TaylorGreenVortex.cpp">
<polygon fill="#ffffff" stroke="#000000" points="2504.0212,-112.5 2504.0212,-131.5 2621.0212,-131.5 2621.0212,-112.5 2504.0212,-112.5"/>
<text text-anchor="middle" x="2562.5212" y="-119.5" font-family="Helvetica,sans-Serif" font-size="10.00" fill="#000000">TaylorGreenVortex.cpp</text>
</a>
</g>
</g>
<!-- Node15&#45;&gt;Node104 -->
<g id="edge44" class="edge">
<title>Node15&#45;&gt;Node104</title>
<path fill="none" stroke="#191970" d="M2419.7369,-165.4561C2453.5127,-155.1765 2500.5875,-140.8494 2531.3032,-131.5011"/>
<polygon fill="#191970" stroke="#191970" points="2418.6995,-162.1132 2410.1519,-168.3733 2420.7377,-168.8099 2418.6995,-162.1132"/>
</g>
<!-- Node105 -->
<g id="node38" class="node">
<title>Node105</title>
<g id="a_node38"><a xlink:href="_turb_model_8_h.html" target="_top" xlink:title="TurbModel.H">
<polygon fill="#ffffff" stroke="#ff0000" points="2639.0212,-112.5 2639.0212,-131.5 2712.0212,-131.5 2712.0212,-112.5 2639.0212,-112.5"/>
<text text-anchor="middle" x="2675.5212" y="-119.5" font-family="Helvetica,sans-Serif" font-size="10.00" fill="#000000">TurbModel.H</text>
</a>
</g>
</g>
<!-- Node15&#45;&gt;Node105 -->
<g id="edge45" class="edge">
<title>Node15&#45;&gt;Node105</title>
<path fill="none" stroke="#191970" d="M2421.1959,-170.6187C2471.2042,-161.8673 2556.5224,-146.6197 2629.5212,-132 2632.5663,-131.3901 2635.7209,-130.741 2638.8855,-130.0777"/>
<polygon fill="#191970" stroke="#191970" points="2420.3268,-167.2174 2411.0777,-172.385 2421.5307,-174.1132 2420.3268,-167.2174"/>
</g>
<!-- Node108 -->
<g id="node39" class="node">
<title>Node108</title>
<g id="a_node39"><a xlink:href="turbulence__utils_8_h.html" target="_top" xlink:title="turbulence_utils.H">
<polygon fill="#ffffff" stroke="#000000" points="2730.0212,-112.5 2730.0212,-131.5 2825.0212,-131.5 2825.0212,-112.5 2730.0212,-112.5"/>
<text text-anchor="middle" x="2777.5212" y="-119.5" font-family="Helvetica,sans-Serif" font-size="10.00" fill="#000000">turbulence_utils.H</text>
</a>
</g>
</g>
<!-- Node15&#45;&gt;Node108 -->
<g id="edge46" class="edge">
<title>Node15&#45;&gt;Node108</title>
<path fill="none" stroke="#191970" d="M2421.36,-172.7963C2486.208,-164.7929 2613.1251,-148.6364 2720.5212,-132 2723.599,-131.5232 2726.7673,-131.0153 2729.9589,-130.4907"/>
<polygon fill="#191970" stroke="#191970" points="2420.6187,-169.361 2411.1208,-174.0558 2421.4734,-176.3086 2420.6187,-169.361"/>
</g>
<!-- Node113 -->
<g id="node40" class="node">
<title>Node113</title>
<g id="a_node40"><a xlink:href="_derived_quantity_8_h.html" target="_top" xlink:title="DerivedQuantity.H">
<polygon fill="#ffffff" stroke="#ff0000" points="2881.5212,-112.5 2881.5212,-131.5 2979.5212,-131.5 2979.5212,-112.5 2881.5212,-112.5"/>
<text text-anchor="middle" x="2930.5212" y="-119.5" font-family="Helvetica,sans-Serif" font-size="10.00" fill="#000000">DerivedQuantity.H</text>
</a>
</g>
</g>
<!-- Node15&#45;&gt;Node113 -->
<g id="edge47" class="edge">
<title>Node15&#45;&gt;Node113</title>
<path fill="none" stroke="#191970" d="M2421.2787,-174.8979C2506.4086,-168.5185 2703.0676,-152.7655 2867.5212,-132 2872.0259,-131.4312 2876.7037,-130.7881 2881.3835,-130.109"/>
<polygon fill="#191970" stroke="#191970" points="2420.9316,-171.4139 2411.2191,-175.6469 2421.4514,-178.3946 2420.9316,-171.4139"/>
</g>
<!-- Node116 -->
<g id="node41" class="node">
<title>Node116</title>
<g id="a_node41"><a xlink:href="_i_o_manager_8cpp.html" target="_top" xlink:title="IOManager.cpp">
<polygon fill="#ffffff" stroke="#000000" points="3402.0212,-56.5 3402.0212,-75.5 3485.0212,-75.5 3485.0212,-56.5 3402.0212,-56.5"/>
<text text-anchor="middle" x="3443.5212" y="-63.5" font-family="Helvetica,sans-Serif" font-size="10.00" fill="#000000">IOManager.cpp</text>
</a>
</g>
</g>
<!-- Node15&#45;&gt;Node116 -->
<g id="edge49" class="edge">
<title>Node15&#45;&gt;Node116</title>
<path fill="none" stroke="#191970" d="M2421.298,-177.5779C2672.1137,-175.004 3941.7593,-160.5761 3969.5212,-132 3975.7151,-125.6244 3975.5265,-118.5535 3969.5212,-112 3937.0073,-76.5186 3603.8844,-68.2949 3485.2182,-66.4851"/>
<polygon fill="#191970" stroke="#191970" points="2421.0913,-174.0797 2411.1275,-177.6814 2421.1627,-181.0793 2421.0913,-174.0797"/>
</g>
<!-- Node118 -->
<g id="node42" class="node">
<title>Node118</title>
<g id="a_node42"><a xlink:href="_post_processing_8cpp.html" target="_top" xlink:title="PostProcessing.cpp">
<polygon fill="#ffffff" stroke="#000000" points="2997.5212,-112.5 2997.5212,-131.5 3101.5212,-131.5 3101.5212,-112.5 2997.5212,-112.5"/>
<text text-anchor="middle" x="3049.5212" y="-119.5" font-family="Helvetica,sans-Serif" font-size="10.00" fill="#000000">PostProcessing.cpp</text>
</a>
</g>
</g>
<!-- Node15&#45;&gt;Node118 -->
<g id="edge50" class="edge">
<title>Node15&#45;&gt;Node118</title>
<path fill="none" stroke="#191970" d="M2421.2875,-176.0605C2520.9652,-171.2596 2776.3796,-157.3385 2988.5212,-132 2991.3982,-131.6564 2994.347,-131.274 2997.3203,-130.8648"/>
<polygon fill="#191970" stroke="#191970" points="2420.8438,-172.5776 2411.0215,-176.5491 2421.1766,-179.5696 2420.8438,-172.5776"/>
</g>
<!-- Node119 -->
<g id="node43" class="node">
<title>Node119</title>
<g id="a_node43"><a xlink:href="_line_sampler_8cpp.html" target="_top" xlink:title="LineSampler.cpp">
<polygon fill="#ffffff" stroke="#000000" points="3120.0212,-112.5 3120.0212,-131.5 3209.0212,-131.5 3209.0212,-112.5 3120.0212,-112.5"/>
<text text-anchor="middle" x="3164.5212" y="-119.5" font-family="Helvetica,sans-Serif" font-size="10.00" fill="#000000">LineSampler.cpp</text>
</a>
</g>
</g>
<!-- Node15&#45;&gt;Node119 -->
<g id="edge51" class="edge">
<title>Node15&#45;&gt;Node119</title>
<path fill="none" stroke="#191970" d="M2421.4247,-177.1063C2534.5333,-174.3608 2850.0644,-164.1815 3110.5212,-132 3113.5491,-131.6259 3116.6639,-131.189 3119.7964,-130.711"/>
<polygon fill="#191970" stroke="#191970" points="2421.0339,-173.6144 2411.1192,-177.3493 2421.199,-180.6125 2421.0339,-173.6144"/>
</g>
<!-- Node120 -->
<g id="node44" class="node">
<title>Node120</title>
<g id="a_node44"><a xlink:href="_probe_sampler_8cpp.html" target="_top" xlink:title="ProbeSampler.cpp">
<polygon fill="#ffffff" stroke="#000000" points="3227.0212,-112.5 3227.0212,-131.5 3324.0212,-131.5 3324.0212,-112.5 3227.0212,-112.5"/>
<text text-anchor="middle" x="3275.5212" y="-119.5" font-family="Helvetica,sans-Serif" font-size="10.00" fill="#000000">ProbeSampler.cpp</text>
</a>
</g>
</g>
<!-- Node15&#45;&gt;Node120 -->
<g id="edge52" class="edge">
<title>Node15&#45;&gt;Node120</title>
<path fill="none" stroke="#191970" d="M2421.2037,-177.406C2544.8212,-175.3106 2913.6436,-166.4093 3217.5212,-132 3220.5671,-131.6551 3223.6956,-131.2537 3226.8456,-130.8138"/>
<polygon fill="#191970" stroke="#191970" points="2420.9689,-173.9093 2411.0275,-177.5724 2421.0834,-180.9084 2420.9689,-173.9093"/>
</g>
<!-- Node121 -->
<g id="node45" class="node">
<title>Node121</title>
<g id="a_node45"><a xlink:href="_sampling_8_h.html" target="_top" xlink:title="Sampling.H">
<polygon fill="#ffffff" stroke="#ff0000" points="3342.5212,-112.5 3342.5212,-131.5 3410.5212,-131.5 3410.5212,-112.5 3342.5212,-112.5"/>
<text text-anchor="middle" x="3376.5212" y="-119.5" font-family="Helvetica,sans-Serif" font-size="10.00" fill="#000000">Sampling.H</text>
</a>
</g>
</g>
<!-- Node15&#45;&gt;Node121 -->
<g id="edge53" class="edge">
<title>Node15&#45;&gt;Node121</title>
<path fill="none" stroke="#191970" d="M2421.3981,-176.9326C2582.6542,-172.7627 3152.6704,-156.5802 3332.5212,-132 3335.781,-131.5545 3339.1555,-130.986 3342.5194,-130.3468"/>
<polygon fill="#191970" stroke="#191970" points="2421.2829,-173.4343 2411.376,-177.1898 2421.4626,-180.432 2421.2829,-173.4343"/>
</g>
<!-- Node123 -->
<g id="node46" class="node">
<title>Node123</title>
<g id="a_node46"><a xlink:href="_cart_box_refinement_8cpp.html" target="_top" xlink:title="CartBoxRefinement.cpp">
<polygon fill="#ffffff" stroke="#000000" points="3428.5212,-112.5 3428.5212,-131.5 3550.5212,-131.5 3550.5212,-112.5 3428.5212,-112.5"/>
<text text-anchor="middle" x="3489.5212" y="-119.5" font-family="Helvetica,sans-Serif" font-size="10.00" fill="#000000">CartBoxRefinement.cpp</text>
</a>
</g>
</g>
<!-- Node15&#45;&gt;Node123 -->
<g id="edge54" class="edge">
<title>Node15&#45;&gt;Node123</title>
<path fill="none" stroke="#191970" d="M2421.4908,-177.6046C2563.913,-175.9733 3033.3638,-168.0276 3419.5212,-132 3422.4547,-131.7263 3425.4534,-131.416 3428.4793,-131.0785"/>
<polygon fill="#191970" stroke="#191970" points="2421.3801,-174.1055 2411.4193,-177.7156 2421.4573,-181.1051 2421.3801,-174.1055"/>
</g>
<!-- Node124 -->
<g id="node47" class="node">
<title>Node124</title>
<g id="a_node47"><a xlink:href="_field_refinement_8cpp.html" target="_top" xlink:title="FieldRefinement.cpp">
<polygon fill="#ffffff" stroke="#000000" points="3569.0212,-112.5 3569.0212,-131.5 3676.0212,-131.5 3676.0212,-112.5 3569.0212,-112.5"/>
<text text-anchor="middle" x="3622.5212" y="-119.5" font-family="Helvetica,sans-Serif" font-size="10.00" fill="#000000">FieldRefinement.cpp</text>
</a>
</g>
</g>
<!-- Node15&#45;&gt;Node124 -->
<g id="edge55" class="edge">
<title>Node15&#45;&gt;Node124</title>
<path fill="none" stroke="#191970" d="M2421.1766,-177.0173C2605.1786,-172.6737 3331.9149,-154.417 3559.5212,-132 3562.6071,-131.6961 3565.7716,-131.339 3568.9606,-130.944"/>
<polygon fill="#191970" stroke="#191970" points="2420.997,-173.5205 2411.082,-177.2545 2421.1614,-180.5185 2420.997,-173.5205"/>
</g>
<!-- Node125 -->
<g id="node48" class="node">
<title>Node125</title>
<g id="a_node48"><a xlink:href="_geometry_refinement_8cpp.html" target="_top" xlink:title="GeometryRefinement.cpp">
<polygon fill="#ffffff" stroke="#000000" points="3694.5212,-112.5 3694.5212,-131.5 3822.5212,-131.5 3822.5212,-112.5 3694.5212,-112.5"/>
<text text-anchor="middle" x="3758.5212" y="-119.5" font-family="Helvetica,sans-Serif" font-size="10.00" fill="#000000">GeometryRefinement.cpp</text>
</a>
</g>
</g>
<!-- Node15&#45;&gt;Node125 -->
<g id="edge56" class="edge">
<title>Node15&#45;&gt;Node125</title>
<path fill="none" stroke="#191970" d="M2421.4977,-177.0721C2617.9259,-172.7413 3431.5979,-153.8044 3685.5212,-132 3688.4525,-131.7483 3691.4464,-131.4611 3694.4679,-131.1468"/>
<polygon fill="#191970" stroke="#191970" points="2421.2105,-173.5775 2411.2897,-177.2962 2421.3642,-180.5758 2421.2105,-173.5775"/>
</g>
<!-- Node126 -->
<g id="node49" class="node">
<title>Node126</title>
<g id="a_node49"><a xlink:href="_overset_refinement_8cpp.html" target="_top" xlink:title="OversetRefinement.cpp">
<polygon fill="#ffffff" stroke="#000000" points="3840.5212,-112.5 3840.5212,-131.5 3960.5212,-131.5 3960.5212,-112.5 3840.5212,-112.5"/>
<text text-anchor="middle" x="3900.5212" y="-119.5" font-family="Helvetica,sans-Serif" font-size="10.00" fill="#000000">OversetRefinement.cpp</text>
</a>
</g>
</g>
<!-- Node15&#45;&gt;Node126 -->
<g id="edge57" class="edge">
<title>Node15&#45;&gt;Node126</title>
<path fill="none" stroke="#191970" d="M2421.4663,-177.2921C2630.9728,-173.7392 3547.1846,-157.0253 3831.5212,-132 3834.415,-131.7453 3837.3727,-131.4505 3840.3568,-131.1253"/>
<polygon fill="#191970" stroke="#191970" points="2421.1257,-173.7973 2411.1862,-177.4655 2421.2438,-180.7963 2421.1257,-173.7973"/>
</g>
<!-- Node16&#45;&gt;Node20 -->
<g id="edge3" class="edge">
<title>Node16&#45;&gt;Node20</title>
<path fill="none" stroke="#191970" d="M4316.7837,-107.46C4335.5734,-97.4388 4360.0225,-84.3993 4376.4411,-75.6427"/>
<polygon fill="#191970" stroke="#191970" points="4314.9872,-104.4514 4307.8108,-112.2455 4318.2814,-110.6278 4314.9872,-104.4514"/>
</g>
<!-- Node16&#45;&gt;Node21 -->
<g id="edge4" class="edge">
<title>Node16&#45;&gt;Node21</title>
<path fill="none" stroke="#191970" d="M4324.2217,-112.0744C4324.3217,-112.0495 4324.4215,-112.0247 4324.5212,-112 4381.7742,-97.7992 4448.1756,-84.1937 4492.509,-75.5135"/>
<polygon fill="#191970" stroke="#191970" points="4323.4812,-108.6501 4314.6994,-114.5773 4325.2607,-115.4202 4323.4812,-108.6501"/>
</g>
<!-- Node35&#45;&gt;Node40 -->
<g id="edge6" class="edge">
<title>Node35&#45;&gt;Node40</title>
<path fill="none" stroke="#191970" d="M4128.6782,-50.49C4142.7931,-40.6096 4160.6363,-28.1194 4172.7459,-19.6427"/>
<polygon fill="#191970" stroke="#191970" points="4126.6413,-47.6436 4120.4561,-56.2455 4130.6556,-53.3782 4126.6413,-47.6436"/>
</g>
<!-- Node35&#45;&gt;Node42 -->
<g id="edge7" class="edge">
<title>Node35&#45;&gt;Node42</title>
<path fill="none" stroke="#191970" d="M4089.8985,-49.0751C4080.4357,-39.4402 4068.9243,-27.7196 4060.9916,-19.6427"/>
<polygon fill="#191970" stroke="#191970" points="4087.4367,-51.5635 4096.9409,-56.2455 4092.4309,-46.6585 4087.4367,-51.5635"/>
</g>
<!-- Node43&#45;&gt;Node35 -->
<g id="edge9" class="edge">
<title>Node43&#45;&gt;Node35</title>
<path fill="none" stroke="#191970" d="M4136.5443,-104.2112C4129.1082,-94.7472 4120.2552,-83.4797 4114.0975,-75.6427"/>
<polygon fill="#191970" stroke="#191970" points="4133.9266,-106.5447 4142.8569,-112.2455 4139.4308,-102.22 4133.9266,-106.5447"/>
</g>
<!-- Node43&#45;&gt;Node40 -->
<g id="edge10" class="edge">
<title>Node43&#45;&gt;Node40</title>
<path fill="none" stroke="#191970" d="M4157.9788,-102.7931C4161.0712,-94.5874 4164.6088,-84.8731 4167.5212,-76 4173.9913,-56.2875 4180.4436,-32.8813 4183.9133,-19.9092"/>
<polygon fill="#191970" stroke="#191970" points="4154.683,-101.6127 4154.3805,-112.2032 4161.2213,-104.1129 4154.683,-101.6127"/>
</g>
<!-- Node54&#45;&gt;Node69 -->
<g id="edge15" class="edge">
<title>Node54&#45;&gt;Node69</title>
<path fill="none" stroke="#191970" d="M288.3962,-105.3607C277.8432,-95.6727 264.9099,-83.7995 256.0248,-75.6427"/>
<polygon fill="#191970" stroke="#191970" points="286.1622,-108.0611 295.8958,-112.2455 290.8962,-102.9045 286.1622,-108.0611"/>
</g>
<!-- Node90&#45;&gt;Node91 -->
<g id="edge27" class="edge">
<title>Node90&#45;&gt;Node91</title>
<path fill="none" stroke="#191970" d="M1402.3241,-105.928C1414.3847,-96.1397 1429.3925,-83.9595 1439.64,-75.6427"/>
<polygon fill="#191970" stroke="#191970" points="1400.099,-103.2262 1394.54,-112.2455 1404.5102,-108.6614 1400.099,-103.2262"/>
</g>
<!-- Node94&#45;&gt;Node95 -->
<g id="edge33" class="edge">
<title>Node94&#45;&gt;Node95</title>
<path fill="none" stroke="#191970" d="M1644.7567,-102.4538C1647.1871,-93.3803 1649.9676,-82.9998 1651.9383,-75.6427"/>
<polygon fill="#191970" stroke="#191970" points="1641.3406,-101.6805 1642.134,-112.2455 1648.1022,-103.4917 1641.3406,-101.6805"/>
</g>
<!-- Node96&#45;&gt;Node97 -->
<g id="edge36" class="edge">
<title>Node96&#45;&gt;Node97</title>
<path fill="none" stroke="#191970" d="M1855.5773,-111.9721C2013.2905,-89.0669 2187.9473,-75.0047 2268.9694,-69.1291"/>
<polygon fill="#191970" stroke="#191970" points="1854.6001,-108.578 1845.2146,-113.4936 1855.617,-115.5037 1854.6001,-108.578"/>
</g>
<!-- Node113&#45;&gt;Node116 -->
<g id="edge48" class="edge">
<title>Node113&#45;&gt;Node116</title>
<path fill="none" stroke="#191970" d="M2989.4504,-111.954C3147.7475,-90.6264 3323.5011,-75.5164 3402.0008,-69.2188"/>
<polygon fill="#191970" stroke="#191970" points="2988.9692,-108.4872 2979.5315,-113.3018 2989.9117,-115.4234 2988.9692,-108.4872"/>
</g>
</g>
</svg>
