<?xml version="1.0" encoding="UTF-8" standalone="no"?>
<!DOCTYPE svg PUBLIC "-//W3C//DTD SVG 1.1//EN"
 "http://www.w3.org/Graphics/SVG/1.1/DTD/svg11.dtd">
<!-- Generated by graphviz version 2.40.1 (20161225.0304)
 -->
<!-- Title: PDETraits.H Pages: 1 -->
<!--zoomable 319 -->
<svg id="main" version="1.1" xmlns="http://www.w3.org/2000/svg" xmlns:xlink="http://www.w3.org/1999/xlink" xml:space="preserve" onload="init(evt)">
<style type="text/css"><![CDATA[
.edge:hover path { stroke: red; }
.edge:hover polygon { stroke: red; fill: red; }
]]></style>
<script type="text/javascript"><![CDATA[
var edges = document.getElementsByTagName('g');
if (edges && edges.length) {
  for (var i=0;i<edges.length;i++) {
    if (edges[i].id.substr(0,4)=='edge') {
      edges[i].setAttribute('class','edge');
    }
  }
}
]]></script>
        <defs>
                <circle id="rim" cx="0" cy="0" r="7"/>
                <circle id="rim2" cx="0" cy="0" r="3.5"/>
                <g id="zoomPlus">
                        <use xlink:href="#rim" fill="#404040">
                                <set attributeName="fill" to="#808080" begin="zoomplus.mouseover" end="zoomplus.mouseout"/>
                        </use>
                        <path d="M-4,0h8M0,-4v8" fill="none" stroke="white" stroke-width="1.5" pointer-events="none"/>
                </g>
                <g id="zoomMin">
                        <use xlink:href="#rim" fill="#404040">
                                <set attributeName="fill" to="#808080" begin="zoomminus.mouseover" end="zoomminus.mouseout"/>
                        </use>
                        <path d="M-4,0h8" fill="none" stroke="white" stroke-width="1.5" pointer-events="none"/>
                </g>
                <g id="dirArrow">
                        <path fill="none" stroke="white" stroke-width="1.5" d="M0,-3.0v7 M-2.5,-0.5L0,-3.0L2.5,-0.5"/>
                </g>
               <g id="resetDef">
                       <use xlink:href="#rim2" fill="#404040">
                               <set attributeName="fill" to="#808080" begin="reset.mouseover" end="reset.mouseout"/>
                       </use>
               </g>
        </defs>

<script type="text/javascript">
var viewWidth = 1981;
var viewHeight = 319;
var sectionId = 'dynsection-0';
</script>
<script xlink:href="svgpan.js"/>
<svg id="graph" class="graph">
<g id="viewport">
<title>PDETraits.H</title>
<polygon fill="#ffffff" stroke="transparent" points="-4,4 -4,-315 1976.5,-315 1976.5,4 -4,4"/>
<!-- Node0 -->
<g id="node1" class="node">
<title>Node0</title>
<polygon fill="#bfbfbf" stroke="#000000" points="1383.5,-291.5 1383.5,-310.5 1456.5,-310.5 1456.5,-291.5 1383.5,-291.5"/>
<text text-anchor="middle" x="1420" y="-298.5" font-family="Helvetica,sans-Serif" font-size="10.00" fill="#000000">PDETraits.H</text>
</g>
<!-- Node1 -->
<g id="node2" class="node">
<title>Node1</title>
<polygon fill="#ffffff" stroke="#bfbfbf" points="200.5,-.5 200.5,-19.5 241.5,-19.5 241.5,-.5 200.5,-.5"/>
<text text-anchor="middle" x="221" y="-7.5" font-family="Helvetica,sans-Serif" font-size="10.00" fill="#000000">string</text>
</g>
<!-- Node0&#45;&gt;Node1 -->
<g id="edge1" class="edge">
<title>Node0&#45;&gt;Node1</title>
<path fill="none" stroke="#191970" d="M1383.4717,-299.8035C1161.209,-292.2895 0,-249.6061 0,-178 0,-178 0,-178 0,-122 0,-37.8016 129.212,-16.8826 190.0355,-11.6997"/>
<polygon fill="#191970" stroke="#191970" points="190.5031,-15.1744 200.2089,-10.9261 189.9722,-8.1945 190.5031,-15.1744"/>
</g>
<!-- Node2 -->
<g id="node3" class="node">
<title>Node2</title>
<polygon fill="#ffffff" stroke="#bfbfbf" points="1507.5,-230 1507.5,-249 1630.5,-249 1630.5,-230 1507.5,-230"/>
<text text-anchor="middle" x="1569" y="-237" font-family="Helvetica,sans-Serif" font-size="10.00" fill="#000000">AMReX_MLTensorOp.H</text>
</g>
<!-- Node0&#45;&gt;Node2 -->
<g id="edge2" class="edge">
<title>Node0&#45;&gt;Node2</title>
<path fill="none" stroke="#191970" d="M1443.2813,-291.3906C1468.321,-281.0554 1508.3225,-264.5447 1536.466,-252.9284"/>
<polygon fill="#191970" stroke="#191970" points="1537.974,-256.0925 1545.8822,-249.0419 1535.3033,-249.622 1537.974,-256.0925"/>
</g>
<!-- Node3 -->
<g id="node4" class="node">
<title>Node3</title>
<g id="a_node4"><a xlink:href="_source_term_8_h.html" target="_top" xlink:title="amr&#45;wind/equation_systems\l/SourceTerm.H">
<polygon fill="#ffffff" stroke="#000000" points="1350.5,-224.5 1350.5,-254.5 1489.5,-254.5 1489.5,-224.5 1350.5,-224.5"/>
<text text-anchor="start" x="1358.5" y="-242.5" font-family="Helvetica,sans-Serif" font-size="10.00" fill="#000000">amr&#45;wind/equation_systems</text>
<text text-anchor="middle" x="1420" y="-231.5" font-family="Helvetica,sans-Serif" font-size="10.00" fill="#000000">/SourceTerm.H</text>
</a>
</g>
</g>
<!-- Node0&#45;&gt;Node3 -->
<g id="edge3" class="edge">
<title>Node0&#45;&gt;Node3</title>
<path fill="none" stroke="#191970" d="M1420,-291.3906C1420,-284.2234 1420,-274.0862 1420,-264.671"/>
<polygon fill="#191970" stroke="#191970" points="1423.5001,-264.5446 1420,-254.5446 1416.5001,-264.5446 1423.5001,-264.5446"/>
</g>
<!-- Node4 -->
<g id="node5" class="node">
<title>Node4</title>
<g id="a_node5"><a xlink:href="_factory_8_h.html" target="_top" xlink:title="amr&#45;wind/core/Factory.H">
<polygon fill="#ffffff" stroke="#000000" points="1682.5,-112.5 1682.5,-131.5 1807.5,-131.5 1807.5,-112.5 1682.5,-112.5"/>
<text text-anchor="middle" x="1745" y="-119.5" font-family="Helvetica,sans-Serif" font-size="10.00" fill="#000000">amr&#45;wind/core/Factory.H</text>
</a>
</g>
</g>
<!-- Node3&#45;&gt;Node4 -->
<g id="edge4" class="edge">
<title>Node3&#45;&gt;Node4</title>
<path fill="none" stroke="#191970" d="M1489.6775,-225.2231C1551.5332,-212.3207 1634.3424,-194.4011 1649,-188 1678.1218,-175.2821 1707.6581,-153.3146 1726.1306,-138.2416"/>
<polygon fill="#191970" stroke="#191970" points="1728.5851,-140.7524 1734.0291,-131.6632 1724.1052,-135.3736 1728.5851,-140.7524"/>
</g>
<!-- Node10 -->
<g id="node11" class="node">
<title>Node10</title>
<g id="a_node11"><a xlink:href="_field_desc_types_8_h.html" target="_top" xlink:title="amr&#45;wind/core/FieldDescTypes.H">
<polygon fill="#ffffff" stroke="#000000" points="684.5,-.5 684.5,-19.5 847.5,-19.5 847.5,-.5 684.5,-.5"/>
<text text-anchor="middle" x="766" y="-7.5" font-family="Helvetica,sans-Serif" font-size="10.00" fill="#000000">amr&#45;wind/core/FieldDescTypes.H</text>
</a>
</g>
</g>
<!-- Node3&#45;&gt;Node10 -->
<g id="edge10" class="edge">
<title>Node3&#45;&gt;Node10</title>
<path fill="none" stroke="#191970" d="M1416.0348,-224.2913C1405.66,-187.9042 1373.9807,-95.8963 1310,-56 1272.6438,-32.7059 1002.981,-18.9945 857.8786,-13.2257"/>
<polygon fill="#191970" stroke="#191970" points="857.7811,-9.7193 847.6514,-12.8241 857.5063,-16.7139 857.7811,-9.7193"/>
</g>
<!-- Node11 -->
<g id="node12" class="node">
<title>Node11</title>
<g id="a_node12"><a xlink:href="_field_utils_8_h.html" target="_top" xlink:title="amr&#45;wind/core/FieldUtils.H">
<polygon fill="#ffffff" stroke="#000000" points="1415.5,-112.5 1415.5,-131.5 1548.5,-131.5 1548.5,-112.5 1415.5,-112.5"/>
<text text-anchor="middle" x="1482" y="-119.5" font-family="Helvetica,sans-Serif" font-size="10.00" fill="#000000">amr&#45;wind/core/FieldUtils.H</text>
</a>
</g>
</g>
<!-- Node3&#45;&gt;Node11 -->
<g id="edge11" class="edge">
<title>Node3&#45;&gt;Node11</title>
<path fill="none" stroke="#191970" d="M1428.1054,-224.1389C1439.4281,-202.6806 1459.9577,-163.7738 1472.1485,-140.6702"/>
<polygon fill="#191970" stroke="#191970" points="1475.3845,-142.0372 1476.9558,-131.5595 1469.1935,-138.7704 1475.3845,-142.0372"/>
</g>
<!-- Node12 -->
<g id="node13" class="node">
<title>Node12</title>
<polygon fill="#ffffff" stroke="#bfbfbf" points="1208,-.5 1208,-19.5 1312,-19.5 1312,-.5 1208,-.5"/>
<text text-anchor="middle" x="1260" y="-7.5" font-family="Helvetica,sans-Serif" font-size="10.00" fill="#000000">AMReX_MultiFab.H</text>
</g>
<!-- Node3&#45;&gt;Node12 -->
<g id="edge48" class="edge">
<title>Node3&#45;&gt;Node12</title>
<path fill="none" stroke="#191970" d="M1454.0107,-224.4386C1519.1814,-193.5965 1650.3989,-120.6988 1594,-56 1576.4368,-35.8522 1413.9083,-21.0378 1322.2172,-14.2028"/>
<polygon fill="#191970" stroke="#191970" points="1322.445,-10.7102 1312.2154,-13.4679 1321.932,-17.6913 1322.445,-10.7102"/>
</g>
<!-- Node14 -->
<g id="node15" class="node">
<title>Node14</title>
<g id="a_node15"><a xlink:href="_field_repo_8_h.html" target="_top" xlink:title="amr&#45;wind/core/FieldRepo.H">
<polygon fill="#ffffff" stroke="#000000" points="1054,-168.5 1054,-187.5 1190,-187.5 1190,-168.5 1054,-168.5"/>
<text text-anchor="middle" x="1122" y="-175.5" font-family="Helvetica,sans-Serif" font-size="10.00" fill="#000000">amr&#45;wind/core/FieldRepo.H</text>
</a>
</g>
</g>
<!-- Node3&#45;&gt;Node14 -->
<g id="edge15" class="edge">
<title>Node3&#45;&gt;Node14</title>
<path fill="none" stroke="#191970" d="M1350.1322,-225.081C1297.7744,-214.2756 1227.0517,-199.6801 1178.2986,-189.6187"/>
<polygon fill="#191970" stroke="#191970" points="1178.7442,-186.137 1168.2432,-187.5435 1177.3294,-192.9925 1178.7442,-186.137"/>
</g>
<!-- Node5 -->
<g id="node6" class="node">
<title>Node5</title>
<polygon fill="#ffffff" stroke="#bfbfbf" points="1663,-56.5 1663,-75.5 1715,-75.5 1715,-56.5 1663,-56.5"/>
<text text-anchor="middle" x="1689" y="-63.5" font-family="Helvetica,sans-Serif" font-size="10.00" fill="#000000">memory</text>
</g>
<!-- Node4&#45;&gt;Node5 -->
<g id="edge5" class="edge">
<title>Node4&#45;&gt;Node5</title>
<path fill="none" stroke="#191970" d="M1735.2455,-112.2455C1727.1352,-104.1352 1715.4075,-92.4075 1705.7919,-82.7919"/>
<polygon fill="#191970" stroke="#191970" points="1708.1887,-80.2389 1698.6427,-75.6427 1703.2389,-85.1887 1708.1887,-80.2389"/>
</g>
<!-- Node6 -->
<g id="node7" class="node">
<title>Node6</title>
<polygon fill="#ffffff" stroke="#bfbfbf" points="1199.5,-56.5 1199.5,-75.5 1282.5,-75.5 1282.5,-56.5 1199.5,-56.5"/>
<text text-anchor="middle" x="1241" y="-63.5" font-family="Helvetica,sans-Serif" font-size="10.00" fill="#000000">unordered_map</text>
</g>
<!-- Node4&#45;&gt;Node6 -->
<g id="edge6" class="edge">
<title>Node4&#45;&gt;Node6</title>
<path fill="none" stroke="#191970" d="M1682.4409,-115.049C1581.8173,-103.8686 1385.8879,-82.0987 1292.6742,-71.7416"/>
<polygon fill="#191970" stroke="#191970" points="1292.96,-68.2519 1282.6346,-70.6261 1292.1869,-75.2091 1292.96,-68.2519"/>
</g>
<!-- Node7 -->
<g id="node8" class="node">
<title>Node7</title>
<polygon fill="#ffffff" stroke="#bfbfbf" points="1813,-56.5 1813,-75.5 1867,-75.5 1867,-56.5 1813,-56.5"/>
<text text-anchor="middle" x="1840" y="-63.5" font-family="Helvetica,sans-Serif" font-size="10.00" fill="#000000">iostream</text>
</g>
<!-- Node4&#45;&gt;Node7 -->
<g id="edge7" class="edge">
<title>Node4&#45;&gt;Node7</title>
<path fill="none" stroke="#191970" d="M1761.5477,-112.2455C1776.2599,-103.5731 1797.9888,-90.7645 1814.8505,-80.825"/>
<polygon fill="#191970" stroke="#191970" points="1816.8046,-83.736 1823.6419,-75.6427 1813.2498,-77.7057 1816.8046,-83.736"/>
</g>
<!-- Node8 -->
<g id="node9" class="node">
<title>Node8</title>
<polygon fill="#ffffff" stroke="#bfbfbf" points="1885.5,-56.5 1885.5,-75.5 1972.5,-75.5 1972.5,-56.5 1885.5,-56.5"/>
<text text-anchor="middle" x="1929" y="-63.5" font-family="Helvetica,sans-Serif" font-size="10.00" fill="#000000">AMReX_Print.H</text>
</g>
<!-- Node4&#45;&gt;Node8 -->
<g id="edge8" class="edge">
<title>Node4&#45;&gt;Node8</title>
<path fill="none" stroke="#191970" d="M1776.6307,-112.3733C1807.3596,-103.021 1854.176,-88.7725 1887.8022,-78.5385"/>
<polygon fill="#191970" stroke="#191970" points="1889.2344,-81.7612 1897.782,-75.5011 1887.1962,-75.0644 1889.2344,-81.7612"/>
</g>
<!-- Node9 -->
<g id="node10" class="node">
<title>Node9</title>
<polygon fill="#ffffff" stroke="#bfbfbf" points="1733,-56.5 1733,-75.5 1795,-75.5 1795,-56.5 1733,-56.5"/>
<text text-anchor="middle" x="1764" y="-63.5" font-family="Helvetica,sans-Serif" font-size="10.00" fill="#000000">AMReX.H</text>
</g>
<!-- Node4&#45;&gt;Node9 -->
<g id="edge9" class="edge">
<title>Node4&#45;&gt;Node9</title>
<path fill="none" stroke="#191970" d="M1748.3095,-112.2455C1750.8433,-104.7776 1754.4177,-94.2427 1757.515,-85.1137"/>
<polygon fill="#191970" stroke="#191970" points="1760.8298,-86.237 1760.7284,-75.6427 1754.2009,-83.9879 1760.8298,-86.237"/>
</g>
<!-- Node11&#45;&gt;Node10 -->
<g id="edge12" class="edge">
<title>Node11&#45;&gt;Node10</title>
<path fill="none" stroke="#191970" d="M1473.7437,-112.1978C1460.2938,-97.0249 1432.0206,-68.3186 1401,-56 1351.8526,-36.4831 1021.3428,-20.4402 857.5894,-13.5836"/>
<polygon fill="#191970" stroke="#191970" points="857.6641,-10.0838 847.5272,-13.1651 857.3731,-17.0777 857.6641,-10.0838"/>
</g>
<!-- Node11&#45;&gt;Node12 -->
<g id="edge13" class="edge">
<title>Node11&#45;&gt;Node12</title>
<path fill="none" stroke="#191970" d="M1518.0474,-112.4742C1553.6488,-101.3549 1599.8432,-81.2303 1578,-56 1561.5149,-36.9587 1410.0261,-21.89 1322.219,-14.6653"/>
<polygon fill="#191970" stroke="#191970" points="1322.3513,-11.1646 1312.101,-13.8443 1321.7851,-18.1417 1322.3513,-11.1646"/>
</g>
<!-- Node13 -->
<g id="node14" class="node">
<title>Node13</title>
<polygon fill="#ffffff" stroke="#bfbfbf" points="1453,-56.5 1453,-75.5 1569,-75.5 1569,-56.5 1453,-56.5"/>
<text text-anchor="middle" x="1511" y="-63.5" font-family="Helvetica,sans-Serif" font-size="10.00" fill="#000000">AMReX_Interpolater.H</text>
</g>
<!-- Node11&#45;&gt;Node13 -->
<g id="edge14" class="edge">
<title>Node11&#45;&gt;Node13</title>
<path fill="none" stroke="#191970" d="M1487.0514,-112.2455C1491.0019,-104.617 1496.6097,-93.7881 1501.4058,-84.5267"/>
<polygon fill="#191970" stroke="#191970" points="1504.5159,-86.1321 1506.0065,-75.6427 1498.2999,-82.9131 1504.5159,-86.1321"/>
</g>
<!-- Node14&#45;&gt;Node1 -->
<g id="edge16" class="edge">
<title>Node14&#45;&gt;Node1</title>
<path fill="none" stroke="#191970" d="M1053.6777,-176.2606C850.4216,-170.8658 258.4362,-153.4812 174,-132 118.5185,-117.8851 88.4349,-124.4886 58,-76 53.2744,-68.4713 52.6356,-63.0877 58,-56 73.9088,-34.9803 147.4956,-20.839 190.1596,-14.2524"/>
<polygon fill="#191970" stroke="#191970" points="190.9124,-17.6789 200.2862,-12.7411 189.8791,-10.7556 190.9124,-17.6789"/>
</g>
<!-- Node14&#45;&gt;Node6 -->
<g id="edge17" class="edge">
<title>Node14&#45;&gt;Node6</title>
<path fill="none" stroke="#191970" d="M1122.3305,-168.3067C1123.3003,-154.2937 1127.0103,-128.2767 1141,-112 1154.1981,-96.6442 1173.6019,-86.1196 1191.8133,-79.0575"/>
<polygon fill="#191970" stroke="#191970" points="1193.252,-82.2595 1201.4739,-75.5774 1190.8795,-75.6738 1193.252,-82.2595"/>
</g>
<!-- Node14&#45;&gt;Node10 -->
<g id="edge18" class="edge">
<title>Node14&#45;&gt;Node10</title>
<path fill="none" stroke="#191970" d="M1187.7336,-168.4716C1214.1872,-161.8783 1243.4628,-150.7521 1265,-132 1292.0346,-108.4614 1316.2177,-82.428 1292,-56 1263.3099,-24.6914 1000.56,-14.6062 857.6254,-11.4237"/>
<polygon fill="#191970" stroke="#191970" points="857.6192,-7.9228 847.546,-11.2063 857.4682,-14.9212 857.6192,-7.9228"/>
</g>
<!-- Node14&#45;&gt;Node11 -->
<g id="edge19" class="edge">
<title>Node14&#45;&gt;Node11</title>
<path fill="none" stroke="#191970" d="M1183.4772,-168.4369C1246.5122,-158.6314 1344.4563,-143.3957 1410.8155,-133.0731"/>
<polygon fill="#191970" stroke="#191970" points="1411.4332,-136.5192 1420.7764,-131.5237 1410.3572,-129.6024 1411.4332,-136.5192"/>
</g>
<!-- Node14&#45;&gt;Node12 -->
<g id="edge46" class="edge">
<title>Node14&#45;&gt;Node12</title>
<path fill="none" stroke="#191970" d="M1190.203,-171.6012C1242.4077,-165.1263 1308.2263,-152.9999 1325,-132 1346.0807,-105.6079 1340.5218,-86.0002 1325,-56 1317.9454,-42.365 1304.7805,-31.9036 1292.1337,-24.4282"/>
<polygon fill="#191970" stroke="#191970" points="1293.5666,-21.2231 1283.1112,-19.5099 1290.2163,-27.3692 1293.5666,-21.2231"/>
</g>
<!-- Node15 -->
<g id="node16" class="node">
<title>Node15</title>
<g id="a_node16"><a xlink:href="_field_8_h.html" target="_top" xlink:title="amr&#45;wind/core/Field.H">
<polygon fill="#ffffff" stroke="#000000" points="925.5,-112.5 925.5,-131.5 1038.5,-131.5 1038.5,-112.5 925.5,-112.5"/>
<text text-anchor="middle" x="982" y="-119.5" font-family="Helvetica,sans-Serif" font-size="10.00" fill="#000000">amr&#45;wind/core/Field.H</text>
</a>
</g>
</g>
<!-- Node14&#45;&gt;Node15 -->
<g id="edge20" class="edge">
<title>Node14&#45;&gt;Node15</title>
<path fill="none" stroke="#191970" d="M1097.9331,-168.3733C1075.1572,-159.2629 1040.7656,-145.5062 1015.351,-135.3404"/>
<polygon fill="#191970" stroke="#191970" points="1016.3375,-131.9654 1005.7528,-131.5011 1013.7377,-138.4648 1016.3375,-131.9654"/>
</g>
<!-- Node21 -->
<g id="node22" class="node">
<title>Node21</title>
<g id="a_node22"><a xlink:href="_int_field_8_h.html" target="_top" xlink:title="amr&#45;wind/core/IntField.H">
<polygon fill="#ffffff" stroke="#000000" points="228,-112.5 228,-131.5 352,-131.5 352,-112.5 228,-112.5"/>
<text text-anchor="middle" x="290" y="-119.5" font-family="Helvetica,sans-Serif" font-size="10.00" fill="#000000">amr&#45;wind/core/IntField.H</text>
</a>
</g>
</g>
<!-- Node14&#45;&gt;Node21 -->
<g id="edge34" class="edge">
<title>Node14&#45;&gt;Node21</title>
<path fill="none" stroke="#191970" d="M1053.5258,-173.816C927.6549,-166.0603 651.0373,-148.7158 418,-132 399.8976,-130.7015 380.362,-129.2174 362.1361,-127.7971"/>
<polygon fill="#191970" stroke="#191970" points="362.4055,-124.3076 352.1628,-127.0162 361.859,-131.2863 362.4055,-124.3076"/>
</g>
<!-- Node22 -->
<g id="node23" class="node">
<title>Node22</title>
<polygon fill="#ffffff" stroke="#bfbfbf" points="66.5,-56.5 66.5,-75.5 173.5,-75.5 173.5,-56.5 66.5,-56.5"/>
<text text-anchor="middle" x="120" y="-63.5" font-family="Helvetica,sans-Serif" font-size="10.00" fill="#000000">AMReX_iMultiFab.H</text>
</g>
<!-- Node14&#45;&gt;Node22 -->
<g id="edge47" class="edge">
<title>Node14&#45;&gt;Node22</title>
<path fill="none" stroke="#191970" d="M1053.9964,-176.6157C857.4159,-172.3233 297.4284,-157.9425 219,-132 187.5369,-121.5927 156.6285,-98.3095 137.9358,-82.3758"/>
<polygon fill="#191970" stroke="#191970" points="140.0779,-79.5993 130.2488,-75.6447 135.4665,-84.8657 140.0779,-79.5993"/>
</g>
<!-- Node23 -->
<g id="node24" class="node">
<title>Node23</title>
<g id="a_node24"><a xlink:href="_scratch_field_8_h.html" target="_top" xlink:title="amr&#45;wind/core/ScratchField.H">
<polygon fill="#ffffff" stroke="#000000" points="427,-112.5 427,-131.5 573,-131.5 573,-112.5 427,-112.5"/>
<text text-anchor="middle" x="500" y="-119.5" font-family="Helvetica,sans-Serif" font-size="10.00" fill="#000000">amr&#45;wind/core/ScratchField.H</text>
</a>
</g>
</g>
<!-- Node14&#45;&gt;Node23 -->
<g id="edge38" class="edge">
<title>Node14&#45;&gt;Node23</title>
<path fill="none" stroke="#191970" d="M1053.9537,-171.8736C939.284,-161.5497 707.9212,-140.7196 583.5707,-129.524"/>
<polygon fill="#191970" stroke="#191970" points="583.6156,-126.014 573.342,-128.6031 582.9878,-132.9858 583.6156,-126.014"/>
</g>
<!-- Node25 -->
<g id="node26" class="node">
<title>Node25</title>
<polygon fill="#ffffff" stroke="#bfbfbf" points="1150,-112.5 1150,-131.5 1256,-131.5 1256,-112.5 1150,-112.5"/>
<text text-anchor="middle" x="1203" y="-119.5" font-family="Helvetica,sans-Serif" font-size="10.00" fill="#000000">AMReX_AmrCore.H</text>
</g>
<!-- Node14&#45;&gt;Node25 -->
<g id="edge45" class="edge">
<title>Node14&#45;&gt;Node25</title>
<path fill="none" stroke="#191970" d="M1136.1091,-168.2455C1148.4209,-159.7337 1166.4958,-147.2375 1180.7538,-137.3801"/>
<polygon fill="#191970" stroke="#191970" points="1182.8174,-140.2085 1189.0526,-131.6427 1178.8366,-134.4506 1182.8174,-140.2085"/>
</g>
<!-- Node15&#45;&gt;Node1 -->
<g id="edge21" class="edge">
<title>Node15&#45;&gt;Node1</title>
<path fill="none" stroke="#191970" d="M925.2376,-118.5648C843.3724,-112.9989 687.6382,-100.1191 557,-76 522.6527,-69.6586 515.1145,-63.4933 481,-56 398.6189,-37.9049 300.345,-22.058 251.5819,-14.5753"/>
<polygon fill="#191970" stroke="#191970" points="252.0865,-11.1119 241.6734,-13.0657 251.0321,-18.032 252.0865,-11.1119"/>
</g>
<!-- Node15&#45;&gt;Node5 -->
<g id="edge22" class="edge">
<title>Node15&#45;&gt;Node5</title>
<path fill="none" stroke="#191970" d="M1038.7216,-117.8655C1144.6966,-110.0867 1379.9528,-92.5631 1578,-76 1603.0208,-73.9075 1631.1966,-71.3669 1652.8998,-69.3701"/>
<polygon fill="#191970" stroke="#191970" points="1653.3563,-72.843 1662.992,-68.438 1652.7124,-65.8726 1653.3563,-72.843"/>
</g>
<!-- Node15&#45;&gt;Node6 -->
<g id="edge23" class="edge">
<title>Node15&#45;&gt;Node6</title>
<path fill="none" stroke="#191970" d="M1026.2294,-112.4369C1071.4159,-102.6668 1141.5366,-87.5056 1189.2689,-77.1851"/>
<polygon fill="#191970" stroke="#191970" points="1190.0632,-80.5943 1199.0976,-75.06 1188.5838,-73.7524 1190.0632,-80.5943"/>
</g>
<!-- Node15&#45;&gt;Node10 -->
<g id="edge28" class="edge">
<title>Node15&#45;&gt;Node10</title>
<path fill="none" stroke="#191970" d="M925.2289,-115.0357C874.7542,-107.7382 805.9457,-94.7137 786,-76 773.3367,-64.1188 768.6025,-44.5167 766.8777,-29.7552"/>
<polygon fill="#191970" stroke="#191970" points="770.353,-29.3064 766.0638,-19.6186 763.3755,-29.8667 770.353,-29.3064"/>
</g>
<!-- Node15&#45;&gt;Node12 -->
<g id="edge24" class="edge">
<title>Node15&#45;&gt;Node12</title>
<path fill="none" stroke="#191970" d="M1031.6075,-112.4853C1066.1983,-104.9182 1112.962,-92.8005 1152,-76 1169.0623,-68.657 1210.6923,-42.227 1236.9984,-25.1234"/>
<polygon fill="#191970" stroke="#191970" points="1239.1383,-27.9063 1245.5988,-19.5092 1235.3118,-22.0447 1239.1383,-27.9063"/>
</g>
<!-- Node16 -->
<g id="node17" class="node">
<title>Node16</title>
<polygon fill="#ffffff" stroke="#bfbfbf" points="794.5,-56.5 794.5,-75.5 893.5,-75.5 893.5,-56.5 794.5,-56.5"/>
<text text-anchor="middle" x="844" y="-63.5" font-family="Helvetica,sans-Serif" font-size="10.00" fill="#000000">AMReX_BCRec.H</text>
</g>
<!-- Node15&#45;&gt;Node16 -->
<g id="edge25" class="edge">
<title>Node15&#45;&gt;Node16</title>
<path fill="none" stroke="#191970" d="M958.277,-112.3733C935.8263,-103.2629 901.9261,-89.5062 876.8745,-79.3404"/>
<polygon fill="#191970" stroke="#191970" points="877.9957,-76.0182 867.4135,-75.5011 875.3635,-82.5045 877.9957,-76.0182"/>
</g>
<!-- Node17 -->
<g id="node18" class="node">
<title>Node17</title>
<polygon fill="#ffffff" stroke="#bfbfbf" points="911.5,-56.5 911.5,-75.5 996.5,-75.5 996.5,-56.5 911.5,-56.5"/>
<text text-anchor="middle" x="954" y="-63.5" font-family="Helvetica,sans-Serif" font-size="10.00" fill="#000000">AMReX_Gpu.H</text>
</g>
<!-- Node15&#45;&gt;Node17 -->
<g id="edge26" class="edge">
<title>Node15&#45;&gt;Node17</title>
<path fill="none" stroke="#191970" d="M977.1228,-112.2455C973.3487,-104.6973 968.0079,-94.0158 963.4099,-84.8197"/>
<polygon fill="#191970" stroke="#191970" points="966.424,-83.0217 958.8213,-75.6427 960.163,-86.1522 966.424,-83.0217"/>
</g>
<!-- Node18 -->
<g id="node19" class="node">
<title>Node18</title>
<g id="a_node19"><a xlink:href="incflo__enums_8_h.html" target="_top" xlink:title="amr&#45;wind/incflo_enums.H">
<polygon fill="#ffffff" stroke="#000000" points="1015,-56.5 1015,-75.5 1143,-75.5 1143,-56.5 1015,-56.5"/>
<text text-anchor="middle" x="1079" y="-63.5" font-family="Helvetica,sans-Serif" font-size="10.00" fill="#000000">amr&#45;wind/incflo_enums.H</text>
</a>
</g>
</g>
<!-- Node15&#45;&gt;Node18 -->
<g id="edge27" class="edge">
<title>Node15&#45;&gt;Node18</title>
<path fill="none" stroke="#191970" d="M998.8961,-112.2455C1013.918,-103.5731 1036.1043,-90.7645 1053.321,-80.825"/>
<polygon fill="#191970" stroke="#191970" points="1055.3871,-83.6737 1062.2975,-75.6427 1051.8872,-77.6114 1055.3871,-83.6737"/>
</g>
<!-- Node19 -->
<g id="node20" class="node">
<title>Node19</title>
<g id="a_node20"><a xlink:href="_view_field_8_h.html" target="_top" xlink:title="amr&#45;wind/core/ViewField.H">
<polygon fill="#ffffff" stroke="#000000" points="566,-56.5 566,-75.5 700,-75.5 700,-56.5 566,-56.5"/>
<text text-anchor="middle" x="633" y="-63.5" font-family="Helvetica,sans-Serif" font-size="10.00" fill="#000000">amr&#45;wind/core/ViewField.H</text>
</a>
</g>
</g>
<!-- Node15&#45;&gt;Node19 -->
<g id="edge29" class="edge">
<title>Node15&#45;&gt;Node19</title>
<path fill="none" stroke="#191970" d="M925.1504,-112.878C864.3723,-103.1256 767.952,-87.6542 702.6562,-77.1769"/>
<polygon fill="#191970" stroke="#191970" points="702.8823,-73.6685 692.4541,-75.5399 701.7733,-80.5801 702.8823,-73.6685"/>
</g>
<!-- Node19&#45;&gt;Node1 -->
<g id="edge30" class="edge">
<title>Node19&#45;&gt;Node1</title>
<path fill="none" stroke="#191970" d="M565.8881,-56.878C475.3869,-44.5769 317.9421,-23.1766 251.7294,-14.1768"/>
<polygon fill="#191970" stroke="#191970" points="251.9271,-10.6716 241.5467,-12.7928 250.9842,-17.6078 251.9271,-10.6716"/>
</g>
<!-- Node19&#45;&gt;Node10 -->
<g id="edge31" class="edge">
<title>Node19&#45;&gt;Node10</title>
<path fill="none" stroke="#191970" d="M655.8635,-56.3733C677.405,-47.3032 709.8838,-33.6279 733.9956,-23.4755"/>
<polygon fill="#191970" stroke="#191970" points="735.5767,-26.6075 743.4348,-19.5011 732.8603,-20.156 735.5767,-26.6075"/>
</g>
<!-- Node19&#45;&gt;Node12 -->
<g id="edge32" class="edge">
<title>Node19&#45;&gt;Node12</title>
<path fill="none" stroke="#191970" d="M700.1608,-57.5051C704.842,-56.9756 709.4901,-56.4682 714,-56 889.1791,-37.8141 1096.5512,-21.8731 1197.9275,-14.4418"/>
<polygon fill="#191970" stroke="#191970" points="1198.2734,-17.926 1207.9917,-13.7065 1197.7632,-10.9446 1198.2734,-17.926"/>
</g>
<!-- Node20 -->
<g id="node21" class="node">
<title>Node20</title>
<polygon fill="#ffffff" stroke="#bfbfbf" points="415.5,-.5 415.5,-19.5 510.5,-19.5 510.5,-.5 415.5,-.5"/>
<text text-anchor="middle" x="463" y="-7.5" font-family="Helvetica,sans-Serif" font-size="10.00" fill="#000000">AMReX_Vector.H</text>
</g>
<!-- Node19&#45;&gt;Node20 -->
<g id="edge33" class="edge">
<title>Node19&#45;&gt;Node20</title>
<path fill="none" stroke="#191970" d="M603.776,-56.3733C575.5075,-47.0613 532.5035,-32.8953 501.4656,-22.671"/>
<polygon fill="#191970" stroke="#191970" points="502.4357,-19.3056 491.8427,-19.5011 500.2456,-25.9542 502.4357,-19.3056"/>
</g>
<!-- Node21&#45;&gt;Node1 -->
<g id="edge35" class="edge">
<title>Node21&#45;&gt;Node1</title>
<path fill="none" stroke="#191970" d="M267.9499,-112.35C253.3796,-104.7208 235.3117,-92.5846 226,-76 218.1766,-62.0662 217.3773,-43.7951 218.2795,-30.0105"/>
<polygon fill="#191970" stroke="#191970" points="221.8002,-29.981 219.3207,-19.6803 214.8355,-29.2789 221.8002,-29.981"/>
</g>
<!-- Node21&#45;&gt;Node10 -->
<g id="edge36" class="edge">
<title>Node21&#45;&gt;Node10</title>
<path fill="none" stroke="#191970" d="M293.4806,-112.3845C299.4369,-97.4674 313.1048,-69.1053 335,-56 363.3899,-39.0072 556.195,-23.6517 674.1067,-15.7041"/>
<polygon fill="#191970" stroke="#191970" points="674.4755,-19.1874 684.2198,-15.0282 674.0086,-12.2029 674.4755,-19.1874"/>
</g>
<!-- Node21&#45;&gt;Node22 -->
<g id="edge37" class="edge">
<title>Node21&#45;&gt;Node22</title>
<path fill="none" stroke="#191970" d="M260.776,-112.3733C232.5075,-103.0613 189.5035,-88.8953 158.4656,-78.671"/>
<polygon fill="#191970" stroke="#191970" points="159.4357,-75.3056 148.8427,-75.5011 157.2456,-81.9542 159.4357,-75.3056"/>
</g>
<!-- Node23&#45;&gt;Node1 -->
<g id="edge39" class="edge">
<title>Node23&#45;&gt;Node1</title>
<path fill="none" stroke="#191970" d="M446.8964,-112.4934C411.448,-105.0818 364.3046,-93.1421 325,-76 294.0949,-62.5212 261.8087,-40.6102 241.5656,-25.7663"/>
<polygon fill="#191970" stroke="#191970" points="243.5232,-22.8602 233.4134,-19.691 239.3403,-28.473 243.5232,-22.8602"/>
</g>
<!-- Node23&#45;&gt;Node10 -->
<g id="edge40" class="edge">
<title>Node23&#45;&gt;Node10</title>
<path fill="none" stroke="#191970" d="M505.6017,-112.1806C514.5068,-97.5152 533.3312,-70.1088 557,-56 579.6636,-42.4905 641.5123,-29.8119 692.0894,-21.2007"/>
<polygon fill="#191970" stroke="#191970" points="692.7554,-24.638 702.0395,-19.5337 691.5986,-17.7342 692.7554,-24.638"/>
</g>
<!-- Node23&#45;&gt;Node12 -->
<g id="edge42" class="edge">
<title>Node23&#45;&gt;Node12</title>
<path fill="none" stroke="#191970" d="M545.7762,-112.4409C588.1951,-103.4606 653.0005,-89.4303 709,-76 743.3828,-67.754 751.1849,-62.1712 786,-56 932.194,-30.0862 1106.5271,-17.893 1197.5828,-12.9225"/>
<polygon fill="#191970" stroke="#191970" points="1197.9343,-16.4088 1207.7331,-12.3796 1197.5604,-9.4188 1197.9343,-16.4088"/>
</g>
<!-- Node23&#45;&gt;Node19 -->
<g id="edge41" class="edge">
<title>Node23&#45;&gt;Node19</title>
<path fill="none" stroke="#191970" d="M522.8635,-112.3733C544.405,-103.3032 576.8838,-89.6279 600.9956,-79.4755"/>
<polygon fill="#191970" stroke="#191970" points="602.5767,-82.6075 610.4348,-75.5011 599.8603,-76.156 602.5767,-82.6075"/>
</g>
<!-- Node23&#45;&gt;Node20 -->
<g id="edge43" class="edge">
<title>Node23&#45;&gt;Node20</title>
<path fill="none" stroke="#191970" d="M436.822,-112.4368C395.7557,-104.7818 347.589,-92.5787 335,-76 312.0166,-45.7326 361.454,-28.1399 405.4133,-18.8413"/>
<polygon fill="#191970" stroke="#191970" points="406.1402,-22.2653 415.2595,-16.8719 404.7672,-15.4012 406.1402,-22.2653"/>
</g>
<!-- Node24 -->
<g id="node25" class="node">
<title>Node24</title>
<polygon fill="#ffffff" stroke="#bfbfbf" points="344,-56.5 344,-75.5 472,-75.5 472,-56.5 344,-56.5"/>
<text text-anchor="middle" x="408" y="-63.5" font-family="Helvetica,sans-Serif" font-size="10.00" fill="#000000">AMReX_PhysBCFunct.H</text>
</g>
<!-- Node23&#45;&gt;Node24 -->
<g id="edge44" class="edge">
<title>Node23&#45;&gt;Node24</title>
<path fill="none" stroke="#191970" d="M483.9748,-112.2455C469.8592,-103.6534 449.0737,-91.0014 432.8101,-81.1018"/>
<polygon fill="#191970" stroke="#191970" points="434.2034,-77.8525 423.8415,-75.6427 430.5637,-83.8319 434.2034,-77.8525"/>
</g>
</g>
</svg>
        <g id="navigator" transform="translate(0 0)" fill="#404254">
                <rect fill="#f2f5e9" fill-opacity="0.5" stroke="#606060" stroke-width=".5" x="0" y="0" width="60" height="60"/>
                <use id="zoomplus" xlink:href="#zoomPlus" x="17" y="9" onmousedown="handleZoom(evt,'in')"/>
                <use id="zoomminus" xlink:href="#zoomMin" x="42" y="9" onmousedown="handleZoom(evt,'out')"/>
                <use id="reset" xlink:href="#resetDef" x="30" y="36" onmousedown="handleReset()"/>
                <g id="arrowUp" xlink:href="#dirArrow" transform="translate(30 24)" onmousedown="handlePan(0,-1)">
                  <use xlink:href="#rim" fill="#404040">
                        <set attributeName="fill" to="#808080" begin="arrowUp.mouseover" end="arrowUp.mouseout"/>
                  </use>
                  <path fill="none" stroke="white" stroke-width="1.5" d="M0,-3.0v7 M-2.5,-0.5L0,-3.0L2.5,-0.5"/>
                </g>
                <g id="arrowRight" xlink:href="#dirArrow" transform="rotate(90) translate(36 -43)" onmousedown="handlePan(1,0)">
                  <use xlink:href="#rim" fill="#404040">
                        <set attributeName="fill" to="#808080" begin="arrowRight.mouseover" end="arrowRight.mouseout"/>
                  </use>
                  <path fill="none" stroke="white" stroke-width="1.5" d="M0,-3.0v7 M-2.5,-0.5L0,-3.0L2.5,-0.5"/>
                </g>
                <g id="arrowDown" xlink:href="#dirArrow" transform="rotate(180) translate(-30 -48)" onmousedown="handlePan(0,1)">
                  <use xlink:href="#rim" fill="#404040">
                        <set attributeName="fill" to="#808080" begin="arrowDown.mouseover" end="arrowDown.mouseout"/>
                  </use>
                  <path fill="none" stroke="white" stroke-width="1.5" d="M0,-3.0v7 M-2.5,-0.5L0,-3.0L2.5,-0.5"/>
                </g>
                <g id="arrowLeft" xlink:href="#dirArrow" transform="rotate(270) translate(-36 17)" onmousedown="handlePan(-1,0)">
                  <use xlink:href="#rim" fill="#404040">
                        <set attributeName="fill" to="#808080" begin="arrowLeft.mouseover" end="arrowLeft.mouseout"/>
                  </use>
                  <path fill="none" stroke="white" stroke-width="1.5" d="M0,-3.0v7 M-2.5,-0.5L0,-3.0L2.5,-0.5"/>
                </g>
        </g>
        <svg viewBox="0 0 15 15" width="100%" height="30px" preserveAspectRatio="xMaxYMin meet">
         <g id="arrow_out" transform="scale(0.3 0.3)">
          <a xlink:href="_p_d_e_traits_8_h__incl_org.svg" target="_base">
           <rect id="button" ry="5" rx="5" y="6" x="6" height="38" width="38"
                fill="#f2f5e9" fill-opacity="0.5" stroke="#606060" stroke-width="1.0"/>
           <path id="arrow"
             d="M 11.500037,31.436501 C 11.940474,20.09759 22.043105,11.32322 32.158766,21.979434 L 37.068811,17.246167 C 37.068811,17.246167 37.088388,32 37.088388,32 L 22.160133,31.978069 C 22.160133,31.978069 26.997745,27.140456 26.997745,27.140456 C 18.528582,18.264221 13.291696,25.230495 11.500037,31.436501 z"
             style="fill:#404040;"/>
          </a>
         </g>
        </svg>
</svg>
