<?xml version="1.0" encoding="UTF-8" standalone="no"?>
<!DOCTYPE svg PUBLIC "-//W3C//DTD SVG 1.1//EN"
 "http://www.w3.org/Graphics/SVG/1.1/DTD/svg11.dtd">
<!-- Generated by graphviz version 2.40.1 (20161225.0304)
 -->
<!-- Title: PDEOps.H Pages: 1 -->
<!--zoomable 308 -->
<svg id="main" version="1.1" xmlns="http://www.w3.org/2000/svg" xmlns:xlink="http://www.w3.org/1999/xlink" xml:space="preserve" onload="init(evt)">
<style type="text/css"><![CDATA[
.edge:hover path { stroke: red; }
.edge:hover polygon { stroke: red; fill: red; }
]]></style>
<script type="text/javascript"><![CDATA[
var edges = document.getElementsByTagName('g');
if (edges && edges.length) {
  for (var i=0;i<edges.length;i++) {
    if (edges[i].id.substr(0,4)=='edge') {
      edges[i].setAttribute('class','edge');
    }
  }
}
]]></script>
        <defs>
                <circle id="rim" cx="0" cy="0" r="7"/>
                <circle id="rim2" cx="0" cy="0" r="3.5"/>
                <g id="zoomPlus">
                        <use xlink:href="#rim" fill="#404040">
                                <set attributeName="fill" to="#808080" begin="zoomplus.mouseover" end="zoomplus.mouseout"/>
                        </use>
                        <path d="M-4,0h8M0,-4v8" fill="none" stroke="white" stroke-width="1.5" pointer-events="none"/>
                </g>
                <g id="zoomMin">
                        <use xlink:href="#rim" fill="#404040">
                                <set attributeName="fill" to="#808080" begin="zoomminus.mouseover" end="zoomminus.mouseout"/>
                        </use>
                        <path d="M-4,0h8" fill="none" stroke="white" stroke-width="1.5" pointer-events="none"/>
                </g>
                <g id="dirArrow">
                        <path fill="none" stroke="white" stroke-width="1.5" d="M0,-3.0v7 M-2.5,-0.5L0,-3.0L2.5,-0.5"/>
                </g>
               <g id="resetDef">
                       <use xlink:href="#rim2" fill="#404040">
                               <set attributeName="fill" to="#808080" begin="reset.mouseover" end="reset.mouseout"/>
                       </use>
               </g>
        </defs>

<script type="text/javascript">
var viewWidth = 1384;
var viewHeight = 308;
var sectionId = 'dynsection-1';
</script>
<script xlink:href="svgpan.js"/>
<svg id="graph" class="graph">
<g id="viewport">
<title>PDEOps.H</title>
<polygon fill="#ffffff" stroke="transparent" points="-4,4 -4,-304 1379.5214,-304 1379.5214,4 -4,4"/>
<!-- Node44 -->
<g id="node1" class="node">
<title>Node44</title>
<polygon fill="#bfbfbf" stroke="#000000" points="763.0214,-280.5 763.0214,-299.5 829.0214,-299.5 829.0214,-280.5 763.0214,-280.5"/>
<text text-anchor="middle" x="796.0214" y="-287.5" font-family="Helvetica,sans-Serif" font-size="10.00" fill="#000000">PDEOps.H</text>
</g>
<!-- Node45 -->
<g id="node2" class="node">
<title>Node45</title>
<g id="a_node2"><a xlink:href="_adv_op___godunov_8_h.html" target="_top" xlink:title="AdvOp_Godunov.H">
<polygon fill="#ffffff" stroke="#000000" points="764.5214,-112.5 764.5214,-131.5 865.5214,-131.5 865.5214,-112.5 764.5214,-112.5"/>
<text text-anchor="middle" x="815.0214" y="-119.5" font-family="Helvetica,sans-Serif" font-size="10.00" fill="#000000">AdvOp_Godunov.H</text>
</a>
</g>
</g>
<!-- Node44&#45;&gt;Node45 -->
<g id="edge1" class="edge">
<title>Node44&#45;&gt;Node45</title>
<path fill="none" stroke="#191970" d="M798.2538,-270.2601C802.3358,-234.1669 810.8633,-158.7656 813.9099,-131.8279"/>
<polygon fill="#191970" stroke="#191970" points="794.7434,-270.1562 797.0973,-280.4862 801.699,-270.9429 794.7434,-270.1562"/>
</g>
<!-- Node47 -->
<g id="node4" class="node">
<title>Node47</title>
<g id="a_node4"><a xlink:href="icns__ops_8_h.html" target="_top" xlink:title="icns_ops.H">
<polygon fill="#ffffff" stroke="#000000" points="1204.0214,-56.5 1204.0214,-75.5 1270.0214,-75.5 1270.0214,-56.5 1204.0214,-56.5"/>
<text text-anchor="middle" x="1237.0214" y="-63.5" font-family="Helvetica,sans-Serif" font-size="10.00" fill="#000000">icns_ops.H</text>
</a>
</g>
</g>
<!-- Node44&#45;&gt;Node47 -->
<g id="edge59" class="edge">
<title>Node44&#45;&gt;Node47</title>
<path fill="none" stroke="#191970" d="M824.0296,-275.7736C906.7692,-233.7471 1148.6407,-110.8918 1218.1427,-75.5891"/>
<polygon fill="#191970" stroke="#191970" points="822.3013,-272.7258 814.9706,-280.375 825.4714,-278.9668 822.3013,-272.7258"/>
</g>
<!-- Node55 -->
<g id="node12" class="node">
<title>Node55</title>
<g id="a_node12"><a xlink:href="_adv_op___m_o_l_8_h.html" target="_top" xlink:title="AdvOp_MOL.H">
<polygon fill="#ffffff" stroke="#000000" points="663.5214,-112.5 663.5214,-131.5 746.5214,-131.5 746.5214,-112.5 663.5214,-112.5"/>
<text text-anchor="middle" x="705.0214" y="-119.5" font-family="Helvetica,sans-Serif" font-size="10.00" fill="#000000">AdvOp_MOL.H</text>
</a>
</g>
</g>
<!-- Node44&#45;&gt;Node55 -->
<g id="edge12" class="edge">
<title>Node44&#45;&gt;Node55</title>
<path fill="none" stroke="#191970" d="M792.1522,-270.6702C786.4841,-245.5111 774.2258,-200.8812 753.0214,-168 743.6382,-153.4498 728.7715,-140.1578 718.0686,-131.6449"/>
<polygon fill="#191970" stroke="#191970" points="788.7314,-271.4109 794.2432,-280.4592 795.5769,-269.9486 788.7314,-271.4109"/>
</g>
<!-- Node56 -->
<g id="node13" class="node">
<title>Node56</title>
<g id="a_node13"><a xlink:href="_b_c_ops_8_h.html" target="_top" xlink:title="BCOps.H">
<polygon fill="#ffffff" stroke="#000000" points="519.5214,-112.5 519.5214,-131.5 578.5214,-131.5 578.5214,-112.5 519.5214,-112.5"/>
<text text-anchor="middle" x="549.0214" y="-119.5" font-family="Helvetica,sans-Serif" font-size="10.00" fill="#000000">BCOps.H</text>
</a>
</g>
</g>
<!-- Node44&#45;&gt;Node56 -->
<g id="edge20" class="edge">
<title>Node44&#45;&gt;Node56</title>
<path fill="none" stroke="#191970" d="M778.4261,-273.4188C763.2567,-259.4975 740.4732,-239.4616 719.0214,-224 666.3884,-186.0643 599.0952,-148.6926 567.2678,-131.6222"/>
<polygon fill="#191970" stroke="#191970" points="776.3013,-276.2219 786.0133,-280.456 781.0615,-271.0895 776.3013,-276.2219"/>
</g>
<!-- Node58 -->
<g id="node15" class="node">
<title>Node58</title>
<g id="a_node15"><a xlink:href="_comp_r_h_s_ops_8_h.html" target="_top" xlink:title="CompRHSOps.H">
<polygon fill="#ffffff" stroke="#000000" points="617.5214,-224.5 617.5214,-243.5 710.5214,-243.5 710.5214,-224.5 617.5214,-224.5"/>
<text text-anchor="middle" x="664.0214" y="-231.5" font-family="Helvetica,sans-Serif" font-size="10.00" fill="#000000">CompRHSOps.H</text>
</a>
</g>
</g>
<!-- Node44&#45;&gt;Node58 -->
<g id="edge28" class="edge">
<title>Node44&#45;&gt;Node58</title>
<path fill="none" stroke="#191970" d="M763.9248,-276.3833C739.9179,-266.1985 707.6955,-252.5284 686.4169,-243.5011"/>
<polygon fill="#191970" stroke="#191970" points="762.757,-279.6897 773.3297,-280.3733 765.4909,-273.2457 762.757,-279.6897"/>
</g>
<!-- Node59 -->
<g id="node16" class="node">
<title>Node59</title>
<g id="a_node16"><a xlink:href="_p_d_e_8_h.html" target="_top" xlink:title="PDE.H">
<polygon fill="#ffffff" stroke="#000000" points="565.0214,-168.5 565.0214,-187.5 613.0214,-187.5 613.0214,-168.5 565.0214,-168.5"/>
<text text-anchor="middle" x="589.0214" y="-175.5" font-family="Helvetica,sans-Serif" font-size="10.00" fill="#000000">PDE.H</text>
</a>
</g>
</g>
<!-- Node44&#45;&gt;Node59 -->
<g id="edge53" class="edge">
<title>Node44&#45;&gt;Node59</title>
<path fill="none" stroke="#191970" d="M752.7191,-284.4851C703.8541,-277.4122 628.497,-263.666 608.0214,-244 592.37,-228.9676 589.3697,-201.9508 588.943,-187.5879"/>
<polygon fill="#191970" stroke="#191970" points="752.3246,-287.964 762.715,-285.8928 753.3008,-281.0324 752.3246,-287.964"/>
</g>
<!-- Node63 -->
<g id="node20" class="node">
<title>Node63</title>
<g id="a_node20"><a xlink:href="icns__diffusion_8_h.html" target="_top" xlink:title="icns_diffusion.H">
<polygon fill="#ffffff" stroke="#000000" points="1288.5214,-56.5 1288.5214,-75.5 1375.5214,-75.5 1375.5214,-56.5 1288.5214,-56.5"/>
<text text-anchor="middle" x="1332.0214" y="-63.5" font-family="Helvetica,sans-Serif" font-size="10.00" fill="#000000">icns_diffusion.H</text>
</a>
</g>
</g>
<!-- Node44&#45;&gt;Node63 -->
<g id="edge60" class="edge">
<title>Node44&#45;&gt;Node63</title>
<path fill="none" stroke="#191970" d="M839.2885,-287.8857C931.6473,-282.9429 1145.1952,-269.1066 1213.0214,-244 1254.4091,-228.6799 1267.2485,-222.2976 1295.0214,-188 1323.0179,-153.4262 1329.8605,-97.9347 1331.5085,-75.6865"/>
<polygon fill="#191970" stroke="#191970" points="838.9678,-284.3976 829.1653,-288.4176 839.3353,-291.3879 838.9678,-284.3976"/>
</g>
<!-- Node71 -->
<g id="node28" class="node">
<title>Node71</title>
<g id="a_node28"><a xlink:href="_diffusion_ops_8_h.html" target="_top" xlink:title="DiffusionOps.H">
<polygon fill="#ffffff" stroke="#000000" points="1120.0214,-224.5 1120.0214,-243.5 1204.0214,-243.5 1204.0214,-224.5 1120.0214,-224.5"/>
<text text-anchor="middle" x="1162.0214" y="-231.5" font-family="Helvetica,sans-Serif" font-size="10.00" fill="#000000">DiffusionOps.H</text>
</a>
</g>
</g>
<!-- Node44&#45;&gt;Node71 -->
<g id="edge54" class="edge">
<title>Node44&#45;&gt;Node71</title>
<path fill="none" stroke="#191970" d="M839.3346,-283.9826C899.3209,-275.5556 1011.0435,-259.5235 1106.0214,-244 1110.5048,-243.2672 1115.1852,-242.4749 1119.8468,-241.6681"/>
<polygon fill="#191970" stroke="#191970" points="838.5213,-280.5623 829.104,-285.4166 839.493,-287.4946 838.5213,-280.5623"/>
</g>
<!-- Node46 -->
<g id="node3" class="node">
<title>Node46</title>
<g id="a_node3"><a xlink:href="density_8cpp.html" target="_top" xlink:title="density.cpp">
<polygon fill="#ffffff" stroke="#000000" points="308.5214,-.5 308.5214,-19.5 375.5214,-19.5 375.5214,-.5 308.5214,-.5"/>
<text text-anchor="middle" x="342.0214" y="-7.5" font-family="Helvetica,sans-Serif" font-size="10.00" fill="#000000">density.cpp</text>
</a>
</g>
</g>
<!-- Node45&#45;&gt;Node46 -->
<g id="edge2" class="edge">
<title>Node45&#45;&gt;Node46</title>
<path fill="none" stroke="#191970" d="M793.6991,-106.4763C771.1344,-90.9152 733.8939,-67.6446 698.0214,-56 564.4145,-12.6299 522.3713,-44.3113 384.0214,-20 381.3637,-19.533 378.6229,-18.9996 375.875,-18.4277"/>
<polygon fill="#191970" stroke="#191970" points="791.9551,-109.5286 802.1482,-112.4186 795.9821,-103.8029 791.9551,-109.5286"/>
</g>
<!-- Node45&#45;&gt;Node47 -->
<g id="edge3" class="edge">
<title>Node45&#45;&gt;Node47</title>
<path fill="none" stroke="#191970" d="M876.0332,-113.9036C966.4843,-101.9006 1133.0712,-79.7943 1203.83,-70.4045"/>
<polygon fill="#191970" stroke="#191970" points="875.3771,-110.4599 865.9244,-115.2451 876.298,-117.3991 875.3771,-110.4599"/>
</g>
<!-- Node49 -->
<g id="node6" class="node">
<title>Node49</title>
<g id="a_node6"><a xlink:href="icns__advection_8_h.html" target="_top" xlink:title="icns_advection.H">
<polygon fill="#ffffff" stroke="#000000" points="928.0214,-56.5 928.0214,-75.5 1020.0214,-75.5 1020.0214,-56.5 928.0214,-56.5"/>
<text text-anchor="middle" x="974.0214" y="-63.5" font-family="Helvetica,sans-Serif" font-size="10.00" fill="#000000">icns_advection.H</text>
</a>
</g>
</g>
<!-- Node45&#45;&gt;Node49 -->
<g id="edge5" class="edge">
<title>Node45&#45;&gt;Node49</title>
<path fill="none" stroke="#191970" d="M852.1503,-108.9231C881.2164,-98.686 920.9583,-84.6889 947.045,-75.5011"/>
<polygon fill="#191970" stroke="#191970" points="850.6238,-105.75 842.3544,-112.3733 852.9492,-112.3524 850.6238,-105.75"/>
</g>
<!-- Node51 -->
<g id="node8" class="node">
<title>Node51</title>
<g id="a_node8"><a xlink:href="levelset_8cpp.html" target="_top" xlink:title="levelset.cpp">
<polygon fill="#ffffff" stroke="#000000" points="393.5214,-.5 393.5214,-19.5 462.5214,-19.5 462.5214,-.5 393.5214,-.5"/>
<text text-anchor="middle" x="428.0214" y="-7.5" font-family="Helvetica,sans-Serif" font-size="10.00" fill="#000000">levelset.cpp</text>
</a>
</g>
</g>
<!-- Node45&#45;&gt;Node51 -->
<g id="edge8" class="edge">
<title>Node45&#45;&gt;Node51</title>
<path fill="none" stroke="#191970" d="M798.4319,-105.3086C782.0319,-89.8757 755.4765,-67.6264 728.0214,-56 680.6529,-35.941 531.0286,-19.7214 462.683,-13.153"/>
<polygon fill="#191970" stroke="#191970" points="796.0031,-107.8288 805.6264,-112.2608 800.8673,-102.7949 796.0031,-107.8288"/>
</g>
<!-- Node52 -->
<g id="node9" class="node">
<title>Node52</title>
<g id="a_node9"><a xlink:href="_s_d_r_8cpp.html" target="_top" xlink:title="SDR.cpp">
<polygon fill="#ffffff" stroke="#000000" points="610.5214,-56.5 610.5214,-75.5 667.5214,-75.5 667.5214,-56.5 610.5214,-56.5"/>
<text text-anchor="middle" x="639.0214" y="-63.5" font-family="Helvetica,sans-Serif" font-size="10.00" fill="#000000">SDR.cpp</text>
</a>
</g>
</g>
<!-- Node45&#45;&gt;Node52 -->
<g id="edge9" class="edge">
<title>Node45&#45;&gt;Node52</title>
<path fill="none" stroke="#191970" d="M775.0595,-109.2849C742.3597,-98.8804 696.9002,-84.416 667.7166,-75.1303"/>
<polygon fill="#191970" stroke="#191970" points="774.1754,-112.6764 784.7659,-112.3733 776.2979,-106.0059 774.1754,-112.6764"/>
</g>
<!-- Node53 -->
<g id="node10" class="node">
<title>Node53</title>
<g id="a_node10"><a xlink:href="temperature_8cpp.html" target="_top" xlink:title="temperature.cpp">
<polygon fill="#ffffff" stroke="#000000" points="505.5214,-56.5 505.5214,-75.5 592.5214,-75.5 592.5214,-56.5 505.5214,-56.5"/>
<text text-anchor="middle" x="549.0214" y="-63.5" font-family="Helvetica,sans-Serif" font-size="10.00" fill="#000000">temperature.cpp</text>
</a>
</g>
</g>
<!-- Node45&#45;&gt;Node53 -->
<g id="edge10" class="edge">
<title>Node45&#45;&gt;Node53</title>
<path fill="none" stroke="#191970" d="M759.6962,-110.3526C710.1959,-99.9315 638.5958,-84.8578 592.9324,-75.2444"/>
<polygon fill="#191970" stroke="#191970" points="759.09,-113.8016 769.5966,-112.4369 760.5321,-106.9518 759.09,-113.8016"/>
</g>
<!-- Node54 -->
<g id="node11" class="node">
<title>Node54</title>
<g id="a_node11"><a xlink:href="_t_k_e_8cpp.html" target="_top" xlink:title="TKE.cpp">
<polygon fill="#ffffff" stroke="#000000" points="432.5214,-56.5 432.5214,-75.5 487.5214,-75.5 487.5214,-56.5 432.5214,-56.5"/>
<text text-anchor="middle" x="460.0214" y="-63.5" font-family="Helvetica,sans-Serif" font-size="10.00" fill="#000000">TKE.cpp</text>
</a>
</g>
</g>
<!-- Node45&#45;&gt;Node54 -->
<g id="edge11" class="edge">
<title>Node45&#45;&gt;Node54</title>
<path fill="none" stroke="#191970" d="M754.3196,-111.9414C638.4165,-94.706 606.7052,-98.9591 496.0214,-76 493.3537,-75.4467 490.5925,-74.8057 487.84,-74.1208"/>
<polygon fill="#191970" stroke="#191970" points="753.8875,-115.4158 764.2978,-113.4471 754.9319,-108.4941 753.8875,-115.4158"/>
</g>
<!-- Node48 -->
<g id="node5" class="node">
<title>Node48</title>
<g id="a_node5"><a xlink:href="icns_8cpp.html" target="_top" xlink:title="icns.cpp">
<polygon fill="#ffffff" stroke="#000000" points="1149.5214,-.5 1149.5214,-19.5 1202.5214,-19.5 1202.5214,-.5 1149.5214,-.5"/>
<text text-anchor="middle" x="1176.0214" y="-7.5" font-family="Helvetica,sans-Serif" font-size="10.00" fill="#000000">icns.cpp</text>
</a>
</g>
</g>
<!-- Node47&#45;&gt;Node48 -->
<g id="edge4" class="edge">
<title>Node47&#45;&gt;Node48</title>
<path fill="none" stroke="#191970" d="M1218.8964,-49.3607C1208.3434,-39.6727 1195.4101,-27.7995 1186.525,-19.6427"/>
<polygon fill="#191970" stroke="#191970" points="1216.6625,-52.0611 1226.396,-56.2455 1221.3964,-46.9045 1216.6625,-52.0611"/>
</g>
<!-- Node49&#45;&gt;Node48 -->
<g id="edge6" class="edge">
<title>Node49&#45;&gt;Node48</title>
<path fill="none" stroke="#191970" d="M1018.5332,-53.6601C1058.61,-42.5497 1116.178,-26.5902 1149.4723,-17.3601"/>
<polygon fill="#191970" stroke="#191970" points="1017.4479,-50.3289 1008.7464,-56.3733 1019.318,-57.0745 1017.4479,-50.3289"/>
</g>
<!-- Node50 -->
<g id="node7" class="node">
<title>Node50</title>
<g id="a_node7"><a xlink:href="icns__advection_8cpp.html" target="_top" xlink:title="icns_advection.cpp">
<polygon fill="#ffffff" stroke="#000000" points="923.5214,-.5 923.5214,-19.5 1024.5214,-19.5 1024.5214,-.5 923.5214,-.5"/>
<text text-anchor="middle" x="974.0214" y="-7.5" font-family="Helvetica,sans-Serif" font-size="10.00" fill="#000000">icns_advection.cpp</text>
</a>
</g>
</g>
<!-- Node49&#45;&gt;Node50 -->
<g id="edge7" class="edge">
<title>Node49&#45;&gt;Node50</title>
<path fill="none" stroke="#191970" d="M974.0214,-46.1575C974.0214,-37.155 974.0214,-26.9199 974.0214,-19.6427"/>
<polygon fill="#191970" stroke="#191970" points="970.5215,-46.2455 974.0214,-56.2455 977.5215,-46.2456 970.5215,-46.2455"/>
</g>
<!-- Node55&#45;&gt;Node46 -->
<g id="edge13" class="edge">
<title>Node55&#45;&gt;Node46</title>
<path fill="none" stroke="#191970" d="M701.7133,-102.0978C698.0975,-86.9653 690.7264,-66.9424 676.0214,-56 623.5698,-16.9693 448.3661,-31.5896 384.0214,-20 381.3657,-19.5217 378.6264,-18.9801 375.8795,-18.4026"/>
<polygon fill="#191970" stroke="#191970" points="698.3145,-102.9486 703.7336,-112.0526 705.1746,-101.5563 698.3145,-102.9486"/>
</g>
<!-- Node55&#45;&gt;Node47 -->
<g id="edge14" class="edge">
<title>Node55&#45;&gt;Node47</title>
<path fill="none" stroke="#191970" d="M756.6431,-111.8874C934.2718,-86.68 981.8847,-94.7821 1157.0214,-76 1172.4694,-74.3433 1189.5614,-72.2432 1203.9674,-70.3958"/>
<polygon fill="#191970" stroke="#191970" points="756.1067,-108.4284 746.705,-113.313 757.1006,-115.3575 756.1067,-108.4284"/>
</g>
<!-- Node55&#45;&gt;Node49 -->
<g id="edge15" class="edge">
<title>Node55&#45;&gt;Node49</title>
<path fill="none" stroke="#191970" d="M756.6441,-111.2533C806.2595,-100.9244 880.5319,-85.4625 928.1302,-75.5536"/>
<polygon fill="#191970" stroke="#191970" points="755.8342,-107.8467 746.7575,-113.3114 757.2609,-114.6998 755.8342,-107.8467"/>
</g>
<!-- Node55&#45;&gt;Node51 -->
<g id="edge16" class="edge">
<title>Node55&#45;&gt;Node51</title>
<path fill="none" stroke="#191970" d="M713.1281,-102.6487C717.7825,-88.1408 720.8017,-68.6813 710.0214,-56 694.1376,-37.3153 534.5248,-20.049 462.7108,-13.1589"/>
<polygon fill="#191970" stroke="#191970" points="709.7933,-101.5764 709.6239,-112.1699 716.3625,-103.9942 709.7933,-101.5764"/>
</g>
<!-- Node55&#45;&gt;Node52 -->
<g id="edge17" class="edge">
<title>Node55&#45;&gt;Node52</title>
<path fill="none" stroke="#191970" d="M685.7458,-105.645C674.2675,-95.9058 660.0936,-83.8795 650.3859,-75.6427"/>
<polygon fill="#191970" stroke="#191970" points="683.6355,-108.4445 693.525,-112.2455 688.1644,-103.1069 683.6355,-108.4445"/>
</g>
<!-- Node55&#45;&gt;Node53 -->
<g id="edge18" class="edge">
<title>Node55&#45;&gt;Node53</title>
<path fill="none" stroke="#191970" d="M668.5929,-108.9231C640.0753,-98.686 601.0833,-84.6889 575.4888,-75.5011"/>
<polygon fill="#191970" stroke="#191970" points="667.6095,-112.2887 678.204,-112.3733 669.9746,-105.7004 667.6095,-112.2887"/>
</g>
<!-- Node55&#45;&gt;Node54 -->
<g id="edge19" class="edge">
<title>Node55&#45;&gt;Node54</title>
<path fill="none" stroke="#191970" d="M653.4128,-111.4561C611.0021,-102.5961 549.4271,-89.2843 496.0214,-76 493.3775,-75.3424 490.6322,-74.6314 487.8899,-73.9022"/>
<polygon fill="#191970" stroke="#191970" points="652.7259,-114.8881 663.2293,-113.4989 654.1521,-108.0349 652.7259,-114.8881"/>
</g>
<!-- Node56&#45;&gt;Node46 -->
<g id="edge21" class="edge">
<title>Node56&#45;&gt;Node46</title>
<path fill="none" stroke="#191970" d="M509.7861,-110.7344C475.8072,-100.6155 429.5848,-85.8733 413.0214,-76 387.0004,-60.4892 362.4701,-34.1611 350.1986,-19.8958"/>
<polygon fill="#191970" stroke="#191970" points="508.8685,-114.1128 519.4503,-113.5867 510.85,-107.3991 508.8685,-114.1128"/>
</g>
<!-- Node56&#45;&gt;Node51 -->
<g id="edge24" class="edge">
<title>Node56&#45;&gt;Node51</title>
<path fill="none" stroke="#191970" d="M509.417,-110.0434C474.4649,-99.0945 428.2604,-83.4899 423.0214,-76 411.1657,-59.0508 418.454,-33.307 423.8263,-19.5155"/>
<polygon fill="#191970" stroke="#191970" points="508.8004,-113.5166 519.3884,-113.1374 510.8749,-106.8311 508.8004,-113.5166"/>
</g>
<!-- Node56&#45;&gt;Node52 -->
<g id="edge25" class="edge">
<title>Node56&#45;&gt;Node52</title>
<path fill="none" stroke="#191970" d="M573.4998,-106.769C589.448,-96.8456 609.7723,-84.1994 623.5242,-75.6427"/>
<polygon fill="#191970" stroke="#191970" points="571.3397,-103.9908 564.6982,-112.2455 575.0378,-109.9342 571.3397,-103.9908"/>
</g>
<!-- Node56&#45;&gt;Node53 -->
<g id="edge26" class="edge">
<title>Node56&#45;&gt;Node53</title>
<path fill="none" stroke="#191970" d="M549.0214,-102.1575C549.0214,-93.155 549.0214,-82.9199 549.0214,-75.6427"/>
<polygon fill="#191970" stroke="#191970" points="545.5215,-102.2455 549.0214,-112.2455 552.5215,-102.2456 545.5215,-102.2455"/>
</g>
<!-- Node56&#45;&gt;Node54 -->
<g id="edge27" class="edge">
<title>Node56&#45;&gt;Node54</title>
<path fill="none" stroke="#191970" d="M524.8149,-106.769C509.0439,-96.8456 488.9454,-84.1994 475.3463,-75.6427"/>
<polygon fill="#191970" stroke="#191970" points="523.1908,-109.8823 533.5187,-112.2455 526.9188,-103.9575 523.1908,-109.8823"/>
</g>
<!-- Node57 -->
<g id="node14" class="node">
<title>Node57</title>
<g id="a_node14"><a xlink:href="icns__bcop_8_h.html" target="_top" xlink:title="icns_bcop.H">
<polygon fill="#ffffff" stroke="#000000" points="838.5214,-56.5 838.5214,-75.5 909.5214,-75.5 909.5214,-56.5 838.5214,-56.5"/>
<text text-anchor="middle" x="874.0214" y="-63.5" font-family="Helvetica,sans-Serif" font-size="10.00" fill="#000000">icns_bcop.H</text>
</a>
</g>
</g>
<!-- Node56&#45;&gt;Node57 -->
<g id="edge22" class="edge">
<title>Node56&#45;&gt;Node57</title>
<path fill="none" stroke="#191970" d="M588.621,-111.8033C683.9381,-92.0197 785.8379,-77.5392 838.4678,-70.5518"/>
<polygon fill="#191970" stroke="#191970" points="587.8931,-108.3797 578.826,-113.8603 589.3318,-115.2303 587.8931,-108.3797"/>
</g>
<!-- Node57&#45;&gt;Node48 -->
<g id="edge23" class="edge">
<title>Node57&#45;&gt;Node48</title>
<path fill="none" stroke="#191970" d="M919.6793,-55.9313C1009.7432,-38.018 1104.1836,-21.9273 1149.3141,-14.4042"/>
<polygon fill="#191970" stroke="#191970" points="918.9736,-52.503 909.8543,-57.8963 920.3465,-59.367 918.9736,-52.503"/>
</g>
<!-- Node58&#45;&gt;Node59 -->
<g id="edge29" class="edge">
<title>Node58&#45;&gt;Node59</title>
<path fill="none" stroke="#191970" d="M642.8737,-218.2097C629.7012,-208.3743 613.1813,-196.0394 601.9357,-187.6427"/>
<polygon fill="#191970" stroke="#191970" points="640.8505,-221.0671 650.9574,-224.2455 645.0386,-215.4581 640.8505,-221.0671"/>
</g>
<!-- Node60 -->
<g id="node17" class="node">
<title>Node60</title>
<g id="a_node17"><a xlink:href="density_8_h.html" target="_top" xlink:title="density.H">
<polygon fill="#ffffff" stroke="#000000" points="24.5214,-112.5 24.5214,-131.5 83.5214,-131.5 83.5214,-112.5 24.5214,-112.5"/>
<text text-anchor="middle" x="54.0214" y="-119.5" font-family="Helvetica,sans-Serif" font-size="10.00" fill="#000000">density.H</text>
</a>
</g>
</g>
<!-- Node59&#45;&gt;Node60 -->
<g id="edge30" class="edge">
<title>Node59&#45;&gt;Node60</title>
<path fill="none" stroke="#191970" d="M554.7519,-174.4129C456.6584,-164.1452 175.9209,-134.7596 83.7422,-125.111"/>
<polygon fill="#191970" stroke="#191970" points="554.6841,-177.9249 564.9942,-175.485 555.4129,-170.9629 554.6841,-177.9249"/>
</g>
<!-- Node62 -->
<g id="node19" class="node">
<title>Node62</title>
<g id="a_node19"><a xlink:href="icns_8_h.html" target="_top" xlink:title="icns.H">
<polygon fill="#ffffff" stroke="#000000" points="1018.5214,-112.5 1018.5214,-131.5 1063.5214,-131.5 1063.5214,-112.5 1018.5214,-112.5"/>
<text text-anchor="middle" x="1041.0214" y="-119.5" font-family="Helvetica,sans-Serif" font-size="10.00" fill="#000000">icns.H</text>
</a>
</g>
</g>
<!-- Node59&#45;&gt;Node62 -->
<g id="edge34" class="edge">
<title>Node59&#45;&gt;Node62</title>
<path fill="none" stroke="#191970" d="M623.3548,-173.7463C711.6777,-162.8036 944.9725,-133.8999 1018.4955,-124.7908"/>
<polygon fill="#191970" stroke="#191970" points="622.8166,-170.2861 613.3228,-174.9892 623.6773,-177.233 622.8166,-170.2861"/>
</g>
<!-- Node65 -->
<g id="node22" class="node">
<title>Node65</title>
<g id="a_node22"><a xlink:href="levelset_8_h.html" target="_top" xlink:title="levelset.H">
<polygon fill="#ffffff" stroke="#000000" points="191.5214,-112.5 191.5214,-131.5 252.5214,-131.5 252.5214,-112.5 191.5214,-112.5"/>
<text text-anchor="middle" x="222.0214" y="-119.5" font-family="Helvetica,sans-Serif" font-size="10.00" fill="#000000">levelset.H</text>
</a>
</g>
</g>
<!-- Node59&#45;&gt;Node65 -->
<g id="edge42" class="edge">
<title>Node59&#45;&gt;Node65</title>
<path fill="none" stroke="#191970" d="M554.7295,-172.7675C483.553,-161.9067 320.7624,-137.0668 252.7589,-126.6902"/>
<polygon fill="#191970" stroke="#191970" points="554.5279,-176.2771 564.9415,-174.3257 555.5839,-169.3572 554.5279,-176.2771"/>
</g>
<!-- Node67 -->
<g id="node24" class="node">
<title>Node67</title>
<g id="a_node24"><a xlink:href="_s_d_r_8_h.html" target="_top" xlink:title="SDR.H">
<polygon fill="#ffffff" stroke="#000000" points="596.5214,-112.5 596.5214,-131.5 645.5214,-131.5 645.5214,-112.5 596.5214,-112.5"/>
<text text-anchor="middle" x="621.0214" y="-119.5" font-family="Helvetica,sans-Serif" font-size="10.00" fill="#000000">SDR.H</text>
</a>
</g>
</g>
<!-- Node59&#45;&gt;Node67 -->
<g id="edge46" class="edge">
<title>Node59&#45;&gt;Node67</title>
<path fill="none" stroke="#191970" d="M599.6858,-159.3372C604.9868,-150.0605 611.1701,-139.2398 615.5113,-131.6427"/>
<polygon fill="#191970" stroke="#191970" points="596.5179,-157.8266 594.5953,-168.2455 602.5956,-161.2996 596.5179,-157.8266"/>
</g>
<!-- Node68 -->
<g id="node25" class="node">
<title>Node68</title>
<g id="a_node25"><a xlink:href="temperature_8_h.html" target="_top" xlink:title="temperature.H">
<polygon fill="#ffffff" stroke="#000000" points="422.5214,-112.5 422.5214,-131.5 501.5214,-131.5 501.5214,-112.5 422.5214,-112.5"/>
<text text-anchor="middle" x="462.0214" y="-119.5" font-family="Helvetica,sans-Serif" font-size="10.00" fill="#000000">temperature.H</text>
</a>
</g>
</g>
<!-- Node59&#45;&gt;Node68 -->
<g id="edge48" class="edge">
<title>Node59&#45;&gt;Node68</title>
<path fill="none" stroke="#191970" d="M557.8322,-164.2473C534.7676,-154.0771 503.9501,-140.4883 483.5685,-131.5011"/>
<polygon fill="#191970" stroke="#191970" points="556.6272,-167.5411 567.1893,-168.3733 559.4514,-161.1361 556.6272,-167.5411"/>
</g>
<!-- Node69 -->
<g id="node26" class="node">
<title>Node69</title>
<g id="a_node26"><a xlink:href="_t_k_e_8_h.html" target="_top" xlink:title="TKE.H">
<polygon fill="#ffffff" stroke="#000000" points="357.5214,-112.5 357.5214,-131.5 404.5214,-131.5 404.5214,-112.5 357.5214,-112.5"/>
<text text-anchor="middle" x="381.0214" y="-119.5" font-family="Helvetica,sans-Serif" font-size="10.00" fill="#000000">TKE.H</text>
</a>
</g>
</g>
<!-- Node59&#45;&gt;Node69 -->
<g id="edge50" class="edge">
<title>Node59&#45;&gt;Node69</title>
<path fill="none" stroke="#191970" d="M555.1569,-169.6542C519.6234,-160.7791 462.2044,-146.1037 413.0214,-132 410.3358,-131.2299 407.5322,-130.397 404.7495,-129.5519"/>
<polygon fill="#191970" stroke="#191970" points="554.4617,-173.0879 565.011,-172.1068 556.1524,-166.2951 554.4617,-173.0879"/>
</g>
<!-- Node60&#45;&gt;Node46 -->
<g id="edge31" class="edge">
<title>Node60&#45;&gt;Node46</title>
<path fill="none" stroke="#191970" d="M29.8153,-106.6662C11.1016,-92.9432 -9.3823,-72.5033 5.0214,-56 24.8238,-33.311 227.0644,-17.5721 308.4076,-12.1144"/>
<polygon fill="#191970" stroke="#191970" points="27.9475,-109.6303 38.1573,-112.4605 31.9408,-103.8811 27.9475,-109.6303"/>
</g>
<!-- Node61 -->
<g id="node18" class="node">
<title>Node61</title>
<g id="a_node18"><a xlink:href="density__ops_8_h.html" target="_top" xlink:title="density_ops.H">
<polygon fill="#ffffff" stroke="#000000" points="14.0214,-56.5 14.0214,-75.5 94.0214,-75.5 94.0214,-56.5 14.0214,-56.5"/>
<text text-anchor="middle" x="54.0214" y="-63.5" font-family="Helvetica,sans-Serif" font-size="10.00" fill="#000000">density_ops.H</text>
</a>
</g>
</g>
<!-- Node60&#45;&gt;Node61 -->
<g id="edge32" class="edge">
<title>Node60&#45;&gt;Node61</title>
<path fill="none" stroke="#191970" d="M54.0214,-102.1575C54.0214,-93.155 54.0214,-82.9199 54.0214,-75.6427"/>
<polygon fill="#191970" stroke="#191970" points="50.5215,-102.2455 54.0214,-112.2455 57.5215,-102.2456 50.5215,-102.2455"/>
</g>
<!-- Node61&#45;&gt;Node46 -->
<g id="edge33" class="edge">
<title>Node61&#45;&gt;Node46</title>
<path fill="none" stroke="#191970" d="M104.2379,-55.7742C183.1556,-40.1655 263.9639,-24.7659 308.3551,-16.3569"/>
<polygon fill="#191970" stroke="#191970" points="103.2545,-52.4009 94.1254,-57.7775 104.6149,-59.2674 103.2545,-52.4009"/>
</g>
<!-- Node62&#45;&gt;Node47 -->
<g id="edge36" class="edge">
<title>Node62&#45;&gt;Node47</title>
<path fill="none" stroke="#191970" d="M1073.9092,-112.6035C1110.0116,-102.2885 1167.6458,-85.8216 1203.8575,-75.4754"/>
<polygon fill="#191970" stroke="#191970" points="1072.5423,-109.3539 1063.8886,-115.4665 1074.4654,-116.0845 1072.5423,-109.3539"/>
</g>
<!-- Node62&#45;&gt;Node48 -->
<g id="edge35" class="edge">
<title>Node62&#45;&gt;Node48</title>
<path fill="none" stroke="#191970" d="M1073.3653,-112.6904C1103.4913,-103.416 1145.4472,-88.7581 1157.0214,-76 1171.4423,-60.104 1174.9771,-33.9324 1175.8049,-19.7939"/>
<polygon fill="#191970" stroke="#191970" points="1072.2252,-109.3785 1063.6631,-115.6188 1074.2479,-116.0799 1072.2252,-109.3785"/>
</g>
<!-- Node62&#45;&gt;Node49 -->
<g id="edge37" class="edge">
<title>Node62&#45;&gt;Node49</title>
<path fill="none" stroke="#191970" d="M1021.4538,-105.645C1009.8016,-95.9058 995.4129,-83.8795 985.5581,-75.6427"/>
<polygon fill="#191970" stroke="#191970" points="1019.4334,-108.5179 1029.3508,-112.2455 1023.9226,-103.1469 1019.4334,-108.5179"/>
</g>
<!-- Node62&#45;&gt;Node57 -->
<g id="edge40" class="edge">
<title>Node62&#45;&gt;Node57</title>
<path fill="none" stroke="#191970" d="M1008.6881,-111.1577C977.9193,-100.84 932.0661,-85.4641 902.6036,-75.5845"/>
<polygon fill="#191970" stroke="#191970" points="1007.9051,-114.5866 1018.499,-114.4476 1010.1306,-107.9498 1007.9051,-114.5866"/>
</g>
<!-- Node62&#45;&gt;Node63 -->
<g id="edge38" class="edge">
<title>Node62&#45;&gt;Node63</title>
<path fill="none" stroke="#191970" d="M1073.9886,-115.6558C1126.6413,-105.5233 1229.7431,-85.6824 1288.4262,-74.3894"/>
<polygon fill="#191970" stroke="#191970" points="1073.014,-112.279 1063.8556,-117.6058 1074.3369,-119.1529 1073.014,-112.279"/>
</g>
<!-- Node64 -->
<g id="node21" class="node">
<title>Node64</title>
<g id="a_node21"><a xlink:href="_power_law_profile_8cpp.html" target="_top" xlink:title="PowerLawProfile.cpp">
<polygon fill="#ffffff" stroke="#000000" points="1038.5214,-56.5 1038.5214,-75.5 1147.5214,-75.5 1147.5214,-56.5 1038.5214,-56.5"/>
<text text-anchor="middle" x="1093.0214" y="-63.5" font-family="Helvetica,sans-Serif" font-size="10.00" fill="#000000">PowerLawProfile.cpp</text>
</a>
</g>
</g>
<!-- Node62&#45;&gt;Node64 -->
<g id="edge41" class="edge">
<title>Node62&#45;&gt;Node64</title>
<path fill="none" stroke="#191970" d="M1057.0036,-104.7884C1065.8992,-95.2085 1076.6417,-83.6396 1084.0674,-75.6427"/>
<polygon fill="#191970" stroke="#191970" points="1054.3188,-102.536 1050.0791,-112.2455 1059.4484,-107.2992 1054.3188,-102.536"/>
</g>
<!-- Node63&#45;&gt;Node48 -->
<g id="edge39" class="edge">
<title>Node63&#45;&gt;Node48</title>
<path fill="none" stroke="#191970" d="M1295.5929,-52.9231C1267.0753,-42.686 1228.0833,-28.6889 1202.4888,-19.5011"/>
<polygon fill="#191970" stroke="#191970" points="1294.6095,-56.2887 1305.204,-56.3733 1296.9746,-49.7004 1294.6095,-56.2887"/>
</g>
<!-- Node65&#45;&gt;Node51 -->
<g id="edge43" class="edge">
<title>Node65&#45;&gt;Node51</title>
<path fill="none" stroke="#191970" d="M222.6102,-102.3042C224.117,-87.5748 228.5566,-67.9867 241.0214,-56 243.8077,-53.3205 340.2243,-30.491 393.4911,-18.0339"/>
<polygon fill="#191970" stroke="#191970" points="219.1092,-102.2064 221.9453,-112.4145 226.0941,-102.6658 219.1092,-102.2064"/>
</g>
<!-- Node66 -->
<g id="node23" class="node">
<title>Node66</title>
<g id="a_node23"><a xlink:href="levelset__ops_8_h.html" target="_top" xlink:title="levelset_ops.H">
<polygon fill="#ffffff" stroke="#000000" points="112.0214,-56.5 112.0214,-75.5 194.0214,-75.5 194.0214,-56.5 112.0214,-56.5"/>
<text text-anchor="middle" x="153.0214" y="-63.5" font-family="Helvetica,sans-Serif" font-size="10.00" fill="#000000">levelset_ops.H</text>
</a>
</g>
</g>
<!-- Node65&#45;&gt;Node66 -->
<g id="edge44" class="edge">
<title>Node65&#45;&gt;Node66</title>
<path fill="none" stroke="#191970" d="M202.2184,-105.928C190.1578,-96.1397 175.15,-83.9595 164.9025,-75.6427"/>
<polygon fill="#191970" stroke="#191970" points="200.0323,-108.6614 210.0025,-112.2455 204.4435,-103.2262 200.0323,-108.6614"/>
</g>
<!-- Node66&#45;&gt;Node51 -->
<g id="edge45" class="edge">
<title>Node66&#45;&gt;Node51</title>
<path fill="none" stroke="#191970" d="M204.3114,-56.1969C251.1765,-47.1421 322.3574,-33.1445 384.0214,-20 387.086,-19.3467 390.2671,-18.6535 393.4536,-17.9487"/>
<polygon fill="#191970" stroke="#191970" points="203.5576,-52.7777 194.4013,-58.108 204.8831,-59.651 203.5576,-52.7777"/>
</g>
<!-- Node67&#45;&gt;Node52 -->
<g id="edge47" class="edge">
<title>Node67&#45;&gt;Node52</title>
<path fill="none" stroke="#191970" d="M627.304,-102.4538C630.2205,-93.3803 633.5571,-82.9998 635.9219,-75.6427"/>
<polygon fill="#191970" stroke="#191970" points="623.8848,-101.6542 624.1567,-112.2455 630.549,-103.7963 623.8848,-101.6542"/>
</g>
<!-- Node68&#45;&gt;Node53 -->
<g id="edge49" class="edge">
<title>Node68&#45;&gt;Node53</title>
<path fill="none" stroke="#191970" d="M485.6838,-106.769C501.1004,-96.8456 520.7473,-84.1994 534.0408,-75.6427"/>
<polygon fill="#191970" stroke="#191970" points="483.6899,-103.89 477.1756,-112.2455 487.4786,-109.7761 483.6899,-103.89"/>
</g>
<!-- Node69&#45;&gt;Node54 -->
<g id="edge51" class="edge">
<title>Node69&#45;&gt;Node54</title>
<path fill="none" stroke="#191970" d="M403.2969,-106.2097C417.1719,-96.3743 434.5729,-84.0394 446.4183,-75.6427"/>
<polygon fill="#191970" stroke="#191970" points="400.9163,-103.6071 394.7821,-112.2455 404.9644,-109.3178 400.9163,-103.6071"/>
</g>
<!-- Node70 -->
<g id="node27" class="node">
<title>Node70</title>
<g id="a_node27"><a xlink:href="_one_eq_ksgs_8cpp.html" target="_top" xlink:title="OneEqKsgs.cpp">
<polygon fill="#ffffff" stroke="#000000" points="250.0214,-56.5 250.0214,-75.5 338.0214,-75.5 338.0214,-56.5 250.0214,-56.5"/>
<text text-anchor="middle" x="294.0214" y="-63.5" font-family="Helvetica,sans-Serif" font-size="10.00" fill="#000000">OneEqKsgs.cpp</text>
</a>
</g>
</g>
<!-- Node69&#45;&gt;Node70 -->
<g id="edge52" class="edge">
<title>Node69&#45;&gt;Node70</title>
<path fill="none" stroke="#191970" d="M357.3589,-106.769C341.9423,-96.8456 322.2954,-84.1994 309.0019,-75.6427"/>
<polygon fill="#191970" stroke="#191970" points="355.5641,-109.7761 365.8671,-112.2455 359.3528,-103.89 355.5641,-109.7761"/>
</g>
<!-- Node71&#45;&gt;Node47 -->
<g id="edge57" class="edge">
<title>Node71&#45;&gt;Node47</title>
<path fill="none" stroke="#191970" d="M1160.0691,-214.2579C1159.424,-200.853 1159.9101,-182.9203 1165.0214,-168 1178.2279,-129.4491 1210.8674,-92.5105 1227.2753,-75.607"/>
<polygon fill="#191970" stroke="#191970" points="1156.5824,-214.5685 1160.8004,-224.2875 1163.5639,-214.0594 1156.5824,-214.5685"/>
</g>
<!-- Node71&#45;&gt;Node59 -->
<g id="edge55" class="edge">
<title>Node71&#45;&gt;Node59</title>
<path fill="none" stroke="#191970" d="M1109.8583,-228.902C990.06,-217.194 698.9718,-188.7456 613.191,-180.3621"/>
<polygon fill="#191970" stroke="#191970" points="1109.5942,-232.3928 1119.8873,-229.8822 1110.2752,-225.426 1109.5942,-232.3928"/>
</g>
<!-- Node71&#45;&gt;Node63 -->
<g id="edge58" class="edge">
<title>Node71&#45;&gt;Node63</title>
<path fill="none" stroke="#191970" d="M1213.845,-221.8586C1234.8689,-214.8181 1258.1252,-204.0641 1275.0214,-188 1292.5572,-171.3277 1319.0023,-101.8511 1328.4833,-75.8654"/>
<polygon fill="#191970" stroke="#191970" points="1212.5512,-218.5963 1204.0584,-224.9306 1214.6477,-225.275 1212.5512,-218.5963"/>
</g>
<!-- Node72 -->
<g id="node29" class="node">
<title>Node72</title>
<g id="a_node29"><a xlink:href="_diffusion_ops_8cpp.html" target="_top" xlink:title="DiffusionOps.cpp">
<polygon fill="#ffffff" stroke="#000000" points="1174.0214,-168.5 1174.0214,-187.5 1266.0214,-187.5 1266.0214,-168.5 1174.0214,-168.5"/>
<text text-anchor="middle" x="1220.0214" y="-175.5" font-family="Helvetica,sans-Serif" font-size="10.00" fill="#000000">DiffusionOps.cpp</text>
</a>
</g>
</g>
<!-- Node71&#45;&gt;Node72 -->
<g id="edge56" class="edge">
<title>Node71&#45;&gt;Node72</title>
<path fill="none" stroke="#191970" d="M1179.5507,-217.0751C1189.5297,-207.4402 1201.6689,-195.7196 1210.0343,-187.6427"/>
<polygon fill="#191970" stroke="#191970" points="1176.8871,-214.7817 1172.1242,-224.2455 1181.7493,-219.8175 1176.8871,-214.7817"/>
</g>
</g>
</svg>
        <g id="navigator" transform="translate(0 0)" fill="#404254">
                <rect fill="#f2f5e9" fill-opacity="0.5" stroke="#606060" stroke-width=".5" x="0" y="0" width="60" height="60"/>
                <use id="zoomplus" xlink:href="#zoomPlus" x="17" y="9" onmousedown="handleZoom(evt,'in')"/>
                <use id="zoomminus" xlink:href="#zoomMin" x="42" y="9" onmousedown="handleZoom(evt,'out')"/>
                <use id="reset" xlink:href="#resetDef" x="30" y="36" onmousedown="handleReset()"/>
                <g id="arrowUp" xlink:href="#dirArrow" transform="translate(30 24)" onmousedown="handlePan(0,-1)">
                  <use xlink:href="#rim" fill="#404040">
                        <set attributeName="fill" to="#808080" begin="arrowUp.mouseover" end="arrowUp.mouseout"/>
                  </use>
                  <path fill="none" stroke="white" stroke-width="1.5" d="M0,-3.0v7 M-2.5,-0.5L0,-3.0L2.5,-0.5"/>
                </g>
                <g id="arrowRight" xlink:href="#dirArrow" transform="rotate(90) translate(36 -43)" onmousedown="handlePan(1,0)">
                  <use xlink:href="#rim" fill="#404040">
                        <set attributeName="fill" to="#808080" begin="arrowRight.mouseover" end="arrowRight.mouseout"/>
                  </use>
                  <path fill="none" stroke="white" stroke-width="1.5" d="M0,-3.0v7 M-2.5,-0.5L0,-3.0L2.5,-0.5"/>
                </g>
                <g id="arrowDown" xlink:href="#dirArrow" transform="rotate(180) translate(-30 -48)" onmousedown="handlePan(0,1)">
                  <use xlink:href="#rim" fill="#404040">
                        <set attributeName="fill" to="#808080" begin="arrowDown.mouseover" end="arrowDown.mouseout"/>
                  </use>
                  <path fill="none" stroke="white" stroke-width="1.5" d="M0,-3.0v7 M-2.5,-0.5L0,-3.0L2.5,-0.5"/>
                </g>
                <g id="arrowLeft" xlink:href="#dirArrow" transform="rotate(270) translate(-36 17)" onmousedown="handlePan(-1,0)">
                  <use xlink:href="#rim" fill="#404040">
                        <set attributeName="fill" to="#808080" begin="arrowLeft.mouseover" end="arrowLeft.mouseout"/>
                  </use>
                  <path fill="none" stroke="white" stroke-width="1.5" d="M0,-3.0v7 M-2.5,-0.5L0,-3.0L2.5,-0.5"/>
                </g>
        </g>
        <svg viewBox="0 0 15 15" width="100%" height="30px" preserveAspectRatio="xMaxYMin meet">
         <g id="arrow_out" transform="scale(0.3 0.3)">
          <a xlink:href="_p_d_e_ops_8_h__dep__incl_org.svg" target="_base">
           <rect id="button" ry="5" rx="5" y="6" x="6" height="38" width="38"
                fill="#f2f5e9" fill-opacity="0.5" stroke="#606060" stroke-width="1.0"/>
           <path id="arrow"
             d="M 11.500037,31.436501 C 11.940474,20.09759 22.043105,11.32322 32.158766,21.979434 L 37.068811,17.246167 C 37.068811,17.246167 37.088388,32 37.088388,32 L 22.160133,31.978069 C 22.160133,31.978069 26.997745,27.140456 26.997745,27.140456 C 18.528582,18.264221 13.291696,25.230495 11.500037,31.436501 z"
             style="fill:#404040;"/>
          </a>
         </g>
        </svg>
</svg>
