<?xml version="1.0" encoding="UTF-8" standalone="no"?>
<!DOCTYPE svg PUBLIC "-//W3C//DTD SVG 1.1//EN"
 "http://www.w3.org/Graphics/SVG/1.1/DTD/svg11.dtd">
<!-- Generated by graphviz version 2.40.1 (20161225.0304)
 -->
<!-- Title: PDEHelpers.H Pages: 1 -->
<svg width="1409pt" height="364pt"
 viewBox="0.00 0.00 1408.50 364.00" xmlns="http://www.w3.org/2000/svg" xmlns:xlink="http://www.w3.org/1999/xlink">
<g id="graph0" class="graph" transform="scale(1 1) rotate(0) translate(4 360)">
<title>PDEHelpers.H</title>
<polygon fill="#ffffff" stroke="transparent" points="-4,4 -4,-360 1404.5,-360 1404.5,4 -4,4"/>
<!-- Node31 -->
<g id="node1" class="node">
<title>Node31</title>
<polygon fill="#bfbfbf" stroke="#000000" points="806,-336.5 806,-355.5 888,-355.5 888,-336.5 806,-336.5"/>
<text text-anchor="middle" x="847" y="-343.5" font-family="Helvetica,sans-Serif" font-size="10.00" fill="#000000">PDEHelpers.H</text>
</g>
<!-- Node32 -->
<g id="node2" class="node">
<title>Node32</title>
<g id="a_node2"><a xlink:href="_p_d_e_ops_8_h.html" target="_top" xlink:title="PDEOps.H">
<polygon fill="#ffffff" stroke="#000000" points="677,-280.5 677,-299.5 743,-299.5 743,-280.5 677,-280.5"/>
<text text-anchor="middle" x="710" y="-287.5" font-family="Helvetica,sans-Serif" font-size="10.00" fill="#000000">PDEOps.H</text>
</a>
</g>
</g>
<!-- Node31&#45;&gt;Node32 -->
<g id="edge1" class="edge">
<title>Node31&#45;&gt;Node32</title>
<path fill="none" stroke="#191970" d="M814.0194,-332.5189C789.0689,-322.3201 755.4266,-308.5685 733.2438,-299.5011"/>
<polygon fill="#191970" stroke="#191970" points="812.868,-335.8293 823.4489,-336.3733 815.5166,-329.3497 812.868,-335.8293"/>
</g>
<!-- Node35 -->
<g id="node5" class="node">
<title>Node35</title>
<g id="a_node5"><a xlink:href="icns__ops_8_h.html" target="_top" xlink:title="icns_ops.H">
<polygon fill="#ffffff" stroke="#000000" points="1063,-56.5 1063,-75.5 1129,-75.5 1129,-56.5 1063,-56.5"/>
<text text-anchor="middle" x="1096" y="-63.5" font-family="Helvetica,sans-Serif" font-size="10.00" fill="#000000">icns_ops.H</text>
</a>
</g>
</g>
<!-- Node31&#45;&gt;Node35 -->
<g id="edge65" class="edge">
<title>Node31&#45;&gt;Node35</title>
<path fill="none" stroke="#191970" d="M898.1694,-338.9184C955.6465,-327.7461 1041,-300.0378 1041,-234 1041,-234 1041,-234 1041,-178 1041,-147.3494 1047.0552,-139.2947 1061,-112 1068.0309,-98.2382 1079.2685,-84.3872 1087.1072,-75.5344"/>
<polygon fill="#191970" stroke="#191970" points="897.3473,-335.5107 888.1424,-340.7567 898.6097,-342.396 897.3473,-335.5107"/>
</g>
<!-- Node48 -->
<g id="node18" class="node">
<title>Node48</title>
<g id="a_node18"><a xlink:href="density_8_h.html" target="_top" xlink:title="density.H">
<polygon fill="#ffffff" stroke="#000000" points="99.5,-112.5 99.5,-131.5 158.5,-131.5 158.5,-112.5 99.5,-112.5"/>
<text text-anchor="middle" x="129" y="-119.5" font-family="Helvetica,sans-Serif" font-size="10.00" fill="#000000">density.H</text>
</a>
</g>
</g>
<!-- Node31&#45;&gt;Node48 -->
<g id="edge62" class="edge">
<title>Node31&#45;&gt;Node48</title>
<path fill="none" stroke="#191970" d="M795.8233,-341.2929C738.1866,-335.177 642.1092,-322.5187 562,-300 395.7293,-253.2612 207.1441,-161.4688 147.8554,-131.6233"/>
<polygon fill="#191970" stroke="#191970" points="795.47,-344.7749 805.7776,-342.3245 796.1916,-337.8122 795.47,-344.7749"/>
</g>
<!-- Node50 -->
<g id="node20" class="node">
<title>Node50</title>
<g id="a_node20"><a xlink:href="icns_8_h.html" target="_top" xlink:title="icns.H">
<polygon fill="#ffffff" stroke="#000000" points="1069.5,-112.5 1069.5,-131.5 1114.5,-131.5 1114.5,-112.5 1069.5,-112.5"/>
<text text-anchor="middle" x="1092" y="-119.5" font-family="Helvetica,sans-Serif" font-size="10.00" fill="#000000">icns.H</text>
</a>
</g>
</g>
<!-- Node31&#45;&gt;Node50 -->
<g id="edge64" class="edge">
<title>Node31&#45;&gt;Node50</title>
<path fill="none" stroke="#191970" d="M898.2344,-341.0191C952.5595,-334.6712 1033.4569,-321.8185 1055,-300 1102.014,-252.3849 1096.5353,-161.5615 1093.2632,-131.7476"/>
<polygon fill="#191970" stroke="#191970" points="897.6286,-337.5651 888.0849,-342.166 898.4147,-344.5209 897.6286,-337.5651"/>
</g>
<!-- Node51 -->
<g id="node21" class="node">
<title>Node51</title>
<g id="a_node21"><a xlink:href="icns__diffusion_8_h.html" target="_top" xlink:title="icns_diffusion.H">
<polygon fill="#ffffff" stroke="#000000" points="1313.5,-56.5 1313.5,-75.5 1400.5,-75.5 1400.5,-56.5 1313.5,-56.5"/>
<text text-anchor="middle" x="1357" y="-63.5" font-family="Helvetica,sans-Serif" font-size="10.00" fill="#000000">icns_diffusion.H</text>
</a>
</g>
</g>
<!-- Node31&#45;&gt;Node51 -->
<g id="edge66" class="edge">
<title>Node31&#45;&gt;Node51</title>
<path fill="none" stroke="#191970" d="M898.3951,-342.7749C1008.4538,-334.4588 1257,-307.5378 1257,-234 1257,-234 1257,-234 1257,-178 1257,-129.5152 1309.7893,-92.3608 1338.6585,-75.6672"/>
<polygon fill="#191970" stroke="#191970" points="897.9071,-339.3012 888.1896,-343.5225 898.4186,-346.2824 897.9071,-339.3012"/>
</g>
<!-- Node53 -->
<g id="node23" class="node">
<title>Node53</title>
<g id="a_node23"><a xlink:href="levelset_8_h.html" target="_top" xlink:title="levelset.H">
<polygon fill="#ffffff" stroke="#000000" points="719.5,-112.5 719.5,-131.5 780.5,-131.5 780.5,-112.5 719.5,-112.5"/>
<text text-anchor="middle" x="750" y="-119.5" font-family="Helvetica,sans-Serif" font-size="10.00" fill="#000000">levelset.H</text>
</a>
</g>
</g>
<!-- Node31&#45;&gt;Node53 -->
<g id="edge67" class="edge">
<title>Node31&#45;&gt;Node53</title>
<path fill="none" stroke="#191970" d="M842.3304,-326.3455C833.8513,-292.6205 814.0698,-222.1352 785,-168 777.6889,-154.385 766.5083,-140.5042 758.7593,-131.6043"/>
<polygon fill="#191970" stroke="#191970" points="838.9895,-327.4175 844.7698,-336.2967 845.7882,-325.7509 838.9895,-327.4175"/>
</g>
<!-- Node55 -->
<g id="node25" class="node">
<title>Node55</title>
<g id="a_node25"><a xlink:href="_s_d_r_8_h.html" target="_top" xlink:title="SDR.H">
<polygon fill="#ffffff" stroke="#000000" points="193.5,-112.5 193.5,-131.5 242.5,-131.5 242.5,-112.5 193.5,-112.5"/>
<text text-anchor="middle" x="218" y="-119.5" font-family="Helvetica,sans-Serif" font-size="10.00" fill="#000000">SDR.H</text>
</a>
</g>
</g>
<!-- Node31&#45;&gt;Node55 -->
<g id="edge69" class="edge">
<title>Node31&#45;&gt;Node55</title>
<path fill="none" stroke="#191970" d="M795.6277,-338.7C749.5004,-331.3943 680.2764,-318.5606 622,-300 467.1756,-250.6896 291.7195,-160.9787 235.9802,-131.5973"/>
<polygon fill="#191970" stroke="#191970" points="795.2636,-342.1854 805.6825,-340.2629 796.3387,-335.2684 795.2636,-342.1854"/>
</g>
<!-- Node56 -->
<g id="node26" class="node">
<title>Node56</title>
<g id="a_node26"><a xlink:href="temperature_8_h.html" target="_top" xlink:title="temperature.H">
<polygon fill="#ffffff" stroke="#000000" points="337.5,-112.5 337.5,-131.5 416.5,-131.5 416.5,-112.5 337.5,-112.5"/>
<text text-anchor="middle" x="377" y="-119.5" font-family="Helvetica,sans-Serif" font-size="10.00" fill="#000000">temperature.H</text>
</a>
</g>
</g>
<!-- Node31&#45;&gt;Node56 -->
<g id="edge70" class="edge">
<title>Node31&#45;&gt;Node56</title>
<path fill="none" stroke="#191970" d="M795.8528,-335.8847C759.5629,-327.9804 710.0344,-315.7065 668,-300 549.8352,-255.8467 426.8517,-161.9421 388.8708,-131.6418"/>
<polygon fill="#191970" stroke="#191970" points="795.209,-339.3261 805.7202,-337.9975 796.6746,-332.4812 795.209,-339.3261"/>
</g>
<!-- Node57 -->
<g id="node27" class="node">
<title>Node57</title>
<g id="a_node27"><a xlink:href="_t_k_e_8_h.html" target="_top" xlink:title="TKE.H">
<polygon fill="#ffffff" stroke="#000000" points="654.5,-112.5 654.5,-131.5 701.5,-131.5 701.5,-112.5 654.5,-112.5"/>
<text text-anchor="middle" x="678" y="-119.5" font-family="Helvetica,sans-Serif" font-size="10.00" fill="#000000">TKE.H</text>
</a>
</g>
</g>
<!-- Node31&#45;&gt;Node57 -->
<g id="edge71" class="edge">
<title>Node31&#45;&gt;Node57</title>
<path fill="none" stroke="#191970" d="M836.5777,-327.4219C817.3393,-293.88 773.9934,-221.7087 728,-168 716.1848,-154.2028 700.4909,-140.359 689.8605,-131.5176"/>
<polygon fill="#191970" stroke="#191970" points="833.5657,-329.2059 841.5495,-336.1708 839.6517,-325.7473 833.5657,-329.2059"/>
</g>
<!-- Node59 -->
<g id="node29" class="node">
<title>Node59</title>
<g id="a_node29"><a xlink:href="_diffusion_ops_8_h.html" target="_top" xlink:title="DiffusionOps.H">
<polygon fill="#ffffff" stroke="#000000" points="875,-224.5 875,-243.5 959,-243.5 959,-224.5 875,-224.5"/>
<text text-anchor="middle" x="917" y="-231.5" font-family="Helvetica,sans-Serif" font-size="10.00" fill="#000000">DiffusionOps.H</text>
</a>
</g>
</g>
<!-- Node31&#45;&gt;Node59 -->
<g id="edge63" class="edge">
<title>Node31&#45;&gt;Node59</title>
<path fill="none" stroke="#191970" d="M858.3171,-327.8927C873.3563,-303.8299 899.3842,-262.1853 911.0469,-243.5249"/>
<polygon fill="#191970" stroke="#191970" points="855.3002,-326.1159 852.9682,-336.4509 861.2362,-329.826 855.3002,-326.1159"/>
</g>
<!-- Node61 -->
<g id="node31" class="node">
<title>Node61</title>
<g id="a_node31"><a xlink:href="_p_d_e_base_8cpp.html" target="_top" xlink:title="PDEBase.cpp">
<polygon fill="#ffffff" stroke="#000000" points="1285.5,-280.5 1285.5,-299.5 1364.5,-299.5 1364.5,-280.5 1285.5,-280.5"/>
<text text-anchor="middle" x="1325" y="-287.5" font-family="Helvetica,sans-Serif" font-size="10.00" fill="#000000">PDEBase.cpp</text>
</a>
</g>
</g>
<!-- Node31&#45;&gt;Node61 -->
<g id="edge68" class="edge">
<title>Node31&#45;&gt;Node61</title>
<path fill="none" stroke="#191970" d="M898.3357,-341.6834C978.2361,-334.6829 1137.0864,-319.6353 1271,-300 1275.6224,-299.3222 1280.4537,-298.5376 1285.2445,-297.7117"/>
<polygon fill="#191970" stroke="#191970" points="897.7195,-338.2237 888.0605,-342.5774 898.3263,-345.1974 897.7195,-338.2237"/>
</g>
<!-- Node33 -->
<g id="node3" class="node">
<title>Node33</title>
<g id="a_node3"><a xlink:href="_adv_op___godunov_8_h.html" target="_top" xlink:title="AdvOp_Godunov.H">
<polygon fill="#ffffff" stroke="#000000" points="434.5,-112.5 434.5,-131.5 535.5,-131.5 535.5,-112.5 434.5,-112.5"/>
<text text-anchor="middle" x="485" y="-119.5" font-family="Helvetica,sans-Serif" font-size="10.00" fill="#000000">AdvOp_Godunov.H</text>
</a>
</g>
</g>
<!-- Node32&#45;&gt;Node33 -->
<g id="edge2" class="edge">
<title>Node32&#45;&gt;Node33</title>
<path fill="none" stroke="#191970" d="M706.2543,-270.585C700.0151,-243.5556 684.8892,-194.8866 653,-168 635.2558,-153.0394 578.3895,-139.4814 535.6967,-131.0228"/>
<polygon fill="#191970" stroke="#191970" points="702.8408,-271.3601 708.3477,-280.4113 709.6871,-269.9015 702.8408,-271.3601"/>
</g>
<!-- Node32&#45;&gt;Node35 -->
<g id="edge60" class="edge">
<title>Node32&#45;&gt;Node35</title>
<path fill="none" stroke="#191970" d="M728.7424,-273.0339C767.9011,-238.367 862.3767,-158.7453 954,-112 973.1592,-102.2252 1027.1782,-85.7854 1062.7923,-75.4343"/>
<polygon fill="#191970" stroke="#191970" points="725.9618,-270.8243 720.832,-280.0944 730.6231,-276.0466 725.9618,-270.8243"/>
</g>
<!-- Node43 -->
<g id="node13" class="node">
<title>Node43</title>
<g id="a_node13"><a xlink:href="_adv_op___m_o_l_8_h.html" target="_top" xlink:title="AdvOp_MOL.H">
<polygon fill="#ffffff" stroke="#000000" points="553.5,-112.5 553.5,-131.5 636.5,-131.5 636.5,-112.5 553.5,-112.5"/>
<text text-anchor="middle" x="595" y="-119.5" font-family="Helvetica,sans-Serif" font-size="10.00" fill="#000000">AdvOp_MOL.H</text>
</a>
</g>
</g>
<!-- Node32&#45;&gt;Node43 -->
<g id="edge13" class="edge">
<title>Node32&#45;&gt;Node43</title>
<path fill="none" stroke="#191970" d="M715.9286,-270.677C722.5953,-244.8582 729.9646,-198.7935 709,-168 699.7217,-154.3718 660.1203,-140.4386 630.1761,-131.5324"/>
<polygon fill="#191970" stroke="#191970" points="712.5325,-269.8253 713.1991,-280.3991 719.2719,-271.7175 712.5325,-269.8253"/>
</g>
<!-- Node44 -->
<g id="node14" class="node">
<title>Node44</title>
<g id="a_node14"><a xlink:href="_b_c_ops_8_h.html" target="_top" xlink:title="BCOps.H">
<polygon fill="#ffffff" stroke="#000000" points="260.5,-112.5 260.5,-131.5 319.5,-131.5 319.5,-112.5 260.5,-112.5"/>
<text text-anchor="middle" x="290" y="-119.5" font-family="Helvetica,sans-Serif" font-size="10.00" fill="#000000">BCOps.H</text>
</a>
</g>
</g>
<!-- Node32&#45;&gt;Node44 -->
<g id="edge21" class="edge">
<title>Node32&#45;&gt;Node44</title>
<path fill="none" stroke="#191970" d="M667.1243,-278.9247C635.9298,-270.45 592.8763,-257.8864 556,-244 460.6689,-208.1015 351.4987,-153.599 308.6439,-131.6543"/>
<polygon fill="#191970" stroke="#191970" points="666.247,-282.3131 676.8128,-281.5291 668.0642,-275.553 666.247,-282.3131"/>
</g>
<!-- Node46 -->
<g id="node16" class="node">
<title>Node46</title>
<g id="a_node16"><a xlink:href="_comp_r_h_s_ops_8_h.html" target="_top" xlink:title="CompRHSOps.H">
<polygon fill="#ffffff" stroke="#000000" points="573.5,-224.5 573.5,-243.5 666.5,-243.5 666.5,-224.5 573.5,-224.5"/>
<text text-anchor="middle" x="620" y="-231.5" font-family="Helvetica,sans-Serif" font-size="10.00" fill="#000000">CompRHSOps.H</text>
</a>
</g>
</g>
<!-- Node32&#45;&gt;Node46 -->
<g id="edge29" class="edge">
<title>Node32&#45;&gt;Node46</title>
<path fill="none" stroke="#191970" d="M685.5216,-274.769C669.5734,-264.8456 649.249,-252.1994 635.4972,-243.6427"/>
<polygon fill="#191970" stroke="#191970" points="683.9835,-277.9342 694.3232,-280.2455 687.6817,-271.9908 683.9835,-277.9342"/>
</g>
<!-- Node47 -->
<g id="node17" class="node">
<title>Node47</title>
<g id="a_node17"><a xlink:href="_p_d_e_8_h.html" target="_top" xlink:title="PDE.H">
<polygon fill="#ffffff" stroke="#000000" points="596,-168.5 596,-187.5 644,-187.5 644,-168.5 596,-168.5"/>
<text text-anchor="middle" x="620" y="-175.5" font-family="Helvetica,sans-Serif" font-size="10.00" fill="#000000">PDE.H</text>
</a>
</g>
</g>
<!-- Node32&#45;&gt;Node47 -->
<g id="edge54" class="edge">
<title>Node32&#45;&gt;Node47</title>
<path fill="none" stroke="#191970" d="M666.8993,-282.2261C628.4368,-274.3078 576.3354,-260.8197 564,-244 548.6256,-223.0365 579.6047,-200.2656 601.3089,-187.7037"/>
<polygon fill="#191970" stroke="#191970" points="666.3537,-285.6861 676.8457,-284.2138 667.7255,-278.8219 666.3537,-285.6861"/>
</g>
<!-- Node32&#45;&gt;Node51 -->
<g id="edge61" class="edge">
<title>Node32&#45;&gt;Node51</title>
<path fill="none" stroke="#191970" d="M753.4757,-285.8844C805.4707,-280.138 894.6754,-267.6481 968,-244 1097.0286,-202.3867 1118.9635,-166.7267 1243,-112 1273.2654,-98.6465 1308.6728,-84.6 1331.9005,-75.595"/>
<polygon fill="#191970" stroke="#191970" points="752.8466,-282.4317 743.2765,-286.9775 753.5926,-289.3918 752.8466,-282.4317"/>
</g>
<!-- Node32&#45;&gt;Node59 -->
<g id="edge55" class="edge">
<title>Node32&#45;&gt;Node59</title>
<path fill="none" stroke="#191970" d="M753.0511,-278.3533C791.1832,-268.0374 846.1693,-253.1619 881.746,-243.5373"/>
<polygon fill="#191970" stroke="#191970" points="751.9971,-275.0126 743.2581,-281.0026 753.8252,-281.7697 751.9971,-275.0126"/>
</g>
<!-- Node34 -->
<g id="node4" class="node">
<title>Node34</title>
<g id="a_node4"><a xlink:href="density_8cpp.html" target="_top" xlink:title="density.cpp">
<polygon fill="#ffffff" stroke="#000000" points="112.5,-.5 112.5,-19.5 179.5,-19.5 179.5,-.5 112.5,-.5"/>
<text text-anchor="middle" x="146" y="-7.5" font-family="Helvetica,sans-Serif" font-size="10.00" fill="#000000">density.cpp</text>
</a>
</g>
</g>
<!-- Node33&#45;&gt;Node34 -->
<g id="edge3" class="edge">
<title>Node33&#45;&gt;Node34</title>
<path fill="none" stroke="#191970" d="M465.7148,-106.2694C446.0844,-91.0734 414.1869,-68.5653 383,-56 313.9936,-28.1971 226.7426,-16.8346 179.7217,-12.4805"/>
<polygon fill="#191970" stroke="#191970" points="463.5639,-109.0306 473.5817,-112.4793 467.9011,-103.5361 463.5639,-109.0306"/>
</g>
<!-- Node33&#45;&gt;Node35 -->
<g id="edge4" class="edge">
<title>Node33&#45;&gt;Node35</title>
<path fill="none" stroke="#191970" d="M545.9673,-111.8662C771.4053,-85.7146 832.6831,-109.926 1054,-76 1056.8154,-75.5684 1059.7204,-75.0446 1062.6264,-74.4655"/>
<polygon fill="#191970" stroke="#191970" points="545.3238,-108.4178 535.8032,-113.0662 546.1446,-115.3695 545.3238,-108.4178"/>
</g>
<!-- Node37 -->
<g id="node7" class="node">
<title>Node37</title>
<g id="a_node7"><a xlink:href="icns__advection_8_h.html" target="_top" xlink:title="icns_advection.H">
<polygon fill="#ffffff" stroke="#000000" points="953,-56.5 953,-75.5 1045,-75.5 1045,-56.5 953,-56.5"/>
<text text-anchor="middle" x="999" y="-63.5" font-family="Helvetica,sans-Serif" font-size="10.00" fill="#000000">icns_advection.H</text>
</a>
</g>
</g>
<!-- Node33&#45;&gt;Node37 -->
<g id="edge6" class="edge">
<title>Node33&#45;&gt;Node37</title>
<path fill="none" stroke="#191970" d="M545.9784,-111.8252C722.7732,-89.4617 770.405,-99.5444 944,-76 946.8851,-75.6087 949.8494,-75.1718 952.8346,-74.7053"/>
<polygon fill="#191970" stroke="#191970" points="545.2847,-108.3854 535.811,-113.1288 546.1749,-115.3286 545.2847,-108.3854"/>
</g>
<!-- Node39 -->
<g id="node9" class="node">
<title>Node39</title>
<g id="a_node9"><a xlink:href="levelset_8cpp.html" target="_top" xlink:title="levelset.cpp">
<polygon fill="#ffffff" stroke="#000000" points="556.5,-.5 556.5,-19.5 625.5,-19.5 625.5,-.5 556.5,-.5"/>
<text text-anchor="middle" x="591" y="-7.5" font-family="Helvetica,sans-Serif" font-size="10.00" fill="#000000">levelset.cpp</text>
</a>
</g>
</g>
<!-- Node33&#45;&gt;Node39 -->
<g id="edge9" class="edge">
<title>Node33&#45;&gt;Node39</title>
<path fill="none" stroke="#191970" d="M469.6833,-104.402C459.4286,-90.3842 449.5564,-70.7359 460,-56 471.3593,-39.972 521.362,-25.7057 556.1931,-17.4557"/>
<polygon fill="#191970" stroke="#191970" points="466.9895,-106.6382 475.9395,-112.3082 472.4788,-102.2945 466.9895,-106.6382"/>
</g>
<!-- Node40 -->
<g id="node10" class="node">
<title>Node40</title>
<g id="a_node10"><a xlink:href="_s_d_r_8cpp.html" target="_top" xlink:title="SDR.cpp">
<polygon fill="#ffffff" stroke="#000000" points="212.5,-56.5 212.5,-75.5 269.5,-75.5 269.5,-56.5 212.5,-56.5"/>
<text text-anchor="middle" x="241" y="-63.5" font-family="Helvetica,sans-Serif" font-size="10.00" fill="#000000">SDR.cpp</text>
</a>
</g>
</g>
<!-- Node33&#45;&gt;Node40 -->
<g id="edge10" class="edge">
<title>Node33&#45;&gt;Node40</title>
<path fill="none" stroke="#191970" d="M429.2545,-110.328C387.4979,-101.4115 329.0228,-88.5573 278,-76 275.2863,-75.3321 272.4671,-74.6142 269.65,-73.8807"/>
<polygon fill="#191970" stroke="#191970" points="428.7192,-113.7924 439.2287,-112.4509 430.1764,-106.9457 428.7192,-113.7924"/>
</g>
<!-- Node41 -->
<g id="node11" class="node">
<title>Node41</title>
<g id="a_node11"><a xlink:href="temperature_8cpp.html" target="_top" xlink:title="temperature.cpp">
<polygon fill="#ffffff" stroke="#000000" points="287.5,-56.5 287.5,-75.5 374.5,-75.5 374.5,-56.5 287.5,-56.5"/>
<text text-anchor="middle" x="331" y="-63.5" font-family="Helvetica,sans-Serif" font-size="10.00" fill="#000000">temperature.cpp</text>
</a>
</g>
</g>
<!-- Node33&#45;&gt;Node41 -->
<g id="edge11" class="edge">
<title>Node33&#45;&gt;Node41</title>
<path fill="none" stroke="#191970" d="M449.0386,-108.9231C420.8866,-98.686 382.3945,-84.6889 357.1281,-75.5011"/>
<polygon fill="#191970" stroke="#191970" points="447.9324,-112.245 458.5265,-112.3733 450.3246,-105.6665 447.9324,-112.245"/>
</g>
<!-- Node42 -->
<g id="node12" class="node">
<title>Node42</title>
<g id="a_node12"><a xlink:href="_t_k_e_8cpp.html" target="_top" xlink:title="TKE.cpp">
<polygon fill="#ffffff" stroke="#000000" points="469.5,-56.5 469.5,-75.5 524.5,-75.5 524.5,-56.5 469.5,-56.5"/>
<text text-anchor="middle" x="497" y="-63.5" font-family="Helvetica,sans-Serif" font-size="10.00" fill="#000000">TKE.cpp</text>
</a>
</g>
</g>
<!-- Node33&#45;&gt;Node42 -->
<g id="edge12" class="edge">
<title>Node33&#45;&gt;Node42</title>
<path fill="none" stroke="#191970" d="M489.1885,-102.4538C491.1328,-93.3803 493.3572,-82.9998 494.9337,-75.6427"/>
<polygon fill="#191970" stroke="#191970" points="485.7633,-101.7341 487.0902,-112.2455 492.6079,-103.2009 485.7633,-101.7341"/>
</g>
<!-- Node36 -->
<g id="node6" class="node">
<title>Node36</title>
<g id="a_node6"><a xlink:href="icns_8cpp.html" target="_top" xlink:title="icns.cpp">
<polygon fill="#ffffff" stroke="#000000" points="1069.5,-.5 1069.5,-19.5 1122.5,-19.5 1122.5,-.5 1069.5,-.5"/>
<text text-anchor="middle" x="1096" y="-7.5" font-family="Helvetica,sans-Serif" font-size="10.00" fill="#000000">icns.cpp</text>
</a>
</g>
</g>
<!-- Node35&#45;&gt;Node36 -->
<g id="edge5" class="edge">
<title>Node35&#45;&gt;Node36</title>
<path fill="none" stroke="#191970" d="M1096,-46.1575C1096,-37.155 1096,-26.9199 1096,-19.6427"/>
<polygon fill="#191970" stroke="#191970" points="1092.5001,-46.2455 1096,-56.2455 1099.5001,-46.2456 1092.5001,-46.2455"/>
</g>
<!-- Node37&#45;&gt;Node36 -->
<g id="edge7" class="edge">
<title>Node37&#45;&gt;Node36</title>
<path fill="none" stroke="#191970" d="M1024.9016,-51.0465C1042.1609,-41.0824 1064.3376,-28.2794 1079.2975,-19.6427"/>
<polygon fill="#191970" stroke="#191970" points="1022.8065,-48.2146 1015.8961,-56.2455 1026.3064,-54.2768 1022.8065,-48.2146"/>
</g>
<!-- Node38 -->
<g id="node8" class="node">
<title>Node38</title>
<g id="a_node8"><a xlink:href="icns__advection_8cpp.html" target="_top" xlink:title="icns_advection.cpp">
<polygon fill="#ffffff" stroke="#000000" points="948.5,-.5 948.5,-19.5 1049.5,-19.5 1049.5,-.5 948.5,-.5"/>
<text text-anchor="middle" x="999" y="-7.5" font-family="Helvetica,sans-Serif" font-size="10.00" fill="#000000">icns_advection.cpp</text>
</a>
</g>
</g>
<!-- Node37&#45;&gt;Node38 -->
<g id="edge8" class="edge">
<title>Node37&#45;&gt;Node38</title>
<path fill="none" stroke="#191970" d="M999,-46.1575C999,-37.155 999,-26.9199 999,-19.6427"/>
<polygon fill="#191970" stroke="#191970" points="995.5001,-46.2455 999,-56.2455 1002.5001,-46.2456 995.5001,-46.2455"/>
</g>
<!-- Node43&#45;&gt;Node34 -->
<g id="edge14" class="edge">
<title>Node43&#45;&gt;Node34</title>
<path fill="none" stroke="#191970" d="M583.5687,-104.0556C572.6153,-88.5251 554.5867,-66.8968 533,-56 471.3908,-24.9002 262.2225,-14.1553 179.7898,-11.0733"/>
<polygon fill="#191970" stroke="#191970" points="580.681,-106.0335 589.1738,-112.3679 586.4848,-102.1199 580.681,-106.0335"/>
</g>
<!-- Node43&#45;&gt;Node35 -->
<g id="edge15" class="edge">
<title>Node43&#45;&gt;Node35</title>
<path fill="none" stroke="#191970" d="M646.7875,-111.8766C827.4148,-86.7433 877.1268,-104.6831 1054,-76 1056.8116,-75.5441 1059.7139,-75.0031 1062.618,-74.4125"/>
<polygon fill="#191970" stroke="#191970" points="646.0931,-108.4399 636.6829,-113.3082 647.075,-115.3707 646.0931,-108.4399"/>
</g>
<!-- Node43&#45;&gt;Node37 -->
<g id="edge16" class="edge">
<title>Node43&#45;&gt;Node37</title>
<path fill="none" stroke="#191970" d="M646.8,-111.806C778.9106,-91.0943 814.8823,-95.493 944,-76 946.8789,-75.5654 949.8384,-75.0953 952.82,-74.604"/>
<polygon fill="#191970" stroke="#191970" points="646.0261,-108.3849 636.6982,-113.4089 647.1232,-115.2984 646.0261,-108.3849"/>
</g>
<!-- Node43&#45;&gt;Node39 -->
<g id="edge17" class="edge">
<title>Node43&#45;&gt;Node39</title>
<path fill="none" stroke="#191970" d="M594.2954,-102.2702C593.4285,-77.9985 591.9919,-37.7725 591.3402,-19.5249"/>
<polygon fill="#191970" stroke="#191970" points="590.8042,-102.5823 594.659,-112.4509 597.7997,-102.3324 590.8042,-102.5823"/>
</g>
<!-- Node43&#45;&gt;Node40 -->
<g id="edge18" class="edge">
<title>Node43&#45;&gt;Node40</title>
<path fill="none" stroke="#191970" d="M543.0818,-111.944C424.523,-92.8792 391.7423,-98.967 278,-76 275.2606,-75.4469 272.4241,-74.806 269.5962,-74.1212"/>
<polygon fill="#191970" stroke="#191970" points="542.8541,-115.4532 553.2878,-113.6128 543.9837,-108.5449 542.8541,-115.4532"/>
</g>
<!-- Node43&#45;&gt;Node41 -->
<g id="edge19" class="edge">
<title>Node43&#45;&gt;Node41</title>
<path fill="none" stroke="#191970" d="M543.6768,-111.1133C494.6007,-100.7032 421.3903,-85.1737 374.9364,-75.3198"/>
<polygon fill="#191970" stroke="#191970" points="542.9509,-114.5371 553.4596,-113.1884 544.4035,-107.6895 542.9509,-114.5371"/>
</g>
<!-- Node43&#45;&gt;Node42 -->
<g id="edge20" class="edge">
<title>Node43&#45;&gt;Node42</title>
<path fill="none" stroke="#191970" d="M568.8314,-107.0465C551.3942,-97.0824 528.9889,-84.2794 513.8747,-75.6427"/>
<polygon fill="#191970" stroke="#191970" points="567.5108,-110.323 577.9297,-112.2455 570.9838,-104.2453 567.5108,-110.323"/>
</g>
<!-- Node44&#45;&gt;Node34 -->
<g id="edge22" class="edge">
<title>Node44&#45;&gt;Node34</title>
<path fill="none" stroke="#191970" d="M250.551,-110.7643C220.2309,-101.4363 181.6275,-87.8302 170,-76 154.6163,-60.3481 149.0007,-34.0773 147.0223,-19.8585"/>
<polygon fill="#191970" stroke="#191970" points="249.8803,-114.2177 260.465,-113.755 251.9019,-107.516 249.8803,-114.2177"/>
</g>
<!-- Node44&#45;&gt;Node39 -->
<g id="edge25" class="edge">
<title>Node44&#45;&gt;Node39</title>
<path fill="none" stroke="#191970" d="M250.9265,-109.5376C219.4785,-97.5214 183.4865,-77.9637 203,-56 226.315,-29.7575 465.6089,-15.8782 556.3595,-11.5264"/>
<polygon fill="#191970" stroke="#191970" points="249.88,-112.8813 260.4739,-113.019 252.278,-106.3049 249.88,-112.8813"/>
</g>
<!-- Node44&#45;&gt;Node40 -->
<g id="edge26" class="edge">
<title>Node44&#45;&gt;Node40</title>
<path fill="none" stroke="#191970" d="M274.6878,-104.5004C266.3553,-94.9775 256.3647,-83.5596 249.4373,-75.6427"/>
<polygon fill="#191970" stroke="#191970" points="272.2457,-107.0245 281.4649,-112.2455 277.5138,-102.415 272.2457,-107.0245"/>
</g>
<!-- Node44&#45;&gt;Node41 -->
<g id="edge27" class="edge">
<title>Node44&#45;&gt;Node41</title>
<path fill="none" stroke="#191970" d="M303.2364,-103.9209C310.1211,-94.5176 318.2609,-83.3997 323.9402,-75.6427"/>
<polygon fill="#191970" stroke="#191970" points="300.2251,-102.1093 297.1417,-112.2455 305.8731,-106.2445 300.2251,-102.1093"/>
</g>
<!-- Node44&#45;&gt;Node42 -->
<g id="edge28" class="edge">
<title>Node44&#45;&gt;Node42</title>
<path fill="none" stroke="#191970" d="M329.571,-111.2948C370.5412,-100.2111 433.4797,-83.1842 469.3816,-73.4717"/>
<polygon fill="#191970" stroke="#191970" points="328.397,-107.9865 319.6581,-113.9766 330.2251,-114.7436 328.397,-107.9865"/>
</g>
<!-- Node45 -->
<g id="node15" class="node">
<title>Node45</title>
<g id="a_node15"><a xlink:href="icns__bcop_8_h.html" target="_top" xlink:title="icns_bcop.H">
<polygon fill="#ffffff" stroke="#000000" points="863.5,-56.5 863.5,-75.5 934.5,-75.5 934.5,-56.5 863.5,-56.5"/>
<text text-anchor="middle" x="899" y="-63.5" font-family="Helvetica,sans-Serif" font-size="10.00" fill="#000000">icns_bcop.H</text>
</a>
</g>
</g>
<!-- Node44&#45;&gt;Node45 -->
<g id="edge23" class="edge">
<title>Node44&#45;&gt;Node45</title>
<path fill="none" stroke="#191970" d="M329.8234,-111.964C561.0392,-75.005 625.3679,-109.0362 854,-76 857.0099,-75.5651 860.1178,-75.0389 863.2282,-74.4583"/>
<polygon fill="#191970" stroke="#191970" points="329.0646,-108.5413 319.7559,-113.6009 330.188,-115.4506 329.0646,-108.5413"/>
</g>
<!-- Node45&#45;&gt;Node36 -->
<g id="edge24" class="edge">
<title>Node45&#45;&gt;Node36</title>
<path fill="none" stroke="#191970" d="M942.8191,-53.5438C981.5253,-42.541 1036.7218,-26.8507 1069.2066,-17.6164"/>
<polygon fill="#191970" stroke="#191970" points="941.5274,-50.2723 932.8655,-56.3733 943.4415,-57.0055 941.5274,-50.2723"/>
</g>
<!-- Node46&#45;&gt;Node47 -->
<g id="edge30" class="edge">
<title>Node46&#45;&gt;Node47</title>
<path fill="none" stroke="#191970" d="M620,-214.1575C620,-205.155 620,-194.9199 620,-187.6427"/>
<polygon fill="#191970" stroke="#191970" points="616.5001,-214.2455 620,-224.2455 623.5001,-214.2456 616.5001,-214.2455"/>
</g>
<!-- Node47&#45;&gt;Node48 -->
<g id="edge31" class="edge">
<title>Node47&#45;&gt;Node48</title>
<path fill="none" stroke="#191970" d="M585.7201,-175.261C512.0045,-169.1785 333.0089,-153.3763 184,-132 175.7381,-130.8148 166.8203,-129.2973 158.6195,-127.8046"/>
<polygon fill="#191970" stroke="#191970" points="585.5639,-178.7598 595.8162,-176.0874 586.1351,-171.7832 585.5639,-178.7598"/>
</g>
<!-- Node47&#45;&gt;Node50 -->
<g id="edge35" class="edge">
<title>Node47&#45;&gt;Node50</title>
<path fill="none" stroke="#191970" d="M654.1372,-173.9498C745.3829,-163.1241 993.1618,-133.7266 1069.3823,-124.6835"/>
<polygon fill="#191970" stroke="#191970" points="653.5734,-170.4921 644.0555,-175.146 654.3982,-177.4433 653.5734,-170.4921"/>
</g>
<!-- Node47&#45;&gt;Node53 -->
<g id="edge43" class="edge">
<title>Node47&#45;&gt;Node53</title>
<path fill="none" stroke="#191970" d="M651.6102,-164.3833C675.2535,-154.1985 706.9876,-140.5284 727.9438,-131.5011"/>
<polygon fill="#191970" stroke="#191970" points="650.1472,-161.2025 642.3478,-168.3733 652.9166,-167.6314 650.1472,-161.2025"/>
</g>
<!-- Node47&#45;&gt;Node55 -->
<g id="edge47" class="edge">
<title>Node47&#45;&gt;Node55</title>
<path fill="none" stroke="#191970" d="M585.3815,-175.66C519.6397,-170.7816 372.4377,-157.7728 251,-132 248.3062,-131.4283 245.5151,-130.7392 242.7484,-129.9933"/>
<polygon fill="#191970" stroke="#191970" points="585.3581,-179.1674 595.5851,-176.4 585.8645,-172.1857 585.3581,-179.1674"/>
</g>
<!-- Node47&#45;&gt;Node56 -->
<g id="edge49" class="edge">
<title>Node47&#45;&gt;Node56</title>
<path fill="none" stroke="#191970" d="M586.0611,-170.1787C541.6073,-159.9342 463.7974,-142.0027 416.672,-131.1425"/>
<polygon fill="#191970" stroke="#191970" points="585.2812,-173.5906 595.8118,-172.4258 586.8533,-166.7694 585.2812,-173.5906"/>
</g>
<!-- Node47&#45;&gt;Node57 -->
<g id="edge51" class="edge">
<title>Node47&#45;&gt;Node57</title>
<path fill="none" stroke="#191970" d="M637.5293,-161.0751C647.5083,-151.4402 659.6476,-139.7196 668.0129,-131.6427"/>
<polygon fill="#191970" stroke="#191970" points="634.8658,-158.7817 630.1028,-168.2455 639.728,-163.8175 634.8658,-158.7817"/>
</g>
<!-- Node48&#45;&gt;Node34 -->
<g id="edge32" class="edge">
<title>Node48&#45;&gt;Node34</title>
<path fill="none" stroke="#191970" d="M128.6175,-101.8086C128.6874,-88.6704 129.3819,-71.2127 132,-56 134.2087,-43.1661 138.9243,-28.892 142.2713,-19.6986"/>
<polygon fill="#191970" stroke="#191970" points="125.1192,-102.1003 128.6843,-112.0773 132.1191,-102.0548 125.1192,-102.1003"/>
</g>
<!-- Node49 -->
<g id="node19" class="node">
<title>Node49</title>
<g id="a_node19"><a xlink:href="density__ops_8_h.html" target="_top" xlink:title="density_ops.H">
<polygon fill="#ffffff" stroke="#000000" points="0,-56.5 0,-75.5 80,-75.5 80,-56.5 0,-56.5"/>
<text text-anchor="middle" x="40" y="-63.5" font-family="Helvetica,sans-Serif" font-size="10.00" fill="#000000">density_ops.H</text>
</a>
</g>
</g>
<!-- Node48&#45;&gt;Node49 -->
<g id="edge33" class="edge">
<title>Node48&#45;&gt;Node49</title>
<path fill="none" stroke="#191970" d="M104.7936,-106.769C89.0225,-96.8456 68.924,-84.1994 55.325,-75.6427"/>
<polygon fill="#191970" stroke="#191970" points="103.1695,-109.8823 113.4974,-112.2455 106.8974,-103.9575 103.1695,-109.8823"/>
</g>
<!-- Node49&#45;&gt;Node34 -->
<g id="edge34" class="edge">
<title>Node49&#45;&gt;Node34</title>
<path fill="none" stroke="#191970" d="M67.5222,-51.46C86.4908,-41.4388 111.1727,-28.3993 127.7478,-19.6427"/>
<polygon fill="#191970" stroke="#191970" points="65.6708,-48.4796 58.4638,-56.2455 68.9407,-54.669 65.6708,-48.4796"/>
</g>
<!-- Node50&#45;&gt;Node35 -->
<g id="edge37" class="edge">
<title>Node50&#45;&gt;Node35</title>
<path fill="none" stroke="#191970" d="M1093.4173,-102.1575C1094.0604,-93.155 1094.7914,-82.9199 1095.3112,-75.6427"/>
<polygon fill="#191970" stroke="#191970" points="1089.9182,-102.0216 1092.6967,-112.2455 1096.9004,-102.5204 1089.9182,-102.0216"/>
</g>
<!-- Node50&#45;&gt;Node36 -->
<g id="edge36" class="edge">
<title>Node50&#45;&gt;Node36</title>
<path fill="none" stroke="#191970" d="M1124.5821,-113.1805C1126.0751,-112.7806 1127.5533,-112.3856 1129,-112 1189.8325,-95.787 1227.5542,-125.8535 1266,-76 1304.5716,-25.9834 1179.7841,-13.8403 1122.8233,-10.9166"/>
<polygon fill="#191970" stroke="#191970" points="1123.4394,-109.8633 1114.6914,-115.8403 1125.2573,-116.6232 1123.4394,-109.8633"/>
</g>
<!-- Node50&#45;&gt;Node37 -->
<g id="edge38" class="edge">
<title>Node50&#45;&gt;Node37</title>
<path fill="none" stroke="#191970" d="M1067.1665,-107.0465C1050.6189,-97.0824 1029.3568,-84.2794 1015.0137,-75.6427"/>
<polygon fill="#191970" stroke="#191970" points="1065.4283,-110.0854 1075.8006,-112.2455 1069.0393,-104.0886 1065.4283,-110.0854"/>
</g>
<!-- Node50&#45;&gt;Node45 -->
<g id="edge41" class="edge">
<title>Node50&#45;&gt;Node45</title>
<path fill="none" stroke="#191970" d="M1059.6464,-112.6124C1024.2127,-102.3311 967.6884,-85.9303 932.0005,-75.5753"/>
<polygon fill="#191970" stroke="#191970" points="1058.9035,-116.0412 1069.4827,-115.4665 1060.8542,-109.3184 1058.9035,-116.0412"/>
</g>
<!-- Node50&#45;&gt;Node51 -->
<g id="edge39" class="edge">
<title>Node50&#45;&gt;Node51</title>
<path fill="none" stroke="#191970" d="M1124.5558,-113.0756C1126.0559,-112.7039 1127.5428,-112.3435 1129,-112 1192.6716,-96.9894 1267.0618,-82.5558 1313.1075,-73.98"/>
<polygon fill="#191970" stroke="#191970" points="1123.4489,-109.7464 1114.6391,-115.6318 1125.1962,-116.5248 1123.4489,-109.7464"/>
</g>
<!-- Node52 -->
<g id="node22" class="node">
<title>Node52</title>
<g id="a_node22"><a xlink:href="_power_law_profile_8cpp.html" target="_top" xlink:title="PowerLawProfile.cpp">
<polygon fill="#ffffff" stroke="#000000" points="1147.5,-56.5 1147.5,-75.5 1256.5,-75.5 1256.5,-56.5 1147.5,-56.5"/>
<text text-anchor="middle" x="1202" y="-63.5" font-family="Helvetica,sans-Serif" font-size="10.00" fill="#000000">PowerLawProfile.cpp</text>
</a>
</g>
</g>
<!-- Node50&#45;&gt;Node52 -->
<g id="edge42" class="edge">
<title>Node50&#45;&gt;Node52</title>
<path fill="none" stroke="#191970" d="M1120.2914,-107.5971C1140.0111,-97.558 1165.78,-84.4393 1183.059,-75.6427"/>
<polygon fill="#191970" stroke="#191970" points="1118.4843,-104.5896 1111.1605,-112.2455 1121.6601,-110.8277 1118.4843,-104.5896"/>
</g>
<!-- Node51&#45;&gt;Node36 -->
<g id="edge40" class="edge">
<title>Node51&#45;&gt;Node36</title>
<path fill="none" stroke="#191970" d="M1303.3857,-54.4965C1248.3574,-42.6897 1164.9812,-24.8006 1122.6623,-15.7206"/>
<polygon fill="#191970" stroke="#191970" points="1302.8027,-57.951 1313.3145,-56.6269 1304.2713,-51.1068 1302.8027,-57.951"/>
</g>
<!-- Node53&#45;&gt;Node39 -->
<g id="edge44" class="edge">
<title>Node53&#45;&gt;Node39</title>
<path fill="none" stroke="#191970" d="M744.2479,-102.4695C739.0317,-87.8656 729.9882,-68.3645 716,-56 690.4443,-33.4108 652.8408,-21.5813 625.5565,-15.6117"/>
<polygon fill="#191970" stroke="#191970" points="740.9511,-103.6488 747.3857,-112.0658 747.6045,-101.4732 740.9511,-103.6488"/>
</g>
<!-- Node54 -->
<g id="node24" class="node">
<title>Node54</title>
<g id="a_node24"><a xlink:href="levelset__ops_8_h.html" target="_top" xlink:title="levelset_ops.H">
<polygon fill="#ffffff" stroke="#000000" points="763,-56.5 763,-75.5 845,-75.5 845,-56.5 763,-56.5"/>
<text text-anchor="middle" x="804" y="-63.5" font-family="Helvetica,sans-Serif" font-size="10.00" fill="#000000">levelset_ops.H</text>
</a>
</g>
</g>
<!-- Node53&#45;&gt;Node54 -->
<g id="edge45" class="edge">
<title>Node53&#45;&gt;Node54</title>
<path fill="none" stroke="#191970" d="M766.5969,-104.7884C775.8347,-95.2085 786.9904,-83.6396 794.7017,-75.6427"/>
<polygon fill="#191970" stroke="#191970" points="763.828,-102.6176 759.4061,-112.2455 768.8669,-107.4766 763.828,-102.6176"/>
</g>
<!-- Node54&#45;&gt;Node39 -->
<g id="edge46" class="edge">
<title>Node54&#45;&gt;Node39</title>
<path fill="none" stroke="#191970" d="M757.67,-53.8193C717.9659,-43.3807 661.6555,-28.5761 625.7278,-19.1303"/>
<polygon fill="#191970" stroke="#191970" points="756.8227,-57.2155 767.384,-56.3733 758.6026,-50.4455 756.8227,-57.2155"/>
</g>
<!-- Node55&#45;&gt;Node40 -->
<g id="edge48" class="edge">
<title>Node55&#45;&gt;Node40</title>
<path fill="none" stroke="#191970" d="M225.9066,-102.7493C229.6617,-93.6064 233.9851,-83.0798 237.0396,-75.6427"/>
<polygon fill="#191970" stroke="#191970" points="222.568,-101.6656 222.0063,-112.2455 229.0431,-104.3251 222.568,-101.6656"/>
</g>
<!-- Node56&#45;&gt;Node41 -->
<g id="edge50" class="edge">
<title>Node56&#45;&gt;Node41</title>
<path fill="none" stroke="#191970" d="M362.6253,-104.5004C354.8029,-94.9775 345.424,-83.5596 338.9208,-75.6427"/>
<polygon fill="#191970" stroke="#191970" points="359.9354,-106.7399 368.9874,-112.2455 365.3445,-102.2967 359.9354,-106.7399"/>
</g>
<!-- Node57&#45;&gt;Node42 -->
<g id="edge52" class="edge">
<title>Node57&#45;&gt;Node42</title>
<path fill="none" stroke="#191970" d="M644.6958,-111.6959C610.1478,-101.0071 556.757,-84.4884 524.5177,-74.5138"/>
<polygon fill="#191970" stroke="#191970" points="643.7497,-115.0668 654.3374,-114.679 645.8187,-108.3796 643.7497,-115.0668"/>
</g>
<!-- Node58 -->
<g id="node28" class="node">
<title>Node58</title>
<g id="a_node28"><a xlink:href="_one_eq_ksgs_8cpp.html" target="_top" xlink:title="OneEqKsgs.cpp">
<polygon fill="#ffffff" stroke="#000000" points="619,-56.5 619,-75.5 707,-75.5 707,-56.5 619,-56.5"/>
<text text-anchor="middle" x="663" y="-63.5" font-family="Helvetica,sans-Serif" font-size="10.00" fill="#000000">OneEqKsgs.cpp</text>
</a>
</g>
</g>
<!-- Node57&#45;&gt;Node58 -->
<g id="edge53" class="edge">
<title>Node57&#45;&gt;Node58</title>
<path fill="none" stroke="#191970" d="M672.7644,-102.4538C670.334,-93.3803 667.5535,-82.9998 665.5829,-75.6427"/>
<polygon fill="#191970" stroke="#191970" points="669.4189,-103.4917 675.3872,-112.2455 676.1806,-101.6805 669.4189,-103.4917"/>
</g>
<!-- Node59&#45;&gt;Node35 -->
<g id="edge58" class="edge">
<title>Node59&#45;&gt;Node35</title>
<path fill="none" stroke="#191970" d="M909.9692,-214.7107C906.1573,-200.7874 903.7276,-182.0442 912,-168 930.0273,-137.3947 1026.8744,-94.4162 1072.366,-75.5327"/>
<polygon fill="#191970" stroke="#191970" points="906.6388,-215.7876 912.9992,-224.2608 913.311,-213.6706 906.6388,-215.7876"/>
</g>
<!-- Node59&#45;&gt;Node47 -->
<g id="edge56" class="edge">
<title>Node59&#45;&gt;Node47</title>
<path fill="none" stroke="#191970" d="M864.7497,-224.1481C799.9672,-211.9332 692.2482,-191.6225 644.3038,-182.5825"/>
<polygon fill="#191970" stroke="#191970" points="864.2872,-227.6225 874.7626,-226.036 865.5842,-220.7437 864.2872,-227.6225"/>
</g>
<!-- Node59&#45;&gt;Node51 -->
<g id="edge59" class="edge">
<title>Node59&#45;&gt;Node51</title>
<path fill="none" stroke="#191970" d="M949.5226,-220.446C970.3987,-211.5756 997.9959,-199.5314 1022,-188 1054.7924,-172.2467 1132.954,-124.8209 1167,-112 1215.7541,-93.6403 1274.3524,-80.7594 1313.4608,-73.388"/>
<polygon fill="#191970" stroke="#191970" points="947.9993,-217.29 940.1508,-224.407 950.7245,-223.7377 947.9993,-217.29"/>
</g>
<!-- Node60 -->
<g id="node30" class="node">
<title>Node60</title>
<g id="a_node30"><a xlink:href="_diffusion_ops_8cpp.html" target="_top" xlink:title="DiffusionOps.cpp">
<polygon fill="#ffffff" stroke="#000000" points="921,-168.5 921,-187.5 1013,-187.5 1013,-168.5 921,-168.5"/>
<text text-anchor="middle" x="967" y="-175.5" font-family="Helvetica,sans-Serif" font-size="10.00" fill="#000000">DiffusionOps.cpp</text>
</a>
</g>
</g>
<!-- Node59&#45;&gt;Node60 -->
<g id="edge57" class="edge">
<title>Node59&#45;&gt;Node60</title>
<path fill="none" stroke="#191970" d="M932.6247,-216.5004C941.1273,-206.9775 951.3218,-195.5596 958.3905,-187.6427"/>
<polygon fill="#191970" stroke="#191970" points="929.7587,-214.4551 925.7093,-224.2455 934.9803,-219.1172 929.7587,-214.4551"/>
</g>
</g>
</svg>
