<?xml version="1.0" encoding="UTF-8" standalone="no"?>
<!DOCTYPE svg PUBLIC "-//W3C//DTD SVG 1.1//EN"
 "http://www.w3.org/Graphics/SVG/1.1/DTD/svg11.dtd">
<!-- Generated by graphviz version 2.40.1 (20161225.0304)
 -->
<!-- Title: PDEHelpers.H Pages: 1 -->
<!--zoomable 263 -->
<svg id="main" version="1.1" xmlns="http://www.w3.org/2000/svg" xmlns:xlink="http://www.w3.org/1999/xlink" xml:space="preserve" onload="init(evt)">
<style type="text/css"><![CDATA[
.edge:hover path { stroke: red; }
.edge:hover polygon { stroke: red; fill: red; }
]]></style>
<script type="text/javascript"><![CDATA[
var edges = document.getElementsByTagName('g');
if (edges && edges.length) {
  for (var i=0;i<edges.length;i++) {
    if (edges[i].id.substr(0,4)=='edge') {
      edges[i].setAttribute('class','edge');
    }
  }
}
]]></script>
        <defs>
                <circle id="rim" cx="0" cy="0" r="7"/>
                <circle id="rim2" cx="0" cy="0" r="3.5"/>
                <g id="zoomPlus">
                        <use xlink:href="#rim" fill="#404040">
                                <set attributeName="fill" to="#808080" begin="zoomplus.mouseover" end="zoomplus.mouseout"/>
                        </use>
                        <path d="M-4,0h8M0,-4v8" fill="none" stroke="white" stroke-width="1.5" pointer-events="none"/>
                </g>
                <g id="zoomMin">
                        <use xlink:href="#rim" fill="#404040">
                                <set attributeName="fill" to="#808080" begin="zoomminus.mouseover" end="zoomminus.mouseout"/>
                        </use>
                        <path d="M-4,0h8" fill="none" stroke="white" stroke-width="1.5" pointer-events="none"/>
                </g>
                <g id="dirArrow">
                        <path fill="none" stroke="white" stroke-width="1.5" d="M0,-3.0v7 M-2.5,-0.5L0,-3.0L2.5,-0.5"/>
                </g>
               <g id="resetDef">
                       <use xlink:href="#rim2" fill="#404040">
                               <set attributeName="fill" to="#808080" begin="reset.mouseover" end="reset.mouseout"/>
                       </use>
               </g>
        </defs>

<script type="text/javascript">
var viewWidth = 2142;
var viewHeight = 263;
var sectionId = 'dynsection-0';
</script>
<script xlink:href="svgpan.js"/>
<svg id="graph" class="graph">
<g id="viewport">
<title>PDEHelpers.H</title>
<polygon fill="#ffffff" stroke="transparent" points="-4,4 -4,-259 2138.3596,-259 2138.3596,4 -4,4"/>
<!-- Node0 -->
<g id="node1" class="node">
<title>Node0</title>
<polygon fill="#bfbfbf" stroke="#000000" points="1400.3596,-235.5 1400.3596,-254.5 1482.3596,-254.5 1482.3596,-235.5 1400.3596,-235.5"/>
<text text-anchor="middle" x="1441.3596" y="-242.5" font-family="Helvetica,sans-Serif" font-size="10.00" fill="#000000">PDEHelpers.H</text>
</g>
<!-- Node1 -->
<g id="node2" class="node">
<title>Node1</title>
<polygon fill="#ffffff" stroke="#bfbfbf" points="117.8596,-.5 117.8596,-19.5 158.8596,-19.5 158.8596,-.5 117.8596,-.5"/>
<text text-anchor="middle" x="138.3596" y="-7.5" font-family="Helvetica,sans-Serif" font-size="10.00" fill="#000000">string</text>
</g>
<!-- Node0&#45;&gt;Node1 -->
<g id="edge1" class="edge">
<title>Node0&#45;&gt;Node1</title>
<path fill="none" stroke="#191970" d="M1400.1954,-244.0836C1271.041,-240.9621 862.3681,-229.2101 525.3596,-199 294.1467,-178.2737 160.6181,-306.3583 7.3596,-132 -6.1625,-116.6163 .8344,-78.5516 20.3596,-56 42.4673,-30.4655 80.5293,-19.0123 107.4396,-13.9353"/>
<polygon fill="#191970" stroke="#191970" points="108.2272,-17.3518 117.5031,-12.2325 107.0593,-10.4499 108.2272,-17.3518"/>
</g>
<!-- Node2 -->
<g id="node3" class="node">
<title>Node2</title>
<g id="a_node3"><a xlink:href="_p_d_e_fields_8_h.html" target="_top" xlink:title="amr&#45;wind/equation_systems\l/PDEFields.H">
<polygon fill="#ffffff" stroke="#000000" points="1910.8596,-168.5 1910.8596,-198.5 2049.8596,-198.5 2049.8596,-168.5 1910.8596,-168.5"/>
<text text-anchor="start" x="1918.8596" y="-186.5" font-family="Helvetica,sans-Serif" font-size="10.00" fill="#000000">amr&#45;wind/equation_systems</text>
<text text-anchor="middle" x="1980.3596" y="-175.5" font-family="Helvetica,sans-Serif" font-size="10.00" fill="#000000">/PDEFields.H</text>
</a>
</g>
</g>
<!-- Node0&#45;&gt;Node2 -->
<g id="edge2" class="edge">
<title>Node0&#45;&gt;Node2</title>
<path fill="none" stroke="#191970" d="M1482.759,-240.2763C1572.0138,-230.0923 1783.878,-205.9186 1900.304,-192.6344"/>
<polygon fill="#191970" stroke="#191970" points="1901.04,-196.0732 1910.5787,-191.462 1900.2464,-189.1183 1901.04,-196.0732"/>
</g>
<!-- Node4 -->
<g id="node5" class="node">
<title>Node4</title>
<g id="a_node5"><a xlink:href="_sim_time_8_h.html" target="_top" xlink:title="amr&#45;wind/core/SimTime.H">
<polygon fill="#ffffff" stroke="#000000" points="1894.8596,-112.5 1894.8596,-131.5 2025.8596,-131.5 2025.8596,-112.5 1894.8596,-112.5"/>
<text text-anchor="middle" x="1960.3596" y="-119.5" font-family="Helvetica,sans-Serif" font-size="10.00" fill="#000000">amr&#45;wind/core/SimTime.H</text>
</a>
</g>
</g>
<!-- Node0&#45;&gt;Node4 -->
<g id="edge4" class="edge">
<title>Node0&#45;&gt;Node4</title>
<path fill="none" stroke="#191970" d="M1481.6528,-235.4507C1575.3475,-213.2456 1807.6768,-158.1849 1910.2832,-133.8678"/>
<polygon fill="#191970" stroke="#191970" points="1911.1687,-137.255 1920.0921,-131.5432 1909.5544,-130.4436 1911.1687,-137.255"/>
</g>
<!-- Node8 -->
<g id="node9" class="node">
<title>Node8</title>
<g id="a_node9"><a xlink:href="_field_repo_8_h.html" target="_top" xlink:title="amr&#45;wind/core/FieldRepo.H">
<polygon fill="#ffffff" stroke="#000000" points="534.3596,-174 534.3596,-193 670.3596,-193 670.3596,-174 534.3596,-174"/>
<text text-anchor="middle" x="602.3596" y="-181" font-family="Helvetica,sans-Serif" font-size="10.00" fill="#000000">amr&#45;wind/core/FieldRepo.H</text>
</a>
</g>
</g>
<!-- Node0&#45;&gt;Node8 -->
<g id="edge8" class="edge">
<title>Node0&#45;&gt;Node8</title>
<path fill="none" stroke="#191970" d="M1400.3249,-241.9921C1268.5552,-232.3332 854.6339,-201.9921 680.6334,-189.2376"/>
<polygon fill="#191970" stroke="#191970" points="680.7538,-185.7371 670.5247,-188.4966 680.242,-192.7184 680.7538,-185.7371"/>
</g>
<!-- Node26 -->
<g id="node27" class="node">
<title>Node26</title>
<g id="a_node27"><a xlink:href="_field_fill_patch_ops_8_h.html" target="_top" xlink:title="amr&#45;wind/core/FieldFillPatch\lOps.H">
<polygon fill="#ffffff" stroke="#000000" points="1206.3596,-168.5 1206.3596,-198.5 1346.3596,-198.5 1346.3596,-168.5 1206.3596,-168.5"/>
<text text-anchor="start" x="1214.3596" y="-186.5" font-family="Helvetica,sans-Serif" font-size="10.00" fill="#000000">amr&#45;wind/core/FieldFillPatch</text>
<text text-anchor="middle" x="1276.3596" y="-175.5" font-family="Helvetica,sans-Serif" font-size="10.00" fill="#000000">Ops.H</text>
</a>
</g>
</g>
<!-- Node0&#45;&gt;Node26 -->
<g id="edge44" class="edge">
<title>Node0&#45;&gt;Node26</title>
<path fill="none" stroke="#191970" d="M1415.5783,-235.3906C1391.8002,-226.5279 1355.8385,-213.1239 1326.4214,-202.1594"/>
<polygon fill="#191970" stroke="#191970" points="1327.3158,-198.7576 1316.7231,-198.5446 1324.871,-205.3168 1327.3158,-198.7576"/>
</g>
<!-- Node28 -->
<g id="node29" class="node">
<title>Node28</title>
<g id="a_node29"><a xlink:href="_field_b_c_ops_8_h.html" target="_top" xlink:title="amr&#45;wind/core/FieldBCOps.H">
<polygon fill="#ffffff" stroke="#000000" points="1458.8596,-174 1458.8596,-193 1603.8596,-193 1603.8596,-174 1458.8596,-174"/>
<text text-anchor="middle" x="1531.3596" y="-181" font-family="Helvetica,sans-Serif" font-size="10.00" fill="#000000">amr&#45;wind/core/FieldBCOps.H</text>
</a>
</g>
</g>
<!-- Node0&#45;&gt;Node28 -->
<g id="edge54" class="edge">
<title>Node0&#45;&gt;Node28</title>
<path fill="none" stroke="#191970" d="M1455.4221,-235.3906C1469.6882,-225.6421 1491.9946,-210.3994 1508.7468,-198.9521"/>
<polygon fill="#191970" stroke="#191970" points="1511.1141,-201.5736 1517.3958,-193.0419 1507.1647,-195.7941 1511.1141,-201.5736"/>
</g>
<!-- Node3 -->
<g id="node4" class="node">
<title>Node3</title>
<polygon fill="#ffffff" stroke="#bfbfbf" points="2043.8596,-112.5 2043.8596,-131.5 2088.8596,-131.5 2088.8596,-112.5 2043.8596,-112.5"/>
<text text-anchor="middle" x="2066.3596" y="-119.5" font-family="Helvetica,sans-Serif" font-size="10.00" fill="#000000">iosfwd</text>
</g>
<!-- Node2&#45;&gt;Node3 -->
<g id="edge3" class="edge">
<title>Node2&#45;&gt;Node3</title>
<path fill="none" stroke="#191970" d="M2001.618,-168.2977C2014.6313,-158.9917 2031.2499,-147.1075 2044.3913,-137.7099"/>
<polygon fill="#191970" stroke="#191970" points="2046.7485,-140.3271 2052.8467,-131.6633 2042.6766,-134.6332 2046.7485,-140.3271"/>
</g>
<!-- Node5 -->
<g id="node6" class="node">
<title>Node5</title>
<polygon fill="#ffffff" stroke="#bfbfbf" points="1734.8596,-56.5 1734.8596,-75.5 1827.8596,-75.5 1827.8596,-56.5 1734.8596,-56.5"/>
<text text-anchor="middle" x="1781.3596" y="-63.5" font-family="Helvetica,sans-Serif" font-size="10.00" fill="#000000">AMReX_REAL.H</text>
</g>
<!-- Node4&#45;&gt;Node5 -->
<g id="edge5" class="edge">
<title>Node4&#45;&gt;Node5</title>
<path fill="none" stroke="#191970" d="M1929.5884,-112.3733C1899.6946,-103.021 1854.1503,-88.7725 1821.4379,-78.5385"/>
<polygon fill="#191970" stroke="#191970" points="1822.3181,-75.1466 1811.7292,-75.5011 1820.2281,-81.8273 1822.3181,-75.1466"/>
</g>
<!-- Node6 -->
<g id="node7" class="node">
<title>Node6</title>
<polygon fill="#ffffff" stroke="#bfbfbf" points="1880.3596,-56.5 1880.3596,-75.5 2006.3596,-75.5 2006.3596,-56.5 1880.3596,-56.5"/>
<text text-anchor="middle" x="1943.3596" y="-63.5" font-family="Helvetica,sans-Serif" font-size="10.00" fill="#000000">AMReX_GpuQualifiers.H</text>
</g>
<!-- Node4&#45;&gt;Node6 -->
<g id="edge6" class="edge">
<title>Node4&#45;&gt;Node6</title>
<path fill="none" stroke="#191970" d="M1957.3984,-112.2455C1955.1557,-104.8579 1952.0019,-94.4689 1949.2515,-85.4087"/>
<polygon fill="#191970" stroke="#191970" points="1952.5408,-84.1948 1946.2868,-75.6427 1945.8426,-86.2282 1952.5408,-84.1948"/>
</g>
<!-- Node7 -->
<g id="node8" class="node">
<title>Node7</title>
<polygon fill="#ffffff" stroke="#bfbfbf" points="2024.3596,-56.5 2024.3596,-75.5 2134.3596,-75.5 2134.3596,-56.5 2024.3596,-56.5"/>
<text text-anchor="middle" x="2079.3596" y="-63.5" font-family="Helvetica,sans-Serif" font-size="10.00" fill="#000000">AMReX_Extension.H</text>
</g>
<!-- Node4&#45;&gt;Node7 -->
<g id="edge7" class="edge">
<title>Node4&#45;&gt;Node7</title>
<path fill="none" stroke="#191970" d="M1980.8164,-112.3733C1999.8334,-103.4241 2028.3771,-89.9917 2049.8572,-79.8835"/>
<polygon fill="#191970" stroke="#191970" points="2051.6118,-82.926 2059.1697,-75.5011 2048.6312,-76.5923 2051.6118,-82.926"/>
</g>
<!-- Node8&#45;&gt;Node1 -->
<g id="edge9" class="edge">
<title>Node8&#45;&gt;Node1</title>
<path fill="none" stroke="#191970" d="M534.1945,-182.5563C387.3707,-179.8159 51.6818,-169.4765 17.3596,-132 .4309,-113.5156 18.8572,-76.9674 38.3596,-56 56.8984,-36.0686 85.7662,-24.076 107.7291,-17.3584"/>
<polygon fill="#191970" stroke="#191970" points="108.9176,-20.6591 117.576,-14.5531 106.9997,-13.927 108.9176,-20.6591"/>
</g>
<!-- Node9 -->
<g id="node10" class="node">
<title>Node9</title>
<polygon fill="#ffffff" stroke="#bfbfbf" points="803.8596,-56.5 803.8596,-75.5 886.8596,-75.5 886.8596,-56.5 803.8596,-56.5"/>
<text text-anchor="middle" x="845.3596" y="-63.5" font-family="Helvetica,sans-Serif" font-size="10.00" fill="#000000">unordered_map</text>
</g>
<!-- Node8&#45;&gt;Node9 -->
<g id="edge10" class="edge">
<title>Node8&#45;&gt;Node9</title>
<path fill="none" stroke="#191970" d="M654.5694,-173.9414C689.4821,-166.0819 735.5829,-152.7949 772.3596,-132 795.1983,-119.0862 816.9044,-97.9167 830.6188,-83.0427"/>
<polygon fill="#191970" stroke="#191970" points="833.2966,-85.2991 837.3722,-75.5195 828.0875,-80.6231 833.2966,-85.2991"/>
</g>
<!-- Node10 -->
<g id="node11" class="node">
<title>Node10</title>
<g id="a_node11"><a xlink:href="_field_desc_types_8_h.html" target="_top" xlink:title="amr&#45;wind/core/FieldDescTypes.H">
<polygon fill="#ffffff" stroke="#000000" points="426.8596,-.5 426.8596,-19.5 589.8596,-19.5 589.8596,-.5 426.8596,-.5"/>
<text text-anchor="middle" x="508.3596" y="-7.5" font-family="Helvetica,sans-Serif" font-size="10.00" fill="#000000">amr&#45;wind/core/FieldDescTypes.H</text>
</a>
</g>
</g>
<!-- Node8&#45;&gt;Node10 -->
<g id="edge11" class="edge">
<title>Node8&#45;&gt;Node10</title>
<path fill="none" stroke="#191970" d="M548.7627,-173.9197C508.7464,-165.6859 453.2828,-151.955 407.3596,-132 364.497,-113.3749 340.9531,-116.9101 318.3596,-76 314.0623,-68.2189 312.8632,-62.9859 318.3596,-56 331.2094,-39.668 375.2434,-28.435 417.6864,-21.1599"/>
<polygon fill="#191970" stroke="#191970" points="418.2631,-24.6122 427.5602,-19.5314 417.1239,-17.7055 418.2631,-24.6122"/>
</g>
<!-- Node11 -->
<g id="node12" class="node">
<title>Node11</title>
<g id="a_node12"><a xlink:href="_field_utils_8_h.html" target="_top" xlink:title="amr&#45;wind/core/FieldUtils.H">
<polygon fill="#ffffff" stroke="#000000" points="630.8596,-112.5 630.8596,-131.5 763.8596,-131.5 763.8596,-112.5 630.8596,-112.5"/>
<text text-anchor="middle" x="697.3596" y="-119.5" font-family="Helvetica,sans-Serif" font-size="10.00" fill="#000000">amr&#45;wind/core/FieldUtils.H</text>
</a>
</g>
</g>
<!-- Node8&#45;&gt;Node11 -->
<g id="edge12" class="edge">
<title>Node8&#45;&gt;Node11</title>
<path fill="none" stroke="#191970" d="M617.2033,-173.8906C632.4014,-164.0519 656.2444,-148.6167 673.9802,-137.1351"/>
<polygon fill="#191970" stroke="#191970" points="676.1276,-139.9144 682.6201,-131.5419 672.3235,-134.0382 676.1276,-139.9144"/>
</g>
<!-- Node12 -->
<g id="node13" class="node">
<title>Node12</title>
<polygon fill="#ffffff" stroke="#bfbfbf" points="675.3596,-.5 675.3596,-19.5 779.3596,-19.5 779.3596,-.5 675.3596,-.5"/>
<text text-anchor="middle" x="727.3596" y="-7.5" font-family="Helvetica,sans-Serif" font-size="10.00" fill="#000000">AMReX_MultiFab.H</text>
</g>
<!-- Node8&#45;&gt;Node12 -->
<g id="edge42" class="edge">
<title>Node8&#45;&gt;Node12</title>
<path fill="none" stroke="#191970" d="M600.9653,-173.6589C598.2494,-150.5063 594.7264,-91.8455 622.3596,-56 634.5175,-40.2288 653.212,-29.7588 671.476,-22.8554"/>
<polygon fill="#191970" stroke="#191970" points="672.6548,-26.1511 680.9508,-19.5612 670.356,-19.5393 672.6548,-26.1511"/>
</g>
<!-- Node14 -->
<g id="node15" class="node">
<title>Node14</title>
<g id="a_node15"><a xlink:href="_field_8_h.html" target="_top" xlink:title="amr&#45;wind/core/Field.H">
<polygon fill="#ffffff" stroke="#000000" points="1144.8596,-112.5 1144.8596,-131.5 1257.8596,-131.5 1257.8596,-112.5 1144.8596,-112.5"/>
<text text-anchor="middle" x="1201.3596" y="-119.5" font-family="Helvetica,sans-Serif" font-size="10.00" fill="#000000">amr&#45;wind/core/Field.H</text>
</a>
</g>
</g>
<!-- Node8&#45;&gt;Node14 -->
<g id="edge16" class="edge">
<title>Node8&#45;&gt;Node14</title>
<path fill="none" stroke="#191970" d="M670.6405,-178.0911C770.2277,-169.9384 961.3756,-153.295 1134.4468,-132.0559"/>
<polygon fill="#191970" stroke="#191970" points="1135.0092,-135.5131 1144.5048,-130.8138 1134.1512,-128.5659 1135.0092,-135.5131"/>
</g>
<!-- Node21 -->
<g id="node22" class="node">
<title>Node21</title>
<g id="a_node22"><a xlink:href="_int_field_8_h.html" target="_top" xlink:title="amr&#45;wind/core/IntField.H">
<polygon fill="#ffffff" stroke="#000000" points="26.3596,-112.5 26.3596,-131.5 150.3596,-131.5 150.3596,-112.5 26.3596,-112.5"/>
<text text-anchor="middle" x="88.3596" y="-119.5" font-family="Helvetica,sans-Serif" font-size="10.00" fill="#000000">amr&#45;wind/core/IntField.H</text>
</a>
</g>
</g>
<!-- Node8&#45;&gt;Node21 -->
<g id="edge30" class="edge">
<title>Node8&#45;&gt;Node21</title>
<path fill="none" stroke="#191970" d="M534.1044,-175.3333C436.9468,-163.7084 259.5812,-142.4866 160.3923,-130.6187"/>
<polygon fill="#191970" stroke="#191970" points="160.8009,-127.1427 150.4559,-129.4298 159.9692,-134.0931 160.8009,-127.1427"/>
</g>
<!-- Node22 -->
<g id="node23" class="node">
<title>Node22</title>
<polygon fill="#ffffff" stroke="#bfbfbf" points="87.8596,-56.5 87.8596,-75.5 194.8596,-75.5 194.8596,-56.5 87.8596,-56.5"/>
<text text-anchor="middle" x="141.3596" y="-63.5" font-family="Helvetica,sans-Serif" font-size="10.00" fill="#000000">AMReX_iMultiFab.H</text>
</g>
<!-- Node8&#45;&gt;Node22 -->
<g id="edge43" class="edge">
<title>Node8&#45;&gt;Node22</title>
<path fill="none" stroke="#191970" d="M534.3533,-176.9916C446.4797,-168.0042 298.6855,-150.7635 247.3596,-132 214.9028,-120.1346 181.7659,-97.4547 161.381,-82.0295"/>
<polygon fill="#191970" stroke="#191970" points="163.2653,-79.0623 153.2125,-75.7167 158.9848,-84.601 163.2653,-79.0623"/>
</g>
<!-- Node23 -->
<g id="node24" class="node">
<title>Node23</title>
<g id="a_node24"><a xlink:href="_scratch_field_8_h.html" target="_top" xlink:title="amr&#45;wind/core/ScratchField.H">
<polygon fill="#ffffff" stroke="#000000" points="416.3596,-112.5 416.3596,-131.5 562.3596,-131.5 562.3596,-112.5 416.3596,-112.5"/>
<text text-anchor="middle" x="489.3596" y="-119.5" font-family="Helvetica,sans-Serif" font-size="10.00" fill="#000000">amr&#45;wind/core/ScratchField.H</text>
</a>
</g>
</g>
<!-- Node8&#45;&gt;Node23 -->
<g id="edge34" class="edge">
<title>Node8&#45;&gt;Node23</title>
<path fill="none" stroke="#191970" d="M584.7033,-173.8906C566.211,-163.8262 536.9586,-147.9057 515.7288,-136.3514"/>
<polygon fill="#191970" stroke="#191970" points="517.3484,-133.2481 506.8919,-131.5419 514.0021,-139.3965 517.3484,-133.2481"/>
</g>
<!-- Node25 -->
<g id="node26" class="node">
<title>Node25</title>
<polygon fill="#ffffff" stroke="#bfbfbf" points="820.3596,-112.5 820.3596,-131.5 926.3596,-131.5 926.3596,-112.5 820.3596,-112.5"/>
<text text-anchor="middle" x="873.3596" y="-119.5" font-family="Helvetica,sans-Serif" font-size="10.00" fill="#000000">AMReX_AmrCore.H</text>
</g>
<!-- Node8&#45;&gt;Node25 -->
<g id="edge41" class="edge">
<title>Node8&#45;&gt;Node25</title>
<path fill="none" stroke="#191970" d="M644.406,-173.9581C692.0732,-163.1406 769.8247,-145.4959 821.2889,-133.8168"/>
<polygon fill="#191970" stroke="#191970" points="822.2371,-137.1907 831.2145,-131.5643 820.6879,-130.3642 822.2371,-137.1907"/>
</g>
<!-- Node11&#45;&gt;Node10 -->
<g id="edge13" class="edge">
<title>Node11&#45;&gt;Node10</title>
<path fill="none" stroke="#191970" d="M681.2456,-112.4509C648.1883,-92.8615 572.5103,-48.0152 533.1566,-24.6945"/>
<polygon fill="#191970" stroke="#191970" points="534.8201,-21.6119 524.4328,-19.5249 531.2514,-27.634 534.8201,-21.6119"/>
</g>
<!-- Node11&#45;&gt;Node12 -->
<g id="edge14" class="edge">
<title>Node11&#45;&gt;Node12</title>
<path fill="none" stroke="#191970" d="M717.5157,-112.4543C731.2411,-104.7394 748.3231,-92.4561 756.3596,-76 764.2889,-59.7633 754.0509,-40.8487 743.615,-27.4409"/>
<polygon fill="#191970" stroke="#191970" points="746.0432,-24.8915 736.9176,-19.5088 740.6947,-29.4075 746.0432,-24.8915"/>
</g>
<!-- Node13 -->
<g id="node14" class="node">
<title>Node13</title>
<polygon fill="#ffffff" stroke="#bfbfbf" points="631.3596,-56.5 631.3596,-75.5 747.3596,-75.5 747.3596,-56.5 631.3596,-56.5"/>
<text text-anchor="middle" x="689.3596" y="-63.5" font-family="Helvetica,sans-Serif" font-size="10.00" fill="#000000">AMReX_Interpolater.H</text>
</g>
<!-- Node11&#45;&gt;Node13 -->
<g id="edge15" class="edge">
<title>Node11&#45;&gt;Node13</title>
<path fill="none" stroke="#191970" d="M695.9661,-112.2455C694.9222,-104.9382 693.4588,-94.6944 692.1745,-85.7046"/>
<polygon fill="#191970" stroke="#191970" points="695.6162,-85.0472 690.7371,-75.6427 688.6866,-86.0372 695.6162,-85.0472"/>
</g>
<!-- Node14&#45;&gt;Node1 -->
<g id="edge17" class="edge">
<title>Node14&#45;&gt;Node1</title>
<path fill="none" stroke="#191970" d="M1144.7702,-112.6253C1096.3417,-104.2304 1024.9036,-90.9622 963.3596,-76 932.7489,-68.5581 926.3999,-61.3755 895.3596,-56 618.1416,-7.9923 544.0466,-39.2192 263.3596,-20 231.2413,-17.8008 194.5204,-14.8056 169.2309,-12.6679"/>
<polygon fill="#191970" stroke="#191970" points="169.4,-9.1697 159.1391,-11.809 168.8063,-16.1445 169.4,-9.1697"/>
</g>
<!-- Node14&#45;&gt;Node9 -->
<g id="edge19" class="edge">
<title>Node14&#45;&gt;Node9</title>
<path fill="none" stroke="#191970" d="M1144.5904,-113.3725C1064.3359,-101.1639 924.8162,-79.8921 901.3596,-76 899.8982,-75.7575 898.4157,-75.5091 896.9198,-75.2563"/>
<polygon fill="#191970" stroke="#191970" points="897.3781,-71.7838 886.9299,-73.5404 896.193,-78.6828 897.3781,-71.7838"/>
</g>
<!-- Node14&#45;&gt;Node10 -->
<g id="edge24" class="edge">
<title>Node14&#45;&gt;Node10</title>
<path fill="none" stroke="#191970" d="M1149.4865,-112.4202C1110.6096,-104.5439 1056.4089,-92.0744 1010.3596,-76 990.46,-69.0537 987.6865,-61.5736 967.3596,-56 900.4461,-37.6526 713.8395,-23.0686 600.2192,-15.5587"/>
<polygon fill="#191970" stroke="#191970" points="600.3438,-12.0594 590.1363,-14.8981 599.8861,-19.0445 600.3438,-12.0594"/>
</g>
<!-- Node14&#45;&gt;Node12 -->
<g id="edge20" class="edge">
<title>Node14&#45;&gt;Node12</title>
<path fill="none" stroke="#191970" d="M1258.1947,-114.8086C1310.0275,-106.0511 1374.3086,-88.2649 1344.3596,-56 1325.6638,-35.8585 942.4751,-18.52 789.5688,-12.377"/>
<polygon fill="#191970" stroke="#191970" points="789.5323,-8.8729 779.4007,-11.9714 789.2532,-15.8673 789.5323,-8.8729"/>
</g>
<!-- Node15 -->
<g id="node16" class="node">
<title>Node15</title>
<polygon fill="#ffffff" stroke="#bfbfbf" points="1283.3596,-56.5 1283.3596,-75.5 1335.3596,-75.5 1335.3596,-56.5 1283.3596,-56.5"/>
<text text-anchor="middle" x="1309.3596" y="-63.5" font-family="Helvetica,sans-Serif" font-size="10.00" fill="#000000">memory</text>
</g>
<!-- Node14&#45;&gt;Node15 -->
<g id="edge18" class="edge">
<title>Node14&#45;&gt;Node15</title>
<path fill="none" stroke="#191970" d="M1220.1718,-112.2455C1237.2069,-103.4125 1262.5171,-90.2887 1281.8277,-80.2758"/>
<polygon fill="#191970" stroke="#191970" points="1283.4966,-83.353 1290.763,-75.6427 1280.2743,-77.1388 1283.4966,-83.353"/>
</g>
<!-- Node16 -->
<g id="node17" class="node">
<title>Node16</title>
<polygon fill="#ffffff" stroke="#bfbfbf" points="1019.8596,-56.5 1019.8596,-75.5 1118.8596,-75.5 1118.8596,-56.5 1019.8596,-56.5"/>
<text text-anchor="middle" x="1069.3596" y="-63.5" font-family="Helvetica,sans-Serif" font-size="10.00" fill="#000000">AMReX_BCRec.H</text>
</g>
<!-- Node14&#45;&gt;Node16 -->
<g id="edge21" class="edge">
<title>Node14&#45;&gt;Node16</title>
<path fill="none" stroke="#191970" d="M1178.668,-112.3733C1157.2885,-103.3032 1125.0539,-89.6279 1101.1234,-79.4755"/>
<polygon fill="#191970" stroke="#191970" points="1102.3279,-76.1846 1091.7551,-75.5011 1099.594,-82.6287 1102.3279,-76.1846"/>
</g>
<!-- Node17 -->
<g id="node18" class="node">
<title>Node17</title>
<polygon fill="#ffffff" stroke="#bfbfbf" points="1537.8596,-56.5 1537.8596,-75.5 1622.8596,-75.5 1622.8596,-56.5 1537.8596,-56.5"/>
<text text-anchor="middle" x="1580.3596" y="-63.5" font-family="Helvetica,sans-Serif" font-size="10.00" fill="#000000">AMReX_Gpu.H</text>
</g>
<!-- Node14&#45;&gt;Node17 -->
<g id="edge22" class="edge">
<title>Node14&#45;&gt;Node17</title>
<path fill="none" stroke="#191970" d="M1257.9099,-114.9217C1321.1021,-106.8154 1426.6962,-92.6848 1527.7458,-76.0322"/>
<polygon fill="#191970" stroke="#191970" points="1528.5314,-79.4498 1537.8237,-74.3603 1527.3857,-72.5441 1528.5314,-79.4498"/>
</g>
<!-- Node18 -->
<g id="node19" class="node">
<title>Node18</title>
<g id="a_node19"><a xlink:href="incflo__enums_8_h.html" target="_top" xlink:title="amr&#45;wind/incflo_enums.H">
<polygon fill="#ffffff" stroke="#000000" points="1137.3596,-56.5 1137.3596,-75.5 1265.3596,-75.5 1265.3596,-56.5 1137.3596,-56.5"/>
<text text-anchor="middle" x="1201.3596" y="-63.5" font-family="Helvetica,sans-Serif" font-size="10.00" fill="#000000">amr&#45;wind/incflo_enums.H</text>
</a>
</g>
</g>
<!-- Node14&#45;&gt;Node18 -->
<g id="edge23" class="edge">
<title>Node14&#45;&gt;Node18</title>
<path fill="none" stroke="#191970" d="M1201.3596,-112.2455C1201.3596,-104.9382 1201.3596,-94.6944 1201.3596,-85.7046"/>
<polygon fill="#191970" stroke="#191970" points="1204.8597,-85.6426 1201.3596,-75.6427 1197.8597,-85.6427 1204.8597,-85.6426"/>
</g>
<!-- Node19 -->
<g id="node20" class="node">
<title>Node19</title>
<g id="a_node20"><a xlink:href="_view_field_8_h.html" target="_top" xlink:title="amr&#45;wind/core/ViewField.H">
<polygon fill="#ffffff" stroke="#000000" points="327.3596,-56.5 327.3596,-75.5 461.3596,-75.5 461.3596,-56.5 327.3596,-56.5"/>
<text text-anchor="middle" x="394.3596" y="-63.5" font-family="Helvetica,sans-Serif" font-size="10.00" fill="#000000">amr&#45;wind/core/ViewField.H</text>
</a>
</g>
</g>
<!-- Node14&#45;&gt;Node19 -->
<g id="edge25" class="edge">
<title>Node14&#45;&gt;Node19</title>
<path fill="none" stroke="#191970" d="M1144.5192,-113.0618C1141.4242,-112.677 1138.3558,-112.3194 1135.3596,-112 1008.5348,-98.4823 634.9536,-78.3737 471.9282,-69.9432"/>
<polygon fill="#191970" stroke="#191970" points="471.6665,-66.4252 461.4993,-69.405 471.3056,-73.4159 471.6665,-66.4252"/>
</g>
<!-- Node19&#45;&gt;Node1 -->
<g id="edge26" class="edge">
<title>Node19&#45;&gt;Node1</title>
<path fill="none" stroke="#191970" d="M350.6425,-56.4369C298.8405,-45.1052 213.8848,-26.5211 168.7553,-16.6491"/>
<polygon fill="#191970" stroke="#191970" points="169.4856,-13.2261 158.9686,-14.5082 167.9897,-20.0644 169.4856,-13.2261"/>
</g>
<!-- Node19&#45;&gt;Node10 -->
<g id="edge27" class="edge">
<title>Node19&#45;&gt;Node10</title>
<path fill="none" stroke="#191970" d="M413.9569,-56.3733C432.0927,-47.4644 459.2731,-34.1127 479.8183,-24.0203"/>
<polygon fill="#191970" stroke="#191970" points="481.5856,-27.0517 489.018,-19.5011 478.4993,-20.7688 481.5856,-27.0517"/>
</g>
<!-- Node19&#45;&gt;Node12 -->
<g id="edge28" class="edge">
<title>Node19&#45;&gt;Node12</title>
<path fill="none" stroke="#191970" d="M451.226,-56.4369C510.7016,-46.435 603.7751,-30.783 665.1678,-20.4587"/>
<polygon fill="#191970" stroke="#191970" points="665.8342,-23.8958 675.1152,-18.7858 664.6732,-16.9928 665.8342,-23.8958"/>
</g>
<!-- Node20 -->
<g id="node21" class="node">
<title>Node20</title>
<polygon fill="#ffffff" stroke="#bfbfbf" points="272.8596,-.5 272.8596,-19.5 367.8596,-19.5 367.8596,-.5 272.8596,-.5"/>
<text text-anchor="middle" x="320.3596" y="-7.5" font-family="Helvetica,sans-Serif" font-size="10.00" fill="#000000">AMReX_Vector.H</text>
</g>
<!-- Node19&#45;&gt;Node20 -->
<g id="edge29" class="edge">
<title>Node19&#45;&gt;Node20</title>
<path fill="none" stroke="#191970" d="M381.4698,-56.2455C370.4342,-47.8943 354.3304,-35.7076 341.4242,-25.9408"/>
<polygon fill="#191970" stroke="#191970" points="343.1878,-22.8862 333.1017,-19.6427 338.9637,-28.4681 343.1878,-22.8862"/>
</g>
<!-- Node21&#45;&gt;Node1 -->
<g id="edge31" class="edge">
<title>Node21&#45;&gt;Node1</title>
<path fill="none" stroke="#191970" d="M74.3772,-112.4651C57.4637,-99.7075 32.7337,-76.331 45.3596,-56 58.9778,-34.0711 86.4918,-22.2786 108.0769,-16.1458"/>
<polygon fill="#191970" stroke="#191970" points="108.9962,-19.5233 117.8074,-13.64 107.2505,-12.7445 108.9962,-19.5233"/>
</g>
<!-- Node21&#45;&gt;Node10 -->
<g id="edge32" class="edge">
<title>Node21&#45;&gt;Node10</title>
<path fill="none" stroke="#191970" d="M82.552,-112.1054C75.0242,-97.8416 64.4156,-71.5152 78.3596,-56 83.9731,-49.7539 291.8944,-29.7592 416.5145,-18.2918"/>
<polygon fill="#191970" stroke="#191970" points="417.1828,-21.7452 426.8208,-17.3454 416.5426,-14.7746 417.1828,-21.7452"/>
</g>
<!-- Node21&#45;&gt;Node22 -->
<g id="edge33" class="edge">
<title>Node21&#45;&gt;Node22</title>
<path fill="none" stroke="#191970" d="M97.5915,-112.2455C105.1913,-104.2155 116.1473,-92.6394 125.1963,-83.0781"/>
<polygon fill="#191970" stroke="#191970" points="127.9016,-85.3115 132.2335,-75.6427 122.8176,-80.4998 127.9016,-85.3115"/>
</g>
<!-- Node23&#45;&gt;Node1 -->
<g id="edge35" class="edge">
<title>Node23&#45;&gt;Node1</title>
<path fill="none" stroke="#191970" d="M445.1638,-112.4562C408.0361,-104.0523 353.7613,-90.8607 307.3596,-76 257.6692,-60.0861 201.5256,-37.1331 168.085,-22.9136"/>
<polygon fill="#191970" stroke="#191970" points="169.4444,-19.6884 158.8737,-18.9731 166.6912,-26.1242 169.4444,-19.6884"/>
</g>
<!-- Node23&#45;&gt;Node10 -->
<g id="edge36" class="edge">
<title>Node23&#45;&gt;Node10</title>
<path fill="none" stroke="#191970" d="M490.9795,-112.4509C494.0784,-94.184 500.9029,-53.9553 505.018,-29.6976"/>
<polygon fill="#191970" stroke="#191970" points="508.5218,-29.9694 506.7438,-19.5249 501.6204,-28.7986 508.5218,-29.9694"/>
</g>
<!-- Node23&#45;&gt;Node12 -->
<g id="edge38" class="edge">
<title>Node23&#45;&gt;Node12</title>
<path fill="none" stroke="#191970" d="M501.6636,-112.3321C519.9276,-98.3506 555.6863,-72.3726 589.3596,-56 618.4877,-41.8374 653.0657,-30.3201 680.3225,-22.3521"/>
<polygon fill="#191970" stroke="#191970" points="681.3592,-25.696 690.0096,-19.5788 679.4325,-18.9664 681.3592,-25.696"/>
</g>
<!-- Node23&#45;&gt;Node19 -->
<g id="edge37" class="edge">
<title>Node23&#45;&gt;Node19</title>
<path fill="none" stroke="#191970" d="M472.8118,-112.2455C458.0997,-103.5731 436.3708,-90.7645 419.5091,-80.825"/>
<polygon fill="#191970" stroke="#191970" points="421.1097,-77.7057 410.7177,-75.6427 417.555,-83.736 421.1097,-77.7057"/>
</g>
<!-- Node23&#45;&gt;Node20 -->
<g id="edge39" class="edge">
<title>Node23&#45;&gt;Node20</title>
<path fill="none" stroke="#191970" d="M422.0843,-112.4206C379.9471,-104.8872 331.2647,-92.8354 318.3596,-76 308.3561,-62.9499 310.1904,-43.8038 313.7376,-29.4899"/>
<polygon fill="#191970" stroke="#191970" points="317.1627,-30.2476 316.6163,-19.6669 310.4452,-28.279 317.1627,-30.2476"/>
</g>
<!-- Node24 -->
<g id="node25" class="node">
<title>Node24</title>
<polygon fill="#ffffff" stroke="#bfbfbf" points="1391.3596,-56.5 1391.3596,-75.5 1519.3596,-75.5 1519.3596,-56.5 1391.3596,-56.5"/>
<text text-anchor="middle" x="1455.3596" y="-63.5" font-family="Helvetica,sans-Serif" font-size="10.00" fill="#000000">AMReX_PhysBCFunct.H</text>
</g>
<!-- Node23&#45;&gt;Node24 -->
<g id="edge40" class="edge">
<title>Node23&#45;&gt;Node24</title>
<path fill="none" stroke="#191970" d="M562.6477,-116.109C581.7532,-114.6662 602.3217,-113.1949 621.3596,-112 942.4592,-91.8463 1023.4116,-98.4385 1344.3596,-76 1356.197,-75.1724 1368.7331,-74.1674 1380.9539,-73.1176"/>
<polygon fill="#191970" stroke="#191970" points="1381.4659,-76.5862 1391.1228,-72.228 1380.8558,-69.6129 1381.4659,-76.5862"/>
</g>
<!-- Node26&#45;&gt;Node4 -->
<g id="edge46" class="edge">
<title>Node26&#45;&gt;Node4</title>
<path fill="none" stroke="#191970" d="M1346.6338,-177.0888C1378.0574,-174.2516 1415.5599,-170.9063 1449.3596,-168 1640.205,-151.5899 1690.8998,-153.0016 1884.3902,-132.1724"/>
<polygon fill="#191970" stroke="#191970" points="1885.0486,-135.6217 1894.6138,-131.0656 1884.2951,-128.6623 1885.0486,-135.6217"/>
</g>
<!-- Node26&#45;&gt;Node5 -->
<g id="edge51" class="edge">
<title>Node26&#45;&gt;Node5</title>
<path fill="none" stroke="#191970" d="M1345.6939,-168.473C1391.6195,-158.4134 1453.1595,-144.7314 1507.3596,-132 1543.4582,-123.5206 1552.3239,-120.7431 1588.3596,-112 1636.7568,-100.2577 1692.0472,-87.1065 1731.0079,-77.8832"/>
<polygon fill="#191970" stroke="#191970" points="1732.1195,-81.2169 1741.0449,-75.5084 1730.5077,-74.4049 1732.1195,-81.2169"/>
</g>
<!-- Node26&#45;&gt;Node10 -->
<g id="edge47" class="edge">
<title>Node26&#45;&gt;Node10</title>
<path fill="none" stroke="#191970" d="M1206.1354,-179.413C1148.1041,-173.9823 1064.6258,-161.3516 997.3596,-132 945.544,-109.3903 947.8743,-76.9344 895.3596,-56 843.459,-35.3104 697.454,-22.1708 600.3664,-15.4506"/>
<polygon fill="#191970" stroke="#191970" points="600.4638,-11.9492 590.2489,-14.7612 599.9878,-18.933 600.4638,-11.9492"/>
</g>
<!-- Node26&#45;&gt;Node11 -->
<g id="edge48" class="edge">
<title>Node26&#45;&gt;Node11</title>
<path fill="none" stroke="#191970" d="M1206.2304,-176.051C1097.0731,-164.4566 887.3435,-142.1796 774.2114,-130.163"/>
<polygon fill="#191970" stroke="#191970" points="774.5512,-126.6795 764.2374,-129.1036 773.8117,-133.6403 774.5512,-126.6795"/>
</g>
<!-- Node26&#45;&gt;Node12 -->
<g id="edge50" class="edge">
<title>Node26&#45;&gt;Node12</title>
<path fill="none" stroke="#191970" d="M1324.0564,-168.4351C1370.7075,-153.7719 1443.8043,-130.9859 1507.3596,-112 1565.6885,-94.5754 1674.2986,-100.1248 1632.3596,-56 1603.3468,-25.475 989.5718,-13.8302 789.6788,-10.8387"/>
<polygon fill="#191970" stroke="#191970" points="789.6834,-7.3385 779.6328,-10.6905 789.5801,-14.3377 789.6834,-7.3385"/>
</g>
<!-- Node26&#45;&gt;Node14 -->
<g id="edge45" class="edge">
<title>Node26&#45;&gt;Node14</title>
<path fill="none" stroke="#191970" d="M1257.8203,-168.2977C1246.7588,-159.2274 1232.7105,-147.7077 1221.3943,-138.4285"/>
<polygon fill="#191970" stroke="#191970" points="1223.32,-135.4813 1213.368,-131.8469 1218.8814,-140.8942 1223.32,-135.4813"/>
</g>
<!-- Node26&#45;&gt;Node24 -->
<g id="edge52" class="edge">
<title>Node26&#45;&gt;Node24</title>
<path fill="none" stroke="#191970" d="M1299.3943,-168.3795C1333.7188,-145.848 1397.9233,-103.7026 1432.2762,-81.1525"/>
<polygon fill="#191970" stroke="#191970" points="1434.2887,-84.0182 1440.7279,-75.6046 1430.4474,-78.1663 1434.2887,-84.0182"/>
</g>
<!-- Node26&#45;&gt;Node25 -->
<g id="edge49" class="edge">
<title>Node26&#45;&gt;Node25</title>
<path fill="none" stroke="#191970" d="M1206.1623,-172.7875C1130.0249,-161.1685 1009.588,-142.7892 936.3817,-131.6175"/>
<polygon fill="#191970" stroke="#191970" points="936.7885,-128.1392 926.3749,-130.0904 935.7324,-135.059 936.7885,-128.1392"/>
</g>
<!-- Node27 -->
<g id="node28" class="node">
<title>Node27</title>
<polygon fill="#ffffff" stroke="#bfbfbf" points="1006.3596,-112.5 1006.3596,-131.5 1126.3596,-131.5 1126.3596,-112.5 1006.3596,-112.5"/>
<text text-anchor="middle" x="1066.3596" y="-119.5" font-family="Helvetica,sans-Serif" font-size="10.00" fill="#000000">AMReX_FillPatchUtil.H</text>
</g>
<!-- Node26&#45;&gt;Node27 -->
<g id="edge53" class="edge">
<title>Node26&#45;&gt;Node27</title>
<path fill="none" stroke="#191970" d="M1224.9878,-168.4554C1189.334,-158.0139 1142.4035,-144.27 1108.8563,-134.4455"/>
<polygon fill="#191970" stroke="#191970" points="1109.4828,-130.982 1098.9021,-131.5303 1107.5154,-137.6998 1109.4828,-130.982"/>
</g>
<!-- Node28&#45;&gt;Node10 -->
<g id="edge55" class="edge">
<title>Node28&#45;&gt;Node10</title>
<path fill="none" stroke="#191970" d="M1538.1394,-173.7129C1548.259,-159.4215 1568.2827,-132.3334 1588.3596,-112 1606.1123,-94.0205 1621.5395,-98.833 1632.3596,-76 1636.1661,-67.9674 1638.5268,-62.4014 1632.3596,-56 1595.099,-17.325 719.9958,-22.6963 666.3596,-20 644.9131,-18.9219 621.8412,-17.5704 600.1335,-16.2129"/>
<polygon fill="#191970" stroke="#191970" points="600.1352,-12.7061 589.9344,-15.5685 599.6938,-19.6922 600.1352,-12.7061"/>
</g>
<!-- Node28&#45;&gt;Node14 -->
<g id="edge56" class="edge">
<title>Node28&#45;&gt;Node14</title>
<path fill="none" stroke="#191970" d="M1480.1592,-173.9581C1421.4238,-163.012 1325.1779,-145.0752 1262.5443,-133.4026"/>
<polygon fill="#191970" stroke="#191970" points="1262.8806,-129.9051 1252.4086,-131.5137 1261.5981,-136.7866 1262.8806,-129.9051"/>
</g>
<!-- Node28&#45;&gt;Node17 -->
<g id="edge57" class="edge">
<title>Node28&#45;&gt;Node17</title>
<path fill="none" stroke="#191970" d="M1595.8374,-173.9672C1643.137,-165.5014 1701.5872,-151.4464 1716.3596,-132 1741.9262,-98.344 1681.5047,-80.9137 1633.1643,-72.6136"/>
<polygon fill="#191970" stroke="#191970" points="1633.4986,-69.1222 1623.0677,-70.9785 1632.3795,-76.0322 1633.4986,-69.1222"/>
</g>
<!-- Node28&#45;&gt;Node24 -->
<g id="edge60" class="edge">
<title>Node28&#45;&gt;Node24</title>
<path fill="none" stroke="#191970" d="M1525.1402,-173.8845C1512.5032,-154.3471 1483.6388,-109.7211 1467.2677,-84.4106"/>
<polygon fill="#191970" stroke="#191970" points="1470.0348,-82.2442 1461.6649,-75.7484 1464.1572,-86.0459 1470.0348,-82.2442"/>
</g>
<!-- Node29 -->
<g id="node30" class="node">
<title>Node29</title>
<polygon fill="#ffffff" stroke="#bfbfbf" points="1763.8596,-112.5 1763.8596,-131.5 1876.8596,-131.5 1876.8596,-112.5 1763.8596,-112.5"/>
<text text-anchor="middle" x="1820.3596" y="-119.5" font-family="Helvetica,sans-Serif" font-size="10.00" fill="#000000">AMReX_FArrayBox.H</text>
</g>
<!-- Node28&#45;&gt;Node29 -->
<g id="edge58" class="edge">
<title>Node28&#45;&gt;Node29</title>
<path fill="none" stroke="#191970" d="M1576.1987,-173.9581C1627.2438,-163.0956 1710.6394,-145.3488 1765.5149,-133.6711"/>
<polygon fill="#191970" stroke="#191970" points="1766.3628,-137.0691 1775.4152,-131.5643 1764.9057,-130.2224 1766.3628,-137.0691"/>
</g>
<!-- Node30 -->
<g id="node31" class="node">
<title>Node30</title>
<polygon fill="#ffffff" stroke="#bfbfbf" points="1597.3596,-112.5 1597.3596,-131.5 1707.3596,-131.5 1707.3596,-112.5 1597.3596,-112.5"/>
<text text-anchor="middle" x="1652.3596" y="-119.5" font-family="Helvetica,sans-Serif" font-size="10.00" fill="#000000">AMReX_Geometry.H</text>
</g>
<!-- Node28&#45;&gt;Node30 -->
<g id="edge59" class="edge">
<title>Node28&#45;&gt;Node30</title>
<path fill="none" stroke="#191970" d="M1550.2658,-173.8906C1570.1562,-163.7811 1601.6719,-147.7628 1624.4288,-136.1962"/>
<polygon fill="#191970" stroke="#191970" points="1626.2573,-139.193 1633.5861,-131.5419 1623.0856,-132.9528 1626.2573,-139.193"/>
</g>
</g>
</svg>
        <g id="navigator" transform="translate(0 0)" fill="#404254">
                <rect fill="#f2f5e9" fill-opacity="0.5" stroke="#606060" stroke-width=".5" x="0" y="0" width="60" height="60"/>
                <use id="zoomplus" xlink:href="#zoomPlus" x="17" y="9" onmousedown="handleZoom(evt,'in')"/>
                <use id="zoomminus" xlink:href="#zoomMin" x="42" y="9" onmousedown="handleZoom(evt,'out')"/>
                <use id="reset" xlink:href="#resetDef" x="30" y="36" onmousedown="handleReset()"/>
                <g id="arrowUp" xlink:href="#dirArrow" transform="translate(30 24)" onmousedown="handlePan(0,-1)">
                  <use xlink:href="#rim" fill="#404040">
                        <set attributeName="fill" to="#808080" begin="arrowUp.mouseover" end="arrowUp.mouseout"/>
                  </use>
                  <path fill="none" stroke="white" stroke-width="1.5" d="M0,-3.0v7 M-2.5,-0.5L0,-3.0L2.5,-0.5"/>
                </g>
                <g id="arrowRight" xlink:href="#dirArrow" transform="rotate(90) translate(36 -43)" onmousedown="handlePan(1,0)">
                  <use xlink:href="#rim" fill="#404040">
                        <set attributeName="fill" to="#808080" begin="arrowRight.mouseover" end="arrowRight.mouseout"/>
                  </use>
                  <path fill="none" stroke="white" stroke-width="1.5" d="M0,-3.0v7 M-2.5,-0.5L0,-3.0L2.5,-0.5"/>
                </g>
                <g id="arrowDown" xlink:href="#dirArrow" transform="rotate(180) translate(-30 -48)" onmousedown="handlePan(0,1)">
                  <use xlink:href="#rim" fill="#404040">
                        <set attributeName="fill" to="#808080" begin="arrowDown.mouseover" end="arrowDown.mouseout"/>
                  </use>
                  <path fill="none" stroke="white" stroke-width="1.5" d="M0,-3.0v7 M-2.5,-0.5L0,-3.0L2.5,-0.5"/>
                </g>
                <g id="arrowLeft" xlink:href="#dirArrow" transform="rotate(270) translate(-36 17)" onmousedown="handlePan(-1,0)">
                  <use xlink:href="#rim" fill="#404040">
                        <set attributeName="fill" to="#808080" begin="arrowLeft.mouseover" end="arrowLeft.mouseout"/>
                  </use>
                  <path fill="none" stroke="white" stroke-width="1.5" d="M0,-3.0v7 M-2.5,-0.5L0,-3.0L2.5,-0.5"/>
                </g>
        </g>
        <svg viewBox="0 0 15 15" width="100%" height="30px" preserveAspectRatio="xMaxYMin meet">
         <g id="arrow_out" transform="scale(0.3 0.3)">
          <a xlink:href="_p_d_e_helpers_8_h__incl_org.svg" target="_base">
           <rect id="button" ry="5" rx="5" y="6" x="6" height="38" width="38"
                fill="#f2f5e9" fill-opacity="0.5" stroke="#606060" stroke-width="1.0"/>
           <path id="arrow"
             d="M 11.500037,31.436501 C 11.940474,20.09759 22.043105,11.32322 32.158766,21.979434 L 37.068811,17.246167 C 37.068811,17.246167 37.088388,32 37.088388,32 L 22.160133,31.978069 C 22.160133,31.978069 26.997745,27.140456 26.997745,27.140456 C 18.528582,18.264221 13.291696,25.230495 11.500037,31.436501 z"
             style="fill:#404040;"/>
          </a>
         </g>
        </svg>
</svg>
