<?xml version="1.0" encoding="UTF-8" standalone="no"?>
<!DOCTYPE svg PUBLIC "-//W3C//DTD SVG 1.1//EN"
 "http://www.w3.org/Graphics/SVG/1.1/DTD/svg11.dtd">
<!-- Generated by graphviz version 2.40.1 (20161225.0304)
 -->
<!-- Title: PlaneAveraging.cpp Pages: 1 -->
<svg width="2167pt" height="408pt"
 viewBox="0.00 0.00 2167.14 408.00" xmlns="http://www.w3.org/2000/svg" xmlns:xlink="http://www.w3.org/1999/xlink">
<g id="graph0" class="graph" transform="scale(1 1) rotate(0) translate(4 404)">
<title>PlaneAveraging.cpp</title>
<polygon fill="#ffffff" stroke="transparent" points="-4,4 -4,-404 2163.1421,-404 2163.1421,4 -4,4"/>
<!-- Node0 -->
<g id="node1" class="node">
<title>Node0</title>
<polygon fill="#bfbfbf" stroke="#000000" points="769.1421,-380.5 769.1421,-399.5 873.1421,-399.5 873.1421,-380.5 769.1421,-380.5"/>
<text text-anchor="middle" x="821.1421" y="-387.5" font-family="Helvetica,sans-Serif" font-size="10.00" fill="#000000">PlaneAveraging.cpp</text>
</g>
<!-- Node1 -->
<g id="node2" class="node">
<title>Node1</title>
<polygon fill="#ffffff" stroke="#bfbfbf" points="737.1421,-324.5 737.1421,-343.5 793.1421,-343.5 793.1421,-324.5 737.1421,-324.5"/>
<text text-anchor="middle" x="765.1421" y="-331.5" font-family="Helvetica,sans-Serif" font-size="10.00" fill="#000000">algorithm</text>
</g>
<!-- Node0&#45;&gt;Node1 -->
<g id="edge1" class="edge">
<title>Node0&#45;&gt;Node1</title>
<path fill="none" stroke="#191970" d="M811.3876,-380.2455C803.2773,-372.1352 791.5496,-360.4075 781.934,-350.7919"/>
<polygon fill="#191970" stroke="#191970" points="784.3307,-348.2389 774.7847,-343.6427 779.3809,-353.1887 784.3307,-348.2389"/>
</g>
<!-- Node2 -->
<g id="node3" class="node">
<title>Node2</title>
<g id="a_node3"><a xlink:href="_plane_averaging_8_h.html" target="_top" xlink:title="amr&#45;wind/utilities\l/PlaneAveraging.H">
<polygon fill="#ffffff" stroke="#000000" points="772.1421,-190.5 772.1421,-220.5 870.1421,-220.5 870.1421,-190.5 772.1421,-190.5"/>
<text text-anchor="start" x="780.1421" y="-208.5" font-family="Helvetica,sans-Serif" font-size="10.00" fill="#000000">amr&#45;wind/utilities</text>
<text text-anchor="middle" x="821.1421" y="-197.5" font-family="Helvetica,sans-Serif" font-size="10.00" fill="#000000">/PlaneAveraging.H</text>
</a>
</g>
</g>
<!-- Node0&#45;&gt;Node2 -->
<g id="edge2" class="edge">
<title>Node0&#45;&gt;Node2</title>
<path fill="none" stroke="#191970" d="M821.1421,-380.3402C821.1421,-352.6387 821.1421,-272.2663 821.1421,-230.8429"/>
<polygon fill="#191970" stroke="#191970" points="824.6422,-230.7363 821.1421,-220.7363 817.6422,-230.7364 824.6422,-230.7363"/>
</g>
<!-- Node6 -->
<g id="node7" class="node">
<title>Node6</title>
<g id="a_node7"><a xlink:href="incflo_8_h.html" target="_top" xlink:title="amr&#45;wind/incflo.H">
<polygon fill="#ffffff" stroke="#000000" points="1178.6421,-324.5 1178.6421,-343.5 1271.6421,-343.5 1271.6421,-324.5 1178.6421,-324.5"/>
<text text-anchor="middle" x="1225.1421" y="-331.5" font-family="Helvetica,sans-Serif" font-size="10.00" fill="#000000">amr&#45;wind/incflo.H</text>
</a>
</g>
</g>
<!-- Node0&#45;&gt;Node6 -->
<g id="edge6" class="edge">
<title>Node0&#45;&gt;Node6</title>
<path fill="none" stroke="#191970" d="M873.5438,-382.7364C949.5535,-372.2004 1089.856,-352.7525 1168.2894,-341.8806"/>
<polygon fill="#191970" stroke="#191970" points="1169.0436,-345.3096 1178.4683,-340.4696 1168.0824,-338.3759 1169.0436,-345.3096"/>
</g>
<!-- Node3 -->
<g id="node4" class="node">
<title>Node3</title>
<polygon fill="#ffffff" stroke="#bfbfbf" points="1307.1421,-129 1307.1421,-148 1413.1421,-148 1413.1421,-129 1307.1421,-129"/>
<text text-anchor="middle" x="1360.1421" y="-136" font-family="Helvetica,sans-Serif" font-size="10.00" fill="#000000">AMReX_AmrCore.H</text>
</g>
<!-- Node2&#45;&gt;Node3 -->
<g id="edge3" class="edge">
<title>Node2&#45;&gt;Node3</title>
<path fill="none" stroke="#191970" d="M870.3303,-202.0662C956.4476,-195.6244 1139.948,-179.9834 1293.1421,-154 1299.3991,-152.9387 1305.9464,-151.6499 1312.3937,-150.2738"/>
<polygon fill="#191970" stroke="#191970" points="1313.3806,-153.6401 1322.3866,-148.0596 1311.8662,-146.8058 1313.3806,-153.6401"/>
</g>
<!-- Node4 -->
<g id="node5" class="node">
<title>Node4</title>
<g id="a_node5"><a xlink:href="_direction_selector_8_h.html" target="_top" xlink:title="amr&#45;wind/utilities\l/DirectionSelector.H">
<polygon fill="#ffffff" stroke="#000000" points="749.6421,-123.5 749.6421,-153.5 854.6421,-153.5 854.6421,-123.5 749.6421,-123.5"/>
<text text-anchor="start" x="757.6421" y="-141.5" font-family="Helvetica,sans-Serif" font-size="10.00" fill="#000000">amr&#45;wind/utilities</text>
<text text-anchor="middle" x="802.1421" y="-130.5" font-family="Helvetica,sans-Serif" font-size="10.00" fill="#000000">/DirectionSelector.H</text>
</a>
</g>
</g>
<!-- Node2&#45;&gt;Node4 -->
<g id="edge4" class="edge">
<title>Node2&#45;&gt;Node4</title>
<path fill="none" stroke="#191970" d="M816.8307,-190.2967C814.5714,-182.3299 811.7475,-172.3718 809.1809,-163.3213"/>
<polygon fill="#191970" stroke="#191970" points="812.5319,-162.3089 806.4364,-153.6432 805.7975,-164.2187 812.5319,-162.3089"/>
</g>
<!-- Node5 -->
<g id="node6" class="node">
<title>Node5</title>
<polygon fill="#ffffff" stroke="#bfbfbf" points="705.6421,-62 705.6421,-81 790.6421,-81 790.6421,-62 705.6421,-62"/>
<text text-anchor="middle" x="748.1421" y="-69" font-family="Helvetica,sans-Serif" font-size="10.00" fill="#000000">AMReX_Gpu.H</text>
</g>
<!-- Node4&#45;&gt;Node5 -->
<g id="edge5" class="edge">
<title>Node4&#45;&gt;Node5</title>
<path fill="none" stroke="#191970" d="M789.8886,-123.2967C781.6385,-113.0605 770.7387,-99.5366 762.1455,-88.8746"/>
<polygon fill="#191970" stroke="#191970" points="764.8435,-86.6446 755.8431,-81.055 759.3933,-91.0373 764.8435,-86.6446"/>
</g>
<!-- Node6&#45;&gt;Node3 -->
<g id="edge7" class="edge">
<title>Node6&#45;&gt;Node3</title>
<path fill="none" stroke="#191970" d="M1272.0075,-329.6758C1324.2234,-323.7745 1403.7509,-311.1802 1422.1421,-288 1455.0265,-246.5524 1405.9929,-185.1959 1377.7576,-155.6415"/>
<polygon fill="#191970" stroke="#191970" points="1379.9382,-152.8672 1370.4307,-148.1919 1374.9475,-157.7757 1379.9382,-152.8672"/>
</g>
<!-- Node7 -->
<g id="node8" class="node">
<title>Node7</title>
<polygon fill="#ffffff" stroke="#bfbfbf" points="887.6421,-263 887.6421,-282 1006.6421,-282 1006.6421,-263 887.6421,-263"/>
<text text-anchor="middle" x="947.1421" y="-270" font-family="Helvetica,sans-Serif" font-size="10.00" fill="#000000">AMReX_MultiFabUtil.H</text>
</g>
<!-- Node6&#45;&gt;Node7 -->
<g id="edge8" class="edge">
<title>Node6&#45;&gt;Node7</title>
<path fill="none" stroke="#191970" d="M1181.4978,-324.4517C1139.2078,-315.186 1073.2631,-300.7018 1016.1421,-288 1010.7488,-286.8007 1005.1196,-285.5441 999.504,-284.2874"/>
<polygon fill="#191970" stroke="#191970" points="999.988,-280.8092 989.4646,-282.0376 998.4572,-287.6397 999.988,-280.8092"/>
</g>
<!-- Node8 -->
<g id="node9" class="node">
<title>Node8</title>
<polygon fill="#ffffff" stroke="#bfbfbf" points="1025.1421,-263 1025.1421,-282 1141.1421,-282 1141.1421,-263 1025.1421,-263"/>
<text text-anchor="middle" x="1083.1421" y="-270" font-family="Helvetica,sans-Serif" font-size="10.00" fill="#000000">AMReX_ParmParse.H</text>
</g>
<!-- Node6&#45;&gt;Node8 -->
<g id="edge9" class="edge">
<title>Node6&#45;&gt;Node8</title>
<path fill="none" stroke="#191970" d="M1202.9546,-324.3906C1179.1954,-314.1005 1141.3016,-297.6888 1114.4996,-286.0809"/>
<polygon fill="#191970" stroke="#191970" points="1115.7411,-282.8045 1105.1738,-282.0419 1112.9591,-289.2279 1115.7411,-282.8045"/>
</g>
<!-- Node9 -->
<g id="node10" class="node">
<title>Node9</title>
<polygon fill="#ffffff" stroke="#bfbfbf" points="15.6421,-62 15.6421,-81 122.6421,-81 122.6421,-62 15.6421,-62"/>
<text text-anchor="middle" x="69.1421" y="-69" font-family="Helvetica,sans-Serif" font-size="10.00" fill="#000000">AMReX_iMultiFab.H</text>
</g>
<!-- Node6&#45;&gt;Node9 -->
<g id="edge10" class="edge">
<title>Node6&#45;&gt;Node9</title>
<path fill="none" stroke="#191970" d="M1178.6086,-330.6027C1097.9803,-324.3915 927.2085,-309.8041 784.1421,-288 485.6568,-242.5093 364.4559,-328.6206 118.1421,-154 96.2408,-138.4734 82.4957,-109.8013 75.3171,-90.6874"/>
<polygon fill="#191970" stroke="#191970" points="78.6021,-89.478 71.9945,-81.196 71.9952,-91.7909 78.6021,-89.478"/>
</g>
<!-- Node10 -->
<g id="node11" class="node">
<title>Node10</title>
<polygon fill="#ffffff" stroke="#bfbfbf" points="1159.6421,-263 1159.6421,-282 1290.6421,-282 1290.6421,-263 1159.6421,-263"/>
<text text-anchor="middle" x="1225.1421" y="-270" font-family="Helvetica,sans-Serif" font-size="10.00" fill="#000000">AMReX_NodalProjector.H</text>
</g>
<!-- Node6&#45;&gt;Node10 -->
<g id="edge11" class="edge">
<title>Node6&#45;&gt;Node10</title>
<path fill="none" stroke="#191970" d="M1225.1421,-324.3906C1225.1421,-315.8657 1225.1421,-303.1392 1225.1421,-292.4235"/>
<polygon fill="#191970" stroke="#191970" points="1228.6422,-292.2448 1225.1421,-282.2449 1221.6422,-292.2449 1228.6422,-292.2448"/>
</g>
<!-- Node11 -->
<g id="node12" class="node">
<title>Node11</title>
<g id="a_node12"><a xlink:href="incflo__enums_8_h.html" target="_top" xlink:title="amr&#45;wind/incflo_enums.H">
<polygon fill="#ffffff" stroke="#000000" points="1345.1421,-62 1345.1421,-81 1473.1421,-81 1473.1421,-62 1345.1421,-62"/>
<text text-anchor="middle" x="1409.1421" y="-69" font-family="Helvetica,sans-Serif" font-size="10.00" fill="#000000">amr&#45;wind/incflo_enums.H</text>
</a>
</g>
</g>
<!-- Node6&#45;&gt;Node11 -->
<g id="edge12" class="edge">
<title>Node6&#45;&gt;Node11</title>
<path fill="none" stroke="#191970" d="M1272.0075,-329.6758C1324.2234,-323.7745 1403.7509,-311.1802 1422.1421,-288 1468.6458,-229.3866 1435.1266,-131.3298 1417.7928,-90.3726"/>
<polygon fill="#191970" stroke="#191970" points="1420.9204,-88.7897 1413.6976,-81.0385 1414.5102,-91.6021 1420.9204,-88.7897"/>
</g>
<!-- Node12 -->
<g id="node13" class="node">
<title>Node12</title>
<g id="a_node13"><a xlink:href="_c_f_d_sim_8_h.html" target="_top" xlink:title="amr&#45;wind/CFDSim.H">
<polygon fill="#ffffff" stroke="#000000" points="1507.1421,-263 1507.1421,-282 1615.1421,-282 1615.1421,-263 1507.1421,-263"/>
<text text-anchor="middle" x="1561.1421" y="-270" font-family="Helvetica,sans-Serif" font-size="10.00" fill="#000000">amr&#45;wind/CFDSim.H</text>
</a>
</g>
</g>
<!-- Node6&#45;&gt;Node12 -->
<g id="edge13" class="edge">
<title>Node6&#45;&gt;Node12</title>
<path fill="none" stroke="#191970" d="M1271.7621,-326.7829C1325.338,-318.3072 1415.83,-303.4345 1493.1421,-288 1498.9232,-286.8458 1504.965,-285.5701 1510.9592,-284.2606"/>
<polygon fill="#191970" stroke="#191970" points="1511.945,-287.627 1520.9475,-282.0408 1510.4263,-280.7937 1511.945,-287.627"/>
</g>
<!-- Node13 -->
<g id="node14" class="node">
<title>Node13</title>
<g id="a_node14"><a xlink:href="_sim_time_8_h.html" target="_top" xlink:title="amr&#45;wind/core/SimTime.H">
<polygon fill="#ffffff" stroke="#000000" points="1772.6421,-196 1772.6421,-215 1903.6421,-215 1903.6421,-196 1772.6421,-196"/>
<text text-anchor="middle" x="1838.1421" y="-203" font-family="Helvetica,sans-Serif" font-size="10.00" fill="#000000">amr&#45;wind/core/SimTime.H</text>
</a>
</g>
</g>
<!-- Node6&#45;&gt;Node13 -->
<g id="edge77" class="edge">
<title>Node6&#45;&gt;Node13</title>
<path fill="none" stroke="#191970" d="M1271.8958,-332.436C1347.1157,-329.0707 1499.2202,-318.7518 1624.1421,-288 1692.5433,-271.1618 1768.6056,-238.1964 1809.0737,-219.4353"/>
<polygon fill="#191970" stroke="#191970" points="1810.7602,-222.5104 1818.3336,-215.1013 1807.7928,-216.1704 1810.7602,-222.5104"/>
</g>
<!-- Node17 -->
<g id="node18" class="node">
<title>Node17</title>
<g id="a_node18"><a xlink:href="_field_repo_8_h.html" target="_top" xlink:title="amr&#45;wind/core/FieldRepo.H">
<polygon fill="#ffffff" stroke="#000000" points="594.1421,-196 594.1421,-215 730.1421,-215 730.1421,-196 594.1421,-196"/>
<text text-anchor="middle" x="662.1421" y="-203" font-family="Helvetica,sans-Serif" font-size="10.00" fill="#000000">amr&#45;wind/core/FieldRepo.H</text>
</a>
</g>
</g>
<!-- Node6&#45;&gt;Node17 -->
<g id="edge78" class="edge">
<title>Node6&#45;&gt;Node17</title>
<path fill="none" stroke="#191970" d="M1178.466,-331.2748C1111.2226,-326.5726 983.5839,-314.7352 878.1421,-288 809.3382,-270.5545 732.5305,-237.8487 691.6016,-219.2869"/>
<polygon fill="#191970" stroke="#191970" points="693.022,-216.0879 682.4724,-215.1105 690.1099,-222.4534 693.022,-216.0879"/>
</g>
<!-- Node42 -->
<g id="node43" class="node">
<title>Node42</title>
<g id="a_node43"><a xlink:href="incflo__prob___i_8_h.html" target="_top" xlink:title="amr&#45;wind/prob/incflo\l_prob_I.H">
<polygon fill="#ffffff" stroke="#000000" points="1309.1421,-257.5 1309.1421,-287.5 1413.1421,-287.5 1413.1421,-257.5 1309.1421,-257.5"/>
<text text-anchor="start" x="1317.1421" y="-275.5" font-family="Helvetica,sans-Serif" font-size="10.00" fill="#000000">amr&#45;wind/prob/incflo</text>
<text text-anchor="middle" x="1361.1421" y="-264.5" font-family="Helvetica,sans-Serif" font-size="10.00" fill="#000000">_prob_I.H</text>
</a>
</g>
</g>
<!-- Node6&#45;&gt;Node42 -->
<g id="edge79" class="edge">
<title>Node6&#45;&gt;Node42</title>
<path fill="none" stroke="#191970" d="M1246.3921,-324.3906C1265.6501,-315.682 1294.6042,-302.5888 1318.6091,-291.7336"/>
<polygon fill="#191970" stroke="#191970" points="1320.2032,-294.8541 1327.8727,-287.5446 1317.3189,-288.4759 1320.2032,-294.8541"/>
</g>
<!-- Node12&#45;&gt;Node3 -->
<g id="edge14" class="edge">
<title>Node12&#45;&gt;Node3</title>
<path fill="none" stroke="#191970" d="M1555.6142,-262.9938C1545.3413,-246.0905 1521.7325,-210.6468 1493.1421,-190 1468.1334,-171.9398 1435.967,-159.2608 1409.5325,-151.0028"/>
<polygon fill="#191970" stroke="#191970" points="1410.2929,-147.5768 1399.7088,-148.0522 1408.2793,-154.2809 1410.2929,-147.5768"/>
</g>
<!-- Node12&#45;&gt;Node13 -->
<g id="edge15" class="edge">
<title>Node12&#45;&gt;Node13</title>
<path fill="none" stroke="#191970" d="M1600.5352,-262.9717C1649.9283,-251.0246 1734.6364,-230.5357 1788.437,-217.5225"/>
<polygon fill="#191970" stroke="#191970" points="1789.5394,-220.8569 1798.4363,-215.1039 1787.8937,-214.0531 1789.5394,-220.8569"/>
</g>
<!-- Node12&#45;&gt;Node17 -->
<g id="edge19" class="edge">
<title>Node12&#45;&gt;Node17</title>
<path fill="none" stroke="#191970" d="M1507.0822,-265.7538C1481.3835,-262.7308 1450.2121,-259.3299 1422.1421,-257 1129.8217,-232.7366 1054.9002,-251.2833 763.1421,-221 751.6782,-219.8101 739.528,-218.2259 727.7781,-216.5241"/>
<polygon fill="#191970" stroke="#191970" points="727.9895,-213.017 717.5829,-215.0052 726.958,-219.9406 727.9895,-213.017"/>
</g>
<!-- Node32 -->
<g id="node33" class="node">
<title>Node32</title>
<g id="a_node33"><a xlink:href="_p_d_e_base_8_h.html" target="_top" xlink:title="amr&#45;wind/equation_systems\l/PDEBase.H">
<polygon fill="#ffffff" stroke="#000000" points="1480.6421,-123.5 1480.6421,-153.5 1619.6421,-153.5 1619.6421,-123.5 1480.6421,-123.5"/>
<text text-anchor="start" x="1488.6421" y="-141.5" font-family="Helvetica,sans-Serif" font-size="10.00" fill="#000000">amr&#45;wind/equation_systems</text>
<text text-anchor="middle" x="1550.1421" y="-130.5" font-family="Helvetica,sans-Serif" font-size="10.00" fill="#000000">/PDEBase.H</text>
</a>
</g>
</g>
<!-- Node12&#45;&gt;Node32 -->
<g id="edge55" class="edge">
<title>Node12&#45;&gt;Node32</title>
<path fill="none" stroke="#191970" d="M1560.351,-262.8631C1558.6662,-242.3397 1554.6772,-193.7457 1552.2139,-163.7388"/>
<polygon fill="#191970" stroke="#191970" points="1555.689,-163.2911 1551.3825,-153.611 1548.7125,-163.8639 1555.689,-163.2911"/>
</g>
<!-- Node40 -->
<g id="node41" class="node">
<title>Node40</title>
<g id="a_node41"><a xlink:href="_physics_8_h.html" target="_top" xlink:title="amr&#45;wind/core/Physics.H">
<polygon fill="#ffffff" stroke="#000000" points="1637.6421,-129 1637.6421,-148 1764.6421,-148 1764.6421,-129 1637.6421,-129"/>
<text text-anchor="middle" x="1701.1421" y="-136" font-family="Helvetica,sans-Serif" font-size="10.00" fill="#000000">amr&#45;wind/core/Physics.H</text>
</a>
</g>
</g>
<!-- Node12&#45;&gt;Node40 -->
<g id="edge72" class="edge">
<title>Node12&#45;&gt;Node40</title>
<path fill="none" stroke="#191970" d="M1571.2105,-262.8631C1594.8217,-240.2638 1653.9936,-183.6278 1683.6401,-155.2519"/>
<polygon fill="#191970" stroke="#191970" points="1686.3607,-157.4927 1691.1648,-148.0496 1681.5205,-152.4358 1686.3607,-157.4927"/>
</g>
<!-- Node14 -->
<g id="node15" class="node">
<title>Node14</title>
<polygon fill="#ffffff" stroke="#bfbfbf" points="1911.6421,-129 1911.6421,-148 2004.6421,-148 2004.6421,-129 1911.6421,-129"/>
<text text-anchor="middle" x="1958.1421" y="-136" font-family="Helvetica,sans-Serif" font-size="10.00" fill="#000000">AMReX_REAL.H</text>
</g>
<!-- Node13&#45;&gt;Node14 -->
<g id="edge16" class="edge">
<title>Node13&#45;&gt;Node14</title>
<path fill="none" stroke="#191970" d="M1855.3351,-195.9005C1875.3847,-184.7062 1908.7409,-166.0823 1932.0023,-153.0947"/>
<polygon fill="#191970" stroke="#191970" points="1933.9559,-156.0126 1940.9809,-148.0817 1930.5434,-149.9007 1933.9559,-156.0126"/>
</g>
<!-- Node15 -->
<g id="node16" class="node">
<title>Node15</title>
<polygon fill="#ffffff" stroke="#bfbfbf" points="2023.1421,-129 2023.1421,-148 2149.1421,-148 2149.1421,-129 2023.1421,-129"/>
<text text-anchor="middle" x="2086.1421" y="-136" font-family="Helvetica,sans-Serif" font-size="10.00" fill="#000000">AMReX_GpuQualifiers.H</text>
</g>
<!-- Node13&#45;&gt;Node15 -->
<g id="edge17" class="edge">
<title>Node13&#45;&gt;Node15</title>
<path fill="none" stroke="#191970" d="M1873.411,-195.9717C1917.3572,-184.0991 1992.528,-163.7909 2040.7363,-150.7669"/>
<polygon fill="#191970" stroke="#191970" points="2041.8522,-154.091 2050.5932,-148.1039 2040.0265,-147.3332 2041.8522,-154.091"/>
</g>
<!-- Node16 -->
<g id="node17" class="node">
<title>Node16</title>
<polygon fill="#ffffff" stroke="#bfbfbf" points="1783.1421,-129 1783.1421,-148 1893.1421,-148 1893.1421,-129 1783.1421,-129"/>
<text text-anchor="middle" x="1838.1421" y="-136" font-family="Helvetica,sans-Serif" font-size="10.00" fill="#000000">AMReX_Extension.H</text>
</g>
<!-- Node13&#45;&gt;Node16 -->
<g id="edge18" class="edge">
<title>Node13&#45;&gt;Node16</title>
<path fill="none" stroke="#191970" d="M1838.1421,-195.9005C1838.1421,-186.149 1838.1421,-170.7597 1838.1421,-158.3695"/>
<polygon fill="#191970" stroke="#191970" points="1841.6422,-158.0816 1838.1421,-148.0817 1834.6422,-158.0817 1841.6422,-158.0816"/>
</g>
<!-- Node17&#45;&gt;Node3 -->
<g id="edge52" class="edge">
<title>Node17&#45;&gt;Node3</title>
<path fill="none" stroke="#191970" d="M718.6539,-195.9663C733.1245,-193.7621 748.6833,-191.5976 763.1421,-190 997.8122,-164.0701 1059.6102,-188.7175 1293.1421,-154 1299.8863,-152.9974 1306.9558,-151.6707 1313.8699,-150.2145"/>
<polygon fill="#191970" stroke="#191970" points="1314.8244,-153.588 1323.8325,-148.0109 1313.3126,-146.7532 1314.8244,-153.588"/>
</g>
<!-- Node17&#45;&gt;Node9 -->
<g id="edge54" class="edge">
<title>Node17&#45;&gt;Node9</title>
<path fill="none" stroke="#191970" d="M594.0768,-203.1753C477.5284,-198.4026 245.0645,-185.2015 170.1421,-154 135.0285,-139.3769 102.5044,-108.4168 84.2933,-88.8597"/>
<polygon fill="#191970" stroke="#191970" points="86.7093,-86.3137 77.399,-81.2571 81.5239,-91.016 86.7093,-86.3137"/>
</g>
<!-- Node18 -->
<g id="node19" class="node">
<title>Node18</title>
<polygon fill="#ffffff" stroke="#bfbfbf" points="1026.6421,-.5 1026.6421,-19.5 1067.6421,-19.5 1067.6421,-.5 1026.6421,-.5"/>
<text text-anchor="middle" x="1047.1421" y="-7.5" font-family="Helvetica,sans-Serif" font-size="10.00" fill="#000000">string</text>
</g>
<!-- Node17&#45;&gt;Node18 -->
<g id="edge20" class="edge">
<title>Node17&#45;&gt;Node18</title>
<path fill="none" stroke="#191970" d="M721.3617,-195.9698C735.0646,-193.8875 749.5983,-191.7771 763.1421,-190 909.4249,-170.8055 955.8201,-207.9424 1093.1421,-154 1139.5565,-135.7676 1160.7614,-131.5626 1183.1421,-87 1189.3256,-74.6878 1191.1734,-67.1948 1183.1421,-56 1170.6784,-38.6271 1113.8383,-23.8798 1077.6995,-16.0416"/>
<polygon fill="#191970" stroke="#191970" points="1078.1721,-12.5644 1067.6652,-13.9266 1076.7282,-19.4139 1078.1721,-12.5644"/>
</g>
<!-- Node19 -->
<g id="node20" class="node">
<title>Node19</title>
<polygon fill="#ffffff" stroke="#bfbfbf" points="1389.6421,-.5 1389.6421,-19.5 1472.6421,-19.5 1472.6421,-.5 1389.6421,-.5"/>
<text text-anchor="middle" x="1431.1421" y="-7.5" font-family="Helvetica,sans-Serif" font-size="10.00" fill="#000000">unordered_map</text>
</g>
<!-- Node17&#45;&gt;Node19 -->
<g id="edge21" class="edge">
<title>Node17&#45;&gt;Node19</title>
<path fill="none" stroke="#191970" d="M720.545,-195.9599C734.4818,-193.8433 749.3228,-191.7205 763.1421,-190 929.7312,-169.2592 977.7367,-200.1568 1139.1421,-154 1233.164,-127.1127 1248.3552,-99.0874 1336.1421,-56 1358.1352,-45.2054 1383.0671,-33.1395 1401.8698,-24.0744"/>
<polygon fill="#191970" stroke="#191970" points="1403.6055,-27.1233 1411.0957,-19.6301 1400.5676,-20.8168 1403.6055,-27.1233"/>
</g>
<!-- Node20 -->
<g id="node21" class="node">
<title>Node20</title>
<g id="a_node21"><a xlink:href="_field_desc_types_8_h.html" target="_top" xlink:title="amr&#45;wind/core/FieldDescTypes.H">
<polygon fill="#ffffff" stroke="#000000" points="335.6421,-.5 335.6421,-19.5 498.6421,-19.5 498.6421,-.5 335.6421,-.5"/>
<text text-anchor="middle" x="417.1421" y="-7.5" font-family="Helvetica,sans-Serif" font-size="10.00" fill="#000000">amr&#45;wind/core/FieldDescTypes.H</text>
</a>
</g>
</g>
<!-- Node17&#45;&gt;Node20 -->
<g id="edge22" class="edge">
<title>Node17&#45;&gt;Node20</title>
<path fill="none" stroke="#191970" d="M593.8599,-202.7938C468.0973,-197.1906 204.7963,-182.4038 118.1421,-154 63.0229,-135.9329 34.7541,-137.4569 6.1421,-87 -.6541,-75.015 -3.0425,-66.2699 6.1421,-56 8.7971,-53.0312 205.379,-32.0627 325.6744,-19.4838"/>
<polygon fill="#191970" stroke="#191970" points="326.0508,-22.9636 335.6329,-18.4434 325.3233,-16.0015 326.0508,-22.9636"/>
</g>
<!-- Node21 -->
<g id="node22" class="node">
<title>Node21</title>
<g id="a_node22"><a xlink:href="_field_utils_8_h.html" target="_top" xlink:title="amr&#45;wind/core/FieldUtils.H">
<polygon fill="#ffffff" stroke="#000000" points="179.6421,-62 179.6421,-81 312.6421,-81 312.6421,-62 179.6421,-62"/>
<text text-anchor="middle" x="246.1421" y="-69" font-family="Helvetica,sans-Serif" font-size="10.00" fill="#000000">amr&#45;wind/core/FieldUtils.H</text>
</a>
</g>
</g>
<!-- Node17&#45;&gt;Node21 -->
<g id="edge23" class="edge">
<title>Node17&#45;&gt;Node21</title>
<path fill="none" stroke="#191970" d="M594.0816,-202.0674C532.3438,-197.0305 439.8349,-184.6109 365.1421,-154 344.3777,-145.4903 294.6993,-108.7258 266.5343,-87.2544"/>
<polygon fill="#191970" stroke="#191970" points="268.6067,-84.4331 258.5399,-81.13 264.3497,-89.9899 268.6067,-84.4331"/>
</g>
<!-- Node22 -->
<g id="node23" class="node">
<title>Node22</title>
<polygon fill="#ffffff" stroke="#bfbfbf" points="647.1421,-.5 647.1421,-19.5 751.1421,-19.5 751.1421,-.5 647.1421,-.5"/>
<text text-anchor="middle" x="699.1421" y="-7.5" font-family="Helvetica,sans-Serif" font-size="10.00" fill="#000000">AMReX_MultiFab.H</text>
</g>
<!-- Node17&#45;&gt;Node22 -->
<g id="edge53" class="edge">
<title>Node17&#45;&gt;Node22</title>
<path fill="none" stroke="#191970" d="M619.3993,-195.9669C538.7314,-176.0844 377.2028,-126.1428 436.1421,-56 461.2438,-26.1268 567.0765,-15.6507 636.5989,-11.9789"/>
<polygon fill="#191970" stroke="#191970" points="637.1874,-15.4542 647.0027,-11.4655 636.8424,-8.4627 637.1874,-15.4542"/>
</g>
<!-- Node24 -->
<g id="node25" class="node">
<title>Node24</title>
<g id="a_node25"><a xlink:href="_field_8_h.html" target="_top" xlink:title="amr&#45;wind/core/Field.H">
<polygon fill="#ffffff" stroke="#000000" points="971.6421,-129 971.6421,-148 1084.6421,-148 1084.6421,-129 971.6421,-129"/>
<text text-anchor="middle" x="1028.1421" y="-136" font-family="Helvetica,sans-Serif" font-size="10.00" fill="#000000">amr&#45;wind/core/Field.H</text>
</a>
</g>
</g>
<!-- Node17&#45;&gt;Node24 -->
<g id="edge27" class="edge">
<title>Node17&#45;&gt;Node24</title>
<path fill="none" stroke="#191970" d="M714.1922,-195.9717C780.4991,-183.8335 894.9723,-162.8781 965.846,-149.9039"/>
<polygon fill="#191970" stroke="#191970" points="966.7692,-153.2932 975.9755,-148.0496 965.5086,-146.4076 966.7692,-153.2932"/>
</g>
<!-- Node29 -->
<g id="node30" class="node">
<title>Node29</title>
<g id="a_node30"><a xlink:href="_int_field_8_h.html" target="_top" xlink:title="amr&#45;wind/core/IntField.H">
<polygon fill="#ffffff" stroke="#000000" points="179.1421,-129 179.1421,-148 303.1421,-148 303.1421,-129 179.1421,-129"/>
<text text-anchor="middle" x="241.1421" y="-136" font-family="Helvetica,sans-Serif" font-size="10.00" fill="#000000">amr&#45;wind/core/IntField.H</text>
</a>
</g>
</g>
<!-- Node17&#45;&gt;Node29 -->
<g id="edge41" class="edge">
<title>Node17&#45;&gt;Node29</title>
<path fill="none" stroke="#191970" d="M595.3389,-195.9936C527.0799,-186.1223 418.0714,-169.9218 324.1421,-154 316.5205,-152.7081 308.517,-151.2907 300.6123,-149.8544"/>
<polygon fill="#191970" stroke="#191970" points="301.1562,-146.3958 290.6886,-148.0329 299.8924,-153.2808 301.1562,-146.3958"/>
</g>
<!-- Node30 -->
<g id="node31" class="node">
<title>Node30</title>
<g id="a_node31"><a xlink:href="_scratch_field_8_h.html" target="_top" xlink:title="amr&#45;wind/core/ScratchField.H">
<polygon fill="#ffffff" stroke="#000000" points="566.1421,-129 566.1421,-148 712.1421,-148 712.1421,-129 566.1421,-129"/>
<text text-anchor="middle" x="639.1421" y="-136" font-family="Helvetica,sans-Serif" font-size="10.00" fill="#000000">amr&#45;wind/core/ScratchField.H</text>
</a>
</g>
</g>
<!-- Node17&#45;&gt;Node30 -->
<g id="edge45" class="edge">
<title>Node17&#45;&gt;Node30</title>
<path fill="none" stroke="#191970" d="M658.8467,-195.9005C655.4309,-185.95 649.9999,-170.1292 645.7038,-157.6147"/>
<polygon fill="#191970" stroke="#191970" points="648.9886,-156.4035 642.4313,-148.0817 642.3678,-158.6763 648.9886,-156.4035"/>
</g>
<!-- Node21&#45;&gt;Node20 -->
<g id="edge24" class="edge">
<title>Node21&#45;&gt;Node20</title>
<path fill="none" stroke="#191970" d="M272.8608,-61.8906C301.9742,-51.42 348.7113,-34.6111 381.0667,-22.9745"/>
<polygon fill="#191970" stroke="#191970" points="382.3855,-26.2197 390.6109,-19.5419 380.0165,-19.6328 382.3855,-26.2197"/>
</g>
<!-- Node21&#45;&gt;Node22 -->
<g id="edge25" class="edge">
<title>Node21&#45;&gt;Node22</title>
<path fill="none" stroke="#191970" d="M293.1649,-61.9574C304.281,-59.8526 316.11,-57.7357 327.1421,-56 435.6607,-38.9266 562.8176,-24.3681 636.8452,-16.4317"/>
<polygon fill="#191970" stroke="#191970" points="637.3583,-19.8969 646.9307,-15.3562 636.616,-12.9364 637.3583,-19.8969"/>
</g>
<!-- Node23 -->
<g id="node24" class="node">
<title>Node23</title>
<polygon fill="#ffffff" stroke="#bfbfbf" points="188.1421,-.5 188.1421,-19.5 304.1421,-19.5 304.1421,-.5 188.1421,-.5"/>
<text text-anchor="middle" x="246.1421" y="-7.5" font-family="Helvetica,sans-Serif" font-size="10.00" fill="#000000">AMReX_Interpolater.H</text>
</g>
<!-- Node21&#45;&gt;Node23 -->
<g id="edge26" class="edge">
<title>Node21&#45;&gt;Node23</title>
<path fill="none" stroke="#191970" d="M246.1421,-61.8906C246.1421,-53.3657 246.1421,-40.6392 246.1421,-29.9235"/>
<polygon fill="#191970" stroke="#191970" points="249.6422,-29.7448 246.1421,-19.7449 242.6422,-29.7449 249.6422,-29.7448"/>
</g>
<!-- Node24&#45;&gt;Node5 -->
<g id="edge33" class="edge">
<title>Node24&#45;&gt;Node5</title>
<path fill="none" stroke="#191970" d="M984.4376,-128.9296C939.3909,-118.9428 867.1847,-102.5936 805.1421,-87 801.0021,-85.9595 796.7015,-84.8475 792.4019,-83.7149"/>
<polygon fill="#191970" stroke="#191970" points="793.0118,-80.2553 782.4474,-81.0585 791.2068,-87.0186 793.0118,-80.2553"/>
</g>
<!-- Node24&#45;&gt;Node11 -->
<g id="edge34" class="edge">
<title>Node24&#45;&gt;Node11</title>
<path fill="none" stroke="#191970" d="M1084.9072,-129.3355C1145.8518,-119.3833 1245.477,-102.7886 1331.1421,-87 1337.8928,-85.7558 1344.9634,-84.4103 1351.975,-83.0496"/>
<polygon fill="#191970" stroke="#191970" points="1353.0203,-86.4115 1362.1616,-81.0554 1351.6754,-79.5419 1353.0203,-86.4115"/>
</g>
<!-- Node24&#45;&gt;Node18 -->
<g id="edge28" class="edge">
<title>Node24&#45;&gt;Node18</title>
<path fill="none" stroke="#191970" d="M1029.5701,-128.8416C1032.6649,-107.9114 1040.0442,-58.004 1044.1884,-29.9762"/>
<polygon fill="#191970" stroke="#191970" points="1047.697,-30.1749 1045.6974,-19.7705 1040.7723,-29.1509 1047.697,-30.1749"/>
</g>
<!-- Node24&#45;&gt;Node19 -->
<g id="edge30" class="edge">
<title>Node24&#45;&gt;Node19</title>
<path fill="none" stroke="#191970" d="M1057.9793,-128.9843C1089.2807,-118.9088 1139.8518,-102.3675 1183.1421,-87 1219.859,-73.9659 1228.108,-68.1037 1265.1421,-56 1304.4275,-43.1605 1349.6757,-30.7775 1382.9992,-22.1001"/>
<polygon fill="#191970" stroke="#191970" points="1384.1331,-25.4221 1392.9383,-19.5297 1382.3804,-18.6451 1384.1331,-25.4221"/>
</g>
<!-- Node24&#45;&gt;Node20 -->
<g id="edge35" class="edge">
<title>Node24&#45;&gt;Node20</title>
<path fill="none" stroke="#191970" d="M971.5018,-129.4102C932.5309,-121.6808 880.3834,-108.3589 838.1421,-87 818.3824,-77.0087 819.5729,-64.5352 799.1421,-56 748.3932,-34.799 604.8718,-21.8396 508.9285,-15.2914"/>
<polygon fill="#191970" stroke="#191970" points="509.1394,-11.7978 498.9274,-14.6202 508.6706,-18.782 509.1394,-11.7978"/>
</g>
<!-- Node24&#45;&gt;Node22 -->
<g id="edge31" class="edge">
<title>Node24&#45;&gt;Node22</title>
<path fill="none" stroke="#191970" d="M1026.6812,-128.7609C1023.4898,-111.1556 1014.1565,-74.179 990.1421,-56 955.0879,-29.4639 835.8834,-17.8235 761.3573,-13.0395"/>
<polygon fill="#191970" stroke="#191970" points="761.348,-9.5324 751.1513,-12.4092 760.9164,-16.5191 761.348,-9.5324"/>
</g>
<!-- Node25 -->
<g id="node26" class="node">
<title>Node25</title>
<polygon fill="#ffffff" stroke="#bfbfbf" points="1642.1421,-.5 1642.1421,-19.5 1694.1421,-19.5 1694.1421,-.5 1642.1421,-.5"/>
<text text-anchor="middle" x="1668.1421" y="-7.5" font-family="Helvetica,sans-Serif" font-size="10.00" fill="#000000">memory</text>
</g>
<!-- Node24&#45;&gt;Node25 -->
<g id="edge29" class="edge">
<title>Node24&#45;&gt;Node25</title>
<path fill="none" stroke="#191970" d="M1070.5897,-128.9556C1113.1601,-119.1809 1180.4922,-103.1681 1238.1421,-87 1282.1277,-74.6641 1291.5806,-66.0595 1336.1421,-56 1442.1636,-32.0663 1570.2155,-18.5695 1631.7082,-13.0209"/>
<polygon fill="#191970" stroke="#191970" points="1632.3927,-16.4741 1642.0455,-12.1068 1631.7761,-9.5013 1632.3927,-16.4741"/>
</g>
<!-- Node26 -->
<g id="node27" class="node">
<title>Node26</title>
<polygon fill="#ffffff" stroke="#bfbfbf" points="1075.6421,-62 1075.6421,-81 1174.6421,-81 1174.6421,-62 1075.6421,-62"/>
<text text-anchor="middle" x="1125.1421" y="-69" font-family="Helvetica,sans-Serif" font-size="10.00" fill="#000000">AMReX_BCRec.H</text>
</g>
<!-- Node24&#45;&gt;Node26 -->
<g id="edge32" class="edge">
<title>Node24&#45;&gt;Node26</title>
<path fill="none" stroke="#191970" d="M1042.0398,-128.9005C1057.9584,-117.9052 1084.2542,-99.7422 1103.0019,-86.7927"/>
<polygon fill="#191970" stroke="#191970" points="1105.0312,-89.6448 1111.2701,-81.0817 1101.0529,-83.8852 1105.0312,-89.6448"/>
</g>
<!-- Node27 -->
<g id="node28" class="node">
<title>Node27</title>
<g id="a_node28"><a xlink:href="_view_field_8_h.html" target="_top" xlink:title="amr&#45;wind/core/ViewField.H">
<polygon fill="#ffffff" stroke="#000000" points="847.1421,-62 847.1421,-81 981.1421,-81 981.1421,-62 847.1421,-62"/>
<text text-anchor="middle" x="914.1421" y="-69" font-family="Helvetica,sans-Serif" font-size="10.00" fill="#000000">amr&#45;wind/core/ViewField.H</text>
</a>
</g>
</g>
<!-- Node24&#45;&gt;Node27 -->
<g id="edge36" class="edge">
<title>Node24&#45;&gt;Node27</title>
<path fill="none" stroke="#191970" d="M1011.8086,-128.9005C992.8462,-117.7559 961.3546,-99.2477 939.2701,-86.2682"/>
<polygon fill="#191970" stroke="#191970" points="940.8399,-83.1311 930.4452,-81.0817 937.293,-89.1661 940.8399,-83.1311"/>
</g>
<!-- Node27&#45;&gt;Node18 -->
<g id="edge37" class="edge">
<title>Node27&#45;&gt;Node18</title>
<path fill="none" stroke="#191970" d="M934.9233,-61.8906C956.9814,-51.6908 992.0471,-35.4763 1017.109,-23.8875"/>
<polygon fill="#191970" stroke="#191970" points="1018.8991,-26.9158 1026.5067,-19.5419 1015.9611,-20.5622 1018.8991,-26.9158"/>
</g>
<!-- Node27&#45;&gt;Node20 -->
<g id="edge38" class="edge">
<title>Node27&#45;&gt;Node20</title>
<path fill="none" stroke="#191970" d="M867.5624,-61.9349C856.3219,-59.8072 844.3267,-57.6858 833.1421,-56 721.981,-39.245 593.2438,-25.941 508.7734,-18.0362"/>
<polygon fill="#191970" stroke="#191970" points="508.9768,-14.5401 498.6957,-17.0991 508.3287,-21.5101 508.9768,-14.5401"/>
</g>
<!-- Node27&#45;&gt;Node22 -->
<g id="edge39" class="edge">
<title>Node27&#45;&gt;Node22</title>
<path fill="none" stroke="#191970" d="M880.5483,-61.8906C843.2337,-51.2169 782.8928,-33.9566 742.1534,-22.3033"/>
<polygon fill="#191970" stroke="#191970" points="743.0769,-18.9271 732.4999,-19.5419 741.1517,-25.6572 743.0769,-18.9271"/>
</g>
<!-- Node28 -->
<g id="node29" class="node">
<title>Node28</title>
<polygon fill="#ffffff" stroke="#bfbfbf" points="866.6421,-.5 866.6421,-19.5 961.6421,-19.5 961.6421,-.5 866.6421,-.5"/>
<text text-anchor="middle" x="914.1421" y="-7.5" font-family="Helvetica,sans-Serif" font-size="10.00" fill="#000000">AMReX_Vector.H</text>
</g>
<!-- Node27&#45;&gt;Node28 -->
<g id="edge40" class="edge">
<title>Node27&#45;&gt;Node28</title>
<path fill="none" stroke="#191970" d="M914.1421,-61.8906C914.1421,-53.3657 914.1421,-40.6392 914.1421,-29.9235"/>
<polygon fill="#191970" stroke="#191970" points="917.6422,-29.7448 914.1421,-19.7449 910.6422,-29.7449 917.6422,-29.7448"/>
</g>
<!-- Node29&#45;&gt;Node9 -->
<g id="edge44" class="edge">
<title>Node29&#45;&gt;Node9</title>
<path fill="none" stroke="#191970" d="M216.4987,-128.9005C186.7391,-117.3082 136.5264,-97.7486 103.1091,-84.7313"/>
<polygon fill="#191970" stroke="#191970" points="104.3282,-81.4501 93.7398,-81.0817 101.7874,-87.9727 104.3282,-81.4501"/>
</g>
<!-- Node29&#45;&gt;Node18 -->
<g id="edge42" class="edge">
<title>Node29&#45;&gt;Node18</title>
<path fill="none" stroke="#191970" d="M258.2191,-128.956C291.3403,-110.9799 367.1263,-72.4348 436.1421,-56 667.5436,-.8961 733.4167,-43.3288 970.1421,-20 985.4293,-18.4935 1002.3637,-16.3468 1016.4499,-14.4283"/>
<polygon fill="#191970" stroke="#191970" points="1017.1684,-17.8622 1026.592,-13.0201 1016.2057,-10.9287 1017.1684,-17.8622"/>
</g>
<!-- Node29&#45;&gt;Node20 -->
<g id="edge43" class="edge">
<title>Node29&#45;&gt;Node20</title>
<path fill="none" stroke="#191970" d="M222.1792,-128.9392C194.3211,-113.6621 147.9204,-82.7422 170.1421,-56 180.4999,-43.535 262.0795,-30.0394 328.6944,-20.911"/>
<polygon fill="#191970" stroke="#191970" points="329.3831,-24.3498 338.8234,-19.5404 328.4444,-17.413 329.3831,-24.3498"/>
</g>
<!-- Node30&#45;&gt;Node18 -->
<g id="edge46" class="edge">
<title>Node30&#45;&gt;Node18</title>
<path fill="none" stroke="#191970" d="M642.6996,-128.8759C649.8164,-111.1169 667.6157,-73.4212 696.1421,-56 696.5709,-55.7381 930.9151,-25.157 1016.4029,-14.008"/>
<polygon fill="#191970" stroke="#191970" points="1017.0616,-17.4518 1026.525,-12.688 1016.1563,-10.5106 1017.0616,-17.4518"/>
</g>
<!-- Node30&#45;&gt;Node20 -->
<g id="edge47" class="edge">
<title>Node30&#45;&gt;Node20</title>
<path fill="none" stroke="#191970" d="M571.6229,-128.9711C520.21,-120.3659 455.1373,-106.1197 436.1421,-87 421.1762,-71.936 417.3465,-47.0779 416.6669,-29.6927"/>
<polygon fill="#191970" stroke="#191970" points="420.1657,-29.4985 416.5899,-19.5253 413.1659,-29.5516 420.1657,-29.4985"/>
</g>
<!-- Node30&#45;&gt;Node22 -->
<g id="edge49" class="edge">
<title>Node30&#45;&gt;Node22</title>
<path fill="none" stroke="#191970" d="M633.7626,-128.9257C625.4974,-112.8209 611.9436,-79.7452 625.1421,-56 633.0999,-41.6832 647.5649,-31.2479 661.6087,-23.972"/>
<polygon fill="#191970" stroke="#191970" points="663.1822,-27.0993 670.704,-19.6379 660.1709,-20.7801 663.1822,-27.0993"/>
</g>
<!-- Node30&#45;&gt;Node27 -->
<g id="edge48" class="edge">
<title>Node30&#45;&gt;Node27</title>
<path fill="none" stroke="#191970" d="M678.2508,-128.9717C727.2872,-117.0246 811.3838,-96.5357 864.7959,-83.5225"/>
<polygon fill="#191970" stroke="#191970" points="865.8357,-86.8716 874.723,-81.1039 864.1787,-80.0706 865.8357,-86.8716"/>
</g>
<!-- Node30&#45;&gt;Node28 -->
<g id="edge50" class="edge">
<title>Node30&#45;&gt;Node28</title>
<path fill="none" stroke="#191970" d="M638.9085,-128.9379C639.0444,-111.6206 641.9967,-75.0946 663.1421,-56 690.9194,-30.9167 791.3673,-18.9057 856.4601,-13.6379"/>
<polygon fill="#191970" stroke="#191970" points="856.8889,-17.1152 866.587,-12.8494 856.3454,-10.1363 856.8889,-17.1152"/>
</g>
<!-- Node31 -->
<g id="node32" class="node">
<title>Node31</title>
<polygon fill="#ffffff" stroke="#bfbfbf" points="445.1421,-62 445.1421,-81 573.1421,-81 573.1421,-62 445.1421,-62"/>
<text text-anchor="middle" x="509.1421" y="-69" font-family="Helvetica,sans-Serif" font-size="10.00" fill="#000000">AMReX_PhysBCFunct.H</text>
</g>
<!-- Node30&#45;&gt;Node31 -->
<g id="edge51" class="edge">
<title>Node30&#45;&gt;Node31</title>
<path fill="none" stroke="#191970" d="M620.5162,-128.9005C598.6028,-117.6067 562.0164,-98.7506 536.7908,-85.7497"/>
<polygon fill="#191970" stroke="#191970" points="538.2257,-82.5518 527.7333,-81.0817 535.0188,-88.774 538.2257,-82.5518"/>
</g>
<!-- Node32&#45;&gt;Node11 -->
<g id="edge71" class="edge">
<title>Node32&#45;&gt;Node11</title>
<path fill="none" stroke="#191970" d="M1518.4989,-123.4639C1494.5212,-112.0702 1461.8227,-96.5327 1438.4403,-85.4219"/>
<polygon fill="#191970" stroke="#191970" points="1439.8876,-82.2346 1429.3533,-81.1039 1436.8833,-88.5571 1439.8876,-82.2346"/>
</g>
<!-- Node32&#45;&gt;Node18 -->
<g id="edge56" class="edge">
<title>Node32&#45;&gt;Node18</title>
<path fill="none" stroke="#191970" d="M1548.384,-123.4636C1545.2861,-104.3832 1536.9566,-72.0316 1515.1421,-56 1479.9497,-30.1369 1176.6199,-15.3714 1077.9871,-11.2208"/>
<polygon fill="#191970" stroke="#191970" points="1077.9187,-7.7151 1067.7826,-10.7988 1077.6294,-14.7091 1077.9187,-7.7151"/>
</g>
<!-- Node32&#45;&gt;Node20 -->
<g id="edge70" class="edge">
<title>Node32&#45;&gt;Node20</title>
<path fill="none" stroke="#191970" d="M1539.9242,-123.3341C1524.9453,-101.6287 1497.1786,-63.488 1482.1421,-56 1398.1209,-14.1584 731.9146,-24.1214 638.1421,-20 595.6966,-18.1345 548.6683,-16.014 508.9431,-14.2072"/>
<polygon fill="#191970" stroke="#191970" points="508.8918,-10.7013 498.7429,-13.7428 508.5734,-17.6941 508.8918,-10.7013"/>
</g>
<!-- Node33 -->
<g id="node34" class="node">
<title>Node33</title>
<g id="a_node34"><a xlink:href="_factory_8_h.html" target="_top" xlink:title="amr&#45;wind/core/Factory.H">
<polygon fill="#ffffff" stroke="#000000" points="1905.6421,-62 1905.6421,-81 2030.6421,-81 2030.6421,-62 1905.6421,-62"/>
<text text-anchor="middle" x="1968.1421" y="-69" font-family="Helvetica,sans-Serif" font-size="10.00" fill="#000000">amr&#45;wind/core/Factory.H</text>
</a>
</g>
</g>
<!-- Node32&#45;&gt;Node33 -->
<g id="edge57" class="edge">
<title>Node32&#45;&gt;Node33</title>
<path fill="none" stroke="#191970" d="M1619.8877,-124.5793C1623.0124,-124.0302 1626.1082,-123.5009 1629.1421,-123 1747.7176,-103.4218 1778.7807,-107.8337 1897.1421,-87 1903.7374,-85.8391 1910.65,-84.4933 1917.4648,-83.0891"/>
<polygon fill="#191970" stroke="#191970" points="1918.2703,-86.4963 1927.3309,-81.0049 1916.8234,-79.6474 1918.2703,-86.4963"/>
</g>
<!-- Node37 -->
<g id="node38" class="node">
<title>Node37</title>
<g id="a_node38"><a xlink:href="_coll_mgr_8_h.html" target="_top" xlink:title="amr&#45;wind/core/CollMgr.H">
<polygon fill="#ffffff" stroke="#000000" points="1605.6421,-62 1605.6421,-81 1730.6421,-81 1730.6421,-62 1605.6421,-62"/>
<text text-anchor="middle" x="1668.1421" y="-69" font-family="Helvetica,sans-Serif" font-size="10.00" fill="#000000">amr&#45;wind/core/CollMgr.H</text>
</a>
</g>
</g>
<!-- Node32&#45;&gt;Node37 -->
<g id="edge63" class="edge">
<title>Node32&#45;&gt;Node37</title>
<path fill="none" stroke="#191970" d="M1576.6236,-123.4639C1596.2441,-112.3234 1622.8421,-97.2212 1642.307,-86.1691"/>
<polygon fill="#191970" stroke="#191970" points="1644.2598,-89.0851 1651.2277,-81.1039 1640.8035,-82.9979 1644.2598,-89.0851"/>
</g>
<!-- Node38 -->
<g id="node39" class="node">
<title>Node38</title>
<g id="a_node39"><a xlink:href="_p_d_e_fields_8_h.html" target="_top" xlink:title="amr&#45;wind/equation_systems\l/PDEFields.H">
<polygon fill="#ffffff" stroke="#000000" points="1748.6421,-56.5 1748.6421,-86.5 1887.6421,-86.5 1887.6421,-56.5 1748.6421,-56.5"/>
<text text-anchor="start" x="1756.6421" y="-74.5" font-family="Helvetica,sans-Serif" font-size="10.00" fill="#000000">amr&#45;wind/equation_systems</text>
<text text-anchor="middle" x="1818.1421" y="-63.5" font-family="Helvetica,sans-Serif" font-size="10.00" fill="#000000">/PDEFields.H</text>
</a>
</g>
</g>
<!-- Node32&#45;&gt;Node38 -->
<g id="edge68" class="edge">
<title>Node32&#45;&gt;Node38</title>
<path fill="none" stroke="#191970" d="M1610.2865,-123.4639C1651.0912,-113.2627 1705.1833,-99.7397 1747.9573,-89.0462"/>
<polygon fill="#191970" stroke="#191970" points="1748.8828,-92.4226 1757.7353,-86.6017 1747.185,-85.6316 1748.8828,-92.4226"/>
</g>
<!-- Node33&#45;&gt;Node19 -->
<g id="edge59" class="edge">
<title>Node33&#45;&gt;Node19</title>
<path fill="none" stroke="#191970" d="M1928.4919,-61.9893C1918.3181,-59.7846 1907.3611,-57.6142 1897.1421,-56 1747.6375,-32.3843 1569.1151,-18.7881 1482.8591,-13.1286"/>
<polygon fill="#191970" stroke="#191970" points="1483.011,-9.6312 1472.8057,-12.4776 1482.5586,-16.6165 1483.011,-9.6312"/>
</g>
<!-- Node33&#45;&gt;Node25 -->
<g id="edge58" class="edge">
<title>Node33&#45;&gt;Node25</title>
<path fill="none" stroke="#191970" d="M1924.9884,-61.9584C1915.8031,-59.9613 1906.1564,-57.8892 1897.1421,-56 1829.0237,-41.724 1749.3119,-25.9141 1704.1698,-17.0438"/>
<polygon fill="#191970" stroke="#191970" points="1704.7588,-13.5927 1694.2719,-15.1013 1703.4106,-20.4617 1704.7588,-13.5927"/>
</g>
<!-- Node34 -->
<g id="node35" class="node">
<title>Node34</title>
<polygon fill="#ffffff" stroke="#bfbfbf" points="1941.1421,-.5 1941.1421,-19.5 1995.1421,-19.5 1995.1421,-.5 1941.1421,-.5"/>
<text text-anchor="middle" x="1968.1421" y="-7.5" font-family="Helvetica,sans-Serif" font-size="10.00" fill="#000000">iostream</text>
</g>
<!-- Node33&#45;&gt;Node34 -->
<g id="edge60" class="edge">
<title>Node33&#45;&gt;Node34</title>
<path fill="none" stroke="#191970" d="M1968.1421,-61.8906C1968.1421,-53.3657 1968.1421,-40.6392 1968.1421,-29.9235"/>
<polygon fill="#191970" stroke="#191970" points="1971.6422,-29.7448 1968.1421,-19.7449 1964.6422,-29.7449 1971.6422,-29.7448"/>
</g>
<!-- Node35 -->
<g id="node36" class="node">
<title>Node35</title>
<polygon fill="#ffffff" stroke="#bfbfbf" points="2013.6421,-.5 2013.6421,-19.5 2100.6421,-19.5 2100.6421,-.5 2013.6421,-.5"/>
<text text-anchor="middle" x="2057.1421" y="-7.5" font-family="Helvetica,sans-Serif" font-size="10.00" fill="#000000">AMReX_Print.H</text>
</g>
<!-- Node33&#45;&gt;Node35 -->
<g id="edge61" class="edge">
<title>Node33&#45;&gt;Node35</title>
<path fill="none" stroke="#191970" d="M1982.0483,-61.8906C1996.1559,-52.1421 2018.2145,-36.8994 2034.7805,-25.4521"/>
<polygon fill="#191970" stroke="#191970" points="2037.0963,-28.1063 2043.3335,-19.5419 2033.1168,-22.3474 2037.0963,-28.1063"/>
</g>
<!-- Node36 -->
<g id="node37" class="node">
<title>Node36</title>
<polygon fill="#ffffff" stroke="#bfbfbf" points="1861.1421,-.5 1861.1421,-19.5 1923.1421,-19.5 1923.1421,-.5 1861.1421,-.5"/>
<text text-anchor="middle" x="1892.1421" y="-7.5" font-family="Helvetica,sans-Serif" font-size="10.00" fill="#000000">AMReX.H</text>
</g>
<!-- Node33&#45;&gt;Node36 -->
<g id="edge62" class="edge">
<title>Node33&#45;&gt;Node36</title>
<path fill="none" stroke="#191970" d="M1956.2671,-61.8906C1944.5124,-52.3786 1926.2935,-37.6357 1912.2749,-26.2917"/>
<polygon fill="#191970" stroke="#191970" points="1914.1598,-23.3146 1904.1845,-19.7449 1909.7565,-28.7562 1914.1598,-23.3146"/>
</g>
<!-- Node37&#45;&gt;Node18 -->
<g id="edge64" class="edge">
<title>Node37&#45;&gt;Node18</title>
<path fill="none" stroke="#191970" d="M1625.1237,-61.9376C1614.0905,-59.734 1602.212,-57.5769 1591.1421,-56 1396.9713,-28.3398 1161.2658,-15.3407 1078.0395,-11.3736"/>
<polygon fill="#191970" stroke="#191970" points="1078.1432,-7.8747 1067.9906,-10.9035 1077.8161,-14.867 1078.1432,-7.8747"/>
</g>
<!-- Node37&#45;&gt;Node19 -->
<g id="edge66" class="edge">
<title>Node37&#45;&gt;Node19</title>
<path fill="none" stroke="#191970" d="M1631.3708,-61.9581C1590.0314,-51.2308 1522.8188,-33.7895 1477.8098,-22.11"/>
<polygon fill="#191970" stroke="#191970" points="1478.5581,-18.6883 1467.9995,-19.5643 1476.7998,-25.4639 1478.5581,-18.6883"/>
</g>
<!-- Node37&#45;&gt;Node25 -->
<g id="edge65" class="edge">
<title>Node37&#45;&gt;Node25</title>
<path fill="none" stroke="#191970" d="M1668.1421,-61.8906C1668.1421,-53.3657 1668.1421,-40.6392 1668.1421,-29.9235"/>
<polygon fill="#191970" stroke="#191970" points="1671.6422,-29.7448 1668.1421,-19.7449 1664.6422,-29.7449 1671.6422,-29.7448"/>
</g>
<!-- Node37&#45;&gt;Node28 -->
<g id="edge67" class="edge">
<title>Node37&#45;&gt;Node28</title>
<path fill="none" stroke="#191970" d="M1605.5629,-62.2918C1588.5812,-60.0045 1570.1796,-57.7184 1553.1421,-56 1315.5883,-32.0405 1255.1002,-39.5382 1017.1421,-20 1002.4481,-18.7935 986.5908,-17.333 971.8257,-15.9052"/>
<polygon fill="#191970" stroke="#191970" points="972.0992,-12.4153 961.806,-14.9255 971.4179,-19.3821 972.0992,-12.4153"/>
</g>
<!-- Node39 -->
<g id="node40" class="node">
<title>Node39</title>
<polygon fill="#ffffff" stroke="#bfbfbf" points="1795.6421,-.5 1795.6421,-19.5 1840.6421,-19.5 1840.6421,-.5 1795.6421,-.5"/>
<text text-anchor="middle" x="1818.1421" y="-7.5" font-family="Helvetica,sans-Serif" font-size="10.00" fill="#000000">iosfwd</text>
</g>
<!-- Node38&#45;&gt;Node39 -->
<g id="edge69" class="edge">
<title>Node38&#45;&gt;Node39</title>
<path fill="none" stroke="#191970" d="M1818.1421,-56.2977C1818.1421,-48.3834 1818.1421,-38.6043 1818.1421,-30.0759"/>
<polygon fill="#191970" stroke="#191970" points="1821.6422,-29.8469 1818.1421,-19.8469 1814.6422,-29.847 1821.6422,-29.8469"/>
</g>
<!-- Node40&#45;&gt;Node22 -->
<g id="edge75" class="edge">
<title>Node40&#45;&gt;Node22</title>
<path fill="none" stroke="#191970" d="M1682.0619,-128.9741C1641.8156,-109.0582 1549.1445,-64.1793 1515.1421,-56 1372.7626,-21.7504 1003.3287,-28.625 857.1421,-20 825.6031,-18.1392 790.5322,-15.9333 761.4597,-14.0674"/>
<polygon fill="#191970" stroke="#191970" points="761.6464,-10.5723 751.4422,-13.4227 761.1968,-17.5578 761.6464,-10.5723"/>
</g>
<!-- Node40&#45;&gt;Node33 -->
<g id="edge73" class="edge">
<title>Node40&#45;&gt;Node33</title>
<path fill="none" stroke="#191970" d="M1739.1131,-128.9717C1786.624,-117.0495 1868.0337,-96.6208 1919.9076,-83.6038"/>
<polygon fill="#191970" stroke="#191970" points="1921.0223,-86.9326 1929.8697,-81.1039 1919.3185,-80.1431 1921.0223,-86.9326"/>
</g>
<!-- Node40&#45;&gt;Node37 -->
<g id="edge74" class="edge">
<title>Node40&#45;&gt;Node37</title>
<path fill="none" stroke="#191970" d="M1696.414,-128.9005C1691.4639,-118.8505 1683.5645,-102.8122 1677.3724,-90.2403"/>
<polygon fill="#191970" stroke="#191970" points="1680.4198,-88.5061 1672.8614,-81.0817 1674.1401,-91.5991 1680.4198,-88.5061"/>
</g>
<!-- Node41 -->
<g id="node42" class="node">
<title>Node41</title>
<polygon fill="#ffffff" stroke="#bfbfbf" points="2049.1421,-62 2049.1421,-81 2159.1421,-81 2159.1421,-62 2049.1421,-62"/>
<text text-anchor="middle" x="2104.1421" y="-69" font-family="Helvetica,sans-Serif" font-size="10.00" fill="#000000">AMReX_Geometry.H</text>
</g>
<!-- Node40&#45;&gt;Node41 -->
<g id="edge76" class="edge">
<title>Node40&#45;&gt;Node41</title>
<path fill="none" stroke="#191970" d="M1743.4997,-128.9467C1753.5188,-126.8424 1764.1852,-124.7284 1774.1421,-123 1891.6844,-102.5966 1922.9012,-109.0699 2040.1421,-87 2045.9,-85.9161 2051.9175,-84.645 2057.8599,-83.305"/>
<polygon fill="#191970" stroke="#191970" points="2058.7852,-86.6833 2067.7305,-81.0059 2057.1972,-79.8658 2058.7852,-86.6833"/>
</g>
</g>
</svg>
