<?xml version="1.0" encoding="UTF-8" standalone="no"?>
<!DOCTYPE svg PUBLIC "-//W3C//DTD SVG 1.1//EN"
 "http://www.w3.org/Graphics/SVG/1.1/DTD/svg11.dtd">
<!-- Generated by graphviz version 2.40.1 (20161225.0304)
 -->
<!-- Title: PostProcessing.cpp Pages: 1 -->
<!--zoomable 330 -->
<svg id="main" version="1.1" xmlns="http://www.w3.org/2000/svg" xmlns:xlink="http://www.w3.org/1999/xlink" xml:space="preserve" onload="init(evt)">
<style type="text/css"><![CDATA[
.edge:hover path { stroke: red; }
.edge:hover polygon { stroke: red; fill: red; }
]]></style>
<script type="text/javascript"><![CDATA[
var edges = document.getElementsByTagName('g');
if (edges && edges.length) {
  for (var i=0;i<edges.length;i++) {
    if (edges[i].id.substr(0,4)=='edge') {
      edges[i].setAttribute('class','edge');
    }
  }
}
]]></script>
        <defs>
                <circle id="rim" cx="0" cy="0" r="7"/>
                <circle id="rim2" cx="0" cy="0" r="3.5"/>
                <g id="zoomPlus">
                        <use xlink:href="#rim" fill="#404040">
                                <set attributeName="fill" to="#808080" begin="zoomplus.mouseover" end="zoomplus.mouseout"/>
                        </use>
                        <path d="M-4,0h8M0,-4v8" fill="none" stroke="white" stroke-width="1.5" pointer-events="none"/>
                </g>
                <g id="zoomMin">
                        <use xlink:href="#rim" fill="#404040">
                                <set attributeName="fill" to="#808080" begin="zoomminus.mouseover" end="zoomminus.mouseout"/>
                        </use>
                        <path d="M-4,0h8" fill="none" stroke="white" stroke-width="1.5" pointer-events="none"/>
                </g>
                <g id="dirArrow">
                        <path fill="none" stroke="white" stroke-width="1.5" d="M0,-3.0v7 M-2.5,-0.5L0,-3.0L2.5,-0.5"/>
                </g>
               <g id="resetDef">
                       <use xlink:href="#rim2" fill="#404040">
                               <set attributeName="fill" to="#808080" begin="reset.mouseover" end="reset.mouseout"/>
                       </use>
               </g>
        </defs>

<script type="text/javascript">
var viewWidth = 2487;
var viewHeight = 330;
var sectionId = 'dynsection-0';
</script>
<script xlink:href="svgpan.js"/>
<svg id="graph" class="graph">
<g id="viewport">
<title>PostProcessing.cpp</title>
<polygon fill="#ffffff" stroke="transparent" points="-4,4 -4,-326 2483,-326 2483,4 -4,4"/>
<!-- Node0 -->
<g id="node1" class="node">
<title>Node0</title>
<polygon fill="#bfbfbf" stroke="#000000" points="676.5,-302.5 676.5,-321.5 780.5,-321.5 780.5,-302.5 676.5,-302.5"/>
<text text-anchor="middle" x="728.5" y="-309.5" font-family="Helvetica,sans-Serif" font-size="10.00" fill="#000000">PostProcessing.cpp</text>
</g>
<!-- Node1 -->
<g id="node2" class="node">
<title>Node1</title>
<g id="a_node2"><a xlink:href="_post_processing_8_h.html" target="_top" xlink:title="amr&#45;wind/utilities\l/PostProcessing.H">
<polygon fill="#ffffff" stroke="#000000" points="280,-179.5 280,-209.5 379,-209.5 379,-179.5 280,-179.5"/>
<text text-anchor="start" x="288" y="-197.5" font-family="Helvetica,sans-Serif" font-size="10.00" fill="#000000">amr&#45;wind/utilities</text>
<text text-anchor="middle" x="329.5" y="-186.5" font-family="Helvetica,sans-Serif" font-size="10.00" fill="#000000">/PostProcessing.H</text>
</a>
</g>
</g>
<!-- Node0&#45;&gt;Node1 -->
<g id="edge1" class="edge">
<title>Node0&#45;&gt;Node1</title>
<path fill="none" stroke="#191970" d="M696.1861,-302.484C629.2644,-282.7765 474.6313,-237.2392 389.0941,-212.0496"/>
<polygon fill="#191970" stroke="#191970" points="389.85,-208.6237 379.2685,-209.1561 387.8725,-215.3386 389.85,-208.6237"/>
</g>
<!-- Node8 -->
<g id="node9" class="node">
<title>Node8</title>
<g id="a_node9"><a xlink:href="_c_f_d_sim_8_h.html" target="_top" xlink:title="amr&#45;wind/CFDSim.H">
<polygon fill="#ffffff" stroke="#000000" points="674.5,-246.5 674.5,-265.5 782.5,-265.5 782.5,-246.5 674.5,-246.5"/>
<text text-anchor="middle" x="728.5" y="-253.5" font-family="Helvetica,sans-Serif" font-size="10.00" fill="#000000">amr&#45;wind/CFDSim.H</text>
</a>
</g>
</g>
<!-- Node0&#45;&gt;Node8 -->
<g id="edge9" class="edge">
<title>Node0&#45;&gt;Node8</title>
<path fill="none" stroke="#191970" d="M728.5,-302.2455C728.5,-294.9382 728.5,-284.6944 728.5,-275.7046"/>
<polygon fill="#191970" stroke="#191970" points="732.0001,-275.6426 728.5,-265.6427 725.0001,-275.6427 732.0001,-275.6426"/>
</g>
<!-- Node36 -->
<g id="node37" class="node">
<title>Node36</title>
<polygon fill="#ffffff" stroke="#bfbfbf" points="800.5,-246.5 800.5,-265.5 916.5,-265.5 916.5,-246.5 800.5,-246.5"/>
<text text-anchor="middle" x="858.5" y="-253.5" font-family="Helvetica,sans-Serif" font-size="10.00" fill="#000000">AMReX_ParmParse.H</text>
</g>
<!-- Node0&#45;&gt;Node36 -->
<g id="edge68" class="edge">
<title>Node0&#45;&gt;Node36</title>
<path fill="none" stroke="#191970" d="M750.8478,-302.3733C771.9033,-293.3032 803.6495,-279.6279 827.2175,-269.4755"/>
<polygon fill="#191970" stroke="#191970" points="828.6444,-272.6719 836.4438,-265.5011 825.875,-266.243 828.6444,-272.6719"/>
</g>
<!-- Node2 -->
<g id="node3" class="node">
<title>Node2</title>
<polygon fill="#ffffff" stroke="#bfbfbf" points="390.5,-56.5 390.5,-75.5 442.5,-75.5 442.5,-56.5 390.5,-56.5"/>
<text text-anchor="middle" x="416.5" y="-63.5" font-family="Helvetica,sans-Serif" font-size="10.00" fill="#000000">memory</text>
</g>
<!-- Node1&#45;&gt;Node2 -->
<g id="edge2" class="edge">
<title>Node1&#45;&gt;Node2</title>
<path fill="none" stroke="#191970" d="M339.8217,-179.2548C355.9369,-155.4524 387.0091,-109.5584 404.2399,-84.1084"/>
<polygon fill="#191970" stroke="#191970" points="407.2003,-85.9787 409.9085,-75.7358 401.4038,-82.0542 407.2003,-85.9787"/>
</g>
<!-- Node3 -->
<g id="node4" class="node">
<title>Node3</title>
<g id="a_node4"><a xlink:href="_factory_8_h.html" target="_top" xlink:title="amr&#45;wind/core/Factory.H">
<polygon fill="#ffffff" stroke="#000000" points="180,-118 180,-137 305,-137 305,-118 180,-118"/>
<text text-anchor="middle" x="242.5" y="-125" font-family="Helvetica,sans-Serif" font-size="10.00" fill="#000000">amr&#45;wind/core/Factory.H</text>
</a>
</g>
</g>
<!-- Node1&#45;&gt;Node3 -->
<g id="edge3" class="edge">
<title>Node1&#45;&gt;Node3</title>
<path fill="none" stroke="#191970" d="M309.7584,-179.2967C295.8085,-168.5537 277.1565,-154.1895 263.0332,-143.3129"/>
<polygon fill="#191970" stroke="#191970" points="264.9656,-140.3835 254.9072,-137.055 260.6945,-145.9295 264.9656,-140.3835"/>
</g>
<!-- Node3&#45;&gt;Node2 -->
<g id="edge4" class="edge">
<title>Node3&#45;&gt;Node2</title>
<path fill="none" stroke="#191970" d="M269.6875,-117.8906C299.5715,-107.3282 347.7044,-90.3157 380.6548,-78.6694"/>
<polygon fill="#191970" stroke="#191970" points="382.0943,-81.8729 390.3563,-75.2404 379.7615,-75.273 382.0943,-81.8729"/>
</g>
<!-- Node4 -->
<g id="node5" class="node">
<title>Node4</title>
<polygon fill="#ffffff" stroke="#bfbfbf" points="537,-56.5 537,-75.5 620,-75.5 620,-56.5 537,-56.5"/>
<text text-anchor="middle" x="578.5" y="-63.5" font-family="Helvetica,sans-Serif" font-size="10.00" fill="#000000">unordered_map</text>
</g>
<!-- Node3&#45;&gt;Node4 -->
<g id="edge5" class="edge">
<title>Node3&#45;&gt;Node4</title>
<path fill="none" stroke="#191970" d="M294.6313,-117.9581C357.8394,-106.3888 463.7129,-87.0101 526.7492,-75.4722"/>
<polygon fill="#191970" stroke="#191970" points="527.6575,-78.8642 536.8639,-73.6209 526.3971,-71.9786 527.6575,-78.8642"/>
</g>
<!-- Node5 -->
<g id="node6" class="node">
<title>Node5</title>
<polygon fill="#ffffff" stroke="#bfbfbf" points="174.5,-56.5 174.5,-75.5 228.5,-75.5 228.5,-56.5 174.5,-56.5"/>
<text text-anchor="middle" x="201.5" y="-63.5" font-family="Helvetica,sans-Serif" font-size="10.00" fill="#000000">iostream</text>
</g>
<!-- Node3&#45;&gt;Node5 -->
<g id="edge6" class="edge">
<title>Node3&#45;&gt;Node5</title>
<path fill="none" stroke="#191970" d="M236.0938,-117.8906C230.1114,-108.917 221.0253,-95.2879 213.6661,-84.2491"/>
<polygon fill="#191970" stroke="#191970" points="216.4558,-82.1239 207.9966,-75.7449 210.6314,-86.0068 216.4558,-82.1239"/>
</g>
<!-- Node6 -->
<g id="node7" class="node">
<title>Node6</title>
<polygon fill="#ffffff" stroke="#bfbfbf" points="247,-56.5 247,-75.5 334,-75.5 334,-56.5 247,-56.5"/>
<text text-anchor="middle" x="290.5" y="-63.5" font-family="Helvetica,sans-Serif" font-size="10.00" fill="#000000">AMReX_Print.H</text>
</g>
<!-- Node3&#45;&gt;Node6 -->
<g id="edge7" class="edge">
<title>Node3&#45;&gt;Node6</title>
<path fill="none" stroke="#191970" d="M250,-117.8906C257.0738,-108.8273 267.8542,-95.0149 276.5146,-83.9188"/>
<polygon fill="#191970" stroke="#191970" points="279.5006,-85.7815 282.8943,-75.7449 273.9824,-81.4746 279.5006,-85.7815"/>
</g>
<!-- Node7 -->
<g id="node8" class="node">
<title>Node7</title>
<polygon fill="#ffffff" stroke="#bfbfbf" points="94.5,-56.5 94.5,-75.5 156.5,-75.5 156.5,-56.5 94.5,-56.5"/>
<text text-anchor="middle" x="125.5" y="-63.5" font-family="Helvetica,sans-Serif" font-size="10.00" fill="#000000">AMReX.H</text>
</g>
<!-- Node3&#45;&gt;Node7 -->
<g id="edge8" class="edge">
<title>Node3&#45;&gt;Node7</title>
<path fill="none" stroke="#191970" d="M224.2188,-117.8906C204.9859,-107.7811 174.5121,-91.7628 152.5075,-80.1962"/>
<polygon fill="#191970" stroke="#191970" points="154.133,-77.0967 143.6529,-75.5419 150.876,-83.2928 154.133,-77.0967"/>
</g>
<!-- Node9 -->
<g id="node10" class="node">
<title>Node9</title>
<polygon fill="#ffffff" stroke="#bfbfbf" points="747.5,-118 747.5,-137 853.5,-137 853.5,-118 747.5,-118"/>
<text text-anchor="middle" x="800.5" y="-125" font-family="Helvetica,sans-Serif" font-size="10.00" fill="#000000">AMReX_AmrCore.H</text>
</g>
<!-- Node8&#45;&gt;Node9 -->
<g id="edge10" class="edge">
<title>Node8&#45;&gt;Node9</title>
<path fill="none" stroke="#191970" d="M733.9117,-246.3416C745.8476,-225.0393 774.6022,-173.7203 790.1329,-146.0025"/>
<polygon fill="#191970" stroke="#191970" points="793.1907,-147.7052 795.0255,-137.2705 787.084,-144.2835 793.1907,-147.7052"/>
</g>
<!-- Node10 -->
<g id="node11" class="node">
<title>Node10</title>
<g id="a_node11"><a xlink:href="_sim_time_8_h.html" target="_top" xlink:title="amr&#45;wind/core/SimTime.H">
<polygon fill="#ffffff" stroke="#000000" points="2179,-185 2179,-204 2310,-204 2310,-185 2179,-185"/>
<text text-anchor="middle" x="2244.5" y="-192" font-family="Helvetica,sans-Serif" font-size="10.00" fill="#000000">amr&#45;wind/core/SimTime.H</text>
</a>
</g>
</g>
<!-- Node8&#45;&gt;Node10 -->
<g id="edge11" class="edge">
<title>Node8&#45;&gt;Node10</title>
<path fill="none" stroke="#191970" d="M782.7423,-246.9598C785.7004,-246.6013 788.634,-246.2772 791.5,-246 1062.6741,-219.7713 1909.6545,-201.1579 2168.5572,-195.9665"/>
<polygon fill="#191970" stroke="#191970" points="2168.688,-199.4646 2178.6161,-195.7656 2168.5482,-192.466 2168.688,-199.4646"/>
</g>
<!-- Node14 -->
<g id="node15" class="node">
<title>Node14</title>
<g id="a_node15"><a xlink:href="_field_repo_8_h.html" target="_top" xlink:title="amr&#45;wind/core/FieldRepo.H">
<polygon fill="#ffffff" stroke="#000000" points="1031.5,-185 1031.5,-204 1167.5,-204 1167.5,-185 1031.5,-185"/>
<text text-anchor="middle" x="1099.5" y="-192" font-family="Helvetica,sans-Serif" font-size="10.00" fill="#000000">amr&#45;wind/core/FieldRepo.H</text>
</a>
</g>
</g>
<!-- Node8&#45;&gt;Node14 -->
<g id="edge15" class="edge">
<title>Node8&#45;&gt;Node14</title>
<path fill="none" stroke="#191970" d="M782.8439,-246.9915C848.8344,-236.0524 960.1635,-217.5976 1031.7014,-205.7388"/>
<polygon fill="#191970" stroke="#191970" points="1032.6644,-209.1271 1041.9574,-204.0387 1031.5196,-202.2213 1032.6644,-209.1271"/>
</g>
<!-- Node30 -->
<g id="node31" class="node">
<title>Node30</title>
<g id="a_node31"><a xlink:href="_p_d_e_base_8_h.html" target="_top" xlink:title="amr&#45;wind/equation_systems\l/PDEBase.H">
<polygon fill="#ffffff" stroke="#000000" points="397,-179.5 397,-209.5 536,-209.5 536,-179.5 397,-179.5"/>
<text text-anchor="start" x="405" y="-197.5" font-family="Helvetica,sans-Serif" font-size="10.00" fill="#000000">amr&#45;wind/equation_systems</text>
<text text-anchor="middle" x="466.5" y="-186.5" font-family="Helvetica,sans-Serif" font-size="10.00" fill="#000000">/PDEBase.H</text>
</a>
</g>
</g>
<!-- Node8&#45;&gt;Node30 -->
<g id="edge51" class="edge">
<title>Node8&#45;&gt;Node30</title>
<path fill="none" stroke="#191970" d="M687.85,-246.4581C648.6001,-237.2449 588.2521,-223.0792 540.4765,-211.8647"/>
<polygon fill="#191970" stroke="#191970" points="541.02,-208.3972 530.4847,-209.5193 539.4203,-215.212 541.02,-208.3972"/>
</g>
<!-- Node34 -->
<g id="node35" class="node">
<title>Node34</title>
<g id="a_node35"><a xlink:href="_physics_8_h.html" target="_top" xlink:title="amr&#45;wind/core/Physics.H">
<polygon fill="#ffffff" stroke="#000000" points="611,-185 611,-204 738,-204 738,-185 611,-185"/>
<text text-anchor="middle" x="674.5" y="-192" font-family="Helvetica,sans-Serif" font-size="10.00" fill="#000000">amr&#45;wind/core/Physics.H</text>
</a>
</g>
</g>
<!-- Node8&#45;&gt;Node34 -->
<g id="edge63" class="edge">
<title>Node8&#45;&gt;Node34</title>
<path fill="none" stroke="#191970" d="M720.0625,-246.3906C711.9469,-237.1478 699.4945,-222.966 689.6576,-211.7628"/>
<polygon fill="#191970" stroke="#191970" points="692.2846,-209.45 683.0565,-204.2449 687.0245,-214.0686 692.2846,-209.45"/>
</g>
<!-- Node11 -->
<g id="node12" class="node">
<title>Node11</title>
<polygon fill="#ffffff" stroke="#bfbfbf" points="2386,-118 2386,-137 2479,-137 2479,-118 2386,-118"/>
<text text-anchor="middle" x="2432.5" y="-125" font-family="Helvetica,sans-Serif" font-size="10.00" fill="#000000">AMReX_REAL.H</text>
</g>
<!-- Node10&#45;&gt;Node11 -->
<g id="edge12" class="edge">
<title>Node10&#45;&gt;Node11</title>
<path fill="none" stroke="#191970" d="M2271.4358,-184.9005C2304.1033,-173.2584 2359.3188,-153.5805 2395.8425,-140.5641"/>
<polygon fill="#191970" stroke="#191970" points="2397.3694,-143.7356 2405.6142,-137.0817 2395.0195,-137.1418 2397.3694,-143.7356"/>
</g>
<!-- Node12 -->
<g id="node13" class="node">
<title>Node12</title>
<polygon fill="#ffffff" stroke="#bfbfbf" points="2113.5,-118 2113.5,-137 2239.5,-137 2239.5,-118 2113.5,-118"/>
<text text-anchor="middle" x="2176.5" y="-125" font-family="Helvetica,sans-Serif" font-size="10.00" fill="#000000">AMReX_GpuQualifiers.H</text>
</g>
<!-- Node10&#45;&gt;Node12 -->
<g id="edge13" class="edge">
<title>Node10&#45;&gt;Node12</title>
<path fill="none" stroke="#191970" d="M2234.7573,-184.9005C2224.0523,-174.353 2206.653,-157.2096 2193.6521,-144.3998"/>
<polygon fill="#191970" stroke="#191970" points="2195.8044,-141.607 2186.2247,-137.0817 2190.8915,-146.5933 2195.8044,-141.607"/>
</g>
<!-- Node13 -->
<g id="node14" class="node">
<title>Node13</title>
<polygon fill="#ffffff" stroke="#bfbfbf" points="2257.5,-118 2257.5,-137 2367.5,-137 2367.5,-118 2257.5,-118"/>
<text text-anchor="middle" x="2312.5" y="-125" font-family="Helvetica,sans-Serif" font-size="10.00" fill="#000000">AMReX_Extension.H</text>
</g>
<!-- Node10&#45;&gt;Node13 -->
<g id="edge14" class="edge">
<title>Node10&#45;&gt;Node13</title>
<path fill="none" stroke="#191970" d="M2254.2427,-184.9005C2264.9477,-174.353 2282.347,-157.2096 2295.3479,-144.3998"/>
<polygon fill="#191970" stroke="#191970" points="2298.1085,-146.5933 2302.7753,-137.0817 2293.1956,-141.607 2298.1085,-146.5933"/>
</g>
<!-- Node14&#45;&gt;Node4 -->
<g id="edge17" class="edge">
<title>Node14&#45;&gt;Node4</title>
<path fill="none" stroke="#191970" d="M1031.1096,-186.0856C989.9118,-178.9187 937.477,-165.9715 895.5,-143 877.8473,-133.3397 880.5548,-120.8861 862.5,-112 842.0892,-101.9543 706.9003,-82.9104 630.6326,-72.7628"/>
<polygon fill="#191970" stroke="#191970" points="630.653,-69.235 620.2801,-71.3919 629.734,-76.1745 630.653,-69.235"/>
</g>
<!-- Node14&#45;&gt;Node9 -->
<g id="edge48" class="edge">
<title>Node14&#45;&gt;Node9</title>
<path fill="none" stroke="#191970" d="M1055.8596,-184.934C1009.2085,-174.6797 933.0873,-157.8659 867.5,-143 862.2603,-141.8124 856.7924,-140.5633 851.3385,-139.3112"/>
<polygon fill="#191970" stroke="#191970" points="852.1192,-135.8994 841.5889,-137.0665 850.5486,-142.721 852.1192,-135.8994"/>
</g>
<!-- Node15 -->
<g id="node16" class="node">
<title>Node15</title>
<polygon fill="#ffffff" stroke="#bfbfbf" points="1014,-.5 1014,-19.5 1055,-19.5 1055,-.5 1014,-.5"/>
<text text-anchor="middle" x="1034.5" y="-7.5" font-family="Helvetica,sans-Serif" font-size="10.00" fill="#000000">string</text>
</g>
<!-- Node14&#45;&gt;Node15 -->
<g id="edge16" class="edge">
<title>Node14&#45;&gt;Node15</title>
<path fill="none" stroke="#191970" d="M1097.8859,-184.6749C1095.173,-169.0355 1089.1357,-137.6282 1080.5,-112 1075.0208,-95.7395 1055.1982,-53.3477 1043.4375,-28.6334"/>
<polygon fill="#191970" stroke="#191970" points="1046.5623,-27.0546 1039.0942,-19.5394 1040.2457,-30.0715 1046.5623,-27.0546"/>
</g>
<!-- Node16 -->
<g id="node17" class="node">
<title>Node16</title>
<g id="a_node17"><a xlink:href="_field_desc_types_8_h.html" target="_top" xlink:title="amr&#45;wind/core/FieldDescTypes.H">
<polygon fill="#ffffff" stroke="#000000" points="1459,-.5 1459,-19.5 1622,-19.5 1622,-.5 1459,-.5"/>
<text text-anchor="middle" x="1540.5" y="-7.5" font-family="Helvetica,sans-Serif" font-size="10.00" fill="#000000">amr&#45;wind/core/FieldDescTypes.H</text>
</a>
</g>
</g>
<!-- Node14&#45;&gt;Node16 -->
<g id="edge18" class="edge">
<title>Node14&#45;&gt;Node16</title>
<path fill="none" stroke="#191970" d="M1167.799,-191.0231C1292.9222,-184.1554 1554.0945,-167.3733 1641.5,-143 1707.5597,-124.5791 1744.0236,-134.0748 1780.5,-76 1785.2278,-68.4727 1786.163,-62.8515 1780.5,-56 1761.6247,-33.1633 1691.9063,-21.5528 1632.4418,-15.7165"/>
<polygon fill="#191970" stroke="#191970" points="1632.5192,-12.2085 1622.2363,-14.7605 1631.8663,-19.178 1632.5192,-12.2085"/>
</g>
<!-- Node17 -->
<g id="node18" class="node">
<title>Node17</title>
<g id="a_node18"><a xlink:href="_field_utils_8_h.html" target="_top" xlink:title="amr&#45;wind/core/FieldUtils.H">
<polygon fill="#ffffff" stroke="#000000" points="1924,-56.5 1924,-75.5 2057,-75.5 2057,-56.5 1924,-56.5"/>
<text text-anchor="middle" x="1990.5" y="-63.5" font-family="Helvetica,sans-Serif" font-size="10.00" fill="#000000">amr&#45;wind/core/FieldUtils.H</text>
</a>
</g>
</g>
<!-- Node14&#45;&gt;Node17 -->
<g id="edge19" class="edge">
<title>Node14&#45;&gt;Node17</title>
<path fill="none" stroke="#191970" d="M1167.6526,-193.0556C1324.8907,-189.185 1709.0698,-176.5027 1833.5,-143 1883.7586,-129.4679 1937.1159,-99.5257 1966.8801,-81.2227"/>
<polygon fill="#191970" stroke="#191970" points="1969.0542,-83.9913 1975.6809,-75.7246 1965.3454,-78.0546 1969.0542,-83.9913"/>
</g>
<!-- Node18 -->
<g id="node19" class="node">
<title>Node18</title>
<polygon fill="#ffffff" stroke="#bfbfbf" points="1807.5,-.5 1807.5,-19.5 1911.5,-19.5 1911.5,-.5 1807.5,-.5"/>
<text text-anchor="middle" x="1859.5" y="-7.5" font-family="Helvetica,sans-Serif" font-size="10.00" fill="#000000">AMReX_MultiFab.H</text>
</g>
<!-- Node14&#45;&gt;Node18 -->
<g id="edge49" class="edge">
<title>Node14&#45;&gt;Node18</title>
<path fill="none" stroke="#191970" d="M1167.5479,-192.5401C1332.1902,-187.395 1748.4764,-171.8678 1884.5,-143 1968.8179,-125.1055 2017.1897,-146.6981 2066.5,-76 2071.5851,-68.7093 2072.062,-62.9337 2066.5,-56 2057.3187,-44.5545 1979.291,-29.5242 1921.7279,-19.8131"/>
<polygon fill="#191970" stroke="#191970" points="1922.0397,-16.3169 1911.6001,-18.1234 1920.8877,-23.2214 1922.0397,-16.3169"/>
</g>
<!-- Node20 -->
<g id="node21" class="node">
<title>Node20</title>
<g id="a_node21"><a xlink:href="_field_8_h.html" target="_top" xlink:title="amr&#45;wind/core/Field.H">
<polygon fill="#ffffff" stroke="#000000" points="1128,-118 1128,-137 1241,-137 1241,-118 1128,-118"/>
<text text-anchor="middle" x="1184.5" y="-125" font-family="Helvetica,sans-Serif" font-size="10.00" fill="#000000">amr&#45;wind/core/Field.H</text>
</a>
</g>
</g>
<!-- Node14&#45;&gt;Node20 -->
<g id="edge23" class="edge">
<title>Node14&#45;&gt;Node20</title>
<path fill="none" stroke="#191970" d="M1111.6784,-184.9005C1125.4384,-174.0544 1148.0465,-156.2339 1164.4262,-143.3229"/>
<polygon fill="#191970" stroke="#191970" points="1166.6573,-146.0209 1172.3442,-137.0817 1162.3239,-140.5234 1166.6573,-146.0209"/>
</g>
<!-- Node26 -->
<g id="node27" class="node">
<title>Node26</title>
<g id="a_node27"><a xlink:href="_int_field_8_h.html" target="_top" xlink:title="amr&#45;wind/core/IntField.H">
<polygon fill="#ffffff" stroke="#000000" points="947.5,-118 947.5,-137 1071.5,-137 1071.5,-118 947.5,-118"/>
<text text-anchor="middle" x="1009.5" y="-125" font-family="Helvetica,sans-Serif" font-size="10.00" fill="#000000">amr&#45;wind/core/IntField.H</text>
</a>
</g>
</g>
<!-- Node14&#45;&gt;Node26 -->
<g id="edge37" class="edge">
<title>Node14&#45;&gt;Node26</title>
<path fill="none" stroke="#191970" d="M1086.6052,-184.9005C1072.0358,-174.0544 1048.0978,-156.2339 1030.7546,-143.3229"/>
<polygon fill="#191970" stroke="#191970" points="1032.4823,-140.2457 1022.3709,-137.0817 1028.3022,-145.8606 1032.4823,-140.2457"/>
</g>
<!-- Node27 -->
<g id="node28" class="node">
<title>Node27</title>
<polygon fill="#ffffff" stroke="#bfbfbf" points="677,-56.5 677,-75.5 784,-75.5 784,-56.5 677,-56.5"/>
<text text-anchor="middle" x="730.5" y="-63.5" font-family="Helvetica,sans-Serif" font-size="10.00" fill="#000000">AMReX_iMultiFab.H</text>
</g>
<!-- Node14&#45;&gt;Node27 -->
<g id="edge50" class="edge">
<title>Node14&#45;&gt;Node27</title>
<path fill="none" stroke="#191970" d="M1057.4001,-184.9198C1024.0644,-176.4276 976.887,-162.3601 938.5,-143 917.4642,-132.3908 916.7321,-122.2107 895.5,-112 862.9739,-96.3579 824.2034,-85.2084 792.4197,-77.8074"/>
<polygon fill="#191970" stroke="#191970" points="792.888,-74.325 782.3626,-75.5352 791.3454,-81.1529 792.888,-74.325"/>
</g>
<!-- Node28 -->
<g id="node29" class="node">
<title>Node28</title>
<g id="a_node29"><a xlink:href="_scratch_field_8_h.html" target="_top" xlink:title="amr&#45;wind/core/ScratchField.H">
<polygon fill="#ffffff" stroke="#000000" points="1486.5,-118 1486.5,-137 1632.5,-137 1632.5,-118 1486.5,-118"/>
<text text-anchor="middle" x="1559.5" y="-125" font-family="Helvetica,sans-Serif" font-size="10.00" fill="#000000">amr&#45;wind/core/ScratchField.H</text>
</a>
</g>
</g>
<!-- Node14&#45;&gt;Node28 -->
<g id="edge41" class="edge">
<title>Node14&#45;&gt;Node28</title>
<path fill="none" stroke="#191970" d="M1164.9183,-184.9717C1249.1086,-172.7092 1395.0828,-151.4477 1483.925,-138.5077"/>
<polygon fill="#191970" stroke="#191970" points="1484.5443,-141.9545 1493.9354,-137.0496 1483.5353,-135.0276 1484.5443,-141.9545"/>
</g>
<!-- Node17&#45;&gt;Node16 -->
<g id="edge20" class="edge">
<title>Node17&#45;&gt;Node16</title>
<path fill="none" stroke="#191970" d="M1923.6164,-57.6767C1844.8378,-47.8732 1713.7684,-31.5623 1627.2435,-20.7947"/>
<polygon fill="#191970" stroke="#191970" points="1627.5371,-17.3044 1617.1814,-19.5426 1626.6726,-24.2508 1627.5371,-17.3044"/>
</g>
<!-- Node17&#45;&gt;Node18 -->
<g id="edge21" class="edge">
<title>Node17&#45;&gt;Node18</title>
<path fill="none" stroke="#191970" d="M1967.9803,-56.3733C1946.7628,-47.3032 1914.7724,-33.6279 1891.0231,-23.4755"/>
<polygon fill="#191970" stroke="#191970" points="1892.2967,-20.2136 1881.7258,-19.5011 1889.5452,-26.6502 1892.2967,-20.2136"/>
</g>
<!-- Node19 -->
<g id="node20" class="node">
<title>Node19</title>
<polygon fill="#ffffff" stroke="#bfbfbf" points="1932.5,-.5 1932.5,-19.5 2048.5,-19.5 2048.5,-.5 1932.5,-.5"/>
<text text-anchor="middle" x="1990.5" y="-7.5" font-family="Helvetica,sans-Serif" font-size="10.00" fill="#000000">AMReX_Interpolater.H</text>
</g>
<!-- Node17&#45;&gt;Node19 -->
<g id="edge22" class="edge">
<title>Node17&#45;&gt;Node19</title>
<path fill="none" stroke="#191970" d="M1990.5,-56.2455C1990.5,-48.9382 1990.5,-38.6944 1990.5,-29.7046"/>
<polygon fill="#191970" stroke="#191970" points="1994.0001,-29.6426 1990.5,-19.6427 1987.0001,-29.6427 1994.0001,-29.6426"/>
</g>
<!-- Node20&#45;&gt;Node2 -->
<g id="edge25" class="edge">
<title>Node20&#45;&gt;Node2</title>
<path fill="none" stroke="#191970" d="M1127.9348,-118.199C1112.5774,-115.9119 1095.9289,-113.6491 1080.5,-112 835.5969,-85.8241 773.0601,-95.0512 527.5,-76 502.467,-74.0579 474.2915,-71.5152 452.5914,-69.4799"/>
<polygon fill="#191970" stroke="#191970" points="452.7859,-65.9827 442.5009,-68.5263 452.1272,-72.9517 452.7859,-65.9827"/>
</g>
<!-- Node20&#45;&gt;Node4 -->
<g id="edge26" class="edge">
<title>Node20&#45;&gt;Node4</title>
<path fill="none" stroke="#191970" d="M1127.9091,-118.4276C1112.5518,-116.14 1095.9096,-113.8198 1080.5,-112 897.9597,-90.4424 851.4105,-94.1504 668.5,-76 656.1557,-74.7751 642.8707,-73.3552 630.3977,-71.9769"/>
<polygon fill="#191970" stroke="#191970" points="630.4761,-68.4641 620.1498,-70.8342 629.7003,-75.421 630.4761,-68.4641"/>
</g>
<!-- Node20&#45;&gt;Node15 -->
<g id="edge24" class="edge">
<title>Node20&#45;&gt;Node15</title>
<path fill="none" stroke="#191970" d="M1162.7613,-117.9302C1143.2583,-108.7626 1114.4176,-93.7266 1092.5,-76 1075.017,-61.86 1058.4376,-42.1213 1047.5177,-27.9196"/>
<polygon fill="#191970" stroke="#191970" points="1050.2947,-25.7889 1041.4924,-19.8922 1044.6962,-29.991 1050.2947,-25.7889"/>
</g>
<!-- Node20&#45;&gt;Node16 -->
<g id="edge31" class="edge">
<title>Node20&#45;&gt;Node16</title>
<path fill="none" stroke="#191970" d="M1241.3216,-124.1182C1321.0849,-118.4076 1461.1419,-104.5671 1502.5,-76 1518.5872,-64.8881 1528.7685,-44.5917 1534.4992,-29.429"/>
<polygon fill="#191970" stroke="#191970" points="1537.8242,-30.5226 1537.7733,-19.9279 1531.2062,-28.2419 1537.8242,-30.5226"/>
</g>
<!-- Node20&#45;&gt;Node18 -->
<g id="edge27" class="edge">
<title>Node20&#45;&gt;Node18</title>
<path fill="none" stroke="#191970" d="M1241.1084,-120.1234C1308.9203,-111.0164 1425.8596,-94.4526 1525.5,-76 1566.2174,-68.4595 1575.9299,-64.2964 1616.5,-56 1677.8936,-43.4453 1748.2645,-30.2549 1797.423,-21.234"/>
<polygon fill="#191970" stroke="#191970" points="1798.0653,-24.6747 1807.2712,-19.4305 1796.8043,-17.7892 1798.0653,-24.6747"/>
</g>
<!-- Node21 -->
<g id="node22" class="node">
<title>Node21</title>
<polygon fill="#ffffff" stroke="#bfbfbf" points="1204,-56.5 1204,-75.5 1303,-75.5 1303,-56.5 1204,-56.5"/>
<text text-anchor="middle" x="1253.5" y="-63.5" font-family="Helvetica,sans-Serif" font-size="10.00" fill="#000000">AMReX_BCRec.H</text>
</g>
<!-- Node20&#45;&gt;Node21 -->
<g id="edge28" class="edge">
<title>Node20&#45;&gt;Node21</title>
<path fill="none" stroke="#191970" d="M1195.2813,-117.8906C1205.8526,-108.4683 1222.1825,-93.9134 1234.8603,-82.6137"/>
<polygon fill="#191970" stroke="#191970" points="1237.4304,-85.0114 1242.5667,-75.7449 1232.7728,-79.7858 1237.4304,-85.0114"/>
</g>
<!-- Node22 -->
<g id="node23" class="node">
<title>Node22</title>
<polygon fill="#ffffff" stroke="#bfbfbf" points="1101,-56.5 1101,-75.5 1186,-75.5 1186,-56.5 1101,-56.5"/>
<text text-anchor="middle" x="1143.5" y="-63.5" font-family="Helvetica,sans-Serif" font-size="10.00" fill="#000000">AMReX_Gpu.H</text>
</g>
<!-- Node20&#45;&gt;Node22 -->
<g id="edge29" class="edge">
<title>Node20&#45;&gt;Node22</title>
<path fill="none" stroke="#191970" d="M1178.0938,-117.8906C1172.1114,-108.917 1163.0253,-95.2879 1155.6661,-84.2491"/>
<polygon fill="#191970" stroke="#191970" points="1158.4558,-82.1239 1149.9966,-75.7449 1152.6314,-86.0068 1158.4558,-82.1239"/>
</g>
<!-- Node23 -->
<g id="node24" class="node">
<title>Node23</title>
<g id="a_node24"><a xlink:href="incflo__enums_8_h.html" target="_top" xlink:title="amr&#45;wind/incflo_enums.H">
<polygon fill="#ffffff" stroke="#000000" points="878.5,-56.5 878.5,-75.5 1006.5,-75.5 1006.5,-56.5 878.5,-56.5"/>
<text text-anchor="middle" x="942.5" y="-63.5" font-family="Helvetica,sans-Serif" font-size="10.00" fill="#000000">amr&#45;wind/incflo_enums.H</text>
</a>
</g>
</g>
<!-- Node20&#45;&gt;Node23 -->
<g id="edge30" class="edge">
<title>Node20&#45;&gt;Node23</title>
<path fill="none" stroke="#191970" d="M1146.953,-117.9581C1104.6528,-107.2082 1035.8223,-89.7162 989.863,-78.0365"/>
<polygon fill="#191970" stroke="#191970" points="990.6891,-74.6352 980.1351,-75.5643 988.9649,-81.4196 990.6891,-74.6352"/>
</g>
<!-- Node24 -->
<g id="node25" class="node">
<title>Node24</title>
<g id="a_node25"><a xlink:href="_view_field_8_h.html" target="_top" xlink:title="amr&#45;wind/core/ViewField.H">
<polygon fill="#ffffff" stroke="#000000" points="1359.5,-56.5 1359.5,-75.5 1493.5,-75.5 1493.5,-56.5 1359.5,-56.5"/>
<text text-anchor="middle" x="1426.5" y="-63.5" font-family="Helvetica,sans-Serif" font-size="10.00" fill="#000000">amr&#45;wind/core/ViewField.H</text>
</a>
</g>
</g>
<!-- Node20&#45;&gt;Node24 -->
<g id="edge32" class="edge">
<title>Node20&#45;&gt;Node24</title>
<path fill="none" stroke="#191970" d="M1222.047,-117.9581C1264.3472,-107.2082 1333.1777,-89.7162 1379.137,-78.0365"/>
<polygon fill="#191970" stroke="#191970" points="1380.0351,-81.4196 1388.8649,-75.5643 1378.3109,-74.6352 1380.0351,-81.4196"/>
</g>
<!-- Node24&#45;&gt;Node15 -->
<g id="edge33" class="edge">
<title>Node24&#45;&gt;Node15</title>
<path fill="none" stroke="#191970" d="M1359.5582,-56.4369C1273.7723,-44.1818 1128.6087,-23.4441 1065.4245,-14.4178"/>
<polygon fill="#191970" stroke="#191970" points="1065.7036,-10.9222 1055.3091,-12.9727 1064.7136,-17.8518 1065.7036,-10.9222"/>
</g>
<!-- Node24&#45;&gt;Node16 -->
<g id="edge34" class="edge">
<title>Node24&#45;&gt;Node16</title>
<path fill="none" stroke="#191970" d="M1446.0973,-56.3733C1464.2331,-47.4644 1491.4135,-34.1127 1511.9587,-24.0203"/>
<polygon fill="#191970" stroke="#191970" points="1513.7261,-27.0517 1521.1584,-19.5011 1510.6397,-20.7688 1513.7261,-27.0517"/>
</g>
<!-- Node24&#45;&gt;Node18 -->
<g id="edge35" class="edge">
<title>Node24&#45;&gt;Node18</title>
<path fill="none" stroke="#191970" d="M1493.6812,-57.3114C1576.714,-46.5728 1716.8792,-28.4452 1797.4651,-18.023"/>
<polygon fill="#191970" stroke="#191970" points="1798.0005,-21.483 1807.4689,-16.7292 1797.1026,-14.5408 1798.0005,-21.483"/>
</g>
<!-- Node25 -->
<g id="node26" class="node">
<title>Node25</title>
<polygon fill="#ffffff" stroke="#bfbfbf" points="1346,-.5 1346,-19.5 1441,-19.5 1441,-.5 1346,-.5"/>
<text text-anchor="middle" x="1393.5" y="-7.5" font-family="Helvetica,sans-Serif" font-size="10.00" fill="#000000">AMReX_Vector.H</text>
</g>
<!-- Node24&#45;&gt;Node25 -->
<g id="edge36" class="edge">
<title>Node24&#45;&gt;Node25</title>
<path fill="none" stroke="#191970" d="M1420.7518,-56.2455C1416.2565,-48.617 1409.8752,-37.7881 1404.4175,-28.5267"/>
<polygon fill="#191970" stroke="#191970" points="1407.2747,-26.4811 1399.1823,-19.6427 1401.2439,-30.035 1407.2747,-26.4811"/>
</g>
<!-- Node26&#45;&gt;Node15 -->
<g id="edge38" class="edge">
<title>Node26&#45;&gt;Node15</title>
<path fill="none" stroke="#191970" d="M968.4466,-117.9935C919.8811,-106.337 844.5551,-86.8024 836.5,-76 831.1864,-68.8741 830.9713,-62.9603 836.5,-56 857.0434,-30.1368 953.4039,-17.502 1003.7242,-12.5781"/>
<polygon fill="#191970" stroke="#191970" points="1004.0891,-16.0594 1013.7193,-11.6425 1003.4366,-9.0898 1004.0891,-16.0594"/>
</g>
<!-- Node26&#45;&gt;Node16 -->
<g id="edge39" class="edge">
<title>Node26&#45;&gt;Node16</title>
<path fill="none" stroke="#191970" d="M968.4535,-117.923C931.4717,-108.3648 881.1692,-92.7263 869.5,-76 864.414,-68.7099 863.4121,-62.4768 869.5,-56 912.1113,-10.6667 1350.7088,-24.3934 1448.6184,-19.8961"/>
<polygon fill="#191970" stroke="#191970" points="1448.8384,-23.3893 1458.6002,-19.2714 1448.4011,-16.403 1448.8384,-23.3893"/>
</g>
<!-- Node26&#45;&gt;Node27 -->
<g id="edge40" class="edge">
<title>Node26&#45;&gt;Node27</title>
<path fill="none" stroke="#191970" d="M966.2124,-117.9581C917.0358,-107.1181 836.7576,-89.4224 783.777,-77.7439"/>
<polygon fill="#191970" stroke="#191970" points="784.4082,-74.299 773.8892,-75.5643 782.9013,-81.1349 784.4082,-74.299"/>
</g>
<!-- Node28&#45;&gt;Node15 -->
<g id="edge42" class="edge">
<title>Node28&#45;&gt;Node15</title>
<path fill="none" stroke="#191970" d="M1505.5881,-117.9646C1462.7269,-109.4973 1401.6789,-95.4416 1350.5,-76 1332.6587,-69.2225 1330.5908,-62.0802 1312.5,-56 1225.9162,-26.9 1117.745,-15.7782 1065.5378,-11.8898"/>
<polygon fill="#191970" stroke="#191970" points="1065.4961,-8.3782 1055.2746,-11.1659 1065.0036,-15.3609 1065.4961,-8.3782"/>
</g>
<!-- Node28&#45;&gt;Node16 -->
<g id="edge43" class="edge">
<title>Node28&#45;&gt;Node16</title>
<path fill="none" stroke="#191970" d="M1557.9452,-117.8845C1554.8416,-98.6913 1547.8228,-55.286 1543.6963,-29.7663"/>
<polygon fill="#191970" stroke="#191970" points="1547.1278,-29.0614 1542.0763,-19.7484 1540.2176,-30.1789 1547.1278,-29.0614"/>
</g>
<!-- Node28&#45;&gt;Node18 -->
<g id="edge45" class="edge">
<title>Node28&#45;&gt;Node18</title>
<path fill="none" stroke="#191970" d="M1632.5716,-119.2059C1677.0911,-112.0701 1734.1361,-99.1134 1780.5,-76 1805.289,-63.6422 1829.018,-42.0572 1843.8849,-26.9468"/>
<polygon fill="#191970" stroke="#191970" points="1846.4195,-29.3606 1850.8102,-19.7184 1841.3648,-24.5179 1846.4195,-29.3606"/>
</g>
<!-- Node28&#45;&gt;Node24 -->
<g id="edge44" class="edge">
<title>Node28&#45;&gt;Node24</title>
<path fill="none" stroke="#191970" d="M1538.7188,-117.8906C1516.6606,-107.6908 1481.595,-91.4763 1456.5331,-79.8875"/>
<polygon fill="#191970" stroke="#191970" points="1457.6809,-76.5622 1447.1353,-75.5419 1454.7429,-82.9158 1457.6809,-76.5622"/>
</g>
<!-- Node28&#45;&gt;Node25 -->
<g id="edge46" class="edge">
<title>Node28&#45;&gt;Node25</title>
<path fill="none" stroke="#191970" d="M1632.764,-124.3454C1706.4553,-118.5725 1803.7069,-102.235 1762.5,-56 1717.9224,-5.9831 1535.0626,-28.0668 1451.0335,-19.7629"/>
<polygon fill="#191970" stroke="#191970" points="1451.3996,-16.2818 1441.0522,-18.5579 1450.5605,-23.2314 1451.3996,-16.2818"/>
</g>
<!-- Node29 -->
<g id="node30" class="node">
<title>Node29</title>
<polygon fill="#ffffff" stroke="#bfbfbf" points="1625.5,-56.5 1625.5,-75.5 1753.5,-75.5 1753.5,-56.5 1625.5,-56.5"/>
<text text-anchor="middle" x="1689.5" y="-63.5" font-family="Helvetica,sans-Serif" font-size="10.00" fill="#000000">AMReX_PhysBCFunct.H</text>
</g>
<!-- Node28&#45;&gt;Node29 -->
<g id="edge47" class="edge">
<title>Node28&#45;&gt;Node29</title>
<path fill="none" stroke="#191970" d="M1579.8125,-117.8906C1601.3731,-107.6908 1635.6478,-91.4763 1660.1444,-79.8875"/>
<polygon fill="#191970" stroke="#191970" points="1661.7874,-82.9822 1669.3301,-75.5419 1658.7939,-76.6545 1661.7874,-82.9822"/>
</g>
<!-- Node30&#45;&gt;Node3 -->
<g id="edge53" class="edge">
<title>Node30&#45;&gt;Node3</title>
<path fill="none" stroke="#191970" d="M416.23,-179.4639C376.4962,-167.5792 321.6883,-151.1858 284.327,-140.0108"/>
<polygon fill="#191970" stroke="#191970" points="284.8625,-136.5178 274.2789,-137.0053 282.8565,-143.2242 284.8625,-136.5178"/>
</g>
<!-- Node30&#45;&gt;Node15 -->
<g id="edge52" class="edge">
<title>Node30&#45;&gt;Node15</title>
<path fill="none" stroke="#191970" d="M432.2959,-179.4617C417.035,-170.9747 400.3167,-158.855 390.5,-143 370.0364,-109.9492 354.996,-84.4367 381.5,-56 402.9819,-32.9516 877.3605,-15.3133 1003.7772,-11.0103"/>
<polygon fill="#191970" stroke="#191970" points="1004.0477,-14.5032 1013.9241,-10.6682 1003.8118,-7.5072 1004.0477,-14.5032"/>
</g>
<!-- Node30&#45;&gt;Node16 -->
<g id="edge61" class="edge">
<title>Node30&#45;&gt;Node16</title>
<path fill="none" stroke="#191970" d="M487.079,-179.3843C500.5153,-169.3447 518.3172,-155.7186 533.5,-143 549.1759,-129.8684 550.8897,-123.9278 567.5,-112 572.7114,-108.2577 662.3272,-57.7492 668.5,-56 832.8479,-9.4288 1261.2192,-32.7314 1448.5147,-20.0632"/>
<polygon fill="#191970" stroke="#191970" points="1448.8861,-23.5455 1458.6048,-19.3267 1448.3765,-16.564 1448.8861,-23.5455"/>
</g>
<!-- Node30&#45;&gt;Node23 -->
<g id="edge62" class="edge">
<title>Node30&#45;&gt;Node23</title>
<path fill="none" stroke="#191970" d="M499.0252,-179.4852C519.1647,-169.8068 545.3245,-156.5376 567.5,-143 587.6088,-130.7241 588.631,-120.7641 610.5,-112 655.9343,-93.792 785.031,-79.6496 868.2094,-72.0926"/>
<polygon fill="#191970" stroke="#191970" points="868.7209,-75.5609 878.3683,-71.1816 868.0956,-68.5888 868.7209,-75.5609"/>
</g>
<!-- Node31 -->
<g id="node32" class="node">
<title>Node31</title>
<g id="a_node32"><a xlink:href="_coll_mgr_8_h.html" target="_top" xlink:title="amr&#45;wind/core/CollMgr.H">
<polygon fill="#ffffff" stroke="#000000" points="400,-118 400,-137 525,-137 525,-118 400,-118"/>
<text text-anchor="middle" x="462.5" y="-125" font-family="Helvetica,sans-Serif" font-size="10.00" fill="#000000">amr&#45;wind/core/CollMgr.H</text>
</a>
</g>
</g>
<!-- Node30&#45;&gt;Node31 -->
<g id="edge54" class="edge">
<title>Node30&#45;&gt;Node31</title>
<path fill="none" stroke="#191970" d="M465.5923,-179.2967C465.0236,-169.7699 464.2848,-157.3954 463.672,-147.1306"/>
<polygon fill="#191970" stroke="#191970" points="467.1603,-146.8286 463.0704,-137.055 460.1727,-147.2458 467.1603,-146.8286"/>
</g>
<!-- Node32 -->
<g id="node33" class="node">
<title>Node32</title>
<g id="a_node33"><a xlink:href="_p_d_e_fields_8_h.html" target="_top" xlink:title="amr&#45;wind/equation_systems\l/PDEFields.H">
<polygon fill="#ffffff" stroke="#000000" points="0,-112.5 0,-142.5 139,-142.5 139,-112.5 0,-112.5"/>
<text text-anchor="start" x="8" y="-130.5" font-family="Helvetica,sans-Serif" font-size="10.00" fill="#000000">amr&#45;wind/equation_systems</text>
<text text-anchor="middle" x="69.5" y="-119.5" font-family="Helvetica,sans-Serif" font-size="10.00" fill="#000000">/PDEFields.H</text>
</a>
</g>
</g>
<!-- Node30&#45;&gt;Node32 -->
<g id="edge59" class="edge">
<title>Node30&#45;&gt;Node32</title>
<path fill="none" stroke="#191970" d="M396.7367,-180.6819C393.6167,-180.1051 390.5268,-179.5419 387.5,-179 343.0207,-171.0371 227.9946,-152.6079 149.2024,-140.0979"/>
<polygon fill="#191970" stroke="#191970" points="149.7248,-136.6371 139.2998,-138.5265 148.6276,-143.5506 149.7248,-136.6371"/>
</g>
<!-- Node31&#45;&gt;Node2 -->
<g id="edge56" class="edge">
<title>Node31&#45;&gt;Node2</title>
<path fill="none" stroke="#191970" d="M455.3125,-117.8906C448.5334,-108.8273 438.2022,-95.0149 429.9027,-83.9188"/>
<polygon fill="#191970" stroke="#191970" points="432.5812,-81.6563 423.7888,-75.7449 426.9757,-85.849 432.5812,-81.6563"/>
</g>
<!-- Node31&#45;&gt;Node4 -->
<g id="edge57" class="edge">
<title>Node31&#45;&gt;Node4</title>
<path fill="none" stroke="#191970" d="M480.625,-117.8906C499.6083,-107.8262 529.6373,-91.9057 551.4307,-80.3514"/>
<polygon fill="#191970" stroke="#191970" points="553.3066,-83.3184 560.5023,-75.5419 550.0277,-77.1338 553.3066,-83.3184"/>
</g>
<!-- Node31&#45;&gt;Node15 -->
<g id="edge55" class="edge">
<title>Node31&#45;&gt;Node15</title>
<path fill="none" stroke="#191970" d="M463.7019,-117.9263C466.2477,-102.0886 473.7647,-70.7243 494.5,-56 536.1267,-26.4404 895.3338,-13.9382 1003.687,-10.8178"/>
<polygon fill="#191970" stroke="#191970" points="1004.0425,-14.3093 1013.9401,-10.5292 1003.8455,-7.3121 1004.0425,-14.3093"/>
</g>
<!-- Node31&#45;&gt;Node25 -->
<g id="edge58" class="edge">
<title>Node31&#45;&gt;Node25</title>
<path fill="none" stroke="#191970" d="M467.7908,-117.9074C477.3076,-101.7428 499.006,-69.5199 527.5,-56 563.9831,-38.6895 1147.6818,-18.0814 1335.66,-11.8644"/>
<polygon fill="#191970" stroke="#191970" points="1336.0115,-15.3548 1345.8908,-11.5273 1335.7809,-8.3586 1336.0115,-15.3548"/>
</g>
<!-- Node33 -->
<g id="node34" class="node">
<title>Node33</title>
<polygon fill="#ffffff" stroke="#bfbfbf" points="31,-56.5 31,-75.5 76,-75.5 76,-56.5 31,-56.5"/>
<text text-anchor="middle" x="53.5" y="-63.5" font-family="Helvetica,sans-Serif" font-size="10.00" fill="#000000">iosfwd</text>
</g>
<!-- Node32&#45;&gt;Node33 -->
<g id="edge60" class="edge">
<title>Node32&#45;&gt;Node33</title>
<path fill="none" stroke="#191970" d="M65.5449,-112.2977C63.4628,-104.2945 60.8845,-94.3843 58.6483,-85.7889"/>
<polygon fill="#191970" stroke="#191970" points="61.9669,-84.6435 56.0618,-75.8469 55.1924,-86.406 61.9669,-84.6435"/>
</g>
<!-- Node34&#45;&gt;Node3 -->
<g id="edge64" class="edge">
<title>Node34&#45;&gt;Node3</title>
<path fill="none" stroke="#191970" d="M613.0637,-184.9717C534.1584,-172.7341 397.4651,-151.5339 313.9832,-138.5865"/>
<polygon fill="#191970" stroke="#191970" points="314.492,-135.1237 304.0737,-137.0496 313.4191,-142.041 314.492,-135.1237"/>
</g>
<!-- Node34&#45;&gt;Node18 -->
<g id="edge66" class="edge">
<title>Node34&#45;&gt;Node18</title>
<path fill="none" stroke="#191970" d="M738.2966,-191.6741C946.8192,-182.3624 1597.4223,-152.6875 1641.5,-143 1720.0116,-125.7445 1745.5537,-124.7104 1809.5,-76 1826.385,-63.138 1840.426,-43.1564 1849.2864,-28.547"/>
<polygon fill="#191970" stroke="#191970" points="1852.3413,-30.2561 1854.3387,-19.8512 1846.2887,-26.7395 1852.3413,-30.2561"/>
</g>
<!-- Node34&#45;&gt;Node31 -->
<g id="edge65" class="edge">
<title>Node34&#45;&gt;Node31</title>
<path fill="none" stroke="#191970" d="M644.1256,-184.9005C606.8942,-173.134 543.6901,-153.1591 502.5243,-140.1492"/>
<polygon fill="#191970" stroke="#191970" points="503.408,-136.7579 492.8181,-137.0817 501.2985,-143.4325 503.408,-136.7579"/>
</g>
<!-- Node35 -->
<g id="node36" class="node">
<title>Node35</title>
<polygon fill="#ffffff" stroke="#bfbfbf" points="619.5,-118 619.5,-137 729.5,-137 729.5,-118 619.5,-118"/>
<text text-anchor="middle" x="674.5" y="-125" font-family="Helvetica,sans-Serif" font-size="10.00" fill="#000000">AMReX_Geometry.H</text>
</g>
<!-- Node34&#45;&gt;Node35 -->
<g id="edge67" class="edge">
<title>Node34&#45;&gt;Node35</title>
<path fill="none" stroke="#191970" d="M674.5,-184.9005C674.5,-175.149 674.5,-159.7597 674.5,-147.3695"/>
<polygon fill="#191970" stroke="#191970" points="678.0001,-147.0816 674.5,-137.0817 671.0001,-147.0817 678.0001,-147.0816"/>
</g>
</g>
</svg>
        <g id="navigator" transform="translate(0 0)" fill="#404254">
                <rect fill="#f2f5e9" fill-opacity="0.5" stroke="#606060" stroke-width=".5" x="0" y="0" width="60" height="60"/>
                <use id="zoomplus" xlink:href="#zoomPlus" x="17" y="9" onmousedown="handleZoom(evt,'in')"/>
                <use id="zoomminus" xlink:href="#zoomMin" x="42" y="9" onmousedown="handleZoom(evt,'out')"/>
                <use id="reset" xlink:href="#resetDef" x="30" y="36" onmousedown="handleReset()"/>
                <g id="arrowUp" xlink:href="#dirArrow" transform="translate(30 24)" onmousedown="handlePan(0,-1)">
                  <use xlink:href="#rim" fill="#404040">
                        <set attributeName="fill" to="#808080" begin="arrowUp.mouseover" end="arrowUp.mouseout"/>
                  </use>
                  <path fill="none" stroke="white" stroke-width="1.5" d="M0,-3.0v7 M-2.5,-0.5L0,-3.0L2.5,-0.5"/>
                </g>
                <g id="arrowRight" xlink:href="#dirArrow" transform="rotate(90) translate(36 -43)" onmousedown="handlePan(1,0)">
                  <use xlink:href="#rim" fill="#404040">
                        <set attributeName="fill" to="#808080" begin="arrowRight.mouseover" end="arrowRight.mouseout"/>
                  </use>
                  <path fill="none" stroke="white" stroke-width="1.5" d="M0,-3.0v7 M-2.5,-0.5L0,-3.0L2.5,-0.5"/>
                </g>
                <g id="arrowDown" xlink:href="#dirArrow" transform="rotate(180) translate(-30 -48)" onmousedown="handlePan(0,1)">
                  <use xlink:href="#rim" fill="#404040">
                        <set attributeName="fill" to="#808080" begin="arrowDown.mouseover" end="arrowDown.mouseout"/>
                  </use>
                  <path fill="none" stroke="white" stroke-width="1.5" d="M0,-3.0v7 M-2.5,-0.5L0,-3.0L2.5,-0.5"/>
                </g>
                <g id="arrowLeft" xlink:href="#dirArrow" transform="rotate(270) translate(-36 17)" onmousedown="handlePan(-1,0)">
                  <use xlink:href="#rim" fill="#404040">
                        <set attributeName="fill" to="#808080" begin="arrowLeft.mouseover" end="arrowLeft.mouseout"/>
                  </use>
                  <path fill="none" stroke="white" stroke-width="1.5" d="M0,-3.0v7 M-2.5,-0.5L0,-3.0L2.5,-0.5"/>
                </g>
        </g>
        <svg viewBox="0 0 15 15" width="100%" height="30px" preserveAspectRatio="xMaxYMin meet">
         <g id="arrow_out" transform="scale(0.3 0.3)">
          <a xlink:href="_post_processing_8cpp__incl_org.svg" target="_base">
           <rect id="button" ry="5" rx="5" y="6" x="6" height="38" width="38"
                fill="#f2f5e9" fill-opacity="0.5" stroke="#606060" stroke-width="1.0"/>
           <path id="arrow"
             d="M 11.500037,31.436501 C 11.940474,20.09759 22.043105,11.32322 32.158766,21.979434 L 37.068811,17.246167 C 37.068811,17.246167 37.088388,32 37.088388,32 L 22.160133,31.978069 C 22.160133,31.978069 26.997745,27.140456 26.997745,27.140456 C 18.528582,18.264221 13.291696,25.230495 11.500037,31.436501 z"
             style="fill:#404040;"/>
          </a>
         </g>
        </svg>
</svg>
