<?xml version="1.0" encoding="UTF-8" standalone="no"?>
<!DOCTYPE svg PUBLIC "-//W3C//DTD SVG 1.1//EN"
 "http://www.w3.org/Graphics/SVG/1.1/DTD/svg11.dtd">
<!-- Generated by graphviz version 2.40.1 (20161225.0304)
 -->
<!-- Title: RayleighTaylor.H Pages: 1 -->
<svg width="1755pt" height="207pt"
 viewBox="0.00 0.00 1755.00 207.00" xmlns="http://www.w3.org/2000/svg" xmlns:xlink="http://www.w3.org/1999/xlink">
<g id="graph0" class="graph" transform="scale(1 1) rotate(0) translate(4 203)">
<title>RayleighTaylor.H</title>
<polygon fill="#ffffff" stroke="transparent" points="-4,4 -4,-203 1751,-203 1751,4 -4,4"/>
<!-- Node0 -->
<g id="node1" class="node">
<title>Node0</title>
<polygon fill="#bfbfbf" stroke="#000000" points="535,-179.5 535,-198.5 627,-198.5 627,-179.5 535,-179.5"/>
<text text-anchor="middle" x="581" y="-186.5" font-family="Helvetica,sans-Serif" font-size="10.00" fill="#000000">RayleighTaylor.H</text>
</g>
<!-- Node1 -->
<g id="node2" class="node">
<title>Node1</title>
<polygon fill="#ffffff" stroke="#bfbfbf" points="258,-.5 258,-19.5 310,-19.5 310,-.5 258,-.5"/>
<text text-anchor="middle" x="284" y="-7.5" font-family="Helvetica,sans-Serif" font-size="10.00" fill="#000000">memory</text>
</g>
<!-- Node0&#45;&gt;Node1 -->
<g id="edge1" class="edge">
<title>Node0&#45;&gt;Node1</title>
<path fill="none" stroke="#191970" d="M534.879,-185.7173C487.3042,-180.9821 411.8226,-169.6496 352,-143 306.4484,-122.7079 284.3807,-120.5626 262,-76 254.2483,-60.5655 262.0213,-41.7804 270.3937,-28.204"/>
<polygon fill="#191970" stroke="#191970" points="273.4111,-29.9896 276.1024,-19.7423 267.6082,-26.0747 273.4111,-29.9896"/>
</g>
<!-- Node2 -->
<g id="node3" class="node">
<title>Node2</title>
<g id="a_node3"><a xlink:href="_physics_8_h.html" target="_top" xlink:title="amr&#45;wind/core/Physics.H">
<polygon fill="#ffffff" stroke="#000000" points="361.5,-118 361.5,-137 488.5,-137 488.5,-118 361.5,-118"/>
<text text-anchor="middle" x="425" y="-125" font-family="Helvetica,sans-Serif" font-size="10.00" fill="#000000">amr&#45;wind/core/Physics.H</text>
</a>
</g>
</g>
<!-- Node0&#45;&gt;Node2 -->
<g id="edge2" class="edge">
<title>Node0&#45;&gt;Node2</title>
<path fill="none" stroke="#191970" d="M556.625,-179.3906C530.2944,-169.0103 488.162,-152.4004 458.6771,-140.7766"/>
<polygon fill="#191970" stroke="#191970" points="459.7907,-137.4534 449.2038,-137.0419 457.2233,-143.9657 459.7907,-137.4534"/>
</g>
<!-- Node13 -->
<g id="node14" class="node">
<title>Node13</title>
<g id="a_node14"><a xlink:href="_rayleigh_taylor_field_init_8_h.html" target="_top" xlink:title="amr&#45;wind/physics/Rayleigh\lTaylorFieldInit.H">
<polygon fill="#ffffff" stroke="#000000" points="726,-112.5 726,-142.5 860,-142.5 860,-112.5 726,-112.5"/>
<text text-anchor="start" x="734" y="-130.5" font-family="Helvetica,sans-Serif" font-size="10.00" fill="#000000">amr&#45;wind/physics/Rayleigh</text>
<text text-anchor="middle" x="793" y="-119.5" font-family="Helvetica,sans-Serif" font-size="10.00" fill="#000000">TaylorFieldInit.H</text>
</a>
</g>
</g>
<!-- Node0&#45;&gt;Node13 -->
<g id="edge16" class="edge">
<title>Node0&#45;&gt;Node13</title>
<path fill="none" stroke="#191970" d="M614.125,-179.3906C645.3404,-170.3352 692.898,-156.539 731.131,-145.4479"/>
<polygon fill="#191970" stroke="#191970" points="732.5101,-148.6922 741.139,-142.5446 730.5598,-141.9693 732.5101,-148.6922"/>
</g>
<!-- Node19 -->
<g id="node20" class="node">
<title>Node19</title>
<g id="a_node20"><a xlink:href="_field_8_h.html" target="_top" xlink:title="amr&#45;wind/core/Field.H">
<polygon fill="#ffffff" stroke="#000000" points="1235.5,-118 1235.5,-137 1348.5,-137 1348.5,-118 1235.5,-118"/>
<text text-anchor="middle" x="1292" y="-125" font-family="Helvetica,sans-Serif" font-size="10.00" fill="#000000">amr&#45;wind/core/Field.H</text>
</a>
</g>
</g>
<!-- Node0&#45;&gt;Node19 -->
<g id="edge24" class="edge">
<title>Node0&#45;&gt;Node19</title>
<path fill="none" stroke="#191970" d="M627.1029,-185.0122C749.2882,-174.4434 1081.8449,-145.678 1224.9957,-133.2957"/>
<polygon fill="#191970" stroke="#191970" points="1225.7195,-136.7463 1235.3807,-132.3975 1225.1162,-129.7723 1225.7195,-136.7463"/>
</g>
<!-- Node3 -->
<g id="node4" class="node">
<title>Node3</title>
<g id="a_node4"><a xlink:href="_factory_8_h.html" target="_top" xlink:title="amr&#45;wind/core/Factory.H">
<polygon fill="#ffffff" stroke="#000000" points="89.5,-56.5 89.5,-75.5 214.5,-75.5 214.5,-56.5 89.5,-56.5"/>
<text text-anchor="middle" x="152" y="-63.5" font-family="Helvetica,sans-Serif" font-size="10.00" fill="#000000">amr&#45;wind/core/Factory.H</text>
</a>
</g>
</g>
<!-- Node2&#45;&gt;Node3 -->
<g id="edge3" class="edge">
<title>Node2&#45;&gt;Node3</title>
<path fill="none" stroke="#191970" d="M382.6433,-117.9581C334.6243,-107.1406 256.299,-89.4959 204.455,-77.8168"/>
<polygon fill="#191970" stroke="#191970" points="204.9808,-74.3476 194.4561,-75.5643 203.4424,-81.1765 204.9808,-74.3476"/>
</g>
<!-- Node8 -->
<g id="node9" class="node">
<title>Node8</title>
<g id="a_node9"><a xlink:href="_coll_mgr_8_h.html" target="_top" xlink:title="amr&#45;wind/core/CollMgr.H">
<polygon fill="#ffffff" stroke="#000000" points="271.5,-56.5 271.5,-75.5 396.5,-75.5 396.5,-56.5 271.5,-56.5"/>
<text text-anchor="middle" x="334" y="-63.5" font-family="Helvetica,sans-Serif" font-size="10.00" fill="#000000">amr&#45;wind/core/CollMgr.H</text>
</a>
</g>
</g>
<!-- Node2&#45;&gt;Node8 -->
<g id="edge9" class="edge">
<title>Node2&#45;&gt;Node8</title>
<path fill="none" stroke="#191970" d="M410.7813,-117.8906C396.3566,-108.1421 373.8024,-92.8994 356.864,-81.4521"/>
<polygon fill="#191970" stroke="#191970" points="358.3641,-78.2415 348.1189,-75.5419 354.4444,-84.0412 358.3641,-78.2415"/>
</g>
<!-- Node11 -->
<g id="node12" class="node">
<title>Node11</title>
<polygon fill="#ffffff" stroke="#bfbfbf" points="1193,-.5 1193,-19.5 1297,-19.5 1297,-.5 1193,-.5"/>
<text text-anchor="middle" x="1245" y="-7.5" font-family="Helvetica,sans-Serif" font-size="10.00" fill="#000000">AMReX_MultiFab.H</text>
</g>
<!-- Node2&#45;&gt;Node11 -->
<g id="edge14" class="edge">
<title>Node2&#45;&gt;Node11</title>
<path fill="none" stroke="#191970" d="M424.3306,-117.7705C423.8415,-101.9966 425.4792,-71.0899 444,-56 499.1307,-11.0822 1012.011,-24.1907 1083,-20 1115.8374,-18.0615 1152.4128,-15.8116 1182.4891,-13.9373"/>
<polygon fill="#191970" stroke="#191970" points="1183.0771,-17.4075 1192.8396,-13.2911 1182.6409,-10.4211 1183.0771,-17.4075"/>
</g>
<!-- Node12 -->
<g id="node13" class="node">
<title>Node12</title>
<polygon fill="#ffffff" stroke="#bfbfbf" points="453,-56.5 453,-75.5 563,-75.5 563,-56.5 453,-56.5"/>
<text text-anchor="middle" x="508" y="-63.5" font-family="Helvetica,sans-Serif" font-size="10.00" fill="#000000">AMReX_Geometry.H</text>
</g>
<!-- Node2&#45;&gt;Node12 -->
<g id="edge15" class="edge">
<title>Node2&#45;&gt;Node12</title>
<path fill="none" stroke="#191970" d="M437.9688,-117.8906C451.0034,-108.2324 471.3164,-93.1812 486.7155,-81.771"/>
<polygon fill="#191970" stroke="#191970" points="489.1713,-84.3075 495.1223,-75.5419 485.0039,-78.6832 489.1713,-84.3075"/>
</g>
<!-- Node3&#45;&gt;Node1 -->
<g id="edge4" class="edge">
<title>Node3&#45;&gt;Node1</title>
<path fill="none" stroke="#191970" d="M174.6916,-56.3733C196.0711,-47.3032 228.3057,-33.6279 252.2362,-23.4755"/>
<polygon fill="#191970" stroke="#191970" points="253.7656,-26.6287 261.6045,-19.5011 251.0317,-20.1846 253.7656,-26.6287"/>
</g>
<!-- Node4 -->
<g id="node5" class="node">
<title>Node4</title>
<polygon fill="#ffffff" stroke="#bfbfbf" points="328.5,-.5 328.5,-19.5 411.5,-19.5 411.5,-.5 328.5,-.5"/>
<text text-anchor="middle" x="370" y="-7.5" font-family="Helvetica,sans-Serif" font-size="10.00" fill="#000000">unordered_map</text>
</g>
<!-- Node3&#45;&gt;Node4 -->
<g id="edge5" class="edge">
<title>Node3&#45;&gt;Node4</title>
<path fill="none" stroke="#191970" d="M189.4755,-56.3733C226.5103,-46.8598 283.2682,-32.2797 323.2361,-22.0127"/>
<polygon fill="#191970" stroke="#191970" points="324.1988,-25.3792 333.0135,-19.5011 322.4571,-18.5993 324.1988,-25.3792"/>
</g>
<!-- Node5 -->
<g id="node6" class="node">
<title>Node5</title>
<polygon fill="#ffffff" stroke="#bfbfbf" points="0,-.5 0,-19.5 54,-19.5 54,-.5 0,-.5"/>
<text text-anchor="middle" x="27" y="-7.5" font-family="Helvetica,sans-Serif" font-size="10.00" fill="#000000">iostream</text>
</g>
<!-- Node3&#45;&gt;Node5 -->
<g id="edge6" class="edge">
<title>Node3&#45;&gt;Node5</title>
<path fill="none" stroke="#191970" d="M130.5117,-56.3733C110.356,-47.3435 80.012,-33.7494 57.382,-23.6111"/>
<polygon fill="#191970" stroke="#191970" points="58.7649,-20.3955 48.2079,-19.5011 55.9029,-26.7838 58.7649,-20.3955"/>
</g>
<!-- Node6 -->
<g id="node7" class="node">
<title>Node6</title>
<polygon fill="#ffffff" stroke="#bfbfbf" points="72.5,-.5 72.5,-19.5 159.5,-19.5 159.5,-.5 72.5,-.5"/>
<text text-anchor="middle" x="116" y="-7.5" font-family="Helvetica,sans-Serif" font-size="10.00" fill="#000000">AMReX_Print.H</text>
</g>
<!-- Node3&#45;&gt;Node6 -->
<g id="edge7" class="edge">
<title>Node3&#45;&gt;Node6</title>
<path fill="none" stroke="#191970" d="M145.7293,-56.2455C140.7736,-48.5367 133.717,-37.5598 127.7224,-28.2348"/>
<polygon fill="#191970" stroke="#191970" points="130.5506,-26.1618 122.1989,-19.6427 124.6624,-29.9471 130.5506,-26.1618"/>
</g>
<!-- Node7 -->
<g id="node8" class="node">
<title>Node7</title>
<polygon fill="#ffffff" stroke="#bfbfbf" points="178,-.5 178,-19.5 240,-19.5 240,-.5 178,-.5"/>
<text text-anchor="middle" x="209" y="-7.5" font-family="Helvetica,sans-Serif" font-size="10.00" fill="#000000">AMReX.H</text>
</g>
<!-- Node3&#45;&gt;Node7 -->
<g id="edge8" class="edge">
<title>Node3&#45;&gt;Node7</title>
<path fill="none" stroke="#191970" d="M161.9286,-56.2455C170.1838,-48.1352 182.1209,-36.4075 191.9082,-26.7919"/>
<polygon fill="#191970" stroke="#191970" points="194.5046,-29.1476 199.1851,-19.6427 189.5989,-24.1542 194.5046,-29.1476"/>
</g>
<!-- Node8&#45;&gt;Node1 -->
<g id="edge11" class="edge">
<title>Node8&#45;&gt;Node1</title>
<path fill="none" stroke="#191970" d="M325.2907,-56.2455C318.1927,-48.2958 307.9916,-36.8706 299.505,-27.3656"/>
<polygon fill="#191970" stroke="#191970" points="301.8805,-24.771 292.6095,-19.6427 296.6589,-29.4331 301.8805,-24.771"/>
</g>
<!-- Node8&#45;&gt;Node4 -->
<g id="edge12" class="edge">
<title>Node8&#45;&gt;Node4</title>
<path fill="none" stroke="#191970" d="M340.2707,-56.2455C345.2264,-48.5367 352.283,-37.5598 358.2776,-28.2348"/>
<polygon fill="#191970" stroke="#191970" points="361.3376,-29.9471 363.8011,-19.6427 355.4494,-26.1618 361.3376,-29.9471"/>
</g>
<!-- Node9 -->
<g id="node10" class="node">
<title>Node9</title>
<polygon fill="#ffffff" stroke="#bfbfbf" points="1319.5,-.5 1319.5,-19.5 1360.5,-19.5 1360.5,-.5 1319.5,-.5"/>
<text text-anchor="middle" x="1340" y="-7.5" font-family="Helvetica,sans-Serif" font-size="10.00" fill="#000000">string</text>
</g>
<!-- Node8&#45;&gt;Node9 -->
<g id="edge10" class="edge">
<title>Node8&#45;&gt;Node9</title>
<path fill="none" stroke="#191970" d="M396.7822,-59.7583C412.2104,-58.3719 428.6928,-57.0148 444,-56 826.6052,-30.6347 927.6934,-82.5639 1306,-20 1307.0927,-19.8193 1308.1998,-19.6146 1309.3139,-19.3901"/>
<polygon fill="#191970" stroke="#191970" points="1310.441,-22.718 1319.3292,-16.9517 1308.785,-15.9167 1310.441,-22.718"/>
</g>
<!-- Node10 -->
<g id="node11" class="node">
<title>Node10</title>
<polygon fill="#ffffff" stroke="#bfbfbf" points="979.5,-.5 979.5,-19.5 1074.5,-19.5 1074.5,-.5 979.5,-.5"/>
<text text-anchor="middle" x="1027" y="-7.5" font-family="Helvetica,sans-Serif" font-size="10.00" fill="#000000">AMReX_Vector.H</text>
</g>
<!-- Node8&#45;&gt;Node10 -->
<g id="edge13" class="edge">
<title>Node8&#45;&gt;Node10</title>
<path fill="none" stroke="#191970" d="M396.5818,-57.5821C401.4568,-57.0151 406.3063,-56.4797 411,-56 615.8965,-35.0605 860.0581,-19.6494 969.2505,-13.257"/>
<polygon fill="#191970" stroke="#191970" points="969.6106,-16.742 979.3903,-12.6666 969.2037,-9.7539 969.6106,-16.742"/>
</g>
<!-- Node13&#45;&gt;Node10 -->
<g id="edge22" class="edge">
<title>Node13&#45;&gt;Node10</title>
<path fill="none" stroke="#191970" d="M860.1792,-118.8866C915.0705,-110.532 986.9125,-96.1554 1008,-76 1020.5012,-64.0514 1024.936,-44.4582 1026.4317,-29.7172"/>
<polygon fill="#191970" stroke="#191970" points="1029.9334,-29.8029 1027.0876,-19.5974 1022.9481,-29.3501 1029.9334,-29.8029"/>
</g>
<!-- Node13&#45;&gt;Node12 -->
<g id="edge20" class="edge">
<title>Node13&#45;&gt;Node12</title>
<path fill="none" stroke="#191970" d="M725.8199,-113.0032C675.8383,-102.2177 608.5082,-87.6886 561.999,-77.6524"/>
<polygon fill="#191970" stroke="#191970" points="562.6258,-74.2072 552.1125,-75.519 561.1492,-81.0497 562.6258,-74.2072"/>
</g>
<!-- Node14 -->
<g id="node15" class="node">
<title>Node14</title>
<polygon fill="#ffffff" stroke="#bfbfbf" points="693,-56.5 693,-75.5 783,-75.5 783,-56.5 693,-56.5"/>
<text text-anchor="middle" x="738" y="-63.5" font-family="Helvetica,sans-Serif" font-size="10.00" fill="#000000">AMReX_Array.H</text>
</g>
<!-- Node13&#45;&gt;Node14 -->
<g id="edge17" class="edge">
<title>Node13&#45;&gt;Node14</title>
<path fill="none" stroke="#191970" d="M779.4045,-112.2977C771.6109,-103.5831 761.7953,-92.6075 753.6774,-83.5302"/>
<polygon fill="#191970" stroke="#191970" points="756.0813,-80.9678 746.8062,-75.8469 750.8635,-85.6341 756.0813,-80.9678"/>
</g>
<!-- Node15 -->
<g id="node16" class="node">
<title>Node15</title>
<polygon fill="#ffffff" stroke="#bfbfbf" points="801.5,-56.5 801.5,-75.5 896.5,-75.5 896.5,-56.5 801.5,-56.5"/>
<text text-anchor="middle" x="849" y="-63.5" font-family="Helvetica,sans-Serif" font-size="10.00" fill="#000000">AMReX_Array4.H</text>
</g>
<!-- Node13&#45;&gt;Node15 -->
<g id="edge18" class="edge">
<title>Node13&#45;&gt;Node15</title>
<path fill="none" stroke="#191970" d="M806.8427,-112.2977C814.859,-103.4941 824.9762,-92.3833 833.29,-83.2529"/>
<polygon fill="#191970" stroke="#191970" points="835.8888,-85.5974 840.0337,-75.8469 830.7131,-80.8845 835.8888,-85.5974"/>
</g>
<!-- Node16 -->
<g id="node17" class="node">
<title>Node16</title>
<polygon fill="#ffffff" stroke="#bfbfbf" points="915,-56.5 915,-75.5 999,-75.5 999,-56.5 915,-56.5"/>
<text text-anchor="middle" x="957" y="-63.5" font-family="Helvetica,sans-Serif" font-size="10.00" fill="#000000">AMReX_Box.H</text>
</g>
<!-- Node13&#45;&gt;Node16 -->
<g id="edge19" class="edge">
<title>Node13&#45;&gt;Node16</title>
<path fill="none" stroke="#191970" d="M833.1189,-112.4554C860.3627,-102.239 896.0377,-88.8609 922.1038,-79.0861"/>
<polygon fill="#191970" stroke="#191970" points="923.4515,-82.3188 931.5858,-75.5303 920.9936,-75.7645 923.4515,-82.3188"/>
</g>
<!-- Node17 -->
<g id="node18" class="node">
<title>Node17</title>
<polygon fill="#ffffff" stroke="#bfbfbf" points="581.5,-56.5 581.5,-75.5 674.5,-75.5 674.5,-56.5 581.5,-56.5"/>
<text text-anchor="middle" x="628" y="-63.5" font-family="Helvetica,sans-Serif" font-size="10.00" fill="#000000">AMReX_REAL.H</text>
</g>
<!-- Node13&#45;&gt;Node17 -->
<g id="edge21" class="edge">
<title>Node13&#45;&gt;Node17</title>
<path fill="none" stroke="#191970" d="M752.6365,-112.4554C725.2265,-102.239 689.3341,-88.8609 663.109,-79.0861"/>
<polygon fill="#191970" stroke="#191970" points="664.1618,-75.7433 653.5691,-75.5303 661.717,-82.3025 664.1618,-75.7433"/>
</g>
<!-- Node18 -->
<g id="node19" class="node">
<title>Node18</title>
<polygon fill="#ffffff" stroke="#bfbfbf" points="1055.5,-56.5 1055.5,-75.5 1140.5,-75.5 1140.5,-56.5 1055.5,-56.5"/>
<text text-anchor="middle" x="1098" y="-63.5" font-family="Helvetica,sans-Serif" font-size="10.00" fill="#000000">AMReX_Gpu.H</text>
</g>
<!-- Node13&#45;&gt;Node18 -->
<g id="edge23" class="edge">
<title>Node13&#45;&gt;Node18</title>
<path fill="none" stroke="#191970" d="M860.3111,-113.9274C916.0644,-102.6854 994.1847,-86.9333 1045.4224,-76.6017"/>
<polygon fill="#191970" stroke="#191970" points="1046.1861,-80.0183 1055.2969,-74.6106 1044.8024,-73.1564 1046.1861,-80.0183"/>
</g>
<!-- Node19&#45;&gt;Node1 -->
<g id="edge26" class="edge">
<title>Node19&#45;&gt;Node1</title>
<path fill="none" stroke="#191970" d="M1270.4147,-117.9967C1248.2188,-108.0633 1212.786,-91.756 1183,-76 1167.5029,-67.8025 1165.8119,-60.9718 1149,-56 974.987,-4.5391 517.239,-48.0222 320.2585,-19.7484"/>
<polygon fill="#191970" stroke="#191970" points="320.6386,-16.2658 310.2232,-18.2077 319.5762,-23.1848 320.6386,-16.2658"/>
</g>
<!-- Node19&#45;&gt;Node4 -->
<g id="edge27" class="edge">
<title>Node19&#45;&gt;Node4</title>
<path fill="none" stroke="#191970" d="M1281.5666,-117.8661C1263.2507,-101.6393 1223.4071,-69.325 1183,-56 1111.0413,-32.2704 589.4351,-16.0248 421.7588,-11.3702"/>
<polygon fill="#191970" stroke="#191970" points="421.7923,-7.8699 411.6997,-11.0931 421.5995,-14.8673 421.7923,-7.8699"/>
</g>
<!-- Node19&#45;&gt;Node9 -->
<g id="edge25" class="edge">
<title>Node19&#45;&gt;Node9</title>
<path fill="none" stroke="#191970" d="M1348.6542,-123.4993C1412.721,-117.6581 1511.1274,-104.2524 1534,-76 1539.5931,-69.0914 1539.5128,-62.9729 1534,-56 1513.9998,-30.703 1420.3408,-17.8617 1370.8425,-12.7458"/>
<polygon fill="#191970" stroke="#191970" points="1371.0026,-9.2446 1360.7064,-11.7425 1370.313,-16.2106 1371.0026,-9.2446"/>
</g>
<!-- Node19&#45;&gt;Node11 -->
<g id="edge28" class="edge">
<title>Node19&#45;&gt;Node11</title>
<path fill="none" stroke="#191970" d="M1285.977,-117.9384C1279.8062,-107.8255 1270.255,-91.2541 1264,-76 1257.7798,-60.8307 1252.7602,-42.9165 1249.446,-29.5821"/>
<polygon fill="#191970" stroke="#191970" points="1252.795,-28.5367 1247.0742,-19.6191 1245.9853,-30.1579 1252.795,-28.5367"/>
</g>
<!-- Node19&#45;&gt;Node18 -->
<g id="edge30" class="edge">
<title>Node19&#45;&gt;Node18</title>
<path fill="none" stroke="#191970" d="M1261.6875,-117.8906C1228.3735,-107.3298 1174.7192,-90.3208 1137.9819,-78.6747"/>
<polygon fill="#191970" stroke="#191970" points="1138.6898,-75.2275 1128.0996,-75.5419 1136.5744,-81.9002 1138.6898,-75.2275"/>
</g>
<!-- Node20 -->
<g id="node21" class="node">
<title>Node20</title>
<polygon fill="#ffffff" stroke="#bfbfbf" points="1425.5,-56.5 1425.5,-75.5 1524.5,-75.5 1524.5,-56.5 1425.5,-56.5"/>
<text text-anchor="middle" x="1475" y="-63.5" font-family="Helvetica,sans-Serif" font-size="10.00" fill="#000000">AMReX_BCRec.H</text>
</g>
<!-- Node19&#45;&gt;Node20 -->
<g id="edge29" class="edge">
<title>Node19&#45;&gt;Node20</title>
<path fill="none" stroke="#191970" d="M1320.5938,-117.8906C1351.8845,-107.3749 1402.1986,-90.466 1436.84,-78.8243"/>
<polygon fill="#191970" stroke="#191970" points="1438.243,-82.0452 1446.607,-75.5419 1436.013,-75.4099 1438.243,-82.0452"/>
</g>
<!-- Node21 -->
<g id="node22" class="node">
<title>Node21</title>
<g id="a_node22"><a xlink:href="incflo__enums_8_h.html" target="_top" xlink:title="amr&#45;wind/incflo_enums.H">
<polygon fill="#ffffff" stroke="#000000" points="1619,-56.5 1619,-75.5 1747,-75.5 1747,-56.5 1619,-56.5"/>
<text text-anchor="middle" x="1683" y="-63.5" font-family="Helvetica,sans-Serif" font-size="10.00" fill="#000000">amr&#45;wind/incflo_enums.H</text>
</a>
</g>
</g>
<!-- Node19&#45;&gt;Node21 -->
<g id="edge31" class="edge">
<title>Node19&#45;&gt;Node21</title>
<path fill="none" stroke="#191970" d="M1348.8548,-118.5574C1418.6855,-107.5738 1537.1388,-88.9424 1612.6388,-77.067"/>
<polygon fill="#191970" stroke="#191970" points="1613.2054,-80.521 1622.5401,-75.5097 1612.1177,-73.606 1613.2054,-80.521"/>
</g>
<!-- Node22 -->
<g id="node23" class="node">
<title>Node22</title>
<g id="a_node23"><a xlink:href="_field_desc_types_8_h.html" target="_top" xlink:title="amr&#45;wind/core/FieldDescTypes.H">
<polygon fill="#ffffff" stroke="#000000" points="1443.5,-.5 1443.5,-19.5 1606.5,-19.5 1606.5,-.5 1443.5,-.5"/>
<text text-anchor="middle" x="1525" y="-7.5" font-family="Helvetica,sans-Serif" font-size="10.00" fill="#000000">amr&#45;wind/core/FieldDescTypes.H</text>
</a>
</g>
</g>
<!-- Node19&#45;&gt;Node22 -->
<g id="edge32" class="edge">
<title>Node19&#45;&gt;Node22</title>
<path fill="none" stroke="#191970" d="M1348.7618,-124.3371C1416.8741,-119.2173 1525.0546,-106.417 1550,-76 1561.4533,-62.0345 1551.4281,-42.2694 1540.8618,-28.0138"/>
<polygon fill="#191970" stroke="#191970" points="1543.385,-25.5654 1534.4001,-19.9509 1537.9226,-29.943 1543.385,-25.5654"/>
</g>
<!-- Node23 -->
<g id="node24" class="node">
<title>Node23</title>
<g id="a_node24"><a xlink:href="_view_field_8_h.html" target="_top" xlink:title="amr&#45;wind/core/ViewField.H">
<polygon fill="#ffffff" stroke="#000000" points="1273,-56.5 1273,-75.5 1407,-75.5 1407,-56.5 1273,-56.5"/>
<text text-anchor="middle" x="1340" y="-63.5" font-family="Helvetica,sans-Serif" font-size="10.00" fill="#000000">amr&#45;wind/core/ViewField.H</text>
</a>
</g>
</g>
<!-- Node19&#45;&gt;Node23 -->
<g id="edge33" class="edge">
<title>Node19&#45;&gt;Node23</title>
<path fill="none" stroke="#191970" d="M1299.5,-117.8906C1306.5738,-108.8273 1317.3542,-95.0149 1326.0146,-83.9188"/>
<polygon fill="#191970" stroke="#191970" points="1329.0006,-85.7815 1332.3943,-75.7449 1323.4824,-81.4746 1329.0006,-85.7815"/>
</g>
<!-- Node23&#45;&gt;Node9 -->
<g id="edge34" class="edge">
<title>Node23&#45;&gt;Node9</title>
<path fill="none" stroke="#191970" d="M1340,-56.2455C1340,-48.9382 1340,-38.6944 1340,-29.7046"/>
<polygon fill="#191970" stroke="#191970" points="1343.5001,-29.6426 1340,-19.6427 1336.5001,-29.6427 1343.5001,-29.6426"/>
</g>
<!-- Node23&#45;&gt;Node10 -->
<g id="edge37" class="edge">
<title>Node23&#45;&gt;Node10</title>
<path fill="none" stroke="#191970" d="M1286.549,-56.4369C1230.3819,-46.3878 1142.3363,-30.6352 1084.6422,-20.313"/>
<polygon fill="#191970" stroke="#191970" points="1085.0519,-16.8308 1074.5918,-18.5148 1083.8191,-23.7214 1085.0519,-16.8308"/>
</g>
<!-- Node23&#45;&gt;Node11 -->
<g id="edge36" class="edge">
<title>Node23&#45;&gt;Node11</title>
<path fill="none" stroke="#191970" d="M1323.4523,-56.2455C1308.7401,-47.5731 1287.0112,-34.7645 1270.1495,-24.825"/>
<polygon fill="#191970" stroke="#191970" points="1271.7502,-21.7057 1261.3581,-19.6427 1268.1954,-27.736 1271.7502,-21.7057"/>
</g>
<!-- Node23&#45;&gt;Node22 -->
<g id="edge35" class="edge">
<title>Node23&#45;&gt;Node22</title>
<path fill="none" stroke="#191970" d="M1371.8026,-56.3733C1402.8317,-46.9807 1450.1754,-32.6496 1484.0147,-22.4064"/>
<polygon fill="#191970" stroke="#191970" points="1485.0553,-25.7483 1493.6124,-19.5011 1483.0272,-19.0485 1485.0553,-25.7483"/>
</g>
</g>
</svg>
