<?xml version="1.0" encoding="UTF-8" standalone="no"?>
<!DOCTYPE svg PUBLIC "-//W3C//DTD SVG 1.1//EN"
 "http://www.w3.org/Graphics/SVG/1.1/DTD/svg11.dtd">
<!-- Generated by graphviz version 2.40.1 (20161225.0304)
 -->
<!-- Title: RefinementCriteria.cpp Pages: 1 -->
<svg width="2176pt" height="330pt"
 viewBox="0.00 0.00 2176.40 330.00" xmlns="http://www.w3.org/2000/svg" xmlns:xlink="http://www.w3.org/1999/xlink">
<g id="graph0" class="graph" transform="scale(1 1) rotate(0) translate(4 326)">
<title>RefinementCriteria.cpp</title>
<polygon fill="#ffffff" stroke="transparent" points="-4,4 -4,-326 2172.4027,-326 2172.4027,4 -4,4"/>
<!-- Node0 -->
<g id="node1" class="node">
<title>Node0</title>
<polygon fill="#bfbfbf" stroke="#000000" points="1609.4027,-302.5 1609.4027,-321.5 1726.4027,-321.5 1726.4027,-302.5 1609.4027,-302.5"/>
<text text-anchor="middle" x="1667.9027" y="-309.5" font-family="Helvetica,sans-Serif" font-size="10.00" fill="#000000">RefinementCriteria.cpp</text>
</g>
<!-- Node1 -->
<g id="node2" class="node">
<title>Node1</title>
<g id="a_node2"><a xlink:href="_refinement_criteria_8_h.html" target="_top" xlink:title="amr&#45;wind/utilities\l/tagging/RefinementCriteria.H">
<polygon fill="#ffffff" stroke="#000000" points="1824.9027,-179.5 1824.9027,-209.5 1970.9027,-209.5 1970.9027,-179.5 1824.9027,-179.5"/>
<text text-anchor="start" x="1832.9027" y="-197.5" font-family="Helvetica,sans-Serif" font-size="10.00" fill="#000000">amr&#45;wind/utilities</text>
<text text-anchor="middle" x="1897.9027" y="-186.5" font-family="Helvetica,sans-Serif" font-size="10.00" fill="#000000">/tagging/RefinementCriteria.H</text>
</a>
</g>
</g>
<!-- Node0&#45;&gt;Node1 -->
<g id="edge1" class="edge">
<title>Node0&#45;&gt;Node1</title>
<path fill="none" stroke="#191970" d="M1667.8232,-302.411C1668.2486,-288.0466 1671.2471,-261.028 1686.9027,-246 1705.424,-228.2212 1763.9419,-214.7849 1814.666,-206.1016"/>
<polygon fill="#191970" stroke="#191970" points="1815.4052,-209.5267 1824.6927,-204.4284 1814.253,-202.6222 1815.4052,-209.5267"/>
</g>
<!-- Node10 -->
<g id="node11" class="node">
<title>Node10</title>
<g id="a_node11"><a xlink:href="_c_f_d_sim_8_h.html" target="_top" xlink:title="amr&#45;wind/CFDSim.H">
<polygon fill="#ffffff" stroke="#000000" points="1345.9027,-246.5 1345.9027,-265.5 1453.9027,-265.5 1453.9027,-246.5 1345.9027,-246.5"/>
<text text-anchor="middle" x="1399.9027" y="-253.5" font-family="Helvetica,sans-Serif" font-size="10.00" fill="#000000">amr&#45;wind/CFDSim.H</text>
</a>
</g>
</g>
<!-- Node0&#45;&gt;Node10 -->
<g id="edge10" class="edge">
<title>Node0&#45;&gt;Node10</title>
<path fill="none" stroke="#191970" d="M1622.1364,-302.4369C1575.9812,-292.7925 1504.6849,-277.8948 1455.3489,-267.5858"/>
<polygon fill="#191970" stroke="#191970" points="1455.9847,-264.1431 1445.4803,-265.5237 1454.5529,-270.9951 1455.9847,-264.1431"/>
</g>
<!-- Node37 -->
<g id="node38" class="node">
<title>Node37</title>
<polygon fill="#ffffff" stroke="#bfbfbf" points="1695.9027,-246.5 1695.9027,-265.5 1811.9027,-265.5 1811.9027,-246.5 1695.9027,-246.5"/>
<text text-anchor="middle" x="1753.9027" y="-253.5" font-family="Helvetica,sans-Serif" font-size="10.00" fill="#000000">AMReX_ParmParse.H</text>
</g>
<!-- Node0&#45;&gt;Node37 -->
<g id="edge69" class="edge">
<title>Node0&#45;&gt;Node37</title>
<path fill="none" stroke="#191970" d="M1682.8827,-302.2455C1696.0778,-293.6534 1715.5077,-281.0014 1730.7106,-271.1018"/>
<polygon fill="#191970" stroke="#191970" points="1732.6242,-274.0325 1739.0943,-265.6427 1728.8044,-268.1665 1732.6242,-274.0325"/>
</g>
<!-- Node2 -->
<g id="node3" class="node">
<title>Node2</title>
<polygon fill="#ffffff" stroke="#bfbfbf" points="910.9027,-118 910.9027,-137 1016.9027,-137 1016.9027,-118 910.9027,-118"/>
<text text-anchor="middle" x="963.9027" y="-125" font-family="Helvetica,sans-Serif" font-size="10.00" fill="#000000">AMReX_AmrCore.H</text>
</g>
<!-- Node1&#45;&gt;Node2 -->
<g id="edge2" class="edge">
<title>Node1&#45;&gt;Node2</title>
<path fill="none" stroke="#191970" d="M1824.7261,-187.2336C1794.4679,-184.3939 1759.0159,-181.2791 1726.9027,-179 1415.7193,-156.9147 1334.4517,-189.0472 1025.9027,-143 1019.7094,-142.0757 1013.2336,-140.8057 1006.9007,-139.3872"/>
<polygon fill="#191970" stroke="#191970" points="1007.6663,-135.9717 997.1279,-137.0643 1006.0475,-142.782 1007.6663,-135.9717"/>
</g>
<!-- Node3 -->
<g id="node4" class="node">
<title>Node3</title>
<polygon fill="#ffffff" stroke="#bfbfbf" points="2067.4027,-118 2067.4027,-137 2168.4027,-137 2168.4027,-118 2067.4027,-118"/>
<text text-anchor="middle" x="2117.9027" y="-125" font-family="Helvetica,sans-Serif" font-size="10.00" fill="#000000">AMReX_TagBox.H</text>
</g>
<!-- Node1&#45;&gt;Node3 -->
<g id="edge3" class="edge">
<title>Node1&#45;&gt;Node3</title>
<path fill="none" stroke="#191970" d="M1947.275,-179.4639C1986.2993,-167.5792 2040.1285,-151.1858 2076.8226,-140.0108"/>
<polygon fill="#191970" stroke="#191970" points="2078.1448,-143.2669 2086.6913,-137.0053 2076.1054,-136.5705 2078.1448,-143.2669"/>
</g>
<!-- Node4 -->
<g id="node5" class="node">
<title>Node4</title>
<g id="a_node5"><a xlink:href="_factory_8_h.html" target="_top" xlink:title="amr&#45;wind/core/Factory.H">
<polygon fill="#ffffff" stroke="#000000" points="1924.4027,-118 1924.4027,-137 2049.4027,-137 2049.4027,-118 1924.4027,-118"/>
<text text-anchor="middle" x="1986.9027" y="-125" font-family="Helvetica,sans-Serif" font-size="10.00" fill="#000000">amr&#45;wind/core/Factory.H</text>
</a>
</g>
</g>
<!-- Node1&#45;&gt;Node4 -->
<g id="edge4" class="edge">
<title>Node1&#45;&gt;Node4</title>
<path fill="none" stroke="#191970" d="M1918.0982,-179.2967C1932.3687,-168.5537 1951.4495,-154.1895 1965.8974,-143.3129"/>
<polygon fill="#191970" stroke="#191970" points="1968.3261,-145.8656 1974.2103,-137.055 1964.116,-140.2731 1968.3261,-145.8656"/>
</g>
<!-- Node5 -->
<g id="node6" class="node">
<title>Node5</title>
<polygon fill="#ffffff" stroke="#bfbfbf" points="1589.9027,-56.5 1589.9027,-75.5 1641.9027,-75.5 1641.9027,-56.5 1589.9027,-56.5"/>
<text text-anchor="middle" x="1615.9027" y="-63.5" font-family="Helvetica,sans-Serif" font-size="10.00" fill="#000000">memory</text>
</g>
<!-- Node4&#45;&gt;Node5 -->
<g id="edge5" class="edge">
<title>Node4&#45;&gt;Node5</title>
<path fill="none" stroke="#191970" d="M1929.341,-117.9581C1852.0297,-105.1423 1716.9111,-82.744 1652.3134,-72.0357"/>
<polygon fill="#191970" stroke="#191970" points="1652.6405,-68.5423 1642.2027,-70.3597 1651.4957,-75.448 1652.6405,-68.5423"/>
</g>
<!-- Node6 -->
<g id="node7" class="node">
<title>Node6</title>
<polygon fill="#ffffff" stroke="#bfbfbf" points="1450.4027,-56.5 1450.4027,-75.5 1533.4027,-75.5 1533.4027,-56.5 1450.4027,-56.5"/>
<text text-anchor="middle" x="1491.9027" y="-63.5" font-family="Helvetica,sans-Serif" font-size="10.00" fill="#000000">unordered_map</text>
</g>
<!-- Node4&#45;&gt;Node6 -->
<g id="edge6" class="edge">
<title>Node4&#45;&gt;Node6</title>
<path fill="none" stroke="#191970" d="M1924.3989,-118.4598C1908.8879,-116.2805 1892.2979,-114.0042 1876.9027,-112 1757.6831,-96.48 1617.4237,-80.226 1543.5084,-71.8161"/>
<polygon fill="#191970" stroke="#191970" points="1543.8592,-68.3335 1533.528,-70.6823 1543.069,-75.2887 1543.8592,-68.3335"/>
</g>
<!-- Node7 -->
<g id="node8" class="node">
<title>Node7</title>
<polygon fill="#ffffff" stroke="#bfbfbf" points="2003.9027,-56.5 2003.9027,-75.5 2057.9027,-75.5 2057.9027,-56.5 2003.9027,-56.5"/>
<text text-anchor="middle" x="2030.9027" y="-63.5" font-family="Helvetica,sans-Serif" font-size="10.00" fill="#000000">iostream</text>
</g>
<!-- Node4&#45;&gt;Node7 -->
<g id="edge7" class="edge">
<title>Node4&#45;&gt;Node7</title>
<path fill="none" stroke="#191970" d="M1993.7777,-117.8906C2000.262,-108.8273 2010.1441,-95.0149 2018.0828,-83.9188"/>
<polygon fill="#191970" stroke="#191970" points="2020.9586,-85.9143 2023.9308,-75.7449 2015.2656,-81.8412 2020.9586,-85.9143"/>
</g>
<!-- Node8 -->
<g id="node9" class="node">
<title>Node8</title>
<polygon fill="#ffffff" stroke="#bfbfbf" points="2076.4027,-56.5 2076.4027,-75.5 2163.4027,-75.5 2163.4027,-56.5 2076.4027,-56.5"/>
<text text-anchor="middle" x="2119.9027" y="-63.5" font-family="Helvetica,sans-Serif" font-size="10.00" fill="#000000">AMReX_Print.H</text>
</g>
<!-- Node4&#45;&gt;Node8 -->
<g id="edge8" class="edge">
<title>Node4&#45;&gt;Node8</title>
<path fill="none" stroke="#191970" d="M2007.6839,-117.8906C2029.7421,-107.6908 2064.8077,-91.4763 2089.8696,-79.8875"/>
<polygon fill="#191970" stroke="#191970" points="2091.6598,-82.9158 2099.2674,-75.5419 2088.7218,-76.5622 2091.6598,-82.9158"/>
</g>
<!-- Node9 -->
<g id="node10" class="node">
<title>Node9</title>
<polygon fill="#ffffff" stroke="#bfbfbf" points="1923.9027,-56.5 1923.9027,-75.5 1985.9027,-75.5 1985.9027,-56.5 1923.9027,-56.5"/>
<text text-anchor="middle" x="1954.9027" y="-63.5" font-family="Helvetica,sans-Serif" font-size="10.00" fill="#000000">AMReX.H</text>
</g>
<!-- Node4&#45;&gt;Node9 -->
<g id="edge9" class="edge">
<title>Node4&#45;&gt;Node9</title>
<path fill="none" stroke="#191970" d="M1981.9027,-117.8906C1977.3269,-109.0965 1970.4246,-95.8312 1964.7444,-84.9145"/>
<polygon fill="#191970" stroke="#191970" points="1967.6939,-83.0003 1959.9732,-75.7449 1961.4842,-86.2314 1967.6939,-83.0003"/>
</g>
<!-- Node10&#45;&gt;Node2 -->
<g id="edge11" class="edge">
<title>Node10&#45;&gt;Node2</title>
<path fill="none" stroke="#191970" d="M1354.1123,-246.4397C1314.5963,-237.8813 1256.125,-224.4788 1205.9027,-210 1131.3986,-188.5209 1045.8939,-157.9419 999.0909,-140.6826"/>
<polygon fill="#191970" stroke="#191970" points="1000.0262,-137.2967 989.4331,-137.1073 997.596,-143.8614 1000.0262,-137.2967"/>
</g>
<!-- Node11 -->
<g id="node12" class="node">
<title>Node11</title>
<g id="a_node12"><a xlink:href="_sim_time_8_h.html" target="_top" xlink:title="amr&#45;wind/core/SimTime.H">
<polygon fill="#ffffff" stroke="#000000" points="1214.4027,-185 1214.4027,-204 1345.4027,-204 1345.4027,-185 1214.4027,-185"/>
<text text-anchor="middle" x="1279.9027" y="-192" font-family="Helvetica,sans-Serif" font-size="10.00" fill="#000000">amr&#45;wind/core/SimTime.H</text>
</a>
</g>
</g>
<!-- Node10&#45;&gt;Node11 -->
<g id="edge12" class="edge">
<title>Node10&#45;&gt;Node11</title>
<path fill="none" stroke="#191970" d="M1381.1527,-246.3906C1361.4267,-236.2811 1330.1715,-220.2628 1307.6026,-208.6962"/>
<polygon fill="#191970" stroke="#191970" points="1309.0167,-205.4881 1298.521,-204.0419 1305.824,-211.7176 1309.0167,-205.4881"/>
</g>
<!-- Node15 -->
<g id="node16" class="node">
<title>Node15</title>
<g id="a_node16"><a xlink:href="_field_repo_8_h.html" target="_top" xlink:title="amr&#45;wind/core/FieldRepo.H">
<polygon fill="#ffffff" stroke="#000000" points="505.9027,-185 505.9027,-204 641.9027,-204 641.9027,-185 505.9027,-185"/>
<text text-anchor="middle" x="573.9027" y="-192" font-family="Helvetica,sans-Serif" font-size="10.00" fill="#000000">amr&#45;wind/core/FieldRepo.H</text>
</a>
</g>
</g>
<!-- Node10&#45;&gt;Node15 -->
<g id="edge16" class="edge">
<title>Node10&#45;&gt;Node15</title>
<path fill="none" stroke="#191970" d="M1345.7065,-251.9648C1203.4161,-241.3706 818.735,-212.729 652.3491,-200.3407"/>
<polygon fill="#191970" stroke="#191970" points="652.4218,-196.8366 642.1895,-199.5843 651.902,-203.8172 652.4218,-196.8366"/>
</g>
<!-- Node31 -->
<g id="node32" class="node">
<title>Node31</title>
<g id="a_node32"><a xlink:href="_p_d_e_base_8_h.html" target="_top" xlink:title="amr&#45;wind/equation_systems\l/PDEBase.H">
<polygon fill="#ffffff" stroke="#000000" points="1578.4027,-179.5 1578.4027,-209.5 1717.4027,-209.5 1717.4027,-179.5 1578.4027,-179.5"/>
<text text-anchor="start" x="1586.4027" y="-197.5" font-family="Helvetica,sans-Serif" font-size="10.00" fill="#000000">amr&#45;wind/equation_systems</text>
<text text-anchor="middle" x="1647.9027" y="-186.5" font-family="Helvetica,sans-Serif" font-size="10.00" fill="#000000">/PDEBase.H</text>
</a>
</g>
</g>
<!-- Node10&#45;&gt;Node31 -->
<g id="edge52" class="edge">
<title>Node10&#45;&gt;Node31</title>
<path fill="none" stroke="#191970" d="M1438.3806,-246.4581C1475.392,-237.2799 1532.2228,-223.1867 1577.3633,-211.9926"/>
<polygon fill="#191970" stroke="#191970" points="1578.2351,-215.3825 1587.0986,-209.5784 1576.5502,-208.5883 1578.2351,-215.3825"/>
</g>
<!-- Node35 -->
<g id="node36" class="node">
<title>Node35</title>
<g id="a_node36"><a xlink:href="_physics_8_h.html" target="_top" xlink:title="amr&#45;wind/core/Physics.H">
<polygon fill="#ffffff" stroke="#000000" points="1410.4027,-185 1410.4027,-204 1537.4027,-204 1537.4027,-185 1410.4027,-185"/>
<text text-anchor="middle" x="1473.9027" y="-192" font-family="Helvetica,sans-Serif" font-size="10.00" fill="#000000">amr&#45;wind/core/Physics.H</text>
</a>
</g>
</g>
<!-- Node10&#45;&gt;Node35 -->
<g id="edge64" class="edge">
<title>Node10&#45;&gt;Node35</title>
<path fill="none" stroke="#191970" d="M1411.4652,-246.3906C1422.9105,-236.8786 1440.65,-222.1357 1454.2997,-210.7917"/>
<polygon fill="#191970" stroke="#191970" points="1456.7235,-213.3283 1462.1772,-204.2449 1452.2493,-207.9447 1456.7235,-213.3283"/>
</g>
<!-- Node12 -->
<g id="node13" class="node">
<title>Node12</title>
<polygon fill="#ffffff" stroke="#bfbfbf" points="1307.4027,-118 1307.4027,-137 1400.4027,-137 1400.4027,-118 1307.4027,-118"/>
<text text-anchor="middle" x="1353.9027" y="-125" font-family="Helvetica,sans-Serif" font-size="10.00" fill="#000000">AMReX_REAL.H</text>
</g>
<!-- Node11&#45;&gt;Node12 -->
<g id="edge13" class="edge">
<title>Node11&#45;&gt;Node12</title>
<path fill="none" stroke="#191970" d="M1290.5051,-184.9005C1302.2645,-174.2535 1321.447,-156.8856 1335.6363,-144.0385"/>
<polygon fill="#191970" stroke="#191970" points="1338.2561,-146.388 1343.32,-137.0817 1333.5578,-141.1989 1338.2561,-146.388"/>
</g>
<!-- Node13 -->
<g id="node14" class="node">
<title>Node13</title>
<polygon fill="#ffffff" stroke="#bfbfbf" points="1034.9027,-118 1034.9027,-137 1160.9027,-137 1160.9027,-118 1034.9027,-118"/>
<text text-anchor="middle" x="1097.9027" y="-125" font-family="Helvetica,sans-Serif" font-size="10.00" fill="#000000">AMReX_GpuQualifiers.H</text>
</g>
<!-- Node11&#45;&gt;Node13 -->
<g id="edge14" class="edge">
<title>Node11&#45;&gt;Node13</title>
<path fill="none" stroke="#191970" d="M1253.8265,-184.9005C1222.2016,-173.2584 1168.7483,-153.5805 1133.3902,-140.5641"/>
<polygon fill="#191970" stroke="#191970" points="1134.5239,-137.2519 1123.9305,-137.0817 1132.1056,-143.8209 1134.5239,-137.2519"/>
</g>
<!-- Node14 -->
<g id="node15" class="node">
<title>Node14</title>
<polygon fill="#ffffff" stroke="#bfbfbf" points="1178.9027,-118 1178.9027,-137 1288.9027,-137 1288.9027,-118 1178.9027,-118"/>
<text text-anchor="middle" x="1233.9027" y="-125" font-family="Helvetica,sans-Serif" font-size="10.00" fill="#000000">AMReX_Extension.H</text>
</g>
<!-- Node11&#45;&gt;Node14 -->
<g id="edge15" class="edge">
<title>Node11&#45;&gt;Node14</title>
<path fill="none" stroke="#191970" d="M1273.312,-184.9005C1266.2753,-174.6515 1254.9629,-158.1747 1246.2593,-145.4976"/>
<polygon fill="#191970" stroke="#191970" points="1249.0267,-143.3446 1240.4811,-137.0817 1243.2558,-147.3067 1249.0267,-143.3446"/>
</g>
<!-- Node15&#45;&gt;Node2 -->
<g id="edge49" class="edge">
<title>Node15&#45;&gt;Node2</title>
<path fill="none" stroke="#191970" d="M642.1992,-185.0124C707.7411,-175.577 809.4013,-160.0759 896.9027,-143 902.683,-141.872 908.7234,-140.6032 914.7089,-139.2897"/>
<polygon fill="#191970" stroke="#191970" points="915.6834,-142.6582 924.6748,-137.0541 914.1512,-135.8279 915.6834,-142.6582"/>
</g>
<!-- Node15&#45;&gt;Node6 -->
<g id="edge18" class="edge">
<title>Node15&#45;&gt;Node6</title>
<path fill="none" stroke="#191970" d="M641.9664,-190.7023C701.2757,-185.4347 788.5602,-172.8817 858.9027,-143 880.587,-133.7884 879.7365,-119.9825 901.9027,-112 1011.9791,-72.3591 1306.4074,-90.5913 1440.1087,-75.841"/>
<polygon fill="#191970" stroke="#191970" points="1440.7167,-79.2931 1450.2249,-74.6194 1439.8774,-72.3436 1440.7167,-79.2931"/>
</g>
<!-- Node16 -->
<g id="node17" class="node">
<title>Node16</title>
<polygon fill="#ffffff" stroke="#bfbfbf" points="1217.4027,-.5 1217.4027,-19.5 1258.4027,-19.5 1258.4027,-.5 1217.4027,-.5"/>
<text text-anchor="middle" x="1237.9027" y="-7.5" font-family="Helvetica,sans-Serif" font-size="10.00" fill="#000000">string</text>
</g>
<!-- Node15&#45;&gt;Node16 -->
<g id="edge17" class="edge">
<title>Node15&#45;&gt;Node16</title>
<path fill="none" stroke="#191970" d="M641.1482,-184.9992C704.5213,-175.2888 794.3299,-159.3519 825.9027,-143 843.7715,-133.7456 840.564,-120.2844 858.9027,-112 936.2035,-77.0795 1181.8225,-138.7433 1238.9027,-76 1250.0725,-63.722 1248.2825,-44.2094 1244.6222,-29.5794"/>
<polygon fill="#191970" stroke="#191970" points="1247.9717,-28.5635 1241.7849,-19.9626 1241.2578,-30.5443 1247.9717,-28.5635"/>
</g>
<!-- Node17 -->
<g id="node18" class="node">
<title>Node17</title>
<g id="a_node18"><a xlink:href="_field_desc_types_8_h.html" target="_top" xlink:title="amr&#45;wind/core/FieldDescTypes.H">
<polygon fill="#ffffff" stroke="#000000" points="307.4027,-.5 307.4027,-19.5 470.4027,-19.5 470.4027,-.5 307.4027,-.5"/>
<text text-anchor="middle" x="388.9027" y="-7.5" font-family="Helvetica,sans-Serif" font-size="10.00" fill="#000000">amr&#45;wind/core/FieldDescTypes.H</text>
</a>
</g>
</g>
<!-- Node15&#45;&gt;Node17 -->
<g id="edge19" class="edge">
<title>Node15&#45;&gt;Node17</title>
<path fill="none" stroke="#191970" d="M505.4691,-192.0928C389.5665,-187.2201 160.0107,-173.9056 85.9027,-143 42.4657,-124.8853 24.0706,-118.5226 3.9027,-76 .0935,-67.9686 -1.9981,-62.6478 3.9027,-56 6.3359,-53.2588 183.8108,-32.9392 296.923,-20.2399"/>
<polygon fill="#191970" stroke="#191970" points="297.4345,-23.7046 306.982,-19.1116 296.6542,-16.7482 297.4345,-23.7046"/>
</g>
<!-- Node18 -->
<g id="node19" class="node">
<title>Node18</title>
<g id="a_node19"><a xlink:href="_field_utils_8_h.html" target="_top" xlink:title="amr&#45;wind/core/FieldUtils.H">
<polygon fill="#ffffff" stroke="#000000" points="177.4027,-56.5 177.4027,-75.5 310.4027,-75.5 310.4027,-56.5 177.4027,-56.5"/>
<text text-anchor="middle" x="243.9027" y="-63.5" font-family="Helvetica,sans-Serif" font-size="10.00" fill="#000000">amr&#45;wind/core/FieldUtils.H</text>
</a>
</g>
</g>
<!-- Node15&#45;&gt;Node18 -->
<g id="edge20" class="edge">
<title>Node15&#45;&gt;Node18</title>
<path fill="none" stroke="#191970" d="M507.4354,-184.9746C444.7997,-175.2453 356.0475,-159.2943 324.9027,-143 296.9794,-128.3911 271.8828,-101.3241 257.2663,-83.4881"/>
<polygon fill="#191970" stroke="#191970" points="259.9309,-81.2156 250.9663,-75.5688 254.4529,-85.5735 259.9309,-81.2156"/>
</g>
<!-- Node19 -->
<g id="node20" class="node">
<title>Node19</title>
<polygon fill="#ffffff" stroke="#bfbfbf" points="603.9027,-.5 603.9027,-19.5 707.9027,-19.5 707.9027,-.5 603.9027,-.5"/>
<text text-anchor="middle" x="655.9027" y="-7.5" font-family="Helvetica,sans-Serif" font-size="10.00" fill="#000000">AMReX_MultiFab.H</text>
</g>
<!-- Node15&#45;&gt;Node19 -->
<g id="edge50" class="edge">
<title>Node15&#45;&gt;Node19</title>
<path fill="none" stroke="#191970" d="M550.1622,-184.9688C499.918,-163.4609 390.8422,-108.8976 433.9027,-56 453.7104,-31.6672 534.9466,-19.8012 593.4181,-14.3113"/>
<polygon fill="#191970" stroke="#191970" points="594.0386,-17.7698 603.6858,-13.3901 593.4131,-10.7978 594.0386,-17.7698"/>
</g>
<!-- Node21 -->
<g id="node22" class="node">
<title>Node21</title>
<g id="a_node22"><a xlink:href="_field_8_h.html" target="_top" xlink:title="amr&#45;wind/core/Field.H">
<polygon fill="#ffffff" stroke="#000000" points="703.4027,-118 703.4027,-137 816.4027,-137 816.4027,-118 703.4027,-118"/>
<text text-anchor="middle" x="759.9027" y="-125" font-family="Helvetica,sans-Serif" font-size="10.00" fill="#000000">amr&#45;wind/core/Field.H</text>
</a>
</g>
</g>
<!-- Node15&#45;&gt;Node21 -->
<g id="edge24" class="edge">
<title>Node15&#45;&gt;Node21</title>
<path fill="none" stroke="#191970" d="M600.5519,-184.9005C632.8719,-173.2584 687.5,-153.5805 723.6352,-140.5641"/>
<polygon fill="#191970" stroke="#191970" points="725.0808,-143.7636 733.3029,-137.0817 722.7085,-137.1778 725.0808,-143.7636"/>
</g>
<!-- Node27 -->
<g id="node28" class="node">
<title>Node27</title>
<g id="a_node28"><a xlink:href="_int_field_8_h.html" target="_top" xlink:title="amr&#45;wind/core/IntField.H">
<polygon fill="#ffffff" stroke="#000000" points="128.9027,-118 128.9027,-137 252.9027,-137 252.9027,-118 128.9027,-118"/>
<text text-anchor="middle" x="190.9027" y="-125" font-family="Helvetica,sans-Serif" font-size="10.00" fill="#000000">amr&#45;wind/core/IntField.H</text>
</a>
</g>
</g>
<!-- Node15&#45;&gt;Node27 -->
<g id="edge38" class="edge">
<title>Node15&#45;&gt;Node27</title>
<path fill="none" stroke="#191970" d="M519.4349,-184.9717C449.906,-172.8087 329.7667,-151.7921 255.6369,-138.8243"/>
<polygon fill="#191970" stroke="#191970" points="255.9459,-135.3252 245.4923,-137.0496 254.7396,-142.2205 255.9459,-135.3252"/>
</g>
<!-- Node28 -->
<g id="node29" class="node">
<title>Node28</title>
<polygon fill="#ffffff" stroke="#bfbfbf" points="13.4027,-56.5 13.4027,-75.5 120.4027,-75.5 120.4027,-56.5 13.4027,-56.5"/>
<text text-anchor="middle" x="66.9027" y="-63.5" font-family="Helvetica,sans-Serif" font-size="10.00" fill="#000000">AMReX_iMultiFab.H</text>
</g>
<!-- Node15&#45;&gt;Node28 -->
<g id="edge51" class="edge">
<title>Node15&#45;&gt;Node28</title>
<path fill="none" stroke="#191970" d="M505.8444,-189.8951C387.2617,-181.4148 152.2543,-162.4125 119.9027,-143 97.6974,-129.6757 82.5821,-103.0453 74.3455,-84.8736"/>
<polygon fill="#191970" stroke="#191970" points="77.5159,-83.385 70.3824,-75.5514 71.0739,-86.1237 77.5159,-83.385"/>
</g>
<!-- Node29 -->
<g id="node30" class="node">
<title>Node29</title>
<g id="a_node30"><a xlink:href="_scratch_field_8_h.html" target="_top" xlink:title="amr&#45;wind/core/ScratchField.H">
<polygon fill="#ffffff" stroke="#000000" points="500.9027,-118 500.9027,-137 646.9027,-137 646.9027,-118 500.9027,-118"/>
<text text-anchor="middle" x="573.9027" y="-125" font-family="Helvetica,sans-Serif" font-size="10.00" fill="#000000">amr&#45;wind/core/ScratchField.H</text>
</a>
</g>
</g>
<!-- Node15&#45;&gt;Node29 -->
<g id="edge42" class="edge">
<title>Node15&#45;&gt;Node29</title>
<path fill="none" stroke="#191970" d="M573.9027,-184.9005C573.9027,-175.149 573.9027,-159.7597 573.9027,-147.3695"/>
<polygon fill="#191970" stroke="#191970" points="577.4028,-147.0816 573.9027,-137.0817 570.4028,-147.0817 577.4028,-147.0816"/>
</g>
<!-- Node18&#45;&gt;Node17 -->
<g id="edge21" class="edge">
<title>Node18&#45;&gt;Node17</title>
<path fill="none" stroke="#191970" d="M268.8291,-56.3733C292.5229,-47.2226 328.3538,-33.3844 354.7095,-23.2057"/>
<polygon fill="#191970" stroke="#191970" points="356.2341,-26.3689 364.3016,-19.5011 353.7121,-19.8389 356.2341,-26.3689"/>
</g>
<!-- Node18&#45;&gt;Node19 -->
<g id="edge22" class="edge">
<title>Node18&#45;&gt;Node19</title>
<path fill="none" stroke="#191970" d="M310.5555,-56.9404C388.8025,-46.3049 517.5448,-28.8059 593.7788,-18.444"/>
<polygon fill="#191970" stroke="#191970" points="594.2827,-21.9078 603.7202,-17.0928 593.3398,-14.9716 594.2827,-21.9078"/>
</g>
<!-- Node20 -->
<g id="node21" class="node">
<title>Node20</title>
<polygon fill="#ffffff" stroke="#bfbfbf" points="172.9027,-.5 172.9027,-19.5 288.9027,-19.5 288.9027,-.5 172.9027,-.5"/>
<text text-anchor="middle" x="230.9027" y="-7.5" font-family="Helvetica,sans-Serif" font-size="10.00" fill="#000000">AMReX_Interpolater.H</text>
</g>
<!-- Node18&#45;&gt;Node20 -->
<g id="edge23" class="edge">
<title>Node18&#45;&gt;Node20</title>
<path fill="none" stroke="#191970" d="M241.6383,-56.2455C239.9233,-48.8579 237.5115,-38.4689 235.4083,-29.4087"/>
<polygon fill="#191970" stroke="#191970" points="238.8119,-28.5922 233.1412,-19.6427 231.9932,-30.1751 238.8119,-28.5922"/>
</g>
<!-- Node21&#45;&gt;Node5 -->
<g id="edge26" class="edge">
<title>Node21&#45;&gt;Node5</title>
<path fill="none" stroke="#191970" d="M816.498,-120.6318C842.4868,-117.6555 873.7275,-114.3273 901.9027,-112 1186.2721,-88.5108 1258.882,-103.3848 1542.9027,-76 1554.796,-74.8533 1567.7288,-73.2121 1579.3591,-71.5899"/>
<polygon fill="#191970" stroke="#191970" points="1580.2048,-75.0045 1589.6066,-70.1202 1579.211,-68.0754 1580.2048,-75.0045"/>
</g>
<!-- Node21&#45;&gt;Node6 -->
<g id="edge27" class="edge">
<title>Node21&#45;&gt;Node6</title>
<path fill="none" stroke="#191970" d="M816.6538,-118.5705C833.4433,-116.1615 851.8847,-113.7428 868.9027,-112 1118.9618,-86.3914 1186.4971,-107.9905 1439.9673,-75.9459"/>
<polygon fill="#191970" stroke="#191970" points="1440.752,-79.3741 1450.2266,-74.6326 1439.8631,-72.4307 1440.752,-79.3741"/>
</g>
<!-- Node21&#45;&gt;Node16 -->
<g id="edge25" class="edge">
<title>Node21&#45;&gt;Node16</title>
<path fill="none" stroke="#191970" d="M799.5463,-117.9477C809.7202,-115.7438 820.679,-113.5842 830.9027,-112 916.4741,-98.7407 1152.2017,-131.22 1218.9027,-76 1232.2233,-64.9722 1236.549,-45.2566 1237.7963,-30.2363"/>
<polygon fill="#191970" stroke="#191970" points="1241.3085,-30.0302 1238.248,-19.8871 1234.3152,-29.7249 1241.3085,-30.0302"/>
</g>
<!-- Node21&#45;&gt;Node17 -->
<g id="edge32" class="edge">
<title>Node21&#45;&gt;Node17</title>
<path fill="none" stroke="#191970" d="M738.6484,-117.9133C705.3334,-103.1494 638.5555,-74.6087 579.9027,-56 535.7337,-41.9866 484.6519,-29.8914 446.4344,-21.6253"/>
<polygon fill="#191970" stroke="#191970" points="447.0221,-18.1719 436.5112,-19.5023 445.5577,-25.017 447.0221,-18.1719"/>
</g>
<!-- Node21&#45;&gt;Node19 -->
<g id="edge28" class="edge">
<title>Node21&#45;&gt;Node19</title>
<path fill="none" stroke="#191970" d="M751.3919,-117.8845C733.8707,-98.0889 693.5526,-52.5372 671.3188,-27.4173"/>
<polygon fill="#191970" stroke="#191970" points="673.7797,-24.9168 664.531,-19.7484 668.538,-29.5563 673.7797,-24.9168"/>
</g>
<!-- Node22 -->
<g id="node23" class="node">
<title>Node22</title>
<polygon fill="#ffffff" stroke="#bfbfbf" points="1007.4027,-56.5 1007.4027,-75.5 1106.4027,-75.5 1106.4027,-56.5 1007.4027,-56.5"/>
<text text-anchor="middle" x="1056.9027" y="-63.5" font-family="Helvetica,sans-Serif" font-size="10.00" fill="#000000">AMReX_BCRec.H</text>
</g>
<!-- Node21&#45;&gt;Node22 -->
<g id="edge29" class="edge">
<title>Node21&#45;&gt;Node22</title>
<path fill="none" stroke="#191970" d="M803.06,-117.9761C812.2451,-115.9778 821.8908,-113.9007 830.9027,-112 887.9061,-99.9772 953.1158,-86.7619 998.7908,-77.5931"/>
<polygon fill="#191970" stroke="#191970" points="999.6903,-80.9825 1008.8069,-75.5845 998.3139,-74.1191 999.6903,-80.9825"/>
</g>
<!-- Node23 -->
<g id="node24" class="node">
<title>Node23</title>
<polygon fill="#ffffff" stroke="#bfbfbf" points="1124.4027,-56.5 1124.4027,-75.5 1209.4027,-75.5 1209.4027,-56.5 1124.4027,-56.5"/>
<text text-anchor="middle" x="1166.9027" y="-63.5" font-family="Helvetica,sans-Serif" font-size="10.00" fill="#000000">AMReX_Gpu.H</text>
</g>
<!-- Node21&#45;&gt;Node23 -->
<g id="edge30" class="edge">
<title>Node21&#45;&gt;Node23</title>
<path fill="none" stroke="#191970" d="M800.7042,-117.9397C810.558,-115.8119 821.0797,-113.6892 830.9027,-112 953.5343,-90.9123 988.111,-96.0114 1114.3116,-76.1678"/>
<polygon fill="#191970" stroke="#191970" points="1115.0404,-79.5959 1124.3647,-74.5652 1113.9383,-72.6832 1115.0404,-79.5959"/>
</g>
<!-- Node24 -->
<g id="node25" class="node">
<title>Node24</title>
<g id="a_node25"><a xlink:href="incflo__enums_8_h.html" target="_top" xlink:title="amr&#45;wind/incflo_enums.H">
<polygon fill="#ffffff" stroke="#000000" points="1303.9027,-56.5 1303.9027,-75.5 1431.9027,-75.5 1431.9027,-56.5 1303.9027,-56.5"/>
<text text-anchor="middle" x="1367.9027" y="-63.5" font-family="Helvetica,sans-Serif" font-size="10.00" fill="#000000">amr&#45;wind/incflo_enums.H</text>
</a>
</g>
</g>
<!-- Node21&#45;&gt;Node24 -->
<g id="edge31" class="edge">
<title>Node21&#45;&gt;Node24</title>
<path fill="none" stroke="#191970" d="M816.407,-118.9244C833.2726,-116.5109 851.8169,-114.0011 868.9027,-112 949.0859,-102.6089 1175.2702,-82.6578 1293.6223,-72.3937"/>
<polygon fill="#191970" stroke="#191970" points="1294.029,-75.8717 1303.6895,-71.5215 1293.4247,-68.8978 1294.029,-75.8717"/>
</g>
<!-- Node25 -->
<g id="node26" class="node">
<title>Node25</title>
<g id="a_node26"><a xlink:href="_view_field_8_h.html" target="_top" xlink:title="amr&#45;wind/core/ViewField.H">
<polygon fill="#ffffff" stroke="#000000" points="778.9027,-56.5 778.9027,-75.5 912.9027,-75.5 912.9027,-56.5 778.9027,-56.5"/>
<text text-anchor="middle" x="845.9027" y="-63.5" font-family="Helvetica,sans-Serif" font-size="10.00" fill="#000000">amr&#45;wind/core/ViewField.H</text>
</a>
</g>
</g>
<!-- Node21&#45;&gt;Node25 -->
<g id="edge33" class="edge">
<title>Node21&#45;&gt;Node25</title>
<path fill="none" stroke="#191970" d="M773.3402,-117.8906C786.9722,-108.1421 808.2873,-92.8994 824.2949,-81.4521"/>
<polygon fill="#191970" stroke="#191970" points="826.4613,-84.2057 832.5595,-75.5419 822.3895,-78.5118 826.4613,-84.2057"/>
</g>
<!-- Node25&#45;&gt;Node16 -->
<g id="edge34" class="edge">
<title>Node25&#45;&gt;Node16</title>
<path fill="none" stroke="#191970" d="M912.8445,-56.4369C998.6304,-44.1818 1143.794,-23.4441 1206.9782,-14.4178"/>
<polygon fill="#191970" stroke="#191970" points="1207.6891,-17.8518 1217.0936,-12.9727 1206.6991,-10.9222 1207.6891,-17.8518"/>
</g>
<!-- Node25&#45;&gt;Node17 -->
<g id="edge35" class="edge">
<title>Node25&#45;&gt;Node17</title>
<path fill="none" stroke="#191970" d="M778.4708,-57.737C698.3817,-47.923 564.5799,-31.5272 476.5341,-20.7382"/>
<polygon fill="#191970" stroke="#191970" points="476.9155,-17.2588 466.564,-19.5165 476.064,-24.2069 476.9155,-17.2588"/>
</g>
<!-- Node25&#45;&gt;Node19 -->
<g id="edge36" class="edge">
<title>Node25&#45;&gt;Node19</title>
<path fill="none" stroke="#191970" d="M813.2405,-56.3733C781.3729,-46.9807 732.7495,-32.6496 697.9957,-22.4064"/>
<polygon fill="#191970" stroke="#191970" points="698.7202,-18.9711 688.1386,-19.5011 696.7412,-25.6855 698.7202,-18.9711"/>
</g>
<!-- Node26 -->
<g id="node27" class="node">
<title>Node26</title>
<polygon fill="#ffffff" stroke="#bfbfbf" points="798.4027,-.5 798.4027,-19.5 893.4027,-19.5 893.4027,-.5 798.4027,-.5"/>
<text text-anchor="middle" x="845.9027" y="-7.5" font-family="Helvetica,sans-Serif" font-size="10.00" fill="#000000">AMReX_Vector.H</text>
</g>
<!-- Node25&#45;&gt;Node26 -->
<g id="edge37" class="edge">
<title>Node25&#45;&gt;Node26</title>
<path fill="none" stroke="#191970" d="M845.9027,-56.2455C845.9027,-48.9382 845.9027,-38.6944 845.9027,-29.7046"/>
<polygon fill="#191970" stroke="#191970" points="849.4028,-29.6426 845.9027,-19.6427 842.4028,-29.6427 849.4028,-29.6426"/>
</g>
<!-- Node27&#45;&gt;Node16 -->
<g id="edge39" class="edge">
<title>Node27&#45;&gt;Node16</title>
<path fill="none" stroke="#191970" d="M253.1839,-123.9116C424.1627,-113.954 890.2633,-86.0513 921.9027,-76 938.2477,-70.8075 938.8101,-61.929 954.9027,-56 1042.7338,-23.6403 1154.2289,-14.0003 1207.2326,-11.1626"/>
<polygon fill="#191970" stroke="#191970" points="1207.5111,-14.6533 1217.3277,-10.6678 1207.1683,-7.6616 1207.5111,-14.6533"/>
</g>
<!-- Node27&#45;&gt;Node17 -->
<g id="edge40" class="edge">
<title>Node27&#45;&gt;Node17</title>
<path fill="none" stroke="#191970" d="M182.4947,-117.6462C170.8708,-102.7827 152.9286,-74.4117 167.9027,-56 177.2428,-44.5156 252.5379,-30.5642 312.6825,-21.0581"/>
<polygon fill="#191970" stroke="#191970" points="313.2326,-24.5147 322.5725,-19.513 312.152,-17.5986 313.2326,-24.5147"/>
</g>
<!-- Node27&#45;&gt;Node28 -->
<g id="edge41" class="edge">
<title>Node27&#45;&gt;Node28</title>
<path fill="none" stroke="#191970" d="M171.5277,-117.8906C151.0532,-107.7359 118.5585,-91.6196 95.2142,-80.0416"/>
<polygon fill="#191970" stroke="#191970" points="96.6555,-76.8496 86.1416,-75.5419 93.5452,-83.1207 96.6555,-76.8496"/>
</g>
<!-- Node29&#45;&gt;Node16 -->
<g id="edge43" class="edge">
<title>Node29&#45;&gt;Node16</title>
<path fill="none" stroke="#191970" d="M646.4979,-117.9579C754.9793,-103.6609 947.5468,-78.1191 954.9027,-76 975.5442,-70.0535 978.4351,-62.5199 998.9027,-56 1071.9253,-32.7388 1161.4433,-19.3483 1207.4295,-13.518"/>
<polygon fill="#191970" stroke="#191970" points="1207.8594,-16.9915 1217.3549,-12.292 1207.0013,-10.0443 1207.8594,-16.9915"/>
</g>
<!-- Node29&#45;&gt;Node17 -->
<g id="edge44" class="edge">
<title>Node29&#45;&gt;Node17</title>
<path fill="none" stroke="#191970" d="M526.8112,-117.9294C497.7887,-110.2575 461.0618,-97.1845 433.9027,-76 417.9101,-63.5256 405.5036,-43.7637 397.8053,-29.1121"/>
<polygon fill="#191970" stroke="#191970" points="400.8291,-27.3322 393.2417,-19.9375 394.5617,-30.4498 400.8291,-27.3322"/>
</g>
<!-- Node29&#45;&gt;Node19 -->
<g id="edge46" class="edge">
<title>Node29&#45;&gt;Node19</title>
<path fill="none" stroke="#191970" d="M580.6131,-117.8845C594.3078,-98.261 625.6657,-53.3274 643.2871,-28.0772"/>
<polygon fill="#191970" stroke="#191970" points="646.2468,-29.9519 649.0996,-19.7484 640.5064,-25.9459 646.2468,-29.9519"/>
</g>
<!-- Node29&#45;&gt;Node25 -->
<g id="edge45" class="edge">
<title>Node29&#45;&gt;Node25</title>
<path fill="none" stroke="#191970" d="M616.1042,-117.9581C663.9473,-107.1406 741.9858,-89.4959 793.6399,-77.8168"/>
<polygon fill="#191970" stroke="#191970" points="794.6202,-81.1835 803.6021,-75.5643 793.0764,-74.3559 794.6202,-81.1835"/>
</g>
<!-- Node29&#45;&gt;Node26 -->
<g id="edge47" class="edge">
<title>Node29&#45;&gt;Node26</title>
<path fill="none" stroke="#191970" d="M596.1616,-117.8845C644.3973,-97.0474 758.6942,-47.6728 814.3533,-23.6289"/>
<polygon fill="#191970" stroke="#191970" points="815.9256,-26.7623 823.7177,-19.5836 813.1496,-20.3363 815.9256,-26.7623"/>
</g>
<!-- Node30 -->
<g id="node31" class="node">
<title>Node30</title>
<polygon fill="#ffffff" stroke="#bfbfbf" points="442.9027,-56.5 442.9027,-75.5 570.9027,-75.5 570.9027,-56.5 442.9027,-56.5"/>
<text text-anchor="middle" x="506.9027" y="-63.5" font-family="Helvetica,sans-Serif" font-size="10.00" fill="#000000">AMReX_PhysBCFunct.H</text>
</g>
<!-- Node29&#45;&gt;Node30 -->
<g id="edge48" class="edge">
<title>Node29&#45;&gt;Node30</title>
<path fill="none" stroke="#191970" d="M563.4339,-117.8906C553.169,-108.4683 537.3124,-93.9134 525.0021,-82.6137"/>
<polygon fill="#191970" stroke="#191970" points="527.2528,-79.9287 517.519,-75.7449 522.5192,-85.0856 527.2528,-79.9287"/>
</g>
<!-- Node31&#45;&gt;Node4 -->
<g id="edge54" class="edge">
<title>Node31&#45;&gt;Node4</title>
<path fill="none" stroke="#191970" d="M1717.425,-180.9238C1770.2363,-170.5892 1844.6595,-155.9789 1909.9027,-143 1916.222,-141.7429 1922.8316,-140.4218 1929.4092,-139.1032"/>
<polygon fill="#191970" stroke="#191970" points="1930.5573,-142.4426 1939.6727,-137.0427 1929.1794,-135.5796 1930.5573,-142.4426"/>
</g>
<!-- Node31&#45;&gt;Node16 -->
<g id="edge53" class="edge">
<title>Node31&#45;&gt;Node16</title>
<path fill="none" stroke="#191970" d="M1717.4983,-188.2918C1777.3849,-181.3376 1857.1728,-167.6597 1876.9027,-143 1904.3588,-108.6835 1868.9846,-76.1013 1829.9027,-56 1779.7818,-30.221 1383.2585,-14.9165 1268.7589,-11.0035"/>
<polygon fill="#191970" stroke="#191970" points="1268.6921,-7.4993 1258.5798,-10.6604 1268.4562,-14.4954 1268.6921,-7.4993"/>
</g>
<!-- Node31&#45;&gt;Node17 -->
<g id="edge62" class="edge">
<title>Node31&#45;&gt;Node17</title>
<path fill="none" stroke="#191970" d="M1578.2186,-182.7068C1567.7482,-181.254 1557.0589,-179.9492 1546.9027,-179 1430.1212,-168.0851 601.4392,-184.9381 491.9027,-143 448.5907,-126.4172 438.2603,-114.1601 411.9027,-76 402.2169,-61.9771 396.236,-43.4746 392.8101,-29.629"/>
<polygon fill="#191970" stroke="#191970" points="396.1873,-28.6927 390.5885,-19.6981 389.3561,-30.221 396.1873,-28.6927"/>
</g>
<!-- Node31&#45;&gt;Node24 -->
<g id="edge63" class="edge">
<title>Node31&#45;&gt;Node24</title>
<path fill="none" stroke="#191970" d="M1626.5976,-179.4179C1612.4019,-169.2779 1593.3946,-155.5261 1576.9027,-143 1559.27,-129.6075 1557.6645,-121.987 1537.9027,-112 1505.8771,-95.8153 1467.4871,-84.8023 1435.2987,-77.6208"/>
<polygon fill="#191970" stroke="#191970" points="1436.0352,-74.1992 1425.5222,-75.5135 1434.5602,-81.0421 1436.0352,-74.1992"/>
</g>
<!-- Node32 -->
<g id="node33" class="node">
<title>Node32</title>
<g id="a_node33"><a xlink:href="_coll_mgr_8_h.html" target="_top" xlink:title="amr&#45;wind/core/CollMgr.H">
<polygon fill="#ffffff" stroke="#000000" points="1585.4027,-118 1585.4027,-137 1710.4027,-137 1710.4027,-118 1585.4027,-118"/>
<text text-anchor="middle" x="1647.9027" y="-125" font-family="Helvetica,sans-Serif" font-size="10.00" fill="#000000">amr&#45;wind/core/CollMgr.H</text>
</a>
</g>
</g>
<!-- Node31&#45;&gt;Node32 -->
<g id="edge55" class="edge">
<title>Node31&#45;&gt;Node32</title>
<path fill="none" stroke="#191970" d="M1647.9027,-179.2967C1647.9027,-169.7699 1647.9027,-157.3954 1647.9027,-147.1306"/>
<polygon fill="#191970" stroke="#191970" points="1651.4028,-147.0549 1647.9027,-137.055 1644.4028,-147.055 1651.4028,-147.0549"/>
</g>
<!-- Node33 -->
<g id="node34" class="node">
<title>Node33</title>
<g id="a_node34"><a xlink:href="_p_d_e_fields_8_h.html" target="_top" xlink:title="amr&#45;wind/equation_systems\l/PDEFields.H">
<polygon fill="#ffffff" stroke="#000000" points="1728.4027,-112.5 1728.4027,-142.5 1867.4027,-142.5 1867.4027,-112.5 1728.4027,-112.5"/>
<text text-anchor="start" x="1736.4027" y="-130.5" font-family="Helvetica,sans-Serif" font-size="10.00" fill="#000000">amr&#45;wind/equation_systems</text>
<text text-anchor="middle" x="1797.9027" y="-119.5" font-family="Helvetica,sans-Serif" font-size="10.00" fill="#000000">/PDEFields.H</text>
</a>
</g>
</g>
<!-- Node31&#45;&gt;Node33 -->
<g id="edge60" class="edge">
<title>Node31&#45;&gt;Node33</title>
<path fill="none" stroke="#191970" d="M1681.5656,-179.4639C1703.202,-169.7996 1731.5132,-157.154 1754.7895,-146.7572"/>
<polygon fill="#191970" stroke="#191970" points="1756.3898,-149.8758 1764.0929,-142.6017 1753.5349,-143.4844 1756.3898,-149.8758"/>
</g>
<!-- Node32&#45;&gt;Node5 -->
<g id="edge57" class="edge">
<title>Node32&#45;&gt;Node5</title>
<path fill="none" stroke="#191970" d="M1642.9027,-117.8906C1638.3269,-109.0965 1631.4246,-95.8312 1625.7444,-84.9145"/>
<polygon fill="#191970" stroke="#191970" points="1628.6939,-83.0003 1620.9732,-75.7449 1622.4842,-86.2314 1628.6939,-83.0003"/>
</g>
<!-- Node32&#45;&gt;Node6 -->
<g id="edge58" class="edge">
<title>Node32&#45;&gt;Node6</title>
<path fill="none" stroke="#191970" d="M1623.5277,-117.8906C1597.1971,-107.5103 1555.0647,-90.9004 1525.5798,-79.2766"/>
<polygon fill="#191970" stroke="#191970" points="1526.6934,-75.9534 1516.1065,-75.5419 1524.126,-82.4657 1526.6934,-75.9534"/>
</g>
<!-- Node32&#45;&gt;Node16 -->
<g id="edge56" class="edge">
<title>Node32&#45;&gt;Node16</title>
<path fill="none" stroke="#191970" d="M1652.0985,-117.7568C1657.9275,-102.5197 1666.1465,-73.0359 1650.9027,-56 1625.4511,-27.5563 1359.8582,-14.7046 1268.5393,-11.1035"/>
<polygon fill="#191970" stroke="#191970" points="1268.6648,-7.6058 1258.5376,-10.7189 1268.3957,-14.6007 1268.6648,-7.6058"/>
</g>
<!-- Node32&#45;&gt;Node26 -->
<g id="edge59" class="edge">
<title>Node32&#45;&gt;Node26</title>
<path fill="none" stroke="#191970" d="M1635.6112,-117.9005C1612.4854,-100.0516 1563.0238,-62.9339 1542.9027,-56 1483.2912,-35.4573 1060.5325,-17.9331 904.0019,-12.0806"/>
<polygon fill="#191970" stroke="#191970" points="903.7644,-8.5695 893.6414,-11.6958 903.5045,-15.5647 903.7644,-8.5695"/>
</g>
<!-- Node34 -->
<g id="node35" class="node">
<title>Node34</title>
<polygon fill="#ffffff" stroke="#bfbfbf" points="1775.4027,-56.5 1775.4027,-75.5 1820.4027,-75.5 1820.4027,-56.5 1775.4027,-56.5"/>
<text text-anchor="middle" x="1797.9027" y="-63.5" font-family="Helvetica,sans-Serif" font-size="10.00" fill="#000000">iosfwd</text>
</g>
<!-- Node33&#45;&gt;Node34 -->
<g id="edge61" class="edge">
<title>Node33&#45;&gt;Node34</title>
<path fill="none" stroke="#191970" d="M1797.9027,-112.2977C1797.9027,-104.3834 1797.9027,-94.6043 1797.9027,-86.0759"/>
<polygon fill="#191970" stroke="#191970" points="1801.4028,-85.8469 1797.9027,-75.8469 1794.4028,-85.847 1801.4028,-85.8469"/>
</g>
<!-- Node35&#45;&gt;Node4 -->
<g id="edge65" class="edge">
<title>Node35&#45;&gt;Node4</title>
<path fill="none" stroke="#191970" d="M1530.1878,-184.9938C1543.2124,-182.9103 1557.0275,-180.7934 1569.9027,-179 1705.9683,-160.0468 1740.6535,-160.5855 1876.9027,-143 1889.0522,-141.4319 1901.9447,-139.6877 1914.4636,-137.9513"/>
<polygon fill="#191970" stroke="#191970" points="1914.9819,-141.413 1924.402,-136.564 1914.0141,-134.4802 1914.9819,-141.413"/>
</g>
<!-- Node35&#45;&gt;Node19 -->
<g id="edge67" class="edge">
<title>Node35&#45;&gt;Node19</title>
<path fill="none" stroke="#191970" d="M1410.3903,-185.331C1392.4769,-182.9889 1372.9518,-180.6654 1354.9027,-179 1281.771,-172.2523 752.4672,-188.6081 694.9027,-143 660.4516,-115.7046 655.3084,-59.6475 655.1889,-29.7703"/>
<polygon fill="#191970" stroke="#191970" points="658.6892,-29.767 655.3384,-19.716 651.69,-29.6628 658.6892,-29.767"/>
</g>
<!-- Node35&#45;&gt;Node32 -->
<g id="edge66" class="edge">
<title>Node35&#45;&gt;Node32</title>
<path fill="none" stroke="#191970" d="M1498.8326,-184.9005C1528.9382,-173.3082 1579.7348,-153.7486 1613.5407,-140.7313"/>
<polygon fill="#191970" stroke="#191970" points="1614.9446,-143.9413 1623.019,-137.0817 1612.4292,-137.4089 1614.9446,-143.9413"/>
</g>
<!-- Node36 -->
<g id="node37" class="node">
<title>Node36</title>
<polygon fill="#ffffff" stroke="#bfbfbf" points="1418.9027,-118 1418.9027,-137 1528.9027,-137 1528.9027,-118 1418.9027,-118"/>
<text text-anchor="middle" x="1473.9027" y="-125" font-family="Helvetica,sans-Serif" font-size="10.00" fill="#000000">AMReX_Geometry.H</text>
</g>
<!-- Node35&#45;&gt;Node36 -->
<g id="edge68" class="edge">
<title>Node35&#45;&gt;Node36</title>
<path fill="none" stroke="#191970" d="M1473.9027,-184.9005C1473.9027,-175.149 1473.9027,-159.7597 1473.9027,-147.3695"/>
<polygon fill="#191970" stroke="#191970" points="1477.4028,-147.0816 1473.9027,-137.0817 1470.4028,-147.0817 1477.4028,-147.0816"/>
</g>
</g>
</svg>
