<?xml version="1.0" encoding="UTF-8" standalone="no"?>
<!DOCTYPE svg PUBLIC "-//W3C//DTD SVG 1.1//EN"
 "http://www.w3.org/Graphics/SVG/1.1/DTD/svg11.dtd">
<!-- Generated by graphviz version 2.40.1 (20161225.0304)
 -->
<!-- Title: SamplingContainer.cpp Pages: 1 -->
<svg width="1335pt" height="218pt"
 viewBox="0.00 0.00 1334.50 218.00" xmlns="http://www.w3.org/2000/svg" xmlns:xlink="http://www.w3.org/1999/xlink">
<g id="graph0" class="graph" transform="scale(1 1) rotate(0) translate(4 214)">
<title>SamplingContainer.cpp</title>
<polygon fill="#ffffff" stroke="transparent" points="-4,4 -4,-214 1330.5,-214 1330.5,4 -4,4"/>
<!-- Node0 -->
<g id="node1" class="node">
<title>Node0</title>
<polygon fill="#bfbfbf" stroke="#000000" points="344.5,-190.5 344.5,-209.5 462.5,-209.5 462.5,-190.5 344.5,-190.5"/>
<text text-anchor="middle" x="403.5" y="-197.5" font-family="Helvetica,sans-Serif" font-size="10.00" fill="#000000">SamplingContainer.cpp</text>
</g>
<!-- Node1 -->
<g id="node2" class="node">
<title>Node1</title>
<g id="a_node2"><a xlink:href="_sampling_container_8_h.html" target="_top" xlink:title="amr&#45;wind/utilities\l/sampling/SamplingContainer.H">
<polygon fill="#ffffff" stroke="#000000" points="74,-123.5 74,-153.5 229,-153.5 229,-123.5 74,-123.5"/>
<text text-anchor="start" x="82" y="-141.5" font-family="Helvetica,sans-Serif" font-size="10.00" fill="#000000">amr&#45;wind/utilities</text>
<text text-anchor="middle" x="151.5" y="-130.5" font-family="Helvetica,sans-Serif" font-size="10.00" fill="#000000">/sampling/SamplingContainer.H</text>
</a>
</g>
</g>
<!-- Node0&#45;&gt;Node1 -->
<g id="edge1" class="edge">
<title>Node0&#45;&gt;Node1</title>
<path fill="none" stroke="#191970" d="M364.4015,-190.4581C326.7931,-181.2799 269.0456,-167.1867 223.1771,-155.9926"/>
<polygon fill="#191970" stroke="#191970" points="223.8295,-152.5492 213.2848,-153.5784 222.1698,-159.3496 223.8295,-152.5492"/>
</g>
<!-- Node4 -->
<g id="node5" class="node">
<title>Node4</title>
<g id="a_node5"><a xlink:href="_sampler_base_8_h.html" target="_top" xlink:title="amr&#45;wind/utilities\l/sampling/SamplerBase.H">
<polygon fill="#ffffff" stroke="#000000" points="338,-123.5 338,-153.5 469,-153.5 469,-123.5 338,-123.5"/>
<text text-anchor="start" x="346" y="-141.5" font-family="Helvetica,sans-Serif" font-size="10.00" fill="#000000">amr&#45;wind/utilities</text>
<text text-anchor="middle" x="403.5" y="-130.5" font-family="Helvetica,sans-Serif" font-size="10.00" fill="#000000">/sampling/SamplerBase.H</text>
</a>
</g>
</g>
<!-- Node0&#45;&gt;Node4 -->
<g id="edge4" class="edge">
<title>Node0&#45;&gt;Node4</title>
<path fill="none" stroke="#191970" d="M403.5,-190.3906C403.5,-183.2234 403.5,-173.0862 403.5,-163.671"/>
<polygon fill="#191970" stroke="#191970" points="407.0001,-163.5446 403.5,-153.5446 400.0001,-163.5446 407.0001,-163.5446"/>
</g>
<!-- Node15 -->
<g id="node16" class="node">
<title>Node15</title>
<g id="a_node16"><a xlink:href="_field_8_h.html" target="_top" xlink:title="amr&#45;wind/core/Field.H">
<polygon fill="#ffffff" stroke="#000000" points="769,-129 769,-148 882,-148 882,-129 769,-129"/>
<text text-anchor="middle" x="825.5" y="-136" font-family="Helvetica,sans-Serif" font-size="10.00" fill="#000000">amr&#45;wind/core/Field.H</text>
</a>
</g>
</g>
<!-- Node0&#45;&gt;Node15 -->
<g id="edge17" class="edge">
<title>Node0&#45;&gt;Node15</title>
<path fill="none" stroke="#191970" d="M462.6216,-191.3839C540.4984,-180.0346 677.0949,-160.1278 758.6481,-148.2426"/>
<polygon fill="#191970" stroke="#191970" points="759.4105,-151.6686 768.8012,-146.763 758.4009,-144.7418 759.4105,-151.6686"/>
</g>
<!-- Node2 -->
<g id="node3" class="node">
<title>Node2</title>
<polygon fill="#ffffff" stroke="#bfbfbf" points="117.5,-.5 117.5,-19.5 169.5,-19.5 169.5,-.5 117.5,-.5"/>
<text text-anchor="middle" x="143.5" y="-7.5" font-family="Helvetica,sans-Serif" font-size="10.00" fill="#000000">memory</text>
</g>
<!-- Node1&#45;&gt;Node2 -->
<g id="edge2" class="edge">
<title>Node1&#45;&gt;Node2</title>
<path fill="none" stroke="#191970" d="M150.5509,-123.2548C149.1015,-99.9744 146.3365,-55.5607 144.7334,-29.8117"/>
<polygon fill="#191970" stroke="#191970" points="148.2208,-29.499 144.1061,-19.7358 141.2343,-29.934 148.2208,-29.499"/>
</g>
<!-- Node3 -->
<g id="node4" class="node">
<title>Node3</title>
<polygon fill="#ffffff" stroke="#bfbfbf" points="0,-62 0,-81 123,-81 123,-62 0,-62"/>
<text text-anchor="middle" x="61.5" y="-69" font-family="Helvetica,sans-Serif" font-size="10.00" fill="#000000">AMReX_AmrParticles.H</text>
</g>
<!-- Node1&#45;&gt;Node3 -->
<g id="edge3" class="edge">
<title>Node1&#45;&gt;Node3</title>
<path fill="none" stroke="#191970" d="M131.0776,-123.2967C116.6468,-112.5537 97.3516,-98.1895 82.7412,-87.3129"/>
<polygon fill="#191970" stroke="#191970" points="84.4464,-84.219 74.335,-81.055 80.2664,-89.8339 84.4464,-84.219"/>
</g>
<!-- Node5 -->
<g id="node6" class="node">
<title>Node5</title>
<g id="a_node6"><a xlink:href="_factory_8_h.html" target="_top" xlink:title="amr&#45;wind/core/Factory.H">
<polygon fill="#ffffff" stroke="#000000" points="244,-62 244,-81 369,-81 369,-62 244,-62"/>
<text text-anchor="middle" x="306.5" y="-69" font-family="Helvetica,sans-Serif" font-size="10.00" fill="#000000">amr&#45;wind/core/Factory.H</text>
</a>
</g>
</g>
<!-- Node4&#45;&gt;Node5 -->
<g id="edge5" class="edge">
<title>Node4&#45;&gt;Node5</title>
<path fill="none" stroke="#191970" d="M381.4892,-123.2967C365.7892,-112.4524 344.7472,-97.9182 328.949,-87.006"/>
<polygon fill="#191970" stroke="#191970" points="330.5505,-83.8585 320.3333,-81.055 326.5722,-89.6181 330.5505,-83.8585"/>
</g>
<!-- Node10 -->
<g id="node11" class="node">
<title>Node10</title>
<g id="a_node11"><a xlink:href="nc__interface_8_h.html" target="_top" xlink:title="Interface to NetCDF library. ">
<polygon fill="#ffffff" stroke="#000000" points="471,-56.5 471,-86.5 586,-86.5 586,-56.5 471,-56.5"/>
<text text-anchor="start" x="479" y="-74.5" font-family="Helvetica,sans-Serif" font-size="10.00" fill="#000000">amr&#45;wind/utilities</text>
<text text-anchor="middle" x="528.5" y="-63.5" font-family="Helvetica,sans-Serif" font-size="10.00" fill="#000000">/ncutils/nc_interface.H</text>
</a>
</g>
</g>
<!-- Node4&#45;&gt;Node10 -->
<g id="edge11" class="edge">
<title>Node4&#45;&gt;Node10</title>
<path fill="none" stroke="#191970" d="M431.5524,-123.4639C449.1202,-114.0475 471.9687,-101.8008 491.0714,-91.5617"/>
<polygon fill="#191970" stroke="#191970" points="492.9484,-94.5268 500.1087,-86.7177 489.6415,-88.3571 492.9484,-94.5268"/>
</g>
<!-- Node5&#45;&gt;Node2 -->
<g id="edge6" class="edge">
<title>Node5&#45;&gt;Node2</title>
<path fill="none" stroke="#191970" d="M281.0313,-61.8906C253.3995,-51.4652 209.1131,-34.7559 178.2872,-23.1252"/>
<polygon fill="#191970" stroke="#191970" points="179.3817,-19.7974 168.7899,-19.5419 176.9106,-26.3467 179.3817,-19.7974"/>
</g>
<!-- Node6 -->
<g id="node7" class="node">
<title>Node6</title>
<polygon fill="#ffffff" stroke="#bfbfbf" points="446,-.5 446,-19.5 529,-19.5 529,-.5 446,-.5"/>
<text text-anchor="middle" x="487.5" y="-7.5" font-family="Helvetica,sans-Serif" font-size="10.00" fill="#000000">unordered_map</text>
</g>
<!-- Node5&#45;&gt;Node6 -->
<g id="edge7" class="edge">
<title>Node5&#45;&gt;Node6</title>
<path fill="none" stroke="#191970" d="M334.7813,-61.8906C365.73,-51.3749 415.4942,-34.466 449.757,-22.8243"/>
<polygon fill="#191970" stroke="#191970" points="451.075,-26.073 459.4173,-19.5419 448.8229,-19.4452 451.075,-26.073"/>
</g>
<!-- Node7 -->
<g id="node8" class="node">
<title>Node7</title>
<polygon fill="#ffffff" stroke="#bfbfbf" points="187.5,-.5 187.5,-19.5 241.5,-19.5 241.5,-.5 187.5,-.5"/>
<text text-anchor="middle" x="214.5" y="-7.5" font-family="Helvetica,sans-Serif" font-size="10.00" fill="#000000">iostream</text>
</g>
<!-- Node5&#45;&gt;Node7 -->
<g id="edge8" class="edge">
<title>Node5&#45;&gt;Node7</title>
<path fill="none" stroke="#191970" d="M292.125,-61.8906C277.4069,-52.0519 254.3168,-36.6167 237.1411,-25.1351"/>
<polygon fill="#191970" stroke="#191970" points="239.0327,-22.1896 228.7741,-19.5419 235.1425,-28.0091 239.0327,-22.1896"/>
</g>
<!-- Node8 -->
<g id="node9" class="node">
<title>Node8</title>
<polygon fill="#ffffff" stroke="#bfbfbf" points="260,-.5 260,-19.5 347,-19.5 347,-.5 260,-.5"/>
<text text-anchor="middle" x="303.5" y="-7.5" font-family="Helvetica,sans-Serif" font-size="10.00" fill="#000000">AMReX_Print.H</text>
</g>
<!-- Node5&#45;&gt;Node8 -->
<g id="edge9" class="edge">
<title>Node5&#45;&gt;Node8</title>
<path fill="none" stroke="#191970" d="M306.0313,-61.8906C305.6154,-53.3657 304.9946,-40.6392 304.4719,-29.9235"/>
<polygon fill="#191970" stroke="#191970" points="307.9585,-29.5624 303.9754,-19.7449 300.9668,-29.9035 307.9585,-29.5624"/>
</g>
<!-- Node9 -->
<g id="node10" class="node">
<title>Node9</title>
<polygon fill="#ffffff" stroke="#bfbfbf" points="365.5,-.5 365.5,-19.5 427.5,-19.5 427.5,-.5 365.5,-.5"/>
<text text-anchor="middle" x="396.5" y="-7.5" font-family="Helvetica,sans-Serif" font-size="10.00" fill="#000000">AMReX.H</text>
</g>
<!-- Node5&#45;&gt;Node9 -->
<g id="edge10" class="edge">
<title>Node5&#45;&gt;Node9</title>
<path fill="none" stroke="#191970" d="M320.5625,-61.8906C334.8286,-52.1421 357.135,-36.8994 373.8872,-25.4521"/>
<polygon fill="#191970" stroke="#191970" points="376.2545,-28.0736 382.5362,-19.5419 372.3051,-22.2941 376.2545,-28.0736"/>
</g>
<!-- Node10&#45;&gt;Node6 -->
<g id="edge13" class="edge">
<title>Node10&#45;&gt;Node6</title>
<path fill="none" stroke="#191970" d="M518.3652,-56.2977C512.7332,-47.8498 505.6849,-37.2773 499.746,-28.369"/>
<polygon fill="#191970" stroke="#191970" points="502.5238,-26.226 494.0646,-19.8469 496.6995,-30.1089 502.5238,-26.226"/>
</g>
<!-- Node11 -->
<g id="node12" class="node">
<title>Node11</title>
<polygon fill="#ffffff" stroke="#bfbfbf" points="869,-.5 869,-19.5 910,-19.5 910,-.5 869,-.5"/>
<text text-anchor="middle" x="889.5" y="-7.5" font-family="Helvetica,sans-Serif" font-size="10.00" fill="#000000">string</text>
</g>
<!-- Node10&#45;&gt;Node11 -->
<g id="edge12" class="edge">
<title>Node10&#45;&gt;Node11</title>
<path fill="none" stroke="#191970" d="M586.1872,-57.8762C589.3328,-57.2203 592.4524,-56.5901 595.5,-56 690.8773,-37.531 804.7676,-21.3749 858.5113,-14.099"/>
<polygon fill="#191970" stroke="#191970" points="859.2927,-17.5255 868.7369,-12.7238 858.3596,-10.5879 859.2927,-17.5255"/>
</g>
<!-- Node12 -->
<g id="node13" class="node">
<title>Node12</title>
<polygon fill="#ffffff" stroke="#bfbfbf" points="547.5,-.5 547.5,-19.5 591.5,-19.5 591.5,-.5 547.5,-.5"/>
<text text-anchor="middle" x="569.5" y="-7.5" font-family="Helvetica,sans-Serif" font-size="10.00" fill="#000000">vector</text>
</g>
<!-- Node10&#45;&gt;Node12 -->
<g id="edge14" class="edge">
<title>Node10&#45;&gt;Node12</title>
<path fill="none" stroke="#191970" d="M538.6348,-56.2977C544.2668,-47.8498 551.3151,-37.2773 557.254,-28.369"/>
<polygon fill="#191970" stroke="#191970" points="560.3005,-30.1089 562.9354,-19.8469 554.4762,-26.226 560.3005,-30.1089"/>
</g>
<!-- Node13 -->
<g id="node14" class="node">
<title>Node13</title>
<polygon fill="#ffffff" stroke="#bfbfbf" points="609.5,-.5 609.5,-19.5 661.5,-19.5 661.5,-.5 609.5,-.5"/>
<text text-anchor="middle" x="635.5" y="-7.5" font-family="Helvetica,sans-Serif" font-size="10.00" fill="#000000">netcdf.h</text>
</g>
<!-- Node10&#45;&gt;Node13 -->
<g id="edge15" class="edge">
<title>Node10&#45;&gt;Node13</title>
<path fill="none" stroke="#191970" d="M554.6751,-56.4554C571.5887,-46.734 593.4829,-34.15 610.2172,-24.5317"/>
<polygon fill="#191970" stroke="#191970" points="611.993,-27.548 618.9188,-19.5303 608.5047,-21.4791 611.993,-27.548"/>
</g>
<!-- Node14 -->
<g id="node15" class="node">
<title>Node14</title>
<polygon fill="#ffffff" stroke="#bfbfbf" points="680,-.5 680,-19.5 751,-19.5 751,-.5 680,-.5"/>
<text text-anchor="middle" x="715.5" y="-7.5" font-family="Helvetica,sans-Serif" font-size="10.00" fill="#000000">netcdf_par.h</text>
</g>
<!-- Node10&#45;&gt;Node14 -->
<g id="edge16" class="edge">
<title>Node10&#45;&gt;Node14</title>
<path fill="none" stroke="#191970" d="M574.2453,-56.4554C605.7205,-46.104 647.0649,-32.5067 676.8824,-22.7004"/>
<polygon fill="#191970" stroke="#191970" points="678.1157,-25.9793 686.5216,-19.5303 675.9287,-19.3297 678.1157,-25.9793"/>
</g>
<!-- Node15&#45;&gt;Node2 -->
<g id="edge19" class="edge">
<title>Node15&#45;&gt;Node2</title>
<path fill="none" stroke="#191970" d="M768.7639,-135.5158C630.3396,-127.957 283.0494,-107.2174 234.5,-87 203.0214,-73.8914 174.3671,-45.76 157.9413,-27.3738"/>
<polygon fill="#191970" stroke="#191970" points="160.4839,-24.9635 151.2886,-19.7008 155.195,-29.5492 160.4839,-24.9635"/>
</g>
<!-- Node15&#45;&gt;Node6 -->
<g id="edge20" class="edge">
<title>Node15&#45;&gt;Node6</title>
<path fill="none" stroke="#191970" d="M768.7438,-134.4897C671.6752,-127.0496 482.2687,-109.7713 462.5,-87 447.9059,-70.1893 460.9411,-44.7045 473.0031,-27.7144"/>
<polygon fill="#191970" stroke="#191970" points="475.828,-29.7815 479.0705,-19.695 470.2457,-25.558 475.828,-29.7815"/>
</g>
<!-- Node15&#45;&gt;Node11 -->
<g id="edge18" class="edge">
<title>Node15&#45;&gt;Node11</title>
<path fill="none" stroke="#191970" d="M864.7074,-128.9438C900.7055,-119.2825 950.1298,-103.4638 961.5,-87 969.3295,-75.6631 968.1191,-68.0836 961.5,-56 952.5298,-39.6244 934.9736,-28.2312 919.4435,-20.8798"/>
<polygon fill="#191970" stroke="#191970" points="920.6958,-17.6076 910.1306,-16.8165 917.8965,-24.0235 920.6958,-17.6076"/>
</g>
<!-- Node16 -->
<g id="node17" class="node">
<title>Node16</title>
<polygon fill="#ffffff" stroke="#bfbfbf" points="1222.5,-.5 1222.5,-19.5 1326.5,-19.5 1326.5,-.5 1222.5,-.5"/>
<text text-anchor="middle" x="1274.5" y="-7.5" font-family="Helvetica,sans-Serif" font-size="10.00" fill="#000000">AMReX_MultiFab.H</text>
</g>
<!-- Node15&#45;&gt;Node16 -->
<g id="edge21" class="edge">
<title>Node15&#45;&gt;Node16</title>
<path fill="none" stroke="#191970" d="M882.1995,-133.2831C965.8199,-125.0338 1117.7897,-107.7638 1168.5,-87 1203.3106,-72.7465 1237.3812,-44.7755 1257.1409,-26.758"/>
<polygon fill="#191970" stroke="#191970" points="1259.7673,-29.0945 1264.6937,-19.7146 1254.9932,-23.9751 1259.7673,-29.0945"/>
</g>
<!-- Node17 -->
<g id="node18" class="node">
<title>Node17</title>
<polygon fill="#ffffff" stroke="#bfbfbf" points="604,-62 604,-81 703,-81 703,-62 604,-62"/>
<text text-anchor="middle" x="653.5" y="-69" font-family="Helvetica,sans-Serif" font-size="10.00" fill="#000000">AMReX_BCRec.H</text>
</g>
<!-- Node15&#45;&gt;Node17 -->
<g id="edge22" class="edge">
<title>Node15&#45;&gt;Node17</title>
<path fill="none" stroke="#191970" d="M800.8566,-128.9005C771.0971,-117.3082 720.8844,-97.7486 687.467,-84.7313"/>
<polygon fill="#191970" stroke="#191970" points="688.6861,-81.4501 678.0977,-81.0817 686.1453,-87.9727 688.6861,-81.4501"/>
</g>
<!-- Node18 -->
<g id="node19" class="node">
<title>Node18</title>
<polygon fill="#ffffff" stroke="#bfbfbf" points="721,-62 721,-81 806,-81 806,-62 721,-62"/>
<text text-anchor="middle" x="763.5" y="-69" font-family="Helvetica,sans-Serif" font-size="10.00" fill="#000000">AMReX_Gpu.H</text>
</g>
<!-- Node15&#45;&gt;Node18 -->
<g id="edge23" class="edge">
<title>Node15&#45;&gt;Node18</title>
<path fill="none" stroke="#191970" d="M816.6169,-128.9005C806.9486,-118.4525 791.2912,-101.5325 779.4752,-88.7635"/>
<polygon fill="#191970" stroke="#191970" points="781.7274,-86.0441 772.3666,-81.0817 776.5897,-90.7985 781.7274,-86.0441"/>
</g>
<!-- Node19 -->
<g id="node20" class="node">
<title>Node19</title>
<g id="a_node20"><a xlink:href="incflo__enums_8_h.html" target="_top" xlink:title="amr&#45;wind/incflo_enums.H">
<polygon fill="#ffffff" stroke="#000000" points="824.5,-62 824.5,-81 952.5,-81 952.5,-62 824.5,-62"/>
<text text-anchor="middle" x="888.5" y="-69" font-family="Helvetica,sans-Serif" font-size="10.00" fill="#000000">amr&#45;wind/incflo_enums.H</text>
</a>
</g>
</g>
<!-- Node15&#45;&gt;Node19 -->
<g id="edge24" class="edge">
<title>Node15&#45;&gt;Node19</title>
<path fill="none" stroke="#191970" d="M834.5264,-128.9005C844.4442,-118.353 860.5641,-101.2096 872.6091,-88.3998"/>
<polygon fill="#191970" stroke="#191970" points="875.1899,-90.7645 879.4904,-81.0817 870.0903,-85.9693 875.1899,-90.7645"/>
</g>
<!-- Node20 -->
<g id="node21" class="node">
<title>Node20</title>
<g id="a_node21"><a xlink:href="_field_desc_types_8_h.html" target="_top" xlink:title="amr&#45;wind/core/FieldDescTypes.H">
<polygon fill="#ffffff" stroke="#000000" points="1041,-.5 1041,-19.5 1204,-19.5 1204,-.5 1041,-.5"/>
<text text-anchor="middle" x="1122.5" y="-7.5" font-family="Helvetica,sans-Serif" font-size="10.00" fill="#000000">amr&#45;wind/core/FieldDescTypes.H</text>
</a>
</g>
</g>
<!-- Node15&#45;&gt;Node20 -->
<g id="edge25" class="edge">
<title>Node15&#45;&gt;Node20</title>
<path fill="none" stroke="#191970" d="M882.1268,-133.5304C970.8236,-125.1676 1134.2385,-107.2024 1151.5,-87 1166.1976,-69.7982 1151.6066,-44.4063 1138.3432,-27.5439"/>
<polygon fill="#191970" stroke="#191970" points="1140.7916,-25.0159 1131.6904,-19.592 1135.4228,-29.5077 1140.7916,-25.0159"/>
</g>
<!-- Node21 -->
<g id="node22" class="node">
<title>Node21</title>
<g id="a_node22"><a xlink:href="_view_field_8_h.html" target="_top" xlink:title="amr&#45;wind/core/ViewField.H">
<polygon fill="#ffffff" stroke="#000000" points="1008.5,-62 1008.5,-81 1142.5,-81 1142.5,-62 1008.5,-62"/>
<text text-anchor="middle" x="1075.5" y="-69" font-family="Helvetica,sans-Serif" font-size="10.00" fill="#000000">amr&#45;wind/core/ViewField.H</text>
</a>
</g>
</g>
<!-- Node15&#45;&gt;Node21 -->
<g id="edge26" class="edge">
<title>Node15&#45;&gt;Node21</title>
<path fill="none" stroke="#191970" d="M861.0534,-128.9717C905.354,-117.0991 981.131,-96.7909 1029.728,-83.7669"/>
<polygon fill="#191970" stroke="#191970" points="1030.9114,-87.0733 1039.6645,-81.1039 1029.0993,-80.3119 1030.9114,-87.0733"/>
</g>
<!-- Node21&#45;&gt;Node11 -->
<g id="edge27" class="edge">
<title>Node21&#45;&gt;Node11</title>
<path fill="none" stroke="#191970" d="M1046.4528,-61.9385C1017.0148,-52.2422 969.9058,-36.7089 919.8625,-20.114"/>
<polygon fill="#191970" stroke="#191970" points="920.7476,-16.7201 910.1542,-16.8934 918.5436,-23.364 920.7476,-16.7201"/>
</g>
<!-- Node21&#45;&gt;Node16 -->
<g id="edge29" class="edge">
<title>Node21&#45;&gt;Node16</title>
<path fill="none" stroke="#191970" d="M1106.5938,-61.8906C1140.9124,-51.2846 1196.2743,-34.1753 1233.9698,-22.5257"/>
<polygon fill="#191970" stroke="#191970" points="1235.1039,-25.8386 1243.6246,-19.5419 1233.037,-19.1507 1235.1039,-25.8386"/>
</g>
<!-- Node21&#45;&gt;Node20 -->
<g id="edge28" class="edge">
<title>Node21&#45;&gt;Node20</title>
<path fill="none" stroke="#191970" d="M1082.8438,-61.8906C1089.7702,-52.8273 1100.326,-39.0149 1108.806,-27.9188"/>
<polygon fill="#191970" stroke="#191970" points="1111.7615,-29.8155 1115.0527,-19.7449 1106.1997,-25.565 1111.7615,-29.8155"/>
</g>
<!-- Node22 -->
<g id="node23" class="node">
<title>Node22</title>
<polygon fill="#ffffff" stroke="#bfbfbf" points="928,-.5 928,-19.5 1023,-19.5 1023,-.5 928,-.5"/>
<text text-anchor="middle" x="975.5" y="-7.5" font-family="Helvetica,sans-Serif" font-size="10.00" fill="#000000">AMReX_Vector.H</text>
</g>
<!-- Node21&#45;&gt;Node22 -->
<g id="edge30" class="edge">
<title>Node21&#45;&gt;Node22</title>
<path fill="none" stroke="#191970" d="M1059.875,-61.8906C1043.7302,-51.9616 1018.3178,-36.333 999.5977,-24.8201"/>
<polygon fill="#191970" stroke="#191970" points="1001.3669,-21.7992 991.0153,-19.5419 997.6998,-27.7619 1001.3669,-21.7992"/>
</g>
</g>
</svg>
