<?xml version="1.0" encoding="UTF-8" standalone="no"?>
<!DOCTYPE svg PUBLIC "-//W3C//DTD SVG 1.1//EN"
 "http://www.w3.org/Graphics/SVG/1.1/DTD/svg11.dtd">
<!-- Generated by graphviz version 2.40.1 (20161225.0304)
 -->
<!-- Title: SchemeTraits.H Pages: 1 -->
<svg width="1332pt" height="308pt"
 viewBox="0.00 0.00 1331.50 308.00" xmlns="http://www.w3.org/2000/svg" xmlns:xlink="http://www.w3.org/1999/xlink">
<g id="graph0" class="graph" transform="scale(1 1) rotate(0) translate(4 304)">
<title>SchemeTraits.H</title>
<polygon fill="#ffffff" stroke="transparent" points="-4,4 -4,-304 1327.5,-304 1327.5,4 -4,4"/>
<!-- Node2 -->
<g id="node1" class="node">
<title>Node2</title>
<polygon fill="#bfbfbf" stroke="#000000" points="486,-280.5 486,-299.5 574,-299.5 574,-280.5 486,-280.5"/>
<text text-anchor="middle" x="530" y="-287.5" font-family="Helvetica,sans-Serif" font-size="10.00" fill="#000000">SchemeTraits.H</text>
</g>
<!-- Node3 -->
<g id="node2" class="node">
<title>Node3</title>
<g id="a_node2"><a xlink:href="_adv_op___godunov_8_h.html" target="_top" xlink:title="AdvOp_Godunov.H">
<polygon fill="#ffffff" stroke="#000000" points="257.5,-112.5 257.5,-131.5 358.5,-131.5 358.5,-112.5 257.5,-112.5"/>
<text text-anchor="middle" x="308" y="-119.5" font-family="Helvetica,sans-Serif" font-size="10.00" fill="#000000">AdvOp_Godunov.H</text>
</a>
</g>
</g>
<!-- Node2&#45;&gt;Node3 -->
<g id="edge1" class="edge">
<title>Node2&#45;&gt;Node3</title>
<path fill="none" stroke="#191970" d="M509.2252,-274.2785C463.9347,-240.0047 357.4299,-159.4064 320.709,-131.6177"/>
<polygon fill="#191970" stroke="#191970" points="507.3421,-277.2427 517.4282,-280.4862 511.5662,-271.6608 507.3421,-277.2427"/>
</g>
<!-- Node13 -->
<g id="node12" class="node">
<title>Node13</title>
<g id="a_node12"><a xlink:href="_adv_op___m_o_l_8_h.html" target="_top" xlink:title="AdvOp_MOL.H">
<polygon fill="#ffffff" stroke="#000000" points="473.5,-112.5 473.5,-131.5 556.5,-131.5 556.5,-112.5 473.5,-112.5"/>
<text text-anchor="middle" x="515" y="-119.5" font-family="Helvetica,sans-Serif" font-size="10.00" fill="#000000">AdvOp_MOL.H</text>
</a>
</g>
</g>
<!-- Node2&#45;&gt;Node13 -->
<g id="edge12" class="edge">
<title>Node2&#45;&gt;Node13</title>
<path fill="none" stroke="#191970" d="M522.7747,-270.6944C520.0917,-262.5746 517.3694,-252.9506 516,-244 509.6573,-202.5435 512.5278,-152.2339 514.154,-131.5654"/>
<polygon fill="#191970" stroke="#191970" points="519.5406,-272.0481 526.1618,-280.3192 526.1436,-269.7244 519.5406,-272.0481"/>
</g>
<!-- Node14 -->
<g id="node13" class="node">
<title>Node14</title>
<g id="a_node13"><a xlink:href="_comp_r_h_s_ops_8_h.html" target="_top" xlink:title="CompRHSOps.H">
<polygon fill="#ffffff" stroke="#000000" points="558.5,-224.5 558.5,-243.5 651.5,-243.5 651.5,-224.5 558.5,-224.5"/>
<text text-anchor="middle" x="605" y="-231.5" font-family="Helvetica,sans-Serif" font-size="10.00" fill="#000000">CompRHSOps.H</text>
</a>
</g>
</g>
<!-- Node2&#45;&gt;Node14 -->
<g id="edge20" class="edge">
<title>Node2&#45;&gt;Node14</title>
<path fill="none" stroke="#191970" d="M551.1477,-274.2097C564.3201,-264.3743 580.84,-252.0394 592.0857,-243.6427"/>
<polygon fill="#191970" stroke="#191970" points="548.9828,-271.4581 543.064,-280.2455 553.1709,-277.0671 548.9828,-271.4581"/>
</g>
<!-- Node16 -->
<g id="node15" class="node">
<title>Node16</title>
<g id="a_node15"><a xlink:href="density_8_h.html" target="_top" xlink:title="density.H">
<polygon fill="#ffffff" stroke="#000000" points="96.5,-112.5 96.5,-131.5 155.5,-131.5 155.5,-112.5 96.5,-112.5"/>
<text text-anchor="middle" x="126" y="-119.5" font-family="Helvetica,sans-Serif" font-size="10.00" fill="#000000">density.H</text>
</a>
</g>
</g>
<!-- Node2&#45;&gt;Node16 -->
<g id="edge46" class="edge">
<title>Node2&#45;&gt;Node16</title>
<path fill="none" stroke="#191970" d="M494.4247,-276.9419C470.2328,-267.948 437.5562,-255.5768 409,-244 310.3293,-203.9984 194.0542,-152.4667 147.1671,-131.5021"/>
<polygon fill="#191970" stroke="#191970" points="493.3149,-280.2631 503.9079,-280.4561 495.7473,-273.6993 493.3149,-280.2631"/>
</g>
<!-- Node18 -->
<g id="node17" class="node">
<title>Node18</title>
<g id="a_node17"><a xlink:href="icns_8_h.html" target="_top" xlink:title="icns.H">
<polygon fill="#ffffff" stroke="#000000" points="907.5,-112.5 907.5,-131.5 952.5,-131.5 952.5,-112.5 907.5,-112.5"/>
<text text-anchor="middle" x="930" y="-119.5" font-family="Helvetica,sans-Serif" font-size="10.00" fill="#000000">icns.H</text>
</a>
</g>
</g>
<!-- Node2&#45;&gt;Node18 -->
<g id="edge52" class="edge">
<title>Node2&#45;&gt;Node18</title>
<path fill="none" stroke="#191970" d="M584.3717,-287.7534C651.5768,-283.7975 768.8408,-273.0211 865,-244 919.8072,-227.459 950.5651,-236.4886 981,-188 994.318,-166.7818 966.3452,-144.1005 946.8066,-131.6234"/>
<polygon fill="#191970" stroke="#191970" points="583.8155,-284.2789 574.0264,-288.3315 584.2061,-291.268 583.8155,-284.2789"/>
</g>
<!-- Node22 -->
<g id="node21" class="node">
<title>Node22</title>
<g id="a_node21"><a xlink:href="levelset_8_h.html" target="_top" xlink:title="levelset.H">
<polygon fill="#ffffff" stroke="#000000" points="574.5,-112.5 574.5,-131.5 635.5,-131.5 635.5,-112.5 574.5,-112.5"/>
<text text-anchor="middle" x="605" y="-119.5" font-family="Helvetica,sans-Serif" font-size="10.00" fill="#000000">levelset.H</text>
</a>
</g>
</g>
<!-- Node2&#45;&gt;Node22 -->
<g id="edge53" class="edge">
<title>Node2&#45;&gt;Node22</title>
<path fill="none" stroke="#191970" d="M534.5879,-270.3923C540.8721,-245.5706 553.5241,-201.9556 572,-168 579.2343,-154.7047 589.7068,-140.7589 596.9036,-131.7566"/>
<polygon fill="#191970" stroke="#191970" points="531.1231,-269.8273 532.1506,-280.3722 537.9232,-271.4881 531.1231,-269.8273"/>
</g>
<!-- Node24 -->
<g id="node23" class="node">
<title>Node24</title>
<g id="a_node23"><a xlink:href="_s_d_r_8_h.html" target="_top" xlink:title="SDR.H">
<polygon fill="#ffffff" stroke="#000000" points="190.5,-112.5 190.5,-131.5 239.5,-131.5 239.5,-112.5 190.5,-112.5"/>
<text text-anchor="middle" x="215" y="-119.5" font-family="Helvetica,sans-Serif" font-size="10.00" fill="#000000">SDR.H</text>
</a>
</g>
</g>
<!-- Node2&#45;&gt;Node24 -->
<g id="edge55" class="edge">
<title>Node2&#45;&gt;Node24</title>
<path fill="none" stroke="#191970" d="M503.2777,-275.7481C440.6875,-242.3667 285.8968,-159.8116 233.0331,-131.6177"/>
<polygon fill="#191970" stroke="#191970" points="501.6911,-278.8685 512.1617,-280.4862 504.9852,-272.6921 501.6911,-278.8685"/>
</g>
<!-- Node25 -->
<g id="node24" class="node">
<title>Node25</title>
<g id="a_node24"><a xlink:href="temperature_8_h.html" target="_top" xlink:title="temperature.H">
<polygon fill="#ffffff" stroke="#000000" points="376.5,-112.5 376.5,-131.5 455.5,-131.5 455.5,-112.5 376.5,-112.5"/>
<text text-anchor="middle" x="416" y="-119.5" font-family="Helvetica,sans-Serif" font-size="10.00" fill="#000000">temperature.H</text>
</a>
</g>
</g>
<!-- Node2&#45;&gt;Node25 -->
<g id="edge56" class="edge">
<title>Node2&#45;&gt;Node25</title>
<path fill="none" stroke="#191970" d="M517.8531,-272.0993C493.8951,-236.7928 441.2646,-159.232 422.6689,-131.8279"/>
<polygon fill="#191970" stroke="#191970" points="515.033,-274.1767 523.5442,-280.4862 520.8253,-270.2462 515.033,-274.1767"/>
</g>
<!-- Node26 -->
<g id="node25" class="node">
<title>Node26</title>
<g id="a_node25"><a xlink:href="_t_k_e_8_h.html" target="_top" xlink:title="TKE.H">
<polygon fill="#ffffff" stroke="#000000" points="655.5,-112.5 655.5,-131.5 702.5,-131.5 702.5,-112.5 655.5,-112.5"/>
<text text-anchor="middle" x="679" y="-119.5" font-family="Helvetica,sans-Serif" font-size="10.00" fill="#000000">TKE.H</text>
</a>
</g>
</g>
<!-- Node2&#45;&gt;Node26 -->
<g id="edge57" class="edge">
<title>Node2&#45;&gt;Node26</title>
<path fill="none" stroke="#191970" d="M580.9519,-277.9056C613.0659,-269.2308 650.4001,-256.8485 661,-244 688.522,-210.6395 683.818,-153.9665 680.6089,-131.5419"/>
<polygon fill="#191970" stroke="#191970" points="579.9683,-274.5452 571.1885,-280.4751 581.75,-281.3146 579.9683,-274.5452"/>
</g>
<!-- Node28 -->
<g id="node27" class="node">
<title>Node28</title>
<g id="a_node27"><a xlink:href="_diffusion_ops_8_h.html" target="_top" xlink:title="DiffusionOps.H">
<polygon fill="#ffffff" stroke="#000000" points="772,-224.5 772,-243.5 856,-243.5 856,-224.5 772,-224.5"/>
<text text-anchor="middle" x="814" y="-231.5" font-family="Helvetica,sans-Serif" font-size="10.00" fill="#000000">DiffusionOps.H</text>
</a>
</g>
</g>
<!-- Node2&#45;&gt;Node28 -->
<g id="edge47" class="edge">
<title>Node2&#45;&gt;Node28</title>
<path fill="none" stroke="#191970" d="M583.9025,-279.3713C638.4617,-268.6132 721.7043,-252.1991 771.6897,-242.3429"/>
<polygon fill="#191970" stroke="#191970" points="583.1974,-275.9429 574.0634,-281.3114 584.5516,-282.8107 583.1974,-275.9429"/>
</g>
<!-- Node30 -->
<g id="node29" class="node">
<title>Node30</title>
<g id="a_node29"><a xlink:href="_p_d_e_base_8cpp.html" target="_top" xlink:title="PDEBase.cpp">
<polygon fill="#ffffff" stroke="#000000" points="1028.5,-224.5 1028.5,-243.5 1107.5,-243.5 1107.5,-224.5 1028.5,-224.5"/>
<text text-anchor="middle" x="1068" y="-231.5" font-family="Helvetica,sans-Serif" font-size="10.00" fill="#000000">PDEBase.cpp</text>
</a>
</g>
</g>
<!-- Node2&#45;&gt;Node30 -->
<g id="edge54" class="edge">
<title>Node2&#45;&gt;Node30</title>
<path fill="none" stroke="#191970" d="M584.405,-286.4042C674.1674,-280.1188 858.8099,-265.701 1014,-244 1018.6268,-243.353 1023.4608,-242.5873 1028.2532,-241.7721"/>
<polygon fill="#191970" stroke="#191970" points="583.9306,-282.9286 574.1969,-287.1125 584.4152,-289.9118 583.9306,-282.9286"/>
</g>
<!-- Node4 -->
<g id="node3" class="node">
<title>Node4</title>
<g id="a_node3"><a xlink:href="density_8cpp.html" target="_top" xlink:title="density.cpp">
<polygon fill="#ffffff" stroke="#000000" points="93.5,-.5 93.5,-19.5 160.5,-19.5 160.5,-.5 93.5,-.5"/>
<text text-anchor="middle" x="127" y="-7.5" font-family="Helvetica,sans-Serif" font-size="10.00" fill="#000000">density.cpp</text>
</a>
</g>
</g>
<!-- Node3&#45;&gt;Node4 -->
<g id="edge2" class="edge">
<title>Node3&#45;&gt;Node4</title>
<path fill="none" stroke="#191970" d="M257.4096,-109.856C222.3586,-100.6825 179.4907,-87.7135 165,-76 146.2858,-60.8725 134.9744,-33.8959 129.9988,-19.564"/>
<polygon fill="#191970" stroke="#191970" points="256.9696,-113.3566 267.5261,-112.4567 258.7125,-106.577 256.9696,-113.3566"/>
</g>
<!-- Node5 -->
<g id="node4" class="node">
<title>Node5</title>
<g id="a_node4"><a xlink:href="icns__ops_8_h.html" target="_top" xlink:title="icns_ops.H">
<polygon fill="#ffffff" stroke="#000000" points="897,-56.5 897,-75.5 963,-75.5 963,-56.5 897,-56.5"/>
<text text-anchor="middle" x="930" y="-63.5" font-family="Helvetica,sans-Serif" font-size="10.00" fill="#000000">icns_ops.H</text>
</a>
</g>
</g>
<!-- Node3&#45;&gt;Node5 -->
<g id="edge3" class="edge">
<title>Node3&#45;&gt;Node5</title>
<path fill="none" stroke="#191970" d="M368.8359,-111.8839C599.2447,-85.309 661.7953,-110.5035 888,-76 890.8157,-75.5705 893.7209,-75.0482 896.627,-74.4701"/>
<polygon fill="#191970" stroke="#191970" points="368.3265,-108.4196 358.8026,-113.0614 369.1424,-115.3719 368.3265,-108.4196"/>
</g>
<!-- Node7 -->
<g id="node6" class="node">
<title>Node7</title>
<g id="a_node6"><a xlink:href="icns__advection_8_h.html" target="_top" xlink:title="icns_advection.H">
<polygon fill="#ffffff" stroke="#000000" points="681,-56.5 681,-75.5 773,-75.5 773,-56.5 681,-56.5"/>
<text text-anchor="middle" x="727" y="-63.5" font-family="Helvetica,sans-Serif" font-size="10.00" fill="#000000">icns_advection.H</text>
</a>
</g>
</g>
<!-- Node3&#45;&gt;Node7 -->
<g id="edge5" class="edge">
<title>Node3&#45;&gt;Node7</title>
<path fill="none" stroke="#191970" d="M368.425,-111.8533C503.8002,-92.746 540.173,-95.7446 672,-76 674.8794,-75.5687 677.8393,-75.1012 680.8212,-74.6119"/>
<polygon fill="#191970" stroke="#191970" points="367.9101,-108.3912 358.5043,-113.2678 368.8982,-115.3211 367.9101,-108.3912"/>
</g>
<!-- Node9 -->
<g id="node8" class="node">
<title>Node9</title>
<g id="a_node8"><a xlink:href="levelset_8cpp.html" target="_top" xlink:title="levelset.cpp">
<polygon fill="#ffffff" stroke="#000000" points="499.5,-.5 499.5,-19.5 568.5,-19.5 568.5,-.5 499.5,-.5"/>
<text text-anchor="middle" x="534" y="-7.5" font-family="Helvetica,sans-Serif" font-size="10.00" fill="#000000">levelset.cpp</text>
</a>
</g>
</g>
<!-- Node3&#45;&gt;Node9 -->
<g id="edge8" class="edge">
<title>Node3&#45;&gt;Node9</title>
<path fill="none" stroke="#191970" d="M290.72,-104.4893C278.7952,-90.2651 267.0575,-70.2895 279,-56 306.6942,-22.863 436.2846,-13.5565 499.3489,-10.9743"/>
<polygon fill="#191970" stroke="#191970" points="288.2926,-107.0241 297.5852,-112.1132 293.4944,-102.3399 288.2926,-107.0241"/>
</g>
<!-- Node10 -->
<g id="node9" class="node">
<title>Node10</title>
<g id="a_node9"><a xlink:href="_s_d_r_8cpp.html" target="_top" xlink:title="SDR.cpp">
<polygon fill="#ffffff" stroke="#000000" points="174.5,-56.5 174.5,-75.5 231.5,-75.5 231.5,-56.5 174.5,-56.5"/>
<text text-anchor="middle" x="203" y="-63.5" font-family="Helvetica,sans-Serif" font-size="10.00" fill="#000000">SDR.cpp</text>
</a>
</g>
</g>
<!-- Node3&#45;&gt;Node10 -->
<g id="edge9" class="edge">
<title>Node3&#45;&gt;Node10</title>
<path fill="none" stroke="#191970" d="M280.7375,-107.46C261.9478,-97.4388 237.4987,-84.3993 221.08,-75.6427"/>
<polygon fill="#191970" stroke="#191970" points="279.2398,-110.6278 289.7104,-112.2455 282.5339,-104.4514 279.2398,-110.6278"/>
</g>
<!-- Node11 -->
<g id="node10" class="node">
<title>Node11</title>
<g id="a_node10"><a xlink:href="temperature_8cpp.html" target="_top" xlink:title="temperature.cpp">
<polygon fill="#ffffff" stroke="#000000" points="288.5,-56.5 288.5,-75.5 375.5,-75.5 375.5,-56.5 288.5,-56.5"/>
<text text-anchor="middle" x="332" y="-63.5" font-family="Helvetica,sans-Serif" font-size="10.00" fill="#000000">temperature.cpp</text>
</a>
</g>
</g>
<!-- Node3&#45;&gt;Node11 -->
<g id="edge10" class="edge">
<title>Node3&#45;&gt;Node11</title>
<path fill="none" stroke="#191970" d="M316.1241,-103.0437C320.0715,-93.8331 324.6458,-83.1598 327.8674,-75.6427"/>
<polygon fill="#191970" stroke="#191970" points="312.9027,-101.6753 312.1805,-112.2455 319.3367,-104.4328 312.9027,-101.6753"/>
</g>
<!-- Node12 -->
<g id="node11" class="node">
<title>Node12</title>
<g id="a_node11"><a xlink:href="_t_k_e_8cpp.html" target="_top" xlink:title="TKE.cpp">
<polygon fill="#ffffff" stroke="#000000" points="393.5,-56.5 393.5,-75.5 448.5,-75.5 448.5,-56.5 393.5,-56.5"/>
<text text-anchor="middle" x="421" y="-63.5" font-family="Helvetica,sans-Serif" font-size="10.00" fill="#000000">TKE.cpp</text>
</a>
</g>
</g>
<!-- Node3&#45;&gt;Node12 -->
<g id="edge11" class="edge">
<title>Node3&#45;&gt;Node12</title>
<path fill="none" stroke="#191970" d="M336.5792,-107.8368C357.0058,-97.7139 383.9362,-84.3679 401.8281,-75.5011"/>
<polygon fill="#191970" stroke="#191970" points="334.8313,-104.7968 327.4254,-112.3733 337.9396,-111.0688 334.8313,-104.7968"/>
</g>
<!-- Node6 -->
<g id="node5" class="node">
<title>Node6</title>
<g id="a_node5"><a xlink:href="icns_8cpp.html" target="_top" xlink:title="icns.cpp">
<polygon fill="#ffffff" stroke="#000000" points="990.5,-.5 990.5,-19.5 1043.5,-19.5 1043.5,-.5 990.5,-.5"/>
<text text-anchor="middle" x="1017" y="-7.5" font-family="Helvetica,sans-Serif" font-size="10.00" fill="#000000">icns.cpp</text>
</a>
</g>
</g>
<!-- Node5&#45;&gt;Node6 -->
<g id="edge4" class="edge">
<title>Node5&#45;&gt;Node6</title>
<path fill="none" stroke="#191970" d="M953.6625,-50.769C969.0791,-40.8456 988.726,-28.1994 1002.0194,-19.6427"/>
<polygon fill="#191970" stroke="#191970" points="951.6685,-47.89 945.1542,-56.2455 955.4573,-53.7761 951.6685,-47.89"/>
</g>
<!-- Node7&#45;&gt;Node6 -->
<g id="edge6" class="edge">
<title>Node7&#45;&gt;Node6</title>
<path fill="none" stroke="#191970" d="M783.347,-55.1192C845.7408,-43.0707 943.675,-24.1593 990.4312,-15.1305"/>
<polygon fill="#191970" stroke="#191970" points="782.427,-51.7321 773.272,-57.0647 783.7543,-58.6051 782.427,-51.7321"/>
</g>
<!-- Node8 -->
<g id="node7" class="node">
<title>Node8</title>
<g id="a_node7"><a xlink:href="icns__advection_8cpp.html" target="_top" xlink:title="icns_advection.cpp">
<polygon fill="#ffffff" stroke="#000000" points="676.5,-.5 676.5,-19.5 777.5,-19.5 777.5,-.5 676.5,-.5"/>
<text text-anchor="middle" x="727" y="-7.5" font-family="Helvetica,sans-Serif" font-size="10.00" fill="#000000">icns_advection.cpp</text>
</a>
</g>
</g>
<!-- Node7&#45;&gt;Node8 -->
<g id="edge7" class="edge">
<title>Node7&#45;&gt;Node8</title>
<path fill="none" stroke="#191970" d="M727,-46.1575C727,-37.155 727,-26.9199 727,-19.6427"/>
<polygon fill="#191970" stroke="#191970" points="723.5001,-46.2455 727,-56.2455 730.5001,-46.2456 723.5001,-46.2455"/>
</g>
<!-- Node13&#45;&gt;Node4 -->
<g id="edge13" class="edge">
<title>Node13&#45;&gt;Node4</title>
<path fill="none" stroke="#191970" d="M504.2421,-103.7313C494.1143,-88.3074 477.4627,-67.0242 457,-56 406.202,-28.6327 234.1673,-15.9839 160.7044,-11.7338"/>
<polygon fill="#191970" stroke="#191970" points="501.4128,-105.8084 509.6807,-112.4336 507.3489,-102.0985 501.4128,-105.8084"/>
</g>
<!-- Node13&#45;&gt;Node5 -->
<g id="edge14" class="edge">
<title>Node13&#45;&gt;Node5</title>
<path fill="none" stroke="#191970" d="M566.7471,-112.007C710.0826,-90.5856 749.3219,-100.168 888,-76 890.806,-75.511 893.7044,-74.9468 896.6059,-74.3406"/>
<polygon fill="#191970" stroke="#191970" points="566.0603,-108.5711 556.6995,-113.5335 567.1118,-115.4917 566.0603,-108.5711"/>
</g>
<!-- Node13&#45;&gt;Node7 -->
<g id="edge15" class="edge">
<title>Node13&#45;&gt;Node7</title>
<path fill="none" stroke="#191970" d="M561.489,-109.7199C600.4708,-99.4228 655.3379,-84.9296 691.0315,-75.5011"/>
<polygon fill="#191970" stroke="#191970" points="560.2186,-106.4353 551.4441,-112.3733 562.0064,-113.2032 560.2186,-106.4353"/>
</g>
<!-- Node13&#45;&gt;Node9 -->
<g id="edge16" class="edge">
<title>Node13&#45;&gt;Node9</title>
<path fill="none" stroke="#191970" d="M518.347,-102.2702C522.4645,-77.9985 529.2886,-37.7725 532.3842,-19.5249"/>
<polygon fill="#191970" stroke="#191970" points="514.8418,-102.0064 516.6199,-112.4509 521.7432,-103.1772 514.8418,-102.0064"/>
</g>
<!-- Node13&#45;&gt;Node10 -->
<g id="edge17" class="edge">
<title>Node13&#45;&gt;Node10</title>
<path fill="none" stroke="#191970" d="M463.3684,-111.9094C372.6741,-95.0959 277.983,-78.7714 231.6119,-70.8581"/>
<polygon fill="#191970" stroke="#191970" points="462.7926,-115.3622 473.2639,-113.7489 464.072,-108.4801 462.7926,-115.3622"/>
</g>
<!-- Node13&#45;&gt;Node11 -->
<g id="edge18" class="edge">
<title>Node13&#45;&gt;Node11</title>
<path fill="none" stroke="#191970" d="M473.575,-109.3235C440.0144,-99.0536 393.466,-84.8093 363.0483,-75.5011"/>
<polygon fill="#191970" stroke="#191970" points="472.9547,-112.7938 483.5412,-112.3733 475.0031,-106.1002 472.9547,-112.7938"/>
</g>
<!-- Node13&#45;&gt;Node12 -->
<g id="edge19" class="edge">
<title>Node13&#45;&gt;Node12</title>
<path fill="none" stroke="#191970" d="M489.8995,-107.0465C473.174,-97.0824 451.6832,-84.2794 437.1859,-75.6427"/>
<polygon fill="#191970" stroke="#191970" points="488.2441,-110.1343 498.6264,-112.2455 491.8268,-104.1206 488.2441,-110.1343"/>
</g>
<!-- Node15 -->
<g id="node14" class="node">
<title>Node15</title>
<g id="a_node14"><a xlink:href="_p_d_e_8_h.html" target="_top" xlink:title="PDE.H">
<polygon fill="#ffffff" stroke="#000000" points="581,-168.5 581,-187.5 629,-187.5 629,-168.5 581,-168.5"/>
<text text-anchor="middle" x="605" y="-175.5" font-family="Helvetica,sans-Serif" font-size="10.00" fill="#000000">PDE.H</text>
</a>
</g>
</g>
<!-- Node14&#45;&gt;Node15 -->
<g id="edge21" class="edge">
<title>Node14&#45;&gt;Node15</title>
<path fill="none" stroke="#191970" d="M605,-214.1575C605,-205.155 605,-194.9199 605,-187.6427"/>
<polygon fill="#191970" stroke="#191970" points="601.5001,-214.2455 605,-224.2455 608.5001,-214.2456 601.5001,-214.2455"/>
</g>
<!-- Node15&#45;&gt;Node16 -->
<g id="edge22" class="edge">
<title>Node15&#45;&gt;Node16</title>
<path fill="none" stroke="#191970" d="M570.1766,-175.0751C497.5974,-168.7914 324.9287,-152.8644 181,-132 172.7399,-130.8026 163.8226,-129.2811 155.6218,-127.7885"/>
<polygon fill="#191970" stroke="#191970" points="570.2824,-178.597 580.5454,-175.9659 570.8817,-171.6227 570.2824,-178.597"/>
</g>
<!-- Node15&#45;&gt;Node18 -->
<g id="edge26" class="edge">
<title>Node15&#45;&gt;Node18</title>
<path fill="none" stroke="#191970" d="M639.1483,-172.116C705.7578,-160.6387 851.4005,-135.5433 907.4213,-125.8905"/>
<polygon fill="#191970" stroke="#191970" points="638.4227,-168.6893 629.1623,-173.8366 639.6114,-175.5877 638.4227,-168.6893"/>
</g>
<!-- Node15&#45;&gt;Node22 -->
<g id="edge35" class="edge">
<title>Node15&#45;&gt;Node22</title>
<path fill="none" stroke="#191970" d="M605,-158.1575C605,-149.155 605,-138.9199 605,-131.6427"/>
<polygon fill="#191970" stroke="#191970" points="601.5001,-158.2455 605,-168.2455 608.5001,-158.2456 601.5001,-158.2455"/>
</g>
<!-- Node15&#45;&gt;Node24 -->
<g id="edge39" class="edge">
<title>Node15&#45;&gt;Node24</title>
<path fill="none" stroke="#191970" d="M570.6419,-175.4826C506.6214,-170.3711 364.9671,-157.0762 248,-132 245.3074,-131.4227 242.517,-130.7301 239.7508,-129.9821"/>
<polygon fill="#191970" stroke="#191970" points="570.7113,-178.9986 580.9536,-176.2883 571.2566,-172.0199 570.7113,-178.9986"/>
</g>
<!-- Node15&#45;&gt;Node25 -->
<g id="edge41" class="edge">
<title>Node15&#45;&gt;Node25</title>
<path fill="none" stroke="#191970" d="M570.9416,-167.9086C536.0687,-157.5759 482.274,-141.6368 448.1223,-131.5177"/>
<polygon fill="#191970" stroke="#191970" points="570.0962,-171.3085 580.6785,-170.7936 572.0848,-164.5969 570.0962,-171.3085"/>
</g>
<!-- Node15&#45;&gt;Node26 -->
<g id="edge43" class="edge">
<title>Node15&#45;&gt;Node26</title>
<path fill="none" stroke="#191970" d="M625.8657,-162.2097C638.8625,-152.3743 655.1622,-140.0394 666.2579,-131.6427"/>
<polygon fill="#191970" stroke="#191970" points="623.7518,-159.4201 617.8898,-168.2455 627.976,-165.002 623.7518,-159.4201"/>
</g>
<!-- Node16&#45;&gt;Node4 -->
<g id="edge23" class="edge">
<title>Node16&#45;&gt;Node4</title>
<path fill="none" stroke="#191970" d="M126.1762,-102.2702C126.3929,-77.9985 126.752,-37.7725 126.915,-19.5249"/>
<polygon fill="#191970" stroke="#191970" points="122.6748,-102.4201 126.0853,-112.4509 129.6745,-102.4826 122.6748,-102.4201"/>
</g>
<!-- Node17 -->
<g id="node16" class="node">
<title>Node17</title>
<g id="a_node16"><a xlink:href="density__ops_8_h.html" target="_top" xlink:title="density_ops.H">
<polygon fill="#ffffff" stroke="#000000" points="0,-56.5 0,-75.5 80,-75.5 80,-56.5 0,-56.5"/>
<text text-anchor="middle" x="40" y="-63.5" font-family="Helvetica,sans-Serif" font-size="10.00" fill="#000000">density_ops.H</text>
</a>
</g>
</g>
<!-- Node16&#45;&gt;Node17 -->
<g id="edge24" class="edge">
<title>Node16&#45;&gt;Node17</title>
<path fill="none" stroke="#191970" d="M102.6095,-106.769C87.3701,-96.8456 67.9491,-84.1994 54.8084,-75.6427"/>
<polygon fill="#191970" stroke="#191970" points="100.7301,-109.7218 111.0199,-112.2455 104.5498,-103.8558 100.7301,-109.7218"/>
</g>
<!-- Node17&#45;&gt;Node4 -->
<g id="edge25" class="edge">
<title>Node17&#45;&gt;Node4</title>
<path fill="none" stroke="#191970" d="M63.6625,-50.769C79.0791,-40.8456 98.726,-28.1994 112.0194,-19.6427"/>
<polygon fill="#191970" stroke="#191970" points="61.6685,-47.89 55.1542,-56.2455 65.4573,-53.7761 61.6685,-47.89"/>
</g>
<!-- Node18&#45;&gt;Node5 -->
<g id="edge28" class="edge">
<title>Node18&#45;&gt;Node5</title>
<path fill="none" stroke="#191970" d="M930,-102.1575C930,-93.155 930,-82.9199 930,-75.6427"/>
<polygon fill="#191970" stroke="#191970" points="926.5001,-102.2455 930,-112.2455 933.5001,-102.2456 926.5001,-102.2455"/>
</g>
<!-- Node18&#45;&gt;Node6 -->
<g id="edge27" class="edge">
<title>Node18&#45;&gt;Node6</title>
<path fill="none" stroke="#191970" d="M962.5401,-113.0057C964.0444,-112.6529 965.5365,-112.3156 967,-112 1015.855,-101.4662 1156.6121,-114.0631 1189,-76 1230.5579,-27.1601 1101.5132,-14.3384 1043.607,-11.0746"/>
<polygon fill="#191970" stroke="#191970" points="961.458,-109.6686 952.6078,-115.4931 963.1585,-116.4589 961.458,-109.6686"/>
</g>
<!-- Node18&#45;&gt;Node7 -->
<g id="edge29" class="edge">
<title>Node18&#45;&gt;Node7</title>
<path fill="none" stroke="#191970" d="M897.6662,-113.0803C860.4387,-102.8107 799.5362,-86.01 761.4416,-75.5011"/>
<polygon fill="#191970" stroke="#191970" points="896.9291,-116.5077 907.4998,-115.7931 898.7907,-109.7597 896.9291,-116.5077"/>
</g>
<!-- Node19 -->
<g id="node18" class="node">
<title>Node19</title>
<g id="a_node18"><a xlink:href="icns__diffusion_8_h.html" target="_top" xlink:title="icns_diffusion.H">
<polygon fill="#ffffff" stroke="#000000" points="1236.5,-56.5 1236.5,-75.5 1323.5,-75.5 1323.5,-56.5 1236.5,-56.5"/>
<text text-anchor="middle" x="1280" y="-63.5" font-family="Helvetica,sans-Serif" font-size="10.00" fill="#000000">icns_diffusion.H</text>
</a>
</g>
</g>
<!-- Node18&#45;&gt;Node19 -->
<g id="edge30" class="edge">
<title>Node18&#45;&gt;Node19</title>
<path fill="none" stroke="#191970" d="M962.5322,-112.9682C964.0386,-112.6255 965.5333,-112.3005 967,-112 1079.1275,-89.0246 1108.9237,-93.7256 1222,-76 1226.6436,-75.2721 1231.4911,-74.4829 1236.3192,-73.6779"/>
<polygon fill="#191970" stroke="#191970" points="961.4638,-109.6268 952.5921,-115.4186 963.1392,-116.4233 961.4638,-109.6268"/>
</g>
<!-- Node20 -->
<g id="node19" class="node">
<title>Node20</title>
<g id="a_node19"><a xlink:href="icns__bcop_8_h.html" target="_top" xlink:title="icns_bcop.H">
<polygon fill="#ffffff" stroke="#000000" points="981.5,-56.5 981.5,-75.5 1052.5,-75.5 1052.5,-56.5 981.5,-56.5"/>
<text text-anchor="middle" x="1017" y="-63.5" font-family="Helvetica,sans-Serif" font-size="10.00" fill="#000000">icns_bcop.H</text>
</a>
</g>
</g>
<!-- Node18&#45;&gt;Node20 -->
<g id="edge32" class="edge">
<title>Node18&#45;&gt;Node20</title>
<path fill="none" stroke="#191970" d="M953.6625,-106.769C969.0791,-96.8456 988.726,-84.1994 1002.0194,-75.6427"/>
<polygon fill="#191970" stroke="#191970" points="951.6685,-103.89 945.1542,-112.2455 955.4573,-109.7761 951.6685,-103.89"/>
</g>
<!-- Node21 -->
<g id="node20" class="node">
<title>Node21</title>
<g id="a_node20"><a xlink:href="_power_law_profile_8cpp.html" target="_top" xlink:title="PowerLawProfile.cpp">
<polygon fill="#ffffff" stroke="#000000" points="1070.5,-56.5 1070.5,-75.5 1179.5,-75.5 1179.5,-56.5 1070.5,-56.5"/>
<text text-anchor="middle" x="1125" y="-63.5" font-family="Helvetica,sans-Serif" font-size="10.00" fill="#000000">PowerLawProfile.cpp</text>
</a>
</g>
</g>
<!-- Node18&#45;&gt;Node21 -->
<g id="edge34" class="edge">
<title>Node18&#45;&gt;Node21</title>
<path fill="none" stroke="#191970" d="M962.6889,-112.6124C998.4898,-102.3311 1055.5998,-85.9303 1091.6575,-75.5753"/>
<polygon fill="#191970" stroke="#191970" points="961.396,-109.3422 952.7506,-115.4665 963.3282,-116.0702 961.396,-109.3422"/>
</g>
<!-- Node19&#45;&gt;Node6 -->
<g id="edge31" class="edge">
<title>Node19&#45;&gt;Node6</title>
<path fill="none" stroke="#191970" d="M1226.2516,-54.5555C1170.6762,-42.7219 1086.1897,-24.7324 1043.5699,-15.6575"/>
<polygon fill="#191970" stroke="#191970" points="1225.766,-58.0305 1236.2757,-56.6899 1227.2239,-51.1839 1225.766,-58.0305"/>
</g>
<!-- Node20&#45;&gt;Node6 -->
<g id="edge33" class="edge">
<title>Node20&#45;&gt;Node6</title>
<path fill="none" stroke="#191970" d="M1017,-46.1575C1017,-37.155 1017,-26.9199 1017,-19.6427"/>
<polygon fill="#191970" stroke="#191970" points="1013.5001,-46.2455 1017,-56.2455 1020.5001,-46.2456 1013.5001,-46.2455"/>
</g>
<!-- Node22&#45;&gt;Node9 -->
<g id="edge36" class="edge">
<title>Node22&#45;&gt;Node9</title>
<path fill="none" stroke="#191970" d="M591.4959,-104.0593C585.3475,-95.6713 578.0985,-85.4654 572,-76 559.3965,-56.4382 546.1619,-32.5786 539.121,-19.5766"/>
<polygon fill="#191970" stroke="#191970" points="588.86,-106.3807 597.6291,-112.3266 594.4819,-102.21 588.86,-106.3807"/>
</g>
<!-- Node23 -->
<g id="node22" class="node">
<title>Node23</title>
<g id="a_node22"><a xlink:href="levelset__ops_8_h.html" target="_top" xlink:title="levelset_ops.H">
<polygon fill="#ffffff" stroke="#000000" points="581,-56.5 581,-75.5 663,-75.5 663,-56.5 581,-56.5"/>
<text text-anchor="middle" x="622" y="-63.5" font-family="Helvetica,sans-Serif" font-size="10.00" fill="#000000">levelset_ops.H</text>
</a>
</g>
</g>
<!-- Node22&#45;&gt;Node23 -->
<g id="edge37" class="edge">
<title>Node22&#45;&gt;Node23</title>
<path fill="none" stroke="#191970" d="M610.9337,-102.4538C613.6881,-93.3803 616.8393,-82.9998 619.0728,-75.6427"/>
<polygon fill="#191970" stroke="#191970" points="607.517,-101.66 607.9612,-112.2455 614.2151,-103.6934 607.517,-101.66"/>
</g>
<!-- Node23&#45;&gt;Node9 -->
<g id="edge38" class="edge">
<title>Node23&#45;&gt;Node9</title>
<path fill="none" stroke="#191970" d="M598.0655,-50.769C582.4717,-40.8456 562.599,-28.1994 549.1528,-19.6427"/>
<polygon fill="#191970" stroke="#191970" points="596.3559,-53.8296 606.6716,-56.2455 600.114,-47.9239 596.3559,-53.8296"/>
</g>
<!-- Node24&#45;&gt;Node10 -->
<g id="edge40" class="edge">
<title>Node24&#45;&gt;Node10</title>
<path fill="none" stroke="#191970" d="M210.8115,-102.4538C208.8672,-93.3803 206.6428,-82.9998 205.0663,-75.6427"/>
<polygon fill="#191970" stroke="#191970" points="207.3921,-103.2009 212.9098,-112.2455 214.2367,-101.7341 207.3921,-103.2009"/>
</g>
<!-- Node25&#45;&gt;Node11 -->
<g id="edge42" class="edge">
<title>Node25&#45;&gt;Node11</title>
<path fill="none" stroke="#191970" d="M392.7351,-106.49C377.9144,-96.6096 359.1791,-84.1194 346.464,-75.6427"/>
<polygon fill="#191970" stroke="#191970" points="391.1063,-109.6107 401.3683,-112.2455 394.9893,-103.7863 391.1063,-109.6107"/>
</g>
<!-- Node26&#45;&gt;Node12 -->
<g id="edge44" class="edge">
<title>Node26&#45;&gt;Node12</title>
<path fill="none" stroke="#191970" d="M645.6287,-112.1576C645.4185,-112.1046 645.209,-112.0521 645,-112 574.8906,-94.5235 491.2512,-78.6465 448.7553,-70.9279"/>
<polygon fill="#191970" stroke="#191970" points="644.7252,-115.5389 655.2908,-114.7522 646.5407,-108.7784 644.7252,-115.5389"/>
</g>
<!-- Node27 -->
<g id="node26" class="node">
<title>Node27</title>
<g id="a_node26"><a xlink:href="_one_eq_ksgs_8cpp.html" target="_top" xlink:title="OneEqKsgs.cpp">
<polygon fill="#ffffff" stroke="#000000" points="791,-56.5 791,-75.5 879,-75.5 879,-56.5 791,-56.5"/>
<text text-anchor="middle" x="835" y="-63.5" font-family="Helvetica,sans-Serif" font-size="10.00" fill="#000000">OneEqKsgs.cpp</text>
</a>
</g>
</g>
<!-- Node26&#45;&gt;Node27 -->
<g id="edge45" class="edge">
<title>Node26&#45;&gt;Node27</title>
<path fill="none" stroke="#191970" d="M712.2966,-110.0474C741.0088,-99.7404 781.9211,-85.054 808.4677,-75.5244"/>
<polygon fill="#191970" stroke="#191970" points="710.9224,-106.8219 702.693,-113.4948 713.2875,-113.4103 710.9224,-106.8219"/>
</g>
<!-- Node28&#45;&gt;Node5 -->
<g id="edge50" class="edge">
<title>Node28&#45;&gt;Node5</title>
<path fill="none" stroke="#191970" d="M818.9954,-214.3081C822.9536,-200.7012 829.2752,-182.5113 838,-168 861.1016,-129.5771 899.8889,-92.5786 918.8647,-75.6341"/>
<polygon fill="#191970" stroke="#191970" points="815.5849,-213.5114 816.327,-224.0802 822.3377,-215.3554 815.5849,-213.5114"/>
</g>
<!-- Node28&#45;&gt;Node15 -->
<g id="edge48" class="edge">
<title>Node28&#45;&gt;Node15</title>
<path fill="none" stroke="#191970" d="M768.1615,-221.7179C725.2913,-210.2312 662.9379,-193.524 629.073,-184.4502"/>
<polygon fill="#191970" stroke="#191970" points="767.5065,-225.1658 778.0716,-224.3733 769.3182,-218.4043 767.5065,-225.1658"/>
</g>
<!-- Node28&#45;&gt;Node19 -->
<g id="edge51" class="edge">
<title>Node28&#45;&gt;Node19</title>
<path fill="none" stroke="#191970" d="M825.13,-215.7593C835.2557,-200.7099 851.5633,-179.9548 871,-168 932.7894,-129.9957 1144.162,-89.6824 1236.3829,-73.4281"/>
<polygon fill="#191970" stroke="#191970" points="822.1253,-213.9606 819.6514,-224.2626 828.0097,-217.7519 822.1253,-213.9606"/>
</g>
<!-- Node29 -->
<g id="node28" class="node">
<title>Node29</title>
<g id="a_node28"><a xlink:href="_diffusion_ops_8cpp.html" target="_top" xlink:title="DiffusionOps.cpp">
<polygon fill="#ffffff" stroke="#000000" points="880,-168.5 880,-187.5 972,-187.5 972,-168.5 880,-168.5"/>
<text text-anchor="middle" x="926" y="-175.5" font-family="Helvetica,sans-Serif" font-size="10.00" fill="#000000">DiffusionOps.cpp</text>
</a>
</g>
</g>
<!-- Node28&#45;&gt;Node29 -->
<g id="edge49" class="edge">
<title>Node28&#45;&gt;Node29</title>
<path fill="none" stroke="#191970" d="M842.3263,-219.8368C862.5721,-209.7139 889.2642,-196.3679 906.9978,-187.5011"/>
<polygon fill="#191970" stroke="#191970" points="840.6325,-216.7706 833.2535,-224.3733 843.763,-223.0316 840.6325,-216.7706"/>
</g>
</g>
</svg>
