<?xml version="1.0" encoding="UTF-8" standalone="no"?>
<!DOCTYPE svg PUBLIC "-//W3C//DTD SVG 1.1//EN"
 "http://www.w3.org/Graphics/SVG/1.1/DTD/svg11.dtd">
<!-- Generated by graphviz version 2.40.1 (20161225.0304)
 -->
<!-- Title: ScratchField.cpp Pages: 1 -->
<svg width="1522pt" height="252pt"
 viewBox="0.00 0.00 1521.87 252.00" xmlns="http://www.w3.org/2000/svg" xmlns:xlink="http://www.w3.org/1999/xlink">
<g id="graph0" class="graph" transform="scale(1 1) rotate(0) translate(4 248)">
<title>ScratchField.cpp</title>
<polygon fill="#ffffff" stroke="transparent" points="-4,4 -4,-248 1517.87,-248 1517.87,4 -4,4"/>
<!-- Node0 -->
<g id="node1" class="node">
<title>Node0</title>
<polygon fill="#bfbfbf" stroke="#000000" points="952.8632,-224.5 952.8632,-243.5 1042.8632,-243.5 1042.8632,-224.5 952.8632,-224.5"/>
<text text-anchor="middle" x="997.8632" y="-231.5" font-family="Helvetica,sans-Serif" font-size="10.00" fill="#000000">ScratchField.cpp</text>
</g>
<!-- Node1 -->
<g id="node2" class="node">
<title>Node1</title>
<g id="a_node2"><a xlink:href="_scratch_field_8_h.html" target="_top" xlink:title="amr&#45;wind/core/ScratchField.H">
<polygon fill="#ffffff" stroke="#000000" points="416.8632,-112.5 416.8632,-131.5 562.8632,-131.5 562.8632,-112.5 416.8632,-112.5"/>
<text text-anchor="middle" x="489.8632" y="-119.5" font-family="Helvetica,sans-Serif" font-size="10.00" fill="#000000">amr&#45;wind/core/ScratchField.H</text>
</a>
</g>
</g>
<!-- Node0&#45;&gt;Node1 -->
<g id="edge1" class="edge">
<title>Node0&#45;&gt;Node1</title>
<path fill="none" stroke="#191970" d="M954.5514,-224.4509C861.7626,-203.9936 644.0409,-155.9919 543.0479,-133.7258"/>
<polygon fill="#191970" stroke="#191970" points="543.5844,-130.2601 533.0653,-131.5249 542.0772,-137.0959 543.5844,-130.2601"/>
</g>
<!-- Node5 -->
<g id="node6" class="node">
<title>Node5</title>
<polygon fill="#ffffff" stroke="#bfbfbf" points="130.8632,-.5 130.8632,-19.5 234.8632,-19.5 234.8632,-.5 130.8632,-.5"/>
<text text-anchor="middle" x="182.8632" y="-7.5" font-family="Helvetica,sans-Serif" font-size="10.00" fill="#000000">AMReX_MultiFab.H</text>
</g>
<!-- Node0&#45;&gt;Node5 -->
<g id="edge43" class="edge">
<title>Node0&#45;&gt;Node5</title>
<path fill="none" stroke="#191970" d="M952.7499,-229.5419C873.2995,-221.628 703.2452,-204.4098 559.8632,-188 309.4232,-159.3376 133.1238,-292.4103 3.8632,-76 -.6949,-68.3687 -1.5841,-63.0242 3.8632,-56 18.2591,-37.4368 74.7478,-25.0598 120.4674,-17.8654"/>
<polygon fill="#191970" stroke="#191970" points="121.272,-21.2834 130.6331,-16.3215 120.2209,-14.3628 121.272,-21.2834"/>
</g>
<!-- Node7 -->
<g id="node8" class="node">
<title>Node7</title>
<polygon fill="#ffffff" stroke="#bfbfbf" points="23.8632,-56.5 23.8632,-75.5 151.8632,-75.5 151.8632,-56.5 23.8632,-56.5"/>
<text text-anchor="middle" x="87.8632" y="-63.5" font-family="Helvetica,sans-Serif" font-size="10.00" fill="#000000">AMReX_PhysBCFunct.H</text>
</g>
<!-- Node0&#45;&gt;Node7 -->
<g id="edge41" class="edge">
<title>Node0&#45;&gt;Node7</title>
<path fill="none" stroke="#191970" d="M952.5138,-227.846C848.5245,-213.478 585.043,-175.6133 366.8632,-132 284.6148,-115.5589 189.7578,-92.1652 134.529,-78.0958"/>
<polygon fill="#191970" stroke="#191970" points="135.245,-74.6664 124.6897,-75.581 133.5116,-81.4483 135.245,-74.6664"/>
</g>
<!-- Node8 -->
<g id="node9" class="node">
<title>Node8</title>
<g id="a_node9"><a xlink:href="_field_repo_8_h.html" target="_top" xlink:title="amr&#45;wind/core/FieldRepo.H">
<polygon fill="#ffffff" stroke="#000000" points="881.8632,-168.5 881.8632,-187.5 1017.8632,-187.5 1017.8632,-168.5 881.8632,-168.5"/>
<text text-anchor="middle" x="949.8632" y="-175.5" font-family="Helvetica,sans-Serif" font-size="10.00" fill="#000000">amr&#45;wind/core/FieldRepo.H</text>
</a>
</g>
</g>
<!-- Node0&#45;&gt;Node8 -->
<g id="edge12" class="edge">
<title>Node0&#45;&gt;Node8</title>
<path fill="none" stroke="#191970" d="M989.5022,-224.2455C982.6882,-216.2958 972.8951,-204.8706 964.748,-195.3656"/>
<polygon fill="#191970" stroke="#191970" points="967.2937,-192.9575 958.1283,-187.6427 961.9789,-197.513 967.2937,-192.9575"/>
</g>
<!-- Node15 -->
<g id="node16" class="node">
<title>Node15</title>
<polygon fill="#ffffff" stroke="#bfbfbf" points="1213.3632,-56.5 1213.3632,-75.5 1298.3632,-75.5 1298.3632,-56.5 1213.3632,-56.5"/>
<text text-anchor="middle" x="1255.8632" y="-63.5" font-family="Helvetica,sans-Serif" font-size="10.00" fill="#000000">AMReX_Gpu.H</text>
</g>
<!-- Node0&#45;&gt;Node15 -->
<g id="edge38" class="edge">
<title>Node0&#45;&gt;Node15</title>
<path fill="none" stroke="#191970" d="M1008.1186,-224.4058C1022.7471,-210.9652 1050.7334,-186.1447 1076.8632,-168 1127.6998,-132.6987 1191.5937,-98.5182 1227.6673,-80.0716"/>
<polygon fill="#191970" stroke="#191970" points="1229.311,-83.1624 1236.6424,-75.5137 1226.1414,-76.9211 1229.311,-83.1624"/>
</g>
<!-- Node20 -->
<g id="node21" class="node">
<title>Node20</title>
<polygon fill="#ffffff" stroke="#bfbfbf" points="1085.3632,-168.5 1085.3632,-187.5 1198.3632,-187.5 1198.3632,-168.5 1085.3632,-168.5"/>
<text text-anchor="middle" x="1141.8632" y="-175.5" font-family="Helvetica,sans-Serif" font-size="10.00" fill="#000000">AMReX_FArrayBox.H</text>
</g>
<!-- Node0&#45;&gt;Node20 -->
<g id="edge39" class="edge">
<title>Node0&#45;&gt;Node20</title>
<path fill="none" stroke="#191970" d="M1022.6177,-224.3733C1046.148,-215.2226 1081.7318,-201.3844 1107.9058,-191.2057"/>
<polygon fill="#191970" stroke="#191970" points="1109.3803,-194.3877 1117.4317,-187.5011 1106.8431,-187.8636 1109.3803,-194.3877"/>
</g>
<!-- Node21 -->
<g id="node22" class="node">
<title>Node21</title>
<polygon fill="#ffffff" stroke="#bfbfbf" points="1216.8632,-168.5 1216.8632,-187.5 1326.8632,-187.5 1326.8632,-168.5 1216.8632,-168.5"/>
<text text-anchor="middle" x="1271.8632" y="-175.5" font-family="Helvetica,sans-Serif" font-size="10.00" fill="#000000">AMReX_Geometry.H</text>
</g>
<!-- Node0&#45;&gt;Node21 -->
<g id="edge40" class="edge">
<title>Node0&#45;&gt;Node21</title>
<path fill="none" stroke="#191970" d="M1043.1087,-224.7527C1090.276,-215.1127 1164.2979,-199.9841 1215.2963,-189.5611"/>
<polygon fill="#191970" stroke="#191970" points="1216.0776,-192.9739 1225.1742,-187.5423 1214.6759,-186.1156 1216.0776,-192.9739"/>
</g>
<!-- Node22 -->
<g id="node23" class="node">
<title>Node22</title>
<polygon fill="#ffffff" stroke="#bfbfbf" points="1344.8632,-168.5 1344.8632,-187.5 1464.8632,-187.5 1464.8632,-168.5 1344.8632,-168.5"/>
<text text-anchor="middle" x="1404.8632" y="-175.5" font-family="Helvetica,sans-Serif" font-size="10.00" fill="#000000">AMReX_FillPatchUtil.H</text>
</g>
<!-- Node0&#45;&gt;Node22 -->
<g id="edge42" class="edge">
<title>Node0&#45;&gt;Node22</title>
<path fill="none" stroke="#191970" d="M1042.9846,-227.9856C1105.9091,-219.5703 1223.8643,-203.6944 1334.6475,-188.1621"/>
<polygon fill="#191970" stroke="#191970" points="1335.2405,-191.6132 1344.6568,-186.7569 1334.2673,-184.6812 1335.2405,-191.6132"/>
</g>
<!-- Node2 -->
<g id="node3" class="node">
<title>Node2</title>
<polygon fill="#ffffff" stroke="#bfbfbf" points="1063.3632,-.5 1063.3632,-19.5 1104.3632,-19.5 1104.3632,-.5 1063.3632,-.5"/>
<text text-anchor="middle" x="1083.8632" y="-7.5" font-family="Helvetica,sans-Serif" font-size="10.00" fill="#000000">string</text>
</g>
<!-- Node1&#45;&gt;Node2 -->
<g id="edge2" class="edge">
<title>Node1&#45;&gt;Node2</title>
<path fill="none" stroke="#191970" d="M514.1178,-112.3827C551.7602,-97.8551 626.7982,-70.4772 692.8632,-56 825.0452,-27.0342 986.628,-15.3585 1053.0823,-11.554"/>
<polygon fill="#191970" stroke="#191970" points="1053.4835,-15.0372 1063.2749,-10.9901 1053.0968,-8.0479 1053.4835,-15.0372"/>
</g>
<!-- Node3 -->
<g id="node4" class="node">
<title>Node3</title>
<g id="a_node4"><a xlink:href="_field_desc_types_8_h.html" target="_top" xlink:title="amr&#45;wind/core/FieldDescTypes.H">
<polygon fill="#ffffff" stroke="#000000" points="528.3632,-.5 528.3632,-19.5 691.3632,-19.5 691.3632,-.5 528.3632,-.5"/>
<text text-anchor="middle" x="609.8632" y="-7.5" font-family="Helvetica,sans-Serif" font-size="10.00" fill="#000000">amr&#45;wind/core/FieldDescTypes.H</text>
</a>
</g>
</g>
<!-- Node1&#45;&gt;Node3 -->
<g id="edge3" class="edge">
<title>Node1&#45;&gt;Node3</title>
<path fill="none" stroke="#191970" d="M480.7275,-112.2541C469.1004,-98.6333 451.9823,-73.5999 464.8632,-56 475.2265,-41.84 513.8996,-29.9861 548.7005,-21.8594"/>
<polygon fill="#191970" stroke="#191970" points="549.8796,-25.1812 558.8622,-19.5631 548.3366,-18.3534 549.8796,-25.1812"/>
</g>
<!-- Node4 -->
<g id="node5" class="node">
<title>Node4</title>
<g id="a_node5"><a xlink:href="_view_field_8_h.html" target="_top" xlink:title="amr&#45;wind/core/ViewField.H">
<polygon fill="#ffffff" stroke="#000000" points="473.8632,-56.5 473.8632,-75.5 607.8632,-75.5 607.8632,-56.5 473.8632,-56.5"/>
<text text-anchor="middle" x="540.8632" y="-63.5" font-family="Helvetica,sans-Serif" font-size="10.00" fill="#000000">amr&#45;wind/core/ViewField.H</text>
</a>
</g>
</g>
<!-- Node1&#45;&gt;Node4 -->
<g id="edge4" class="edge">
<title>Node1&#45;&gt;Node4</title>
<path fill="none" stroke="#191970" d="M498.7467,-112.2455C506.0598,-104.2155 516.6023,-92.6394 525.3099,-83.0781"/>
<polygon fill="#191970" stroke="#191970" points="527.9358,-85.3928 532.0815,-75.6427 522.7604,-80.6795 527.9358,-85.3928"/>
</g>
<!-- Node1&#45;&gt;Node5 -->
<g id="edge9" class="edge">
<title>Node1&#45;&gt;Node5</title>
<path fill="none" stroke="#191970" d="M416.6886,-118.8114C342.7027,-114.1201 234.9642,-102.7922 203.8632,-76 190.6506,-64.618 185.6686,-44.9494 183.8321,-30.0366"/>
<polygon fill="#191970" stroke="#191970" points="187.2942,-29.4419 182.9566,-19.7757 180.3195,-30.037 187.2942,-29.4419"/>
</g>
<!-- Node6 -->
<g id="node7" class="node">
<title>Node6</title>
<polygon fill="#ffffff" stroke="#bfbfbf" points="402.3632,-.5 402.3632,-19.5 497.3632,-19.5 497.3632,-.5 402.3632,-.5"/>
<text text-anchor="middle" x="449.8632" y="-7.5" font-family="Helvetica,sans-Serif" font-size="10.00" fill="#000000">AMReX_Vector.H</text>
</g>
<!-- Node1&#45;&gt;Node6 -->
<g id="edge10" class="edge">
<title>Node1&#45;&gt;Node6</title>
<path fill="none" stroke="#191970" d="M470.0391,-112.3695C456.5416,-104.6136 439.7475,-92.3161 431.8632,-76 424.5447,-60.855 430.8327,-42.2674 437.9123,-28.6816"/>
<polygon fill="#191970" stroke="#191970" points="441.0724,-30.2072 443.0239,-19.7937 435.0043,-26.7173 441.0724,-30.2072"/>
</g>
<!-- Node1&#45;&gt;Node7 -->
<g id="edge11" class="edge">
<title>Node1&#45;&gt;Node7</title>
<path fill="none" stroke="#191970" d="M421.2137,-112.4369C349.1434,-102.3972 236.2069,-86.6648 162.1043,-76.342"/>
<polygon fill="#191970" stroke="#191970" points="162.3014,-72.8358 151.9141,-74.9225 161.3355,-79.7688 162.3014,-72.8358"/>
</g>
<!-- Node4&#45;&gt;Node2 -->
<g id="edge5" class="edge">
<title>Node4&#45;&gt;Node2</title>
<path fill="none" stroke="#191970" d="M607.9903,-59.0771C726.3589,-46.8697 967.7452,-21.9753 1053.1113,-13.1715"/>
<polygon fill="#191970" stroke="#191970" points="1053.5985,-16.6399 1063.1866,-12.1324 1052.8803,-9.6768 1053.5985,-16.6399"/>
</g>
<!-- Node4&#45;&gt;Node3 -->
<g id="edge6" class="edge">
<title>Node4&#45;&gt;Node3</title>
<path fill="none" stroke="#191970" d="M552.8821,-56.2455C563.073,-47.9746 577.8994,-35.9416 589.8739,-26.2232"/>
<polygon fill="#191970" stroke="#191970" points="592.423,-28.662 597.982,-19.6427 588.0118,-23.2268 592.423,-28.662"/>
</g>
<!-- Node4&#45;&gt;Node5 -->
<g id="edge7" class="edge">
<title>Node4&#45;&gt;Node5</title>
<path fill="none" stroke="#191970" d="M479.5535,-56.4898C419.8804,-47.2216 326.638,-32.7084 245.8632,-20 245.6444,-19.9656 245.4252,-19.9311 245.2055,-19.8965"/>
<polygon fill="#191970" stroke="#191970" points="245.5385,-16.4059 235.1154,-18.3052 244.448,-23.3204 245.5385,-16.4059"/>
</g>
<!-- Node4&#45;&gt;Node6 -->
<g id="edge8" class="edge">
<title>Node4&#45;&gt;Node6</title>
<path fill="none" stroke="#191970" d="M525.0122,-56.2455C511.05,-47.6534 490.4904,-35.0014 474.4036,-25.1018"/>
<polygon fill="#191970" stroke="#191970" points="475.8835,-21.9029 465.5325,-19.6427 472.2148,-27.8645 475.8835,-21.9029"/>
</g>
<!-- Node8&#45;&gt;Node1 -->
<g id="edge34" class="edge">
<title>Node8&#45;&gt;Node1</title>
<path fill="none" stroke="#191970" d="M881.4932,-169.6767C799.3159,-159.6725 661.4751,-142.8919 573.1616,-132.1407"/>
<polygon fill="#191970" stroke="#191970" points="573.5274,-128.6594 563.1777,-130.9252 572.6814,-135.6081 573.5274,-128.6594"/>
</g>
<!-- Node8&#45;&gt;Node2 -->
<g id="edge13" class="edge">
<title>Node8&#45;&gt;Node2</title>
<path fill="none" stroke="#191970" d="M1018.0344,-172.3415C1145.5131,-161.6345 1408.9039,-138.8682 1427.8632,-132 1469.3566,-116.9685 1489.2567,-115.026 1509.8632,-76 1514.0136,-68.1396 1515.8016,-62.6142 1509.8632,-56 1483.5112,-26.6493 1208.3974,-14.3573 1114.8212,-11.0048"/>
<polygon fill="#191970" stroke="#191970" points="1114.7024,-7.4986 1104.5866,-10.6481 1114.4586,-14.4944 1114.7024,-7.4986"/>
</g>
<!-- Node8&#45;&gt;Node3 -->
<g id="edge15" class="edge">
<title>Node8&#45;&gt;Node3</title>
<path fill="none" stroke="#191970" d="M881.5905,-169.5464C843.4249,-162.9354 795.8423,-151.4752 756.8632,-132 702.2829,-104.73 650.2338,-53.65 625.2646,-27.064"/>
<polygon fill="#191970" stroke="#191970" points="627.771,-24.6192 618.4121,-19.653 622.6313,-29.3715 627.771,-24.6192"/>
</g>
<!-- Node8&#45;&gt;Node5 -->
<g id="edge36" class="edge">
<title>Node8&#45;&gt;Node5</title>
<path fill="none" stroke="#191970" d="M881.8385,-175.8429C676.1035,-168.6104 71.0791,-141.8663 14.8632,-76 -18.5023,-36.9068 59.8419,-20.815 120.4527,-14.2982"/>
<polygon fill="#191970" stroke="#191970" points="121.1693,-17.7439 130.7688,-13.2607 120.4688,-10.779 121.1693,-17.7439"/>
</g>
<!-- Node9 -->
<g id="node10" class="node">
<title>Node9</title>
<polygon fill="#ffffff" stroke="#bfbfbf" points="1112.3632,-56.5 1112.3632,-75.5 1195.3632,-75.5 1195.3632,-56.5 1112.3632,-56.5"/>
<text text-anchor="middle" x="1153.8632" y="-63.5" font-family="Helvetica,sans-Serif" font-size="10.00" fill="#000000">unordered_map</text>
</g>
<!-- Node8&#45;&gt;Node9 -->
<g id="edge14" class="edge">
<title>Node8&#45;&gt;Node9</title>
<path fill="none" stroke="#191970" d="M963.789,-168.4516C983.5826,-155.0655 1021.1938,-130.3092 1054.8632,-112 1076.6555,-100.1495 1102.0429,-88.3922 1121.6527,-79.7306"/>
<polygon fill="#191970" stroke="#191970" points="1123.2923,-82.8337 1131.052,-75.62 1120.4874,-76.4202 1123.2923,-82.8337"/>
</g>
<!-- Node10 -->
<g id="node11" class="node">
<title>Node10</title>
<g id="a_node11"><a xlink:href="_field_utils_8_h.html" target="_top" xlink:title="amr&#45;wind/core/FieldUtils.H">
<polygon fill="#ffffff" stroke="#000000" points="246.3632,-56.5 246.3632,-75.5 379.3632,-75.5 379.3632,-56.5 246.3632,-56.5"/>
<text text-anchor="middle" x="312.8632" y="-63.5" font-family="Helvetica,sans-Serif" font-size="10.00" fill="#000000">amr&#45;wind/core/FieldUtils.H</text>
</a>
</g>
</g>
<!-- Node8&#45;&gt;Node10 -->
<g id="edge16" class="edge">
<title>Node8&#45;&gt;Node10</title>
<path fill="none" stroke="#191970" d="M881.6578,-176.5891C756.0652,-173.272 493.2619,-162.7793 407.8632,-132 377.8262,-121.1741 348.4574,-98.3397 330.5115,-82.5875"/>
<polygon fill="#191970" stroke="#191970" points="332.4351,-79.6089 322.6665,-75.5071 327.7451,-84.8054 332.4351,-79.6089"/>
</g>
<!-- Node12 -->
<g id="node13" class="node">
<title>Node12</title>
<g id="a_node13"><a xlink:href="_field_8_h.html" target="_top" xlink:title="amr&#45;wind/core/Field.H">
<polygon fill="#ffffff" stroke="#000000" points="765.3632,-112.5 765.3632,-131.5 878.3632,-131.5 878.3632,-112.5 765.3632,-112.5"/>
<text text-anchor="middle" x="821.8632" y="-119.5" font-family="Helvetica,sans-Serif" font-size="10.00" fill="#000000">amr&#45;wind/core/Field.H</text>
</a>
</g>
</g>
<!-- Node8&#45;&gt;Node12 -->
<g id="edge20" class="edge">
<title>Node8&#45;&gt;Node12</title>
<path fill="none" stroke="#191970" d="M927.8592,-168.3733C907.2197,-159.3435 876.1474,-145.7494 852.9743,-135.6111"/>
<polygon fill="#191970" stroke="#191970" points="854.1445,-132.3028 843.58,-131.5011 851.3387,-138.7159 854.1445,-132.3028"/>
</g>
<!-- Node17 -->
<g id="node18" class="node">
<title>Node17</title>
<g id="a_node18"><a xlink:href="_int_field_8_h.html" target="_top" xlink:title="amr&#45;wind/core/IntField.H">
<polygon fill="#ffffff" stroke="#000000" points="1271.8632,-112.5 1271.8632,-131.5 1395.8632,-131.5 1395.8632,-112.5 1271.8632,-112.5"/>
<text text-anchor="middle" x="1333.8632" y="-119.5" font-family="Helvetica,sans-Serif" font-size="10.00" fill="#000000">amr&#45;wind/core/IntField.H</text>
</a>
</g>
</g>
<!-- Node8&#45;&gt;Node17 -->
<g id="edge30" class="edge">
<title>Node8&#45;&gt;Node17</title>
<path fill="none" stroke="#191970" d="M1015.4388,-168.4369C1083.8351,-158.4624 1190.7624,-142.8689 1261.5627,-132.5438"/>
<polygon fill="#191970" stroke="#191970" points="1262.3474,-135.9665 1271.7377,-131.06 1261.3372,-129.0398 1262.3474,-135.9665"/>
</g>
<!-- Node18 -->
<g id="node19" class="node">
<title>Node18</title>
<polygon fill="#ffffff" stroke="#bfbfbf" points="1393.3632,-56.5 1393.3632,-75.5 1500.3632,-75.5 1500.3632,-56.5 1393.3632,-56.5"/>
<text text-anchor="middle" x="1446.8632" y="-63.5" font-family="Helvetica,sans-Serif" font-size="10.00" fill="#000000">AMReX_iMultiFab.H</text>
</g>
<!-- Node8&#45;&gt;Node18 -->
<g id="edge37" class="edge">
<title>Node8&#45;&gt;Node18</title>
<path fill="none" stroke="#191970" d="M1017.9155,-172.6873C1140.8153,-162.8745 1388.6424,-141.9989 1404.8632,-132 1422.1477,-121.3453 1433.568,-100.6265 1440.0787,-85.2318"/>
<polygon fill="#191970" stroke="#191970" points="1443.4563,-86.2024 1443.8134,-75.6136 1436.931,-83.6686 1443.4563,-86.2024"/>
</g>
<!-- Node19 -->
<g id="node20" class="node">
<title>Node19</title>
<polygon fill="#ffffff" stroke="#bfbfbf" points="896.8632,-112.5 896.8632,-131.5 1002.8632,-131.5 1002.8632,-112.5 896.8632,-112.5"/>
<text text-anchor="middle" x="949.8632" y="-119.5" font-family="Helvetica,sans-Serif" font-size="10.00" fill="#000000">AMReX_AmrCore.H</text>
</g>
<!-- Node8&#45;&gt;Node19 -->
<g id="edge35" class="edge">
<title>Node8&#45;&gt;Node19</title>
<path fill="none" stroke="#191970" d="M949.8632,-168.2455C949.8632,-160.9382 949.8632,-150.6944 949.8632,-141.7046"/>
<polygon fill="#191970" stroke="#191970" points="953.3633,-141.6426 949.8632,-131.6427 946.3633,-141.6427 953.3633,-141.6426"/>
</g>
<!-- Node10&#45;&gt;Node3 -->
<g id="edge17" class="edge">
<title>Node10&#45;&gt;Node3</title>
<path fill="none" stroke="#191970" d="M363.5818,-56.4369C415.0518,-46.7321 494.7334,-31.708 549.4416,-21.3926"/>
<polygon fill="#191970" stroke="#191970" points="550.1754,-24.816 559.3537,-19.5237 548.8783,-17.9372 550.1754,-24.816"/>
</g>
<!-- Node10&#45;&gt;Node5 -->
<g id="edge18" class="edge">
<title>Node10&#45;&gt;Node5</title>
<path fill="none" stroke="#191970" d="M290.5154,-56.3733C269.4598,-47.3032 237.7136,-33.6279 214.1457,-23.4755"/>
<polygon fill="#191970" stroke="#191970" points="215.4882,-20.243 204.9194,-19.5011 212.7188,-26.6719 215.4882,-20.243"/>
</g>
<!-- Node11 -->
<g id="node12" class="node">
<title>Node11</title>
<polygon fill="#ffffff" stroke="#bfbfbf" points="254.8632,-.5 254.8632,-19.5 370.8632,-19.5 370.8632,-.5 254.8632,-.5"/>
<text text-anchor="middle" x="312.8632" y="-7.5" font-family="Helvetica,sans-Serif" font-size="10.00" fill="#000000">AMReX_Interpolater.H</text>
</g>
<!-- Node10&#45;&gt;Node11 -->
<g id="edge19" class="edge">
<title>Node10&#45;&gt;Node11</title>
<path fill="none" stroke="#191970" d="M312.8632,-56.2455C312.8632,-48.9382 312.8632,-38.6944 312.8632,-29.7046"/>
<polygon fill="#191970" stroke="#191970" points="316.3633,-29.6426 312.8632,-19.6427 309.3633,-29.6427 316.3633,-29.6426"/>
</g>
<!-- Node12&#45;&gt;Node2 -->
<g id="edge21" class="edge">
<title>Node12&#45;&gt;Node2</title>
<path fill="none" stroke="#191970" d="M878.5615,-112.5855C939.4917,-102.0934 1029.4528,-85.3742 1042.8632,-76 1059.2121,-64.5717 1070.3538,-44.3244 1076.849,-29.2596"/>
<polygon fill="#191970" stroke="#191970" points="1080.1561,-30.4154 1080.6102,-19.8302 1073.6542,-27.8218 1080.1561,-30.4154"/>
</g>
<!-- Node12&#45;&gt;Node3 -->
<g id="edge28" class="edge">
<title>Node12&#45;&gt;Node3</title>
<path fill="none" stroke="#191970" d="M878.378,-113.0151C935.7653,-103.3174 1017.5033,-87.6929 1026.8632,-76 1032.418,-69.0606 1032.794,-62.621 1026.8632,-56 1005.5764,-32.2359 818.0914,-19.4532 701.8789,-13.752"/>
<polygon fill="#191970" stroke="#191970" points="701.7147,-10.2401 691.5579,-13.255 701.378,-17.232 701.7147,-10.2401"/>
</g>
<!-- Node12&#45;&gt;Node4 -->
<g id="edge29" class="edge">
<title>Node12&#45;&gt;Node4</title>
<path fill="none" stroke="#191970" d="M773.8768,-112.4369C725.3817,-102.7724 650.4158,-87.8326 598.6753,-77.5213"/>
<polygon fill="#191970" stroke="#191970" points="599.1428,-74.0457 588.6516,-75.5237 597.7747,-80.9107 599.1428,-74.0457"/>
</g>
<!-- Node12&#45;&gt;Node5 -->
<g id="edge24" class="edge">
<title>Node12&#45;&gt;Node5</title>
<path fill="none" stroke="#191970" d="M765.3204,-120.0362C627.8462,-114.9094 283.9623,-99.8435 237.8632,-76 217.6762,-65.5588 202.035,-44.1646 192.6799,-28.5553"/>
<polygon fill="#191970" stroke="#191970" points="195.657,-26.7096 187.683,-19.7335 189.5662,-30.1596 195.657,-26.7096"/>
</g>
<!-- Node12&#45;&gt;Node9 -->
<g id="edge23" class="edge">
<title>Node12&#45;&gt;Node9</title>
<path fill="none" stroke="#191970" d="M878.4552,-112.7643C934.2684,-103.6095 1021.9897,-89.0968 1097.8632,-76 1099.323,-75.748 1100.804,-75.4912 1102.2987,-75.2311"/>
<polygon fill="#191970" stroke="#191970" points="1103.0376,-78.655 1112.2827,-73.4802 1101.8284,-71.7602 1103.0376,-78.655"/>
</g>
<!-- Node13 -->
<g id="node14" class="node">
<title>Node13</title>
<polygon fill="#ffffff" stroke="#bfbfbf" points="701.8632,-56.5 701.8632,-75.5 753.8632,-75.5 753.8632,-56.5 701.8632,-56.5"/>
<text text-anchor="middle" x="727.8632" y="-63.5" font-family="Helvetica,sans-Serif" font-size="10.00" fill="#000000">memory</text>
</g>
<!-- Node12&#45;&gt;Node13 -->
<g id="edge22" class="edge">
<title>Node12&#45;&gt;Node13</title>
<path fill="none" stroke="#191970" d="M805.4896,-112.2455C790.9324,-103.5731 769.4322,-90.7645 752.748,-80.825"/>
<polygon fill="#191970" stroke="#191970" points="754.4315,-77.7539 744.0491,-75.6427 750.8488,-83.7676 754.4315,-77.7539"/>
</g>
<!-- Node14 -->
<g id="node15" class="node">
<title>Node14</title>
<polygon fill="#ffffff" stroke="#bfbfbf" points="772.3632,-56.5 772.3632,-75.5 871.3632,-75.5 871.3632,-56.5 772.3632,-56.5"/>
<text text-anchor="middle" x="821.8632" y="-63.5" font-family="Helvetica,sans-Serif" font-size="10.00" fill="#000000">AMReX_BCRec.H</text>
</g>
<!-- Node12&#45;&gt;Node14 -->
<g id="edge25" class="edge">
<title>Node12&#45;&gt;Node14</title>
<path fill="none" stroke="#191970" d="M821.8632,-112.2455C821.8632,-104.9382 821.8632,-94.6944 821.8632,-85.7046"/>
<polygon fill="#191970" stroke="#191970" points="825.3633,-85.6426 821.8632,-75.6427 818.3633,-85.6427 825.3633,-85.6426"/>
</g>
<!-- Node12&#45;&gt;Node15 -->
<g id="edge26" class="edge">
<title>Node12&#45;&gt;Node15</title>
<path fill="none" stroke="#191970" d="M878.3691,-113.2968C881.5794,-112.8465 884.7612,-112.411 887.8632,-112 1025.1348,-93.8125 1062.9737,-97.471 1203.0654,-76.182"/>
<polygon fill="#191970" stroke="#191970" points="1203.9787,-79.5829 1213.3315,-74.6055 1202.9161,-72.664 1203.9787,-79.5829"/>
</g>
<!-- Node16 -->
<g id="node17" class="node">
<title>Node16</title>
<g id="a_node17"><a xlink:href="incflo__enums_8_h.html" target="_top" xlink:title="amr&#45;wind/incflo_enums.H">
<polygon fill="#ffffff" stroke="#000000" points="889.8632,-56.5 889.8632,-75.5 1017.8632,-75.5 1017.8632,-56.5 889.8632,-56.5"/>
<text text-anchor="middle" x="953.8632" y="-63.5" font-family="Helvetica,sans-Serif" font-size="10.00" fill="#000000">amr&#45;wind/incflo_enums.H</text>
</a>
</g>
</g>
<!-- Node12&#45;&gt;Node16 -->
<g id="edge27" class="edge">
<title>Node12&#45;&gt;Node16</title>
<path fill="none" stroke="#191970" d="M844.5548,-112.3733C865.9343,-103.3032 898.1689,-89.6279 922.0994,-79.4755"/>
<polygon fill="#191970" stroke="#191970" points="923.6288,-82.6287 931.4677,-75.5011 920.8949,-76.1846 923.6288,-82.6287"/>
</g>
<!-- Node17&#45;&gt;Node2 -->
<g id="edge31" class="edge">
<title>Node17&#45;&gt;Node2</title>
<path fill="none" stroke="#191970" d="M1338.8673,-112.2086C1345.3061,-98.0733 1354.1745,-71.9055 1340.8632,-56 1312.3223,-21.897 1176.5483,-13.0479 1114.6926,-10.7747"/>
<polygon fill="#191970" stroke="#191970" points="1114.5003,-7.2665 1104.3896,-10.4324 1114.2678,-14.2627 1114.5003,-7.2665"/>
</g>
<!-- Node17&#45;&gt;Node3 -->
<g id="edge32" class="edge">
<title>Node17&#45;&gt;Node3</title>
<path fill="none" stroke="#191970" d="M1333.1931,-112.4455C1331.5893,-97.6121 1326.1644,-69.3624 1307.8632,-56 1260.0568,-21.0948 880.2216,-12.6756 701.8205,-10.6452"/>
<polygon fill="#191970" stroke="#191970" points="701.7002,-7.1437 691.6625,-10.534 701.6235,-14.1433 701.7002,-7.1437"/>
</g>
<!-- Node17&#45;&gt;Node18 -->
<g id="edge33" class="edge">
<title>Node17&#45;&gt;Node18</title>
<path fill="none" stroke="#191970" d="M1353.2886,-112.3733C1371.2653,-103.4644 1398.2073,-90.1127 1418.5722,-80.0203"/>
<polygon fill="#191970" stroke="#191970" points="1420.2853,-83.0776 1427.6913,-75.5011 1417.177,-76.8055 1420.2853,-83.0776"/>
</g>
</g>
</svg>
