<?xml version="1.0" encoding="UTF-8" standalone="no"?>
<!DOCTYPE svg PUBLIC "-//W3C//DTD SVG 1.1//EN"
 "http://www.w3.org/Graphics/SVG/1.1/DTD/svg11.dtd">
<!-- Generated by graphviz version 2.40.1 (20161225.0304)
 -->
<!-- Title: SecondMomentAveraging.cpp Pages: 1 -->
<!--zoomable 464 -->
<svg id="main" version="1.1" xmlns="http://www.w3.org/2000/svg" xmlns:xlink="http://www.w3.org/1999/xlink" xml:space="preserve" onload="init(evt)">
<style type="text/css"><![CDATA[
.edge:hover path { stroke: red; }
.edge:hover polygon { stroke: red; fill: red; }
]]></style>
<script type="text/javascript"><![CDATA[
var edges = document.getElementsByTagName('g');
if (edges && edges.length) {
  for (var i=0;i<edges.length;i++) {
    if (edges[i].id.substr(0,4)=='edge') {
      edges[i].setAttribute('class','edge');
    }
  }
}
]]></script>
        <defs>
                <circle id="rim" cx="0" cy="0" r="7"/>
                <circle id="rim2" cx="0" cy="0" r="3.5"/>
                <g id="zoomPlus">
                        <use xlink:href="#rim" fill="#404040">
                                <set attributeName="fill" to="#808080" begin="zoomplus.mouseover" end="zoomplus.mouseout"/>
                        </use>
                        <path d="M-4,0h8M0,-4v8" fill="none" stroke="white" stroke-width="1.5" pointer-events="none"/>
                </g>
                <g id="zoomMin">
                        <use xlink:href="#rim" fill="#404040">
                                <set attributeName="fill" to="#808080" begin="zoomminus.mouseover" end="zoomminus.mouseout"/>
                        </use>
                        <path d="M-4,0h8" fill="none" stroke="white" stroke-width="1.5" pointer-events="none"/>
                </g>
                <g id="dirArrow">
                        <path fill="none" stroke="white" stroke-width="1.5" d="M0,-3.0v7 M-2.5,-0.5L0,-3.0L2.5,-0.5"/>
                </g>
               <g id="resetDef">
                       <use xlink:href="#rim2" fill="#404040">
                               <set attributeName="fill" to="#808080" begin="reset.mouseover" end="reset.mouseout"/>
                       </use>
               </g>
        </defs>

<script type="text/javascript">
var viewWidth = 2574;
var viewHeight = 464;
var sectionId = 'dynsection-0';
</script>
<script xlink:href="svgpan.js"/>
<svg id="graph" class="graph">
<g id="viewport">
<title>SecondMomentAveraging.cpp</title>
<polygon fill="#ffffff" stroke="transparent" points="-4,4 -4,-460 2569.5,-460 2569.5,4 -4,4"/>
<!-- Node0 -->
<g id="node1" class="node">
<title>Node0</title>
<polygon fill="#bfbfbf" stroke="#000000" points="975,-436.5 975,-455.5 1122,-455.5 1122,-436.5 975,-436.5"/>
<text text-anchor="middle" x="1048.5" y="-443.5" font-family="Helvetica,sans-Serif" font-size="10.00" fill="#000000">SecondMomentAveraging.cpp</text>
</g>
<!-- Node1 -->
<g id="node2" class="node">
<title>Node1</title>
<g id="a_node2"><a xlink:href="_second_moment_averaging_8_h.html" target="_top" xlink:title="SecondMomentAveraging.H">
<polygon fill="#ffffff" stroke="#000000" points="979,-380.5 979,-399.5 1118,-399.5 1118,-380.5 979,-380.5"/>
<text text-anchor="middle" x="1048.5" y="-387.5" font-family="Helvetica,sans-Serif" font-size="10.00" fill="#000000">SecondMomentAveraging.H</text>
</a>
</g>
</g>
<!-- Node0&#45;&gt;Node1 -->
<g id="edge1" class="edge">
<title>Node0&#45;&gt;Node1</title>
<path fill="none" stroke="#191970" d="M1048.5,-436.2455C1048.5,-428.9382 1048.5,-418.6944 1048.5,-409.7046"/>
<polygon fill="#191970" stroke="#191970" points="1052.0001,-409.6426 1048.5,-399.6427 1045.0001,-409.6427 1052.0001,-409.6426"/>
</g>
<!-- Node2 -->
<g id="node3" class="node">
<title>Node2</title>
<polygon fill="#ffffff" stroke="#bfbfbf" points="229.5,-129 229.5,-148 335.5,-148 335.5,-129 229.5,-129"/>
<text text-anchor="middle" x="282.5" y="-136" font-family="Helvetica,sans-Serif" font-size="10.00" fill="#000000">AMReX_AmrCore.H</text>
</g>
<!-- Node1&#45;&gt;Node2 -->
<g id="edge2" class="edge">
<title>Node1&#45;&gt;Node2</title>
<path fill="none" stroke="#191970" d="M1019.4073,-380.448C901.152,-341.6214 456.4073,-195.5988 321.5218,-151.312"/>
<polygon fill="#191970" stroke="#191970" points="322.2146,-147.8557 311.6218,-148.0615 320.0309,-154.5064 322.2146,-147.8557"/>
</g>
<!-- Node3 -->
<g id="node4" class="node">
<title>Node3</title>
<g id="a_node4"><a xlink:href="_direction_selector_8_h.html" target="_top" xlink:title="amr&#45;wind/utilities\l/DirectionSelector.H">
<polygon fill="#ffffff" stroke="#000000" points="1128,-246.5 1128,-276.5 1233,-276.5 1233,-246.5 1128,-246.5"/>
<text text-anchor="start" x="1136" y="-264.5" font-family="Helvetica,sans-Serif" font-size="10.00" fill="#000000">amr&#45;wind/utilities</text>
<text text-anchor="middle" x="1180.5" y="-253.5" font-family="Helvetica,sans-Serif" font-size="10.00" fill="#000000">/DirectionSelector.H</text>
</a>
</g>
</g>
<!-- Node1&#45;&gt;Node3 -->
<g id="edge3" class="edge">
<title>Node1&#45;&gt;Node3</title>
<path fill="none" stroke="#191970" d="M1098.9193,-380.4744C1121.0905,-373.8106 1145.6411,-362.6279 1161.5,-344 1174.9767,-328.1703 1179.3614,-304.6475 1180.5869,-286.7654"/>
<polygon fill="#191970" stroke="#191970" points="1184.0856,-286.8677 1180.9918,-276.7346 1177.0913,-286.5853 1184.0856,-286.8677"/>
</g>
<!-- Node5 -->
<g id="node6" class="node">
<title>Node5</title>
<g id="a_node6"><a xlink:href="_field_8_h.html" target="_top" xlink:title="amr&#45;wind/core/Field.H">
<polygon fill="#ffffff" stroke="#000000" points="971,-129 971,-148 1084,-148 1084,-129 971,-129"/>
<text text-anchor="middle" x="1027.5" y="-136" font-family="Helvetica,sans-Serif" font-size="10.00" fill="#000000">amr&#45;wind/core/Field.H</text>
</a>
</g>
</g>
<!-- Node1&#45;&gt;Node5 -->
<g id="edge5" class="edge">
<title>Node1&#45;&gt;Node5</title>
<path fill="none" stroke="#191970" d="M1041.3985,-380.3724C1035.2948,-371.4569 1026.9483,-357.5662 1023.5,-344 1006.6109,-277.5553 1017.3249,-195.0982 1023.7229,-158.0868"/>
<polygon fill="#191970" stroke="#191970" points="1027.1882,-158.5925 1025.5345,-148.1275 1020.3012,-157.3397 1027.1882,-158.5925"/>
</g>
<!-- Node15 -->
<g id="node16" class="node">
<title>Node15</title>
<g id="a_node16"><a xlink:href="_field_plane_averaging_8_h.html" target="_top" xlink:title="amr&#45;wind/utilities\l/FieldPlaneAveraging.H">
<polygon fill="#ffffff" stroke="#000000" points="1033,-313.5 1033,-343.5 1152,-343.5 1152,-313.5 1033,-313.5"/>
<text text-anchor="start" x="1041" y="-331.5" font-family="Helvetica,sans-Serif" font-size="10.00" fill="#000000">amr&#45;wind/utilities</text>
<text text-anchor="middle" x="1092.5" y="-320.5" font-family="Helvetica,sans-Serif" font-size="10.00" fill="#000000">/FieldPlaneAveraging.H</text>
</a>
</g>
</g>
<!-- Node1&#45;&gt;Node15 -->
<g id="edge19" class="edge">
<title>Node1&#45;&gt;Node15</title>
<path fill="none" stroke="#191970" d="M1055.375,-380.3906C1060.8336,-372.761 1068.7001,-361.7658 1075.788,-351.8588"/>
<polygon fill="#191970" stroke="#191970" points="1078.7642,-353.714 1081.7364,-343.5446 1073.0712,-349.6409 1078.7642,-353.714"/>
</g>
<!-- Node4 -->
<g id="node5" class="node">
<title>Node4</title>
<polygon fill="#ffffff" stroke="#bfbfbf" points="1629,-62 1629,-81 1714,-81 1714,-62 1629,-62"/>
<text text-anchor="middle" x="1671.5" y="-69" font-family="Helvetica,sans-Serif" font-size="10.00" fill="#000000">AMReX_Gpu.H</text>
</g>
<!-- Node3&#45;&gt;Node4 -->
<g id="edge4" class="edge">
<title>Node3&#45;&gt;Node4</title>
<path fill="none" stroke="#191970" d="M1233.0913,-257.6826C1289.6995,-252.2084 1381.5663,-239.3286 1455.5,-210 1534.8526,-178.5218 1616.4422,-116.5599 1652.4525,-87.3928"/>
<polygon fill="#191970" stroke="#191970" points="1654.6887,-90.0855 1660.2098,-81.0429 1650.2547,-84.6688 1654.6887,-90.0855"/>
</g>
<!-- Node5&#45;&gt;Node4 -->
<g id="edge11" class="edge">
<title>Node5&#45;&gt;Node4</title>
<path fill="none" stroke="#191970" d="M1084.1066,-135.0467C1211.5488,-127.0333 1517.7763,-106.3772 1619.5,-87 1624.0474,-86.1338 1628.7651,-85.029 1633.4201,-83.8091"/>
<polygon fill="#191970" stroke="#191970" points="1634.7377,-87.0746 1643.4201,-81.0028 1632.8463,-80.335 1634.7377,-87.0746"/>
</g>
<!-- Node6 -->
<g id="node7" class="node">
<title>Node6</title>
<polygon fill="#ffffff" stroke="#bfbfbf" points="1092,-.5 1092,-19.5 1133,-19.5 1133,-.5 1092,-.5"/>
<text text-anchor="middle" x="1112.5" y="-7.5" font-family="Helvetica,sans-Serif" font-size="10.00" fill="#000000">string</text>
</g>
<!-- Node5&#45;&gt;Node6 -->
<g id="edge6" class="edge">
<title>Node5&#45;&gt;Node6</title>
<path fill="none" stroke="#191970" d="M1033.8888,-128.8416C1048.0414,-107.4463 1082.2231,-55.7715 1100.5003,-28.1407"/>
<polygon fill="#191970" stroke="#191970" points="1103.4391,-30.0419 1106.037,-19.7705 1097.6008,-26.1799 1103.4391,-30.0419"/>
</g>
<!-- Node7 -->
<g id="node8" class="node">
<title>Node7</title>
<polygon fill="#ffffff" stroke="#bfbfbf" points="450.5,-.5 450.5,-19.5 502.5,-19.5 502.5,-.5 450.5,-.5"/>
<text text-anchor="middle" x="476.5" y="-7.5" font-family="Helvetica,sans-Serif" font-size="10.00" fill="#000000">memory</text>
</g>
<!-- Node5&#45;&gt;Node7 -->
<g id="edge7" class="edge">
<title>Node5&#45;&gt;Node7</title>
<path fill="none" stroke="#191970" d="M970.8248,-134.7716C837.3979,-125.7582 513.3152,-102.3962 495.5,-87 479.2716,-72.9751 475.758,-47.5072 475.4942,-29.7157"/>
<polygon fill="#191970" stroke="#191970" points="478.9963,-29.6268 475.6771,-19.5654 471.9974,-29.5007 478.9963,-29.6268"/>
</g>
<!-- Node8 -->
<g id="node9" class="node">
<title>Node8</title>
<polygon fill="#ffffff" stroke="#bfbfbf" points="524,-.5 524,-19.5 607,-19.5 607,-.5 524,-.5"/>
<text text-anchor="middle" x="565.5" y="-7.5" font-family="Helvetica,sans-Serif" font-size="10.00" fill="#000000">unordered_map</text>
</g>
<!-- Node5&#45;&gt;Node8 -->
<g id="edge8" class="edge">
<title>Node5&#45;&gt;Node8</title>
<path fill="none" stroke="#191970" d="M980.1602,-128.9258C945.869,-120.7952 899.1213,-107.1907 861.5,-87 842.2951,-76.6931 843.3084,-65.0934 823.5,-56 787.5868,-39.5135 681.6223,-24.2212 617.2074,-16.0933"/>
<polygon fill="#191970" stroke="#191970" points="617.5992,-12.6151 607.2431,-14.8512 616.7333,-19.5613 617.5992,-12.6151"/>
</g>
<!-- Node9 -->
<g id="node10" class="node">
<title>Node9</title>
<polygon fill="#ffffff" stroke="#bfbfbf" points="1364.5,-.5 1364.5,-19.5 1468.5,-19.5 1468.5,-.5 1364.5,-.5"/>
<text text-anchor="middle" x="1416.5" y="-7.5" font-family="Helvetica,sans-Serif" font-size="10.00" fill="#000000">AMReX_MultiFab.H</text>
</g>
<!-- Node5&#45;&gt;Node9 -->
<g id="edge9" class="edge">
<title>Node5&#45;&gt;Node9</title>
<path fill="none" stroke="#191970" d="M1084.1444,-132.4863C1137.0181,-125.6297 1217.4586,-111.9833 1283.5,-87 1325.2838,-71.1933 1369.3054,-43.124 1394.763,-25.5947"/>
<polygon fill="#191970" stroke="#191970" points="1397.0707,-28.2521 1403.2637,-19.6557 1393.0616,-22.5138 1397.0707,-28.2521"/>
</g>
<!-- Node10 -->
<g id="node11" class="node">
<title>Node10</title>
<polygon fill="#ffffff" stroke="#bfbfbf" points="871,-62 871,-81 970,-81 970,-62 871,-62"/>
<text text-anchor="middle" x="920.5" y="-69" font-family="Helvetica,sans-Serif" font-size="10.00" fill="#000000">AMReX_BCRec.H</text>
</g>
<!-- Node5&#45;&gt;Node10 -->
<g id="edge10" class="edge">
<title>Node5&#45;&gt;Node10</title>
<path fill="none" stroke="#191970" d="M1012.1695,-128.9005C994.4509,-117.8057 965.0772,-99.4128 944.3632,-86.4424"/>
<polygon fill="#191970" stroke="#191970" points="946.1351,-83.4224 935.8021,-81.0817 942.4201,-89.3553 946.1351,-83.4224"/>
</g>
<!-- Node11 -->
<g id="node12" class="node">
<title>Node11</title>
<g id="a_node12"><a xlink:href="incflo__enums_8_h.html" target="_top" xlink:title="amr&#45;wind/incflo_enums.H">
<polygon fill="#ffffff" stroke="#000000" points="686.5,-62 686.5,-81 814.5,-81 814.5,-62 686.5,-62"/>
<text text-anchor="middle" x="750.5" y="-69" font-family="Helvetica,sans-Serif" font-size="10.00" fill="#000000">amr&#45;wind/incflo_enums.H</text>
</a>
</g>
</g>
<!-- Node5&#45;&gt;Node11 -->
<g id="edge12" class="edge">
<title>Node5&#45;&gt;Node11</title>
<path fill="none" stroke="#191970" d="M988.1068,-128.9717C938.7138,-117.0246 854.0056,-96.5357 800.2051,-83.5225"/>
<polygon fill="#191970" stroke="#191970" points="800.7483,-80.0531 790.2058,-81.1039 799.1026,-86.8569 800.7483,-80.0531"/>
</g>
<!-- Node12 -->
<g id="node13" class="node">
<title>Node12</title>
<g id="a_node13"><a xlink:href="_field_desc_types_8_h.html" target="_top" xlink:title="amr&#45;wind/core/FieldDescTypes.H">
<polygon fill="#ffffff" stroke="#000000" points="1661,-.5 1661,-19.5 1824,-19.5 1824,-.5 1661,-.5"/>
<text text-anchor="middle" x="1742.5" y="-7.5" font-family="Helvetica,sans-Serif" font-size="10.00" fill="#000000">amr&#45;wind/core/FieldDescTypes.H</text>
</a>
</g>
</g>
<!-- Node5&#45;&gt;Node12 -->
<g id="edge13" class="edge">
<title>Node5&#45;&gt;Node12</title>
<path fill="none" stroke="#191970" d="M1084.0175,-129.4762C1144.4141,-119.6746 1242.9062,-103.2353 1327.5,-87 1392.6465,-74.497 1408.3494,-68.482 1473.5,-56 1541.0714,-43.0542 1618.5372,-29.9943 1672.931,-21.1151"/>
<polygon fill="#191970" stroke="#191970" points="1673.5038,-24.568 1682.8115,-19.5068 1672.3791,-17.6589 1673.5038,-24.568"/>
</g>
<!-- Node13 -->
<g id="node14" class="node">
<title>Node13</title>
<g id="a_node14"><a xlink:href="_view_field_8_h.html" target="_top" xlink:title="amr&#45;wind/core/ViewField.H">
<polygon fill="#ffffff" stroke="#000000" points="1140.5,-62 1140.5,-81 1274.5,-81 1274.5,-62 1140.5,-62"/>
<text text-anchor="middle" x="1207.5" y="-69" font-family="Helvetica,sans-Serif" font-size="10.00" fill="#000000">amr&#45;wind/core/ViewField.H</text>
</a>
</g>
</g>
<!-- Node5&#45;&gt;Node13 -->
<g id="edge14" class="edge">
<title>Node5&#45;&gt;Node13</title>
<path fill="none" stroke="#191970" d="M1053.2896,-128.9005C1084.4333,-117.3082 1136.9815,-97.7486 1171.9531,-84.7313"/>
<polygon fill="#191970" stroke="#191970" points="1173.6074,-87.8503 1181.7582,-81.0817 1171.1654,-81.29 1173.6074,-87.8503"/>
</g>
<!-- Node13&#45;&gt;Node6 -->
<g id="edge15" class="edge">
<title>Node13&#45;&gt;Node6</title>
<path fill="none" stroke="#191970" d="M1192.6563,-61.8906C1177.4582,-52.0519 1153.6152,-36.6167 1135.8794,-25.1351"/>
<polygon fill="#191970" stroke="#191970" points="1137.5361,-22.0382 1127.2395,-19.5419 1133.732,-27.9144 1137.5361,-22.0382"/>
</g>
<!-- Node13&#45;&gt;Node9 -->
<g id="edge17" class="edge">
<title>Node13&#45;&gt;Node9</title>
<path fill="none" stroke="#191970" d="M1240.1563,-61.8906C1276.3528,-51.2395 1334.8386,-34.0296 1374.4375,-22.3772"/>
<polygon fill="#191970" stroke="#191970" points="1375.4678,-25.7225 1384.0731,-19.5419 1373.4917,-19.0072 1375.4678,-25.7225"/>
</g>
<!-- Node13&#45;&gt;Node12 -->
<g id="edge16" class="edge">
<title>Node13&#45;&gt;Node12</title>
<path fill="none" stroke="#191970" d="M1274.8102,-62.5014C1291.6797,-60.3098 1309.7453,-58.0173 1326.5,-56 1437.9373,-42.5826 1566.3545,-28.6091 1650.6867,-19.6357"/>
<polygon fill="#191970" stroke="#191970" points="1651.1743,-23.1037 1660.7484,-18.5666 1650.4345,-16.1429 1651.1743,-23.1037"/>
</g>
<!-- Node14 -->
<g id="node15" class="node">
<title>Node14</title>
<polygon fill="#ffffff" stroke="#bfbfbf" points="951,-.5 951,-19.5 1046,-19.5 1046,-.5 951,-.5"/>
<text text-anchor="middle" x="998.5" y="-7.5" font-family="Helvetica,sans-Serif" font-size="10.00" fill="#000000">AMReX_Vector.H</text>
</g>
<!-- Node13&#45;&gt;Node14 -->
<g id="edge18" class="edge">
<title>Node13&#45;&gt;Node14</title>
<path fill="none" stroke="#191970" d="M1174.8438,-61.8906C1138.6472,-51.2395 1080.1614,-34.0296 1040.5625,-22.3772"/>
<polygon fill="#191970" stroke="#191970" points="1041.5083,-19.0072 1030.9269,-19.5419 1039.5322,-25.7225 1041.5083,-19.0072"/>
</g>
<!-- Node15&#45;&gt;Node3 -->
<g id="edge20" class="edge">
<title>Node15&#45;&gt;Node3</title>
<path fill="none" stroke="#191970" d="M1112.4686,-313.2967C1124.2825,-304.302 1139.4306,-292.7687 1152.4327,-282.8694"/>
<polygon fill="#191970" stroke="#191970" points="1154.7743,-285.4857 1160.6105,-276.6432 1150.5338,-279.9162 1154.7743,-285.4857"/>
</g>
<!-- Node15&#45;&gt;Node5 -->
<g id="edge72" class="edge">
<title>Node15&#45;&gt;Node5</title>
<path fill="none" stroke="#191970" d="M1087.2907,-313.2727C1075.5554,-278.9695 1047.0664,-195.6941 1034.1104,-157.8228"/>
<polygon fill="#191970" stroke="#191970" points="1037.3074,-156.3545 1030.7588,-148.0258 1030.6842,-158.6204 1037.3074,-156.3545"/>
</g>
<!-- Node16 -->
<g id="node17" class="node">
<title>Node16</title>
<g id="a_node17"><a xlink:href="_c_f_d_sim_8_h.html" target="_top" xlink:title="amr&#45;wind/CFDSim.H">
<polygon fill="#ffffff" stroke="#000000" points="774.5,-252 774.5,-271 882.5,-271 882.5,-252 774.5,-252"/>
<text text-anchor="middle" x="828.5" y="-259" font-family="Helvetica,sans-Serif" font-size="10.00" fill="#000000">amr&#45;wind/CFDSim.H</text>
</a>
</g>
</g>
<!-- Node15&#45;&gt;Node16 -->
<g id="edge21" class="edge">
<title>Node15&#45;&gt;Node16</title>
<path fill="none" stroke="#191970" d="M1033.2532,-313.4639C985.7237,-301.4015 919.8927,-284.6944 875.8342,-273.5128"/>
<polygon fill="#191970" stroke="#191970" points="876.5074,-270.0728 865.9537,-271.0053 874.7854,-276.8577 876.5074,-270.0728"/>
</g>
<!-- Node17 -->
<g id="node18" class="node">
<title>Node17</title>
<g id="a_node18"><a xlink:href="_sim_time_8_h.html" target="_top" xlink:title="amr&#45;wind/core/SimTime.H">
<polygon fill="#ffffff" stroke="#000000" points="2189,-190.5 2189,-209.5 2320,-209.5 2320,-190.5 2189,-190.5"/>
<text text-anchor="middle" x="2254.5" y="-197.5" font-family="Helvetica,sans-Serif" font-size="10.00" fill="#000000">amr&#45;wind/core/SimTime.H</text>
</a>
</g>
</g>
<!-- Node15&#45;&gt;Node17 -->
<g id="edge73" class="edge">
<title>Node15&#45;&gt;Node17</title>
<path fill="none" stroke="#191970" d="M1092.4056,-313.4156C1093.1928,-294.2833 1097.7454,-261.8757 1118.5,-246 1160.5685,-213.8208 1930.8651,-203.2638 2178.5103,-200.6936"/>
<polygon fill="#191970" stroke="#191970" points="2178.8907,-204.19 2188.8543,-200.5878 2178.819,-197.1904 2178.8907,-204.19"/>
</g>
<!-- Node16&#45;&gt;Node2 -->
<g id="edge22" class="edge">
<title>Node16&#45;&gt;Node2</title>
<path fill="none" stroke="#191970" d="M785.5411,-251.9583C701.6768,-233.3089 510.2945,-190.6422 349.5,-154 344.2617,-152.8063 338.7947,-151.5533 333.3413,-150.2988"/>
<polygon fill="#191970" stroke="#191970" points="334.123,-146.8872 323.5923,-148.0514 332.5505,-153.7083 334.123,-146.8872"/>
</g>
<!-- Node16&#45;&gt;Node17 -->
<g id="edge23" class="edge">
<title>Node16&#45;&gt;Node17</title>
<path fill="none" stroke="#191970" d="M882.9835,-257.832C934.4042,-254.4515 1013.6668,-249.4506 1082.5,-246 1495.9214,-225.275 1991.7728,-208.459 2178.4623,-202.4121"/>
<polygon fill="#191970" stroke="#191970" points="2178.8348,-205.902 2188.7165,-202.0807 2178.6086,-198.9056 2178.8348,-205.902"/>
</g>
<!-- Node21 -->
<g id="node22" class="node">
<title>Node21</title>
<g id="a_node22"><a xlink:href="_field_repo_8_h.html" target="_top" xlink:title="amr&#45;wind/core/FieldRepo.H">
<polygon fill="#ffffff" stroke="#000000" points="1310.5,-190.5 1310.5,-209.5 1446.5,-209.5 1446.5,-190.5 1310.5,-190.5"/>
<text text-anchor="middle" x="1378.5" y="-197.5" font-family="Helvetica,sans-Serif" font-size="10.00" fill="#000000">amr&#45;wind/core/FieldRepo.H</text>
</a>
</g>
</g>
<!-- Node16&#45;&gt;Node21 -->
<g id="edge27" class="edge">
<title>Node16&#45;&gt;Node21</title>
<path fill="none" stroke="#191970" d="M882.7413,-255.4348C980.6031,-244.4921 1187.0234,-221.4106 1300.1968,-208.7557"/>
<polygon fill="#191970" stroke="#191970" points="1300.6344,-212.2287 1310.1835,-207.639 1299.8565,-205.272 1300.6344,-212.2287"/>
</g>
<!-- Node28 -->
<g id="node29" class="node">
<title>Node28</title>
<g id="a_node29"><a xlink:href="_p_d_e_base_8_h.html" target="_top" xlink:title="amr&#45;wind/equation_systems\l/PDEBase.H">
<polygon fill="#ffffff" stroke="#000000" points="619,-123.5 619,-153.5 758,-153.5 758,-123.5 619,-123.5"/>
<text text-anchor="start" x="627" y="-141.5" font-family="Helvetica,sans-Serif" font-size="10.00" fill="#000000">amr&#45;wind/equation_systems</text>
<text text-anchor="middle" x="688.5" y="-130.5" font-family="Helvetica,sans-Serif" font-size="10.00" fill="#000000">/PDEBase.H</text>
</a>
</g>
</g>
<!-- Node16&#45;&gt;Node28 -->
<g id="edge50" class="edge">
<title>Node16&#45;&gt;Node28</title>
<path fill="none" stroke="#191970" d="M817.5144,-251.8484C795.2655,-232.3012 744.3827,-187.597 713.5833,-160.5375"/>
<polygon fill="#191970" stroke="#191970" points="715.6649,-157.7074 705.8423,-153.7365 711.0447,-162.9661 715.6649,-157.7074"/>
</g>
<!-- Node36 -->
<g id="node37" class="node">
<title>Node36</title>
<g id="a_node37"><a xlink:href="_physics_8_h.html" target="_top" xlink:title="amr&#45;wind/core/Physics.H">
<polygon fill="#ffffff" stroke="#000000" points="474,-129 474,-148 601,-148 601,-129 474,-129"/>
<text text-anchor="middle" x="537.5" y="-136" font-family="Helvetica,sans-Serif" font-size="10.00" fill="#000000">amr&#45;wind/core/Physics.H</text>
</a>
</g>
</g>
<!-- Node16&#45;&gt;Node36 -->
<g id="edge67" class="edge">
<title>Node16&#45;&gt;Node36</title>
<path fill="none" stroke="#191970" d="M805.6657,-251.8484C754.1363,-230.0679 628.7128,-177.0538 569.4809,-152.0177"/>
<polygon fill="#191970" stroke="#191970" points="570.8019,-148.7763 560.2282,-148.1068 568.0765,-155.224 570.8019,-148.7763"/>
</g>
<!-- Node18 -->
<g id="node19" class="node">
<title>Node18</title>
<polygon fill="#ffffff" stroke="#bfbfbf" points="2328,-129 2328,-148 2421,-148 2421,-129 2328,-129"/>
<text text-anchor="middle" x="2374.5" y="-136" font-family="Helvetica,sans-Serif" font-size="10.00" fill="#000000">AMReX_REAL.H</text>
</g>
<!-- Node17&#45;&gt;Node18 -->
<g id="edge24" class="edge">
<title>Node17&#45;&gt;Node18</title>
<path fill="none" stroke="#191970" d="M2273.25,-190.3906C2292.976,-180.2811 2324.2312,-164.2628 2346.8,-152.6962"/>
<polygon fill="#191970" stroke="#191970" points="2348.5787,-155.7176 2355.8817,-148.0419 2345.386,-149.4881 2348.5787,-155.7176"/>
</g>
<!-- Node19 -->
<g id="node20" class="node">
<title>Node19</title>
<polygon fill="#ffffff" stroke="#bfbfbf" points="2439.5,-129 2439.5,-148 2565.5,-148 2565.5,-129 2439.5,-129"/>
<text text-anchor="middle" x="2502.5" y="-136" font-family="Helvetica,sans-Serif" font-size="10.00" fill="#000000">AMReX_GpuQualifiers.H</text>
</g>
<!-- Node17&#45;&gt;Node19 -->
<g id="edge25" class="edge">
<title>Node17&#45;&gt;Node19</title>
<path fill="none" stroke="#191970" d="M2292.9779,-190.4581C2336.3269,-179.7082 2406.8639,-162.2162 2453.9627,-150.5365"/>
<polygon fill="#191970" stroke="#191970" points="2455.0683,-153.8684 2463.9318,-148.0643 2453.3834,-147.0742 2455.0683,-153.8684"/>
</g>
<!-- Node20 -->
<g id="node21" class="node">
<title>Node20</title>
<polygon fill="#ffffff" stroke="#bfbfbf" points="2199.5,-129 2199.5,-148 2309.5,-148 2309.5,-129 2199.5,-129"/>
<text text-anchor="middle" x="2254.5" y="-136" font-family="Helvetica,sans-Serif" font-size="10.00" fill="#000000">AMReX_Extension.H</text>
</g>
<!-- Node17&#45;&gt;Node20 -->
<g id="edge26" class="edge">
<title>Node17&#45;&gt;Node20</title>
<path fill="none" stroke="#191970" d="M2254.5,-190.3906C2254.5,-181.8657 2254.5,-169.1392 2254.5,-158.4235"/>
<polygon fill="#191970" stroke="#191970" points="2258.0001,-158.2448 2254.5,-148.2449 2251.0001,-158.2449 2258.0001,-158.2448"/>
</g>
<!-- Node21&#45;&gt;Node2 -->
<g id="edge47" class="edge">
<title>Node21&#45;&gt;Node2</title>
<path fill="none" stroke="#191970" d="M1310.2098,-198.5757C1111.5141,-194.173 535.9744,-179.5197 349.5,-154 342.5856,-153.0537 335.3357,-151.7315 328.264,-150.2543"/>
<polygon fill="#191970" stroke="#191970" points="328.6102,-146.7464 318.0904,-148.0049 327.099,-153.5813 328.6102,-146.7464"/>
</g>
<!-- Node21&#45;&gt;Node5 -->
<g id="edge35" class="edge">
<title>Node21&#45;&gt;Node5</title>
<path fill="none" stroke="#191970" d="M1314.6679,-190.4827C1257.8067,-181.7742 1172.4105,-168.129 1098.5,-154 1092.3193,-152.8185 1085.8521,-151.509 1079.4444,-150.1663"/>
<polygon fill="#191970" stroke="#191970" points="1079.9839,-146.7028 1069.4742,-148.0426 1078.5255,-153.5492 1079.9839,-146.7028"/>
</g>
<!-- Node21&#45;&gt;Node6 -->
<g id="edge28" class="edge">
<title>Node21&#45;&gt;Node6</title>
<path fill="none" stroke="#191970" d="M1327.6597,-190.4531C1271.2744,-177.1659 1181.6637,-147.5542 1131.5,-87 1118.2254,-70.9758 1114.0023,-47.0369 1112.77,-30.1122"/>
<polygon fill="#191970" stroke="#191970" points="1116.2486,-29.5389 1112.3202,-19.6992 1109.2551,-29.841 1116.2486,-29.5389"/>
</g>
<!-- Node21&#45;&gt;Node8 -->
<g id="edge29" class="edge">
<title>Node21&#45;&gt;Node8</title>
<path fill="none" stroke="#191970" d="M1310.1649,-198.1695C1111.9031,-192.6332 545.4455,-175.1422 464.5,-154 399.6912,-137.0726 364.7995,-143.9268 329.5,-87 322.2392,-75.2907 320.739,-66.6335 329.5,-56 330.9804,-54.2032 445.0998,-32.5543 514.0842,-19.6067"/>
<polygon fill="#191970" stroke="#191970" points="514.7324,-23.0463 523.9159,-17.763 513.4421,-16.1662 514.7324,-23.0463"/>
</g>
<!-- Node21&#45;&gt;Node9 -->
<g id="edge48" class="edge">
<title>Node21&#45;&gt;Node9</title>
<path fill="none" stroke="#191970" d="M1431.2353,-190.471C1518.9694,-173.4265 1688.7332,-134.9715 1723.5,-87 1731.5852,-75.844 1732.4916,-66.4393 1723.5,-56 1707.7628,-37.7291 1563.9782,-22.522 1478.8788,-15.0249"/>
<polygon fill="#191970" stroke="#191970" points="1479.0699,-11.5284 1468.8043,-14.1492 1478.4636,-18.5021 1479.0699,-11.5284"/>
</g>
<!-- Node21&#45;&gt;Node12 -->
<g id="edge30" class="edge">
<title>Node21&#45;&gt;Node12</title>
<path fill="none" stroke="#191970" d="M1446.7087,-197.6208C1584.0986,-192.3797 1889.7123,-178.3301 1991.5,-154 2066.8808,-135.9819 2109.4941,-151.478 2152.5,-87 2160.1451,-75.5379 2161.6832,-66.2711 2152.5,-56 2131.6749,-32.7077 1948.7729,-19.7972 1834.4043,-13.9369"/>
<polygon fill="#191970" stroke="#191970" points="1834.4059,-10.4327 1824.2426,-13.4255 1834.054,-17.4238 1834.4059,-10.4327"/>
</g>
<!-- Node22 -->
<g id="node23" class="node">
<title>Node22</title>
<g id="a_node23"><a xlink:href="_field_utils_8_h.html" target="_top" xlink:title="amr&#45;wind/core/FieldUtils.H">
<polygon fill="#ffffff" stroke="#000000" points="2010,-62 2010,-81 2143,-81 2143,-62 2010,-62"/>
<text text-anchor="middle" x="2076.5" y="-69" font-family="Helvetica,sans-Serif" font-size="10.00" fill="#000000">amr&#45;wind/core/FieldUtils.H</text>
</a>
</g>
</g>
<!-- Node21&#45;&gt;Node22 -->
<g id="edge31" class="edge">
<title>Node21&#45;&gt;Node22</title>
<path fill="none" stroke="#191970" d="M1446.5552,-198.6479C1576.9791,-195.3787 1857.2866,-184.889 1948.5,-154 1991.5435,-139.4235 2034.4918,-107.2273 2058.067,-87.6444"/>
<polygon fill="#191970" stroke="#191970" points="2060.4745,-90.192 2065.8404,-81.0564 2055.9487,-84.8518 2060.4745,-90.192"/>
</g>
<!-- Node24 -->
<g id="node25" class="node">
<title>Node24</title>
<g id="a_node25"><a xlink:href="_int_field_8_h.html" target="_top" xlink:title="amr&#45;wind/core/IntField.H">
<polygon fill="#ffffff" stroke="#000000" points="1794.5,-129 1794.5,-148 1918.5,-148 1918.5,-129 1794.5,-129"/>
<text text-anchor="middle" x="1856.5" y="-136" font-family="Helvetica,sans-Serif" font-size="10.00" fill="#000000">amr&#45;wind/core/IntField.H</text>
</a>
</g>
</g>
<!-- Node21&#45;&gt;Node24 -->
<g id="edge36" class="edge">
<title>Node21&#45;&gt;Node24</title>
<path fill="none" stroke="#191970" d="M1446.6733,-194.0279C1526.8358,-186.5832 1663.7733,-172.5452 1780.5,-154 1787.8977,-152.8247 1795.6688,-151.4283 1803.3017,-149.9625"/>
<polygon fill="#191970" stroke="#191970" points="1804.0793,-153.3766 1813.2133,-148.0082 1802.7251,-146.5088 1804.0793,-153.3766"/>
</g>
<!-- Node25 -->
<g id="node26" class="node">
<title>Node25</title>
<polygon fill="#ffffff" stroke="#bfbfbf" points="1885,-62 1885,-81 1992,-81 1992,-62 1885,-62"/>
<text text-anchor="middle" x="1938.5" y="-69" font-family="Helvetica,sans-Serif" font-size="10.00" fill="#000000">AMReX_iMultiFab.H</text>
</g>
<!-- Node21&#45;&gt;Node25 -->
<g id="edge49" class="edge">
<title>Node21&#45;&gt;Node25</title>
<path fill="none" stroke="#191970" d="M1446.574,-198.9829C1585.8907,-196.2378 1893.3425,-186.5249 1927.5,-154 1944.208,-138.0906 1944.3537,-109.9348 1942.0973,-90.997"/>
<polygon fill="#191970" stroke="#191970" points="1945.5529,-90.4392 1940.5983,-81.0742 1938.6314,-91.4848 1945.5529,-90.4392"/>
</g>
<!-- Node26 -->
<g id="node27" class="node">
<title>Node26</title>
<g id="a_node27"><a xlink:href="_scratch_field_8_h.html" target="_top" xlink:title="amr&#45;wind/core/ScratchField.H">
<polygon fill="#ffffff" stroke="#000000" points="1305.5,-129 1305.5,-148 1451.5,-148 1451.5,-129 1305.5,-129"/>
<text text-anchor="middle" x="1378.5" y="-136" font-family="Helvetica,sans-Serif" font-size="10.00" fill="#000000">amr&#45;wind/core/ScratchField.H</text>
</a>
</g>
</g>
<!-- Node21&#45;&gt;Node26 -->
<g id="edge40" class="edge">
<title>Node21&#45;&gt;Node26</title>
<path fill="none" stroke="#191970" d="M1378.5,-190.3906C1378.5,-181.8657 1378.5,-169.1392 1378.5,-158.4235"/>
<polygon fill="#191970" stroke="#191970" points="1382.0001,-158.2448 1378.5,-148.2449 1375.0001,-158.2449 1382.0001,-158.2448"/>
</g>
<!-- Node22&#45;&gt;Node9 -->
<g id="edge33" class="edge">
<title>Node22&#45;&gt;Node9</title>
<path fill="none" stroke="#191970" d="M2035.0083,-61.9582C2024.1509,-59.7274 2012.4259,-57.5523 2001.5,-56 1812.1848,-29.1023 1586.0031,-16.9188 1478.783,-12.3322"/>
<polygon fill="#191970" stroke="#191970" points="1478.9217,-8.835 1468.7835,-11.9118 1478.6276,-15.8288 1478.9217,-8.835"/>
</g>
<!-- Node22&#45;&gt;Node12 -->
<g id="edge32" class="edge">
<title>Node22&#45;&gt;Node12</title>
<path fill="none" stroke="#191970" d="M2031.3284,-61.9511C2021.5055,-59.9343 2011.1624,-57.8561 2001.5,-56 1936.1186,-43.4404 1861.212,-30.2681 1808.8306,-21.2538"/>
<polygon fill="#191970" stroke="#191970" points="1809.1123,-17.7511 1798.6642,-19.5078 1807.9274,-24.6501 1809.1123,-17.7511"/>
</g>
<!-- Node23 -->
<g id="node24" class="node">
<title>Node23</title>
<polygon fill="#ffffff" stroke="#bfbfbf" points="2018.5,-.5 2018.5,-19.5 2134.5,-19.5 2134.5,-.5 2018.5,-.5"/>
<text text-anchor="middle" x="2076.5" y="-7.5" font-family="Helvetica,sans-Serif" font-size="10.00" fill="#000000">AMReX_Interpolater.H</text>
</g>
<!-- Node22&#45;&gt;Node23 -->
<g id="edge34" class="edge">
<title>Node22&#45;&gt;Node23</title>
<path fill="none" stroke="#191970" d="M2076.5,-61.8906C2076.5,-53.3657 2076.5,-40.6392 2076.5,-29.9235"/>
<polygon fill="#191970" stroke="#191970" points="2080.0001,-29.7448 2076.5,-19.7449 2073.0001,-29.7449 2080.0001,-29.7448"/>
</g>
<!-- Node24&#45;&gt;Node6 -->
<g id="edge37" class="edge">
<title>Node24&#45;&gt;Node6</title>
<path fill="none" stroke="#191970" d="M1845.3587,-128.9236C1823.6335,-110.892 1773.3584,-72.2562 1723.5,-56 1668.0823,-37.9312 1259.6784,-17.0831 1143.3439,-11.4597"/>
<polygon fill="#191970" stroke="#191970" points="1143.1756,-7.9477 1133.0191,-10.9636 1142.8396,-14.9396 1143.1756,-7.9477"/>
</g>
<!-- Node24&#45;&gt;Node12 -->
<g id="edge38" class="edge">
<title>Node24&#45;&gt;Node12</title>
<path fill="none" stroke="#191970" d="M1856.1195,-128.9705C1854.9827,-112.3421 1850.4607,-77.7308 1832.5,-56 1820.258,-41.1883 1802.0209,-30.6312 1785.1578,-23.3991"/>
<polygon fill="#191970" stroke="#191970" points="1786.0284,-19.978 1775.4436,-19.5181 1783.4314,-26.4784 1786.0284,-19.978"/>
</g>
<!-- Node24&#45;&gt;Node25 -->
<g id="edge39" class="edge">
<title>Node24&#45;&gt;Node25</title>
<path fill="none" stroke="#191970" d="M1868.2486,-128.9005C1881.4011,-118.1539 1902.9336,-100.5603 1918.6983,-87.6794"/>
<polygon fill="#191970" stroke="#191970" points="1921.2439,-90.1193 1926.7732,-81.0817 1916.8148,-84.6986 1921.2439,-90.1193"/>
</g>
<!-- Node26&#45;&gt;Node6 -->
<g id="edge41" class="edge">
<title>Node26&#45;&gt;Node6</title>
<path fill="none" stroke="#191970" d="M1370.119,-128.7639C1354.723,-111.496 1320.141,-75.4939 1283.5,-56 1237.9967,-31.7911 1178.7518,-19.5618 1143.2808,-14.0043"/>
<polygon fill="#191970" stroke="#191970" points="1143.4832,-10.4961 1133.0773,-12.4879 1142.4541,-17.42 1143.4832,-10.4961"/>
</g>
<!-- Node26&#45;&gt;Node9 -->
<g id="edge44" class="edge">
<title>Node26&#45;&gt;Node9</title>
<path fill="none" stroke="#191970" d="M1381.3562,-128.8416C1387.5732,-107.8184 1402.4356,-57.5598 1410.7028,-29.6038"/>
<polygon fill="#191970" stroke="#191970" points="1414.1311,-30.3525 1413.6107,-19.7705 1407.4185,-28.3674 1414.1311,-30.3525"/>
</g>
<!-- Node26&#45;&gt;Node12 -->
<g id="edge42" class="edge">
<title>Node26&#45;&gt;Node12</title>
<path fill="none" stroke="#191970" d="M1451.5285,-131.9287C1546.7895,-122.7033 1703.7123,-105.0147 1723.5,-87 1739.2768,-72.6369 1742.9157,-47.4508 1743.3303,-29.806"/>
<polygon fill="#191970" stroke="#191970" points="1746.8296,-29.6927 1743.2421,-19.7238 1739.8298,-29.754 1746.8296,-29.6927"/>
</g>
<!-- Node26&#45;&gt;Node13 -->
<g id="edge43" class="edge">
<title>Node26&#45;&gt;Node13</title>
<path fill="none" stroke="#191970" d="M1353.9999,-128.9005C1324.4133,-117.3082 1274.4926,-97.7486 1241.2695,-84.7313"/>
<polygon fill="#191970" stroke="#191970" points="1242.5424,-81.471 1231.9547,-81.0817 1239.9887,-87.9886 1242.5424,-81.471"/>
</g>
<!-- Node26&#45;&gt;Node14 -->
<g id="edge45" class="edge">
<title>Node26&#45;&gt;Node14</title>
<path fill="none" stroke="#191970" d="M1305.4326,-129.5211C1255.3278,-121.8662 1187.9637,-108.5874 1131.5,-87 1089.7721,-71.0464 1045.7333,-43.0223 1020.257,-25.542"/>
<polygon fill="#191970" stroke="#191970" points="1021.9567,-22.4607 1011.7496,-19.6208 1017.9579,-28.2061 1021.9567,-22.4607"/>
</g>
<!-- Node27 -->
<g id="node28" class="node">
<title>Node27</title>
<polygon fill="#ffffff" stroke="#bfbfbf" points="1482.5,-62 1482.5,-81 1610.5,-81 1610.5,-62 1482.5,-62"/>
<text text-anchor="middle" x="1546.5" y="-69" font-family="Helvetica,sans-Serif" font-size="10.00" fill="#000000">AMReX_PhysBCFunct.H</text>
</g>
<!-- Node26&#45;&gt;Node27 -->
<g id="edge46" class="edge">
<title>Node26&#45;&gt;Node27</title>
<path fill="none" stroke="#191970" d="M1402.5703,-128.9005C1431.513,-117.3579 1480.2621,-97.9163 1512.9017,-84.8993"/>
<polygon fill="#191970" stroke="#191970" points="1514.4823,-88.0371 1522.4743,-81.0817 1511.8892,-81.5351 1514.4823,-88.0371"/>
</g>
<!-- Node28&#45;&gt;Node6 -->
<g id="edge51" class="edge">
<title>Node28&#45;&gt;Node6</title>
<path fill="none" stroke="#191970" d="M680.1702,-123.3012C671.3708,-104.9514 660.8793,-74.2834 677.5,-56 705.8051,-24.8632 1012.792,-25.5788 1054.5,-20 1063.4536,-18.8024 1073.1402,-17.2394 1081.9856,-15.7061"/>
<polygon fill="#191970" stroke="#191970" points="1082.6567,-19.1418 1091.8887,-13.9436 1081.4301,-12.2501 1082.6567,-19.1418"/>
</g>
<!-- Node28&#45;&gt;Node11 -->
<g id="edge66" class="edge">
<title>Node28&#45;&gt;Node11</title>
<path fill="none" stroke="#191970" d="M702.5688,-123.2967C712.1349,-112.9591 724.8038,-99.2684 734.7143,-88.5588"/>
<polygon fill="#191970" stroke="#191970" points="737.435,-90.7718 741.6581,-81.055 732.2973,-86.0175 737.435,-90.7718"/>
</g>
<!-- Node28&#45;&gt;Node12 -->
<g id="edge65" class="edge">
<title>Node28&#45;&gt;Node12</title>
<path fill="none" stroke="#191970" d="M758.0725,-133.7535C904.1982,-123.5992 1233.6961,-99.6643 1283.5,-87 1316.8703,-78.5145 1321.2682,-65.0128 1354.5,-56 1453.6966,-29.097 1571.3913,-17.9259 1650.9372,-13.2886"/>
<polygon fill="#191970" stroke="#191970" points="1651.1414,-16.7827 1660.9299,-12.7287 1650.7497,-9.7937 1651.1414,-16.7827"/>
</g>
<!-- Node29 -->
<g id="node30" class="node">
<title>Node29</title>
<g id="a_node30"><a xlink:href="_factory_8_h.html" target="_top" xlink:title="amr&#45;wind/core/Factory.H">
<polygon fill="#ffffff" stroke="#000000" points="157,-62 157,-81 282,-81 282,-62 157,-62"/>
<text text-anchor="middle" x="219.5" y="-69" font-family="Helvetica,sans-Serif" font-size="10.00" fill="#000000">amr&#45;wind/core/Factory.H</text>
</a>
</g>
</g>
<!-- Node28&#45;&gt;Node29 -->
<g id="edge52" class="edge">
<title>Node28&#45;&gt;Node29</title>
<path fill="none" stroke="#191970" d="M618.7579,-124.5578C615.6322,-124.0145 612.5352,-123.4923 609.5,-123 485.6499,-102.9107 453.8452,-103.7537 329.5,-87 317.3594,-85.3642 304.4714,-83.586 291.9542,-81.8366"/>
<polygon fill="#191970" stroke="#191970" points="292.4058,-78.3657 282.0167,-80.4431 291.4337,-85.2979 292.4058,-78.3657"/>
</g>
<!-- Node33 -->
<g id="node34" class="node">
<title>Node33</title>
<g id="a_node34"><a xlink:href="_coll_mgr_8_h.html" target="_top" xlink:title="amr&#45;wind/core/CollMgr.H">
<polygon fill="#ffffff" stroke="#000000" points="505,-62 505,-81 630,-81 630,-62 505,-62"/>
<text text-anchor="middle" x="567.5" y="-69" font-family="Helvetica,sans-Serif" font-size="10.00" fill="#000000">amr&#45;wind/core/CollMgr.H</text>
</a>
</g>
</g>
<!-- Node28&#45;&gt;Node33 -->
<g id="edge58" class="edge">
<title>Node28&#45;&gt;Node33</title>
<path fill="none" stroke="#191970" d="M661.3452,-123.4639C641.1344,-112.2728 613.7036,-97.0838 593.7201,-86.0186"/>
<polygon fill="#191970" stroke="#191970" points="595.2883,-82.8862 584.8444,-81.1039 591.8973,-89.0101 595.2883,-82.8862"/>
</g>
<!-- Node34 -->
<g id="node35" class="node">
<title>Node34</title>
<g id="a_node35"><a xlink:href="_p_d_e_fields_8_h.html" target="_top" xlink:title="amr&#45;wind/equation_systems\l/PDEFields.H">
<polygon fill="#ffffff" stroke="#000000" points="0,-56.5 0,-86.5 139,-86.5 139,-56.5 0,-56.5"/>
<text text-anchor="start" x="8" y="-74.5" font-family="Helvetica,sans-Serif" font-size="10.00" fill="#000000">amr&#45;wind/equation_systems</text>
<text text-anchor="middle" x="69.5" y="-63.5" font-family="Helvetica,sans-Serif" font-size="10.00" fill="#000000">/PDEFields.H</text>
</a>
</g>
</g>
<!-- Node28&#45;&gt;Node34 -->
<g id="edge63" class="edge">
<title>Node28&#45;&gt;Node34</title>
<path fill="none" stroke="#191970" d="M618.7864,-124.3668C615.653,-123.8752 612.5466,-123.4161 609.5,-123 408.7272,-95.5758 353.3034,-114.4885 149.3151,-87.1505"/>
<polygon fill="#191970" stroke="#191970" points="149.5528,-83.6507 139.172,-85.7697 148.6085,-90.5867 149.5528,-83.6507"/>
</g>
<!-- Node29&#45;&gt;Node7 -->
<g id="edge53" class="edge">
<title>Node29&#45;&gt;Node7</title>
<path fill="none" stroke="#191970" d="M259.3743,-61.9581C308.8937,-50.1081 392.6496,-30.0654 440.3669,-18.6466"/>
<polygon fill="#191970" stroke="#191970" points="441.35,-22.0103 450.2608,-16.279 439.7208,-15.2025 441.35,-22.0103"/>
</g>
<!-- Node29&#45;&gt;Node8 -->
<g id="edge54" class="edge">
<title>Node29&#45;&gt;Node8</title>
<path fill="none" stroke="#191970" d="M265.4622,-61.9918C275.6688,-59.9518 286.4423,-57.8538 296.5,-56 391.7808,-38.4379 416.0856,-36.8216 511.5,-20 512.257,-19.8665 513.0199,-19.7316 513.7876,-19.5953"/>
<polygon fill="#191970" stroke="#191970" points="514.7208,-22.9837 523.944,-17.7701 513.4826,-16.0941 514.7208,-22.9837"/>
</g>
<!-- Node30 -->
<g id="node31" class="node">
<title>Node30</title>
<polygon fill="#ffffff" stroke="#bfbfbf" points="192.5,-.5 192.5,-19.5 246.5,-19.5 246.5,-.5 192.5,-.5"/>
<text text-anchor="middle" x="219.5" y="-7.5" font-family="Helvetica,sans-Serif" font-size="10.00" fill="#000000">iostream</text>
</g>
<!-- Node29&#45;&gt;Node30 -->
<g id="edge55" class="edge">
<title>Node29&#45;&gt;Node30</title>
<path fill="none" stroke="#191970" d="M219.5,-61.8906C219.5,-53.3657 219.5,-40.6392 219.5,-29.9235"/>
<polygon fill="#191970" stroke="#191970" points="223.0001,-29.7448 219.5,-19.7449 216.0001,-29.7449 223.0001,-29.7448"/>
</g>
<!-- Node31 -->
<g id="node32" class="node">
<title>Node31</title>
<polygon fill="#ffffff" stroke="#bfbfbf" points="265,-.5 265,-19.5 352,-19.5 352,-.5 265,-.5"/>
<text text-anchor="middle" x="308.5" y="-7.5" font-family="Helvetica,sans-Serif" font-size="10.00" fill="#000000">AMReX_Print.H</text>
</g>
<!-- Node29&#45;&gt;Node31 -->
<g id="edge56" class="edge">
<title>Node29&#45;&gt;Node31</title>
<path fill="none" stroke="#191970" d="M233.4063,-61.8906C247.5138,-52.1421 269.5724,-36.8994 286.1385,-25.4521"/>
<polygon fill="#191970" stroke="#191970" points="288.4542,-28.1063 294.6914,-19.5419 284.4747,-22.3474 288.4542,-28.1063"/>
</g>
<!-- Node32 -->
<g id="node33" class="node">
<title>Node32</title>
<polygon fill="#ffffff" stroke="#bfbfbf" points="112.5,-.5 112.5,-19.5 174.5,-19.5 174.5,-.5 112.5,-.5"/>
<text text-anchor="middle" x="143.5" y="-7.5" font-family="Helvetica,sans-Serif" font-size="10.00" fill="#000000">AMReX.H</text>
</g>
<!-- Node29&#45;&gt;Node32 -->
<g id="edge57" class="edge">
<title>Node29&#45;&gt;Node32</title>
<path fill="none" stroke="#191970" d="M207.625,-61.8906C195.8703,-52.3786 177.6514,-37.6357 163.6328,-26.2917"/>
<polygon fill="#191970" stroke="#191970" points="165.5178,-23.3146 155.5424,-19.7449 161.1144,-28.7562 165.5178,-23.3146"/>
</g>
<!-- Node33&#45;&gt;Node6 -->
<g id="edge59" class="edge">
<title>Node33&#45;&gt;Node6</title>
<path fill="none" stroke="#191970" d="M610.5219,-61.9624C621.5551,-59.7582 633.4326,-57.5948 644.5,-56 825.5533,-29.9107 873.1003,-43.5603 1054.5,-20 1063.4581,-18.8365 1073.146,-17.284 1081.9914,-15.75"/>
<polygon fill="#191970" stroke="#191970" points="1082.6646,-19.1852 1091.8938,-13.982 1081.4343,-12.2942 1082.6646,-19.1852"/>
</g>
<!-- Node33&#45;&gt;Node7 -->
<g id="edge60" class="edge">
<title>Node33&#45;&gt;Node7</title>
<path fill="none" stroke="#191970" d="M553.2813,-61.8906C538.8566,-52.1421 516.3024,-36.8994 499.364,-25.4521"/>
<polygon fill="#191970" stroke="#191970" points="500.8641,-22.2415 490.6189,-19.5419 496.9444,-28.0412 500.8641,-22.2415"/>
</g>
<!-- Node33&#45;&gt;Node8 -->
<g id="edge61" class="edge">
<title>Node33&#45;&gt;Node8</title>
<path fill="none" stroke="#191970" d="M567.1875,-61.8906C566.9103,-53.3657 566.4964,-40.6392 566.1479,-29.9235"/>
<polygon fill="#191970" stroke="#191970" points="569.6402,-29.6258 565.8169,-19.7449 562.6439,-29.8534 569.6402,-29.6258"/>
</g>
<!-- Node33&#45;&gt;Node14 -->
<g id="edge62" class="edge">
<title>Node33&#45;&gt;Node14</title>
<path fill="none" stroke="#191970" d="M612.1914,-61.9575C622.759,-59.8528 634.0064,-57.7358 644.5,-56 748.5263,-38.7924 870.6353,-24.1397 940.847,-16.2462"/>
<polygon fill="#191970" stroke="#191970" points="941.2721,-19.7205 950.8213,-15.1311 940.4943,-12.7639 941.2721,-19.7205"/>
</g>
<!-- Node35 -->
<g id="node36" class="node">
<title>Node35</title>
<polygon fill="#ffffff" stroke="#bfbfbf" points="47,-.5 47,-19.5 92,-19.5 92,-.5 47,-.5"/>
<text text-anchor="middle" x="69.5" y="-7.5" font-family="Helvetica,sans-Serif" font-size="10.00" fill="#000000">iosfwd</text>
</g>
<!-- Node34&#45;&gt;Node35 -->
<g id="edge64" class="edge">
<title>Node34&#45;&gt;Node35</title>
<path fill="none" stroke="#191970" d="M69.5,-56.2977C69.5,-48.3834 69.5,-38.6043 69.5,-30.0759"/>
<polygon fill="#191970" stroke="#191970" points="73.0001,-29.8469 69.5,-19.8469 66.0001,-29.847 73.0001,-29.8469"/>
</g>
<!-- Node36&#45;&gt;Node9 -->
<g id="edge70" class="edge">
<title>Node36&#45;&gt;Node9</title>
<path fill="none" stroke="#191970" d="M577.713,-128.9904C588.0301,-126.7857 599.1403,-124.615 609.5,-123 772.3122,-97.6189 815.5369,-111.3929 978.5,-87 1047.1173,-76.7291 1063.2388,-68.419 1131.5,-56 1208.0207,-42.0783 1296.4956,-28.1317 1354.3138,-19.3061"/>
<polygon fill="#191970" stroke="#191970" points="1355.028,-22.7378 1364.3875,-17.7729 1353.9747,-15.8175 1355.028,-22.7378"/>
</g>
<!-- Node36&#45;&gt;Node29 -->
<g id="edge68" class="edge">
<title>Node36&#45;&gt;Node29</title>
<path fill="none" stroke="#191970" d="M492.2761,-128.9717C435.0193,-116.9082 336.4261,-96.1354 274.7661,-83.1441"/>
<polygon fill="#191970" stroke="#191970" points="275.3319,-79.6865 264.8251,-81.0496 273.8886,-86.5362 275.3319,-79.6865"/>
</g>
<!-- Node36&#45;&gt;Node33 -->
<g id="edge69" class="edge">
<title>Node36&#45;&gt;Node33</title>
<path fill="none" stroke="#191970" d="M541.7983,-128.9005C546.2983,-118.8505 553.4796,-102.8122 559.1088,-90.2403"/>
<polygon fill="#191970" stroke="#191970" points="562.3174,-91.6389 563.2097,-81.0817 555.9286,-88.7782 562.3174,-91.6389"/>
</g>
<!-- Node37 -->
<g id="node38" class="node">
<title>Node37</title>
<polygon fill="#ffffff" stroke="#bfbfbf" points="338.5,-62 338.5,-81 448.5,-81 448.5,-62 338.5,-62"/>
<text text-anchor="middle" x="393.5" y="-69" font-family="Helvetica,sans-Serif" font-size="10.00" fill="#000000">AMReX_Geometry.H</text>
</g>
<!-- Node36&#45;&gt;Node37 -->
<g id="edge71" class="edge">
<title>Node36&#45;&gt;Node37</title>
<path fill="none" stroke="#191970" d="M516.8683,-128.9005C492.3811,-117.5072 451.3532,-98.4178 423.3907,-85.4075"/>
<polygon fill="#191970" stroke="#191970" points="424.6366,-82.1269 414.0934,-81.0817 421.6836,-88.4736 424.6366,-82.1269"/>
</g>
</g>
</svg>
        <g id="navigator" transform="translate(0 0)" fill="#404254">
                <rect fill="#f2f5e9" fill-opacity="0.5" stroke="#606060" stroke-width=".5" x="0" y="0" width="60" height="60"/>
                <use id="zoomplus" xlink:href="#zoomPlus" x="17" y="9" onmousedown="handleZoom(evt,'in')"/>
                <use id="zoomminus" xlink:href="#zoomMin" x="42" y="9" onmousedown="handleZoom(evt,'out')"/>
                <use id="reset" xlink:href="#resetDef" x="30" y="36" onmousedown="handleReset()"/>
                <g id="arrowUp" xlink:href="#dirArrow" transform="translate(30 24)" onmousedown="handlePan(0,-1)">
                  <use xlink:href="#rim" fill="#404040">
                        <set attributeName="fill" to="#808080" begin="arrowUp.mouseover" end="arrowUp.mouseout"/>
                  </use>
                  <path fill="none" stroke="white" stroke-width="1.5" d="M0,-3.0v7 M-2.5,-0.5L0,-3.0L2.5,-0.5"/>
                </g>
                <g id="arrowRight" xlink:href="#dirArrow" transform="rotate(90) translate(36 -43)" onmousedown="handlePan(1,0)">
                  <use xlink:href="#rim" fill="#404040">
                        <set attributeName="fill" to="#808080" begin="arrowRight.mouseover" end="arrowRight.mouseout"/>
                  </use>
                  <path fill="none" stroke="white" stroke-width="1.5" d="M0,-3.0v7 M-2.5,-0.5L0,-3.0L2.5,-0.5"/>
                </g>
                <g id="arrowDown" xlink:href="#dirArrow" transform="rotate(180) translate(-30 -48)" onmousedown="handlePan(0,1)">
                  <use xlink:href="#rim" fill="#404040">
                        <set attributeName="fill" to="#808080" begin="arrowDown.mouseover" end="arrowDown.mouseout"/>
                  </use>
                  <path fill="none" stroke="white" stroke-width="1.5" d="M0,-3.0v7 M-2.5,-0.5L0,-3.0L2.5,-0.5"/>
                </g>
                <g id="arrowLeft" xlink:href="#dirArrow" transform="rotate(270) translate(-36 17)" onmousedown="handlePan(-1,0)">
                  <use xlink:href="#rim" fill="#404040">
                        <set attributeName="fill" to="#808080" begin="arrowLeft.mouseover" end="arrowLeft.mouseout"/>
                  </use>
                  <path fill="none" stroke="white" stroke-width="1.5" d="M0,-3.0v7 M-2.5,-0.5L0,-3.0L2.5,-0.5"/>
                </g>
        </g>
        <svg viewBox="0 0 15 15" width="100%" height="30px" preserveAspectRatio="xMaxYMin meet">
         <g id="arrow_out" transform="scale(0.3 0.3)">
          <a xlink:href="_second_moment_averaging_8cpp__incl_org.svg" target="_base">
           <rect id="button" ry="5" rx="5" y="6" x="6" height="38" width="38"
                fill="#f2f5e9" fill-opacity="0.5" stroke="#606060" stroke-width="1.0"/>
           <path id="arrow"
             d="M 11.500037,31.436501 C 11.940474,20.09759 22.043105,11.32322 32.158766,21.979434 L 37.068811,17.246167 C 37.068811,17.246167 37.088388,32 37.088388,32 L 22.160133,31.978069 C 22.160133,31.978069 26.997745,27.140456 26.997745,27.140456 C 18.528582,18.264221 13.291696,25.230495 11.500037,31.436501 z"
             style="fill:#404040;"/>
          </a>
         </g>
        </svg>
</svg>
