<?xml version="1.0" encoding="UTF-8" standalone="no"?>
<!DOCTYPE svg PUBLIC "-//W3C//DTD SVG 1.1//EN"
 "http://www.w3.org/Graphics/SVG/1.1/DTD/svg11.dtd">
<!-- Generated by graphviz version 2.40.1 (20161225.0304)
 -->
<!-- Title: SourceTerm.H Pages: 1 -->
<svg width="1409pt" height="364pt"
 viewBox="0.00 0.00 1408.50 364.00" xmlns="http://www.w3.org/2000/svg" xmlns:xlink="http://www.w3.org/1999/xlink">
<g id="graph0" class="graph" transform="scale(1 1) rotate(0) translate(4 360)">
<title>SourceTerm.H</title>
<polygon fill="#ffffff" stroke="transparent" points="-4,4 -4,-360 1404.5,-360 1404.5,4 -4,4"/>
<!-- Node24 -->
<g id="node1" class="node">
<title>Node24</title>
<polygon fill="#bfbfbf" stroke="#000000" points="564,-336.5 564,-355.5 644,-355.5 644,-336.5 564,-336.5"/>
<text text-anchor="middle" x="604" y="-343.5" font-family="Helvetica,sans-Serif" font-size="10.00" fill="#000000">SourceTerm.H</text>
</g>
<!-- Node25 -->
<g id="node2" class="node">
<title>Node25</title>
<g id="a_node2"><a xlink:href="_p_d_e_traits_8_h.html" target="_top" xlink:title="PDETraits.H">
<polygon fill="#ffffff" stroke="#000000" points="567.5,-280.5 567.5,-299.5 640.5,-299.5 640.5,-280.5 567.5,-280.5"/>
<text text-anchor="middle" x="604" y="-287.5" font-family="Helvetica,sans-Serif" font-size="10.00" fill="#000000">PDETraits.H</text>
</a>
</g>
</g>
<!-- Node24&#45;&gt;Node25 -->
<g id="edge1" class="edge">
<title>Node24&#45;&gt;Node25</title>
<path fill="none" stroke="#191970" d="M604,-326.1575C604,-317.155 604,-306.9199 604,-299.6427"/>
<polygon fill="#191970" stroke="#191970" points="600.5001,-326.2455 604,-336.2455 607.5001,-326.2456 600.5001,-326.2455"/>
</g>
<!-- Node26 -->
<g id="node3" class="node">
<title>Node26</title>
<g id="a_node3"><a xlink:href="_adv_op___godunov_8_h.html" target="_top" xlink:title="AdvOp_Godunov.H">
<polygon fill="#ffffff" stroke="#000000" points="424.5,-112.5 424.5,-131.5 525.5,-131.5 525.5,-112.5 424.5,-112.5"/>
<text text-anchor="middle" x="475" y="-119.5" font-family="Helvetica,sans-Serif" font-size="10.00" fill="#000000">AdvOp_Godunov.H</text>
</a>
</g>
</g>
<!-- Node25&#45;&gt;Node26 -->
<g id="edge2" class="edge">
<title>Node25&#45;&gt;Node26</title>
<path fill="none" stroke="#191970" d="M590.5991,-272.5477C563.652,-237.4538 503.6784,-159.3486 482.5464,-131.8279"/>
<polygon fill="#191970" stroke="#191970" points="587.8285,-274.6863 596.6948,-280.4862 593.3805,-270.4231 587.8285,-274.6863"/>
</g>
<!-- Node28 -->
<g id="node5" class="node">
<title>Node28</title>
<g id="a_node5"><a xlink:href="icns__ops_8_h.html" target="_top" xlink:title="icns_ops.H">
<polygon fill="#ffffff" stroke="#000000" points="1063,-56.5 1063,-75.5 1129,-75.5 1129,-56.5 1063,-56.5"/>
<text text-anchor="middle" x="1096" y="-63.5" font-family="Helvetica,sans-Serif" font-size="10.00" fill="#000000">icns_ops.H</text>
</a>
</g>
</g>
<!-- Node25&#45;&gt;Node28 -->
<g id="edge59" class="edge">
<title>Node25&#45;&gt;Node28</title>
<path fill="none" stroke="#191970" d="M632.8639,-276.1556C696.4878,-245.7335 853.7394,-171.0632 987,-112 1016.2937,-99.0166 1050.3615,-84.7752 1072.5072,-75.6302"/>
<polygon fill="#191970" stroke="#191970" points="631.3311,-273.0089 623.8216,-280.4828 634.3528,-279.3231 631.3311,-273.0089"/>
</g>
<!-- Node36 -->
<g id="node13" class="node">
<title>Node36</title>
<g id="a_node13"><a xlink:href="_adv_op___m_o_l_8_h.html" target="_top" xlink:title="AdvOp_MOL.H">
<polygon fill="#ffffff" stroke="#000000" points="543.5,-112.5 543.5,-131.5 626.5,-131.5 626.5,-112.5 543.5,-112.5"/>
<text text-anchor="middle" x="585" y="-119.5" font-family="Helvetica,sans-Serif" font-size="10.00" fill="#000000">AdvOp_MOL.H</text>
</a>
</g>
</g>
<!-- Node25&#45;&gt;Node36 -->
<g id="edge13" class="edge">
<title>Node25&#45;&gt;Node36</title>
<path fill="none" stroke="#191970" d="M601.7675,-270.2601C597.6855,-234.1669 589.158,-158.7656 586.1115,-131.8279"/>
<polygon fill="#191970" stroke="#191970" points="598.3223,-270.9429 602.924,-280.4862 605.278,-270.1562 598.3223,-270.9429"/>
</g>
<!-- Node37 -->
<g id="node14" class="node">
<title>Node37</title>
<g id="a_node14"><a xlink:href="_b_c_ops_8_h.html" target="_top" xlink:title="BCOps.H">
<polygon fill="#ffffff" stroke="#000000" points="250.5,-112.5 250.5,-131.5 309.5,-131.5 309.5,-112.5 250.5,-112.5"/>
<text text-anchor="middle" x="280" y="-119.5" font-family="Helvetica,sans-Serif" font-size="10.00" fill="#000000">BCOps.H</text>
</a>
</g>
</g>
<!-- Node25&#45;&gt;Node37 -->
<g id="edge21" class="edge">
<title>Node25&#45;&gt;Node37</title>
<path fill="none" stroke="#191970" d="M575.3634,-275.8698C557.1693,-266.8458 533.1462,-254.8451 512,-244 431.8249,-202.8811 336.8869,-152.3869 297.9836,-131.6174"/>
<polygon fill="#191970" stroke="#191970" points="574.0431,-279.1216 584.5578,-280.4229 577.1496,-272.8486 574.0431,-279.1216"/>
</g>
<!-- Node39 -->
<g id="node16" class="node">
<title>Node39</title>
<g id="a_node16"><a xlink:href="density_8_h.html" target="_top" xlink:title="density.H">
<polygon fill="#ffffff" stroke="#000000" points="95.5,-112.5 95.5,-131.5 154.5,-131.5 154.5,-112.5 95.5,-112.5"/>
<text text-anchor="middle" x="125" y="-119.5" font-family="Helvetica,sans-Serif" font-size="10.00" fill="#000000">density.H</text>
</a>
</g>
</g>
<!-- Node25&#45;&gt;Node39 -->
<g id="edge29" class="edge">
<title>Node25&#45;&gt;Node39</title>
<path fill="none" stroke="#191970" d="M557.3726,-280.2379C520.0707,-271.9613 466.6413,-259.0544 421,-244 314.9014,-209.0042 192.9355,-153.7534 145.4256,-131.6281"/>
<polygon fill="#191970" stroke="#191970" points="556.9284,-283.7237 567.4461,-282.4475 558.4282,-276.8862 556.9284,-283.7237"/>
</g>
<!-- Node41 -->
<g id="node18" class="node">
<title>Node41</title>
<g id="a_node18"><a xlink:href="_diffusion_ops_8_h.html" target="_top" xlink:title="DiffusionOps.H">
<polygon fill="#ffffff" stroke="#000000" points="899,-224.5 899,-243.5 983,-243.5 983,-224.5 899,-224.5"/>
<text text-anchor="middle" x="941" y="-231.5" font-family="Helvetica,sans-Serif" font-size="10.00" fill="#000000">DiffusionOps.H</text>
</a>
</g>
</g>
<!-- Node25&#45;&gt;Node41 -->
<g id="edge33" class="edge">
<title>Node25&#45;&gt;Node41</title>
<path fill="none" stroke="#191970" d="M650.7986,-282.2234C716.6266,-271.2846 835.5759,-251.5185 898.8122,-241.0104"/>
<polygon fill="#191970" stroke="#191970" points="649.9974,-278.8084 640.7064,-283.9004 651.1449,-285.7137 649.9974,-278.8084"/>
</g>
<!-- Node43 -->
<g id="node20" class="node">
<title>Node43</title>
<g id="a_node20"><a xlink:href="icns_8_h.html" target="_top" xlink:title="icns.H">
<polygon fill="#ffffff" stroke="#000000" points="1024.5,-112.5 1024.5,-131.5 1069.5,-131.5 1069.5,-112.5 1024.5,-112.5"/>
<text text-anchor="middle" x="1047" y="-119.5" font-family="Helvetica,sans-Serif" font-size="10.00" fill="#000000">icns.H</text>
</a>
</g>
</g>
<!-- Node25&#45;&gt;Node43 -->
<g id="edge58" class="edge">
<title>Node25&#45;&gt;Node43</title>
<path fill="none" stroke="#191970" d="M650.6978,-287.3883C739.8128,-281.9265 930.718,-267.7929 992,-244 1031.7827,-228.5543 1050.5182,-225.9697 1070,-188 1079.7492,-168.999 1065.2221,-144.9291 1055.1907,-131.7409"/>
<polygon fill="#191970" stroke="#191970" points="650.377,-283.9012 640.6056,-287.9963 650.7981,-290.8885 650.377,-283.9012"/>
</g>
<!-- Node44 -->
<g id="node21" class="node">
<title>Node44</title>
<g id="a_node21"><a xlink:href="icns__diffusion_8_h.html" target="_top" xlink:title="icns_diffusion.H">
<polygon fill="#ffffff" stroke="#000000" points="1313.5,-56.5 1313.5,-75.5 1400.5,-75.5 1400.5,-56.5 1313.5,-56.5"/>
<text text-anchor="middle" x="1357" y="-63.5" font-family="Helvetica,sans-Serif" font-size="10.00" fill="#000000">icns_diffusion.H</text>
</a>
</g>
</g>
<!-- Node25&#45;&gt;Node44 -->
<g id="edge60" class="edge">
<title>Node25&#45;&gt;Node44</title>
<path fill="none" stroke="#191970" d="M650.703,-287.1265C745.871,-280.9153 959.1467,-265.08 1029,-244 1161.7367,-203.9434 1301.7578,-106.4716 1344.1295,-75.5668"/>
<polygon fill="#191970" stroke="#191970" points="650.2657,-283.6474 640.5119,-287.7843 650.7166,-290.6329 650.2657,-283.6474"/>
</g>
<!-- Node46 -->
<g id="node23" class="node">
<title>Node46</title>
<g id="a_node23"><a xlink:href="levelset_8_h.html" target="_top" xlink:title="levelset.H">
<polygon fill="#ffffff" stroke="#000000" points="709.5,-112.5 709.5,-131.5 770.5,-131.5 770.5,-112.5 709.5,-112.5"/>
<text text-anchor="middle" x="740" y="-119.5" font-family="Helvetica,sans-Serif" font-size="10.00" fill="#000000">levelset.H</text>
</a>
</g>
</g>
<!-- Node25&#45;&gt;Node46 -->
<g id="edge61" class="edge">
<title>Node25&#45;&gt;Node46</title>
<path fill="none" stroke="#191970" d="M624.1515,-273.9215C646.7321,-255.1335 683.3915,-222.2321 708,-188 721.2306,-169.5953 731.5331,-144.8763 736.5829,-131.5218"/>
<polygon fill="#191970" stroke="#191970" points="621.7569,-271.3587 616.2411,-280.4045 626.1941,-276.7728 621.7569,-271.3587"/>
</g>
<!-- Node48 -->
<g id="node25" class="node">
<title>Node48</title>
<g id="a_node25"><a xlink:href="_s_d_r_8_h.html" target="_top" xlink:title="SDR.H">
<polygon fill="#ffffff" stroke="#000000" points="183.5,-112.5 183.5,-131.5 232.5,-131.5 232.5,-112.5 183.5,-112.5"/>
<text text-anchor="middle" x="208" y="-119.5" font-family="Helvetica,sans-Serif" font-size="10.00" fill="#000000">SDR.H</text>
</a>
</g>
</g>
<!-- Node25&#45;&gt;Node48 -->
<g id="edge62" class="edge">
<title>Node25&#45;&gt;Node48</title>
<path fill="none" stroke="#191970" d="M564.4152,-277.3276C537.9992,-268.5974 502.625,-256.3781 472,-244 378.3767,-206.1592 269.907,-152.9817 226.9315,-131.5274"/>
<polygon fill="#191970" stroke="#191970" points="563.4793,-280.704 574.0721,-280.4957 565.6614,-274.0528 563.4793,-280.704"/>
</g>
<!-- Node49 -->
<g id="node26" class="node">
<title>Node49</title>
<g id="a_node26"><a xlink:href="temperature_8_h.html" target="_top" xlink:title="temperature.H">
<polygon fill="#ffffff" stroke="#000000" points="327.5,-112.5 327.5,-131.5 406.5,-131.5 406.5,-112.5 327.5,-112.5"/>
<text text-anchor="middle" x="367" y="-119.5" font-family="Helvetica,sans-Serif" font-size="10.00" fill="#000000">temperature.H</text>
</a>
</g>
</g>
<!-- Node25&#45;&gt;Node49 -->
<g id="edge63" class="edge">
<title>Node25&#45;&gt;Node49</title>
<path fill="none" stroke="#191970" d="M582.1228,-274.4921C533.9449,-240.3407 419.8514,-159.4643 380.5678,-131.6177"/>
<polygon fill="#191970" stroke="#191970" points="580.3965,-277.5585 590.5788,-280.4862 584.4446,-271.8478 580.3965,-277.5585"/>
</g>
<!-- Node50 -->
<g id="node27" class="node">
<title>Node50</title>
<g id="a_node27"><a xlink:href="_t_k_e_8_h.html" target="_top" xlink:title="TKE.H">
<polygon fill="#ffffff" stroke="#000000" points="644.5,-112.5 644.5,-131.5 691.5,-131.5 691.5,-112.5 644.5,-112.5"/>
<text text-anchor="middle" x="668" y="-119.5" font-family="Helvetica,sans-Serif" font-size="10.00" fill="#000000">TKE.H</text>
</a>
</g>
</g>
<!-- Node25&#45;&gt;Node50 -->
<g id="edge64" class="edge">
<title>Node25&#45;&gt;Node50</title>
<path fill="none" stroke="#191970" d="M608.7289,-270.3993C614.9474,-245.9072 626.8794,-202.9613 642,-168 647.6807,-154.8652 656.0929,-140.6569 661.798,-131.5608"/>
<polygon fill="#191970" stroke="#191970" points="605.2937,-269.7104 606.2828,-280.2589 612.0878,-271.3959 605.2937,-269.7104"/>
</g>
<!-- Node27 -->
<g id="node4" class="node">
<title>Node27</title>
<g id="a_node4"><a xlink:href="density_8cpp.html" target="_top" xlink:title="density.cpp">
<polygon fill="#ffffff" stroke="#000000" points="112.5,-.5 112.5,-19.5 179.5,-19.5 179.5,-.5 112.5,-.5"/>
<text text-anchor="middle" x="146" y="-7.5" font-family="Helvetica,sans-Serif" font-size="10.00" fill="#000000">density.cpp</text>
</a>
</g>
</g>
<!-- Node26&#45;&gt;Node27 -->
<g id="edge3" class="edge">
<title>Node26&#45;&gt;Node27</title>
<path fill="none" stroke="#191970" d="M457.1695,-105.5814C439.6176,-90.3473 411.3886,-68.2377 383,-56 314.4882,-26.4662 226.6707,-15.7637 179.5172,-11.9836"/>
<polygon fill="#191970" stroke="#191970" points="455.082,-108.4086 464.8822,-112.4343 459.7315,-103.1757 455.082,-108.4086"/>
</g>
<!-- Node26&#45;&gt;Node28 -->
<g id="edge4" class="edge">
<title>Node26&#45;&gt;Node28</title>
<path fill="none" stroke="#191970" d="M535.8174,-111.8858C765.7992,-85.3437 828.2297,-110.4526 1054,-76 1056.8157,-75.5703 1059.7209,-75.0479 1062.627,-74.4697"/>
<polygon fill="#191970" stroke="#191970" points="535.3262,-108.4194 525.8027,-113.0619 536.1426,-115.3716 535.3262,-108.4194"/>
</g>
<!-- Node30 -->
<g id="node7" class="node">
<title>Node30</title>
<g id="a_node7"><a xlink:href="icns__advection_8_h.html" target="_top" xlink:title="icns_advection.H">
<polygon fill="#ffffff" stroke="#000000" points="953,-56.5 953,-75.5 1045,-75.5 1045,-56.5 953,-56.5"/>
<text text-anchor="middle" x="999" y="-63.5" font-family="Helvetica,sans-Serif" font-size="10.00" fill="#000000">icns_advection.H</text>
</a>
</g>
</g>
<!-- Node26&#45;&gt;Node30 -->
<g id="edge6" class="edge">
<title>Node26&#45;&gt;Node30</title>
<path fill="none" stroke="#191970" d="M535.9497,-111.8329C717.1849,-89.1078 765.9849,-99.9465 944,-76 946.8856,-75.6118 949.8501,-75.1773 952.8355,-74.7126"/>
<polygon fill="#191970" stroke="#191970" points="535.2889,-108.3887 525.8101,-113.1218 536.1716,-115.3328 535.2889,-108.3887"/>
</g>
<!-- Node32 -->
<g id="node9" class="node">
<title>Node32</title>
<g id="a_node9"><a xlink:href="levelset_8cpp.html" target="_top" xlink:title="levelset.cpp">
<polygon fill="#ffffff" stroke="#000000" points="556.5,-.5 556.5,-19.5 625.5,-19.5 625.5,-.5 556.5,-.5"/>
<text text-anchor="middle" x="591" y="-7.5" font-family="Helvetica,sans-Serif" font-size="10.00" fill="#000000">levelset.cpp</text>
</a>
</g>
</g>
<!-- Node26&#45;&gt;Node32 -->
<g id="edge9" class="edge">
<title>Node26&#45;&gt;Node32</title>
<path fill="none" stroke="#191970" d="M463.3732,-103.2661C456.2372,-89.1288 450.1735,-69.8652 460,-56 471.3593,-39.972 521.362,-25.7057 556.1931,-17.4557"/>
<polygon fill="#191970" stroke="#191970" points="460.3752,-105.0763 468.3028,-112.1051 466.4887,-101.6667 460.3752,-105.0763"/>
</g>
<!-- Node33 -->
<g id="node10" class="node">
<title>Node33</title>
<g id="a_node10"><a xlink:href="_s_d_r_8cpp.html" target="_top" xlink:title="SDR.cpp">
<polygon fill="#ffffff" stroke="#000000" points="212.5,-56.5 212.5,-75.5 269.5,-75.5 269.5,-56.5 212.5,-56.5"/>
<text text-anchor="middle" x="241" y="-63.5" font-family="Helvetica,sans-Serif" font-size="10.00" fill="#000000">SDR.cpp</text>
</a>
</g>
</g>
<!-- Node26&#45;&gt;Node33 -->
<g id="edge10" class="edge">
<title>Node26&#45;&gt;Node33</title>
<path fill="none" stroke="#191970" d="M422.243,-110.2019C382.5025,-101.1885 326.7196,-88.2679 278,-76 275.2899,-75.3176 272.4731,-74.5899 269.6576,-73.8502"/>
<polygon fill="#191970" stroke="#191970" points="421.7154,-113.6709 432.2412,-112.4639 423.2601,-106.8435 421.7154,-113.6709"/>
</g>
<!-- Node34 -->
<g id="node11" class="node">
<title>Node34</title>
<g id="a_node11"><a xlink:href="temperature_8cpp.html" target="_top" xlink:title="temperature.cpp">
<polygon fill="#ffffff" stroke="#000000" points="287.5,-56.5 287.5,-75.5 374.5,-75.5 374.5,-56.5 287.5,-56.5"/>
<text text-anchor="middle" x="331" y="-63.5" font-family="Helvetica,sans-Serif" font-size="10.00" fill="#000000">temperature.cpp</text>
</a>
</g>
</g>
<!-- Node26&#45;&gt;Node34 -->
<g id="edge11" class="edge">
<title>Node26&#45;&gt;Node34</title>
<path fill="none" stroke="#191970" d="M440.6818,-108.6541C414.422,-98.4419 378.8508,-84.6086 355.4315,-75.5011"/>
<polygon fill="#191970" stroke="#191970" points="439.6569,-112.0108 450.2455,-112.3733 442.194,-105.4867 439.6569,-112.0108"/>
</g>
<!-- Node35 -->
<g id="node12" class="node">
<title>Node35</title>
<g id="a_node12"><a xlink:href="_t_k_e_8cpp.html" target="_top" xlink:title="TKE.cpp">
<polygon fill="#ffffff" stroke="#000000" points="469.5,-56.5 469.5,-75.5 524.5,-75.5 524.5,-56.5 469.5,-56.5"/>
<text text-anchor="middle" x="497" y="-63.5" font-family="Helvetica,sans-Serif" font-size="10.00" fill="#000000">TKE.cpp</text>
</a>
</g>
</g>
<!-- Node26&#45;&gt;Node35 -->
<g id="edge12" class="edge">
<title>Node26&#45;&gt;Node35</title>
<path fill="none" stroke="#191970" d="M482.5628,-102.7493C486.1546,-93.6064 490.2901,-83.0798 493.2118,-75.6427"/>
<polygon fill="#191970" stroke="#191970" points="479.2311,-101.6582 478.8321,-112.2455 485.7463,-104.2178 479.2311,-101.6582"/>
</g>
<!-- Node29 -->
<g id="node6" class="node">
<title>Node29</title>
<g id="a_node6"><a xlink:href="icns_8cpp.html" target="_top" xlink:title="icns.cpp">
<polygon fill="#ffffff" stroke="#000000" points="1069.5,-.5 1069.5,-19.5 1122.5,-19.5 1122.5,-.5 1069.5,-.5"/>
<text text-anchor="middle" x="1096" y="-7.5" font-family="Helvetica,sans-Serif" font-size="10.00" fill="#000000">icns.cpp</text>
</a>
</g>
</g>
<!-- Node28&#45;&gt;Node29 -->
<g id="edge5" class="edge">
<title>Node28&#45;&gt;Node29</title>
<path fill="none" stroke="#191970" d="M1096,-46.1575C1096,-37.155 1096,-26.9199 1096,-19.6427"/>
<polygon fill="#191970" stroke="#191970" points="1092.5001,-46.2455 1096,-56.2455 1099.5001,-46.2456 1092.5001,-46.2455"/>
</g>
<!-- Node30&#45;&gt;Node29 -->
<g id="edge7" class="edge">
<title>Node30&#45;&gt;Node29</title>
<path fill="none" stroke="#191970" d="M1024.9016,-51.0465C1042.1609,-41.0824 1064.3376,-28.2794 1079.2975,-19.6427"/>
<polygon fill="#191970" stroke="#191970" points="1022.8065,-48.2146 1015.8961,-56.2455 1026.3064,-54.2768 1022.8065,-48.2146"/>
</g>
<!-- Node31 -->
<g id="node8" class="node">
<title>Node31</title>
<g id="a_node8"><a xlink:href="icns__advection_8cpp.html" target="_top" xlink:title="icns_advection.cpp">
<polygon fill="#ffffff" stroke="#000000" points="948.5,-.5 948.5,-19.5 1049.5,-19.5 1049.5,-.5 948.5,-.5"/>
<text text-anchor="middle" x="999" y="-7.5" font-family="Helvetica,sans-Serif" font-size="10.00" fill="#000000">icns_advection.cpp</text>
</a>
</g>
</g>
<!-- Node30&#45;&gt;Node31 -->
<g id="edge8" class="edge">
<title>Node30&#45;&gt;Node31</title>
<path fill="none" stroke="#191970" d="M999,-46.1575C999,-37.155 999,-26.9199 999,-19.6427"/>
<polygon fill="#191970" stroke="#191970" points="995.5001,-46.2455 999,-56.2455 1002.5001,-46.2456 995.5001,-46.2455"/>
</g>
<!-- Node36&#45;&gt;Node27 -->
<g id="edge14" class="edge">
<title>Node36&#45;&gt;Node27</title>
<path fill="none" stroke="#191970" d="M575.6187,-103.2153C566.8413,-87.7801 552.2064,-66.7659 533,-56 472.7252,-22.2136 262.2796,-13.0582 179.6602,-10.7373"/>
<polygon fill="#191970" stroke="#191970" points="572.7245,-105.2249 580.53,-112.389 578.8957,-101.9209 572.7245,-105.2249"/>
</g>
<!-- Node36&#45;&gt;Node28 -->
<g id="edge15" class="edge">
<title>Node36&#45;&gt;Node28</title>
<path fill="none" stroke="#191970" d="M636.7825,-112.0435C822.4208,-86.6987 873.147,-105.154 1054,-76 1056.812,-75.5467 1059.7146,-75.0076 1062.6189,-74.4183"/>
<polygon fill="#191970" stroke="#191970" points="636.1097,-108.6032 626.6867,-113.4465 637.0733,-115.5366 636.1097,-108.6032"/>
</g>
<!-- Node36&#45;&gt;Node30 -->
<g id="edge16" class="edge">
<title>Node36&#45;&gt;Node30</title>
<path fill="none" stroke="#191970" d="M636.7518,-111.9919C773.8891,-90.9736 810.8828,-95.8607 944,-76 946.8797,-75.5704 949.8397,-75.1041 952.8218,-74.6157"/>
<polygon fill="#191970" stroke="#191970" points="636.0475,-108.5592 626.7022,-113.5507 637.1205,-115.4765 636.0475,-108.5592"/>
</g>
<!-- Node36&#45;&gt;Node32 -->
<g id="edge17" class="edge">
<title>Node36&#45;&gt;Node32</title>
<path fill="none" stroke="#191970" d="M586.057,-102.2702C587.3572,-77.9985 589.5122,-37.7725 590.4897,-19.5249"/>
<polygon fill="#191970" stroke="#191970" points="582.5516,-102.278 585.5116,-112.4509 589.5416,-102.6525 582.5516,-102.278"/>
</g>
<!-- Node36&#45;&gt;Node33 -->
<g id="edge18" class="edge">
<title>Node36&#45;&gt;Node33</title>
<path fill="none" stroke="#191970" d="M533.088,-111.9357C418.9221,-93.2609 387.377,-98.381 278,-76 275.262,-75.4397 272.4265,-74.7942 269.5992,-74.1063"/>
<polygon fill="#191970" stroke="#191970" points="532.8463,-115.4435 543.2849,-113.6305 533.9941,-108.5382 532.8463,-115.4435"/>
</g>
<!-- Node36&#45;&gt;Node34 -->
<g id="edge19" class="edge">
<title>Node36&#45;&gt;Node34</title>
<path fill="none" stroke="#191970" d="M533.4062,-110.625C486.6191,-100.3097 418.4262,-85.2751 374.3829,-75.5647"/>
<polygon fill="#191970" stroke="#191970" points="532.8224,-114.0803 543.3415,-112.8154 534.3296,-107.2444 532.8224,-114.0803"/>
</g>
<!-- Node36&#45;&gt;Node35 -->
<g id="edge20" class="edge">
<title>Node36&#45;&gt;Node35</title>
<path fill="none" stroke="#191970" d="M561.0655,-106.769C545.4717,-96.8456 525.599,-84.1994 512.1528,-75.6427"/>
<polygon fill="#191970" stroke="#191970" points="559.3559,-109.8296 569.6716,-112.2455 563.114,-103.9239 559.3559,-109.8296"/>
</g>
<!-- Node37&#45;&gt;Node27 -->
<g id="edge22" class="edge">
<title>Node37&#45;&gt;Node27</title>
<path fill="none" stroke="#191970" d="M240.5633,-109.2738C213.3155,-99.7982 180.2111,-86.7059 170,-76 154.853,-60.1189 149.1412,-33.9412 147.0849,-19.7979"/>
<polygon fill="#191970" stroke="#191970" points="239.6892,-112.6736 250.2837,-112.5901 241.9495,-106.0486 239.6892,-112.6736"/>
</g>
<!-- Node37&#45;&gt;Node32 -->
<g id="edge25" class="edge">
<title>Node37&#45;&gt;Node32</title>
<path fill="none" stroke="#191970" d="M244.2921,-108.4804C216.3637,-95.9423 185.0341,-76.2217 203,-56 226.315,-29.7575 465.6089,-15.8782 556.3595,-11.5264"/>
<polygon fill="#191970" stroke="#191970" points="242.9865,-111.7286 253.557,-112.4474 245.7419,-105.2937 242.9865,-111.7286"/>
</g>
<!-- Node37&#45;&gt;Node33 -->
<g id="edge26" class="edge">
<title>Node37&#45;&gt;Node33</title>
<path fill="none" stroke="#191970" d="M267.4092,-103.9209C260.8605,-94.5176 253.1176,-83.3997 247.7154,-75.6427"/>
<polygon fill="#191970" stroke="#191970" points="264.6196,-106.0397 273.2067,-112.2455 270.3639,-102.0392 264.6196,-106.0397"/>
</g>
<!-- Node37&#45;&gt;Node34 -->
<g id="edge27" class="edge">
<title>Node37&#45;&gt;Node34</title>
<path fill="none" stroke="#191970" d="M295.6749,-104.7884C304.3994,-95.2085 314.9354,-83.6396 322.2183,-75.6427"/>
<polygon fill="#191970" stroke="#191970" points="293.0291,-102.4954 288.8835,-112.2455 298.2046,-107.2088 293.0291,-102.4954"/>
</g>
<!-- Node37&#45;&gt;Node35 -->
<g id="edge28" class="edge">
<title>Node37&#45;&gt;Node35</title>
<path fill="none" stroke="#191970" d="M319.6314,-111.5843C378.098,-96.3966 436.0726,-81.5524 469.3891,-73.0428"/>
<polygon fill="#191970" stroke="#191970" points="318.6641,-108.2194 309.8665,-114.123 320.4254,-114.9942 318.6641,-108.2194"/>
</g>
<!-- Node38 -->
<g id="node15" class="node">
<title>Node38</title>
<g id="a_node15"><a xlink:href="icns__bcop_8_h.html" target="_top" xlink:title="icns_bcop.H">
<polygon fill="#ffffff" stroke="#000000" points="863.5,-56.5 863.5,-75.5 934.5,-75.5 934.5,-56.5 863.5,-56.5"/>
<text text-anchor="middle" x="899" y="-63.5" font-family="Helvetica,sans-Serif" font-size="10.00" fill="#000000">icns_bcop.H</text>
</a>
</g>
</g>
<!-- Node37&#45;&gt;Node38 -->
<g id="edge23" class="edge">
<title>Node37&#45;&gt;Node38</title>
<path fill="none" stroke="#191970" d="M319.6579,-111.993C555.4088,-74.4306 620.9046,-109.5299 854,-76 857.0102,-75.567 860.1182,-75.0422 863.2288,-74.4624"/>
<polygon fill="#191970" stroke="#191970" points="319.0669,-108.543 309.7553,-113.5972 320.1864,-115.4529 319.0669,-108.543"/>
</g>
<!-- Node38&#45;&gt;Node29 -->
<g id="edge24" class="edge">
<title>Node38&#45;&gt;Node29</title>
<path fill="none" stroke="#191970" d="M942.8191,-53.5438C981.5253,-42.541 1036.7218,-26.8507 1069.2066,-17.6164"/>
<polygon fill="#191970" stroke="#191970" points="941.5274,-50.2723 932.8655,-56.3733 943.4415,-57.0055 941.5274,-50.2723"/>
</g>
<!-- Node39&#45;&gt;Node27 -->
<g id="edge30" class="edge">
<title>Node39&#45;&gt;Node27</title>
<path fill="none" stroke="#191970" d="M126.1456,-101.7974C127.1351,-88.6546 128.9108,-71.1961 132,-56 134.5942,-43.2385 139.2255,-28.9485 142.4478,-19.7317"/>
<polygon fill="#191970" stroke="#191970" points="122.6338,-101.8613 125.4651,-112.0707 129.6185,-102.3239 122.6338,-101.8613"/>
</g>
<!-- Node40 -->
<g id="node17" class="node">
<title>Node40</title>
<g id="a_node17"><a xlink:href="density__ops_8_h.html" target="_top" xlink:title="density_ops.H">
<polygon fill="#ffffff" stroke="#000000" points="0,-56.5 0,-75.5 80,-75.5 80,-56.5 0,-56.5"/>
<text text-anchor="middle" x="40" y="-63.5" font-family="Helvetica,sans-Serif" font-size="10.00" fill="#000000">density_ops.H</text>
</a>
</g>
</g>
<!-- Node39&#45;&gt;Node40 -->
<g id="edge31" class="edge">
<title>Node39&#45;&gt;Node40</title>
<path fill="none" stroke="#191970" d="M101.4581,-106.49C86.461,-96.6096 67.5027,-84.1194 54.6362,-75.6427"/>
<polygon fill="#191970" stroke="#191970" points="99.9179,-109.6666 110.1941,-112.2455 103.7691,-103.8212 99.9179,-109.6666"/>
</g>
<!-- Node40&#45;&gt;Node27 -->
<g id="edge32" class="edge">
<title>Node40&#45;&gt;Node27</title>
<path fill="none" stroke="#191970" d="M67.5222,-51.46C86.4908,-41.4388 111.1727,-28.3993 127.7478,-19.6427"/>
<polygon fill="#191970" stroke="#191970" points="65.6708,-48.4796 58.4638,-56.2455 68.9407,-54.669 65.6708,-48.4796"/>
</g>
<!-- Node41&#45;&gt;Node28 -->
<g id="edge56" class="edge">
<title>Node41&#45;&gt;Node28</title>
<path fill="none" stroke="#191970" d="M943.9989,-214.2078C946.6983,-200.5235 951.5768,-182.2826 960,-168 986.9869,-122.2401 1043.2598,-90.4028 1074.2934,-75.5325"/>
<polygon fill="#191970" stroke="#191970" points="940.4839,-213.9914 942.214,-224.444 947.3799,-215.1939 940.4839,-213.9914"/>
</g>
<!-- Node42 -->
<g id="node19" class="node">
<title>Node42</title>
<g id="a_node19"><a xlink:href="_p_d_e_8_h.html" target="_top" xlink:title="PDE.H">
<polygon fill="#ffffff" stroke="#000000" points="651,-168.5 651,-187.5 699,-187.5 699,-168.5 651,-168.5"/>
<text text-anchor="middle" x="675" y="-175.5" font-family="Helvetica,sans-Serif" font-size="10.00" fill="#000000">PDE.H</text>
</a>
</g>
</g>
<!-- Node41&#45;&gt;Node42 -->
<g id="edge34" class="edge">
<title>Node41&#45;&gt;Node42</title>
<path fill="none" stroke="#191970" d="M888.8833,-223.0281C831.5024,-210.9479 741.7372,-192.0499 699.0758,-183.0686"/>
<polygon fill="#191970" stroke="#191970" points="888.3449,-226.4914 898.8515,-225.1266 889.7871,-219.6415 888.3449,-226.4914"/>
</g>
<!-- Node41&#45;&gt;Node44 -->
<g id="edge57" class="edge">
<title>Node41&#45;&gt;Node44</title>
<path fill="none" stroke="#191970" d="M979.1312,-221.0697C1004.9285,-212.1589 1039.6925,-199.8333 1070,-188 1170.3627,-148.8143 1288.1163,-96.83 1335.5779,-75.6234"/>
<polygon fill="#191970" stroke="#191970" points="977.6817,-217.867 969.3633,-224.4286 979.958,-224.4865 977.6817,-217.867"/>
</g>
<!-- Node52 -->
<g id="node29" class="node">
<title>Node52</title>
<g id="a_node29"><a xlink:href="_diffusion_ops_8cpp.html" target="_top" xlink:title="DiffusionOps.cpp">
<polygon fill="#ffffff" stroke="#000000" points="969,-168.5 969,-187.5 1061,-187.5 1061,-168.5 969,-168.5"/>
<text text-anchor="middle" x="1015" y="-175.5" font-family="Helvetica,sans-Serif" font-size="10.00" fill="#000000">DiffusionOps.cpp</text>
</a>
</g>
</g>
<!-- Node41&#45;&gt;Node52 -->
<g id="edge55" class="edge">
<title>Node41&#45;&gt;Node52</title>
<path fill="none" stroke="#191970" d="M961.8657,-218.2097C974.8625,-208.3743 991.1622,-196.0394 1002.2579,-187.6427"/>
<polygon fill="#191970" stroke="#191970" points="959.7518,-215.4201 953.8898,-224.2455 963.976,-221.002 959.7518,-215.4201"/>
</g>
<!-- Node42&#45;&gt;Node39 -->
<g id="edge35" class="edge">
<title>Node42&#45;&gt;Node39</title>
<path fill="none" stroke="#191970" d="M640.7482,-176.1551C559.4314,-171.4926 348.4912,-157.7364 174,-132 167.7298,-131.0752 161.0511,-129.8647 154.7069,-128.6066"/>
<polygon fill="#191970" stroke="#191970" points="640.7207,-179.6591 650.9021,-176.7284 641.1153,-172.6702 640.7207,-179.6591"/>
</g>
<!-- Node42&#45;&gt;Node43 -->
<g id="edge36" class="edge">
<title>Node42&#45;&gt;Node43</title>
<path fill="none" stroke="#191970" d="M709.4432,-172.815C784.5825,-161.5037 961.5146,-134.8688 1024.362,-125.4079"/>
<polygon fill="#191970" stroke="#191970" points="708.4889,-169.4191 699.1213,-174.3688 709.531,-176.3412 708.4889,-169.4191"/>
</g>
<!-- Node42&#45;&gt;Node46 -->
<g id="edge44" class="edge">
<title>Node42&#45;&gt;Node46</title>
<path fill="none" stroke="#191970" d="M693.9835,-161.645C705.2879,-151.9058 719.247,-139.8795 728.8076,-131.6427"/>
<polygon fill="#191970" stroke="#191970" points="691.6138,-159.0668 686.3221,-168.2455 696.1827,-164.3701 691.6138,-159.0668"/>
</g>
<!-- Node42&#45;&gt;Node48 -->
<g id="edge48" class="edge">
<title>Node42&#45;&gt;Node48</title>
<path fill="none" stroke="#191970" d="M640.651,-176.5619C566.8365,-172.9915 387.8669,-161.7585 241,-132 238.3011,-131.4531 235.5066,-130.7799 232.738,-130.0434"/>
<polygon fill="#191970" stroke="#191970" points="640.6098,-180.0637 650.7623,-177.0343 640.9366,-173.0713 640.6098,-180.0637"/>
</g>
<!-- Node42&#45;&gt;Node49 -->
<g id="edge50" class="edge">
<title>Node42&#45;&gt;Node49</title>
<path fill="none" stroke="#191970" d="M641.0489,-172.3307C591.3466,-163.9547 495.8955,-147.5791 415,-132 412.2416,-131.4688 409.3968,-130.9084 406.5336,-130.3351"/>
<polygon fill="#191970" stroke="#191970" points="640.4968,-175.7869 650.9387,-173.9935 641.6575,-168.8838 640.4968,-175.7869"/>
</g>
<!-- Node42&#45;&gt;Node50 -->
<g id="edge52" class="edge">
<title>Node42&#45;&gt;Node50</title>
<path fill="none" stroke="#191970" d="M672.5197,-158.1575C671.3944,-149.155 670.115,-138.9199 669.2053,-131.6427"/>
<polygon fill="#191970" stroke="#191970" points="669.0673,-158.7569 673.7807,-168.2455 676.0132,-157.8886 669.0673,-158.7569"/>
</g>
<!-- Node43&#45;&gt;Node28 -->
<g id="edge38" class="edge">
<title>Node43&#45;&gt;Node28</title>
<path fill="none" stroke="#191970" d="M1062.3122,-104.5004C1070.6447,-94.9775 1080.6353,-83.5596 1087.5627,-75.6427"/>
<polygon fill="#191970" stroke="#191970" points="1059.4862,-102.415 1055.5351,-112.2455 1064.7543,-107.0245 1059.4862,-102.415"/>
</g>
<!-- Node43&#45;&gt;Node29 -->
<g id="edge37" class="edge">
<title>Node43&#45;&gt;Node29</title>
<path fill="none" stroke="#191970" d="M1079.5542,-113.0687C1081.0547,-112.6989 1082.5421,-112.3408 1084,-112 1164.2918,-93.2322 1213.6564,-139.7115 1266,-76 1306.1961,-27.0743 1179.826,-14.3118 1122.6157,-11.0694"/>
<polygon fill="#191970" stroke="#191970" points="1078.4497,-109.7387 1069.6359,-115.6181 1080.1924,-116.5183 1078.4497,-109.7387"/>
</g>
<!-- Node43&#45;&gt;Node30 -->
<g id="edge39" class="edge">
<title>Node43&#45;&gt;Node30</title>
<path fill="none" stroke="#191970" d="M1032.0003,-104.5004C1023.8378,-94.9775 1014.0511,-83.5596 1007.2651,-75.6427"/>
<polygon fill="#191970" stroke="#191970" points="1029.4737,-106.9307 1038.639,-112.2455 1034.7885,-102.3752 1029.4737,-106.9307"/>
</g>
<!-- Node43&#45;&gt;Node38 -->
<g id="edge42" class="edge">
<title>Node43&#45;&gt;Node38</title>
<path fill="none" stroke="#191970" d="M1014.7447,-109.7953C987.5906,-99.5208 949.2912,-85.0291 924.3074,-75.5758"/>
<polygon fill="#191970" stroke="#191970" points="1013.6078,-113.1072 1024.1993,-113.3727 1016.0851,-106.5602 1013.6078,-113.1072"/>
</g>
<!-- Node43&#45;&gt;Node44 -->
<g id="edge40" class="edge">
<title>Node43&#45;&gt;Node44</title>
<path fill="none" stroke="#191970" d="M1079.5421,-113.0151C1081.0459,-112.6598 1082.5373,-112.3193 1084,-112 1178.6565,-91.336 1203.4834,-92.2308 1299,-76 1303.6339,-75.2126 1308.4751,-74.3853 1313.2996,-73.5578"/>
<polygon fill="#191970" stroke="#191970" points="1078.4566,-109.679 1069.6118,-115.5117 1080.1635,-116.4678 1078.4566,-109.679"/>
</g>
<!-- Node45 -->
<g id="node22" class="node">
<title>Node45</title>
<g id="a_node22"><a xlink:href="_power_law_profile_8cpp.html" target="_top" xlink:title="PowerLawProfile.cpp">
<polygon fill="#ffffff" stroke="#000000" points="1147.5,-56.5 1147.5,-75.5 1256.5,-75.5 1256.5,-56.5 1147.5,-56.5"/>
<text text-anchor="middle" x="1202" y="-63.5" font-family="Helvetica,sans-Serif" font-size="10.00" fill="#000000">PowerLawProfile.cpp</text>
</a>
</g>
</g>
<!-- Node43&#45;&gt;Node45 -->
<g id="edge43" class="edge">
<title>Node43&#45;&gt;Node45</title>
<path fill="none" stroke="#191970" d="M1079.0574,-110.418C1107.5944,-100.1078 1148.841,-85.2058 1175.5382,-75.5604"/>
<polygon fill="#191970" stroke="#191970" points="1077.754,-107.1674 1069.5383,-113.8571 1080.1326,-113.7509 1077.754,-107.1674"/>
</g>
<!-- Node44&#45;&gt;Node29 -->
<g id="edge41" class="edge">
<title>Node44&#45;&gt;Node29</title>
<path fill="none" stroke="#191970" d="M1303.3857,-54.4965C1248.3574,-42.6897 1164.9812,-24.8006 1122.6623,-15.7206"/>
<polygon fill="#191970" stroke="#191970" points="1302.8027,-57.951 1313.3145,-56.6269 1304.2713,-51.1068 1302.8027,-57.951"/>
</g>
<!-- Node46&#45;&gt;Node32 -->
<g id="edge45" class="edge">
<title>Node46&#45;&gt;Node32</title>
<path fill="none" stroke="#191970" d="M737.319,-102.1272C734.3884,-87.6157 728.3424,-68.39 716,-56 691.6835,-31.5898 653.3279,-20.0116 625.513,-14.5974"/>
<polygon fill="#191970" stroke="#191970" points="733.8891,-102.8365 739.0054,-112.1141 740.7914,-101.6709 733.8891,-102.8365"/>
</g>
<!-- Node47 -->
<g id="node24" class="node">
<title>Node47</title>
<g id="a_node24"><a xlink:href="levelset__ops_8_h.html" target="_top" xlink:title="levelset_ops.H">
<polygon fill="#ffffff" stroke="#000000" points="763,-56.5 763,-75.5 845,-75.5 845,-56.5 763,-56.5"/>
<text text-anchor="middle" x="804" y="-63.5" font-family="Helvetica,sans-Serif" font-size="10.00" fill="#000000">levelset_ops.H</text>
</a>
</g>
</g>
<!-- Node46&#45;&gt;Node47 -->
<g id="edge46" class="edge">
<title>Node46&#45;&gt;Node47</title>
<path fill="none" stroke="#191970" d="M758.6914,-105.645C769.8219,-95.9058 783.5663,-83.8795 792.9798,-75.6427"/>
<polygon fill="#191970" stroke="#191970" points="756.369,-103.0264 751.1479,-112.2455 760.9785,-108.2945 756.369,-103.0264"/>
</g>
<!-- Node47&#45;&gt;Node32 -->
<g id="edge47" class="edge">
<title>Node47&#45;&gt;Node32</title>
<path fill="none" stroke="#191970" d="M757.67,-53.8193C717.9659,-43.3807 661.6555,-28.5761 625.7278,-19.1303"/>
<polygon fill="#191970" stroke="#191970" points="756.8227,-57.2155 767.384,-56.3733 758.6026,-50.4455 756.8227,-57.2155"/>
</g>
<!-- Node48&#45;&gt;Node33 -->
<g id="edge49" class="edge">
<title>Node48&#45;&gt;Node33</title>
<path fill="none" stroke="#191970" d="M218.8254,-103.6296C224.3299,-94.2887 230.7937,-83.3197 235.3177,-75.6427"/>
<polygon fill="#191970" stroke="#191970" points="215.8097,-101.8532 213.7482,-112.2455 221.8405,-105.4071 215.8097,-101.8532"/>
</g>
<!-- Node49&#45;&gt;Node34 -->
<g id="edge51" class="edge">
<title>Node49&#45;&gt;Node34</title>
<path fill="none" stroke="#191970" d="M355.1904,-103.6296C349.1856,-94.2887 342.1341,-83.3197 337.1989,-75.6427"/>
<polygon fill="#191970" stroke="#191970" points="352.3775,-105.7264 360.7293,-112.2455 358.2658,-101.9411 352.3775,-105.7264"/>
</g>
<!-- Node50&#45;&gt;Node35 -->
<g id="edge53" class="edge">
<title>Node50&#45;&gt;Node35</title>
<path fill="none" stroke="#191970" d="M634.3911,-110.9936C602.2771,-100.4767 554.4548,-84.8156 524.5334,-75.0168"/>
<polygon fill="#191970" stroke="#191970" points="633.6305,-114.4273 644.2232,-114.2134 635.8091,-107.775 633.6305,-114.4273"/>
</g>
<!-- Node51 -->
<g id="node28" class="node">
<title>Node51</title>
<g id="a_node28"><a xlink:href="_one_eq_ksgs_8cpp.html" target="_top" xlink:title="OneEqKsgs.cpp">
<polygon fill="#ffffff" stroke="#000000" points="619,-56.5 619,-75.5 707,-75.5 707,-56.5 619,-56.5"/>
<text text-anchor="middle" x="663" y="-63.5" font-family="Helvetica,sans-Serif" font-size="10.00" fill="#000000">OneEqKsgs.cpp</text>
</a>
</g>
</g>
<!-- Node50&#45;&gt;Node51 -->
<g id="edge54" class="edge">
<title>Node50&#45;&gt;Node51</title>
<path fill="none" stroke="#191970" d="M666.2283,-102.1575C665.4246,-93.155 664.5107,-82.9199 663.861,-75.6427"/>
<polygon fill="#191970" stroke="#191970" points="662.7535,-102.5965 667.1291,-112.2455 669.7258,-101.9739 662.7535,-102.5965"/>
</g>
</g>
</svg>
