<?xml version="1.0" encoding="UTF-8" standalone="no"?>
<!DOCTYPE svg PUBLIC "-//W3C//DTD SVG 1.1//EN"
 "http://www.w3.org/Graphics/SVG/1.1/DTD/svg11.dtd">
<!-- Generated by graphviz version 2.40.1 (20161225.0304)
 -->
<!-- Title: TKE.cpp Pages: 1 -->
<svg width="2717pt" height="553pt"
 viewBox="0.00 0.00 2716.56 553.00" xmlns="http://www.w3.org/2000/svg" xmlns:xlink="http://www.w3.org/1999/xlink">
<g id="graph0" class="graph" transform="scale(1 1) rotate(0) translate(4 549)">
<title>TKE.cpp</title>
<polygon fill="#ffffff" stroke="transparent" points="-4,4 -4,-549 2712.5561,-549 2712.5561,4 -4,4"/>
<!-- Node0 -->
<g id="node1" class="node">
<title>Node0</title>
<polygon fill="#bfbfbf" stroke="#000000" points="2174.1909,-525.5 2174.1909,-544.5 2229.1909,-544.5 2229.1909,-525.5 2174.1909,-525.5"/>
<text text-anchor="middle" x="2201.6909" y="-532.5" font-family="Helvetica,sans-Serif" font-size="10.00" fill="#000000">TKE.cpp</text>
</g>
<!-- Node1 -->
<g id="node2" class="node">
<title>Node1</title>
<g id="a_node2"><a xlink:href="_t_k_e_8_h.html" target="_top" xlink:title="amr&#45;wind/equation_systems\l/tke/TKE.H">
<polygon fill="#ffffff" stroke="#000000" points="1557.1909,-458.5 1557.1909,-488.5 1696.1909,-488.5 1696.1909,-458.5 1557.1909,-458.5"/>
<text text-anchor="start" x="1565.1909" y="-476.5" font-family="Helvetica,sans-Serif" font-size="10.00" fill="#000000">amr&#45;wind/equation_systems</text>
<text text-anchor="middle" x="1626.6909" y="-465.5" font-family="Helvetica,sans-Serif" font-size="10.00" fill="#000000">/tke/TKE.H</text>
</a>
</g>
</g>
<!-- Node0&#45;&gt;Node1 -->
<g id="edge1" class="edge">
<title>Node0&#45;&gt;Node1</title>
<path fill="none" stroke="#191970" d="M2173.9575,-532.0337C2090.1102,-523.0657 1837.0383,-495.998 1706.4943,-482.0355"/>
<polygon fill="#191970" stroke="#191970" points="1706.8617,-478.5549 1696.5461,-480.9715 1706.1172,-485.5152 1706.8617,-478.5549"/>
</g>
<!-- Node60 -->
<g id="node42" class="node">
<title>Node60</title>
<g id="a_node42"><a xlink:href="_adv_op___godunov_8_h.html" target="_top" xlink:title="amr&#45;wind/equation_systems\l/AdvOp_Godunov.H">
<polygon fill="#ffffff" stroke="#000000" points="2405.1909,-324.5 2405.1909,-354.5 2544.1909,-354.5 2544.1909,-324.5 2405.1909,-324.5"/>
<text text-anchor="start" x="2413.1909" y="-342.5" font-family="Helvetica,sans-Serif" font-size="10.00" fill="#000000">amr&#45;wind/equation_systems</text>
<text text-anchor="middle" x="2474.6909" y="-331.5" font-family="Helvetica,sans-Serif" font-size="10.00" fill="#000000">/AdvOp_Godunov.H</text>
</a>
</g>
</g>
<!-- Node0&#45;&gt;Node60 -->
<g id="edge106" class="edge">
<title>Node0&#45;&gt;Node60</title>
<path fill="none" stroke="#191970" d="M2215.229,-525.3051C2257.2891,-495.1852 2386.3841,-402.738 2445.0844,-360.7017"/>
<polygon fill="#191970" stroke="#191970" points="2447.4542,-363.3096 2453.5467,-354.6418 2443.3786,-357.6184 2447.4542,-363.3096"/>
</g>
<!-- Node63 -->
<g id="node45" class="node">
<title>Node63</title>
<g id="a_node45"><a xlink:href="_adv_op___m_o_l_8_h.html" target="_top" xlink:title="amr&#45;wind/equation_systems\l/AdvOp_MOL.H">
<polygon fill="#ffffff" stroke="#000000" points="2240.1909,-324.5 2240.1909,-354.5 2379.1909,-354.5 2379.1909,-324.5 2240.1909,-324.5"/>
<text text-anchor="start" x="2248.1909" y="-342.5" font-family="Helvetica,sans-Serif" font-size="10.00" fill="#000000">amr&#45;wind/equation_systems</text>
<text text-anchor="middle" x="2309.6909" y="-331.5" font-family="Helvetica,sans-Serif" font-size="10.00" fill="#000000">/AdvOp_MOL.H</text>
</a>
</g>
</g>
<!-- Node0&#45;&gt;Node63 -->
<g id="edge115" class="edge">
<title>Node0&#45;&gt;Node63</title>
<path fill="none" stroke="#191970" d="M2207.0467,-525.3051C2223.31,-495.8655 2272.4668,-406.8825 2296.363,-363.626"/>
<polygon fill="#191970" stroke="#191970" points="2299.5542,-365.0874 2301.3262,-354.6418 2293.427,-361.7025 2299.5542,-365.0874"/>
</g>
<!-- Node65 -->
<g id="node47" class="node">
<title>Node65</title>
<g id="a_node47"><a xlink:href="_b_c_ops_8_h.html" target="_top" xlink:title="amr&#45;wind/equation_systems\l/BCOps.H">
<polygon fill="#ffffff" stroke="#000000" points="2083.1909,-324.5 2083.1909,-354.5 2222.1909,-354.5 2222.1909,-324.5 2083.1909,-324.5"/>
<text text-anchor="start" x="2091.1909" y="-342.5" font-family="Helvetica,sans-Serif" font-size="10.00" fill="#000000">amr&#45;wind/equation_systems</text>
<text text-anchor="middle" x="2152.6909" y="-331.5" font-family="Helvetica,sans-Serif" font-size="10.00" fill="#000000">/BCOps.H</text>
</a>
</g>
</g>
<!-- Node0&#45;&gt;Node65 -->
<g id="edge124" class="edge">
<title>Node0&#45;&gt;Node65</title>
<path fill="none" stroke="#191970" d="M2199.261,-525.3051C2191.9288,-496.051 2169.8602,-408.0017 2158.9442,-364.4493"/>
<polygon fill="#191970" stroke="#191970" points="2162.3123,-363.4908 2156.486,-354.6418 2155.5223,-365.1927 2162.3123,-363.4908"/>
</g>
<!-- Node2 -->
<g id="node3" class="node">
<title>Node2</title>
<g id="a_node3"><a xlink:href="_p_d_e_traits_8_h.html" target="_top" xlink:title="amr&#45;wind/equation_systems\l/PDETraits.H">
<polygon fill="#ffffff" stroke="#000000" points="2181.1909,-257.5 2181.1909,-287.5 2320.1909,-287.5 2320.1909,-257.5 2181.1909,-257.5"/>
<text text-anchor="start" x="2189.1909" y="-275.5" font-family="Helvetica,sans-Serif" font-size="10.00" fill="#000000">amr&#45;wind/equation_systems</text>
<text text-anchor="middle" x="2250.6909" y="-264.5" font-family="Helvetica,sans-Serif" font-size="10.00" fill="#000000">/PDETraits.H</text>
</a>
</g>
</g>
<!-- Node1&#45;&gt;Node2 -->
<g id="edge2" class="edge">
<title>Node1&#45;&gt;Node2</title>
<path fill="none" stroke="#191970" d="M1696.2277,-462.5661C1744.0484,-454.0388 1808.6151,-440.5204 1863.6909,-422 1961.6972,-389.0434 1977.9106,-360.3995 2074.6909,-324 2109.1226,-311.0501 2148.3274,-299.2986 2180.9822,-290.3018"/>
<polygon fill="#191970" stroke="#191970" points="2182.1662,-293.6068 2190.8936,-287.5998 2180.3251,-286.8532 2182.1662,-293.6068"/>
</g>
<!-- Node28 -->
<g id="node21" class="node">
<title>Node28</title>
<g id="a_node21"><a xlink:href="_scheme_traits_8_h.html" target="_top" xlink:title="amr&#45;wind/equation_systems\l/SchemeTraits.H">
<polygon fill="#ffffff" stroke="#000000" points="1899.1909,-257.5 1899.1909,-287.5 2038.1909,-287.5 2038.1909,-257.5 1899.1909,-257.5"/>
<text text-anchor="start" x="1907.1909" y="-275.5" font-family="Helvetica,sans-Serif" font-size="10.00" fill="#000000">amr&#45;wind/equation_systems</text>
<text text-anchor="middle" x="1968.6909" y="-264.5" font-family="Helvetica,sans-Serif" font-size="10.00" fill="#000000">/SchemeTraits.H</text>
</a>
</g>
</g>
<!-- Node1&#45;&gt;Node28 -->
<g id="edge37" class="edge">
<title>Node1&#45;&gt;Node28</title>
<path fill="none" stroke="#191970" d="M1696.2286,-461.4104C1763.0136,-446.6084 1863.1679,-415.6303 1928.6909,-355 1945.4696,-339.4742 1956.0113,-315.4046 1962.0334,-297.2631"/>
<polygon fill="#191970" stroke="#191970" points="1965.4012,-298.2188 1964.9974,-287.6317 1958.7109,-296.1599 1965.4012,-298.2188"/>
</g>
<!-- Node29 -->
<g id="node22" class="node">
<title>Node29</title>
<g id="a_node22"><a xlink:href="_p_d_e_helpers_8_h.html" target="_top" xlink:title="amr&#45;wind/equation_systems\l/PDEHelpers.H">
<polygon fill="#ffffff" stroke="#000000" points="597.1909,-190.5 597.1909,-220.5 736.1909,-220.5 736.1909,-190.5 597.1909,-190.5"/>
<text text-anchor="start" x="605.1909" y="-208.5" font-family="Helvetica,sans-Serif" font-size="10.00" fill="#000000">amr&#45;wind/equation_systems</text>
<text text-anchor="middle" x="666.6909" y="-197.5" font-family="Helvetica,sans-Serif" font-size="10.00" fill="#000000">/PDEHelpers.H</text>
</a>
</g>
</g>
<!-- Node1&#45;&gt;Node29 -->
<g id="edge39" class="edge">
<title>Node1&#45;&gt;Node29</title>
<path fill="none" stroke="#191970" d="M1557.0047,-459.5567C1510.3073,-449.8718 1447.5598,-436.1988 1392.6909,-422 1140.655,-356.7788 844.3457,-262.9866 722.8972,-223.7951"/>
<polygon fill="#191970" stroke="#191970" points="723.6658,-220.3653 713.0741,-220.6211 721.5135,-227.0262 723.6658,-220.3653"/>
</g>
<!-- Node41 -->
<g id="node31" class="node">
<title>Node41</title>
<g id="a_node31"><a xlink:href="_p_d_e_8_h.html" target="_top" xlink:title="amr&#45;wind/equation_systems\l/PDE.H">
<polygon fill="#ffffff" stroke="#000000" points="1557.1909,-391.5 1557.1909,-421.5 1696.1909,-421.5 1696.1909,-391.5 1557.1909,-391.5"/>
<text text-anchor="start" x="1565.1909" y="-409.5" font-family="Helvetica,sans-Serif" font-size="10.00" fill="#000000">amr&#45;wind/equation_systems</text>
<text text-anchor="middle" x="1626.6909" y="-398.5" font-family="Helvetica,sans-Serif" font-size="10.00" fill="#000000">/PDE.H</text>
</a>
</g>
</g>
<!-- Node1&#45;&gt;Node41 -->
<g id="edge62" class="edge">
<title>Node1&#45;&gt;Node41</title>
<path fill="none" stroke="#191970" d="M1626.6909,-458.2967C1626.6909,-450.5013 1626.6909,-440.7991 1626.6909,-431.9064"/>
<polygon fill="#191970" stroke="#191970" points="1630.191,-431.6431 1626.6909,-421.6432 1623.191,-431.6432 1630.191,-431.6431"/>
</g>
<!-- Node58 -->
<g id="node40" class="node">
<title>Node58</title>
<g id="a_node40"><a xlink:href="field__ops_8_h.html" target="_top" xlink:title="amr&#45;wind/core/field\l_ops.H">
<polygon fill="#ffffff" stroke="#000000" points="633.1909,-123.5 633.1909,-153.5 732.1909,-153.5 732.1909,-123.5 633.1909,-123.5"/>
<text text-anchor="start" x="641.1909" y="-141.5" font-family="Helvetica,sans-Serif" font-size="10.00" fill="#000000">amr&#45;wind/core/field</text>
<text text-anchor="middle" x="682.6909" y="-130.5" font-family="Helvetica,sans-Serif" font-size="10.00" fill="#000000">_ops.H</text>
</a>
</g>
</g>
<!-- Node1&#45;&gt;Node58 -->
<g id="edge97" class="edge">
<title>Node1&#45;&gt;Node58</title>
<path fill="none" stroke="#191970" d="M1557.0466,-472.9811C1303.2492,-470.1828 442.6909,-452.3723 442.6909,-339.5 442.6909,-339.5 442.6909,-339.5 442.6909,-272.5 442.6909,-234.8735 435.1194,-216.6404 461.6909,-190 473.1714,-178.4898 561.7232,-160.4124 623.1871,-149.0217"/>
<polygon fill="#191970" stroke="#191970" points="623.9803,-152.4346 633.1824,-147.1838 622.7143,-145.55 623.9803,-152.4346"/>
</g>
<!-- Node59 -->
<g id="node41" class="node">
<title>Node59</title>
<g id="a_node41"><a xlink:href="_t_k_e_source_8_h.html" target="_top" xlink:title="amr&#45;wind/equation_systems\l/tke/TKESource.H">
<polygon fill="#ffffff" stroke="#000000" points="801.1909,-190.5 801.1909,-220.5 940.1909,-220.5 940.1909,-190.5 801.1909,-190.5"/>
<text text-anchor="start" x="809.1909" y="-208.5" font-family="Helvetica,sans-Serif" font-size="10.00" fill="#000000">amr&#45;wind/equation_systems</text>
<text text-anchor="middle" x="870.6909" y="-197.5" font-family="Helvetica,sans-Serif" font-size="10.00" fill="#000000">/tke/TKESource.H</text>
</a>
</g>
</g>
<!-- Node1&#45;&gt;Node59 -->
<g id="edge100" class="edge">
<title>Node1&#45;&gt;Node59</title>
<path fill="none" stroke="#191970" d="M1584.1525,-458.4202C1454.498,-412.4581 1064.5085,-274.2078 922.8429,-223.9877"/>
<polygon fill="#191970" stroke="#191970" points="923.6739,-220.5689 913.0791,-220.5265 921.3349,-227.1667 923.6739,-220.5689"/>
</g>
<!-- Node3 -->
<g id="node4" class="node">
<title>Node3</title>
<polygon fill="#ffffff" stroke="#bfbfbf" points="1650.1909,-.5 1650.1909,-19.5 1691.1909,-19.5 1691.1909,-.5 1650.1909,-.5"/>
<text text-anchor="middle" x="1670.6909" y="-7.5" font-family="Helvetica,sans-Serif" font-size="10.00" fill="#000000">string</text>
</g>
<!-- Node2&#45;&gt;Node3 -->
<g id="edge3" class="edge">
<title>Node2&#45;&gt;Node3</title>
<path fill="none" stroke="#191970" d="M2224.0068,-257.3797C2211.0428,-248.5388 2196.5915,-236.1332 2188.6909,-221 2154.6306,-155.759 2226.866,-107.9062 2174.6909,-56 2138.9741,-20.4672 1772.6156,-26.7675 1722.6909,-20 1715.7133,-19.0542 1708.2561,-17.7791 1701.231,-16.4565"/>
<polygon fill="#191970" stroke="#191970" points="1701.8405,-13.0095 1691.3536,-14.5176 1700.4921,-19.8784 1701.8405,-13.0095"/>
</g>
<!-- Node4 -->
<g id="node5" class="node">
<title>Node4</title>
<polygon fill="#ffffff" stroke="#bfbfbf" points="2197.1909,-196 2197.1909,-215 2320.1909,-215 2320.1909,-196 2197.1909,-196"/>
<text text-anchor="middle" x="2258.6909" y="-203" font-family="Helvetica,sans-Serif" font-size="10.00" fill="#000000">AMReX_MLTensorOp.H</text>
</g>
<!-- Node2&#45;&gt;Node4 -->
<g id="edge4" class="edge">
<title>Node2&#45;&gt;Node4</title>
<path fill="none" stroke="#191970" d="M2252.5062,-257.2967C2253.6438,-247.7699 2255.1213,-235.3954 2256.347,-225.1306"/>
<polygon fill="#191970" stroke="#191970" points="2259.8396,-225.3994 2257.55,-215.055 2252.889,-224.5694 2259.8396,-225.3994"/>
</g>
<!-- Node5 -->
<g id="node6" class="node">
<title>Node5</title>
<g id="a_node6"><a xlink:href="_source_term_8_h.html" target="_top" xlink:title="amr&#45;wind/equation_systems\l/SourceTerm.H">
<polygon fill="#ffffff" stroke="#000000" points="1444.1909,-190.5 1444.1909,-220.5 1583.1909,-220.5 1583.1909,-190.5 1444.1909,-190.5"/>
<text text-anchor="start" x="1452.1909" y="-208.5" font-family="Helvetica,sans-Serif" font-size="10.00" fill="#000000">amr&#45;wind/equation_systems</text>
<text text-anchor="middle" x="1513.6909" y="-197.5" font-family="Helvetica,sans-Serif" font-size="10.00" fill="#000000">/SourceTerm.H</text>
</a>
</g>
</g>
<!-- Node2&#45;&gt;Node5 -->
<g id="edge5" class="edge">
<title>Node2&#45;&gt;Node5</title>
<path fill="none" stroke="#191970" d="M2181.0188,-258.231C2178.2104,-257.7903 2175.4263,-257.3773 2172.6909,-257 1964.8126,-228.325 1717.6742,-214.3386 1593.4252,-208.6873"/>
<polygon fill="#191970" stroke="#191970" points="1593.3883,-205.1822 1583.2414,-208.2303 1593.0744,-212.1752 1593.3883,-205.1822"/>
</g>
<!-- Node6 -->
<g id="node7" class="node">
<title>Node6</title>
<g id="a_node7"><a xlink:href="_factory_8_h.html" target="_top" xlink:title="amr&#45;wind/core/Factory.H">
<polygon fill="#ffffff" stroke="#ff0000" points="1873.1909,-62 1873.1909,-81 1998.1909,-81 1998.1909,-62 1873.1909,-62"/>
<text text-anchor="middle" x="1935.6909" y="-69" font-family="Helvetica,sans-Serif" font-size="10.00" fill="#000000">amr&#45;wind/core/Factory.H</text>
</a>
</g>
</g>
<!-- Node5&#45;&gt;Node6 -->
<g id="edge6" class="edge">
<title>Node5&#45;&gt;Node6</title>
<path fill="none" stroke="#191970" d="M1561.2794,-190.389C1645.1371,-163.7612 1817.7232,-108.959 1895.7859,-84.1712"/>
<polygon fill="#191970" stroke="#191970" points="1897.2406,-87.3816 1905.7123,-81.0193 1895.122,-80.7099 1897.2406,-87.3816"/>
</g>
<!-- Node12 -->
<g id="node9" class="node">
<title>Node12</title>
<g id="a_node9"><a xlink:href="_field_desc_types_8_h.html" target="_top" xlink:title="amr&#45;wind/core/FieldDescTypes.H">
<polygon fill="#ffffff" stroke="#000000" points="1147.1909,-.5 1147.1909,-19.5 1310.1909,-19.5 1310.1909,-.5 1147.1909,-.5"/>
<text text-anchor="middle" x="1228.6909" y="-7.5" font-family="Helvetica,sans-Serif" font-size="10.00" fill="#000000">amr&#45;wind/core/FieldDescTypes.H</text>
</a>
</g>
</g>
<!-- Node5&#45;&gt;Node12 -->
<g id="edge8" class="edge">
<title>Node5&#45;&gt;Node12</title>
<path fill="none" stroke="#191970" d="M1513.0677,-190.2772C1511.6946,-172.7275 1507.3496,-143.6512 1493.6909,-123 1466.1815,-81.4074 1448.6262,-77.6226 1403.6909,-56 1370.2131,-39.8907 1330.3185,-28.8483 1297.0807,-21.6292"/>
<polygon fill="#191970" stroke="#191970" points="1297.4997,-18.1409 1286.9937,-19.5101 1296.0605,-24.9913 1297.4997,-18.1409"/>
</g>
<!-- Node13 -->
<g id="node10" class="node">
<title>Node13</title>
<g id="a_node10"><a xlink:href="_field_utils_8_h.html" target="_top" xlink:title="amr&#45;wind/core/FieldUtils.H">
<polygon fill="#ffffff" stroke="#ff0000" points="675.1909,-62 675.1909,-81 808.1909,-81 808.1909,-62 675.1909,-62"/>
<text text-anchor="middle" x="741.6909" y="-69" font-family="Helvetica,sans-Serif" font-size="10.00" fill="#000000">amr&#45;wind/core/FieldUtils.H</text>
</a>
</g>
</g>
<!-- Node5&#45;&gt;Node13 -->
<g id="edge9" class="edge">
<title>Node5&#45;&gt;Node13</title>
<path fill="none" stroke="#191970" d="M1443.994,-203.1523C1305.2711,-197.9088 999.3029,-183.333 898.6909,-154 847.2109,-138.9912 793.1157,-106.2231 763.7875,-86.8043"/>
<polygon fill="#191970" stroke="#191970" points="765.4214,-83.6852 755.1704,-81.008 761.5144,-89.4935 765.4214,-83.6852"/>
</g>
<!-- Node14 -->
<g id="node11" class="node">
<title>Node14</title>
<polygon fill="#ffffff" stroke="#bfbfbf" points="860.6909,-.5 860.6909,-19.5 964.6909,-19.5 964.6909,-.5 860.6909,-.5"/>
<text text-anchor="middle" x="912.6909" y="-7.5" font-family="Helvetica,sans-Serif" font-size="10.00" fill="#000000">AMReX_MultiFab.H</text>
</g>
<!-- Node5&#45;&gt;Node14 -->
<g id="edge36" class="edge">
<title>Node5&#45;&gt;Node14</title>
<path fill="none" stroke="#191970" d="M1444.1617,-202.5864C1308.3555,-196.3481 1017.8082,-180.1064 980.6909,-154 938.615,-124.4059 921.7803,-61.7625 915.7224,-29.7437"/>
<polygon fill="#191970" stroke="#191970" points="919.156,-29.0584 914.0054,-19.7998 912.258,-30.2495 919.156,-29.0584"/>
</g>
<!-- Node16 -->
<g id="node12" class="node">
<title>Node16</title>
<g id="a_node12"><a xlink:href="_field_repo_8_h.html" target="_top" xlink:title="amr&#45;wind/core/FieldRepo.H">
<polygon fill="#ffffff" stroke="#000000" points="1348.6909,-129 1348.6909,-148 1484.6909,-148 1484.6909,-129 1348.6909,-129"/>
<text text-anchor="middle" x="1416.6909" y="-136" font-family="Helvetica,sans-Serif" font-size="10.00" fill="#000000">amr&#45;wind/core/FieldRepo.H</text>
</a>
</g>
</g>
<!-- Node5&#45;&gt;Node16 -->
<g id="edge12" class="edge">
<title>Node5&#45;&gt;Node16</title>
<path fill="none" stroke="#191970" d="M1491.6801,-190.2967C1475.9802,-179.4524 1454.9381,-164.9182 1439.14,-154.006"/>
<polygon fill="#191970" stroke="#191970" points="1440.7414,-150.8585 1430.5242,-148.055 1436.7631,-156.6181 1440.7414,-150.8585"/>
</g>
<!-- Node8 -->
<g id="node8" class="node">
<title>Node8</title>
<polygon fill="#ffffff" stroke="#bfbfbf" points="1894.1909,-.5 1894.1909,-19.5 1977.1909,-19.5 1977.1909,-.5 1894.1909,-.5"/>
<text text-anchor="middle" x="1935.6909" y="-7.5" font-family="Helvetica,sans-Serif" font-size="10.00" fill="#000000">unordered_map</text>
</g>
<!-- Node6&#45;&gt;Node8 -->
<g id="edge7" class="edge">
<title>Node6&#45;&gt;Node8</title>
<path fill="none" stroke="#191970" d="M1935.6909,-61.8906C1935.6909,-53.3657 1935.6909,-40.6392 1935.6909,-29.9235"/>
<polygon fill="#191970" stroke="#191970" points="1939.191,-29.7448 1935.6909,-19.7449 1932.191,-29.7449 1939.191,-29.7448"/>
</g>
<!-- Node13&#45;&gt;Node12 -->
<g id="edge10" class="edge">
<title>Node13&#45;&gt;Node12</title>
<path fill="none" stroke="#191970" d="M788.2739,-61.9564C799.5142,-59.828 811.5086,-57.7009 822.6909,-56 881.2548,-47.0923 1036.2082,-30.2286 1136.856,-19.5812"/>
<polygon fill="#191970" stroke="#191970" points="1137.4506,-23.038 1147.0276,-18.5068 1136.7152,-16.0767 1137.4506,-23.038"/>
</g>
<!-- Node13&#45;&gt;Node14 -->
<g id="edge11" class="edge">
<title>Node13&#45;&gt;Node14</title>
<path fill="none" stroke="#191970" d="M768.4097,-61.8906C797.5231,-51.42 844.2601,-34.6111 876.6156,-22.9745"/>
<polygon fill="#191970" stroke="#191970" points="877.9344,-26.2197 886.1598,-19.5419 875.5653,-19.6328 877.9344,-26.2197"/>
</g>
<!-- Node16&#45;&gt;Node3 -->
<g id="edge13" class="edge">
<title>Node16&#45;&gt;Node3</title>
<path fill="none" stroke="#191970" d="M1435.7822,-128.8416C1480.2046,-106.3681 1590.6633,-50.4864 1642.7143,-24.1535"/>
<polygon fill="#191970" stroke="#191970" points="1644.3815,-27.2326 1651.7246,-19.5952 1641.2215,-20.9864 1644.3815,-27.2326"/>
</g>
<!-- Node16&#45;&gt;Node8 -->
<g id="edge14" class="edge">
<title>Node16&#45;&gt;Node8</title>
<path fill="none" stroke="#191970" d="M1485.0609,-132.7732C1580.378,-124.2225 1747.9925,-106.9687 1805.6909,-87 1827.6886,-79.3869 1881.6684,-45.3205 1912.712,-25.1392"/>
<polygon fill="#191970" stroke="#191970" points="1914.7232,-28.006 1921.1819,-19.6074 1910.8955,-22.1453 1914.7232,-28.006"/>
</g>
<!-- Node16&#45;&gt;Node12 -->
<g id="edge15" class="edge">
<title>Node16&#45;&gt;Node12</title>
<path fill="none" stroke="#191970" d="M1414.914,-128.8089C1411.2542,-111.6122 1401.2486,-75.7192 1378.6909,-56 1359.8555,-39.5347 1335.2277,-28.9629 1311.3883,-22.1753"/>
<polygon fill="#191970" stroke="#191970" points="1312.1598,-18.759 1301.5968,-19.5797 1310.3661,-25.5253 1312.1598,-18.759"/>
</g>
<!-- Node16&#45;&gt;Node13 -->
<g id="edge16" class="edge">
<title>Node16&#45;&gt;Node13</title>
<path fill="none" stroke="#191970" d="M1348.9695,-128.9765C1333.1424,-126.8825 1316.338,-124.7654 1300.6909,-123 1128.7681,-103.6025 926.4767,-86.3424 818.6082,-77.5831"/>
<polygon fill="#191970" stroke="#191970" points="818.7181,-74.0806 808.4683,-76.7622 818.1532,-81.0578 818.7181,-74.0806"/>
</g>
<!-- Node16&#45;&gt;Node14 -->
<g id="edge34" class="edge">
<title>Node16&#45;&gt;Node14</title>
<path fill="none" stroke="#191970" d="M1348.6213,-129.282C1332.8859,-127.1852 1316.2086,-124.99 1300.6909,-123 1170.5552,-106.3114 1128.4489,-138.2965 1007.6909,-87 975.4951,-73.3236 945.3898,-45.3553 928.0209,-27.1574"/>
<polygon fill="#191970" stroke="#191970" points="930.3446,-24.5162 920.9751,-19.5702 925.2152,-29.2796 930.3446,-24.5162"/>
</g>
<!-- Node17 -->
<g id="node13" class="node">
<title>Node17</title>
<g id="a_node13"><a xlink:href="_field_8_h.html" target="_top" xlink:title="amr&#45;wind/core/Field.H">
<polygon fill="#ffffff" stroke="#ff0000" points="1257.1909,-62 1257.1909,-81 1370.1909,-81 1370.1909,-62 1257.1909,-62"/>
<text text-anchor="middle" x="1313.6909" y="-69" font-family="Helvetica,sans-Serif" font-size="10.00" fill="#000000">amr&#45;wind/core/Field.H</text>
</a>
</g>
</g>
<!-- Node16&#45;&gt;Node17 -->
<g id="edge17" class="edge">
<title>Node16&#45;&gt;Node17</title>
<path fill="none" stroke="#191970" d="M1401.9335,-128.9005C1384.9538,-117.8554 1356.855,-99.5776 1336.9308,-86.6172"/>
<polygon fill="#191970" stroke="#191970" points="1338.712,-83.6005 1328.4209,-81.0817 1334.8951,-89.4684 1338.712,-83.6005"/>
</g>
<!-- Node23 -->
<g id="node16" class="node">
<title>Node23</title>
<g id="a_node16"><a xlink:href="_int_field_8_h.html" target="_top" xlink:title="amr&#45;wind/core/IntField.H">
<polygon fill="#ffffff" stroke="#000000" points="1654.6909,-62 1654.6909,-81 1778.6909,-81 1778.6909,-62 1654.6909,-62"/>
<text text-anchor="middle" x="1716.6909" y="-69" font-family="Helvetica,sans-Serif" font-size="10.00" fill="#000000">amr&#45;wind/core/IntField.H</text>
</a>
</g>
</g>
<!-- Node16&#45;&gt;Node23 -->
<g id="edge24" class="edge">
<title>Node16&#45;&gt;Node23</title>
<path fill="none" stroke="#191970" d="M1459.355,-128.9717C1513.0717,-116.975 1605.3546,-96.3651 1663.5838,-83.3606"/>
<polygon fill="#191970" stroke="#191970" points="1664.6916,-86.6995 1673.6883,-81.1039 1663.1658,-79.8678 1664.6916,-86.6995"/>
</g>
<!-- Node24 -->
<g id="node17" class="node">
<title>Node24</title>
<polygon fill="#ffffff" stroke="#bfbfbf" points="1731.1909,-.5 1731.1909,-19.5 1838.1909,-19.5 1838.1909,-.5 1731.1909,-.5"/>
<text text-anchor="middle" x="1784.6909" y="-7.5" font-family="Helvetica,sans-Serif" font-size="10.00" fill="#000000">AMReX_iMultiFab.H</text>
</g>
<!-- Node16&#45;&gt;Node24 -->
<g id="edge35" class="edge">
<title>Node16&#45;&gt;Node24</title>
<path fill="none" stroke="#191970" d="M1485.0417,-131.3388C1589.4874,-120.0675 1777.8425,-98.31 1787.6909,-87 1801.296,-71.3759 1797.3433,-46.478 1792.0965,-29.2434"/>
<polygon fill="#191970" stroke="#191970" points="1795.3627,-27.9779 1788.8078,-19.6542 1788.7413,-30.2488 1795.3627,-27.9779"/>
</g>
<!-- Node25 -->
<g id="node18" class="node">
<title>Node25</title>
<g id="a_node18"><a xlink:href="_scratch_field_8_h.html" target="_top" xlink:title="amr&#45;wind/core/ScratchField.H">
<polygon fill="#ffffff" stroke="#ff0000" points="1016.6909,-62 1016.6909,-81 1162.6909,-81 1162.6909,-62 1016.6909,-62"/>
<text text-anchor="middle" x="1089.6909" y="-69" font-family="Helvetica,sans-Serif" font-size="10.00" fill="#000000">amr&#45;wind/core/ScratchField.H</text>
</a>
</g>
</g>
<!-- Node16&#45;&gt;Node25 -->
<g id="edge28" class="edge">
<title>Node16&#45;&gt;Node25</title>
<path fill="none" stroke="#191970" d="M1370.1871,-128.9717C1311.1885,-116.8833 1209.508,-96.0497 1146.1294,-83.0638"/>
<polygon fill="#191970" stroke="#191970" points="1146.7978,-79.6282 1136.2988,-81.0496 1145.3927,-86.4857 1146.7978,-79.6282"/>
</g>
<!-- Node27 -->
<g id="node20" class="node">
<title>Node27</title>
<polygon fill="#ffffff" stroke="#bfbfbf" points="322.6909,-62 322.6909,-81 428.6909,-81 428.6909,-62 322.6909,-62"/>
<text text-anchor="middle" x="375.6909" y="-69" font-family="Helvetica,sans-Serif" font-size="10.00" fill="#000000">AMReX_AmrCore.H</text>
</g>
<!-- Node16&#45;&gt;Node27 -->
<g id="edge33" class="edge">
<title>Node16&#45;&gt;Node27</title>
<path fill="none" stroke="#191970" d="M1352.0632,-128.9649C1335.358,-126.7475 1317.3788,-124.5771 1300.6909,-123 1257.8762,-118.9538 640.7975,-85.7133 439.0221,-74.8912"/>
<polygon fill="#191970" stroke="#191970" points="439.0523,-71.3878 428.8792,-74.3473 438.6774,-78.3778 439.0523,-71.3878"/>
</g>
<!-- Node17&#45;&gt;Node3 -->
<g id="edge18" class="edge">
<title>Node17&#45;&gt;Node3</title>
<path fill="none" stroke="#191970" d="M1369.0805,-61.9581C1445.1999,-48.8451 1579.5556,-25.6998 1639.8685,-15.3097"/>
<polygon fill="#191970" stroke="#191970" points="1640.6423,-18.7281 1649.9029,-13.5811 1639.4538,-11.8297 1640.6423,-18.7281"/>
</g>
<!-- Node17&#45;&gt;Node8 -->
<g id="edge19" class="edge">
<title>Node17&#45;&gt;Node8</title>
<path fill="none" stroke="#191970" d="M1370.5155,-66.3022C1467.9891,-57.3207 1673.3241,-38.1142 1846.6909,-20 1858.7725,-18.7377 1871.7689,-17.3145 1883.9964,-15.9462"/>
<polygon fill="#191970" stroke="#191970" points="1884.5042,-19.4112 1894.0499,-14.8144 1883.7211,-12.4551 1884.5042,-19.4112"/>
</g>
<!-- Node17&#45;&gt;Node12 -->
<g id="edge23" class="edge">
<title>Node17&#45;&gt;Node12</title>
<path fill="none" stroke="#191970" d="M1300.4097,-61.8906C1286.9361,-52.1421 1265.8689,-36.8994 1250.0474,-25.4521"/>
<polygon fill="#191970" stroke="#191970" points="1252.0324,-22.5682 1241.8789,-19.5419 1247.929,-28.2394 1252.0324,-22.5682"/>
</g>
<!-- Node17&#45;&gt;Node14 -->
<g id="edge20" class="edge">
<title>Node17&#45;&gt;Node14</title>
<path fill="none" stroke="#191970" d="M1257.0879,-62.819C1182.6036,-51.3956 1052.121,-31.3839 974.9298,-19.5454"/>
<polygon fill="#191970" stroke="#191970" points="975.2798,-16.0582 964.8648,-18.0017 974.2186,-22.9773 975.2798,-16.0582"/>
</g>
<!-- Node19 -->
<g id="node14" class="node">
<title>Node19</title>
<polygon fill="#ffffff" stroke="#bfbfbf" points="2323.1909,-.5 2323.1909,-19.5 2408.1909,-19.5 2408.1909,-.5 2323.1909,-.5"/>
<text text-anchor="middle" x="2365.6909" y="-7.5" font-family="Helvetica,sans-Serif" font-size="10.00" fill="#000000">AMReX_Gpu.H</text>
</g>
<!-- Node17&#45;&gt;Node19 -->
<g id="edge21" class="edge">
<title>Node17&#45;&gt;Node19</title>
<path fill="none" stroke="#191970" d="M1370.251,-68.1935C1554.2618,-57.4362 2134.2755,-23.5286 2312.8432,-13.0895"/>
<polygon fill="#191970" stroke="#191970" points="2313.2517,-16.5717 2323.0304,-12.4939 2312.8431,-9.5836 2313.2517,-16.5717"/>
</g>
<!-- Node20 -->
<g id="node15" class="node">
<title>Node20</title>
<g id="a_node15"><a xlink:href="incflo__enums_8_h.html" target="_top" xlink:title="amr&#45;wind/incflo_enums.H">
<polygon fill="#ffffff" stroke="#000000" points="991.6909,-.5 991.6909,-19.5 1119.6909,-19.5 1119.6909,-.5 991.6909,-.5"/>
<text text-anchor="middle" x="1055.6909" y="-7.5" font-family="Helvetica,sans-Serif" font-size="10.00" fill="#000000">amr&#45;wind/incflo_enums.H</text>
</a>
</g>
</g>
<!-- Node17&#45;&gt;Node20 -->
<g id="edge22" class="edge">
<title>Node17&#45;&gt;Node20</title>
<path fill="none" stroke="#191970" d="M1273.6615,-61.9581C1228.3755,-51.1632 1154.5675,-33.5694 1105.5703,-21.8899"/>
<polygon fill="#191970" stroke="#191970" points="1106.3533,-18.4785 1095.8143,-19.5643 1104.7301,-25.2877 1106.3533,-18.4785"/>
</g>
<!-- Node23&#45;&gt;Node3 -->
<g id="edge25" class="edge">
<title>Node23&#45;&gt;Node3</title>
<path fill="none" stroke="#191970" d="M1709.5034,-61.8906C1702.7243,-52.8273 1692.3931,-39.0149 1684.0936,-27.9188"/>
<polygon fill="#191970" stroke="#191970" points="1686.7721,-25.6563 1677.9798,-19.7449 1681.1666,-29.849 1686.7721,-25.6563"/>
</g>
<!-- Node23&#45;&gt;Node12 -->
<g id="edge26" class="edge">
<title>Node23&#45;&gt;Node12</title>
<path fill="none" stroke="#191970" d="M1654.5861,-62.9096C1637.7522,-60.6211 1619.5281,-58.18 1602.6909,-56 1505.6744,-43.4388 1394.3878,-29.857 1318.6044,-20.7327"/>
<polygon fill="#191970" stroke="#191970" points="1318.9625,-17.2506 1308.616,-19.5312 1318.1264,-24.2005 1318.9625,-17.2506"/>
</g>
<!-- Node23&#45;&gt;Node24 -->
<g id="edge27" class="edge">
<title>Node23&#45;&gt;Node24</title>
<path fill="none" stroke="#191970" d="M1727.3159,-61.8906C1737.7341,-52.4683 1753.8273,-37.9134 1766.3213,-26.6137"/>
<polygon fill="#191970" stroke="#191970" points="1768.8472,-29.0484 1773.9161,-19.7449 1764.1517,-23.8568 1768.8472,-29.0484"/>
</g>
<!-- Node25&#45;&gt;Node3 -->
<g id="edge29" class="edge">
<title>Node25&#45;&gt;Node3</title>
<path fill="none" stroke="#191970" d="M1162.9806,-63.7421C1291.2321,-50.1665 1551.1778,-22.6507 1640.0752,-13.2407"/>
<polygon fill="#191970" stroke="#191970" points="1640.4721,-16.7184 1650.048,-12.1851 1639.7351,-9.7573 1640.4721,-16.7184"/>
</g>
<!-- Node25&#45;&gt;Node12 -->
<g id="edge30" class="edge">
<title>Node25&#45;&gt;Node12</title>
<path fill="none" stroke="#191970" d="M1111.4097,-61.8906C1134.5649,-51.6457 1171.435,-35.3326 1197.65,-23.7339"/>
<polygon fill="#191970" stroke="#191970" points="1199.3959,-26.7888 1207.1247,-19.5419 1196.5636,-20.3874 1199.3959,-26.7888"/>
</g>
<!-- Node25&#45;&gt;Node14 -->
<g id="edge31" class="edge">
<title>Node25&#45;&gt;Node14</title>
<path fill="none" stroke="#191970" d="M1062.0347,-61.8906C1031.7699,-51.3749 983.1054,-34.466 949.5998,-22.8243"/>
<polygon fill="#191970" stroke="#191970" points="950.7478,-19.5179 940.153,-19.5419 948.4503,-26.1302 950.7478,-19.5179"/>
</g>
<!-- Node26 -->
<g id="node19" class="node">
<title>Node26</title>
<polygon fill="#ffffff" stroke="#bfbfbf" points="714.6909,-.5 714.6909,-19.5 842.6909,-19.5 842.6909,-.5 714.6909,-.5"/>
<text text-anchor="middle" x="778.6909" y="-7.5" font-family="Helvetica,sans-Serif" font-size="10.00" fill="#000000">AMReX_PhysBCFunct.H</text>
</g>
<!-- Node25&#45;&gt;Node26 -->
<g id="edge32" class="edge">
<title>Node25&#45;&gt;Node26</title>
<path fill="none" stroke="#191970" d="M1041.4384,-61.9581C986.1989,-51.0345 895.7542,-33.1492 836.7184,-21.4749"/>
<polygon fill="#191970" stroke="#191970" points="837.2898,-18.0202 826.8008,-19.5137 835.9318,-24.8872 837.2898,-18.0202"/>
</g>
<!-- Node28&#45;&gt;Node3 -->
<g id="edge38" class="edge">
<title>Node28&#45;&gt;Node3</title>
<path fill="none" stroke="#191970" d="M1998.9383,-257.4756C2067.0315,-221.8043 2221.3063,-129.4985 2153.6909,-56 2121.1554,-20.6336 1770.2985,-26.5469 1722.6909,-20 1715.7152,-19.0407 1708.2587,-17.7603 1701.2337,-16.4367"/>
<polygon fill="#191970" stroke="#191970" points="1701.8428,-12.9896 1691.3561,-14.4991 1700.4953,-19.8587 1701.8428,-12.9896"/>
</g>
<!-- Node29&#45;&gt;Node3 -->
<g id="edge40" class="edge">
<title>Node29&#45;&gt;Node3</title>
<path fill="none" stroke="#191970" d="M736.3697,-196.1991C754.3703,-193.9778 773.7349,-191.747 791.6909,-190 904.5517,-179.0192 1195.0164,-195.122 1300.6909,-154 1321.3257,-145.9702 1320.4296,-133.9212 1339.6909,-123 1344.2867,-120.3942 1512.6861,-57.6921 1517.6909,-56 1559.7119,-41.793 1608.9395,-27.3849 1639.9715,-18.5711"/>
<polygon fill="#191970" stroke="#191970" points="1641.0897,-21.8923 1649.7612,-15.8049 1639.1862,-15.156 1641.0897,-21.8923"/>
</g>
<!-- Node29&#45;&gt;Node16 -->
<g id="edge47" class="edge">
<title>Node29&#45;&gt;Node16</title>
<path fill="none" stroke="#191970" d="M736.3644,-196.1445C754.3651,-193.9241 773.7311,-191.7074 791.6909,-190 1032.4684,-167.1091 1094.7607,-184.5167 1334.6909,-154 1343.4626,-152.8843 1352.7124,-151.4197 1361.7139,-149.8358"/>
<polygon fill="#191970" stroke="#191970" points="1362.5226,-153.2461 1371.7326,-148.0092 1361.267,-146.3597 1362.5226,-153.2461"/>
</g>
<!-- Node30 -->
<g id="node23" class="node">
<title>Node30</title>
<g id="a_node23"><a xlink:href="_p_d_e_fields_8_h.html" target="_top" xlink:title="amr&#45;wind/equation_systems\l/PDEFields.H">
<polygon fill="#ffffff" stroke="#000000" points="16.1909,-56.5 16.1909,-86.5 155.1909,-86.5 155.1909,-56.5 16.1909,-56.5"/>
<text text-anchor="start" x="24.1909" y="-74.5" font-family="Helvetica,sans-Serif" font-size="10.00" fill="#000000">amr&#45;wind/equation_systems</text>
<text text-anchor="middle" x="85.6909" y="-63.5" font-family="Helvetica,sans-Serif" font-size="10.00" fill="#000000">/PDEFields.H</text>
</a>
</g>
</g>
<!-- Node29&#45;&gt;Node30 -->
<g id="edge41" class="edge">
<title>Node29&#45;&gt;Node30</title>
<path fill="none" stroke="#191970" d="M596.9213,-191.7169C593.803,-191.1306 590.7152,-190.5558 587.6909,-190 494.556,-172.8829 470.05,-174.9024 377.6909,-154 295.2438,-135.3408 201.4272,-107.6588 142.8886,-89.5967"/>
<polygon fill="#191970" stroke="#191970" points="143.6801,-86.1779 133.0922,-86.5621 141.6088,-92.8644 143.6801,-86.1779"/>
</g>
<!-- Node32 -->
<g id="node25" class="node">
<title>Node32</title>
<g id="a_node25"><a xlink:href="_sim_time_8_h.html" target="_top" xlink:title="amr&#45;wind/core/SimTime.H">
<polygon fill="#ffffff" stroke="#000000" points="173.1909,-62 173.1909,-81 304.1909,-81 304.1909,-62 173.1909,-62"/>
<text text-anchor="middle" x="238.6909" y="-69" font-family="Helvetica,sans-Serif" font-size="10.00" fill="#000000">amr&#45;wind/core/SimTime.H</text>
</a>
</g>
</g>
<!-- Node29&#45;&gt;Node32 -->
<g id="edge43" class="edge">
<title>Node29&#45;&gt;Node32</title>
<path fill="none" stroke="#191970" d="M596.883,-191.1307C529.2062,-177.0965 435.5988,-157.3679 427.6909,-154 405.0086,-144.34 403.6787,-134.1508 381.6909,-123 349.5868,-106.7188 311.092,-93.1656 282.1335,-84.0561"/>
<polygon fill="#191970" stroke="#191970" points="282.9019,-80.6303 272.3143,-81.0221 280.8354,-87.3184 282.9019,-80.6303"/>
</g>
<!-- Node36 -->
<g id="node29" class="node">
<title>Node36</title>
<g id="a_node29"><a xlink:href="_field_fill_patch_ops_8_h.html" target="_top" xlink:title="amr&#45;wind/core/FieldFillPatch\lOps.H">
<polygon fill="#ffffff" stroke="#ff0000" points="436.6909,-123.5 436.6909,-153.5 576.6909,-153.5 576.6909,-123.5 436.6909,-123.5"/>
<text text-anchor="start" x="444.6909" y="-141.5" font-family="Helvetica,sans-Serif" font-size="10.00" fill="#000000">amr&#45;wind/core/FieldFillPatch</text>
<text text-anchor="middle" x="506.6909" y="-130.5" font-family="Helvetica,sans-Serif" font-size="10.00" fill="#000000">Ops.H</text>
</a>
</g>
</g>
<!-- Node29&#45;&gt;Node36 -->
<g id="edge48" class="edge">
<title>Node29&#45;&gt;Node36</title>
<path fill="none" stroke="#191970" d="M630.7838,-190.4639C607.4998,-180.7137 576.9689,-167.9289 552.0176,-157.4805"/>
<polygon fill="#191970" stroke="#191970" points="553.3305,-154.2359 542.7547,-153.6017 550.6267,-160.6926 553.3305,-154.2359"/>
</g>
<!-- Node38 -->
<g id="node30" class="node">
<title>Node38</title>
<g id="a_node30"><a xlink:href="_field_b_c_ops_8_h.html" target="_top" xlink:title="amr&#45;wind/core/FieldBCOps.H">
<polygon fill="#ffffff" stroke="#ff0000" points="1147.1909,-129 1147.1909,-148 1292.1909,-148 1292.1909,-129 1147.1909,-129"/>
<text text-anchor="middle" x="1219.6909" y="-136" font-family="Helvetica,sans-Serif" font-size="10.00" fill="#000000">amr&#45;wind/core/FieldBCOps.H</text>
</a>
</g>
</g>
<!-- Node29&#45;&gt;Node38 -->
<g id="edge57" class="edge">
<title>Node29&#45;&gt;Node38</title>
<path fill="none" stroke="#191970" d="M736.4128,-196.6078C754.4127,-194.3798 773.7663,-192.0436 791.6909,-190 945.3037,-172.4863 984.711,-176.3774 1137.6909,-154 1145.9339,-152.7942 1154.6109,-151.3482 1163.1109,-149.8306"/>
<polygon fill="#191970" stroke="#191970" points="1163.7648,-153.2691 1172.9715,-148.0263 1162.5048,-146.3834 1163.7648,-153.2691"/>
</g>
<!-- Node31 -->
<g id="node24" class="node">
<title>Node31</title>
<polygon fill="#ffffff" stroke="#bfbfbf" points="63.1909,-.5 63.1909,-19.5 108.1909,-19.5 108.1909,-.5 63.1909,-.5"/>
<text text-anchor="middle" x="85.6909" y="-7.5" font-family="Helvetica,sans-Serif" font-size="10.00" fill="#000000">iosfwd</text>
</g>
<!-- Node30&#45;&gt;Node31 -->
<g id="edge42" class="edge">
<title>Node30&#45;&gt;Node31</title>
<path fill="none" stroke="#191970" d="M85.6909,-56.2977C85.6909,-48.3834 85.6909,-38.6043 85.6909,-30.0759"/>
<polygon fill="#191970" stroke="#191970" points="89.191,-29.8469 85.6909,-19.8469 82.191,-29.847 89.191,-29.8469"/>
</g>
<!-- Node33 -->
<g id="node26" class="node">
<title>Node33</title>
<polygon fill="#ffffff" stroke="#bfbfbf" points="407.1909,-.5 407.1909,-19.5 500.1909,-19.5 500.1909,-.5 407.1909,-.5"/>
<text text-anchor="middle" x="453.6909" y="-7.5" font-family="Helvetica,sans-Serif" font-size="10.00" fill="#000000">AMReX_REAL.H</text>
</g>
<!-- Node32&#45;&gt;Node33 -->
<g id="edge44" class="edge">
<title>Node32&#45;&gt;Node33</title>
<path fill="none" stroke="#191970" d="M272.2847,-61.8906C309.5992,-51.2169 369.9402,-33.9566 410.6796,-22.3033"/>
<polygon fill="#191970" stroke="#191970" points="411.6813,-25.6572 420.3331,-19.5419 409.7561,-18.9271 411.6813,-25.6572"/>
</g>
<!-- Node34 -->
<g id="node27" class="node">
<title>Node34</title>
<polygon fill="#ffffff" stroke="#bfbfbf" points="131.6909,-.5 131.6909,-19.5 257.6909,-19.5 257.6909,-.5 131.6909,-.5"/>
<text text-anchor="middle" x="194.6909" y="-7.5" font-family="Helvetica,sans-Serif" font-size="10.00" fill="#000000">AMReX_GpuQualifiers.H</text>
</g>
<!-- Node32&#45;&gt;Node34 -->
<g id="edge45" class="edge">
<title>Node32&#45;&gt;Node34</title>
<path fill="none" stroke="#191970" d="M231.8159,-61.8906C225.3316,-52.8273 215.4495,-39.0149 207.5109,-27.9188"/>
<polygon fill="#191970" stroke="#191970" points="210.328,-25.8412 201.6629,-19.7449 204.635,-29.9143 210.328,-25.8412"/>
</g>
<!-- Node35 -->
<g id="node28" class="node">
<title>Node35</title>
<polygon fill="#ffffff" stroke="#bfbfbf" points="275.6909,-.5 275.6909,-19.5 385.6909,-19.5 385.6909,-.5 275.6909,-.5"/>
<text text-anchor="middle" x="330.6909" y="-7.5" font-family="Helvetica,sans-Serif" font-size="10.00" fill="#000000">AMReX_Extension.H</text>
</g>
<!-- Node32&#45;&gt;Node35 -->
<g id="edge46" class="edge">
<title>Node32&#45;&gt;Node35</title>
<path fill="none" stroke="#191970" d="M253.0659,-61.8906C267.7841,-52.0519 290.8741,-36.6167 308.0499,-25.1351"/>
<polygon fill="#191970" stroke="#191970" points="310.0484,-28.0091 316.4169,-19.5419 306.1582,-22.1896 310.0484,-28.0091"/>
</g>
<!-- Node36&#45;&gt;Node12 -->
<g id="edge51" class="edge">
<title>Node36&#45;&gt;Node12</title>
<path fill="none" stroke="#191970" d="M528.6545,-123.4361C558.274,-104.0074 613.3592,-70.9413 665.6909,-56 864.159,.665 923.1022,-38.2698 1128.6909,-20 1131.4078,-19.7586 1134.1657,-19.5093 1136.9496,-19.2541"/>
<polygon fill="#191970" stroke="#191970" points="1137.4835,-22.7196 1147.1159,-18.3074 1136.8344,-15.7498 1137.4835,-22.7196"/>
</g>
<!-- Node36&#45;&gt;Node13 -->
<g id="edge52" class="edge">
<title>Node36&#45;&gt;Node13</title>
<path fill="none" stroke="#191970" d="M559.4295,-123.4639C601.3818,-111.503 659.3518,-94.9754 698.5614,-83.7965"/>
<polygon fill="#191970" stroke="#191970" points="699.6944,-87.113 708.3515,-81.0053 697.775,-80.3813 699.6944,-87.113"/>
</g>
<!-- Node36&#45;&gt;Node14 -->
<g id="edge54" class="edge">
<title>Node36&#45;&gt;Node14</title>
<path fill="none" stroke="#191970" d="M511.2607,-123.3972C517.912,-104.2451 532.2146,-71.816 556.6909,-56 609.7766,-21.6973 771.5662,-28.6376 850.3735,-19.9723"/>
<polygon fill="#191970" stroke="#191970" points="850.9827,-23.4234 860.4692,-18.7056 850.1112,-16.4779 850.9827,-23.4234"/>
</g>
<!-- Node36&#45;&gt;Node17 -->
<g id="edge49" class="edge">
<title>Node36&#45;&gt;Node17</title>
<path fill="none" stroke="#191970" d="M576.8245,-128.4414C592.2421,-126.4447 608.5001,-124.5035 623.6909,-123 866.5846,-98.9592 928.537,-108.2476 1171.6909,-87 1196.3342,-84.8466 1223.3324,-82.018 1247.1087,-79.3674"/>
<polygon fill="#191970" stroke="#191970" points="1247.5392,-82.8411 1257.0851,-78.2448 1246.7564,-75.885 1247.5392,-82.8411"/>
</g>
<!-- Node36&#45;&gt;Node26 -->
<g id="edge56" class="edge">
<title>Node36&#45;&gt;Node26</title>
<path fill="none" stroke="#191970" d="M504.1211,-123.4541C501.9003,-104.9697 501.3597,-73.871 518.6909,-56 543.8473,-30.06 636.6282,-18.6238 704.1999,-13.6654"/>
<polygon fill="#191970" stroke="#191970" points="704.6632,-17.1417 714.3944,-12.9519 704.1744,-10.1587 704.6632,-17.1417"/>
</g>
<!-- Node36&#45;&gt;Node27 -->
<g id="edge53" class="edge">
<title>Node36&#45;&gt;Node27</title>
<path fill="none" stroke="#191970" d="M477.292,-123.4639C455.2128,-112.1715 425.1748,-96.8086 403.4926,-85.7192"/>
<polygon fill="#191970" stroke="#191970" points="404.9656,-82.5414 394.4687,-81.1039 401.7781,-88.7736 404.9656,-82.5414"/>
</g>
<!-- Node36&#45;&gt;Node32 -->
<g id="edge50" class="edge">
<title>Node36&#45;&gt;Node32</title>
<path fill="none" stroke="#191970" d="M446.5465,-123.4639C398.1952,-111.3761 331.1869,-94.624 286.4601,-83.4423"/>
<polygon fill="#191970" stroke="#191970" points="287.2624,-80.0352 276.7121,-81.0053 285.5646,-86.8262 287.2624,-80.0352"/>
</g>
<!-- Node36&#45;&gt;Node33 -->
<g id="edge55" class="edge">
<title>Node36&#45;&gt;Node33</title>
<path fill="none" stroke="#191970" d="M498.4244,-123.4228C493.0298,-113.2848 486.0253,-99.5335 480.6909,-87 472.4873,-67.7251 464.7522,-45.0258 459.6816,-29.2896"/>
<polygon fill="#191970" stroke="#191970" points="462.98,-28.1119 456.6238,-19.6354 456.3067,-30.2255 462.98,-28.1119"/>
</g>
<!-- Node38&#45;&gt;Node12 -->
<g id="edge58" class="edge">
<title>Node38&#45;&gt;Node12</title>
<path fill="none" stroke="#191970" d="M1220.3674,-128.8416C1221.8333,-107.9114 1225.3288,-58.004 1227.2918,-29.9762"/>
<polygon fill="#191970" stroke="#191970" points="1230.7993,-29.9906 1228.0066,-19.7705 1223.8164,-29.5015 1230.7993,-29.9906"/>
</g>
<!-- Node38&#45;&gt;Node17 -->
<g id="edge59" class="edge">
<title>Node38&#45;&gt;Node17</title>
<path fill="none" stroke="#191970" d="M1233.1588,-128.9005C1248.5153,-117.9549 1273.8372,-99.9064 1291.9885,-86.9688"/>
<polygon fill="#191970" stroke="#191970" points="1294.1363,-89.736 1300.248,-81.0817 1290.0733,-84.0358 1294.1363,-89.736"/>
</g>
<!-- Node38&#45;&gt;Node19 -->
<g id="edge60" class="edge">
<title>Node38&#45;&gt;Node19</title>
<path fill="none" stroke="#191970" d="M1285.6026,-128.9716C1303.1483,-126.7132 1322.1112,-124.5214 1339.6909,-123 1700.4738,-91.7773 1798.5139,-157.6289 2153.6909,-87 2221.4589,-73.524 2296.5245,-42.0436 2336.6325,-23.7806"/>
<polygon fill="#191970" stroke="#191970" points="2338.1983,-26.9128 2345.8168,-19.5502 2335.2697,-20.5549 2338.1983,-26.9128"/>
</g>
<!-- Node38&#45;&gt;Node26 -->
<g id="edge61" class="edge">
<title>Node38&#45;&gt;Node26</title>
<path fill="none" stroke="#191970" d="M1169.8373,-128.9973C1159.2298,-126.9975 1148.0926,-124.9145 1137.6909,-123 1048.4354,-106.5716 1022.9705,-115.1473 936.6909,-87 887.4784,-70.9452 834.1077,-42.3561 803.6997,-24.8946"/>
<polygon fill="#191970" stroke="#191970" points="805.0729,-21.6446 794.6682,-19.6463 801.5558,-27.6969 805.0729,-21.6446"/>
</g>
<!-- Node41&#45;&gt;Node3 -->
<g id="edge63" class="edge">
<title>Node41&#45;&gt;Node3</title>
<path fill="none" stroke="#191970" d="M1613.4918,-391.3752C1600.1715,-374.1729 1583.3358,-345.6662 1596.6909,-324 1684.9249,-180.8563 1796.317,-249.5406 1934.6909,-154 1979.3841,-123.1415 2043.608,-96.7393 2007.6909,-56 1965.4747,-8.1157 1785.7342,-30.0329 1722.6909,-20 1715.737,-18.8933 1708.2894,-17.5537 1701.2659,-16.2196"/>
<polygon fill="#191970" stroke="#191970" points="1701.8706,-12.7717 1691.3861,-14.2967 1700.5332,-19.6428 1701.8706,-12.7717"/>
</g>
<!-- Node42 -->
<g id="node32" class="node">
<title>Node42</title>
<g id="a_node32"><a xlink:href="_c_f_d_sim_8_h.html" target="_top" xlink:title="amr&#45;wind/CFDSim.H">
<polygon fill="#ffffff" stroke="#ff0000" points="470.6909,-196 470.6909,-215 578.6909,-215 578.6909,-196 470.6909,-196"/>
<text text-anchor="middle" x="524.6909" y="-203" font-family="Helvetica,sans-Serif" font-size="10.00" fill="#000000">amr&#45;wind/CFDSim.H</text>
</a>
</g>
</g>
<!-- Node41&#45;&gt;Node42 -->
<g id="edge64" class="edge">
<title>Node41&#45;&gt;Node42</title>
<path fill="none" stroke="#191970" d="M1556.9591,-399.9842C1473.0484,-391.6841 1328.0406,-375.8753 1204.6909,-355 964.8783,-314.4149 681.9446,-245.2677 571.8356,-217.5324"/>
<polygon fill="#191970" stroke="#191970" points="572.5877,-214.1126 562.0351,-215.0581 570.8741,-220.8996 572.5877,-214.1126"/>
</g>
<!-- Node43 -->
<g id="node33" class="node">
<title>Node43</title>
<g id="a_node33"><a xlink:href="_p_d_e_base_8_h.html" target="_top" xlink:title="amr&#45;wind/equation_systems\l/PDEBase.H">
<polygon fill="#ffffff" stroke="#ff0000" points="990.1909,-123.5 990.1909,-153.5 1129.1909,-153.5 1129.1909,-123.5 990.1909,-123.5"/>
<text text-anchor="start" x="998.1909" y="-141.5" font-family="Helvetica,sans-Serif" font-size="10.00" fill="#000000">amr&#45;wind/equation_systems</text>
<text text-anchor="middle" x="1059.6909" y="-130.5" font-family="Helvetica,sans-Serif" font-size="10.00" fill="#000000">/PDEBase.H</text>
</a>
</g>
</g>
<!-- Node41&#45;&gt;Node43 -->
<g id="edge74" class="edge">
<title>Node41&#45;&gt;Node43</title>
<path fill="none" stroke="#191970" d="M1594.582,-391.3233C1497.7075,-345.5343 1208.4022,-208.7903 1100.6935,-157.8804"/>
<polygon fill="#191970" stroke="#191970" points="1101.9844,-154.6193 1091.4477,-153.5103 1098.993,-160.948 1101.9844,-154.6193"/>
</g>
<!-- Node46 -->
<g id="node34" class="node">
<title>Node46</title>
<g id="a_node34"><a xlink:href="_p_d_e_ops_8_h.html" target="_top" xlink:title="amr&#45;wind/equation_systems\l/PDEOps.H">
<polygon fill="#ffffff" stroke="#000000" points="1742.1909,-257.5 1742.1909,-287.5 1881.1909,-287.5 1881.1909,-257.5 1742.1909,-257.5"/>
<text text-anchor="start" x="1750.1909" y="-275.5" font-family="Helvetica,sans-Serif" font-size="10.00" fill="#000000">amr&#45;wind/equation_systems</text>
<text text-anchor="middle" x="1811.6909" y="-264.5" font-family="Helvetica,sans-Serif" font-size="10.00" fill="#000000">/PDEOps.H</text>
</a>
</g>
</g>
<!-- Node41&#45;&gt;Node46 -->
<g id="edge75" class="edge">
<title>Node41&#45;&gt;Node46</title>
<path fill="none" stroke="#191970" d="M1696.3187,-403.8368C1771.6916,-399.3182 1884.7722,-387.2189 1911.6909,-355 1932.5317,-330.0557 1898.0316,-306.9993 1863.9987,-291.6395"/>
<polygon fill="#191970" stroke="#191970" points="1865.0264,-288.2708 1854.4584,-287.5162 1862.2492,-294.6963 1865.0264,-288.2708"/>
</g>
<!-- Node51 -->
<g id="node38" class="node">
<title>Node51</title>
<g id="a_node38"><a xlink:href="_comp_r_h_s_ops_8_h.html" target="_top" xlink:title="amr&#45;wind/equation_systems\l/CompRHSOps.H">
<polygon fill="#ffffff" stroke="#000000" points="1606.1909,-324.5 1606.1909,-354.5 1745.1909,-354.5 1745.1909,-324.5 1606.1909,-324.5"/>
<text text-anchor="start" x="1614.1909" y="-342.5" font-family="Helvetica,sans-Serif" font-size="10.00" fill="#000000">amr&#45;wind/equation_systems</text>
<text text-anchor="middle" x="1675.6909" y="-331.5" font-family="Helvetica,sans-Serif" font-size="10.00" fill="#000000">/CompRHSOps.H</text>
</a>
</g>
</g>
<!-- Node41&#45;&gt;Node51 -->
<g id="edge87" class="edge">
<title>Node41&#45;&gt;Node51</title>
<path fill="none" stroke="#191970" d="M1637.8098,-391.2967C1643.9494,-382.9016 1651.7064,-372.2952 1658.5996,-362.8698"/>
<polygon fill="#191970" stroke="#191970" points="1661.5379,-364.781 1664.6161,-354.6432 1655.8877,-360.6488 1661.5379,-364.781"/>
</g>
<!-- Node52 -->
<g id="node39" class="node">
<title>Node52</title>
<g id="a_node39"><a xlink:href="_diffusion_ops_8_h.html" target="_top" xlink:title="amr&#45;wind/equation_systems\l/DiffusionOps.H">
<polygon fill="#ffffff" stroke="#ff0000" points="1763.1909,-324.5 1763.1909,-354.5 1902.1909,-354.5 1902.1909,-324.5 1763.1909,-324.5"/>
<text text-anchor="start" x="1771.1909" y="-342.5" font-family="Helvetica,sans-Serif" font-size="10.00" fill="#000000">amr&#45;wind/equation_systems</text>
<text text-anchor="middle" x="1832.6909" y="-331.5" font-family="Helvetica,sans-Serif" font-size="10.00" fill="#000000">/DiffusionOps.H</text>
</a>
</g>
</g>
<!-- Node41&#45;&gt;Node52 -->
<g id="edge91" class="edge">
<title>Node41&#45;&gt;Node52</title>
<path fill="none" stroke="#191970" d="M1672.9213,-391.4639C1703.5598,-381.499 1743.9442,-368.3642 1776.445,-357.7936"/>
<polygon fill="#191970" stroke="#191970" points="1777.8318,-361.0231 1786.2589,-354.6017 1775.6666,-354.3663 1777.8318,-361.0231"/>
</g>
<!-- Node42&#45;&gt;Node16 -->
<g id="edge67" class="edge">
<title>Node42&#45;&gt;Node16</title>
<path fill="none" stroke="#191970" d="M558.4595,-195.9348C567.8525,-193.6189 578.107,-191.4078 587.6909,-190 901.615,-143.8886 984.7298,-183.0363 1300.6909,-154 1314.2855,-152.7507 1328.7349,-151.0894 1342.6539,-149.3185"/>
<polygon fill="#191970" stroke="#191970" points="1343.2111,-152.7756 1352.6756,-148.0139 1342.3074,-145.8341 1343.2111,-152.7756"/>
</g>
<!-- Node42&#45;&gt;Node27 -->
<g id="edge65" class="edge">
<title>Node42&#45;&gt;Node27</title>
<path fill="none" stroke="#191970" d="M498.508,-195.9868C477.5608,-187.4115 448.372,-173.1985 427.6909,-154 407.9952,-135.7163 392.7323,-108.3887 383.9773,-90.2615"/>
<polygon fill="#191970" stroke="#191970" points="387.0748,-88.6213 379.6929,-81.0214 380.7242,-91.5659 387.0748,-88.6213"/>
</g>
<!-- Node42&#45;&gt;Node32 -->
<g id="edge66" class="edge">
<title>Node42&#45;&gt;Node32</title>
<path fill="none" stroke="#191970" d="M499.3094,-195.8843C473.662,-185.9914 433.0273,-169.8322 398.6909,-154 350.8507,-131.9413 296.6426,-103.1635 265.1936,-86.0785"/>
<polygon fill="#191970" stroke="#191970" points="266.6517,-82.887 256.1965,-81.1721 263.3002,-89.0326 266.6517,-82.887"/>
</g>
<!-- Node42&#45;&gt;Node43 -->
<g id="edge68" class="edge">
<title>Node42&#45;&gt;Node43</title>
<path fill="none" stroke="#191970" d="M559.8351,-195.9803C568.8633,-193.7758 578.5957,-191.6077 587.6909,-190 724.5527,-165.8073 885.8786,-151.1425 980.0758,-143.9494"/>
<polygon fill="#191970" stroke="#191970" points="980.3927,-147.4355 990.1009,-143.1928 979.8658,-140.4554 980.3927,-147.4355"/>
</g>
<!-- Node43&#45;&gt;Node3 -->
<g id="edge69" class="edge">
<title>Node43&#45;&gt;Node3</title>
<path fill="none" stroke="#191970" d="M1129.4012,-124.4755C1132.199,-123.9671 1134.9705,-123.4732 1137.6909,-123 1244.3883,-104.4405 1273.8896,-114.3035 1378.6909,-87 1416.3942,-77.1773 1423.3398,-67.0868 1460.6909,-56 1523.5579,-37.3395 1599.0531,-22.6248 1640.2268,-15.23"/>
<polygon fill="#191970" stroke="#191970" points="1640.9326,-18.6595 1650.168,-13.4675 1639.7105,-11.767 1640.9326,-18.6595"/>
</g>
<!-- Node43&#45;&gt;Node6 -->
<g id="edge70" class="edge">
<title>Node43&#45;&gt;Node6</title>
<path fill="none" stroke="#191970" d="M1129.3526,-124.152C1132.1639,-123.7331 1134.9514,-123.3463 1137.6909,-123 1424.7381,-86.7137 1499.2809,-110.0753 1787.6909,-87 1812.2525,-85.0349 1839.0553,-82.3826 1863.02,-79.8279"/>
<polygon fill="#191970" stroke="#191970" points="1863.5348,-83.2928 1873.1021,-78.7413 1862.7846,-76.3331 1863.5348,-83.2928"/>
</g>
<!-- Node43&#45;&gt;Node12 -->
<g id="edge72" class="edge">
<title>Node43&#45;&gt;Node12</title>
<path fill="none" stroke="#191970" d="M1105.7032,-123.4035C1127.1921,-114.9032 1152.2565,-102.7891 1171.6909,-87 1191.7624,-70.6933 1208.4792,-45.7904 1218.5122,-28.7486"/>
<polygon fill="#191970" stroke="#191970" points="1221.7289,-30.1718 1223.6219,-19.7475 1215.6413,-26.716 1221.7289,-30.1718"/>
</g>
<!-- Node43&#45;&gt;Node20 -->
<g id="edge73" class="edge">
<title>Node43&#45;&gt;Node20</title>
<path fill="none" stroke="#191970" d="M1037.5795,-123.3604C1026.3454,-114.2809 1013.8043,-101.6588 1007.6909,-87 1002.3877,-74.2838 1002.2833,-68.6722 1007.6909,-56 1012.8065,-44.0122 1022.7485,-33.6498 1032.2636,-25.8114"/>
<polygon fill="#191970" stroke="#191970" points="1034.5706,-28.4532 1040.3835,-19.5954 1030.3156,-22.8949 1034.5706,-28.4532"/>
</g>
<!-- Node43&#45;&gt;Node30 -->
<g id="edge71" class="edge">
<title>Node43&#45;&gt;Node30</title>
<path fill="none" stroke="#191970" d="M990.1083,-135.0587C800.1417,-125.5876 279.7173,-99.1077 165.396,-87.0012"/>
<polygon fill="#191970" stroke="#191970" points="165.6892,-83.5119 155.3535,-85.8408 164.8856,-90.4656 165.6892,-83.5119"/>
</g>
<!-- Node46&#45;&gt;Node13 -->
<g id="edge76" class="edge">
<title>Node46&#45;&gt;Node13</title>
<path fill="none" stroke="#191970" d="M1741.8565,-270.0259C1514.7516,-261.8464 810.6361,-235.3797 791.6909,-221 750.9348,-190.0656 743.0402,-124.5798 741.7463,-91.507"/>
<polygon fill="#191970" stroke="#191970" points="745.2403,-91.1907 741.5209,-81.2702 738.242,-91.3449 745.2403,-91.1907"/>
</g>
<!-- Node46&#45;&gt;Node29 -->
<g id="edge77" class="edge">
<title>Node46&#45;&gt;Node29</title>
<path fill="none" stroke="#191970" d="M1742.1006,-261.4195C1729.3514,-259.7009 1716.142,-258.1255 1703.6909,-257 1281.5545,-218.8404 1171.9815,-267.5786 750.6909,-221 749.2169,-220.837 747.73,-220.6632 746.2332,-220.4794"/>
<polygon fill="#191970" stroke="#191970" points="746.6252,-217.0007 736.2479,-219.1362 745.6919,-223.9383 746.6252,-217.0007"/>
</g>
<!-- Node46&#45;&gt;Node42 -->
<g id="edge85" class="edge">
<title>Node46&#45;&gt;Node42</title>
<path fill="none" stroke="#191970" d="M1741.8565,-271.3905C1516.9373,-267.5296 812.9879,-253.1274 587.6909,-221 581.3245,-220.0921 574.6642,-218.8183 568.1578,-217.3868"/>
<polygon fill="#191970" stroke="#191970" points="568.6591,-213.9096 558.1245,-215.0376 567.0632,-220.7253 568.6591,-213.9096"/>
</g>
<!-- Node47 -->
<g id="node35" class="node">
<title>Node47</title>
<g id="a_node35"><a xlink:href="_turbulence_model_8_h.html" target="_top" xlink:title="amr&#45;wind/turbulence\l/TurbulenceModel.H">
<polygon fill="#ffffff" stroke="#000000" points="1821.6909,-123.5 1821.6909,-153.5 1925.6909,-153.5 1925.6909,-123.5 1821.6909,-123.5"/>
<text text-anchor="start" x="1829.6909" y="-141.5" font-family="Helvetica,sans-Serif" font-size="10.00" fill="#000000">amr&#45;wind/turbulence</text>
<text text-anchor="middle" x="1873.6909" y="-130.5" font-family="Helvetica,sans-Serif" font-size="10.00" fill="#000000">/TurbulenceModel.H</text>
</a>
</g>
</g>
<!-- Node46&#45;&gt;Node47 -->
<g id="edge78" class="edge">
<title>Node46&#45;&gt;Node47</title>
<path fill="none" stroke="#191970" d="M1818.6826,-257.389C1829.2878,-234.4681 1849.552,-190.6712 1862.3035,-163.1116"/>
<polygon fill="#191970" stroke="#191970" points="1865.6069,-164.3068 1866.6297,-153.7614 1859.254,-161.3673 1865.6069,-164.3068"/>
</g>
<!-- Node48 -->
<g id="node36" class="node">
<title>Node48</title>
<g id="a_node36"><a xlink:href="_i_o_manager_8_h.html" target="_top" xlink:title="amr&#45;wind/utilities\l/IOManager.H">
<polygon fill="#ffffff" stroke="#ff0000" points="2054.6909,-56.5 2054.6909,-86.5 2144.6909,-86.5 2144.6909,-56.5 2054.6909,-56.5"/>
<text text-anchor="start" x="2062.6909" y="-74.5" font-family="Helvetica,sans-Serif" font-size="10.00" fill="#000000">amr&#45;wind/utilities</text>
<text text-anchor="middle" x="2099.6909" y="-63.5" font-family="Helvetica,sans-Serif" font-size="10.00" fill="#000000">/IOManager.H</text>
</a>
</g>
</g>
<!-- Node46&#45;&gt;Node48 -->
<g id="edge82" class="edge">
<title>Node46&#45;&gt;Node48</title>
<path fill="none" stroke="#191970" d="M1839.4538,-257.3701C1877.7945,-236.0528 1948.5748,-195.1621 2004.6909,-154 2030.4289,-135.1208 2057.7367,-110.9145 2076.4364,-93.6136"/>
<polygon fill="#191970" stroke="#191970" points="2078.9686,-96.0379 2083.8938,-86.6574 2074.1939,-90.9191 2078.9686,-96.0379"/>
</g>
<!-- Node50 -->
<g id="node37" class="node">
<title>Node50</title>
<polygon fill="#ffffff" stroke="#bfbfbf" points="2376.6909,-196 2376.6909,-215 2492.6909,-215 2492.6909,-196 2376.6909,-196"/>
<text text-anchor="middle" x="2434.6909" y="-203" font-family="Helvetica,sans-Serif" font-size="10.00" fill="#000000">AMReX_ParmParse.H</text>
</g>
<!-- Node46&#45;&gt;Node50 -->
<g id="edge86" class="edge">
<title>Node46&#45;&gt;Node50</title>
<path fill="none" stroke="#191970" d="M1881.4066,-258.3823C1884.5395,-257.8865 1887.6452,-257.4223 1890.6909,-257 2084.6017,-230.1123 2135.1998,-243.3062 2329.6909,-221 2341.5617,-219.6385 2354.1555,-217.9723 2366.3444,-216.2431"/>
<polygon fill="#191970" stroke="#191970" points="2367.0665,-219.6752 2376.4632,-214.781 2366.0654,-212.7471 2367.0665,-219.6752"/>
</g>
<!-- Node47&#45;&gt;Node6 -->
<g id="edge80" class="edge">
<title>Node47&#45;&gt;Node6</title>
<path fill="none" stroke="#191970" d="M1887.7597,-123.2967C1897.3258,-112.9591 1909.9948,-99.2684 1919.9052,-88.5588"/>
<polygon fill="#191970" stroke="#191970" points="1922.626,-90.7718 1926.849,-81.055 1917.4882,-86.0175 1922.626,-90.7718"/>
</g>
<!-- Node47&#45;&gt;Node8 -->
<g id="edge79" class="edge">
<title>Node47&#45;&gt;Node8</title>
<path fill="none" stroke="#191970" d="M1925.8484,-136.5998C1998.7125,-132.724 2125.2624,-121.1342 2153.6909,-87 2162.5082,-76.4131 2162.3695,-66.7009 2153.6909,-56 2133.1771,-30.7058 2045.3293,-18.7847 1987.604,-13.5877"/>
<polygon fill="#191970" stroke="#191970" points="1987.8164,-10.0931 1977.5531,-12.7228 1987.2162,-17.0673 1987.8164,-10.0931"/>
</g>
<!-- Node47&#45;&gt;Node12 -->
<g id="edge81" class="edge">
<title>Node47&#45;&gt;Node12</title>
<path fill="none" stroke="#191970" d="M1821.5093,-127.2219C1775.2232,-117.0969 1705.8246,-101.6198 1645.6909,-87 1592.5839,-74.0885 1580.2117,-67.0721 1526.6909,-56 1455.6971,-41.3132 1374.3051,-29.0548 1314.5414,-20.8955"/>
<polygon fill="#191970" stroke="#191970" points="1314.7718,-17.3948 1304.3925,-19.5209 1313.8322,-24.3315 1314.7718,-17.3948"/>
</g>
<!-- Node48&#45;&gt;Node3 -->
<g id="edge83" class="edge">
<title>Node48&#45;&gt;Node3</title>
<path fill="none" stroke="#191970" d="M2054.4223,-58.9031C2049.8046,-57.8299 2045.1673,-56.8369 2040.6909,-56 1900.8771,-29.8617 1863.3009,-41.4465 1722.6909,-20 1715.73,-18.9383 1708.2795,-17.6167 1701.2556,-16.2858"/>
<polygon fill="#191970" stroke="#191970" points="1701.8617,-12.8382 1691.3765,-14.3584 1700.5212,-19.7086 1701.8617,-12.8382"/>
</g>
<!-- Node48&#45;&gt;Node8 -->
<g id="edge84" class="edge">
<title>Node48&#45;&gt;Node8</title>
<path fill="none" stroke="#191970" d="M2059.572,-56.4554C2032.3282,-46.239 1996.6533,-32.8609 1970.5871,-23.0861"/>
<polygon fill="#191970" stroke="#191970" points="1971.6974,-19.7645 1961.1051,-19.5303 1969.2394,-26.3188 1971.6974,-19.7645"/>
</g>
<!-- Node51&#45;&gt;Node20 -->
<g id="edge88" class="edge">
<title>Node51&#45;&gt;Node20</title>
<path fill="none" stroke="#191970" d="M1605.9742,-338.6964C1399.5262,-335.9162 793.66,-324.764 599.6909,-288 326.2747,-236.1779 168.8358,-313.1659 6.6909,-87 -1.3368,-75.8026 -2.8685,-65.9219 6.6909,-56 43.9908,-17.2857 920.1003,-24.2577 973.6909,-20 976.1928,-19.8012 978.7358,-19.5829 981.3027,-19.3486"/>
<polygon fill="#191970" stroke="#191970" points="981.6723,-22.8293 991.2847,-18.3735 980.9917,-15.8624 981.6723,-22.8293"/>
</g>
<!-- Node51&#45;&gt;Node28 -->
<g id="edge90" class="edge">
<title>Node51&#45;&gt;Node28</title>
<path fill="none" stroke="#191970" d="M1741.4458,-324.4639C1786.4174,-314.1803 1846.1518,-300.5209 1893.0904,-289.7875"/>
<polygon fill="#191970" stroke="#191970" points="1893.9343,-293.1849 1902.9025,-287.5438 1892.3739,-286.3611 1893.9343,-293.1849"/>
</g>
<!-- Node51&#45;&gt;Node46 -->
<g id="edge89" class="edge">
<title>Node51&#45;&gt;Node46</title>
<path fill="none" stroke="#191970" d="M1706.212,-324.4639C1725.5864,-314.9191 1750.8639,-302.4663 1771.8166,-292.144"/>
<polygon fill="#191970" stroke="#191970" points="1773.3774,-295.2768 1780.8012,-287.7177 1770.2839,-288.9974 1773.3774,-295.2768"/>
</g>
<!-- Node52&#45;&gt;Node2 -->
<g id="edge92" class="edge">
<title>Node52&#45;&gt;Node2</title>
<path fill="none" stroke="#191970" d="M1902.1924,-329.9235C1968.7311,-320.539 2072.1847,-305.3851 2170.8342,-288.2859"/>
<polygon fill="#191970" stroke="#191970" points="2171.7291,-291.6827 2180.9794,-286.5174 2170.5269,-284.7867 2171.7291,-291.6827"/>
</g>
<!-- Node52&#45;&gt;Node27 -->
<g id="edge96" class="edge">
<title>Node52&#45;&gt;Node27</title>
<path fill="none" stroke="#191970" d="M1762.9903,-325.2668C1759.8534,-324.8023 1756.7427,-324.3763 1753.6909,-324 1445.8313,-286.0434 1365.8427,-313.3665 1056.6909,-288 924.0787,-277.1189 580.6719,-280.5645 461.6909,-221 425.1409,-202.7022 418.7611,-189.6076 398.6909,-154 387.5511,-134.2363 381.52,-108.7251 378.465,-91.3381"/>
<polygon fill="#191970" stroke="#191970" points="381.885,-90.5569 376.8634,-81.2276 374.9712,-91.6521 381.885,-90.5569"/>
</g>
<!-- Node52&#45;&gt;Node28 -->
<g id="edge93" class="edge">
<title>Node52&#45;&gt;Node28</title>
<path fill="none" stroke="#191970" d="M1863.212,-324.4639C1882.5864,-314.9191 1907.8639,-302.4663 1928.8166,-292.144"/>
<polygon fill="#191970" stroke="#191970" points="1930.3774,-295.2768 1937.8012,-287.7177 1927.2839,-288.9974 1930.3774,-295.2768"/>
</g>
<!-- Node52&#45;&gt;Node29 -->
<g id="edge95" class="edge">
<title>Node52&#45;&gt;Node29</title>
<path fill="none" stroke="#191970" d="M1762.964,-325.4605C1759.8342,-324.9436 1756.7322,-324.4535 1753.6909,-324 1310.4702,-257.9032 1194.2771,-284.5981 750.6909,-221 749.223,-220.7895 747.7415,-220.5719 746.2499,-220.3479"/>
<polygon fill="#191970" stroke="#191970" points="746.7136,-216.8779 736.2922,-218.7871 745.6295,-223.7935 746.7136,-216.8779"/>
</g>
<!-- Node52&#45;&gt;Node46 -->
<g id="edge94" class="edge">
<title>Node52&#45;&gt;Node46</title>
<path fill="none" stroke="#191970" d="M1827.9257,-324.2967C1825.4287,-316.3299 1822.3074,-306.3718 1819.4707,-297.3213"/>
<polygon fill="#191970" stroke="#191970" points="1822.768,-296.1386 1816.4373,-287.6432 1816.0884,-298.2323 1822.768,-296.1386"/>
</g>
<!-- Node58&#45;&gt;Node14 -->
<g id="edge99" class="edge">
<title>Node58&#45;&gt;Node14</title>
<path fill="none" stroke="#191970" d="M672.8451,-123.2976C662.5125,-105.2275 649.8024,-75.1207 665.6909,-56 668.6779,-52.4054 778.4347,-32.9959 850.6198,-20.5652"/>
<polygon fill="#191970" stroke="#191970" points="851.2785,-24.0034 860.5411,-18.8599 850.0927,-17.1046 851.2785,-24.0034"/>
</g>
<!-- Node58&#45;&gt;Node17 -->
<g id="edge98" class="edge">
<title>Node58&#45;&gt;Node17</title>
<path fill="none" stroke="#191970" d="M732.3275,-133.3353C820.6838,-124.1277 1011.0579,-104.2256 1171.6909,-87 1196.2871,-84.3624 1223.2749,-81.427 1247.0561,-78.8263"/>
<polygon fill="#191970" stroke="#191970" points="1247.4756,-82.3014 1257.0354,-77.734 1246.7139,-75.3429 1247.4756,-82.3014"/>
</g>
<!-- Node59&#45;&gt;Node6 -->
<g id="edge101" class="edge">
<title>Node59&#45;&gt;Node6</title>
<path fill="none" stroke="#191970" d="M940.5485,-202.056C1056.0422,-195.8403 1293.8928,-180.8332 1493.6909,-154 1567.3477,-144.1078 1775.9573,-103.2904 1878.0192,-83.0239"/>
<polygon fill="#191970" stroke="#191970" points="1878.7259,-86.452 1887.8517,-81.0696 1877.3612,-79.5863 1878.7259,-86.452"/>
</g>
<!-- Node59&#45;&gt;Node12 -->
<g id="edge102" class="edge">
<title>Node59&#45;&gt;Node12</title>
<path fill="none" stroke="#191970" d="M879.8559,-190.3341C899.2687,-159.6241 947.7115,-90.1119 1007.6909,-56 1031.8137,-42.2807 1096.8823,-29.6627 1150.2105,-21.1263"/>
<polygon fill="#191970" stroke="#191970" points="1151.0274,-24.5408 1160.361,-19.5274 1149.9382,-17.6261 1151.0274,-24.5408"/>
</g>
<!-- Node59&#45;&gt;Node13 -->
<g id="edge103" class="edge">
<title>Node59&#45;&gt;Node13</title>
<path fill="none" stroke="#191970" d="M856.1437,-190.389C831.8995,-165.2051 783.394,-114.8195 758.0173,-88.4592"/>
<polygon fill="#191970" stroke="#191970" points="760.3936,-85.881 750.9367,-81.1042 755.3507,-90.7358 760.3936,-85.881"/>
</g>
<!-- Node59&#45;&gt;Node14 -->
<g id="edge105" class="edge">
<title>Node59&#45;&gt;Node14</title>
<path fill="none" stroke="#191970" d="M801.041,-195.5319C732.0088,-184.9418 634.9513,-167.8504 623.6909,-154 614.9995,-143.3095 620.7289,-136.4556 623.6909,-123 630.7447,-90.9565 628.7093,-76.0374 654.6909,-56 658.5889,-52.9938 775.1858,-33.0197 850.2846,-20.3998"/>
<polygon fill="#191970" stroke="#191970" points="851.3071,-23.7772 860.5899,-18.6704 850.1485,-16.8737 851.3071,-23.7772"/>
</g>
<!-- Node59&#45;&gt;Node16 -->
<g id="edge104" class="edge">
<title>Node59&#45;&gt;Node16</title>
<path fill="none" stroke="#191970" d="M940.4753,-199.4277C1031.4574,-191.128 1195.4198,-174.8607 1334.6909,-154 1342.7383,-152.7946 1351.2015,-151.3721 1359.5107,-149.8857"/>
<polygon fill="#191970" stroke="#191970" points="1360.3252,-153.2949 1369.5315,-148.0513 1359.0647,-146.4093 1360.3252,-153.2949"/>
</g>
<!-- Node60&#45;&gt;Node2 -->
<g id="edge111" class="edge">
<title>Node60&#45;&gt;Node2</title>
<path fill="none" stroke="#191970" d="M2424.4209,-324.4639C2390.8182,-314.4131 2346.4343,-301.1375 2310.9395,-290.5208"/>
<polygon fill="#191970" stroke="#191970" points="2311.7638,-287.1142 2301.1801,-287.6017 2309.7578,-293.8206 2311.7638,-287.1142"/>
</g>
<!-- Node60&#45;&gt;Node19 -->
<g id="edge113" class="edge">
<title>Node60&#45;&gt;Node19</title>
<path fill="none" stroke="#191970" d="M2544.2265,-330.6741C2598.4098,-322.3855 2667.6916,-308.218 2687.6909,-288 2714.1518,-261.2498 2706.6909,-243.1265 2706.6909,-205.5 2706.6909,-205.5 2706.6909,-205.5 2706.6909,-138.5 2706.6909,-77.6878 2514.3884,-35.7444 2418.6053,-18.6248"/>
<polygon fill="#191970" stroke="#191970" points="2418.9888,-15.1385 2408.5335,-16.8525 2417.7757,-22.0326 2418.9888,-15.1385"/>
</g>
<!-- Node60&#45;&gt;Node28 -->
<g id="edge110" class="edge">
<title>Node60&#45;&gt;Node28</title>
<path fill="none" stroke="#191970" d="M2404.8265,-326.4671C2399.3743,-325.5849 2393.9476,-324.7502 2388.6909,-324 2241.063,-302.9324 2200.1355,-310.3533 2048.5655,-288.0418"/>
<polygon fill="#191970" stroke="#191970" points="2048.8264,-284.5421 2038.4195,-286.5286 2047.7938,-291.4655 2048.8264,-284.5421"/>
</g>
<!-- Node60&#45;&gt;Node46 -->
<g id="edge112" class="edge">
<title>Node60&#45;&gt;Node46</title>
<path fill="none" stroke="#191970" d="M2404.8526,-326.2729C2399.3945,-325.4349 2393.9592,-324.6633 2388.6909,-324 2171.7433,-296.6863 2112.3738,-316.808 1891.3664,-287.9733"/>
<polygon fill="#191970" stroke="#191970" points="1891.7744,-284.4969 1881.4016,-286.6546 1890.8559,-291.4364 1891.7744,-284.4969"/>
</g>
<!-- Node60&#45;&gt;Node50 -->
<g id="edge114" class="edge">
<title>Node60&#45;&gt;Node50</title>
<path fill="none" stroke="#191970" d="M2494.4157,-324.3632C2513.3913,-307.8685 2537.3396,-280.6668 2523.6909,-257 2513.5324,-239.385 2494.7939,-227.2497 2477.1218,-219.205"/>
<polygon fill="#191970" stroke="#191970" points="2478.0498,-215.7984 2467.475,-215.1478 2475.336,-222.2509 2478.0498,-215.7984"/>
</g>
<!-- Node61 -->
<g id="node43" class="node">
<title>Node61</title>
<polygon fill="#ffffff" stroke="#bfbfbf" points="2452.6909,-263 2452.6909,-282 2514.6909,-282 2514.6909,-263 2452.6909,-263"/>
<text text-anchor="middle" x="2483.6909" y="-270" font-family="Helvetica,sans-Serif" font-size="10.00" fill="#000000">type_traits</text>
</g>
<!-- Node60&#45;&gt;Node61 -->
<g id="edge107" class="edge">
<title>Node60&#45;&gt;Node61</title>
<path fill="none" stroke="#191970" d="M2476.7332,-324.2967C2478.0129,-314.7699 2479.6751,-302.3954 2481.054,-292.1306"/>
<polygon fill="#191970" stroke="#191970" points="2484.5449,-292.4319 2482.4074,-282.055 2477.6072,-291.5 2484.5449,-292.4319"/>
</g>
<!-- Node62 -->
<g id="node44" class="node">
<title>Node62</title>
<g id="a_node44"><a xlink:href="_godunov_8_h.html" target="_top" xlink:title="amr&#45;wind/convection\l/Godunov.H">
<polygon fill="#ffffff" stroke="#000000" points="2571.1909,-257.5 2571.1909,-287.5 2678.1909,-287.5 2678.1909,-257.5 2571.1909,-257.5"/>
<text text-anchor="start" x="2579.1909" y="-275.5" font-family="Helvetica,sans-Serif" font-size="10.00" fill="#000000">amr&#45;wind/convection</text>
<text text-anchor="middle" x="2624.6909" y="-264.5" font-family="Helvetica,sans-Serif" font-size="10.00" fill="#000000">/Godunov.H</text>
</a>
</g>
</g>
<!-- Node60&#45;&gt;Node62 -->
<g id="edge108" class="edge">
<title>Node60&#45;&gt;Node62</title>
<path fill="none" stroke="#191970" d="M2508.3538,-324.4639C2529.9903,-314.7996 2558.3015,-302.154 2581.5777,-291.7572"/>
<polygon fill="#191970" stroke="#191970" points="2583.178,-294.8758 2590.8812,-287.6017 2580.3232,-288.4844 2583.178,-294.8758"/>
</g>
<!-- Node62&#45;&gt;Node16 -->
<g id="edge109" class="edge">
<title>Node62&#45;&gt;Node16</title>
<path fill="none" stroke="#191970" d="M2608.3738,-257.1886C2586.2061,-237.4858 2544.4164,-204.1171 2501.6909,-190 2477.8189,-182.1123 1740.4143,-151.613 1495.1484,-141.6606"/>
<polygon fill="#191970" stroke="#191970" points="1495.0216,-138.1526 1484.8879,-141.2445 1494.7379,-145.1469 1495.0216,-138.1526"/>
</g>
<!-- Node63&#45;&gt;Node2 -->
<g id="edge120" class="edge">
<title>Node63&#45;&gt;Node2</title>
<path fill="none" stroke="#191970" d="M2296.3029,-324.2967C2288.7594,-315.7303 2279.1883,-304.8614 2270.7635,-295.2943"/>
<polygon fill="#191970" stroke="#191970" points="2273.2615,-292.835 2264.026,-287.6432 2268.0081,-297.4612 2273.2615,-292.835"/>
</g>
<!-- Node63&#45;&gt;Node19 -->
<g id="edge122" class="edge">
<title>Node63&#45;&gt;Node19</title>
<path fill="none" stroke="#191970" d="M2334.3537,-324.3311C2386.1217,-292.4841 2501.3949,-221.5305 2501.6909,-221 2537.4213,-156.96 2544.4385,-115.5854 2501.6909,-56 2491.5415,-41.8528 2451.965,-29.4468 2418.1032,-21.0949"/>
<polygon fill="#191970" stroke="#191970" points="2418.8164,-17.6668 2408.2763,-18.7423 2417.1866,-24.4744 2418.8164,-17.6668"/>
</g>
<!-- Node63&#45;&gt;Node28 -->
<g id="edge119" class="edge">
<title>Node63&#45;&gt;Node28</title>
<path fill="none" stroke="#191970" d="M2239.9518,-325.631C2237.1619,-325.0795 2234.4,-324.5342 2231.6909,-324 2152.9707,-308.4776 2131.0683,-304.3249 2048.3222,-288.1227"/>
<polygon fill="#191970" stroke="#191970" points="2048.9637,-284.6819 2038.4774,-286.1944 2047.6181,-291.5514 2048.9637,-284.6819"/>
</g>
<!-- Node63&#45;&gt;Node46 -->
<g id="edge121" class="edge">
<title>Node63&#45;&gt;Node46</title>
<path fill="none" stroke="#191970" d="M2240.0051,-325.3258C2237.2004,-324.8588 2234.4209,-324.4145 2231.6909,-324 2084.2568,-301.6161 2043.1438,-310.2968 1891.5657,-288.04"/>
<polygon fill="#191970" stroke="#191970" points="1891.8261,-284.5402 1881.4195,-286.5286 1890.7947,-291.4639 1891.8261,-284.5402"/>
</g>
<!-- Node63&#45;&gt;Node50 -->
<g id="edge123" class="edge">
<title>Node63&#45;&gt;Node50</title>
<path fill="none" stroke="#191970" d="M2326.2708,-324.0606C2336.8969,-314.0029 2350.8638,-300.4775 2362.6909,-288 2383.1825,-266.3816 2405.5624,-240.3207 2419.8426,-223.3542"/>
<polygon fill="#191970" stroke="#191970" points="2422.7815,-225.2962 2426.519,-215.3824 2417.415,-220.8017 2422.7815,-225.2962"/>
</g>
<!-- Node63&#45;&gt;Node61 -->
<g id="edge116" class="edge">
<title>Node63&#45;&gt;Node61</title>
<path fill="none" stroke="#191970" d="M2348.7399,-324.4639C2378.9451,-312.8332 2420.3645,-296.8843 2449.3216,-285.7342"/>
<polygon fill="#191970" stroke="#191970" points="2450.9312,-288.865 2459.0056,-282.0053 2448.4158,-282.3325 2450.9312,-288.865"/>
</g>
<!-- Node64 -->
<g id="node46" class="node">
<title>Node64</title>
<g id="a_node46"><a xlink:href="_m_o_l_8_h.html" target="_top" xlink:title="amr&#45;wind/convection\l/MOL.H">
<polygon fill="#ffffff" stroke="#000000" points="2056.1909,-257.5 2056.1909,-287.5 2163.1909,-287.5 2163.1909,-257.5 2056.1909,-257.5"/>
<text text-anchor="start" x="2064.1909" y="-275.5" font-family="Helvetica,sans-Serif" font-size="10.00" fill="#000000">amr&#45;wind/convection</text>
<text text-anchor="middle" x="2109.6909" y="-264.5" font-family="Helvetica,sans-Serif" font-size="10.00" fill="#000000">/MOL.H</text>
</a>
</g>
</g>
<!-- Node63&#45;&gt;Node64 -->
<g id="edge117" class="edge">
<title>Node63&#45;&gt;Node64</title>
<path fill="none" stroke="#191970" d="M2264.807,-324.4639C2235.061,-314.499 2195.8528,-301.3642 2164.2986,-290.7936"/>
<polygon fill="#191970" stroke="#191970" points="2165.3645,-287.4595 2154.7706,-287.6017 2163.1409,-294.097 2165.3645,-287.4595"/>
</g>
<!-- Node64&#45;&gt;Node16 -->
<g id="edge118" class="edge">
<title>Node64&#45;&gt;Node16</title>
<path fill="none" stroke="#191970" d="M2056.0468,-258.4393C2053.2304,-257.9049 2050.4328,-257.4195 2047.6909,-257 1980.2473,-246.6813 1486.5518,-265.3348 1434.6909,-221 1416.8995,-205.7904 1414.2989,-177.4615 1414.8611,-158.2943"/>
<polygon fill="#191970" stroke="#191970" points="1418.3593,-158.4284 1415.4666,-148.2361 1411.3719,-158.0077 1418.3593,-158.4284"/>
</g>
<!-- Node65&#45;&gt;Node2 -->
<g id="edge125" class="edge">
<title>Node65&#45;&gt;Node2</title>
<path fill="none" stroke="#191970" d="M2174.9286,-324.2967C2188.3356,-315.1306 2205.5985,-303.3285 2220.2589,-293.3055"/>
<polygon fill="#191970" stroke="#191970" points="2222.2614,-296.1763 2228.5412,-287.6432 2218.3107,-290.3977 2222.2614,-296.1763"/>
</g>
<!-- Node65&#45;&gt;Node46 -->
<g id="edge126" class="edge">
<title>Node65&#45;&gt;Node46</title>
<path fill="none" stroke="#191970" d="M2082.8616,-325.7799C2027.2345,-314.8502 1949.3335,-299.5441 1891.2925,-288.1402"/>
<polygon fill="#191970" stroke="#191970" points="1891.914,-284.6955 1881.4268,-286.2018 1890.5644,-291.5641 1891.914,-284.6955"/>
</g>
<!-- Node66 -->
<g id="node48" class="node">
<title>Node66</title>
<g id="a_node48"><a xlink:href="_b_c_interface_8_h.html" target="_top" xlink:title="amr&#45;wind/boundary_conditions\l/BCInterface.H">
<polygon fill="#ffffff" stroke="#000000" points="2274.1909,-123.5 2274.1909,-153.5 2423.1909,-153.5 2423.1909,-123.5 2274.1909,-123.5"/>
<text text-anchor="start" x="2282.1909" y="-141.5" font-family="Helvetica,sans-Serif" font-size="10.00" fill="#000000">amr&#45;wind/boundary_conditions</text>
<text text-anchor="middle" x="2348.6909" y="-130.5" font-family="Helvetica,sans-Serif" font-size="10.00" fill="#000000">/BCInterface.H</text>
</a>
</g>
</g>
<!-- Node65&#45;&gt;Node66 -->
<g id="edge127" class="edge">
<title>Node65&#45;&gt;Node66</title>
<path fill="none" stroke="#191970" d="M2216.9927,-324.4239C2264.4335,-312.7022 2322.025,-296.9724 2329.6909,-288 2359.3134,-253.3288 2357.4066,-196.568 2353.1722,-163.8689"/>
<polygon fill="#191970" stroke="#191970" points="2356.6049,-163.1541 2351.6891,-153.7687 2349.6791,-164.1711 2356.6049,-163.1541"/>
</g>
<!-- Node66&#45;&gt;Node17 -->
<g id="edge128" class="edge">
<title>Node66&#45;&gt;Node17</title>
<path fill="none" stroke="#191970" d="M2273.9547,-133.9117C2130.8409,-125.0919 1808.1853,-105.0448 1536.6909,-87 1484.2406,-83.5139 1424.8652,-79.3776 1380.5762,-76.2551"/>
<polygon fill="#191970" stroke="#191970" points="1380.7332,-72.7576 1370.5115,-75.5447 1380.2402,-79.7402 1380.7332,-72.7576"/>
</g>
<!-- Node66&#45;&gt;Node20 -->
<g id="edge129" class="edge">
<title>Node66&#45;&gt;Node20</title>
<path fill="none" stroke="#191970" d="M2274.1729,-134.4322C2145.6948,-127.1078 1874.2699,-110.2694 1645.6909,-87 1459.3325,-68.0286 1240.9475,-37.2982 1129.4168,-20.987"/>
<polygon fill="#191970" stroke="#191970" points="1129.6899,-17.4897 1119.288,-19.5023 1128.6746,-24.4157 1129.6899,-17.4897"/>
</g>
<!-- Node67 -->
<g id="node49" class="node">
<title>Node67</title>
<polygon fill="#ffffff" stroke="#bfbfbf" points="2315.1909,-62 2315.1909,-81 2434.1909,-81 2434.1909,-62 2315.1909,-62"/>
<text text-anchor="middle" x="2374.6909" y="-69" font-family="Helvetica,sans-Serif" font-size="10.00" fill="#000000">AMReX_BC_TYPES.H</text>
</g>
<!-- Node66&#45;&gt;Node67 -->
<g id="edge130" class="edge">
<title>Node66&#45;&gt;Node67</title>
<path fill="none" stroke="#191970" d="M2354.5907,-123.2967C2358.3663,-113.5672 2363.2946,-100.8675 2367.3262,-90.4784"/>
<polygon fill="#191970" stroke="#191970" points="2370.6281,-91.6439 2370.983,-81.055 2364.1023,-89.1114 2370.6281,-91.6439"/>
</g>
<!-- Node68 -->
<g id="node50" class="node">
<title>Node68</title>
<polygon fill="#ffffff" stroke="#bfbfbf" points="2452.6909,-62 2452.6909,-81 2492.6909,-81 2492.6909,-62 2452.6909,-62"/>
<text text-anchor="middle" x="2472.6909" y="-69" font-family="Helvetica,sans-Serif" font-size="10.00" fill="#000000">utility</text>
</g>
<!-- Node66&#45;&gt;Node68 -->
<g id="edge131" class="edge">
<title>Node66&#45;&gt;Node68</title>
<path fill="none" stroke="#191970" d="M2376.5189,-123.4639C2397.3246,-112.2222 2425.5963,-96.9463 2446.0982,-85.8686"/>
<polygon fill="#191970" stroke="#191970" points="2447.7824,-88.9369 2454.9165,-81.1039 2444.4548,-82.7784 2447.7824,-88.9369"/>
</g>
</g>
</svg>
