<?xml version="1.0" encoding="UTF-8" standalone="no"?>
<!DOCTYPE svg PUBLIC "-//W3C//DTD SVG 1.1//EN"
 "http://www.w3.org/Graphics/SVG/1.1/DTD/svg11.dtd">
<!-- Generated by graphviz version 2.40.1 (20161225.0304)
 -->
<!-- Title: TaylorGreenVortex.H Pages: 1 -->
<!--zoomable 196 -->
<svg id="main" version="1.1" xmlns="http://www.w3.org/2000/svg" xmlns:xlink="http://www.w3.org/1999/xlink" xml:space="preserve" onload="init(evt)">
<style type="text/css"><![CDATA[
.edge:hover path { stroke: red; }
.edge:hover polygon { stroke: red; fill: red; }
]]></style>
<script type="text/javascript"><![CDATA[
var edges = document.getElementsByTagName('g');
if (edges && edges.length) {
  for (var i=0;i<edges.length;i++) {
    if (edges[i].id.substr(0,4)=='edge') {
      edges[i].setAttribute('class','edge');
    }
  }
}
]]></script>
        <defs>
                <circle id="rim" cx="0" cy="0" r="7"/>
                <circle id="rim2" cx="0" cy="0" r="3.5"/>
                <g id="zoomPlus">
                        <use xlink:href="#rim" fill="#404040">
                                <set attributeName="fill" to="#808080" begin="zoomplus.mouseover" end="zoomplus.mouseout"/>
                        </use>
                        <path d="M-4,0h8M0,-4v8" fill="none" stroke="white" stroke-width="1.5" pointer-events="none"/>
                </g>
                <g id="zoomMin">
                        <use xlink:href="#rim" fill="#404040">
                                <set attributeName="fill" to="#808080" begin="zoomminus.mouseover" end="zoomminus.mouseout"/>
                        </use>
                        <path d="M-4,0h8" fill="none" stroke="white" stroke-width="1.5" pointer-events="none"/>
                </g>
                <g id="dirArrow">
                        <path fill="none" stroke="white" stroke-width="1.5" d="M0,-3.0v7 M-2.5,-0.5L0,-3.0L2.5,-0.5"/>
                </g>
               <g id="resetDef">
                       <use xlink:href="#rim2" fill="#404040">
                               <set attributeName="fill" to="#808080" begin="reset.mouseover" end="reset.mouseout"/>
                       </use>
               </g>
        </defs>

<script type="text/javascript">
var viewWidth = 1154;
var viewHeight = 196;
var sectionId = 'dynsection-0';
</script>
<script xlink:href="svgpan.js"/>
<svg id="graph" class="graph">
<g id="viewport">
<title>TaylorGreenVortex.H</title>
<polygon fill="#ffffff" stroke="transparent" points="-4,4 -4,-192 1149.5,-192 1149.5,4 -4,4"/>
<!-- Node0 -->
<g id="node1" class="node">
<title>Node0</title>
<polygon fill="#bfbfbf" stroke="#000000" points="474.5,-168.5 474.5,-187.5 583.5,-187.5 583.5,-168.5 474.5,-168.5"/>
<text text-anchor="middle" x="529" y="-175.5" font-family="Helvetica,sans-Serif" font-size="10.00" fill="#000000">TaylorGreenVortex.H</text>
</g>
<!-- Node1 -->
<g id="node2" class="node">
<title>Node1</title>
<g id="a_node2"><a xlink:href="_physics_8_h.html" target="_top" xlink:title="amr&#45;wind/core/Physics.H">
<polygon fill="#ffffff" stroke="#000000" points="309.5,-112.5 309.5,-131.5 436.5,-131.5 436.5,-112.5 309.5,-112.5"/>
<text text-anchor="middle" x="373" y="-119.5" font-family="Helvetica,sans-Serif" font-size="10.00" fill="#000000">amr&#45;wind/core/Physics.H</text>
</a>
</g>
</g>
<!-- Node0&#45;&gt;Node1 -->
<g id="edge1" class="edge">
<title>Node0&#45;&gt;Node1</title>
<path fill="none" stroke="#191970" d="M502.1826,-168.3733C476.4668,-159.1419 437.462,-145.1402 409.0401,-134.9375"/>
<polygon fill="#191970" stroke="#191970" points="410.0619,-131.5857 399.4674,-131.5011 407.6968,-138.174 410.0619,-131.5857"/>
</g>
<!-- Node13 -->
<g id="node14" class="node">
<title>Node13</title>
<g id="a_node14"><a xlink:href="_field_8_h.html" target="_top" xlink:title="amr&#45;wind/core/Field.H">
<polygon fill="#ffffff" stroke="#000000" points="668.5,-112.5 668.5,-131.5 781.5,-131.5 781.5,-112.5 668.5,-112.5"/>
<text text-anchor="middle" x="725" y="-119.5" font-family="Helvetica,sans-Serif" font-size="10.00" fill="#000000">amr&#45;wind/core/Field.H</text>
</a>
</g>
</g>
<!-- Node0&#45;&gt;Node13 -->
<g id="edge15" class="edge">
<title>Node0&#45;&gt;Node13</title>
<path fill="none" stroke="#191970" d="M562.6936,-168.3733C595.7087,-158.9404 646.1573,-144.5265 682.0386,-134.2747"/>
<polygon fill="#191970" stroke="#191970" points="683.0924,-137.6137 691.7461,-131.5011 681.1693,-130.8831 683.0924,-137.6137"/>
</g>
<!-- Node2 -->
<g id="node3" class="node">
<title>Node2</title>
<g id="a_node3"><a xlink:href="_factory_8_h.html" target="_top" xlink:title="amr&#45;wind/core/Factory.H">
<polygon fill="#ffffff" stroke="#000000" points="128.5,-56.5 128.5,-75.5 253.5,-75.5 253.5,-56.5 128.5,-56.5"/>
<text text-anchor="middle" x="191" y="-63.5" font-family="Helvetica,sans-Serif" font-size="10.00" fill="#000000">amr&#45;wind/core/Factory.H</text>
</a>
</g>
</g>
<!-- Node1&#45;&gt;Node2 -->
<g id="edge2" class="edge">
<title>Node1&#45;&gt;Node2</title>
<path fill="none" stroke="#191970" d="M341.7131,-112.3733C311.3182,-103.021 265.0107,-88.7725 231.75,-78.5385"/>
<polygon fill="#191970" stroke="#191970" points="232.4658,-75.0968 221.8786,-75.5011 230.4071,-81.7873 232.4658,-75.0968"/>
</g>
<!-- Node8 -->
<g id="node9" class="node">
<title>Node8</title>
<g id="a_node9"><a xlink:href="_coll_mgr_8_h.html" target="_top" xlink:title="amr&#45;wind/core/CollMgr.H">
<polygon fill="#ffffff" stroke="#000000" points="310.5,-56.5 310.5,-75.5 435.5,-75.5 435.5,-56.5 310.5,-56.5"/>
<text text-anchor="middle" x="373" y="-63.5" font-family="Helvetica,sans-Serif" font-size="10.00" fill="#000000">amr&#45;wind/core/CollMgr.H</text>
</a>
</g>
</g>
<!-- Node1&#45;&gt;Node8 -->
<g id="edge8" class="edge">
<title>Node1&#45;&gt;Node8</title>
<path fill="none" stroke="#191970" d="M373,-112.2455C373,-104.9382 373,-94.6944 373,-85.7046"/>
<polygon fill="#191970" stroke="#191970" points="376.5001,-85.6426 373,-75.6427 369.5001,-85.6427 376.5001,-85.6426"/>
</g>
<!-- Node11 -->
<g id="node12" class="node">
<title>Node11</title>
<polygon fill="#ffffff" stroke="#bfbfbf" points="634,-.5 634,-19.5 738,-19.5 738,-.5 634,-.5"/>
<text text-anchor="middle" x="686" y="-7.5" font-family="Helvetica,sans-Serif" font-size="10.00" fill="#000000">AMReX_MultiFab.H</text>
</g>
<!-- Node1&#45;&gt;Node11 -->
<g id="edge13" class="edge">
<title>Node1&#45;&gt;Node11</title>
<path fill="none" stroke="#191970" d="M392.2545,-112.3102C420.1397,-98.5326 473.6199,-73.0635 521,-56 558.7805,-42.3937 602.6115,-30.343 635.5988,-21.9924"/>
<polygon fill="#191970" stroke="#191970" points="636.6184,-25.3452 645.4694,-19.522 634.9188,-18.5547 636.6184,-25.3452"/>
</g>
<!-- Node12 -->
<g id="node13" class="node">
<title>Node12</title>
<polygon fill="#ffffff" stroke="#bfbfbf" points="0,-56.5 0,-75.5 110,-75.5 110,-56.5 0,-56.5"/>
<text text-anchor="middle" x="55" y="-63.5" font-family="Helvetica,sans-Serif" font-size="10.00" fill="#000000">AMReX_Geometry.H</text>
</g>
<!-- Node1&#45;&gt;Node12 -->
<g id="edge14" class="edge">
<title>Node1&#45;&gt;Node12</title>
<path fill="none" stroke="#191970" d="M318.6952,-112.4369C263.3573,-102.6918 177.5617,-87.5832 118.9661,-77.2645"/>
<polygon fill="#191970" stroke="#191970" points="119.5363,-73.8111 109.0808,-75.5237 118.3223,-80.705 119.5363,-73.8111"/>
</g>
<!-- Node3 -->
<g id="node4" class="node">
<title>Node3</title>
<polygon fill="#ffffff" stroke="#bfbfbf" points="259,-.5 259,-19.5 311,-19.5 311,-.5 259,-.5"/>
<text text-anchor="middle" x="285" y="-7.5" font-family="Helvetica,sans-Serif" font-size="10.00" fill="#000000">memory</text>
</g>
<!-- Node2&#45;&gt;Node3 -->
<g id="edge3" class="edge">
<title>Node2&#45;&gt;Node3</title>
<path fill="none" stroke="#191970" d="M207.3736,-56.2455C221.9308,-47.5731 243.431,-34.7645 260.1152,-24.825"/>
<polygon fill="#191970" stroke="#191970" points="262.0144,-27.7676 268.8141,-19.6427 258.4317,-21.7539 262.0144,-27.7676"/>
</g>
<!-- Node4 -->
<g id="node5" class="node">
<title>Node4</title>
<polygon fill="#ffffff" stroke="#bfbfbf" points="331.5,-.5 331.5,-19.5 414.5,-19.5 414.5,-.5 331.5,-.5"/>
<text text-anchor="middle" x="373" y="-7.5" font-family="Helvetica,sans-Serif" font-size="10.00" fill="#000000">unordered_map</text>
</g>
<!-- Node2&#45;&gt;Node4 -->
<g id="edge4" class="edge">
<title>Node2&#45;&gt;Node4</title>
<path fill="none" stroke="#191970" d="M222.2869,-56.3733C252.6818,-47.021 298.9893,-32.7725 332.25,-22.5385"/>
<polygon fill="#191970" stroke="#191970" points="333.5929,-25.7873 342.1214,-19.5011 331.5342,-19.0968 333.5929,-25.7873"/>
</g>
<!-- Node5 -->
<g id="node6" class="node">
<title>Node5</title>
<polygon fill="#ffffff" stroke="#bfbfbf" points="81,-.5 81,-19.5 135,-19.5 135,-.5 81,-.5"/>
<text text-anchor="middle" x="108" y="-7.5" font-family="Helvetica,sans-Serif" font-size="10.00" fill="#000000">iostream</text>
</g>
<!-- Node2&#45;&gt;Node5 -->
<g id="edge5" class="edge">
<title>Node2&#45;&gt;Node5</title>
<path fill="none" stroke="#191970" d="M176.5425,-56.2455C163.9268,-47.7337 145.4056,-35.2375 130.7955,-25.3801"/>
<polygon fill="#191970" stroke="#191970" points="132.5391,-22.3343 122.2918,-19.6427 128.6239,-28.1371 132.5391,-22.3343"/>
</g>
<!-- Node6 -->
<g id="node7" class="node">
<title>Node6</title>
<polygon fill="#ffffff" stroke="#bfbfbf" points="153.5,-.5 153.5,-19.5 240.5,-19.5 240.5,-.5 153.5,-.5"/>
<text text-anchor="middle" x="197" y="-7.5" font-family="Helvetica,sans-Serif" font-size="10.00" fill="#000000">AMReX_Print.H</text>
</g>
<!-- Node2&#45;&gt;Node6 -->
<g id="edge6" class="edge">
<title>Node2&#45;&gt;Node6</title>
<path fill="none" stroke="#191970" d="M192.0451,-56.2455C192.828,-48.9382 193.9256,-38.6944 194.8888,-29.7046"/>
<polygon fill="#191970" stroke="#191970" points="198.3815,-29.9587 195.9669,-19.6427 191.4214,-29.2129 198.3815,-29.9587"/>
</g>
<!-- Node7 -->
<g id="node8" class="node">
<title>Node7</title>
<polygon fill="#ffffff" stroke="#bfbfbf" points="1,-.5 1,-19.5 63,-19.5 63,-.5 1,-.5"/>
<text text-anchor="middle" x="32" y="-7.5" font-family="Helvetica,sans-Serif" font-size="10.00" fill="#000000">AMReX.H</text>
</g>
<!-- Node2&#45;&gt;Node7 -->
<g id="edge7" class="edge">
<title>Node2&#45;&gt;Node7</title>
<path fill="none" stroke="#191970" d="M163.6669,-56.3733C137.4566,-47.1419 97.7016,-33.1402 68.7332,-22.9375"/>
<polygon fill="#191970" stroke="#191970" points="69.5712,-19.5219 58.9764,-19.5011 67.2458,-26.1244 69.5712,-19.5219"/>
</g>
<!-- Node8&#45;&gt;Node3 -->
<g id="edge10" class="edge">
<title>Node8&#45;&gt;Node3</title>
<path fill="none" stroke="#191970" d="M357.6716,-56.2455C344.1697,-47.6534 324.2878,-35.0014 308.7314,-25.1018"/>
<polygon fill="#191970" stroke="#191970" points="310.4685,-22.0587 300.1528,-19.6427 306.7103,-27.9643 310.4685,-22.0587"/>
</g>
<!-- Node8&#45;&gt;Node4 -->
<g id="edge11" class="edge">
<title>Node8&#45;&gt;Node4</title>
<path fill="none" stroke="#191970" d="M373,-56.2455C373,-48.9382 373,-38.6944 373,-29.7046"/>
<polygon fill="#191970" stroke="#191970" points="376.5001,-29.6426 373,-19.6427 369.5001,-29.6427 376.5001,-29.6426"/>
</g>
<!-- Node9 -->
<g id="node10" class="node">
<title>Node9</title>
<polygon fill="#ffffff" stroke="#bfbfbf" points="878.5,-.5 878.5,-19.5 919.5,-19.5 919.5,-.5 878.5,-.5"/>
<text text-anchor="middle" x="899" y="-7.5" font-family="Helvetica,sans-Serif" font-size="10.00" fill="#000000">string</text>
</g>
<!-- Node8&#45;&gt;Node9 -->
<g id="edge9" class="edge">
<title>Node8&#45;&gt;Node9</title>
<path fill="none" stroke="#191970" d="M435.6648,-59.3285C548.927,-47.2701 783.7809,-22.2667 868.0567,-13.2943"/>
<polygon fill="#191970" stroke="#191970" points="868.6747,-16.7484 878.248,-12.2093 867.9336,-9.7878 868.6747,-16.7484"/>
</g>
<!-- Node10 -->
<g id="node11" class="node">
<title>Node10</title>
<polygon fill="#ffffff" stroke="#bfbfbf" points="476.5,-.5 476.5,-19.5 571.5,-19.5 571.5,-.5 476.5,-.5"/>
<text text-anchor="middle" x="524" y="-7.5" font-family="Helvetica,sans-Serif" font-size="10.00" fill="#000000">AMReX_Vector.H</text>
</g>
<!-- Node8&#45;&gt;Node10 -->
<g id="edge12" class="edge">
<title>Node8&#45;&gt;Node10</title>
<path fill="none" stroke="#191970" d="M398.9578,-56.3733C423.7407,-47.1822 461.2746,-33.2624 488.754,-23.0713"/>
<polygon fill="#191970" stroke="#191970" points="490.2219,-26.26 498.3809,-19.5011 487.7879,-19.6968 490.2219,-26.26"/>
</g>
<!-- Node13&#45;&gt;Node3 -->
<g id="edge17" class="edge">
<title>Node13&#45;&gt;Node3</title>
<path fill="none" stroke="#191970" d="M668.4519,-119.4449C559.344,-114.0028 328.0902,-99.7846 301,-76 288.1503,-64.7182 284.7248,-45.0364 284.1694,-30.0931"/>
<polygon fill="#191970" stroke="#191970" points="287.6701,-29.8161 284.1957,-19.8072 280.6701,-29.7982 287.6701,-29.8161"/>
</g>
<!-- Node13&#45;&gt;Node4 -->
<g id="edge18" class="edge">
<title>Node13&#45;&gt;Node4</title>
<path fill="none" stroke="#191970" d="M668.7748,-112.4245C627.342,-104.6241 569.927,-92.2481 521,-76 477.5815,-61.5812 429.6046,-38.8492 400.3803,-24.1835"/>
<polygon fill="#191970" stroke="#191970" points="401.7242,-20.9408 391.222,-19.5428 398.5601,-27.185 401.7242,-20.9408"/>
</g>
<!-- Node13&#45;&gt;Node9 -->
<g id="edge16" class="edge">
<title>Node13&#45;&gt;Node9</title>
<path fill="none" stroke="#191970" d="M781.685,-119.7259C847.7221,-115.747 950.889,-104.9522 975,-76 993.1856,-54.1629 957.6007,-33.4371 929.2198,-21.2222"/>
<polygon fill="#191970" stroke="#191970" points="930.5391,-17.9804 919.9593,-17.4167 927.8784,-24.455 930.5391,-17.9804"/>
</g>
<!-- Node13&#45;&gt;Node11 -->
<g id="edge19" class="edge">
<title>Node13&#45;&gt;Node11</title>
<path fill="none" stroke="#191970" d="M720.3333,-112.2783C716.0182,-103.0686 709.5971,-88.7835 705,-76 699.4519,-60.5722 694.3825,-42.6771 690.878,-29.4159"/>
<polygon fill="#191970" stroke="#191970" points="694.2129,-28.3312 688.3262,-19.5222 687.4347,-30.0794 694.2129,-28.3312"/>
</g>
<!-- Node14 -->
<g id="node15" class="node">
<title>Node14</title>
<polygon fill="#ffffff" stroke="#bfbfbf" points="714.5,-56.5 714.5,-75.5 813.5,-75.5 813.5,-56.5 714.5,-56.5"/>
<text text-anchor="middle" x="764" y="-63.5" font-family="Helvetica,sans-Serif" font-size="10.00" fill="#000000">AMReX_BCRec.H</text>
</g>
<!-- Node13&#45;&gt;Node14 -->
<g id="edge20" class="edge">
<title>Node13&#45;&gt;Node14</title>
<path fill="none" stroke="#191970" d="M731.7933,-112.2455C737.2178,-104.4564 744.9661,-93.3308 751.5033,-83.9439"/>
<polygon fill="#191970" stroke="#191970" points="754.4417,-85.849 757.2846,-75.6427 748.6975,-81.8485 754.4417,-85.849"/>
</g>
<!-- Node15 -->
<g id="node16" class="node">
<title>Node15</title>
<polygon fill="#ffffff" stroke="#bfbfbf" points="1060.5,-56.5 1060.5,-75.5 1145.5,-75.5 1145.5,-56.5 1060.5,-56.5"/>
<text text-anchor="middle" x="1103" y="-63.5" font-family="Helvetica,sans-Serif" font-size="10.00" fill="#000000">AMReX_Gpu.H</text>
</g>
<!-- Node13&#45;&gt;Node15 -->
<g id="edge21" class="edge">
<title>Node13&#45;&gt;Node15</title>
<path fill="none" stroke="#191970" d="M781.6166,-114.433C845.8123,-105.7261 953.5697,-90.727 1046,-76 1047.4573,-75.7678 1048.9349,-75.5294 1050.4259,-75.2861"/>
<polygon fill="#191970" stroke="#191970" points="1051.0942,-78.7231 1060.3828,-73.6269 1049.9435,-71.8183 1051.0942,-78.7231"/>
</g>
<!-- Node16 -->
<g id="node17" class="node">
<title>Node16</title>
<g id="a_node17"><a xlink:href="incflo__enums_8_h.html" target="_top" xlink:title="amr&#45;wind/incflo_enums.H">
<polygon fill="#ffffff" stroke="#000000" points="530,-56.5 530,-75.5 658,-75.5 658,-56.5 530,-56.5"/>
<text text-anchor="middle" x="594" y="-63.5" font-family="Helvetica,sans-Serif" font-size="10.00" fill="#000000">amr&#45;wind/incflo_enums.H</text>
</a>
</g>
</g>
<!-- Node13&#45;&gt;Node16 -->
<g id="edge22" class="edge">
<title>Node13&#45;&gt;Node16</title>
<path fill="none" stroke="#191970" d="M702.4803,-112.3733C681.2628,-103.3032 649.2724,-89.6279 625.5231,-79.4755"/>
<polygon fill="#191970" stroke="#191970" points="626.7967,-76.2136 616.2258,-75.5011 624.0452,-82.6502 626.7967,-76.2136"/>
</g>
<!-- Node17 -->
<g id="node18" class="node">
<title>Node17</title>
<g id="a_node18"><a xlink:href="_field_desc_types_8_h.html" target="_top" xlink:title="amr&#45;wind/core/FieldDescTypes.H">
<polygon fill="#ffffff" stroke="#000000" points="943.5,-.5 943.5,-19.5 1106.5,-19.5 1106.5,-.5 943.5,-.5"/>
<text text-anchor="middle" x="1025" y="-7.5" font-family="Helvetica,sans-Serif" font-size="10.00" fill="#000000">amr&#45;wind/core/FieldDescTypes.H</text>
</a>
</g>
</g>
<!-- Node13&#45;&gt;Node17 -->
<g id="edge23" class="edge">
<title>Node13&#45;&gt;Node17</title>
<path fill="none" stroke="#191970" d="M781.6282,-118.0953C849.6005,-112.4157 958.5081,-99.8485 991,-76 1006.2177,-64.8305 1015.1513,-44.8404 1020.0104,-29.7774"/>
<polygon fill="#191970" stroke="#191970" points="1023.4576,-30.4546 1022.8601,-19.8766 1016.7307,-28.5184 1023.4576,-30.4546"/>
</g>
<!-- Node18 -->
<g id="node19" class="node">
<title>Node18</title>
<g id="a_node19"><a xlink:href="_view_field_8_h.html" target="_top" xlink:title="amr&#45;wind/core/ViewField.H">
<polygon fill="#ffffff" stroke="#000000" points="832,-56.5 832,-75.5 966,-75.5 966,-56.5 832,-56.5"/>
<text text-anchor="middle" x="899" y="-63.5" font-family="Helvetica,sans-Serif" font-size="10.00" fill="#000000">amr&#45;wind/core/ViewField.H</text>
</a>
</g>
</g>
<!-- Node13&#45;&gt;Node18 -->
<g id="edge24" class="edge">
<title>Node13&#45;&gt;Node18</title>
<path fill="none" stroke="#191970" d="M754.9117,-112.3733C783.8452,-103.0613 827.8611,-88.8953 859.6293,-78.671"/>
<polygon fill="#191970" stroke="#191970" points="861.0318,-81.8965 869.4787,-75.5011 858.8872,-75.2331 861.0318,-81.8965"/>
</g>
<!-- Node18&#45;&gt;Node9 -->
<g id="edge25" class="edge">
<title>Node18&#45;&gt;Node9</title>
<path fill="none" stroke="#191970" d="M899,-56.2455C899,-48.9382 899,-38.6944 899,-29.7046"/>
<polygon fill="#191970" stroke="#191970" points="902.5001,-29.6426 899,-19.6427 895.5001,-29.6427 902.5001,-29.6426"/>
</g>
<!-- Node18&#45;&gt;Node10 -->
<g id="edge28" class="edge">
<title>Node18&#45;&gt;Node10</title>
<path fill="none" stroke="#191970" d="M834.9613,-56.4369C763.9275,-45.8292 650.3363,-28.8662 581.8823,-18.6438"/>
<polygon fill="#191970" stroke="#191970" points="582.1162,-15.1399 571.7089,-17.1245 581.0822,-22.0632 582.1162,-15.1399"/>
</g>
<!-- Node18&#45;&gt;Node11 -->
<g id="edge27" class="edge">
<title>Node18&#45;&gt;Node11</title>
<path fill="none" stroke="#191970" d="M862.384,-56.3733C826.352,-46.9001 771.2122,-32.4032 732.1886,-22.1435"/>
<polygon fill="#191970" stroke="#191970" points="732.6995,-18.6589 722.1382,-19.5011 730.9196,-25.4289 732.6995,-18.6589"/>
</g>
<!-- Node18&#45;&gt;Node17 -->
<g id="edge26" class="edge">
<title>Node18&#45;&gt;Node17</title>
<path fill="none" stroke="#191970" d="M920.6602,-56.3733C940.9772,-47.3435 971.564,-33.7494 994.375,-23.6111"/>
<polygon fill="#191970" stroke="#191970" points="995.9059,-26.7609 1003.6225,-19.5011 993.0628,-20.3642 995.9059,-26.7609"/>
</g>
</g>
</svg>
        <g id="navigator" transform="translate(0 0)" fill="#404254">
                <rect fill="#f2f5e9" fill-opacity="0.5" stroke="#606060" stroke-width=".5" x="0" y="0" width="60" height="60"/>
                <use id="zoomplus" xlink:href="#zoomPlus" x="17" y="9" onmousedown="handleZoom(evt,'in')"/>
                <use id="zoomminus" xlink:href="#zoomMin" x="42" y="9" onmousedown="handleZoom(evt,'out')"/>
                <use id="reset" xlink:href="#resetDef" x="30" y="36" onmousedown="handleReset()"/>
                <g id="arrowUp" xlink:href="#dirArrow" transform="translate(30 24)" onmousedown="handlePan(0,-1)">
                  <use xlink:href="#rim" fill="#404040">
                        <set attributeName="fill" to="#808080" begin="arrowUp.mouseover" end="arrowUp.mouseout"/>
                  </use>
                  <path fill="none" stroke="white" stroke-width="1.5" d="M0,-3.0v7 M-2.5,-0.5L0,-3.0L2.5,-0.5"/>
                </g>
                <g id="arrowRight" xlink:href="#dirArrow" transform="rotate(90) translate(36 -43)" onmousedown="handlePan(1,0)">
                  <use xlink:href="#rim" fill="#404040">
                        <set attributeName="fill" to="#808080" begin="arrowRight.mouseover" end="arrowRight.mouseout"/>
                  </use>
                  <path fill="none" stroke="white" stroke-width="1.5" d="M0,-3.0v7 M-2.5,-0.5L0,-3.0L2.5,-0.5"/>
                </g>
                <g id="arrowDown" xlink:href="#dirArrow" transform="rotate(180) translate(-30 -48)" onmousedown="handlePan(0,1)">
                  <use xlink:href="#rim" fill="#404040">
                        <set attributeName="fill" to="#808080" begin="arrowDown.mouseover" end="arrowDown.mouseout"/>
                  </use>
                  <path fill="none" stroke="white" stroke-width="1.5" d="M0,-3.0v7 M-2.5,-0.5L0,-3.0L2.5,-0.5"/>
                </g>
                <g id="arrowLeft" xlink:href="#dirArrow" transform="rotate(270) translate(-36 17)" onmousedown="handlePan(-1,0)">
                  <use xlink:href="#rim" fill="#404040">
                        <set attributeName="fill" to="#808080" begin="arrowLeft.mouseover" end="arrowLeft.mouseout"/>
                  </use>
                  <path fill="none" stroke="white" stroke-width="1.5" d="M0,-3.0v7 M-2.5,-0.5L0,-3.0L2.5,-0.5"/>
                </g>
        </g>
        <svg viewBox="0 0 15 15" width="100%" height="30px" preserveAspectRatio="xMaxYMin meet">
         <g id="arrow_out" transform="scale(0.3 0.3)">
          <a xlink:href="_taylor_green_vortex_8_h__incl_org.svg" target="_base">
           <rect id="button" ry="5" rx="5" y="6" x="6" height="38" width="38"
                fill="#f2f5e9" fill-opacity="0.5" stroke="#606060" stroke-width="1.0"/>
           <path id="arrow"
             d="M 11.500037,31.436501 C 11.940474,20.09759 22.043105,11.32322 32.158766,21.979434 L 37.068811,17.246167 C 37.068811,17.246167 37.088388,32 37.088388,32 L 22.160133,31.978069 C 22.160133,31.978069 26.997745,27.140456 26.997745,27.140456 C 18.528582,18.264221 13.291696,25.230495 11.500037,31.436501 z"
             style="fill:#404040;"/>
          </a>
         </g>
        </svg>
</svg>
