<?xml version="1.0" encoding="UTF-8" standalone="no"?>
<!DOCTYPE svg PUBLIC "-//W3C//DTD SVG 1.1//EN"
 "http://www.w3.org/Graphics/SVG/1.1/DTD/svg11.dtd">
<!-- Generated by graphviz version 2.40.1 (20161225.0304)
 -->
<!-- Title: TaylorGreenVortex.cpp Pages: 1 -->
<!--zoomable 341 -->
<svg id="main" version="1.1" xmlns="http://www.w3.org/2000/svg" xmlns:xlink="http://www.w3.org/1999/xlink" xml:space="preserve" onload="init(evt)">
<style type="text/css"><![CDATA[
.edge:hover path { stroke: red; }
.edge:hover polygon { stroke: red; fill: red; }
]]></style>
<script type="text/javascript"><![CDATA[
var edges = document.getElementsByTagName('g');
if (edges && edges.length) {
  for (var i=0;i<edges.length;i++) {
    if (edges[i].id.substr(0,4)=='edge') {
      edges[i].setAttribute('class','edge');
    }
  }
}
]]></script>
        <defs>
                <circle id="rim" cx="0" cy="0" r="7"/>
                <circle id="rim2" cx="0" cy="0" r="3.5"/>
                <g id="zoomPlus">
                        <use xlink:href="#rim" fill="#404040">
                                <set attributeName="fill" to="#808080" begin="zoomplus.mouseover" end="zoomplus.mouseout"/>
                        </use>
                        <path d="M-4,0h8M0,-4v8" fill="none" stroke="white" stroke-width="1.5" pointer-events="none"/>
                </g>
                <g id="zoomMin">
                        <use xlink:href="#rim" fill="#404040">
                                <set attributeName="fill" to="#808080" begin="zoomminus.mouseover" end="zoomminus.mouseout"/>
                        </use>
                        <path d="M-4,0h8" fill="none" stroke="white" stroke-width="1.5" pointer-events="none"/>
                </g>
                <g id="dirArrow">
                        <path fill="none" stroke="white" stroke-width="1.5" d="M0,-3.0v7 M-2.5,-0.5L0,-3.0L2.5,-0.5"/>
                </g>
               <g id="resetDef">
                       <use xlink:href="#rim2" fill="#404040">
                               <set attributeName="fill" to="#808080" begin="reset.mouseover" end="reset.mouseout"/>
                       </use>
               </g>
        </defs>

<script type="text/javascript">
var viewWidth = 2654;
var viewHeight = 341;
var sectionId = 'dynsection-0';
</script>
<script xlink:href="svgpan.js"/>
<svg id="graph" class="graph">
<g id="viewport">
<title>TaylorGreenVortex.cpp</title>
<polygon fill="#ffffff" stroke="transparent" points="-4,4 -4,-337 2649.5,-337 2649.5,4 -4,4"/>
<!-- Node0 -->
<g id="node1" class="node">
<title>Node0</title>
<polygon fill="#bfbfbf" stroke="#000000" points="1455,-313.5 1455,-332.5 1572,-332.5 1572,-313.5 1455,-313.5"/>
<text text-anchor="middle" x="1513.5" y="-320.5" font-family="Helvetica,sans-Serif" font-size="10.00" fill="#000000">TaylorGreenVortex.cpp</text>
</g>
<!-- Node1 -->
<g id="node2" class="node">
<title>Node1</title>
<g id="a_node2"><a xlink:href="_taylor_green_vortex_8_h.html" target="_top" xlink:title="amr&#45;wind/physics/TaylorGreen\lVortex.H">
<polygon fill="#ffffff" stroke="#000000" points="960,-190.5 960,-220.5 1109,-220.5 1109,-190.5 960,-190.5"/>
<text text-anchor="start" x="968" y="-208.5" font-family="Helvetica,sans-Serif" font-size="10.00" fill="#000000">amr&#45;wind/physics/TaylorGreen</text>
<text text-anchor="middle" x="1034.5" y="-197.5" font-family="Helvetica,sans-Serif" font-size="10.00" fill="#000000">Vortex.H</text>
</a>
</g>
</g>
<!-- Node0&#45;&gt;Node1 -->
<g id="edge1" class="edge">
<title>Node0&#45;&gt;Node1</title>
<path fill="none" stroke="#191970" d="M1474.7072,-313.484C1394.3093,-293.7622 1208.4609,-248.1731 1105.8194,-222.9948"/>
<polygon fill="#191970" stroke="#191970" points="1106.3953,-219.5324 1095.8493,-220.5492 1104.7276,-226.3309 1106.3953,-219.5324"/>
</g>
<!-- Node20 -->
<g id="node21" class="node">
<title>Node20</title>
<g id="a_node21"><a xlink:href="_c_f_d_sim_8_h.html" target="_top" xlink:title="amr&#45;wind/CFDSim.H">
<polygon fill="#ffffff" stroke="#000000" points="1418.5,-257.5 1418.5,-276.5 1526.5,-276.5 1526.5,-257.5 1418.5,-257.5"/>
<text text-anchor="middle" x="1472.5" y="-264.5" font-family="Helvetica,sans-Serif" font-size="10.00" fill="#000000">amr&#45;wind/CFDSim.H</text>
</a>
</g>
</g>
<!-- Node0&#45;&gt;Node20 -->
<g id="edge30" class="edge">
<title>Node0&#45;&gt;Node20</title>
<path fill="none" stroke="#191970" d="M1506.3583,-313.2455C1500.6556,-305.4564 1492.51,-294.3308 1485.6375,-284.9439"/>
<polygon fill="#191970" stroke="#191970" points="1488.2913,-282.6437 1479.5598,-276.6427 1482.6432,-286.7789 1488.2913,-282.6437"/>
</g>
<!-- Node36 -->
<g id="node37" class="node">
<title>Node36</title>
<polygon fill="#ffffff" stroke="#bfbfbf" points="1582.5,-257.5 1582.5,-276.5 1698.5,-276.5 1698.5,-257.5 1582.5,-257.5"/>
<text text-anchor="middle" x="1640.5" y="-264.5" font-family="Helvetica,sans-Serif" font-size="10.00" fill="#000000">AMReX_ParmParse.H</text>
</g>
<!-- Node0&#45;&gt;Node36 -->
<g id="edge68" class="edge">
<title>Node0&#45;&gt;Node36</title>
<path fill="none" stroke="#191970" d="M1535.3321,-313.3733C1555.8103,-304.3435 1586.6399,-290.7494 1609.6319,-280.6111"/>
<polygon fill="#191970" stroke="#191970" points="1611.215,-283.7383 1618.9528,-276.5011 1608.3907,-277.3333 1611.215,-283.7383"/>
</g>
<!-- Node37 -->
<g id="node38" class="node">
<title>Node37</title>
<g id="a_node38"><a xlink:href="trig__ops_8_h.html" target="_top" xlink:title="Trigonometric utilities. ">
<polygon fill="#ffffff" stroke="#000000" points="2490.5,-190.5 2490.5,-220.5 2580.5,-220.5 2580.5,-190.5 2490.5,-190.5"/>
<text text-anchor="start" x="2498.5" y="-208.5" font-family="Helvetica,sans-Serif" font-size="10.00" fill="#000000">amr&#45;wind/utilities</text>
<text text-anchor="middle" x="2535.5" y="-197.5" font-family="Helvetica,sans-Serif" font-size="10.00" fill="#000000">/trig_ops.H</text>
</a>
</g>
</g>
<!-- Node0&#45;&gt;Node37 -->
<g id="edge69" class="edge">
<title>Node0&#45;&gt;Node37</title>
<path fill="none" stroke="#191970" d="M1518.9476,-313.1473C1527.9949,-297.9052 1547.7062,-269.1057 1573.5,-257 1654.6518,-218.9134 2290.0864,-227.4341 2379.5,-221 2412.8897,-218.5973 2450.2059,-214.9254 2479.9679,-211.7585"/>
<polygon fill="#191970" stroke="#191970" points="2480.5928,-215.2115 2490.1612,-210.6623 2479.8443,-208.2517 2480.5928,-215.2115"/>
</g>
<!-- Node2 -->
<g id="node3" class="node">
<title>Node2</title>
<g id="a_node3"><a xlink:href="_physics_8_h.html" target="_top" xlink:title="amr&#45;wind/core/Physics.H">
<polygon fill="#ffffff" stroke="#000000" points="567,-129 567,-148 694,-148 694,-129 567,-129"/>
<text text-anchor="middle" x="630.5" y="-136" font-family="Helvetica,sans-Serif" font-size="10.00" fill="#000000">amr&#45;wind/core/Physics.H</text>
</a>
</g>
</g>
<!-- Node1&#45;&gt;Node2 -->
<g id="edge2" class="edge">
<title>Node1&#45;&gt;Node2</title>
<path fill="none" stroke="#191970" d="M959.9111,-194.5731C893.7442,-184.6761 794.5248,-169.3361 708.5,-154 701.4915,-152.7506 694.142,-151.3756 686.8731,-149.9764"/>
<polygon fill="#191970" stroke="#191970" points="687.5352,-146.5397 677.0505,-148.0629 686.1967,-153.4106 687.5352,-146.5397"/>
</g>
<!-- Node14 -->
<g id="node15" class="node">
<title>Node14</title>
<g id="a_node15"><a xlink:href="_field_8_h.html" target="_top" xlink:title="amr&#45;wind/core/Field.H">
<polygon fill="#ffffff" stroke="#000000" points="978,-129 978,-148 1091,-148 1091,-129 978,-129"/>
<text text-anchor="middle" x="1034.5" y="-136" font-family="Helvetica,sans-Serif" font-size="10.00" fill="#000000">amr&#45;wind/core/Field.H</text>
</a>
</g>
</g>
<!-- Node1&#45;&gt;Node14 -->
<g id="edge16" class="edge">
<title>Node1&#45;&gt;Node14</title>
<path fill="none" stroke="#191970" d="M1034.5,-190.2967C1034.5,-180.7699 1034.5,-168.3954 1034.5,-158.1306"/>
<polygon fill="#191970" stroke="#191970" points="1038.0001,-158.0549 1034.5,-148.055 1031.0001,-158.055 1038.0001,-158.0549"/>
</g>
<!-- Node3 -->
<g id="node4" class="node">
<title>Node3</title>
<g id="a_node4"><a xlink:href="_factory_8_h.html" target="_top" xlink:title="amr&#45;wind/core/Factory.H">
<polygon fill="#ffffff" stroke="#000000" points="164,-62 164,-81 289,-81 289,-62 164,-62"/>
<text text-anchor="middle" x="226.5" y="-69" font-family="Helvetica,sans-Serif" font-size="10.00" fill="#000000">amr&#45;wind/core/Factory.H</text>
</a>
</g>
</g>
<!-- Node2&#45;&gt;Node3 -->
<g id="edge3" class="edge">
<title>Node2&#45;&gt;Node3</title>
<path fill="none" stroke="#191970" d="M567.8715,-128.9609C487.6298,-116.6825 352.9973,-95.8755 303.5,-87 296.7365,-85.7872 289.6522,-84.4513 282.6356,-83.0878"/>
<polygon fill="#191970" stroke="#191970" points="282.9368,-79.5799 272.4489,-81.0814 281.584,-86.448 282.9368,-79.5799"/>
</g>
<!-- Node9 -->
<g id="node10" class="node">
<title>Node9</title>
<g id="a_node10"><a xlink:href="_coll_mgr_8_h.html" target="_top" xlink:title="amr&#45;wind/core/CollMgr.H">
<polygon fill="#ffffff" stroke="#000000" points="568,-62 568,-81 693,-81 693,-62 568,-62"/>
<text text-anchor="middle" x="630.5" y="-69" font-family="Helvetica,sans-Serif" font-size="10.00" fill="#000000">amr&#45;wind/core/CollMgr.H</text>
</a>
</g>
</g>
<!-- Node2&#45;&gt;Node9 -->
<g id="edge9" class="edge">
<title>Node2&#45;&gt;Node9</title>
<path fill="none" stroke="#191970" d="M630.5,-128.9005C630.5,-119.149 630.5,-103.7597 630.5,-91.3695"/>
<polygon fill="#191970" stroke="#191970" points="634.0001,-91.0816 630.5,-81.0817 627.0001,-91.0817 634.0001,-91.0816"/>
</g>
<!-- Node12 -->
<g id="node13" class="node">
<title>Node12</title>
<polygon fill="#ffffff" stroke="#bfbfbf" points="1796.5,-.5 1796.5,-19.5 1900.5,-19.5 1900.5,-.5 1796.5,-.5"/>
<text text-anchor="middle" x="1848.5" y="-7.5" font-family="Helvetica,sans-Serif" font-size="10.00" fill="#000000">AMReX_MultiFab.H</text>
</g>
<!-- Node2&#45;&gt;Node12 -->
<g id="edge14" class="edge">
<title>Node2&#45;&gt;Node12</title>
<path fill="none" stroke="#191970" d="M694.084,-135.2801C890.2868,-125.2701 1474.1824,-94.8943 1492.5,-87 1510.9799,-79.0357 1507.3611,-64.7132 1525.5,-56 1570.3623,-34.45 1705.8389,-20.81 1786.3831,-14.3751"/>
<polygon fill="#191970" stroke="#191970" points="1786.7092,-17.8604 1796.4048,-13.5889 1786.1617,-10.8818 1786.7092,-17.8604"/>
</g>
<!-- Node13 -->
<g id="node14" class="node">
<title>Node13</title>
<polygon fill="#ffffff" stroke="#bfbfbf" points="711.5,-62 711.5,-81 821.5,-81 821.5,-62 711.5,-62"/>
<text text-anchor="middle" x="766.5" y="-69" font-family="Helvetica,sans-Serif" font-size="10.00" fill="#000000">AMReX_Geometry.H</text>
</g>
<!-- Node2&#45;&gt;Node13 -->
<g id="edge15" class="edge">
<title>Node2&#45;&gt;Node13</title>
<path fill="none" stroke="#191970" d="M649.9855,-128.9005C673.0113,-117.5569 711.5228,-98.5844 737.9232,-85.5783"/>
<polygon fill="#191970" stroke="#191970" points="739.6269,-88.6407 747.0507,-81.0817 736.5334,-82.3613 739.6269,-88.6407"/>
</g>
<!-- Node4 -->
<g id="node5" class="node">
<title>Node4</title>
<polygon fill="#ffffff" stroke="#bfbfbf" points="513.5,-.5 513.5,-19.5 565.5,-19.5 565.5,-.5 513.5,-.5"/>
<text text-anchor="middle" x="539.5" y="-7.5" font-family="Helvetica,sans-Serif" font-size="10.00" fill="#000000">memory</text>
</g>
<!-- Node3&#45;&gt;Node4 -->
<g id="edge4" class="edge">
<title>Node3&#45;&gt;Node4</title>
<path fill="none" stroke="#191970" d="M273.7276,-61.9455C283.5648,-59.9687 293.8691,-57.9079 303.5,-56 374.3072,-41.9727 457.1365,-25.9073 503.4395,-16.9574"/>
<polygon fill="#191970" stroke="#191970" points="504.143,-20.3863 513.2975,-15.0528 502.8151,-13.5134 504.143,-20.3863"/>
</g>
<!-- Node5 -->
<g id="node6" class="node">
<title>Node5</title>
<polygon fill="#ffffff" stroke="#bfbfbf" points="587,-.5 587,-19.5 670,-19.5 670,-.5 587,-.5"/>
<text text-anchor="middle" x="628.5" y="-7.5" font-family="Helvetica,sans-Serif" font-size="10.00" fill="#000000">unordered_map</text>
</g>
<!-- Node3&#45;&gt;Node5 -->
<g id="edge5" class="edge">
<title>Node3&#45;&gt;Node5</title>
<path fill="none" stroke="#191970" d="M271.195,-61.9792C281.7625,-59.8736 293.0088,-57.7508 303.5,-56 423.3452,-36.0003 454.5031,-39.0684 574.5,-20 575.2592,-19.8794 576.0241,-19.7564 576.7937,-19.6314"/>
<polygon fill="#191970" stroke="#191970" points="577.6908,-23.0295 586.9678,-17.9121 576.5244,-16.1273 577.6908,-23.0295"/>
</g>
<!-- Node6 -->
<g id="node7" class="node">
<title>Node6</title>
<polygon fill="#ffffff" stroke="#bfbfbf" points="282.5,-.5 282.5,-19.5 336.5,-19.5 336.5,-.5 282.5,-.5"/>
<text text-anchor="middle" x="309.5" y="-7.5" font-family="Helvetica,sans-Serif" font-size="10.00" fill="#000000">iostream</text>
</g>
<!-- Node3&#45;&gt;Node6 -->
<g id="edge6" class="edge">
<title>Node3&#45;&gt;Node6</title>
<path fill="none" stroke="#191970" d="M239.4688,-61.8906C252.5034,-52.2324 272.8164,-37.1812 288.2155,-25.771"/>
<polygon fill="#191970" stroke="#191970" points="290.6713,-28.3075 296.6223,-19.5419 286.5039,-22.6832 290.6713,-28.3075"/>
</g>
<!-- Node7 -->
<g id="node8" class="node">
<title>Node7</title>
<polygon fill="#ffffff" stroke="#bfbfbf" points="97,-.5 97,-19.5 184,-19.5 184,-.5 97,-.5"/>
<text text-anchor="middle" x="140.5" y="-7.5" font-family="Helvetica,sans-Serif" font-size="10.00" fill="#000000">AMReX_Print.H</text>
</g>
<!-- Node3&#45;&gt;Node7 -->
<g id="edge7" class="edge">
<title>Node3&#45;&gt;Node7</title>
<path fill="none" stroke="#191970" d="M213.0625,-61.8906C199.4305,-52.1421 178.1154,-36.8994 162.1078,-25.4521"/>
<polygon fill="#191970" stroke="#191970" points="164.0132,-22.5118 153.8431,-19.5419 159.9414,-28.2057 164.0132,-22.5118"/>
</g>
<!-- Node8 -->
<g id="node9" class="node">
<title>Node8</title>
<polygon fill="#ffffff" stroke="#bfbfbf" points="202.5,-.5 202.5,-19.5 264.5,-19.5 264.5,-.5 202.5,-.5"/>
<text text-anchor="middle" x="233.5" y="-7.5" font-family="Helvetica,sans-Serif" font-size="10.00" fill="#000000">AMReX.H</text>
</g>
<!-- Node3&#45;&gt;Node8 -->
<g id="edge8" class="edge">
<title>Node3&#45;&gt;Node8</title>
<path fill="none" stroke="#191970" d="M227.5938,-61.8906C228.5641,-53.3657 230.0126,-40.6392 231.2323,-29.9235"/>
<polygon fill="#191970" stroke="#191970" points="234.7374,-30.0766 232.3908,-19.7449 227.7823,-29.2849 234.7374,-30.0766"/>
</g>
<!-- Node9&#45;&gt;Node4 -->
<g id="edge11" class="edge">
<title>Node9&#45;&gt;Node4</title>
<path fill="none" stroke="#191970" d="M616.2813,-61.8906C601.8566,-52.1421 579.3024,-36.8994 562.364,-25.4521"/>
<polygon fill="#191970" stroke="#191970" points="563.8641,-22.2415 553.6189,-19.5419 559.9444,-28.0412 563.8641,-22.2415"/>
</g>
<!-- Node9&#45;&gt;Node5 -->
<g id="edge12" class="edge">
<title>Node9&#45;&gt;Node5</title>
<path fill="none" stroke="#191970" d="M630.1875,-61.8906C629.9103,-53.3657 629.4964,-40.6392 629.1479,-29.9235"/>
<polygon fill="#191970" stroke="#191970" points="632.6402,-29.6258 628.8169,-19.7449 625.6439,-29.8534 632.6402,-29.6258"/>
</g>
<!-- Node10 -->
<g id="node11" class="node">
<title>Node10</title>
<polygon fill="#ffffff" stroke="#bfbfbf" points="1099,-.5 1099,-19.5 1140,-19.5 1140,-.5 1099,-.5"/>
<text text-anchor="middle" x="1119.5" y="-7.5" font-family="Helvetica,sans-Serif" font-size="10.00" fill="#000000">string</text>
</g>
<!-- Node9&#45;&gt;Node10 -->
<g id="edge10" class="edge">
<title>Node9&#45;&gt;Node10</title>
<path fill="none" stroke="#191970" d="M671.4837,-61.9195C681.5855,-59.7677 692.4031,-57.6393 702.5,-56 845.8097,-32.7324 1018.7708,-17.8097 1088.3173,-12.3435"/>
<polygon fill="#191970" stroke="#191970" points="1088.8717,-15.8111 1098.5708,-11.5476 1088.3299,-8.8321 1088.8717,-15.8111"/>
</g>
<!-- Node11 -->
<g id="node12" class="node">
<title>Node11</title>
<polygon fill="#ffffff" stroke="#bfbfbf" points="1369,-.5 1369,-19.5 1464,-19.5 1464,-.5 1369,-.5"/>
<text text-anchor="middle" x="1416.5" y="-7.5" font-family="Helvetica,sans-Serif" font-size="10.00" fill="#000000">AMReX_Vector.H</text>
</g>
<!-- Node9&#45;&gt;Node11 -->
<g id="edge13" class="edge">
<title>Node9&#45;&gt;Node11</title>
<path fill="none" stroke="#191970" d="M669.549,-61.9956C680.1813,-59.7089 691.7352,-57.4971 702.5,-56 828.8052,-38.434 1211.8003,-19.4549 1358.486,-12.6291"/>
<polygon fill="#191970" stroke="#191970" points="1358.805,-16.1182 1368.6322,-12.1589 1358.4809,-9.1257 1358.805,-16.1182"/>
</g>
<!-- Node14&#45;&gt;Node4 -->
<g id="edge18" class="edge">
<title>Node14&#45;&gt;Node4</title>
<path fill="none" stroke="#191970" d="M977.9462,-135.9813C858.637,-130.1583 589.5567,-114.1469 558.5,-87 542.3508,-72.8839 538.8201,-47.4358 538.5307,-29.6737"/>
<polygon fill="#191970" stroke="#191970" points="542.0323,-29.5987 538.6969,-19.5426 535.0332,-29.4839 542.0323,-29.5987"/>
</g>
<!-- Node14&#45;&gt;Node5 -->
<g id="edge19" class="edge">
<title>Node14&#45;&gt;Node5</title>
<path fill="none" stroke="#191970" d="M1010.4231,-128.8525C984.685,-118.5301 942.6874,-101.6601 906.5,-87 872.6895,-73.3028 865.2894,-66.9754 830.5,-56 780.2226,-40.1384 721.2968,-27.36 680.109,-19.3342"/>
<polygon fill="#191970" stroke="#191970" points="680.5169,-15.8486 670.0358,-17.3972 679.1949,-22.7227 680.5169,-15.8486"/>
</g>
<!-- Node14&#45;&gt;Node10 -->
<g id="edge17" class="edge">
<title>Node14&#45;&gt;Node10</title>
<path fill="none" stroke="#191970" d="M1036.78,-128.891C1040.9385,-112.7351 1050.8912,-79.586 1067.5,-56 1075.6324,-44.4512 1087.2159,-33.8365 1097.3867,-25.7207"/>
<polygon fill="#191970" stroke="#191970" points="1099.672,-28.3792 1105.4912,-19.5255 1095.4209,-22.8179 1099.672,-28.3792"/>
</g>
<!-- Node14&#45;&gt;Node12 -->
<g id="edge20" class="edge">
<title>Node14&#45;&gt;Node12</title>
<path fill="none" stroke="#191970" d="M1091.2244,-135.3289C1183.0512,-129.5744 1369.6986,-115.2985 1525.5,-87 1579.2742,-77.2329 1591.3906,-68.9017 1644.5,-56 1695.1813,-43.6881 1753.2209,-30.7089 1794.4012,-21.6882"/>
<polygon fill="#191970" stroke="#191970" points="1795.2079,-25.0946 1804.2301,-19.5402 1793.7134,-18.256 1795.2079,-25.0946"/>
</g>
<!-- Node15 -->
<g id="node16" class="node">
<title>Node15</title>
<polygon fill="#ffffff" stroke="#bfbfbf" points="916,-62 916,-81 1015,-81 1015,-62 916,-62"/>
<text text-anchor="middle" x="965.5" y="-69" font-family="Helvetica,sans-Serif" font-size="10.00" fill="#000000">AMReX_BCRec.H</text>
</g>
<!-- Node14&#45;&gt;Node15 -->
<g id="edge21" class="edge">
<title>Node14&#45;&gt;Node15</title>
<path fill="none" stroke="#191970" d="M1024.614,-128.9005C1013.7516,-118.353 996.0965,-101.2096 982.9043,-88.3998"/>
<polygon fill="#191970" stroke="#191970" points="984.9802,-85.537 975.3677,-81.0817 980.1038,-90.559 984.9802,-85.537"/>
</g>
<!-- Node16 -->
<g id="node17" class="node">
<title>Node16</title>
<polygon fill="#ffffff" stroke="#bfbfbf" points="1654,-62 1654,-81 1739,-81 1739,-62 1654,-62"/>
<text text-anchor="middle" x="1696.5" y="-69" font-family="Helvetica,sans-Serif" font-size="10.00" fill="#000000">AMReX_Gpu.H</text>
</g>
<!-- Node14&#45;&gt;Node16 -->
<g id="edge22" class="edge">
<title>Node14&#45;&gt;Node16</title>
<path fill="none" stroke="#191970" d="M1091.348,-134.9781C1220.9305,-126.7363 1535.0506,-105.4906 1639.5,-87 1644.669,-86.0849 1650.0498,-84.9161 1655.351,-83.6316"/>
<polygon fill="#191970" stroke="#191970" points="1656.5576,-86.9353 1665.3709,-81.0551 1654.8143,-80.1558 1656.5576,-86.9353"/>
</g>
<!-- Node17 -->
<g id="node18" class="node">
<title>Node17</title>
<g id="a_node18"><a xlink:href="incflo__enums_8_h.html" target="_top" xlink:title="amr&#45;wind/incflo_enums.H">
<polygon fill="#ffffff" stroke="#000000" points="383.5,-62 383.5,-81 511.5,-81 511.5,-62 383.5,-62"/>
<text text-anchor="middle" x="447.5" y="-69" font-family="Helvetica,sans-Serif" font-size="10.00" fill="#000000">amr&#45;wind/incflo_enums.H</text>
</a>
</g>
</g>
<!-- Node14&#45;&gt;Node17 -->
<g id="edge23" class="edge">
<title>Node14&#45;&gt;Node17</title>
<path fill="none" stroke="#191970" d="M977.7896,-134.5367C883.5491,-127.5535 688.8856,-111.4425 525.5,-87 517.7233,-85.8366 509.5463,-84.4237 501.532,-82.9299"/>
<polygon fill="#191970" stroke="#191970" points="501.9902,-79.454 491.5099,-81.0071 500.6713,-86.3287 501.9902,-79.454"/>
</g>
<!-- Node18 -->
<g id="node19" class="node">
<title>Node18</title>
<g id="a_node19"><a xlink:href="_field_desc_types_8_h.html" target="_top" xlink:title="amr&#45;wind/core/FieldDescTypes.H">
<polygon fill="#ffffff" stroke="#000000" points="1506,-.5 1506,-19.5 1669,-19.5 1669,-.5 1506,-.5"/>
<text text-anchor="middle" x="1587.5" y="-7.5" font-family="Helvetica,sans-Serif" font-size="10.00" fill="#000000">amr&#45;wind/core/FieldDescTypes.H</text>
</a>
</g>
</g>
<!-- Node14&#45;&gt;Node18 -->
<g id="edge24" class="edge">
<title>Node14&#45;&gt;Node18</title>
<path fill="none" stroke="#191970" d="M1043.0648,-128.7358C1059.5061,-110.7433 1097.5121,-72.674 1138.5,-56 1154.7982,-49.3698 1369.3035,-29.3948 1495.8271,-18.0677"/>
<polygon fill="#191970" stroke="#191970" points="1496.2583,-21.5432 1505.9071,-17.1669 1495.6352,-14.571 1496.2583,-21.5432"/>
</g>
<!-- Node19 -->
<g id="node20" class="node">
<title>Node19</title>
<g id="a_node20"><a xlink:href="_view_field_8_h.html" target="_top" xlink:title="amr&#45;wind/core/ViewField.H">
<polygon fill="#ffffff" stroke="#000000" points="1349.5,-62 1349.5,-81 1483.5,-81 1483.5,-62 1349.5,-62"/>
<text text-anchor="middle" x="1416.5" y="-69" font-family="Helvetica,sans-Serif" font-size="10.00" fill="#000000">amr&#45;wind/core/ViewField.H</text>
</a>
</g>
</g>
<!-- Node14&#45;&gt;Node19 -->
<g id="edge25" class="edge">
<title>Node14&#45;&gt;Node19</title>
<path fill="none" stroke="#191970" d="M1088.8256,-128.9717C1158.173,-116.8087 1277.9985,-95.7921 1351.9348,-82.8243"/>
<polygon fill="#191970" stroke="#191970" points="1352.8079,-86.2246 1362.0529,-81.0496 1351.5986,-79.3299 1352.8079,-86.2246"/>
</g>
<!-- Node19&#45;&gt;Node10 -->
<g id="edge26" class="edge">
<title>Node19&#45;&gt;Node10</title>
<path fill="none" stroke="#191970" d="M1370.4196,-61.9581C1309.1421,-49.2693 1202.5002,-27.1869 1150.2019,-16.3575"/>
<polygon fill="#191970" stroke="#191970" points="1150.7012,-12.8867 1140.1992,-14.2862 1149.2818,-19.7413 1150.7012,-12.8867"/>
</g>
<!-- Node19&#45;&gt;Node11 -->
<g id="edge29" class="edge">
<title>Node19&#45;&gt;Node11</title>
<path fill="none" stroke="#191970" d="M1416.5,-61.8906C1416.5,-53.3657 1416.5,-40.6392 1416.5,-29.9235"/>
<polygon fill="#191970" stroke="#191970" points="1420.0001,-29.7448 1416.5,-19.7449 1413.0001,-29.7449 1420.0001,-29.7448"/>
</g>
<!-- Node19&#45;&gt;Node12 -->
<g id="edge28" class="edge">
<title>Node19&#45;&gt;Node12</title>
<path fill="none" stroke="#191970" d="M1463.9599,-61.9345C1474.9509,-59.8538 1486.6157,-57.7531 1497.5,-56 1598.2729,-39.7692 1716.0227,-25.2373 1786.3075,-17.0313"/>
<polygon fill="#191970" stroke="#191970" points="1786.7963,-20.4982 1796.3254,-15.867 1785.9881,-13.545 1786.7963,-20.4982"/>
</g>
<!-- Node19&#45;&gt;Node18 -->
<g id="edge27" class="edge">
<title>Node19&#45;&gt;Node18</title>
<path fill="none" stroke="#191970" d="M1443.2188,-61.8906C1472.3321,-51.42 1519.0692,-34.6111 1551.4247,-22.9745"/>
<polygon fill="#191970" stroke="#191970" points="1552.7435,-26.2197 1560.9689,-19.5419 1550.3744,-19.6328 1552.7435,-26.2197"/>
</g>
<!-- Node20&#45;&gt;Node2 -->
<g id="edge67" class="edge">
<title>Node20&#45;&gt;Node2</title>
<path fill="none" stroke="#191970" d="M1435.9865,-257.4854C1371.9525,-241.1589 1235.0304,-207.8463 1117.5,-190 937.0874,-162.6054 889.1445,-179.8213 708.5,-154 700.5323,-152.8611 692.1485,-151.4371 683.9514,-149.9169"/>
<polygon fill="#191970" stroke="#191970" points="684.5656,-146.471 674.0858,-148.0277 683.249,-153.3461 684.5656,-146.471"/>
</g>
<!-- Node21 -->
<g id="node22" class="node">
<title>Node21</title>
<polygon fill="#ffffff" stroke="#bfbfbf" points="2055.5,-129 2055.5,-148 2161.5,-148 2161.5,-129 2055.5,-129"/>
<text text-anchor="middle" x="2108.5" y="-136" font-family="Helvetica,sans-Serif" font-size="10.00" fill="#000000">AMReX_AmrCore.H</text>
</g>
<!-- Node20&#45;&gt;Node21 -->
<g id="edge31" class="edge">
<title>Node20&#45;&gt;Node21</title>
<path fill="none" stroke="#191970" d="M1523.2294,-257.4777C1622.7962,-238.6662 1850.7229,-195.0006 2041.5,-154 2046.8986,-152.8398 2052.5334,-151.5929 2058.1428,-150.3284"/>
<polygon fill="#191970" stroke="#191970" points="2059.1825,-153.6814 2068.1558,-148.0485 2057.6283,-146.8561 2059.1825,-153.6814"/>
</g>
<!-- Node22 -->
<g id="node23" class="node">
<title>Node22</title>
<g id="a_node23"><a xlink:href="_sim_time_8_h.html" target="_top" xlink:title="amr&#45;wind/core/SimTime.H">
<polygon fill="#ffffff" stroke="#000000" points="2240,-196 2240,-215 2371,-215 2371,-196 2240,-196"/>
<text text-anchor="middle" x="2305.5" y="-203" font-family="Helvetica,sans-Serif" font-size="10.00" fill="#000000">amr&#45;wind/core/SimTime.H</text>
</a>
</g>
</g>
<!-- Node20&#45;&gt;Node22 -->
<g id="edge32" class="edge">
<title>Node20&#45;&gt;Node22</title>
<path fill="none" stroke="#191970" d="M1526.6415,-258.6453C1531.323,-258.0421 1535.9914,-257.4825 1540.5,-257 1792.2955,-230.0525 2092.3177,-214.7157 2229.8408,-208.6145"/>
<polygon fill="#191970" stroke="#191970" points="2230.0203,-212.1101 2239.8568,-208.1738 2229.7125,-205.1168 2230.0203,-212.1101"/>
</g>
<!-- Node26 -->
<g id="node27" class="node">
<title>Node26</title>
<g id="a_node27"><a xlink:href="_field_repo_8_h.html" target="_top" xlink:title="amr&#45;wind/core/FieldRepo.H">
<polygon fill="#ffffff" stroke="#000000" points="1404.5,-196 1404.5,-215 1540.5,-215 1540.5,-196 1404.5,-196"/>
<text text-anchor="middle" x="1472.5" y="-203" font-family="Helvetica,sans-Serif" font-size="10.00" fill="#000000">amr&#45;wind/core/FieldRepo.H</text>
</a>
</g>
</g>
<!-- Node20&#45;&gt;Node26 -->
<g id="edge36" class="edge">
<title>Node20&#45;&gt;Node26</title>
<path fill="none" stroke="#191970" d="M1472.5,-257.3906C1472.5,-248.8657 1472.5,-236.1392 1472.5,-225.4235"/>
<polygon fill="#191970" stroke="#191970" points="1476.0001,-225.2448 1472.5,-215.2449 1469.0001,-225.2449 1476.0001,-225.2448"/>
</g>
<!-- Node33 -->
<g id="node34" class="node">
<title>Node33</title>
<g id="a_node34"><a xlink:href="_p_d_e_base_8_h.html" target="_top" xlink:title="amr&#45;wind/equation_systems\l/PDEBase.H">
<polygon fill="#ffffff" stroke="#000000" points="378,-123.5 378,-153.5 517,-153.5 517,-123.5 378,-123.5"/>
<text text-anchor="start" x="386" y="-141.5" font-family="Helvetica,sans-Serif" font-size="10.00" fill="#000000">amr&#45;wind/equation_systems</text>
<text text-anchor="middle" x="447.5" y="-130.5" font-family="Helvetica,sans-Serif" font-size="10.00" fill="#000000">/PDEBase.H</text>
</a>
</g>
</g>
<!-- Node20&#45;&gt;Node33 -->
<g id="edge59" class="edge">
<title>Node20&#45;&gt;Node33</title>
<path fill="none" stroke="#191970" d="M1418.2523,-263.5598C1323.2435,-257.2359 1120.6471,-242.42 950.5,-221 800.2537,-202.0854 626.1187,-171.5947 527.1655,-153.4554"/>
<polygon fill="#191970" stroke="#191970" points="527.7084,-149.9967 517.2404,-151.6312 526.4429,-156.8813 527.7084,-149.9967"/>
</g>
<!-- Node23 -->
<g id="node24" class="node">
<title>Node23</title>
<polygon fill="#ffffff" stroke="#bfbfbf" points="2452,-129 2452,-148 2545,-148 2545,-129 2452,-129"/>
<text text-anchor="middle" x="2498.5" y="-136" font-family="Helvetica,sans-Serif" font-size="10.00" fill="#000000">AMReX_REAL.H</text>
</g>
<!-- Node22&#45;&gt;Node23 -->
<g id="edge33" class="edge">
<title>Node22&#45;&gt;Node23</title>
<path fill="none" stroke="#191970" d="M2333.1522,-195.9005C2366.8318,-184.2086 2423.8574,-164.4122 2461.3472,-151.3976"/>
<polygon fill="#191970" stroke="#191970" points="2462.6,-154.6677 2470.8991,-148.0817 2460.3043,-148.0548 2462.6,-154.6677"/>
</g>
<!-- Node24 -->
<g id="node25" class="node">
<title>Node24</title>
<polygon fill="#ffffff" stroke="#bfbfbf" points="2179.5,-129 2179.5,-148 2305.5,-148 2305.5,-129 2179.5,-129"/>
<text text-anchor="middle" x="2242.5" y="-136" font-family="Helvetica,sans-Serif" font-size="10.00" fill="#000000">AMReX_GpuQualifiers.H</text>
</g>
<!-- Node22&#45;&gt;Node24 -->
<g id="edge34" class="edge">
<title>Node22&#45;&gt;Node24</title>
<path fill="none" stroke="#191970" d="M2296.4736,-195.9005C2286.5558,-185.353 2270.4359,-168.2096 2258.3909,-155.3998"/>
<polygon fill="#191970" stroke="#191970" points="2260.9097,-152.9693 2251.5096,-148.0817 2255.8101,-157.7645 2260.9097,-152.9693"/>
</g>
<!-- Node25 -->
<g id="node26" class="node">
<title>Node25</title>
<polygon fill="#ffffff" stroke="#bfbfbf" points="2323.5,-129 2323.5,-148 2433.5,-148 2433.5,-129 2323.5,-129"/>
<text text-anchor="middle" x="2378.5" y="-136" font-family="Helvetica,sans-Serif" font-size="10.00" fill="#000000">AMReX_Extension.H</text>
</g>
<!-- Node22&#45;&gt;Node25 -->
<g id="edge35" class="edge">
<title>Node22&#45;&gt;Node25</title>
<path fill="none" stroke="#191970" d="M2315.9591,-195.9005C2327.5597,-185.2535 2346.4829,-167.8856 2360.4805,-155.0385"/>
<polygon fill="#191970" stroke="#191970" points="2363.0596,-157.4221 2368.0603,-148.0817 2358.3263,-152.2649 2363.0596,-157.4221"/>
</g>
<!-- Node26&#45;&gt;Node5 -->
<g id="edge38" class="edge">
<title>Node26&#45;&gt;Node5</title>
<path fill="none" stroke="#191970" d="M1404.3986,-198.8506C1307.5163,-189.3207 1124.3518,-171.0434 968.5,-154 850.183,-141.0613 820.7677,-136.3817 702.5,-123 629.6383,-114.7559 423.4396,-141.605 374.5,-87 273.0164,26.2315 189.4714,-90.3029 574.5,-20 575.2562,-19.8619 576.0183,-19.7226 576.7853,-19.5823"/>
<polygon fill="#191970" stroke="#191970" points="577.7313,-22.9672 586.9349,-17.719 576.4672,-16.0823 577.7313,-22.9672"/>
</g>
<!-- Node26&#45;&gt;Node10 -->
<g id="edge37" class="edge">
<title>Node26&#45;&gt;Node10</title>
<path fill="none" stroke="#191970" d="M1409.3298,-195.9281C1364.5029,-187.8925 1303.487,-174.403 1252.5,-154 1197.9371,-132.1661 1173.6292,-134.1144 1138.5,-87 1126.0618,-70.3182 1121.6876,-46.4981 1120.1911,-29.7812"/>
<polygon fill="#191970" stroke="#191970" points="1123.6668,-29.2805 1119.5511,-19.5177 1116.6804,-29.7162 1123.6668,-29.2805"/>
</g>
<!-- Node26&#45;&gt;Node12 -->
<g id="edge57" class="edge">
<title>Node26&#45;&gt;Node12</title>
<path fill="none" stroke="#191970" d="M1540.7258,-200.8282C1674.1175,-191.4085 1960.1929,-169.6988 2002.5,-154 2024.9274,-145.6779 2025.0765,-133.6434 2046.5,-123 2093.7047,-99.5481 2128.396,-129.5536 2159.5,-87 2167.6303,-75.8768 2168.5014,-66.4308 2159.5,-56 2143.502,-37.4617 1997.1089,-22.3097 1910.9951,-14.9061"/>
<polygon fill="#191970" stroke="#191970" points="1911.0651,-11.3996 1900.8051,-14.042 1910.4735,-18.3746 1911.0651,-11.3996"/>
</g>
<!-- Node26&#45;&gt;Node14 -->
<g id="edge44" class="edge">
<title>Node26&#45;&gt;Node14</title>
<path fill="none" stroke="#191970" d="M1404.2775,-197.4911C1330.3998,-188.4541 1209.2067,-172.5692 1105.5,-154 1099.1429,-152.8617 1092.4894,-151.559 1085.9123,-150.203"/>
<polygon fill="#191970" stroke="#191970" points="1086.2005,-146.6867 1075.693,-148.0444 1084.7538,-153.5356 1086.2005,-146.6867"/>
</g>
<!-- Node26&#45;&gt;Node18 -->
<g id="edge39" class="edge">
<title>Node26&#45;&gt;Node18</title>
<path fill="none" stroke="#191970" d="M1540.7225,-198.0559C1656.7834,-183.8322 1884.7591,-148.598 1932.5,-87 1940.9401,-76.11 1941.5758,-66.3662 1932.5,-56 1915.9693,-37.1189 1775.6182,-23.3722 1679.1043,-16.0469"/>
<polygon fill="#191970" stroke="#191970" points="1679.263,-12.5491 1669.0297,-15.2934 1678.7408,-19.5296 1679.263,-12.5491"/>
</g>
<!-- Node26&#45;&gt;Node21 -->
<g id="edge56" class="edge">
<title>Node26&#45;&gt;Node21</title>
<path fill="none" stroke="#191970" d="M1540.7548,-202.3505C1647.9383,-196.7252 1862.0241,-182.7435 2041.5,-154 2047.9213,-152.9716 2054.6432,-151.6792 2061.2471,-150.2815"/>
<polygon fill="#191970" stroke="#191970" points="2062.459,-153.5982 2071.4674,-148.0216 2060.9475,-146.7633 2062.459,-153.5982"/>
</g>
<!-- Node27 -->
<g id="node28" class="node">
<title>Node27</title>
<g id="a_node28"><a xlink:href="_field_utils_8_h.html" target="_top" xlink:title="amr&#45;wind/core/FieldUtils.H">
<polygon fill="#ffffff" stroke="#000000" points="2018,-62 2018,-81 2151,-81 2151,-62 2018,-62"/>
<text text-anchor="middle" x="2084.5" y="-69" font-family="Helvetica,sans-Serif" font-size="10.00" fill="#000000">amr&#45;wind/core/FieldUtils.H</text>
</a>
</g>
</g>
<!-- Node26&#45;&gt;Node27 -->
<g id="edge40" class="edge">
<title>Node26&#45;&gt;Node27</title>
<path fill="none" stroke="#191970" d="M1540.9251,-202.5519C1657.4892,-196.8336 1889.3527,-182.2405 1965.5,-154 1976.2185,-150.0249 2031.7844,-110.0471 2063.0545,-87.2363"/>
<polygon fill="#191970" stroke="#191970" points="2065.1651,-90.0289 2071.1726,-81.3019 2061.0341,-84.3778 2065.1651,-90.0289"/>
</g>
<!-- Node29 -->
<g id="node30" class="node">
<title>Node29</title>
<g id="a_node30"><a xlink:href="_int_field_8_h.html" target="_top" xlink:title="amr&#45;wind/core/IntField.H">
<polygon fill="#ffffff" stroke="#000000" points="1307.5,-129 1307.5,-148 1431.5,-148 1431.5,-129 1307.5,-129"/>
<text text-anchor="middle" x="1369.5" y="-136" font-family="Helvetica,sans-Serif" font-size="10.00" fill="#000000">amr&#45;wind/core/IntField.H</text>
</a>
</g>
</g>
<!-- Node26&#45;&gt;Node29 -->
<g id="edge45" class="edge">
<title>Node26&#45;&gt;Node29</title>
<path fill="none" stroke="#191970" d="M1457.7426,-195.9005C1440.7628,-184.8554 1412.6641,-166.5776 1392.7399,-153.6172"/>
<polygon fill="#191970" stroke="#191970" points="1394.5211,-150.6005 1384.23,-148.0817 1390.7041,-156.4684 1394.5211,-150.6005"/>
</g>
<!-- Node30 -->
<g id="node31" class="node">
<title>Node30</title>
<polygon fill="#ffffff" stroke="#bfbfbf" points="1148,-62 1148,-81 1255,-81 1255,-62 1148,-62"/>
<text text-anchor="middle" x="1201.5" y="-69" font-family="Helvetica,sans-Serif" font-size="10.00" fill="#000000">AMReX_iMultiFab.H</text>
</g>
<!-- Node26&#45;&gt;Node30 -->
<g id="edge58" class="edge">
<title>Node26&#45;&gt;Node30</title>
<path fill="none" stroke="#191970" d="M1420.0422,-195.956C1384.306,-188.049 1336.7303,-174.7009 1298.5,-154 1266.3245,-136.5777 1235.2087,-107.1994 1217.2311,-88.6069"/>
<polygon fill="#191970" stroke="#191970" points="1219.5707,-85.9873 1210.1523,-81.1351 1214.4891,-90.8017 1219.5707,-85.9873"/>
</g>
<!-- Node31 -->
<g id="node32" class="node">
<title>Node31</title>
<g id="a_node32"><a xlink:href="_scratch_field_8_h.html" target="_top" xlink:title="amr&#45;wind/core/ScratchField.H">
<polygon fill="#ffffff" stroke="#000000" points="1476.5,-129 1476.5,-148 1622.5,-148 1622.5,-129 1476.5,-129"/>
<text text-anchor="middle" x="1549.5" y="-136" font-family="Helvetica,sans-Serif" font-size="10.00" fill="#000000">amr&#45;wind/core/ScratchField.H</text>
</a>
</g>
</g>
<!-- Node26&#45;&gt;Node31 -->
<g id="edge49" class="edge">
<title>Node26&#45;&gt;Node31</title>
<path fill="none" stroke="#191970" d="M1483.5322,-195.9005C1495.8828,-185.1539 1516.1023,-167.5603 1530.9057,-154.6794"/>
<polygon fill="#191970" stroke="#191970" points="1533.2418,-157.2863 1538.4882,-148.0817 1528.6468,-152.0055 1533.2418,-157.2863"/>
</g>
<!-- Node27&#45;&gt;Node12 -->
<g id="edge42" class="edge">
<title>Node27&#45;&gt;Node12</title>
<path fill="none" stroke="#191970" d="M2047.8839,-61.9581C2006.7189,-51.2308 1939.7899,-33.7895 1894.9709,-22.11"/>
<polygon fill="#191970" stroke="#191970" points="1895.7614,-18.6992 1885.202,-19.5643 1893.9962,-25.473 1895.7614,-18.6992"/>
</g>
<!-- Node27&#45;&gt;Node18 -->
<g id="edge41" class="edge">
<title>Node27&#45;&gt;Node18</title>
<path fill="none" stroke="#191970" d="M2017.7982,-62.7114C2000.751,-60.4929 1982.4501,-58.1352 1965.5,-56 1867.1042,-43.6051 1754.2259,-29.9409 1677.6265,-20.7514"/>
<polygon fill="#191970" stroke="#191970" points="1677.8787,-17.2566 1667.5331,-19.5412 1677.0453,-24.2068 1677.8787,-17.2566"/>
</g>
<!-- Node28 -->
<g id="node29" class="node">
<title>Node28</title>
<polygon fill="#ffffff" stroke="#bfbfbf" points="2026.5,-.5 2026.5,-19.5 2142.5,-19.5 2142.5,-.5 2026.5,-.5"/>
<text text-anchor="middle" x="2084.5" y="-7.5" font-family="Helvetica,sans-Serif" font-size="10.00" fill="#000000">AMReX_Interpolater.H</text>
</g>
<!-- Node27&#45;&gt;Node28 -->
<g id="edge43" class="edge">
<title>Node27&#45;&gt;Node28</title>
<path fill="none" stroke="#191970" d="M2084.5,-61.8906C2084.5,-53.3657 2084.5,-40.6392 2084.5,-29.9235"/>
<polygon fill="#191970" stroke="#191970" points="2088.0001,-29.7448 2084.5,-19.7449 2081.0001,-29.7449 2088.0001,-29.7448"/>
</g>
<!-- Node29&#45;&gt;Node10 -->
<g id="edge46" class="edge">
<title>Node29&#45;&gt;Node10</title>
<path fill="none" stroke="#191970" d="M1358.0924,-128.7855C1335.1109,-109.3569 1283.7147,-66.6601 1263.5,-56 1226.7441,-36.6169 1180.3708,-23.6141 1150.3365,-16.5137"/>
<polygon fill="#191970" stroke="#191970" points="1150.9658,-13.0673 1140.4369,-14.2477 1149.4038,-19.8909 1150.9658,-13.0673"/>
</g>
<!-- Node29&#45;&gt;Node18 -->
<g id="edge47" class="edge">
<title>Node29&#45;&gt;Node18</title>
<path fill="none" stroke="#191970" d="M1398.6992,-128.9361C1424.3498,-119.9236 1462.1978,-105.1156 1492.5,-87 1521.8919,-69.4286 1551.9595,-43.4318 1570.1833,-26.6022"/>
<polygon fill="#191970" stroke="#191970" points="1572.775,-28.9701 1577.678,-19.578 1567.9881,-23.8627 1572.775,-28.9701"/>
</g>
<!-- Node29&#45;&gt;Node30 -->
<g id="edge48" class="edge">
<title>Node29&#45;&gt;Node30</title>
<path fill="none" stroke="#191970" d="M1345.4297,-128.9005C1316.487,-117.3579 1267.7379,-97.9163 1235.0983,-84.8993"/>
<polygon fill="#191970" stroke="#191970" points="1236.1108,-81.5351 1225.5257,-81.0817 1233.5177,-88.0371 1236.1108,-81.5351"/>
</g>
<!-- Node31&#45;&gt;Node10 -->
<g id="edge50" class="edge">
<title>Node31&#45;&gt;Node10</title>
<path fill="none" stroke="#191970" d="M1481.7204,-128.9731C1439.6206,-121.3394 1385.2038,-108.2917 1340.5,-87 1319.8752,-77.1768 1320.0823,-65.9119 1299.5,-56 1250.1721,-32.2451 1187.1217,-19.7682 1150.2338,-14.0571"/>
<polygon fill="#191970" stroke="#191970" points="1150.5177,-10.5611 1140.113,-12.5593 1149.4929,-17.4857 1150.5177,-10.5611"/>
</g>
<!-- Node31&#45;&gt;Node11 -->
<g id="edge54" class="edge">
<title>Node31&#45;&gt;Node11</title>
<path fill="none" stroke="#191970" d="M1544.6155,-128.8783C1535.9003,-112.4111 1516.3302,-78.4345 1492.5,-56 1479.0507,-43.3384 1461.5515,-32.4559 1446.7353,-24.4591"/>
<polygon fill="#191970" stroke="#191970" points="1447.9425,-21.1418 1437.456,-19.631 1444.7115,-27.3516 1447.9425,-21.1418"/>
</g>
<!-- Node31&#45;&gt;Node12 -->
<g id="edge53" class="edge">
<title>Node31&#45;&gt;Node12</title>
<path fill="none" stroke="#191970" d="M1622.8382,-133.7762C1728.3174,-126.2246 1912.4593,-109.9158 1932.5,-87 1941.57,-76.6288 1939.5232,-67.8534 1932.5,-56 1923.6564,-41.0742 1908.0668,-30.6736 1892.6998,-23.589"/>
<polygon fill="#191970" stroke="#191970" points="1893.7971,-20.2534 1883.2227,-19.5956 1891.0789,-26.7041 1893.7971,-20.2534"/>
</g>
<!-- Node31&#45;&gt;Node18 -->
<g id="edge51" class="edge">
<title>Node31&#45;&gt;Node18</title>
<path fill="none" stroke="#191970" d="M1622.0975,-128.9993C1672.0052,-120.806 1731.9661,-107.0911 1747.5,-87 1774.3371,-52.2896 1721.8776,-32.3742 1669.9985,-21.5318"/>
<polygon fill="#191970" stroke="#191970" points="1670.4865,-18.0604 1659.9965,-19.5469 1669.1239,-24.9265 1670.4865,-18.0604"/>
</g>
<!-- Node31&#45;&gt;Node19 -->
<g id="edge52" class="edge">
<title>Node31&#45;&gt;Node19</title>
<path fill="none" stroke="#191970" d="M1530.4443,-128.9005C1508.0252,-117.6067 1470.5946,-98.7506 1444.7868,-85.7497"/>
<polygon fill="#191970" stroke="#191970" points="1446.0258,-82.4549 1435.5203,-81.0817 1442.8765,-88.7065 1446.0258,-82.4549"/>
</g>
<!-- Node32 -->
<g id="node33" class="node">
<title>Node32</title>
<polygon fill="#ffffff" stroke="#bfbfbf" points="1795.5,-62 1795.5,-81 1923.5,-81 1923.5,-62 1795.5,-62"/>
<text text-anchor="middle" x="1859.5" y="-69" font-family="Helvetica,sans-Serif" font-size="10.00" fill="#000000">AMReX_PhysBCFunct.H</text>
</g>
<!-- Node31&#45;&gt;Node32 -->
<g id="edge55" class="edge">
<title>Node31&#45;&gt;Node32</title>
<path fill="none" stroke="#191970" d="M1593.5862,-128.9717C1649.2084,-116.9501 1744.8475,-96.2797 1804.9959,-83.2799"/>
<polygon fill="#191970" stroke="#191970" points="1806.029,-86.6375 1815.064,-81.1039 1804.5502,-79.7955 1806.029,-86.6375"/>
</g>
<!-- Node33&#45;&gt;Node3 -->
<g id="edge61" class="edge">
<title>Node33&#45;&gt;Node3</title>
<path fill="none" stroke="#191970" d="M397.9033,-123.4639C358.7016,-111.5792 304.6277,-95.1858 267.7668,-84.0108"/>
<polygon fill="#191970" stroke="#191970" points="268.4386,-80.5572 257.8533,-81.0053 266.4077,-87.2561 268.4386,-80.5572"/>
</g>
<!-- Node33&#45;&gt;Node9 -->
<g id="edge62" class="edge">
<title>Node33&#45;&gt;Node9</title>
<path fill="none" stroke="#191970" d="M488.5688,-123.4639C520.475,-111.7824 564.2788,-95.7449 594.7512,-84.5884"/>
<polygon fill="#191970" stroke="#191970" points="596.3507,-87.73 604.5378,-81.0053 593.944,-81.1567 596.3507,-87.73"/>
</g>
<!-- Node33&#45;&gt;Node10 -->
<g id="edge60" class="edge">
<title>Node33&#45;&gt;Node10</title>
<path fill="none" stroke="#191970" d="M418.1916,-123.3529C389.4587,-106.6173 352.8848,-78.991 374.5,-56 399.3465,-29.572 950.7866,-14.1812 1088.5345,-10.7404"/>
<polygon fill="#191970" stroke="#191970" points="1088.8862,-14.2328 1098.7967,-10.4871 1088.7134,-7.235 1088.8862,-14.2328"/>
</g>
<!-- Node33&#45;&gt;Node17 -->
<g id="edge66" class="edge">
<title>Node33&#45;&gt;Node17</title>
<path fill="none" stroke="#191970" d="M447.5,-123.2967C447.5,-113.7699 447.5,-101.3954 447.5,-91.1306"/>
<polygon fill="#191970" stroke="#191970" points="451.0001,-91.0549 447.5,-81.055 444.0001,-91.055 451.0001,-91.0549"/>
</g>
<!-- Node33&#45;&gt;Node18 -->
<g id="edge65" class="edge">
<title>Node33&#45;&gt;Node18</title>
<path fill="none" stroke="#191970" d="M517.0219,-128.6084C530.4499,-126.7249 544.4104,-124.7852 557.5,-123 678.7611,-106.4617 712.2045,-118.3682 830.5,-87 865.761,-77.6499 870.9432,-64.1533 906.5,-56 1152.1875,.3368 1221.1472,-38.9194 1472.5,-20 1480.0877,-19.4289 1487.9544,-18.8072 1495.8503,-18.1625"/>
<polygon fill="#191970" stroke="#191970" points="1496.1713,-21.648 1505.8488,-17.3357 1495.5943,-14.6718 1496.1713,-21.648"/>
</g>
<!-- Node34 -->
<g id="node35" class="node">
<title>Node34</title>
<g id="a_node35"><a xlink:href="_p_d_e_fields_8_h.html" target="_top" xlink:title="amr&#45;wind/equation_systems\l/PDEFields.H">
<polygon fill="#ffffff" stroke="#000000" points="0,-56.5 0,-86.5 139,-86.5 139,-56.5 0,-56.5"/>
<text text-anchor="start" x="8" y="-74.5" font-family="Helvetica,sans-Serif" font-size="10.00" fill="#000000">amr&#45;wind/equation_systems</text>
<text text-anchor="middle" x="69.5" y="-63.5" font-family="Helvetica,sans-Serif" font-size="10.00" fill="#000000">/PDEFields.H</text>
</a>
</g>
</g>
<!-- Node33&#45;&gt;Node34 -->
<g id="edge63" class="edge">
<title>Node33&#45;&gt;Node34</title>
<path fill="none" stroke="#191970" d="M377.9175,-126.3983C318.5371,-116.0401 230.886,-100.6776 154.5,-87 152.7743,-86.691 151.029,-86.3779 149.2695,-86.0617"/>
<polygon fill="#191970" stroke="#191970" points="149.5366,-82.5536 139.0744,-84.2244 148.295,-89.4426 149.5366,-82.5536"/>
</g>
<!-- Node35 -->
<g id="node36" class="node">
<title>Node35</title>
<polygon fill="#ffffff" stroke="#bfbfbf" points="34,-.5 34,-19.5 79,-19.5 79,-.5 34,-.5"/>
<text text-anchor="middle" x="56.5" y="-7.5" font-family="Helvetica,sans-Serif" font-size="10.00" fill="#000000">iosfwd</text>
</g>
<!-- Node34&#45;&gt;Node35 -->
<g id="edge64" class="edge">
<title>Node34&#45;&gt;Node35</title>
<path fill="none" stroke="#191970" d="M66.2865,-56.2977C64.5948,-48.2945 62.4999,-38.3843 60.683,-29.7889"/>
<polygon fill="#191970" stroke="#191970" points="64.074,-28.9069 58.5815,-19.8469 57.2253,-30.3546 64.074,-28.9069"/>
</g>
<!-- Node37&#45;&gt;Node16 -->
<g id="edge72" class="edge">
<title>Node37&#45;&gt;Node16</title>
<path fill="none" stroke="#191970" d="M2545.859,-190.2527C2556.9606,-171.854 2570.8055,-141.1368 2553.5,-123 2524.0518,-92.1372 1828.9061,-91.6289 1786.5,-87 1774.4327,-85.6828 1761.5334,-83.7671 1749.3791,-81.7287"/>
<polygon fill="#191970" stroke="#191970" points="1749.8298,-78.2547 1739.3793,-79.998 1748.6359,-85.1522 1749.8298,-78.2547"/>
</g>
<!-- Node37&#45;&gt;Node23 -->
<g id="edge71" class="edge">
<title>Node37&#45;&gt;Node23</title>
<path fill="none" stroke="#191970" d="M2527.1041,-190.2967C2521.6192,-180.3645 2514.4249,-167.3371 2508.6237,-156.8321"/>
<polygon fill="#191970" stroke="#191970" points="2511.6748,-155.1169 2503.7766,-148.055 2505.547,-158.5009 2511.6748,-155.1169"/>
</g>
<!-- Node38 -->
<g id="node39" class="node">
<title>Node38</title>
<polygon fill="#ffffff" stroke="#bfbfbf" points="2601.5,-129 2601.5,-148 2645.5,-148 2645.5,-129 2601.5,-129"/>
<text text-anchor="middle" x="2623.5" y="-136" font-family="Helvetica,sans-Serif" font-size="10.00" fill="#000000">cmath</text>
</g>
<!-- Node37&#45;&gt;Node38 -->
<g id="edge70" class="edge">
<title>Node37&#45;&gt;Node38</title>
<path fill="none" stroke="#191970" d="M2555.4686,-190.2967C2569.5787,-179.5537 2588.4451,-165.1895 2602.7308,-154.3129"/>
<polygon fill="#191970" stroke="#191970" points="2605.114,-156.8975 2610.9502,-148.055 2600.8736,-151.328 2605.114,-156.8975"/>
</g>
</g>
</svg>
        <g id="navigator" transform="translate(0 0)" fill="#404254">
                <rect fill="#f2f5e9" fill-opacity="0.5" stroke="#606060" stroke-width=".5" x="0" y="0" width="60" height="60"/>
                <use id="zoomplus" xlink:href="#zoomPlus" x="17" y="9" onmousedown="handleZoom(evt,'in')"/>
                <use id="zoomminus" xlink:href="#zoomMin" x="42" y="9" onmousedown="handleZoom(evt,'out')"/>
                <use id="reset" xlink:href="#resetDef" x="30" y="36" onmousedown="handleReset()"/>
                <g id="arrowUp" xlink:href="#dirArrow" transform="translate(30 24)" onmousedown="handlePan(0,-1)">
                  <use xlink:href="#rim" fill="#404040">
                        <set attributeName="fill" to="#808080" begin="arrowUp.mouseover" end="arrowUp.mouseout"/>
                  </use>
                  <path fill="none" stroke="white" stroke-width="1.5" d="M0,-3.0v7 M-2.5,-0.5L0,-3.0L2.5,-0.5"/>
                </g>
                <g id="arrowRight" xlink:href="#dirArrow" transform="rotate(90) translate(36 -43)" onmousedown="handlePan(1,0)">
                  <use xlink:href="#rim" fill="#404040">
                        <set attributeName="fill" to="#808080" begin="arrowRight.mouseover" end="arrowRight.mouseout"/>
                  </use>
                  <path fill="none" stroke="white" stroke-width="1.5" d="M0,-3.0v7 M-2.5,-0.5L0,-3.0L2.5,-0.5"/>
                </g>
                <g id="arrowDown" xlink:href="#dirArrow" transform="rotate(180) translate(-30 -48)" onmousedown="handlePan(0,1)">
                  <use xlink:href="#rim" fill="#404040">
                        <set attributeName="fill" to="#808080" begin="arrowDown.mouseover" end="arrowDown.mouseout"/>
                  </use>
                  <path fill="none" stroke="white" stroke-width="1.5" d="M0,-3.0v7 M-2.5,-0.5L0,-3.0L2.5,-0.5"/>
                </g>
                <g id="arrowLeft" xlink:href="#dirArrow" transform="rotate(270) translate(-36 17)" onmousedown="handlePan(-1,0)">
                  <use xlink:href="#rim" fill="#404040">
                        <set attributeName="fill" to="#808080" begin="arrowLeft.mouseover" end="arrowLeft.mouseout"/>
                  </use>
                  <path fill="none" stroke="white" stroke-width="1.5" d="M0,-3.0v7 M-2.5,-0.5L0,-3.0L2.5,-0.5"/>
                </g>
        </g>
        <svg viewBox="0 0 15 15" width="100%" height="30px" preserveAspectRatio="xMaxYMin meet">
         <g id="arrow_out" transform="scale(0.3 0.3)">
          <a xlink:href="_taylor_green_vortex_8cpp__incl_org.svg" target="_base">
           <rect id="button" ry="5" rx="5" y="6" x="6" height="38" width="38"
                fill="#f2f5e9" fill-opacity="0.5" stroke="#606060" stroke-width="1.0"/>
           <path id="arrow"
             d="M 11.500037,31.436501 C 11.940474,20.09759 22.043105,11.32322 32.158766,21.979434 L 37.068811,17.246167 C 37.068811,17.246167 37.088388,32 37.088388,32 L 22.160133,31.978069 C 22.160133,31.978069 26.997745,27.140456 26.997745,27.140456 C 18.528582,18.264221 13.291696,25.230495 11.500037,31.436501 z"
             style="fill:#404040;"/>
          </a>
         </g>
        </svg>
</svg>
