<?xml version="1.0" encoding="UTF-8" standalone="no"?>
<!DOCTYPE svg PUBLIC "-//W3C//DTD SVG 1.1//EN"
 "http://www.w3.org/Graphics/SVG/1.1/DTD/svg11.dtd">
<!-- Generated by graphviz version 2.40.1 (20161225.0304)
 -->
<!-- Title: TiogaInterface.cpp Pages: 1 -->
<svg width="2543pt" height="341pt"
 viewBox="0.00 0.00 2542.55 341.00" xmlns="http://www.w3.org/2000/svg" xmlns:xlink="http://www.w3.org/1999/xlink">
<g id="graph0" class="graph" transform="scale(1 1) rotate(0) translate(4 337)">
<title>TiogaInterface.cpp</title>
<polygon fill="#ffffff" stroke="transparent" points="-4,4 -4,-337 2538.5513,-337 2538.5513,4 -4,4"/>
<!-- Node0 -->
<g id="node1" class="node">
<title>Node0</title>
<polygon fill="#bfbfbf" stroke="#000000" points="1344.5,-313.5 1344.5,-332.5 1442.5,-332.5 1442.5,-313.5 1344.5,-313.5"/>
<text text-anchor="middle" x="1393.5" y="-320.5" font-family="Helvetica,sans-Serif" font-size="10.00" fill="#000000">TiogaInterface.cpp</text>
</g>
<!-- Node1 -->
<g id="node2" class="node">
<title>Node1</title>
<g id="a_node2"><a xlink:href="_tioga_interface_8_h.html" target="_top" xlink:title="amr&#45;wind/overset/TiogaInterface.H">
<polygon fill="#ffffff" stroke="#000000" points="211,-196 211,-215 378,-215 378,-196 211,-196"/>
<text text-anchor="middle" x="294.5" y="-203" font-family="Helvetica,sans-Serif" font-size="10.00" fill="#000000">amr&#45;wind/overset/TiogaInterface.H</text>
</a>
</g>
</g>
<!-- Node0&#45;&gt;Node1 -->
<g id="edge1" class="edge">
<title>Node0&#45;&gt;Node1</title>
<path fill="none" stroke="#191970" d="M1344.3945,-318.3987C1259.2714,-310.3699 1078.811,-293.1162 926.5,-277 733.7142,-256.6011 508.1108,-230.5534 385.3733,-216.1988"/>
<polygon fill="#191970" stroke="#191970" points="385.6079,-212.7024 375.2688,-215.0163 384.7942,-219.655 385.6079,-212.7024"/>
</g>
<!-- Node12 -->
<g id="node13" class="node">
<title>Node12</title>
<g id="a_node13"><a xlink:href="_c_f_d_sim_8_h.html" target="_top" xlink:title="amr&#45;wind/CFDSim.H">
<polygon fill="#ffffff" stroke="#000000" points="935.5,-257.5 935.5,-276.5 1043.5,-276.5 1043.5,-257.5 935.5,-257.5"/>
<text text-anchor="middle" x="989.5" y="-264.5" font-family="Helvetica,sans-Serif" font-size="10.00" fill="#000000">amr&#45;wind/CFDSim.H</text>
</a>
</g>
</g>
<!-- Node0&#45;&gt;Node12 -->
<g id="edge12" class="edge">
<title>Node0&#45;&gt;Node12</title>
<path fill="none" stroke="#191970" d="M1344.3656,-316.1893C1271.4649,-306.0842 1134.5946,-287.1121 1053.8037,-275.9134"/>
<polygon fill="#191970" stroke="#191970" points="1054.1405,-272.4267 1043.7546,-274.5204 1053.1793,-279.3604 1054.1405,-272.4267"/>
</g>
<!-- Node18 -->
<g id="node19" class="node">
<title>Node18</title>
<g id="a_node19"><a xlink:href="_field_repo_8_h.html" target="_top" xlink:title="amr&#45;wind/core/FieldRepo.H">
<polygon fill="#ffffff" stroke="#000000" points="1325.5,-196 1325.5,-215 1461.5,-215 1461.5,-196 1325.5,-196"/>
<text text-anchor="middle" x="1393.5" y="-203" font-family="Helvetica,sans-Serif" font-size="10.00" fill="#000000">amr&#45;wind/core/FieldRepo.H</text>
</a>
</g>
</g>
<!-- Node0&#45;&gt;Node18 -->
<g id="edge71" class="edge">
<title>Node0&#45;&gt;Node18</title>
<path fill="none" stroke="#191970" d="M1393.5,-313.3845C1393.5,-294.1913 1393.5,-250.786 1393.5,-225.2663"/>
<polygon fill="#191970" stroke="#191970" points="1397.0001,-225.2483 1393.5,-215.2484 1390.0001,-225.2484 1397.0001,-225.2483"/>
</g>
<!-- Node33 -->
<g id="node34" class="node">
<title>Node33</title>
<g id="a_node34"><a xlink:href="_p_d_e_base_8_h.html" target="_top" xlink:title="amr&#45;wind/equation_systems\l/PDEBase.H">
<polygon fill="#ffffff" stroke="#000000" points="884,-123.5 884,-153.5 1023,-153.5 1023,-123.5 884,-123.5"/>
<text text-anchor="start" x="892" y="-141.5" font-family="Helvetica,sans-Serif" font-size="10.00" fill="#000000">amr&#45;wind/equation_systems</text>
<text text-anchor="middle" x="953.5" y="-130.5" font-family="Helvetica,sans-Serif" font-size="10.00" fill="#000000">/PDEBase.H</text>
</a>
</g>
</g>
<!-- Node0&#45;&gt;Node33 -->
<g id="edge72" class="edge">
<title>Node0&#45;&gt;Node33</title>
<path fill="none" stroke="#191970" d="M1370.7702,-313.469C1301.511,-284.4274 1092.1687,-196.6463 999.0302,-157.5917"/>
<polygon fill="#191970" stroke="#191970" points="1000.1654,-154.2725 989.5899,-153.6331 997.4585,-160.7279 1000.1654,-154.2725"/>
</g>
<!-- Node39 -->
<g id="node40" class="node">
<title>Node39</title>
<g id="a_node40"><a xlink:href="field__ops_8_h.html" target="_top" xlink:title="amr&#45;wind/core/field\l_ops.H">
<polygon fill="#ffffff" stroke="#000000" points="1592,-190.5 1592,-220.5 1691,-220.5 1691,-190.5 1592,-190.5"/>
<text text-anchor="start" x="1600" y="-208.5" font-family="Helvetica,sans-Serif" font-size="10.00" fill="#000000">amr&#45;wind/core/field</text>
<text text-anchor="middle" x="1641.5" y="-197.5" font-family="Helvetica,sans-Serif" font-size="10.00" fill="#000000">_ops.H</text>
</a>
</g>
</g>
<!-- Node0&#45;&gt;Node39 -->
<g id="edge73" class="edge">
<title>Node0&#45;&gt;Node39</title>
<path fill="none" stroke="#191970" d="M1442.6252,-318.6822C1481.5368,-313.4596 1536.0546,-302.0036 1577.5,-277 1597.4796,-264.9465 1614.7545,-244.6796 1626.3036,-228.7949"/>
<polygon fill="#191970" stroke="#191970" points="1629.2424,-230.6998 1632.1115,-220.5008 1623.5084,-226.6846 1629.2424,-230.6998"/>
</g>
<!-- Node40 -->
<g id="node41" class="node">
<title>Node40</title>
<g id="a_node41"><a xlink:href="_i_o_manager_8_h.html" target="_top" xlink:title="amr&#45;wind/utilities\l/IOManager.H">
<polygon fill="#ffffff" stroke="#000000" points="1443.5,-56.5 1443.5,-86.5 1533.5,-86.5 1533.5,-56.5 1443.5,-56.5"/>
<text text-anchor="start" x="1451.5" y="-74.5" font-family="Helvetica,sans-Serif" font-size="10.00" fill="#000000">amr&#45;wind/utilities</text>
<text text-anchor="middle" x="1488.5" y="-63.5" font-family="Helvetica,sans-Serif" font-size="10.00" fill="#000000">/IOManager.H</text>
</a>
</g>
</g>
<!-- Node0&#45;&gt;Node40 -->
<g id="edge76" class="edge">
<title>Node0&#45;&gt;Node40</title>
<path fill="none" stroke="#191970" d="M1407.5097,-313.1811C1439.2958,-289.9316 1516.2999,-227.8864 1544.5,-154 1549.4129,-141.1279 1550.0376,-135.6159 1544.5,-123 1539.3986,-111.3778 1530.2366,-101.2245 1520.7812,-93.0748"/>
<polygon fill="#191970" stroke="#191970" points="1522.8422,-90.2411 1512.8524,-86.7121 1518.4611,-95.7006 1522.8422,-90.2411"/>
</g>
<!-- Node42 -->
<g id="node43" class="node">
<title>Node42</title>
<polygon fill="#ffffff" stroke="#bfbfbf" points="1630,-257.5 1630,-276.5 1681,-276.5 1681,-257.5 1630,-257.5"/>
<text text-anchor="middle" x="1655.5" y="-264.5" font-family="Helvetica,sans-Serif" font-size="10.00" fill="#000000">numeric</text>
</g>
<!-- Node0&#45;&gt;Node42 -->
<g id="edge81" class="edge">
<title>Node0&#45;&gt;Node42</title>
<path fill="none" stroke="#191970" d="M1442.5636,-313.4291C1487.6306,-304.4966 1556.2163,-290.5466 1615.5,-277 1616.9393,-276.6711 1618.4063,-276.3303 1619.8872,-275.9817"/>
<polygon fill="#191970" stroke="#191970" points="1620.8164,-279.358 1629.7162,-273.6096 1619.1741,-272.5533 1620.8164,-279.358"/>
</g>
<!-- Node2 -->
<g id="node3" class="node">
<title>Node2</title>
<polygon fill="#ffffff" stroke="#bfbfbf" points="147.5,-129 147.5,-148 191.5,-148 191.5,-129 147.5,-129"/>
<text text-anchor="middle" x="169.5" y="-136" font-family="Helvetica,sans-Serif" font-size="10.00" fill="#000000">vector</text>
</g>
<!-- Node1&#45;&gt;Node2 -->
<g id="edge2" class="edge">
<title>Node1&#45;&gt;Node2</title>
<path fill="none" stroke="#191970" d="M276.5905,-195.9005C255.6127,-184.6564 220.6504,-165.9166 196.4065,-152.9219"/>
<polygon fill="#191970" stroke="#191970" points="197.8435,-149.7211 187.3762,-148.0817 194.5365,-155.8907 197.8435,-149.7211"/>
</g>
<!-- Node3 -->
<g id="node4" class="node">
<title>Node3</title>
<g id="a_node4"><a xlink:href="_overset_manager_8_h.html" target="_top" xlink:title="amr&#45;wind/overset/Overset\lManager.H">
<polygon fill="#ffffff" stroke="#000000" points="0,-123.5 0,-153.5 129,-153.5 129,-123.5 0,-123.5"/>
<text text-anchor="start" x="8" y="-141.5" font-family="Helvetica,sans-Serif" font-size="10.00" fill="#000000">amr&#45;wind/overset/Overset</text>
<text text-anchor="middle" x="64.5" y="-130.5" font-family="Helvetica,sans-Serif" font-size="10.00" fill="#000000">Manager.H</text>
</a>
</g>
</g>
<!-- Node1&#45;&gt;Node3 -->
<g id="edge3" class="edge">
<title>Node1&#45;&gt;Node3</title>
<path fill="none" stroke="#191970" d="M261.5466,-195.9005C226.21,-185.6068 169.3078,-169.031 125.7147,-156.3321"/>
<polygon fill="#191970" stroke="#191970" points="126.6471,-152.9583 116.0672,-153.5218 124.6893,-159.679 126.6471,-152.9583"/>
</g>
<!-- Node10 -->
<g id="node11" class="node">
<title>Node10</title>
<g id="a_node11"><a xlink:href="overset__types_8_h.html" target="_top" xlink:title="amr&#45;wind/overset/overset\l_types.H">
<polygon fill="#ffffff" stroke="#000000" points="355,-123.5 355,-153.5 482,-153.5 482,-123.5 355,-123.5"/>
<text text-anchor="start" x="363" y="-141.5" font-family="Helvetica,sans-Serif" font-size="10.00" fill="#000000">amr&#45;wind/overset/overset</text>
<text text-anchor="middle" x="418.5" y="-130.5" font-family="Helvetica,sans-Serif" font-size="10.00" fill="#000000">_types.H</text>
</a>
</g>
</g>
<!-- Node1&#45;&gt;Node10 -->
<g id="edge10" class="edge">
<title>Node1&#45;&gt;Node10</title>
<path fill="none" stroke="#191970" d="M312.2662,-195.9005C330.3567,-186.1258 358.9309,-170.6865 381.89,-158.2812"/>
<polygon fill="#191970" stroke="#191970" points="383.5645,-161.3548 390.6985,-153.5218 380.2368,-155.1962 383.5645,-161.3548"/>
</g>
<!-- Node4 -->
<g id="node5" class="node">
<title>Node4</title>
<g id="a_node5"><a xlink:href="_factory_8_h.html" target="_top" xlink:title="amr&#45;wind/core/Factory.H">
<polygon fill="#ffffff" stroke="#000000" points="220,-62 220,-81 345,-81 345,-62 220,-62"/>
<text text-anchor="middle" x="282.5" y="-69" font-family="Helvetica,sans-Serif" font-size="10.00" fill="#000000">amr&#45;wind/core/Factory.H</text>
</a>
</g>
</g>
<!-- Node3&#45;&gt;Node4 -->
<g id="edge4" class="edge">
<title>Node3&#45;&gt;Node4</title>
<path fill="none" stroke="#191970" d="M113.4235,-123.4639C152.093,-111.5792 205.4328,-95.1858 241.7934,-84.0108"/>
<polygon fill="#191970" stroke="#191970" points="243.0419,-87.2887 251.5724,-81.0053 240.9854,-80.5976 243.0419,-87.2887"/>
</g>
<!-- Node5 -->
<g id="node6" class="node">
<title>Node5</title>
<polygon fill="#ffffff" stroke="#bfbfbf" points="642.5,-.5 642.5,-19.5 694.5,-19.5 694.5,-.5 642.5,-.5"/>
<text text-anchor="middle" x="668.5" y="-7.5" font-family="Helvetica,sans-Serif" font-size="10.00" fill="#000000">memory</text>
</g>
<!-- Node4&#45;&gt;Node5 -->
<g id="edge5" class="edge">
<title>Node4&#45;&gt;Node5</title>
<path fill="none" stroke="#191970" d="M324.6649,-61.9215C334.4357,-59.8414 344.8102,-57.7442 354.5,-56 464.1157,-36.2686 492.328,-36.3426 602.5,-20 612.1814,-18.5639 622.658,-16.987 632.3514,-15.5185"/>
<polygon fill="#191970" stroke="#191970" points="633.1265,-18.941 642.4877,-13.9794 632.0756,-12.0204 633.1265,-18.941"/>
</g>
<!-- Node6 -->
<g id="node7" class="node">
<title>Node6</title>
<polygon fill="#ffffff" stroke="#bfbfbf" points="1096,-.5 1096,-19.5 1179,-19.5 1179,-.5 1096,-.5"/>
<text text-anchor="middle" x="1137.5" y="-7.5" font-family="Helvetica,sans-Serif" font-size="10.00" fill="#000000">unordered_map</text>
</g>
<!-- Node4&#45;&gt;Node6 -->
<g id="edge6" class="edge">
<title>Node4&#45;&gt;Node6</title>
<path fill="none" stroke="#191970" d="M321.5434,-61.9548C332.1757,-59.6682 343.731,-57.4667 354.5,-56 496.4756,-36.6638 934.1714,-18.0323 1085.4372,-12.0143"/>
<polygon fill="#191970" stroke="#191970" points="1085.9717,-15.4959 1095.8254,-11.6029 1085.6947,-8.5014 1085.9717,-15.4959"/>
</g>
<!-- Node7 -->
<g id="node8" class="node">
<title>Node7</title>
<polygon fill="#ffffff" stroke="#bfbfbf" points="166.5,-.5 166.5,-19.5 220.5,-19.5 220.5,-.5 166.5,-.5"/>
<text text-anchor="middle" x="193.5" y="-7.5" font-family="Helvetica,sans-Serif" font-size="10.00" fill="#000000">iostream</text>
</g>
<!-- Node4&#45;&gt;Node7 -->
<g id="edge7" class="edge">
<title>Node4&#45;&gt;Node7</title>
<path fill="none" stroke="#191970" d="M268.5938,-61.8906C254.4862,-52.1421 232.4276,-36.8994 215.8615,-25.4521"/>
<polygon fill="#191970" stroke="#191970" points="217.5253,-22.3474 207.3086,-19.5419 213.5458,-28.1063 217.5253,-22.3474"/>
</g>
<!-- Node8 -->
<g id="node9" class="node">
<title>Node8</title>
<polygon fill="#ffffff" stroke="#bfbfbf" points="239,-.5 239,-19.5 326,-19.5 326,-.5 239,-.5"/>
<text text-anchor="middle" x="282.5" y="-7.5" font-family="Helvetica,sans-Serif" font-size="10.00" fill="#000000">AMReX_Print.H</text>
</g>
<!-- Node4&#45;&gt;Node8 -->
<g id="edge8" class="edge">
<title>Node4&#45;&gt;Node8</title>
<path fill="none" stroke="#191970" d="M282.5,-61.8906C282.5,-53.3657 282.5,-40.6392 282.5,-29.9235"/>
<polygon fill="#191970" stroke="#191970" points="286.0001,-29.7448 282.5,-19.7449 279.0001,-29.7449 286.0001,-29.7448"/>
</g>
<!-- Node9 -->
<g id="node10" class="node">
<title>Node9</title>
<polygon fill="#ffffff" stroke="#bfbfbf" points="344.5,-.5 344.5,-19.5 406.5,-19.5 406.5,-.5 344.5,-.5"/>
<text text-anchor="middle" x="375.5" y="-7.5" font-family="Helvetica,sans-Serif" font-size="10.00" fill="#000000">AMReX.H</text>
</g>
<!-- Node4&#45;&gt;Node9 -->
<g id="edge9" class="edge">
<title>Node4&#45;&gt;Node9</title>
<path fill="none" stroke="#191970" d="M297.0313,-61.8906C311.9094,-52.0519 335.2504,-36.6167 352.6128,-25.1351"/>
<polygon fill="#191970" stroke="#191970" points="354.6602,-27.9773 361.0708,-19.5419 350.799,-22.1385 354.6602,-27.9773"/>
</g>
<!-- Node11 -->
<g id="node12" class="node">
<title>Node11</title>
<polygon fill="#ffffff" stroke="#bfbfbf" points="840,-62 840,-81 925,-81 925,-62 840,-62"/>
<text text-anchor="middle" x="882.5" y="-69" font-family="Helvetica,sans-Serif" font-size="10.00" fill="#000000">AMReX_Gpu.H</text>
</g>
<!-- Node10&#45;&gt;Node11 -->
<g id="edge11" class="edge">
<title>Node10&#45;&gt;Node11</title>
<path fill="none" stroke="#191970" d="M482.1288,-124.5837C485.2921,-124.0194 488.4289,-123.4873 491.5,-123 641.5784,-99.1875 682.5813,-117.2292 831.5,-87 835.7341,-86.1405 840.1201,-85.079 844.4618,-83.9177"/>
<polygon fill="#191970" stroke="#191970" points="845.7644,-87.1857 854.4195,-81.0751 843.8429,-80.4546 845.7644,-87.1857"/>
</g>
<!-- Node13 -->
<g id="node14" class="node">
<title>Node13</title>
<polygon fill="#ffffff" stroke="#bfbfbf" points="1041.5,-129 1041.5,-148 1147.5,-148 1147.5,-129 1041.5,-129"/>
<text text-anchor="middle" x="1094.5" y="-136" font-family="Helvetica,sans-Serif" font-size="10.00" fill="#000000">AMReX_AmrCore.H</text>
</g>
<!-- Node12&#45;&gt;Node13 -->
<g id="edge13" class="edge">
<title>Node12&#45;&gt;Node13</title>
<path fill="none" stroke="#191970" d="M997.3921,-257.3416C1014.9506,-235.8533 1057.4668,-183.8216 1079.9702,-156.2817"/>
<polygon fill="#191970" stroke="#191970" points="1082.8991,-158.2287 1086.5164,-148.2705 1077.4786,-153.7995 1082.8991,-158.2287"/>
</g>
<!-- Node14 -->
<g id="node15" class="node">
<title>Node14</title>
<g id="a_node15"><a xlink:href="_sim_time_8_h.html" target="_top" xlink:title="amr&#45;wind/core/SimTime.H">
<polygon fill="#ffffff" stroke="#000000" points="694,-196 694,-215 825,-215 825,-196 694,-196"/>
<text text-anchor="middle" x="759.5" y="-203" font-family="Helvetica,sans-Serif" font-size="10.00" fill="#000000">amr&#45;wind/core/SimTime.H</text>
</a>
</g>
</g>
<!-- Node12&#45;&gt;Node14 -->
<g id="edge14" class="edge">
<title>Node12&#45;&gt;Node14</title>
<path fill="none" stroke="#191970" d="M953.8149,-257.4581C913.7807,-246.7533 848.7429,-229.3628 805.065,-217.6837"/>
<polygon fill="#191970" stroke="#191970" points="805.8336,-214.2663 795.2689,-215.0643 804.0253,-221.0287 805.8336,-214.2663"/>
</g>
<!-- Node12&#45;&gt;Node18 -->
<g id="edge18" class="edge">
<title>Node12&#45;&gt;Node18</title>
<path fill="none" stroke="#191970" d="M1043.566,-258.7697C1115.0121,-247.8936 1241.1137,-228.6974 1320.8349,-216.5616"/>
<polygon fill="#191970" stroke="#191970" points="1321.4421,-220.0096 1330.8014,-215.0445 1320.3885,-213.0893 1321.4421,-220.0096"/>
</g>
<!-- Node12&#45;&gt;Node33 -->
<g id="edge54" class="edge">
<title>Node12&#45;&gt;Node33</title>
<path fill="none" stroke="#191970" d="M986.7941,-257.3416C981.26,-237.5879 968.4947,-192.0229 960.4761,-163.4008"/>
<polygon fill="#191970" stroke="#191970" points="963.8268,-162.3867 957.7588,-153.7016 957.0863,-164.2751 963.8268,-162.3867"/>
</g>
<!-- Node37 -->
<g id="node38" class="node">
<title>Node37</title>
<g id="a_node38"><a xlink:href="_physics_8_h.html" target="_top" xlink:title="amr&#45;wind/core/Physics.H">
<polygon fill="#ffffff" stroke="#000000" points="210,-129 210,-148 337,-148 337,-129 210,-129"/>
<text text-anchor="middle" x="273.5" y="-136" font-family="Helvetica,sans-Serif" font-size="10.00" fill="#000000">amr&#45;wind/core/Physics.H</text>
</a>
</g>
</g>
<!-- Node12&#45;&gt;Node37 -->
<g id="edge66" class="edge">
<title>Node12&#45;&gt;Node37</title>
<path fill="none" stroke="#191970" d="M935.2902,-259.547C874.3929,-251.0003 772.6596,-236.1995 685.5,-221 534.2022,-194.6156 496.9531,-184.8389 346.5,-154 340.4196,-152.7537 334.0585,-151.431 327.7347,-150.1042"/>
<polygon fill="#191970" stroke="#191970" points="328.3805,-146.6635 317.8737,-148.0263 326.9371,-153.5131 328.3805,-146.6635"/>
</g>
<!-- Node15 -->
<g id="node16" class="node">
<title>Node15</title>
<polygon fill="#ffffff" stroke="#bfbfbf" points="773,-129 773,-148 866,-148 866,-129 773,-129"/>
<text text-anchor="middle" x="819.5" y="-136" font-family="Helvetica,sans-Serif" font-size="10.00" fill="#000000">AMReX_REAL.H</text>
</g>
<!-- Node14&#45;&gt;Node15 -->
<g id="edge15" class="edge">
<title>Node14&#45;&gt;Node15</title>
<path fill="none" stroke="#191970" d="M768.0965,-195.9005C777.453,-185.4525 792.6052,-168.5325 804.0401,-155.7635"/>
<polygon fill="#191970" stroke="#191970" points="806.8555,-157.8661 810.9194,-148.0817 801.6408,-153.1963 806.8555,-157.8661"/>
</g>
<!-- Node16 -->
<g id="node17" class="node">
<title>Node16</title>
<polygon fill="#ffffff" stroke="#bfbfbf" points="500.5,-129 500.5,-148 626.5,-148 626.5,-129 500.5,-129"/>
<text text-anchor="middle" x="563.5" y="-136" font-family="Helvetica,sans-Serif" font-size="10.00" fill="#000000">AMReX_GpuQualifiers.H</text>
</g>
<!-- Node14&#45;&gt;Node16 -->
<g id="edge16" class="edge">
<title>Node14&#45;&gt;Node16</title>
<path fill="none" stroke="#191970" d="M731.418,-195.9005C697.2149,-184.2086 639.3028,-164.4122 601.2303,-151.3976"/>
<polygon fill="#191970" stroke="#191970" points="602.1245,-148.0045 591.5299,-148.0817 599.8602,-154.6282 602.1245,-148.0045"/>
</g>
<!-- Node17 -->
<g id="node18" class="node">
<title>Node17</title>
<polygon fill="#ffffff" stroke="#bfbfbf" points="644.5,-129 644.5,-148 754.5,-148 754.5,-129 644.5,-129"/>
<text text-anchor="middle" x="699.5" y="-136" font-family="Helvetica,sans-Serif" font-size="10.00" fill="#000000">AMReX_Extension.H</text>
</g>
<!-- Node14&#45;&gt;Node17 -->
<g id="edge17" class="edge">
<title>Node14&#45;&gt;Node17</title>
<path fill="none" stroke="#191970" d="M750.9035,-195.9005C741.547,-185.4525 726.3948,-168.5325 714.9599,-155.7635"/>
<polygon fill="#191970" stroke="#191970" points="717.3592,-153.1963 708.0806,-148.0817 712.1445,-157.8661 717.3592,-153.1963"/>
</g>
<!-- Node18&#45;&gt;Node6 -->
<g id="edge20" class="edge">
<title>Node18&#45;&gt;Node6</title>
<path fill="none" stroke="#191970" d="M1327.1084,-195.972C1291.5903,-188.6045 1248.3291,-175.8272 1214.5,-154 1181.6486,-132.8037 1175.5373,-121.6865 1157.5,-87 1148.0255,-68.78 1142.8099,-45.7495 1140.1022,-29.6428"/>
<polygon fill="#191970" stroke="#191970" points="1143.5611,-29.1075 1138.6068,-19.7424 1136.6396,-30.153 1143.5611,-29.1075"/>
</g>
<!-- Node18&#45;&gt;Node13 -->
<g id="edge51" class="edge">
<title>Node18&#45;&gt;Node13</title>
<path fill="none" stroke="#191970" d="M1349.8596,-195.934C1303.2085,-185.6797 1227.0873,-168.8659 1161.5,-154 1156.2603,-152.8124 1150.7924,-151.5633 1145.3385,-150.3112"/>
<polygon fill="#191970" stroke="#191970" points="1146.1192,-146.8994 1135.5889,-148.0665 1144.5486,-153.721 1146.1192,-146.8994"/>
</g>
<!-- Node19 -->
<g id="node20" class="node">
<title>Node19</title>
<polygon fill="#ffffff" stroke="#bfbfbf" points="1376,-.5 1376,-19.5 1417,-19.5 1417,-.5 1376,-.5"/>
<text text-anchor="middle" x="1396.5" y="-7.5" font-family="Helvetica,sans-Serif" font-size="10.00" fill="#000000">string</text>
</g>
<!-- Node18&#45;&gt;Node19 -->
<g id="edge19" class="edge">
<title>Node18&#45;&gt;Node19</title>
<path fill="none" stroke="#191970" d="M1393.6488,-195.8051C1394.1156,-165.3813 1395.5583,-71.3666 1396.1939,-29.9452"/>
<polygon fill="#191970" stroke="#191970" points="1399.6964,-29.8059 1396.3503,-19.7534 1392.6972,-29.6985 1399.6964,-29.8059"/>
</g>
<!-- Node20 -->
<g id="node21" class="node">
<title>Node20</title>
<g id="a_node21"><a xlink:href="_field_desc_types_8_h.html" target="_top" xlink:title="amr&#45;wind/core/FieldDescTypes.H">
<polygon fill="#ffffff" stroke="#000000" points="1807,-.5 1807,-19.5 1970,-19.5 1970,-.5 1807,-.5"/>
<text text-anchor="middle" x="1888.5" y="-7.5" font-family="Helvetica,sans-Serif" font-size="10.00" fill="#000000">amr&#45;wind/core/FieldDescTypes.H</text>
</a>
</g>
</g>
<!-- Node18&#45;&gt;Node20 -->
<g id="edge21" class="edge">
<title>Node18&#45;&gt;Node20</title>
<path fill="none" stroke="#191970" d="M1461.6246,-199.5668C1497.8138,-196.5099 1543.0573,-192.8388 1583.5,-190 1651.4504,-185.2304 2137.082,-189.0333 2195.5,-154 2235.9908,-129.7176 2267.6209,-91.5053 2236.5,-56 2219.793,-36.9393 2077.8364,-23.2257 1980.4736,-15.959"/>
<polygon fill="#191970" stroke="#191970" points="1980.5416,-12.4547 1970.3118,-15.2118 1980.0282,-19.4358 1980.5416,-12.4547"/>
</g>
<!-- Node21 -->
<g id="node22" class="node">
<title>Node21</title>
<g id="a_node22"><a xlink:href="_field_utils_8_h.html" target="_top" xlink:title="amr&#45;wind/core/FieldUtils.H">
<polygon fill="#ffffff" stroke="#000000" points="2386,-62 2386,-81 2519,-81 2519,-62 2386,-62"/>
<text text-anchor="middle" x="2452.5" y="-69" font-family="Helvetica,sans-Serif" font-size="10.00" fill="#000000">amr&#45;wind/core/FieldUtils.H</text>
</a>
</g>
</g>
<!-- Node18&#45;&gt;Node21 -->
<g id="edge22" class="edge">
<title>Node18&#45;&gt;Node21</title>
<path fill="none" stroke="#191970" d="M1461.6101,-199.3506C1497.7954,-196.2335 1543.0396,-192.5738 1583.5,-190 1670.9701,-184.4359 2291.4746,-189.748 2371.5,-154 2402.0351,-140.3597 2427.134,-109.5289 2440.9386,-89.6616"/>
<polygon fill="#191970" stroke="#191970" points="2443.9749,-91.4175 2446.6243,-81.1592 2438.156,-87.5263 2443.9749,-91.4175"/>
</g>
<!-- Node22 -->
<g id="node23" class="node">
<title>Node22</title>
<polygon fill="#ffffff" stroke="#bfbfbf" points="2229.5,-.5 2229.5,-19.5 2333.5,-19.5 2333.5,-.5 2229.5,-.5"/>
<text text-anchor="middle" x="2281.5" y="-7.5" font-family="Helvetica,sans-Serif" font-size="10.00" fill="#000000">AMReX_MultiFab.H</text>
</g>
<!-- Node18&#45;&gt;Node22 -->
<g id="edge52" class="edge">
<title>Node18&#45;&gt;Node22</title>
<path fill="none" stroke="#191970" d="M1461.6212,-199.5187C1497.8096,-196.4484 1543.0532,-192.7798 1583.5,-190 1654.9986,-185.086 2168.7201,-195.0015 2227.5,-154 2268.4413,-125.4417 2278.384,-61.7948 2280.7691,-29.5411"/>
<polygon fill="#191970" stroke="#191970" points="2284.2637,-29.733 2281.336,-19.5507 2277.275,-29.3364 2284.2637,-29.733"/>
</g>
<!-- Node24 -->
<g id="node25" class="node">
<title>Node24</title>
<g id="a_node25"><a xlink:href="_field_8_h.html" target="_top" xlink:title="amr&#45;wind/core/Field.H">
<polygon fill="#ffffff" stroke="#000000" points="1422,-129 1422,-148 1535,-148 1535,-129 1422,-129"/>
<text text-anchor="middle" x="1478.5" y="-136" font-family="Helvetica,sans-Serif" font-size="10.00" fill="#000000">amr&#45;wind/core/Field.H</text>
</a>
</g>
</g>
<!-- Node18&#45;&gt;Node24 -->
<g id="edge26" class="edge">
<title>Node18&#45;&gt;Node24</title>
<path fill="none" stroke="#191970" d="M1405.6784,-195.9005C1419.4384,-185.0544 1442.0465,-167.2339 1458.4262,-154.3229"/>
<polygon fill="#191970" stroke="#191970" points="1460.6573,-157.0209 1466.3442,-148.0817 1456.3239,-151.5234 1460.6573,-157.0209"/>
</g>
<!-- Node29 -->
<g id="node30" class="node">
<title>Node29</title>
<g id="a_node30"><a xlink:href="_int_field_8_h.html" target="_top" xlink:title="amr&#45;wind/core/IntField.H">
<polygon fill="#ffffff" stroke="#000000" points="1241.5,-129 1241.5,-148 1365.5,-148 1365.5,-129 1241.5,-129"/>
<text text-anchor="middle" x="1303.5" y="-136" font-family="Helvetica,sans-Serif" font-size="10.00" fill="#000000">amr&#45;wind/core/IntField.H</text>
</a>
</g>
</g>
<!-- Node18&#45;&gt;Node29 -->
<g id="edge40" class="edge">
<title>Node18&#45;&gt;Node29</title>
<path fill="none" stroke="#191970" d="M1380.6052,-195.9005C1366.0358,-185.0544 1342.0978,-167.2339 1324.7546,-154.3229"/>
<polygon fill="#191970" stroke="#191970" points="1326.4823,-151.2457 1316.3709,-148.0817 1322.3022,-156.8606 1326.4823,-151.2457"/>
</g>
<!-- Node30 -->
<g id="node31" class="node">
<title>Node30</title>
<polygon fill="#ffffff" stroke="#bfbfbf" points="1166,-62 1166,-81 1273,-81 1273,-62 1166,-62"/>
<text text-anchor="middle" x="1219.5" y="-69" font-family="Helvetica,sans-Serif" font-size="10.00" fill="#000000">AMReX_iMultiFab.H</text>
</g>
<!-- Node18&#45;&gt;Node30 -->
<g id="edge53" class="edge">
<title>Node18&#45;&gt;Node30</title>
<path fill="none" stroke="#191970" d="M1345.4097,-195.9296C1303.5633,-186.6021 1247.3512,-171.3221 1232.5,-154 1217.7287,-136.7711 1216.1601,-109.7711 1217.1716,-91.388"/>
<polygon fill="#191970" stroke="#191970" points="1220.6763,-91.4814 1218.0399,-81.2198 1213.7017,-90.8857 1220.6763,-91.4814"/>
</g>
<!-- Node31 -->
<g id="node32" class="node">
<title>Node31</title>
<g id="a_node32"><a xlink:href="_scratch_field_8_h.html" target="_top" xlink:title="amr&#45;wind/core/ScratchField.H">
<polygon fill="#ffffff" stroke="#000000" points="2040.5,-129 2040.5,-148 2186.5,-148 2186.5,-129 2040.5,-129"/>
<text text-anchor="middle" x="2113.5" y="-136" font-family="Helvetica,sans-Serif" font-size="10.00" fill="#000000">amr&#45;wind/core/ScratchField.H</text>
</a>
</g>
</g>
<!-- Node18&#45;&gt;Node31 -->
<g id="edge44" class="edge">
<title>Node18&#45;&gt;Node31</title>
<path fill="none" stroke="#191970" d="M1461.5601,-199.1666C1594.1274,-186.8305 1886.5335,-159.6205 2030.3344,-146.239"/>
<polygon fill="#191970" stroke="#191970" points="2030.7944,-149.7114 2040.427,-145.2998 2030.1457,-142.7415 2030.7944,-149.7114"/>
</g>
<!-- Node21&#45;&gt;Node20 -->
<g id="edge23" class="edge">
<title>Node21&#45;&gt;Node20</title>
<path fill="none" stroke="#191970" d="M2385.824,-62.4987C2368.7763,-60.2843 2350.4687,-57.9818 2333.5,-56 2211.4926,-41.7507 2070.3938,-27.5509 1980.3588,-18.778"/>
<polygon fill="#191970" stroke="#191970" points="1980.4725,-15.2726 1970.1806,-17.7881 1979.7949,-22.2397 1980.4725,-15.2726"/>
</g>
<!-- Node21&#45;&gt;Node22 -->
<g id="edge24" class="edge">
<title>Node21&#45;&gt;Node22</title>
<path fill="none" stroke="#191970" d="M2425.7813,-61.8906C2396.6679,-51.42 2349.9308,-34.6111 2317.5753,-22.9745"/>
<polygon fill="#191970" stroke="#191970" points="2318.6256,-19.6328 2308.0311,-19.5419 2316.2565,-26.2197 2318.6256,-19.6328"/>
</g>
<!-- Node23 -->
<g id="node24" class="node">
<title>Node23</title>
<polygon fill="#ffffff" stroke="#bfbfbf" points="2394.5,-.5 2394.5,-19.5 2510.5,-19.5 2510.5,-.5 2394.5,-.5"/>
<text text-anchor="middle" x="2452.5" y="-7.5" font-family="Helvetica,sans-Serif" font-size="10.00" fill="#000000">AMReX_Interpolater.H</text>
</g>
<!-- Node21&#45;&gt;Node23 -->
<g id="edge25" class="edge">
<title>Node21&#45;&gt;Node23</title>
<path fill="none" stroke="#191970" d="M2452.5,-61.8906C2452.5,-53.3657 2452.5,-40.6392 2452.5,-29.9235"/>
<polygon fill="#191970" stroke="#191970" points="2456.0001,-29.7448 2452.5,-19.7449 2449.0001,-29.7449 2456.0001,-29.7448"/>
</g>
<!-- Node24&#45;&gt;Node5 -->
<g id="edge28" class="edge">
<title>Node24&#45;&gt;Node5</title>
<path fill="none" stroke="#191970" d="M1421.9483,-129.0691C1406.5909,-126.7822 1389.9389,-124.552 1374.5,-123 1298.5557,-115.3656 747.6309,-135.2635 688.5,-87 671.832,-73.3953 668.0435,-47.8362 667.6319,-29.9089"/>
<polygon fill="#191970" stroke="#191970" points="671.1341,-29.7056 667.7371,-19.6701 664.1344,-29.6336 671.1341,-29.7056"/>
</g>
<!-- Node24&#45;&gt;Node6 -->
<g id="edge29" class="edge">
<title>Node24&#45;&gt;Node6</title>
<path fill="none" stroke="#191970" d="M1457.5789,-128.9497C1422.0067,-112.8801 1347.2868,-79.8551 1282.5,-56 1248.5807,-43.5106 1209.4854,-31.2277 1180.4433,-22.5002"/>
<polygon fill="#191970" stroke="#191970" points="1181.1984,-19.073 1170.615,-19.5669 1179.1964,-25.7806 1181.1984,-19.073"/>
</g>
<!-- Node24&#45;&gt;Node11 -->
<g id="edge32" class="edge">
<title>Node24&#45;&gt;Node11</title>
<path fill="none" stroke="#191970" d="M1421.9065,-129.4498C1406.5491,-127.1622 1389.9077,-124.8365 1374.5,-123 1196.3791,-101.7695 1150.3696,-110.2418 972.5,-87 960.4633,-85.4272 947.5763,-83.4088 935.4243,-81.3519"/>
<polygon fill="#191970" stroke="#191970" points="935.8741,-77.8779 925.4242,-79.6241 934.6822,-84.7757 935.8741,-77.8779"/>
</g>
<!-- Node24&#45;&gt;Node19 -->
<g id="edge27" class="edge">
<title>Node24&#45;&gt;Node19</title>
<path fill="none" stroke="#191970" d="M1468.9464,-128.8329C1459.4533,-118.9 1444.8544,-102.7104 1434.5,-87 1422.185,-68.3148 1411.2462,-45.0663 1404.3043,-29.0313"/>
<polygon fill="#191970" stroke="#191970" points="1407.4599,-27.5069 1400.3454,-19.6562 1401.0113,-30.2301 1407.4599,-27.5069"/>
</g>
<!-- Node24&#45;&gt;Node20 -->
<g id="edge34" class="edge">
<title>Node24&#45;&gt;Node20</title>
<path fill="none" stroke="#191970" d="M1525.1796,-128.9466C1560.8893,-120.6207 1610.7562,-106.7595 1651.5,-87 1673.024,-76.5615 1673.6953,-65.8388 1695.5,-56 1731.9477,-39.5538 1775.0261,-28.5642 1811.2271,-21.4643"/>
<polygon fill="#191970" stroke="#191970" points="1812.0719,-24.8665 1821.2441,-19.5636 1810.7669,-17.9892 1812.0719,-24.8665"/>
</g>
<!-- Node24&#45;&gt;Node22 -->
<g id="edge30" class="edge">
<title>Node24&#45;&gt;Node22</title>
<path fill="none" stroke="#191970" d="M1535.2026,-136.5845C1651.7101,-132.0474 1914.0845,-118.5665 1997.5,-87 2019.5348,-78.6615 2018.8612,-65.318 2040.5,-56 2098.1465,-31.1764 2169.2742,-19.6893 2219.2662,-14.4101"/>
<polygon fill="#191970" stroke="#191970" points="2219.6856,-17.8857 2229.2863,-13.4051 2218.9869,-10.9206 2219.6856,-17.8857"/>
</g>
<!-- Node25 -->
<g id="node26" class="node">
<title>Node25</title>
<polygon fill="#ffffff" stroke="#bfbfbf" points="1704,-62 1704,-81 1803,-81 1803,-62 1704,-62"/>
<text text-anchor="middle" x="1753.5" y="-69" font-family="Helvetica,sans-Serif" font-size="10.00" fill="#000000">AMReX_BCRec.H</text>
</g>
<!-- Node24&#45;&gt;Node25 -->
<g id="edge31" class="edge">
<title>Node24&#45;&gt;Node25</title>
<path fill="none" stroke="#191970" d="M1517.6087,-128.9717C1566.6452,-117.0246 1650.7417,-96.5357 1704.1538,-83.5225"/>
<polygon fill="#191970" stroke="#191970" points="1705.1936,-86.8716 1714.0809,-81.1039 1703.5366,-80.0706 1705.1936,-86.8716"/>
</g>
<!-- Node26 -->
<g id="node27" class="node">
<title>Node26</title>
<g id="a_node27"><a xlink:href="incflo__enums_8_h.html" target="_top" xlink:title="amr&#45;wind/incflo_enums.H">
<polygon fill="#ffffff" stroke="#000000" points="981.5,-62 981.5,-81 1109.5,-81 1109.5,-62 981.5,-62"/>
<text text-anchor="middle" x="1045.5" y="-69" font-family="Helvetica,sans-Serif" font-size="10.00" fill="#000000">amr&#45;wind/incflo_enums.H</text>
</a>
</g>
</g>
<!-- Node24&#45;&gt;Node26 -->
<g id="edge33" class="edge">
<title>Node24&#45;&gt;Node26</title>
<path fill="none" stroke="#191970" d="M1421.8928,-129.7409C1343.6922,-117.6406 1202.6086,-95.8101 1117.1518,-82.587"/>
<polygon fill="#191970" stroke="#191970" points="1117.4316,-79.0887 1107.0139,-81.0183 1116.3611,-86.0064 1117.4316,-79.0887"/>
</g>
<!-- Node27 -->
<g id="node28" class="node">
<title>Node27</title>
<g id="a_node28"><a xlink:href="_view_field_8_h.html" target="_top" xlink:title="amr&#45;wind/core/ViewField.H">
<polygon fill="#ffffff" stroke="#000000" points="1821.5,-62 1821.5,-81 1955.5,-81 1955.5,-62 1821.5,-62"/>
<text text-anchor="middle" x="1888.5" y="-69" font-family="Helvetica,sans-Serif" font-size="10.00" fill="#000000">amr&#45;wind/core/ViewField.H</text>
</a>
</g>
</g>
<!-- Node24&#45;&gt;Node27 -->
<g id="edge35" class="edge">
<title>Node24&#45;&gt;Node27</title>
<path fill="none" stroke="#191970" d="M1535.0749,-130.625C1601.6147,-121.1668 1715.3292,-104.3899 1812.5,-87 1819.2686,-85.7887 1826.3607,-84.4439 1833.378,-83.0671"/>
<polygon fill="#191970" stroke="#191970" points="1834.4357,-86.4253 1843.5592,-81.0389 1833.068,-79.5602 1834.4357,-86.4253"/>
</g>
<!-- Node27&#45;&gt;Node19 -->
<g id="edge36" class="edge">
<title>Node27&#45;&gt;Node19</title>
<path fill="none" stroke="#191970" d="M1845.6256,-61.9907C1834.8489,-59.8117 1823.2815,-57.653 1812.5,-56 1658.8039,-32.4354 1618.7876,-39.316 1464.5,-20 1452.2621,-18.4679 1438.8215,-16.5428 1427.1442,-14.7919"/>
<polygon fill="#191970" stroke="#191970" points="1427.4136,-11.2927 1417.001,-13.2491 1426.3609,-18.2131 1427.4136,-11.2927"/>
</g>
<!-- Node27&#45;&gt;Node20 -->
<g id="edge37" class="edge">
<title>Node27&#45;&gt;Node20</title>
<path fill="none" stroke="#191970" d="M1888.5,-61.8906C1888.5,-53.3657 1888.5,-40.6392 1888.5,-29.9235"/>
<polygon fill="#191970" stroke="#191970" points="1892.0001,-29.7448 1888.5,-19.7449 1885.0001,-29.7449 1892.0001,-29.7448"/>
</g>
<!-- Node27&#45;&gt;Node22 -->
<g id="edge38" class="edge">
<title>Node27&#45;&gt;Node22</title>
<path fill="none" stroke="#191970" d="M1936.4096,-61.9814C1947.2738,-59.9206 1958.7713,-57.8166 1969.5,-56 2055.7938,-41.3889 2155.969,-27.0894 2219.0442,-18.4092"/>
<polygon fill="#191970" stroke="#191970" points="2219.7931,-21.8393 2229.2246,-17.0126 2218.8417,-14.9042 2219.7931,-21.8393"/>
</g>
<!-- Node28 -->
<g id="node29" class="node">
<title>Node28</title>
<polygon fill="#ffffff" stroke="#bfbfbf" points="1608,-.5 1608,-19.5 1703,-19.5 1703,-.5 1608,-.5"/>
<text text-anchor="middle" x="1655.5" y="-7.5" font-family="Helvetica,sans-Serif" font-size="10.00" fill="#000000">AMReX_Vector.H</text>
</g>
<!-- Node27&#45;&gt;Node28 -->
<g id="edge39" class="edge">
<title>Node27&#45;&gt;Node28</title>
<path fill="none" stroke="#191970" d="M1852.3494,-61.9581C1811.7931,-51.2533 1745.9069,-33.8628 1701.6593,-22.1837"/>
<polygon fill="#191970" stroke="#191970" points="1702.2975,-18.7323 1691.7354,-19.5643 1700.511,-25.5005 1702.2975,-18.7323"/>
</g>
<!-- Node29&#45;&gt;Node19 -->
<g id="edge41" class="edge">
<title>Node29&#45;&gt;Node19</title>
<path fill="none" stroke="#191970" d="M1310.4901,-128.8416C1325.9747,-107.4463 1363.3735,-55.7715 1383.3709,-28.1407"/>
<polygon fill="#191970" stroke="#191970" points="1386.4011,-29.9235 1389.4288,-19.7705 1380.7304,-25.8194 1386.4011,-29.9235"/>
</g>
<!-- Node29&#45;&gt;Node20 -->
<g id="edge42" class="edge">
<title>Node29&#45;&gt;Node20</title>
<path fill="none" stroke="#191970" d="M1365.642,-130.354C1421.3231,-122.2041 1504.8632,-107.8644 1575.5,-87 1610.4854,-76.6662 1616.5384,-66.414 1651.5,-56 1703.7058,-40.4495 1763.9869,-28.8324 1810.6891,-21.1629"/>
<polygon fill="#191970" stroke="#191970" points="1811.428,-24.589 1820.7416,-19.5385 1810.3112,-17.6787 1811.428,-24.589"/>
</g>
<!-- Node29&#45;&gt;Node30 -->
<g id="edge43" class="edge">
<title>Node29&#45;&gt;Node30</title>
<path fill="none" stroke="#191970" d="M1291.4648,-128.9005C1277.8668,-118.0544 1255.5246,-100.2339 1239.3376,-87.3229"/>
<polygon fill="#191970" stroke="#191970" points="1241.5131,-84.5811 1231.5128,-81.0817 1237.1481,-90.0535 1241.5131,-84.5811"/>
</g>
<!-- Node31&#45;&gt;Node19 -->
<g id="edge45" class="edge">
<title>Node31&#45;&gt;Node19</title>
<path fill="none" stroke="#191970" d="M2040.1881,-132.3651C1956.3754,-124.682 1815.2917,-109.7054 1695.5,-87 1596.0513,-68.1505 1480.633,-35.2143 1426.912,-19.2282"/>
<polygon fill="#191970" stroke="#191970" points="1427.8985,-15.8701 1417.3148,-16.3569 1425.892,-22.5764 1427.8985,-15.8701"/>
</g>
<!-- Node31&#45;&gt;Node20 -->
<g id="edge46" class="edge">
<title>Node31&#45;&gt;Node20</title>
<path fill="none" stroke="#191970" d="M2144.6159,-128.9095C2184.8627,-114.9627 2246.7565,-87.3063 2219.5,-56 2203.9169,-38.1015 2073.0451,-24.2916 1980.6182,-16.6553"/>
<polygon fill="#191970" stroke="#191970" points="1980.645,-13.146 1970.3938,-15.8226 1980.0767,-20.1229 1980.645,-13.146"/>
</g>
<!-- Node31&#45;&gt;Node22 -->
<g id="edge48" class="edge">
<title>Node31&#45;&gt;Node22</title>
<path fill="none" stroke="#191970" d="M2176.8277,-128.9853C2204.8829,-121.7715 2236.2684,-109.1275 2257.5,-87 2272.3712,-71.5013 2278.0377,-46.9293 2280.1911,-29.7226"/>
<polygon fill="#191970" stroke="#191970" points="2283.6865,-29.9376 2281.1603,-19.6483 2276.7187,-29.2672 2283.6865,-29.9376"/>
</g>
<!-- Node31&#45;&gt;Node27 -->
<g id="edge47" class="edge">
<title>Node31&#45;&gt;Node27</title>
<path fill="none" stroke="#191970" d="M2081.263,-128.9005C2041.5815,-117.0843 1974.101,-96.9901 1930.4257,-83.9845"/>
<polygon fill="#191970" stroke="#191970" points="1931.2602,-80.5812 1920.6772,-81.0817 1929.2624,-87.2901 1931.2602,-80.5812"/>
</g>
<!-- Node31&#45;&gt;Node28 -->
<g id="edge49" class="edge">
<title>Node31&#45;&gt;Node28</title>
<path fill="none" stroke="#191970" d="M2132.7492,-128.9996C2161.6421,-113.548 2210.4144,-82.0756 2186.5,-56 2178.5663,-47.3493 1849.4438,-23.5015 1713.4104,-13.9913"/>
<polygon fill="#191970" stroke="#191970" points="1713.4001,-10.4821 1703.1807,-13.2777 1712.9129,-17.4652 1713.4001,-10.4821"/>
</g>
<!-- Node32 -->
<g id="node33" class="node">
<title>Node32</title>
<polygon fill="#ffffff" stroke="#bfbfbf" points="2049.5,-62 2049.5,-81 2177.5,-81 2177.5,-62 2049.5,-62"/>
<text text-anchor="middle" x="2113.5" y="-69" font-family="Helvetica,sans-Serif" font-size="10.00" fill="#000000">AMReX_PhysBCFunct.H</text>
</g>
<!-- Node31&#45;&gt;Node32 -->
<g id="edge50" class="edge">
<title>Node31&#45;&gt;Node32</title>
<path fill="none" stroke="#191970" d="M2113.5,-128.9005C2113.5,-119.149 2113.5,-103.7597 2113.5,-91.3695"/>
<polygon fill="#191970" stroke="#191970" points="2117.0001,-91.0816 2113.5,-81.0817 2110.0001,-91.0817 2117.0001,-91.0816"/>
</g>
<!-- Node33&#45;&gt;Node4 -->
<g id="edge56" class="edge">
<title>Node33&#45;&gt;Node4</title>
<path fill="none" stroke="#191970" d="M883.8321,-124.1996C881.0225,-123.7676 878.2371,-123.365 875.5,-123 645.4291,-92.3183 584.32,-119.5074 354.5,-87 347.1056,-85.9541 339.3374,-84.5786 331.7511,-83.0784"/>
<polygon fill="#191970" stroke="#191970" points="332.4304,-79.6449 321.9293,-81.0516 331.0156,-86.5005 332.4304,-79.6449"/>
</g>
<!-- Node33&#45;&gt;Node19 -->
<g id="edge55" class="edge">
<title>Node33&#45;&gt;Node19</title>
<path fill="none" stroke="#191970" d="M952.2014,-123.4317C951.4955,-104.6254 953.4889,-72.8856 972.5,-56 1001.8214,-29.9569 1273.0067,-15.5143 1365.6483,-11.3082"/>
<polygon fill="#191970" stroke="#191970" points="1365.9523,-14.7983 1375.7867,-10.8567 1365.6408,-7.8052 1365.9523,-14.7983"/>
</g>
<!-- Node33&#45;&gt;Node20 -->
<g id="edge64" class="edge">
<title>Node33&#45;&gt;Node20</title>
<path fill="none" stroke="#191970" d="M1023.2098,-124.339C1026.3443,-123.8549 1029.4519,-123.405 1032.5,-123 1145.1254,-108.0343 1438.4061,-132.5292 1542.5,-87 1560.9367,-78.9361 1557.3806,-64.7536 1575.5,-56 1613.4825,-37.6505 1718.5701,-24.7602 1796.5605,-17.384"/>
<polygon fill="#191970" stroke="#191970" points="1797.2597,-20.8341 1806.893,-16.4238 1796.612,-13.8642 1797.2597,-20.8341"/>
</g>
<!-- Node33&#45;&gt;Node26 -->
<g id="edge65" class="edge">
<title>Node33&#45;&gt;Node26</title>
<path fill="none" stroke="#191970" d="M974.3762,-123.2967C989.2669,-112.4524 1009.2243,-97.9182 1024.2081,-87.006"/>
<polygon fill="#191970" stroke="#191970" points="1026.3566,-89.7712 1032.3797,-81.055 1022.2357,-84.1127 1026.3566,-89.7712"/>
</g>
<!-- Node34 -->
<g id="node35" class="node">
<title>Node34</title>
<g id="a_node35"><a xlink:href="_coll_mgr_8_h.html" target="_top" xlink:title="amr&#45;wind/core/CollMgr.H">
<polygon fill="#ffffff" stroke="#000000" points="697,-62 697,-81 822,-81 822,-62 697,-62"/>
<text text-anchor="middle" x="759.5" y="-69" font-family="Helvetica,sans-Serif" font-size="10.00" fill="#000000">amr&#45;wind/core/CollMgr.H</text>
</a>
</g>
</g>
<!-- Node33&#45;&gt;Node34 -->
<g id="edge57" class="edge">
<title>Node33&#45;&gt;Node34</title>
<path fill="none" stroke="#191970" d="M909.9626,-123.4639C875.8444,-111.6808 828.8932,-95.4657 796.5581,-84.2984"/>
<polygon fill="#191970" stroke="#191970" points="797.6175,-80.9615 787.0228,-81.0053 795.3324,-87.578 797.6175,-80.9615"/>
</g>
<!-- Node35 -->
<g id="node36" class="node">
<title>Node35</title>
<g id="a_node36"><a xlink:href="_p_d_e_fields_8_h.html" target="_top" xlink:title="amr&#45;wind/equation_systems\l/PDEFields.H">
<polygon fill="#ffffff" stroke="#000000" points="501,-56.5 501,-86.5 640,-86.5 640,-56.5 501,-56.5"/>
<text text-anchor="start" x="509" y="-74.5" font-family="Helvetica,sans-Serif" font-size="10.00" fill="#000000">amr&#45;wind/equation_systems</text>
<text text-anchor="middle" x="570.5" y="-63.5" font-family="Helvetica,sans-Serif" font-size="10.00" fill="#000000">/PDEFields.H</text>
</a>
</g>
</g>
<!-- Node33&#45;&gt;Node35 -->
<g id="edge62" class="edge">
<title>Node33&#45;&gt;Node35</title>
<path fill="none" stroke="#191970" d="M883.7817,-124.5212C880.986,-124.0002 878.2173,-123.4911 875.5,-123 777.57,-105.2991 752.5489,-104.0301 654.5,-87 653.0389,-86.7462 651.5638,-86.4886 650.078,-86.2279"/>
<polygon fill="#191970" stroke="#191970" points="650.6091,-82.7675 640.1517,-84.4687 649.3875,-89.6601 650.6091,-82.7675"/>
</g>
<!-- Node34&#45;&gt;Node5 -->
<g id="edge59" class="edge">
<title>Node34&#45;&gt;Node5</title>
<path fill="none" stroke="#191970" d="M745.2813,-61.8906C730.8566,-52.1421 708.3024,-36.8994 691.364,-25.4521"/>
<polygon fill="#191970" stroke="#191970" points="692.8641,-22.2415 682.6189,-19.5419 688.9444,-28.0412 692.8641,-22.2415"/>
</g>
<!-- Node34&#45;&gt;Node6 -->
<g id="edge60" class="edge">
<title>Node34&#45;&gt;Node6</title>
<path fill="none" stroke="#191970" d="M801.6714,-61.9575C811.4419,-59.8757 821.8147,-57.7687 831.5,-56 920.4249,-39.7609 1024.6516,-24.9961 1085.6468,-16.7832"/>
<polygon fill="#191970" stroke="#191970" points="1086.3407,-20.2216 1095.7873,-15.4246 1085.4111,-13.2836 1086.3407,-20.2216"/>
</g>
<!-- Node34&#45;&gt;Node19 -->
<g id="edge58" class="edge">
<title>Node34&#45;&gt;Node19</title>
<path fill="none" stroke="#191970" d="M799.3185,-61.9559C809.7417,-59.7251 821.0012,-57.5507 831.5,-56 1034.1029,-26.0757 1280.664,-14.4054 1365.8394,-11.0858"/>
<polygon fill="#191970" stroke="#191970" points="1366.0065,-14.582 1375.8664,-10.7049 1365.7408,-7.5871 1366.0065,-14.582"/>
</g>
<!-- Node34&#45;&gt;Node28 -->
<g id="edge61" class="edge">
<title>Node34&#45;&gt;Node28</title>
<path fill="none" stroke="#191970" d="M798.1628,-61.9933C808.8979,-59.6776 820.6,-57.452 831.5,-56 1131.9355,-15.9797 1209.9803,-38.5724 1512.5,-20 1540.5695,-18.2767 1571.7209,-16.1264 1597.7645,-14.2618"/>
<polygon fill="#191970" stroke="#191970" points="1598.1238,-17.7451 1607.8466,-13.536 1597.6211,-10.7631 1598.1238,-17.7451"/>
</g>
<!-- Node36 -->
<g id="node37" class="node">
<title>Node36</title>
<polygon fill="#ffffff" stroke="#bfbfbf" points="548,-.5 548,-19.5 593,-19.5 593,-.5 548,-.5"/>
<text text-anchor="middle" x="570.5" y="-7.5" font-family="Helvetica,sans-Serif" font-size="10.00" fill="#000000">iosfwd</text>
</g>
<!-- Node35&#45;&gt;Node36 -->
<g id="edge63" class="edge">
<title>Node35&#45;&gt;Node36</title>
<path fill="none" stroke="#191970" d="M570.5,-56.2977C570.5,-48.3834 570.5,-38.6043 570.5,-30.0759"/>
<polygon fill="#191970" stroke="#191970" points="574.0001,-29.8469 570.5,-19.8469 567.0001,-29.847 574.0001,-29.8469"/>
</g>
<!-- Node37&#45;&gt;Node4 -->
<g id="edge67" class="edge">
<title>Node37&#45;&gt;Node4</title>
<path fill="none" stroke="#191970" d="M274.7895,-128.9005C276.0994,-119.149 278.1666,-103.7597 279.831,-91.3695"/>
<polygon fill="#191970" stroke="#191970" points="283.3503,-91.4586 281.2129,-81.0817 276.4127,-90.5266 283.3503,-91.4586"/>
</g>
<!-- Node37&#45;&gt;Node22 -->
<g id="edge69" class="edge">
<title>Node37&#45;&gt;Node22</title>
<path fill="none" stroke="#191970" d="M311.9204,-128.9365C323.0098,-126.5596 335.1749,-124.3166 346.5,-123 435.8097,-112.6175 1881.2791,-121.0336 1964.5,-87 1983.1257,-79.3829 1979.4452,-64.8861 1997.5,-56 2035.4618,-37.3162 2147.5601,-23.2155 2219.0436,-15.8146"/>
<polygon fill="#191970" stroke="#191970" points="2219.6883,-19.2672 2229.282,-14.7716 2218.9787,-12.3032 2219.6883,-19.2672"/>
</g>
<!-- Node37&#45;&gt;Node34 -->
<g id="edge68" class="edge">
<title>Node37&#45;&gt;Node34</title>
<path fill="none" stroke="#191970" d="M315.0683,-128.9907C325.31,-126.8368 336.2737,-124.6896 346.5,-123 480.2999,-100.8937 515.0151,-104.4622 649.5,-87 661.6483,-85.4226 674.5402,-83.6737 687.0588,-81.9356"/>
<polygon fill="#191970" stroke="#191970" points="687.5775,-85.3972 696.9971,-80.5474 686.6091,-78.4645 687.5775,-85.3972"/>
</g>
<!-- Node38 -->
<g id="node39" class="node">
<title>Node38</title>
<polygon fill="#ffffff" stroke="#bfbfbf" points="363.5,-62 363.5,-81 473.5,-81 473.5,-62 363.5,-62"/>
<text text-anchor="middle" x="418.5" y="-69" font-family="Helvetica,sans-Serif" font-size="10.00" fill="#000000">AMReX_Geometry.H</text>
</g>
<!-- Node37&#45;&gt;Node38 -->
<g id="edge70" class="edge">
<title>Node37&#45;&gt;Node38</title>
<path fill="none" stroke="#191970" d="M294.275,-128.9005C318.9323,-117.5072 360.2451,-98.4178 388.4018,-85.4075"/>
<polygon fill="#191970" stroke="#191970" points="390.1539,-88.4535 397.7636,-81.0817 387.2177,-82.099 390.1539,-88.4535"/>
</g>
<!-- Node39&#45;&gt;Node22 -->
<g id="edge75" class="edge">
<title>Node39&#45;&gt;Node22</title>
<path fill="none" stroke="#191970" d="M1691.0142,-204.9241C1838.1182,-202.7789 2270.6694,-193.2155 2405.5,-154 2465.2739,-136.6147 2496.7079,-140.5203 2528.5,-87 2535.5364,-75.1545 2537.3055,-66.5967 2528.5,-56 2516.7259,-41.8307 2412.9224,-26.3296 2343.6826,-17.4253"/>
<polygon fill="#191970" stroke="#191970" points="2344.0943,-13.9496 2333.7327,-16.1604 2343.2114,-20.8937 2344.0943,-13.9496"/>
</g>
<!-- Node39&#45;&gt;Node24 -->
<g id="edge74" class="edge">
<title>Node39&#45;&gt;Node24</title>
<path fill="none" stroke="#191970" d="M1604.9196,-190.4639C1576.8311,-178.9183 1538.3906,-163.1176 1511.2942,-151.9798"/>
<polygon fill="#191970" stroke="#191970" points="1512.4445,-148.6686 1501.8648,-148.1039 1509.7833,-155.143 1512.4445,-148.6686"/>
</g>
<!-- Node40&#45;&gt;Node6 -->
<g id="edge78" class="edge">
<title>Node40&#45;&gt;Node6</title>
<path fill="none" stroke="#191970" d="M1443.3315,-63.5859C1378.1691,-52.1685 1258.0895,-31.1289 1189.3773,-19.0896"/>
<polygon fill="#191970" stroke="#191970" points="1189.6699,-15.5876 1179.2159,-17.3092 1188.4617,-22.4826 1189.6699,-15.5876"/>
</g>
<!-- Node40&#45;&gt;Node19 -->
<g id="edge77" class="edge">
<title>Node40&#45;&gt;Node19</title>
<path fill="none" stroke="#191970" d="M1465.7584,-56.2977C1451.7033,-46.9022 1433.717,-34.8787 1419.5964,-25.4395"/>
<polygon fill="#191970" stroke="#191970" points="1421.2143,-22.311 1410.9556,-19.6633 1417.3241,-28.1305 1421.2143,-22.311"/>
</g>
<!-- Node40&#45;&gt;Node28 -->
<g id="edge80" class="edge">
<title>Node40&#45;&gt;Node28</title>
<path fill="none" stroke="#191970" d="M1529.3528,-56.4554C1557.095,-46.239 1593.4225,-32.8609 1619.9655,-23.0861"/>
<polygon fill="#191970" stroke="#191970" points="1621.4465,-26.2705 1629.6209,-19.5303 1619.0275,-19.7018 1621.4465,-26.2705"/>
</g>
<!-- Node41 -->
<g id="node42" class="node">
<title>Node41</title>
<polygon fill="#ffffff" stroke="#bfbfbf" points="1473.5,-.5 1473.5,-19.5 1503.5,-19.5 1503.5,-.5 1473.5,-.5"/>
<text text-anchor="middle" x="1488.5" y="-7.5" font-family="Helvetica,sans-Serif" font-size="10.00" fill="#000000">set</text>
</g>
<!-- Node40&#45;&gt;Node41 -->
<g id="edge79" class="edge">
<title>Node40&#45;&gt;Node41</title>
<path fill="none" stroke="#191970" d="M1488.5,-56.2977C1488.5,-48.3834 1488.5,-38.6043 1488.5,-30.0759"/>
<polygon fill="#191970" stroke="#191970" points="1492.0001,-29.8469 1488.5,-19.8469 1485.0001,-29.847 1492.0001,-29.8469"/>
</g>
</g>
</svg>
