<?xml version="1.0" encoding="UTF-8" standalone="no"?>
<!DOCTYPE svg PUBLIC "-//W3C//DTD SVG 1.1//EN"
 "http://www.w3.org/Graphics/SVG/1.1/DTD/svg11.dtd">
<!-- Generated by graphviz version 2.40.1 (20161225.0304)
 -->
<!-- Title: TurbModelBase.H Pages: 1 -->
<svg width="2419pt" height="408pt"
 viewBox="0.00 0.00 2419.48 408.00" xmlns="http://www.w3.org/2000/svg" xmlns:xlink="http://www.w3.org/1999/xlink">
<g id="graph0" class="graph" transform="scale(1 1) rotate(0) translate(4 404)">
<title>TurbModelBase.H</title>
<polygon fill="#ffffff" stroke="transparent" points="-4,4 -4,-404 2415.4835,-404 2415.4835,4 -4,4"/>
<!-- Node0 -->
<g id="node1" class="node">
<title>Node0</title>
<polygon fill="#bfbfbf" stroke="#000000" points="1477.4835,-380.5 1477.4835,-399.5 1572.4835,-399.5 1572.4835,-380.5 1477.4835,-380.5"/>
<text text-anchor="middle" x="1524.9835" y="-387.5" font-family="Helvetica,sans-Serif" font-size="10.00" fill="#000000">TurbModelBase.H</text>
</g>
<!-- Node1 -->
<g id="node2" class="node">
<title>Node1</title>
<g id="a_node2"><a xlink:href="_turb_model_8_h.html" target="_top" xlink:title="amr&#45;wind/turbulence\l/TurbModel.H">
<polygon fill="#ffffff" stroke="#000000" points="1472.9835,-313.5 1472.9835,-343.5 1576.9835,-343.5 1576.9835,-313.5 1472.9835,-313.5"/>
<text text-anchor="start" x="1480.9835" y="-331.5" font-family="Helvetica,sans-Serif" font-size="10.00" fill="#000000">amr&#45;wind/turbulence</text>
<text text-anchor="middle" x="1524.9835" y="-320.5" font-family="Helvetica,sans-Serif" font-size="10.00" fill="#000000">/TurbModel.H</text>
</a>
</g>
</g>
<!-- Node0&#45;&gt;Node1 -->
<g id="edge1" class="edge">
<title>Node0&#45;&gt;Node1</title>
<path fill="none" stroke="#191970" d="M1524.9835,-380.3906C1524.9835,-373.2234 1524.9835,-363.0862 1524.9835,-353.671"/>
<polygon fill="#191970" stroke="#191970" points="1528.4836,-353.5446 1524.9835,-343.5446 1521.4836,-353.5446 1528.4836,-353.5446"/>
</g>
<!-- Node37 -->
<g id="node38" class="node">
<title>Node37</title>
<g id="a_node38"><a xlink:href="_i_o_manager_8_h.html" target="_top" xlink:title="amr&#45;wind/utilities\l/IOManager.H">
<polygon fill="#ffffff" stroke="#000000" points="1903.9835,-56.5 1903.9835,-86.5 1993.9835,-86.5 1993.9835,-56.5 1903.9835,-56.5"/>
<text text-anchor="start" x="1911.9835" y="-74.5" font-family="Helvetica,sans-Serif" font-size="10.00" fill="#000000">amr&#45;wind/utilities</text>
<text text-anchor="middle" x="1948.9835" y="-63.5" font-family="Helvetica,sans-Serif" font-size="10.00" fill="#000000">/IOManager.H</text>
</a>
</g>
</g>
<!-- Node0&#45;&gt;Node37 -->
<g id="edge70" class="edge">
<title>Node0&#45;&gt;Node37</title>
<path fill="none" stroke="#191970" d="M1543.7642,-380.451C1557.4936,-372.5143 1575.4817,-359.9538 1585.9835,-344 1641.578,-259.5438 1565.023,-190.8567 1639.9835,-123 1680.339,-86.4689 1823.99,-97.6498 1893.6127,-86.8348"/>
<polygon fill="#191970" stroke="#191970" points="1894.5182,-90.2274 1903.7257,-84.9859 1893.2592,-83.3415 1894.5182,-90.2274"/>
</g>
<!-- Node39 -->
<g id="node40" class="node">
<title>Node39</title>
<g id="a_node40"><a xlink:href="field__ops_8_h.html" target="_top" xlink:title="amr&#45;wind/core/field\l_ops.H">
<polygon fill="#ffffff" stroke="#000000" points="670.4835,-190.5 670.4835,-220.5 769.4835,-220.5 769.4835,-190.5 670.4835,-190.5"/>
<text text-anchor="start" x="678.4835" y="-208.5" font-family="Helvetica,sans-Serif" font-size="10.00" fill="#000000">amr&#45;wind/core/field</text>
<text text-anchor="middle" x="719.9835" y="-197.5" font-family="Helvetica,sans-Serif" font-size="10.00" fill="#000000">_ops.H</text>
</a>
</g>
</g>
<!-- Node0&#45;&gt;Node39 -->
<g id="edge75" class="edge">
<title>Node0&#45;&gt;Node39</title>
<path fill="none" stroke="#191970" d="M1480.7919,-380.4562C1365.3253,-355.4154 1045.1742,-285.3174 779.9835,-221 779.879,-220.9746 779.7743,-220.9492 779.6695,-220.9238"/>
<polygon fill="#191970" stroke="#191970" points="780.2678,-217.4665 769.7206,-218.4702 778.5916,-224.2629 780.2678,-217.4665"/>
</g>
<!-- Node2 -->
<g id="node3" class="node">
<title>Node2</title>
<g id="a_node3"><a xlink:href="_turbulence_model_8_h.html" target="_top" xlink:title="amr&#45;wind/turbulence\l/TurbulenceModel.H">
<polygon fill="#ffffff" stroke="#000000" points="2220.9835,-123.5 2220.9835,-153.5 2324.9835,-153.5 2324.9835,-123.5 2220.9835,-123.5"/>
<text text-anchor="start" x="2228.9835" y="-141.5" font-family="Helvetica,sans-Serif" font-size="10.00" fill="#000000">amr&#45;wind/turbulence</text>
<text text-anchor="middle" x="2272.9835" y="-130.5" font-family="Helvetica,sans-Serif" font-size="10.00" fill="#000000">/TurbulenceModel.H</text>
</a>
</g>
</g>
<!-- Node1&#45;&gt;Node2 -->
<g id="edge2" class="edge">
<title>Node1&#45;&gt;Node2</title>
<path fill="none" stroke="#191970" d="M1576.9875,-315.2904C1710.7726,-281.3076 2066.4584,-190.9596 2210.8054,-154.2939"/>
<polygon fill="#191970" stroke="#191970" points="2211.9967,-157.6025 2220.8272,-151.7483 2210.2733,-150.818 2211.9967,-157.6025"/>
</g>
<!-- Node10 -->
<g id="node11" class="node">
<title>Node10</title>
<g id="a_node11"><a xlink:href="_c_f_d_sim_8_h.html" target="_top" xlink:title="amr&#45;wind/CFDSim.H">
<polygon fill="#ffffff" stroke="#000000" points="1450.9835,-257.5 1450.9835,-276.5 1558.9835,-276.5 1558.9835,-257.5 1450.9835,-257.5"/>
<text text-anchor="middle" x="1504.9835" y="-264.5" font-family="Helvetica,sans-Serif" font-size="10.00" fill="#000000">amr&#45;wind/CFDSim.H</text>
</a>
</g>
</g>
<!-- Node1&#45;&gt;Node10 -->
<g id="edge11" class="edge">
<title>Node1&#45;&gt;Node10</title>
<path fill="none" stroke="#191970" d="M1520.0397,-313.2977C1517.4081,-305.2055 1514.1425,-295.1639 1511.3259,-286.5029"/>
<polygon fill="#191970" stroke="#191970" points="1514.6069,-285.2743 1508.1858,-276.8469 1507.95,-287.4391 1514.6069,-285.2743"/>
</g>
<!-- Node3 -->
<g id="node4" class="node">
<title>Node3</title>
<polygon fill="#ffffff" stroke="#bfbfbf" points="2026.4835,-.5 2026.4835,-19.5 2109.4835,-19.5 2109.4835,-.5 2026.4835,-.5"/>
<text text-anchor="middle" x="2067.9835" y="-7.5" font-family="Helvetica,sans-Serif" font-size="10.00" fill="#000000">unordered_map</text>
</g>
<!-- Node2&#45;&gt;Node3 -->
<g id="edge3" class="edge">
<title>Node2&#45;&gt;Node3</title>
<path fill="none" stroke="#191970" d="M2304.6277,-123.4367C2334.4859,-107.2277 2371.8,-80.4733 2350.9835,-56 2343.5374,-47.2458 2199.5122,-27.1775 2119.8711,-16.6788"/>
<polygon fill="#191970" stroke="#191970" points="2119.922,-13.1556 2109.5515,-15.3245 2119.011,-20.096 2119.922,-13.1556"/>
</g>
<!-- Node4 -->
<g id="node5" class="node">
<title>Node4</title>
<g id="a_node5"><a xlink:href="_factory_8_h.html" target="_top" xlink:title="amr&#45;wind/core/Factory.H">
<polygon fill="#ffffff" stroke="#000000" points="2216.4835,-62 2216.4835,-81 2341.4835,-81 2341.4835,-62 2216.4835,-62"/>
<text text-anchor="middle" x="2278.9835" y="-69" font-family="Helvetica,sans-Serif" font-size="10.00" fill="#000000">amr&#45;wind/core/Factory.H</text>
</a>
</g>
</g>
<!-- Node2&#45;&gt;Node4 -->
<g id="edge4" class="edge">
<title>Node2&#45;&gt;Node4</title>
<path fill="none" stroke="#191970" d="M2274.345,-123.2967C2275.1981,-113.7699 2276.3063,-101.3954 2277.2255,-91.1306"/>
<polygon fill="#191970" stroke="#191970" points="2280.7218,-91.3273 2278.1278,-81.055 2273.7497,-90.7029 2280.7218,-91.3273"/>
</g>
<!-- Node9 -->
<g id="node10" class="node">
<title>Node9</title>
<g id="a_node10"><a xlink:href="_field_desc_types_8_h.html" target="_top" xlink:title="amr&#45;wind/core/FieldDescTypes.H">
<polygon fill="#ffffff" stroke="#000000" points="754.4835,-.5 754.4835,-19.5 917.4835,-19.5 917.4835,-.5 754.4835,-.5"/>
<text text-anchor="middle" x="835.9835" y="-7.5" font-family="Helvetica,sans-Serif" font-size="10.00" fill="#000000">amr&#45;wind/core/FieldDescTypes.H</text>
</a>
</g>
</g>
<!-- Node2&#45;&gt;Node9 -->
<g id="edge10" class="edge">
<title>Node2&#45;&gt;Node9</title>
<path fill="none" stroke="#191970" d="M2220.7207,-129.8206C2204.2083,-127.3177 2185.8666,-124.7843 2168.9835,-123 1914.7868,-96.1356 1849.1988,-113.6879 1594.9835,-87 1501.1544,-77.1497 1478.7043,-66.833 1384.9835,-56 1224.4339,-37.4424 1036.642,-23.3419 927.5184,-15.8997"/>
<polygon fill="#191970" stroke="#191970" points="927.7456,-12.4071 917.5316,-15.2222 927.2718,-19.3911 927.7456,-12.4071"/>
</g>
<!-- Node4&#45;&gt;Node3 -->
<g id="edge6" class="edge">
<title>Node4&#45;&gt;Node3</title>
<path fill="none" stroke="#191970" d="M2246.0148,-61.8906C2209.4718,-51.2395 2150.4264,-34.0296 2110.4485,-22.3772"/>
<polygon fill="#191970" stroke="#191970" points="2111.3007,-18.98 2100.7207,-19.5419 2109.3418,-25.7004 2111.3007,-18.98"/>
</g>
<!-- Node5 -->
<g id="node6" class="node">
<title>Node5</title>
<polygon fill="#ffffff" stroke="#bfbfbf" points="1796.9835,-.5 1796.9835,-19.5 1848.9835,-19.5 1848.9835,-.5 1796.9835,-.5"/>
<text text-anchor="middle" x="1822.9835" y="-7.5" font-family="Helvetica,sans-Serif" font-size="10.00" fill="#000000">memory</text>
</g>
<!-- Node4&#45;&gt;Node5 -->
<g id="edge5" class="edge">
<title>Node4&#45;&gt;Node5</title>
<path fill="none" stroke="#191970" d="M2216.4605,-62.6036C2200.95,-60.4204 2184.3651,-58.1061 2168.9835,-56 2056.0421,-40.5353 1922.254,-22.9595 1859.2429,-14.7258"/>
<polygon fill="#191970" stroke="#191970" points="1859.4045,-11.2173 1849.0354,-13.3929 1858.498,-18.1584 1859.4045,-11.2173"/>
</g>
<!-- Node6 -->
<g id="node7" class="node">
<title>Node6</title>
<polygon fill="#ffffff" stroke="#bfbfbf" points="2251.9835,-.5 2251.9835,-19.5 2305.9835,-19.5 2305.9835,-.5 2251.9835,-.5"/>
<text text-anchor="middle" x="2278.9835" y="-7.5" font-family="Helvetica,sans-Serif" font-size="10.00" fill="#000000">iostream</text>
</g>
<!-- Node4&#45;&gt;Node6 -->
<g id="edge7" class="edge">
<title>Node4&#45;&gt;Node6</title>
<path fill="none" stroke="#191970" d="M2278.9835,-61.8906C2278.9835,-53.3657 2278.9835,-40.6392 2278.9835,-29.9235"/>
<polygon fill="#191970" stroke="#191970" points="2282.4836,-29.7448 2278.9835,-19.7449 2275.4836,-29.7449 2282.4836,-29.7448"/>
</g>
<!-- Node7 -->
<g id="node8" class="node">
<title>Node7</title>
<polygon fill="#ffffff" stroke="#bfbfbf" points="2324.4835,-.5 2324.4835,-19.5 2411.4835,-19.5 2411.4835,-.5 2324.4835,-.5"/>
<text text-anchor="middle" x="2367.9835" y="-7.5" font-family="Helvetica,sans-Serif" font-size="10.00" fill="#000000">AMReX_Print.H</text>
</g>
<!-- Node4&#45;&gt;Node7 -->
<g id="edge8" class="edge">
<title>Node4&#45;&gt;Node7</title>
<path fill="none" stroke="#191970" d="M2292.8898,-61.8906C2306.9973,-52.1421 2329.0559,-36.8994 2345.622,-25.4521"/>
<polygon fill="#191970" stroke="#191970" points="2347.9377,-28.1063 2354.1749,-19.5419 2343.9583,-22.3474 2347.9377,-28.1063"/>
</g>
<!-- Node8 -->
<g id="node9" class="node">
<title>Node8</title>
<polygon fill="#ffffff" stroke="#bfbfbf" points="2171.9835,-.5 2171.9835,-19.5 2233.9835,-19.5 2233.9835,-.5 2171.9835,-.5"/>
<text text-anchor="middle" x="2202.9835" y="-7.5" font-family="Helvetica,sans-Serif" font-size="10.00" fill="#000000">AMReX.H</text>
</g>
<!-- Node4&#45;&gt;Node8 -->
<g id="edge9" class="edge">
<title>Node4&#45;&gt;Node8</title>
<path fill="none" stroke="#191970" d="M2267.1085,-61.8906C2255.3538,-52.3786 2237.1349,-37.6357 2223.1163,-26.2917"/>
<polygon fill="#191970" stroke="#191970" points="2225.0013,-23.3146 2215.0259,-19.7449 2220.5979,-28.7562 2225.0013,-23.3146"/>
</g>
<!-- Node11 -->
<g id="node12" class="node">
<title>Node11</title>
<polygon fill="#ffffff" stroke="#bfbfbf" points="1327.9835,-129 1327.9835,-148 1433.9835,-148 1433.9835,-129 1327.9835,-129"/>
<text text-anchor="middle" x="1380.9835" y="-136" font-family="Helvetica,sans-Serif" font-size="10.00" fill="#000000">AMReX_AmrCore.H</text>
</g>
<!-- Node10&#45;&gt;Node11 -->
<g id="edge12" class="edge">
<title>Node10&#45;&gt;Node11</title>
<path fill="none" stroke="#191970" d="M1495.6634,-257.3416C1474.748,-235.6672 1423.8464,-182.9184 1397.4575,-155.5719"/>
<polygon fill="#191970" stroke="#191970" points="1399.8744,-153.036 1390.4118,-148.2705 1394.8372,-157.8968 1399.8744,-153.036"/>
</g>
<!-- Node12 -->
<g id="node13" class="node">
<title>Node12</title>
<g id="a_node13"><a xlink:href="_sim_time_8_h.html" target="_top" xlink:title="amr&#45;wind/core/SimTime.H">
<polygon fill="#ffffff" stroke="#000000" points="1648.4835,-196 1648.4835,-215 1779.4835,-215 1779.4835,-196 1648.4835,-196"/>
<text text-anchor="middle" x="1713.9835" y="-203" font-family="Helvetica,sans-Serif" font-size="10.00" fill="#000000">amr&#45;wind/core/SimTime.H</text>
</a>
</g>
</g>
<!-- Node10&#45;&gt;Node12 -->
<g id="edge13" class="edge">
<title>Node10&#45;&gt;Node12</title>
<path fill="none" stroke="#191970" d="M1537.6398,-257.3906C1573.8363,-246.7395 1632.3221,-229.5296 1671.921,-217.8772"/>
<polygon fill="#191970" stroke="#191970" points="1672.9513,-221.2225 1681.5566,-215.0419 1670.9752,-214.5072 1672.9513,-221.2225"/>
</g>
<!-- Node16 -->
<g id="node17" class="node">
<title>Node16</title>
<g id="a_node17"><a xlink:href="_field_repo_8_h.html" target="_top" xlink:title="amr&#45;wind/core/FieldRepo.H">
<polygon fill="#ffffff" stroke="#000000" points="788.9835,-196 788.9835,-215 924.9835,-215 924.9835,-196 788.9835,-196"/>
<text text-anchor="middle" x="856.9835" y="-203" font-family="Helvetica,sans-Serif" font-size="10.00" fill="#000000">amr&#45;wind/core/FieldRepo.H</text>
</a>
</g>
</g>
<!-- Node10&#45;&gt;Node16 -->
<g id="edge17" class="edge">
<title>Node10&#45;&gt;Node16</title>
<path fill="none" stroke="#191970" d="M1450.8499,-261.8623C1336.1953,-250.9807 1068.4935,-225.5739 935.229,-212.9261"/>
<polygon fill="#191970" stroke="#191970" points="935.3784,-209.4246 925.0924,-211.964 934.7169,-216.3933 935.3784,-209.4246"/>
</g>
<!-- Node31 -->
<g id="node32" class="node">
<title>Node31</title>
<g id="a_node32"><a xlink:href="_p_d_e_base_8_h.html" target="_top" xlink:title="amr&#45;wind/equation_systems\l/PDEBase.H">
<polygon fill="#ffffff" stroke="#000000" points="1452.4835,-123.5 1452.4835,-153.5 1591.4835,-153.5 1591.4835,-123.5 1452.4835,-123.5"/>
<text text-anchor="start" x="1460.4835" y="-141.5" font-family="Helvetica,sans-Serif" font-size="10.00" fill="#000000">amr&#45;wind/equation_systems</text>
<text text-anchor="middle" x="1521.9835" y="-130.5" font-family="Helvetica,sans-Serif" font-size="10.00" fill="#000000">/PDEBase.H</text>
</a>
</g>
</g>
<!-- Node10&#45;&gt;Node31 -->
<g id="edge53" class="edge">
<title>Node10&#45;&gt;Node31</title>
<path fill="none" stroke="#191970" d="M1506.2613,-257.3416C1508.8631,-237.6745 1514.8498,-192.4221 1518.6393,-163.7784"/>
<polygon fill="#191970" stroke="#191970" points="1522.1306,-164.0743 1519.9724,-153.7016 1515.191,-163.1562 1522.1306,-164.0743"/>
</g>
<!-- Node35 -->
<g id="node36" class="node">
<title>Node35</title>
<g id="a_node36"><a xlink:href="_physics_8_h.html" target="_top" xlink:title="amr&#45;wind/core/Physics.H">
<polygon fill="#ffffff" stroke="#000000" points="2032.4835,-129 2032.4835,-148 2159.4835,-148 2159.4835,-129 2032.4835,-129"/>
<text text-anchor="middle" x="2095.9835" y="-136" font-family="Helvetica,sans-Serif" font-size="10.00" fill="#000000">amr&#45;wind/core/Physics.H</text>
</a>
</g>
</g>
<!-- Node10&#45;&gt;Node35 -->
<g id="edge65" class="edge">
<title>Node10&#45;&gt;Node35</title>
<path fill="none" stroke="#191970" d="M1559.1692,-258.8798C1638.6059,-246.8811 1778.456,-225.3595 1788.9835,-221 1810.7507,-211.9861 1810.334,-199.2931 1831.9835,-190 1911.363,-155.9263 1938.2836,-170.972 2022.9835,-154 2029.1527,-152.7638 2035.6083,-151.4389 2042.0195,-150.1033"/>
<polygon fill="#191970" stroke="#191970" points="2042.9422,-153.486 2052.0104,-148.0071 2041.5047,-146.6352 2042.9422,-153.486"/>
</g>
<!-- Node13 -->
<g id="node14" class="node">
<title>Node13</title>
<polygon fill="#ffffff" stroke="#bfbfbf" points="1648.4835,-129 1648.4835,-148 1741.4835,-148 1741.4835,-129 1648.4835,-129"/>
<text text-anchor="middle" x="1694.9835" y="-136" font-family="Helvetica,sans-Serif" font-size="10.00" fill="#000000">AMReX_REAL.H</text>
</g>
<!-- Node12&#45;&gt;Node13 -->
<g id="edge14" class="edge">
<title>Node12&#45;&gt;Node13</title>
<path fill="none" stroke="#191970" d="M1711.2613,-195.9005C1708.4677,-186.0495 1704.0426,-170.4451 1700.5109,-157.9912"/>
<polygon fill="#191970" stroke="#191970" points="1703.7962,-156.7474 1697.7007,-148.0817 1697.0618,-158.6572 1703.7962,-156.7474"/>
</g>
<!-- Node14 -->
<g id="node15" class="node">
<title>Node14</title>
<polygon fill="#ffffff" stroke="#bfbfbf" points="1759.9835,-129 1759.9835,-148 1885.9835,-148 1885.9835,-129 1759.9835,-129"/>
<text text-anchor="middle" x="1822.9835" y="-136" font-family="Helvetica,sans-Serif" font-size="10.00" fill="#000000">AMReX_GpuQualifiers.H</text>
</g>
<!-- Node12&#45;&gt;Node14 -->
<g id="edge15" class="edge">
<title>Node12&#45;&gt;Node14</title>
<path fill="none" stroke="#191970" d="M1729.6005,-195.9005C1747.6504,-184.8057 1777.5731,-166.4128 1798.6743,-153.4424"/>
<polygon fill="#191970" stroke="#191970" points="1800.709,-156.3001 1807.3954,-148.0817 1797.0433,-150.3366 1800.709,-156.3001"/>
</g>
<!-- Node15 -->
<g id="node16" class="node">
<title>Node15</title>
<polygon fill="#ffffff" stroke="#bfbfbf" points="1903.9835,-129 1903.9835,-148 2013.9835,-148 2013.9835,-129 1903.9835,-129"/>
<text text-anchor="middle" x="1958.9835" y="-136" font-family="Helvetica,sans-Serif" font-size="10.00" fill="#000000">AMReX_Extension.H</text>
</g>
<!-- Node12&#45;&gt;Node15 -->
<g id="edge16" class="edge">
<title>Node12&#45;&gt;Node15</title>
<path fill="none" stroke="#191970" d="M1748.8258,-195.9717C1792.2404,-184.0991 1866.5018,-163.7909 1914.127,-150.7669"/>
<polygon fill="#191970" stroke="#191970" points="1915.1421,-154.1179 1923.8647,-148.1039 1913.2956,-147.3658 1915.1421,-154.1179"/>
</g>
<!-- Node16&#45;&gt;Node3 -->
<g id="edge19" class="edge">
<title>Node16&#45;&gt;Node3</title>
<path fill="none" stroke="#191970" d="M925.3236,-204.0908C1191.7604,-198.4381 2147.2346,-176.6194 2168.9835,-154 2199.1719,-122.6034 2192.5502,-92.6292 2168.9835,-56 2157.7463,-38.5342 2138.0662,-27.6213 2119.0453,-20.8396"/>
<polygon fill="#191970" stroke="#191970" points="2120.0969,-17.5012 2109.5049,-17.7443 2117.9367,-24.1595 2120.0969,-17.5012"/>
</g>
<!-- Node16&#45;&gt;Node9 -->
<g id="edge20" class="edge">
<title>Node16&#45;&gt;Node9</title>
<path fill="none" stroke="#191970" d="M808.8153,-195.9494C669.2179,-168.2446 274.1436,-89.6416 271.9835,-87 263.2617,-76.3343 262.6455,-66.1306 271.9835,-56 287.7425,-38.9033 588.7196,-21.933 744.3879,-14.2546"/>
<polygon fill="#191970" stroke="#191970" points="744.6102,-17.748 754.4268,-13.7624 744.2674,-10.7564 744.6102,-17.748"/>
</g>
<!-- Node16&#45;&gt;Node11 -->
<g id="edge50" class="edge">
<title>Node16&#45;&gt;Node11</title>
<path fill="none" stroke="#191970" d="M925.0778,-200.2905C1014.6758,-192.8737 1176.8584,-177.5075 1313.9835,-154 1320.2387,-152.9277 1326.7849,-151.6324 1333.2316,-150.2529"/>
<polygon fill="#191970" stroke="#191970" points="1334.2195,-153.6189 1343.224,-148.036 1332.7033,-146.7851 1334.2195,-153.6189"/>
</g>
<!-- Node17 -->
<g id="node18" class="node">
<title>Node17</title>
<polygon fill="#ffffff" stroke="#bfbfbf" points="1421.4835,-.5 1421.4835,-19.5 1462.4835,-19.5 1462.4835,-.5 1421.4835,-.5"/>
<text text-anchor="middle" x="1441.9835" y="-7.5" font-family="Helvetica,sans-Serif" font-size="10.00" fill="#000000">string</text>
</g>
<!-- Node16&#45;&gt;Node17 -->
<g id="edge18" class="edge">
<title>Node16&#45;&gt;Node17</title>
<path fill="none" stroke="#191970" d="M924.9918,-202.341C1027.6604,-194.9161 1225.4643,-170.0696 1368.9835,-87 1394.507,-72.2269 1416.6565,-45.8176 1429.6701,-28.1034"/>
<polygon fill="#191970" stroke="#191970" points="1432.6733,-29.9194 1435.6122,-19.7403 1426.967,-25.865 1432.6733,-29.9194"/>
</g>
<!-- Node18 -->
<g id="node19" class="node">
<title>Node18</title>
<g id="a_node19"><a xlink:href="_field_utils_8_h.html" target="_top" xlink:title="amr&#45;wind/core/FieldUtils.H">
<polygon fill="#ffffff" stroke="#000000" points="15.4835,-62 15.4835,-81 148.4835,-81 148.4835,-62 15.4835,-62"/>
<text text-anchor="middle" x="81.9835" y="-69" font-family="Helvetica,sans-Serif" font-size="10.00" fill="#000000">amr&#45;wind/core/FieldUtils.H</text>
</a>
</g>
</g>
<!-- Node16&#45;&gt;Node18 -->
<g id="edge21" class="edge">
<title>Node16&#45;&gt;Node18</title>
<path fill="none" stroke="#191970" d="M814.104,-195.9917C802.4381,-193.705 789.7694,-191.4942 777.9835,-190 642.17,-172.7818 287.6193,-210.6366 162.9835,-154 132.5364,-140.1643 107.411,-109.3924 93.5771,-89.5902"/>
<polygon fill="#191970" stroke="#191970" points="96.3636,-87.4618 87.8778,-81.1181 90.5555,-91.369 96.3636,-87.4618"/>
</g>
<!-- Node19 -->
<g id="node20" class="node">
<title>Node19</title>
<polygon fill="#ffffff" stroke="#bfbfbf" points="200.9835,-.5 200.9835,-19.5 304.9835,-19.5 304.9835,-.5 200.9835,-.5"/>
<text text-anchor="middle" x="252.9835" y="-7.5" font-family="Helvetica,sans-Serif" font-size="10.00" fill="#000000">AMReX_MultiFab.H</text>
</g>
<!-- Node16&#45;&gt;Node19 -->
<g id="edge51" class="edge">
<title>Node16&#45;&gt;Node19</title>
<path fill="none" stroke="#191970" d="M811.9787,-195.9935C800.8959,-193.8395 789.0362,-191.6915 777.9835,-190 633.8915,-167.948 594.0951,-186.4512 451.9835,-154 364.6896,-134.0664 317.8722,-156.9574 261.9835,-87 249.1658,-70.9558 248.43,-46.6841 249.9274,-29.6916"/>
<polygon fill="#191970" stroke="#191970" points="253.4055,-30.0833 251.1294,-19.7359 246.4559,-29.2443 253.4055,-30.0833"/>
</g>
<!-- Node21 -->
<g id="node22" class="node">
<title>Node21</title>
<g id="a_node22"><a xlink:href="_field_8_h.html" target="_top" xlink:title="amr&#45;wind/core/Field.H">
<polygon fill="#ffffff" stroke="#000000" points="663.4835,-129 663.4835,-148 776.4835,-148 776.4835,-129 663.4835,-129"/>
<text text-anchor="middle" x="719.9835" y="-136" font-family="Helvetica,sans-Serif" font-size="10.00" fill="#000000">amr&#45;wind/core/Field.H</text>
</a>
</g>
</g>
<!-- Node16&#45;&gt;Node21 -->
<g id="edge25" class="edge">
<title>Node16&#45;&gt;Node21</title>
<path fill="none" stroke="#191970" d="M837.3547,-195.9005C814.1596,-184.5569 775.365,-165.5844 748.7704,-152.5783"/>
<polygon fill="#191970" stroke="#191970" points="750.0968,-149.3308 739.5759,-148.0817 747.0215,-155.6191 750.0968,-149.3308"/>
</g>
<!-- Node27 -->
<g id="node28" class="node">
<title>Node27</title>
<g id="a_node28"><a xlink:href="_int_field_8_h.html" target="_top" xlink:title="amr&#45;wind/core/IntField.H">
<polygon fill="#ffffff" stroke="#000000" points="794.9835,-129 794.9835,-148 918.9835,-148 918.9835,-129 794.9835,-129"/>
<text text-anchor="middle" x="856.9835" y="-136" font-family="Helvetica,sans-Serif" font-size="10.00" fill="#000000">amr&#45;wind/core/IntField.H</text>
</a>
</g>
</g>
<!-- Node16&#45;&gt;Node27 -->
<g id="edge39" class="edge">
<title>Node16&#45;&gt;Node27</title>
<path fill="none" stroke="#191970" d="M856.9835,-195.9005C856.9835,-186.149 856.9835,-170.7597 856.9835,-158.3695"/>
<polygon fill="#191970" stroke="#191970" points="860.4836,-158.0816 856.9835,-148.0817 853.4836,-158.0817 860.4836,-158.0816"/>
</g>
<!-- Node28 -->
<g id="node29" class="node">
<title>Node28</title>
<polygon fill="#ffffff" stroke="#bfbfbf" points="501.4835,-62 501.4835,-81 608.4835,-81 608.4835,-62 501.4835,-62"/>
<text text-anchor="middle" x="554.9835" y="-69" font-family="Helvetica,sans-Serif" font-size="10.00" fill="#000000">AMReX_iMultiFab.H</text>
</g>
<!-- Node16&#45;&gt;Node28 -->
<g id="edge52" class="edge">
<title>Node16&#45;&gt;Node28</title>
<path fill="none" stroke="#191970" d="M809.3232,-195.9635C758.2422,-185.2943 680.8678,-167.7103 653.9835,-154 620.6739,-137.0129 588.6627,-107.0446 570.4508,-88.2839"/>
<polygon fill="#191970" stroke="#191970" points="572.9536,-85.8367 563.527,-81.0003 567.8801,-90.6596 572.9536,-85.8367"/>
</g>
<!-- Node29 -->
<g id="node30" class="node">
<title>Node29</title>
<g id="a_node30"><a xlink:href="_scratch_field_8_h.html" target="_top" xlink:title="amr&#45;wind/core/ScratchField.H">
<polygon fill="#ffffff" stroke="#000000" points="936.9835,-129 936.9835,-148 1082.9835,-148 1082.9835,-129 936.9835,-129"/>
<text text-anchor="middle" x="1009.9835" y="-136" font-family="Helvetica,sans-Serif" font-size="10.00" fill="#000000">amr&#45;wind/core/ScratchField.H</text>
</a>
</g>
</g>
<!-- Node16&#45;&gt;Node29 -->
<g id="edge43" class="edge">
<title>Node16&#45;&gt;Node29</title>
<path fill="none" stroke="#191970" d="M878.9047,-195.9005C905.036,-184.4574 948.8956,-165.2509 978.6131,-152.2374"/>
<polygon fill="#191970" stroke="#191970" points="980.3468,-155.2991 988.103,-148.0817 977.5388,-148.887 980.3468,-155.2991"/>
</g>
<!-- Node18&#45;&gt;Node9 -->
<g id="edge22" class="edge">
<title>Node18&#45;&gt;Node9</title>
<path fill="none" stroke="#191970" d="M148.6201,-62.1375C165.6686,-59.93 183.9864,-57.7212 200.9835,-56 393.9172,-36.463 620.6464,-22.0996 744.2345,-14.9945"/>
<polygon fill="#191970" stroke="#191970" points="744.6262,-18.4779 754.41,-14.4125 744.2264,-11.4893 744.6262,-18.4779"/>
</g>
<!-- Node18&#45;&gt;Node19 -->
<g id="edge23" class="edge">
<title>Node18&#45;&gt;Node19</title>
<path fill="none" stroke="#191970" d="M108.7023,-61.8906C137.8156,-51.42 184.5527,-34.6111 216.9082,-22.9745"/>
<polygon fill="#191970" stroke="#191970" points="218.227,-26.2197 226.4524,-19.5419 215.8579,-19.6328 218.227,-26.2197"/>
</g>
<!-- Node20 -->
<g id="node21" class="node">
<title>Node20</title>
<polygon fill="#ffffff" stroke="#bfbfbf" points="23.9835,-.5 23.9835,-19.5 139.9835,-19.5 139.9835,-.5 23.9835,-.5"/>
<text text-anchor="middle" x="81.9835" y="-7.5" font-family="Helvetica,sans-Serif" font-size="10.00" fill="#000000">AMReX_Interpolater.H</text>
</g>
<!-- Node18&#45;&gt;Node20 -->
<g id="edge24" class="edge">
<title>Node18&#45;&gt;Node20</title>
<path fill="none" stroke="#191970" d="M81.9835,-61.8906C81.9835,-53.3657 81.9835,-40.6392 81.9835,-29.9235"/>
<polygon fill="#191970" stroke="#191970" points="85.4836,-29.7448 81.9835,-19.7449 78.4836,-29.7449 85.4836,-29.7448"/>
</g>
<!-- Node21&#45;&gt;Node3 -->
<g id="edge28" class="edge">
<title>Node21&#45;&gt;Node3</title>
<path fill="none" stroke="#191970" d="M754.6798,-128.9718C764.7052,-126.5955 775.7134,-124.3439 785.9835,-123 920.1212,-105.4468 1881.1485,-145.7987 2002.9835,-87 2028.4919,-74.6894 2047.7337,-47.1524 2058.4327,-28.5722"/>
<polygon fill="#191970" stroke="#191970" points="2061.6325,-30.0156 2063.3602,-19.5625 2055.491,-26.6566 2061.6325,-30.0156"/>
</g>
<!-- Node21&#45;&gt;Node5 -->
<g id="edge27" class="edge">
<title>Node21&#45;&gt;Node5</title>
<path fill="none" stroke="#191970" d="M755.7427,-128.9729C765.489,-126.6862 776.089,-124.4802 785.9835,-123 1024.7463,-87.2818 1088.0315,-113.5797 1327.9835,-87 1500.4714,-67.8934 1704.8044,-31.7907 1786.5431,-16.7957"/>
<polygon fill="#191970" stroke="#191970" points="1787.5968,-20.1606 1796.7974,-14.9071 1786.3288,-13.2764 1787.5968,-20.1606"/>
</g>
<!-- Node21&#45;&gt;Node9 -->
<g id="edge33" class="edge">
<title>Node21&#45;&gt;Node9</title>
<path fill="none" stroke="#191970" d="M719.3425,-128.9584C718.7389,-112.3115 719.8304,-77.6723 736.9835,-56 749.1903,-40.5773 767.7701,-30.0993 785.5496,-23.0915"/>
<polygon fill="#191970" stroke="#191970" points="787.0976,-26.2529 795.2993,-19.5459 784.7052,-19.6744 787.0976,-26.2529"/>
</g>
<!-- Node21&#45;&gt;Node17 -->
<g id="edge26" class="edge">
<title>Node21&#45;&gt;Node17</title>
<path fill="none" stroke="#191970" d="M726.6223,-128.9159C739.7444,-110.8713 770.9608,-72.2142 807.9835,-56 863.5536,-31.6629 1291.4002,-15.1966 1411.0088,-11.0351"/>
<polygon fill="#191970" stroke="#191970" points="1411.4152,-14.5233 1421.2889,-10.6814 1411.1744,-7.5274 1411.4152,-14.5233"/>
</g>
<!-- Node21&#45;&gt;Node19 -->
<g id="edge29" class="edge">
<title>Node21&#45;&gt;Node19</title>
<path fill="none" stroke="#191970" d="M663.3094,-135.5647C549.3555,-129.1533 300.8557,-112.408 271.9835,-87 255.8816,-72.83 252.3406,-47.3936 252.0359,-29.649"/>
<polygon fill="#191970" stroke="#191970" points="255.5373,-29.5821 252.1921,-19.5292 248.5381,-29.474 255.5373,-29.5821"/>
</g>
<!-- Node22 -->
<g id="node23" class="node">
<title>Node22</title>
<polygon fill="#ffffff" stroke="#bfbfbf" points="281.4835,-62 281.4835,-81 380.4835,-81 380.4835,-62 281.4835,-62"/>
<text text-anchor="middle" x="330.9835" y="-69" font-family="Helvetica,sans-Serif" font-size="10.00" fill="#000000">AMReX_BCRec.H</text>
</g>
<!-- Node21&#45;&gt;Node22 -->
<g id="edge30" class="edge">
<title>Node21&#45;&gt;Node22</title>
<path fill="none" stroke="#191970" d="M663.4266,-131.571C597.26,-123.0335 484.586,-107.1517 388.9835,-87 384.1997,-85.9916 379.2217,-84.8324 374.2814,-83.6115"/>
<polygon fill="#191970" stroke="#191970" points="374.8234,-80.1374 364.2677,-81.0472 373.0868,-86.9186 374.8234,-80.1374"/>
</g>
<!-- Node23 -->
<g id="node24" class="node">
<title>Node23</title>
<polygon fill="#ffffff" stroke="#bfbfbf" points="398.4835,-62 398.4835,-81 483.4835,-81 483.4835,-62 398.4835,-62"/>
<text text-anchor="middle" x="440.9835" y="-69" font-family="Helvetica,sans-Serif" font-size="10.00" fill="#000000">AMReX_Gpu.H</text>
</g>
<!-- Node21&#45;&gt;Node23 -->
<g id="edge31" class="edge">
<title>Node21&#45;&gt;Node23</title>
<path fill="none" stroke="#191970" d="M673.0174,-128.9371C626.7487,-119.2708 554.165,-103.4484 491.9835,-87 488.3714,-86.0445 484.6301,-85.0049 480.8902,-83.9314"/>
<polygon fill="#191970" stroke="#191970" points="481.6648,-80.511 471.0834,-81.0453 479.6885,-87.2262 481.6648,-80.511"/>
</g>
<!-- Node24 -->
<g id="node25" class="node">
<title>Node24</title>
<g id="a_node25"><a xlink:href="incflo__enums_8_h.html" target="_top" xlink:title="amr&#45;wind/incflo_enums.H">
<polygon fill="#ffffff" stroke="#000000" points="1006.9835,-62 1006.9835,-81 1134.9835,-81 1134.9835,-62 1006.9835,-62"/>
<text text-anchor="middle" x="1070.9835" y="-69" font-family="Helvetica,sans-Serif" font-size="10.00" fill="#000000">amr&#45;wind/incflo_enums.H</text>
</a>
</g>
</g>
<!-- Node21&#45;&gt;Node24 -->
<g id="edge32" class="edge">
<title>Node21&#45;&gt;Node24</title>
<path fill="none" stroke="#191970" d="M758.9965,-128.9843C767.85,-126.9234 777.225,-124.8185 785.9835,-123 859.9425,-107.6439 945.2452,-92.5755 1003.1081,-82.7453"/>
<polygon fill="#191970" stroke="#191970" points="1003.95,-86.1527 1013.2254,-81.0324 1002.7814,-79.2509 1003.95,-86.1527"/>
</g>
<!-- Node25 -->
<g id="node26" class="node">
<title>Node25</title>
<g id="a_node26"><a xlink:href="_view_field_8_h.html" target="_top" xlink:title="amr&#45;wind/core/ViewField.H">
<polygon fill="#ffffff" stroke="#000000" points="816.9835,-62 816.9835,-81 950.9835,-81 950.9835,-62 816.9835,-62"/>
<text text-anchor="middle" x="883.9835" y="-69" font-family="Helvetica,sans-Serif" font-size="10.00" fill="#000000">amr&#45;wind/core/ViewField.H</text>
</a>
</g>
</g>
<!-- Node21&#45;&gt;Node25 -->
<g id="edge34" class="edge">
<title>Node21&#45;&gt;Node25</title>
<path fill="none" stroke="#191970" d="M743.4807,-128.9005C771.7343,-117.3579 819.3227,-97.9163 851.1852,-84.8993"/>
<polygon fill="#191970" stroke="#191970" points="852.5963,-88.1037 860.5299,-81.0817 849.9489,-81.6236 852.5963,-88.1037"/>
</g>
<!-- Node25&#45;&gt;Node9 -->
<g id="edge36" class="edge">
<title>Node25&#45;&gt;Node9</title>
<path fill="none" stroke="#191970" d="M876.4835,-61.8906C869.4097,-52.8273 858.6293,-39.0149 849.9689,-27.9188"/>
<polygon fill="#191970" stroke="#191970" points="852.5011,-25.4746 843.5892,-19.7449 846.9829,-29.7815 852.5011,-25.4746"/>
</g>
<!-- Node25&#45;&gt;Node17 -->
<g id="edge35" class="edge">
<title>Node25&#45;&gt;Node17</title>
<path fill="none" stroke="#191970" d="M951.1508,-62.0048C966.5278,-59.932 982.812,-57.8168 997.9835,-56 1152.7783,-37.4628 1338.4716,-19.6534 1410.9108,-12.8752"/>
<polygon fill="#191970" stroke="#191970" points="1411.5202,-16.3337 1421.1519,-11.92 1410.8701,-9.3639 1411.5202,-16.3337"/>
</g>
<!-- Node25&#45;&gt;Node19 -->
<g id="edge37" class="edge">
<title>Node25&#45;&gt;Node19</title>
<path fill="none" stroke="#191970" d="M816.7538,-64.8379C788.966,-62.0907 756.4234,-58.8818 726.9835,-56 579.4149,-41.5551 405.9831,-24.7738 315.3448,-16.0186"/>
<polygon fill="#191970" stroke="#191970" points="315.5306,-12.5203 305.2404,-15.0427 314.8576,-19.4879 315.5306,-12.5203"/>
</g>
<!-- Node26 -->
<g id="node27" class="node">
<title>Node26</title>
<polygon fill="#ffffff" stroke="#bfbfbf" points="1532.4835,-.5 1532.4835,-19.5 1627.4835,-19.5 1627.4835,-.5 1532.4835,-.5"/>
<text text-anchor="middle" x="1579.9835" y="-7.5" font-family="Helvetica,sans-Serif" font-size="10.00" fill="#000000">AMReX_Vector.H</text>
</g>
<!-- Node25&#45;&gt;Node26 -->
<g id="edge38" class="edge">
<title>Node25&#45;&gt;Node26</title>
<path fill="none" stroke="#191970" d="M949.0112,-61.9803C965.0016,-59.8267 982.0933,-57.6822 997.9835,-56 1208.0829,-33.7583 1261.4562,-37.7401 1471.9835,-20 1488.2222,-18.6316 1505.8242,-17.0456 1522.012,-15.5455"/>
<polygon fill="#191970" stroke="#191970" points="1522.7852,-18.9887 1532.417,-14.5752 1522.1352,-12.0189 1522.7852,-18.9887"/>
</g>
<!-- Node27&#45;&gt;Node9 -->
<g id="edge41" class="edge">
<title>Node27&#45;&gt;Node9</title>
<path fill="none" stroke="#191970" d="M843.2053,-128.8928C831.3369,-119.7 815.0378,-104.6481 807.9835,-87 799.951,-66.9047 811.3553,-43.4989 821.9309,-27.8149"/>
<polygon fill="#191970" stroke="#191970" points="824.8805,-29.7091 827.9086,-19.5562 819.21,-25.6047 824.8805,-29.7091"/>
</g>
<!-- Node27&#45;&gt;Node17 -->
<g id="edge40" class="edge">
<title>Node27&#45;&gt;Node17</title>
<path fill="none" stroke="#191970" d="M898.9608,-128.9736C908.4846,-126.9133 918.5674,-124.8113 927.9835,-123 1023.5555,-104.6153 1055.3062,-127.1041 1143.9835,-87 1163.8429,-78.0186 1162.1691,-65.0802 1181.9835,-56 1222.5734,-37.3992 1351.9418,-20.4708 1411.4729,-13.4404"/>
<polygon fill="#191970" stroke="#191970" points="1411.8786,-16.9169 1421.4063,-12.2828 1411.0683,-9.9639 1411.8786,-16.9169"/>
</g>
<!-- Node27&#45;&gt;Node28 -->
<g id="edge42" class="edge">
<title>Node27&#45;&gt;Node28</title>
<path fill="none" stroke="#191970" d="M814.035,-128.9717C759.8482,-116.9501 666.6773,-96.2797 608.081,-83.2799"/>
<polygon fill="#191970" stroke="#191970" points="608.7935,-79.853 598.2728,-81.1039 607.2774,-86.6868 608.7935,-79.853"/>
</g>
<!-- Node29&#45;&gt;Node9 -->
<g id="edge45" class="edge">
<title>Node29&#45;&gt;Node9</title>
<path fill="none" stroke="#191970" d="M1006.6184,-128.9186C1000.1741,-111.8961 984.5138,-76.2697 959.9835,-56 940.7873,-40.1379 915.6014,-29.4598 892.9459,-22.4202"/>
<polygon fill="#191970" stroke="#191970" points="893.6627,-18.9831 883.0819,-19.529 891.6937,-25.7005 893.6627,-18.9831"/>
</g>
<!-- Node29&#45;&gt;Node17 -->
<g id="edge44" class="edge">
<title>Node29&#45;&gt;Node17</title>
<path fill="none" stroke="#191970" d="M1083.1803,-130.35C1162.8364,-120.8287 1284.6337,-104.1791 1327.9835,-87 1365.0303,-72.3188 1402.2123,-44.0656 1423.616,-26.1685"/>
<polygon fill="#191970" stroke="#191970" points="1425.929,-28.7958 1431.2683,-19.6447 1421.3876,-23.4689 1425.929,-28.7958"/>
</g>
<!-- Node29&#45;&gt;Node19 -->
<g id="edge47" class="edge">
<title>Node29&#45;&gt;Node19</title>
<path fill="none" stroke="#191970" d="M961.031,-128.9906C950.162,-126.9507 938.6905,-124.8531 927.9835,-123 826.465,-105.43 798.5832,-113.3555 698.9835,-87 661.318,-77.0332 654.7953,-65.3965 616.9835,-56 513.1384,-30.1936 388.8406,-18.448 315.6486,-13.422"/>
<polygon fill="#191970" stroke="#191970" points="315.4395,-9.9004 305.2291,-12.7283 314.9745,-16.8849 315.4395,-9.9004"/>
</g>
<!-- Node29&#45;&gt;Node25 -->
<g id="edge46" class="edge">
<title>Node29&#45;&gt;Node25</title>
<path fill="none" stroke="#191970" d="M991.9308,-128.9005C970.7851,-117.6564 935.5431,-98.9166 911.1053,-85.9219"/>
<polygon fill="#191970" stroke="#191970" points="912.4754,-82.6864 902.0027,-81.0817 909.1888,-88.867 912.4754,-82.6864"/>
</g>
<!-- Node29&#45;&gt;Node26 -->
<g id="edge48" class="edge">
<title>Node29&#45;&gt;Node26</title>
<path fill="none" stroke="#191970" d="M1083.0406,-132.4972C1156.1938,-125.4444 1271.5835,-111.4761 1368.9835,-87 1434.8423,-70.45 1508.7369,-40.786 1549.2601,-23.5074"/>
<polygon fill="#191970" stroke="#191970" points="1550.7756,-26.6657 1558.58,-19.5004 1548.0106,-20.2349 1550.7756,-26.6657"/>
</g>
<!-- Node30 -->
<g id="node31" class="node">
<title>Node30</title>
<polygon fill="#ffffff" stroke="#bfbfbf" points="1190.9835,-62 1190.9835,-81 1318.9835,-81 1318.9835,-62 1190.9835,-62"/>
<text text-anchor="middle" x="1254.9835" y="-69" font-family="Helvetica,sans-Serif" font-size="10.00" fill="#000000">AMReX_PhysBCFunct.H</text>
</g>
<!-- Node29&#45;&gt;Node30 -->
<g id="edge49" class="edge">
<title>Node29&#45;&gt;Node30</title>
<path fill="none" stroke="#191970" d="M1044.8258,-128.9717C1088.2404,-117.0991 1162.5018,-96.7909 1210.127,-83.7669"/>
<polygon fill="#191970" stroke="#191970" points="1211.1421,-87.1179 1219.8647,-81.1039 1209.2956,-80.3658 1211.1421,-87.1179"/>
</g>
<!-- Node31&#45;&gt;Node4 -->
<g id="edge55" class="edge">
<title>Node31&#45;&gt;Node4</title>
<path fill="none" stroke="#191970" d="M1591.7832,-128.5956C1607.6097,-126.5548 1624.3576,-124.5564 1639.9835,-123 1874.478,-99.643 1934.6011,-111.4564 2168.9835,-87 2181.319,-85.7129 2194.3985,-84.0943 2207.0697,-82.392"/>
<polygon fill="#191970" stroke="#191970" points="2207.6905,-85.8397 2217.1223,-81.0136 2206.7395,-78.9046 2207.6905,-85.8397"/>
</g>
<!-- Node31&#45;&gt;Node9 -->
<g id="edge63" class="edge">
<title>Node31&#45;&gt;Node9</title>
<path fill="none" stroke="#191970" d="M1494.3422,-123.4994C1457.5466,-104.3006 1389.9011,-71.6557 1327.9835,-56 1254.569,-37.4373 1048.4391,-22.6011 927.5463,-15.1793"/>
<polygon fill="#191970" stroke="#191970" points="927.7518,-11.6854 917.5575,-14.571 927.3262,-18.6724 927.7518,-11.6854"/>
</g>
<!-- Node31&#45;&gt;Node17 -->
<g id="edge54" class="edge">
<title>Node31&#45;&gt;Node17</title>
<path fill="none" stroke="#191970" d="M1513.9536,-123.3175C1504.9441,-106.551 1489.6625,-78.8977 1474.9835,-56 1468.9066,-46.5207 1461.6599,-36.3134 1455.5074,-27.928"/>
<polygon fill="#191970" stroke="#191970" points="1458.1413,-25.6043 1449.3679,-19.6647 1452.5224,-29.779 1458.1413,-25.6043"/>
</g>
<!-- Node31&#45;&gt;Node24 -->
<g id="edge64" class="edge">
<title>Node31&#45;&gt;Node24</title>
<path fill="none" stroke="#191970" d="M1452.2357,-124.5928C1449.1115,-124.04 1446.0164,-123.5063 1442.9835,-123 1327.4834,-103.7197 1297.9701,-103.0972 1181.9835,-87 1170.1637,-85.3596 1157.6367,-83.6156 1145.4197,-81.9118"/>
<polygon fill="#191970" stroke="#191970" points="1145.6405,-78.4087 1135.2527,-80.4932 1144.6731,-85.3416 1145.6405,-78.4087"/>
</g>
<!-- Node32 -->
<g id="node33" class="node">
<title>Node32</title>
<g id="a_node33"><a xlink:href="_coll_mgr_8_h.html" target="_top" xlink:title="amr&#45;wind/core/CollMgr.H">
<polygon fill="#ffffff" stroke="#000000" points="1760.4835,-62 1760.4835,-81 1885.4835,-81 1885.4835,-62 1760.4835,-62"/>
<text text-anchor="middle" x="1822.9835" y="-69" font-family="Helvetica,sans-Serif" font-size="10.00" fill="#000000">amr&#45;wind/core/CollMgr.H</text>
</a>
</g>
</g>
<!-- Node31&#45;&gt;Node32 -->
<g id="edge56" class="edge">
<title>Node31&#45;&gt;Node32</title>
<path fill="none" stroke="#191970" d="M1589.5338,-123.4639C1644.1811,-111.2999 1720.0475,-94.4127 1770.2791,-83.2315"/>
<polygon fill="#191970" stroke="#191970" points="1771.28,-86.5945 1780.2807,-81.0053 1769.7591,-79.7617 1771.28,-86.5945"/>
</g>
<!-- Node33 -->
<g id="node34" class="node">
<title>Node33</title>
<g id="a_node34"><a xlink:href="_p_d_e_fields_8_h.html" target="_top" xlink:title="amr&#45;wind/equation_systems\l/PDEFields.H">
<polygon fill="#ffffff" stroke="#000000" points="1603.4835,-56.5 1603.4835,-86.5 1742.4835,-86.5 1742.4835,-56.5 1603.4835,-56.5"/>
<text text-anchor="start" x="1611.4835" y="-74.5" font-family="Helvetica,sans-Serif" font-size="10.00" fill="#000000">amr&#45;wind/equation_systems</text>
<text text-anchor="middle" x="1672.9835" y="-63.5" font-family="Helvetica,sans-Serif" font-size="10.00" fill="#000000">/PDEFields.H</text>
</a>
</g>
</g>
<!-- Node31&#45;&gt;Node33 -->
<g id="edge61" class="edge">
<title>Node31&#45;&gt;Node33</title>
<path fill="none" stroke="#191970" d="M1555.8709,-123.4639C1577.6515,-113.7996 1606.1515,-101.154 1629.5829,-90.7572"/>
<polygon fill="#191970" stroke="#191970" points="1631.2273,-93.8567 1638.9484,-86.6017 1628.3882,-87.4583 1631.2273,-93.8567"/>
</g>
<!-- Node32&#45;&gt;Node3 -->
<g id="edge59" class="edge">
<title>Node32&#45;&gt;Node3</title>
<path fill="none" stroke="#191970" d="M1860.9959,-61.9581C1903.8206,-51.2082 1973.5043,-33.7162 2020.0334,-22.0365"/>
<polygon fill="#191970" stroke="#191970" points="2021.035,-25.3937 2029.8819,-19.5643 2019.3306,-18.6043 2021.035,-25.3937"/>
</g>
<!-- Node32&#45;&gt;Node5 -->
<g id="edge58" class="edge">
<title>Node32&#45;&gt;Node5</title>
<path fill="none" stroke="#191970" d="M1822.9835,-61.8906C1822.9835,-53.3657 1822.9835,-40.6392 1822.9835,-29.9235"/>
<polygon fill="#191970" stroke="#191970" points="1826.4836,-29.7448 1822.9835,-19.7449 1819.4836,-29.7449 1826.4836,-29.7448"/>
</g>
<!-- Node32&#45;&gt;Node17 -->
<g id="edge57" class="edge">
<title>Node32&#45;&gt;Node17</title>
<path fill="none" stroke="#191970" d="M1781.4053,-61.93C1771.7702,-59.8495 1761.5394,-57.75 1751.9835,-56 1650.1699,-37.3547 1528.4847,-21.0183 1472.6866,-13.8557"/>
<polygon fill="#191970" stroke="#191970" points="1473.1047,-10.3807 1462.7421,-12.5869 1472.2188,-17.3244 1473.1047,-10.3807"/>
</g>
<!-- Node32&#45;&gt;Node26 -->
<g id="edge60" class="edge">
<title>Node32&#45;&gt;Node26</title>
<path fill="none" stroke="#191970" d="M1785.2814,-61.9581C1742.8063,-51.2082 1673.6915,-33.7162 1627.5422,-22.0365"/>
<polygon fill="#191970" stroke="#191970" points="1628.3272,-18.6248 1617.7741,-19.5643 1626.6097,-25.4109 1628.3272,-18.6248"/>
</g>
<!-- Node34 -->
<g id="node35" class="node">
<title>Node34</title>
<polygon fill="#ffffff" stroke="#bfbfbf" points="1650.4835,-.5 1650.4835,-19.5 1695.4835,-19.5 1695.4835,-.5 1650.4835,-.5"/>
<text text-anchor="middle" x="1672.9835" y="-7.5" font-family="Helvetica,sans-Serif" font-size="10.00" fill="#000000">iosfwd</text>
</g>
<!-- Node33&#45;&gt;Node34 -->
<g id="edge62" class="edge">
<title>Node33&#45;&gt;Node34</title>
<path fill="none" stroke="#191970" d="M1672.9835,-56.2977C1672.9835,-48.3834 1672.9835,-38.6043 1672.9835,-30.0759"/>
<polygon fill="#191970" stroke="#191970" points="1676.4836,-29.8469 1672.9835,-19.8469 1669.4836,-29.847 1676.4836,-29.8469"/>
</g>
<!-- Node35&#45;&gt;Node4 -->
<g id="edge66" class="edge">
<title>Node35&#45;&gt;Node4</title>
<path fill="none" stroke="#191970" d="M2122.2029,-128.9005C2154.0016,-117.2584 2207.7486,-97.5805 2243.301,-84.5641"/>
<polygon fill="#191970" stroke="#191970" points="2244.6256,-87.8064 2252.8127,-81.0817 2242.2189,-81.2331 2244.6256,-87.8064"/>
</g>
<!-- Node35&#45;&gt;Node19 -->
<g id="edge68" class="edge">
<title>Node35&#45;&gt;Node19</title>
<path fill="none" stroke="#191970" d="M2057.5567,-128.9904C2046.4673,-126.6144 2034.3037,-124.3583 2022.9835,-123 1486.5942,-58.6375 1343.8787,-155.3543 807.9835,-87 746.4869,-79.156 733.1186,-66.2886 671.9835,-56 546.2027,-34.8321 397.4701,-21.1651 315.3438,-14.5974"/>
<polygon fill="#191970" stroke="#191970" points="315.4236,-11.0929 305.1787,-13.7936 314.8717,-18.0711 315.4236,-11.0929"/>
</g>
<!-- Node35&#45;&gt;Node32 -->
<g id="edge67" class="edge">
<title>Node35&#45;&gt;Node32</title>
<path fill="none" stroke="#191970" d="M2057.1592,-128.9717C2008.4794,-117.0246 1924.9945,-96.5357 1871.9708,-83.5225"/>
<polygon fill="#191970" stroke="#191970" points="1872.6619,-80.0883 1862.1159,-81.1039 1870.9935,-86.8866 1872.6619,-80.0883"/>
</g>
<!-- Node36 -->
<g id="node37" class="node">
<title>Node36</title>
<polygon fill="#ffffff" stroke="#bfbfbf" points="2049.9835,-62 2049.9835,-81 2159.9835,-81 2159.9835,-62 2049.9835,-62"/>
<text text-anchor="middle" x="2104.9835" y="-69" font-family="Helvetica,sans-Serif" font-size="10.00" fill="#000000">AMReX_Geometry.H</text>
</g>
<!-- Node35&#45;&gt;Node36 -->
<g id="edge69" class="edge">
<title>Node35&#45;&gt;Node36</title>
<path fill="none" stroke="#191970" d="M2097.273,-128.9005C2098.5829,-119.149 2100.6501,-103.7597 2102.3145,-91.3695"/>
<polygon fill="#191970" stroke="#191970" points="2105.8339,-91.4586 2103.6964,-81.0817 2098.8962,-90.5266 2105.8339,-91.4586"/>
</g>
<!-- Node37&#45;&gt;Node3 -->
<g id="edge72" class="edge">
<title>Node37&#45;&gt;Node3</title>
<path fill="none" stroke="#191970" d="M1978.0942,-56.4554C1997.1659,-46.599 2021.9317,-33.7999 2040.6374,-24.1327"/>
<polygon fill="#191970" stroke="#191970" points="2042.2659,-27.2309 2049.5427,-19.5303 2039.052,-21.0122 2042.2659,-27.2309"/>
</g>
<!-- Node37&#45;&gt;Node17 -->
<g id="edge71" class="edge">
<title>Node37&#45;&gt;Node17</title>
<path fill="none" stroke="#191970" d="M1903.7551,-57.8682C1900.8003,-57.1791 1897.8579,-56.5472 1894.9835,-56 1732.2431,-25.0177 1688.6629,-38.0285 1523.9835,-20 1506.956,-18.1359 1487.9679,-15.8345 1472.555,-13.9096"/>
<polygon fill="#191970" stroke="#191970" points="1472.8826,-10.4233 1462.5238,-12.6471 1472.0085,-17.3685 1472.8826,-10.4233"/>
</g>
<!-- Node37&#45;&gt;Node26 -->
<g id="edge74" class="edge">
<title>Node37&#45;&gt;Node26</title>
<path fill="none" stroke="#191970" d="M1903.7249,-58.0177C1900.7775,-57.292 1897.845,-56.6112 1894.9835,-56 1783.9119,-32.2756 1754.2746,-37.0433 1641.9835,-20 1640.535,-19.7801 1639.0677,-19.5558 1637.5877,-19.3281"/>
<polygon fill="#191970" stroke="#191970" points="1638.1165,-15.8684 1627.6969,-17.7873 1637.039,-22.7849 1638.1165,-15.8684"/>
</g>
<!-- Node38 -->
<g id="node39" class="node">
<title>Node38</title>
<polygon fill="#ffffff" stroke="#bfbfbf" points="1933.9835,-.5 1933.9835,-19.5 1963.9835,-19.5 1963.9835,-.5 1933.9835,-.5"/>
<text text-anchor="middle" x="1948.9835" y="-7.5" font-family="Helvetica,sans-Serif" font-size="10.00" fill="#000000">set</text>
</g>
<!-- Node37&#45;&gt;Node38 -->
<g id="edge73" class="edge">
<title>Node37&#45;&gt;Node38</title>
<path fill="none" stroke="#191970" d="M1948.9835,-56.2977C1948.9835,-48.3834 1948.9835,-38.6043 1948.9835,-30.0759"/>
<polygon fill="#191970" stroke="#191970" points="1952.4836,-29.8469 1948.9835,-19.8469 1945.4836,-29.847 1952.4836,-29.8469"/>
</g>
<!-- Node39&#45;&gt;Node19 -->
<g id="edge77" class="edge">
<title>Node39&#45;&gt;Node19</title>
<path fill="none" stroke="#191970" d="M670.0995,-204.0855C545.1006,-200.0852 221.1966,-186.7799 118.9835,-154 63.3861,-136.1698 34.883,-137.7327 5.9835,-87 -.8361,-75.0283 -2.822,-66.5967 5.9835,-56 17.7576,-41.8307 121.5611,-26.3296 190.8009,-17.4253"/>
<polygon fill="#191970" stroke="#191970" points="191.2721,-20.8937 200.7508,-16.1604 190.3892,-13.9496 191.2721,-20.8937"/>
</g>
<!-- Node39&#45;&gt;Node21 -->
<g id="edge76" class="edge">
<title>Node39&#45;&gt;Node21</title>
<path fill="none" stroke="#191970" d="M719.9835,-190.2967C719.9835,-180.7699 719.9835,-168.3954 719.9835,-158.1306"/>
<polygon fill="#191970" stroke="#191970" points="723.4836,-158.0549 719.9835,-148.055 716.4836,-158.055 723.4836,-158.0549"/>
</g>
</g>
</svg>
