<?xml version="1.0" encoding="UTF-8" standalone="no"?>
<!DOCTYPE svg PUBLIC "-//W3C//DTD SVG 1.1//EN"
 "http://www.w3.org/Graphics/SVG/1.1/DTD/svg11.dtd">
<!-- Generated by graphviz version 2.40.1 (20161225.0304)
 -->
<!-- Title: TurbulenceModel.H Pages: 1 -->
<svg width="1653pt" height="364pt"
 viewBox="0.00 0.00 1653.00 364.00" xmlns="http://www.w3.org/2000/svg" xmlns:xlink="http://www.w3.org/1999/xlink">
<g id="graph0" class="graph" transform="scale(1 1) rotate(0) translate(4 360)">
<title>TurbulenceModel.H</title>
<polygon fill="#ffffff" stroke="transparent" points="-4,4 -4,-360 1649,-360 1649,4 -4,4"/>
<!-- Node8 -->
<g id="node1" class="node">
<title>Node8</title>
<polygon fill="#bfbfbf" stroke="#000000" points="1317,-336.5 1317,-355.5 1418,-355.5 1418,-336.5 1317,-336.5"/>
<text text-anchor="middle" x="1367.5" y="-343.5" font-family="Helvetica,sans-Serif" font-size="10.00" fill="#000000">TurbulenceModel.H</text>
</g>
<!-- Node9 -->
<g id="node2" class="node">
<title>Node9</title>
<g id="a_node2"><a xlink:href="_c_f_d_sim_8cpp.html" target="_top" xlink:title="CFDSim.cpp">
<polygon fill="#ffffff" stroke="#000000" points="545.5,-280.5 545.5,-299.5 619.5,-299.5 619.5,-280.5 545.5,-280.5"/>
<text text-anchor="middle" x="582.5" y="-287.5" font-family="Helvetica,sans-Serif" font-size="10.00" fill="#000000">CFDSim.cpp</text>
</a>
</g>
</g>
<!-- Node8&#45;&gt;Node9 -->
<g id="edge1" class="edge">
<title>Node8&#45;&gt;Node9</title>
<path fill="none" stroke="#191970" d="M1306.3239,-345.3277C1179.3821,-343.2444 878.3499,-334.7287 628.5,-300 625.5859,-299.5949 622.5817,-299.106 619.5704,-298.5649"/>
<polygon fill="#191970" stroke="#191970" points="1306.5586,-348.8317 1316.6121,-345.4886 1306.6681,-341.8325 1306.5586,-348.8317"/>
</g>
<!-- Node10 -->
<g id="node3" class="node">
<title>Node10</title>
<g id="a_node3"><a xlink:href="_p_d_e_ops_8_h.html" target="_top" xlink:title="PDEOps.H">
<polygon fill="#ffffff" stroke="#000000" points="637.5,-280.5 637.5,-299.5 703.5,-299.5 703.5,-280.5 637.5,-280.5"/>
<text text-anchor="middle" x="670.5" y="-287.5" font-family="Helvetica,sans-Serif" font-size="10.00" fill="#000000">PDEOps.H</text>
</a>
</g>
</g>
<!-- Node8&#45;&gt;Node10 -->
<g id="edge2" class="edge">
<title>Node8&#45;&gt;Node10</title>
<path fill="none" stroke="#191970" d="M1306.5176,-341.1004C1164.0897,-329.6571 813.3584,-301.4779 703.7722,-292.6732"/>
<polygon fill="#191970" stroke="#191970" points="1306.5638,-344.6153 1316.812,-341.9275 1307.1245,-337.6378 1306.5638,-344.6153"/>
</g>
<!-- Node39 -->
<g id="node32" class="node">
<title>Node39</title>
<g id="a_node32"><a xlink:href="_ksgs_m84_src_8cpp.html" target="_top" xlink:title="KsgsM84Src.cpp">
<polygon fill="#ffffff" stroke="#000000" points="1433.5,-280.5 1433.5,-299.5 1525.5,-299.5 1525.5,-280.5 1433.5,-280.5"/>
<text text-anchor="middle" x="1479.5" y="-287.5" font-family="Helvetica,sans-Serif" font-size="10.00" fill="#000000">KsgsM84Src.cpp</text>
</a>
</g>
</g>
<!-- Node8&#45;&gt;Node39 -->
<g id="edge63" class="edge">
<title>Node8&#45;&gt;Node39</title>
<path fill="none" stroke="#191970" d="M1395.8263,-331.8368C1416.0721,-321.7139 1442.7642,-308.3679 1460.4978,-299.5011"/>
<polygon fill="#191970" stroke="#191970" points="1394.1325,-328.7706 1386.7535,-336.3733 1397.263,-335.0316 1394.1325,-328.7706"/>
</g>
<!-- Node40 -->
<g id="node33" class="node">
<title>Node40</title>
<g id="a_node33"><a xlink:href="incflo__advance_8cpp.html" target="_top" xlink:title="incflo_advance.cpp">
<polygon fill="#ffffff" stroke="#000000" points="1544,-280.5 1544,-299.5 1645,-299.5 1645,-280.5 1544,-280.5"/>
<text text-anchor="middle" x="1594.5" y="-287.5" font-family="Helvetica,sans-Serif" font-size="10.00" fill="#000000">incflo_advance.cpp</text>
</a>
</g>
</g>
<!-- Node8&#45;&gt;Node40 -->
<g id="edge64" class="edge">
<title>Node8&#45;&gt;Node40</title>
<path fill="none" stroke="#191970" d="M1416.2158,-333.982C1457.9833,-323.6781 1517.3481,-309.0331 1555.8951,-299.5237"/>
<polygon fill="#191970" stroke="#191970" points="1415.1354,-330.6435 1406.2648,-336.4369 1416.812,-337.4398 1415.1354,-330.6435"/>
</g>
<!-- Node41 -->
<g id="node34" class="node">
<title>Node41</title>
<g id="a_node34"><a xlink:href="_turb_model_8_h.html" target="_top" xlink:title="TurbModel.H">
<polygon fill="#ffffff" stroke="#000000" points="1293,-280.5 1293,-299.5 1366,-299.5 1366,-280.5 1293,-280.5"/>
<text text-anchor="middle" x="1329.5" y="-287.5" font-family="Helvetica,sans-Serif" font-size="10.00" fill="#000000">TurbModel.H</text>
</a>
</g>
</g>
<!-- Node8&#45;&gt;Node41 -->
<g id="edge65" class="edge">
<title>Node8&#45;&gt;Node41</title>
<path fill="none" stroke="#191970" d="M1355.2321,-327.9209C1348.8512,-318.5176 1341.3069,-307.3997 1336.0432,-299.6427"/>
<polygon fill="#191970" stroke="#191970" points="1352.3697,-329.936 1360.8809,-336.2455 1358.162,-326.0055 1352.3697,-329.936"/>
</g>
<!-- Node49 -->
<g id="node42" class="node">
<title>Node49</title>
<g id="a_node42"><a xlink:href="_turb_model_defs_8_h.html" target="_top" xlink:title="TurbModelDefs.H">
<polygon fill="#ffffff" stroke="#000000" points="1401.5,-168.5 1401.5,-187.5 1495.5,-187.5 1495.5,-168.5 1401.5,-168.5"/>
<text text-anchor="middle" x="1448.5" y="-175.5" font-family="Helvetica,sans-Serif" font-size="10.00" fill="#000000">TurbModelDefs.H</text>
</a>
</g>
</g>
<!-- Node8&#45;&gt;Node49 -->
<g id="edge75" class="edge">
<title>Node8&#45;&gt;Node49</title>
<path fill="none" stroke="#191970" d="M1376.5697,-327.1887C1393.7882,-291.4762 1430.6613,-214.9988 1443.7616,-187.8279"/>
<polygon fill="#191970" stroke="#191970" points="1373.2773,-325.9585 1372.087,-336.4862 1379.5827,-328.9986 1373.2773,-325.9585"/>
</g>
<!-- Node11 -->
<g id="node4" class="node">
<title>Node11</title>
<g id="a_node4"><a xlink:href="_adv_op___godunov_8_h.html" target="_top" xlink:title="AdvOp_Godunov.H">
<polygon fill="#ffffff" stroke="#000000" points="601,-112.5 601,-131.5 702,-131.5 702,-112.5 601,-112.5"/>
<text text-anchor="middle" x="651.5" y="-119.5" font-family="Helvetica,sans-Serif" font-size="10.00" fill="#000000">AdvOp_Godunov.H</text>
</a>
</g>
</g>
<!-- Node10&#45;&gt;Node11 -->
<g id="edge3" class="edge">
<title>Node10&#45;&gt;Node11</title>
<path fill="none" stroke="#191970" d="M668.2675,-270.2601C664.1855,-234.1669 655.658,-158.7656 652.6115,-131.8279"/>
<polygon fill="#191970" stroke="#191970" points="664.8223,-270.9429 669.424,-280.4862 671.778,-270.1562 664.8223,-270.9429"/>
</g>
<!-- Node13 -->
<g id="node6" class="node">
<title>Node13</title>
<g id="a_node6"><a xlink:href="icns__ops_8_h.html" target="_top" xlink:title="icns_ops.H">
<polygon fill="#ffffff" stroke="#000000" points="105.5,-56.5 105.5,-75.5 171.5,-75.5 171.5,-56.5 105.5,-56.5"/>
<text text-anchor="middle" x="138.5" y="-63.5" font-family="Helvetica,sans-Serif" font-size="10.00" fill="#000000">icns_ops.H</text>
</a>
</g>
</g>
<!-- Node10&#45;&gt;Node13 -->
<g id="edge61" class="edge">
<title>Node10&#45;&gt;Node13</title>
<path fill="none" stroke="#191970" d="M627.1007,-279.9365C510.8548,-259.9585 472.2851,-287.3546 366.5,-244 267.0612,-203.2464 174.5472,-106.2428 146.8676,-75.5105"/>
<polygon fill="#191970" stroke="#191970" points="626.6299,-283.4079 637.092,-281.7363 627.8709,-276.5188 626.6299,-283.4079"/>
</g>
<!-- Node21 -->
<g id="node14" class="node">
<title>Node21</title>
<g id="a_node14"><a xlink:href="_adv_op___m_o_l_8_h.html" target="_top" xlink:title="AdvOp_MOL.H">
<polygon fill="#ffffff" stroke="#000000" points="500,-112.5 500,-131.5 583,-131.5 583,-112.5 500,-112.5"/>
<text text-anchor="middle" x="541.5" y="-119.5" font-family="Helvetica,sans-Serif" font-size="10.00" fill="#000000">AdvOp_MOL.H</text>
</a>
</g>
</g>
<!-- Node10&#45;&gt;Node21 -->
<g id="edge14" class="edge">
<title>Node10&#45;&gt;Node21</title>
<path fill="none" stroke="#191970" d="M657.0991,-272.5477C630.152,-237.4538 570.1784,-159.3486 549.0464,-131.8279"/>
<polygon fill="#191970" stroke="#191970" points="654.3285,-274.6863 663.1948,-280.4862 659.8805,-270.4231 654.3285,-274.6863"/>
</g>
<!-- Node22 -->
<g id="node15" class="node">
<title>Node22</title>
<g id="a_node15"><a xlink:href="_b_c_ops_8_h.html" target="_top" xlink:title="BCOps.H">
<polygon fill="#ffffff" stroke="#000000" points="884,-112.5 884,-131.5 943,-131.5 943,-112.5 884,-112.5"/>
<text text-anchor="middle" x="913.5" y="-119.5" font-family="Helvetica,sans-Serif" font-size="10.00" fill="#000000">BCOps.H</text>
</a>
</g>
</g>
<!-- Node10&#45;&gt;Node22 -->
<g id="edge22" class="edge">
<title>Node10&#45;&gt;Node22</title>
<path fill="none" stroke="#191970" d="M680.4003,-271.5505C695.8157,-244.6212 728.13,-194.8432 769.5,-168 779.2696,-161.6609 844.7191,-141.998 883.9395,-130.5351"/>
<polygon fill="#191970" stroke="#191970" points="677.3059,-269.9134 675.5001,-280.3533 683.4221,-273.3182 677.3059,-269.9134"/>
</g>
<!-- Node24 -->
<g id="node17" class="node">
<title>Node24</title>
<g id="a_node17"><a xlink:href="_comp_r_h_s_ops_8_h.html" target="_top" xlink:title="CompRHSOps.H">
<polygon fill="#ffffff" stroke="#000000" points="756,-224.5 756,-243.5 849,-243.5 849,-224.5 756,-224.5"/>
<text text-anchor="middle" x="802.5" y="-231.5" font-family="Helvetica,sans-Serif" font-size="10.00" fill="#000000">CompRHSOps.H</text>
</a>
</g>
</g>
<!-- Node10&#45;&gt;Node24 -->
<g id="edge30" class="edge">
<title>Node10&#45;&gt;Node24</title>
<path fill="none" stroke="#191970" d="M702.5965,-276.3833C726.6035,-266.1985 758.8259,-252.5284 780.1045,-243.5011"/>
<polygon fill="#191970" stroke="#191970" points="701.0305,-273.2457 693.1916,-280.3733 703.7644,-279.6897 701.0305,-273.2457"/>
</g>
<!-- Node25 -->
<g id="node18" class="node">
<title>Node25</title>
<g id="a_node18"><a xlink:href="_p_d_e_8_h.html" target="_top" xlink:title="PDE.H">
<polygon fill="#ffffff" stroke="#000000" points="778.5,-168.5 778.5,-187.5 826.5,-187.5 826.5,-168.5 778.5,-168.5"/>
<text text-anchor="middle" x="802.5" y="-175.5" font-family="Helvetica,sans-Serif" font-size="10.00" fill="#000000">PDE.H</text>
</a>
</g>
</g>
<!-- Node10&#45;&gt;Node25 -->
<g id="edge55" class="edge">
<title>Node10&#45;&gt;Node25</title>
<path fill="none" stroke="#191970" d="M689.5401,-273.5686C705.0899,-260.1762 727.6592,-240.7992 747.5,-224 762.3202,-211.4518 779.5018,-197.1151 790.6636,-187.8294"/>
<polygon fill="#191970" stroke="#191970" points="686.975,-271.1588 681.6855,-280.3387 691.5452,-276.461 686.975,-271.1588"/>
</g>
<!-- Node29 -->
<g id="node22" class="node">
<title>Node29</title>
<g id="a_node22"><a xlink:href="icns__diffusion_8_h.html" target="_top" xlink:title="icns_diffusion.H">
<polygon fill="#ffffff" stroke="#000000" points="0,-56.5 0,-75.5 87,-75.5 87,-56.5 0,-56.5"/>
<text text-anchor="middle" x="43.5" y="-63.5" font-family="Helvetica,sans-Serif" font-size="10.00" fill="#000000">icns_diffusion.H</text>
</a>
</g>
</g>
<!-- Node10&#45;&gt;Node29 -->
<g id="edge62" class="edge">
<title>Node10&#45;&gt;Node29</title>
<path fill="none" stroke="#191970" d="M627.2124,-279.9778C492.0989,-257.6481 449.3522,-287.9252 323.5,-244 207.1162,-203.3795 89.6499,-106.2865 54.239,-75.5212"/>
<polygon fill="#191970" stroke="#191970" points="626.6541,-283.4331 637.1026,-281.6782 627.8403,-276.5343 626.6541,-283.4331"/>
</g>
<!-- Node37 -->
<g id="node30" class="node">
<title>Node37</title>
<g id="a_node30"><a xlink:href="_diffusion_ops_8_h.html" target="_top" xlink:title="DiffusionOps.H">
<polygon fill="#ffffff" stroke="#000000" points="375.5,-224.5 375.5,-243.5 459.5,-243.5 459.5,-224.5 375.5,-224.5"/>
<text text-anchor="middle" x="417.5" y="-231.5" font-family="Helvetica,sans-Serif" font-size="10.00" fill="#000000">DiffusionOps.H</text>
</a>
</g>
</g>
<!-- Node10&#45;&gt;Node37 -->
<g id="edge56" class="edge">
<title>Node10&#45;&gt;Node37</title>
<path fill="none" stroke="#191970" d="M627.614,-279.8276C563.4524,-265.2473 500.132,-251.5844 459.5877,-242.9283"/>
<polygon fill="#191970" stroke="#191970" points="626.9712,-283.2708 637.4989,-282.0798 628.5262,-276.4457 626.9712,-283.2708"/>
</g>
<!-- Node12 -->
<g id="node5" class="node">
<title>Node12</title>
<g id="a_node5"><a xlink:href="density_8cpp.html" target="_top" xlink:title="density.cpp">
<polygon fill="#ffffff" stroke="#000000" points="913,-.5 913,-19.5 980,-19.5 980,-.5 913,-.5"/>
<text text-anchor="middle" x="946.5" y="-7.5" font-family="Helvetica,sans-Serif" font-size="10.00" fill="#000000">density.cpp</text>
</a>
</g>
</g>
<!-- Node11&#45;&gt;Node12 -->
<g id="edge4" class="edge">
<title>Node11&#45;&gt;Node12</title>
<path fill="none" stroke="#191970" d="M649.8495,-102.187C649.7758,-87.3944 652.3287,-67.7787 664.5,-56 699.3891,-22.2364 845.8042,-13.2117 912.7897,-10.834"/>
<polygon fill="#191970" stroke="#191970" points="646.3605,-102.5148 650.302,-112.3491 653.3536,-102.2033 646.3605,-102.5148"/>
</g>
<!-- Node11&#45;&gt;Node13 -->
<g id="edge5" class="edge">
<title>Node11&#45;&gt;Node13</title>
<path fill="none" stroke="#191970" d="M590.7267,-111.9801C424.6713,-90.446 380.8031,-93.9727 218.5,-76 203.0577,-74.29 185.9665,-72.1829 171.5595,-70.3445"/>
<polygon fill="#191970" stroke="#191970" points="590.4282,-115.4708 600.7977,-113.2973 591.336,-108.5299 590.4282,-115.4708"/>
</g>
<!-- Node15 -->
<g id="node8" class="node">
<title>Node15</title>
<g id="a_node8"><a xlink:href="icns__advection_8_h.html" target="_top" xlink:title="icns_advection.H">
<polygon fill="#ffffff" stroke="#000000" points="444.5,-56.5 444.5,-75.5 536.5,-75.5 536.5,-56.5 444.5,-56.5"/>
<text text-anchor="middle" x="490.5" y="-63.5" font-family="Helvetica,sans-Serif" font-size="10.00" fill="#000000">icns_advection.H</text>
</a>
</g>
</g>
<!-- Node11&#45;&gt;Node15 -->
<g id="edge7" class="edge">
<title>Node11&#45;&gt;Node15</title>
<path fill="none" stroke="#191970" d="M614.2889,-109.057C584.8241,-98.8084 544.3459,-84.729 517.8157,-75.5011"/>
<polygon fill="#191970" stroke="#191970" points="613.2283,-112.3937 623.8231,-112.3733 615.528,-105.7822 613.2283,-112.3937"/>
</g>
<!-- Node17 -->
<g id="node10" class="node">
<title>Node17</title>
<g id="a_node10"><a xlink:href="levelset_8cpp.html" target="_top" xlink:title="levelset.cpp">
<polygon fill="#ffffff" stroke="#000000" points="998,-.5 998,-19.5 1067,-19.5 1067,-.5 998,-.5"/>
<text text-anchor="middle" x="1032.5" y="-7.5" font-family="Helvetica,sans-Serif" font-size="10.00" fill="#000000">levelset.cpp</text>
</a>
</g>
</g>
<!-- Node11&#45;&gt;Node17 -->
<g id="edge10" class="edge">
<title>Node11&#45;&gt;Node17</title>
<path fill="none" stroke="#191970" d="M659.5356,-103.2685C667.1919,-87.8665 680.2622,-66.8712 698.5,-56 810.4409,10.726 861.1892,-42.7912 989.5,-20 992.2167,-19.5174 995.0197,-18.9729 997.8309,-18.3932"/>
<polygon fill="#191970" stroke="#191970" points="656.3235,-101.8755 655.2861,-112.4194 662.6724,-104.8237 656.3235,-101.8755"/>
</g>
<!-- Node18 -->
<g id="node11" class="node">
<title>Node18</title>
<g id="a_node11"><a xlink:href="_s_d_r_8cpp.html" target="_top" xlink:title="SDR.cpp">
<polygon fill="#ffffff" stroke="#000000" points="812,-56.5 812,-75.5 869,-75.5 869,-56.5 812,-56.5"/>
<text text-anchor="middle" x="840.5" y="-63.5" font-family="Helvetica,sans-Serif" font-size="10.00" fill="#000000">SDR.cpp</text>
</a>
</g>
</g>
<!-- Node11&#45;&gt;Node18 -->
<g id="edge11" class="edge">
<title>Node11&#45;&gt;Node18</title>
<path fill="none" stroke="#191970" d="M693.7167,-109.4914C729.6881,-98.8331 780.4088,-83.8048 811.8311,-74.4945"/>
<polygon fill="#191970" stroke="#191970" points="692.5839,-106.1765 683.9903,-112.3733 694.5726,-112.8881 692.5839,-106.1765"/>
</g>
<!-- Node19 -->
<g id="node12" class="node">
<title>Node19</title>
<g id="a_node12"><a xlink:href="temperature_8cpp.html" target="_top" xlink:title="temperature.cpp">
<polygon fill="#ffffff" stroke="#000000" points="707,-56.5 707,-75.5 794,-75.5 794,-56.5 707,-56.5"/>
<text text-anchor="middle" x="750.5" y="-63.5" font-family="Helvetica,sans-Serif" font-size="10.00" fill="#000000">temperature.cpp</text>
</a>
</g>
</g>
<!-- Node11&#45;&gt;Node19 -->
<g id="edge12" class="edge">
<title>Node11&#45;&gt;Node19</title>
<path fill="none" stroke="#191970" d="M677.9357,-107.0465C695.5508,-97.0824 718.1847,-84.2794 733.4531,-75.6427"/>
<polygon fill="#191970" stroke="#191970" points="675.7253,-104.2756 668.7445,-112.2455 679.1717,-110.3684 675.7253,-104.2756"/>
</g>
<!-- Node20 -->
<g id="node13" class="node">
<title>Node20</title>
<g id="a_node13"><a xlink:href="_t_k_e_8cpp.html" target="_top" xlink:title="TKE.cpp">
<polygon fill="#ffffff" stroke="#000000" points="887,-56.5 887,-75.5 942,-75.5 942,-56.5 887,-56.5"/>
<text text-anchor="middle" x="914.5" y="-63.5" font-family="Helvetica,sans-Serif" font-size="10.00" fill="#000000">TKE.cpp</text>
</a>
</g>
</g>
<!-- Node11&#45;&gt;Node20 -->
<g id="edge13" class="edge">
<title>Node11&#45;&gt;Node20</title>
<path fill="none" stroke="#191970" d="M712.2916,-110.8961C758.1529,-102.2255 822.5178,-89.4296 878.5,-76 881.1492,-75.3645 883.8982,-74.6683 886.6428,-73.9485"/>
<polygon fill="#191970" stroke="#191970" points="711.396,-107.5031 702.2152,-112.7911 712.6898,-114.3825 711.396,-107.5031"/>
</g>
<!-- Node14 -->
<g id="node7" class="node">
<title>Node14</title>
<g id="a_node7"><a xlink:href="icns_8cpp.html" target="_top" xlink:title="icns.cpp">
<polygon fill="#ffffff" stroke="#000000" points="173,-.5 173,-19.5 226,-19.5 226,-.5 173,-.5"/>
<text text-anchor="middle" x="199.5" y="-7.5" font-family="Helvetica,sans-Serif" font-size="10.00" fill="#000000">icns.cpp</text>
</a>
</g>
</g>
<!-- Node13&#45;&gt;Node14 -->
<g id="edge6" class="edge">
<title>Node13&#45;&gt;Node14</title>
<path fill="none" stroke="#191970" d="M156.6249,-49.3607C167.178,-39.6727 180.1112,-27.7995 188.9964,-19.6427"/>
<polygon fill="#191970" stroke="#191970" points="154.125,-46.9045 149.1254,-56.2455 158.8589,-52.0611 154.125,-46.9045"/>
</g>
<!-- Node15&#45;&gt;Node14 -->
<g id="edge8" class="edge">
<title>Node15&#45;&gt;Node14</title>
<path fill="none" stroke="#191970" d="M434.2903,-55.183C371.726,-43.1431 273.2512,-24.1927 226.2252,-15.143"/>
<polygon fill="#191970" stroke="#191970" points="433.9089,-58.6738 444.3902,-57.1266 435.2318,-51.7999 433.9089,-58.6738"/>
</g>
<!-- Node16 -->
<g id="node9" class="node">
<title>Node16</title>
<g id="a_node9"><a xlink:href="icns__advection_8cpp.html" target="_top" xlink:title="icns_advection.cpp">
<polygon fill="#ffffff" stroke="#000000" points="440,-.5 440,-19.5 541,-19.5 541,-.5 440,-.5"/>
<text text-anchor="middle" x="490.5" y="-7.5" font-family="Helvetica,sans-Serif" font-size="10.00" fill="#000000">icns_advection.cpp</text>
</a>
</g>
</g>
<!-- Node15&#45;&gt;Node16 -->
<g id="edge9" class="edge">
<title>Node15&#45;&gt;Node16</title>
<path fill="none" stroke="#191970" d="M490.5,-46.1575C490.5,-37.155 490.5,-26.9199 490.5,-19.6427"/>
<polygon fill="#191970" stroke="#191970" points="487.0001,-46.2455 490.5,-56.2455 494.0001,-46.2456 487.0001,-46.2455"/>
</g>
<!-- Node21&#45;&gt;Node12 -->
<g id="edge15" class="edge">
<title>Node21&#45;&gt;Node12</title>
<path fill="none" stroke="#191970" d="M561.4827,-106.2454C582.0737,-90.8697 615.7051,-68.0799 648.5,-56 696.6399,-38.2678 845.7477,-20.7237 912.9976,-13.4739"/>
<polygon fill="#191970" stroke="#191970" points="559.3311,-103.4845 553.4968,-112.3283 563.5728,-109.0531 559.3311,-103.4845"/>
</g>
<!-- Node21&#45;&gt;Node13 -->
<g id="edge16" class="edge">
<title>Node21&#45;&gt;Node13</title>
<path fill="none" stroke="#191970" d="M489.7968,-114.8154C405.699,-103.1294 241.6361,-80.3316 171.5393,-70.5911"/>
<polygon fill="#191970" stroke="#191970" points="489.5032,-118.3082 499.8898,-116.2179 490.4667,-111.3748 489.5032,-118.3082"/>
</g>
<!-- Node21&#45;&gt;Node15 -->
<g id="edge17" class="edge">
<title>Node21&#45;&gt;Node15</title>
<path fill="none" stroke="#191970" d="M525.8251,-104.7884C517.1006,-95.2085 506.5646,-83.6396 499.2817,-75.6427"/>
<polygon fill="#191970" stroke="#191970" points="523.2954,-107.2088 532.6165,-112.2455 528.4709,-102.4954 523.2954,-107.2088"/>
</g>
<!-- Node21&#45;&gt;Node17 -->
<g id="edge18" class="edge">
<title>Node21&#45;&gt;Node17</title>
<path fill="none" stroke="#191970" d="M567.674,-107.4246C599.4783,-89.9621 651.4898,-62.2672 672.5,-56 808.3782,-15.4687 849.7685,-44.0993 989.5,-20 992.2191,-19.531 995.0237,-18.9962 997.8362,-18.4234"/>
<polygon fill="#191970" stroke="#191970" points="565.5745,-104.5854 558.5091,-112.4804 568.9558,-110.7147 565.5745,-104.5854"/>
</g>
<!-- Node21&#45;&gt;Node18 -->
<g id="edge19" class="edge">
<title>Node21&#45;&gt;Node18</title>
<path fill="none" stroke="#191970" d="M593.1586,-111.7417C687.1928,-94.7258 713.251,-95.8108 803.5,-76 806.2297,-75.4008 809.0597,-74.729 811.8835,-74.0247"/>
<polygon fill="#191970" stroke="#191970" points="592.4305,-108.3167 583.2243,-113.5605 593.6912,-115.2023 592.4305,-108.3167"/>
</g>
<!-- Node21&#45;&gt;Node19 -->
<g id="edge20" class="edge">
<title>Node21&#45;&gt;Node19</title>
<path fill="none" stroke="#191970" d="M587.3311,-109.7199C625.7613,-99.4228 679.852,-84.9296 715.0405,-75.5011"/>
<polygon fill="#191970" stroke="#191970" points="586.1818,-106.4043 577.4284,-112.3733 587.9935,-113.1658 586.1818,-106.4043"/>
</g>
<!-- Node21&#45;&gt;Node20 -->
<g id="edge21" class="edge">
<title>Node21&#45;&gt;Node20</title>
<path fill="none" stroke="#191970" d="M593.306,-111.806C720.1798,-91.8601 755.6536,-100.6293 878.5,-76 881.1712,-75.4644 883.935,-74.8355 886.6889,-74.1581"/>
<polygon fill="#191970" stroke="#191970" points="592.5213,-108.387 583.2007,-113.4244 593.6284,-115.2989 592.5213,-108.387"/>
</g>
<!-- Node22&#45;&gt;Node12 -->
<g id="edge23" class="edge">
<title>Node22&#45;&gt;Node12</title>
<path fill="none" stroke="#191970" d="M932.2169,-105.1796C939.7403,-97.1773 947.5564,-86.9659 951.5,-76 958.3441,-56.9688 953.4143,-32.9102 949.6648,-19.7321"/>
<polygon fill="#191970" stroke="#191970" points="929.5807,-102.8646 924.9453,-112.3916 934.5101,-107.8347 929.5807,-102.8646"/>
</g>
<!-- Node22&#45;&gt;Node17 -->
<g id="edge26" class="edge">
<title>Node22&#45;&gt;Node17</title>
<path fill="none" stroke="#191970" d="M932.9544,-105.6864C943.1041,-97.0329 955.6362,-86.1227 966.5,-76 987.3657,-56.5575 1010.7364,-32.6531 1023.3054,-19.6116"/>
<polygon fill="#191970" stroke="#191970" points="930.4465,-103.2238 925.0779,-112.3578 934.9707,-108.5653 930.4465,-103.2238"/>
</g>
<!-- Node22&#45;&gt;Node18 -->
<g id="edge27" class="edge">
<title>Node22&#45;&gt;Node18</title>
<path fill="none" stroke="#191970" d="M892.549,-105.928C879.7893,-96.1397 863.9115,-83.9595 853.0699,-75.6427"/>
<polygon fill="#191970" stroke="#191970" points="890.7197,-108.9359 900.7844,-112.2455 894.9804,-103.3819 890.7197,-108.9359"/>
</g>
<!-- Node22&#45;&gt;Node19 -->
<g id="edge28" class="edge">
<title>Node22&#45;&gt;Node19</title>
<path fill="none" stroke="#191970" d="M875.8267,-109.057C845.9958,-98.8084 805.0148,-84.729 778.1551,-75.5011"/>
<polygon fill="#191970" stroke="#191970" points="874.8846,-112.4341 885.4793,-112.3733 877.1591,-105.8139 874.8846,-112.4341"/>
</g>
<!-- Node22&#45;&gt;Node20 -->
<g id="edge29" class="edge">
<title>Node22&#45;&gt;Node20</title>
<path fill="none" stroke="#191970" d="M913.8543,-102.1575C914.0151,-93.155 914.1979,-82.9199 914.3278,-75.6427"/>
<polygon fill="#191970" stroke="#191970" points="910.3534,-102.1846 913.6742,-112.2455 917.3523,-102.3097 910.3534,-102.1846"/>
</g>
<!-- Node23 -->
<g id="node16" class="node">
<title>Node23</title>
<g id="a_node16"><a xlink:href="icns__bcop_8_h.html" target="_top" xlink:title="icns_bcop.H">
<polygon fill="#ffffff" stroke="#000000" points="355,-56.5 355,-75.5 426,-75.5 426,-56.5 355,-56.5"/>
<text text-anchor="middle" x="390.5" y="-63.5" font-family="Helvetica,sans-Serif" font-size="10.00" fill="#000000">icns_bcop.H</text>
</a>
</g>
</g>
<!-- Node22&#45;&gt;Node23 -->
<g id="edge24" class="edge">
<title>Node22&#45;&gt;Node23</title>
<path fill="none" stroke="#191970" d="M873.8172,-111.9593C680.3167,-79.7681 626.2806,-104.8635 435.5,-76 432.493,-75.5451 429.3873,-75.0049 426.2783,-74.4147"/>
<polygon fill="#191970" stroke="#191970" points="873.2936,-115.4204 883.7377,-113.6391 874.4624,-108.5186 873.2936,-115.4204"/>
</g>
<!-- Node23&#45;&gt;Node14 -->
<g id="edge25" class="edge">
<title>Node23&#45;&gt;Node14</title>
<path fill="none" stroke="#191970" d="M347.5958,-53.4208C310.3237,-42.4928 257.5183,-27.0106 226.0664,-17.7891"/>
<polygon fill="#191970" stroke="#191970" points="347.0851,-56.9183 357.6659,-56.3733 349.0546,-50.2011 347.0851,-56.9183"/>
</g>
<!-- Node24&#45;&gt;Node25 -->
<g id="edge31" class="edge">
<title>Node24&#45;&gt;Node25</title>
<path fill="none" stroke="#191970" d="M802.5,-214.1575C802.5,-205.155 802.5,-194.9199 802.5,-187.6427"/>
<polygon fill="#191970" stroke="#191970" points="799.0001,-214.2455 802.5,-224.2455 806.0001,-214.2456 799.0001,-214.2455"/>
</g>
<!-- Node26 -->
<g id="node19" class="node">
<title>Node26</title>
<g id="a_node19"><a xlink:href="density_8_h.html" target="_top" xlink:title="density.H">
<polygon fill="#ffffff" stroke="#000000" points="961,-112.5 961,-131.5 1020,-131.5 1020,-112.5 961,-112.5"/>
<text text-anchor="middle" x="990.5" y="-119.5" font-family="Helvetica,sans-Serif" font-size="10.00" fill="#000000">density.H</text>
</a>
</g>
</g>
<!-- Node25&#45;&gt;Node26 -->
<g id="edge32" class="edge">
<title>Node25&#45;&gt;Node26</title>
<path fill="none" stroke="#191970" d="M836.5906,-167.8454C872.0734,-157.276 927.0817,-140.8906 960.8292,-130.8381"/>
<polygon fill="#191970" stroke="#191970" points="835.2775,-164.5844 826.6928,-170.7936 837.2759,-171.2931 835.2775,-164.5844"/>
</g>
<!-- Node28 -->
<g id="node21" class="node">
<title>Node28</title>
<g id="a_node21"><a xlink:href="icns_8_h.html" target="_top" xlink:title="icns.H">
<polygon fill="#ffffff" stroke="#000000" points="260,-112.5 260,-131.5 305,-131.5 305,-112.5 260,-112.5"/>
<text text-anchor="middle" x="282.5" y="-119.5" font-family="Helvetica,sans-Serif" font-size="10.00" fill="#000000">icns.H</text>
</a>
</g>
</g>
<!-- Node25&#45;&gt;Node28 -->
<g id="edge36" class="edge">
<title>Node25&#45;&gt;Node28</title>
<path fill="none" stroke="#191970" d="M768.4629,-174.3345C670.0943,-163.7409 387.2223,-133.2778 305.1035,-124.4342"/>
<polygon fill="#191970" stroke="#191970" points="768.1449,-177.8204 778.4622,-175.4113 768.8945,-170.8606 768.1449,-177.8204"/>
</g>
<!-- Node31 -->
<g id="node24" class="node">
<title>Node31</title>
<g id="a_node24"><a xlink:href="levelset_8_h.html" target="_top" xlink:title="levelset.H">
<polygon fill="#ffffff" stroke="#000000" points="1038,-112.5 1038,-131.5 1099,-131.5 1099,-112.5 1038,-112.5"/>
<text text-anchor="middle" x="1068.5" y="-119.5" font-family="Helvetica,sans-Serif" font-size="10.00" fill="#000000">levelset.H</text>
</a>
</g>
</g>
<!-- Node25&#45;&gt;Node31 -->
<g id="edge44" class="edge">
<title>Node25&#45;&gt;Node31</title>
<path fill="none" stroke="#191970" d="M836.7794,-171.6189C881.3279,-163.1968 961.4673,-147.6046 1029.5,-132 1032.2252,-131.3749 1035.0509,-130.701 1037.8792,-130.0089"/>
<polygon fill="#191970" stroke="#191970" points="835.9556,-168.2124 826.776,-173.5025 837.251,-175.0915 835.9556,-168.2124"/>
</g>
<!-- Node33 -->
<g id="node26" class="node">
<title>Node33</title>
<g id="a_node26"><a xlink:href="_s_d_r_8_h.html" target="_top" xlink:title="SDR.H">
<polygon fill="#ffffff" stroke="#000000" points="817,-112.5 817,-131.5 866,-131.5 866,-112.5 817,-112.5"/>
<text text-anchor="middle" x="841.5" y="-119.5" font-family="Helvetica,sans-Serif" font-size="10.00" fill="#000000">SDR.H</text>
</a>
</g>
</g>
<!-- Node25&#45;&gt;Node33 -->
<g id="edge48" class="edge">
<title>Node25&#45;&gt;Node33</title>
<path fill="none" stroke="#191970" d="M815.0908,-159.9209C821.6395,-150.5176 829.3824,-139.3997 834.7846,-131.6427"/>
<polygon fill="#191970" stroke="#191970" points="812.1361,-158.0392 809.2933,-168.2455 817.8804,-162.0397 812.1361,-158.0392"/>
</g>
<!-- Node34 -->
<g id="node27" class="node">
<title>Node34</title>
<g id="a_node27"><a xlink:href="temperature_8_h.html" target="_top" xlink:title="temperature.H">
<polygon fill="#ffffff" stroke="#000000" points="720,-112.5 720,-131.5 799,-131.5 799,-112.5 720,-112.5"/>
<text text-anchor="middle" x="759.5" y="-119.5" font-family="Helvetica,sans-Serif" font-size="10.00" fill="#000000">temperature.H</text>
</a>
</g>
</g>
<!-- Node25&#45;&gt;Node34 -->
<g id="edge50" class="edge">
<title>Node25&#45;&gt;Node34</title>
<path fill="none" stroke="#191970" d="M788.8408,-160.2112C781.5737,-150.7472 772.9219,-139.4797 766.9042,-131.6427"/>
<polygon fill="#191970" stroke="#191970" points="786.1436,-162.4456 795.01,-168.2455 791.6957,-158.1824 786.1436,-162.4456"/>
</g>
<!-- Node35 -->
<g id="node28" class="node">
<title>Node35</title>
<g id="a_node28"><a xlink:href="_t_k_e_8_h.html" target="_top" xlink:title="TKE.H">
<polygon fill="#ffffff" stroke="#000000" points="1117,-112.5 1117,-131.5 1164,-131.5 1164,-112.5 1117,-112.5"/>
<text text-anchor="middle" x="1140.5" y="-119.5" font-family="Helvetica,sans-Serif" font-size="10.00" fill="#000000">TKE.H</text>
</a>
</g>
</g>
<!-- Node25&#45;&gt;Node35 -->
<g id="edge52" class="edge">
<title>Node25&#45;&gt;Node35</title>
<path fill="none" stroke="#191970" d="M836.7715,-174.5874C893.6949,-168.5323 1011.1132,-154.3968 1108.5,-132 1111.2228,-131.3738 1114.0495,-130.6309 1116.8455,-129.837"/>
<polygon fill="#191970" stroke="#191970" points="836.1225,-171.1361 826.5409,-175.6575 836.8507,-178.0981 836.1225,-171.1361"/>
</g>
<!-- Node26&#45;&gt;Node12 -->
<g id="edge33" class="edge">
<title>Node26&#45;&gt;Node12</title>
<path fill="none" stroke="#191970" d="M1030.0058,-111.0665C1067.7326,-100.2297 1119.6959,-84.1095 1125.5,-76 1130.6734,-68.7717 1130.9473,-63.0242 1125.5,-56 1123.2326,-53.0762 1031.2585,-30.4738 980.0592,-18.0763"/>
<polygon fill="#191970" stroke="#191970" points="1028.9359,-107.7319 1020.2759,-113.8357 1030.852,-114.4646 1028.9359,-107.7319"/>
</g>
<!-- Node27 -->
<g id="node20" class="node">
<title>Node27</title>
<g id="a_node20"><a xlink:href="density__ops_8_h.html" target="_top" xlink:title="density_ops.H">
<polygon fill="#ffffff" stroke="#000000" points="1036.5,-56.5 1036.5,-75.5 1116.5,-75.5 1116.5,-56.5 1036.5,-56.5"/>
<text text-anchor="middle" x="1076.5" y="-63.5" font-family="Helvetica,sans-Serif" font-size="10.00" fill="#000000">density_ops.H</text>
</a>
</g>
</g>
<!-- Node26&#45;&gt;Node27 -->
<g id="edge34" class="edge">
<title>Node26&#45;&gt;Node27</title>
<path fill="none" stroke="#191970" d="M1013.8905,-106.769C1029.1299,-96.8456 1048.5509,-84.1994 1061.6916,-75.6427"/>
<polygon fill="#191970" stroke="#191970" points="1011.9502,-103.8558 1005.4801,-112.2455 1015.7699,-109.7218 1011.9502,-103.8558"/>
</g>
<!-- Node27&#45;&gt;Node12 -->
<g id="edge35" class="edge">
<title>Node27&#45;&gt;Node12</title>
<path fill="none" stroke="#191970" d="M1044.8898,-52.3833C1021.2465,-42.1985 989.5124,-28.5284 968.5562,-19.5011"/>
<polygon fill="#191970" stroke="#191970" points="1043.5834,-55.6314 1054.1522,-56.3733 1046.3528,-49.2025 1043.5834,-55.6314"/>
</g>
<!-- Node28&#45;&gt;Node13 -->
<g id="edge38" class="edge">
<title>Node28&#45;&gt;Node13</title>
<path fill="none" stroke="#191970" d="M250.1357,-109.4139C223.7863,-99.1669 187.1489,-84.919 163.1394,-75.582"/>
<polygon fill="#191970" stroke="#191970" points="249.0941,-112.7641 259.6828,-113.1266 251.6313,-106.2401 249.0941,-112.7641"/>
</g>
<!-- Node28&#45;&gt;Node14 -->
<g id="edge37" class="edge">
<title>Node28&#45;&gt;Node14</title>
<path fill="none" stroke="#191970" d="M253.9149,-107.228C241.4181,-99.4641 227.571,-88.8701 218.5,-76 206.2728,-58.6518 201.8633,-33.5201 200.3114,-19.816"/>
<polygon fill="#191970" stroke="#191970" points="252.2917,-110.3335 262.6883,-112.3732 255.8328,-104.2952 252.2917,-110.3335"/>
</g>
<!-- Node28&#45;&gt;Node15 -->
<g id="edge39" class="edge">
<title>Node28&#45;&gt;Node15</title>
<path fill="none" stroke="#191970" d="M315.1975,-113.1968C353.2508,-102.9517 415.8634,-86.0945 455.0545,-75.543"/>
<polygon fill="#191970" stroke="#191970" points="313.9018,-109.921 305.1556,-115.9004 315.7217,-116.6803 313.9018,-109.921"/>
</g>
<!-- Node28&#45;&gt;Node23 -->
<g id="edge42" class="edge">
<title>Node28&#45;&gt;Node23</title>
<path fill="none" stroke="#191970" d="M310.2771,-107.5971C329.6382,-97.558 354.9385,-84.4393 371.9034,-75.6427"/>
<polygon fill="#191970" stroke="#191970" points="308.5786,-104.5352 301.3122,-112.2455 311.8008,-110.7495 308.5786,-104.5352"/>
</g>
<!-- Node28&#45;&gt;Node29 -->
<g id="edge40" class="edge">
<title>Node28&#45;&gt;Node29</title>
<path fill="none" stroke="#191970" d="M249.6137,-114.2944C206.4872,-104.1895 130.8409,-86.4648 84.1658,-75.5284"/>
<polygon fill="#191970" stroke="#191970" points="249.0489,-117.7568 259.5837,-116.6305 250.6459,-110.9414 249.0489,-117.7568"/>
</g>
<!-- Node30 -->
<g id="node23" class="node">
<title>Node30</title>
<g id="a_node23"><a xlink:href="_power_law_profile_8cpp.html" target="_top" xlink:title="PowerLawProfile.cpp">
<polygon fill="#ffffff" stroke="#000000" points="228,-56.5 228,-75.5 337,-75.5 337,-56.5 228,-56.5"/>
<text text-anchor="middle" x="282.5" y="-63.5" font-family="Helvetica,sans-Serif" font-size="10.00" fill="#000000">PowerLawProfile.cpp</text>
</a>
</g>
</g>
<!-- Node28&#45;&gt;Node30 -->
<g id="edge43" class="edge">
<title>Node28&#45;&gt;Node30</title>
<path fill="none" stroke="#191970" d="M282.5,-102.1575C282.5,-93.155 282.5,-82.9199 282.5,-75.6427"/>
<polygon fill="#191970" stroke="#191970" points="279.0001,-102.2455 282.5,-112.2455 286.0001,-102.2456 279.0001,-102.2455"/>
</g>
<!-- Node29&#45;&gt;Node14 -->
<g id="edge41" class="edge">
<title>Node29&#45;&gt;Node14</title>
<path fill="none" stroke="#191970" d="M79.9284,-52.9231C108.4461,-42.686 147.4381,-28.6889 173.0326,-19.5011"/>
<polygon fill="#191970" stroke="#191970" points="78.5468,-49.7004 70.3174,-56.3733 80.9119,-56.2887 78.5468,-49.7004"/>
</g>
<!-- Node31&#45;&gt;Node17 -->
<g id="edge45" class="edge">
<title>Node31&#45;&gt;Node17</title>
<path fill="none" stroke="#191970" d="M1109.2197,-112.0879C1190.0942,-96.1658 1308.0558,-110.3032 1263.5,-56 1239.0535,-26.2053 1125.3649,-15.3477 1067.1115,-11.6934"/>
<polygon fill="#191970" stroke="#191970" points="1108.0863,-108.7528 1099.0619,-114.3035 1109.5781,-115.592 1108.0863,-108.7528"/>
</g>
<!-- Node32 -->
<g id="node25" class="node">
<title>Node32</title>
<g id="a_node25"><a xlink:href="levelset__ops_8_h.html" target="_top" xlink:title="levelset_ops.H">
<polygon fill="#ffffff" stroke="#000000" points="1172.5,-56.5 1172.5,-75.5 1254.5,-75.5 1254.5,-56.5 1172.5,-56.5"/>
<text text-anchor="middle" x="1213.5" y="-63.5" font-family="Helvetica,sans-Serif" font-size="10.00" fill="#000000">levelset_ops.H</text>
</a>
</g>
</g>
<!-- Node31&#45;&gt;Node32 -->
<g id="edge46" class="edge">
<title>Node31&#45;&gt;Node32</title>
<path fill="none" stroke="#191970" d="M1103.0565,-108.6541C1129.4986,-98.4419 1165.3169,-84.6086 1188.8989,-75.5011"/>
<polygon fill="#191970" stroke="#191970" points="1101.4939,-105.5055 1093.4264,-112.3733 1104.0158,-112.0354 1101.4939,-105.5055"/>
</g>
<!-- Node32&#45;&gt;Node17 -->
<g id="edge47" class="edge">
<title>Node32&#45;&gt;Node17</title>
<path fill="none" stroke="#191970" d="M1172.5278,-53.3235C1139.3339,-43.0536 1093.2942,-28.8093 1063.209,-19.5011"/>
<polygon fill="#191970" stroke="#191970" points="1171.7973,-56.7611 1182.385,-56.3733 1173.8663,-50.0739 1171.7973,-56.7611"/>
</g>
<!-- Node33&#45;&gt;Node18 -->
<g id="edge49" class="edge">
<title>Node33&#45;&gt;Node18</title>
<path fill="none" stroke="#191970" d="M841.1457,-102.1575C840.9849,-93.155 840.8021,-82.9199 840.6722,-75.6427"/>
<polygon fill="#191970" stroke="#191970" points="837.6477,-102.3097 841.3258,-112.2455 844.6466,-102.1846 837.6477,-102.3097"/>
</g>
<!-- Node34&#45;&gt;Node19 -->
<g id="edge51" class="edge">
<title>Node34&#45;&gt;Node19</title>
<path fill="none" stroke="#191970" d="M756.311,-102.1575C754.8642,-93.155 753.2193,-82.9199 752.0497,-75.6427"/>
<polygon fill="#191970" stroke="#191970" points="752.8898,-102.9276 757.9323,-112.2455 759.8011,-101.8168 752.8898,-102.9276"/>
</g>
<!-- Node35&#45;&gt;Node20 -->
<g id="edge53" class="edge">
<title>Node35&#45;&gt;Node20</title>
<path fill="none" stroke="#191970" d="M1106.9542,-111.6964C1043.0237,-94.3616 978.2407,-79.7786 942.2835,-71.9453"/>
<polygon fill="#191970" stroke="#191970" points="1106.2198,-115.124 1116.7889,-114.3872 1108.0671,-108.3722 1106.2198,-115.124"/>
</g>
<!-- Node36 -->
<g id="node29" class="node">
<title>Node36</title>
<g id="a_node29"><a xlink:href="_one_eq_ksgs_8cpp.html" target="_top" xlink:title="OneEqKsgs.cpp">
<polygon fill="#ffffff" stroke="#000000" points="1485.5,-56.5 1485.5,-75.5 1573.5,-75.5 1573.5,-56.5 1485.5,-56.5"/>
<text text-anchor="middle" x="1529.5" y="-63.5" font-family="Helvetica,sans-Serif" font-size="10.00" fill="#000000">OneEqKsgs.cpp</text>
</a>
</g>
</g>
<!-- Node35&#45;&gt;Node36 -->
<g id="edge54" class="edge">
<title>Node35&#45;&gt;Node36</title>
<path fill="none" stroke="#191970" d="M1174.0599,-112.2013C1291.6297,-87.4877 1419.3977,-74.8389 1485.2568,-69.3439"/>
<polygon fill="#191970" stroke="#191970" points="1173.2181,-108.8021 1164.1701,-114.3143 1174.6807,-115.6476 1173.2181,-108.8021"/>
</g>
<!-- Node37&#45;&gt;Node13 -->
<g id="edge59" class="edge">
<title>Node37&#45;&gt;Node13</title>
<path fill="none" stroke="#191970" d="M392.7979,-219.1256C336.709,-185.3516 201.0059,-103.638 154.4722,-75.6177"/>
<polygon fill="#191970" stroke="#191970" points="391.3281,-222.3261 401.7004,-224.4862 394.939,-216.3293 391.3281,-222.3261"/>
</g>
<!-- Node37&#45;&gt;Node25 -->
<g id="edge57" class="edge">
<title>Node37&#45;&gt;Node25</title>
<path fill="none" stroke="#191970" d="M469.9269,-226.3743C554.1959,-214.117 716.5494,-190.5019 778.0655,-181.5541"/>
<polygon fill="#191970" stroke="#191970" points="469.1951,-222.9438 459.803,-227.8468 470.2027,-229.8709 469.1951,-222.9438"/>
</g>
<!-- Node37&#45;&gt;Node29 -->
<g id="edge60" class="edge">
<title>Node37&#45;&gt;Node29</title>
<path fill="none" stroke="#191970" d="M385.6504,-220.5301C364.3292,-211.4583 335.6671,-199.1578 310.5,-188 218.2511,-147.1014 108.9788,-96.4868 64.2,-75.6513"/>
<polygon fill="#191970" stroke="#191970" points="384.3187,-223.7671 394.8912,-224.4554 387.0555,-217.3242 384.3187,-223.7671"/>
</g>
<!-- Node38 -->
<g id="node31" class="node">
<title>Node38</title>
<g id="a_node31"><a xlink:href="_diffusion_ops_8cpp.html" target="_top" xlink:title="DiffusionOps.cpp">
<polygon fill="#ffffff" stroke="#000000" points="371.5,-168.5 371.5,-187.5 463.5,-187.5 463.5,-168.5 371.5,-168.5"/>
<text text-anchor="middle" x="417.5" y="-175.5" font-family="Helvetica,sans-Serif" font-size="10.00" fill="#000000">DiffusionOps.cpp</text>
</a>
</g>
</g>
<!-- Node37&#45;&gt;Node38 -->
<g id="edge58" class="edge">
<title>Node37&#45;&gt;Node38</title>
<path fill="none" stroke="#191970" d="M417.5,-214.1575C417.5,-205.155 417.5,-194.9199 417.5,-187.6427"/>
<polygon fill="#191970" stroke="#191970" points="414.0001,-214.2455 417.5,-224.2455 421.0001,-214.2456 414.0001,-214.2455"/>
</g>
<!-- Node42 -->
<g id="node35" class="node">
<title>Node42</title>
<g id="a_node35"><a xlink:href="_laminar_model_8_h.html" target="_top" xlink:title="LaminarModel.H">
<polygon fill="#ffffff" stroke="#000000" points="1188.5,-168.5 1188.5,-187.5 1276.5,-187.5 1276.5,-168.5 1188.5,-168.5"/>
<text text-anchor="middle" x="1232.5" y="-175.5" font-family="Helvetica,sans-Serif" font-size="10.00" fill="#000000">LaminarModel.H</text>
</a>
</g>
</g>
<!-- Node41&#45;&gt;Node42 -->
<g id="edge66" class="edge">
<title>Node41&#45;&gt;Node42</title>
<path fill="none" stroke="#191970" d="M1306.8534,-274.1199C1296.0234,-265.8771 1283.3137,-255.2005 1273.5,-244 1257.6767,-225.9405 1244.0358,-201.0867 1237.1924,-187.6179"/>
<polygon fill="#191970" stroke="#191970" points="1304.922,-277.0446 1315.0446,-280.1723 1309.0818,-271.4147 1304.922,-277.0446"/>
</g>
<!-- Node45 -->
<g id="node38" class="node">
<title>Node45</title>
<g id="a_node38"><a xlink:href="_turb_model_base_8_h.html" target="_top" xlink:title="TurbModelBase.H">
<polygon fill="#ffffff" stroke="#000000" points="1282,-224.5 1282,-243.5 1377,-243.5 1377,-224.5 1282,-224.5"/>
<text text-anchor="middle" x="1329.5" y="-231.5" font-family="Helvetica,sans-Serif" font-size="10.00" fill="#000000">TurbModelBase.H</text>
</a>
</g>
</g>
<!-- Node41&#45;&gt;Node45 -->
<g id="edge69" class="edge">
<title>Node41&#45;&gt;Node45</title>
<path fill="none" stroke="#191970" d="M1329.5,-270.1575C1329.5,-261.155 1329.5,-250.9199 1329.5,-243.6427"/>
<polygon fill="#191970" stroke="#191970" points="1326.0001,-270.2455 1329.5,-280.2455 1333.0001,-270.2456 1326.0001,-270.2455"/>
</g>
<!-- Node43 -->
<g id="node36" class="node">
<title>Node43</title>
<g id="a_node36"><a xlink:href="_laminar_model_8cpp.html" target="_top" xlink:title="LaminarModel.cpp">
<polygon fill="#ffffff" stroke="#000000" points="1295.5,-112.5 1295.5,-131.5 1391.5,-131.5 1391.5,-112.5 1295.5,-112.5"/>
<text text-anchor="middle" x="1343.5" y="-119.5" font-family="Helvetica,sans-Serif" font-size="10.00" fill="#000000">LaminarModel.cpp</text>
</a>
</g>
</g>
<!-- Node42&#45;&gt;Node43 -->
<g id="edge67" class="edge">
<title>Node42&#45;&gt;Node43</title>
<path fill="none" stroke="#191970" d="M1260.5734,-163.8368C1280.6385,-153.7139 1307.0922,-140.3679 1324.6674,-131.5011"/>
<polygon fill="#191970" stroke="#191970" points="1258.9332,-160.7441 1251.5816,-168.3733 1262.0862,-166.9938 1258.9332,-160.7441"/>
</g>
<!-- Node44 -->
<g id="node37" class="node">
<title>Node44</title>
<g id="a_node37"><a xlink:href="turbulence__utils_8_h.html" target="_top" xlink:title="turbulence_utils.H">
<polygon fill="#ffffff" stroke="#000000" points="1182,-112.5 1182,-131.5 1277,-131.5 1277,-112.5 1182,-112.5"/>
<text text-anchor="middle" x="1229.5" y="-119.5" font-family="Helvetica,sans-Serif" font-size="10.00" fill="#000000">turbulence_utils.H</text>
</a>
</g>
</g>
<!-- Node42&#45;&gt;Node44 -->
<g id="edge68" class="edge">
<title>Node42&#45;&gt;Node44</title>
<path fill="none" stroke="#191970" d="M1231.437,-158.1575C1230.9547,-149.155 1230.4064,-138.9199 1230.0166,-131.6427"/>
<polygon fill="#191970" stroke="#191970" points="1227.9474,-158.4471 1231.9774,-168.2455 1234.9374,-158.0726 1227.9474,-158.4471"/>
</g>
<!-- Node46 -->
<g id="node39" class="node">
<title>Node46</title>
<g id="a_node39"><a xlink:href="_one_eq_ksgs_8_h.html" target="_top" xlink:title="OneEqKsgs.H">
<polygon fill="#ffffff" stroke="#000000" points="1524.5,-168.5 1524.5,-187.5 1604.5,-187.5 1604.5,-168.5 1524.5,-168.5"/>
<text text-anchor="middle" x="1564.5" y="-175.5" font-family="Helvetica,sans-Serif" font-size="10.00" fill="#000000">OneEqKsgs.H</text>
</a>
</g>
</g>
<!-- Node45&#45;&gt;Node46 -->
<g id="edge70" class="edge">
<title>Node45&#45;&gt;Node46</title>
<path fill="none" stroke="#191970" d="M1379.3852,-222.1125C1422.652,-211.8021 1484.4604,-197.0733 1524.5346,-187.5237"/>
<polygon fill="#191970" stroke="#191970" points="1378.5472,-218.7141 1369.6309,-224.4369 1380.1699,-225.5234 1378.5472,-218.7141"/>
</g>
<!-- Node47 -->
<g id="node40" class="node">
<title>Node47</title>
<g id="a_node40"><a xlink:href="_smagorinsky_8_h.html" target="_top" xlink:title="Smagorinsky.H">
<polygon fill="#ffffff" stroke="#000000" points="1294.5,-168.5 1294.5,-187.5 1378.5,-187.5 1378.5,-168.5 1294.5,-168.5"/>
<text text-anchor="middle" x="1336.5" y="-175.5" font-family="Helvetica,sans-Serif" font-size="10.00" fill="#000000">Smagorinsky.H</text>
</a>
</g>
</g>
<!-- Node45&#45;&gt;Node47 -->
<g id="edge72" class="edge">
<title>Node45&#45;&gt;Node47</title>
<path fill="none" stroke="#191970" d="M1331.9803,-214.1575C1333.1056,-205.155 1334.385,-194.9199 1335.2947,-187.6427"/>
<polygon fill="#191970" stroke="#191970" points="1328.4868,-213.8886 1330.7193,-224.2455 1335.4327,-214.7569 1328.4868,-213.8886"/>
</g>
<!-- Node46&#45;&gt;Node36 -->
<g id="edge71" class="edge">
<title>Node46&#45;&gt;Node36</title>
<path fill="none" stroke="#191970" d="M1558.4371,-158.5987C1550.8634,-134.363 1538.2047,-93.8551 1532.4765,-75.5249"/>
<polygon fill="#191970" stroke="#191970" points="1555.1924,-159.9501 1561.5159,-168.4509 1561.8738,-157.8622 1555.1924,-159.9501"/>
</g>
<!-- Node47&#45;&gt;Node44 -->
<g id="edge74" class="edge">
<title>Node47&#45;&gt;Node44</title>
<path fill="none" stroke="#191970" d="M1308.9801,-163.5971C1289.7983,-153.558 1264.7322,-140.4393 1247.9244,-131.6427"/>
<polygon fill="#191970" stroke="#191970" points="1307.3791,-166.7095 1317.862,-168.2455 1310.625,-160.5075 1307.3791,-166.7095"/>
</g>
<!-- Node48 -->
<g id="node41" class="node">
<title>Node48</title>
<g id="a_node41"><a xlink:href="_smagorinsky_8cpp.html" target="_top" xlink:title="Smagorinsky.cpp">
<polygon fill="#ffffff" stroke="#000000" points="1409.5,-112.5 1409.5,-131.5 1501.5,-131.5 1501.5,-112.5 1409.5,-112.5"/>
<text text-anchor="middle" x="1455.5" y="-119.5" font-family="Helvetica,sans-Serif" font-size="10.00" fill="#000000">Smagorinsky.cpp</text>
</a>
</g>
</g>
<!-- Node47&#45;&gt;Node48 -->
<g id="edge73" class="edge">
<title>Node47&#45;&gt;Node48</title>
<path fill="none" stroke="#191970" d="M1366.0144,-164.1109C1387.5938,-153.9559 1416.2976,-140.4482 1435.3101,-131.5011"/>
<polygon fill="#191970" stroke="#191970" points="1364.5147,-160.9484 1356.9568,-168.3733 1367.4953,-167.2821 1364.5147,-160.9484"/>
</g>
<!-- Node49&#45;&gt;Node36 -->
<g id="edge77" class="edge">
<title>Node49&#45;&gt;Node36</title>
<path fill="none" stroke="#191970" d="M1476.2911,-162.9837C1488.3705,-155.1884 1501.7349,-144.6378 1510.5,-132 1522.5957,-114.5599 1527.0566,-89.4641 1528.652,-75.7904"/>
<polygon fill="#191970" stroke="#191970" points="1474.1225,-160.2063 1467.4018,-168.3967 1477.7632,-166.1851 1474.1225,-160.2063"/>
</g>
<!-- Node49&#45;&gt;Node43 -->
<g id="edge76" class="edge">
<title>Node49&#45;&gt;Node43</title>
<path fill="none" stroke="#191970" d="M1421.2375,-163.46C1402.4478,-153.4388 1377.9987,-140.3993 1361.58,-131.6427"/>
<polygon fill="#191970" stroke="#191970" points="1419.7398,-166.6278 1430.2104,-168.2455 1423.0339,-160.4514 1419.7398,-166.6278"/>
</g>
<!-- Node49&#45;&gt;Node48 -->
<g id="edge78" class="edge">
<title>Node49&#45;&gt;Node48</title>
<path fill="none" stroke="#191970" d="M1450.9803,-158.1575C1452.1056,-149.155 1453.385,-138.9199 1454.2947,-131.6427"/>
<polygon fill="#191970" stroke="#191970" points="1447.4868,-157.8886 1449.7193,-168.2455 1454.4327,-158.7569 1447.4868,-157.8886"/>
</g>
</g>
</svg>
