<?xml version="1.0" encoding="UTF-8" standalone="no"?>
<!DOCTYPE svg PUBLIC "-//W3C//DTD SVG 1.1//EN"
 "http://www.w3.org/Graphics/SVG/1.1/DTD/svg11.dtd">
<!-- Generated by graphviz version 2.40.1 (20161225.0304)
 -->
<!-- Title: TurbModel.H Pages: 1 -->
<svg width="2674pt" height="330pt"
 viewBox="0.00 0.00 2673.50 330.00" xmlns="http://www.w3.org/2000/svg" xmlns:xlink="http://www.w3.org/1999/xlink">
<g id="graph0" class="graph" transform="scale(1 1) rotate(0) translate(4 326)">
<title>TurbModel.H</title>
<polygon fill="#ffffff" stroke="transparent" points="-4,4 -4,-326 2669.5,-326 2669.5,4 -4,4"/>
<!-- Node0 -->
<g id="node1" class="node">
<title>Node0</title>
<polygon fill="#bfbfbf" stroke="#000000" points="1996,-302.5 1996,-321.5 2069,-321.5 2069,-302.5 1996,-302.5"/>
<text text-anchor="middle" x="2032.5" y="-309.5" font-family="Helvetica,sans-Serif" font-size="10.00" fill="#000000">TurbModel.H</text>
</g>
<!-- Node1 -->
<g id="node2" class="node">
<title>Node1</title>
<g id="a_node2"><a xlink:href="_turbulence_model_8_h.html" target="_top" xlink:title="amr&#45;wind/turbulence\l/TurbulenceModel.H">
<polygon fill="#ffffff" stroke="#000000" points="2379.5,-123.5 2379.5,-153.5 2483.5,-153.5 2483.5,-123.5 2379.5,-123.5"/>
<text text-anchor="start" x="2387.5" y="-141.5" font-family="Helvetica,sans-Serif" font-size="10.00" fill="#000000">amr&#45;wind/turbulence</text>
<text text-anchor="middle" x="2431.5" y="-130.5" font-family="Helvetica,sans-Serif" font-size="10.00" fill="#000000">/TurbulenceModel.H</text>
</a>
</g>
</g>
<!-- Node0&#45;&gt;Node1 -->
<g id="edge1" class="edge">
<title>Node0&#45;&gt;Node1</title>
<path fill="none" stroke="#191970" d="M2054.5203,-302.4248C2117.9943,-274.8239 2302.2146,-194.7181 2387.376,-157.6867"/>
<polygon fill="#191970" stroke="#191970" points="2388.9935,-160.8001 2396.7683,-153.6026 2386.2021,-154.3807 2388.9935,-160.8001"/>
</g>
<!-- Node9 -->
<g id="node10" class="node">
<title>Node9</title>
<g id="a_node10"><a xlink:href="_c_f_d_sim_8_h.html" target="_top" xlink:title="amr&#45;wind/CFDSim.H">
<polygon fill="#ffffff" stroke="#000000" points="1937.5,-246.5 1937.5,-265.5 2045.5,-265.5 2045.5,-246.5 1937.5,-246.5"/>
<text text-anchor="middle" x="1991.5" y="-253.5" font-family="Helvetica,sans-Serif" font-size="10.00" fill="#000000">amr&#45;wind/CFDSim.H</text>
</a>
</g>
</g>
<!-- Node0&#45;&gt;Node9 -->
<g id="edge10" class="edge">
<title>Node0&#45;&gt;Node9</title>
<path fill="none" stroke="#191970" d="M2025.3583,-302.2455C2019.6556,-294.4564 2011.51,-283.3308 2004.6375,-273.9439"/>
<polygon fill="#191970" stroke="#191970" points="2007.2913,-271.6437 1998.5598,-265.6427 2001.6432,-275.7789 2007.2913,-271.6437"/>
</g>
<!-- Node2 -->
<g id="node3" class="node">
<title>Node2</title>
<polygon fill="#ffffff" stroke="#bfbfbf" points="2109,-.5 2109,-19.5 2192,-19.5 2192,-.5 2109,-.5"/>
<text text-anchor="middle" x="2150.5" y="-7.5" font-family="Helvetica,sans-Serif" font-size="10.00" fill="#000000">unordered_map</text>
</g>
<!-- Node1&#45;&gt;Node2 -->
<g id="edge2" class="edge">
<title>Node1&#45;&gt;Node2</title>
<path fill="none" stroke="#191970" d="M2435.6624,-123.2671C2439.6737,-104.8829 2442.9786,-74.1804 2426.5,-56 2394.2873,-20.4606 2265.9406,-27.9102 2202.2367,-19.8121"/>
<polygon fill="#191970" stroke="#191970" points="2202.636,-16.3328 2192.2263,-18.3049 2201.5937,-23.2548 2202.636,-16.3328"/>
</g>
<!-- Node3 -->
<g id="node4" class="node">
<title>Node3</title>
<g id="a_node4"><a xlink:href="_factory_8_h.html" target="_top" xlink:title="amr&#45;wind/core/Factory.H">
<polygon fill="#ffffff" stroke="#000000" points="2479,-62 2479,-81 2604,-81 2604,-62 2479,-62"/>
<text text-anchor="middle" x="2541.5" y="-69" font-family="Helvetica,sans-Serif" font-size="10.00" fill="#000000">amr&#45;wind/core/Factory.H</text>
</a>
</g>
</g>
<!-- Node1&#45;&gt;Node3 -->
<g id="edge3" class="edge">
<title>Node1&#45;&gt;Node3</title>
<path fill="none" stroke="#191970" d="M2456.1861,-123.4639C2474.3102,-112.4247 2498.8209,-97.4954 2516.92,-86.4715"/>
<polygon fill="#191970" stroke="#191970" points="2519.0126,-89.2951 2525.7324,-81.1039 2515.3712,-83.3167 2519.0126,-89.2951"/>
</g>
<!-- Node8 -->
<g id="node9" class="node">
<title>Node8</title>
<g id="a_node9"><a xlink:href="_field_desc_types_8_h.html" target="_top" xlink:title="amr&#45;wind/core/FieldDescTypes.H">
<polygon fill="#ffffff" stroke="#000000" points="766,-.5 766,-19.5 929,-19.5 929,-.5 766,-.5"/>
<text text-anchor="middle" x="847.5" y="-7.5" font-family="Helvetica,sans-Serif" font-size="10.00" fill="#000000">amr&#45;wind/core/FieldDescTypes.H</text>
</a>
</g>
</g>
<!-- Node1&#45;&gt;Node8 -->
<g id="edge9" class="edge">
<title>Node1&#45;&gt;Node8</title>
<path fill="none" stroke="#191970" d="M2429.355,-123.1737C2425.736,-103.7799 2416.4165,-71.0898 2393.5,-56 2327.8694,-12.7843 1057.9807,-23.9693 979.5,-20 966.5136,-19.3432 952.8199,-18.4883 939.3659,-17.5549"/>
<polygon fill="#191970" stroke="#191970" points="939.363,-14.0459 929.1399,-16.8278 938.8665,-21.0283 939.363,-14.0459"/>
</g>
<!-- Node3&#45;&gt;Node2 -->
<g id="edge5" class="edge">
<title>Node3&#45;&gt;Node2</title>
<path fill="none" stroke="#191970" d="M2496.3931,-61.9284C2485.9445,-59.848 2474.8532,-57.7489 2464.5,-56 2351.3501,-36.8867 2319.6006,-39.2108 2202.3114,-20.0499"/>
<polygon fill="#191970" stroke="#191970" points="2202.6497,-16.5585 2192.213,-18.3821 2201.509,-23.4649 2202.6497,-16.5585"/>
</g>
<!-- Node4 -->
<g id="node5" class="node">
<title>Node4</title>
<polygon fill="#ffffff" stroke="#bfbfbf" points="2210.5,-.5 2210.5,-19.5 2262.5,-19.5 2262.5,-.5 2210.5,-.5"/>
<text text-anchor="middle" x="2236.5" y="-7.5" font-family="Helvetica,sans-Serif" font-size="10.00" fill="#000000">memory</text>
</g>
<!-- Node3&#45;&gt;Node4 -->
<g id="edge4" class="edge">
<title>Node3&#45;&gt;Node4</title>
<path fill="none" stroke="#191970" d="M2494.1784,-61.9581C2433.0311,-49.6284 2327.8966,-28.4292 2272.72,-17.3034"/>
<polygon fill="#191970" stroke="#191970" points="2273.194,-13.8286 2262.6994,-15.2828 2271.8103,-20.6905 2273.194,-13.8286"/>
</g>
<!-- Node5 -->
<g id="node6" class="node">
<title>Node5</title>
<polygon fill="#ffffff" stroke="#bfbfbf" points="2425.5,-.5 2425.5,-19.5 2479.5,-19.5 2479.5,-.5 2425.5,-.5"/>
<text text-anchor="middle" x="2452.5" y="-7.5" font-family="Helvetica,sans-Serif" font-size="10.00" fill="#000000">iostream</text>
</g>
<!-- Node3&#45;&gt;Node5 -->
<g id="edge6" class="edge">
<title>Node3&#45;&gt;Node5</title>
<path fill="none" stroke="#191970" d="M2527.5938,-61.8906C2513.4862,-52.1421 2491.4276,-36.8994 2474.8615,-25.4521"/>
<polygon fill="#191970" stroke="#191970" points="2476.5253,-22.3474 2466.3086,-19.5419 2472.5458,-28.1063 2476.5253,-22.3474"/>
</g>
<!-- Node6 -->
<g id="node7" class="node">
<title>Node6</title>
<polygon fill="#ffffff" stroke="#bfbfbf" points="2498,-.5 2498,-19.5 2585,-19.5 2585,-.5 2498,-.5"/>
<text text-anchor="middle" x="2541.5" y="-7.5" font-family="Helvetica,sans-Serif" font-size="10.00" fill="#000000">AMReX_Print.H</text>
</g>
<!-- Node3&#45;&gt;Node6 -->
<g id="edge7" class="edge">
<title>Node3&#45;&gt;Node6</title>
<path fill="none" stroke="#191970" d="M2541.5,-61.8906C2541.5,-53.3657 2541.5,-40.6392 2541.5,-29.9235"/>
<polygon fill="#191970" stroke="#191970" points="2545.0001,-29.7448 2541.5,-19.7449 2538.0001,-29.7449 2545.0001,-29.7448"/>
</g>
<!-- Node7 -->
<g id="node8" class="node">
<title>Node7</title>
<polygon fill="#ffffff" stroke="#bfbfbf" points="2603.5,-.5 2603.5,-19.5 2665.5,-19.5 2665.5,-.5 2603.5,-.5"/>
<text text-anchor="middle" x="2634.5" y="-7.5" font-family="Helvetica,sans-Serif" font-size="10.00" fill="#000000">AMReX.H</text>
</g>
<!-- Node3&#45;&gt;Node7 -->
<g id="edge8" class="edge">
<title>Node3&#45;&gt;Node7</title>
<path fill="none" stroke="#191970" d="M2556.0313,-61.8906C2570.9094,-52.0519 2594.2504,-36.6167 2611.6128,-25.1351"/>
<polygon fill="#191970" stroke="#191970" points="2613.6602,-27.9773 2620.0708,-19.5419 2609.799,-22.1385 2613.6602,-27.9773"/>
</g>
<!-- Node10 -->
<g id="node11" class="node">
<title>Node10</title>
<polygon fill="#ffffff" stroke="#bfbfbf" points="1829.5,-129 1829.5,-148 1935.5,-148 1935.5,-129 1829.5,-129"/>
<text text-anchor="middle" x="1882.5" y="-136" font-family="Helvetica,sans-Serif" font-size="10.00" fill="#000000">AMReX_AmrCore.H</text>
</g>
<!-- Node9&#45;&gt;Node10 -->
<g id="edge11" class="edge">
<title>Node9&#45;&gt;Node10</title>
<path fill="none" stroke="#191970" d="M1982.5801,-246.3845C1964.1366,-226.5028 1921.5921,-180.6406 1898.3545,-155.5908"/>
<polygon fill="#191970" stroke="#191970" points="1900.9101,-153.1993 1891.5432,-148.2484 1895.7782,-157.96 1900.9101,-153.1993"/>
</g>
<!-- Node11 -->
<g id="node12" class="node">
<title>Node11</title>
<g id="a_node12"><a xlink:href="_sim_time_8_h.html" target="_top" xlink:title="amr&#45;wind/core/SimTime.H">
<polygon fill="#ffffff" stroke="#000000" points="177,-190.5 177,-209.5 308,-209.5 308,-190.5 177,-190.5"/>
<text text-anchor="middle" x="242.5" y="-197.5" font-family="Helvetica,sans-Serif" font-size="10.00" fill="#000000">amr&#45;wind/core/SimTime.H</text>
</a>
</g>
</g>
<!-- Node9&#45;&gt;Node11 -->
<g id="edge12" class="edge">
<title>Node9&#45;&gt;Node11</title>
<path fill="none" stroke="#191970" d="M1937.238,-254.2626C1683.5213,-246.139 614.1217,-211.8987 318.5006,-202.4334"/>
<polygon fill="#191970" stroke="#191970" points="318.4204,-198.9291 308.3134,-202.1072 318.1963,-205.9256 318.4204,-198.9291"/>
</g>
<!-- Node15 -->
<g id="node16" class="node">
<title>Node15</title>
<g id="a_node16"><a xlink:href="_field_repo_8_h.html" target="_top" xlink:title="amr&#45;wind/core/FieldRepo.H">
<polygon fill="#ffffff" stroke="#000000" points="986.5,-190.5 986.5,-209.5 1122.5,-209.5 1122.5,-190.5 986.5,-190.5"/>
<text text-anchor="middle" x="1054.5" y="-197.5" font-family="Helvetica,sans-Serif" font-size="10.00" fill="#000000">amr&#45;wind/core/FieldRepo.H</text>
</a>
</g>
</g>
<!-- Node9&#45;&gt;Node15 -->
<g id="edge16" class="edge">
<title>Node9&#45;&gt;Node15</title>
<path fill="none" stroke="#191970" d="M1937.4156,-252.7676C1779.4448,-243.3265 1318.2318,-215.762 1132.9221,-204.6869"/>
<polygon fill="#191970" stroke="#191970" points="1132.9027,-201.1796 1122.7117,-204.0767 1132.485,-208.1671 1132.9027,-201.1796"/>
</g>
<!-- Node30 -->
<g id="node31" class="node">
<title>Node30</title>
<g id="a_node31"><a xlink:href="_p_d_e_base_8_h.html" target="_top" xlink:title="amr&#45;wind/equation_systems\l/PDEBase.H">
<polygon fill="#ffffff" stroke="#000000" points="1954,-123.5 1954,-153.5 2093,-153.5 2093,-123.5 1954,-123.5"/>
<text text-anchor="start" x="1962" y="-141.5" font-family="Helvetica,sans-Serif" font-size="10.00" fill="#000000">amr&#45;wind/equation_systems</text>
<text text-anchor="middle" x="2023.5" y="-130.5" font-family="Helvetica,sans-Serif" font-size="10.00" fill="#000000">/PDEBase.H</text>
</a>
</g>
</g>
<!-- Node9&#45;&gt;Node30 -->
<g id="edge52" class="edge">
<title>Node9&#45;&gt;Node30</title>
<path fill="none" stroke="#191970" d="M1994.1187,-246.3845C1998.9991,-228.4644 2009.6277,-189.4375 2016.6729,-163.5681"/>
<polygon fill="#191970" stroke="#191970" points="2020.1058,-164.2826 2019.3565,-153.7143 2013.3517,-162.4432 2020.1058,-164.2826"/>
</g>
<!-- Node34 -->
<g id="node35" class="node">
<title>Node34</title>
<g id="a_node35"><a xlink:href="_physics_8_h.html" target="_top" xlink:title="amr&#45;wind/core/Physics.H">
<polygon fill="#ffffff" stroke="#000000" points="2130,-129 2130,-148 2257,-148 2257,-129 2130,-129"/>
<text text-anchor="middle" x="2193.5" y="-136" font-family="Helvetica,sans-Serif" font-size="10.00" fill="#000000">amr&#45;wind/core/Physics.H</text>
</a>
</g>
</g>
<!-- Node9&#45;&gt;Node34 -->
<g id="edge64" class="edge">
<title>Node9&#45;&gt;Node34</title>
<path fill="none" stroke="#191970" d="M2001.9928,-246.3017C2017.29,-232.514 2047.0044,-207.0325 2075.5,-190 2101.4687,-174.4779 2132.9631,-160.973 2156.8809,-151.6913"/>
<polygon fill="#191970" stroke="#191970" points="2158.2032,-154.933 2166.3011,-148.1011 2155.7103,-148.3919 2158.2032,-154.933"/>
</g>
<!-- Node12 -->
<g id="node13" class="node">
<title>Node12</title>
<polygon fill="#ffffff" stroke="#bfbfbf" points="0,-129 0,-148 93,-148 93,-129 0,-129"/>
<text text-anchor="middle" x="46.5" y="-136" font-family="Helvetica,sans-Serif" font-size="10.00" fill="#000000">AMReX_REAL.H</text>
</g>
<!-- Node11&#45;&gt;Node12 -->
<g id="edge13" class="edge">
<title>Node11&#45;&gt;Node12</title>
<path fill="none" stroke="#191970" d="M211.875,-190.3906C178.2176,-179.8298 124.0101,-162.8208 86.8941,-151.1747"/>
<polygon fill="#191970" stroke="#191970" points="87.4991,-147.6963 76.9099,-148.0419 85.4034,-154.3753 87.4991,-147.6963"/>
</g>
<!-- Node13 -->
<g id="node14" class="node">
<title>Node13</title>
<polygon fill="#ffffff" stroke="#bfbfbf" points="111.5,-129 111.5,-148 237.5,-148 237.5,-129 111.5,-129"/>
<text text-anchor="middle" x="174.5" y="-136" font-family="Helvetica,sans-Serif" font-size="10.00" fill="#000000">AMReX_GpuQualifiers.H</text>
</g>
<!-- Node11&#45;&gt;Node13 -->
<g id="edge14" class="edge">
<title>Node11&#45;&gt;Node13</title>
<path fill="none" stroke="#191970" d="M231.875,-190.3906C221.4569,-180.9683 205.3636,-166.4134 192.8696,-155.1137"/>
<polygon fill="#191970" stroke="#191970" points="195.0392,-152.3568 185.2748,-148.2449 190.3438,-157.5484 195.0392,-152.3568"/>
</g>
<!-- Node14 -->
<g id="node15" class="node">
<title>Node14</title>
<polygon fill="#ffffff" stroke="#bfbfbf" points="255.5,-129 255.5,-148 365.5,-148 365.5,-129 255.5,-129"/>
<text text-anchor="middle" x="310.5" y="-136" font-family="Helvetica,sans-Serif" font-size="10.00" fill="#000000">AMReX_Extension.H</text>
</g>
<!-- Node11&#45;&gt;Node14 -->
<g id="edge15" class="edge">
<title>Node11&#45;&gt;Node14</title>
<path fill="none" stroke="#191970" d="M253.125,-190.3906C263.5431,-180.9683 279.6364,-166.4134 292.1304,-155.1137"/>
<polygon fill="#191970" stroke="#191970" points="294.6562,-157.5484 299.7252,-148.2449 289.9608,-152.3568 294.6562,-157.5484"/>
</g>
<!-- Node15&#45;&gt;Node2 -->
<g id="edge18" class="edge">
<title>Node15&#45;&gt;Node2</title>
<path fill="none" stroke="#191970" d="M1122.813,-195.6447C1212.2751,-189.3621 1373.8144,-176.0272 1510.5,-154 1645.8062,-132.1951 1678.4143,-119.7325 1811.5,-87 1862.9036,-74.3573 1874.9939,-68.2188 1926.5,-56 1985.2166,-42.0707 2053.1782,-28.4652 2098.7052,-19.7099"/>
<polygon fill="#191970" stroke="#191970" points="2099.4727,-23.1266 2108.6362,-17.8086 2098.1564,-16.2515 2099.4727,-23.1266"/>
</g>
<!-- Node15&#45;&gt;Node8 -->
<g id="edge19" class="edge">
<title>Node15&#45;&gt;Node8</title>
<path fill="none" stroke="#191970" d="M986.3813,-196.6015C857.2383,-188.4457 585.4592,-162.4828 538.5,-87 531.2221,-75.3013 529.5034,-66.435 538.5,-56 552.6589,-39.5772 669.708,-25.722 755.5751,-17.6352"/>
<polygon fill="#191970" stroke="#191970" points="755.9863,-21.1122 765.6196,-16.7019 755.3386,-14.1422 755.9863,-21.1122"/>
</g>
<!-- Node15&#45;&gt;Node10 -->
<g id="edge49" class="edge">
<title>Node15&#45;&gt;Node10</title>
<path fill="none" stroke="#191970" d="M1122.6417,-197.342C1283.4104,-190.8345 1682.7888,-173.2244 1815.5,-154 1822.2479,-153.0225 1829.3195,-151.7097 1836.2345,-150.26"/>
<polygon fill="#191970" stroke="#191970" points="1837.1872,-153.634 1846.1978,-148.0609 1835.6784,-146.7985 1837.1872,-153.634"/>
</g>
<!-- Node16 -->
<g id="node17" class="node">
<title>Node16</title>
<polygon fill="#ffffff" stroke="#bfbfbf" points="1258,-.5 1258,-19.5 1299,-19.5 1299,-.5 1258,-.5"/>
<text text-anchor="middle" x="1278.5" y="-7.5" font-family="Helvetica,sans-Serif" font-size="10.00" fill="#000000">string</text>
</g>
<!-- Node15&#45;&gt;Node16 -->
<g id="edge17" class="edge">
<title>Node15&#45;&gt;Node16</title>
<path fill="none" stroke="#191970" d="M1076.7385,-190.4481C1113.1558,-173.8952 1186.0923,-136.8164 1232.5,-87 1248.6735,-69.6386 1261.8905,-45.6651 1269.9405,-29.1016"/>
<polygon fill="#191970" stroke="#191970" points="1273.1918,-30.4117 1274.2654,-19.8713 1266.8531,-27.4416 1273.1918,-30.4117"/>
</g>
<!-- Node17 -->
<g id="node18" class="node">
<title>Node17</title>
<g id="a_node18"><a xlink:href="_field_utils_8_h.html" target="_top" xlink:title="amr&#45;wind/core/FieldUtils.H">
<polygon fill="#ffffff" stroke="#000000" points="548,-62 548,-81 681,-81 681,-62 548,-62"/>
<text text-anchor="middle" x="614.5" y="-69" font-family="Helvetica,sans-Serif" font-size="10.00" fill="#000000">amr&#45;wind/core/FieldUtils.H</text>
</a>
</g>
</g>
<!-- Node15&#45;&gt;Node17 -->
<g id="edge20" class="edge">
<title>Node15&#45;&gt;Node17</title>
<path fill="none" stroke="#191970" d="M986.3005,-193.9399C906.102,-186.1676 778.2376,-171.572 733.5,-154 693.6636,-138.3531 654.1817,-107.0299 632.2016,-87.8014"/>
<polygon fill="#191970" stroke="#191970" points="634.4622,-85.1278 624.6702,-81.082 629.802,-90.3511 634.4622,-85.1278"/>
</g>
<!-- Node18 -->
<g id="node19" class="node">
<title>Node18</title>
<polygon fill="#ffffff" stroke="#bfbfbf" points="988.5,-.5 988.5,-19.5 1092.5,-19.5 1092.5,-.5 988.5,-.5"/>
<text text-anchor="middle" x="1040.5" y="-7.5" font-family="Helvetica,sans-Serif" font-size="10.00" fill="#000000">AMReX_MultiFab.H</text>
</g>
<!-- Node15&#45;&gt;Node18 -->
<g id="edge50" class="edge">
<title>Node15&#45;&gt;Node18</title>
<path fill="none" stroke="#191970" d="M999.0016,-190.4437C908.3846,-172.5008 744.463,-128.869 804.5,-56 815.5616,-42.5741 912.2791,-27.1291 978.4139,-17.9869"/>
<polygon fill="#191970" stroke="#191970" points="978.9076,-21.4521 988.3414,-16.6299 977.9595,-14.5166 978.9076,-21.4521"/>
</g>
<!-- Node20 -->
<g id="node21" class="node">
<title>Node20</title>
<g id="a_node21"><a xlink:href="_field_8_h.html" target="_top" xlink:title="amr&#45;wind/core/Field.H">
<polygon fill="#ffffff" stroke="#000000" points="1388,-129 1388,-148 1501,-148 1501,-129 1388,-129"/>
<text text-anchor="middle" x="1444.5" y="-136" font-family="Helvetica,sans-Serif" font-size="10.00" fill="#000000">amr&#45;wind/core/Field.H</text>
</a>
</g>
</g>
<!-- Node15&#45;&gt;Node20 -->
<g id="edge24" class="edge">
<title>Node15&#45;&gt;Node20</title>
<path fill="none" stroke="#191970" d="M1115.0096,-190.4581C1186.2226,-179.2284 1304.0934,-160.641 1377.8631,-149.0081"/>
<polygon fill="#191970" stroke="#191970" points="1378.6374,-152.4294 1387.9702,-147.4143 1377.547,-145.5148 1378.6374,-152.4294"/>
</g>
<!-- Node26 -->
<g id="node27" class="node">
<title>Node26</title>
<g id="a_node27"><a xlink:href="_int_field_8_h.html" target="_top" xlink:title="amr&#45;wind/core/IntField.H">
<polygon fill="#ffffff" stroke="#000000" points="421.5,-129 421.5,-148 545.5,-148 545.5,-129 421.5,-129"/>
<text text-anchor="middle" x="483.5" y="-136" font-family="Helvetica,sans-Serif" font-size="10.00" fill="#000000">amr&#45;wind/core/IntField.H</text>
</a>
</g>
</g>
<!-- Node15&#45;&gt;Node26 -->
<g id="edge38" class="edge">
<title>Node15&#45;&gt;Node26</title>
<path fill="none" stroke="#191970" d="M986.1612,-196.0032C890.41,-189.8688 711.0457,-176.4276 559.5,-154 551.8196,-152.8634 543.7438,-151.4525 535.8402,-149.9486"/>
<polygon fill="#191970" stroke="#191970" points="536.4511,-146.5018 525.9638,-148.0075 535.1011,-153.3704 536.4511,-146.5018"/>
</g>
<!-- Node27 -->
<g id="node28" class="node">
<title>Node27</title>
<polygon fill="#ffffff" stroke="#bfbfbf" points="344,-62 344,-81 451,-81 451,-62 344,-62"/>
<text text-anchor="middle" x="397.5" y="-69" font-family="Helvetica,sans-Serif" font-size="10.00" fill="#000000">AMReX_iMultiFab.H</text>
</g>
<!-- Node15&#45;&gt;Node27 -->
<g id="edge51" class="edge">
<title>Node15&#45;&gt;Node27</title>
<path fill="none" stroke="#191970" d="M986.3531,-197.3484C825.4105,-190.7871 433.6191,-172.9469 412.5,-154 395.1987,-138.4782 393.6438,-110.2266 394.9236,-91.1617"/>
<polygon fill="#191970" stroke="#191970" points="398.4113,-91.4585 395.9071,-81.1639 391.4449,-90.7732 398.4113,-91.4585"/>
</g>
<!-- Node28 -->
<g id="node29" class="node">
<title>Node28</title>
<g id="a_node29"><a xlink:href="_scratch_field_8_h.html" target="_top" xlink:title="amr&#45;wind/core/ScratchField.H">
<polygon fill="#ffffff" stroke="#000000" points="981.5,-129 981.5,-148 1127.5,-148 1127.5,-129 981.5,-129"/>
<text text-anchor="middle" x="1054.5" y="-136" font-family="Helvetica,sans-Serif" font-size="10.00" fill="#000000">amr&#45;wind/core/ScratchField.H</text>
</a>
</g>
</g>
<!-- Node15&#45;&gt;Node28 -->
<g id="edge42" class="edge">
<title>Node15&#45;&gt;Node28</title>
<path fill="none" stroke="#191970" d="M1054.5,-190.3906C1054.5,-181.8657 1054.5,-169.1392 1054.5,-158.4235"/>
<polygon fill="#191970" stroke="#191970" points="1058.0001,-158.2448 1054.5,-148.2449 1051.0001,-158.2449 1058.0001,-158.2448"/>
</g>
<!-- Node17&#45;&gt;Node8 -->
<g id="edge21" class="edge">
<title>Node17&#45;&gt;Node8</title>
<path fill="none" stroke="#191970" d="M650.6506,-61.9581C691.2069,-51.2533 757.0931,-33.8628 801.3407,-22.1837"/>
<polygon fill="#191970" stroke="#191970" points="802.489,-25.5005 811.2646,-19.5643 800.7025,-18.7323 802.489,-25.5005"/>
</g>
<!-- Node17&#45;&gt;Node18 -->
<g id="edge22" class="edge">
<title>Node17&#45;&gt;Node18</title>
<path fill="none" stroke="#191970" d="M680.5951,-61.9581C761.7838,-50.2372 898.4926,-30.5011 978.0001,-19.0229"/>
<polygon fill="#191970" stroke="#191970" points="978.9559,-22.4213 988.3532,-17.5282 977.9556,-15.4931 978.9559,-22.4213"/>
</g>
<!-- Node19 -->
<g id="node20" class="node">
<title>Node19</title>
<polygon fill="#ffffff" stroke="#bfbfbf" points="556.5,-.5 556.5,-19.5 672.5,-19.5 672.5,-.5 556.5,-.5"/>
<text text-anchor="middle" x="614.5" y="-7.5" font-family="Helvetica,sans-Serif" font-size="10.00" fill="#000000">AMReX_Interpolater.H</text>
</g>
<!-- Node17&#45;&gt;Node19 -->
<g id="edge23" class="edge">
<title>Node17&#45;&gt;Node19</title>
<path fill="none" stroke="#191970" d="M614.5,-61.8906C614.5,-53.3657 614.5,-40.6392 614.5,-29.9235"/>
<polygon fill="#191970" stroke="#191970" points="618.0001,-29.7448 614.5,-19.7449 611.0001,-29.7449 618.0001,-29.7448"/>
</g>
<!-- Node20&#45;&gt;Node2 -->
<g id="edge27" class="edge">
<title>Node20&#45;&gt;Node2</title>
<path fill="none" stroke="#191970" d="M1468.9123,-128.843C1494.0484,-118.7873 1534.2678,-102.3841 1568.5,-87 1597.3283,-74.0445 1602.0379,-64.4247 1632.5,-56 1635.2965,-55.2266 1967.9743,-26.0024 2098.6504,-14.5435"/>
<polygon fill="#191970" stroke="#191970" points="2099.1559,-18.0127 2108.812,-13.6526 2098.5444,-11.0395 2099.1559,-18.0127"/>
</g>
<!-- Node20&#45;&gt;Node4 -->
<g id="edge26" class="edge">
<title>Node20&#45;&gt;Node4</title>
<path fill="none" stroke="#191970" d="M1486.4301,-128.9409C1521.5004,-120.2105 1572.4064,-105.8059 1614.5,-87 1638.7185,-76.1801 1640.2116,-64.0063 1665.5,-56 1890.0114,15.0801 1964.2624,-58.9446 2200.3535,-19.8315"/>
<polygon fill="#191970" stroke="#191970" points="2200.997,-23.2723 2210.2652,-18.1391 2199.8188,-16.3722 2200.997,-23.2723"/>
</g>
<!-- Node20&#45;&gt;Node8 -->
<g id="edge32" class="edge">
<title>Node20&#45;&gt;Node8</title>
<path fill="none" stroke="#191970" d="M1387.7472,-136.5926C1306.43,-132.7229 1152.6564,-121.1572 1026.5,-87 1011.4478,-82.9246 925.2195,-44.775 878.1533,-23.7494"/>
<polygon fill="#191970" stroke="#191970" points="879.3016,-20.4289 868.744,-19.5411 876.4437,-26.8189 879.3016,-20.4289"/>
</g>
<!-- Node20&#45;&gt;Node16 -->
<g id="edge25" class="edge">
<title>Node20&#45;&gt;Node16</title>
<path fill="none" stroke="#191970" d="M1476.0965,-128.9538C1516.5476,-115.1598 1578.3842,-87.7931 1551.5,-56 1535.9606,-37.6231 1377.6346,-19.8448 1309.4558,-12.9768"/>
<polygon fill="#191970" stroke="#191970" points="1309.6204,-9.476 1299.3232,-11.9698 1308.928,-16.4417 1309.6204,-9.476"/>
</g>
<!-- Node20&#45;&gt;Node18 -->
<g id="edge28" class="edge">
<title>Node20&#45;&gt;Node18</title>
<path fill="none" stroke="#191970" d="M1414.4644,-128.9466C1342.6517,-106.1052 1161.0005,-48.3275 1080.2497,-22.6432"/>
<polygon fill="#191970" stroke="#191970" points="1081.0493,-19.2248 1070.4588,-19.529 1078.9275,-25.8955 1081.0493,-19.2248"/>
</g>
<!-- Node21 -->
<g id="node22" class="node">
<title>Node21</title>
<polygon fill="#ffffff" stroke="#bfbfbf" points="1340,-62 1340,-81 1439,-81 1439,-62 1340,-62"/>
<text text-anchor="middle" x="1389.5" y="-69" font-family="Helvetica,sans-Serif" font-size="10.00" fill="#000000">AMReX_BCRec.H</text>
</g>
<!-- Node20&#45;&gt;Node21 -->
<g id="edge29" class="edge">
<title>Node20&#45;&gt;Node21</title>
<path fill="none" stroke="#191970" d="M1436.6198,-128.9005C1428.1248,-118.552 1414.4176,-101.8542 1403.972,-89.1295"/>
<polygon fill="#191970" stroke="#191970" points="1406.4158,-86.5902 1397.3655,-81.0817 1401.0053,-91.0317 1406.4158,-86.5902"/>
</g>
<!-- Node22 -->
<g id="node23" class="node">
<title>Node22</title>
<polygon fill="#ffffff" stroke="#bfbfbf" points="1457,-62 1457,-81 1542,-81 1542,-62 1457,-62"/>
<text text-anchor="middle" x="1499.5" y="-69" font-family="Helvetica,sans-Serif" font-size="10.00" fill="#000000">AMReX_Gpu.H</text>
</g>
<!-- Node20&#45;&gt;Node22 -->
<g id="edge30" class="edge">
<title>Node20&#45;&gt;Node22</title>
<path fill="none" stroke="#191970" d="M1452.3802,-128.9005C1460.8752,-118.552 1474.5824,-101.8542 1485.028,-89.1295"/>
<polygon fill="#191970" stroke="#191970" points="1487.9947,-91.0317 1491.6345,-81.0817 1482.5842,-86.5902 1487.9947,-91.0317"/>
</g>
<!-- Node23 -->
<g id="node24" class="node">
<title>Node23</title>
<g id="a_node24"><a xlink:href="incflo__enums_8_h.html" target="_top" xlink:title="amr&#45;wind/incflo_enums.H">
<polygon fill="#ffffff" stroke="#000000" points="1674.5,-62 1674.5,-81 1802.5,-81 1802.5,-62 1674.5,-62"/>
<text text-anchor="middle" x="1738.5" y="-69" font-family="Helvetica,sans-Serif" font-size="10.00" fill="#000000">amr&#45;wind/incflo_enums.H</text>
</a>
</g>
</g>
<!-- Node20&#45;&gt;Node23 -->
<g id="edge31" class="edge">
<title>Node20&#45;&gt;Node23</title>
<path fill="none" stroke="#191970" d="M1486.3108,-128.9717C1538.9532,-116.975 1629.3904,-96.3651 1686.455,-83.3606"/>
<polygon fill="#191970" stroke="#191970" points="1687.3851,-86.7385 1696.3574,-81.1039 1685.8297,-79.9134 1687.3851,-86.7385"/>
</g>
<!-- Node24 -->
<g id="node25" class="node">
<title>Node24</title>
<g id="a_node25"><a xlink:href="_view_field_8_h.html" target="_top" xlink:title="amr&#45;wind/core/ViewField.H">
<polygon fill="#ffffff" stroke="#000000" points="1035.5,-62 1035.5,-81 1169.5,-81 1169.5,-62 1035.5,-62"/>
<text text-anchor="middle" x="1102.5" y="-69" font-family="Helvetica,sans-Serif" font-size="10.00" fill="#000000">amr&#45;wind/core/ViewField.H</text>
</a>
</g>
</g>
<!-- Node20&#45;&gt;Node24 -->
<g id="edge33" class="edge">
<title>Node20&#45;&gt;Node24</title>
<path fill="none" stroke="#191970" d="M1395.8629,-128.9717C1334.031,-116.8584 1227.3755,-95.9639 1161.1187,-82.9838"/>
<polygon fill="#191970" stroke="#191970" points="1161.7322,-79.5375 1151.2458,-81.0496 1160.3864,-86.4069 1161.7322,-79.5375"/>
</g>
<!-- Node24&#45;&gt;Node8 -->
<g id="edge35" class="edge">
<title>Node24&#45;&gt;Node8</title>
<path fill="none" stroke="#191970" d="M1062.936,-61.9581C1018.27,-51.1857 945.5313,-33.6428 897.103,-21.9631"/>
<polygon fill="#191970" stroke="#191970" points="897.6987,-18.5065 887.1568,-19.5643 896.0574,-25.3113 897.6987,-18.5065"/>
</g>
<!-- Node24&#45;&gt;Node16 -->
<g id="edge34" class="edge">
<title>Node24&#45;&gt;Node16</title>
<path fill="none" stroke="#191970" d="M1130,-61.8906C1162.0674,-50.6852 1214.909,-32.2207 1248.1506,-20.605"/>
<polygon fill="#191970" stroke="#191970" points="1249.5073,-23.8386 1257.793,-17.2357 1247.1982,-17.2304 1249.5073,-23.8386"/>
</g>
<!-- Node24&#45;&gt;Node18 -->
<g id="edge36" class="edge">
<title>Node24&#45;&gt;Node18</title>
<path fill="none" stroke="#191970" d="M1092.8125,-61.8906C1083.4041,-52.5581 1068.9193,-38.1902 1057.5751,-26.9374"/>
<polygon fill="#191970" stroke="#191970" points="1059.8886,-24.3024 1050.3241,-19.7449 1054.9589,-29.2722 1059.8886,-24.3024"/>
</g>
<!-- Node25 -->
<g id="node26" class="node">
<title>Node25</title>
<polygon fill="#ffffff" stroke="#bfbfbf" points="1145,-.5 1145,-19.5 1240,-19.5 1240,-.5 1145,-.5"/>
<text text-anchor="middle" x="1192.5" y="-7.5" font-family="Helvetica,sans-Serif" font-size="10.00" fill="#000000">AMReX_Vector.H</text>
</g>
<!-- Node24&#45;&gt;Node25 -->
<g id="edge37" class="edge">
<title>Node24&#45;&gt;Node25</title>
<path fill="none" stroke="#191970" d="M1116.5625,-61.8906C1130.8286,-52.1421 1153.135,-36.8994 1169.8872,-25.4521"/>
<polygon fill="#191970" stroke="#191970" points="1172.2545,-28.0736 1178.5362,-19.5419 1168.3051,-22.2941 1172.2545,-28.0736"/>
</g>
<!-- Node26&#45;&gt;Node8 -->
<g id="edge40" class="edge">
<title>Node26&#45;&gt;Node8</title>
<path fill="none" stroke="#191970" d="M482.925,-128.8636C482.4629,-111.4255 484.2507,-74.7104 505.5,-56 524.0461,-39.6698 660.7405,-25.2821 755.5901,-17.1161"/>
<polygon fill="#191970" stroke="#191970" points="756.1167,-20.584 765.7838,-16.2484 755.523,-13.6092 756.1167,-20.584"/>
</g>
<!-- Node26&#45;&gt;Node16 -->
<g id="edge39" class="edge">
<title>Node26&#45;&gt;Node16</title>
<path fill="none" stroke="#191970" d="M522.6626,-128.9358C564.1438,-118.7524 631.5193,-102.061 689.5,-87 740.7352,-73.6912 752.3465,-65.0656 804.5,-56 996.3178,-22.6573 1052.6544,-58.3649 1247.6964,-19.672"/>
<polygon fill="#191970" stroke="#191970" points="1248.5876,-23.0627 1257.6943,-17.6481 1247.1987,-16.2018 1248.5876,-23.0627"/>
</g>
<!-- Node26&#45;&gt;Node27 -->
<g id="edge41" class="edge">
<title>Node26&#45;&gt;Node27</title>
<path fill="none" stroke="#191970" d="M471.1783,-128.9005C457.2565,-118.0544 434.3824,-100.2339 417.81,-87.3229"/>
<polygon fill="#191970" stroke="#191970" points="419.8385,-84.4664 409.7988,-81.0817 415.5364,-89.9885 419.8385,-84.4664"/>
</g>
<!-- Node28&#45;&gt;Node8 -->
<g id="edge44" class="edge">
<title>Node28&#45;&gt;Node8</title>
<path fill="none" stroke="#191970" d="M981.4267,-133.479C915.8099,-127.2681 826.5117,-114.0083 804.5,-87 789.0655,-68.0619 809.5765,-42.8178 827.2202,-26.486"/>
<polygon fill="#191970" stroke="#191970" points="829.7829,-28.8935 834.9855,-19.664 825.1628,-23.6346 829.7829,-28.8935"/>
</g>
<!-- Node28&#45;&gt;Node16 -->
<g id="edge43" class="edge">
<title>Node28&#45;&gt;Node16</title>
<path fill="none" stroke="#191970" d="M1095.677,-128.9727C1125.9175,-120.7997 1167.1849,-107.1219 1199.5,-87 1225.3898,-70.879 1249.6384,-45.0199 1264.2699,-27.7755"/>
<polygon fill="#191970" stroke="#191970" points="1267.3232,-29.5757 1271.0024,-19.6402 1261.9304,-25.1128 1267.3232,-29.5757"/>
</g>
<!-- Node28&#45;&gt;Node18 -->
<g id="edge46" class="edge">
<title>Node28&#45;&gt;Node18</title>
<path fill="none" stroke="#191970" d="M1047.3335,-128.8627C1040.447,-118.953 1030.5126,-102.781 1026.5,-87 1021.5487,-67.5275 1026.9888,-44.8589 1032.4675,-29.1839"/>
<polygon fill="#191970" stroke="#191970" points="1035.8393,-30.1651 1036.1393,-19.5745 1029.3004,-27.6665 1035.8393,-30.1651"/>
</g>
<!-- Node28&#45;&gt;Node24 -->
<g id="edge45" class="edge">
<title>Node28&#45;&gt;Node24</title>
<path fill="none" stroke="#191970" d="M1061.3772,-128.9005C1068.7198,-118.6515 1080.5241,-102.1747 1089.6062,-89.4976"/>
<polygon fill="#191970" stroke="#191970" points="1092.6568,-91.2492 1095.6355,-81.0817 1086.9664,-87.1724 1092.6568,-91.2492"/>
</g>
<!-- Node28&#45;&gt;Node25 -->
<g id="edge47" class="edge">
<title>Node28&#45;&gt;Node25</title>
<path fill="none" stroke="#191970" d="M1106.8119,-128.9593C1132.127,-121.6648 1160.7972,-108.9587 1178.5,-87 1191.3875,-71.0142 1193.9381,-47.0684 1193.865,-30.1316"/>
<polygon fill="#191970" stroke="#191970" points="1197.3474,-29.5775 1193.49,-19.7099 1190.3519,-29.8293 1197.3474,-29.5775"/>
</g>
<!-- Node29 -->
<g id="node30" class="node">
<title>Node29</title>
<polygon fill="#ffffff" stroke="#bfbfbf" points="813.5,-62 813.5,-81 941.5,-81 941.5,-62 813.5,-62"/>
<text text-anchor="middle" x="877.5" y="-69" font-family="Helvetica,sans-Serif" font-size="10.00" fill="#000000">AMReX_PhysBCFunct.H</text>
</g>
<!-- Node28&#45;&gt;Node29 -->
<g id="edge48" class="edge">
<title>Node28&#45;&gt;Node29</title>
<path fill="none" stroke="#191970" d="M1029.1402,-128.9005C998.5156,-117.3082 946.8432,-97.7486 912.4544,-84.7313"/>
<polygon fill="#191970" stroke="#191970" points="913.4042,-81.3486 902.8127,-81.0817 910.9261,-87.8952 913.4042,-81.3486"/>
</g>
<!-- Node30&#45;&gt;Node3 -->
<g id="edge54" class="edge">
<title>Node30&#45;&gt;Node3</title>
<path fill="none" stroke="#191970" d="M2093.0525,-127.1928C2102.6027,-125.7299 2112.2886,-124.2928 2121.5,-123 2243.0163,-105.9455 2384.7634,-89.2215 2468.609,-79.6573"/>
<polygon fill="#191970" stroke="#191970" points="2469.2524,-83.1067 2478.7925,-78.4984 2468.4609,-76.1516 2469.2524,-83.1067"/>
</g>
<!-- Node30&#45;&gt;Node8 -->
<g id="edge62" class="edge">
<title>Node30&#45;&gt;Node8</title>
<path fill="none" stroke="#191970" d="M1959.5846,-123.4829C1916.6052,-112.7496 1864.3164,-98.2713 1844.5,-87 1827.0084,-77.051 1830.0448,-63.8122 1811.5,-56 1726.2266,-20.0776 1071.8676,-25.4957 979.5,-20 966.52,-19.2277 952.8298,-18.3084 939.3775,-17.3446"/>
<polygon fill="#191970" stroke="#191970" points="939.3801,-13.8357 929.1524,-16.6007 938.8721,-20.8172 939.3801,-13.8357"/>
</g>
<!-- Node30&#45;&gt;Node16 -->
<g id="edge53" class="edge">
<title>Node30&#45;&gt;Node16</title>
<path fill="none" stroke="#191970" d="M1994.1241,-123.4288C1951.5323,-101.8443 1874.4545,-63.8559 1844.5,-56 1741.9199,-29.0972 1412.0237,-14.9247 1309.3192,-11.0856"/>
<polygon fill="#191970" stroke="#191970" points="1309.4109,-7.5867 1299.289,-10.7167 1309.1536,-14.582 1309.4109,-7.5867"/>
</g>
<!-- Node30&#45;&gt;Node23 -->
<g id="edge63" class="edge">
<title>Node30&#45;&gt;Node23</title>
<path fill="none" stroke="#191970" d="M1959.5404,-123.4639C1907.906,-111.3253 1836.2641,-94.4831 1788.701,-83.3016"/>
<polygon fill="#191970" stroke="#191970" points="1789.4686,-79.8867 1778.9329,-81.0053 1787.8666,-86.701 1789.4686,-79.8867"/>
</g>
<!-- Node31 -->
<g id="node32" class="node">
<title>Node31</title>
<g id="a_node32"><a xlink:href="_coll_mgr_8_h.html" target="_top" xlink:title="amr&#45;wind/core/CollMgr.H">
<polygon fill="#ffffff" stroke="#000000" points="2131,-62 2131,-81 2256,-81 2256,-62 2131,-62"/>
<text text-anchor="middle" x="2193.5" y="-69" font-family="Helvetica,sans-Serif" font-size="10.00" fill="#000000">amr&#45;wind/core/CollMgr.H</text>
</a>
</g>
</g>
<!-- Node30&#45;&gt;Node31 -->
<g id="edge55" class="edge">
<title>Node30&#45;&gt;Node31</title>
<path fill="none" stroke="#191970" d="M2061.6513,-123.4639C2091.0745,-111.8677 2131.3893,-95.9789 2159.6686,-84.8335"/>
<polygon fill="#191970" stroke="#191970" points="2161.1117,-88.0269 2169.1318,-81.1039 2158.545,-81.5144 2161.1117,-88.0269"/>
</g>
<!-- Node32 -->
<g id="node33" class="node">
<title>Node32</title>
<g id="a_node33"><a xlink:href="_p_d_e_fields_8_h.html" target="_top" xlink:title="amr&#45;wind/equation_systems\l/PDEFields.H">
<polygon fill="#ffffff" stroke="#000000" points="1935,-56.5 1935,-86.5 2074,-86.5 2074,-56.5 1935,-56.5"/>
<text text-anchor="start" x="1943" y="-74.5" font-family="Helvetica,sans-Serif" font-size="10.00" fill="#000000">amr&#45;wind/equation_systems</text>
<text text-anchor="middle" x="2004.5" y="-63.5" font-family="Helvetica,sans-Serif" font-size="10.00" fill="#000000">/PDEFields.H</text>
</a>
</g>
</g>
<!-- Node30&#45;&gt;Node32 -->
<g id="edge60" class="edge">
<title>Node30&#45;&gt;Node32</title>
<path fill="none" stroke="#191970" d="M2019.1886,-123.2967C2016.9294,-115.3299 2014.1054,-105.3718 2011.5389,-96.3213"/>
<polygon fill="#191970" stroke="#191970" points="2014.8899,-95.3089 2008.7943,-86.6432 2008.1554,-97.2187 2014.8899,-95.3089"/>
</g>
<!-- Node31&#45;&gt;Node2 -->
<g id="edge58" class="edge">
<title>Node31&#45;&gt;Node2</title>
<path fill="none" stroke="#191970" d="M2186.7813,-61.8906C2180.507,-52.917 2170.9777,-39.2879 2163.2596,-28.2491"/>
<polygon fill="#191970" stroke="#191970" points="2165.9121,-25.9348 2157.3135,-19.7449 2160.1753,-29.9459 2165.9121,-25.9348"/>
</g>
<!-- Node31&#45;&gt;Node4 -->
<g id="edge57" class="edge">
<title>Node31&#45;&gt;Node4</title>
<path fill="none" stroke="#191970" d="M2200.2188,-61.8906C2206.493,-52.917 2216.0223,-39.2879 2223.7404,-28.2491"/>
<polygon fill="#191970" stroke="#191970" points="2226.8247,-29.9459 2229.6865,-19.7449 2221.0879,-25.9348 2226.8247,-29.9459"/>
</g>
<!-- Node31&#45;&gt;Node16 -->
<g id="edge56" class="edge">
<title>Node31&#45;&gt;Node16</title>
<path fill="none" stroke="#191970" d="M2151.7198,-61.9527C2140.3492,-59.6661 2127.9978,-57.4651 2116.5,-56 1955.7067,-35.5111 1441.4093,-15.8898 1309.5426,-11.1047"/>
<polygon fill="#191970" stroke="#191970" points="1309.4642,-7.5997 1299.3444,-10.7366 1309.2116,-14.5951 1309.4642,-7.5997"/>
</g>
<!-- Node31&#45;&gt;Node25 -->
<g id="edge59" class="edge">
<title>Node31&#45;&gt;Node25</title>
<path fill="none" stroke="#191970" d="M2152.1335,-61.9304C2140.6528,-59.6145 2128.1427,-57.4044 2116.5,-56 1736.4449,-10.1549 1634.0589,-61.1471 1250.0865,-20.0346"/>
<polygon fill="#191970" stroke="#191970" points="1250.4146,-16.5497 1240.0955,-18.9509 1249.6598,-23.5089 1250.4146,-16.5497"/>
</g>
<!-- Node33 -->
<g id="node34" class="node">
<title>Node33</title>
<polygon fill="#ffffff" stroke="#bfbfbf" points="1982,-.5 1982,-19.5 2027,-19.5 2027,-.5 1982,-.5"/>
<text text-anchor="middle" x="2004.5" y="-7.5" font-family="Helvetica,sans-Serif" font-size="10.00" fill="#000000">iosfwd</text>
</g>
<!-- Node32&#45;&gt;Node33 -->
<g id="edge61" class="edge">
<title>Node32&#45;&gt;Node33</title>
<path fill="none" stroke="#191970" d="M2004.5,-56.2977C2004.5,-48.3834 2004.5,-38.6043 2004.5,-30.0759"/>
<polygon fill="#191970" stroke="#191970" points="2008.0001,-29.8469 2004.5,-19.8469 2001.0001,-29.847 2008.0001,-29.8469"/>
</g>
<!-- Node34&#45;&gt;Node3 -->
<g id="edge65" class="edge">
<title>Node34&#45;&gt;Node3</title>
<path fill="none" stroke="#191970" d="M2242.9903,-128.9717C2305.907,-116.8584 2414.4337,-95.9639 2481.8529,-82.9838"/>
<polygon fill="#191970" stroke="#191970" points="2482.741,-86.3772 2491.899,-81.0496 2481.4176,-79.5034 2482.741,-86.3772"/>
</g>
<!-- Node34&#45;&gt;Node18 -->
<g id="edge67" class="edge">
<title>Node34&#45;&gt;Node18</title>
<path fill="none" stroke="#191970" d="M2180.0234,-128.9922C2165.6454,-118.7865 2142.266,-102.0129 2122.5,-87 2104.8673,-73.6075 2104.2631,-63.6918 2083.5,-56 1984.6554,-19.3824 1240.6406,-27.5216 1135.5,-20 1124.97,-19.2467 1113.8029,-18.2497 1102.9665,-17.1768"/>
<polygon fill="#191970" stroke="#191970" points="1103.0136,-13.6636 1092.7099,-16.1304 1102.303,-20.6274 1103.0136,-13.6636"/>
</g>
<!-- Node34&#45;&gt;Node31 -->
<g id="edge66" class="edge">
<title>Node34&#45;&gt;Node31</title>
<path fill="none" stroke="#191970" d="M2193.5,-128.9005C2193.5,-119.149 2193.5,-103.7597 2193.5,-91.3695"/>
<polygon fill="#191970" stroke="#191970" points="2197.0001,-91.0816 2193.5,-81.0817 2190.0001,-91.0817 2197.0001,-91.0816"/>
</g>
<!-- Node35 -->
<g id="node36" class="node">
<title>Node35</title>
<polygon fill="#ffffff" stroke="#bfbfbf" points="2274.5,-62 2274.5,-81 2384.5,-81 2384.5,-62 2274.5,-62"/>
<text text-anchor="middle" x="2329.5" y="-69" font-family="Helvetica,sans-Serif" font-size="10.00" fill="#000000">AMReX_Geometry.H</text>
</g>
<!-- Node34&#45;&gt;Node35 -->
<g id="edge68" class="edge">
<title>Node34&#45;&gt;Node35</title>
<path fill="none" stroke="#191970" d="M2212.9855,-128.9005C2236.0113,-117.5569 2274.5228,-98.5844 2300.9232,-85.5783"/>
<polygon fill="#191970" stroke="#191970" points="2302.6269,-88.6407 2310.0507,-81.0817 2299.5334,-82.3613 2302.6269,-88.6407"/>
</g>
</g>
</svg>
