<?xml version="1.0" encoding="UTF-8" standalone="no"?>
<!DOCTYPE svg PUBLIC "-//W3C//DTD SVG 1.1//EN"
 "http://www.w3.org/Graphics/SVG/1.1/DTD/svg11.dtd">
<!-- Generated by graphviz version 2.40.1 (20161225.0304)
 -->
<!-- Title: TurbModelDefs.H Pages: 1 -->
<svg width="1861pt" height="397pt"
 viewBox="0.00 0.00 1861.00 397.00" xmlns="http://www.w3.org/2000/svg" xmlns:xlink="http://www.w3.org/1999/xlink">
<g id="graph0" class="graph" transform="scale(1 1) rotate(0) translate(4 393)">
<title>TurbModelDefs.H</title>
<polygon fill="#ffffff" stroke="transparent" points="-4,4 -4,-393 1857,-393 1857,4 -4,4"/>
<!-- Node0 -->
<g id="node1" class="node">
<title>Node0</title>
<polygon fill="#bfbfbf" stroke="#000000" points="311,-369.5 311,-388.5 405,-388.5 405,-369.5 311,-369.5"/>
<text text-anchor="middle" x="358" y="-376.5" font-family="Helvetica,sans-Serif" font-size="10.00" fill="#000000">TurbModelDefs.H</text>
</g>
<!-- Node1 -->
<g id="node2" class="node">
<title>Node1</title>
<g id="a_node2"><a xlink:href="_turbulence_model_8_h.html" target="_top" xlink:title="amr&#45;wind/turbulence\l/TurbulenceModel.H">
<polygon fill="#ffffff" stroke="#000000" points="339,-168.5 339,-198.5 443,-198.5 443,-168.5 339,-168.5"/>
<text text-anchor="start" x="347" y="-186.5" font-family="Helvetica,sans-Serif" font-size="10.00" fill="#000000">amr&#45;wind/turbulence</text>
<text text-anchor="middle" x="391" y="-175.5" font-family="Helvetica,sans-Serif" font-size="10.00" fill="#000000">/TurbulenceModel.H</text>
</a>
</g>
</g>
<!-- Node0&#45;&gt;Node1 -->
<g id="edge1" class="edge">
<title>Node0&#45;&gt;Node1</title>
<path fill="none" stroke="#191970" d="M366.4066,-369.1917C373.3908,-360.3737 382.8331,-346.7315 387,-333 399.7582,-290.9569 397.3975,-239.1739 394.3309,-208.8974"/>
<polygon fill="#191970" stroke="#191970" points="397.7884,-208.3216 393.1959,-198.7739 390.832,-209.1016 397.7884,-208.3216"/>
</g>
<!-- Node9 -->
<g id="node10" class="node">
<title>Node9</title>
<g id="a_node10"><a xlink:href="_const_transport_8_h.html" target="_top" xlink:title="amr&#45;wind/transport\l_models/ConstTransport.H">
<polygon fill="#ffffff" stroke="#000000" points="244,-302.5 244,-332.5 378,-332.5 378,-302.5 244,-302.5"/>
<text text-anchor="start" x="252" y="-320.5" font-family="Helvetica,sans-Serif" font-size="10.00" fill="#000000">amr&#45;wind/transport</text>
<text text-anchor="middle" x="311" y="-309.5" font-family="Helvetica,sans-Serif" font-size="10.00" fill="#000000">_models/ConstTransport.H</text>
</a>
</g>
</g>
<!-- Node0&#45;&gt;Node9 -->
<g id="edge10" class="edge">
<title>Node0&#45;&gt;Node9</title>
<path fill="none" stroke="#191970" d="M350.6563,-369.3906C344.7665,-361.6839 336.2527,-350.5434 328.6222,-340.5589"/>
<polygon fill="#191970" stroke="#191970" points="331.3505,-338.3648 322.4975,-332.5446 325.7887,-342.6153 331.3505,-338.3648"/>
</g>
<!-- Node2 -->
<g id="node3" class="node">
<title>Node2</title>
<polygon fill="#ffffff" stroke="#bfbfbf" points="404.5,-56.5 404.5,-75.5 487.5,-75.5 487.5,-56.5 404.5,-56.5"/>
<text text-anchor="middle" x="446" y="-63.5" font-family="Helvetica,sans-Serif" font-size="10.00" fill="#000000">unordered_map</text>
</g>
<!-- Node1&#45;&gt;Node2 -->
<g id="edge2" class="edge">
<title>Node1&#45;&gt;Node2</title>
<path fill="none" stroke="#191970" d="M398.1903,-168.1389C408.2346,-146.6806 426.4463,-107.7738 437.2607,-84.6702"/>
<polygon fill="#191970" stroke="#191970" points="440.4558,-86.1002 441.5254,-75.5595 434.116,-83.1326 440.4558,-86.1002"/>
</g>
<!-- Node3 -->
<g id="node4" class="node">
<title>Node3</title>
<g id="a_node4"><a xlink:href="_factory_8_h.html" target="_top" xlink:title="amr&#45;wind/core/Factory.H">
<polygon fill="#ffffff" stroke="#000000" points="114.5,-112.5 114.5,-131.5 239.5,-131.5 239.5,-112.5 114.5,-112.5"/>
<text text-anchor="middle" x="177" y="-119.5" font-family="Helvetica,sans-Serif" font-size="10.00" fill="#000000">amr&#45;wind/core/Factory.H</text>
</a>
</g>
</g>
<!-- Node1&#45;&gt;Node3 -->
<g id="edge3" class="edge">
<title>Node1&#45;&gt;Node3</title>
<path fill="none" stroke="#191970" d="M338.9234,-168.534C302.4395,-158.0492 254.2675,-144.2054 219.9739,-134.35"/>
<polygon fill="#191970" stroke="#191970" points="220.8262,-130.9533 210.2485,-131.5551 218.8928,-137.681 220.8262,-130.9533"/>
</g>
<!-- Node8 -->
<g id="node9" class="node">
<title>Node8</title>
<g id="a_node9"><a xlink:href="_field_desc_types_8_h.html" target="_top" xlink:title="amr&#45;wind/core/FieldDescTypes.H">
<polygon fill="#ffffff" stroke="#000000" points="722.5,-.5 722.5,-19.5 885.5,-19.5 885.5,-.5 722.5,-.5"/>
<text text-anchor="middle" x="804" y="-7.5" font-family="Helvetica,sans-Serif" font-size="10.00" fill="#000000">amr&#45;wind/core/FieldDescTypes.H</text>
</a>
</g>
</g>
<!-- Node1&#45;&gt;Node8 -->
<g id="edge9" class="edge">
<title>Node1&#45;&gt;Node8</title>
<path fill="none" stroke="#191970" d="M385.8467,-168.1935C377.9646,-141.5991 366.62,-86.766 395,-56 405.651,-44.4535 594.7071,-27.061 712.0099,-17.3047"/>
<polygon fill="#191970" stroke="#191970" points="712.4002,-20.7845 722.0774,-16.4715 711.8228,-13.8083 712.4002,-20.7845"/>
</g>
<!-- Node3&#45;&gt;Node2 -->
<g id="edge5" class="edge">
<title>Node3&#45;&gt;Node2</title>
<path fill="none" stroke="#191970" d="M222.9371,-112.4369C270.528,-102.5295 344.749,-87.0783 394.3484,-76.7528"/>
<polygon fill="#191970" stroke="#191970" points="395.1555,-80.1599 404.2322,-74.6951 393.7288,-73.3068 395.1555,-80.1599"/>
</g>
<!-- Node4 -->
<g id="node5" class="node">
<title>Node4</title>
<polygon fill="#ffffff" stroke="#bfbfbf" points="296,-56.5 296,-75.5 348,-75.5 348,-56.5 296,-56.5"/>
<text text-anchor="middle" x="322" y="-63.5" font-family="Helvetica,sans-Serif" font-size="10.00" fill="#000000">memory</text>
</g>
<!-- Node3&#45;&gt;Node4 -->
<g id="edge4" class="edge">
<title>Node3&#45;&gt;Node4</title>
<path fill="none" stroke="#191970" d="M201.9264,-112.3733C225.6202,-103.2226 261.4511,-89.3844 287.8068,-79.2057"/>
<polygon fill="#191970" stroke="#191970" points="289.3314,-82.3689 297.3989,-75.5011 286.8094,-75.8389 289.3314,-82.3689"/>
</g>
<!-- Node5 -->
<g id="node6" class="node">
<title>Node5</title>
<polygon fill="#ffffff" stroke="#bfbfbf" points="0,-56.5 0,-75.5 54,-75.5 54,-56.5 0,-56.5"/>
<text text-anchor="middle" x="27" y="-63.5" font-family="Helvetica,sans-Serif" font-size="10.00" fill="#000000">iostream</text>
</g>
<!-- Node3&#45;&gt;Node5 -->
<g id="edge6" class="edge">
<title>Node3&#45;&gt;Node5</title>
<path fill="none" stroke="#191970" d="M151.2141,-112.3733C126.5953,-103.1822 89.31,-89.2624 62.0125,-79.0713"/>
<polygon fill="#191970" stroke="#191970" points="63.042,-75.7198 52.4494,-75.5011 60.5937,-82.2777 63.042,-75.7198"/>
</g>
<!-- Node6 -->
<g id="node7" class="node">
<title>Node6</title>
<polygon fill="#ffffff" stroke="#bfbfbf" points="72.5,-56.5 72.5,-75.5 159.5,-75.5 159.5,-56.5 72.5,-56.5"/>
<text text-anchor="middle" x="116" y="-63.5" font-family="Helvetica,sans-Serif" font-size="10.00" fill="#000000">AMReX_Print.H</text>
</g>
<!-- Node3&#45;&gt;Node6 -->
<g id="edge7" class="edge">
<title>Node3&#45;&gt;Node6</title>
<path fill="none" stroke="#191970" d="M166.3746,-112.2455C157.4527,-104.0549 144.512,-92.1749 133.9808,-82.5069"/>
<polygon fill="#191970" stroke="#191970" points="136.2371,-79.8271 126.5036,-75.6427 131.5032,-84.9837 136.2371,-79.8271"/>
</g>
<!-- Node7 -->
<g id="node8" class="node">
<title>Node7</title>
<polygon fill="#ffffff" stroke="#bfbfbf" points="178,-56.5 178,-75.5 240,-75.5 240,-56.5 178,-56.5"/>
<text text-anchor="middle" x="209" y="-63.5" font-family="Helvetica,sans-Serif" font-size="10.00" fill="#000000">AMReX.H</text>
</g>
<!-- Node3&#45;&gt;Node7 -->
<g id="edge8" class="edge">
<title>Node3&#45;&gt;Node7</title>
<path fill="none" stroke="#191970" d="M182.574,-112.2455C186.9331,-104.617 193.1211,-93.7881 198.4133,-84.5267"/>
<polygon fill="#191970" stroke="#191970" points="201.5673,-86.0616 203.4899,-75.6427 195.4896,-82.5886 201.5673,-86.0616"/>
</g>
<!-- Node10 -->
<g id="node11" class="node">
<title>Node10</title>
<g id="a_node11"><a xlink:href="_transport_model_8_h.html" target="_top" xlink:title="amr&#45;wind/transport\l_models/TransportModel.H">
<polygon fill="#ffffff" stroke="#000000" points="110,-235.5 110,-265.5 244,-265.5 244,-235.5 110,-235.5"/>
<text text-anchor="start" x="118" y="-253.5" font-family="Helvetica,sans-Serif" font-size="10.00" fill="#000000">amr&#45;wind/transport</text>
<text text-anchor="middle" x="177" y="-242.5" font-family="Helvetica,sans-Serif" font-size="10.00" fill="#000000">_models/TransportModel.H</text>
</a>
</g>
</g>
<!-- Node9&#45;&gt;Node10 -->
<g id="edge11" class="edge">
<title>Node9&#45;&gt;Node10</title>
<path fill="none" stroke="#191970" d="M280.9278,-302.4639C261.9239,-292.9619 237.1558,-280.5779 216.5659,-270.283"/>
<polygon fill="#191970" stroke="#191970" points="217.945,-267.0594 207.4355,-265.7177 214.8145,-273.3204 217.945,-267.0594"/>
</g>
<!-- Node27 -->
<g id="node28" class="node">
<title>Node27</title>
<polygon fill="#ffffff" stroke="#bfbfbf" points="262,-241 262,-260 378,-260 378,-241 262,-241"/>
<text text-anchor="middle" x="320" y="-248" font-family="Helvetica,sans-Serif" font-size="10.00" fill="#000000">AMReX_ParmParse.H</text>
</g>
<!-- Node9&#45;&gt;Node27 -->
<g id="edge49" class="edge">
<title>Node9&#45;&gt;Node27</title>
<path fill="none" stroke="#191970" d="M313.0422,-302.2967C314.322,-292.7699 315.9842,-280.3954 317.363,-270.1306"/>
<polygon fill="#191970" stroke="#191970" points="320.8539,-270.4319 318.7165,-260.055 313.9162,-269.5 320.8539,-270.4319"/>
</g>
<!-- Node10&#45;&gt;Node3 -->
<g id="edge12" class="edge">
<title>Node10&#45;&gt;Node3</title>
<path fill="none" stroke="#191970" d="M177,-235.2548C177,-211.9744 177,-167.5607 177,-141.8117"/>
<polygon fill="#191970" stroke="#191970" points="180.5001,-141.7358 177,-131.7358 173.5001,-141.7358 180.5001,-141.7358"/>
</g>
<!-- Node11 -->
<g id="node12" class="node">
<title>Node11</title>
<g id="a_node12"><a xlink:href="_field_repo_8_h.html" target="_top" xlink:title="amr&#45;wind/core/FieldRepo.H">
<polygon fill="#ffffff" stroke="#000000" points="1047,-174 1047,-193 1183,-193 1183,-174 1047,-174"/>
<text text-anchor="middle" x="1115" y="-181" font-family="Helvetica,sans-Serif" font-size="10.00" fill="#000000">amr&#45;wind/core/FieldRepo.H</text>
</a>
</g>
</g>
<!-- Node10&#45;&gt;Node11 -->
<g id="edge13" class="edge">
<title>Node10&#45;&gt;Node11</title>
<path fill="none" stroke="#191970" d="M244.05,-236.2895C247.0688,-235.8189 250.0626,-235.3853 253,-235 540.1639,-197.3311 884.8054,-187.1868 1036.6437,-184.4765"/>
<polygon fill="#191970" stroke="#191970" points="1036.8636,-187.9734 1046.8017,-184.3013 1036.7428,-180.9744 1036.8636,-187.9734"/>
</g>
<!-- Node11&#45;&gt;Node2 -->
<g id="edge15" class="edge">
<title>Node11&#45;&gt;Node2</title>
<path fill="none" stroke="#191970" d="M1046.876,-174.966C975.0695,-165.662 858.7627,-149.7153 759,-132 666.2846,-115.5361 559.0748,-91.9275 497.2456,-77.8614"/>
<polygon fill="#191970" stroke="#191970" points="497.8798,-74.4162 487.3518,-75.6038 496.3225,-81.2408 497.8798,-74.4162"/>
</g>
<!-- Node11&#45;&gt;Node8 -->
<g id="edge16" class="edge">
<title>Node11&#45;&gt;Node8</title>
<path fill="none" stroke="#191970" d="M1046.8483,-179.7916C857.6136,-168.7966 336.3578,-133.5081 287,-76 281.2108,-69.2548 280.9996,-62.558 287,-56 294.0913,-48.2497 565.308,-27.3733 711.9983,-16.6127"/>
<polygon fill="#191970" stroke="#191970" points="712.6216,-20.0766 722.3394,-15.8558 712.1106,-13.0952 712.6216,-20.0766"/>
</g>
<!-- Node12 -->
<g id="node13" class="node">
<title>Node12</title>
<polygon fill="#ffffff" stroke="#bfbfbf" points="1539.5,-.5 1539.5,-19.5 1580.5,-19.5 1580.5,-.5 1539.5,-.5"/>
<text text-anchor="middle" x="1560" y="-7.5" font-family="Helvetica,sans-Serif" font-size="10.00" fill="#000000">string</text>
</g>
<!-- Node11&#45;&gt;Node12 -->
<g id="edge14" class="edge">
<title>Node11&#45;&gt;Node12</title>
<path fill="none" stroke="#191970" d="M1183.2399,-177.1184C1271.4082,-168.273 1419.6714,-151.191 1471,-132 1514.0723,-115.8959 1535.3676,-116.0293 1558,-76 1565.9245,-61.9842 1565.7555,-43.481 1563.9886,-29.6334"/>
<polygon fill="#191970" stroke="#191970" points="1567.4314,-28.999 1562.3531,-19.7006 1560.5244,-30.1364 1567.4314,-28.999"/>
</g>
<!-- Node13 -->
<g id="node14" class="node">
<title>Node13</title>
<g id="a_node14"><a xlink:href="_field_utils_8_h.html" target="_top" xlink:title="amr&#45;wind/core/FieldUtils.H">
<polygon fill="#ffffff" stroke="#000000" points="505.5,-56.5 505.5,-75.5 638.5,-75.5 638.5,-56.5 505.5,-56.5"/>
<text text-anchor="middle" x="572" y="-63.5" font-family="Helvetica,sans-Serif" font-size="10.00" fill="#000000">amr&#45;wind/core/FieldUtils.H</text>
</a>
</g>
</g>
<!-- Node11&#45;&gt;Node13 -->
<g id="edge17" class="edge">
<title>Node11&#45;&gt;Node13</title>
<path fill="none" stroke="#191970" d="M1060.7983,-173.9633C1006.1694,-164.1633 919.5126,-148.1033 845,-132 765.3001,-114.7757 673.2365,-91.8923 618.9685,-78.0924"/>
<polygon fill="#191970" stroke="#191970" points="619.515,-74.6198 608.9603,-75.5413 617.786,-81.4029 619.515,-74.6198"/>
</g>
<!-- Node14 -->
<g id="node15" class="node">
<title>Node14</title>
<polygon fill="#ffffff" stroke="#bfbfbf" points="1017,-.5 1017,-19.5 1121,-19.5 1121,-.5 1017,-.5"/>
<text text-anchor="middle" x="1069" y="-7.5" font-family="Helvetica,sans-Serif" font-size="10.00" fill="#000000">AMReX_MultiFab.H</text>
</g>
<!-- Node11&#45;&gt;Node14 -->
<g id="edge47" class="edge">
<title>Node11&#45;&gt;Node14</title>
<path fill="none" stroke="#191970" d="M1183.1187,-174.9363C1315.8214,-156.8881 1591.7712,-111.9598 1541,-56 1513.9877,-26.2272 1253.4655,-15.1088 1131.4547,-11.5103"/>
<polygon fill="#191970" stroke="#191970" points="1131.2449,-8.0029 1121.1486,-11.2145 1131.0441,-15 1131.2449,-8.0029"/>
</g>
<!-- Node16 -->
<g id="node17" class="node">
<title>Node16</title>
<g id="a_node17"><a xlink:href="_field_8_h.html" target="_top" xlink:title="amr&#45;wind/core/Field.H">
<polygon fill="#ffffff" stroke="#000000" points="1058.5,-112.5 1058.5,-131.5 1171.5,-131.5 1171.5,-112.5 1058.5,-112.5"/>
<text text-anchor="middle" x="1115" y="-119.5" font-family="Helvetica,sans-Serif" font-size="10.00" fill="#000000">amr&#45;wind/core/Field.H</text>
</a>
</g>
</g>
<!-- Node11&#45;&gt;Node16 -->
<g id="edge21" class="edge">
<title>Node11&#45;&gt;Node16</title>
<path fill="none" stroke="#191970" d="M1115,-173.8906C1115,-165.3657 1115,-152.6392 1115,-141.9235"/>
<polygon fill="#191970" stroke="#191970" points="1118.5001,-141.7448 1115,-131.7449 1111.5001,-141.7449 1118.5001,-141.7448"/>
</g>
<!-- Node22 -->
<g id="node23" class="node">
<title>Node22</title>
<g id="a_node23"><a xlink:href="_int_field_8_h.html" target="_top" xlink:title="amr&#45;wind/core/IntField.H">
<polygon fill="#ffffff" stroke="#000000" points="1729,-112.5 1729,-131.5 1853,-131.5 1853,-112.5 1729,-112.5"/>
<text text-anchor="middle" x="1791" y="-119.5" font-family="Helvetica,sans-Serif" font-size="10.00" fill="#000000">amr&#45;wind/core/IntField.H</text>
</a>
</g>
</g>
<!-- Node11&#45;&gt;Node22 -->
<g id="edge35" class="edge">
<title>Node11&#45;&gt;Node22</title>
<path fill="none" stroke="#191970" d="M1183.3159,-178.2207C1293.4336,-169.5594 1516.9659,-151.3515 1706,-132 1710.1573,-131.5744 1714.4271,-131.1216 1718.7344,-130.6528"/>
<polygon fill="#191970" stroke="#191970" points="1719.2645,-134.1156 1728.8179,-129.5349 1718.4931,-127.1582 1719.2645,-134.1156"/>
</g>
<!-- Node23 -->
<g id="node24" class="node">
<title>Node23</title>
<polygon fill="#ffffff" stroke="#bfbfbf" points="1664.5,-56.5 1664.5,-75.5 1771.5,-75.5 1771.5,-56.5 1664.5,-56.5"/>
<text text-anchor="middle" x="1718" y="-63.5" font-family="Helvetica,sans-Serif" font-size="10.00" fill="#000000">AMReX_iMultiFab.H</text>
</g>
<!-- Node11&#45;&gt;Node23 -->
<g id="edge48" class="edge">
<title>Node11&#45;&gt;Node23</title>
<path fill="none" stroke="#191970" d="M1183.3494,-182.504C1308.4108,-179.7711 1568.6966,-169.6048 1650,-132 1672.9673,-121.3771 1692.8835,-99.6935 1705.1239,-84.0753"/>
<polygon fill="#191970" stroke="#191970" points="1708.2004,-85.8072 1711.4089,-75.7098 1702.6039,-81.6025 1708.2004,-85.8072"/>
</g>
<!-- Node24 -->
<g id="node25" class="node">
<title>Node24</title>
<g id="a_node25"><a xlink:href="_scratch_field_8_h.html" target="_top" xlink:title="amr&#45;wind/core/ScratchField.H">
<polygon fill="#ffffff" stroke="#000000" points="854,-112.5 854,-131.5 1000,-131.5 1000,-112.5 854,-112.5"/>
<text text-anchor="middle" x="927" y="-119.5" font-family="Helvetica,sans-Serif" font-size="10.00" fill="#000000">amr&#45;wind/core/ScratchField.H</text>
</a>
</g>
</g>
<!-- Node11&#45;&gt;Node24 -->
<g id="edge39" class="edge">
<title>Node11&#45;&gt;Node24</title>
<path fill="none" stroke="#191970" d="M1085.625,-173.8906C1053.3414,-163.3298 1001.3465,-146.3208 965.7453,-134.6747"/>
<polygon fill="#191970" stroke="#191970" points="966.7613,-131.3246 956.1687,-131.5419 964.5849,-137.9776 966.7613,-131.3246"/>
</g>
<!-- Node26 -->
<g id="node27" class="node">
<title>Node26</title>
<polygon fill="#ffffff" stroke="#bfbfbf" points="1190,-112.5 1190,-131.5 1296,-131.5 1296,-112.5 1190,-112.5"/>
<text text-anchor="middle" x="1243" y="-119.5" font-family="Helvetica,sans-Serif" font-size="10.00" fill="#000000">AMReX_AmrCore.H</text>
</g>
<!-- Node11&#45;&gt;Node26 -->
<g id="edge46" class="edge">
<title>Node11&#45;&gt;Node26</title>
<path fill="none" stroke="#191970" d="M1135,-173.8906C1156.2289,-163.6908 1189.9762,-147.4763 1214.096,-135.8875"/>
<polygon fill="#191970" stroke="#191970" points="1215.6426,-139.0275 1223.1404,-131.5419 1212.6111,-132.7179 1215.6426,-139.0275"/>
</g>
<!-- Node13&#45;&gt;Node8 -->
<g id="edge18" class="edge">
<title>Node13&#45;&gt;Node8</title>
<path fill="none" stroke="#191970" d="M611.6186,-56.4369C651.1568,-46.8932 712.0069,-32.2052 754.6582,-21.9101"/>
<polygon fill="#191970" stroke="#191970" points="755.6452,-25.2724 764.5448,-19.5237 754.0027,-18.4679 755.6452,-25.2724"/>
</g>
<!-- Node13&#45;&gt;Node14 -->
<g id="edge19" class="edge">
<title>Node13&#45;&gt;Node14</title>
<path fill="none" stroke="#191970" d="M638.8319,-60.0743C724.3427,-52.2304 876.9626,-37.3493 1007,-20 1007.1013,-19.9865 1007.2027,-19.9729 1007.3042,-19.9593"/>
<polygon fill="#191970" stroke="#191970" points="1007.5182,-23.4637 1016.9352,-18.6088 1006.546,-16.5315 1007.5182,-23.4637"/>
</g>
<!-- Node15 -->
<g id="node16" class="node">
<title>Node15</title>
<polygon fill="#ffffff" stroke="#bfbfbf" points="514,-.5 514,-19.5 630,-19.5 630,-.5 514,-.5"/>
<text text-anchor="middle" x="572" y="-7.5" font-family="Helvetica,sans-Serif" font-size="10.00" fill="#000000">AMReX_Interpolater.H</text>
</g>
<!-- Node13&#45;&gt;Node15 -->
<g id="edge20" class="edge">
<title>Node13&#45;&gt;Node15</title>
<path fill="none" stroke="#191970" d="M572,-56.2455C572,-48.9382 572,-38.6944 572,-29.7046"/>
<polygon fill="#191970" stroke="#191970" points="575.5001,-29.6426 572,-19.6427 568.5001,-29.6427 575.5001,-29.6426"/>
</g>
<!-- Node16&#45;&gt;Node2 -->
<g id="edge24" class="edge">
<title>Node16&#45;&gt;Node2</title>
<path fill="none" stroke="#191970" d="M1058.3606,-116.4032C1042.4035,-114.8954 1025.0274,-113.3182 1009,-112 784.5452,-93.5396 724.2757,-106.0938 497.8832,-76.1132"/>
<polygon fill="#191970" stroke="#191970" points="498.051,-72.6046 487.6752,-74.7477 497.1228,-79.5428 498.051,-72.6046"/>
</g>
<!-- Node16&#45;&gt;Node4 -->
<g id="edge23" class="edge">
<title>Node16&#45;&gt;Node4</title>
<path fill="none" stroke="#191970" d="M1058.3701,-116.2828C1042.4132,-114.7737 1025.0347,-113.226 1009,-112 736.438,-91.1595 667.0632,-102.5699 395,-76 383.1081,-74.8386 370.1757,-73.1935 358.5453,-71.5722"/>
<polygon fill="#191970" stroke="#191970" points="358.6928,-68.0576 348.2976,-70.1045 357.7003,-74.9869 358.6928,-68.0576"/>
</g>
<!-- Node16&#45;&gt;Node8 -->
<g id="edge29" class="edge">
<title>Node16&#45;&gt;Node8</title>
<path fill="none" stroke="#191970" d="M1072.0095,-112.4291C1037.475,-104.2345 987.983,-91.3448 946,-76 904.8872,-60.9732 859.3164,-38.7395 831.1597,-24.3094"/>
<polygon fill="#191970" stroke="#191970" points="832.4531,-21.038 821.9625,-19.5553 829.2387,-27.2564 832.4531,-21.038"/>
</g>
<!-- Node16&#45;&gt;Node12 -->
<g id="edge22" class="edge">
<title>Node16&#45;&gt;Node12</title>
<path fill="none" stroke="#191970" d="M1171.8563,-113.1983C1174.9472,-112.7783 1178.0103,-112.3757 1181,-112 1260.7715,-101.9747 1479.2535,-127.4915 1541,-76 1554.2811,-64.9247 1558.6121,-45.2153 1559.8713,-30.2095"/>
<polygon fill="#191970" stroke="#191970" points="1563.3833,-30.0183 1560.3329,-19.8721 1556.3902,-29.706 1563.3833,-30.0183"/>
</g>
<!-- Node16&#45;&gt;Node14 -->
<g id="edge25" class="edge">
<title>Node16&#45;&gt;Node14</title>
<path fill="none" stroke="#191970" d="M1113.4739,-112.2943C1111.191,-99.1461 1106.2493,-75.1213 1098,-56 1093.8156,-46.3009 1087.749,-36.2927 1082.2449,-28.0985"/>
<polygon fill="#191970" stroke="#191970" points="1084.9958,-25.9246 1076.3999,-19.7309 1079.2572,-29.9332 1084.9958,-25.9246"/>
</g>
<!-- Node17 -->
<g id="node18" class="node">
<title>Node17</title>
<polygon fill="#ffffff" stroke="#bfbfbf" points="1183.5,-56.5 1183.5,-75.5 1282.5,-75.5 1282.5,-56.5 1183.5,-56.5"/>
<text text-anchor="middle" x="1233" y="-63.5" font-family="Helvetica,sans-Serif" font-size="10.00" fill="#000000">AMReX_BCRec.H</text>
</g>
<!-- Node16&#45;&gt;Node17 -->
<g id="edge26" class="edge">
<title>Node16&#45;&gt;Node17</title>
<path fill="none" stroke="#191970" d="M1135.2849,-112.3733C1154.1421,-103.4241 1182.446,-89.9917 1203.7455,-79.8835"/>
<polygon fill="#191970" stroke="#191970" points="1205.4461,-82.9506 1212.9798,-75.5011 1202.4449,-76.6266 1205.4461,-82.9506"/>
</g>
<!-- Node18 -->
<g id="node19" class="node">
<title>Node18</title>
<polygon fill="#ffffff" stroke="#bfbfbf" points="1300.5,-56.5 1300.5,-75.5 1385.5,-75.5 1385.5,-56.5 1300.5,-56.5"/>
<text text-anchor="middle" x="1343" y="-63.5" font-family="Helvetica,sans-Serif" font-size="10.00" fill="#000000">AMReX_Gpu.H</text>
</g>
<!-- Node16&#45;&gt;Node18 -->
<g id="edge27" class="edge">
<title>Node16&#45;&gt;Node18</title>
<path fill="none" stroke="#191970" d="M1153.9355,-112.4369C1192.792,-102.8932 1252.593,-88.2052 1294.5089,-77.9101"/>
<polygon fill="#191970" stroke="#191970" points="1295.3486,-81.308 1304.2251,-75.5237 1293.6788,-74.51 1295.3486,-81.308"/>
</g>
<!-- Node19 -->
<g id="node20" class="node">
<title>Node19</title>
<g id="a_node20"><a xlink:href="incflo__enums_8_h.html" target="_top" xlink:title="amr&#45;wind/incflo_enums.H">
<polygon fill="#ffffff" stroke="#000000" points="1404,-56.5 1404,-75.5 1532,-75.5 1532,-56.5 1404,-56.5"/>
<text text-anchor="middle" x="1468" y="-63.5" font-family="Helvetica,sans-Serif" font-size="10.00" fill="#000000">amr&#45;wind/incflo_enums.H</text>
</a>
</g>
</g>
<!-- Node16&#45;&gt;Node19 -->
<g id="edge28" class="edge">
<title>Node16&#45;&gt;Node19</title>
<path fill="none" stroke="#191970" d="M1171.7156,-113.0026C1233.2604,-103.2391 1331.5967,-87.639 1397.928,-77.1162"/>
<polygon fill="#191970" stroke="#191970" points="1398.5528,-80.561 1407.8809,-75.5373 1397.456,-73.6474 1398.5528,-80.561"/>
</g>
<!-- Node20 -->
<g id="node21" class="node">
<title>Node20</title>
<g id="a_node21"><a xlink:href="_view_field_8_h.html" target="_top" xlink:title="amr&#45;wind/core/ViewField.H">
<polygon fill="#ffffff" stroke="#000000" points="955,-56.5 955,-75.5 1089,-75.5 1089,-56.5 955,-56.5"/>
<text text-anchor="middle" x="1022" y="-63.5" font-family="Helvetica,sans-Serif" font-size="10.00" fill="#000000">amr&#45;wind/core/ViewField.H</text>
</a>
</g>
</g>
<!-- Node16&#45;&gt;Node20 -->
<g id="edge30" class="edge">
<title>Node16&#45;&gt;Node20</title>
<path fill="none" stroke="#191970" d="M1098.8006,-112.2455C1084.3982,-103.5731 1063.1268,-90.7645 1046.6201,-80.825"/>
<polygon fill="#191970" stroke="#191970" points="1048.386,-77.8028 1038.0137,-75.6427 1044.775,-83.7996 1048.386,-77.8028"/>
</g>
<!-- Node20&#45;&gt;Node8 -->
<g id="edge32" class="edge">
<title>Node20&#45;&gt;Node8</title>
<path fill="none" stroke="#191970" d="M984.5245,-56.3733C947.4897,-46.8598 890.7318,-32.2797 850.7639,-22.0127"/>
<polygon fill="#191970" stroke="#191970" points="851.5429,-18.5993 840.9865,-19.5011 849.8012,-25.3792 851.5429,-18.5993"/>
</g>
<!-- Node20&#45;&gt;Node12 -->
<g id="edge31" class="edge">
<title>Node20&#45;&gt;Node12</title>
<path fill="none" stroke="#191970" d="M1089.1699,-57.5893C1093.8489,-57.0398 1098.494,-56.5049 1103,-56 1263.1739,-38.0538 1455.3048,-19.7706 1529.0797,-12.87"/>
<polygon fill="#191970" stroke="#191970" points="1529.8539,-16.3131 1539.4854,-11.8989 1529.2033,-9.3433 1529.8539,-16.3131"/>
</g>
<!-- Node20&#45;&gt;Node14 -->
<g id="edge33" class="edge">
<title>Node20&#45;&gt;Node14</title>
<path fill="none" stroke="#191970" d="M1030.1868,-56.2455C1036.8589,-48.2958 1046.4479,-36.8706 1054.4253,-27.3656"/>
<polygon fill="#191970" stroke="#191970" points="1057.1592,-29.5525 1060.907,-19.6427 1051.7974,-25.0524 1057.1592,-29.5525"/>
</g>
<!-- Node21 -->
<g id="node22" class="node">
<title>Node21</title>
<polygon fill="#ffffff" stroke="#bfbfbf" points="903.5,-.5 903.5,-19.5 998.5,-19.5 998.5,-.5 903.5,-.5"/>
<text text-anchor="middle" x="951" y="-7.5" font-family="Helvetica,sans-Serif" font-size="10.00" fill="#000000">AMReX_Vector.H</text>
</g>
<!-- Node20&#45;&gt;Node21 -->
<g id="edge34" class="edge">
<title>Node20&#45;&gt;Node21</title>
<path fill="none" stroke="#191970" d="M1009.6327,-56.2455C999.0446,-47.8943 983.5936,-35.7076 971.2107,-25.9408"/>
<polygon fill="#191970" stroke="#191970" points="973.2447,-23.0875 963.2255,-19.6427 968.9097,-28.5837 973.2447,-23.0875"/>
</g>
<!-- Node22&#45;&gt;Node8 -->
<g id="edge37" class="edge">
<title>Node22&#45;&gt;Node8</title>
<path fill="none" stroke="#191970" d="M1792.9145,-112.1717C1795.1369,-97.4948 1796.7104,-70.0735 1781,-56 1745.7004,-24.3784 1004.5961,-23.7272 895.9217,-19.8383"/>
<polygon fill="#191970" stroke="#191970" points="896.0535,-16.3406 885.8938,-19.3457 895.7099,-23.3322 896.0535,-16.3406"/>
</g>
<!-- Node22&#45;&gt;Node12 -->
<g id="edge36" class="edge">
<title>Node22&#45;&gt;Node12</title>
<path fill="none" stroke="#191970" d="M1799.5796,-112.4356C1810.9421,-98.583 1828.0007,-72.764 1814,-56 1785.8841,-22.3349 1652.259,-13.2582 1590.9157,-10.8504"/>
<polygon fill="#191970" stroke="#191970" points="1590.8051,-7.3443 1580.6865,-10.485 1590.5551,-14.3398 1590.8051,-7.3443"/>
</g>
<!-- Node22&#45;&gt;Node23 -->
<g id="edge38" class="edge">
<title>Node22&#45;&gt;Node23</title>
<path fill="none" stroke="#191970" d="M1778.2844,-112.2455C1767.398,-103.8943 1751.5117,-91.7076 1738.78,-81.9408"/>
<polygon fill="#191970" stroke="#191970" points="1740.6346,-78.9523 1730.5699,-75.6427 1736.3739,-84.5063 1740.6346,-78.9523"/>
</g>
<!-- Node24&#45;&gt;Node8 -->
<g id="edge41" class="edge">
<title>Node24&#45;&gt;Node8</title>
<path fill="none" stroke="#191970" d="M915.7712,-112.2086C905.1913,-102.9496 888.9286,-88.6311 875,-76 856.8667,-59.5559 836.4187,-40.4917 822.1402,-27.0933"/>
<polygon fill="#191970" stroke="#191970" points="824.194,-24.2203 814.5103,-19.9219 819.3998,-29.321 824.194,-24.2203"/>
</g>
<!-- Node24&#45;&gt;Node12 -->
<g id="edge40" class="edge">
<title>Node24&#45;&gt;Node12</title>
<path fill="none" stroke="#191970" d="M962.2356,-112.4821C1028.144,-94.6986 1164.4164,-58.03 1175,-56 1305.5715,-30.955 1463.829,-17.1746 1529.3344,-12.1847"/>
<polygon fill="#191970" stroke="#191970" points="1529.6802,-15.6687 1539.3914,-11.4326 1529.1582,-8.6882 1529.6802,-15.6687"/>
</g>
<!-- Node24&#45;&gt;Node14 -->
<g id="edge43" class="edge">
<title>Node24&#45;&gt;Node14</title>
<path fill="none" stroke="#191970" d="M927.1753,-112.1684C927.9519,-97.983 931.4236,-71.7535 946,-56 962.0505,-38.6534 985.2699,-27.8126 1007.2209,-21.0531"/>
<polygon fill="#191970" stroke="#191970" points="1008.1945,-24.415 1016.8553,-18.3125 1006.2792,-17.6821 1008.1945,-24.415"/>
</g>
<!-- Node24&#45;&gt;Node20 -->
<g id="edge42" class="edge">
<title>Node24&#45;&gt;Node20</title>
<path fill="none" stroke="#191970" d="M943.5477,-112.2455C958.2599,-103.5731 979.9888,-90.7645 996.8505,-80.825"/>
<polygon fill="#191970" stroke="#191970" points="998.8046,-83.736 1005.6419,-75.6427 995.2498,-77.7057 998.8046,-83.736"/>
</g>
<!-- Node24&#45;&gt;Node21 -->
<g id="edge44" class="edge">
<title>Node24&#45;&gt;Node21</title>
<path fill="none" stroke="#191970" d="M853.8869,-118.0476C790.9515,-112.9346 707.041,-101.437 686,-76 680.3344,-69.1507 680.2756,-62.8003 686,-56 714.4983,-22.1456 833.2069,-27.2941 893.2644,-19.8456"/>
<polygon fill="#191970" stroke="#191970" points="894.0296,-23.2709 903.4157,-18.3565 893.0136,-16.345 894.0296,-23.2709"/>
</g>
<!-- Node25 -->
<g id="node26" class="node">
<title>Node25</title>
<polygon fill="#ffffff" stroke="#bfbfbf" points="695,-56.5 695,-75.5 823,-75.5 823,-56.5 695,-56.5"/>
<text text-anchor="middle" x="759" y="-63.5" font-family="Helvetica,sans-Serif" font-size="10.00" fill="#000000">AMReX_PhysBCFunct.H</text>
</g>
<!-- Node24&#45;&gt;Node25 -->
<g id="edge45" class="edge">
<title>Node24&#45;&gt;Node25</title>
<path fill="none" stroke="#191970" d="M898.1198,-112.3733C870.1839,-103.0613 827.6858,-88.8953 797.0131,-78.671"/>
<polygon fill="#191970" stroke="#191970" points="798.097,-75.3431 787.5034,-75.5011 795.8834,-81.9839 798.097,-75.3431"/>
</g>
</g>
</svg>
