<?xml version="1.0" encoding="UTF-8" standalone="no"?>
<!DOCTYPE svg PUBLIC "-//W3C//DTD SVG 1.1//EN"
 "http://www.w3.org/Graphics/SVG/1.1/DTD/svg11.dtd">
<!-- Generated by graphviz version 2.40.1 (20161225.0304)
 -->
<!-- Title: UDF.cpp Pages: 1 -->
<svg width="1923pt" height="263pt"
 viewBox="0.00 0.00 1922.86 263.00" xmlns="http://www.w3.org/2000/svg" xmlns:xlink="http://www.w3.org/1999/xlink">
<g id="graph0" class="graph" transform="scale(1 1) rotate(0) translate(4 259)">
<title>UDF.cpp</title>
<polygon fill="#ffffff" stroke="transparent" points="-4,4 -4,-259 1918.8607,-259 1918.8607,4 -4,4"/>
<!-- Node0 -->
<g id="node1" class="node">
<title>Node0</title>
<polygon fill="#bfbfbf" stroke="#000000" points="1494.8607,-235.5 1494.8607,-254.5 1550.8607,-254.5 1550.8607,-235.5 1494.8607,-235.5"/>
<text text-anchor="middle" x="1522.8607" y="-242.5" font-family="Helvetica,sans-Serif" font-size="10.00" fill="#000000">UDF.cpp</text>
</g>
<!-- Node1 -->
<g id="node2" class="node">
<title>Node1</title>
<g id="a_node2"><a xlink:href="_u_d_f_8_h.html" target="_top" xlink:title="amr&#45;wind/physics/udfs\l/UDF.H">
<polygon fill="#ffffff" stroke="#000000" points="1399.3607,-168.5 1399.3607,-198.5 1514.3607,-198.5 1514.3607,-168.5 1399.3607,-168.5"/>
<text text-anchor="start" x="1407.3607" y="-186.5" font-family="Helvetica,sans-Serif" font-size="10.00" fill="#000000">amr&#45;wind/physics/udfs</text>
<text text-anchor="middle" x="1456.8607" y="-175.5" font-family="Helvetica,sans-Serif" font-size="10.00" fill="#000000">/UDF.H</text>
</a>
</g>
</g>
<!-- Node0&#45;&gt;Node1 -->
<g id="edge1" class="edge">
<title>Node0&#45;&gt;Node1</title>
<path fill="none" stroke="#191970" d="M1512.5482,-235.3906C1503.9467,-227.3756 1491.3595,-215.6466 1480.3273,-205.3666"/>
<polygon fill="#191970" stroke="#191970" points="1482.7082,-202.8012 1473.0061,-198.5446 1477.9361,-207.9225 1482.7082,-202.8012"/>
</g>
<!-- Node9 -->
<g id="node10" class="node">
<title>Node9</title>
<g id="a_node10"><a xlink:href="_field_8_h.html" target="_top" xlink:title="amr&#45;wind/core/Field.H">
<polygon fill="#ffffff" stroke="#000000" points="1093.3607,-112.5 1093.3607,-131.5 1206.3607,-131.5 1206.3607,-112.5 1093.3607,-112.5"/>
<text text-anchor="middle" x="1149.8607" y="-119.5" font-family="Helvetica,sans-Serif" font-size="10.00" fill="#000000">amr&#45;wind/core/Field.H</text>
</a>
</g>
</g>
<!-- Node0&#45;&gt;Node9 -->
<g id="edge9" class="edge">
<title>Node0&#45;&gt;Node9</title>
<path fill="none" stroke="#191970" d="M1494.825,-235.755C1428.8322,-213.9933 1263.5966,-159.5054 1188.3134,-134.6801"/>
<polygon fill="#191970" stroke="#191970" points="1189.3274,-131.3292 1178.7344,-131.5213 1187.1352,-137.9771 1189.3274,-131.3292"/>
</g>
<!-- Node17 -->
<g id="node18" class="node">
<title>Node17</title>
<g id="a_node18"><a xlink:href="_field_repo_8_h.html" target="_top" xlink:title="amr&#45;wind/core/FieldRepo.H">
<polygon fill="#ffffff" stroke="#000000" points="606.8607,-174 606.8607,-193 742.8607,-193 742.8607,-174 606.8607,-174"/>
<text text-anchor="middle" x="674.8607" y="-181" font-family="Helvetica,sans-Serif" font-size="10.00" fill="#000000">amr&#45;wind/core/FieldRepo.H</text>
</a>
</g>
</g>
<!-- Node0&#45;&gt;Node17 -->
<g id="edge23" class="edge">
<title>Node0&#45;&gt;Node17</title>
<path fill="none" stroke="#191970" d="M1494.6462,-242.9538C1378.4406,-234.5261 934.4702,-202.3278 752.9232,-189.1614"/>
<polygon fill="#191970" stroke="#191970" points="753.1388,-185.6679 742.9118,-188.4353 752.6324,-192.6496 753.1388,-185.6679"/>
</g>
<!-- Node25 -->
<g id="node26" class="node">
<title>Node25</title>
<g id="a_node26"><a xlink:href="_linear_profile_8_h.html" target="_top" xlink:title="amr&#45;wind/physics/udfs\l/LinearProfile.H">
<polygon fill="#ffffff" stroke="#000000" points="1532.3607,-168.5 1532.3607,-198.5 1647.3607,-198.5 1647.3607,-168.5 1532.3607,-168.5"/>
<text text-anchor="start" x="1540.3607" y="-186.5" font-family="Helvetica,sans-Serif" font-size="10.00" fill="#000000">amr&#45;wind/physics/udfs</text>
<text text-anchor="middle" x="1589.8607" y="-175.5" font-family="Helvetica,sans-Serif" font-size="10.00" fill="#000000">/LinearProfile.H</text>
</a>
</g>
</g>
<!-- Node0&#45;&gt;Node25 -->
<g id="edge46" class="edge">
<title>Node0&#45;&gt;Node25</title>
<path fill="none" stroke="#191970" d="M1533.3294,-235.3906C1542.0612,-227.3756 1554.8391,-215.6466 1566.0385,-205.3666"/>
<polygon fill="#191970" stroke="#191970" points="1568.4704,-207.8853 1573.4706,-198.5446 1563.7368,-202.7284 1568.4704,-207.8853"/>
</g>
<!-- Node27 -->
<g id="node28" class="node">
<title>Node27</title>
<g id="a_node28"><a xlink:href="_power_law_profile_8_h.html" target="_top" xlink:title="amr&#45;wind/physics/udfs\l/PowerLawProfile.H">
<polygon fill="#ffffff" stroke="#000000" points="1665.3607,-168.5 1665.3607,-198.5 1780.3607,-198.5 1780.3607,-168.5 1665.3607,-168.5"/>
<text text-anchor="start" x="1673.3607" y="-186.5" font-family="Helvetica,sans-Serif" font-size="10.00" fill="#000000">amr&#45;wind/physics/udfs</text>
<text text-anchor="middle" x="1722.8607" y="-175.5" font-family="Helvetica,sans-Serif" font-size="10.00" fill="#000000">/PowerLawProfile.H</text>
</a>
</g>
</g>
<!-- Node0&#45;&gt;Node27 -->
<g id="edge49" class="edge">
<title>Node0&#45;&gt;Node27</title>
<path fill="none" stroke="#191970" d="M1551.0916,-236.319C1580.3492,-227.3223 1626.9303,-212.9986 1664.2076,-201.5358"/>
<polygon fill="#191970" stroke="#191970" points="1665.4296,-204.8219 1673.9592,-198.5372 1663.3721,-198.1311 1665.4296,-204.8219"/>
</g>
<!-- Node28 -->
<g id="node29" class="node">
<title>Node28</title>
<polygon fill="#ffffff" stroke="#bfbfbf" points="1798.8607,-174 1798.8607,-193 1914.8607,-193 1914.8607,-174 1798.8607,-174"/>
<text text-anchor="middle" x="1856.8607" y="-181" font-family="Helvetica,sans-Serif" font-size="10.00" fill="#000000">AMReX_ParmParse.H</text>
</g>
<!-- Node0&#45;&gt;Node28 -->
<g id="edge52" class="edge">
<title>Node0&#45;&gt;Node28</title>
<path fill="none" stroke="#191970" d="M1550.9077,-240.6501C1599.5092,-233.0006 1702.4684,-216.3036 1788.8607,-199 1794.6411,-197.8422 1800.6825,-196.5642 1806.6764,-195.2535"/>
<polygon fill="#191970" stroke="#191970" points="1807.6627,-198.6198 1816.6644,-193.0324 1806.1431,-191.7867 1807.6627,-198.6198"/>
</g>
<!-- Node2 -->
<g id="node3" class="node">
<title>Node2</title>
<g id="a_node3"><a xlink:href="_factory_8_h.html" target="_top" xlink:title="amr&#45;wind/core/Factory.H">
<polygon fill="#ffffff" stroke="#000000" points="1394.3607,-112.5 1394.3607,-131.5 1519.3607,-131.5 1519.3607,-112.5 1394.3607,-112.5"/>
<text text-anchor="middle" x="1456.8607" y="-119.5" font-family="Helvetica,sans-Serif" font-size="10.00" fill="#000000">amr&#45;wind/core/Factory.H</text>
</a>
</g>
</g>
<!-- Node1&#45;&gt;Node2 -->
<g id="edge2" class="edge">
<title>Node1&#45;&gt;Node2</title>
<path fill="none" stroke="#191970" d="M1456.8607,-168.2977C1456.8607,-160.3834 1456.8607,-150.6043 1456.8607,-142.0759"/>
<polygon fill="#191970" stroke="#191970" points="1460.3608,-141.8469 1456.8607,-131.8469 1453.3608,-141.847 1460.3608,-141.8469"/>
</g>
<!-- Node8 -->
<g id="node9" class="node">
<title>Node8</title>
<polygon fill="#ffffff" stroke="#bfbfbf" points="1700.3607,-56.5 1700.3607,-75.5 1785.3607,-75.5 1785.3607,-56.5 1700.3607,-56.5"/>
<text text-anchor="middle" x="1742.8607" y="-63.5" font-family="Helvetica,sans-Serif" font-size="10.00" fill="#000000">AMReX_Gpu.H</text>
</g>
<!-- Node1&#45;&gt;Node8 -->
<g id="edge8" class="edge">
<title>Node1&#45;&gt;Node8</title>
<path fill="none" stroke="#191970" d="M1482.2427,-168.3173C1509.0566,-152.7209 1552.9047,-128.4611 1592.8607,-112 1626.2358,-98.25 1665.2523,-86.4091 1695.1262,-78.1853"/>
<polygon fill="#191970" stroke="#191970" points="1696.1509,-81.5339 1704.8855,-75.5375 1694.3179,-74.7781 1696.1509,-81.5339"/>
</g>
<!-- Node3 -->
<g id="node4" class="node">
<title>Node3</title>
<polygon fill="#ffffff" stroke="#bfbfbf" points="1371.8607,-56.5 1371.8607,-75.5 1423.8607,-75.5 1423.8607,-56.5 1371.8607,-56.5"/>
<text text-anchor="middle" x="1397.8607" y="-63.5" font-family="Helvetica,sans-Serif" font-size="10.00" fill="#000000">memory</text>
</g>
<!-- Node2&#45;&gt;Node3 -->
<g id="edge3" class="edge">
<title>Node2&#45;&gt;Node3</title>
<path fill="none" stroke="#191970" d="M1446.5837,-112.2455C1438.0389,-104.1352 1425.6829,-92.4075 1415.5522,-82.7919"/>
<polygon fill="#191970" stroke="#191970" points="1417.6825,-79.9884 1408.0199,-75.6427 1412.8635,-85.0655 1417.6825,-79.9884"/>
</g>
<!-- Node4 -->
<g id="node5" class="node">
<title>Node4</title>
<polygon fill="#ffffff" stroke="#bfbfbf" points="1270.3607,-56.5 1270.3607,-75.5 1353.3607,-75.5 1353.3607,-56.5 1270.3607,-56.5"/>
<text text-anchor="middle" x="1311.8607" y="-63.5" font-family="Helvetica,sans-Serif" font-size="10.00" fill="#000000">unordered_map</text>
</g>
<!-- Node2&#45;&gt;Node4 -->
<g id="edge4" class="edge">
<title>Node2&#45;&gt;Node4</title>
<path fill="none" stroke="#191970" d="M1431.9343,-112.3733C1408.2405,-103.2226 1372.4096,-89.3844 1346.0539,-79.2057"/>
<polygon fill="#191970" stroke="#191970" points="1347.0512,-75.8389 1336.4618,-75.5011 1344.5293,-82.3689 1347.0512,-75.8389"/>
</g>
<!-- Node5 -->
<g id="node6" class="node">
<title>Node5</title>
<polygon fill="#ffffff" stroke="#bfbfbf" points="1441.8607,-56.5 1441.8607,-75.5 1495.8607,-75.5 1495.8607,-56.5 1441.8607,-56.5"/>
<text text-anchor="middle" x="1468.8607" y="-63.5" font-family="Helvetica,sans-Serif" font-size="10.00" fill="#000000">iostream</text>
</g>
<!-- Node2&#45;&gt;Node5 -->
<g id="edge5" class="edge">
<title>Node2&#45;&gt;Node5</title>
<path fill="none" stroke="#191970" d="M1458.9509,-112.2455C1460.5168,-104.9382 1462.7119,-94.6944 1464.6383,-85.7046"/>
<polygon fill="#191970" stroke="#191970" points="1468.1213,-86.1541 1466.7944,-75.6427 1461.2767,-84.6873 1468.1213,-86.1541"/>
</g>
<!-- Node6 -->
<g id="node7" class="node">
<title>Node6</title>
<polygon fill="#ffffff" stroke="#bfbfbf" points="1514.3607,-56.5 1514.3607,-75.5 1601.3607,-75.5 1601.3607,-56.5 1514.3607,-56.5"/>
<text text-anchor="middle" x="1557.8607" y="-63.5" font-family="Helvetica,sans-Serif" font-size="10.00" fill="#000000">AMReX_Print.H</text>
</g>
<!-- Node2&#45;&gt;Node6 -->
<g id="edge6" class="edge">
<title>Node2&#45;&gt;Node6</title>
<path fill="none" stroke="#191970" d="M1474.4535,-112.2455C1490.2397,-103.4928 1513.6245,-90.527 1531.6194,-80.5496"/>
<polygon fill="#191970" stroke="#191970" points="1533.4209,-83.5528 1540.4694,-75.6427 1530.0266,-77.4308 1533.4209,-83.5528"/>
</g>
<!-- Node7 -->
<g id="node8" class="node">
<title>Node7</title>
<polygon fill="#ffffff" stroke="#bfbfbf" points="1619.8607,-56.5 1619.8607,-75.5 1681.8607,-75.5 1681.8607,-56.5 1619.8607,-56.5"/>
<text text-anchor="middle" x="1650.8607" y="-63.5" font-family="Helvetica,sans-Serif" font-size="10.00" fill="#000000">AMReX.H</text>
</g>
<!-- Node2&#45;&gt;Node7 -->
<g id="edge7" class="edge">
<title>Node2&#45;&gt;Node7</title>
<path fill="none" stroke="#191970" d="M1490.2105,-112.3733C1523.242,-102.8384 1573.9044,-88.2142 1609.4846,-77.9436"/>
<polygon fill="#191970" stroke="#191970" points="1610.9119,-81.1746 1619.5489,-75.0384 1608.9705,-74.4492 1610.9119,-81.1746"/>
</g>
<!-- Node9&#45;&gt;Node3 -->
<g id="edge11" class="edge">
<title>Node9&#45;&gt;Node3</title>
<path fill="none" stroke="#191970" d="M1197.6126,-112.4534C1240.6983,-103.6464 1305.7383,-89.8714 1361.8607,-76 1361.9591,-75.9757 1362.0576,-75.9513 1362.1563,-75.9268"/>
<polygon fill="#191970" stroke="#191970" points="1362.7564,-79.3869 1371.5604,-73.4929 1361.0024,-72.6102 1362.7564,-79.3869"/>
</g>
<!-- Node9&#45;&gt;Node4 -->
<g id="edge12" class="edge">
<title>Node9&#45;&gt;Node4</title>
<path fill="none" stroke="#191970" d="M1177.7095,-112.3733C1204.531,-103.1016 1245.2734,-89.0178 1274.8204,-78.804"/>
<polygon fill="#191970" stroke="#191970" points="1276.0675,-82.0762 1284.3753,-75.5011 1273.7805,-75.4603 1276.0675,-82.0762"/>
</g>
<!-- Node9&#45;&gt;Node8 -->
<g id="edge15" class="edge">
<title>Node9&#45;&gt;Node8</title>
<path fill="none" stroke="#191970" d="M1206.5445,-119.147C1303.4974,-113.8369 1507.5395,-100.7887 1690.2892,-75.9356"/>
<polygon fill="#191970" stroke="#191970" points="1690.9239,-79.3814 1700.354,-74.5518 1689.9704,-72.4466 1690.9239,-79.3814"/>
</g>
<!-- Node10 -->
<g id="node11" class="node">
<title>Node10</title>
<polygon fill="#ffffff" stroke="#bfbfbf" points="166.3607,-.5 166.3607,-19.5 207.3607,-19.5 207.3607,-.5 166.3607,-.5"/>
<text text-anchor="middle" x="186.8607" y="-7.5" font-family="Helvetica,sans-Serif" font-size="10.00" fill="#000000">string</text>
</g>
<!-- Node9&#45;&gt;Node10 -->
<g id="edge10" class="edge">
<title>Node9&#45;&gt;Node10</title>
<path fill="none" stroke="#191970" d="M1093.2381,-119.3248C957.522,-112.6937 616.5875,-94.6786 503.8607,-76 469.4027,-70.2904 461.9239,-63.7233 427.8607,-56 352.7092,-38.9607 263.4206,-23.032 217.5052,-15.1535"/>
<polygon fill="#191970" stroke="#191970" points="218.0384,-11.694 207.5921,-13.4622 216.861,-18.5943 218.0384,-11.694"/>
</g>
<!-- Node11 -->
<g id="node12" class="node">
<title>Node11</title>
<polygon fill="#ffffff" stroke="#bfbfbf" points="698.8607,-.5 698.8607,-19.5 802.8607,-19.5 802.8607,-.5 698.8607,-.5"/>
<text text-anchor="middle" x="750.8607" y="-7.5" font-family="Helvetica,sans-Serif" font-size="10.00" fill="#000000">AMReX_MultiFab.H</text>
</g>
<!-- Node9&#45;&gt;Node11 -->
<g id="edge13" class="edge">
<title>Node9&#45;&gt;Node11</title>
<path fill="none" stroke="#191970" d="M1174.6902,-112.3474C1202.9279,-100.0197 1242.7016,-77.678 1222.8607,-56 1192.284,-22.5922 861.8263,-25.3948 816.8607,-20 815.5985,-19.8486 814.3234,-19.6918 813.0387,-19.5303"/>
<polygon fill="#191970" stroke="#191970" points="813.4307,-16.0518 803.0588,-18.2139 812.5152,-22.9917 813.4307,-16.0518"/>
</g>
<!-- Node12 -->
<g id="node13" class="node">
<title>Node12</title>
<polygon fill="#ffffff" stroke="#bfbfbf" points="968.3607,-56.5 968.3607,-75.5 1067.3607,-75.5 1067.3607,-56.5 968.3607,-56.5"/>
<text text-anchor="middle" x="1017.8607" y="-63.5" font-family="Helvetica,sans-Serif" font-size="10.00" fill="#000000">AMReX_BCRec.H</text>
</g>
<!-- Node9&#45;&gt;Node12 -->
<g id="edge14" class="edge">
<title>Node9&#45;&gt;Node12</title>
<path fill="none" stroke="#191970" d="M1127.1691,-112.3733C1105.7896,-103.3032 1073.555,-89.6279 1049.6244,-79.4755"/>
<polygon fill="#191970" stroke="#191970" points="1050.8289,-76.1846 1040.2562,-75.5011 1048.0951,-82.6287 1050.8289,-76.1846"/>
</g>
<!-- Node13 -->
<g id="node14" class="node">
<title>Node13</title>
<g id="a_node14"><a xlink:href="incflo__enums_8_h.html" target="_top" xlink:title="amr&#45;wind/incflo_enums.H">
<polygon fill="#ffffff" stroke="#000000" points="1085.8607,-56.5 1085.8607,-75.5 1213.8607,-75.5 1213.8607,-56.5 1085.8607,-56.5"/>
<text text-anchor="middle" x="1149.8607" y="-63.5" font-family="Helvetica,sans-Serif" font-size="10.00" fill="#000000">amr&#45;wind/incflo_enums.H</text>
</a>
</g>
</g>
<!-- Node9&#45;&gt;Node13 -->
<g id="edge16" class="edge">
<title>Node9&#45;&gt;Node13</title>
<path fill="none" stroke="#191970" d="M1149.8607,-112.2455C1149.8607,-104.9382 1149.8607,-94.6944 1149.8607,-85.7046"/>
<polygon fill="#191970" stroke="#191970" points="1153.3608,-85.6426 1149.8607,-75.6427 1146.3608,-85.6427 1153.3608,-85.6426"/>
</g>
<!-- Node14 -->
<g id="node15" class="node">
<title>Node14</title>
<g id="a_node15"><a xlink:href="_field_desc_types_8_h.html" target="_top" xlink:title="amr&#45;wind/core/FieldDescTypes.H">
<polygon fill="#ffffff" stroke="#000000" points="507.3607,-.5 507.3607,-19.5 670.3607,-19.5 670.3607,-.5 507.3607,-.5"/>
<text text-anchor="middle" x="588.8607" y="-7.5" font-family="Helvetica,sans-Serif" font-size="10.00" fill="#000000">amr&#45;wind/core/FieldDescTypes.H</text>
</a>
</g>
</g>
<!-- Node9&#45;&gt;Node14 -->
<g id="edge17" class="edge">
<title>Node9&#45;&gt;Node14</title>
<path fill="none" stroke="#191970" d="M1093.1022,-117.1531C1024.8593,-110.6863 907.1083,-97.4868 807.8607,-76 742.3296,-61.8127 667.9724,-37.6288 624.9393,-22.8068"/>
<polygon fill="#191970" stroke="#191970" points="626.0671,-19.4935 615.4723,-19.5227 623.7728,-26.1069 626.0671,-19.4935"/>
</g>
<!-- Node15 -->
<g id="node16" class="node">
<title>Node15</title>
<g id="a_node16"><a xlink:href="_view_field_8_h.html" target="_top" xlink:title="amr&#45;wind/core/ViewField.H">
<polygon fill="#ffffff" stroke="#000000" points="512.8607,-56.5 512.8607,-75.5 646.8607,-75.5 646.8607,-56.5 512.8607,-56.5"/>
<text text-anchor="middle" x="579.8607" y="-63.5" font-family="Helvetica,sans-Serif" font-size="10.00" fill="#000000">amr&#45;wind/core/ViewField.H</text>
</a>
</g>
</g>
<!-- Node9&#45;&gt;Node15 -->
<g id="edge18" class="edge">
<title>Node9&#45;&gt;Node15</title>
<path fill="none" stroke="#191970" d="M1093.123,-116.4258C990.4832,-106.3419 773.8534,-85.0589 657.5551,-73.6331"/>
<polygon fill="#191970" stroke="#191970" points="657.5995,-70.1207 647.3051,-72.6261 656.915,-77.0872 657.5995,-70.1207"/>
</g>
<!-- Node15&#45;&gt;Node10 -->
<g id="edge19" class="edge">
<title>Node15&#45;&gt;Node10</title>
<path fill="none" stroke="#191970" d="M512.7481,-56.4369C426.7434,-44.1818 281.2094,-23.4441 217.864,-14.4178"/>
<polygon fill="#191970" stroke="#191970" points="218.1166,-10.9185 207.7228,-12.9727 217.1291,-17.8485 218.1166,-10.9185"/>
</g>
<!-- Node15&#45;&gt;Node11 -->
<g id="edge21" class="edge">
<title>Node15&#45;&gt;Node11</title>
<path fill="none" stroke="#191970" d="M609.2566,-56.3733C637.6913,-47.0613 680.9483,-32.8953 712.1688,-22.671"/>
<polygon fill="#191970" stroke="#191970" points="713.4342,-25.9396 721.8483,-19.5011 711.2556,-19.2872 713.4342,-25.9396"/>
</g>
<!-- Node15&#45;&gt;Node14 -->
<g id="edge20" class="edge">
<title>Node15&#45;&gt;Node14</title>
<path fill="none" stroke="#191970" d="M581.4283,-56.2455C582.6027,-48.9382 584.2491,-38.6944 585.6939,-29.7046"/>
<polygon fill="#191970" stroke="#191970" points="589.1797,-30.0714 587.311,-19.6427 582.2684,-28.9606 589.1797,-30.0714"/>
</g>
<!-- Node16 -->
<g id="node17" class="node">
<title>Node16</title>
<polygon fill="#ffffff" stroke="#bfbfbf" points="314.3607,-.5 314.3607,-19.5 409.3607,-19.5 409.3607,-.5 314.3607,-.5"/>
<text text-anchor="middle" x="361.8607" y="-7.5" font-family="Helvetica,sans-Serif" font-size="10.00" fill="#000000">AMReX_Vector.H</text>
</g>
<!-- Node15&#45;&gt;Node16 -->
<g id="edge22" class="edge">
<title>Node15&#45;&gt;Node16</title>
<path fill="none" stroke="#191970" d="M542.3851,-56.3733C505.3504,-46.8598 448.5925,-32.2797 408.6246,-22.0127"/>
<polygon fill="#191970" stroke="#191970" points="409.4036,-18.5993 398.8472,-19.5011 407.6619,-25.3792 409.4036,-18.5993"/>
</g>
<!-- Node17&#45;&gt;Node4 -->
<g id="edge25" class="edge">
<title>Node17&#45;&gt;Node4</title>
<path fill="none" stroke="#191970" d="M743.2903,-181.2064C868.5896,-176.3107 1129.8185,-162.6839 1214.8607,-132 1245.4326,-120.9694 1275.5778,-98.0489 1293.9513,-82.3455"/>
<polygon fill="#191970" stroke="#191970" points="1296.3116,-84.9309 1301.524,-75.707 1291.6971,-79.6671 1296.3116,-84.9309"/>
</g>
<!-- Node17&#45;&gt;Node9 -->
<g id="edge31" class="edge">
<title>Node17&#45;&gt;Node9</title>
<path fill="none" stroke="#191970" d="M742.9166,-174.6885C833.5683,-162.9515 992.9416,-142.3169 1082.9898,-130.658"/>
<polygon fill="#191970" stroke="#191970" points="1083.6164,-134.1062 1093.0842,-129.3511 1082.7175,-127.1641 1083.6164,-134.1062"/>
</g>
<!-- Node17&#45;&gt;Node10 -->
<g id="edge24" class="edge">
<title>Node17&#45;&gt;Node10</title>
<path fill="none" stroke="#191970" d="M606.7146,-180.8726C476.4639,-175.2712 196.9288,-160.2967 104.8607,-132 55.7985,-116.921 29.9087,-120.2264 3.8607,-76 -.6504,-68.3408 -1.6052,-63.0098 3.8607,-56 22.4477,-32.1627 109.3339,-18.7885 156.3906,-13.1795"/>
<polygon fill="#191970" stroke="#191970" points="156.801,-16.6555 166.3371,-12.0389 156.0035,-9.701 156.801,-16.6555"/>
</g>
<!-- Node17&#45;&gt;Node11 -->
<g id="edge44" class="edge">
<title>Node17&#45;&gt;Node11</title>
<path fill="none" stroke="#191970" d="M679.055,-173.9248C691.1722,-146.2625 726.3911,-65.8614 742.5641,-28.9403"/>
<polygon fill="#191970" stroke="#191970" points="745.7791,-30.3236 746.5856,-19.7595 739.3673,-27.515 745.7791,-30.3236"/>
</g>
<!-- Node17&#45;&gt;Node14 -->
<g id="edge26" class="edge">
<title>Node17&#45;&gt;Node14</title>
<path fill="none" stroke="#191970" d="M675.8791,-173.9915C677.7975,-151.5575 679.8181,-94.3372 655.8607,-56 647.416,-42.4866 633.3824,-31.9437 620.3348,-24.3804"/>
<polygon fill="#191970" stroke="#191970" points="622.0006,-21.3023 611.5401,-19.6204 618.6686,-27.4584 622.0006,-21.3023"/>
</g>
<!-- Node18 -->
<g id="node19" class="node">
<title>Node18</title>
<g id="a_node19"><a xlink:href="_field_utils_8_h.html" target="_top" xlink:title="amr&#45;wind/core/FieldUtils.H">
<polygon fill="#ffffff" stroke="#000000" points="817.3607,-56.5 817.3607,-75.5 950.3607,-75.5 950.3607,-56.5 817.3607,-56.5"/>
<text text-anchor="middle" x="883.8607" y="-63.5" font-family="Helvetica,sans-Serif" font-size="10.00" fill="#000000">amr&#45;wind/core/FieldUtils.H</text>
</a>
</g>
</g>
<!-- Node17&#45;&gt;Node18 -->
<g id="edge27" class="edge">
<title>Node17&#45;&gt;Node18</title>
<path fill="none" stroke="#191970" d="M691.964,-173.8845C728.5671,-153.3062 814.6771,-104.8951 858.0042,-80.5365"/>
<polygon fill="#191970" stroke="#191970" points="859.8125,-83.5352 866.8141,-75.5836 856.382,-77.4334 859.8125,-83.5352"/>
</g>
<!-- Node20 -->
<g id="node21" class="node">
<title>Node20</title>
<g id="a_node21"><a xlink:href="_int_field_8_h.html" target="_top" xlink:title="amr&#45;wind/core/IntField.H">
<polygon fill="#ffffff" stroke="#000000" points="145.8607,-112.5 145.8607,-131.5 269.8607,-131.5 269.8607,-112.5 145.8607,-112.5"/>
<text text-anchor="middle" x="207.8607" y="-119.5" font-family="Helvetica,sans-Serif" font-size="10.00" fill="#000000">amr&#45;wind/core/IntField.H</text>
</a>
</g>
</g>
<!-- Node17&#45;&gt;Node20 -->
<g id="edge32" class="edge">
<title>Node17&#45;&gt;Node20</title>
<path fill="none" stroke="#191970" d="M606.705,-174.5245C519.5589,-163.0481 369.3057,-143.261 280.1957,-131.5259"/>
<polygon fill="#191970" stroke="#191970" points="280.5438,-128.0416 270.1724,-130.2059 279.6298,-134.9817 280.5438,-128.0416"/>
</g>
<!-- Node21 -->
<g id="node22" class="node">
<title>Node21</title>
<polygon fill="#ffffff" stroke="#bfbfbf" points="13.3607,-56.5 13.3607,-75.5 120.3607,-75.5 120.3607,-56.5 13.3607,-56.5"/>
<text text-anchor="middle" x="66.8607" y="-63.5" font-family="Helvetica,sans-Serif" font-size="10.00" fill="#000000">AMReX_iMultiFab.H</text>
</g>
<!-- Node17&#45;&gt;Node21 -->
<g id="edge45" class="edge">
<title>Node17&#45;&gt;Node21</title>
<path fill="none" stroke="#191970" d="M606.6703,-182.4391C481.1856,-179.5952 219.0042,-169.2475 136.8607,-132 113.2441,-121.2912 92.5275,-99.2978 79.8792,-83.6452"/>
<polygon fill="#191970" stroke="#191970" points="82.6151,-81.4619 73.7152,-75.7136 77.0879,-85.7573 82.6151,-81.4619"/>
</g>
<!-- Node22 -->
<g id="node23" class="node">
<title>Node22</title>
<g id="a_node23"><a xlink:href="_scratch_field_8_h.html" target="_top" xlink:title="amr&#45;wind/core/ScratchField.H">
<polygon fill="#ffffff" stroke="#000000" points="464.8607,-112.5 464.8607,-131.5 610.8607,-131.5 610.8607,-112.5 464.8607,-112.5"/>
<text text-anchor="middle" x="537.8607" y="-119.5" font-family="Helvetica,sans-Serif" font-size="10.00" fill="#000000">amr&#45;wind/core/ScratchField.H</text>
</a>
</g>
</g>
<!-- Node17&#45;&gt;Node22 -->
<g id="edge36" class="edge">
<title>Node17&#45;&gt;Node22</title>
<path fill="none" stroke="#191970" d="M653.4544,-173.8906C630.6323,-163.6457 594.2927,-147.3326 568.4549,-135.7339"/>
<polygon fill="#191970" stroke="#191970" points="569.6729,-132.4443 559.1166,-131.5419 566.8062,-138.8303 569.6729,-132.4443"/>
</g>
<!-- Node24 -->
<g id="node25" class="node">
<title>Node24</title>
<polygon fill="#ffffff" stroke="#bfbfbf" points="340.8607,-112.5 340.8607,-131.5 446.8607,-131.5 446.8607,-112.5 340.8607,-112.5"/>
<text text-anchor="middle" x="393.8607" y="-119.5" font-family="Helvetica,sans-Serif" font-size="10.00" fill="#000000">AMReX_AmrCore.H</text>
</g>
<!-- Node17&#45;&gt;Node24 -->
<g id="edge43" class="edge">
<title>Node17&#45;&gt;Node24</title>
<path fill="none" stroke="#191970" d="M631.2627,-173.9581C581.7336,-163.1181 500.88,-145.4224 447.5196,-133.7439"/>
<polygon fill="#191970" stroke="#191970" points="448.078,-130.2833 437.5609,-131.5643 446.5813,-137.1214 448.078,-130.2833"/>
</g>
<!-- Node18&#45;&gt;Node11 -->
<g id="edge29" class="edge">
<title>Node18&#45;&gt;Node11</title>
<path fill="none" stroke="#191970" d="M860.9972,-56.3733C839.4557,-47.3032 806.9769,-33.6279 782.8651,-23.4755"/>
<polygon fill="#191970" stroke="#191970" points="784.0004,-20.156 773.4258,-19.5011 781.284,-26.6075 784.0004,-20.156"/>
</g>
<!-- Node18&#45;&gt;Node14 -->
<g id="edge28" class="edge">
<title>Node18&#45;&gt;Node14</title>
<path fill="none" stroke="#191970" d="M833.4836,-56.4369C782.3602,-46.7321 703.2151,-31.708 648.8754,-21.3926"/>
<polygon fill="#191970" stroke="#191970" points="649.5073,-17.9502 639.03,-19.5237 648.2018,-24.8273 649.5073,-17.9502"/>
</g>
<!-- Node19 -->
<g id="node20" class="node">
<title>Node19</title>
<polygon fill="#ffffff" stroke="#bfbfbf" points="825.8607,-.5 825.8607,-19.5 941.8607,-19.5 941.8607,-.5 825.8607,-.5"/>
<text text-anchor="middle" x="883.8607" y="-7.5" font-family="Helvetica,sans-Serif" font-size="10.00" fill="#000000">AMReX_Interpolater.H</text>
</g>
<!-- Node18&#45;&gt;Node19 -->
<g id="edge30" class="edge">
<title>Node18&#45;&gt;Node19</title>
<path fill="none" stroke="#191970" d="M883.8607,-56.2455C883.8607,-48.9382 883.8607,-38.6944 883.8607,-29.7046"/>
<polygon fill="#191970" stroke="#191970" points="887.3608,-29.6426 883.8607,-19.6427 880.3608,-29.6427 887.3608,-29.6426"/>
</g>
<!-- Node20&#45;&gt;Node10 -->
<g id="edge33" class="edge">
<title>Node20&#45;&gt;Node10</title>
<path fill="none" stroke="#191970" d="M197.3016,-112.2076C188.8597,-103.6048 177.6701,-90.2634 172.8607,-76 167.6633,-60.5858 172.2248,-42.4726 177.4868,-29.1249"/>
<polygon fill="#191970" stroke="#191970" points="180.8607,-30.1473 181.6839,-19.5845 174.4533,-27.3285 180.8607,-30.1473"/>
</g>
<!-- Node20&#45;&gt;Node14 -->
<g id="edge34" class="edge">
<title>Node20&#45;&gt;Node14</title>
<path fill="none" stroke="#191970" d="M215.3232,-112.4661C227.5009,-97.6609 253.1828,-69.4493 281.8607,-56 319.0436,-38.562 420.7637,-25.5833 496.999,-17.9349"/>
<polygon fill="#191970" stroke="#191970" points="497.4975,-21.4027 507.1051,-16.937 496.8096,-14.4366 497.4975,-21.4027"/>
</g>
<!-- Node20&#45;&gt;Node21 -->
<g id="edge35" class="edge">
<title>Node20&#45;&gt;Node21</title>
<path fill="none" stroke="#191970" d="M183.6219,-112.3733C160.5817,-103.2226 125.7393,-89.3844 100.1106,-79.2057"/>
<polygon fill="#191970" stroke="#191970" points="101.3689,-75.9395 90.7831,-75.5011 98.785,-82.4452 101.3689,-75.9395"/>
</g>
<!-- Node22&#45;&gt;Node10 -->
<g id="edge37" class="edge">
<title>Node22&#45;&gt;Node10</title>
<path fill="none" stroke="#191970" d="M473.4272,-112.4665C400.9547,-101.4836 290.9555,-83.934 272.8607,-76 246.1468,-64.2869 220.2579,-42.5659 203.9862,-27.2479"/>
<polygon fill="#191970" stroke="#191970" points="206.0208,-24.3464 196.4004,-19.9081 201.1533,-29.3771 206.0208,-24.3464"/>
</g>
<!-- Node22&#45;&gt;Node11 -->
<g id="edge40" class="edge">
<title>Node22&#45;&gt;Node11</title>
<path fill="none" stroke="#191970" d="M568.3054,-112.348C592.6603,-104.1076 627.3336,-91.1958 655.8607,-76 683.4034,-61.3286 712.5116,-40.1509 731.1369,-25.7711"/>
<polygon fill="#191970" stroke="#191970" points="733.4294,-28.4215 739.1494,-19.5034 729.1164,-22.9079 733.4294,-28.4215"/>
</g>
<!-- Node22&#45;&gt;Node14 -->
<g id="edge38" class="edge">
<title>Node22&#45;&gt;Node14</title>
<path fill="none" stroke="#191970" d="M526.5729,-112.4017C512.6733,-99.3753 492.2484,-75.4879 503.8607,-56 512.7517,-41.0789 528.3504,-30.7035 543.7784,-23.6373"/>
<polygon fill="#191970" stroke="#191970" points="545.4261,-26.742 553.3009,-19.6541 542.7248,-20.2841 545.4261,-26.742"/>
</g>
<!-- Node22&#45;&gt;Node15 -->
<g id="edge39" class="edge">
<title>Node22&#45;&gt;Node15</title>
<path fill="none" stroke="#191970" d="M545.1765,-112.2455C551.0786,-104.3761 559.5349,-93.101 566.62,-83.6542"/>
<polygon fill="#191970" stroke="#191970" points="569.4286,-85.7427 572.6287,-75.6427 563.8286,-81.5427 569.4286,-85.7427"/>
</g>
<!-- Node22&#45;&gt;Node16 -->
<g id="edge41" class="edge">
<title>Node22&#45;&gt;Node16</title>
<path fill="none" stroke="#191970" d="M473.0092,-112.4554C399.2137,-101.2831 288.0257,-83.3716 281.8607,-76 264.3218,-55.0288 295.7302,-35.7166 324.1934,-23.4727"/>
<polygon fill="#191970" stroke="#191970" points="325.729,-26.6261 333.6583,-19.5993 323.0777,-20.1477 325.729,-26.6261"/>
</g>
<!-- Node23 -->
<g id="node24" class="node">
<title>Node23</title>
<polygon fill="#ffffff" stroke="#bfbfbf" points="290.8607,-56.5 290.8607,-75.5 418.8607,-75.5 418.8607,-56.5 290.8607,-56.5"/>
<text text-anchor="middle" x="354.8607" y="-63.5" font-family="Helvetica,sans-Serif" font-size="10.00" fill="#000000">AMReX_PhysBCFunct.H</text>
</g>
<!-- Node22&#45;&gt;Node23 -->
<g id="edge42" class="edge">
<title>Node22&#45;&gt;Node23</title>
<path fill="none" stroke="#191970" d="M506.4018,-112.3733C475.84,-103.021 429.278,-88.7725 395.8346,-78.5385"/>
<polygon fill="#191970" stroke="#191970" points="396.4955,-75.0806 385.909,-75.5011 394.4471,-81.7742 396.4955,-75.0806"/>
</g>
<!-- Node25&#45;&gt;Node8 -->
<g id="edge48" class="edge">
<title>Node25&#45;&gt;Node8</title>
<path fill="none" stroke="#191970" d="M1589.6524,-168.4161C1590.2493,-152.4401 1593.6357,-127.4386 1607.8607,-112 1619.4926,-99.3756 1658.1277,-86.9321 1691.1023,-78.1771"/>
<polygon fill="#191970" stroke="#191970" points="1692.3153,-81.4784 1701.1179,-75.5823 1690.5597,-74.7021 1692.3153,-81.4784"/>
</g>
<!-- Node26 -->
<g id="node27" class="node">
<title>Node26</title>
<polygon fill="#ffffff" stroke="#bfbfbf" points="1616.8607,-112.5 1616.8607,-131.5 1726.8607,-131.5 1726.8607,-112.5 1616.8607,-112.5"/>
<text text-anchor="middle" x="1671.8607" y="-119.5" font-family="Helvetica,sans-Serif" font-size="10.00" fill="#000000">AMReX_Geometry.H</text>
</g>
<!-- Node25&#45;&gt;Node26 -->
<g id="edge47" class="edge">
<title>Node25&#45;&gt;Node26</title>
<path fill="none" stroke="#191970" d="M1610.1303,-168.2977C1622.4613,-159.0495 1638.1873,-147.2551 1650.6803,-137.8853"/>
<polygon fill="#191970" stroke="#191970" points="1652.8314,-140.647 1658.7314,-131.8469 1648.6314,-135.047 1652.8314,-140.647"/>
</g>
<!-- Node27&#45;&gt;Node8 -->
<g id="edge51" class="edge">
<title>Node27&#45;&gt;Node8</title>
<path fill="none" stroke="#191970" d="M1727.3008,-168.2994C1730.1277,-158.1094 1733.6591,-144.3464 1735.8607,-132 1738.5829,-116.7339 1740.3775,-99.279 1741.4674,-86.1554"/>
<polygon fill="#191970" stroke="#191970" points="1744.9788,-86.1386 1742.2495,-75.9014 1737.9991,-85.6062 1744.9788,-86.1386"/>
</g>
<!-- Node27&#45;&gt;Node26 -->
<g id="edge50" class="edge">
<title>Node27&#45;&gt;Node26</title>
<path fill="none" stroke="#191970" d="M1710.2539,-168.2977C1703.1009,-159.672 1694.111,-148.8312 1686.6288,-139.8087"/>
<polygon fill="#191970" stroke="#191970" points="1689.104,-137.3103 1680.0264,-131.8469 1683.7156,-141.7787 1689.104,-137.3103"/>
</g>
</g>
</svg>
