<?xml version="1.0" encoding="UTF-8" standalone="no"?>
<!DOCTYPE svg PUBLIC "-//W3C//DTD SVG 1.1//EN"
 "http://www.w3.org/Graphics/SVG/1.1/DTD/svg11.dtd">
<!-- Generated by graphviz version 2.40.1 (20161225.0304)
 -->
<!-- Title: ViewField.cpp Pages: 1 -->
<!--zoomable 252 -->
<svg id="main" version="1.1" xmlns="http://www.w3.org/2000/svg" xmlns:xlink="http://www.w3.org/1999/xlink" xml:space="preserve" onload="init(evt)">
<style type="text/css"><![CDATA[
.edge:hover path { stroke: red; }
.edge:hover polygon { stroke: red; fill: red; }
]]></style>
<script type="text/javascript"><![CDATA[
var edges = document.getElementsByTagName('g');
if (edges && edges.length) {
  for (var i=0;i<edges.length;i++) {
    if (edges[i].id.substr(0,4)=='edge') {
      edges[i].setAttribute('class','edge');
    }
  }
}
]]></script>
        <defs>
                <circle id="rim" cx="0" cy="0" r="7"/>
                <circle id="rim2" cx="0" cy="0" r="3.5"/>
                <g id="zoomPlus">
                        <use xlink:href="#rim" fill="#404040">
                                <set attributeName="fill" to="#808080" begin="zoomplus.mouseover" end="zoomplus.mouseout"/>
                        </use>
                        <path d="M-4,0h8M0,-4v8" fill="none" stroke="white" stroke-width="1.5" pointer-events="none"/>
                </g>
                <g id="zoomMin">
                        <use xlink:href="#rim" fill="#404040">
                                <set attributeName="fill" to="#808080" begin="zoomminus.mouseover" end="zoomminus.mouseout"/>
                        </use>
                        <path d="M-4,0h8" fill="none" stroke="white" stroke-width="1.5" pointer-events="none"/>
                </g>
                <g id="dirArrow">
                        <path fill="none" stroke="white" stroke-width="1.5" d="M0,-3.0v7 M-2.5,-0.5L0,-3.0L2.5,-0.5"/>
                </g>
               <g id="resetDef">
                       <use xlink:href="#rim2" fill="#404040">
                               <set attributeName="fill" to="#808080" begin="reset.mouseover" end="reset.mouseout"/>
                       </use>
               </g>
        </defs>

<script type="text/javascript">
var viewWidth = 1534;
var viewHeight = 252;
var sectionId = 'dynsection-0';
</script>
<script xlink:href="svgpan.js"/>
<svg id="graph" class="graph">
<g id="viewport">
<title>ViewField.cpp</title>
<polygon fill="#ffffff" stroke="transparent" points="-4,4 -4,-248 1529.8545,-248 1529.8545,4 -4,4"/>
<!-- Node0 -->
<g id="node1" class="node">
<title>Node0</title>
<polygon fill="#bfbfbf" stroke="#000000" points="858.5,-224.5 858.5,-243.5 936.5,-243.5 936.5,-224.5 858.5,-224.5"/>
<text text-anchor="middle" x="897.5" y="-231.5" font-family="Helvetica,sans-Serif" font-size="10.00" fill="#000000">ViewField.cpp</text>
</g>
<!-- Node1 -->
<g id="node2" class="node">
<title>Node1</title>
<g id="a_node2"><a xlink:href="_view_field_8_h.html" target="_top" xlink:title="amr&#45;wind/core/ViewField.H">
<polygon fill="#ffffff" stroke="#000000" points="652.5,-56.5 652.5,-75.5 786.5,-75.5 786.5,-56.5 652.5,-56.5"/>
<text text-anchor="middle" x="719.5" y="-63.5" font-family="Helvetica,sans-Serif" font-size="10.00" fill="#000000">amr&#45;wind/core/ViewField.H</text>
</a>
</g>
</g>
<!-- Node0&#45;&gt;Node1 -->
<g id="edge1" class="edge">
<title>Node0&#45;&gt;Node1</title>
<path fill="none" stroke="#191970" d="M887.4199,-224.4862C858.4296,-197.1246 774.5452,-117.9528 737.4762,-82.9663"/>
<polygon fill="#191970" stroke="#191970" points="739.5877,-80.1464 729.9129,-75.8279 734.7829,-85.2371 739.5877,-80.1464"/>
</g>
<!-- Node6 -->
<g id="node7" class="node">
<title>Node6</title>
<g id="a_node7"><a xlink:href="_field_8_h.html" target="_top" xlink:title="amr&#45;wind/core/Field.H">
<polygon fill="#ffffff" stroke="#000000" points="428,-112.5 428,-131.5 541,-131.5 541,-112.5 428,-112.5"/>
<text text-anchor="middle" x="484.5" y="-119.5" font-family="Helvetica,sans-Serif" font-size="10.00" fill="#000000">amr&#45;wind/core/Field.H</text>
</a>
</g>
</g>
<!-- Node0&#45;&gt;Node6 -->
<g id="edge6" class="edge">
<title>Node0&#45;&gt;Node6</title>
<path fill="none" stroke="#191970" d="M862.2879,-224.4509C787.3847,-204.1382 612.3433,-156.6694 529.4946,-134.2019"/>
<polygon fill="#191970" stroke="#191970" points="530.1905,-130.7643 519.623,-131.5249 528.3583,-137.5203 530.1905,-130.7643"/>
</g>
<!-- Node12 -->
<g id="node13" class="node">
<title>Node12</title>
<g id="a_node13"><a xlink:href="_scratch_field_8_h.html" target="_top" xlink:title="amr&#45;wind/core/ScratchField.H">
<polygon fill="#ffffff" stroke="#000000" points="895.5,-112.5 895.5,-131.5 1041.5,-131.5 1041.5,-112.5 895.5,-112.5"/>
<text text-anchor="middle" x="968.5" y="-119.5" font-family="Helvetica,sans-Serif" font-size="10.00" fill="#000000">amr&#45;wind/core/ScratchField.H</text>
</a>
</g>
</g>
<!-- Node0&#45;&gt;Node12 -->
<g id="edge16" class="edge">
<title>Node0&#45;&gt;Node12</title>
<path fill="none" stroke="#191970" d="M903.5534,-224.4509C915.3954,-205.7707 941.7965,-164.1238 957.041,-140.0761"/>
<polygon fill="#191970" stroke="#191970" points="960.0638,-141.8448 962.4619,-131.5249 954.1517,-138.0969 960.0638,-141.8448"/>
</g>
<!-- Node14 -->
<g id="node15" class="node">
<title>Node14</title>
<g id="a_node15"><a xlink:href="_field_repo_8_h.html" target="_top" xlink:title="amr&#45;wind/core/FieldRepo.H">
<polygon fill="#ffffff" stroke="#000000" points="1068.5,-168.5 1068.5,-187.5 1204.5,-187.5 1204.5,-168.5 1068.5,-168.5"/>
<text text-anchor="middle" x="1136.5" y="-175.5" font-family="Helvetica,sans-Serif" font-size="10.00" fill="#000000">amr&#45;wind/core/FieldRepo.H</text>
</a>
</g>
</g>
<!-- Node0&#45;&gt;Node14 -->
<g id="edge23" class="edge">
<title>Node0&#45;&gt;Node14</title>
<path fill="none" stroke="#191970" d="M936.6984,-224.8154C977.4503,-215.2669 1041.3915,-200.2848 1085.9261,-189.85"/>
<polygon fill="#191970" stroke="#191970" points="1086.7413,-193.2538 1095.6791,-187.5647 1085.1443,-186.4384 1086.7413,-193.2538"/>
</g>
<!-- Node2 -->
<g id="node3" class="node">
<title>Node2</title>
<polygon fill="#ffffff" stroke="#bfbfbf" points="832,-.5 832,-19.5 873,-19.5 873,-.5 832,-.5"/>
<text text-anchor="middle" x="852.5" y="-7.5" font-family="Helvetica,sans-Serif" font-size="10.00" fill="#000000">string</text>
</g>
<!-- Node1&#45;&gt;Node2 -->
<g id="edge2" class="edge">
<title>Node1&#45;&gt;Node2</title>
<path fill="none" stroke="#191970" d="M742.3635,-56.3733C764.4272,-47.0833 797.9649,-32.9621 822.2341,-22.7435"/>
<polygon fill="#191970" stroke="#191970" points="823.8252,-25.8713 831.6834,-18.7649 821.1088,-19.4198 823.8252,-25.8713"/>
</g>
<!-- Node3 -->
<g id="node4" class="node">
<title>Node3</title>
<g id="a_node4"><a xlink:href="_field_desc_types_8_h.html" target="_top" xlink:title="amr&#45;wind/core/FieldDescTypes.H">
<polygon fill="#ffffff" stroke="#000000" points="1145,-.5 1145,-19.5 1308,-19.5 1308,-.5 1145,-.5"/>
<text text-anchor="middle" x="1226.5" y="-7.5" font-family="Helvetica,sans-Serif" font-size="10.00" fill="#000000">amr&#45;wind/core/FieldDescTypes.H</text>
</a>
</g>
</g>
<!-- Node1&#45;&gt;Node3 -->
<g id="edge3" class="edge">
<title>Node1&#45;&gt;Node3</title>
<path fill="none" stroke="#191970" d="M786.6738,-57.6241C791.3519,-57.0663 795.9958,-56.52 800.5,-56 946.062,-39.1945 984.9732,-36.299 1134.6285,-20.0912"/>
<polygon fill="#191970" stroke="#191970" points="1135.0844,-23.5623 1144.6485,-19.004 1134.3293,-16.6032 1135.0844,-23.5623"/>
</g>
<!-- Node4 -->
<g id="node5" class="node">
<title>Node4</title>
<polygon fill="#ffffff" stroke="#bfbfbf" points="1022.5,-.5 1022.5,-19.5 1126.5,-19.5 1126.5,-.5 1022.5,-.5"/>
<text text-anchor="middle" x="1074.5" y="-7.5" font-family="Helvetica,sans-Serif" font-size="10.00" fill="#000000">AMReX_MultiFab.H</text>
</g>
<!-- Node1&#45;&gt;Node4 -->
<g id="edge4" class="edge">
<title>Node1&#45;&gt;Node4</title>
<path fill="none" stroke="#191970" d="M780.1233,-56.4369C844.7868,-46.2364 946.704,-30.1594 1012.0565,-19.8502"/>
<polygon fill="#191970" stroke="#191970" points="1012.8874,-23.2625 1022.2199,-18.247 1011.7966,-16.348 1012.8874,-23.2625"/>
</g>
<!-- Node5 -->
<g id="node6" class="node">
<title>Node5</title>
<polygon fill="#ffffff" stroke="#bfbfbf" points="625,-.5 625,-19.5 720,-19.5 720,-.5 625,-.5"/>
<text text-anchor="middle" x="672.5" y="-7.5" font-family="Helvetica,sans-Serif" font-size="10.00" fill="#000000">AMReX_Vector.H</text>
</g>
<!-- Node1&#45;&gt;Node5 -->
<g id="edge5" class="edge">
<title>Node1&#45;&gt;Node5</title>
<path fill="none" stroke="#191970" d="M711.3132,-56.2455C704.6411,-48.2958 695.0521,-36.8706 687.0747,-27.3656"/>
<polygon fill="#191970" stroke="#191970" points="689.7026,-25.0524 680.593,-19.6427 684.3408,-29.5525 689.7026,-25.0524"/>
</g>
<!-- Node6&#45;&gt;Node1 -->
<g id="edge15" class="edge">
<title>Node6&#45;&gt;Node1</title>
<path fill="none" stroke="#191970" d="M524.6309,-112.4369C564.7649,-102.8731 626.5775,-88.1432 669.7933,-77.845"/>
<polygon fill="#191970" stroke="#191970" points="670.6183,-81.2465 679.5346,-75.5237 668.9956,-74.4372 670.6183,-81.2465"/>
</g>
<!-- Node6&#45;&gt;Node2 -->
<g id="edge7" class="edge">
<title>Node6&#45;&gt;Node2</title>
<path fill="none" stroke="#191970" d="M477.8322,-112.174C469.1154,-97.9956 456.511,-71.7746 470.5,-56 482.1721,-42.8381 733.3658,-20.184 821.9275,-12.5764"/>
<polygon fill="#191970" stroke="#191970" points="822.2287,-16.0636 831.8944,-11.7249 821.6328,-9.089 822.2287,-16.0636"/>
</g>
<!-- Node6&#45;&gt;Node3 -->
<g id="edge14" class="edge">
<title>Node6&#45;&gt;Node3</title>
<path fill="none" stroke="#191970" d="M541.0366,-114.1024C603.4128,-105.2808 706.7309,-90.349 795.5,-76 846.2813,-67.7915 858.7075,-64.1389 909.5,-56 990.1591,-43.0753 1082.624,-29.8378 1146.7902,-20.9018"/>
<polygon fill="#191970" stroke="#191970" points="1147.4163,-24.3485 1156.8393,-19.5052 1146.4527,-17.4151 1147.4163,-24.3485"/>
</g>
<!-- Node6&#45;&gt;Node4 -->
<g id="edge10" class="edge">
<title>Node6&#45;&gt;Node4</title>
<path fill="none" stroke="#191970" d="M484.1337,-112.0874C484.1845,-97.3003 486.7003,-69.7371 503.5,-56 522.9779,-40.0729 868.5565,-20.5777 1012.4335,-13.1113"/>
<polygon fill="#191970" stroke="#191970" points="1012.6306,-16.6059 1022.4368,-12.5947 1012.2696,-9.6152 1012.6306,-16.6059"/>
</g>
<!-- Node7 -->
<g id="node8" class="node">
<title>Node7</title>
<polygon fill="#ffffff" stroke="#bfbfbf" points="366.5,-56.5 366.5,-75.5 418.5,-75.5 418.5,-56.5 366.5,-56.5"/>
<text text-anchor="middle" x="392.5" y="-63.5" font-family="Helvetica,sans-Serif" font-size="10.00" fill="#000000">memory</text>
</g>
<!-- Node6&#45;&gt;Node7 -->
<g id="edge8" class="edge">
<title>Node6&#45;&gt;Node7</title>
<path fill="none" stroke="#191970" d="M468.4748,-112.2455C454.3592,-103.6534 433.5737,-91.0014 417.3101,-81.1018"/>
<polygon fill="#191970" stroke="#191970" points="418.7034,-77.8525 408.3415,-75.6427 415.0637,-83.8319 418.7034,-77.8525"/>
</g>
<!-- Node8 -->
<g id="node9" class="node">
<title>Node8</title>
<polygon fill="#ffffff" stroke="#bfbfbf" points="513,-56.5 513,-75.5 596,-75.5 596,-56.5 513,-56.5"/>
<text text-anchor="middle" x="554.5" y="-63.5" font-family="Helvetica,sans-Serif" font-size="10.00" fill="#000000">unordered_map</text>
</g>
<!-- Node6&#45;&gt;Node8 -->
<g id="edge9" class="edge">
<title>Node6&#45;&gt;Node8</title>
<path fill="none" stroke="#191970" d="M496.6931,-112.2455C507.1321,-103.8943 522.3655,-91.7076 534.574,-81.9408"/>
<polygon fill="#191970" stroke="#191970" points="536.8244,-84.6227 542.4467,-75.6427 532.4515,-79.1566 536.8244,-84.6227"/>
</g>
<!-- Node9 -->
<g id="node10" class="node">
<title>Node9</title>
<polygon fill="#ffffff" stroke="#bfbfbf" points="0,-56.5 0,-75.5 99,-75.5 99,-56.5 0,-56.5"/>
<text text-anchor="middle" x="49.5" y="-63.5" font-family="Helvetica,sans-Serif" font-size="10.00" fill="#000000">AMReX_BCRec.H</text>
</g>
<!-- Node6&#45;&gt;Node9 -->
<g id="edge11" class="edge">
<title>Node6&#45;&gt;Node9</title>
<path fill="none" stroke="#191970" d="M427.8582,-115.9701C356.0172,-108.1258 228.0825,-93.5032 109.1555,-76.192"/>
<polygon fill="#191970" stroke="#191970" points="109.5501,-72.7126 99.1483,-74.7258 108.5352,-79.6386 109.5501,-72.7126"/>
</g>
<!-- Node10 -->
<g id="node11" class="node">
<title>Node10</title>
<polygon fill="#ffffff" stroke="#bfbfbf" points="117,-56.5 117,-75.5 202,-75.5 202,-56.5 117,-56.5"/>
<text text-anchor="middle" x="159.5" y="-63.5" font-family="Helvetica,sans-Serif" font-size="10.00" fill="#000000">AMReX_Gpu.H</text>
</g>
<!-- Node6&#45;&gt;Node10 -->
<g id="edge12" class="edge">
<title>Node6&#45;&gt;Node10</title>
<path fill="none" stroke="#191970" d="M427.9658,-112.8644C374.8687,-104.1958 292.9432,-90.5945 211.9259,-76.0447"/>
<polygon fill="#191970" stroke="#191970" points="212.5144,-72.5945 202.0522,-74.2659 211.2732,-79.4836 212.5144,-72.5945"/>
</g>
<!-- Node11 -->
<g id="node12" class="node">
<title>Node11</title>
<g id="a_node12"><a xlink:href="incflo__enums_8_h.html" target="_top" xlink:title="amr&#45;wind/incflo_enums.H">
<polygon fill="#ffffff" stroke="#000000" points="220.5,-56.5 220.5,-75.5 348.5,-75.5 348.5,-56.5 220.5,-56.5"/>
<text text-anchor="middle" x="284.5" y="-63.5" font-family="Helvetica,sans-Serif" font-size="10.00" fill="#000000">amr&#45;wind/incflo_enums.H</text>
</a>
</g>
</g>
<!-- Node6&#45;&gt;Node11 -->
<g id="edge13" class="edge">
<title>Node6&#45;&gt;Node11</title>
<path fill="none" stroke="#191970" d="M450.1188,-112.3733C416.4299,-102.9404 364.9518,-88.5265 328.3382,-78.2747"/>
<polygon fill="#191970" stroke="#191970" points="329.006,-74.8271 318.4326,-75.5011 327.1185,-81.5679 329.006,-74.8271"/>
</g>
<!-- Node12&#45;&gt;Node1 -->
<g id="edge19" class="edge">
<title>Node12&#45;&gt;Node1</title>
<path fill="none" stroke="#191970" d="M925.9783,-112.4369C883.3639,-102.8529 817.6824,-88.0812 771.879,-77.78"/>
<polygon fill="#191970" stroke="#191970" points="772.3706,-74.3032 761.8463,-75.5237 770.8346,-81.1326 772.3706,-74.3032"/>
</g>
<!-- Node12&#45;&gt;Node2 -->
<g id="edge17" class="edge">
<title>Node12&#45;&gt;Node2</title>
<path fill="none" stroke="#191970" d="M954.7674,-112.4765C942.4005,-103.631 923.9937,-89.7846 909.5,-76 893.6611,-60.9361 877.5582,-41.8715 866.5267,-28.1099"/>
<polygon fill="#191970" stroke="#191970" points="869.0086,-25.6053 860.0635,-19.9276 863.5155,-29.9443 869.0086,-25.6053"/>
</g>
<!-- Node12&#45;&gt;Node3 -->
<g id="edge18" class="edge">
<title>Node12&#45;&gt;Node3</title>
<path fill="none" stroke="#191970" d="M990.4259,-112.4866C1011.8618,-103.1854 1045.4249,-88.6211 1074.5,-76 1116.2917,-57.8588 1164.5438,-36.906 1195.2713,-23.5621"/>
<polygon fill="#191970" stroke="#191970" points="1196.8234,-26.7039 1204.6016,-19.5102 1194.035,-20.2832 1196.8234,-26.7039"/>
</g>
<!-- Node12&#45;&gt;Node4 -->
<g id="edge20" class="edge">
<title>Node12&#45;&gt;Node4</title>
<path fill="none" stroke="#191970" d="M999.951,-112.3973C1018.5914,-105.1859 1041.2775,-93.5029 1055.5,-76 1066.1799,-62.8567 1070.8577,-43.9818 1072.9059,-29.7808"/>
<polygon fill="#191970" stroke="#191970" points="1076.4121,-29.9208 1074.0493,-19.5928 1069.4558,-29.14 1076.4121,-29.9208"/>
</g>
<!-- Node12&#45;&gt;Node5 -->
<g id="edge21" class="edge">
<title>Node12&#45;&gt;Node5</title>
<path fill="none" stroke="#191970" d="M895.2204,-116.6574C804.4694,-109.2828 659.7772,-94.7433 643.5,-76 631.2891,-61.9391 643.0704,-41.9264 655.0788,-27.631"/>
<polygon fill="#191970" stroke="#191970" points="657.8966,-29.7327 661.9958,-19.963 652.6988,-25.044 657.8966,-29.7327"/>
</g>
<!-- Node13 -->
<g id="node14" class="node">
<title>Node13</title>
<polygon fill="#ffffff" stroke="#bfbfbf" points="918.5,-56.5 918.5,-75.5 1046.5,-75.5 1046.5,-56.5 918.5,-56.5"/>
<text text-anchor="middle" x="982.5" y="-63.5" font-family="Helvetica,sans-Serif" font-size="10.00" fill="#000000">AMReX_PhysBCFunct.H</text>
</g>
<!-- Node12&#45;&gt;Node13 -->
<g id="edge22" class="edge">
<title>Node12&#45;&gt;Node13</title>
<path fill="none" stroke="#191970" d="M970.9386,-112.2455C972.7855,-104.8579 975.3828,-94.4689 977.6478,-85.4087"/>
<polygon fill="#191970" stroke="#191970" points="981.0594,-86.193 980.0893,-75.6427 974.2684,-84.4952 981.0594,-86.193"/>
</g>
<!-- Node14&#45;&gt;Node2 -->
<g id="edge24" class="edge">
<title>Node14&#45;&gt;Node2</title>
<path fill="none" stroke="#191970" d="M1068.3926,-173.4937C1003.7014,-167.8326 912.5602,-155.8184 886.5,-132 857.6714,-105.6513 852.4797,-57.1328 852.0028,-29.8943"/>
<polygon fill="#191970" stroke="#191970" points="855.5034,-29.6601 852.032,-19.6502 848.5035,-29.6402 855.5034,-29.6601"/>
</g>
<!-- Node14&#45;&gt;Node3 -->
<g id="edge26" class="edge">
<title>Node14&#45;&gt;Node3</title>
<path fill="none" stroke="#191970" d="M1204.5775,-172.9232C1302.6449,-165.0713 1474.4854,-149.0935 1497.5,-132 1519.3813,-115.7482 1516.8197,-102.658 1522.5,-76 1524.3525,-67.3063 1528.2827,-62.7508 1522.5,-56 1509.1841,-40.4549 1400.3006,-26.6325 1318.4289,-18.2931"/>
<polygon fill="#191970" stroke="#191970" points="1318.6343,-14.7962 1308.3343,-17.2785 1317.9342,-21.7611 1318.6343,-14.7962"/>
</g>
<!-- Node14&#45;&gt;Node4 -->
<g id="edge38" class="edge">
<title>Node14&#45;&gt;Node4</title>
<path fill="none" stroke="#191970" d="M1132.989,-168.4862C1123.1034,-141.6994 1094.8923,-65.2565 1081.5964,-29.2289"/>
<polygon fill="#191970" stroke="#191970" points="1084.8728,-27.9976 1078.127,-19.8279 1078.3057,-30.4212 1084.8728,-27.9976"/>
</g>
<!-- Node14&#45;&gt;Node6 -->
<g id="edge31" class="edge">
<title>Node14&#45;&gt;Node6</title>
<path fill="none" stroke="#191970" d="M1068.2636,-172.1392C942.6424,-161.3497 676.2489,-138.4692 551.5329,-127.7574"/>
<polygon fill="#191970" stroke="#191970" points="551.6198,-124.2521 541.3569,-126.8834 551.0207,-131.2264 551.6198,-124.2521"/>
</g>
<!-- Node14&#45;&gt;Node8 -->
<g id="edge25" class="edge">
<title>Node14&#45;&gt;Node8</title>
<path fill="none" stroke="#191970" d="M1068.4915,-168.9861C1007.9274,-160.6062 917.0126,-147.1604 838.5,-132 754.5134,-115.7826 657.6606,-92.2178 601.5215,-78.0716"/>
<polygon fill="#191970" stroke="#191970" points="602.0781,-74.6022 591.5252,-75.5437 600.3619,-81.3886 602.0781,-74.6022"/>
</g>
<!-- Node14&#45;&gt;Node12 -->
<g id="edge36" class="edge">
<title>Node14&#45;&gt;Node12</title>
<path fill="none" stroke="#191970" d="M1107.6198,-168.3733C1079.6839,-159.0613 1037.1858,-144.8953 1006.5131,-134.671"/>
<polygon fill="#191970" stroke="#191970" points="1007.597,-131.3431 997.0034,-131.5011 1005.3834,-137.9839 1007.597,-131.3431"/>
</g>
<!-- Node15 -->
<g id="node16" class="node">
<title>Node15</title>
<g id="a_node16"><a xlink:href="_field_utils_8_h.html" target="_top" xlink:title="amr&#45;wind/core/FieldUtils.H">
<polygon fill="#ffffff" stroke="#000000" points="1380,-56.5 1380,-75.5 1513,-75.5 1513,-56.5 1380,-56.5"/>
<text text-anchor="middle" x="1446.5" y="-63.5" font-family="Helvetica,sans-Serif" font-size="10.00" fill="#000000">amr&#45;wind/core/FieldUtils.H</text>
</a>
</g>
</g>
<!-- Node14&#45;&gt;Node15 -->
<g id="edge27" class="edge">
<title>Node14&#45;&gt;Node15</title>
<path fill="none" stroke="#191970" d="M1185.2309,-168.4502C1221.7249,-160.5891 1272.5439,-148.1256 1315.5,-132 1353.9338,-117.5721 1395.9085,-95.1442 1421.7248,-80.5126"/>
<polygon fill="#191970" stroke="#191970" points="1423.531,-83.5115 1430.4685,-75.5039 1420.0516,-77.4375 1423.531,-83.5115"/>
</g>
<!-- Node17 -->
<g id="node18" class="node">
<title>Node17</title>
<g id="a_node18"><a xlink:href="_int_field_8_h.html" target="_top" xlink:title="amr&#45;wind/core/IntField.H">
<polygon fill="#ffffff" stroke="#000000" points="1164.5,-112.5 1164.5,-131.5 1288.5,-131.5 1288.5,-112.5 1164.5,-112.5"/>
<text text-anchor="middle" x="1226.5" y="-119.5" font-family="Helvetica,sans-Serif" font-size="10.00" fill="#000000">amr&#45;wind/core/IntField.H</text>
</a>
</g>
</g>
<!-- Node14&#45;&gt;Node17 -->
<g id="edge32" class="edge">
<title>Node14&#45;&gt;Node17</title>
<path fill="none" stroke="#191970" d="M1152.1768,-168.2455C1165.9856,-159.6534 1186.3193,-147.0014 1202.2292,-137.1018"/>
<polygon fill="#191970" stroke="#191970" points="1204.3613,-139.8974 1211.0028,-131.6427 1200.6632,-133.954 1204.3613,-139.8974"/>
</g>
<!-- Node18 -->
<g id="node19" class="node">
<title>Node18</title>
<polygon fill="#ffffff" stroke="#bfbfbf" points="1255,-56.5 1255,-75.5 1362,-75.5 1362,-56.5 1255,-56.5"/>
<text text-anchor="middle" x="1308.5" y="-63.5" font-family="Helvetica,sans-Serif" font-size="10.00" fill="#000000">AMReX_iMultiFab.H</text>
</g>
<!-- Node14&#45;&gt;Node18 -->
<g id="edge39" class="edge">
<title>Node14&#45;&gt;Node18</title>
<path fill="none" stroke="#191970" d="M1193.1406,-168.4222C1233.6766,-160.3911 1283.4638,-147.7216 1297.5,-132 1308.4881,-119.6925 1310.6696,-100.7259 1310.4341,-86.2777"/>
<polygon fill="#191970" stroke="#191970" points="1313.905,-85.6606 1309.8492,-75.8728 1306.9161,-86.0535 1313.905,-85.6606"/>
</g>
<!-- Node19 -->
<g id="node20" class="node">
<title>Node19</title>
<polygon fill="#ffffff" stroke="#bfbfbf" points="1382.5,-112.5 1382.5,-131.5 1488.5,-131.5 1488.5,-112.5 1382.5,-112.5"/>
<text text-anchor="middle" x="1435.5" y="-119.5" font-family="Helvetica,sans-Serif" font-size="10.00" fill="#000000">AMReX_AmrCore.H</text>
</g>
<!-- Node14&#45;&gt;Node19 -->
<g id="edge37" class="edge">
<title>Node14&#45;&gt;Node19</title>
<path fill="none" stroke="#191970" d="M1187.5602,-168.4369C1239.3768,-158.7321 1319.595,-143.708 1374.6715,-133.3926"/>
<polygon fill="#191970" stroke="#191970" points="1375.4656,-136.8048 1384.6504,-131.5237 1374.177,-129.9245 1375.4656,-136.8048"/>
</g>
<!-- Node15&#45;&gt;Node3 -->
<g id="edge28" class="edge">
<title>Node15&#45;&gt;Node3</title>
<path fill="none" stroke="#191970" d="M1408.6807,-56.3733C1371.3062,-46.8598 1314.0276,-32.2797 1273.6929,-22.0127"/>
<polygon fill="#191970" stroke="#191970" points="1274.3802,-18.5761 1263.8258,-19.5011 1272.6534,-25.3598 1274.3802,-18.5761"/>
</g>
<!-- Node15&#45;&gt;Node4 -->
<g id="edge29" class="edge">
<title>Node15&#45;&gt;Node4</title>
<path fill="none" stroke="#191970" d="M1380.5473,-56.4593C1317.765,-47.319 1220.647,-33.0287 1136.5,-20 1136.399,-19.9844 1136.2979,-19.9687 1136.1967,-19.953"/>
<polygon fill="#191970" stroke="#191970" points="1137.0085,-16.5375 1126.5877,-18.45 1135.9267,-23.4534 1137.0085,-16.5375"/>
</g>
<!-- Node16 -->
<g id="node17" class="node">
<title>Node16</title>
<polygon fill="#ffffff" stroke="#bfbfbf" points="1388.5,-.5 1388.5,-19.5 1504.5,-19.5 1504.5,-.5 1388.5,-.5"/>
<text text-anchor="middle" x="1446.5" y="-7.5" font-family="Helvetica,sans-Serif" font-size="10.00" fill="#000000">AMReX_Interpolater.H</text>
</g>
<!-- Node15&#45;&gt;Node16 -->
<g id="edge30" class="edge">
<title>Node15&#45;&gt;Node16</title>
<path fill="none" stroke="#191970" d="M1446.5,-56.2455C1446.5,-48.9382 1446.5,-38.6944 1446.5,-29.7046"/>
<polygon fill="#191970" stroke="#191970" points="1450.0001,-29.6426 1446.5,-19.6427 1443.0001,-29.6427 1450.0001,-29.6426"/>
</g>
<!-- Node17&#45;&gt;Node2 -->
<g id="edge33" class="edge">
<title>Node17&#45;&gt;Node2</title>
<path fill="none" stroke="#191970" d="M1204.7234,-112.4149C1172.5746,-98.5367 1110.2954,-72.686 1055.5,-56 995.365,-37.688 923.2224,-23.0226 883.1573,-15.5032"/>
<polygon fill="#191970" stroke="#191970" points="883.6867,-12.0418 873.2164,-13.6611 882.4112,-18.9247 883.6867,-12.0418"/>
</g>
<!-- Node17&#45;&gt;Node3 -->
<g id="edge34" class="edge">
<title>Node17&#45;&gt;Node3</title>
<path fill="none" stroke="#191970" d="M1226.5,-112.4509C1226.5,-94.184 1226.5,-53.9553 1226.5,-29.6976"/>
<polygon fill="#191970" stroke="#191970" points="1230.0001,-29.5249 1226.5,-19.5249 1223.0001,-29.5249 1230.0001,-29.5249"/>
</g>
<!-- Node17&#45;&gt;Node18 -->
<g id="edge35" class="edge">
<title>Node17&#45;&gt;Node18</title>
<path fill="none" stroke="#191970" d="M1240.7833,-112.2455C1253.247,-103.7337 1271.5451,-91.2375 1285.9792,-81.3801"/>
<polygon fill="#191970" stroke="#191970" points="1288.0962,-84.1726 1294.3804,-75.6427 1284.1485,-78.392 1288.0962,-84.1726"/>
</g>
</g>
</svg>
        <g id="navigator" transform="translate(0 0)" fill="#404254">
                <rect fill="#f2f5e9" fill-opacity="0.5" stroke="#606060" stroke-width=".5" x="0" y="0" width="60" height="60"/>
                <use id="zoomplus" xlink:href="#zoomPlus" x="17" y="9" onmousedown="handleZoom(evt,'in')"/>
                <use id="zoomminus" xlink:href="#zoomMin" x="42" y="9" onmousedown="handleZoom(evt,'out')"/>
                <use id="reset" xlink:href="#resetDef" x="30" y="36" onmousedown="handleReset()"/>
                <g id="arrowUp" xlink:href="#dirArrow" transform="translate(30 24)" onmousedown="handlePan(0,-1)">
                  <use xlink:href="#rim" fill="#404040">
                        <set attributeName="fill" to="#808080" begin="arrowUp.mouseover" end="arrowUp.mouseout"/>
                  </use>
                  <path fill="none" stroke="white" stroke-width="1.5" d="M0,-3.0v7 M-2.5,-0.5L0,-3.0L2.5,-0.5"/>
                </g>
                <g id="arrowRight" xlink:href="#dirArrow" transform="rotate(90) translate(36 -43)" onmousedown="handlePan(1,0)">
                  <use xlink:href="#rim" fill="#404040">
                        <set attributeName="fill" to="#808080" begin="arrowRight.mouseover" end="arrowRight.mouseout"/>
                  </use>
                  <path fill="none" stroke="white" stroke-width="1.5" d="M0,-3.0v7 M-2.5,-0.5L0,-3.0L2.5,-0.5"/>
                </g>
                <g id="arrowDown" xlink:href="#dirArrow" transform="rotate(180) translate(-30 -48)" onmousedown="handlePan(0,1)">
                  <use xlink:href="#rim" fill="#404040">
                        <set attributeName="fill" to="#808080" begin="arrowDown.mouseover" end="arrowDown.mouseout"/>
                  </use>
                  <path fill="none" stroke="white" stroke-width="1.5" d="M0,-3.0v7 M-2.5,-0.5L0,-3.0L2.5,-0.5"/>
                </g>
                <g id="arrowLeft" xlink:href="#dirArrow" transform="rotate(270) translate(-36 17)" onmousedown="handlePan(-1,0)">
                  <use xlink:href="#rim" fill="#404040">
                        <set attributeName="fill" to="#808080" begin="arrowLeft.mouseover" end="arrowLeft.mouseout"/>
                  </use>
                  <path fill="none" stroke="white" stroke-width="1.5" d="M0,-3.0v7 M-2.5,-0.5L0,-3.0L2.5,-0.5"/>
                </g>
        </g>
        <svg viewBox="0 0 15 15" width="100%" height="30px" preserveAspectRatio="xMaxYMin meet">
         <g id="arrow_out" transform="scale(0.3 0.3)">
          <a xlink:href="_view_field_8cpp__incl_org.svg" target="_base">
           <rect id="button" ry="5" rx="5" y="6" x="6" height="38" width="38"
                fill="#f2f5e9" fill-opacity="0.5" stroke="#606060" stroke-width="1.0"/>
           <path id="arrow"
             d="M 11.500037,31.436501 C 11.940474,20.09759 22.043105,11.32322 32.158766,21.979434 L 37.068811,17.246167 C 37.068811,17.246167 37.088388,32 37.088388,32 L 22.160133,31.978069 C 22.160133,31.978069 26.997745,27.140456 26.997745,27.140456 C 18.528582,18.264221 13.291696,25.230495 11.500037,31.436501 z"
             style="fill:#404040;"/>
          </a>
         </g>
        </svg>
</svg>
