<?xml version="1.0" encoding="UTF-8" standalone="no"?>
<!DOCTYPE svg PUBLIC "-//W3C//DTD SVG 1.1//EN"
 "http://www.w3.org/Graphics/SVG/1.1/DTD/svg11.dtd">
<!-- Generated by graphviz version 2.40.1 (20161225.0304)
 -->
<!-- Title: VortexPatch.cpp Pages: 1 -->
<svg width="2440pt" height="341pt"
 viewBox="0.00 0.00 2439.50 341.00" xmlns="http://www.w3.org/2000/svg" xmlns:xlink="http://www.w3.org/1999/xlink">
<g id="graph0" class="graph" transform="scale(1 1) rotate(0) translate(4 337)">
<title>VortexPatch.cpp</title>
<polygon fill="#ffffff" stroke="transparent" points="-4,4 -4,-337 2435.5,-337 2435.5,4 -4,4"/>
<!-- Node0 -->
<g id="node1" class="node">
<title>Node0</title>
<polygon fill="#bfbfbf" stroke="#000000" points="1237,-313.5 1237,-332.5 1326,-332.5 1326,-313.5 1237,-313.5"/>
<text text-anchor="middle" x="1281.5" y="-320.5" font-family="Helvetica,sans-Serif" font-size="10.00" fill="#000000">VortexPatch.cpp</text>
</g>
<!-- Node1 -->
<g id="node2" class="node">
<title>Node1</title>
<g id="a_node2"><a xlink:href="_vortex_patch_8_h.html" target="_top" xlink:title="amr&#45;wind/physics/multiphase\l/VortexPatch.H">
<polygon fill="#ffffff" stroke="#000000" points="1016,-190.5 1016,-220.5 1159,-220.5 1159,-190.5 1016,-190.5"/>
<text text-anchor="start" x="1024" y="-208.5" font-family="Helvetica,sans-Serif" font-size="10.00" fill="#000000">amr&#45;wind/physics/multiphase</text>
<text text-anchor="middle" x="1087.5" y="-197.5" font-family="Helvetica,sans-Serif" font-size="10.00" fill="#000000">/VortexPatch.H</text>
</a>
</g>
</g>
<!-- Node0&#45;&gt;Node1 -->
<g id="edge1" class="edge">
<title>Node0&#45;&gt;Node1</title>
<path fill="none" stroke="#191970" d="M1265.6242,-313.3845C1234.1774,-294.3381 1163.3638,-251.4484 1121.1072,-225.8549"/>
<polygon fill="#191970" stroke="#191970" points="1122.6602,-222.7036 1112.2935,-220.5167 1119.0338,-228.691 1122.6602,-222.7036"/>
</g>
<!-- Node20 -->
<g id="node21" class="node">
<title>Node20</title>
<g id="a_node21"><a xlink:href="_c_f_d_sim_8_h.html" target="_top" xlink:title="amr&#45;wind/CFDSim.H">
<polygon fill="#ffffff" stroke="#000000" points="1227.5,-257.5 1227.5,-276.5 1335.5,-276.5 1335.5,-257.5 1227.5,-257.5"/>
<text text-anchor="middle" x="1281.5" y="-264.5" font-family="Helvetica,sans-Serif" font-size="10.00" fill="#000000">amr&#45;wind/CFDSim.H</text>
</a>
</g>
</g>
<!-- Node0&#45;&gt;Node20 -->
<g id="edge30" class="edge">
<title>Node0&#45;&gt;Node20</title>
<path fill="none" stroke="#191970" d="M1281.5,-313.2455C1281.5,-305.9382 1281.5,-295.6944 1281.5,-286.7046"/>
<polygon fill="#191970" stroke="#191970" points="1285.0001,-286.6426 1281.5,-276.6427 1278.0001,-286.6427 1285.0001,-286.6426"/>
</g>
<!-- Node36 -->
<g id="node37" class="node">
<title>Node36</title>
<polygon fill="#ffffff" stroke="#bfbfbf" points="1353.5,-257.5 1353.5,-276.5 1469.5,-276.5 1469.5,-257.5 1353.5,-257.5"/>
<text text-anchor="middle" x="1411.5" y="-264.5" font-family="Helvetica,sans-Serif" font-size="10.00" fill="#000000">AMReX_ParmParse.H</text>
</g>
<!-- Node0&#45;&gt;Node36 -->
<g id="edge68" class="edge">
<title>Node0&#45;&gt;Node36</title>
<path fill="none" stroke="#191970" d="M1303.8478,-313.3733C1324.9033,-304.3032 1356.6495,-290.6279 1380.2175,-280.4755"/>
<polygon fill="#191970" stroke="#191970" points="1381.6444,-283.6719 1389.4438,-276.5011 1378.875,-277.243 1381.6444,-283.6719"/>
</g>
<!-- Node2 -->
<g id="node3" class="node">
<title>Node2</title>
<g id="a_node3"><a xlink:href="_physics_8_h.html" target="_top" xlink:title="amr&#45;wind/core/Physics.H">
<polygon fill="#ffffff" stroke="#000000" points="1024,-129 1024,-148 1151,-148 1151,-129 1024,-129"/>
<text text-anchor="middle" x="1087.5" y="-136" font-family="Helvetica,sans-Serif" font-size="10.00" fill="#000000">amr&#45;wind/core/Physics.H</text>
</a>
</g>
</g>
<!-- Node1&#45;&gt;Node2 -->
<g id="edge2" class="edge">
<title>Node1&#45;&gt;Node2</title>
<path fill="none" stroke="#191970" d="M1087.5,-190.2967C1087.5,-180.7699 1087.5,-168.3954 1087.5,-158.1306"/>
<polygon fill="#191970" stroke="#191970" points="1091.0001,-158.0549 1087.5,-148.055 1084.0001,-158.055 1091.0001,-158.0549"/>
</g>
<!-- Node14 -->
<g id="node15" class="node">
<title>Node14</title>
<g id="a_node15"><a xlink:href="_field_8_h.html" target="_top" xlink:title="amr&#45;wind/core/Field.H">
<polygon fill="#ffffff" stroke="#000000" points="893,-129 893,-148 1006,-148 1006,-129 893,-129"/>
<text text-anchor="middle" x="949.5" y="-136" font-family="Helvetica,sans-Serif" font-size="10.00" fill="#000000">amr&#45;wind/core/Field.H</text>
</a>
</g>
</g>
<!-- Node1&#45;&gt;Node14 -->
<g id="edge16" class="edge">
<title>Node1&#45;&gt;Node14</title>
<path fill="none" stroke="#191970" d="M1056.5301,-190.4639C1033.1669,-179.1209 1001.3441,-163.6707 978.4806,-152.5703"/>
<polygon fill="#191970" stroke="#191970" points="979.8057,-149.323 969.2812,-148.1039 976.7484,-155.62 979.8057,-149.323"/>
</g>
<!-- Node3 -->
<g id="node4" class="node">
<title>Node3</title>
<g id="a_node4"><a xlink:href="_factory_8_h.html" target="_top" xlink:title="amr&#45;wind/core/Factory.H">
<polygon fill="#ffffff" stroke="#000000" points="304,-62 304,-81 429,-81 429,-62 304,-62"/>
<text text-anchor="middle" x="366.5" y="-69" font-family="Helvetica,sans-Serif" font-size="10.00" fill="#000000">amr&#45;wind/core/Factory.H</text>
</a>
</g>
</g>
<!-- Node2&#45;&gt;Node3 -->
<g id="edge3" class="edge">
<title>Node2&#45;&gt;Node3</title>
<path fill="none" stroke="#191970" d="M1047.5142,-128.976C1036.8397,-126.7175 1025.2758,-124.5246 1014.5,-123 793.8995,-91.7891 736.4332,-106.6059 514.5,-87 489.9555,-84.8317 463.1571,-82.1276 439.1911,-79.588"/>
<polygon fill="#191970" stroke="#191970" points="439.4232,-76.093 429.1081,-78.5117 438.6801,-83.0534 439.4232,-76.093"/>
</g>
<!-- Node9 -->
<g id="node10" class="node">
<title>Node9</title>
<g id="a_node10"><a xlink:href="_coll_mgr_8_h.html" target="_top" xlink:title="amr&#45;wind/core/CollMgr.H">
<polygon fill="#ffffff" stroke="#000000" points="666,-62 666,-81 791,-81 791,-62 666,-62"/>
<text text-anchor="middle" x="728.5" y="-69" font-family="Helvetica,sans-Serif" font-size="10.00" fill="#000000">amr&#45;wind/core/CollMgr.H</text>
</a>
</g>
</g>
<!-- Node2&#45;&gt;Node9 -->
<g id="edge9" class="edge">
<title>Node2&#45;&gt;Node9</title>
<path fill="none" stroke="#191970" d="M1043.5384,-128.9349C1033.977,-126.9191 1023.9083,-124.8454 1014.5,-123 939.1902,-108.228 852.3984,-92.8275 794.3603,-82.7612"/>
<polygon fill="#191970" stroke="#191970" points="794.6764,-79.264 784.226,-81.007 793.4825,-86.1614 794.6764,-79.264"/>
</g>
<!-- Node12 -->
<g id="node13" class="node">
<title>Node12</title>
<polygon fill="#ffffff" stroke="#bfbfbf" points="1839.5,-.5 1839.5,-19.5 1943.5,-19.5 1943.5,-.5 1839.5,-.5"/>
<text text-anchor="middle" x="1891.5" y="-7.5" font-family="Helvetica,sans-Serif" font-size="10.00" fill="#000000">AMReX_MultiFab.H</text>
</g>
<!-- Node2&#45;&gt;Node12 -->
<g id="edge14" class="edge">
<title>Node2&#45;&gt;Node12</title>
<path fill="none" stroke="#191970" d="M1151.1093,-133.1466C1187.2808,-130.1227 1233.4229,-126.2993 1274.5,-123 1480.2363,-106.4752 1538.6131,-142.1769 1737.5,-87 1786.883,-73.2997 1839.192,-43.4146 1868.3592,-25.1676"/>
<polygon fill="#191970" stroke="#191970" points="1870.42,-28.005 1876.9828,-19.6875 1866.6656,-22.097 1870.42,-28.005"/>
</g>
<!-- Node13 -->
<g id="node14" class="node">
<title>Node13</title>
<polygon fill="#ffffff" stroke="#bfbfbf" points="1041.5,-62 1041.5,-81 1151.5,-81 1151.5,-62 1041.5,-62"/>
<text text-anchor="middle" x="1096.5" y="-69" font-family="Helvetica,sans-Serif" font-size="10.00" fill="#000000">AMReX_Geometry.H</text>
</g>
<!-- Node2&#45;&gt;Node13 -->
<g id="edge15" class="edge">
<title>Node2&#45;&gt;Node13</title>
<path fill="none" stroke="#191970" d="M1088.7895,-128.9005C1090.0994,-119.149 1092.1666,-103.7597 1093.831,-91.3695"/>
<polygon fill="#191970" stroke="#191970" points="1097.3503,-91.4586 1095.2129,-81.0817 1090.4127,-90.5266 1097.3503,-91.4586"/>
</g>
<!-- Node4 -->
<g id="node5" class="node">
<title>Node4</title>
<polygon fill="#ffffff" stroke="#bfbfbf" points="493.5,-.5 493.5,-19.5 545.5,-19.5 545.5,-.5 493.5,-.5"/>
<text text-anchor="middle" x="519.5" y="-7.5" font-family="Helvetica,sans-Serif" font-size="10.00" fill="#000000">memory</text>
</g>
<!-- Node3&#45;&gt;Node4 -->
<g id="edge4" class="edge">
<title>Node3&#45;&gt;Node4</title>
<path fill="none" stroke="#191970" d="M390.4063,-61.8906C416.2305,-51.5103 457.5527,-34.9004 486.4705,-23.2766"/>
<polygon fill="#191970" stroke="#191970" points="487.7885,-26.519 495.7616,-19.5419 485.1778,-20.0241 487.7885,-26.519"/>
</g>
<!-- Node5 -->
<g id="node6" class="node">
<title>Node5</title>
<polygon fill="#ffffff" stroke="#bfbfbf" points="641,-.5 641,-19.5 724,-19.5 724,-.5 641,-.5"/>
<text text-anchor="middle" x="682.5" y="-7.5" font-family="Helvetica,sans-Serif" font-size="10.00" fill="#000000">unordered_map</text>
</g>
<!-- Node3&#45;&gt;Node5 -->
<g id="edge5" class="edge">
<title>Node3&#45;&gt;Node5</title>
<path fill="none" stroke="#191970" d="M413.7241,-61.9279C423.5615,-59.9524 433.8669,-57.8966 443.5,-56 507.9449,-43.3121 582.2453,-29.0725 630.6724,-19.8436"/>
<polygon fill="#191970" stroke="#191970" points="631.4321,-23.2619 640.6006,-17.9527 630.1224,-16.3855 631.4321,-23.2619"/>
</g>
<!-- Node6 -->
<g id="node7" class="node">
<title>Node6</title>
<polygon fill="#ffffff" stroke="#bfbfbf" points="315.5,-.5 315.5,-19.5 369.5,-19.5 369.5,-.5 315.5,-.5"/>
<text text-anchor="middle" x="342.5" y="-7.5" font-family="Helvetica,sans-Serif" font-size="10.00" fill="#000000">iostream</text>
</g>
<!-- Node3&#45;&gt;Node6 -->
<g id="edge6" class="edge">
<title>Node3&#45;&gt;Node6</title>
<path fill="none" stroke="#191970" d="M362.75,-61.8906C359.3532,-53.1862 354.2469,-40.1015 350.012,-29.2494"/>
<polygon fill="#191970" stroke="#191970" points="353.1989,-27.7882 346.3029,-19.7449 346.6778,-30.3331 353.1989,-27.7882"/>
</g>
<!-- Node7 -->
<g id="node8" class="node">
<title>Node7</title>
<polygon fill="#ffffff" stroke="#bfbfbf" points="388,-.5 388,-19.5 475,-19.5 475,-.5 388,-.5"/>
<text text-anchor="middle" x="431.5" y="-7.5" font-family="Helvetica,sans-Serif" font-size="10.00" fill="#000000">AMReX_Print.H</text>
</g>
<!-- Node3&#45;&gt;Node7 -->
<g id="edge7" class="edge">
<title>Node3&#45;&gt;Node7</title>
<path fill="none" stroke="#191970" d="M376.6563,-61.8906C386.5199,-52.5581 401.7055,-38.1902 413.5987,-26.9374"/>
<polygon fill="#191970" stroke="#191970" points="416.3421,-29.1601 421.2006,-19.7449 411.5311,-24.0753 416.3421,-29.1601"/>
</g>
<!-- Node8 -->
<g id="node9" class="node">
<title>Node8</title>
<polygon fill="#ffffff" stroke="#bfbfbf" points="235.5,-.5 235.5,-19.5 297.5,-19.5 297.5,-.5 235.5,-.5"/>
<text text-anchor="middle" x="266.5" y="-7.5" font-family="Helvetica,sans-Serif" font-size="10.00" fill="#000000">AMReX.H</text>
</g>
<!-- Node3&#45;&gt;Node8 -->
<g id="edge8" class="edge">
<title>Node3&#45;&gt;Node8</title>
<path fill="none" stroke="#191970" d="M350.875,-61.8906C334.7302,-51.9616 309.3178,-36.333 290.5977,-24.8201"/>
<polygon fill="#191970" stroke="#191970" points="292.3669,-21.7992 282.0153,-19.5419 288.6998,-27.7619 292.3669,-21.7992"/>
</g>
<!-- Node9&#45;&gt;Node4 -->
<g id="edge11" class="edge">
<title>Node9&#45;&gt;Node4</title>
<path fill="none" stroke="#191970" d="M695.8438,-61.8906C657.7172,-50.6716 594.8612,-32.1757 555.3956,-20.5626"/>
<polygon fill="#191970" stroke="#191970" points="556.2341,-17.161 545.6528,-17.6957 554.2581,-23.8763 556.2341,-17.161"/>
</g>
<!-- Node9&#45;&gt;Node5 -->
<g id="edge12" class="edge">
<title>Node9&#45;&gt;Node5</title>
<path fill="none" stroke="#191970" d="M721.3125,-61.8906C714.5334,-52.8273 704.2022,-39.0149 695.9027,-27.9188"/>
<polygon fill="#191970" stroke="#191970" points="698.5812,-25.6563 689.7888,-19.7449 692.9757,-29.849 698.5812,-25.6563"/>
</g>
<!-- Node10 -->
<g id="node11" class="node">
<title>Node10</title>
<polygon fill="#ffffff" stroke="#bfbfbf" points="1197,-.5 1197,-19.5 1238,-19.5 1238,-.5 1197,-.5"/>
<text text-anchor="middle" x="1217.5" y="-7.5" font-family="Helvetica,sans-Serif" font-size="10.00" fill="#000000">string</text>
</g>
<!-- Node9&#45;&gt;Node10 -->
<g id="edge10" class="edge">
<title>Node9&#45;&gt;Node10</title>
<path fill="none" stroke="#191970" d="M772.3578,-61.9817C783.1603,-59.8281 794.7217,-57.6832 805.5,-56 947.2484,-33.8634 1118.048,-18.3104 1186.7143,-12.5097"/>
<polygon fill="#191970" stroke="#191970" points="1187.1643,-15.9844 1196.8378,-11.663 1186.5808,-9.0088 1187.1643,-15.9844"/>
</g>
<!-- Node11 -->
<g id="node12" class="node">
<title>Node11</title>
<polygon fill="#ffffff" stroke="#bfbfbf" points="1345,-.5 1345,-19.5 1440,-19.5 1440,-.5 1345,-.5"/>
<text text-anchor="middle" x="1392.5" y="-7.5" font-family="Helvetica,sans-Serif" font-size="10.00" fill="#000000">AMReX_Vector.H</text>
</g>
<!-- Node9&#45;&gt;Node11 -->
<g id="edge13" class="edge">
<title>Node9&#45;&gt;Node11</title>
<path fill="none" stroke="#191970" d="M771.1084,-61.971C782.2552,-59.7401 794.2902,-57.5617 805.5,-56 856.9337,-48.8345 1196.5689,-24.061 1334.465,-14.1479"/>
<polygon fill="#191970" stroke="#191970" points="1335.0994,-17.6115 1344.823,-13.404 1334.5979,-10.6294 1335.0994,-17.6115"/>
</g>
<!-- Node14&#45;&gt;Node4 -->
<g id="edge18" class="edge">
<title>Node14&#45;&gt;Node4</title>
<path fill="none" stroke="#191970" d="M892.6649,-135.9078C780.4749,-130.2062 539.2204,-114.8198 514.5,-87 500.7201,-71.4925 505.4413,-46.5702 511.3227,-29.298"/>
<polygon fill="#191970" stroke="#191970" points="514.6954,-30.2759 514.9796,-19.6849 508.1527,-27.787 514.6954,-30.2759"/>
</g>
<!-- Node14&#45;&gt;Node5 -->
<g id="edge19" class="edge">
<title>Node14&#45;&gt;Node5</title>
<path fill="none" stroke="#191970" d="M892.7053,-136.875C816.1645,-133.3509 686.0563,-122.2044 656.5,-87 642.1302,-69.8841 655.4949,-44.4718 667.7756,-27.5814"/>
<polygon fill="#191970" stroke="#191970" points="670.5898,-29.6638 673.9461,-19.6146 665.0556,-25.3773 670.5898,-29.6638"/>
</g>
<!-- Node14&#45;&gt;Node10 -->
<g id="edge17" class="edge">
<title>Node14&#45;&gt;Node10</title>
<path fill="none" stroke="#191970" d="M952.4871,-128.8243C958.4175,-111.3222 973.4083,-74.507 999.5,-56 1029.3115,-34.8545 1133.9074,-19.8609 1186.6295,-13.4596"/>
<polygon fill="#191970" stroke="#191970" points="1187.228,-16.9133 1196.7461,-12.2597 1186.4035,-9.962 1187.228,-16.9133"/>
</g>
<!-- Node14&#45;&gt;Node12 -->
<g id="edge20" class="edge">
<title>Node14&#45;&gt;Node12</title>
<path fill="none" stroke="#191970" d="M984.358,-128.9549C994.0493,-126.6391 1004.625,-124.4229 1014.5,-123 1166.4723,-101.1018 1563.2672,-147.2361 1704.5,-87 1723.0099,-79.1055 1720.059,-66.0374 1737.5,-56 1765.6238,-39.8147 1799.9743,-28.8419 1829.0912,-21.6859"/>
<polygon fill="#191970" stroke="#191970" points="1830.2243,-25.0147 1839.1532,-19.3115 1828.6166,-18.2018 1830.2243,-25.0147"/>
</g>
<!-- Node15 -->
<g id="node16" class="node">
<title>Node15</title>
<polygon fill="#ffffff" stroke="#bfbfbf" points="848,-62 848,-81 947,-81 947,-62 848,-62"/>
<text text-anchor="middle" x="897.5" y="-69" font-family="Helvetica,sans-Serif" font-size="10.00" fill="#000000">AMReX_BCRec.H</text>
</g>
<!-- Node14&#45;&gt;Node15 -->
<g id="edge21" class="edge">
<title>Node14&#45;&gt;Node15</title>
<path fill="none" stroke="#191970" d="M942.0497,-128.9005C934.0179,-118.552 921.0585,-101.8542 911.1826,-89.1295"/>
<polygon fill="#191970" stroke="#191970" points="913.8328,-86.8356 904.9365,-81.0817 908.3028,-91.1275 913.8328,-86.8356"/>
</g>
<!-- Node16 -->
<g id="node17" class="node">
<title>Node16</title>
<polygon fill="#ffffff" stroke="#bfbfbf" points="524,-62 524,-81 609,-81 609,-62 524,-62"/>
<text text-anchor="middle" x="566.5" y="-69" font-family="Helvetica,sans-Serif" font-size="10.00" fill="#000000">AMReX_Gpu.H</text>
</g>
<!-- Node14&#45;&gt;Node16 -->
<g id="edge22" class="edge">
<title>Node14&#45;&gt;Node16</title>
<path fill="none" stroke="#191970" d="M892.9102,-131.4628C827.6173,-122.9042 717.2054,-107.0799 623.5,-87 618.7965,-85.9921 613.9029,-84.8332 609.0469,-83.6124"/>
<polygon fill="#191970" stroke="#191970" points="609.7644,-80.1825 599.205,-81.0483 607.9996,-86.9564 609.7644,-80.1825"/>
</g>
<!-- Node17 -->
<g id="node18" class="node">
<title>Node17</title>
<g id="a_node18"><a xlink:href="incflo__enums_8_h.html" target="_top" xlink:title="amr&#45;wind/incflo_enums.H">
<polygon fill="#ffffff" stroke="#000000" points="157.5,-62 157.5,-81 285.5,-81 285.5,-62 157.5,-62"/>
<text text-anchor="middle" x="221.5" y="-69" font-family="Helvetica,sans-Serif" font-size="10.00" fill="#000000">amr&#45;wind/incflo_enums.H</text>
</a>
</g>
</g>
<!-- Node14&#45;&gt;Node17 -->
<g id="edge23" class="edge">
<title>Node14&#45;&gt;Node17</title>
<path fill="none" stroke="#191970" d="M892.7123,-136.5351C778.7688,-132.0423 514.3498,-118.8438 294.5,-87 287.1001,-85.9282 279.3267,-84.5519 271.7243,-83.0629"/>
<polygon fill="#191970" stroke="#191970" points="272.3717,-79.623 261.8743,-81.0566 270.9746,-86.4821 272.3717,-79.623"/>
</g>
<!-- Node18 -->
<g id="node19" class="node">
<title>Node18</title>
<g id="a_node19"><a xlink:href="_field_desc_types_8_h.html" target="_top" xlink:title="amr&#45;wind/core/FieldDescTypes.H">
<polygon fill="#ffffff" stroke="#000000" points="1458,-.5 1458,-19.5 1621,-19.5 1621,-.5 1458,-.5"/>
<text text-anchor="middle" x="1539.5" y="-7.5" font-family="Helvetica,sans-Serif" font-size="10.00" fill="#000000">amr&#45;wind/core/FieldDescTypes.H</text>
</a>
</g>
</g>
<!-- Node14&#45;&gt;Node18 -->
<g id="edge24" class="edge">
<title>Node14&#45;&gt;Node18</title>
<path fill="none" stroke="#191970" d="M959.016,-128.6907C979.825,-107.2891 1027.8924,-58.1375 1032.5,-56 1113.9612,-18.2104 1340.8803,-28.3406 1447.4235,-19.983"/>
<polygon fill="#191970" stroke="#191970" points="1448.0014,-23.4458 1457.6568,-19.0841 1447.3889,-16.4726 1448.0014,-23.4458"/>
</g>
<!-- Node19 -->
<g id="node20" class="node">
<title>Node19</title>
<g id="a_node20"><a xlink:href="_view_field_8_h.html" target="_top" xlink:title="amr&#45;wind/core/ViewField.H">
<polygon fill="#ffffff" stroke="#000000" points="1561.5,-62 1561.5,-81 1695.5,-81 1695.5,-62 1561.5,-62"/>
<text text-anchor="middle" x="1628.5" y="-69" font-family="Helvetica,sans-Serif" font-size="10.00" fill="#000000">amr&#45;wind/core/ViewField.H</text>
</a>
</g>
</g>
<!-- Node14&#45;&gt;Node19 -->
<g id="edge25" class="edge">
<title>Node14&#45;&gt;Node19</title>
<path fill="none" stroke="#191970" d="M985.061,-128.9619C994.566,-126.7035 1004.8734,-124.5142 1014.5,-123 1217.5167,-91.0676 1270.8089,-105.3582 1475.5,-87 1500.0475,-84.7984 1526.786,-82.1691 1550.9435,-79.7069"/>
<polygon fill="#191970" stroke="#191970" points="1551.5337,-83.1648 1561.1248,-78.6636 1550.8201,-76.2013 1551.5337,-83.1648"/>
</g>
<!-- Node19&#45;&gt;Node10 -->
<g id="edge26" class="edge">
<title>Node19&#45;&gt;Node10</title>
<path fill="none" stroke="#191970" d="M1564.7322,-61.9581C1475.0564,-48.5395 1315.1739,-24.6154 1248.2705,-14.6043"/>
<polygon fill="#191970" stroke="#191970" points="1248.7641,-11.1393 1238.3562,-13.1208 1247.7281,-18.0622 1248.7641,-11.1393"/>
</g>
<!-- Node19&#45;&gt;Node11 -->
<g id="edge29" class="edge">
<title>Node19&#45;&gt;Node11</title>
<path fill="none" stroke="#191970" d="M1591.8839,-61.9581C1550.7189,-51.2308 1483.7899,-33.7895 1438.9709,-22.11"/>
<polygon fill="#191970" stroke="#191970" points="1439.7614,-18.6992 1429.202,-19.5643 1437.9962,-25.473 1439.7614,-18.6992"/>
</g>
<!-- Node19&#45;&gt;Node12 -->
<g id="edge28" class="edge">
<title>Node19&#45;&gt;Node12</title>
<path fill="none" stroke="#191970" d="M1669.3052,-61.9581C1715.4689,-51.1632 1790.7072,-33.5694 1840.654,-21.8899"/>
<polygon fill="#191970" stroke="#191970" points="1841.6587,-25.2494 1850.5991,-19.5643 1840.0648,-18.4333 1841.6587,-25.2494"/>
</g>
<!-- Node19&#45;&gt;Node18 -->
<g id="edge27" class="edge">
<title>Node19&#45;&gt;Node18</title>
<path fill="none" stroke="#191970" d="M1614.5938,-61.8906C1600.4862,-52.1421 1578.4276,-36.8994 1561.8615,-25.4521"/>
<polygon fill="#191970" stroke="#191970" points="1563.5253,-22.3474 1553.3086,-19.5419 1559.5458,-28.1063 1563.5253,-22.3474"/>
</g>
<!-- Node20&#45;&gt;Node2 -->
<g id="edge67" class="edge">
<title>Node20&#45;&gt;Node2</title>
<path fill="none" stroke="#191970" d="M1267.5266,-257.4166C1246.0978,-242.7532 1203.7873,-213.9307 1167.5,-190 1148.711,-177.609 1127.2593,-163.8186 1111.3023,-153.6288"/>
<polygon fill="#191970" stroke="#191970" points="1112.9174,-150.5077 1102.6037,-148.083 1109.1543,-156.4102 1112.9174,-150.5077"/>
</g>
<!-- Node21 -->
<g id="node22" class="node">
<title>Node21</title>
<polygon fill="#ffffff" stroke="#bfbfbf" points="1941.5,-129 1941.5,-148 2047.5,-148 2047.5,-129 1941.5,-129"/>
<text text-anchor="middle" x="1994.5" y="-136" font-family="Helvetica,sans-Serif" font-size="10.00" fill="#000000">AMReX_AmrCore.H</text>
</g>
<!-- Node20&#45;&gt;Node21 -->
<g id="edge31" class="edge">
<title>Node20&#45;&gt;Node21</title>
<path fill="none" stroke="#191970" d="M1335.5605,-257.9322C1469.3666,-235.4257 1813.4091,-177.1579 1927.5,-154 1933.1967,-152.8437 1939.15,-151.5666 1945.0562,-150.2564"/>
<polygon fill="#191970" stroke="#191970" points="1945.9134,-153.6511 1954.8978,-148.0358 1944.3727,-146.8227 1945.9134,-153.6511"/>
</g>
<!-- Node22 -->
<g id="node23" class="node">
<title>Node22</title>
<g id="a_node23"><a xlink:href="_sim_time_8_h.html" target="_top" xlink:title="amr&#45;wind/core/SimTime.H">
<polygon fill="#ffffff" stroke="#000000" points="2111,-196 2111,-215 2242,-215 2242,-196 2111,-196"/>
<text text-anchor="middle" x="2176.5" y="-203" font-family="Helvetica,sans-Serif" font-size="10.00" fill="#000000">amr&#45;wind/core/SimTime.H</text>
</a>
</g>
</g>
<!-- Node20&#45;&gt;Node22 -->
<g id="edge32" class="edge">
<title>Node20&#45;&gt;Node22</title>
<path fill="none" stroke="#191970" d="M1335.7518,-258.0513C1338.7074,-257.6692 1341.6379,-257.315 1344.5,-257 1622.125,-226.4447 1954.0126,-212.6902 2100.564,-207.7706"/>
<polygon fill="#191970" stroke="#191970" points="2100.9136,-211.261 2110.7921,-207.4315 2100.6816,-204.2649 2100.9136,-211.261"/>
</g>
<!-- Node26 -->
<g id="node27" class="node">
<title>Node26</title>
<g id="a_node27"><a xlink:href="_field_repo_8_h.html" target="_top" xlink:title="amr&#45;wind/core/FieldRepo.H">
<polygon fill="#ffffff" stroke="#000000" points="1277.5,-196 1277.5,-215 1413.5,-215 1413.5,-196 1277.5,-196"/>
<text text-anchor="middle" x="1345.5" y="-203" font-family="Helvetica,sans-Serif" font-size="10.00" fill="#000000">amr&#45;wind/core/FieldRepo.H</text>
</a>
</g>
</g>
<!-- Node20&#45;&gt;Node26 -->
<g id="edge36" class="edge">
<title>Node20&#45;&gt;Node26</title>
<path fill="none" stroke="#191970" d="M1291.5,-257.3906C1301.2119,-248.0581 1316.1639,-233.6902 1327.8741,-222.4374"/>
<polygon fill="#191970" stroke="#191970" points="1330.5736,-224.6974 1335.359,-215.2449 1325.7234,-219.65 1330.5736,-224.6974"/>
</g>
<!-- Node33 -->
<g id="node34" class="node">
<title>Node33</title>
<g id="a_node34"><a xlink:href="_p_d_e_base_8_h.html" target="_top" xlink:title="amr&#45;wind/equation_systems\l/PDEBase.H">
<polygon fill="#ffffff" stroke="#000000" points="388,-123.5 388,-153.5 527,-153.5 527,-123.5 388,-123.5"/>
<text text-anchor="start" x="396" y="-141.5" font-family="Helvetica,sans-Serif" font-size="10.00" fill="#000000">amr&#45;wind/equation_systems</text>
<text text-anchor="middle" x="457.5" y="-130.5" font-family="Helvetica,sans-Serif" font-size="10.00" fill="#000000">/PDEBase.H</text>
</a>
</g>
</g>
<!-- Node20&#45;&gt;Node33 -->
<g id="edge59" class="edge">
<title>Node20&#45;&gt;Node33</title>
<path fill="none" stroke="#191970" d="M1227.4351,-258.5688C1085.9276,-236.5011 704.1075,-176.9576 537.3005,-150.9446"/>
<polygon fill="#191970" stroke="#191970" points="537.53,-147.4382 527.1101,-149.3555 536.4513,-154.3546 537.53,-147.4382"/>
</g>
<!-- Node23 -->
<g id="node24" class="node">
<title>Node23</title>
<polygon fill="#ffffff" stroke="#bfbfbf" points="2066,-129 2066,-148 2159,-148 2159,-129 2066,-129"/>
<text text-anchor="middle" x="2112.5" y="-136" font-family="Helvetica,sans-Serif" font-size="10.00" fill="#000000">AMReX_REAL.H</text>
</g>
<!-- Node22&#45;&gt;Node23 -->
<g id="edge33" class="edge">
<title>Node22&#45;&gt;Node23</title>
<path fill="none" stroke="#191970" d="M2167.3304,-195.9005C2157.2551,-185.353 2140.8793,-168.2096 2128.6431,-155.3998"/>
<polygon fill="#191970" stroke="#191970" points="2131.0909,-152.8952 2121.6526,-148.0817 2126.0291,-157.7304 2131.0909,-152.8952"/>
</g>
<!-- Node24 -->
<g id="node25" class="node">
<title>Node24</title>
<polygon fill="#ffffff" stroke="#bfbfbf" points="2177.5,-129 2177.5,-148 2303.5,-148 2303.5,-129 2177.5,-129"/>
<text text-anchor="middle" x="2240.5" y="-136" font-family="Helvetica,sans-Serif" font-size="10.00" fill="#000000">AMReX_GpuQualifiers.H</text>
</g>
<!-- Node22&#45;&gt;Node24 -->
<g id="edge34" class="edge">
<title>Node22&#45;&gt;Node24</title>
<path fill="none" stroke="#191970" d="M2185.6696,-195.9005C2195.7449,-185.353 2212.1207,-168.2096 2224.3569,-155.3998"/>
<polygon fill="#191970" stroke="#191970" points="2226.9709,-157.7304 2231.3474,-148.0817 2221.9091,-152.8952 2226.9709,-157.7304"/>
</g>
<!-- Node25 -->
<g id="node26" class="node">
<title>Node25</title>
<polygon fill="#ffffff" stroke="#bfbfbf" points="2321.5,-129 2321.5,-148 2431.5,-148 2431.5,-129 2321.5,-129"/>
<text text-anchor="middle" x="2376.5" y="-136" font-family="Helvetica,sans-Serif" font-size="10.00" fill="#000000">AMReX_Extension.H</text>
</g>
<!-- Node22&#45;&gt;Node25 -->
<g id="edge35" class="edge">
<title>Node22&#45;&gt;Node25</title>
<path fill="none" stroke="#191970" d="M2205.1551,-195.9005C2240.0563,-184.2086 2299.1502,-164.4122 2337.9997,-151.3976"/>
<polygon fill="#191970" stroke="#191970" points="2339.5277,-154.577 2347.898,-148.0817 2337.3041,-147.9395 2339.5277,-154.577"/>
</g>
<!-- Node26&#45;&gt;Node5 -->
<g id="edge38" class="edge">
<title>Node26&#45;&gt;Node5</title>
<path fill="none" stroke="#191970" d="M1307.0281,-195.9908C1280.9828,-188.0717 1246.9899,-174.6954 1222.5,-154 1183.1336,-120.7332 1204.4036,-82.9976 1160.5,-56 1124.8255,-34.0627 850.6693,-18.2233 734.3803,-12.4243"/>
<polygon fill="#191970" stroke="#191970" points="734.4537,-8.9238 724.2934,-11.9268 734.1088,-15.9153 734.4537,-8.9238"/>
</g>
<!-- Node26&#45;&gt;Node10 -->
<g id="edge37" class="edge">
<title>Node26&#45;&gt;Node10</title>
<path fill="none" stroke="#191970" d="M1307.0869,-195.9929C1284.4969,-188.3873 1257.3416,-175.3626 1241.5,-154 1213.9238,-116.8131 1213.4815,-59.3799 1215.4911,-29.5261"/>
<polygon fill="#191970" stroke="#191970" points="1218.981,-29.7921 1216.3299,-19.5343 1212.0056,-29.2065 1218.981,-29.7921"/>
</g>
<!-- Node26&#45;&gt;Node12 -->
<g id="edge57" class="edge">
<title>Node26&#45;&gt;Node12</title>
<path fill="none" stroke="#191970" d="M1413.7891,-197.9787C1487.3811,-189.3817 1607.7752,-173.8915 1710.5,-154 1740.9521,-148.1033 1962.3795,-111.4234 1981.5,-87 1989.9932,-76.1513 1988.6915,-67.752 1981.5,-56 1972.1591,-40.7354 1955.9772,-30.3326 1939.8874,-23.3404"/>
<polygon fill="#191970" stroke="#191970" points="1941.0629,-20.0414 1930.477,-19.6067 1938.4813,-26.548 1941.0629,-20.0414"/>
</g>
<!-- Node26&#45;&gt;Node14 -->
<g id="edge44" class="edge">
<title>Node26&#45;&gt;Node14</title>
<path fill="none" stroke="#191970" d="M1277.3921,-196.5212C1210.2778,-187.2932 1104.9452,-171.7906 1014.5,-154 1008.8121,-152.8812 1002.8681,-151.6086 996.9848,-150.2849"/>
<polygon fill="#191970" stroke="#191970" points="997.7277,-146.8644 987.1968,-148.027 996.1542,-153.6853 997.7277,-146.8644"/>
</g>
<!-- Node26&#45;&gt;Node18 -->
<g id="edge39" class="edge">
<title>Node26&#45;&gt;Node18</title>
<path fill="none" stroke="#191970" d="M1322.6887,-195.9436C1305.9774,-187.5792 1284.5318,-173.6696 1274.5,-154 1251.1907,-108.2969 1291.1572,-81.8034 1335.5,-56 1357.9583,-42.9314 1419.0791,-30.0959 1468.6061,-21.3186"/>
<polygon fill="#191970" stroke="#191970" points="1469.4117,-24.731 1478.6609,-19.5635 1468.208,-17.8352 1469.4117,-24.731"/>
</g>
<!-- Node26&#45;&gt;Node21 -->
<g id="edge56" class="edge">
<title>Node26&#45;&gt;Node21</title>
<path fill="none" stroke="#191970" d="M1413.5301,-202.5526C1522.5576,-197.1407 1742.9254,-183.3702 1927.5,-154 1933.9223,-152.9781 1940.6448,-151.6893 1947.249,-150.2935"/>
<polygon fill="#191970" stroke="#191970" points="1948.4603,-153.6104 1957.4695,-148.035 1946.9499,-146.7753 1948.4603,-153.6104"/>
</g>
<!-- Node27 -->
<g id="node28" class="node">
<title>Node27</title>
<g id="a_node28"><a xlink:href="_field_utils_8_h.html" target="_top" xlink:title="amr&#45;wind/core/FieldUtils.H">
<polygon fill="#ffffff" stroke="#000000" points="2050,-62 2050,-81 2183,-81 2183,-62 2050,-62"/>
<text text-anchor="middle" x="2116.5" y="-69" font-family="Helvetica,sans-Serif" font-size="10.00" fill="#000000">amr&#45;wind/core/FieldUtils.H</text>
</a>
</g>
</g>
<!-- Node26&#45;&gt;Node27 -->
<g id="edge40" class="edge">
<title>Node26&#45;&gt;Node27</title>
<path fill="none" stroke="#191970" d="M1413.501,-200.0175C1554.5128,-188.5174 1867.5354,-162.2553 1889.5,-154 1911.5535,-145.7113 1911.2731,-133.2216 1932.5,-123 1971.0198,-104.4512 2017.3908,-91.5259 2053.9445,-83.2632"/>
<polygon fill="#191970" stroke="#191970" points="2054.965,-86.6225 2063.9794,-81.0556 2053.461,-79.786 2054.965,-86.6225"/>
</g>
<!-- Node29 -->
<g id="node30" class="node">
<title>Node29</title>
<g id="a_node30"><a xlink:href="_int_field_8_h.html" target="_top" xlink:title="amr&#45;wind/core/IntField.H">
<polygon fill="#ffffff" stroke="#000000" points="1283.5,-129 1283.5,-148 1407.5,-148 1407.5,-129 1283.5,-129"/>
<text text-anchor="middle" x="1345.5" y="-136" font-family="Helvetica,sans-Serif" font-size="10.00" fill="#000000">amr&#45;wind/core/IntField.H</text>
</a>
</g>
</g>
<!-- Node26&#45;&gt;Node29 -->
<g id="edge45" class="edge">
<title>Node26&#45;&gt;Node29</title>
<path fill="none" stroke="#191970" d="M1345.5,-195.9005C1345.5,-186.149 1345.5,-170.7597 1345.5,-158.3695"/>
<polygon fill="#191970" stroke="#191970" points="1349.0001,-158.0816 1345.5,-148.0817 1342.0001,-158.0817 1349.0001,-158.0816"/>
</g>
<!-- Node30 -->
<g id="node31" class="node">
<title>Node30</title>
<polygon fill="#ffffff" stroke="#bfbfbf" points="1360,-62 1360,-81 1467,-81 1467,-62 1360,-62"/>
<text text-anchor="middle" x="1413.5" y="-69" font-family="Helvetica,sans-Serif" font-size="10.00" fill="#000000">AMReX_iMultiFab.H</text>
</g>
<!-- Node26&#45;&gt;Node30 -->
<g id="edge58" class="edge">
<title>Node26&#45;&gt;Node30</title>
<path fill="none" stroke="#191970" d="M1368.3113,-195.9436C1385.0226,-187.5792 1406.4682,-173.6696 1416.5,-154 1426.4889,-134.4145 1423.4297,-108.6787 1419.373,-91.1955"/>
<polygon fill="#191970" stroke="#191970" points="1422.6295,-89.8194 1416.6902,-81.0459 1415.8619,-91.6083 1422.6295,-89.8194"/>
</g>
<!-- Node31 -->
<g id="node32" class="node">
<title>Node31</title>
<g id="a_node32"><a xlink:href="_scratch_field_8_h.html" target="_top" xlink:title="amr&#45;wind/core/ScratchField.H">
<polygon fill="#ffffff" stroke="#000000" points="1555.5,-129 1555.5,-148 1701.5,-148 1701.5,-129 1555.5,-129"/>
<text text-anchor="middle" x="1628.5" y="-136" font-family="Helvetica,sans-Serif" font-size="10.00" fill="#000000">amr&#45;wind/core/ScratchField.H</text>
</a>
</g>
</g>
<!-- Node26&#45;&gt;Node31 -->
<g id="edge49" class="edge">
<title>Node26&#45;&gt;Node31</title>
<path fill="none" stroke="#191970" d="M1385.7465,-195.9717C1436.3143,-183.9998 1523.1124,-163.4504 1578.0607,-150.4415"/>
<polygon fill="#191970" stroke="#191970" points="1579.0095,-153.8137 1587.9342,-148.1039 1577.3968,-147.002 1579.0095,-153.8137"/>
</g>
<!-- Node27&#45;&gt;Node12 -->
<g id="edge42" class="edge">
<title>Node27&#45;&gt;Node12</title>
<path fill="none" stroke="#191970" d="M2081.3438,-61.8906C2042.2111,-51.1944 1978.879,-33.8836 1936.2418,-22.2294"/>
<polygon fill="#191970" stroke="#191970" points="1936.9784,-18.8024 1926.4094,-19.5419 1935.1327,-25.5547 1936.9784,-18.8024"/>
</g>
<!-- Node27&#45;&gt;Node18 -->
<g id="edge41" class="edge">
<title>Node27&#45;&gt;Node18</title>
<path fill="none" stroke="#191970" d="M2049.7471,-64.3851C1946.5544,-53.3862 1748.0498,-32.2284 1631.3807,-19.7932"/>
<polygon fill="#191970" stroke="#191970" points="1631.7071,-16.3082 1621.3924,-18.7286 1630.9651,-23.2688 1631.7071,-16.3082"/>
</g>
<!-- Node28 -->
<g id="node29" class="node">
<title>Node28</title>
<polygon fill="#ffffff" stroke="#bfbfbf" points="2058.5,-.5 2058.5,-19.5 2174.5,-19.5 2174.5,-.5 2058.5,-.5"/>
<text text-anchor="middle" x="2116.5" y="-7.5" font-family="Helvetica,sans-Serif" font-size="10.00" fill="#000000">AMReX_Interpolater.H</text>
</g>
<!-- Node27&#45;&gt;Node28 -->
<g id="edge43" class="edge">
<title>Node27&#45;&gt;Node28</title>
<path fill="none" stroke="#191970" d="M2116.5,-61.8906C2116.5,-53.3657 2116.5,-40.6392 2116.5,-29.9235"/>
<polygon fill="#191970" stroke="#191970" points="2120.0001,-29.7448 2116.5,-19.7449 2113.0001,-29.7449 2120.0001,-29.7448"/>
</g>
<!-- Node29&#45;&gt;Node10 -->
<g id="edge46" class="edge">
<title>Node29&#45;&gt;Node10</title>
<path fill="none" stroke="#191970" d="M1335.8792,-128.8416C1314.2891,-107.1672 1261.7455,-54.4184 1234.5055,-27.0719"/>
<polygon fill="#191970" stroke="#191970" points="1236.7694,-24.3853 1227.2324,-19.7705 1231.81,-29.3254 1236.7694,-24.3853"/>
</g>
<!-- Node29&#45;&gt;Node18 -->
<g id="edge47" class="edge">
<title>Node29&#45;&gt;Node18</title>
<path fill="none" stroke="#191970" d="M1342.7739,-128.7807C1338.67,-111.8586 1333.1059,-76.8071 1350.5,-56 1363.9883,-39.8651 1409.0881,-28.5418 1451.8477,-21.1675"/>
<polygon fill="#191970" stroke="#191970" points="1452.4908,-24.6087 1461.7812,-19.5157 1451.3426,-17.7035 1452.4908,-24.6087"/>
</g>
<!-- Node29&#45;&gt;Node30 -->
<g id="edge48" class="edge">
<title>Node29&#45;&gt;Node30</title>
<path fill="none" stroke="#191970" d="M1355.2427,-128.9005C1365.9477,-118.353 1383.347,-101.2096 1396.3479,-88.3998"/>
<polygon fill="#191970" stroke="#191970" points="1399.1085,-90.5933 1403.7753,-81.0817 1394.1956,-85.607 1399.1085,-90.5933"/>
</g>
<!-- Node31&#45;&gt;Node10 -->
<g id="edge50" class="edge">
<title>Node31&#45;&gt;Node10</title>
<path fill="none" stroke="#191970" d="M1599.2718,-128.929C1574.3196,-120.0553 1538.0472,-105.4536 1509.5,-87 1492.3264,-75.8986 1493.843,-65.0392 1475.5,-56 1435.9269,-36.499 1308.2532,-20.1458 1248.6676,-13.3621"/>
<polygon fill="#191970" stroke="#191970" points="1248.6982,-9.8437 1238.3706,-12.2082 1247.9186,-16.8002 1248.6982,-9.8437"/>
</g>
<!-- Node31&#45;&gt;Node11 -->
<g id="edge54" class="edge">
<title>Node31&#45;&gt;Node11</title>
<path fill="none" stroke="#191970" d="M1614.1277,-128.9415C1598.7818,-118.6935 1573.7928,-101.8849 1552.5,-87 1533.1906,-73.5015 1530.18,-67.2872 1509.5,-56 1484.8578,-42.5502 1455.4418,-31.0033 1432.2699,-22.8424"/>
<polygon fill="#191970" stroke="#191970" points="1433.3483,-19.5121 1422.7536,-19.5566 1431.0636,-26.1288 1433.3483,-19.5121"/>
</g>
<!-- Node31&#45;&gt;Node12 -->
<g id="edge53" class="edge">
<title>Node31&#45;&gt;Node12</title>
<path fill="none" stroke="#191970" d="M1701.8741,-132.2907C1795.5497,-123.6079 1947.611,-106.6749 1964.5,-87 1973.4741,-76.5457 1971.1568,-68.0629 1964.5,-56 1956.6036,-41.6908 1942.1789,-31.2233 1928.2246,-23.9219"/>
<polygon fill="#191970" stroke="#191970" points="1929.724,-20.7593 1919.1959,-19.5725 1926.686,-27.0657 1929.724,-20.7593"/>
</g>
<!-- Node31&#45;&gt;Node18 -->
<g id="edge51" class="edge">
<title>Node31&#45;&gt;Node18</title>
<path fill="none" stroke="#191970" d="M1649.2527,-128.8806C1678.4788,-114.0169 1725.9341,-84.2271 1704.5,-56 1692.9437,-40.7812 1651.4072,-29.2497 1612.904,-21.5387"/>
<polygon fill="#191970" stroke="#191970" points="1613.1604,-18.0236 1602.678,-19.5632 1611.8325,-24.8965 1613.1604,-18.0236"/>
</g>
<!-- Node31&#45;&gt;Node19 -->
<g id="edge52" class="edge">
<title>Node31&#45;&gt;Node19</title>
<path fill="none" stroke="#191970" d="M1628.5,-128.9005C1628.5,-119.149 1628.5,-103.7597 1628.5,-91.3695"/>
<polygon fill="#191970" stroke="#191970" points="1632.0001,-91.0816 1628.5,-81.0817 1625.0001,-91.0817 1632.0001,-91.0816"/>
</g>
<!-- Node32 -->
<g id="node33" class="node">
<title>Node32</title>
<polygon fill="#ffffff" stroke="#bfbfbf" points="1827.5,-62 1827.5,-81 1955.5,-81 1955.5,-62 1827.5,-62"/>
<text text-anchor="middle" x="1891.5" y="-69" font-family="Helvetica,sans-Serif" font-size="10.00" fill="#000000">AMReX_PhysBCFunct.H</text>
</g>
<!-- Node31&#45;&gt;Node32 -->
<g id="edge55" class="edge">
<title>Node31&#45;&gt;Node32</title>
<path fill="none" stroke="#191970" d="M1665.9022,-128.9717C1712.7014,-117.0495 1792.8914,-96.6208 1843.9881,-83.6038"/>
<polygon fill="#191970" stroke="#191970" points="1844.9746,-86.9643 1853.801,-81.1039 1843.2465,-80.181 1844.9746,-86.9643"/>
</g>
<!-- Node33&#45;&gt;Node3 -->
<g id="edge61" class="edge">
<title>Node33&#45;&gt;Node3</title>
<path fill="none" stroke="#191970" d="M436.8507,-123.2967C422.1219,-112.4524 402.3814,-97.9182 387.5604,-87.006"/>
<polygon fill="#191970" stroke="#191970" points="389.6056,-84.1655 379.4776,-81.055 385.4553,-89.8025 389.6056,-84.1655"/>
</g>
<!-- Node33&#45;&gt;Node9 -->
<g id="edge62" class="edge">
<title>Node33&#45;&gt;Node9</title>
<path fill="none" stroke="#191970" d="M518.3177,-123.4639C567.2102,-111.3761 634.9686,-94.624 680.1961,-83.4423"/>
<polygon fill="#191970" stroke="#191970" points="681.1856,-86.8031 690.0532,-81.0053 679.5055,-80.0077 681.1856,-86.8031"/>
</g>
<!-- Node33&#45;&gt;Node10 -->
<g id="edge60" class="edge">
<title>Node33&#45;&gt;Node10</title>
<path fill="none" stroke="#191970" d="M463.0485,-123.4615C471.0927,-104.0608 487.9974,-71.0258 514.5,-56 573.4944,-22.5527 1057.9158,-12.5337 1186.3467,-10.453"/>
<polygon fill="#191970" stroke="#191970" points="1186.7061,-13.9479 1196.6498,-10.2909 1186.596,-6.9488 1186.7061,-13.9479"/>
</g>
<!-- Node33&#45;&gt;Node17 -->
<g id="edge66" class="edge">
<title>Node33&#45;&gt;Node17</title>
<path fill="none" stroke="#191970" d="M404.537,-123.4639C362.4062,-111.503 304.1895,-94.9754 264.813,-83.7965"/>
<polygon fill="#191970" stroke="#191970" points="265.557,-80.3695 254.9813,-81.0053 263.6453,-87.1034 265.557,-80.3695"/>
</g>
<!-- Node33&#45;&gt;Node18 -->
<g id="edge65" class="edge">
<title>Node33&#45;&gt;Node18</title>
<path fill="none" stroke="#191970" d="M527.0214,-132.3065C612.435,-123.9602 751.8773,-107.7286 799.5,-87 819.8022,-78.1631 817.8187,-63.9093 838.5,-56 962.4838,-8.5837 1297.6748,-30.3818 1447.6282,-19.9605"/>
<polygon fill="#191970" stroke="#191970" points="1447.9637,-23.4452 1457.6664,-19.1899 1447.4279,-16.4657 1447.9637,-23.4452"/>
</g>
<!-- Node34 -->
<g id="node35" class="node">
<title>Node34</title>
<g id="a_node35"><a xlink:href="_p_d_e_fields_8_h.html" target="_top" xlink:title="amr&#45;wind/equation_systems\l/PDEFields.H">
<polygon fill="#ffffff" stroke="#000000" points="0,-56.5 0,-86.5 139,-86.5 139,-56.5 0,-56.5"/>
<text text-anchor="start" x="8" y="-74.5" font-family="Helvetica,sans-Serif" font-size="10.00" fill="#000000">amr&#45;wind/equation_systems</text>
<text text-anchor="middle" x="69.5" y="-63.5" font-family="Helvetica,sans-Serif" font-size="10.00" fill="#000000">/PDEFields.H</text>
</a>
</g>
</g>
<!-- Node33&#45;&gt;Node34 -->
<g id="edge63" class="edge">
<title>Node33&#45;&gt;Node34</title>
<path fill="none" stroke="#191970" d="M387.7567,-127.4599C327.3295,-117.7606 237.2995,-102.9905 149.1682,-87.093"/>
<polygon fill="#191970" stroke="#191970" points="149.73,-83.6379 139.2664,-85.3006 148.483,-90.526 149.73,-83.6379"/>
</g>
<!-- Node35 -->
<g id="node36" class="node">
<title>Node35</title>
<polygon fill="#ffffff" stroke="#bfbfbf" points="47,-.5 47,-19.5 92,-19.5 92,-.5 47,-.5"/>
<text text-anchor="middle" x="69.5" y="-7.5" font-family="Helvetica,sans-Serif" font-size="10.00" fill="#000000">iosfwd</text>
</g>
<!-- Node34&#45;&gt;Node35 -->
<g id="edge64" class="edge">
<title>Node34&#45;&gt;Node35</title>
<path fill="none" stroke="#191970" d="M69.5,-56.2977C69.5,-48.3834 69.5,-38.6043 69.5,-30.0759"/>
<polygon fill="#191970" stroke="#191970" points="73.0001,-29.8469 69.5,-19.8469 66.0001,-29.847 73.0001,-29.8469"/>
</g>
</g>
</svg>
