<?xml version="1.0" encoding="UTF-8" standalone="no"?>
<!DOCTYPE svg PUBLIC "-//W3C//DTD SVG 1.1//EN"
 "http://www.w3.org/Graphics/SVG/1.1/DTD/svg11.dtd">
<!-- Generated by graphviz version 2.40.1 (20161225.0304)
 -->
<!-- Title: VorticityRefinement.cpp Pages: 1 -->
<svg width="2944pt" height="341pt"
 viewBox="0.00 0.00 2944.00 341.00" xmlns="http://www.w3.org/2000/svg" xmlns:xlink="http://www.w3.org/1999/xlink">
<g id="graph0" class="graph" transform="scale(1 1) rotate(0) translate(4 337)">
<title>VorticityRefinement.cpp</title>
<polygon fill="#ffffff" stroke="transparent" points="-4,4 -4,-337 2940,-337 2940,4 -4,4"/>
<!-- Node0 -->
<g id="node1" class="node">
<title>Node0</title>
<polygon fill="#bfbfbf" stroke="#000000" points="2702,-313.5 2702,-332.5 2824,-332.5 2824,-313.5 2702,-313.5"/>
<text text-anchor="middle" x="2763" y="-320.5" font-family="Helvetica,sans-Serif" font-size="10.00" fill="#000000">VorticityRefinement.cpp</text>
</g>
<!-- Node1 -->
<g id="node2" class="node">
<title>Node1</title>
<g id="a_node2"><a xlink:href="_vorticity_refinement_8_h.html" target="_top" xlink:title="amr&#45;wind/utilities\l/tagging/VorticityRefinement.H">
<polygon fill="#ffffff" stroke="#000000" points="2587.5,-246.5 2587.5,-276.5 2738.5,-276.5 2738.5,-246.5 2587.5,-246.5"/>
<text text-anchor="start" x="2595.5" y="-264.5" font-family="Helvetica,sans-Serif" font-size="10.00" fill="#000000">amr&#45;wind/utilities</text>
<text text-anchor="middle" x="2663" y="-253.5" font-family="Helvetica,sans-Serif" font-size="10.00" fill="#000000">/tagging/VorticityRefinement.H</text>
</a>
</g>
</g>
<!-- Node0&#45;&gt;Node1 -->
<g id="edge1" class="edge">
<title>Node0&#45;&gt;Node1</title>
<path fill="none" stroke="#191970" d="M2747.375,-313.3906C2733.7159,-304.9903 2713.4232,-292.5103 2696.1618,-281.8945"/>
<polygon fill="#191970" stroke="#191970" points="2697.8143,-278.8019 2687.4628,-276.5446 2694.1473,-284.7646 2697.8143,-278.8019"/>
</g>
<!-- Node10 -->
<g id="node11" class="node">
<title>Node10</title>
<polygon fill="#ffffff" stroke="#bfbfbf" points="2450,-56.5 2450,-75.5 2512,-75.5 2512,-56.5 2450,-56.5"/>
<text text-anchor="middle" x="2481" y="-63.5" font-family="Helvetica,sans-Serif" font-size="10.00" fill="#000000">AMReX.H</text>
</g>
<!-- Node0&#45;&gt;Node10 -->
<g id="edge70" class="edge">
<title>Node0&#45;&gt;Node10</title>
<path fill="none" stroke="#191970" d="M2767.5918,-313.0808C2782.1907,-279.9063 2823.6331,-171.5671 2772,-112 2736.8943,-71.5 2591.5116,-85.2888 2522.3913,-75.8193"/>
<polygon fill="#191970" stroke="#191970" points="2522.8111,-72.3414 2512.3747,-74.1667 2521.6715,-79.248 2522.8111,-72.3414"/>
</g>
<!-- Node11 -->
<g id="node12" class="node">
<title>Node11</title>
<g id="a_node12"><a xlink:href="_c_f_d_sim_8_h.html" target="_top" xlink:title="amr&#45;wind/CFDSim.H">
<polygon fill="#ffffff" stroke="#000000" points="1959,-252 1959,-271 2067,-271 2067,-252 1959,-252"/>
<text text-anchor="middle" x="2013" y="-259" font-family="Helvetica,sans-Serif" font-size="10.00" fill="#000000">amr&#45;wind/CFDSim.H</text>
</a>
</g>
</g>
<!-- Node0&#45;&gt;Node11 -->
<g id="edge11" class="edge">
<title>Node0&#45;&gt;Node11</title>
<path fill="none" stroke="#191970" d="M2701.9423,-317.9933C2562.2301,-306.5369 2220.3364,-278.5016 2077.4315,-266.7834"/>
<polygon fill="#191970" stroke="#191970" points="2077.3356,-263.2639 2067.083,-265.9348 2076.7635,-270.2404 2077.3356,-263.2639"/>
</g>
<!-- Node38 -->
<g id="node39" class="node">
<title>Node38</title>
<polygon fill="#ffffff" stroke="#bfbfbf" points="2820,-252 2820,-271 2936,-271 2936,-252 2820,-252"/>
<text text-anchor="middle" x="2878" y="-259" font-family="Helvetica,sans-Serif" font-size="10.00" fill="#000000">AMReX_ParmParse.H</text>
</g>
<!-- Node0&#45;&gt;Node38 -->
<g id="edge71" class="edge">
<title>Node0&#45;&gt;Node38</title>
<path fill="none" stroke="#191970" d="M2780.9688,-313.3906C2799.7884,-303.3262 2829.5585,-287.4057 2851.1641,-275.8514"/>
<polygon fill="#191970" stroke="#191970" points="2852.9898,-278.8442 2860.1574,-271.0419 2849.6886,-272.6714 2852.9898,-278.8442"/>
</g>
<!-- Node2 -->
<g id="node3" class="node">
<title>Node2</title>
<g id="a_node3"><a xlink:href="_refinement_criteria_8_h.html" target="_top" xlink:title="amr&#45;wind/utilities\l/tagging/RefinementCriteria.H">
<polygon fill="#ffffff" stroke="#000000" points="2542,-179.5 2542,-209.5 2688,-209.5 2688,-179.5 2542,-179.5"/>
<text text-anchor="start" x="2550" y="-197.5" font-family="Helvetica,sans-Serif" font-size="10.00" fill="#000000">amr&#45;wind/utilities</text>
<text text-anchor="middle" x="2615" y="-186.5" font-family="Helvetica,sans-Serif" font-size="10.00" fill="#000000">/tagging/RefinementCriteria.H</text>
</a>
</g>
</g>
<!-- Node1&#45;&gt;Node2 -->
<g id="edge2" class="edge">
<title>Node1&#45;&gt;Node2</title>
<path fill="none" stroke="#191970" d="M2652.1081,-246.2967C2646.0937,-237.9016 2638.4951,-227.2952 2631.7426,-217.8698"/>
<polygon fill="#191970" stroke="#191970" points="2634.5179,-215.734 2625.8488,-209.6432 2628.8275,-219.8107 2634.5179,-215.734"/>
</g>
<!-- Node3 -->
<g id="node4" class="node">
<title>Node3</title>
<polygon fill="#ffffff" stroke="#bfbfbf" points="2538,-118 2538,-137 2644,-137 2644,-118 2538,-118"/>
<text text-anchor="middle" x="2591" y="-125" font-family="Helvetica,sans-Serif" font-size="10.00" fill="#000000">AMReX_AmrCore.H</text>
</g>
<!-- Node2&#45;&gt;Node3 -->
<g id="edge3" class="edge">
<title>Node2&#45;&gt;Node3</title>
<path fill="none" stroke="#191970" d="M2609.554,-179.2967C2606.0688,-169.5672 2601.5197,-156.8675 2597.7982,-146.4784"/>
<polygon fill="#191970" stroke="#191970" points="2601.09,-145.2889 2594.4227,-137.055 2594.5,-147.6495 2601.09,-145.2889"/>
</g>
<!-- Node4 -->
<g id="node5" class="node">
<title>Node4</title>
<polygon fill="#ffffff" stroke="#bfbfbf" points="2662.5,-118 2662.5,-137 2763.5,-137 2763.5,-118 2662.5,-118"/>
<text text-anchor="middle" x="2713" y="-125" font-family="Helvetica,sans-Serif" font-size="10.00" fill="#000000">AMReX_TagBox.H</text>
</g>
<!-- Node2&#45;&gt;Node4 -->
<g id="edge4" class="edge">
<title>Node2&#45;&gt;Node4</title>
<path fill="none" stroke="#191970" d="M2637.2377,-179.2967C2653.2478,-168.351 2674.7563,-153.6462 2690.7656,-142.701"/>
<polygon fill="#191970" stroke="#191970" points="2692.7443,-145.5881 2699.0241,-137.055 2688.7936,-139.8095 2692.7443,-145.5881"/>
</g>
<!-- Node5 -->
<g id="node6" class="node">
<title>Node5</title>
<g id="a_node6"><a xlink:href="_factory_8_h.html" target="_top" xlink:title="amr&#45;wind/core/Factory.H">
<polygon fill="#ffffff" stroke="#000000" points="2198.5,-118 2198.5,-137 2323.5,-137 2323.5,-118 2198.5,-118"/>
<text text-anchor="middle" x="2261" y="-125" font-family="Helvetica,sans-Serif" font-size="10.00" fill="#000000">amr&#45;wind/core/Factory.H</text>
</a>
</g>
</g>
<!-- Node2&#45;&gt;Node5 -->
<g id="edge5" class="edge">
<title>Node2&#45;&gt;Node5</title>
<path fill="none" stroke="#191970" d="M2541.651,-180.6176C2476.4262,-168.2728 2382.2075,-150.4404 2321.2809,-138.9091"/>
<polygon fill="#191970" stroke="#191970" points="2321.9022,-135.4646 2311.4258,-137.0439 2320.6004,-142.3425 2321.9022,-135.4646"/>
</g>
<!-- Node6 -->
<g id="node7" class="node">
<title>Node6</title>
<polygon fill="#ffffff" stroke="#bfbfbf" points="1747,-56.5 1747,-75.5 1799,-75.5 1799,-56.5 1747,-56.5"/>
<text text-anchor="middle" x="1773" y="-63.5" font-family="Helvetica,sans-Serif" font-size="10.00" fill="#000000">memory</text>
</g>
<!-- Node5&#45;&gt;Node6 -->
<g id="edge6" class="edge">
<title>Node5&#45;&gt;Node6</title>
<path fill="none" stroke="#191970" d="M2198.3005,-118.8288C2181.6327,-116.5637 2163.6391,-114.1543 2147,-112 2023.2168,-95.9732 1876.2029,-78.2848 1809.3407,-70.3136"/>
<polygon fill="#191970" stroke="#191970" points="1809.6575,-66.8267 1799.3137,-69.1194 1808.8296,-73.7775 1809.6575,-66.8267"/>
</g>
<!-- Node7 -->
<g id="node8" class="node">
<title>Node7</title>
<polygon fill="#ffffff" stroke="#bfbfbf" points="1893.5,-56.5 1893.5,-75.5 1976.5,-75.5 1976.5,-56.5 1893.5,-56.5"/>
<text text-anchor="middle" x="1935" y="-63.5" font-family="Helvetica,sans-Serif" font-size="10.00" fill="#000000">unordered_map</text>
</g>
<!-- Node5&#45;&gt;Node7 -->
<g id="edge7" class="edge">
<title>Node5&#45;&gt;Node7</title>
<path fill="none" stroke="#191970" d="M2208.8203,-117.9711C2155.4083,-108.1705 2069.7244,-92.3197 1986.5941,-76.2929"/>
<polygon fill="#191970" stroke="#191970" points="1987.2162,-72.8484 1976.7339,-74.3887 1985.8889,-79.7214 1987.2162,-72.8484"/>
</g>
<!-- Node8 -->
<g id="node9" class="node">
<title>Node8</title>
<polygon fill="#ffffff" stroke="#bfbfbf" points="2234,-56.5 2234,-75.5 2288,-75.5 2288,-56.5 2234,-56.5"/>
<text text-anchor="middle" x="2261" y="-63.5" font-family="Helvetica,sans-Serif" font-size="10.00" fill="#000000">iostream</text>
</g>
<!-- Node5&#45;&gt;Node8 -->
<g id="edge8" class="edge">
<title>Node5&#45;&gt;Node8</title>
<path fill="none" stroke="#191970" d="M2261,-117.8906C2261,-109.3657 2261,-96.6392 2261,-85.9235"/>
<polygon fill="#191970" stroke="#191970" points="2264.5001,-85.7448 2261,-75.7449 2257.5001,-85.7449 2264.5001,-85.7448"/>
</g>
<!-- Node9 -->
<g id="node10" class="node">
<title>Node9</title>
<polygon fill="#ffffff" stroke="#bfbfbf" points="2306.5,-56.5 2306.5,-75.5 2393.5,-75.5 2393.5,-56.5 2306.5,-56.5"/>
<text text-anchor="middle" x="2350" y="-63.5" font-family="Helvetica,sans-Serif" font-size="10.00" fill="#000000">AMReX_Print.H</text>
</g>
<!-- Node5&#45;&gt;Node9 -->
<g id="edge9" class="edge">
<title>Node5&#45;&gt;Node9</title>
<path fill="none" stroke="#191970" d="M2274.9063,-117.8906C2289.0138,-108.1421 2311.0724,-92.8994 2327.6385,-81.4521"/>
<polygon fill="#191970" stroke="#191970" points="2329.9542,-84.1063 2336.1914,-75.5419 2325.9747,-78.3474 2329.9542,-84.1063"/>
</g>
<!-- Node5&#45;&gt;Node10 -->
<g id="edge10" class="edge">
<title>Node5&#45;&gt;Node10</title>
<path fill="none" stroke="#191970" d="M2295.375,-117.8906C2334.4505,-106.9672 2398.2031,-89.1455 2439.8803,-77.4948"/>
<polygon fill="#191970" stroke="#191970" points="2441.0245,-80.8092 2449.713,-74.7461 2439.1399,-74.0677 2441.0245,-80.8092"/>
</g>
<!-- Node11&#45;&gt;Node3 -->
<g id="edge12" class="edge">
<title>Node11&#45;&gt;Node3</title>
<path fill="none" stroke="#191970" d="M2055.4429,-251.9617C2143.583,-232.1035 2352.8428,-184.6962 2528,-143 2532.7494,-141.8694 2537.6965,-140.6773 2542.6382,-139.477"/>
<polygon fill="#191970" stroke="#191970" points="2543.8245,-142.7903 2552.7092,-137.0186 2542.1644,-135.99 2543.8245,-142.7903"/>
</g>
<!-- Node12 -->
<g id="node13" class="node">
<title>Node12</title>
<g id="a_node13"><a xlink:href="_sim_time_8_h.html" target="_top" xlink:title="amr&#45;wind/core/SimTime.H">
<polygon fill="#ffffff" stroke="#000000" points="173.5,-185 173.5,-204 304.5,-204 304.5,-185 173.5,-185"/>
<text text-anchor="middle" x="239" y="-192" font-family="Helvetica,sans-Serif" font-size="10.00" fill="#000000">amr&#45;wind/core/SimTime.H</text>
</a>
</g>
</g>
<!-- Node11&#45;&gt;Node12 -->
<g id="edge13" class="edge">
<title>Node11&#45;&gt;Node12</title>
<path fill="none" stroke="#191970" d="M1958.9391,-259.4582C1703.1346,-249.7971 614.2604,-208.6727 315.2384,-197.3794"/>
<polygon fill="#191970" stroke="#191970" points="315.0621,-193.8703 304.9371,-196.9903 314.7979,-200.8653 315.0621,-193.8703"/>
</g>
<!-- Node16 -->
<g id="node17" class="node">
<title>Node16</title>
<g id="a_node17"><a xlink:href="_field_repo_8_h.html" target="_top" xlink:title="amr&#45;wind/core/FieldRepo.H">
<polygon fill="#ffffff" stroke="#000000" points="1867,-185 1867,-204 2003,-204 2003,-185 1867,-185"/>
<text text-anchor="middle" x="1935" y="-192" font-family="Helvetica,sans-Serif" font-size="10.00" fill="#000000">amr&#45;wind/core/FieldRepo.H</text>
</a>
</g>
</g>
<!-- Node11&#45;&gt;Node16 -->
<g id="edge17" class="edge">
<title>Node11&#45;&gt;Node16</title>
<path fill="none" stroke="#191970" d="M2001.8245,-251.9005C1989.3136,-241.1539 1968.8314,-223.5603 1953.8358,-210.6794"/>
<polygon fill="#191970" stroke="#191970" points="1956.0211,-207.9426 1946.1548,-204.0817 1951.4599,-213.2526 1956.0211,-207.9426"/>
</g>
<!-- Node32 -->
<g id="node33" class="node">
<title>Node32</title>
<g id="a_node33"><a xlink:href="_p_d_e_base_8_h.html" target="_top" xlink:title="amr&#45;wind/equation_systems\l/PDEBase.H">
<polygon fill="#ffffff" stroke="#000000" points="2021.5,-179.5 2021.5,-209.5 2160.5,-209.5 2160.5,-179.5 2021.5,-179.5"/>
<text text-anchor="start" x="2029.5" y="-197.5" font-family="Helvetica,sans-Serif" font-size="10.00" fill="#000000">amr&#45;wind/equation_systems</text>
<text text-anchor="middle" x="2091" y="-186.5" font-family="Helvetica,sans-Serif" font-size="10.00" fill="#000000">/PDEBase.H</text>
</a>
</g>
</g>
<!-- Node11&#45;&gt;Node32 -->
<g id="edge53" class="edge">
<title>Node11&#45;&gt;Node32</title>
<path fill="none" stroke="#191970" d="M2024.1755,-251.9005C2034.9508,-242.6448 2051.639,-228.3101 2065.6423,-216.2816"/>
<polygon fill="#191970" stroke="#191970" points="2068.2068,-218.6927 2073.512,-209.5218 2063.6457,-213.3827 2068.2068,-218.6927"/>
</g>
<!-- Node36 -->
<g id="node37" class="node">
<title>Node36</title>
<g id="a_node37"><a xlink:href="_physics_8_h.html" target="_top" xlink:title="amr&#45;wind/core/Physics.H">
<polygon fill="#ffffff" stroke="#000000" points="1721.5,-185 1721.5,-204 1848.5,-204 1848.5,-185 1721.5,-185"/>
<text text-anchor="middle" x="1785" y="-192" font-family="Helvetica,sans-Serif" font-size="10.00" fill="#000000">amr&#45;wind/core/Physics.H</text>
</a>
</g>
</g>
<!-- Node11&#45;&gt;Node36 -->
<g id="edge65" class="edge">
<title>Node11&#45;&gt;Node36</title>
<path fill="none" stroke="#191970" d="M1980.3332,-251.9005C1940.0379,-240.0594 1871.4543,-219.9054 1827.2055,-206.9025"/>
<polygon fill="#191970" stroke="#191970" points="1828.1874,-203.5431 1817.6062,-204.0817 1826.2138,-210.2591 1828.1874,-203.5431"/>
</g>
<!-- Node13 -->
<g id="node14" class="node">
<title>Node13</title>
<polygon fill="#ffffff" stroke="#bfbfbf" points="128.5,-118 128.5,-137 221.5,-137 221.5,-118 128.5,-118"/>
<text text-anchor="middle" x="175" y="-125" font-family="Helvetica,sans-Serif" font-size="10.00" fill="#000000">AMReX_REAL.H</text>
</g>
<!-- Node12&#45;&gt;Node13 -->
<g id="edge14" class="edge">
<title>Node12&#45;&gt;Node13</title>
<path fill="none" stroke="#191970" d="M229.8304,-184.9005C219.7551,-174.353 203.3793,-157.2096 191.1431,-144.3998"/>
<polygon fill="#191970" stroke="#191970" points="193.5909,-141.8952 184.1526,-137.0817 188.5291,-146.7304 193.5909,-141.8952"/>
</g>
<!-- Node14 -->
<g id="node15" class="node">
<title>Node14</title>
<polygon fill="#ffffff" stroke="#bfbfbf" points="240,-118 240,-137 366,-137 366,-118 240,-118"/>
<text text-anchor="middle" x="303" y="-125" font-family="Helvetica,sans-Serif" font-size="10.00" fill="#000000">AMReX_GpuQualifiers.H</text>
</g>
<!-- Node12&#45;&gt;Node14 -->
<g id="edge15" class="edge">
<title>Node12&#45;&gt;Node14</title>
<path fill="none" stroke="#191970" d="M248.1696,-184.9005C258.2449,-174.353 274.6207,-157.2096 286.8569,-144.3998"/>
<polygon fill="#191970" stroke="#191970" points="289.4709,-146.7304 293.8474,-137.0817 284.4091,-141.8952 289.4709,-146.7304"/>
</g>
<!-- Node15 -->
<g id="node16" class="node">
<title>Node15</title>
<polygon fill="#ffffff" stroke="#bfbfbf" points="0,-118 0,-137 110,-137 110,-118 0,-118"/>
<text text-anchor="middle" x="55" y="-125" font-family="Helvetica,sans-Serif" font-size="10.00" fill="#000000">AMReX_Extension.H</text>
</g>
<!-- Node12&#45;&gt;Node15 -->
<g id="edge16" class="edge">
<title>Node12&#45;&gt;Node15</title>
<path fill="none" stroke="#191970" d="M212.6373,-184.9005C180.6649,-173.2584 126.6241,-153.5805 90.8775,-140.5641"/>
<polygon fill="#191970" stroke="#191970" points="91.9078,-137.2145 81.3138,-137.0817 89.5127,-143.792 91.9078,-137.2145"/>
</g>
<!-- Node16&#45;&gt;Node3 -->
<g id="edge50" class="edge">
<title>Node16&#45;&gt;Node3</title>
<path fill="none" stroke="#191970" d="M1977.1969,-184.986C1988.4561,-182.7274 2000.6485,-180.532 2012,-179 2239.8253,-148.2527 2300.8811,-178.5922 2528,-143 2534.2073,-142.0272 2540.7006,-140.7425 2547.0606,-139.3279"/>
<polygon fill="#191970" stroke="#191970" points="2547.9481,-142.7148 2556.8849,-137.0243 2546.35,-135.8997 2547.9481,-142.7148"/>
</g>
<!-- Node16&#45;&gt;Node7 -->
<g id="edge19" class="edge">
<title>Node16&#45;&gt;Node7</title>
<path fill="none" stroke="#191970" d="M1935,-184.8416C1935,-163.9114 1935,-114.004 1935,-85.9762"/>
<polygon fill="#191970" stroke="#191970" points="1938.5001,-85.7704 1935,-75.7705 1931.5001,-85.7705 1938.5001,-85.7704"/>
</g>
<!-- Node17 -->
<g id="node18" class="node">
<title>Node17</title>
<polygon fill="#ffffff" stroke="#bfbfbf" points="1844.5,-.5 1844.5,-19.5 1885.5,-19.5 1885.5,-.5 1844.5,-.5"/>
<text text-anchor="middle" x="1865" y="-7.5" font-family="Helvetica,sans-Serif" font-size="10.00" fill="#000000">string</text>
</g>
<!-- Node16&#45;&gt;Node17 -->
<g id="edge18" class="edge">
<title>Node16&#45;&gt;Node17</title>
<path fill="none" stroke="#191970" d="M1979.4009,-184.9778C2039.8056,-171.8414 2141.1051,-149.0886 2147,-143 2174.2421,-114.8629 2186.4783,-85.7436 2161,-56 2143.8639,-35.9951 1968.4598,-18.8434 1896.0285,-12.5583"/>
<polygon fill="#191970" stroke="#191970" points="1895.985,-9.0419 1885.7232,-11.6773 1895.3888,-16.0164 1895.985,-9.0419"/>
</g>
<!-- Node18 -->
<g id="node19" class="node">
<title>Node18</title>
<g id="a_node19"><a xlink:href="_field_desc_types_8_h.html" target="_top" xlink:title="amr&#45;wind/core/FieldDescTypes.H">
<polygon fill="#ffffff" stroke="#000000" points="1144.5,-.5 1144.5,-19.5 1307.5,-19.5 1307.5,-.5 1144.5,-.5"/>
<text text-anchor="middle" x="1226" y="-7.5" font-family="Helvetica,sans-Serif" font-size="10.00" fill="#000000">amr&#45;wind/core/FieldDescTypes.H</text>
</a>
</g>
</g>
<!-- Node16&#45;&gt;Node18 -->
<g id="edge20" class="edge">
<title>Node16&#45;&gt;Node18</title>
<path fill="none" stroke="#191970" d="M1891.4137,-184.9757C1880.2374,-182.7713 1868.207,-180.6044 1857,-179 1677.2376,-153.2655 1627.5609,-181.0645 1450,-143 1361.2177,-123.9673 1324.485,-136.748 1257,-76 1243.5042,-63.8515 1235.3998,-44.5967 1230.882,-30.0128"/>
<polygon fill="#191970" stroke="#191970" points="1234.141,-28.6673 1228.0964,-19.966 1227.3955,-30.5376 1234.141,-28.6673"/>
</g>
<!-- Node19 -->
<g id="node20" class="node">
<title>Node19</title>
<g id="a_node20"><a xlink:href="_field_utils_8_h.html" target="_top" xlink:title="amr&#45;wind/core/FieldUtils.H">
<polygon fill="#ffffff" stroke="#000000" points="664.5,-56.5 664.5,-75.5 797.5,-75.5 797.5,-56.5 664.5,-56.5"/>
<text text-anchor="middle" x="731" y="-63.5" font-family="Helvetica,sans-Serif" font-size="10.00" fill="#000000">amr&#45;wind/core/FieldUtils.H</text>
</a>
</g>
</g>
<!-- Node16&#45;&gt;Node19 -->
<g id="edge21" class="edge">
<title>Node16&#45;&gt;Node19</title>
<path fill="none" stroke="#191970" d="M1893.4986,-184.9939C1881.7583,-182.6485 1868.9289,-180.4075 1857,-179 1651.8239,-154.7912 1130.2452,-185.192 928,-143 864.973,-129.8514 795.8714,-98.5947 758.5805,-80.2017"/>
<polygon fill="#191970" stroke="#191970" points="759.8824,-76.9397 749.3724,-75.6011 756.7537,-83.2016 759.8824,-76.9397"/>
</g>
<!-- Node20 -->
<g id="node21" class="node">
<title>Node20</title>
<polygon fill="#ffffff" stroke="#bfbfbf" points="549,-.5 549,-19.5 653,-19.5 653,-.5 549,-.5"/>
<text text-anchor="middle" x="601" y="-7.5" font-family="Helvetica,sans-Serif" font-size="10.00" fill="#000000">AMReX_MultiFab.H</text>
</g>
<!-- Node16&#45;&gt;Node20 -->
<g id="edge51" class="edge">
<title>Node16&#45;&gt;Node20</title>
<path fill="none" stroke="#191970" d="M1893.5019,-184.9654C1881.7617,-182.6197 1868.9314,-180.3857 1857,-179 1403.7657,-126.3632 1281.3329,-216.4323 831,-143 727.6002,-126.1394 670.186,-158.0158 605,-76 594.7549,-63.1098 594.7348,-43.9444 596.6978,-29.5826"/>
<polygon fill="#191970" stroke="#191970" points="600.1468,-30.1778 598.449,-19.7199 593.2546,-28.954 600.1468,-30.1778"/>
</g>
<!-- Node22 -->
<g id="node23" class="node">
<title>Node22</title>
<g id="a_node23"><a xlink:href="_field_8_h.html" target="_top" xlink:title="amr&#45;wind/core/Field.H">
<polygon fill="#ffffff" stroke="#000000" points="1459.5,-118 1459.5,-137 1572.5,-137 1572.5,-118 1459.5,-118"/>
<text text-anchor="middle" x="1516" y="-125" font-family="Helvetica,sans-Serif" font-size="10.00" fill="#000000">amr&#45;wind/core/Field.H</text>
</a>
</g>
</g>
<!-- Node16&#45;&gt;Node22 -->
<g id="edge25" class="edge">
<title>Node16&#45;&gt;Node22</title>
<path fill="none" stroke="#191970" d="M1888.872,-184.9665C1878.4098,-182.9065 1867.3362,-180.8065 1857,-179 1762.0526,-162.4055 1651.6711,-146.3161 1582.8142,-136.6589"/>
<polygon fill="#191970" stroke="#191970" points="1582.9343,-133.1417 1572.546,-135.2233 1581.965,-140.0742 1582.9343,-133.1417"/>
</g>
<!-- Node28 -->
<g id="node29" class="node">
<title>Node28</title>
<g id="a_node29"><a xlink:href="_int_field_8_h.html" target="_top" xlink:title="amr&#45;wind/core/IntField.H">
<polygon fill="#ffffff" stroke="#000000" points="2014,-118 2014,-137 2138,-137 2138,-118 2014,-118"/>
<text text-anchor="middle" x="2076" y="-125" font-family="Helvetica,sans-Serif" font-size="10.00" fill="#000000">amr&#45;wind/core/IntField.H</text>
</a>
</g>
</g>
<!-- Node16&#45;&gt;Node28 -->
<g id="edge39" class="edge">
<title>Node16&#45;&gt;Node28</title>
<path fill="none" stroke="#191970" d="M1955.2019,-184.9005C1979.179,-173.5072 2019.3521,-154.4178 2046.7321,-141.4075"/>
<polygon fill="#191970" stroke="#191970" points="2048.3056,-144.5348 2055.8356,-137.0817 2045.3013,-138.2123 2048.3056,-144.5348"/>
</g>
<!-- Node29 -->
<g id="node30" class="node">
<title>Node29</title>
<polygon fill="#ffffff" stroke="#bfbfbf" points="1994.5,-56.5 1994.5,-75.5 2101.5,-75.5 2101.5,-56.5 1994.5,-56.5"/>
<text text-anchor="middle" x="2048" y="-63.5" font-family="Helvetica,sans-Serif" font-size="10.00" fill="#000000">AMReX_iMultiFab.H</text>
</g>
<!-- Node16&#45;&gt;Node29 -->
<g id="edge52" class="edge">
<title>Node16&#45;&gt;Node29</title>
<path fill="none" stroke="#191970" d="M1943.0415,-184.7178C1955.907,-169.1372 1982.0117,-137.8089 2005,-112 2013.5958,-102.3495 2023.4225,-91.8024 2031.5102,-83.2449"/>
<polygon fill="#191970" stroke="#191970" points="2034.2855,-85.4051 2038.6345,-75.744 2029.21,-80.5844 2034.2855,-85.4051"/>
</g>
<!-- Node30 -->
<g id="node31" class="node">
<title>Node30</title>
<g id="a_node31"><a xlink:href="_scratch_field_8_h.html" target="_top" xlink:title="amr&#45;wind/core/ScratchField.H">
<polygon fill="#ffffff" stroke="#000000" points="937,-118 937,-137 1083,-137 1083,-118 937,-118"/>
<text text-anchor="middle" x="1010" y="-125" font-family="Helvetica,sans-Serif" font-size="10.00" fill="#000000">amr&#45;wind/core/ScratchField.H</text>
</a>
</g>
</g>
<!-- Node16&#45;&gt;Node30 -->
<g id="edge43" class="edge">
<title>Node16&#45;&gt;Node30</title>
<path fill="none" stroke="#191970" d="M1892.6731,-184.9482C1881.1549,-182.6616 1868.6441,-180.4617 1857,-179 1560.6746,-141.801 1483.9046,-164.1032 1186,-143 1155.756,-140.8576 1122.6284,-138.0587 1093.3528,-135.4298"/>
<polygon fill="#191970" stroke="#191970" points="1093.4442,-131.9239 1083.1694,-134.5084 1092.8133,-138.8954 1093.4442,-131.9239"/>
</g>
<!-- Node19&#45;&gt;Node18 -->
<g id="edge22" class="edge">
<title>Node19&#45;&gt;Node18</title>
<path fill="none" stroke="#191970" d="M797.7179,-57.1388C800.8549,-56.7481 803.9612,-56.3666 807,-56 949.327,-38.8278 987.523,-36.1262 1133.8848,-20.12"/>
<polygon fill="#191970" stroke="#191970" points="1134.5884,-23.564 1144.1476,-18.9953 1133.8257,-16.6056 1134.5884,-23.564"/>
</g>
<!-- Node19&#45;&gt;Node20 -->
<g id="edge23" class="edge">
<title>Node19&#45;&gt;Node20</title>
<path fill="none" stroke="#191970" d="M708.6522,-56.3733C687.5967,-47.3032 655.8505,-33.6279 632.2825,-23.4755"/>
<polygon fill="#191970" stroke="#191970" points="633.625,-20.243 623.0562,-19.5011 630.8556,-26.6719 633.625,-20.243"/>
</g>
<!-- Node21 -->
<g id="node22" class="node">
<title>Node21</title>
<polygon fill="#ffffff" stroke="#bfbfbf" points="673,-.5 673,-19.5 789,-19.5 789,-.5 673,-.5"/>
<text text-anchor="middle" x="731" y="-7.5" font-family="Helvetica,sans-Serif" font-size="10.00" fill="#000000">AMReX_Interpolater.H</text>
</g>
<!-- Node19&#45;&gt;Node21 -->
<g id="edge24" class="edge">
<title>Node19&#45;&gt;Node21</title>
<path fill="none" stroke="#191970" d="M731,-56.2455C731,-48.9382 731,-38.6944 731,-29.7046"/>
<polygon fill="#191970" stroke="#191970" points="734.5001,-29.6426 731,-19.6427 727.5001,-29.6427 734.5001,-29.6426"/>
</g>
<!-- Node22&#45;&gt;Node6 -->
<g id="edge27" class="edge">
<title>Node22&#45;&gt;Node6</title>
<path fill="none" stroke="#191970" d="M1555.8743,-117.9581C1605.3937,-106.1081 1689.1496,-86.0654 1736.8669,-74.6466"/>
<polygon fill="#191970" stroke="#191970" points="1737.85,-78.0103 1746.7608,-72.279 1736.2208,-71.2025 1737.85,-78.0103"/>
</g>
<!-- Node22&#45;&gt;Node7 -->
<g id="edge28" class="edge">
<title>Node22&#45;&gt;Node7</title>
<path fill="none" stroke="#191970" d="M1572.5082,-119.2058C1654.1717,-107.2194 1804.029,-85.2237 1883.0588,-73.6238"/>
<polygon fill="#191970" stroke="#191970" points="1883.877,-77.0413 1893.2627,-72.1261 1882.8604,-70.1155 1883.877,-77.0413"/>
</g>
<!-- Node22&#45;&gt;Node17 -->
<g id="edge26" class="edge">
<title>Node22&#45;&gt;Node17</title>
<path fill="none" stroke="#191970" d="M1518.1781,-117.7675C1522.2574,-101.9893 1532.6375,-71.0764 1554,-56 1598.7629,-24.409 1764.5823,-14.0766 1834.0598,-11.0884"/>
<polygon fill="#191970" stroke="#191970" points="1834.5006,-14.5734 1844.3501,-10.6697 1834.216,-7.5792 1834.5006,-14.5734"/>
</g>
<!-- Node22&#45;&gt;Node18 -->
<g id="edge33" class="edge">
<title>Node22&#45;&gt;Node18</title>
<path fill="none" stroke="#191970" d="M1513.6261,-117.8439C1509.2403,-102.1754 1498.3074,-71.4168 1477,-56 1451.7553,-37.7344 1378.4677,-25.6531 1317.5575,-18.4749"/>
<polygon fill="#191970" stroke="#191970" points="1317.8444,-14.9849 1307.5104,-17.3214 1317.0459,-21.9392 1317.8444,-14.9849"/>
</g>
<!-- Node22&#45;&gt;Node20 -->
<g id="edge29" class="edge">
<title>Node22&#45;&gt;Node20</title>
<path fill="none" stroke="#191970" d="M1459.2531,-125.3568C1273.0969,-118.1628 690.8158,-94.3017 655,-76 634.9118,-65.735 619.606,-44.3073 610.5064,-28.6419"/>
<polygon fill="#191970" stroke="#191970" points="613.5286,-26.8736 605.6553,-19.784 607.389,-30.236 613.5286,-26.8736"/>
</g>
<!-- Node23 -->
<g id="node24" class="node">
<title>Node23</title>
<polygon fill="#ffffff" stroke="#bfbfbf" points="1369.5,-56.5 1369.5,-75.5 1468.5,-75.5 1468.5,-56.5 1369.5,-56.5"/>
<text text-anchor="middle" x="1419" y="-63.5" font-family="Helvetica,sans-Serif" font-size="10.00" fill="#000000">AMReX_BCRec.H</text>
</g>
<!-- Node22&#45;&gt;Node23 -->
<g id="edge30" class="edge">
<title>Node22&#45;&gt;Node23</title>
<path fill="none" stroke="#191970" d="M1500.8438,-117.8906C1485.3257,-108.0519 1460.9807,-92.6167 1442.8716,-81.1351"/>
<polygon fill="#191970" stroke="#191970" points="1444.3696,-77.9407 1434.0498,-75.5419 1440.6213,-83.8526 1444.3696,-77.9407"/>
</g>
<!-- Node24 -->
<g id="node25" class="node">
<title>Node24</title>
<polygon fill="#ffffff" stroke="#bfbfbf" points="1266.5,-56.5 1266.5,-75.5 1351.5,-75.5 1351.5,-56.5 1266.5,-56.5"/>
<text text-anchor="middle" x="1309" y="-63.5" font-family="Helvetica,sans-Serif" font-size="10.00" fill="#000000">AMReX_Gpu.H</text>
</g>
<!-- Node22&#45;&gt;Node24 -->
<g id="edge31" class="edge">
<title>Node22&#45;&gt;Node24</title>
<path fill="none" stroke="#191970" d="M1483.6563,-117.8906C1447.882,-107.2621 1390.1253,-90.1025 1350.9095,-78.4514"/>
<polygon fill="#191970" stroke="#191970" points="1351.6993,-75.0349 1341.1166,-75.5419 1349.7057,-81.745 1351.6993,-75.0349"/>
</g>
<!-- Node25 -->
<g id="node26" class="node">
<title>Node25</title>
<g id="a_node26"><a xlink:href="incflo__enums_8_h.html" target="_top" xlink:title="amr&#45;wind/incflo_enums.H">
<polygon fill="#ffffff" stroke="#000000" points="1563,-56.5 1563,-75.5 1691,-75.5 1691,-56.5 1563,-56.5"/>
<text text-anchor="middle" x="1627" y="-63.5" font-family="Helvetica,sans-Serif" font-size="10.00" fill="#000000">amr&#45;wind/incflo_enums.H</text>
</a>
</g>
</g>
<!-- Node22&#45;&gt;Node25 -->
<g id="edge32" class="edge">
<title>Node22&#45;&gt;Node25</title>
<path fill="none" stroke="#191970" d="M1533.3438,-117.8906C1551.4273,-107.8713 1579.9859,-92.0483 1600.8165,-80.5071"/>
<polygon fill="#191970" stroke="#191970" points="1602.7271,-83.4498 1609.778,-75.5419 1599.3346,-77.3268 1602.7271,-83.4498"/>
</g>
<!-- Node26 -->
<g id="node27" class="node">
<title>Node26</title>
<g id="a_node27"><a xlink:href="_view_field_8_h.html" target="_top" xlink:title="amr&#45;wind/core/ViewField.H">
<polygon fill="#ffffff" stroke="#000000" points="1038,-56.5 1038,-75.5 1172,-75.5 1172,-56.5 1038,-56.5"/>
<text text-anchor="middle" x="1105" y="-63.5" font-family="Helvetica,sans-Serif" font-size="10.00" fill="#000000">amr&#45;wind/core/ViewField.H</text>
</a>
</g>
</g>
<!-- Node22&#45;&gt;Node26 -->
<g id="edge34" class="edge">
<title>Node22&#45;&gt;Node26</title>
<path fill="none" stroke="#191970" d="M1459.2837,-119.0133C1386.2158,-108.0797 1259.0588,-89.0526 1178.6066,-77.0141"/>
<polygon fill="#191970" stroke="#191970" points="1178.9559,-73.5275 1168.548,-75.509 1177.9199,-80.4504 1178.9559,-73.5275"/>
</g>
<!-- Node26&#45;&gt;Node17 -->
<g id="edge35" class="edge">
<title>Node26&#45;&gt;Node17</title>
<path fill="none" stroke="#191970" d="M1172.0149,-60.2244C1188.9732,-58.8025 1207.154,-57.3122 1224,-56 1458.592,-37.7264 1741.6983,-18.3416 1834.1688,-12.0786"/>
<polygon fill="#191970" stroke="#191970" points="1834.5002,-15.5643 1844.2412,-11.3973 1834.0277,-8.5802 1834.5002,-15.5643"/>
</g>
<!-- Node26&#45;&gt;Node18 -->
<g id="edge36" class="edge">
<title>Node26&#45;&gt;Node18</title>
<path fill="none" stroke="#191970" d="M1125.8006,-56.3733C1145.2243,-47.3838 1174.4224,-33.8706 1196.2964,-23.7471"/>
<polygon fill="#191970" stroke="#191970" points="1197.8656,-26.8776 1205.4708,-19.5011 1194.9255,-20.5249 1197.8656,-26.8776"/>
</g>
<!-- Node26&#45;&gt;Node20 -->
<g id="edge37" class="edge">
<title>Node26&#45;&gt;Node20</title>
<path fill="none" stroke="#191970" d="M1037.6268,-60.1014C951.0133,-52.2594 796.0363,-37.3527 664,-20 663.7804,-19.9711 663.5604,-19.9421 663.34,-19.9129"/>
<polygon fill="#191970" stroke="#191970" points="663.6087,-16.4168 653.2227,-18.5097 662.647,-23.3504 663.6087,-16.4168"/>
</g>
<!-- Node27 -->
<g id="node28" class="node">
<title>Node27</title>
<polygon fill="#ffffff" stroke="#bfbfbf" points="1031.5,-.5 1031.5,-19.5 1126.5,-19.5 1126.5,-.5 1031.5,-.5"/>
<text text-anchor="middle" x="1079" y="-7.5" font-family="Helvetica,sans-Serif" font-size="10.00" fill="#000000">AMReX_Vector.H</text>
</g>
<!-- Node26&#45;&gt;Node27 -->
<g id="edge38" class="edge">
<title>Node26&#45;&gt;Node27</title>
<path fill="none" stroke="#191970" d="M1100.4711,-56.2455C1096.9666,-48.6973 1092.0073,-38.0158 1087.7377,-28.8197"/>
<polygon fill="#191970" stroke="#191970" points="1090.8627,-27.2389 1083.477,-19.6427 1084.5136,-30.1867 1090.8627,-27.2389"/>
</g>
<!-- Node28&#45;&gt;Node17 -->
<g id="edge40" class="edge">
<title>Node28&#45;&gt;Node17</title>
<path fill="none" stroke="#191970" d="M2097.0352,-117.8803C2123.6017,-104.4486 2163.619,-79.1186 2144,-56 2128.0576,-37.2139 1965.5355,-19.6027 1896.1391,-12.877"/>
<polygon fill="#191970" stroke="#191970" points="1896.1253,-9.3599 1885.8376,-11.8926 1895.4593,-16.3281 1896.1253,-9.3599"/>
</g>
<!-- Node28&#45;&gt;Node18 -->
<g id="edge41" class="edge">
<title>Node28&#45;&gt;Node18</title>
<path fill="none" stroke="#191970" d="M2086.9419,-117.8241C2102.5026,-102.9406 2127.318,-74.2426 2110,-56 2083.0502,-27.6114 1538.9428,-15.2718 1318.0249,-11.4181"/>
<polygon fill="#191970" stroke="#191970" points="1317.8115,-7.914 1307.7526,-11.241 1317.6907,-14.913 1317.8115,-7.914"/>
</g>
<!-- Node28&#45;&gt;Node29 -->
<g id="edge42" class="edge">
<title>Node28&#45;&gt;Node29</title>
<path fill="none" stroke="#191970" d="M2071.625,-117.8906C2067.6212,-109.0965 2061.5817,-95.8312 2056.6115,-84.9145"/>
<polygon fill="#191970" stroke="#191970" points="2059.7657,-83.3957 2052.4367,-75.7449 2053.3949,-86.2963 2059.7657,-83.3957"/>
</g>
<!-- Node30&#45;&gt;Node17 -->
<g id="edge44" class="edge">
<title>Node30&#45;&gt;Node17</title>
<path fill="none" stroke="#191970" d="M1041.7411,-117.9145C1103.4803,-99.3284 1235.5831,-59.8672 1257,-56 1369.7994,-35.6321 1726.8552,-16.8057 1834.189,-11.4886"/>
<polygon fill="#191970" stroke="#191970" points="1834.5281,-14.9762 1844.3441,-10.989 1834.1841,-7.9847 1834.5281,-14.9762"/>
</g>
<!-- Node30&#45;&gt;Node18 -->
<g id="edge45" class="edge">
<title>Node30&#45;&gt;Node18</title>
<path fill="none" stroke="#191970" d="M1009.6381,-117.6191C1009.6431,-102.1933 1012.0374,-72.4556 1029,-56 1045.2342,-40.2511 1094.9998,-28.7053 1140.4467,-21.1199"/>
<polygon fill="#191970" stroke="#191970" points="1141.0539,-24.5673 1150.366,-19.514 1139.9351,-17.6572 1141.0539,-24.5673"/>
</g>
<!-- Node30&#45;&gt;Node20 -->
<g id="edge47" class="edge">
<title>Node30&#45;&gt;Node20</title>
<path fill="none" stroke="#191970" d="M936.9877,-122.0201C831.2983,-113.4601 645.6676,-95.828 622,-76 608.6321,-64.8008 603.6708,-45.1079 601.8814,-30.1396"/>
<polygon fill="#191970" stroke="#191970" points="605.3424,-29.5171 601.0446,-19.8332 598.3654,-30.0836 605.3424,-29.5171"/>
</g>
<!-- Node30&#45;&gt;Node26 -->
<g id="edge46" class="edge">
<title>Node30&#45;&gt;Node26</title>
<path fill="none" stroke="#191970" d="M1024.8438,-117.8906C1040.0418,-108.0519 1063.8848,-92.6167 1081.6206,-81.1351"/>
<polygon fill="#191970" stroke="#191970" points="1083.768,-83.9144 1090.2605,-75.5419 1079.9639,-78.0382 1083.768,-83.9144"/>
</g>
<!-- Node30&#45;&gt;Node27 -->
<g id="edge48" class="edge">
<title>Node30&#45;&gt;Node27</title>
<path fill="none" stroke="#191970" d="M1003.9754,-117.5236C996.0598,-102.9962 984.4437,-75.6172 996,-56 1004.7946,-41.071 1020.3717,-30.6447 1035.6742,-23.541"/>
<polygon fill="#191970" stroke="#191970" points="1037.2671,-26.6672 1045.1035,-19.5368 1034.531,-20.224 1037.2671,-26.6672"/>
</g>
<!-- Node31 -->
<g id="node32" class="node">
<title>Node31</title>
<polygon fill="#ffffff" stroke="#bfbfbf" points="816,-56.5 816,-75.5 944,-75.5 944,-56.5 816,-56.5"/>
<text text-anchor="middle" x="880" y="-63.5" font-family="Helvetica,sans-Serif" font-size="10.00" fill="#000000">AMReX_PhysBCFunct.H</text>
</g>
<!-- Node30&#45;&gt;Node31 -->
<g id="edge49" class="edge">
<title>Node30&#45;&gt;Node31</title>
<path fill="none" stroke="#191970" d="M989.6875,-117.8906C968.1269,-107.6908 933.8522,-91.4763 909.3556,-79.8875"/>
<polygon fill="#191970" stroke="#191970" points="910.7061,-76.6545 900.1699,-75.5419 907.7126,-82.9822 910.7061,-76.6545"/>
</g>
<!-- Node32&#45;&gt;Node5 -->
<g id="edge55" class="edge">
<title>Node32&#45;&gt;Node5</title>
<path fill="none" stroke="#191970" d="M2129.1513,-179.4639C2158.5745,-167.8677 2198.8893,-151.9789 2227.1686,-140.8335"/>
<polygon fill="#191970" stroke="#191970" points="2228.6117,-144.0269 2236.6318,-137.1039 2226.045,-137.5144 2228.6117,-144.0269"/>
</g>
<!-- Node32&#45;&gt;Node17 -->
<g id="edge54" class="edge">
<title>Node32&#45;&gt;Node17</title>
<path fill="none" stroke="#191970" d="M2160.6644,-189.7816C2210.7519,-184.0332 2278.5927,-171.2824 2332,-143 2341.5146,-137.9615 2397.7713,-85.9011 2402,-76 2405.4913,-67.8255 2408.0112,-62.5481 2402,-56 2367.6298,-18.5597 2004.8097,-11.5372 1895.8014,-10.2692"/>
<polygon fill="#191970" stroke="#191970" points="1895.8147,-6.7692 1885.7774,-10.1608 1895.7389,-13.7688 1895.8147,-6.7692"/>
</g>
<!-- Node32&#45;&gt;Node18 -->
<g id="edge63" class="edge">
<title>Node32&#45;&gt;Node18</title>
<path fill="none" stroke="#191970" d="M2021.248,-180.6175C2018.125,-180.0581 2015.0313,-179.5162 2012,-179 1901.7694,-160.2299 1858.6865,-200.8551 1763,-143 1722.147,-118.299 1741.4203,-79.7376 1700,-56 1667.7199,-37.5006 1446.4944,-22.2742 1317.9874,-14.8641"/>
<polygon fill="#191970" stroke="#191970" points="1317.9401,-11.3557 1307.7566,-14.2793 1317.5406,-18.3443 1317.9401,-11.3557"/>
</g>
<!-- Node32&#45;&gt;Node25 -->
<g id="edge64" class="edge">
<title>Node32&#45;&gt;Node25</title>
<path fill="none" stroke="#191970" d="M2021.2647,-180.5154C2018.1371,-179.9836 2015.0379,-179.4754 2012,-179 1876.2726,-157.7593 1828.8317,-202.4878 1705,-143 1676.9941,-129.5462 1652.9822,-101.9301 1639.2626,-83.6907"/>
<polygon fill="#191970" stroke="#191970" points="1642.0901,-81.6279 1633.3819,-75.5933 1636.4262,-85.7413 1642.0901,-81.6279"/>
</g>
<!-- Node33 -->
<g id="node34" class="node">
<title>Node33</title>
<g id="a_node34"><a xlink:href="_coll_mgr_8_h.html" target="_top" xlink:title="amr&#45;wind/core/CollMgr.H">
<polygon fill="#ffffff" stroke="#000000" points="1772.5,-118 1772.5,-137 1897.5,-137 1897.5,-118 1772.5,-118"/>
<text text-anchor="middle" x="1835" y="-125" font-family="Helvetica,sans-Serif" font-size="10.00" fill="#000000">amr&#45;wind/core/CollMgr.H</text>
</a>
</g>
</g>
<!-- Node32&#45;&gt;Node33 -->
<g id="edge56" class="edge">
<title>Node32&#45;&gt;Node33</title>
<path fill="none" stroke="#191970" d="M2033.5486,-179.4639C1987.5563,-167.4269 1923.892,-150.7647 1881.1699,-139.5835"/>
<polygon fill="#191970" stroke="#191970" points="1881.8791,-136.1513 1871.3187,-137.0053 1880.1067,-142.9232 1881.8791,-136.1513"/>
</g>
<!-- Node34 -->
<g id="node35" class="node">
<title>Node34</title>
<g id="a_node35"><a xlink:href="_p_d_e_fields_8_h.html" target="_top" xlink:title="amr&#45;wind/equation_systems\l/PDEFields.H">
<polygon fill="#ffffff" stroke="#000000" points="2380.5,-112.5 2380.5,-142.5 2519.5,-142.5 2519.5,-112.5 2380.5,-112.5"/>
<text text-anchor="start" x="2388.5" y="-130.5" font-family="Helvetica,sans-Serif" font-size="10.00" fill="#000000">amr&#45;wind/equation_systems</text>
<text text-anchor="middle" x="2450" y="-119.5" font-family="Helvetica,sans-Serif" font-size="10.00" fill="#000000">/PDEFields.H</text>
</a>
</g>
</g>
<!-- Node32&#45;&gt;Node34 -->
<g id="edge61" class="edge">
<title>Node32&#45;&gt;Node34</title>
<path fill="none" stroke="#191970" d="M2160.6445,-181.5023C2220.7418,-170.2864 2307.5335,-154.0885 2370.3718,-142.361"/>
<polygon fill="#191970" stroke="#191970" points="2371.0554,-145.7939 2380.2435,-140.5186 2369.7711,-138.9127 2371.0554,-145.7939"/>
</g>
<!-- Node33&#45;&gt;Node6 -->
<g id="edge58" class="edge">
<title>Node33&#45;&gt;Node6</title>
<path fill="none" stroke="#191970" d="M1825.3125,-117.8906C1815.9041,-108.5581 1801.4193,-94.1902 1790.0751,-82.9374"/>
<polygon fill="#191970" stroke="#191970" points="1792.3886,-80.3024 1782.8241,-75.7449 1787.4589,-85.2722 1792.3886,-80.3024"/>
</g>
<!-- Node33&#45;&gt;Node7 -->
<g id="edge59" class="edge">
<title>Node33&#45;&gt;Node7</title>
<path fill="none" stroke="#191970" d="M1850.625,-117.8906C1866.7698,-107.9616 1892.1822,-92.333 1910.9023,-80.8201"/>
<polygon fill="#191970" stroke="#191970" points="1912.8002,-83.7619 1919.4847,-75.5419 1909.1331,-77.7992 1912.8002,-83.7619"/>
</g>
<!-- Node33&#45;&gt;Node17 -->
<g id="edge57" class="edge">
<title>Node33&#45;&gt;Node17</title>
<path fill="none" stroke="#191970" d="M1837.455,-117.8845C1842.3554,-98.6913 1853.4376,-55.286 1859.9533,-29.7663"/>
<polygon fill="#191970" stroke="#191970" points="1863.4284,-30.3034 1862.5111,-19.7484 1856.6459,-28.5717 1863.4284,-30.3034"/>
</g>
<!-- Node33&#45;&gt;Node27 -->
<g id="edge60" class="edge">
<title>Node33&#45;&gt;Node27</title>
<path fill="none" stroke="#191970" d="M1834.5374,-117.9101C1833.2021,-102.0485 1828.0261,-70.65 1808,-56 1749.6269,-13.2975 1245.6204,-27.5204 1136.6478,-19.8156"/>
<polygon fill="#191970" stroke="#191970" points="1136.8733,-16.3218 1126.5999,-18.9117 1136.2461,-23.2937 1136.8733,-16.3218"/>
</g>
<!-- Node35 -->
<g id="node36" class="node">
<title>Node35</title>
<polygon fill="#ffffff" stroke="#bfbfbf" points="2530.5,-56.5 2530.5,-75.5 2575.5,-75.5 2575.5,-56.5 2530.5,-56.5"/>
<text text-anchor="middle" x="2553" y="-63.5" font-family="Helvetica,sans-Serif" font-size="10.00" fill="#000000">iosfwd</text>
</g>
<!-- Node34&#45;&gt;Node35 -->
<g id="edge62" class="edge">
<title>Node34&#45;&gt;Node35</title>
<path fill="none" stroke="#191970" d="M2475.1966,-112.4554C2491.3272,-102.8241 2512.1638,-90.3828 2528.2136,-80.7996"/>
<polygon fill="#191970" stroke="#191970" points="2530.247,-83.662 2537.0387,-75.5303 2526.6584,-77.6518 2530.247,-83.662"/>
</g>
<!-- Node36&#45;&gt;Node5 -->
<g id="edge66" class="edge">
<title>Node36&#45;&gt;Node5</title>
<path fill="none" stroke="#191970" d="M1826.9595,-184.951C1837.0905,-182.8228 1847.9063,-180.6971 1858,-179 1985.6455,-157.5385 2018.6472,-159.7195 2147,-143 2160.2579,-141.273 2174.3767,-139.3894 2187.9997,-137.5492"/>
<polygon fill="#191970" stroke="#191970" points="2188.8587,-140.9649 2198.2982,-136.1537 2187.9188,-134.0283 2188.8587,-140.9649"/>
</g>
<!-- Node36&#45;&gt;Node20 -->
<g id="edge68" class="edge">
<title>Node36&#45;&gt;Node20</title>
<path fill="none" stroke="#191970" d="M1721.24,-194.2679C1473.5667,-193.0586 587.0088,-185.7488 546,-143 519.2323,-115.0966 529.6306,-91.0308 546,-56 551.9463,-43.2749 563.3358,-32.8307 574.215,-25.129"/>
<polygon fill="#191970" stroke="#191970" points="576.277,-27.9622 582.7167,-19.5491 572.436,-22.1101 576.277,-27.9622"/>
</g>
<!-- Node36&#45;&gt;Node33 -->
<g id="edge67" class="edge">
<title>Node36&#45;&gt;Node33</title>
<path fill="none" stroke="#191970" d="M1792.1638,-184.9005C1799.8866,-174.552 1812.3476,-157.8542 1821.8437,-145.1295"/>
<polygon fill="#191970" stroke="#191970" points="1824.6736,-147.1893 1827.8495,-137.0817 1819.0636,-143.0027 1824.6736,-147.1893"/>
</g>
<!-- Node37 -->
<g id="node38" class="node">
<title>Node37</title>
<polygon fill="#ffffff" stroke="#bfbfbf" points="384,-118 384,-137 494,-137 494,-118 384,-118"/>
<text text-anchor="middle" x="439" y="-125" font-family="Helvetica,sans-Serif" font-size="10.00" fill="#000000">AMReX_Geometry.H</text>
</g>
<!-- Node36&#45;&gt;Node37 -->
<g id="edge69" class="edge">
<title>Node36&#45;&gt;Node37</title>
<path fill="none" stroke="#191970" d="M1721.3502,-193.4552C1497.4117,-189.5415 746.5527,-174.3426 508,-143 500.719,-142.0434 493.0736,-140.6876 485.6317,-139.1715"/>
<polygon fill="#191970" stroke="#191970" points="486.1754,-135.7085 475.6629,-137.0271 484.7032,-142.5519 486.1754,-135.7085"/>
</g>
</g>
</svg>
