<?xml version="1.0" encoding="UTF-8" standalone="no"?>
<!DOCTYPE svg PUBLIC "-//W3C//DTD SVG 1.1//EN"
 "http://www.w3.org/Graphics/SVG/1.1/DTD/svg11.dtd">
<!-- Generated by graphviz version 2.40.1 (20161225.0304)
 -->
<!-- Title: ZalesakDisk.cpp Pages: 1 -->
<svg width="2757pt" height="397pt"
 viewBox="0.00 0.00 2757.00 397.00" xmlns="http://www.w3.org/2000/svg" xmlns:xlink="http://www.w3.org/1999/xlink">
<g id="graph0" class="graph" transform="scale(1 1) rotate(0) translate(4 393)">
<title>ZalesakDisk.cpp</title>
<polygon fill="#ffffff" stroke="transparent" points="-4,4 -4,-393 2753,-393 2753,4 -4,4"/>
<!-- Node0 -->
<g id="node1" class="node">
<title>Node0</title>
<polygon fill="#bfbfbf" stroke="#000000" points="1753,-369.5 1753,-388.5 1843,-388.5 1843,-369.5 1753,-369.5"/>
<text text-anchor="middle" x="1798" y="-376.5" font-family="Helvetica,sans-Serif" font-size="10.00" fill="#000000">ZalesakDisk.cpp</text>
</g>
<!-- Node1 -->
<g id="node2" class="node">
<title>Node1</title>
<g id="a_node2"><a xlink:href="_zalesak_disk_8_h.html" target="_top" xlink:title="amr&#45;wind/physics/multiphase\l/ZalesakDisk.H">
<polygon fill="#ffffff" stroke="#000000" points="1316.5,-246.5 1316.5,-276.5 1459.5,-276.5 1459.5,-246.5 1316.5,-246.5"/>
<text text-anchor="start" x="1324.5" y="-264.5" font-family="Helvetica,sans-Serif" font-size="10.00" fill="#000000">amr&#45;wind/physics/multiphase</text>
<text text-anchor="middle" x="1388" y="-253.5" font-family="Helvetica,sans-Serif" font-size="10.00" fill="#000000">/ZalesakDisk.H</text>
</a>
</g>
</g>
<!-- Node0&#45;&gt;Node1 -->
<g id="edge1" class="edge">
<title>Node0&#45;&gt;Node1</title>
<path fill="none" stroke="#191970" d="M1764.7953,-369.484C1696.3259,-349.8617 1538.5048,-304.6325 1450.381,-279.3775"/>
<polygon fill="#191970" stroke="#191970" points="1451.0893,-275.9396 1440.512,-276.5492 1449.1607,-282.6687 1451.0893,-275.9396"/>
</g>
<!-- Node20 -->
<g id="node21" class="node">
<title>Node20</title>
<g id="a_node21"><a xlink:href="_c_f_d_sim_8_h.html" target="_top" xlink:title="amr&#45;wind/CFDSim.H">
<polygon fill="#ffffff" stroke="#000000" points="1052,-252 1052,-271 1160,-271 1160,-252 1052,-252"/>
<text text-anchor="middle" x="1106" y="-259" font-family="Helvetica,sans-Serif" font-size="10.00" fill="#000000">amr&#45;wind/CFDSim.H</text>
</a>
</g>
</g>
<!-- Node0&#45;&gt;Node20 -->
<g id="edge30" class="edge">
<title>Node0&#45;&gt;Node20</title>
<path fill="none" stroke="#191970" d="M1752.8629,-371.3358C1633.4139,-351.0537 1308.7367,-295.9242 1170.1212,-272.3876"/>
<polygon fill="#191970" stroke="#191970" points="1170.5152,-268.9045 1160.0703,-270.681 1169.3433,-275.8057 1170.5152,-268.9045"/>
</g>
<!-- Node36 -->
<g id="node37" class="node">
<title>Node36</title>
<polygon fill="#ffffff" stroke="#bfbfbf" points="1740,-313.5 1740,-332.5 1856,-332.5 1856,-313.5 1740,-313.5"/>
<text text-anchor="middle" x="1798" y="-320.5" font-family="Helvetica,sans-Serif" font-size="10.00" fill="#000000">AMReX_ParmParse.H</text>
</g>
<!-- Node0&#45;&gt;Node36 -->
<g id="edge68" class="edge">
<title>Node0&#45;&gt;Node36</title>
<path fill="none" stroke="#191970" d="M1798,-369.2455C1798,-361.9382 1798,-351.6944 1798,-342.7046"/>
<polygon fill="#191970" stroke="#191970" points="1801.5001,-342.6426 1798,-332.6427 1794.5001,-342.6427 1801.5001,-342.6426"/>
</g>
<!-- Node37 -->
<g id="node38" class="node">
<title>Node37</title>
<g id="a_node38"><a xlink:href="gradient_8_h.html" target="_top" xlink:title="amr&#45;wind/fvm/gradient.H">
<polygon fill="#ffffff" stroke="#000000" points="2482,-313.5 2482,-332.5 2606,-332.5 2606,-313.5 2482,-313.5"/>
<text text-anchor="middle" x="2544" y="-320.5" font-family="Helvetica,sans-Serif" font-size="10.00" fill="#000000">amr&#45;wind/fvm/gradient.H</text>
</a>
</g>
</g>
<!-- Node0&#45;&gt;Node37 -->
<g id="edge69" class="edge">
<title>Node0&#45;&gt;Node37</title>
<path fill="none" stroke="#191970" d="M1843.2638,-375.6022C1968.2419,-366.2204 2318.9214,-339.896 2471.5295,-328.4401"/>
<polygon fill="#191970" stroke="#191970" points="2472.0202,-331.9133 2481.7301,-327.6744 2471.4961,-324.9329 2472.0202,-331.9133"/>
</g>
<!-- Node44 -->
<g id="node45" class="node">
<title>Node44</title>
<g id="a_node45"><a xlink:href="field__ops_8_h.html" target="_top" xlink:title="amr&#45;wind/core/field\l_ops.H">
<polygon fill="#ffffff" stroke="#000000" points="1950.5,-179.5 1950.5,-209.5 2049.5,-209.5 2049.5,-179.5 1950.5,-179.5"/>
<text text-anchor="start" x="1958.5" y="-197.5" font-family="Helvetica,sans-Serif" font-size="10.00" fill="#000000">amr&#45;wind/core/field</text>
<text text-anchor="middle" x="2000" y="-186.5" font-family="Helvetica,sans-Serif" font-size="10.00" fill="#000000">_ops.H</text>
</a>
</g>
</g>
<!-- Node0&#45;&gt;Node44 -->
<g id="edge81" class="edge">
<title>Node0&#45;&gt;Node44</title>
<path fill="none" stroke="#191970" d="M1813.7913,-369.4059C1827.7809,-360.6208 1848.4878,-346.9059 1865,-333 1909.1807,-295.7928 1954.9419,-246.0532 1980.2111,-217.4232"/>
<polygon fill="#191970" stroke="#191970" points="1983.114,-219.4212 1987.074,-209.5942 1977.8501,-214.8068 1983.114,-219.4212"/>
</g>
<!-- Node2 -->
<g id="node3" class="node">
<title>Node2</title>
<g id="a_node3"><a xlink:href="_physics_8_h.html" target="_top" xlink:title="amr&#45;wind/core/Physics.H">
<polygon fill="#ffffff" stroke="#000000" points="1160.5,-185 1160.5,-204 1287.5,-204 1287.5,-185 1160.5,-185"/>
<text text-anchor="middle" x="1224" y="-192" font-family="Helvetica,sans-Serif" font-size="10.00" fill="#000000">amr&#45;wind/core/Physics.H</text>
</a>
</g>
</g>
<!-- Node1&#45;&gt;Node2 -->
<g id="edge2" class="edge">
<title>Node1&#45;&gt;Node2</title>
<path fill="none" stroke="#191970" d="M1351.1952,-246.4639C1322.9344,-234.9183 1284.258,-219.1176 1256.9954,-207.9798"/>
<polygon fill="#191970" stroke="#191970" points="1258.0891,-204.6459 1247.5081,-204.1039 1255.4417,-211.126 1258.0891,-204.6459"/>
</g>
<!-- Node14 -->
<g id="node15" class="node">
<title>Node14</title>
<g id="a_node15"><a xlink:href="_field_8_h.html" target="_top" xlink:title="amr&#45;wind/core/Field.H">
<polygon fill="#ffffff" stroke="#000000" points="1331.5,-118 1331.5,-137 1444.5,-137 1444.5,-118 1331.5,-118"/>
<text text-anchor="middle" x="1388" y="-125" font-family="Helvetica,sans-Serif" font-size="10.00" fill="#000000">amr&#45;wind/core/Field.H</text>
</a>
</g>
</g>
<!-- Node1&#45;&gt;Node14 -->
<g id="edge16" class="edge">
<title>Node1&#45;&gt;Node14</title>
<path fill="none" stroke="#191970" d="M1388,-246.389C1388,-222.0735 1388,-174.2644 1388,-147.2698"/>
<polygon fill="#191970" stroke="#191970" points="1391.5001,-147.1041 1388,-137.1042 1384.5001,-147.1042 1391.5001,-147.1041"/>
</g>
<!-- Node3 -->
<g id="node4" class="node">
<title>Node3</title>
<g id="a_node4"><a xlink:href="_factory_8_h.html" target="_top" xlink:title="amr&#45;wind/core/Factory.H">
<polygon fill="#ffffff" stroke="#000000" points="670.5,-118 670.5,-137 795.5,-137 795.5,-118 670.5,-118"/>
<text text-anchor="middle" x="733" y="-125" font-family="Helvetica,sans-Serif" font-size="10.00" fill="#000000">amr&#45;wind/core/Factory.H</text>
</a>
</g>
</g>
<!-- Node2&#45;&gt;Node3 -->
<g id="edge3" class="edge">
<title>Node2&#45;&gt;Node3</title>
<path fill="none" stroke="#191970" d="M1160.4057,-188.5604C1077.9036,-180.43 929.6534,-164.3719 804,-143 797.3145,-141.8629 790.3065,-140.52 783.4061,-139.1078"/>
<polygon fill="#191970" stroke="#191970" points="783.93,-135.6415 773.4233,-137.0052 782.4872,-142.4912 783.93,-135.6415"/>
</g>
<!-- Node9 -->
<g id="node10" class="node">
<title>Node9</title>
<g id="a_node10"><a xlink:href="_coll_mgr_8_h.html" target="_top" xlink:title="amr&#45;wind/core/CollMgr.H">
<polygon fill="#ffffff" stroke="#000000" points="813.5,-118 813.5,-137 938.5,-137 938.5,-118 813.5,-118"/>
<text text-anchor="middle" x="876" y="-125" font-family="Helvetica,sans-Serif" font-size="10.00" fill="#000000">amr&#45;wind/core/CollMgr.H</text>
</a>
</g>
</g>
<!-- Node2&#45;&gt;Node9 -->
<g id="edge9" class="edge">
<title>Node2&#45;&gt;Node9</title>
<path fill="none" stroke="#191970" d="M1174.5097,-184.9717C1111.593,-172.8584 1003.0663,-151.9639 935.6471,-138.9838"/>
<polygon fill="#191970" stroke="#191970" points="936.0824,-135.5034 925.601,-137.0496 934.759,-142.3772 936.0824,-135.5034"/>
</g>
<!-- Node12 -->
<g id="node13" class="node">
<title>Node12</title>
<polygon fill="#ffffff" stroke="#bfbfbf" points="2211,-.5 2211,-19.5 2315,-19.5 2315,-.5 2211,-.5"/>
<text text-anchor="middle" x="2263" y="-7.5" font-family="Helvetica,sans-Serif" font-size="10.00" fill="#000000">AMReX_MultiFab.H</text>
</g>
<!-- Node2&#45;&gt;Node12 -->
<g id="edge14" class="edge">
<title>Node2&#45;&gt;Node12</title>
<path fill="none" stroke="#191970" d="M1287.5597,-192.4294C1474.6078,-186.0977 2014.815,-166.0196 2091,-143 2147.6245,-125.8907 2160.4912,-113.7891 2206,-76 2223.0077,-61.8773 2239.1575,-42.3935 2249.895,-28.2588"/>
<polygon fill="#191970" stroke="#191970" points="2252.9824,-29.9711 2256.1241,-19.8528 2247.3582,-25.8034 2252.9824,-29.9711"/>
</g>
<!-- Node13 -->
<g id="node14" class="node">
<title>Node13</title>
<polygon fill="#ffffff" stroke="#bfbfbf" points="2639,-118 2639,-137 2749,-137 2749,-118 2639,-118"/>
<text text-anchor="middle" x="2694" y="-125" font-family="Helvetica,sans-Serif" font-size="10.00" fill="#000000">AMReX_Geometry.H</text>
</g>
<!-- Node2&#45;&gt;Node13 -->
<g id="edge15" class="edge">
<title>Node2&#45;&gt;Node13</title>
<path fill="none" stroke="#191970" d="M1287.8115,-192.5203C1553.6969,-184.2256 2562.8159,-152.2699 2630,-143 2636.4659,-142.1078 2643.231,-140.8427 2649.8403,-139.4153"/>
<polygon fill="#191970" stroke="#191970" points="2651.0727,-142.7232 2660.0325,-137.0689 2649.5022,-135.9016 2651.0727,-142.7232"/>
</g>
<!-- Node4 -->
<g id="node5" class="node">
<title>Node4</title>
<polygon fill="#ffffff" stroke="#bfbfbf" points="796,-56.5 796,-75.5 848,-75.5 848,-56.5 796,-56.5"/>
<text text-anchor="middle" x="822" y="-63.5" font-family="Helvetica,sans-Serif" font-size="10.00" fill="#000000">memory</text>
</g>
<!-- Node3&#45;&gt;Node4 -->
<g id="edge4" class="edge">
<title>Node3&#45;&gt;Node4</title>
<path fill="none" stroke="#191970" d="M746.9063,-117.8906C761.0138,-108.1421 783.0724,-92.8994 799.6385,-81.4521"/>
<polygon fill="#191970" stroke="#191970" points="801.9542,-84.1063 808.1914,-75.5419 797.9747,-78.3474 801.9542,-84.1063"/>
</g>
<!-- Node5 -->
<g id="node6" class="node">
<title>Node5</title>
<polygon fill="#ffffff" stroke="#bfbfbf" points="904.5,-56.5 904.5,-75.5 987.5,-75.5 987.5,-56.5 904.5,-56.5"/>
<text text-anchor="middle" x="946" y="-63.5" font-family="Helvetica,sans-Serif" font-size="10.00" fill="#000000">unordered_map</text>
</g>
<!-- Node3&#45;&gt;Node5 -->
<g id="edge5" class="edge">
<title>Node3&#45;&gt;Node5</title>
<path fill="none" stroke="#191970" d="M766.2813,-117.8906C803.1705,-107.2395 862.7757,-90.0296 903.1325,-78.3772"/>
<polygon fill="#191970" stroke="#191970" points="904.3158,-81.6786 912.9525,-75.5419 902.374,-74.9533 904.3158,-81.6786"/>
</g>
<!-- Node6 -->
<g id="node7" class="node">
<title>Node6</title>
<polygon fill="#ffffff" stroke="#bfbfbf" points="580,-56.5 580,-75.5 634,-75.5 634,-56.5 580,-56.5"/>
<text text-anchor="middle" x="607" y="-63.5" font-family="Helvetica,sans-Serif" font-size="10.00" fill="#000000">iostream</text>
</g>
<!-- Node3&#45;&gt;Node6 -->
<g id="edge6" class="edge">
<title>Node3&#45;&gt;Node6</title>
<path fill="none" stroke="#191970" d="M713.3125,-117.8906C692.5078,-107.7359 659.489,-91.6196 635.7681,-80.0416"/>
<polygon fill="#191970" stroke="#191970" points="637.0712,-76.783 626.5493,-75.5419 634.0007,-83.0736 637.0712,-76.783"/>
</g>
<!-- Node7 -->
<g id="node8" class="node">
<title>Node7</title>
<polygon fill="#ffffff" stroke="#bfbfbf" points="652.5,-56.5 652.5,-75.5 739.5,-75.5 739.5,-56.5 652.5,-56.5"/>
<text text-anchor="middle" x="696" y="-63.5" font-family="Helvetica,sans-Serif" font-size="10.00" fill="#000000">AMReX_Print.H</text>
</g>
<!-- Node3&#45;&gt;Node7 -->
<g id="edge7" class="edge">
<title>Node3&#45;&gt;Node7</title>
<path fill="none" stroke="#191970" d="M727.2188,-117.8906C721.874,-109.0068 713.7841,-95.5601 707.1789,-84.5811"/>
<polygon fill="#191970" stroke="#191970" points="710.0171,-82.5093 701.8628,-75.7449 704.0189,-86.118 710.0171,-82.5093"/>
</g>
<!-- Node8 -->
<g id="node9" class="node">
<title>Node8</title>
<polygon fill="#ffffff" stroke="#bfbfbf" points="500,-56.5 500,-75.5 562,-75.5 562,-56.5 500,-56.5"/>
<text text-anchor="middle" x="531" y="-63.5" font-family="Helvetica,sans-Serif" font-size="10.00" fill="#000000">AMReX.H</text>
</g>
<!-- Node3&#45;&gt;Node8 -->
<g id="edge8" class="edge">
<title>Node3&#45;&gt;Node8</title>
<path fill="none" stroke="#191970" d="M701.4375,-117.8906C666.4997,-107.2536 610.0762,-90.0752 571.806,-78.4236"/>
<polygon fill="#191970" stroke="#191970" points="572.5954,-75.0054 562.0095,-75.441 570.5565,-81.7019 572.5954,-75.0054"/>
</g>
<!-- Node9&#45;&gt;Node4 -->
<g id="edge11" class="edge">
<title>Node9&#45;&gt;Node4</title>
<path fill="none" stroke="#191970" d="M867.5625,-117.8906C859.4469,-108.6478 846.9945,-94.466 837.1576,-83.2628"/>
<polygon fill="#191970" stroke="#191970" points="839.7846,-80.95 830.5565,-75.7449 834.5245,-85.5686 839.7846,-80.95"/>
</g>
<!-- Node9&#45;&gt;Node5 -->
<g id="edge12" class="edge">
<title>Node9&#45;&gt;Node5</title>
<path fill="none" stroke="#191970" d="M886.9375,-117.8906C897.662,-108.4683 914.2287,-93.9134 927.0901,-82.6137"/>
<polygon fill="#191970" stroke="#191970" points="929.7059,-84.9745 934.9083,-75.7449 925.0857,-79.7158 929.7059,-84.9745"/>
</g>
<!-- Node10 -->
<g id="node11" class="node">
<title>Node10</title>
<polygon fill="#ffffff" stroke="#bfbfbf" points="1179.5,-.5 1179.5,-19.5 1220.5,-19.5 1220.5,-.5 1179.5,-.5"/>
<text text-anchor="middle" x="1200" y="-7.5" font-family="Helvetica,sans-Serif" font-size="10.00" fill="#000000">string</text>
</g>
<!-- Node9&#45;&gt;Node10 -->
<g id="edge10" class="edge">
<title>Node9&#45;&gt;Node10</title>
<path fill="none" stroke="#191970" d="M847.0838,-117.9934C813.1004,-105.3586 764.0695,-81.6263 787,-56 812.4515,-27.5563 1078.0445,-14.7046 1169.3634,-11.1035"/>
<polygon fill="#191970" stroke="#191970" points="1169.507,-14.6007 1179.3651,-10.7189 1169.2379,-7.6058 1169.507,-14.6007"/>
</g>
<!-- Node11 -->
<g id="node12" class="node">
<title>Node11</title>
<polygon fill="#ffffff" stroke="#bfbfbf" points="1487.5,-.5 1487.5,-19.5 1582.5,-19.5 1582.5,-.5 1487.5,-.5"/>
<text text-anchor="middle" x="1535" y="-7.5" font-family="Helvetica,sans-Serif" font-size="10.00" fill="#000000">AMReX_Vector.H</text>
</g>
<!-- Node9&#45;&gt;Node11 -->
<g id="edge13" class="edge">
<title>Node9&#45;&gt;Node11</title>
<path fill="none" stroke="#191970" d="M875.3569,-117.8026C874.9056,-102.0747 876.5965,-71.2327 895,-56 917.2564,-37.5782 1323.8371,-18.8011 1477.1487,-12.3454"/>
<polygon fill="#191970" stroke="#191970" points="1477.4629,-15.8354 1487.3077,-11.9201 1477.17,-8.8415 1477.4629,-15.8354"/>
</g>
<!-- Node14&#45;&gt;Node4 -->
<g id="edge18" class="edge">
<title>Node14&#45;&gt;Node4</title>
<path fill="none" stroke="#191970" d="M1331.3715,-122.1798C1239.6269,-113.4266 1052.843,-95.0505 895,-76 883.1376,-74.5683 870.2132,-72.8501 858.581,-71.245"/>
<polygon fill="#191970" stroke="#191970" points="858.7171,-67.7301 848.3293,-69.8142 857.7495,-74.663 858.7171,-67.7301"/>
</g>
<!-- Node14&#45;&gt;Node5 -->
<g id="edge19" class="edge">
<title>Node14&#45;&gt;Node5</title>
<path fill="none" stroke="#191970" d="M1331.1787,-121.1475C1256.9496,-112.5974 1122.7277,-96.2776 997.835,-76.0512"/>
<polygon fill="#191970" stroke="#191970" points="998.1433,-72.5553 987.7102,-74.3994 997.0161,-79.4639 998.1433,-72.5553"/>
</g>
<!-- Node14&#45;&gt;Node10 -->
<g id="edge17" class="edge">
<title>Node14&#45;&gt;Node10</title>
<path fill="none" stroke="#191970" d="M1339.6434,-117.9607C1296.263,-108.4879 1236.9061,-92.9606 1220,-76 1207.876,-63.8369 1203.0594,-44.5839 1201.1678,-30.0044"/>
<polygon fill="#191970" stroke="#191970" points="1204.644,-29.5875 1200.2187,-19.9612 1197.6751,-30.2461 1204.644,-29.5875"/>
</g>
<!-- Node14&#45;&gt;Node12 -->
<g id="edge20" class="edge">
<title>Node14&#45;&gt;Node12</title>
<path fill="none" stroke="#191970" d="M1444.8042,-119.8179C1515.1362,-110.183 1638.5538,-92.8729 1744,-76 1794.7943,-67.8722 1807.0874,-63.3505 1858,-56 1978.8197,-38.5568 2120.7097,-23.7345 2200.4131,-15.9213"/>
<polygon fill="#191970" stroke="#191970" points="2201.1521,-19.3659 2210.7651,-14.9117 2200.4725,-12.399 2201.1521,-19.3659"/>
</g>
<!-- Node15 -->
<g id="node16" class="node">
<title>Node15</title>
<polygon fill="#ffffff" stroke="#bfbfbf" points="1228.5,-56.5 1228.5,-75.5 1327.5,-75.5 1327.5,-56.5 1228.5,-56.5"/>
<text text-anchor="middle" x="1278" y="-63.5" font-family="Helvetica,sans-Serif" font-size="10.00" fill="#000000">AMReX_BCRec.H</text>
</g>
<!-- Node14&#45;&gt;Node15 -->
<g id="edge21" class="edge">
<title>Node14&#45;&gt;Node15</title>
<path fill="none" stroke="#191970" d="M1370.8125,-117.8906C1352.8918,-107.8713 1324.5905,-92.0483 1303.9477,-80.5071"/>
<polygon fill="#191970" stroke="#191970" points="1305.5033,-77.367 1295.0668,-75.5419 1302.0872,-83.4769 1305.5033,-77.367"/>
</g>
<!-- Node16 -->
<g id="node17" class="node">
<title>Node16</title>
<polygon fill="#ffffff" stroke="#bfbfbf" points="1345.5,-56.5 1345.5,-75.5 1430.5,-75.5 1430.5,-56.5 1345.5,-56.5"/>
<text text-anchor="middle" x="1388" y="-63.5" font-family="Helvetica,sans-Serif" font-size="10.00" fill="#000000">AMReX_Gpu.H</text>
</g>
<!-- Node14&#45;&gt;Node16 -->
<g id="edge22" class="edge">
<title>Node14&#45;&gt;Node16</title>
<path fill="none" stroke="#191970" d="M1388,-117.8906C1388,-109.3657 1388,-96.6392 1388,-85.9235"/>
<polygon fill="#191970" stroke="#191970" points="1391.5001,-85.7448 1388,-75.7449 1384.5001,-85.7449 1391.5001,-85.7448"/>
</g>
<!-- Node17 -->
<g id="node18" class="node">
<title>Node17</title>
<g id="a_node18"><a xlink:href="incflo__enums_8_h.html" target="_top" xlink:title="amr&#45;wind/incflo_enums.H">
<polygon fill="#ffffff" stroke="#000000" points="1006,-56.5 1006,-75.5 1134,-75.5 1134,-56.5 1006,-56.5"/>
<text text-anchor="middle" x="1070" y="-63.5" font-family="Helvetica,sans-Serif" font-size="10.00" fill="#000000">amr&#45;wind/incflo_enums.H</text>
</a>
</g>
</g>
<!-- Node14&#45;&gt;Node17 -->
<g id="edge23" class="edge">
<title>Node14&#45;&gt;Node17</title>
<path fill="none" stroke="#191970" d="M1338.6614,-117.9581C1282.1786,-107.0345 1189.6981,-89.1492 1129.3335,-77.4749"/>
<polygon fill="#191970" stroke="#191970" points="1129.6754,-73.9762 1119.1927,-75.5137 1128.3462,-80.8489 1129.6754,-73.9762"/>
</g>
<!-- Node18 -->
<g id="node19" class="node">
<title>Node18</title>
<g id="a_node19"><a xlink:href="_field_desc_types_8_h.html" target="_top" xlink:title="amr&#45;wind/core/FieldDescTypes.H">
<polygon fill="#ffffff" stroke="#000000" points="1757.5,-.5 1757.5,-19.5 1920.5,-19.5 1920.5,-.5 1757.5,-.5"/>
<text text-anchor="middle" x="1839" y="-7.5" font-family="Helvetica,sans-Serif" font-size="10.00" fill="#000000">amr&#45;wind/core/FieldDescTypes.H</text>
</a>
</g>
</g>
<!-- Node14&#45;&gt;Node18 -->
<g id="edge24" class="edge">
<title>Node14&#45;&gt;Node18</title>
<path fill="none" stroke="#191970" d="M1411.4999,-117.9366C1449.0824,-102.9459 1525.2785,-73.7936 1592,-56 1648.4832,-40.9368 1713.52,-29.0383 1762.6751,-21.1192"/>
<polygon fill="#191970" stroke="#191970" points="1763.2749,-24.5679 1772.6004,-19.5394 1762.1745,-17.6549 1763.2749,-24.5679"/>
</g>
<!-- Node19 -->
<g id="node20" class="node">
<title>Node19</title>
<g id="a_node20"><a xlink:href="_view_field_8_h.html" target="_top" xlink:title="amr&#45;wind/core/ViewField.H">
<polygon fill="#ffffff" stroke="#000000" points="1601,-56.5 1601,-75.5 1735,-75.5 1735,-56.5 1601,-56.5"/>
<text text-anchor="middle" x="1668" y="-63.5" font-family="Helvetica,sans-Serif" font-size="10.00" fill="#000000">amr&#45;wind/core/ViewField.H</text>
</a>
</g>
</g>
<!-- Node14&#45;&gt;Node19 -->
<g id="edge25" class="edge">
<title>Node14&#45;&gt;Node19</title>
<path fill="none" stroke="#191970" d="M1431.4428,-117.9581C1480.7956,-107.1181 1561.3616,-89.4224 1614.532,-77.7439"/>
<polygon fill="#191970" stroke="#191970" points="1615.439,-81.1282 1624.4553,-75.5643 1613.9372,-74.2911 1615.439,-81.1282"/>
</g>
<!-- Node19&#45;&gt;Node10 -->
<g id="edge26" class="edge">
<title>Node19&#45;&gt;Node10</title>
<path fill="none" stroke="#191970" d="M1600.8193,-57.6823C1596.1428,-57.1106 1591.5012,-56.5454 1587,-56 1454.3375,-39.9267 1296.0249,-21.2746 1230.6036,-13.5899"/>
<polygon fill="#191970" stroke="#191970" points="1230.9016,-10.101 1220.5617,-12.4108 1230.0852,-17.0532 1230.9016,-10.101"/>
</g>
<!-- Node19&#45;&gt;Node11 -->
<g id="edge29" class="edge">
<title>Node19&#45;&gt;Node11</title>
<path fill="none" stroke="#191970" d="M1645.1365,-56.3733C1623.595,-47.3032 1591.1162,-33.6279 1567.0044,-23.4755"/>
<polygon fill="#191970" stroke="#191970" points="1568.1397,-20.156 1557.5652,-19.5011 1565.4233,-26.6075 1568.1397,-20.156"/>
</g>
<!-- Node19&#45;&gt;Node12 -->
<g id="edge28" class="edge">
<title>Node19&#45;&gt;Node12</title>
<path fill="none" stroke="#191970" d="M1735.0975,-59.6849C1851.2173,-48.756 2088.003,-26.4703 2200.7012,-15.8634"/>
<polygon fill="#191970" stroke="#191970" points="2201.2578,-19.3266 2210.8858,-14.9049 2200.6018,-12.3574 2201.2578,-19.3266"/>
</g>
<!-- Node19&#45;&gt;Node18 -->
<g id="edge27" class="edge">
<title>Node19&#45;&gt;Node18</title>
<path fill="none" stroke="#191970" d="M1697.3959,-56.3733C1725.8307,-47.0613 1769.0877,-32.8953 1800.3081,-22.671"/>
<polygon fill="#191970" stroke="#191970" points="1801.5736,-25.9396 1809.9876,-19.5011 1799.395,-19.2872 1801.5736,-25.9396"/>
</g>
<!-- Node20&#45;&gt;Node2 -->
<g id="edge67" class="edge">
<title>Node20&#45;&gt;Node2</title>
<path fill="none" stroke="#191970" d="M1122.9065,-251.9005C1142.622,-240.7062 1175.4222,-222.0823 1198.2959,-209.0947"/>
<polygon fill="#191970" stroke="#191970" points="1200.157,-212.0629 1207.1248,-204.0817 1196.7007,-205.9757 1200.157,-212.0629"/>
</g>
<!-- Node21 -->
<g id="node22" class="node">
<title>Node21</title>
<polygon fill="#ffffff" stroke="#bfbfbf" points="995,-118 995,-137 1101,-137 1101,-118 995,-118"/>
<text text-anchor="middle" x="1048" y="-125" font-family="Helvetica,sans-Serif" font-size="10.00" fill="#000000">AMReX_AmrCore.H</text>
</g>
<!-- Node20&#45;&gt;Node21 -->
<g id="edge31" class="edge">
<title>Node20&#45;&gt;Node21</title>
<path fill="none" stroke="#191970" d="M1101.8288,-251.8631C1092.2978,-229.8432 1068.7804,-175.5098 1056.2193,-146.4894"/>
<polygon fill="#191970" stroke="#191970" points="1059.3177,-144.8366 1052.1334,-137.0496 1052.8937,-147.6172 1059.3177,-144.8366"/>
</g>
<!-- Node22 -->
<g id="node23" class="node">
<title>Node22</title>
<g id="a_node23"><a xlink:href="_sim_time_8_h.html" target="_top" xlink:title="amr&#45;wind/core/SimTime.H">
<polygon fill="#ffffff" stroke="#000000" points="268.5,-185 268.5,-204 399.5,-204 399.5,-185 268.5,-185"/>
<text text-anchor="middle" x="334" y="-192" font-family="Helvetica,sans-Serif" font-size="10.00" fill="#000000">amr&#45;wind/core/SimTime.H</text>
</a>
</g>
</g>
<!-- Node20&#45;&gt;Node22 -->
<g id="edge32" class="edge">
<title>Node20&#45;&gt;Node22</title>
<path fill="none" stroke="#191970" d="M1051.7145,-256.7887C916.759,-245.0762 565.7714,-214.6149 410.1759,-201.1111"/>
<polygon fill="#191970" stroke="#191970" points="410.0302,-197.5854 399.7649,-200.2076 409.4249,-204.5592 410.0302,-197.5854"/>
</g>
<!-- Node26 -->
<g id="node27" class="node">
<title>Node26</title>
<g id="a_node27"><a xlink:href="_field_repo_8_h.html" target="_top" xlink:title="amr&#45;wind/core/FieldRepo.H">
<polygon fill="#ffffff" stroke="#000000" points="1796,-185 1796,-204 1932,-204 1932,-185 1796,-185"/>
<text text-anchor="middle" x="1864" y="-192" font-family="Helvetica,sans-Serif" font-size="10.00" fill="#000000">amr&#45;wind/core/FieldRepo.H</text>
</a>
</g>
</g>
<!-- Node20&#45;&gt;Node26 -->
<g id="edge36" class="edge">
<title>Node20&#45;&gt;Node26</title>
<path fill="none" stroke="#191970" d="M1160.2093,-256.7084C1292.2883,-245.0339 1631.178,-215.0793 1785.4286,-201.445"/>
<polygon fill="#191970" stroke="#191970" points="1786.1111,-204.8984 1795.7641,-200.5314 1785.4947,-197.9256 1786.1111,-204.8984"/>
</g>
<!-- Node33 -->
<g id="node34" class="node">
<title>Node33</title>
<g id="a_node34"><a xlink:href="_p_d_e_base_8_h.html" target="_top" xlink:title="amr&#45;wind/equation_systems\l/PDEBase.H">
<polygon fill="#ffffff" stroke="#000000" points="806.5,-179.5 806.5,-209.5 945.5,-209.5 945.5,-179.5 806.5,-179.5"/>
<text text-anchor="start" x="814.5" y="-197.5" font-family="Helvetica,sans-Serif" font-size="10.00" fill="#000000">amr&#45;wind/equation_systems</text>
<text text-anchor="middle" x="876" y="-186.5" font-family="Helvetica,sans-Serif" font-size="10.00" fill="#000000">/PDEBase.H</text>
</a>
</g>
</g>
<!-- Node20&#45;&gt;Node33 -->
<g id="edge59" class="edge">
<title>Node20&#45;&gt;Node33</title>
<path fill="none" stroke="#191970" d="M1073.0466,-251.9005C1037.71,-241.6068 980.8078,-225.031 937.2147,-212.3321"/>
<polygon fill="#191970" stroke="#191970" points="938.1471,-208.9583 927.5672,-209.5218 936.1893,-215.679 938.1471,-208.9583"/>
</g>
<!-- Node23 -->
<g id="node24" class="node">
<title>Node23</title>
<polygon fill="#ffffff" stroke="#bfbfbf" points="429.5,-118 429.5,-137 522.5,-137 522.5,-118 429.5,-118"/>
<text text-anchor="middle" x="476" y="-125" font-family="Helvetica,sans-Serif" font-size="10.00" fill="#000000">AMReX_REAL.H</text>
</g>
<!-- Node22&#45;&gt;Node23 -->
<g id="edge33" class="edge">
<title>Node22&#45;&gt;Node23</title>
<path fill="none" stroke="#191970" d="M354.3451,-184.9005C378.4923,-173.5072 418.9504,-154.4178 446.5245,-141.4075"/>
<polygon fill="#191970" stroke="#191970" points="448.1423,-144.5142 455.6926,-137.0817 445.1552,-138.1835 448.1423,-144.5142"/>
</g>
<!-- Node24 -->
<g id="node25" class="node">
<title>Node24</title>
<polygon fill="#ffffff" stroke="#bfbfbf" points="128,-118 128,-137 254,-137 254,-118 128,-118"/>
<text text-anchor="middle" x="191" y="-125" font-family="Helvetica,sans-Serif" font-size="10.00" fill="#000000">AMReX_GpuQualifiers.H</text>
</g>
<!-- Node22&#45;&gt;Node24 -->
<g id="edge34" class="edge">
<title>Node22&#45;&gt;Node24</title>
<path fill="none" stroke="#191970" d="M313.5116,-184.9005C289.1944,-173.5072 248.4514,-154.4178 220.6831,-141.4075"/>
<polygon fill="#191970" stroke="#191970" points="221.9907,-138.1551 211.4504,-137.0817 219.0208,-144.4938 221.9907,-138.1551"/>
</g>
<!-- Node25 -->
<g id="node26" class="node">
<title>Node25</title>
<polygon fill="#ffffff" stroke="#bfbfbf" points="0,-118 0,-137 110,-137 110,-118 0,-118"/>
<text text-anchor="middle" x="55" y="-125" font-family="Helvetica,sans-Serif" font-size="10.00" fill="#000000">AMReX_Extension.H</text>
</g>
<!-- Node22&#45;&gt;Node25 -->
<g id="edge35" class="edge">
<title>Node22&#45;&gt;Node25</title>
<path fill="none" stroke="#191970" d="M293.9712,-184.9434C250.7883,-174.6264 180.0103,-157.695 119,-143 114.2486,-141.8556 109.2993,-140.6611 104.3508,-139.4653"/>
<polygon fill="#191970" stroke="#191970" points="104.8005,-135.9732 94.258,-137.0242 103.1549,-142.777 104.8005,-135.9732"/>
</g>
<!-- Node26&#45;&gt;Node5 -->
<g id="edge38" class="edge">
<title>Node26&#45;&gt;Node5</title>
<path fill="none" stroke="#191970" d="M1795.8653,-191.6827C1629.6133,-184.5074 1212.3971,-164.5788 1153,-143 1130.8563,-134.9553 1131.2241,-122.2275 1110,-112 1089.8812,-102.3051 1036.4106,-88.0368 995.9488,-77.9669"/>
<polygon fill="#191970" stroke="#191970" points="996.7792,-74.5669 986.2316,-75.5666 995.1005,-81.3627 996.7792,-74.5669"/>
</g>
<!-- Node26&#45;&gt;Node10 -->
<g id="edge37" class="edge">
<title>Node26&#45;&gt;Node10</title>
<path fill="none" stroke="#191970" d="M1795.6735,-191.5342C1670.5251,-185.5184 1409.4253,-170.0993 1323,-143 1265.0848,-124.8402 1236.2031,-127.4481 1204,-76 1195.4456,-62.3334 1195.0738,-43.7962 1196.4809,-29.8468"/>
<polygon fill="#191970" stroke="#191970" points="1199.964,-30.2093 1197.8684,-19.8238 1193.0301,-29.2494 1199.964,-30.2093"/>
</g>
<!-- Node26&#45;&gt;Node12 -->
<g id="edge57" class="edge">
<title>Node26&#45;&gt;Node12</title>
<path fill="none" stroke="#191970" d="M1908.4271,-184.9603C1919.3699,-182.8073 1931.0815,-180.6681 1942,-179 2016.0142,-167.6921 2226.9651,-198.6999 2277,-143 2305.3282,-111.4645 2286.1282,-57.2608 2272.7848,-28.763"/>
<polygon fill="#191970" stroke="#191970" points="2275.7896,-26.9423 2268.2326,-19.5165 2269.5094,-30.0342 2275.7896,-26.9423"/>
</g>
<!-- Node26&#45;&gt;Node14 -->
<g id="edge44" class="edge">
<title>Node26&#45;&gt;Node14</title>
<path fill="none" stroke="#191970" d="M1796.3063,-184.9717C1705.4804,-172.1874 1545.1648,-149.6219 1454.7983,-136.9023"/>
<polygon fill="#191970" stroke="#191970" points="1455.0602,-133.4047 1444.6699,-135.4766 1454.0844,-140.3364 1455.0602,-133.4047"/>
</g>
<!-- Node26&#45;&gt;Node18 -->
<g id="edge39" class="edge">
<title>Node26&#45;&gt;Node18</title>
<path fill="none" stroke="#191970" d="M1911.8203,-184.9426C1984.7491,-170.3478 2115.637,-144.0706 2118,-143 2168.0966,-120.3036 2242.391,-97.237 2206,-56 2188.0359,-35.6437 2033.6415,-22.1077 1930.9135,-15.2646"/>
<polygon fill="#191970" stroke="#191970" points="1931.0376,-11.7653 1920.8299,-14.6033 1930.5794,-18.7503 1931.0376,-11.7653"/>
</g>
<!-- Node26&#45;&gt;Node21 -->
<g id="edge56" class="edge">
<title>Node26&#45;&gt;Node21</title>
<path fill="none" stroke="#191970" d="M1795.9615,-193.429C1663.9492,-190.5556 1364.1319,-180.1424 1115,-143 1108.2562,-141.9946 1101.1869,-140.6664 1094.2729,-139.2094"/>
<polygon fill="#191970" stroke="#191970" points="1094.8304,-135.7482 1084.3104,-137.0053 1093.3182,-142.5829 1094.8304,-135.7482"/>
</g>
<!-- Node27 -->
<g id="node28" class="node">
<title>Node27</title>
<g id="a_node28"><a xlink:href="_field_utils_8_h.html" target="_top" xlink:title="amr&#45;wind/core/FieldUtils.H">
<polygon fill="#ffffff" stroke="#000000" points="2329.5,-56.5 2329.5,-75.5 2462.5,-75.5 2462.5,-56.5 2329.5,-56.5"/>
<text text-anchor="middle" x="2396" y="-63.5" font-family="Helvetica,sans-Serif" font-size="10.00" fill="#000000">amr&#45;wind/core/FieldUtils.H</text>
</a>
</g>
</g>
<!-- Node26&#45;&gt;Node27 -->
<g id="edge40" class="edge">
<title>Node26&#45;&gt;Node27</title>
<path fill="none" stroke="#191970" d="M1908.0045,-184.9571C1919.0647,-182.779 1930.9361,-180.6291 1942,-179 2106.7716,-154.739 2163.4854,-212.1491 2315,-143 2343.821,-129.8465 2368.8287,-102.1476 2383.1627,-83.8089"/>
<polygon fill="#191970" stroke="#191970" points="2386.0804,-85.753 2389.3119,-75.663 2380.4935,-81.5355 2386.0804,-85.753"/>
</g>
<!-- Node29 -->
<g id="node30" class="node">
<title>Node29</title>
<g id="a_node30"><a xlink:href="_int_field_8_h.html" target="_top" xlink:title="amr&#45;wind/core/IntField.H">
<polygon fill="#ffffff" stroke="#000000" points="1958,-118 1958,-137 2082,-137 2082,-118 1958,-118"/>
<text text-anchor="middle" x="2020" y="-125" font-family="Helvetica,sans-Serif" font-size="10.00" fill="#000000">amr&#45;wind/core/IntField.H</text>
</a>
</g>
</g>
<!-- Node26&#45;&gt;Node29 -->
<g id="edge45" class="edge">
<title>Node26&#45;&gt;Node29</title>
<path fill="none" stroke="#191970" d="M1886.351,-184.9005C1913.1105,-173.4077 1958.1035,-154.0838 1988.4089,-141.068"/>
<polygon fill="#191970" stroke="#191970" points="1989.8833,-144.244 1997.6905,-137.0817 1987.1208,-137.8121 1989.8833,-144.244"/>
</g>
<!-- Node30 -->
<g id="node31" class="node">
<title>Node30</title>
<polygon fill="#ffffff" stroke="#bfbfbf" points="2089.5,-56.5 2089.5,-75.5 2196.5,-75.5 2196.5,-56.5 2089.5,-56.5"/>
<text text-anchor="middle" x="2143" y="-63.5" font-family="Helvetica,sans-Serif" font-size="10.00" fill="#000000">AMReX_iMultiFab.H</text>
</g>
<!-- Node26&#45;&gt;Node30 -->
<g id="edge58" class="edge">
<title>Node26&#45;&gt;Node30</title>
<path fill="none" stroke="#191970" d="M1909.8895,-184.9914C1974.0153,-171.5739 2083.485,-148.1409 2091,-143 2112.0347,-128.6106 2126.9119,-102.6543 2135.2201,-84.8889"/>
<polygon fill="#191970" stroke="#191970" points="2138.517,-86.0869 2139.3497,-75.5248 2132.1121,-83.2623 2138.517,-86.0869"/>
</g>
<!-- Node31 -->
<g id="node32" class="node">
<title>Node31</title>
<g id="a_node32"><a xlink:href="_scratch_field_8_h.html" target="_top" xlink:title="amr&#45;wind/core/ScratchField.H">
<polygon fill="#ffffff" stroke="#000000" points="1791,-118 1791,-137 1937,-137 1937,-118 1791,-118"/>
<text text-anchor="middle" x="1864" y="-125" font-family="Helvetica,sans-Serif" font-size="10.00" fill="#000000">amr&#45;wind/core/ScratchField.H</text>
</a>
</g>
</g>
<!-- Node26&#45;&gt;Node31 -->
<g id="edge49" class="edge">
<title>Node26&#45;&gt;Node31</title>
<path fill="none" stroke="#191970" d="M1864,-184.9005C1864,-175.149 1864,-159.7597 1864,-147.3695"/>
<polygon fill="#191970" stroke="#191970" points="1867.5001,-147.0816 1864,-137.0817 1860.5001,-147.0817 1867.5001,-147.0816"/>
</g>
<!-- Node27&#45;&gt;Node12 -->
<g id="edge42" class="edge">
<title>Node27&#45;&gt;Node12</title>
<path fill="none" stroke="#191970" d="M2373.1365,-56.3733C2351.595,-47.3032 2319.1162,-33.6279 2295.0044,-23.4755"/>
<polygon fill="#191970" stroke="#191970" points="2296.1397,-20.156 2285.5652,-19.5011 2293.4233,-26.6075 2296.1397,-20.156"/>
</g>
<!-- Node27&#45;&gt;Node18 -->
<g id="edge41" class="edge">
<title>Node27&#45;&gt;Node18</title>
<path fill="none" stroke="#191970" d="M2329.366,-59.3007C2230.0992,-49.3206 2043.0715,-30.5171 1930.8824,-19.2377"/>
<polygon fill="#191970" stroke="#191970" points="1930.899,-15.7218 1920.599,-18.2039 1930.1987,-22.6867 1930.899,-15.7218"/>
</g>
<!-- Node28 -->
<g id="node29" class="node">
<title>Node28</title>
<polygon fill="#ffffff" stroke="#bfbfbf" points="2338,-.5 2338,-19.5 2454,-19.5 2454,-.5 2338,-.5"/>
<text text-anchor="middle" x="2396" y="-7.5" font-family="Helvetica,sans-Serif" font-size="10.00" fill="#000000">AMReX_Interpolater.H</text>
</g>
<!-- Node27&#45;&gt;Node28 -->
<g id="edge43" class="edge">
<title>Node27&#45;&gt;Node28</title>
<path fill="none" stroke="#191970" d="M2396,-56.2455C2396,-48.9382 2396,-38.6944 2396,-29.7046"/>
<polygon fill="#191970" stroke="#191970" points="2399.5001,-29.6426 2396,-19.6427 2392.5001,-29.6427 2399.5001,-29.6426"/>
</g>
<!-- Node29&#45;&gt;Node10 -->
<g id="edge46" class="edge">
<title>Node29&#45;&gt;Node10</title>
<path fill="none" stroke="#191970" d="M1978.2659,-117.9583C1967.7726,-115.7802 1956.5064,-113.6299 1946,-112 1789.7246,-87.7558 1747.3041,-105.8396 1592,-76 1560.2251,-69.8949 1553.6445,-62.7481 1522,-56 1416.1553,-33.4291 1288.3246,-18.8722 1230.7464,-12.98"/>
<polygon fill="#191970" stroke="#191970" points="1230.8144,-9.4693 1220.5139,-11.9489 1230.1126,-16.434 1230.8144,-9.4693"/>
</g>
<!-- Node29&#45;&gt;Node18 -->
<g id="edge47" class="edge">
<title>Node29&#45;&gt;Node18</title>
<path fill="none" stroke="#191970" d="M2020.7395,-117.7417C2021.3311,-102.484 2020.1164,-72.9725 2004,-56 1990.2667,-41.5372 1945.6272,-29.6017 1906.2387,-21.5157"/>
<polygon fill="#191970" stroke="#191970" points="1906.8516,-18.069 1896.3598,-19.5436 1905.4812,-24.9336 1906.8516,-18.069"/>
</g>
<!-- Node29&#45;&gt;Node30 -->
<g id="edge48" class="edge">
<title>Node29&#45;&gt;Node30</title>
<path fill="none" stroke="#191970" d="M2039.2188,-117.8906C2059.5281,-107.7359 2091.7607,-91.6196 2114.9168,-80.0416"/>
<polygon fill="#191970" stroke="#191970" points="2116.5372,-83.1446 2123.9162,-75.5419 2113.4067,-76.8836 2116.5372,-83.1446"/>
</g>
<!-- Node31&#45;&gt;Node10 -->
<g id="edge50" class="edge">
<title>Node31&#45;&gt;Node10</title>
<path fill="none" stroke="#191970" d="M1807.5747,-117.9756C1747.2551,-107.756 1648.8267,-90.971 1564,-76 1440.2377,-54.1574 1293.0034,-27.145 1230.4902,-15.628"/>
<polygon fill="#191970" stroke="#191970" points="1230.9811,-12.1596 1220.5123,-13.7888 1229.7121,-19.0436 1230.9811,-12.1596"/>
</g>
<!-- Node31&#45;&gt;Node11 -->
<g id="edge54" class="edge">
<title>Node31&#45;&gt;Node11</title>
<path fill="none" stroke="#191970" d="M1790.699,-119.1384C1722.0136,-110.3235 1625.1053,-95.0773 1592,-76 1572.2289,-64.6067 1555.9807,-43.7519 1545.9603,-28.5256"/>
<polygon fill="#191970" stroke="#191970" points="1548.8313,-26.516 1540.5502,-19.9074 1542.9026,-30.2377 1548.8313,-26.516"/>
</g>
<!-- Node31&#45;&gt;Node12 -->
<g id="edge53" class="edge">
<title>Node31&#45;&gt;Node12</title>
<path fill="none" stroke="#191970" d="M1890.8726,-117.9647C1931.6864,-103.6379 2011.8686,-76.0983 2081,-56 2124.9097,-43.2343 2175.3587,-30.6438 2211.9887,-21.8712"/>
<polygon fill="#191970" stroke="#191970" points="2213.0203,-25.2235 2221.9369,-19.5012 2211.398,-18.4141 2213.0203,-25.2235"/>
</g>
<!-- Node31&#45;&gt;Node18 -->
<g id="edge51" class="edge">
<title>Node31&#45;&gt;Node18</title>
<path fill="none" stroke="#191970" d="M1861.9541,-117.8845C1857.8705,-98.6913 1848.6353,-55.286 1843.2056,-29.7663"/>
<polygon fill="#191970" stroke="#191970" points="1846.5786,-28.801 1841.0741,-19.7484 1839.7319,-30.2578 1846.5786,-28.801"/>
</g>
<!-- Node31&#45;&gt;Node19 -->
<g id="edge52" class="edge">
<title>Node31&#45;&gt;Node19</title>
<path fill="none" stroke="#191970" d="M1833.375,-117.8906C1799.7176,-107.3298 1745.5101,-90.3208 1708.3941,-78.6747"/>
<polygon fill="#191970" stroke="#191970" points="1708.9991,-75.1963 1698.4099,-75.5419 1706.9034,-81.8753 1708.9991,-75.1963"/>
</g>
<!-- Node32 -->
<g id="node33" class="node">
<title>Node32</title>
<polygon fill="#ffffff" stroke="#bfbfbf" points="1867,-56.5 1867,-75.5 1995,-75.5 1995,-56.5 1867,-56.5"/>
<text text-anchor="middle" x="1931" y="-63.5" font-family="Helvetica,sans-Serif" font-size="10.00" fill="#000000">AMReX_PhysBCFunct.H</text>
</g>
<!-- Node31&#45;&gt;Node32 -->
<g id="edge55" class="edge">
<title>Node31&#45;&gt;Node32</title>
<path fill="none" stroke="#191970" d="M1874.4688,-117.8906C1884.7337,-108.4683 1900.5903,-93.9134 1912.9006,-82.6137"/>
<polygon fill="#191970" stroke="#191970" points="1915.3834,-85.0856 1920.3837,-75.7449 1910.6499,-79.9287 1915.3834,-85.0856"/>
</g>
<!-- Node33&#45;&gt;Node3 -->
<g id="edge61" class="edge">
<title>Node33&#45;&gt;Node3</title>
<path fill="none" stroke="#191970" d="M843.908,-179.4639C819.5902,-168.0702 786.4279,-152.5327 762.7138,-141.4219"/>
<polygon fill="#191970" stroke="#191970" points="764.0382,-138.1773 753.4979,-137.1039 761.0683,-144.5161 764.0382,-138.1773"/>
</g>
<!-- Node33&#45;&gt;Node9 -->
<g id="edge62" class="edge">
<title>Node33&#45;&gt;Node9</title>
<path fill="none" stroke="#191970" d="M876,-179.2967C876,-169.7699 876,-157.3954 876,-147.1306"/>
<polygon fill="#191970" stroke="#191970" points="879.5001,-147.0549 876,-137.055 872.5001,-147.055 879.5001,-147.0549"/>
</g>
<!-- Node33&#45;&gt;Node10 -->
<g id="edge60" class="edge">
<title>Node33&#45;&gt;Node10</title>
<path fill="none" stroke="#191970" d="M806.138,-182.0051C682.999,-158.508 444.4892,-105.6262 491,-56 514.5107,-30.9145 1034.9675,-14.6298 1168.8321,-10.8464"/>
<polygon fill="#191970" stroke="#191970" points="1169.2874,-14.3351 1179.1857,-10.557 1169.0918,-7.3378 1169.2874,-14.3351"/>
</g>
<!-- Node33&#45;&gt;Node17 -->
<g id="edge66" class="edge">
<title>Node33&#45;&gt;Node17</title>
<path fill="none" stroke="#191970" d="M897.3051,-179.4179C911.5007,-169.2779 930.5081,-155.5261 947,-143 964.6327,-129.6075 967.5559,-124.251 986,-112 1003.7139,-100.234 1024.6946,-88.7429 1041.2565,-80.1889"/>
<polygon fill="#191970" stroke="#191970" points="1043.1169,-83.1692 1050.4392,-75.5119 1039.9399,-76.9317 1043.1169,-83.1692"/>
</g>
<!-- Node33&#45;&gt;Node18 -->
<g id="edge65" class="edge">
<title>Node33&#45;&gt;Node18</title>
<path fill="none" stroke="#191970" d="M945.7802,-191.3997C1054.8056,-185.856 1271.9323,-172.0007 1454,-143 1584.6372,-122.1914 1623.058,-129.5918 1744,-76 1772.7174,-63.2747 1801.8054,-41.4627 1820.0917,-26.4172"/>
<polygon fill="#191970" stroke="#191970" points="1822.7476,-28.7571 1828.1519,-19.6442 1818.2443,-23.3979 1822.7476,-28.7571"/>
</g>
<!-- Node34 -->
<g id="node35" class="node">
<title>Node34</title>
<g id="a_node35"><a xlink:href="_p_d_e_fields_8_h.html" target="_top" xlink:title="amr&#45;wind/equation_systems\l/PDEFields.H">
<polygon fill="#ffffff" stroke="#000000" points="272.5,-112.5 272.5,-142.5 411.5,-142.5 411.5,-112.5 272.5,-112.5"/>
<text text-anchor="start" x="280.5" y="-130.5" font-family="Helvetica,sans-Serif" font-size="10.00" fill="#000000">amr&#45;wind/equation_systems</text>
<text text-anchor="middle" x="342" y="-119.5" font-family="Helvetica,sans-Serif" font-size="10.00" fill="#000000">/PDEFields.H</text>
</a>
</g>
</g>
<!-- Node33&#45;&gt;Node34 -->
<g id="edge63" class="edge">
<title>Node33&#45;&gt;Node34</title>
<path fill="none" stroke="#191970" d="M806.2292,-188.4502C718.6594,-180.4479 563.6696,-164.9334 421.875,-143.2228"/>
<polygon fill="#191970" stroke="#191970" points="422.107,-139.7171 411.6897,-141.6489 421.0379,-146.635 422.107,-139.7171"/>
</g>
<!-- Node35 -->
<g id="node36" class="node">
<title>Node35</title>
<polygon fill="#ffffff" stroke="#bfbfbf" points="319.5,-56.5 319.5,-75.5 364.5,-75.5 364.5,-56.5 319.5,-56.5"/>
<text text-anchor="middle" x="342" y="-63.5" font-family="Helvetica,sans-Serif" font-size="10.00" fill="#000000">iosfwd</text>
</g>
<!-- Node34&#45;&gt;Node35 -->
<g id="edge64" class="edge">
<title>Node34&#45;&gt;Node35</title>
<path fill="none" stroke="#191970" d="M342,-112.2977C342,-104.3834 342,-94.6043 342,-86.0759"/>
<polygon fill="#191970" stroke="#191970" points="345.5001,-85.8469 342,-75.8469 338.5001,-85.847 345.5001,-85.8469"/>
</g>
<!-- Node37&#45;&gt;Node13 -->
<g id="edge79" class="edge">
<title>Node37&#45;&gt;Node13</title>
<path fill="none" stroke="#191970" d="M2565.2417,-313.3465C2581.0258,-305.3551 2602.284,-292.7718 2617,-277 2653.7022,-237.6645 2677.4632,-177.4962 2687.8968,-146.8679"/>
<polygon fill="#191970" stroke="#191970" points="2691.228,-147.9419 2691.0309,-137.3489 2684.5791,-145.7527 2691.228,-147.9419"/>
</g>
<!-- Node38 -->
<g id="node39" class="node">
<title>Node38</title>
<g id="a_node39"><a xlink:href="fvm__utils_8_h.html" target="_top" xlink:title="amr&#45;wind/fvm/fvm_utils.H">
<polygon fill="#ffffff" stroke="#000000" points="2349.5,-252 2349.5,-271 2478.5,-271 2478.5,-252 2349.5,-252"/>
<text text-anchor="middle" x="2414" y="-259" font-family="Helvetica,sans-Serif" font-size="10.00" fill="#000000">amr&#45;wind/fvm/fvm_utils.H</text>
</a>
</g>
</g>
<!-- Node37&#45;&gt;Node38 -->
<g id="edge70" class="edge">
<title>Node37&#45;&gt;Node38</title>
<path fill="none" stroke="#191970" d="M2523.6875,-313.3906C2502.1269,-303.1908 2467.8522,-286.9763 2443.3556,-275.3875"/>
<polygon fill="#191970" stroke="#191970" points="2444.7061,-272.1545 2434.1699,-271.0419 2441.7126,-278.4822 2444.7061,-272.1545"/>
</g>
<!-- Node42 -->
<g id="node43" class="node">
<title>Node42</title>
<polygon fill="#ffffff" stroke="#bfbfbf" points="2548.5,-185 2548.5,-204 2643.5,-204 2643.5,-185 2548.5,-185"/>
<text text-anchor="middle" x="2596" y="-192" font-family="Helvetica,sans-Serif" font-size="10.00" fill="#000000">AMReX_MFIter.H</text>
</g>
<!-- Node37&#45;&gt;Node42 -->
<g id="edge80" class="edge">
<title>Node37&#45;&gt;Node42</title>
<path fill="none" stroke="#191970" d="M2563.21,-313.4505C2576.5266,-305.663 2593.2125,-293.2917 2601,-277 2610.5319,-257.0588 2606.7833,-231.2472 2602.2848,-213.8487"/>
<polygon fill="#191970" stroke="#191970" points="2605.6429,-212.862 2599.4989,-204.2305 2598.9193,-214.8095 2605.6429,-212.862"/>
</g>
<!-- Node43 -->
<g id="node44" class="node">
<title>Node43</title>
<polygon fill="#ffffff" stroke="#bfbfbf" points="2496.5,-252 2496.5,-271 2591.5,-271 2591.5,-252 2496.5,-252"/>
<text text-anchor="middle" x="2544" y="-259" font-family="Helvetica,sans-Serif" font-size="10.00" fill="#000000">AMReX_Array4.H</text>
</g>
<!-- Node37&#45;&gt;Node43 -->
<g id="edge78" class="edge">
<title>Node37&#45;&gt;Node43</title>
<path fill="none" stroke="#191970" d="M2544,-313.3906C2544,-304.8657 2544,-292.1392 2544,-281.4235"/>
<polygon fill="#191970" stroke="#191970" points="2547.5001,-281.2448 2544,-271.2449 2540.5001,-281.2449 2547.5001,-281.2448"/>
</g>
<!-- Node38&#45;&gt;Node26 -->
<g id="edge71" class="edge">
<title>Node38&#45;&gt;Node26</title>
<path fill="none" stroke="#191970" d="M2349.2539,-256.242C2258.0861,-248.4282 2086.822,-232.2465 1942,-210 1934.3239,-208.8209 1926.2553,-207.4116 1918.3372,-205.9302"/>
<polygon fill="#191970" stroke="#191970" points="1918.9098,-202.4762 1908.4291,-204.0271 1917.5893,-209.3506 1918.9098,-202.4762"/>
</g>
<!-- Node39 -->
<g id="node40" class="node">
<title>Node39</title>
<g id="a_node40"><a xlink:href="stencils_8_h.html" target="_top" xlink:title="Second&#45;order finite volume discretization stencil coefficients. ">
<polygon fill="#ffffff" stroke="#000000" points="2385.5,-185 2385.5,-204 2508.5,-204 2508.5,-185 2385.5,-185"/>
<text text-anchor="middle" x="2447" y="-192" font-family="Helvetica,sans-Serif" font-size="10.00" fill="#000000">amr&#45;wind/fvm/stencils.H</text>
</a>
</g>
</g>
<!-- Node38&#45;&gt;Node39 -->
<g id="edge72" class="edge">
<title>Node38&#45;&gt;Node39</title>
<path fill="none" stroke="#191970" d="M2418.7281,-251.9005C2423.6781,-241.8505 2431.5776,-225.8122 2437.7697,-213.2403"/>
<polygon fill="#191970" stroke="#191970" points="2441.0019,-214.5991 2442.2807,-204.0817 2434.7223,-211.5061 2441.0019,-214.5991"/>
</g>
<!-- Node38&#45;&gt;Node42 -->
<g id="edge77" class="edge">
<title>Node38&#45;&gt;Node42</title>
<path fill="none" stroke="#191970" d="M2440.0762,-251.9005C2471.7011,-240.2584 2525.1544,-220.5805 2560.5124,-207.5641"/>
<polygon fill="#191970" stroke="#191970" points="2561.797,-210.8209 2569.9722,-204.0817 2559.3787,-204.2519 2561.797,-210.8209"/>
</g>
<!-- Node39&#45;&gt;Node13 -->
<g id="edge76" class="edge">
<title>Node39&#45;&gt;Node13</title>
<path fill="none" stroke="#191970" d="M2482.1268,-184.9717C2525.8957,-173.0991 2600.7634,-152.7909 2648.7773,-139.7669"/>
<polygon fill="#191970" stroke="#191970" points="2649.8596,-143.0999 2658.5945,-137.1039 2648.027,-136.344 2649.8596,-143.0999"/>
</g>
<!-- Node39&#45;&gt;Node23 -->
<g id="edge73" class="edge">
<title>Node39&#45;&gt;Node23</title>
<path fill="none" stroke="#191970" d="M2385.1866,-191.7601C2308.6302,-188.4291 2174.2172,-182.7847 2059,-179 1437.7957,-158.5946 1281.6108,-176.9608 661,-143 617.9044,-140.6417 569.2747,-136.5095 532.6922,-133.1045"/>
<polygon fill="#191970" stroke="#191970" points="532.992,-129.6173 522.7082,-132.1655 532.3365,-136.5866 532.992,-129.6173"/>
</g>
<!-- Node40 -->
<g id="node41" class="node">
<title>Node40</title>
<polygon fill="#ffffff" stroke="#bfbfbf" points="2405,-118 2405,-137 2489,-137 2489,-118 2405,-118"/>
<text text-anchor="middle" x="2447" y="-125" font-family="Helvetica,sans-Serif" font-size="10.00" fill="#000000">AMReX_Box.H</text>
</g>
<!-- Node39&#45;&gt;Node40 -->
<g id="edge74" class="edge">
<title>Node39&#45;&gt;Node40</title>
<path fill="none" stroke="#191970" d="M2447,-184.9005C2447,-175.149 2447,-159.7597 2447,-147.3695"/>
<polygon fill="#191970" stroke="#191970" points="2450.5001,-147.0816 2447,-137.0817 2443.5001,-147.0817 2450.5001,-147.0816"/>
</g>
<!-- Node41 -->
<g id="node42" class="node">
<title>Node41</title>
<polygon fill="#ffffff" stroke="#bfbfbf" points="2507,-118 2507,-137 2621,-137 2621,-118 2507,-118"/>
<text text-anchor="middle" x="2564" y="-125" font-family="Helvetica,sans-Serif" font-size="10.00" fill="#000000">AMReX_Orientation.H</text>
</g>
<!-- Node39&#45;&gt;Node41 -->
<g id="edge75" class="edge">
<title>Node39&#45;&gt;Node41</title>
<path fill="none" stroke="#191970" d="M2463.7632,-184.9005C2483.3116,-173.7062 2515.8339,-155.0823 2538.5137,-142.0947"/>
<polygon fill="#191970" stroke="#191970" points="2540.3293,-145.0883 2547.2678,-137.0817 2536.8507,-139.0138 2540.3293,-145.0883"/>
</g>
<!-- Node44&#45;&gt;Node12 -->
<g id="edge83" class="edge">
<title>Node44&#45;&gt;Node12</title>
<path fill="none" stroke="#191970" d="M2049.7376,-189.8441C2132.6429,-181.6373 2295.2882,-163.5116 2349,-143 2372.3769,-134.0728 2374.1943,-124.2754 2396,-112 2428.5695,-93.6652 2452.0134,-107.5828 2472,-76 2476.7533,-68.4888 2477.569,-62.9281 2472,-56 2462.6757,-44.4003 2383.1476,-29.3006 2324.9496,-19.6263"/>
<polygon fill="#191970" stroke="#191970" points="2325.5165,-16.1726 2315.081,-18.0035 2324.3806,-23.0799 2325.5165,-16.1726"/>
</g>
<!-- Node44&#45;&gt;Node14 -->
<g id="edge82" class="edge">
<title>Node44&#45;&gt;Node14</title>
<path fill="none" stroke="#191970" d="M1950.2339,-180.8122C1947.1208,-180.1466 1944.0244,-179.5344 1941,-179 1767.095,-148.273 1558.9744,-135.1522 1454.6087,-130.173"/>
<polygon fill="#191970" stroke="#191970" points="1454.6854,-126.6728 1444.5329,-129.7023 1454.3586,-133.6652 1454.6854,-126.6728"/>
</g>
</g>
</svg>
