<?xml version="1.0" encoding="UTF-8" standalone="no"?>
<!DOCTYPE svg PUBLIC "-//W3C//DTD SVG 1.1//EN"
 "http://www.w3.org/Graphics/SVG/1.1/DTD/svg11.dtd">
<!-- Generated by graphviz version 2.40.1 (20161225.0304)
 -->
<!-- Title: amr_wind::PostProcessManager Pages: 1 -->
<svg width="2123pt" height="665pt"
 viewBox="0.00 0.00 2123.00 665.00" xmlns="http://www.w3.org/2000/svg" xmlns:xlink="http://www.w3.org/1999/xlink">
<g id="graph0" class="graph" transform="scale(1 1) rotate(0) translate(4 661)">
<title>amr_wind::PostProcessManager</title>
<polygon fill="#ffffff" stroke="transparent" points="-4,4 -4,-661 2119,-661 2119,4 -4,4"/>
<!-- Node1 -->
<g id="node1" class="node">
<title>Node1</title>
<polygon fill="#bfbfbf" stroke="#000000" points="1007,-291.5 1007,-310.5 1165,-310.5 1165,-291.5 1007,-291.5"/>
<text text-anchor="middle" x="1086" y="-298.5" font-family="Helvetica,sans-Serif" font-size="10.00" fill="#000000">amr_wind::PostProcessManager</text>
</g>
<!-- Node18 -->
<g id="node18" class="node">
<title>Node18</title>
<polygon fill="#ffffff" stroke="#bfbfbf" points="1364,-258 1364,-288 1515,-288 1515,-258 1364,-258"/>
<text text-anchor="start" x="1372" y="-276" font-family="Helvetica,sans-Serif" font-size="10.00" fill="#000000">std::unique_ptr&lt; amr</text>
<text text-anchor="middle" x="1439.5" y="-265" font-family="Helvetica,sans-Serif" font-size="10.00" fill="#000000">_wind::PostProcessManager &gt;</text>
</g>
<!-- Node1&#45;&gt;Node18 -->
<g id="edge26" class="edge">
<title>Node1&#45;&gt;Node18</title>
<path fill="none" stroke="#9a32cd" stroke-dasharray="5,2" d="M1175.6123,-293.902C1233.7345,-289.2983 1308.6224,-283.3665 1363.7645,-278.9988"/>
<polygon fill="#9a32cd" stroke="#9a32cd" points="1175.0247,-290.4375 1165.3323,-294.7163 1175.5775,-297.4156 1175.0247,-290.4375"/>
<text text-anchor="middle" x="1264.5" y="-295" font-family="Helvetica,sans-Serif" font-size="10.00" fill="#000000"> ptr</text>
</g>
<!-- Node2 -->
<g id="node2" class="node">
<title>Node2</title>
<g id="a_node2"><a xlink:href="classamr__wind_1_1_c_f_d_sim.html" target="_top" xlink:title="Data structures for a CFD simulationCFDSim represents the amr&#45;wind execution environment and manages ...">
<polygon fill="#ffffff" stroke="#000000" points="1631.5,-315.5 1631.5,-334.5 1734.5,-334.5 1734.5,-315.5 1631.5,-315.5"/>
<text text-anchor="middle" x="1683" y="-322.5" font-family="Helvetica,sans-Serif" font-size="10.00" fill="#000000">amr_wind::CFDSim</text>
</a>
</g>
</g>
<!-- Node2&#45;&gt;Node1 -->
<g id="edge1" class="edge">
<title>Node2&#45;&gt;Node1</title>
<path fill="none" stroke="#9a32cd" stroke-dasharray="5,2" d="M1620.9137,-323.2797C1526.3658,-320.5435 1340.6298,-314.7112 1183,-307 1177.186,-306.7156 1171.1773,-306.3988 1165.132,-306.0637"/>
<polygon fill="#9a32cd" stroke="#9a32cd" points="1621.0595,-326.7852 1631.156,-323.5743 1621.2608,-319.7881 1621.0595,-326.7852"/>
<text text-anchor="middle" x="1439.5" y="-322" font-family="Helvetica,sans-Serif" font-size="10.00" fill="#000000"> m_sim</text>
</g>
<!-- Node4 -->
<g id="node4" class="node">
<title>Node4</title>
<g id="a_node4"><a xlink:href="classamr__wind_1_1_i_o_manager.html" target="_top" xlink:title="Input/Output managerThis class contains infrastructure to output solution fields during the simulatio...">
<polygon fill="#ffffff" stroke="#000000" points="1838.5,-514.5 1838.5,-533.5 1951.5,-533.5 1951.5,-514.5 1838.5,-514.5"/>
<text text-anchor="middle" x="1895" y="-521.5" font-family="Helvetica,sans-Serif" font-size="10.00" fill="#000000">amr_wind::IOManager</text>
</a>
</g>
</g>
<!-- Node2&#45;&gt;Node4 -->
<g id="edge4" class="edge">
<title>Node2&#45;&gt;Node4</title>
<path fill="none" stroke="#9a32cd" stroke-dasharray="5,2" d="M1700.6332,-341.552C1743.3463,-381.6458 1851.3055,-482.9849 1884.8774,-514.4981"/>
<polygon fill="#9a32cd" stroke="#9a32cd" points="1702.9117,-338.8903 1693.2252,-334.5982 1698.1209,-343.9941 1702.9117,-338.8903"/>
<text text-anchor="middle" x="1787.5" y="-451" font-family="Helvetica,sans-Serif" font-size="10.00" fill="#000000"> m_sim</text>
</g>
<!-- Node19 -->
<g id="node19" class="node">
<title>Node19</title>
<g id="a_node19"><a xlink:href="classamr__wind_1_1pde_1_1_p_d_e_mgr.html" target="_top" xlink:title="PDE systems manager. ">
<polygon fill="#ffffff" stroke="#000000" points="1833,-365.5 1833,-384.5 1957,-384.5 1957,-365.5 1833,-365.5"/>
<text text-anchor="middle" x="1895" y="-372.5" font-family="Helvetica,sans-Serif" font-size="10.00" fill="#000000">amr_wind::pde::PDEMgr</text>
</a>
</g>
</g>
<!-- Node2&#45;&gt;Node19 -->
<g id="edge33" class="edge">
<title>Node2&#45;&gt;Node19</title>
<path fill="none" stroke="#9a32cd" stroke-dasharray="5,2" d="M1715.3069,-338.2759C1728.9201,-343.4678 1745.0479,-349.0998 1760,-353 1783.5523,-359.1434 1809.8866,-363.8942 1832.9993,-367.3827"/>
<polygon fill="#9a32cd" stroke="#9a32cd" points="1716.4798,-334.9767 1705.8915,-334.6043 1713.9366,-341.4983 1716.4798,-334.9767"/>
<text text-anchor="middle" x="1787.5" y="-366" font-family="Helvetica,sans-Serif" font-size="10.00" fill="#000000"> m_sim</text>
</g>
<!-- Node3 -->
<g id="node3" class="node">
<title>Node3</title>
<polygon fill="#ffffff" stroke="#bfbfbf" points="2008,-293 2008,-323 2115,-323 2115,-293 2008,-293"/>
<text text-anchor="start" x="2016" y="-311" font-family="Helvetica,sans-Serif" font-size="10.00" fill="#000000">std::unique_ptr&lt; amr</text>
<text text-anchor="middle" x="2061.5" y="-300" font-family="Helvetica,sans-Serif" font-size="10.00" fill="#000000">_wind::IOManager &gt;</text>
</g>
<!-- Node3&#45;&gt;Node2 -->
<g id="edge2" class="edge">
<title>Node3&#45;&gt;Node2</title>
<path fill="none" stroke="#9a32cd" stroke-dasharray="5,2" d="M1997.7346,-310.864C1923.7803,-314.1856 1803.2878,-319.5974 1734.8352,-322.6719"/>
<polygon fill="#9a32cd" stroke="#9a32cd" points="1998.0179,-314.3549 2007.8508,-310.4096 1997.7038,-307.3619 1998.0179,-314.3549"/>
<text text-anchor="middle" x="1895" y="-321" font-family="Helvetica,sans-Serif" font-size="10.00" fill="#000000"> m_io_mgr</text>
</g>
<!-- Node4&#45;&gt;Node3 -->
<g id="edge3" class="edge">
<title>Node4&#45;&gt;Node3</title>
<path fill="none" stroke="#9a32cd" stroke-dasharray="5,2" d="M1908.5935,-506.3653C1940.5222,-464.9442 2019.8623,-362.0165 2049.8081,-323.1679"/>
<polygon fill="#9a32cd" stroke="#9a32cd" points="1905.7022,-504.3831 1902.3691,-514.44 1911.2463,-508.6567 1905.7022,-504.3831"/>
<text text-anchor="middle" x="1982.5" y="-419" font-family="Helvetica,sans-Serif" font-size="10.00" fill="#000000"> ptr</text>
</g>
<!-- Node5 -->
<g id="node5" class="node">
<title>Node5</title>
<polygon fill="#ffffff" stroke="#bfbfbf" points="1378,-473 1378,-503 1501,-503 1501,-473 1378,-473"/>
<text text-anchor="start" x="1386" y="-491" font-family="Helvetica,sans-Serif" font-size="10.00" fill="#000000">std::unique_ptr&lt; amr</text>
<text text-anchor="middle" x="1439.5" y="-480" font-family="Helvetica,sans-Serif" font-size="10.00" fill="#000000">_wind::DerivedQtyMgr &gt;</text>
</g>
<!-- Node5&#45;&gt;Node4 -->
<g id="edge5" class="edge">
<title>Node5&#45;&gt;Node4</title>
<path fill="none" stroke="#9a32cd" stroke-dasharray="5,2" d="M1511.5848,-493.6972C1602.1248,-500.8529 1755.6023,-512.9828 1838.2522,-519.515"/>
<polygon fill="#9a32cd" stroke="#9a32cd" points="1511.6495,-490.1914 1501.4048,-492.8926 1511.0979,-497.1697 1511.6495,-490.1914"/>
<text text-anchor="middle" x="1683" y="-514" font-family="Helvetica,sans-Serif" font-size="10.00" fill="#000000"> m_derived_mgr</text>
</g>
<!-- Node6 -->
<g id="node6" class="node">
<title>Node6</title>
<g id="a_node6"><a xlink:href="classamr__wind_1_1_derived_qty_mgr.html" target="_top" xlink:title="amr_wind::DerivedQtyMgr">
<polygon fill="#ffffff" stroke="#000000" points="1020.5,-478.5 1020.5,-497.5 1151.5,-497.5 1151.5,-478.5 1020.5,-478.5"/>
<text text-anchor="middle" x="1086" y="-485.5" font-family="Helvetica,sans-Serif" font-size="10.00" fill="#000000">amr_wind::DerivedQtyMgr</text>
</a>
</g>
</g>
<!-- Node6&#45;&gt;Node5 -->
<g id="edge6" class="edge">
<title>Node6&#45;&gt;Node5</title>
<path fill="none" stroke="#9a32cd" stroke-dasharray="5,2" d="M1161.767,-488C1226.226,-488 1317.6504,-488 1377.7418,-488"/>
<polygon fill="#9a32cd" stroke="#9a32cd" points="1161.6622,-484.5001 1151.6622,-488 1161.6621,-491.5001 1161.6622,-484.5001"/>
<text text-anchor="middle" x="1264.5" y="-491" font-family="Helvetica,sans-Serif" font-size="10.00" fill="#000000"> ptr</text>
</g>
<!-- Node7 -->
<g id="node7" class="node">
<title>Node7</title>
<polygon fill="#ffffff" stroke="#bfbfbf" points="414,-395 414,-425 517,-425 517,-395 414,-395"/>
<text text-anchor="start" x="422" y="-413" font-family="Helvetica,sans-Serif" font-size="10.00" fill="#000000">std::unordered_map</text>
<text text-anchor="middle" x="465.5" y="-402" font-family="Helvetica,sans-Serif" font-size="10.00" fill="#000000">&lt; std::string, int &gt;</text>
</g>
<!-- Node7&#45;&gt;Node6 -->
<g id="edge7" class="edge">
<title>Node7&#45;&gt;Node6</title>
<path fill="none" stroke="#9a32cd" stroke-dasharray="5,2" d="M527.2099,-419.3578C531.1982,-419.9248 535.1546,-420.4768 539,-421 712.4871,-444.6026 917.4597,-468.698 1020.2512,-480.5206"/>
<polygon fill="#9a32cd" stroke="#9a32cd" points="527.6727,-415.8884 517.2756,-417.9257 526.6739,-422.8168 527.6727,-415.8884"/>
<text text-anchor="middle" x="779" y="-463" font-family="Helvetica,sans-Serif" font-size="10.00" fill="#000000"> m_obj_map</text>
</g>
<!-- Node20 -->
<g id="node20" class="node">
<title>Node20</title>
<g id="a_node20"><a xlink:href="classamr__wind_1_1_coll_mgr.html" target="_top" xlink:title="amr_wind::CollMgr\&lt;\l PDEMgr, PDEBase \&gt;">
<polygon fill="#ffffff" stroke="#000000" points="1028,-383 1028,-413 1144,-413 1144,-383 1028,-383"/>
<text text-anchor="start" x="1036" y="-401" font-family="Helvetica,sans-Serif" font-size="10.00" fill="#000000">amr_wind::CollMgr&lt;</text>
<text text-anchor="middle" x="1086" y="-390" font-family="Helvetica,sans-Serif" font-size="10.00" fill="#000000"> PDEMgr, PDEBase &gt;</text>
</a>
</g>
</g>
<!-- Node7&#45;&gt;Node20 -->
<g id="edge30" class="edge">
<title>Node7&#45;&gt;Node20</title>
<path fill="none" stroke="#9a32cd" stroke-dasharray="5,2" d="M527.1983,-408.8068C647.2888,-406.4843 910.9044,-401.3862 1027.9889,-399.1219"/>
<polygon fill="#9a32cd" stroke="#9a32cd" points="527.0013,-405.3099 517.0708,-409.0027 527.1367,-412.3086 527.0013,-405.3099"/>
<text text-anchor="middle" x="779" y="-408" font-family="Helvetica,sans-Serif" font-size="10.00" fill="#000000"> m_obj_map</text>
</g>
<!-- Node21 -->
<g id="node21" class="node">
<title>Node21</title>
<g id="a_node21"><a xlink:href="classamr__wind_1_1_coll_mgr.html" target="_top" xlink:title="Interface to manage objects of sub&#45;classes based on factory registrationProvides boiler&#45;plate code to...">
<polygon fill="#ffffff" stroke="#000000" points="719.5,-334.5 719.5,-375.5 838.5,-375.5 838.5,-334.5 719.5,-334.5"/>
<text text-anchor="start" x="727.5" y="-363.5" font-family="Helvetica,sans-Serif" font-size="10.00" fill="#000000">amr_wind::CollMgr&lt;</text>
<text text-anchor="start" x="727.5" y="-352.5" font-family="Helvetica,sans-Serif" font-size="10.00" fill="#000000"> Collection, Type, allow</text>
<text text-anchor="middle" x="779" y="-341.5" font-family="Helvetica,sans-Serif" font-size="10.00" fill="#000000">_duplicates &gt;</text>
</a>
</g>
</g>
<!-- Node7&#45;&gt;Node21 -->
<g id="edge32" class="edge">
<title>Node7&#45;&gt;Node21</title>
<path fill="none" stroke="#9a32cd" stroke-dasharray="5,2" d="M519.1172,-392.0651C525.7678,-390.1836 532.5095,-388.4372 539,-387 599.7411,-373.5502 670.4652,-364.9564 719.328,-360.0992"/>
<polygon fill="#9a32cd" stroke="#9a32cd" points="518.0857,-388.7201 509.4784,-394.8978 520.0595,-395.4361 518.0857,-388.7201"/>
<text text-anchor="middle" x="611.5" y="-390" font-family="Helvetica,sans-Serif" font-size="10.00" fill="#000000"> m_obj_map</text>
</g>
<!-- Node34 -->
<g id="node34" class="node">
<title>Node34</title>
<g id="a_node34"><a xlink:href="classamr__wind_1_1_coll_mgr.html" target="_top" xlink:title="amr_wind::CollMgr\&lt;\l PhysicsMgr, Physics \&gt;">
<polygon fill="#ffffff" stroke="#000000" points="1025,-334 1025,-364 1147,-364 1147,-334 1025,-334"/>
<text text-anchor="start" x="1033" y="-352" font-family="Helvetica,sans-Serif" font-size="10.00" fill="#000000">amr_wind::CollMgr&lt;</text>
<text text-anchor="middle" x="1086" y="-341" font-family="Helvetica,sans-Serif" font-size="10.00" fill="#000000"> PhysicsMgr, Physics &gt;</text>
</a>
</g>
</g>
<!-- Node7&#45;&gt;Node34 -->
<g id="edge54" class="edge">
<title>Node7&#45;&gt;Node34</title>
<path fill="none" stroke="#9a32cd" stroke-dasharray="5,2" d="M492.3965,-388.6094C505.7879,-378.7864 522.5915,-367.6489 539,-360 607.2253,-328.1962 627.4368,-324.3197 702,-314 815.5575,-298.2835 949.0228,-319.256 1024.9459,-334.8646"/>
<polygon fill="#9a32cd" stroke="#9a32cd" points="490.0183,-386.0184 484.1276,-394.8247 494.2243,-391.614 490.0183,-386.0184"/>
<text text-anchor="middle" x="779" y="-317" font-family="Helvetica,sans-Serif" font-size="10.00" fill="#000000"> m_obj_map</text>
</g>
<!-- Node8 -->
<g id="node8" class="node">
<title>Node8</title>
<g id="a_node8"><a xlink:title="STL class. ">
<polygon fill="#ffffff" stroke="#bfbfbf" points="195.5,-526.5 195.5,-545.5 255.5,-545.5 255.5,-526.5 195.5,-526.5"/>
<text text-anchor="middle" x="225.5" y="-533.5" font-family="Helvetica,sans-Serif" font-size="10.00" fill="#000000">std::string</text>
</a>
</g>
</g>
<!-- Node8&#45;&gt;Node4 -->
<g id="edge23" class="edge">
<title>Node8&#45;&gt;Node4</title>
<path fill="none" stroke="#9a32cd" stroke-dasharray="5,2" d="M246.5821,-551.4639C259.897,-560.6027 277.7824,-571.7653 295,-579 366.9493,-609.2327 387.457,-621 465.5,-621 465.5,-621 465.5,-621 1683,-621 1766.379,-621 1852.8446,-558.1904 1883.4395,-533.6554"/>
<polygon fill="#9a32cd" stroke="#9a32cd" points="248.3503,-548.4284 238.1586,-545.5335 244.3206,-554.1521 248.3503,-548.4284"/>
<text text-anchor="middle" x="1086" y="-646" font-family="Helvetica,sans-Serif" font-size="10.00" fill="#000000"> m_chk_prefix</text>
<text text-anchor="middle" x="1086" y="-635" font-family="Helvetica,sans-Serif" font-size="10.00" fill="#000000">m_plt_prefix</text>
<text text-anchor="middle" x="1086" y="-624" font-family="Helvetica,sans-Serif" font-size="10.00" fill="#000000">m_restart_file</text>
</g>
<!-- Node8&#45;&gt;Node7 -->
<g id="edge8" class="edge">
<title>Node8&#45;&gt;Node7</title>
<path fill="none" stroke="#9a32cd" stroke-dasharray="5,2" d="M242.4014,-519.4207C255.7029,-507.2119 275.2369,-491.0506 295,-481 334.8883,-460.7147 350.878,-471.6508 392,-454 410.313,-446.1395 429.5926,-434.4526 443.8094,-425.0986"/>
<polygon fill="#9a32cd" stroke="#9a32cd" points="239.8518,-517.0142 234.9784,-526.4217 244.6547,-522.1066 239.8518,-517.0142"/>
<text text-anchor="middle" x="343.5" y="-484" font-family="Helvetica,sans-Serif" font-size="10.00" fill="#000000"> keys</text>
</g>
<!-- Node14 -->
<g id="node14" class="node">
<title>Node14</title>
<polygon fill="#ffffff" stroke="#bfbfbf" points="410.5,-477 410.5,-507 520.5,-507 520.5,-477 410.5,-477"/>
<text text-anchor="start" x="418.5" y="-495" font-family="Helvetica,sans-Serif" font-size="10.00" fill="#000000">std::unordered_map</text>
<text text-anchor="middle" x="465.5" y="-484" font-family="Helvetica,sans-Serif" font-size="10.00" fill="#000000">&lt; std::string, size_t &gt;</text>
</g>
<!-- Node8&#45;&gt;Node14 -->
<g id="edge15" class="edge">
<title>Node8&#45;&gt;Node14</title>
<path fill="none" stroke="#9a32cd" stroke-dasharray="5,2" d="M257.2838,-522.7964C268.9638,-518.4188 282.4118,-513.9228 295,-511 333.006,-502.1757 376.7617,-497.4072 410.4305,-494.8544"/>
<polygon fill="#9a32cd" stroke="#9a32cd" points="256.0099,-519.5364 247.9462,-526.4087 258.5355,-526.0649 256.0099,-519.5364"/>
<text text-anchor="middle" x="343.5" y="-514" font-family="Helvetica,sans-Serif" font-size="10.00" fill="#000000"> keys</text>
</g>
<!-- Node16 -->
<g id="node16" class="node">
<title>Node16</title>
<polygon fill="#ffffff" stroke="#bfbfbf" points="410,-564.5 410,-583.5 521,-583.5 521,-564.5 410,-564.5"/>
<text text-anchor="middle" x="465.5" y="-571.5" font-family="Helvetica,sans-Serif" font-size="10.00" fill="#000000">std::set&lt; std::string &gt;</text>
</g>
<!-- Node8&#45;&gt;Node16 -->
<g id="edge20" class="edge">
<title>Node8&#45;&gt;Node16</title>
<path fill="none" stroke="#9a32cd" stroke-dasharray="5,2" d="M265.3323,-544.4431C275.02,-546.3805 285.3652,-548.353 295,-550 333.1573,-556.5229 376.34,-562.5879 409.6996,-566.9891"/>
<polygon fill="#9a32cd" stroke="#9a32cd" points="266.0288,-541.0132 255.5321,-542.4519 264.6349,-547.873 266.0288,-541.0132"/>
<text text-anchor="middle" x="343.5" y="-567" font-family="Helvetica,sans-Serif" font-size="10.00" fill="#000000"> keys</text>
</g>
<!-- Node8&#45;&gt;Node19 -->
<g id="edge34" class="edge">
<title>Node8&#45;&gt;Node19</title>
<path fill="none" stroke="#9a32cd" stroke-dasharray="5,2" d="M265.8224,-537.0643C456.2858,-541.8191 1266.9137,-558.9369 1515,-513 1659.2407,-486.2916 1821.2407,-411.2134 1875.8632,-384.5458"/>
<polygon fill="#9a32cd" stroke="#9a32cd" points="265.7782,-533.5621 255.6929,-536.8084 265.6013,-540.5599 265.7782,-533.5621"/>
<text text-anchor="middle" x="1086" y="-545" font-family="Helvetica,sans-Serif" font-size="10.00" fill="#000000"> m_scheme</text>
</g>
<!-- Node9 -->
<g id="node9" class="node">
<title>Node9</title>
<g id="a_node9"><a xlink:title="STL class. ">
<polygon fill="#ffffff" stroke="#bfbfbf" points="0,-521 0,-551 95,-551 95,-521 0,-521"/>
<text text-anchor="start" x="8" y="-539" font-family="Helvetica,sans-Serif" font-size="10.00" fill="#000000">std::basic_string&lt;</text>
<text text-anchor="middle" x="47.5" y="-528" font-family="Helvetica,sans-Serif" font-size="10.00" fill="#000000"> char &gt;</text>
</a>
</g>
</g>
<!-- Node9&#45;&gt;Node8 -->
<g id="edge9" class="edge">
<title>Node9&#45;&gt;Node8</title>
<path fill="none" stroke="#191970" d="M105.5446,-536C135.493,-536 170.7833,-536 195.3,-536"/>
<polygon fill="#191970" stroke="#191970" points="105.2008,-532.5001 95.2007,-536 105.2007,-539.5001 105.2008,-532.5001"/>
</g>
<!-- Node10 -->
<g id="node10" class="node">
<title>Node10</title>
<g id="a_node10"><a xlink:title="STL class. ">
<polygon fill="#ffffff" stroke="#bfbfbf" points="174,-410 174,-440 277,-440 277,-410 174,-410"/>
<text text-anchor="start" x="182" y="-428" font-family="Helvetica,sans-Serif" font-size="10.00" fill="#000000">std::unordered_map</text>
<text text-anchor="middle" x="225.5" y="-417" font-family="Helvetica,sans-Serif" font-size="10.00" fill="#000000">&lt; K, T &gt;</text>
</a>
</g>
</g>
<!-- Node10&#45;&gt;Node7 -->
<g id="edge10" class="edge">
<title>Node10&#45;&gt;Node7</title>
<path fill="none" stroke="#ffa500" stroke-dasharray="5,2" d="M287.308,-410.0224C289.8986,-409.6319 292.4703,-409.2874 295,-409 334.7061,-404.4885 379.9493,-405.0133 413.8477,-406.5173"/>
<polygon fill="#ffa500" stroke="#ffa500" points="286.5402,-406.6027 277.2706,-411.7336 287.7166,-413.5032 286.5402,-406.6027"/>
<text text-anchor="middle" x="343.5" y="-412" font-family="Helvetica,sans-Serif" font-size="10.00" fill="#000000"> &lt; std::string, int &gt;</text>
</g>
<!-- Node10&#45;&gt;Node14 -->
<g id="edge16" class="edge">
<title>Node10&#45;&gt;Node14</title>
<path fill="none" stroke="#ffa500" stroke-dasharray="5,2" d="M287.3345,-424.7009C319.3945,-426.2681 358.7035,-430.927 392,-443 413.0497,-450.6324 433.9959,-465.4967 448.1102,-476.8614"/>
<polygon fill="#ffa500" stroke="#ffa500" points="287.3288,-421.198 277.1969,-424.2953 287.0489,-428.1924 287.3288,-421.198"/>
<text text-anchor="middle" x="343.5" y="-446" font-family="Helvetica,sans-Serif" font-size="10.00" fill="#000000"> &lt; std::string, size_t &gt;</text>
</g>
<!-- Node11 -->
<g id="node11" class="node">
<title>Node11</title>
<polygon fill="#ffffff" stroke="#bfbfbf" points="33,-581.5 33,-600.5 62,-600.5 62,-581.5 33,-581.5"/>
<text text-anchor="middle" x="47.5" y="-588.5" font-family="Helvetica,sans-Serif" font-size="10.00" fill="#000000">K</text>
</g>
<!-- Node11&#45;&gt;Node10 -->
<g id="edge11" class="edge">
<title>Node11&#45;&gt;Node10</title>
<path fill="none" stroke="#9a32cd" stroke-dasharray="5,2" d="M71.046,-577.6938C78.9438,-572.8285 87.6146,-567.0296 95,-561 142.9077,-521.8871 191.2069,-466.3988 213.207,-440.0332"/>
<polygon fill="#9a32cd" stroke="#9a32cd" points="69.0513,-574.8081 62.2531,-582.9343 72.6351,-580.8212 69.0513,-574.8081"/>
<text text-anchor="middle" x="134.5" y="-547" font-family="Helvetica,sans-Serif" font-size="10.00" fill="#000000"> keys</text>
</g>
<!-- Node17 -->
<g id="node17" class="node">
<title>Node17</title>
<g id="a_node17"><a xlink:title="STL class. ">
<polygon fill="#ffffff" stroke="#bfbfbf" points="188.5,-637.5 188.5,-656.5 262.5,-656.5 262.5,-637.5 188.5,-637.5"/>
<text text-anchor="middle" x="225.5" y="-644.5" font-family="Helvetica,sans-Serif" font-size="10.00" fill="#000000">std::set&lt; K &gt;</text>
</a>
</g>
</g>
<!-- Node11&#45;&gt;Node17 -->
<g id="edge22" class="edge">
<title>Node11&#45;&gt;Node17</title>
<path fill="none" stroke="#9a32cd" stroke-dasharray="5,2" d="M71.9569,-598.6943C104.0551,-608.7926 160.3854,-626.5145 195.1645,-637.4562"/>
<polygon fill="#9a32cd" stroke="#9a32cd" points="72.6559,-595.2452 62.0665,-595.5827 70.5552,-601.9225 72.6559,-595.2452"/>
<text text-anchor="middle" x="134.5" y="-627" font-family="Helvetica,sans-Serif" font-size="10.00" fill="#000000"> keys</text>
</g>
<!-- Node12 -->
<g id="node12" class="node">
<title>Node12</title>
<polygon fill="#ffffff" stroke="#bfbfbf" points="33,-282.5 33,-301.5 62,-301.5 62,-282.5 33,-282.5"/>
<text text-anchor="middle" x="47.5" y="-289.5" font-family="Helvetica,sans-Serif" font-size="10.00" fill="#000000">T</text>
</g>
<!-- Node12&#45;&gt;Node10 -->
<g id="edge12" class="edge">
<title>Node12&#45;&gt;Node10</title>
<path fill="none" stroke="#9a32cd" stroke-dasharray="5,2" d="M68.7107,-307.8485C103.2421,-333.65 171.1629,-384.3998 205.1381,-409.7857"/>
<polygon fill="#9a32cd" stroke="#9a32cd" points="70.4071,-304.7469 60.3013,-301.565 66.2172,-310.3544 70.4071,-304.7469"/>
<text text-anchor="middle" x="134.5" y="-373" font-family="Helvetica,sans-Serif" font-size="10.00" fill="#000000"> elements</text>
</g>
<!-- Node15 -->
<g id="node15" class="node">
<title>Node15</title>
<g id="a_node15"><a xlink:title="STL class. ">
<polygon fill="#ffffff" stroke="#bfbfbf" points="1033.5,-215.5 1033.5,-234.5 1138.5,-234.5 1138.5,-215.5 1033.5,-215.5"/>
<text text-anchor="middle" x="1086" y="-222.5" font-family="Helvetica,sans-Serif" font-size="10.00" fill="#000000">std::unique_ptr&lt; T &gt;</text>
</a>
</g>
</g>
<!-- Node12&#45;&gt;Node15 -->
<g id="edge18" class="edge">
<title>Node12&#45;&gt;Node15</title>
<path fill="none" stroke="#9a32cd" stroke-dasharray="5,2" d="M71.8203,-280.5838C105.5443,-265.8262 168.7754,-242 225.5,-242 225.5,-242 225.5,-242 779,-242 868.4119,-242 972.248,-234.7222 1033.3553,-229.6903"/>
<polygon fill="#9a32cd" stroke="#9a32cd" points="70.0327,-277.5496 62.3414,-284.8362 72.898,-283.9364 70.0327,-277.5496"/>
<text text-anchor="middle" x="465.5" y="-245" font-family="Helvetica,sans-Serif" font-size="10.00" fill="#000000"> ptr</text>
</g>
<!-- Node13 -->
<g id="node13" class="node">
<title>Node13</title>
<g id="a_node13"><a xlink:href="classamr__wind_1_1_field_repo.html" target="_top" xlink:title="Field RepositoryFieldRepo is a database that manages handling of fields used during a simulation...">
<polygon fill="#ffffff" stroke="#000000" points="724.5,-488.5 724.5,-507.5 833.5,-507.5 833.5,-488.5 724.5,-488.5"/>
<text text-anchor="middle" x="779" y="-495.5" font-family="Helvetica,sans-Serif" font-size="10.00" fill="#000000">amr_wind::FieldRepo</text>
</a>
</g>
</g>
<!-- Node13&#45;&gt;Node2 -->
<g id="edge51" class="edge">
<title>Node13&#45;&gt;Node2</title>
<path fill="none" stroke="#9a32cd" stroke-dasharray="5,2" d="M843.5674,-489.7421C970.9379,-473.349 1250.4852,-436.8313 1346,-420 1462.4119,-399.4863 1494.5804,-403.4742 1606,-364 1628.0345,-356.1935 1651.8075,-343.419 1667.0179,-334.6301"/>
<polygon fill="#9a32cd" stroke="#9a32cd" points="843.0328,-486.282 833.5609,-491.0289 843.9256,-493.2248 843.0328,-486.282"/>
<text text-anchor="middle" x="1264.5" y="-447" font-family="Helvetica,sans-Serif" font-size="10.00" fill="#000000"> m_repo</text>
</g>
<!-- Node13&#45;&gt;Node6 -->
<g id="edge13" class="edge">
<title>Node13&#45;&gt;Node6</title>
<path fill="none" stroke="#9a32cd" stroke-dasharray="5,2" d="M843.6206,-495.8951C895.5036,-494.2051 968.0539,-491.8419 1020.2372,-490.1421"/>
<polygon fill="#9a32cd" stroke="#9a32cd" points="843.4124,-492.3999 833.5317,-496.2237 843.6404,-499.3962 843.4124,-492.3999"/>
<text text-anchor="middle" x="931.5" y="-497" font-family="Helvetica,sans-Serif" font-size="10.00" fill="#000000"> m_repo</text>
</g>
<!-- Node14&#45;&gt;Node13 -->
<g id="edge14" class="edge">
<title>Node14&#45;&gt;Node13</title>
<path fill="none" stroke="#9a32cd" stroke-dasharray="5,2" d="M530.8724,-493.2511C588.218,-494.3487 670.6343,-495.926 724.4897,-496.9567"/>
<polygon fill="#9a32cd" stroke="#9a32cd" points="530.891,-489.751 520.8259,-493.0589 530.757,-496.7497 530.891,-489.751"/>
<text text-anchor="middle" x="611.5" y="-510" font-family="Helvetica,sans-Serif" font-size="10.00" fill="#000000"> m_fid_map</text>
<text text-anchor="middle" x="611.5" y="-499" font-family="Helvetica,sans-Serif" font-size="10.00" fill="#000000">m_int_fid_map</text>
</g>
<!-- Node15&#45;&gt;Node3 -->
<g id="edge24" class="edge">
<title>Node15&#45;&gt;Node3</title>
<path fill="none" stroke="#ffa500" stroke-dasharray="5,2" d="M1111.4053,-209.5895C1129.3069,-197.3425 1152.2727,-178.5535 1165,-156 1187.6239,-115.9092 1149.0316,-85.0687 1183,-54 1225.2147,-15.3889 1382.2907,-32 1439.5,-32 1439.5,-32 1439.5,-32 1895,-32 2017.8333,-32 2052.4329,-234.9075 2059.8021,-292.7679"/>
<polygon fill="#ffa500" stroke="#ffa500" points="1109.0227,-206.967 1102.5866,-215.3829 1112.8662,-212.8175 1109.0227,-206.967"/>
<text text-anchor="middle" x="1683" y="-35" font-family="Helvetica,sans-Serif" font-size="10.00" fill="#000000"> &lt; amr_wind::IOManager &gt;</text>
</g>
<!-- Node15&#45;&gt;Node5 -->
<g id="edge17" class="edge">
<title>Node15&#45;&gt;Node5</title>
<path fill="none" stroke="#ffa500" stroke-dasharray="5,2" d="M1110.838,-239.9455C1127.2487,-250.5054 1148.6617,-265.6453 1165,-282 1174.6765,-291.6862 1173.0098,-297.6377 1183,-307 1245.3569,-365.4374 1276.9638,-358.6283 1346,-409 1374.3258,-429.6677 1404.9797,-456.5116 1423.1935,-472.9845"/>
<polygon fill="#ffa500" stroke="#ffa500" points="1112.6271,-236.9361 1102.2995,-234.5714 1108.8984,-242.8603 1112.6271,-236.9361"/>
<text text-anchor="middle" x="1264.5" y="-412" font-family="Helvetica,sans-Serif" font-size="10.00" fill="#000000"> &lt; amr_wind::DerivedQtyMgr &gt;</text>
</g>
<!-- Node15&#45;&gt;Node18 -->
<g id="edge27" class="edge">
<title>Node15&#45;&gt;Node18</title>
<path fill="none" stroke="#ffa500" stroke-dasharray="5,2" d="M1148.5332,-234.1338C1159.9947,-235.7771 1171.8546,-237.4571 1183,-239 1243.8488,-247.4237 1312.881,-256.5497 1363.9907,-263.224"/>
<polygon fill="#ffa500" stroke="#ffa500" points="1148.988,-230.6633 1138.5915,-232.7035 1147.9912,-237.5919 1148.988,-230.6633"/>
<text text-anchor="middle" x="1264.5" y="-263" font-family="Helvetica,sans-Serif" font-size="10.00" fill="#000000"> &lt; amr_wind::PostProcessManager &gt;</text>
</g>
<!-- Node22 -->
<g id="node22" class="node">
<title>Node22</title>
<polygon fill="#ffffff" stroke="#bfbfbf" points="1378.5,-61 1378.5,-91 1500.5,-91 1500.5,-61 1378.5,-61"/>
<text text-anchor="start" x="1386.5" y="-79" font-family="Helvetica,sans-Serif" font-size="10.00" fill="#000000">std::unique_ptr&lt; amr</text>
<text text-anchor="middle" x="1439.5" y="-68" font-family="Helvetica,sans-Serif" font-size="10.00" fill="#000000">_wind::pde::PDEBase &gt;</text>
</g>
<!-- Node15&#45;&gt;Node22 -->
<g id="edge39" class="edge">
<title>Node15&#45;&gt;Node22</title>
<path fill="none" stroke="#ffa500" stroke-dasharray="5,2" d="M1109.0006,-209.3143C1126.2614,-196.5911 1149.4929,-177.3187 1165,-156 1176.9464,-139.5766 1166.9072,-126.3881 1183,-114 1212.0123,-91.6666 1309.7843,-95.3775 1346,-90 1356.472,-88.4451 1367.6024,-86.7849 1378.3949,-85.1714"/>
<polygon fill="#ffa500" stroke="#ffa500" points="1106.6765,-206.674 1100.591,-215.3469 1110.7567,-212.3619 1106.6765,-206.674"/>
<text text-anchor="middle" x="1264.5" y="-117" font-family="Helvetica,sans-Serif" font-size="10.00" fill="#000000"> &lt; amr_wind::pde::PDEBase &gt;</text>
</g>
<!-- Node27 -->
<g id="node27" class="node">
<title>Node27</title>
<polygon fill="#ffffff" stroke="#bfbfbf" points="1375,-209 1375,-239 1504,-239 1504,-209 1375,-209"/>
<text text-anchor="start" x="1383" y="-227" font-family="Helvetica,sans-Serif" font-size="10.00" fill="#000000">std::unique_ptr&lt; amr</text>
<text text-anchor="middle" x="1439.5" y="-216" font-family="Helvetica,sans-Serif" font-size="10.00" fill="#000000">_wind::OversetManager &gt;</text>
</g>
<!-- Node15&#45;&gt;Node27 -->
<g id="edge45" class="edge">
<title>Node15&#45;&gt;Node27</title>
<path fill="none" stroke="#ffa500" stroke-dasharray="5,2" d="M1148.8491,-224.8222C1212.5566,-224.642 1310.6545,-224.3645 1374.9618,-224.1826"/>
<polygon fill="#ffa500" stroke="#ffa500" points="1148.5308,-221.323 1138.5408,-224.8514 1148.5507,-228.323 1148.5308,-221.323"/>
<text text-anchor="middle" x="1264.5" y="-227" font-family="Helvetica,sans-Serif" font-size="10.00" fill="#000000"> &lt; amr_wind::OversetManager &gt;</text>
</g>
<!-- Node30 -->
<g id="node30" class="node">
<title>Node30</title>
<polygon fill="#ffffff" stroke="#bfbfbf" points="1366,-110.5 1366,-151.5 1513,-151.5 1513,-110.5 1366,-110.5"/>
<text text-anchor="start" x="1374" y="-139.5" font-family="Helvetica,sans-Serif" font-size="10.00" fill="#000000">std::unique_ptr&lt; amr</text>
<text text-anchor="start" x="1374" y="-128.5" font-family="Helvetica,sans-Serif" font-size="10.00" fill="#000000">_wind::turbulence::Turbulence</text>
<text text-anchor="middle" x="1439.5" y="-117.5" font-family="Helvetica,sans-Serif" font-size="10.00" fill="#000000">Model &gt;</text>
</g>
<!-- Node15&#45;&gt;Node30 -->
<g id="edge50" class="edge">
<title>Node15&#45;&gt;Node30</title>
<path fill="none" stroke="#ffa500" stroke-dasharray="5,2" d="M1129.2147,-212.6638C1145.979,-207.959 1165.3549,-202.6196 1183,-198 1255.1618,-179.1075 1273.9302,-177.2403 1346,-158 1353.6724,-155.9517 1361.6791,-153.7455 1369.6388,-151.5083"/>
<polygon fill="#ffa500" stroke="#ffa500" points="1127.8287,-209.418 1119.1529,-215.4992 1129.7274,-216.1556 1127.8287,-209.418"/>
<text text-anchor="start" x="1211.5" y="-212" font-family="Helvetica,sans-Serif" font-size="10.00" fill="#000000"> &lt; amr_wind::turbulence</text>
<text text-anchor="middle" x="1264.5" y="-201" font-family="Helvetica,sans-Serif" font-size="10.00" fill="#000000">::TurbulenceModel &gt;</text>
</g>
<!-- Node16&#45;&gt;Node4 -->
<g id="edge19" class="edge">
<title>Node16&#45;&gt;Node4</title>
<path fill="none" stroke="#9a32cd" stroke-dasharray="5,2" d="M531.099,-574.038C705.9314,-573.8198 1197.6008,-571.1174 1606,-549 1686.8368,-544.6222 1780.1054,-535.8849 1838.3196,-529.9892"/>
<polygon fill="#9a32cd" stroke="#9a32cd" points="531.0276,-570.538 521.0312,-574.0483 531.0348,-577.538 531.0276,-570.538"/>
<text text-anchor="middle" x="1264.5" y="-590" font-family="Helvetica,sans-Serif" font-size="10.00" fill="#000000"> m_int_pltvars_default</text>
<text text-anchor="middle" x="1264.5" y="-579" font-family="Helvetica,sans-Serif" font-size="10.00" fill="#000000">m_chkvars</text>
<text text-anchor="middle" x="1264.5" y="-568" font-family="Helvetica,sans-Serif" font-size="10.00" fill="#000000">m_pltvars_default</text>
</g>
<!-- Node17&#45;&gt;Node16 -->
<g id="edge21" class="edge">
<title>Node17&#45;&gt;Node16</title>
<path fill="none" stroke="#ffa500" stroke-dasharray="5,2" d="M266.5353,-634.5184C314.0201,-620.0751 391.171,-596.6084 434.1165,-583.5458"/>
<polygon fill="#ffa500" stroke="#ffa500" points="265.4245,-631.1979 256.8758,-637.4565 267.4616,-637.895 265.4245,-631.1979"/>
<text text-anchor="middle" x="343.5" y="-628" font-family="Helvetica,sans-Serif" font-size="10.00" fill="#000000"> &lt; std::string &gt;</text>
</g>
<!-- Node18&#45;&gt;Node2 -->
<g id="edge25" class="edge">
<title>Node18&#45;&gt;Node2</title>
<path fill="none" stroke="#9a32cd" stroke-dasharray="5,2" d="M1525.6219,-284.3913C1551.6172,-288.5194 1580.1188,-293.7391 1606,-300 1623.2128,-304.164 1642.1349,-310.2852 1656.9139,-315.4284"/>
<polygon fill="#9a32cd" stroke="#9a32cd" points="1525.8332,-280.8822 1515.4143,-282.8051 1524.7583,-287.7992 1525.8332,-280.8822"/>
<text text-anchor="middle" x="1569.5" y="-303" font-family="Helvetica,sans-Serif" font-size="10.00" fill="#000000"> m_post_mgr</text>
</g>
<!-- Node19&#45;&gt;Node2 -->
<g id="edge28" class="edge">
<title>Node19&#45;&gt;Node2</title>
<path fill="none" stroke="#9a32cd" stroke-dasharray="5,2" d="M1866.5308,-361.1098C1851.5294,-354.3464 1832.6288,-346.6832 1815,-342 1788.984,-335.0887 1759.3099,-330.9471 1734.695,-328.4857"/>
<polygon fill="#9a32cd" stroke="#9a32cd" points="1865.2276,-364.3632 1875.7732,-365.384 1868.1659,-358.0097 1865.2276,-364.3632"/>
<text text-anchor="middle" x="1787.5" y="-345" font-family="Helvetica,sans-Serif" font-size="10.00" fill="#000000"> m_pde_mgr</text>
</g>
<!-- Node20&#45;&gt;Node19 -->
<g id="edge29" class="edge">
<title>Node20&#45;&gt;Node19</title>
<path fill="none" stroke="#191970" d="M1154.2823,-397.6723C1206.727,-397.3091 1280.9508,-396.554 1346,-395 1522.6331,-390.7804 1731.112,-382.1948 1832.8544,-377.7715"/>
<polygon fill="#191970" stroke="#191970" points="1154.0695,-394.1735 1144.093,-397.7398 1154.116,-401.1734 1154.0695,-394.1735"/>
</g>
<!-- Node21&#45;&gt;Node20 -->
<g id="edge31" class="edge">
<title>Node21&#45;&gt;Node20</title>
<path fill="none" stroke="#ffa500" stroke-dasharray="5,2" d="M848.7585,-364.7707C902.8723,-372.3502 976.9955,-382.7323 1027.9106,-389.8637"/>
<polygon fill="#ffa500" stroke="#ffa500" points="848.9455,-361.2628 838.5567,-363.3418 847.9745,-368.1952 848.9455,-361.2628"/>
<text text-anchor="middle" x="931.5" y="-387" font-family="Helvetica,sans-Serif" font-size="10.00" fill="#000000"> &lt; PDEMgr, PDEBase &gt;</text>
</g>
<!-- Node21&#45;&gt;Node34 -->
<g id="edge55" class="edge">
<title>Node21&#45;&gt;Node34</title>
<path fill="none" stroke="#ffa500" stroke-dasharray="5,2" d="M848.5446,-352.6643C857.1174,-352.4175 865.7592,-352.1884 874,-352 924.7835,-350.8389 982.4208,-350.0579 1024.7655,-349.5845"/>
<polygon fill="#ffa500" stroke="#ffa500" points="848.4329,-349.1659 838.541,-352.9607 848.6403,-356.1629 848.4329,-349.1659"/>
<text text-anchor="middle" x="931.5" y="-355" font-family="Helvetica,sans-Serif" font-size="10.00" fill="#000000"> &lt; PhysicsMgr, Physics &gt;</text>
</g>
<!-- Node22&#45;&gt;Node19 -->
<g id="edge35" class="edge">
<title>Node22&#45;&gt;Node19</title>
<path fill="none" stroke="#9a32cd" stroke-dasharray="5,2" d="M1501.2113,-94.3774C1533.7615,-105.5423 1573.5584,-121.5975 1606,-142 1717.6134,-212.1936 1727.8322,-253.4737 1833,-333 1848.5551,-344.7625 1867.1676,-357.1604 1879.9141,-365.4107"/>
<polygon fill="#9a32cd" stroke="#9a32cd" points="1501.9524,-90.9343 1491.3584,-91.0701 1499.7248,-97.5704 1501.9524,-90.9343"/>
<text text-anchor="middle" x="1683" y="-256" font-family="Helvetica,sans-Serif" font-size="10.00" fill="#000000"> m_icns</text>
</g>
<!-- Node23 -->
<g id="node23" class="node">
<title>Node23</title>
<g id="a_node23"><a xlink:href="classamr__wind_1_1pde_1_1_p_d_e_base.html" target="_top" xlink:title="Abstract interface defining a PDE and its solution process withn AMR&#45;WindThe exact behavior is implem...">
<polygon fill="#ffffff" stroke="#000000" points="1021,-.5 1021,-19.5 1151,-19.5 1151,-.5 1021,-.5"/>
<text text-anchor="middle" x="1086" y="-7.5" font-family="Helvetica,sans-Serif" font-size="10.00" fill="#000000">amr_wind::pde::PDEBase</text>
</a>
</g>
</g>
<!-- Node23&#45;&gt;Node22 -->
<g id="edge36" class="edge">
<title>Node23&#45;&gt;Node22</title>
<path fill="none" stroke="#9a32cd" stroke-dasharray="5,2" d="M1161.2682,-15.2854C1213.5933,-19.9947 1284.6737,-28.4615 1346,-43 1365.0947,-47.5267 1385.7246,-54.5659 1402.7358,-60.9821"/>
<polygon fill="#9a32cd" stroke="#9a32cd" points="1161.3287,-11.7774 1151.0618,-14.393 1160.7189,-18.7508 1161.3287,-11.7774"/>
<text text-anchor="middle" x="1264.5" y="-46" font-family="Helvetica,sans-Serif" font-size="10.00" fill="#000000"> ptr</text>
</g>
<!-- Node24 -->
<g id="node24" class="node">
<title>Node24</title>
<g id="a_node24"><a xlink:href="structamr__wind_1_1_factory.html" target="_top" xlink:title="amr_wind::Factory\&lt;\l PDEBase, CFDSim &amp;,\l const int \&gt;">
<polygon fill="#ffffff" stroke="#000000" points="719,-.5 719,-41.5 839,-41.5 839,-.5 719,-.5"/>
<text text-anchor="start" x="727" y="-29.5" font-family="Helvetica,sans-Serif" font-size="10.00" fill="#000000">amr_wind::Factory&lt;</text>
<text text-anchor="start" x="727" y="-18.5" font-family="Helvetica,sans-Serif" font-size="10.00" fill="#000000"> PDEBase, CFDSim &amp;,</text>
<text text-anchor="middle" x="779" y="-7.5" font-family="Helvetica,sans-Serif" font-size="10.00" fill="#000000"> const int &gt;</text>
</a>
</g>
</g>
<!-- Node24&#45;&gt;Node23 -->
<g id="edge37" class="edge">
<title>Node24&#45;&gt;Node23</title>
<path fill="none" stroke="#191970" d="M849.3544,-18.4792C900.9427,-16.6307 970.4752,-14.1393 1020.8092,-12.3358"/>
<polygon fill="#191970" stroke="#191970" points="849.1552,-14.984 839.287,-18.8399 849.406,-21.9795 849.1552,-14.984"/>
</g>
<!-- Node25 -->
<g id="node25" class="node">
<title>Node25</title>
<g id="a_node25"><a xlink:href="structamr__wind_1_1_factory.html" target="_top" xlink:title="Runtime selection of options based on string keyword lookupFactory provides an automated way to regis...">
<polygon fill="#ffffff" stroke="#000000" points="413.5,-63 413.5,-93 517.5,-93 517.5,-63 413.5,-63"/>
<text text-anchor="start" x="421.5" y="-81" font-family="Helvetica,sans-Serif" font-size="10.00" fill="#000000">amr_wind::Factory&lt;</text>
<text text-anchor="middle" x="465.5" y="-70" font-family="Helvetica,sans-Serif" font-size="10.00" fill="#000000"> Base, Args &gt;</text>
</a>
</g>
</g>
<!-- Node25&#45;&gt;Node24 -->
<g id="edge38" class="edge">
<title>Node25&#45;&gt;Node24</title>
<path fill="none" stroke="#ffa500" stroke-dasharray="5,2" d="M512.745,-59.639C521.3843,-56.7554 530.3909,-54.0542 539,-52 599.2767,-37.6174 669.7677,-29.5173 718.6923,-25.2348"/>
<polygon fill="#ffa500" stroke="#ffa500" points="511.4927,-56.3687 503.1878,-62.9474 513.7826,-62.9835 511.4927,-56.3687"/>
<text text-anchor="start" x="555" y="-66" font-family="Helvetica,sans-Serif" font-size="10.00" fill="#000000"> &lt; PDEBase, CFDSim &amp;,</text>
<text text-anchor="middle" x="611.5" y="-55" font-family="Helvetica,sans-Serif" font-size="10.00" fill="#000000"> const int &gt;</text>
</g>
<!-- Node29 -->
<g id="node29" class="node">
<title>Node29</title>
<g id="a_node29"><a xlink:href="structamr__wind_1_1_factory.html" target="_top" xlink:title="amr_wind::Factory\&lt;\l OversetManager, CFDSim &amp;\&gt;">
<polygon fill="#ffffff" stroke="#000000" points="703,-115 703,-145 855,-145 855,-115 703,-115"/>
<text text-anchor="start" x="711" y="-133" font-family="Helvetica,sans-Serif" font-size="10.00" fill="#000000">amr_wind::Factory&lt;</text>
<text text-anchor="middle" x="779" y="-122" font-family="Helvetica,sans-Serif" font-size="10.00" fill="#000000"> OversetManager, CFDSim &amp;&gt;</text>
</a>
</g>
</g>
<!-- Node25&#45;&gt;Node29 -->
<g id="edge44" class="edge">
<title>Node25&#45;&gt;Node29</title>
<path fill="none" stroke="#ffa500" stroke-dasharray="5,2" d="M512.4227,-96.4126C521.1532,-99.3173 530.2744,-102.0125 539,-104 593.0424,-116.3097 655.2985,-122.8398 702.8593,-126.2766"/>
<polygon fill="#ffa500" stroke="#ffa500" points="513.3686,-93.0362 502.7738,-93.0706 511.0775,-99.6507 513.3686,-93.0362"/>
<text text-anchor="middle" x="611.5" y="-128" font-family="Helvetica,sans-Serif" font-size="10.00" fill="#000000"> &lt; OversetManager, CFDSim &amp;&gt;</text>
</g>
<!-- Node32 -->
<g id="node32" class="node">
<title>Node32</title>
<g id="a_node32"><a xlink:href="structamr__wind_1_1_factory.html" target="_top" xlink:title="amr_wind::Factory\&lt;\l TurbulenceModel, CFDSim &amp;\&gt;">
<polygon fill="#ffffff" stroke="#000000" points="702,-63 702,-93 856,-93 856,-63 702,-63"/>
<text text-anchor="start" x="710" y="-81" font-family="Helvetica,sans-Serif" font-size="10.00" fill="#000000">amr_wind::Factory&lt;</text>
<text text-anchor="middle" x="779" y="-70" font-family="Helvetica,sans-Serif" font-size="10.00" fill="#000000"> TurbulenceModel, CFDSim &amp;&gt;</text>
</a>
</g>
</g>
<!-- Node25&#45;&gt;Node32 -->
<g id="edge49" class="edge">
<title>Node25&#45;&gt;Node32</title>
<path fill="none" stroke="#ffa500" stroke-dasharray="5,2" d="M527.6493,-78C577.6469,-78 648.158,-78 701.7786,-78"/>
<polygon fill="#ffa500" stroke="#ffa500" points="527.6201,-74.5001 517.6201,-78 527.62,-81.5001 527.6201,-74.5001"/>
<text text-anchor="start" x="566.5" y="-92" font-family="Helvetica,sans-Serif" font-size="10.00" fill="#000000"> &lt; TurbulenceModel,</text>
<text text-anchor="middle" x="611.5" y="-81" font-family="Helvetica,sans-Serif" font-size="10.00" fill="#000000"> CFDSim &amp;&gt;</text>
</g>
<!-- Node26 -->
<g id="node26" class="node">
<title>Node26</title>
<g id="a_node26"><a xlink:href="classamr__wind_1_1_sim_time.html" target="_top" xlink:title="Time manager for simulations. ">
<polygon fill="#ffffff" stroke="#000000" points="1387.5,-170.5 1387.5,-189.5 1491.5,-189.5 1491.5,-170.5 1387.5,-170.5"/>
<text text-anchor="middle" x="1439.5" y="-177.5" font-family="Helvetica,sans-Serif" font-size="10.00" fill="#000000">amr_wind::SimTime</text>
</a>
</g>
</g>
<!-- Node26&#45;&gt;Node2 -->
<g id="edge40" class="edge">
<title>Node26&#45;&gt;Node2</title>
<path fill="none" stroke="#9a32cd" stroke-dasharray="5,2" d="M1501.5952,-188.6788C1534.7769,-195.5756 1575.0458,-207.7482 1606,-229 1640.3469,-252.5811 1667.045,-295.9385 1677.8182,-315.2622"/>
<polygon fill="#9a32cd" stroke="#9a32cd" points="1502.0304,-185.1974 1491.5431,-186.7036 1500.6806,-192.0661 1502.0304,-185.1974"/>
<text text-anchor="middle" x="1569.5" y="-232" font-family="Helvetica,sans-Serif" font-size="10.00" fill="#000000"> m_time</text>
</g>
<!-- Node27&#45;&gt;Node2 -->
<g id="edge41" class="edge">
<title>Node27&#45;&gt;Node2</title>
<path fill="none" stroke="#9a32cd" stroke-dasharray="5,2" d="M1514.0613,-238.6847C1543.5345,-245.9915 1577.1802,-256.2592 1606,-270 1631.8022,-282.302 1658.1016,-303.2896 1672.3024,-315.4726"/>
<polygon fill="#9a32cd" stroke="#9a32cd" points="1514.7806,-235.2579 1504.2391,-236.3195 1513.1418,-242.0634 1514.7806,-235.2579"/>
<text text-anchor="middle" x="1569.5" y="-273" font-family="Helvetica,sans-Serif" font-size="10.00" fill="#000000"> m_overset_mgr</text>
</g>
<!-- Node28 -->
<g id="node28" class="node">
<title>Node28</title>
<g id="a_node28"><a xlink:href="classamr__wind_1_1_overset_manager.html" target="_top" xlink:title="Overset interface manager. ">
<polygon fill="#ffffff" stroke="#000000" points="1017.5,-127.5 1017.5,-146.5 1154.5,-146.5 1154.5,-127.5 1017.5,-127.5"/>
<text text-anchor="middle" x="1086" y="-134.5" font-family="Helvetica,sans-Serif" font-size="10.00" fill="#000000">amr_wind::OversetManager</text>
</a>
</g>
</g>
<!-- Node28&#45;&gt;Node27 -->
<g id="edge42" class="edge">
<title>Node28&#45;&gt;Node27</title>
<path fill="none" stroke="#9a32cd" stroke-dasharray="5,2" d="M1165.1445,-130.5458C1230.9933,-126.8653 1318.2728,-126.442 1346,-147 1365.6457,-161.566 1346.5904,-181.8236 1364,-199 1367.9316,-202.8789 1372.4778,-206.1561 1377.3506,-208.9248"/>
<polygon fill="#9a32cd" stroke="#9a32cd" points="1164.5475,-127.075 1154.7726,-131.1617 1164.9625,-134.0627 1164.5475,-127.075"/>
<text text-anchor="middle" x="1264.5" y="-150" font-family="Helvetica,sans-Serif" font-size="10.00" fill="#000000"> ptr</text>
</g>
<!-- Node29&#45;&gt;Node28 -->
<g id="edge43" class="edge">
<title>Node29&#45;&gt;Node28</title>
<path fill="none" stroke="#191970" d="M865.3722,-131.9694C913.4786,-133.0663 972.5389,-134.4129 1017.4436,-135.4368"/>
<polygon fill="#191970" stroke="#191970" points="865.3593,-128.4683 855.2821,-131.7393 865.1997,-135.4665 865.3593,-128.4683"/>
</g>
<!-- Node30&#45;&gt;Node2 -->
<g id="edge46" class="edge">
<title>Node30&#45;&gt;Node2</title>
<path fill="none" stroke="#9a32cd" stroke-dasharray="5,2" d="M1523.0658,-142.6424C1551.7378,-149.9277 1582.4928,-161.7662 1606,-181 1651.4182,-218.1616 1673.7311,-289.3765 1680.6088,-315.2771"/>
<polygon fill="#9a32cd" stroke="#9a32cd" points="1523.5652,-139.1635 1513.0263,-140.2507 1521.943,-145.9729 1523.5652,-139.1635"/>
<text text-anchor="middle" x="1569.5" y="-184" font-family="Helvetica,sans-Serif" font-size="10.00" fill="#000000"> m_turbulence</text>
</g>
<!-- Node31 -->
<g id="node31" class="node">
<title>Node31</title>
<g id="a_node31"><a xlink:href="classamr__wind_1_1turbulence_1_1_turbulence_model.html" target="_top" xlink:title="Abstract representation of a turbulence modelThis class is an abstract representation of a turbulence...">
<polygon fill="#ffffff" stroke="#000000" points="1031,-63 1031,-93 1141,-93 1141,-63 1031,-63"/>
<text text-anchor="start" x="1039" y="-81" font-family="Helvetica,sans-Serif" font-size="10.00" fill="#000000">amr_wind::turbulence</text>
<text text-anchor="middle" x="1086" y="-70" font-family="Helvetica,sans-Serif" font-size="10.00" fill="#000000">::TurbulenceModel</text>
</a>
</g>
</g>
<!-- Node31&#45;&gt;Node30 -->
<g id="edge47" class="edge">
<title>Node31&#45;&gt;Node30</title>
<path fill="none" stroke="#9a32cd" stroke-dasharray="5,2" d="M1151.0344,-63.7861C1205.6777,-55.1383 1284.477,-50.5599 1346,-79 1357.1582,-84.1581 1354.0374,-92.7987 1364,-100 1369.2825,-103.8184 1375.1042,-107.2654 1381.101,-110.3513"/>
<polygon fill="#9a32cd" stroke="#9a32cd" points="1150.4091,-60.342 1141.122,-65.4411 1151.5619,-67.2464 1150.4091,-60.342"/>
<text text-anchor="middle" x="1264.5" y="-82" font-family="Helvetica,sans-Serif" font-size="10.00" fill="#000000"> ptr</text>
</g>
<!-- Node32&#45;&gt;Node31 -->
<g id="edge48" class="edge">
<title>Node32&#45;&gt;Node31</title>
<path fill="none" stroke="#191970" d="M866.1249,-78C918.9996,-78 984.8878,-78 1030.6837,-78"/>
<polygon fill="#191970" stroke="#191970" points="866.0728,-74.5001 856.0728,-78 866.0728,-81.5001 866.0728,-74.5001"/>
</g>
<!-- Node33 -->
<g id="node33" class="node">
<title>Node33</title>
<g id="a_node33"><a xlink:href="classamr__wind_1_1_physics_mgr.html" target="_top" xlink:title="A collection of Physics models instances that are active during a simulation. ">
<polygon fill="#ffffff" stroke="#000000" points="1381.5,-354.5 1381.5,-373.5 1497.5,-373.5 1497.5,-354.5 1381.5,-354.5"/>
<text text-anchor="middle" x="1439.5" y="-361.5" font-family="Helvetica,sans-Serif" font-size="10.00" fill="#000000">amr_wind::PhysicsMgr</text>
</a>
</g>
</g>
<!-- Node33&#45;&gt;Node2 -->
<g id="edge52" class="edge">
<title>Node33&#45;&gt;Node2</title>
<path fill="none" stroke="#9a32cd" stroke-dasharray="5,2" d="M1507.7387,-354.2385C1537.8902,-349.8004 1573.7454,-344.3524 1606,-339 1614.3104,-337.6209 1623.1119,-336.0887 1631.6791,-334.5583"/>
<polygon fill="#9a32cd" stroke="#9a32cd" points="1507.1322,-350.7899 1497.7455,-355.7033 1508.1474,-357.7159 1507.1322,-350.7899"/>
<text text-anchor="middle" x="1569.5" y="-352" font-family="Helvetica,sans-Serif" font-size="10.00" fill="#000000"> m_physics_mgr</text>
</g>
<!-- Node34&#45;&gt;Node33 -->
<g id="edge53" class="edge">
<title>Node34&#45;&gt;Node33</title>
<path fill="none" stroke="#191970" d="M1157.4806,-352.0331C1223.423,-354.8312 1320.1197,-358.9344 1381.4213,-361.5356"/>
<polygon fill="#191970" stroke="#191970" points="1157.3109,-348.5229 1147.1714,-351.5957 1157.014,-355.5166 1157.3109,-348.5229"/>
</g>
</g>
</svg>
