<?xml version="1.0" encoding="UTF-8" standalone="no"?>
<!DOCTYPE svg PUBLIC "-//W3C//DTD SVG 1.1//EN"
 "http://www.w3.org/Graphics/SVG/1.1/DTD/svg11.dtd">
<!-- Generated by graphviz version 2.40.1 (20161225.0304)
 -->
<!-- Title: derive.cpp Pages: 1 -->
<!--zoomable 397 -->
<svg id="main" version="1.1" xmlns="http://www.w3.org/2000/svg" xmlns:xlink="http://www.w3.org/1999/xlink" xml:space="preserve" onload="init(evt)">
<style type="text/css"><![CDATA[
.edge:hover path { stroke: red; }
.edge:hover polygon { stroke: red; fill: red; }
]]></style>
<script type="text/javascript"><![CDATA[
var edges = document.getElementsByTagName('g');
if (edges && edges.length) {
  for (var i=0;i<edges.length;i++) {
    if (edges[i].id.substr(0,4)=='edge') {
      edges[i].setAttribute('class','edge');
    }
  }
}
]]></script>
        <defs>
                <circle id="rim" cx="0" cy="0" r="7"/>
                <circle id="rim2" cx="0" cy="0" r="3.5"/>
                <g id="zoomPlus">
                        <use xlink:href="#rim" fill="#404040">
                                <set attributeName="fill" to="#808080" begin="zoomplus.mouseover" end="zoomplus.mouseout"/>
                        </use>
                        <path d="M-4,0h8M0,-4v8" fill="none" stroke="white" stroke-width="1.5" pointer-events="none"/>
                </g>
                <g id="zoomMin">
                        <use xlink:href="#rim" fill="#404040">
                                <set attributeName="fill" to="#808080" begin="zoomminus.mouseover" end="zoomminus.mouseout"/>
                        </use>
                        <path d="M-4,0h8" fill="none" stroke="white" stroke-width="1.5" pointer-events="none"/>
                </g>
                <g id="dirArrow">
                        <path fill="none" stroke="white" stroke-width="1.5" d="M0,-3.0v7 M-2.5,-0.5L0,-3.0L2.5,-0.5"/>
                </g>
               <g id="resetDef">
                       <use xlink:href="#rim2" fill="#404040">
                               <set attributeName="fill" to="#808080" begin="reset.mouseover" end="reset.mouseout"/>
                       </use>
               </g>
        </defs>

<script type="text/javascript">
var viewWidth = 2266;
var viewHeight = 397;
var sectionId = 'dynsection-0';
</script>
<script xlink:href="svgpan.js"/>
<svg id="graph" class="graph">
<g id="viewport">
<title>derive.cpp</title>
<polygon fill="#ffffff" stroke="transparent" points="-4,4 -4,-393 2262,-393 2262,4 -4,4"/>
<!-- Node0 -->
<g id="node1" class="node">
<title>Node0</title>
<polygon fill="#bfbfbf" stroke="#000000" points="198.5,-369.5 198.5,-388.5 260.5,-388.5 260.5,-369.5 198.5,-369.5"/>
<text text-anchor="middle" x="229.5" y="-376.5" font-family="Helvetica,sans-Serif" font-size="10.00" fill="#000000">derive.cpp</text>
</g>
<!-- Node1 -->
<g id="node2" class="node">
<title>Node1</title>
<polygon fill="#ffffff" stroke="#bfbfbf" points="117.5,-313.5 117.5,-332.5 201.5,-332.5 201.5,-313.5 117.5,-313.5"/>
<text text-anchor="middle" x="159.5" y="-320.5" font-family="Helvetica,sans-Serif" font-size="10.00" fill="#000000">AMReX_Box.H</text>
</g>
<!-- Node0&#45;&gt;Node1 -->
<g id="edge1" class="edge">
<title>Node0&#45;&gt;Node1</title>
<path fill="none" stroke="#191970" d="M217.3069,-369.2455C206.8679,-360.8943 191.6345,-348.7076 179.426,-338.9408"/>
<polygon fill="#191970" stroke="#191970" points="181.5485,-336.1566 171.5533,-332.6427 177.1756,-341.6227 181.5485,-336.1566"/>
</g>
<!-- Node2 -->
<g id="node3" class="node">
<title>Node2</title>
<g id="a_node3"><a xlink:href="incflo_8_h.html" target="_top" xlink:title="amr&#45;wind/incflo.H">
<polygon fill="#ffffff" stroke="#000000" points="422,-313.5 422,-332.5 515,-332.5 515,-313.5 422,-313.5"/>
<text text-anchor="middle" x="468.5" y="-320.5" font-family="Helvetica,sans-Serif" font-size="10.00" fill="#000000">amr&#45;wind/incflo.H</text>
</a>
</g>
</g>
<!-- Node0&#45;&gt;Node2 -->
<g id="edge2" class="edge">
<title>Node0&#45;&gt;Node2</title>
<path fill="none" stroke="#191970" d="M260.7451,-371.679C300.6725,-362.3236 370.2991,-346.0094 417.8504,-334.8677"/>
<polygon fill="#191970" stroke="#191970" points="418.7058,-338.2621 427.6436,-332.573 417.1088,-331.4467 418.7058,-338.2621"/>
</g>
<!-- Node7 -->
<g id="node8" class="node">
<title>Node7</title>
<polygon fill="#ffffff" stroke="#bfbfbf" points="0,-252 0,-271 131,-271 131,-252 0,-252"/>
<text text-anchor="middle" x="65.5" y="-259" font-family="Helvetica,sans-Serif" font-size="10.00" fill="#000000">AMReX_NodalProjector.H</text>
</g>
<!-- Node0&#45;&gt;Node7 -->
<g id="edge76" class="edge">
<title>Node0&#45;&gt;Node7</title>
<path fill="none" stroke="#191970" d="M229.3591,-369.1363C228.6254,-354.9109 225.2067,-328.6319 210.5,-313 197.0306,-298.6832 151.13,-283.8079 114.5362,-273.7473"/>
<polygon fill="#191970" stroke="#191970" points="115.0626,-270.2643 104.4963,-271.0418 113.2412,-277.0232 115.0626,-270.2643"/>
</g>
<!-- Node3 -->
<g id="node4" class="node">
<title>Node3</title>
<polygon fill="#ffffff" stroke="#bfbfbf" points="639.5,-129 639.5,-148 745.5,-148 745.5,-129 639.5,-129"/>
<text text-anchor="middle" x="692.5" y="-136" font-family="Helvetica,sans-Serif" font-size="10.00" fill="#000000">AMReX_AmrCore.H</text>
</g>
<!-- Node2&#45;&gt;Node3 -->
<g id="edge3" class="edge">
<title>Node2&#45;&gt;Node3</title>
<path fill="none" stroke="#191970" d="M515.1218,-317.0145C563.8136,-309.8369 635.8037,-296.3091 655.5,-277 687.9641,-245.1741 692.9376,-188.2516 693.1229,-158.2504"/>
<polygon fill="#191970" stroke="#191970" points="696.622,-158.1377 693.0069,-148.1788 689.6224,-158.2185 696.622,-158.1377"/>
</g>
<!-- Node4 -->
<g id="node5" class="node">
<title>Node4</title>
<polygon fill="#ffffff" stroke="#bfbfbf" points="149,-252 149,-271 268,-271 268,-252 149,-252"/>
<text text-anchor="middle" x="208.5" y="-259" font-family="Helvetica,sans-Serif" font-size="10.00" fill="#000000">AMReX_MultiFabUtil.H</text>
</g>
<!-- Node2&#45;&gt;Node4 -->
<g id="edge4" class="edge">
<title>Node2&#45;&gt;Node4</title>
<path fill="none" stroke="#191970" d="M428.1603,-313.4581C382.5232,-302.6632 308.143,-285.0694 258.766,-273.3899"/>
<polygon fill="#191970" stroke="#191970" points="259.4715,-269.9602 248.9344,-271.0643 257.8602,-276.7722 259.4715,-269.9602"/>
</g>
<!-- Node5 -->
<g id="node6" class="node">
<title>Node5</title>
<polygon fill="#ffffff" stroke="#bfbfbf" points="286.5,-252 286.5,-271 402.5,-271 402.5,-252 286.5,-252"/>
<text text-anchor="middle" x="344.5" y="-259" font-family="Helvetica,sans-Serif" font-size="10.00" fill="#000000">AMReX_ParmParse.H</text>
</g>
<!-- Node2&#45;&gt;Node5 -->
<g id="edge5" class="edge">
<title>Node2&#45;&gt;Node5</title>
<path fill="none" stroke="#191970" d="M449.125,-313.3906C428.6505,-303.2359 396.1558,-287.1196 372.8115,-275.5416"/>
<polygon fill="#191970" stroke="#191970" points="374.2528,-272.3496 363.7389,-271.0419 371.1425,-278.6207 374.2528,-272.3496"/>
</g>
<!-- Node6 -->
<g id="node7" class="node">
<title>Node6</title>
<polygon fill="#ffffff" stroke="#bfbfbf" points="1923,-62 1923,-81 2030,-81 2030,-62 1923,-62"/>
<text text-anchor="middle" x="1976.5" y="-69" font-family="Helvetica,sans-Serif" font-size="10.00" fill="#000000">AMReX_iMultiFab.H</text>
</g>
<!-- Node2&#45;&gt;Node6 -->
<g id="edge6" class="edge">
<title>Node2&#45;&gt;Node6</title>
<path fill="none" stroke="#191970" d="M515.0103,-320.7189C714.3599,-310.6561 1497.3139,-268.1421 1736.5,-210 1800.4179,-194.4626 1816.8012,-187.3491 1873.5,-154 1905.9857,-134.8925 1939.2516,-106.2763 1958.8814,-88.2612"/>
<polygon fill="#191970" stroke="#191970" points="1961.4813,-90.6229 1966.4173,-81.2481 1956.7125,-85.4986 1961.4813,-90.6229"/>
</g>
<!-- Node2&#45;&gt;Node7 -->
<g id="edge7" class="edge">
<title>Node2&#45;&gt;Node7</title>
<path fill="none" stroke="#191970" d="M421.7618,-317.4744C357.8365,-309.687 239.6378,-294.4674 139.5,-277 132.7235,-275.8179 125.6203,-274.4703 118.6082,-273.0744"/>
<polygon fill="#191970" stroke="#191970" points="118.9454,-269.5714 108.4485,-271.0083 117.5504,-276.431 118.9454,-269.5714"/>
</g>
<!-- Node8 -->
<g id="node9" class="node">
<title>Node8</title>
<g id="a_node9"><a xlink:href="incflo__enums_8_h.html" target="_top" xlink:title="amr&#45;wind/incflo_enums.H">
<polygon fill="#ffffff" stroke="#000000" points="233.5,-62 233.5,-81 361.5,-81 361.5,-62 233.5,-62"/>
<text text-anchor="middle" x="297.5" y="-69" font-family="Helvetica,sans-Serif" font-size="10.00" fill="#000000">amr&#45;wind/incflo_enums.H</text>
</a>
</g>
</g>
<!-- Node2&#45;&gt;Node8 -->
<g id="edge8" class="edge">
<title>Node2&#45;&gt;Node8</title>
<path fill="none" stroke="#191970" d="M464.0117,-313.3571C455.8947,-296.9873 437.202,-263.8083 411.5,-246 289.1593,-161.233 179.1295,-272.8245 89.5,-154 81.2031,-143.0005 81.0087,-133.8501 89.5,-123 94.3359,-116.8207 183.164,-96.4128 243.159,-83.2181"/>
<polygon fill="#191970" stroke="#191970" points="244.241,-86.5641 253.26,-81.0046 242.7426,-79.7263 244.241,-86.5641"/>
</g>
<!-- Node9 -->
<g id="node10" class="node">
<title>Node9</title>
<g id="a_node10"><a xlink:href="_c_f_d_sim_8_h.html" target="_top" xlink:title="amr&#45;wind/CFDSim.H">
<polygon fill="#ffffff" stroke="#000000" points="538.5,-252 538.5,-271 646.5,-271 646.5,-252 538.5,-252"/>
<text text-anchor="middle" x="592.5" y="-259" font-family="Helvetica,sans-Serif" font-size="10.00" fill="#000000">amr&#45;wind/CFDSim.H</text>
</a>
</g>
</g>
<!-- Node2&#45;&gt;Node9 -->
<g id="edge9" class="edge">
<title>Node2&#45;&gt;Node9</title>
<path fill="none" stroke="#191970" d="M487.875,-313.3906C508.3495,-303.2359 540.8442,-287.1196 564.1885,-275.5416"/>
<polygon fill="#191970" stroke="#191970" points="565.8575,-278.6207 573.2611,-271.0419 562.7472,-272.3496 565.8575,-278.6207"/>
</g>
<!-- Node10 -->
<g id="node11" class="node">
<title>Node10</title>
<g id="a_node11"><a xlink:href="_sim_time_8_h.html" target="_top" xlink:title="amr&#45;wind/core/SimTime.H">
<polygon fill="#ffffff" stroke="#000000" points="352,-190.5 352,-209.5 483,-209.5 483,-190.5 352,-190.5"/>
<text text-anchor="middle" x="417.5" y="-197.5" font-family="Helvetica,sans-Serif" font-size="10.00" fill="#000000">amr&#45;wind/core/SimTime.H</text>
</a>
</g>
</g>
<!-- Node2&#45;&gt;Node10 -->
<g id="edge73" class="edge">
<title>Node2&#45;&gt;Node10</title>
<path fill="none" stroke="#191970" d="M466.2274,-313.2601C462.5903,-298.3921 454.809,-269.3061 444.5,-246 440.2542,-236.4013 434.4753,-226.285 429.3532,-217.991"/>
<polygon fill="#191970" stroke="#191970" points="432.2878,-216.0832 423.9659,-209.5259 426.3822,-219.8416 432.2878,-216.0832"/>
</g>
<!-- Node14 -->
<g id="node15" class="node">
<title>Node14</title>
<g id="a_node15"><a xlink:href="_field_repo_8_h.html" target="_top" xlink:title="amr&#45;wind/core/FieldRepo.H">
<polygon fill="#ffffff" stroke="#000000" points="1591.5,-190.5 1591.5,-209.5 1727.5,-209.5 1727.5,-190.5 1591.5,-190.5"/>
<text text-anchor="middle" x="1659.5" y="-197.5" font-family="Helvetica,sans-Serif" font-size="10.00" fill="#000000">amr&#45;wind/core/FieldRepo.H</text>
</a>
</g>
</g>
<!-- Node2&#45;&gt;Node14 -->
<g id="edge74" class="edge">
<title>Node2&#45;&gt;Node14</title>
<path fill="none" stroke="#191970" d="M515.0444,-322.2311C744.625,-318.3308 1746.2849,-300.015 1768.5,-277 1778.0686,-267.0869 1776.1164,-257.4812 1768.5,-246 1758.0095,-230.1864 1740.8939,-219.7957 1723.3016,-212.9732"/>
<polygon fill="#191970" stroke="#191970" points="1724.1129,-209.5486 1713.518,-209.5383 1721.7939,-216.1534 1724.1129,-209.5486"/>
</g>
<!-- Node40 -->
<g id="node41" class="node">
<title>Node40</title>
<g id="a_node41"><a xlink:href="incflo__prob___i_8_h.html" target="_top" xlink:title="amr&#45;wind/prob/incflo\l_prob_I.H">
<polygon fill="#ffffff" stroke="#000000" points="1655.5,-246.5 1655.5,-276.5 1759.5,-276.5 1759.5,-246.5 1655.5,-246.5"/>
<text text-anchor="start" x="1663.5" y="-264.5" font-family="Helvetica,sans-Serif" font-size="10.00" fill="#000000">amr&#45;wind/prob/incflo</text>
<text text-anchor="middle" x="1707.5" y="-253.5" font-family="Helvetica,sans-Serif" font-size="10.00" fill="#000000">_prob_I.H</text>
</a>
</g>
</g>
<!-- Node2&#45;&gt;Node40 -->
<g id="edge75" class="edge">
<title>Node2&#45;&gt;Node40</title>
<path fill="none" stroke="#191970" d="M515.1237,-322.3639C704.686,-319.5932 1418.0929,-307.329 1641.5,-277 1642.7793,-276.8263 1644.0701,-276.6391 1645.3692,-276.4397"/>
<polygon fill="#191970" stroke="#191970" points="1646.1761,-279.8522 1655.4334,-274.6993 1644.9832,-272.9546 1646.1761,-279.8522"/>
</g>
<!-- Node9&#45;&gt;Node3 -->
<g id="edge10" class="edge">
<title>Node9&#45;&gt;Node3</title>
<path fill="none" stroke="#191970" d="M597.2377,-251.659C604.4022,-237.3005 618.9287,-210.1296 635.5,-190 646.277,-176.9089 660.4086,-164.1183 671.9046,-154.5587"/>
<polygon fill="#191970" stroke="#191970" points="674.1662,-157.2309 679.724,-148.2108 669.7543,-151.7963 674.1662,-157.2309"/>
</g>
<!-- Node9&#45;&gt;Node10 -->
<g id="edge11" class="edge">
<title>Node9&#45;&gt;Node10</title>
<path fill="none" stroke="#191970" d="M565.1563,-251.8906C535.3618,-241.42 487.5315,-224.6111 454.4192,-212.9745"/>
<polygon fill="#191970" stroke="#191970" points="455.2466,-209.5554 444.6517,-209.5419 452.9257,-216.1595 455.2466,-209.5554"/>
</g>
<!-- Node9&#45;&gt;Node14 -->
<g id="edge15" class="edge">
<title>Node9&#45;&gt;Node14</title>
<path fill="none" stroke="#191970" d="M646.5112,-258.3869C821.7976,-248.2837 1375.3382,-216.3786 1581.2961,-204.5075"/>
<polygon fill="#191970" stroke="#191970" points="1581.6443,-207.9934 1591.4263,-203.9236 1581.2414,-201.005 1581.6443,-207.9934"/>
</g>
<!-- Node30 -->
<g id="node31" class="node">
<title>Node30</title>
<g id="a_node31"><a xlink:href="_p_d_e_base_8_h.html" target="_top" xlink:title="amr&#45;wind/equation_systems\l/PDEBase.H">
<polygon fill="#ffffff" stroke="#000000" points="482,-123.5 482,-153.5 621,-153.5 621,-123.5 482,-123.5"/>
<text text-anchor="start" x="490" y="-141.5" font-family="Helvetica,sans-Serif" font-size="10.00" fill="#000000">amr&#45;wind/equation_systems</text>
<text text-anchor="middle" x="551.5" y="-130.5" font-family="Helvetica,sans-Serif" font-size="10.00" fill="#000000">/PDEBase.H</text>
</a>
</g>
</g>
<!-- Node9&#45;&gt;Node30 -->
<g id="edge51" class="edge">
<title>Node9&#45;&gt;Node30</title>
<path fill="none" stroke="#191970" d="M589.2828,-251.8484C582.9889,-232.9666 568.8705,-190.6115 559.7869,-163.3607"/>
<polygon fill="#191970" stroke="#191970" points="563.0616,-162.1165 556.5788,-153.7365 556.4208,-164.3301 563.0616,-162.1165"/>
</g>
<!-- Node38 -->
<g id="node39" class="node">
<title>Node38</title>
<g id="a_node39"><a xlink:href="_physics_8_h.html" target="_top" xlink:title="amr&#45;wind/core/Physics.H">
<polygon fill="#ffffff" stroke="#000000" points="802,-129 802,-148 929,-148 929,-129 802,-129"/>
<text text-anchor="middle" x="865.5" y="-136" font-family="Helvetica,sans-Serif" font-size="10.00" fill="#000000">amr&#45;wind/core/Physics.H</text>
</a>
</g>
</g>
<!-- Node9&#45;&gt;Node38 -->
<g id="edge68" class="edge">
<title>Node9&#45;&gt;Node38</title>
<path fill="none" stroke="#191970" d="M613.9219,-251.8484C662.0645,-230.1577 778.96,-177.4905 834.8067,-152.3289"/>
<polygon fill="#191970" stroke="#191970" points="836.4981,-155.4057 844.1777,-148.1068 833.6226,-149.0236 836.4981,-155.4057"/>
</g>
<!-- Node11 -->
<g id="node12" class="node">
<title>Node11</title>
<polygon fill="#ffffff" stroke="#bfbfbf" points="371,-129 371,-148 464,-148 464,-129 371,-129"/>
<text text-anchor="middle" x="417.5" y="-136" font-family="Helvetica,sans-Serif" font-size="10.00" fill="#000000">AMReX_REAL.H</text>
</g>
<!-- Node10&#45;&gt;Node11 -->
<g id="edge12" class="edge">
<title>Node10&#45;&gt;Node11</title>
<path fill="none" stroke="#191970" d="M417.5,-190.3906C417.5,-181.8657 417.5,-169.1392 417.5,-158.4235"/>
<polygon fill="#191970" stroke="#191970" points="421.0001,-158.2448 417.5,-148.2449 414.0001,-158.2449 421.0001,-158.2448"/>
</g>
<!-- Node12 -->
<g id="node13" class="node">
<title>Node12</title>
<polygon fill="#ffffff" stroke="#bfbfbf" points="98.5,-129 98.5,-148 224.5,-148 224.5,-129 98.5,-129"/>
<text text-anchor="middle" x="161.5" y="-136" font-family="Helvetica,sans-Serif" font-size="10.00" fill="#000000">AMReX_GpuQualifiers.H</text>
</g>
<!-- Node10&#45;&gt;Node12 -->
<g id="edge13" class="edge">
<title>Node10&#45;&gt;Node12</title>
<path fill="none" stroke="#191970" d="M377.7809,-190.4581C332.9397,-179.6857 259.9157,-162.1428 211.2975,-150.4631"/>
<polygon fill="#191970" stroke="#191970" points="211.8532,-146.9971 201.3123,-148.0643 210.2181,-153.8034 211.8532,-146.9971"/>
</g>
<!-- Node13 -->
<g id="node14" class="node">
<title>Node13</title>
<polygon fill="#ffffff" stroke="#bfbfbf" points="242.5,-129 242.5,-148 352.5,-148 352.5,-129 242.5,-129"/>
<text text-anchor="middle" x="297.5" y="-136" font-family="Helvetica,sans-Serif" font-size="10.00" fill="#000000">AMReX_Extension.H</text>
</g>
<!-- Node10&#45;&gt;Node13 -->
<g id="edge14" class="edge">
<title>Node10&#45;&gt;Node13</title>
<path fill="none" stroke="#191970" d="M398.75,-190.3906C379.024,-180.2811 347.7688,-164.2628 325.2,-152.6962"/>
<polygon fill="#191970" stroke="#191970" points="326.614,-149.4881 316.1183,-148.0419 323.4213,-155.7176 326.614,-149.4881"/>
</g>
<!-- Node14&#45;&gt;Node3 -->
<g id="edge48" class="edge">
<title>Node14&#45;&gt;Node3</title>
<path fill="none" stroke="#191970" d="M1591.4859,-198.0783C1410.5134,-192.7164 920.0571,-176.4959 759.5,-154 752.6681,-153.0428 745.507,-151.728 738.5134,-150.2659"/>
<polygon fill="#191970" stroke="#191970" points="738.9639,-146.7812 728.4445,-148.0428 737.4546,-153.6165 738.9639,-146.7812"/>
</g>
<!-- Node14&#45;&gt;Node6 -->
<g id="edge50" class="edge">
<title>Node14&#45;&gt;Node6</title>
<path fill="none" stroke="#191970" d="M1706.4055,-190.4566C1740.8922,-182.6721 1788.5166,-170.3019 1828.5,-154 1874.9555,-135.0593 1925.1977,-104.741 1953.5643,-86.6102"/>
<polygon fill="#191970" stroke="#191970" points="1955.47,-89.5459 1961.9731,-81.1816 1951.6734,-83.665 1955.47,-89.5459"/>
</g>
<!-- Node15 -->
<g id="node16" class="node">
<title>Node15</title>
<polygon fill="#ffffff" stroke="#bfbfbf" points="1013,-.5 1013,-19.5 1054,-19.5 1054,-.5 1013,-.5"/>
<text text-anchor="middle" x="1033.5" y="-7.5" font-family="Helvetica,sans-Serif" font-size="10.00" fill="#000000">string</text>
</g>
<!-- Node14&#45;&gt;Node15 -->
<g id="edge16" class="edge">
<title>Node14&#45;&gt;Node15</title>
<path fill="none" stroke="#191970" d="M1591.4322,-197.0151C1452.3475,-190.5365 1144.9656,-174.1358 1101.5,-154 1063.2889,-136.2984 1050.8679,-125.8011 1034.5,-87 1026.7738,-68.6846 1027.6852,-45.6695 1029.8069,-29.5925"/>
<polygon fill="#191970" stroke="#191970" points="1033.2638,-30.1394 1031.3779,-19.7138 1026.3507,-29.04 1033.2638,-30.1394"/>
</g>
<!-- Node16 -->
<g id="node17" class="node">
<title>Node16</title>
<polygon fill="#ffffff" stroke="#bfbfbf" points="657,-.5 657,-19.5 740,-19.5 740,-.5 657,-.5"/>
<text text-anchor="middle" x="698.5" y="-7.5" font-family="Helvetica,sans-Serif" font-size="10.00" fill="#000000">unordered_map</text>
</g>
<!-- Node14&#45;&gt;Node16 -->
<g id="edge17" class="edge">
<title>Node14&#45;&gt;Node16</title>
<path fill="none" stroke="#191970" d="M1591.3652,-198.8141C1399.8932,-195.1417 866.1421,-182.4488 792.5,-154 772.1685,-146.1457 773.8198,-133.09 754.5,-123 702.8756,-96.0386 663.5724,-133.4965 628.5,-87 620.2031,-76.0005 621.9587,-68.1259 628.5,-56 636.073,-41.9617 650.0073,-31.5084 663.4614,-24.1453"/>
<polygon fill="#191970" stroke="#191970" points="665.258,-27.1593 672.615,-19.5353 662.1094,-20.9074 665.258,-27.1593"/>
</g>
<!-- Node17 -->
<g id="node18" class="node">
<title>Node17</title>
<g id="a_node18"><a xlink:href="_field_desc_types_8_h.html" target="_top" xlink:title="amr&#45;wind/core/FieldDescTypes.H">
<polygon fill="#ffffff" stroke="#000000" points="1515,-.5 1515,-19.5 1678,-19.5 1678,-.5 1515,-.5"/>
<text text-anchor="middle" x="1596.5" y="-7.5" font-family="Helvetica,sans-Serif" font-size="10.00" fill="#000000">amr&#45;wind/core/FieldDescTypes.H</text>
</a>
</g>
</g>
<!-- Node14&#45;&gt;Node17 -->
<g id="edge18" class="edge">
<title>Node14&#45;&gt;Node17</title>
<path fill="none" stroke="#191970" d="M1727.5958,-196.9023C1860.1529,-188.5521 2132.0907,-158.7029 2039.5,-56 2027.8742,-43.1044 1814.4383,-25.6569 1688.137,-16.3952"/>
<polygon fill="#191970" stroke="#191970" points="1688.3015,-12.898 1678.0733,-15.661 1687.7921,-19.8794 1688.3015,-12.898"/>
</g>
<!-- Node18 -->
<g id="node19" class="node">
<title>Node18</title>
<g id="a_node19"><a xlink:href="_field_utils_8_h.html" target="_top" xlink:title="amr&#45;wind/core/FieldUtils.H">
<polygon fill="#ffffff" stroke="#000000" points="2125,-62 2125,-81 2258,-81 2258,-62 2125,-62"/>
<text text-anchor="middle" x="2191.5" y="-69" font-family="Helvetica,sans-Serif" font-size="10.00" fill="#000000">amr&#45;wind/core/FieldUtils.H</text>
</a>
</g>
</g>
<!-- Node14&#45;&gt;Node18 -->
<g id="edge19" class="edge">
<title>Node14&#45;&gt;Node18</title>
<path fill="none" stroke="#191970" d="M1727.863,-198.6639C1836.9029,-195.5993 2044.6199,-185.6701 2110.5,-154 2140.4851,-139.5854 2165.5975,-109.2521 2179.5771,-89.6563"/>
<polygon fill="#191970" stroke="#191970" points="2182.5696,-91.4816 2185.3564,-81.2599 2176.8035,-87.5128 2182.5696,-91.4816"/>
</g>
<!-- Node19 -->
<g id="node20" class="node">
<title>Node19</title>
<polygon fill="#ffffff" stroke="#bfbfbf" points="1750.5,-.5 1750.5,-19.5 1854.5,-19.5 1854.5,-.5 1750.5,-.5"/>
<text text-anchor="middle" x="1802.5" y="-7.5" font-family="Helvetica,sans-Serif" font-size="10.00" fill="#000000">AMReX_MultiFab.H</text>
</g>
<!-- Node14&#45;&gt;Node19 -->
<g id="edge49" class="edge">
<title>Node14&#45;&gt;Node19</title>
<path fill="none" stroke="#191970" d="M1727.5722,-195.3226C1828.7831,-187.8179 2009.6494,-172.0811 2033.5,-154 2059.2185,-134.5029 2055.1539,-118.6434 2061.5,-87 2064.2092,-73.4912 2070.3496,-66.5599 2061.5,-56 2036.9119,-26.6601 1933.4575,-16.0205 1864.9738,-12.1713"/>
<polygon fill="#191970" stroke="#191970" points="1864.8894,-8.662 1854.7189,-11.6305 1864.5207,-15.6523 1864.8894,-8.662"/>
</g>
<!-- Node21 -->
<g id="node22" class="node">
<title>Node21</title>
<g id="a_node22"><a xlink:href="_field_8_h.html" target="_top" xlink:title="amr&#45;wind/core/Field.H">
<polygon fill="#ffffff" stroke="#000000" points="1110,-129 1110,-148 1223,-148 1223,-129 1110,-129"/>
<text text-anchor="middle" x="1166.5" y="-136" font-family="Helvetica,sans-Serif" font-size="10.00" fill="#000000">amr&#45;wind/core/Field.H</text>
</a>
</g>
</g>
<!-- Node14&#45;&gt;Node21 -->
<g id="edge23" class="edge">
<title>Node14&#45;&gt;Node21</title>
<path fill="none" stroke="#191970" d="M1591.4681,-191.5133C1496.9151,-179.7181 1326.8527,-158.5034 1233.08,-146.8056"/>
<polygon fill="#191970" stroke="#191970" points="1233.4971,-143.3306 1223.1407,-145.5657 1232.6305,-150.2768 1233.4971,-143.3306"/>
</g>
<!-- Node27 -->
<g id="node28" class="node">
<title>Node27</title>
<g id="a_node28"><a xlink:href="_int_field_8_h.html" target="_top" xlink:title="amr&#45;wind/core/IntField.H">
<polygon fill="#ffffff" stroke="#000000" points="1695.5,-129 1695.5,-148 1819.5,-148 1819.5,-129 1695.5,-129"/>
<text text-anchor="middle" x="1757.5" y="-136" font-family="Helvetica,sans-Serif" font-size="10.00" fill="#000000">amr&#45;wind/core/IntField.H</text>
</a>
</g>
</g>
<!-- Node14&#45;&gt;Node27 -->
<g id="edge37" class="edge">
<title>Node14&#45;&gt;Node27</title>
<path fill="none" stroke="#191970" d="M1674.8125,-190.3906C1690.5624,-180.5067 1715.3123,-164.9749 1733.6337,-153.4773"/>
<polygon fill="#191970" stroke="#191970" points="1735.6852,-156.3221 1742.295,-148.0419 1731.9643,-150.3929 1735.6852,-156.3221"/>
</g>
<!-- Node28 -->
<g id="node29" class="node">
<title>Node28</title>
<g id="a_node29"><a xlink:href="_scratch_field_8_h.html" target="_top" xlink:title="amr&#45;wind/core/ScratchField.H">
<polygon fill="#ffffff" stroke="#000000" points="1523.5,-129 1523.5,-148 1669.5,-148 1669.5,-129 1523.5,-129"/>
<text text-anchor="middle" x="1596.5" y="-136" font-family="Helvetica,sans-Serif" font-size="10.00" fill="#000000">amr&#45;wind/core/ScratchField.H</text>
</a>
</g>
</g>
<!-- Node14&#45;&gt;Node28 -->
<g id="edge41" class="edge">
<title>Node14&#45;&gt;Node28</title>
<path fill="none" stroke="#191970" d="M1649.6563,-190.3906C1640.0961,-181.0581 1625.3777,-166.6902 1613.8505,-155.4374"/>
<polygon fill="#191970" stroke="#191970" points="1616.0832,-152.7257 1606.4825,-148.2449 1611.1934,-157.7348 1616.0832,-152.7257"/>
</g>
<!-- Node18&#45;&gt;Node17 -->
<g id="edge20" class="edge">
<title>Node18&#45;&gt;Node17</title>
<path fill="none" stroke="#191970" d="M2124.833,-62.4203C2107.7851,-60.2074 2089.4753,-57.9252 2072.5,-56 1939.1787,-40.8795 1784.4859,-26.5175 1688.5379,-17.9823"/>
<polygon fill="#191970" stroke="#191970" points="1688.5577,-14.4704 1678.2875,-17.0728 1687.939,-21.443 1688.5577,-14.4704"/>
</g>
<!-- Node18&#45;&gt;Node19 -->
<g id="edge21" class="edge">
<title>Node18&#45;&gt;Node19</title>
<path fill="none" stroke="#191970" d="M2143.5878,-61.9963C2132.7238,-59.9348 2121.227,-57.8266 2110.5,-56 2025.5548,-41.5354 1926.9999,-27.252 1864.7052,-18.5306"/>
<polygon fill="#191970" stroke="#191970" points="1865.035,-15.0427 1854.6471,-17.1266 1864.0672,-21.9755 1865.035,-15.0427"/>
</g>
<!-- Node20 -->
<g id="node21" class="node">
<title>Node20</title>
<polygon fill="#ffffff" stroke="#bfbfbf" points="2133.5,-.5 2133.5,-19.5 2249.5,-19.5 2249.5,-.5 2133.5,-.5"/>
<text text-anchor="middle" x="2191.5" y="-7.5" font-family="Helvetica,sans-Serif" font-size="10.00" fill="#000000">AMReX_Interpolater.H</text>
</g>
<!-- Node18&#45;&gt;Node20 -->
<g id="edge22" class="edge">
<title>Node18&#45;&gt;Node20</title>
<path fill="none" stroke="#191970" d="M2191.5,-61.8906C2191.5,-53.3657 2191.5,-40.6392 2191.5,-29.9235"/>
<polygon fill="#191970" stroke="#191970" points="2195.0001,-29.7448 2191.5,-19.7449 2188.0001,-29.7449 2195.0001,-29.7448"/>
</g>
<!-- Node21&#45;&gt;Node8 -->
<g id="edge30" class="edge">
<title>Node21&#45;&gt;Node8</title>
<path fill="none" stroke="#191970" d="M1109.8174,-134.5742C1063.6884,-131.3967 996.8944,-126.8354 938.5,-123 686.0929,-106.4216 621.1064,-121.3602 370.5,-87 362.8284,-85.9482 354.7601,-84.5427 346.8985,-83.0059"/>
<polygon fill="#191970" stroke="#191970" points="347.5941,-79.5758 337.0963,-81.006 346.1947,-86.4345 347.5941,-79.5758"/>
</g>
<!-- Node21&#45;&gt;Node15 -->
<g id="edge24" class="edge">
<title>Node21&#45;&gt;Node15</title>
<path fill="none" stroke="#191970" d="M1124.4249,-128.95C1100.3847,-121.406 1071.5266,-108.4608 1053.5,-87 1040.075,-71.0174 1035.5305,-47.071 1034.0602,-30.1332"/>
<polygon fill="#191970" stroke="#191970" points="1037.5294,-29.4937 1033.4621,-19.7107 1030.5409,-29.8949 1037.5294,-29.4937"/>
</g>
<!-- Node21&#45;&gt;Node16 -->
<g id="edge26" class="edge">
<title>Node21&#45;&gt;Node16</title>
<path fill="none" stroke="#191970" d="M1138.3634,-128.9903C1090.0497,-112.8379 988.0562,-79.5098 900.5,-56 849.7435,-42.3713 791.1203,-29.3145 750.146,-20.6167"/>
<polygon fill="#191970" stroke="#191970" points="750.6318,-17.1422 740.1245,-18.5016 749.1862,-23.9913 750.6318,-17.1422"/>
</g>
<!-- Node21&#45;&gt;Node17 -->
<g id="edge31" class="edge">
<title>Node21&#45;&gt;Node17</title>
<path fill="none" stroke="#191970" d="M1223.1854,-136.0111C1314.0006,-131.1483 1487.2115,-118.0158 1539.5,-87 1562.4327,-73.3971 1578.9962,-46.6353 1588.1745,-28.5298"/>
<polygon fill="#191970" stroke="#191970" points="1591.3365,-30.0302 1592.5073,-19.5002 1585.0255,-27.0018 1591.3365,-30.0302"/>
</g>
<!-- Node21&#45;&gt;Node19 -->
<g id="edge27" class="edge">
<title>Node21&#45;&gt;Node19</title>
<path fill="none" stroke="#191970" d="M1223.3531,-136.0766C1333.5437,-130.7841 1572.0647,-116.2548 1648.5,-87 1670.5032,-78.5785 1670.924,-67.4757 1691.5,-56 1714.8819,-42.9594 1742.7184,-31.4325 1764.666,-23.1793"/>
<polygon fill="#191970" stroke="#191970" points="1766.129,-26.3702 1774.2984,-19.624 1763.7051,-19.8032 1766.129,-26.3702"/>
</g>
<!-- Node22 -->
<g id="node23" class="node">
<title>Node22</title>
<polygon fill="#ffffff" stroke="#bfbfbf" points="546.5,-.5 546.5,-19.5 598.5,-19.5 598.5,-.5 546.5,-.5"/>
<text text-anchor="middle" x="572.5" y="-7.5" font-family="Helvetica,sans-Serif" font-size="10.00" fill="#000000">memory</text>
</g>
<!-- Node21&#45;&gt;Node22 -->
<g id="edge25" class="edge">
<title>Node21&#45;&gt;Node22</title>
<path fill="none" stroke="#191970" d="M1109.5278,-134.3096C975.3558,-124.2707 649.1773,-98.8038 628.5,-87 605.4868,-73.8627 589.3358,-46.9834 580.4771,-28.7249"/>
<polygon fill="#191970" stroke="#191970" points="583.6507,-27.2486 576.3086,-19.6103 577.2848,-30.16 583.6507,-27.2486"/>
</g>
<!-- Node23 -->
<g id="node24" class="node">
<title>Node23</title>
<polygon fill="#ffffff" stroke="#bfbfbf" points="1062,-62 1062,-81 1161,-81 1161,-62 1062,-62"/>
<text text-anchor="middle" x="1111.5" y="-69" font-family="Helvetica,sans-Serif" font-size="10.00" fill="#000000">AMReX_BCRec.H</text>
</g>
<!-- Node21&#45;&gt;Node23 -->
<g id="edge28" class="edge">
<title>Node21&#45;&gt;Node23</title>
<path fill="none" stroke="#191970" d="M1158.6198,-128.9005C1150.1248,-118.552 1136.4176,-101.8542 1125.972,-89.1295"/>
<polygon fill="#191970" stroke="#191970" points="1128.4158,-86.5902 1119.3655,-81.0817 1123.0053,-91.0317 1128.4158,-86.5902"/>
</g>
<!-- Node24 -->
<g id="node25" class="node">
<title>Node24</title>
<polygon fill="#ffffff" stroke="#bfbfbf" points="1179,-62 1179,-81 1264,-81 1264,-62 1179,-62"/>
<text text-anchor="middle" x="1221.5" y="-69" font-family="Helvetica,sans-Serif" font-size="10.00" fill="#000000">AMReX_Gpu.H</text>
</g>
<!-- Node21&#45;&gt;Node24 -->
<g id="edge29" class="edge">
<title>Node21&#45;&gt;Node24</title>
<path fill="none" stroke="#191970" d="M1174.3802,-128.9005C1182.8752,-118.552 1196.5824,-101.8542 1207.028,-89.1295"/>
<polygon fill="#191970" stroke="#191970" points="1209.9947,-91.0317 1213.6345,-81.0817 1204.5842,-86.5902 1209.9947,-91.0317"/>
</g>
<!-- Node25 -->
<g id="node26" class="node">
<title>Node25</title>
<g id="a_node26"><a xlink:href="_view_field_8_h.html" target="_top" xlink:title="amr&#45;wind/core/ViewField.H">
<polygon fill="#ffffff" stroke="#000000" points="1396.5,-62 1396.5,-81 1530.5,-81 1530.5,-62 1396.5,-62"/>
<text text-anchor="middle" x="1463.5" y="-69" font-family="Helvetica,sans-Serif" font-size="10.00" fill="#000000">amr&#45;wind/core/ViewField.H</text>
</a>
</g>
</g>
<!-- Node21&#45;&gt;Node25 -->
<g id="edge32" class="edge">
<title>Node21&#45;&gt;Node25</title>
<path fill="none" stroke="#191970" d="M1208.7374,-128.9717C1261.917,-116.975 1353.277,-96.3651 1410.9239,-83.3606"/>
<polygon fill="#191970" stroke="#191970" points="1411.9428,-86.7188 1420.9274,-81.1039 1410.4023,-79.8904 1411.9428,-86.7188"/>
</g>
<!-- Node25&#45;&gt;Node15 -->
<g id="edge33" class="edge">
<title>Node25&#45;&gt;Node15</title>
<path fill="none" stroke="#191970" d="M1396.7843,-61.9581C1302.2912,-48.4434 1133.2902,-24.2723 1064.2045,-14.3915"/>
<polygon fill="#191970" stroke="#191970" points="1064.3961,-10.8833 1054.0012,-12.9322 1063.4049,-17.8128 1064.3961,-10.8833"/>
</g>
<!-- Node25&#45;&gt;Node17 -->
<g id="edge34" class="edge">
<title>Node25&#45;&gt;Node17</title>
<path fill="none" stroke="#191970" d="M1484.2813,-61.8906C1506.3394,-51.6908 1541.405,-35.4763 1566.4669,-23.8875"/>
<polygon fill="#191970" stroke="#191970" points="1568.2571,-26.9158 1575.8647,-19.5419 1565.3191,-20.5622 1568.2571,-26.9158"/>
</g>
<!-- Node25&#45;&gt;Node19 -->
<g id="edge35" class="edge">
<title>Node25&#45;&gt;Node19</title>
<path fill="none" stroke="#191970" d="M1516.0968,-61.9581C1576.6467,-50.9734 1676.0023,-32.9487 1740.3257,-21.2794"/>
<polygon fill="#191970" stroke="#191970" points="1741.1225,-24.6921 1750.3371,-19.4632 1739.8729,-17.8045 1741.1225,-24.6921"/>
</g>
<!-- Node26 -->
<g id="node27" class="node">
<title>Node26</title>
<polygon fill="#ffffff" stroke="#bfbfbf" points="1321,-.5 1321,-19.5 1416,-19.5 1416,-.5 1321,-.5"/>
<text text-anchor="middle" x="1368.5" y="-7.5" font-family="Helvetica,sans-Serif" font-size="10.00" fill="#000000">AMReX_Vector.H</text>
</g>
<!-- Node25&#45;&gt;Node26 -->
<g id="edge36" class="edge">
<title>Node25&#45;&gt;Node26</title>
<path fill="none" stroke="#191970" d="M1448.6563,-61.8906C1433.4582,-52.0519 1409.6152,-36.6167 1391.8794,-25.1351"/>
<polygon fill="#191970" stroke="#191970" points="1393.5361,-22.0382 1383.2395,-19.5419 1389.732,-27.9144 1393.5361,-22.0382"/>
</g>
<!-- Node27&#45;&gt;Node6 -->
<g id="edge40" class="edge">
<title>Node27&#45;&gt;Node6</title>
<path fill="none" stroke="#191970" d="M1788.8774,-128.9005C1827.4194,-117.1091 1892.9053,-97.0746 1935.4235,-84.0668"/>
<polygon fill="#191970" stroke="#191970" points="1936.6423,-87.3541 1945.1808,-81.0817 1934.5944,-80.6604 1936.6423,-87.3541"/>
</g>
<!-- Node27&#45;&gt;Node15 -->
<g id="edge38" class="edge">
<title>Node27&#45;&gt;Node15</title>
<path fill="none" stroke="#191970" d="M1711.6465,-128.9343C1700.8045,-126.8305 1689.2654,-124.7198 1678.5,-123 1549.8125,-102.4419 1513.8157,-119.0538 1387.5,-87 1350.9411,-77.7228 1344.8527,-66.0547 1308.5,-56 1221.6047,-31.966 1115.586,-18.5548 1064.266,-13.031"/>
<polygon fill="#191970" stroke="#191970" points="1064.4826,-9.5346 1054.1717,-11.971 1063.7515,-16.4963 1064.4826,-9.5346"/>
</g>
<!-- Node27&#45;&gt;Node17 -->
<g id="edge39" class="edge">
<title>Node27&#45;&gt;Node17</title>
<path fill="none" stroke="#191970" d="M1779.2361,-128.9414C1810.1692,-114.038 1860.7076,-84.0562 1837.5,-56 1818.5079,-33.04 1748.2946,-21.4368 1688.5182,-15.6347"/>
<polygon fill="#191970" stroke="#191970" points="1688.5406,-12.1219 1678.2605,-14.6849 1687.8951,-19.0921 1688.5406,-12.1219"/>
</g>
<!-- Node28&#45;&gt;Node15 -->
<g id="edge42" class="edge">
<title>Node28&#45;&gt;Node15</title>
<path fill="none" stroke="#191970" d="M1523.4926,-133.9192C1465.4522,-128.2176 1383.2151,-115.4639 1316.5,-87 1294.8301,-77.7546 1295.1352,-65.3263 1273.5,-56 1202.6577,-25.4618 1111.3684,-15.098 1064.4204,-11.6561"/>
<polygon fill="#191970" stroke="#191970" points="1064.5003,-8.1537 1054.2871,-10.9716 1064.0285,-15.1377 1064.5003,-8.1537"/>
</g>
<!-- Node28&#45;&gt;Node17 -->
<g id="edge43" class="edge">
<title>Node28&#45;&gt;Node17</title>
<path fill="none" stroke="#191970" d="M1596.5,-128.8416C1596.5,-107.9114 1596.5,-58.004 1596.5,-29.9762"/>
<polygon fill="#191970" stroke="#191970" points="1600.0001,-29.7704 1596.5,-19.7705 1593.0001,-29.7705 1600.0001,-29.7704"/>
</g>
<!-- Node28&#45;&gt;Node19 -->
<g id="edge45" class="edge">
<title>Node28&#45;&gt;Node19</title>
<path fill="none" stroke="#191970" d="M1649.1932,-128.9705C1718.2982,-116.2232 1831.5383,-94.3702 1837.5,-87 1852.182,-68.849 1835.1292,-43.5453 1820.0956,-26.9734"/>
<polygon fill="#191970" stroke="#191970" points="1822.476,-24.399 1813.0256,-19.6092 1817.4264,-29.2469 1822.476,-24.399"/>
</g>
<!-- Node28&#45;&gt;Node25 -->
<g id="edge44" class="edge">
<title>Node28&#45;&gt;Node25</title>
<path fill="none" stroke="#191970" d="M1577.4443,-128.9005C1555.0252,-117.6067 1517.5946,-98.7506 1491.7868,-85.7497"/>
<polygon fill="#191970" stroke="#191970" points="1493.0258,-82.4549 1482.5203,-81.0817 1489.8765,-88.7065 1493.0258,-82.4549"/>
</g>
<!-- Node28&#45;&gt;Node26 -->
<g id="edge46" class="edge">
<title>Node28&#45;&gt;Node26</title>
<path fill="none" stroke="#191970" d="M1525.3924,-128.9593C1472.7303,-120.4694 1406.8922,-106.3859 1387.5,-87 1372.4826,-71.9874 1368.6634,-47.1187 1368.0004,-29.7171"/>
<polygon fill="#191970" stroke="#191970" points="1371.4993,-29.5157 1367.9345,-19.5386 1364.4994,-29.5611 1371.4993,-29.5157"/>
</g>
<!-- Node29 -->
<g id="node30" class="node">
<title>Node29</title>
<polygon fill="#ffffff" stroke="#bfbfbf" points="1700.5,-62 1700.5,-81 1828.5,-81 1828.5,-62 1700.5,-62"/>
<text text-anchor="middle" x="1764.5" y="-69" font-family="Helvetica,sans-Serif" font-size="10.00" fill="#000000">AMReX_PhysBCFunct.H</text>
</g>
<!-- Node28&#45;&gt;Node29 -->
<g id="edge47" class="edge">
<title>Node28&#45;&gt;Node29</title>
<path fill="none" stroke="#191970" d="M1620.5703,-128.9005C1649.513,-117.3579 1698.2621,-97.9163 1730.9017,-84.8993"/>
<polygon fill="#191970" stroke="#191970" points="1732.4823,-88.0371 1740.4743,-81.0817 1729.8892,-81.5351 1732.4823,-88.0371"/>
</g>
<!-- Node30&#45;&gt;Node8 -->
<g id="edge67" class="edge">
<title>Node30&#45;&gt;Node8</title>
<path fill="none" stroke="#191970" d="M494.4974,-123.4639C448.8645,-111.4269 385.6975,-94.7647 343.3092,-83.5835"/>
<polygon fill="#191970" stroke="#191970" points="344.097,-80.1717 333.535,-81.0053 342.3115,-86.9402 344.097,-80.1717"/>
</g>
<!-- Node30&#45;&gt;Node15 -->
<g id="edge52" class="edge">
<title>Node30&#45;&gt;Node15</title>
<path fill="none" stroke="#191970" d="M560.7677,-123.2482C573.4222,-103.935 598.0521,-71.332 628.5,-56 694.1965,-22.9187 920.2685,-13.2311 1002.9234,-10.7582"/>
<polygon fill="#191970" stroke="#191970" points="1003.0437,-14.2563 1012.9401,-10.4732 1002.8446,-7.2591 1003.0437,-14.2563"/>
</g>
<!-- Node30&#45;&gt;Node17 -->
<g id="edge66" class="edge">
<title>Node30&#45;&gt;Node17</title>
<path fill="none" stroke="#191970" d="M621.245,-124.5756C624.3699,-124.0275 627.4659,-123.4994 630.5,-123 749.9544,-103.3367 781.1068,-107.0316 900.5,-87 968.9254,-75.5197 984.8187,-65.8336 1053.5,-56 1138.0439,-43.8953 1373.4202,-25.9845 1504.8257,-16.478"/>
<polygon fill="#191970" stroke="#191970" points="1505.1576,-19.9633 1514.8796,-15.7524 1504.6536,-12.9814 1505.1576,-19.9633"/>
</g>
<!-- Node31 -->
<g id="node32" class="node">
<title>Node31</title>
<g id="a_node32"><a xlink:href="_factory_8_h.html" target="_top" xlink:title="amr&#45;wind/core/Factory.H">
<polygon fill="#ffffff" stroke="#000000" points="380,-62 380,-81 505,-81 505,-62 380,-62"/>
<text text-anchor="middle" x="442.5" y="-69" font-family="Helvetica,sans-Serif" font-size="10.00" fill="#000000">amr&#45;wind/core/Factory.H</text>
</a>
</g>
</g>
<!-- Node30&#45;&gt;Node31 -->
<g id="edge53" class="edge">
<title>Node30&#45;&gt;Node31</title>
<path fill="none" stroke="#191970" d="M527.0383,-123.4639C509.079,-112.4247 484.7911,-97.4954 466.8566,-86.4715"/>
<polygon fill="#191970" stroke="#191970" points="468.4764,-83.3588 458.1243,-81.1039 464.8107,-89.3223 468.4764,-83.3588"/>
</g>
<!-- Node35 -->
<g id="node36" class="node">
<title>Node35</title>
<g id="a_node36"><a xlink:href="_coll_mgr_8_h.html" target="_top" xlink:title="amr&#45;wind/core/CollMgr.H">
<polygon fill="#ffffff" stroke="#000000" points="638,-62 638,-81 763,-81 763,-62 638,-62"/>
<text text-anchor="middle" x="700.5" y="-69" font-family="Helvetica,sans-Serif" font-size="10.00" fill="#000000">amr&#45;wind/core/CollMgr.H</text>
</a>
</g>
</g>
<!-- Node30&#45;&gt;Node35 -->
<g id="edge59" class="edge">
<title>Node30&#45;&gt;Node35</title>
<path fill="none" stroke="#191970" d="M584.9385,-123.4639C610.3893,-112.0196 645.1377,-96.3945 669.8683,-85.274"/>
<polygon fill="#191970" stroke="#191970" points="671.4571,-88.3972 679.142,-81.1039 668.5863,-82.013 671.4571,-88.3972"/>
</g>
<!-- Node36 -->
<g id="node37" class="node">
<title>Node36</title>
<g id="a_node37"><a xlink:href="_p_d_e_fields_8_h.html" target="_top" xlink:title="amr&#45;wind/equation_systems\l/PDEFields.H">
<polygon fill="#ffffff" stroke="#000000" points="76,-56.5 76,-86.5 215,-86.5 215,-56.5 76,-56.5"/>
<text text-anchor="start" x="84" y="-74.5" font-family="Helvetica,sans-Serif" font-size="10.00" fill="#000000">amr&#45;wind/equation_systems</text>
<text text-anchor="middle" x="145.5" y="-63.5" font-family="Helvetica,sans-Serif" font-size="10.00" fill="#000000">/PDEFields.H</text>
</a>
</g>
</g>
<!-- Node30&#45;&gt;Node36 -->
<g id="edge64" class="edge">
<title>Node30&#45;&gt;Node36</title>
<path fill="none" stroke="#191970" d="M481.7476,-124.6197C478.6247,-124.0597 475.5311,-123.517 472.5,-123 365.8176,-104.8028 335.9665,-105.6614 225.1519,-87.0575"/>
<polygon fill="#191970" stroke="#191970" points="225.6966,-83.6 215.2524,-85.3803 224.5272,-90.5017 225.6966,-83.6"/>
</g>
<!-- Node31&#45;&gt;Node16 -->
<g id="edge55" class="edge">
<title>Node31&#45;&gt;Node16</title>
<path fill="none" stroke="#191970" d="M482.2191,-61.9581C527.0603,-51.1857 600.0843,-33.6428 648.7025,-21.9631"/>
<polygon fill="#191970" stroke="#191970" points="649.7819,-25.3034 658.6877,-19.5643 648.1468,-18.4971 649.7819,-25.3034"/>
</g>
<!-- Node31&#45;&gt;Node22 -->
<g id="edge54" class="edge">
<title>Node31&#45;&gt;Node22</title>
<path fill="none" stroke="#191970" d="M462.8125,-61.8906C484.3731,-51.6908 518.6478,-35.4763 543.1444,-23.8875"/>
<polygon fill="#191970" stroke="#191970" points="544.7874,-26.9822 552.3301,-19.5419 541.7939,-20.6545 544.7874,-26.9822"/>
</g>
<!-- Node32 -->
<g id="node33" class="node">
<title>Node32</title>
<polygon fill="#ffffff" stroke="#bfbfbf" points="288.5,-.5 288.5,-19.5 342.5,-19.5 342.5,-.5 288.5,-.5"/>
<text text-anchor="middle" x="315.5" y="-7.5" font-family="Helvetica,sans-Serif" font-size="10.00" fill="#000000">iostream</text>
</g>
<!-- Node31&#45;&gt;Node32 -->
<g id="edge56" class="edge">
<title>Node31&#45;&gt;Node32</title>
<path fill="none" stroke="#191970" d="M422.6563,-61.8906C401.6864,-51.7359 368.4056,-35.6196 344.4964,-24.0416"/>
<polygon fill="#191970" stroke="#191970" points="345.7301,-20.7502 335.2044,-19.5419 342.6792,-27.0504 345.7301,-20.7502"/>
</g>
<!-- Node33 -->
<g id="node34" class="node">
<title>Node33</title>
<polygon fill="#ffffff" stroke="#bfbfbf" points="361,-.5 361,-19.5 448,-19.5 448,-.5 361,-.5"/>
<text text-anchor="middle" x="404.5" y="-7.5" font-family="Helvetica,sans-Serif" font-size="10.00" fill="#000000">AMReX_Print.H</text>
</g>
<!-- Node31&#45;&gt;Node33 -->
<g id="edge57" class="edge">
<title>Node31&#45;&gt;Node33</title>
<path fill="none" stroke="#191970" d="M436.5625,-61.8906C431.0733,-53.0068 422.7647,-39.5601 415.981,-28.5811"/>
<polygon fill="#191970" stroke="#191970" points="418.7551,-26.4122 410.5212,-19.7449 412.8002,-30.0917 418.7551,-26.4122"/>
</g>
<!-- Node34 -->
<g id="node35" class="node">
<title>Node34</title>
<polygon fill="#ffffff" stroke="#bfbfbf" points="466.5,-.5 466.5,-19.5 528.5,-19.5 528.5,-.5 466.5,-.5"/>
<text text-anchor="middle" x="497.5" y="-7.5" font-family="Helvetica,sans-Serif" font-size="10.00" fill="#000000">AMReX.H</text>
</g>
<!-- Node31&#45;&gt;Node34 -->
<g id="edge58" class="edge">
<title>Node31&#45;&gt;Node34</title>
<path fill="none" stroke="#191970" d="M451.0938,-61.8906C459.3597,-52.6478 472.0426,-38.466 482.0617,-27.2628"/>
<polygon fill="#191970" stroke="#191970" points="484.7278,-29.5321 488.7851,-19.7449 479.51,-24.8657 484.7278,-29.5321"/>
</g>
<!-- Node35&#45;&gt;Node15 -->
<g id="edge60" class="edge">
<title>Node35&#45;&gt;Node15</title>
<path fill="none" stroke="#191970" d="M743.4677,-61.9736C753.0121,-59.9346 763.0887,-57.8417 772.5,-56 855.5837,-39.7414 954.0668,-23.091 1002.892,-15.0111"/>
<polygon fill="#191970" stroke="#191970" points="1003.5151,-18.4557 1012.812,-13.3745 1002.3756,-11.5491 1003.5151,-18.4557"/>
</g>
<!-- Node35&#45;&gt;Node16 -->
<g id="edge62" class="edge">
<title>Node35&#45;&gt;Node16</title>
<path fill="none" stroke="#191970" d="M700.1875,-61.8906C699.9103,-53.3657 699.4964,-40.6392 699.1479,-29.9235"/>
<polygon fill="#191970" stroke="#191970" points="702.6402,-29.6258 698.8169,-19.7449 695.6439,-29.8534 702.6402,-29.6258"/>
</g>
<!-- Node35&#45;&gt;Node22 -->
<g id="edge61" class="edge">
<title>Node35&#45;&gt;Node22</title>
<path fill="none" stroke="#191970" d="M680.5,-61.8906C659.2711,-51.6908 625.5238,-35.4763 601.404,-23.8875"/>
<polygon fill="#191970" stroke="#191970" points="602.8889,-20.7179 592.3596,-19.5419 599.8574,-27.0275 602.8889,-20.7179"/>
</g>
<!-- Node35&#45;&gt;Node26 -->
<g id="edge63" class="edge">
<title>Node35&#45;&gt;Node26</title>
<path fill="none" stroke="#191970" d="M740.314,-61.9257C750.7374,-59.6953 761.998,-57.5286 772.5,-56 968.5433,-27.4659 1203.613,-15.9087 1310.5002,-11.8757"/>
<polygon fill="#191970" stroke="#191970" points="1310.8815,-15.3641 1320.7455,-11.4975 1310.6232,-8.3689 1310.8815,-15.3641"/>
</g>
<!-- Node37 -->
<g id="node38" class="node">
<title>Node37</title>
<polygon fill="#ffffff" stroke="#bfbfbf" points="123,-.5 123,-19.5 168,-19.5 168,-.5 123,-.5"/>
<text text-anchor="middle" x="145.5" y="-7.5" font-family="Helvetica,sans-Serif" font-size="10.00" fill="#000000">iosfwd</text>
</g>
<!-- Node36&#45;&gt;Node37 -->
<g id="edge65" class="edge">
<title>Node36&#45;&gt;Node37</title>
<path fill="none" stroke="#191970" d="M145.5,-56.2977C145.5,-48.3834 145.5,-38.6043 145.5,-30.0759"/>
<polygon fill="#191970" stroke="#191970" points="149.0001,-29.8469 145.5,-19.8469 142.0001,-29.847 149.0001,-29.8469"/>
</g>
<!-- Node38&#45;&gt;Node19 -->
<g id="edge71" class="edge">
<title>Node38&#45;&gt;Node19</title>
<path fill="none" stroke="#191970" d="M929.19,-134.3939C1085.6555,-124.198 1480.4774,-97.7732 1539.5,-87 1550.5826,-84.9771 1689.2726,-43.7857 1760.649,-22.5008"/>
<polygon fill="#191970" stroke="#191970" points="1762.0861,-25.7246 1770.6683,-19.5119 1760.085,-19.0167 1762.0861,-25.7246"/>
</g>
<!-- Node38&#45;&gt;Node31 -->
<g id="edge69" class="edge">
<title>Node38&#45;&gt;Node31</title>
<path fill="none" stroke="#191970" d="M801.754,-129.4087C717.1687,-117.2765 572.3682,-96.2495 519.5,-87 512.4817,-85.7721 505.1206,-84.3998 497.8491,-82.9931"/>
<polygon fill="#191970" stroke="#191970" points="498.5167,-79.5574 488.0296,-81.0639 497.1672,-86.4261 498.5167,-79.5574"/>
</g>
<!-- Node38&#45;&gt;Node35 -->
<g id="edge70" class="edge">
<title>Node38&#45;&gt;Node35</title>
<path fill="none" stroke="#191970" d="M841.8595,-128.9005C813.4336,-117.3579 765.5551,-97.9163 733.4983,-84.8993"/>
<polygon fill="#191970" stroke="#191970" points="734.6787,-81.6011 724.0966,-81.0817 732.0451,-88.0868 734.6787,-81.6011"/>
</g>
<!-- Node39 -->
<g id="node40" class="node">
<title>Node39</title>
<polygon fill="#ffffff" stroke="#bfbfbf" points="781.5,-62 781.5,-81 891.5,-81 891.5,-62 781.5,-62"/>
<text text-anchor="middle" x="836.5" y="-69" font-family="Helvetica,sans-Serif" font-size="10.00" fill="#000000">AMReX_Geometry.H</text>
</g>
<!-- Node38&#45;&gt;Node39 -->
<g id="edge72" class="edge">
<title>Node38&#45;&gt;Node39</title>
<path fill="none" stroke="#191970" d="M861.345,-128.9005C857.0381,-118.95 850.1903,-103.1292 844.7735,-90.6147"/>
<polygon fill="#191970" stroke="#191970" points="847.8316,-88.8686 840.6473,-81.0817 841.4075,-91.6492 847.8316,-88.8686"/>
</g>
</g>
</svg>
        <g id="navigator" transform="translate(0 0)" fill="#404254">
                <rect fill="#f2f5e9" fill-opacity="0.5" stroke="#606060" stroke-width=".5" x="0" y="0" width="60" height="60"/>
                <use id="zoomplus" xlink:href="#zoomPlus" x="17" y="9" onmousedown="handleZoom(evt,'in')"/>
                <use id="zoomminus" xlink:href="#zoomMin" x="42" y="9" onmousedown="handleZoom(evt,'out')"/>
                <use id="reset" xlink:href="#resetDef" x="30" y="36" onmousedown="handleReset()"/>
                <g id="arrowUp" xlink:href="#dirArrow" transform="translate(30 24)" onmousedown="handlePan(0,-1)">
                  <use xlink:href="#rim" fill="#404040">
                        <set attributeName="fill" to="#808080" begin="arrowUp.mouseover" end="arrowUp.mouseout"/>
                  </use>
                  <path fill="none" stroke="white" stroke-width="1.5" d="M0,-3.0v7 M-2.5,-0.5L0,-3.0L2.5,-0.5"/>
                </g>
                <g id="arrowRight" xlink:href="#dirArrow" transform="rotate(90) translate(36 -43)" onmousedown="handlePan(1,0)">
                  <use xlink:href="#rim" fill="#404040">
                        <set attributeName="fill" to="#808080" begin="arrowRight.mouseover" end="arrowRight.mouseout"/>
                  </use>
                  <path fill="none" stroke="white" stroke-width="1.5" d="M0,-3.0v7 M-2.5,-0.5L0,-3.0L2.5,-0.5"/>
                </g>
                <g id="arrowDown" xlink:href="#dirArrow" transform="rotate(180) translate(-30 -48)" onmousedown="handlePan(0,1)">
                  <use xlink:href="#rim" fill="#404040">
                        <set attributeName="fill" to="#808080" begin="arrowDown.mouseover" end="arrowDown.mouseout"/>
                  </use>
                  <path fill="none" stroke="white" stroke-width="1.5" d="M0,-3.0v7 M-2.5,-0.5L0,-3.0L2.5,-0.5"/>
                </g>
                <g id="arrowLeft" xlink:href="#dirArrow" transform="rotate(270) translate(-36 17)" onmousedown="handlePan(-1,0)">
                  <use xlink:href="#rim" fill="#404040">
                        <set attributeName="fill" to="#808080" begin="arrowLeft.mouseover" end="arrowLeft.mouseout"/>
                  </use>
                  <path fill="none" stroke="white" stroke-width="1.5" d="M0,-3.0v7 M-2.5,-0.5L0,-3.0L2.5,-0.5"/>
                </g>
        </g>
        <svg viewBox="0 0 15 15" width="100%" height="30px" preserveAspectRatio="xMaxYMin meet">
         <g id="arrow_out" transform="scale(0.3 0.3)">
          <a xlink:href="derive_8cpp__incl_org.svg" target="_base">
           <rect id="button" ry="5" rx="5" y="6" x="6" height="38" width="38"
                fill="#f2f5e9" fill-opacity="0.5" stroke="#606060" stroke-width="1.0"/>
           <path id="arrow"
             d="M 11.500037,31.436501 C 11.940474,20.09759 22.043105,11.32322 32.158766,21.979434 L 37.068811,17.246167 C 37.068811,17.246167 37.088388,32 37.088388,32 L 22.160133,31.978069 C 22.160133,31.978069 26.997745,27.140456 26.997745,27.140456 C 18.528582,18.264221 13.291696,25.230495 11.500037,31.436501 z"
             style="fill:#404040;"/>
          </a>
         </g>
        </svg>
</svg>
