<?xml version="1.0" encoding="UTF-8" standalone="no"?>
<!DOCTYPE svg PUBLIC "-//W3C//DTD SVG 1.1//EN"
 "http://www.w3.org/Graphics/SVG/1.1/DTD/svg11.dtd">
<!-- Generated by graphviz version 2.40.1 (20161225.0304)
 -->
<!-- Title: diffusion.H Pages: 1 -->
<svg width="1173pt" height="308pt"
 viewBox="0.00 0.00 1173.00 308.00" xmlns="http://www.w3.org/2000/svg" xmlns:xlink="http://www.w3.org/1999/xlink">
<g id="graph0" class="graph" transform="scale(1 1) rotate(0) translate(4 304)">
<title>diffusion.H</title>
<polygon fill="#ffffff" stroke="transparent" points="-4,4 -4,-304 1169,-304 1169,4 -4,4"/>
<!-- Node21 -->
<g id="node1" class="node">
<title>Node21</title>
<polygon fill="#bfbfbf" stroke="#000000" points="702.5,-280.5 702.5,-299.5 766.5,-299.5 766.5,-280.5 702.5,-280.5"/>
<text text-anchor="middle" x="734.5" y="-287.5" font-family="Helvetica,sans-Serif" font-size="10.00" fill="#000000">diffusion.H</text>
</g>
<!-- Node22 -->
<g id="node2" class="node">
<title>Node22</title>
<g id="a_node2"><a xlink:href="incflo__diffusion_8cpp.html" target="_top" xlink:title="incflo_diffusion.cpp">
<polygon fill="#ffffff" stroke="#000000" points="573,-224.5 573,-243.5 674,-243.5 674,-224.5 573,-224.5"/>
<text text-anchor="middle" x="623.5" y="-231.5" font-family="Helvetica,sans-Serif" font-size="10.00" fill="#000000">incflo_diffusion.cpp</text>
</a>
</g>
</g>
<!-- Node21&#45;&gt;Node22 -->
<g id="edge1" class="edge">
<title>Node21&#45;&gt;Node22</title>
<path fill="none" stroke="#191970" d="M706.4266,-275.8368C686.3615,-265.7139 659.9078,-252.3679 642.3326,-243.5011"/>
<polygon fill="#191970" stroke="#191970" points="704.9138,-278.9938 715.4184,-280.3733 708.0668,-272.7441 704.9138,-278.9938"/>
</g>
<!-- Node23 -->
<g id="node3" class="node">
<title>Node23</title>
<g id="a_node3"><a xlink:href="_diffusion_ops_8_h.html" target="_top" xlink:title="DiffusionOps.H">
<polygon fill="#ffffff" stroke="#000000" points="692.5,-224.5 692.5,-243.5 776.5,-243.5 776.5,-224.5 692.5,-224.5"/>
<text text-anchor="middle" x="734.5" y="-231.5" font-family="Helvetica,sans-Serif" font-size="10.00" fill="#000000">DiffusionOps.H</text>
</a>
</g>
</g>
<!-- Node21&#45;&gt;Node23 -->
<g id="edge2" class="edge">
<title>Node21&#45;&gt;Node23</title>
<path fill="none" stroke="#191970" d="M734.5,-270.1575C734.5,-261.155 734.5,-250.9199 734.5,-243.6427"/>
<polygon fill="#191970" stroke="#191970" points="731.0001,-270.2455 734.5,-280.2455 738.0001,-270.2456 731.0001,-270.2455"/>
</g>
<!-- Node47 -->
<g id="node27" class="node">
<title>Node47</title>
<g id="a_node27"><a xlink:href="_a_b_l_wall_function_8cpp.html" target="_top" xlink:title="ABLWallFunction.cpp">
<polygon fill="#ffffff" stroke="#000000" points="794,-224.5 794,-243.5 905,-243.5 905,-224.5 794,-224.5"/>
<text text-anchor="middle" x="849.5" y="-231.5" font-family="Helvetica,sans-Serif" font-size="10.00" fill="#000000">ABLWallFunction.cpp</text>
</a>
</g>
</g>
<!-- Node21&#45;&gt;Node47 -->
<g id="edge34" class="edge">
<title>Node21&#45;&gt;Node47</title>
<path fill="none" stroke="#191970" d="M763.3033,-275.9741C784.125,-265.8348 811.6978,-252.408 829.9888,-243.5011"/>
<polygon fill="#191970" stroke="#191970" points="761.7276,-272.8484 754.2692,-280.3733 764.7922,-279.1419 761.7276,-272.8484"/>
</g>
<!-- Node24 -->
<g id="node4" class="node">
<title>Node24</title>
<g id="a_node4"><a xlink:href="_p_d_e_8_h.html" target="_top" xlink:title="PDE.H">
<polygon fill="#ffffff" stroke="#000000" points="359.5,-168.5 359.5,-187.5 407.5,-187.5 407.5,-168.5 359.5,-168.5"/>
<text text-anchor="middle" x="383.5" y="-175.5" font-family="Helvetica,sans-Serif" font-size="10.00" fill="#000000">PDE.H</text>
</a>
</g>
</g>
<!-- Node23&#45;&gt;Node24 -->
<g id="edge3" class="edge">
<title>Node23&#45;&gt;Node24</title>
<path fill="none" stroke="#191970" d="M682.1156,-223.8113C573.8907,-205.0863 457.1675,-188.3119 407.6651,-181.3583"/>
<polygon fill="#191970" stroke="#191970" points="681.7722,-227.3041 692.2243,-225.5705 682.9724,-220.4078 681.7722,-227.3041"/>
</g>
<!-- Node30 -->
<g id="node10" class="node">
<title>Node30</title>
<g id="a_node10"><a xlink:href="icns__ops_8_h.html" target="_top" xlink:title="icns_ops.H">
<polygon fill="#ffffff" stroke="#000000" points="624.5,-56.5 624.5,-75.5 690.5,-75.5 690.5,-56.5 624.5,-56.5"/>
<text text-anchor="middle" x="657.5" y="-63.5" font-family="Helvetica,sans-Serif" font-size="10.00" fill="#000000">icns_ops.H</text>
</a>
</g>
</g>
<!-- Node23&#45;&gt;Node30 -->
<g id="edge32" class="edge">
<title>Node23&#45;&gt;Node30</title>
<path fill="none" stroke="#191970" d="M725.8782,-215.1887C709.5099,-179.4762 674.4578,-102.9988 662.0044,-75.8279"/>
<polygon fill="#191970" stroke="#191970" points="722.7912,-216.8539 730.1395,-224.4862 729.1547,-213.9373 722.7912,-216.8539"/>
</g>
<!-- Node33 -->
<g id="node13" class="node">
<title>Node33</title>
<g id="a_node13"><a xlink:href="icns__diffusion_8_h.html" target="_top" xlink:title="icns_diffusion.H">
<polygon fill="#ffffff" stroke="#000000" points="963,-56.5 963,-75.5 1050,-75.5 1050,-56.5 963,-56.5"/>
<text text-anchor="middle" x="1006.5" y="-63.5" font-family="Helvetica,sans-Serif" font-size="10.00" fill="#000000">icns_diffusion.H</text>
</a>
</g>
</g>
<!-- Node23&#45;&gt;Node33 -->
<g id="edge33" class="edge">
<title>Node23&#45;&gt;Node33</title>
<path fill="none" stroke="#191970" d="M753.8275,-217.7958C770.8584,-203.8555 796.6076,-183.5883 820.5,-168 878.6413,-130.0664 952.0058,-92.6937 986.6519,-75.6227"/>
<polygon fill="#191970" stroke="#191970" points="751.2524,-215.3832 745.7722,-224.4506 755.7108,-220.7798 751.2524,-215.3832"/>
</g>
<!-- Node46 -->
<g id="node26" class="node">
<title>Node46</title>
<g id="a_node26"><a xlink:href="_diffusion_ops_8cpp.html" target="_top" xlink:title="DiffusionOps.cpp">
<polygon fill="#ffffff" stroke="#000000" points="829.5,-168.5 829.5,-187.5 921.5,-187.5 921.5,-168.5 829.5,-168.5"/>
<text text-anchor="middle" x="875.5" y="-175.5" font-family="Helvetica,sans-Serif" font-size="10.00" fill="#000000">DiffusionOps.cpp</text>
</a>
</g>
</g>
<!-- Node23&#45;&gt;Node46 -->
<g id="edge31" class="edge">
<title>Node23&#45;&gt;Node46</title>
<path fill="none" stroke="#191970" d="M768.1032,-220.6541C793.8159,-210.4419 828.6461,-196.6086 851.5775,-187.5011"/>
<polygon fill="#191970" stroke="#191970" points="766.7407,-217.4292 758.7388,-224.3733 769.3245,-223.9349 766.7407,-217.4292"/>
</g>
<!-- Node25 -->
<g id="node5" class="node">
<title>Node25</title>
<g id="a_node5"><a xlink:href="density_8_h.html" target="_top" xlink:title="density.H">
<polygon fill="#ffffff" stroke="#000000" points="252,-112.5 252,-131.5 311,-131.5 311,-112.5 252,-112.5"/>
<text text-anchor="middle" x="281.5" y="-119.5" font-family="Helvetica,sans-Serif" font-size="10.00" fill="#000000">density.H</text>
</a>
</g>
</g>
<!-- Node24&#45;&gt;Node25 -->
<g id="edge4" class="edge">
<title>Node24&#45;&gt;Node25</title>
<path fill="none" stroke="#191970" d="M356.766,-163.3225C338.5468,-153.3198 314.9402,-140.3593 299.0634,-131.6427"/>
<polygon fill="#191970" stroke="#191970" points="355.2827,-166.5009 365.733,-168.2455 358.6516,-160.3649 355.2827,-166.5009"/>
</g>
<!-- Node28 -->
<g id="node8" class="node">
<title>Node28</title>
<g id="a_node8"><a xlink:href="icns_8_h.html" target="_top" xlink:title="icns.H">
<polygon fill="#ffffff" stroke="#000000" points="728,-112.5 728,-131.5 773,-131.5 773,-112.5 728,-112.5"/>
<text text-anchor="middle" x="750.5" y="-119.5" font-family="Helvetica,sans-Serif" font-size="10.00" fill="#000000">icns.H</text>
</a>
</g>
</g>
<!-- Node24&#45;&gt;Node28 -->
<g id="edge8" class="edge">
<title>Node24&#45;&gt;Node28</title>
<path fill="none" stroke="#191970" d="M417.7702,-172.7708C491.8981,-161.4597 665.4679,-134.9749 727.7504,-125.4713"/>
<polygon fill="#191970" stroke="#191970" points="416.9375,-169.3572 407.5799,-174.3257 417.9935,-176.2771 416.9375,-169.3572"/>
</g>
<!-- Node36 -->
<g id="node16" class="node">
<title>Node36</title>
<g id="a_node16"><a xlink:href="levelset_8_h.html" target="_top" xlink:title="levelset.H">
<polygon fill="#ffffff" stroke="#000000" points="38,-112.5 38,-131.5 99,-131.5 99,-112.5 38,-112.5"/>
<text text-anchor="middle" x="68.5" y="-119.5" font-family="Helvetica,sans-Serif" font-size="10.00" fill="#000000">levelset.H</text>
</a>
</g>
</g>
<!-- Node24&#45;&gt;Node36 -->
<g id="edge20" class="edge">
<title>Node24&#45;&gt;Node36</title>
<path fill="none" stroke="#191970" d="M349.2859,-171.9175C287.4971,-160.9328 158.2335,-137.9526 99.1501,-127.4489"/>
<polygon fill="#191970" stroke="#191970" points="348.8472,-175.3943 359.3055,-173.6988 350.0725,-168.5024 348.8472,-175.3943"/>
</g>
<!-- Node39 -->
<g id="node19" class="node">
<title>Node39</title>
<g id="a_node19"><a xlink:href="_s_d_r_8_h.html" target="_top" xlink:title="SDR.H">
<polygon fill="#ffffff" stroke="#000000" points="158,-112.5 158,-131.5 207,-131.5 207,-112.5 158,-112.5"/>
<text text-anchor="middle" x="182.5" y="-119.5" font-family="Helvetica,sans-Serif" font-size="10.00" fill="#000000">SDR.H</text>
</a>
</g>
</g>
<!-- Node24&#45;&gt;Node39 -->
<g id="edge24" class="edge">
<title>Node24&#45;&gt;Node39</title>
<path fill="none" stroke="#191970" d="M349.5948,-168.5538C309.2581,-157.3157 242.8946,-138.8263 207.1458,-128.8665"/>
<polygon fill="#191970" stroke="#191970" points="348.6822,-171.9328 359.2547,-171.2451 350.561,-165.1896 348.6822,-171.9328"/>
</g>
<!-- Node41 -->
<g id="node21" class="node">
<title>Node41</title>
<g id="a_node21"><a xlink:href="temperature_8_h.html" target="_top" xlink:title="temperature.H">
<polygon fill="#ffffff" stroke="#000000" points="344,-112.5 344,-131.5 423,-131.5 423,-112.5 344,-112.5"/>
<text text-anchor="middle" x="383.5" y="-119.5" font-family="Helvetica,sans-Serif" font-size="10.00" fill="#000000">temperature.H</text>
</a>
</g>
</g>
<!-- Node24&#45;&gt;Node41 -->
<g id="edge26" class="edge">
<title>Node24&#45;&gt;Node41</title>
<path fill="none" stroke="#191970" d="M383.5,-158.1575C383.5,-149.155 383.5,-138.9199 383.5,-131.6427"/>
<polygon fill="#191970" stroke="#191970" points="380.0001,-158.2455 383.5,-168.2455 387.0001,-158.2456 380.0001,-158.2455"/>
</g>
<!-- Node43 -->
<g id="node23" class="node">
<title>Node43</title>
<g id="a_node23"><a xlink:href="_t_k_e_8_h.html" target="_top" xlink:title="TKE.H">
<polygon fill="#ffffff" stroke="#000000" points="449,-112.5 449,-131.5 496,-131.5 496,-112.5 449,-112.5"/>
<text text-anchor="middle" x="472.5" y="-119.5" font-family="Helvetica,sans-Serif" font-size="10.00" fill="#000000">TKE.H</text>
</a>
</g>
</g>
<!-- Node24&#45;&gt;Node43 -->
<g id="edge28" class="edge">
<title>Node24&#45;&gt;Node43</title>
<path fill="none" stroke="#191970" d="M407.7064,-162.769C423.4775,-152.8456 443.576,-140.1994 457.175,-131.6427"/>
<polygon fill="#191970" stroke="#191970" points="405.6026,-159.9575 399.0026,-168.2455 409.3305,-165.8823 405.6026,-159.9575"/>
</g>
<!-- Node26 -->
<g id="node6" class="node">
<title>Node26</title>
<g id="a_node6"><a xlink:href="density_8cpp.html" target="_top" xlink:title="density.cpp">
<polygon fill="#ffffff" stroke="#000000" points="214,-.5 214,-19.5 281,-19.5 281,-.5 214,-.5"/>
<text text-anchor="middle" x="247.5" y="-7.5" font-family="Helvetica,sans-Serif" font-size="10.00" fill="#000000">density.cpp</text>
</a>
</g>
</g>
<!-- Node25&#45;&gt;Node26 -->
<g id="edge5" class="edge">
<title>Node25&#45;&gt;Node26</title>
<path fill="none" stroke="#191970" d="M257.5955,-106.2861C247.8842,-98.4665 237.7337,-88.0919 232.5,-76 224.2852,-57.0206 234.4556,-32.9426 241.6143,-19.7472"/>
<polygon fill="#191970" stroke="#191970" points="255.7766,-109.2962 265.882,-112.4791 259.9671,-103.6891 255.7766,-109.2962"/>
</g>
<!-- Node27 -->
<g id="node7" class="node">
<title>Node27</title>
<g id="a_node7"><a xlink:href="density__ops_8_h.html" target="_top" xlink:title="density_ops.H">
<polygon fill="#ffffff" stroke="#000000" points="241.5,-56.5 241.5,-75.5 321.5,-75.5 321.5,-56.5 241.5,-56.5"/>
<text text-anchor="middle" x="281.5" y="-63.5" font-family="Helvetica,sans-Serif" font-size="10.00" fill="#000000">density_ops.H</text>
</a>
</g>
</g>
<!-- Node25&#45;&gt;Node27 -->
<g id="edge6" class="edge">
<title>Node25&#45;&gt;Node27</title>
<path fill="none" stroke="#191970" d="M281.5,-102.1575C281.5,-93.155 281.5,-82.9199 281.5,-75.6427"/>
<polygon fill="#191970" stroke="#191970" points="278.0001,-102.2455 281.5,-112.2455 285.0001,-102.2456 278.0001,-102.2455"/>
</g>
<!-- Node27&#45;&gt;Node26 -->
<g id="edge7" class="edge">
<title>Node27&#45;&gt;Node26</title>
<path fill="none" stroke="#191970" d="M270.3465,-47.6296C264.6753,-38.2887 258.0155,-27.3197 253.3545,-19.6427"/>
<polygon fill="#191970" stroke="#191970" points="267.3961,-49.5141 275.5777,-56.2455 273.3796,-45.8812 267.3961,-49.5141"/>
</g>
<!-- Node29 -->
<g id="node9" class="node">
<title>Node29</title>
<g id="a_node9"><a xlink:href="icns_8cpp.html" target="_top" xlink:title="icns.cpp">
<polygon fill="#ffffff" stroke="#000000" points="756,-.5 756,-19.5 809,-19.5 809,-.5 756,-.5"/>
<text text-anchor="middle" x="782.5" y="-7.5" font-family="Helvetica,sans-Serif" font-size="10.00" fill="#000000">icns.cpp</text>
</a>
</g>
</g>
<!-- Node28&#45;&gt;Node29 -->
<g id="edge9" class="edge">
<title>Node28&#45;&gt;Node29</title>
<path fill="none" stroke="#191970" d="M741.6281,-103.02C736.6012,-89.5175 732.4174,-71.159 738.5,-56 744.5909,-40.8205 758.3452,-27.8178 768.8664,-19.5484"/>
<polygon fill="#191970" stroke="#191970" points="738.4035,-104.381 745.4805,-112.2655 744.865,-101.6886 738.4035,-104.381"/>
</g>
<!-- Node28&#45;&gt;Node30 -->
<g id="edge10" class="edge">
<title>Node28&#45;&gt;Node30</title>
<path fill="none" stroke="#191970" d="M725.6665,-107.0465C709.1189,-97.0824 687.8568,-84.2794 673.5137,-75.6427"/>
<polygon fill="#191970" stroke="#191970" points="723.9283,-110.0854 734.3006,-112.2455 727.5393,-104.0886 723.9283,-110.0854"/>
</g>
<!-- Node31 -->
<g id="node11" class="node">
<title>Node31</title>
<g id="a_node11"><a xlink:href="icns__advection_8_h.html" target="_top" xlink:title="icns_advection.H">
<polygon fill="#ffffff" stroke="#000000" points="1068.5,-56.5 1068.5,-75.5 1160.5,-75.5 1160.5,-56.5 1068.5,-56.5"/>
<text text-anchor="middle" x="1114.5" y="-63.5" font-family="Helvetica,sans-Serif" font-size="10.00" fill="#000000">icns_advection.H</text>
</a>
</g>
</g>
<!-- Node28&#45;&gt;Node31 -->
<g id="edge12" class="edge">
<title>Node28&#45;&gt;Node31</title>
<path fill="none" stroke="#191970" d="M783.1281,-117.4936C839.5493,-109.6226 958.9581,-92.6195 1059.5,-76 1062.3726,-75.5252 1065.3272,-75.0243 1068.3052,-74.51"/>
<polygon fill="#191970" stroke="#191970" points="782.4483,-114.0543 773.026,-118.8991 783.4129,-120.9876 782.4483,-114.0543"/>
</g>
<!-- Node28&#45;&gt;Node33 -->
<g id="edge15" class="edge">
<title>Node28&#45;&gt;Node33</title>
<path fill="none" stroke="#191970" d="M783.0593,-113.09C784.5584,-112.7145 786.0442,-112.3493 787.5,-112 847.945,-97.4961 918.3807,-83.1533 962.7073,-74.4358"/>
<polygon fill="#191970" stroke="#191970" points="781.9473,-109.7625 773.146,-115.6606 783.7044,-116.5385 781.9473,-109.7625"/>
</g>
<!-- Node34 -->
<g id="node14" class="node">
<title>Node34</title>
<g id="a_node14"><a xlink:href="icns__bcop_8_h.html" target="_top" xlink:title="icns_bcop.H">
<polygon fill="#ffffff" stroke="#000000" points="747,-56.5 747,-75.5 818,-75.5 818,-56.5 747,-56.5"/>
<text text-anchor="middle" x="782.5" y="-63.5" font-family="Helvetica,sans-Serif" font-size="10.00" fill="#000000">icns_bcop.H</text>
</a>
</g>
</g>
<!-- Node28&#45;&gt;Node34 -->
<g id="edge17" class="edge">
<title>Node28&#45;&gt;Node34</title>
<path fill="none" stroke="#191970" d="M761.1645,-103.3372C766.4654,-94.0605 772.6487,-83.2398 776.9899,-75.6427"/>
<polygon fill="#191970" stroke="#191970" points="757.9966,-101.8266 756.074,-112.2455 764.0743,-105.2996 757.9966,-101.8266"/>
</g>
<!-- Node35 -->
<g id="node15" class="node">
<title>Node35</title>
<g id="a_node15"><a xlink:href="_power_law_profile_8cpp.html" target="_top" xlink:title="PowerLawProfile.cpp">
<polygon fill="#ffffff" stroke="#000000" points="836,-56.5 836,-75.5 945,-75.5 945,-56.5 836,-56.5"/>
<text text-anchor="middle" x="890.5" y="-63.5" font-family="Helvetica,sans-Serif" font-size="10.00" fill="#000000">PowerLawProfile.cpp</text>
</a>
</g>
</g>
<!-- Node28&#45;&gt;Node35 -->
<g id="edge19" class="edge">
<title>Node28&#45;&gt;Node35</title>
<path fill="none" stroke="#191970" d="M782.8922,-109.0431C808.344,-98.8624 843.2299,-84.908 866.2949,-75.682"/>
<polygon fill="#191970" stroke="#191970" points="781.2899,-105.9144 773.305,-112.878 783.8897,-112.4137 781.2899,-105.9144"/>
</g>
<!-- Node30&#45;&gt;Node29 -->
<g id="edge11" class="edge">
<title>Node30&#45;&gt;Node29</title>
<path fill="none" stroke="#191970" d="M688.198,-52.2473C710.8993,-42.0771 741.2315,-28.4883 761.2921,-19.5011"/>
<polygon fill="#191970" stroke="#191970" points="686.6833,-49.0906 678.9883,-56.3733 689.5453,-55.4789 686.6833,-49.0906"/>
</g>
<!-- Node31&#45;&gt;Node29 -->
<g id="edge13" class="edge">
<title>Node31&#45;&gt;Node29</title>
<path fill="none" stroke="#191970" d="M1058.2563,-55.8025C960.5914,-38.8766 857.0809,-22.0264 809.2632,-14.3049"/>
<polygon fill="#191970" stroke="#191970" points="1057.8441,-59.2833 1068.2956,-57.5463 1059.0421,-52.3865 1057.8441,-59.2833"/>
</g>
<!-- Node32 -->
<g id="node12" class="node">
<title>Node32</title>
<g id="a_node12"><a xlink:href="icns__advection_8cpp.html" target="_top" xlink:title="icns_advection.cpp">
<polygon fill="#ffffff" stroke="#000000" points="1064,-.5 1064,-19.5 1165,-19.5 1165,-.5 1064,-.5"/>
<text text-anchor="middle" x="1114.5" y="-7.5" font-family="Helvetica,sans-Serif" font-size="10.00" fill="#000000">icns_advection.cpp</text>
</a>
</g>
</g>
<!-- Node31&#45;&gt;Node32 -->
<g id="edge14" class="edge">
<title>Node31&#45;&gt;Node32</title>
<path fill="none" stroke="#191970" d="M1114.5,-46.1575C1114.5,-37.155 1114.5,-26.9199 1114.5,-19.6427"/>
<polygon fill="#191970" stroke="#191970" points="1111.0001,-46.2455 1114.5,-56.2455 1118.0001,-46.2456 1111.0001,-46.2455"/>
</g>
<!-- Node33&#45;&gt;Node29 -->
<g id="edge16" class="edge">
<title>Node33&#45;&gt;Node29</title>
<path fill="none" stroke="#191970" d="M958.2711,-53.9428C912.5978,-42.5244 845.7047,-25.8012 809.0127,-16.6282"/>
<polygon fill="#191970" stroke="#191970" points="957.6972,-57.407 968.2475,-56.4369 959.395,-50.616 957.6972,-57.407"/>
</g>
<!-- Node34&#45;&gt;Node29 -->
<g id="edge18" class="edge">
<title>Node34&#45;&gt;Node29</title>
<path fill="none" stroke="#191970" d="M782.5,-46.1575C782.5,-37.155 782.5,-26.9199 782.5,-19.6427"/>
<polygon fill="#191970" stroke="#191970" points="779.0001,-46.2455 782.5,-56.2455 786.0001,-46.2456 779.0001,-46.2455"/>
</g>
<!-- Node37 -->
<g id="node17" class="node">
<title>Node37</title>
<g id="a_node17"><a xlink:href="levelset_8cpp.html" target="_top" xlink:title="levelset.cpp">
<polygon fill="#ffffff" stroke="#000000" points="0,-.5 0,-19.5 69,-19.5 69,-.5 0,-.5"/>
<text text-anchor="middle" x="34.5" y="-7.5" font-family="Helvetica,sans-Serif" font-size="10.00" fill="#000000">levelset.cpp</text>
</a>
</g>
</g>
<!-- Node36&#45;&gt;Node37 -->
<g id="edge21" class="edge">
<title>Node36&#45;&gt;Node37</title>
<path fill="none" stroke="#191970" d="M44.0076,-106.2969C34.1339,-98.5062 23.8323,-88.1513 18.5,-76 10.1616,-56.9982 20.851,-32.9286 28.3462,-19.7407"/>
<polygon fill="#191970" stroke="#191970" points="41.9491,-109.1277 52.0823,-112.2212 46.09,-103.4838 41.9491,-109.1277"/>
</g>
<!-- Node38 -->
<g id="node18" class="node">
<title>Node38</title>
<g id="a_node18"><a xlink:href="levelset__ops_8_h.html" target="_top" xlink:title="levelset_ops.H">
<polygon fill="#ffffff" stroke="#000000" points="27.5,-56.5 27.5,-75.5 109.5,-75.5 109.5,-56.5 27.5,-56.5"/>
<text text-anchor="middle" x="68.5" y="-63.5" font-family="Helvetica,sans-Serif" font-size="10.00" fill="#000000">levelset_ops.H</text>
</a>
</g>
</g>
<!-- Node36&#45;&gt;Node38 -->
<g id="edge22" class="edge">
<title>Node36&#45;&gt;Node38</title>
<path fill="none" stroke="#191970" d="M68.5,-102.1575C68.5,-93.155 68.5,-82.9199 68.5,-75.6427"/>
<polygon fill="#191970" stroke="#191970" points="65.0001,-102.2455 68.5,-112.2455 72.0001,-102.2456 65.0001,-102.2455"/>
</g>
<!-- Node38&#45;&gt;Node37 -->
<g id="edge23" class="edge">
<title>Node38&#45;&gt;Node37</title>
<path fill="none" stroke="#191970" d="M57.3465,-47.6296C51.6753,-38.2887 45.0155,-27.3197 40.3545,-19.6427"/>
<polygon fill="#191970" stroke="#191970" points="54.3961,-49.5141 62.5777,-56.2455 60.3796,-45.8812 54.3961,-49.5141"/>
</g>
<!-- Node40 -->
<g id="node20" class="node">
<title>Node40</title>
<g id="a_node20"><a xlink:href="_s_d_r_8cpp.html" target="_top" xlink:title="SDR.cpp">
<polygon fill="#ffffff" stroke="#000000" points="128,-56.5 128,-75.5 185,-75.5 185,-56.5 128,-56.5"/>
<text text-anchor="middle" x="156.5" y="-63.5" font-family="Helvetica,sans-Serif" font-size="10.00" fill="#000000">SDR.cpp</text>
</a>
</g>
</g>
<!-- Node39&#45;&gt;Node40 -->
<g id="edge25" class="edge">
<title>Node39&#45;&gt;Node40</title>
<path fill="none" stroke="#191970" d="M173.6989,-103.0437C169.4225,-93.8331 164.467,-83.1598 160.977,-75.6427"/>
<polygon fill="#191970" stroke="#191970" points="170.5854,-104.6494 177.9711,-112.2455 176.9345,-101.7015 170.5854,-104.6494"/>
</g>
<!-- Node42 -->
<g id="node22" class="node">
<title>Node42</title>
<g id="a_node22"><a xlink:href="temperature_8cpp.html" target="_top" xlink:title="temperature.cpp">
<polygon fill="#ffffff" stroke="#000000" points="340,-56.5 340,-75.5 427,-75.5 427,-56.5 340,-56.5"/>
<text text-anchor="middle" x="383.5" y="-63.5" font-family="Helvetica,sans-Serif" font-size="10.00" fill="#000000">temperature.cpp</text>
</a>
</g>
</g>
<!-- Node41&#45;&gt;Node42 -->
<g id="edge27" class="edge">
<title>Node41&#45;&gt;Node42</title>
<path fill="none" stroke="#191970" d="M383.5,-102.1575C383.5,-93.155 383.5,-82.9199 383.5,-75.6427"/>
<polygon fill="#191970" stroke="#191970" points="380.0001,-102.2455 383.5,-112.2455 387.0001,-102.2456 380.0001,-102.2455"/>
</g>
<!-- Node44 -->
<g id="node24" class="node">
<title>Node44</title>
<g id="a_node24"><a xlink:href="_t_k_e_8cpp.html" target="_top" xlink:title="TKE.cpp">
<polygon fill="#ffffff" stroke="#000000" points="445,-56.5 445,-75.5 500,-75.5 500,-56.5 445,-56.5"/>
<text text-anchor="middle" x="472.5" y="-63.5" font-family="Helvetica,sans-Serif" font-size="10.00" fill="#000000">TKE.cpp</text>
</a>
</g>
</g>
<!-- Node43&#45;&gt;Node44 -->
<g id="edge29" class="edge">
<title>Node43&#45;&gt;Node44</title>
<path fill="none" stroke="#191970" d="M472.5,-102.1575C472.5,-93.155 472.5,-82.9199 472.5,-75.6427"/>
<polygon fill="#191970" stroke="#191970" points="469.0001,-102.2455 472.5,-112.2455 476.0001,-102.2456 469.0001,-102.2455"/>
</g>
<!-- Node45 -->
<g id="node25" class="node">
<title>Node45</title>
<g id="a_node25"><a xlink:href="_one_eq_ksgs_8cpp.html" target="_top" xlink:title="OneEqKsgs.cpp">
<polygon fill="#ffffff" stroke="#000000" points="518.5,-56.5 518.5,-75.5 606.5,-75.5 606.5,-56.5 518.5,-56.5"/>
<text text-anchor="middle" x="562.5" y="-63.5" font-family="Helvetica,sans-Serif" font-size="10.00" fill="#000000">OneEqKsgs.cpp</text>
</a>
</g>
</g>
<!-- Node43&#45;&gt;Node45 -->
<g id="edge30" class="edge">
<title>Node43&#45;&gt;Node45</title>
<path fill="none" stroke="#191970" d="M496.9784,-106.769C512.9266,-96.8456 533.251,-84.1994 547.0028,-75.6427"/>
<polygon fill="#191970" stroke="#191970" points="494.8183,-103.9908 488.1768,-112.2455 498.5165,-109.9342 494.8183,-103.9908"/>
</g>
</g>
</svg>
