<?xml version="1.0" encoding="UTF-8" standalone="no"?>
<!DOCTYPE svg PUBLIC "-//W3C//DTD SVG 1.1//EN"
 "http://www.w3.org/Graphics/SVG/1.1/DTD/svg11.dtd">
<!-- Generated by graphviz version 2.40.1 (20161225.0304)
 -->
<!-- Title: equation_systems Pages: 1 -->
<svg width="742pt" height="475pt"
 viewBox="0.00 0.00 742.00 475.04" xmlns="http://www.w3.org/2000/svg" xmlns:xlink="http://www.w3.org/1999/xlink">
<g id="graph0" class="graph" transform="scale(1 1) rotate(0) translate(4 471.0432)">
<title>equation_systems</title>
<polygon fill="#ffffff" stroke="transparent" points="-4,4 -4,-471.0432 738,-471.0432 738,4 -4,4"/>
<g id="clust1" class="cluster">
<title>clusterdir_d85575251dd712327fe3cf057fa568b4</title>
<g id="a_clust1"><a xlink:href="dir_d85575251dd712327fe3cf057fa568b4.html" target="_top" xlink:title="amr&#45;wind">
<polygon fill="#ddddee" stroke="#000000" points="152,-344 152,-431 726,-431 726,-344 152,-344"/>
<text text-anchor="middle" x="439" y="-419" font-family="Helvetica,sans-Serif" font-size="10.00" fill="#000000">amr&#45;wind</text>
</a>
</g>
</g>
<g id="clust2" class="cluster">
<title>clusterdir_4bb30ed846ea1df1fc4d16874a455d91</title>
<g id="a_clust2"><a xlink:href="dir_4bb30ed846ea1df1fc4d16874a455d91.html" target="_top">
<polygon fill="#eeeeff" stroke="#000000" points="160,-352 160,-404 718,-404 718,-352 160,-352"/>
</a>
</g>
</g>
<!-- dir_4bb30ed846ea1df1fc4d16874a455d91 -->
<g id="node1" class="node">
<title>dir_4bb30ed846ea1df1fc4d16874a455d91</title>
<text text-anchor="middle" x="662" y="-375.5" font-family="Helvetica,sans-Serif" font-size="10.00" fill="#000000">equation_systems</text>
</g>
<!-- dir_9ff815a534beac751fa88e427dbab695 -->
<g id="node8" class="node">
<title>dir_9ff815a534beac751fa88e427dbab695</title>
<g id="a_node8"><a xlink:href="dir_9ff815a534beac751fa88e427dbab695.html" target="_top" xlink:title="turbulence">
<polygon fill="#ffffff" stroke="#ff0000" points="62,-396 0,-396 0,-360 62,-360 62,-396"/>
<text text-anchor="middle" x="31" y="-375.5" font-family="Helvetica,sans-Serif" font-size="10.00" fill="#000000">turbulence</text>
</a>
</g>
</g>
<!-- dir_4bb30ed846ea1df1fc4d16874a455d91&#45;&gt;dir_9ff815a534beac751fa88e427dbab695 -->
<g id="edge26" class="edge">
<title>dir_4bb30ed846ea1df1fc4d16874a455d91&#45;&gt;dir_9ff815a534beac751fa88e427dbab695</title>
<path fill="none" stroke="#000000" d="M651.3197,-396.2516C640.05,-413.5106 620.5312,-438.3106 596,-449 569.7199,-460.4515 105.3826,-462.323 80,-449 62.5388,-439.8348 50.0768,-421.3148 42.0907,-405.4877"/>
<polygon fill="#000000" stroke="#000000" points="45.1009,-403.6624 37.692,-396.0888 38.7609,-406.6296 45.1009,-403.6624"/>
<g id="a_edge26&#45;headlabel"><a xlink:href="dir_000002_000022.html" target="_top" xlink:title="2">
<text text-anchor="middle" x="49.1961" y="-403.2146" font-family="Helvetica,sans-Serif" font-size="10.00" fill="#000000">2</text>
</a>
</g>
</g>
<!-- dir_35ffb1505af3943bdf99903da87524fe -->
<g id="node9" class="node">
<title>dir_35ffb1505af3943bdf99903da87524fe</title>
<g id="a_node9"><a xlink:href="dir_35ffb1505af3943bdf99903da87524fe.html" target="_top" xlink:title="convection">
<polygon fill="none" stroke="#000000" points="144,-396 80,-396 80,-360 144,-360 144,-396"/>
<text text-anchor="middle" x="112" y="-375.5" font-family="Helvetica,sans-Serif" font-size="10.00" fill="#000000">convection</text>
</a>
</g>
</g>
<!-- dir_4bb30ed846ea1df1fc4d16874a455d91&#45;&gt;dir_35ffb1505af3943bdf99903da87524fe -->
<g id="edge27" class="edge">
<title>dir_4bb30ed846ea1df1fc4d16874a455d91&#45;&gt;dir_35ffb1505af3943bdf99903da87524fe</title>
<path fill="none" stroke="#000000" d="M651.3197,-396.2516C640.05,-413.5106 620.5312,-438.3106 596,-449 552.098,-468.1302 207.8089,-470.4649 165,-449 146.7239,-439.8362 133.1387,-421.0489 124.2999,-405.1014"/>
<polygon fill="#000000" stroke="#000000" points="127.3586,-403.3968 119.6447,-396.1341 121.1458,-406.622 127.3586,-403.3968"/>
<g id="a_edge27&#45;headlabel"><a xlink:href="dir_000002_000016.html" target="_top" xlink:title="2">
<text text-anchor="middle" x="131.5347" y="-402.7789" font-family="Helvetica,sans-Serif" font-size="10.00" fill="#000000">2</text>
</a>
</g>
</g>
<!-- dir_ebb19deee3cd40f4ac122fef25c04ca8 -->
<g id="node11" class="node">
<title>dir_ebb19deee3cd40f4ac122fef25c04ca8</title>
<g id="a_node11"><a xlink:href="dir_ebb19deee3cd40f4ac122fef25c04ca8.html" target="_top" xlink:title="boundary_conditions">
<polygon fill="none" stroke="#000000" points="503,-180 397,-180 397,-144 503,-144 503,-180"/>
<text text-anchor="middle" x="450" y="-159.5" font-family="Helvetica,sans-Serif" font-size="10.00" fill="#000000">boundary_conditions</text>
</a>
</g>
</g>
<!-- dir_4bb30ed846ea1df1fc4d16874a455d91&#45;&gt;dir_ebb19deee3cd40f4ac122fef25c04ca8 -->
<g id="edge28" class="edge">
<title>dir_4bb30ed846ea1df1fc4d16874a455d91&#45;&gt;dir_ebb19deee3cd40f4ac122fef25c04ca8</title>
<path fill="none" stroke="#000000" d="M644.2896,-359.9555C606.5662,-321.5203 518.2016,-231.4884 474.8605,-187.3295"/>
<polygon fill="#000000" stroke="#000000" points="477.3117,-184.8303 467.809,-180.1451 472.3158,-189.7336 477.3117,-184.8303"/>
<g id="a_edge28&#45;headlabel"><a xlink:href="dir_000002_000006.html" target="_top" xlink:title="2">
<text text-anchor="middle" x="481.8559" y="-182.9069" font-family="Helvetica,sans-Serif" font-size="10.00" fill="#000000">2</text>
</a>
</g>
</g>
<!-- dir_e4cd57caa88bf1f4e1bf9521bc47c3c0 -->
<g id="node12" class="node">
<title>dir_e4cd57caa88bf1f4e1bf9521bc47c3c0</title>
<g id="a_node12"><a xlink:href="dir_e4cd57caa88bf1f4e1bf9521bc47c3c0.html" target="_top" xlink:title="utilities">
<polygon fill="#ffffff" stroke="#ff0000" points="275,-324 221,-324 221,-288 275,-288 275,-324"/>
<text text-anchor="middle" x="248" y="-303.5" font-family="Helvetica,sans-Serif" font-size="10.00" fill="#000000">utilities</text>
</a>
</g>
</g>
<!-- dir_4bb30ed846ea1df1fc4d16874a455d91&#45;&gt;dir_e4cd57caa88bf1f4e1bf9521bc47c3c0 -->
<g id="edge29" class="edge">
<title>dir_4bb30ed846ea1df1fc4d16874a455d91&#45;&gt;dir_e4cd57caa88bf1f4e1bf9521bc47c3c0</title>
<path fill="none" stroke="#000000" d="M637.0398,-359.9287C627.4628,-353.8717 616.1492,-347.7187 605,-344 546.3623,-324.4418 364.2841,-312.3793 285.2444,-307.938"/>
<polygon fill="#000000" stroke="#000000" points="285.4196,-304.4425 275.2419,-307.3859 285.0338,-311.4318 285.4196,-304.4425"/>
<g id="a_edge29&#45;headlabel"><a xlink:href="dir_000002_000005.html" target="_top" xlink:title="10">
<text text-anchor="middle" x="289.1652" y="-299.3055" font-family="Helvetica,sans-Serif" font-size="10.00" fill="#000000">10</text>
</a>
</g>
</g>
<!-- dir_a816a247b59c90f95e41afe29b966a18 -->
<g id="node13" class="node">
<title>dir_a816a247b59c90f95e41afe29b966a18</title>
<g id="a_node13"><a xlink:href="dir_a816a247b59c90f95e41afe29b966a18.html" target="_top" xlink:title="diffusion">
<polygon fill="none" stroke="#000000" points="517,-36 463,-36 463,0 517,0 517,-36"/>
<text text-anchor="middle" x="490" y="-15.5" font-family="Helvetica,sans-Serif" font-size="10.00" fill="#000000">diffusion</text>
</a>
</g>
</g>
<!-- dir_4bb30ed846ea1df1fc4d16874a455d91&#45;&gt;dir_a816a247b59c90f95e41afe29b966a18 -->
<g id="edge30" class="edge">
<title>dir_4bb30ed846ea1df1fc4d16874a455d91&#45;&gt;dir_a816a247b59c90f95e41afe29b966a18</title>
<path fill="none" stroke="#000000" d="M666.3512,-359.9379C672.5022,-332.7787 683,-279.7286 683,-234 683,-234 683,-234 683,-162 683,-85.0588 583.2472,-44.3206 527.1713,-27.4983"/>
<polygon fill="#000000" stroke="#000000" points="527.8213,-24.0431 517.2428,-24.6321 525.8798,-30.7684 527.8213,-24.0431"/>
<g id="a_edge30&#45;headlabel"><a xlink:href="dir_000002_000015.html" target="_top" xlink:title="1">
<text text-anchor="middle" x="532.0623" y="-19.8121" font-family="Helvetica,sans-Serif" font-size="10.00" fill="#000000">1</text>
</a>
</g>
</g>
<!-- dir_70329d5a297148af2b67b1d844b9f654 -->
<g id="node2" class="node">
<title>dir_70329d5a297148af2b67b1d844b9f654</title>
<g id="a_node2"><a xlink:href="dir_70329d5a297148af2b67b1d844b9f654.html" target="_top" xlink:title="density">
<polygon fill="#ffffff" stroke="#000000" points="524,-396 470,-396 470,-360 524,-360 524,-396"/>
<text text-anchor="middle" x="497" y="-375.5" font-family="Helvetica,sans-Serif" font-size="10.00" fill="#000000">density</text>
</a>
</g>
</g>
<!-- dir_3d3615e9a999cab4f3407307569d6ced -->
<g id="node14" class="node">
<title>dir_3d3615e9a999cab4f3407307569d6ced</title>
<g id="a_node14"><a xlink:href="dir_3d3615e9a999cab4f3407307569d6ced.html" target="_top" xlink:title="core">
<polygon fill="#ffffff" stroke="#ff0000" points="396,-252 342,-252 342,-216 396,-216 396,-252"/>
<text text-anchor="middle" x="369" y="-231.5" font-family="Helvetica,sans-Serif" font-size="10.00" fill="#000000">core</text>
</a>
</g>
</g>
<!-- dir_70329d5a297148af2b67b1d844b9f654&#45;&gt;dir_3d3615e9a999cab4f3407307569d6ced -->
<g id="edge4" class="edge">
<title>dir_70329d5a297148af2b67b1d844b9f654&#45;&gt;dir_3d3615e9a999cab4f3407307569d6ced</title>
<path fill="none" stroke="#000000" d="M477.7019,-359.8959C464.2166,-347.1498 447.5055,-331.1367 441,-324 422.3493,-303.5395 402.8272,-278.9061 388.8237,-260.587"/>
<polygon fill="#000000" stroke="#000000" points="391.2531,-257.9984 382.4205,-252.1472 385.6764,-262.2293 391.2531,-257.9984"/>
<g id="a_edge4&#45;headlabel"><a xlink:href="dir_000013_000009.html" target="_top" xlink:title="4">
<text text-anchor="middle" x="395.6876" y="-256.646" font-family="Helvetica,sans-Serif" font-size="10.00" fill="#000000">4</text>
</a>
</g>
</g>
<!-- dir_4012ff34c1bb5bd303e44a1c9cef6c8a -->
<g id="node3" class="node">
<title>dir_4012ff34c1bb5bd303e44a1c9cef6c8a</title>
<g id="a_node3"><a xlink:href="dir_4012ff34c1bb5bd303e44a1c9cef6c8a.html" target="_top" xlink:title="icns">
<polygon fill="#ffffff" stroke="#ff0000" points="596,-396 542,-396 542,-360 596,-360 596,-396"/>
<text text-anchor="middle" x="569" y="-375.5" font-family="Helvetica,sans-Serif" font-size="10.00" fill="#000000">icns</text>
</a>
</g>
</g>
<!-- dir_0c368f76a33d967d5b838b5681461de6 -->
<g id="node10" class="node">
<title>dir_0c368f76a33d967d5b838b5681461de6</title>
<g id="a_node10"><a xlink:href="dir_0c368f76a33d967d5b838b5681461de6.html" target="_top" xlink:title="wind_energy">
<polygon fill="none" stroke="#000000" points="525.5,-108 454.5,-108 454.5,-72 525.5,-72 525.5,-108"/>
<text text-anchor="middle" x="490" y="-87.5" font-family="Helvetica,sans-Serif" font-size="10.00" fill="#000000">wind_energy</text>
</a>
</g>
</g>
<!-- dir_4012ff34c1bb5bd303e44a1c9cef6c8a&#45;&gt;dir_0c368f76a33d967d5b838b5681461de6 -->
<g id="edge18" class="edge">
<title>dir_4012ff34c1bb5bd303e44a1c9cef6c8a&#45;&gt;dir_0c368f76a33d967d5b838b5681461de6</title>
<path fill="none" stroke="#000000" d="M569.4504,-359.9616C569.7664,-319.2935 566.5955,-218.2201 531,-144 526.3425,-134.2886 519.7766,-124.6208 513.2615,-116.2061"/>
<polygon fill="#000000" stroke="#000000" points="515.8433,-113.8323 506.836,-108.2539 510.3985,-118.2318 515.8433,-113.8323"/>
<g id="a_edge18&#45;headlabel"><a xlink:href="dir_000003_000001.html" target="_top" xlink:title="2">
<text text-anchor="middle" x="520.3108" y="-112.3438" font-family="Helvetica,sans-Serif" font-size="10.00" fill="#000000">2</text>
</a>
</g>
</g>
<!-- dir_4012ff34c1bb5bd303e44a1c9cef6c8a&#45;&gt;dir_ebb19deee3cd40f4ac122fef25c04ca8 -->
<g id="edge19" class="edge">
<title>dir_4012ff34c1bb5bd303e44a1c9cef6c8a&#45;&gt;dir_ebb19deee3cd40f4ac122fef25c04ca8</title>
<path fill="none" stroke="#000000" d="M549.9885,-359.7475C537.288,-347.2799 522.0234,-331.6783 517,-324 488.6109,-280.6071 468.3332,-223.2184 457.9444,-189.683"/>
<polygon fill="#000000" stroke="#000000" points="461.2859,-188.6409 455.0398,-180.0831 454.5859,-190.6682 461.2859,-188.6409"/>
<g id="a_edge19&#45;headlabel"><a xlink:href="dir_000003_000006.html" target="_top" xlink:title="1">
<text text-anchor="middle" x="465.0445" y="-188.7593" font-family="Helvetica,sans-Serif" font-size="10.00" fill="#000000">1</text>
</a>
</g>
</g>
<!-- dir_4012ff34c1bb5bd303e44a1c9cef6c8a&#45;&gt;dir_e4cd57caa88bf1f4e1bf9521bc47c3c0 -->
<g id="edge20" class="edge">
<title>dir_4012ff34c1bb5bd303e44a1c9cef6c8a&#45;&gt;dir_e4cd57caa88bf1f4e1bf9521bc47c3c0</title>
<path fill="none" stroke="#000000" d="M554.1848,-359.9867C548.2389,-353.936 540.9159,-347.7721 533,-344 511.0418,-333.5364 357.3051,-316.9776 285.187,-309.671"/>
<polygon fill="#000000" stroke="#000000" points="285.4646,-306.1814 275.1643,-308.662 284.7633,-313.1462 285.4646,-306.1814"/>
<g id="a_edge20&#45;headlabel"><a xlink:href="dir_000003_000005.html" target="_top" xlink:title="8">
<text text-anchor="middle" x="289.3255" y="-301.2164" font-family="Helvetica,sans-Serif" font-size="10.00" fill="#000000">8</text>
</a>
</g>
</g>
<!-- dir_4012ff34c1bb5bd303e44a1c9cef6c8a&#45;&gt;dir_3d3615e9a999cab4f3407307569d6ced -->
<g id="edge21" class="edge">
<title>dir_4012ff34c1bb5bd303e44a1c9cef6c8a&#45;&gt;dir_3d3615e9a999cab4f3407307569d6ced</title>
<path fill="none" stroke="#000000" d="M552.6064,-359.8604C546.826,-354.224 540.0108,-348.3542 533,-344 511.2587,-330.4971 500.818,-337.3786 479,-324 458.8905,-311.669 458.075,-303.1572 440,-288 427.9482,-277.8937 414.284,-267.307 402.1837,-258.2119"/>
<polygon fill="#000000" stroke="#000000" points="404.2036,-255.3521 394.0955,-252.1777 400.0178,-260.9627 404.2036,-255.3521"/>
<g id="a_edge21&#45;headlabel"><a xlink:href="dir_000003_000009.html" target="_top" xlink:title="15">
<text text-anchor="middle" x="408.7825" y="-252.7258" font-family="Helvetica,sans-Serif" font-size="10.00" fill="#000000">15</text>
</a>
</g>
</g>
<!-- dir_ce0741f9b73f67c263a459724eeecf8b -->
<g id="node4" class="node">
<title>dir_ce0741f9b73f67c263a459724eeecf8b</title>
<g id="a_node4"><a xlink:href="dir_ce0741f9b73f67c263a459724eeecf8b.html" target="_top" xlink:title="levelset">
<polygon fill="#ffffff" stroke="#000000" points="452,-396 398,-396 398,-360 452,-360 452,-396"/>
<text text-anchor="middle" x="425" y="-375.5" font-family="Helvetica,sans-Serif" font-size="10.00" fill="#000000">levelset</text>
</a>
</g>
</g>
<!-- dir_9f8434f21d2c2598f33c85a8b98c6d56 -->
<g id="node5" class="node">
<title>dir_9f8434f21d2c2598f33c85a8b98c6d56</title>
<g id="a_node5"><a xlink:href="dir_9f8434f21d2c2598f33c85a8b98c6d56.html" target="_top" xlink:title="sdr">
<polygon fill="#ffffff" stroke="#000000" points="222,-396 168,-396 168,-360 222,-360 222,-396"/>
<text text-anchor="middle" x="195" y="-375.5" font-family="Helvetica,sans-Serif" font-size="10.00" fill="#000000">sdr</text>
</a>
</g>
</g>
<!-- dir_9f8434f21d2c2598f33c85a8b98c6d56&#45;&gt;dir_3d3615e9a999cab4f3407307569d6ced -->
<g id="edge22" class="edge">
<title>dir_9f8434f21d2c2598f33c85a8b98c6d56&#45;&gt;dir_3d3615e9a999cab4f3407307569d6ced</title>
<path fill="none" stroke="#000000" d="M211.4092,-359.8856C217.1907,-354.2509 224.0026,-348.3757 231,-344 252.3468,-330.6512 263.1476,-338.1086 284,-324 301.977,-311.8369 302.1378,-303.8185 317,-288 325.7726,-278.6629 335.4873,-268.5222 344.1224,-259.5764"/>
<polygon fill="#000000" stroke="#000000" points="346.6401,-262.0077 351.0776,-252.3869 341.6091,-257.1406 346.6401,-262.0077"/>
<g id="a_edge22&#45;headlabel"><a xlink:href="dir_000030_000009.html" target="_top" xlink:title="4">
<text text-anchor="middle" x="346.1815" y="-264.0653" font-family="Helvetica,sans-Serif" font-size="10.00" fill="#000000">4</text>
</a>
</g>
</g>
<!-- dir_c96908905c9887b0bdc2167e5354d30c -->
<g id="node6" class="node">
<title>dir_c96908905c9887b0bdc2167e5354d30c</title>
<g id="a_node6"><a xlink:href="dir_c96908905c9887b0bdc2167e5354d30c.html" target="_top" xlink:title="temperature">
<polygon fill="#ffffff" stroke="#000000" points="308,-396 240,-396 240,-360 308,-360 308,-396"/>
<text text-anchor="middle" x="274" y="-375.5" font-family="Helvetica,sans-Serif" font-size="10.00" fill="#000000">temperature</text>
</a>
</g>
</g>
<!-- dir_c96908905c9887b0bdc2167e5354d30c&#45;&gt;dir_3d3615e9a999cab4f3407307569d6ced -->
<g id="edge7" class="edge">
<title>dir_c96908905c9887b0bdc2167e5354d30c&#45;&gt;dir_3d3615e9a999cab4f3407307569d6ced</title>
<path fill="none" stroke="#000000" d="M289.8325,-359.5293C298.2811,-349.3331 308.6313,-336.2799 317,-324 330.9329,-303.5555 344.8566,-279.1957 354.7849,-260.9781"/>
<polygon fill="#000000" stroke="#000000" points="357.9257,-262.5277 359.5914,-252.0647 351.7644,-259.2053 357.9257,-262.5277"/>
<g id="a_edge7&#45;headlabel"><a xlink:href="dir_000031_000009.html" target="_top" xlink:title="4">
<text text-anchor="middle" x="358.7187" y="-264.5392" font-family="Helvetica,sans-Serif" font-size="10.00" fill="#000000">4</text>
</a>
</g>
</g>
<!-- dir_be932497d8c26b6aa8596ee64638838f -->
<g id="node7" class="node">
<title>dir_be932497d8c26b6aa8596ee64638838f</title>
<g id="a_node7"><a xlink:href="dir_be932497d8c26b6aa8596ee64638838f.html" target="_top" xlink:title="tke">
<polygon fill="#ffffff" stroke="#ff0000" points="380,-396 326,-396 326,-360 380,-360 380,-396"/>
<text text-anchor="middle" x="353" y="-375.5" font-family="Helvetica,sans-Serif" font-size="10.00" fill="#000000">tke</text>
</a>
</g>
</g>
<!-- dir_be932497d8c26b6aa8596ee64638838f&#45;&gt;dir_9ff815a534beac751fa88e427dbab695 -->
<g id="edge5" class="edge">
<title>dir_be932497d8c26b6aa8596ee64638838f&#45;&gt;dir_9ff815a534beac751fa88e427dbab695</title>
<path fill="none" stroke="#000000" d="M347.2706,-396.0384C340.7658,-413.1355 328.3305,-437.8155 308,-449 263.6076,-473.4218 124.8622,-472.5476 80,-449 62.5388,-439.8348 50.0768,-421.3148 42.0907,-405.4877"/>
<polygon fill="#000000" stroke="#000000" points="45.1009,-403.6624 37.692,-396.0888 38.7609,-406.6296 45.1009,-403.6624"/>
<g id="a_edge5&#45;headlabel"><a xlink:href="dir_000020_000022.html" target="_top" xlink:title="1">
<text text-anchor="middle" x="49.1961" y="-403.2146" font-family="Helvetica,sans-Serif" font-size="10.00" fill="#000000">1</text>
</a>
</g>
</g>
<!-- dir_be932497d8c26b6aa8596ee64638838f&#45;&gt;dir_3d3615e9a999cab4f3407307569d6ced -->
<g id="edge6" class="edge">
<title>dir_be932497d8c26b6aa8596ee64638838f&#45;&gt;dir_3d3615e9a999cab4f3407307569d6ced</title>
<path fill="none" stroke="#000000" d="M355.0264,-359.7623C357.7554,-335.201 362.6392,-291.2474 365.8495,-262.3541"/>
<polygon fill="#000000" stroke="#000000" points="369.3642,-262.415 366.99,-252.0896 362.407,-261.6419 369.3642,-262.415"/>
<g id="a_edge6&#45;headlabel"><a xlink:href="dir_000020_000009.html" target="_top" xlink:title="5">
<text text-anchor="middle" x="371.7893" y="-263.8011" font-family="Helvetica,sans-Serif" font-size="10.00" fill="#000000">5</text>
</a>
</g>
</g>
<!-- dir_9ff815a534beac751fa88e427dbab695&#45;&gt;dir_be932497d8c26b6aa8596ee64638838f -->
<g id="edge1" class="edge">
<title>dir_9ff815a534beac751fa88e427dbab695&#45;&gt;dir_be932497d8c26b6aa8596ee64638838f</title>
<path fill="none" stroke="#000000" d="M37.692,-396.0888C45.1192,-413.2242 58.9148,-437.9326 80,-449 124.8622,-472.5476 263.6076,-473.4218 308,-449 324.8362,-439.7378 336.2579,-421.2206 343.381,-405.4191"/>
<polygon fill="#000000" stroke="#000000" points="346.6734,-406.6164 347.2706,-396.0384 340.2072,-403.9352 346.6734,-406.6164"/>
<g id="a_edge1&#45;headlabel"><a xlink:href="dir_000022_000020.html" target="_top" xlink:title="1">
<text text-anchor="middle" x="347.9194" y="-408.5243" font-family="Helvetica,sans-Serif" font-size="10.00" fill="#000000">1</text>
</a>
</g>
</g>
<!-- dir_9ff815a534beac751fa88e427dbab695&#45;&gt;dir_e4cd57caa88bf1f4e1bf9521bc47c3c0 -->
<g id="edge2" class="edge">
<title>dir_9ff815a534beac751fa88e427dbab695&#45;&gt;dir_e4cd57caa88bf1f4e1bf9521bc47c3c0</title>
<path fill="none" stroke="#000000" d="M48.7474,-359.6458C55.2491,-353.8573 62.9886,-347.9492 71,-344 115.9009,-321.8664 173.4467,-312.5649 210.5212,-308.6958"/>
<polygon fill="#000000" stroke="#000000" points="211.2507,-312.1419 220.8701,-307.7017 210.5813,-305.174 211.2507,-312.1419"/>
<g id="a_edge2&#45;headlabel"><a xlink:href="dir_000022_000005.html" target="_top" xlink:title="1">
<text text-anchor="middle" x="207.944" y="-312.8118" font-family="Helvetica,sans-Serif" font-size="10.00" fill="#000000">1</text>
</a>
</g>
</g>
<!-- dir_9ff815a534beac751fa88e427dbab695&#45;&gt;dir_3d3615e9a999cab4f3407307569d6ced -->
<g id="edge3" class="edge">
<title>dir_9ff815a534beac751fa88e427dbab695&#45;&gt;dir_3d3615e9a999cab4f3407307569d6ced</title>
<path fill="none" stroke="#000000" d="M51.3168,-359.8484C75.4832,-339.252 117.8748,-306.1706 160,-288 217.5404,-263.1802 289.0802,-247.7453 331.7824,-240.0244"/>
<polygon fill="#000000" stroke="#000000" points="332.492,-243.4534 341.7329,-238.271 331.2772,-236.5596 332.492,-243.4534"/>
<g id="a_edge3&#45;headlabel"><a xlink:href="dir_000022_000009.html" target="_top" xlink:title="5">
<text text-anchor="middle" x="329.4447" y="-244.3733" font-family="Helvetica,sans-Serif" font-size="10.00" fill="#000000">5</text>
</a>
</g>
</g>
<!-- dir_35ffb1505af3943bdf99903da87524fe&#45;&gt;dir_e4cd57caa88bf1f4e1bf9521bc47c3c0 -->
<g id="edge8" class="edge">
<title>dir_35ffb1505af3943bdf99903da87524fe&#45;&gt;dir_e4cd57caa88bf1f4e1bf9521bc47c3c0</title>
<path fill="none" stroke="#000000" d="M133.1248,-359.848C140.1282,-354.3385 148.1466,-348.5467 156,-344 173.3776,-333.9393 193.9335,-325.1829 211.2026,-318.6195"/>
<polygon fill="#000000" stroke="#000000" points="212.7781,-321.7685 220.9416,-315.0152 210.3485,-315.2036 212.7781,-321.7685"/>
<g id="a_edge8&#45;headlabel"><a xlink:href="dir_000016_000005.html" target="_top" xlink:title="3">
<text text-anchor="middle" x="210.3924" y="-323.1788" font-family="Helvetica,sans-Serif" font-size="10.00" fill="#000000">3</text>
</a>
</g>
</g>
<!-- dir_35ffb1505af3943bdf99903da87524fe&#45;&gt;dir_3d3615e9a999cab4f3407307569d6ced -->
<g id="edge9" class="edge">
<title>dir_35ffb1505af3943bdf99903da87524fe&#45;&gt;dir_3d3615e9a999cab4f3407307569d6ced</title>
<path fill="none" stroke="#000000" d="M127.9993,-359.7435C146.4593,-339.6723 178.5869,-307.6692 212,-288 249.9918,-265.6355 298.6279,-250.7192 331.6283,-242.3342"/>
<polygon fill="#000000" stroke="#000000" points="332.8865,-245.629 341.76,-239.8401 331.2132,-238.832 332.8865,-245.629"/>
<g id="a_edge9&#45;headlabel"><a xlink:href="dir_000016_000009.html" target="_top" xlink:title="2">
<text text-anchor="middle" x="330.0747" y="-246.7452" font-family="Helvetica,sans-Serif" font-size="10.00" fill="#000000">2</text>
</a>
</g>
</g>
<!-- dir_0c368f76a33d967d5b838b5681461de6&#45;&gt;dir_4bb30ed846ea1df1fc4d16874a455d91 -->
<g id="edge14" class="edge">
<title>dir_0c368f76a33d967d5b838b5681461de6&#45;&gt;dir_4bb30ed846ea1df1fc4d16874a455d91</title>
<path fill="none" stroke="#000000" d="M514.7214,-108.0409C526.7615,-117.7196 540.8022,-130.4328 551,-144 601.3592,-210.9978 637.2318,-304.4908 653.0148,-350.374"/>
<polygon fill="#000000" stroke="#000000" points="649.7292,-351.584 656.2486,-359.9355 656.3602,-349.3412 649.7292,-351.584"/>
<g id="a_edge14&#45;headlabel"><a xlink:href="dir_000001_000002.html" target="_top" xlink:title="3">
<text text-anchor="middle" x="645.8879" y="-346.5885" font-family="Helvetica,sans-Serif" font-size="10.00" fill="#000000">3</text>
</a>
</g>
</g>
<!-- dir_0c368f76a33d967d5b838b5681461de6&#45;&gt;dir_4012ff34c1bb5bd303e44a1c9cef6c8a -->
<g id="edge11" class="edge">
<title>dir_0c368f76a33d967d5b838b5681461de6&#45;&gt;dir_4012ff34c1bb5bd303e44a1c9cef6c8a</title>
<path fill="none" stroke="#000000" d="M498.2411,-108.2375C502.7102,-118.5843 508.1006,-131.8555 512,-144 537.145,-222.3132 535.1226,-244.187 555,-324 557.0736,-332.3259 559.3886,-341.3564 561.5297,-349.6067"/>
<polygon fill="#000000" stroke="#000000" points="558.2068,-350.735 564.1174,-359.5279 564.9802,-348.9683 558.2068,-350.735"/>
<g id="a_edge11&#45;headlabel"><a xlink:href="dir_000001_000003.html" target="_top" xlink:title="3">
<text text-anchor="middle" x="554.5523" y="-345.4733" font-family="Helvetica,sans-Serif" font-size="10.00" fill="#000000">3</text>
</a>
</g>
</g>
<!-- dir_0c368f76a33d967d5b838b5681461de6&#45;&gt;dir_e4cd57caa88bf1f4e1bf9521bc47c3c0 -->
<g id="edge10" class="edge">
<title>dir_0c368f76a33d967d5b838b5681461de6&#45;&gt;dir_e4cd57caa88bf1f4e1bf9521bc47c3c0</title>
<path fill="none" stroke="#000000" d="M454.2928,-100.5444C428.7084,-109.3177 394.4223,-123.6715 369,-144 321.0555,-182.3379 282.1512,-243.8916 262.3084,-279.0544"/>
<polygon fill="#000000" stroke="#000000" points="259.2402,-277.3705 257.4527,-287.8134 265.3624,-280.7645 259.2402,-277.3705"/>
<g id="a_edge10&#45;headlabel"><a xlink:href="dir_000001_000005.html" target="_top" xlink:title="21">
<text text-anchor="middle" x="258.4998" y="-270.35" font-family="Helvetica,sans-Serif" font-size="10.00" fill="#000000">21</text>
</a>
</g>
</g>
<!-- dir_0c368f76a33d967d5b838b5681461de6&#45;&gt;dir_a816a247b59c90f95e41afe29b966a18 -->
<g id="edge12" class="edge">
<title>dir_0c368f76a33d967d5b838b5681461de6&#45;&gt;dir_a816a247b59c90f95e41afe29b966a18</title>
<path fill="none" stroke="#000000" d="M490,-71.8314C490,-64.131 490,-54.9743 490,-46.4166"/>
<polygon fill="#000000" stroke="#000000" points="493.5001,-46.4132 490,-36.4133 486.5001,-46.4133 493.5001,-46.4132"/>
<g id="a_edge12&#45;headlabel"><a xlink:href="dir_000001_000015.html" target="_top" xlink:title="1">
<text text-anchor="middle" x="496.3393" y="-47.5079" font-family="Helvetica,sans-Serif" font-size="10.00" fill="#000000">1</text>
</a>
</g>
</g>
<!-- dir_0c368f76a33d967d5b838b5681461de6&#45;&gt;dir_3d3615e9a999cab4f3407307569d6ced -->
<g id="edge13" class="edge">
<title>dir_0c368f76a33d967d5b838b5681461de6&#45;&gt;dir_3d3615e9a999cab4f3407307569d6ced</title>
<path fill="none" stroke="#000000" d="M454.0927,-100.3111C431.7582,-108.5647 404.2834,-122.4004 388,-144 374.6785,-161.6706 370.2118,-186.5819 368.9169,-205.7173"/>
<polygon fill="#000000" stroke="#000000" points="365.4102,-205.8047 368.4828,-215.9441 372.4039,-206.1016 365.4102,-205.8047"/>
<g id="a_edge13&#45;headlabel"><a xlink:href="dir_000001_000009.html" target="_top" xlink:title="7">
<text text-anchor="middle" x="362.7258" y="-199.5929" font-family="Helvetica,sans-Serif" font-size="10.00" fill="#000000">7</text>
</a>
</g>
</g>
<!-- dir_ebb19deee3cd40f4ac122fef25c04ca8&#45;&gt;dir_0c368f76a33d967d5b838b5681461de6 -->
<g id="edge15" class="edge">
<title>dir_ebb19deee3cd40f4ac122fef25c04ca8&#45;&gt;dir_0c368f76a33d967d5b838b5681461de6</title>
<path fill="none" stroke="#000000" d="M460.0937,-143.8314C464.5597,-135.7925 469.9075,-126.1666 474.8379,-117.2918"/>
<polygon fill="#000000" stroke="#000000" points="477.9735,-118.8546 479.7704,-108.4133 471.8544,-115.4551 477.9735,-118.8546"/>
<g id="a_edge15&#45;headlabel"><a xlink:href="dir_000006_000001.html" target="_top" xlink:title="1">
<text text-anchor="middle" x="478.7098" y="-120.8757" font-family="Helvetica,sans-Serif" font-size="10.00" fill="#000000">1</text>
</a>
</g>
</g>
<!-- dir_ebb19deee3cd40f4ac122fef25c04ca8&#45;&gt;dir_3d3615e9a999cab4f3407307569d6ced -->
<g id="edge16" class="edge">
<title>dir_ebb19deee3cd40f4ac122fef25c04ca8&#45;&gt;dir_3d3615e9a999cab4f3407307569d6ced</title>
<path fill="none" stroke="#000000" d="M435.5186,-180.1628C426.4075,-189.0301 414.4204,-199.8295 403.0889,-209.4219"/>
<polygon fill="#000000" stroke="#000000" points="400.8368,-206.7426 395.3921,-215.8314 405.3163,-212.1217 400.8368,-206.7426"/>
<g id="a_edge16&#45;headlabel"><a xlink:href="dir_000006_000009.html" target="_top" xlink:title="8">
<text text-anchor="middle" x="401.7822" y="-199.7605" font-family="Helvetica,sans-Serif" font-size="10.00" fill="#000000">8</text>
</a>
</g>
</g>
<!-- dir_e4cd57caa88bf1f4e1bf9521bc47c3c0&#45;&gt;dir_3d3615e9a999cab4f3407307569d6ced -->
<g id="edge17" class="edge">
<title>dir_e4cd57caa88bf1f4e1bf9521bc47c3c0&#45;&gt;dir_3d3615e9a999cab4f3407307569d6ced</title>
<path fill="none" stroke="#000000" d="M272.581,-287.8314C290.0028,-276.8265 313.5042,-262.8476 333.0046,-251.893"/>
<polygon fill="#000000" stroke="#000000" points="334.8836,-254.8531 341.9284,-246.9397 331.4863,-248.7327 334.8836,-254.8531"/>
<g id="a_edge17&#45;headlabel"><a xlink:href="dir_000005_000009.html" target="_top" xlink:title="14">
<text text-anchor="middle" x="333.1186" y="-256.5801" font-family="Helvetica,sans-Serif" font-size="10.00" fill="#000000">14</text>
</a>
</g>
</g>
<!-- dir_a816a247b59c90f95e41afe29b966a18&#45;&gt;dir_3d3615e9a999cab4f3407307569d6ced -->
<g id="edge23" class="edge">
<title>dir_a816a247b59c90f95e41afe29b966a18&#45;&gt;dir_3d3615e9a999cab4f3407307569d6ced</title>
<path fill="none" stroke="#000000" d="M463.1506,-36.0609C433.6386,-57.71 387.9077,-97.0133 369,-144 361.1496,-163.5088 361.5535,-187.3799 363.7025,-205.6346"/>
<polygon fill="#000000" stroke="#000000" points="360.2542,-206.247 365.1202,-215.6583 367.1852,-205.2666 360.2542,-206.247"/>
<g id="a_edge23&#45;headlabel"><a xlink:href="dir_000015_000009.html" target="_top" xlink:title="1">
<text text-anchor="middle" x="356.9395" y="-200.5854" font-family="Helvetica,sans-Serif" font-size="10.00" fill="#000000">1</text>
</a>
</g>
</g>
<!-- dir_3d3615e9a999cab4f3407307569d6ced&#45;&gt;dir_ebb19deee3cd40f4ac122fef25c04ca8 -->
<g id="edge24" class="edge">
<title>dir_3d3615e9a999cab4f3407307569d6ced&#45;&gt;dir_ebb19deee3cd40f4ac122fef25c04ca8</title>
<path fill="none" stroke="#000000" d="M383.4873,-215.8314C392.5998,-206.9632 404.5873,-196.1637 415.9185,-186.5718"/>
<polygon fill="#000000" stroke="#000000" points="418.1701,-189.2515 423.615,-180.1628 413.6908,-183.8723 418.1701,-189.2515"/>
<g id="a_edge24&#45;headlabel"><a xlink:href="dir_000009_000006.html" target="_top" xlink:title="1">
<text text-anchor="middle" x="417.2247" y="-191.2335" font-family="Helvetica,sans-Serif" font-size="10.00" fill="#000000">1</text>
</a>
</g>
</g>
<!-- dir_3d3615e9a999cab4f3407307569d6ced&#45;&gt;dir_e4cd57caa88bf1f4e1bf9521bc47c3c0 -->
<g id="edge25" class="edge">
<title>dir_3d3615e9a999cab4f3407307569d6ced&#45;&gt;dir_e4cd57caa88bf1f4e1bf9521bc47c3c0</title>
<path fill="none" stroke="#000000" d="M344.5489,-252.0866C327.1703,-263.0684 303.696,-277.0349 284.1844,-288.0008"/>
<polygon fill="#000000" stroke="#000000" points="282.2953,-285.0464 275.2523,-292.9613 285.6939,-291.166 282.2953,-285.0464"/>
<g id="a_edge25&#45;headlabel"><a xlink:href="dir_000009_000005.html" target="_top" xlink:title="1">
<text text-anchor="middle" x="284.0593" y="-278.319" font-family="Helvetica,sans-Serif" font-size="10.00" fill="#000000">1</text>
</a>
</g>
</g>
</g>
</svg>
