<?xml version="1.0" encoding="UTF-8" standalone="no"?>
<!DOCTYPE svg PUBLIC "-//W3C//DTD SVG 1.1//EN"
 "http://www.w3.org/Graphics/SVG/1.1/DTD/svg11.dtd">
<!-- Generated by graphviz version 2.40.1 (20161225.0304)
 -->
<!-- Title: amr&#45;wind Pages: 1 -->
<svg width="618pt" height="724pt"
 viewBox="0.00 0.00 618.29 724.00" xmlns="http://www.w3.org/2000/svg" xmlns:xlink="http://www.w3.org/1999/xlink">
<g id="graph0" class="graph" transform="scale(1 1) rotate(0) translate(4 720)">
<title>amr&#45;wind</title>
<polygon fill="#ffffff" stroke="transparent" points="-4,4 -4,-720 614.289,-720 614.289,4 -4,4"/>
<g id="clust1" class="cluster">
<title>clusterdir_d85575251dd712327fe3cf057fa568b4</title>
<g id="a_clust1"><a xlink:href="dir_d85575251dd712327fe3cf057fa568b4.html" target="_top">
<polygon fill="#eeeeff" stroke="#000000" points="8,-8 8,-708 544,-708 544,-8 8,-8"/>
</a>
</g>
</g>
<!-- dir_d85575251dd712327fe3cf057fa568b4 -->
<g id="node1" class="node">
<title>dir_d85575251dd712327fe3cf057fa568b4</title>
<text text-anchor="middle" x="149" y="-679.5" font-family="Helvetica,sans-Serif" font-size="10.00" fill="#000000">amr&#45;wind</text>
</g>
<!-- dir_3d3615e9a999cab4f3407307569d6ced -->
<g id="node4" class="node">
<title>dir_3d3615e9a999cab4f3407307569d6ced</title>
<g id="a_node4"><a xlink:href="dir_3d3615e9a999cab4f3407307569d6ced.html" target="_top" xlink:title="core">
<polygon fill="#ffffff" stroke="#ff0000" points="357,-556 303,-556 303,-520 357,-520 357,-556"/>
<text text-anchor="middle" x="330" y="-535.5" font-family="Helvetica,sans-Serif" font-size="10.00" fill="#000000">core</text>
</a>
</g>
</g>
<!-- dir_d85575251dd712327fe3cf057fa568b4&#45;&gt;dir_3d3615e9a999cab4f3407307569d6ced -->
<g id="edge14" class="edge">
<title>dir_d85575251dd712327fe3cf057fa568b4&#45;&gt;dir_3d3615e9a999cab4f3407307569d6ced</title>
<path fill="none" stroke="#000000" d="M145.6959,-663.9269C143.1465,-644.0202 142.4328,-612.164 159,-592 176.0521,-571.2458 247.8104,-553.9356 292.777,-544.8562"/>
<polygon fill="#000000" stroke="#000000" points="293.6255,-548.2563 302.7588,-542.8866 292.2703,-541.3887 293.6255,-548.2563"/>
<g id="a_edge14&#45;headlabel"><a xlink:href="dir_000000_000009.html" target="_top" xlink:title="133">
<text text-anchor="middle" x="290.6485" y="-549.2377" font-family="Helvetica,sans-Serif" font-size="10.00" fill="#000000">133</text>
</a>
</g>
</g>
<!-- dir_4bb30ed846ea1df1fc4d16874a455d91 -->
<g id="node7" class="node">
<title>dir_4bb30ed846ea1df1fc4d16874a455d91</title>
<g id="a_node7"><a xlink:href="dir_4bb30ed846ea1df1fc4d16874a455d91.html" target="_top" xlink:title="equation_systems">
<polygon fill="#ffffff" stroke="#ff0000" points="322,-268 226,-268 226,-232 322,-232 322,-268"/>
<text text-anchor="middle" x="274" y="-247.5" font-family="Helvetica,sans-Serif" font-size="10.00" fill="#000000">equation_systems</text>
</a>
</g>
</g>
<!-- dir_d85575251dd712327fe3cf057fa568b4&#45;&gt;dir_4bb30ed846ea1df1fc4d16874a455d91 -->
<g id="edge13" class="edge">
<title>dir_d85575251dd712327fe3cf057fa568b4&#45;&gt;dir_4bb30ed846ea1df1fc4d16874a455d91</title>
<path fill="none" stroke="#000000" d="M145.585,-663.5804C143.8291,-653.1767 141.8774,-639.9092 141,-628 139.8244,-612.0432 139.5729,-607.9362 141,-592 146.8009,-527.2244 138.5578,-506.4856 167,-448 176.3622,-428.7485 185.6049,-428.6986 199,-412 223.6994,-381.2094 234.2639,-375.7495 251,-340 260.2026,-320.3426 266.086,-296.4791 269.5967,-278.2651"/>
<polygon fill="#000000" stroke="#000000" points="273.0692,-278.7302 271.3968,-268.2683 266.18,-277.4897 273.0692,-278.7302"/>
<g id="a_edge13&#45;headlabel"><a xlink:href="dir_000000_000002.html" target="_top" xlink:title="11">
<text text-anchor="middle" x="275.2266" y="-280.2711" font-family="Helvetica,sans-Serif" font-size="10.00" fill="#000000">11</text>
</a>
</g>
</g>
<!-- dir_629222d9fcf2f4ceefae477297f2ec84 -->
<g id="node10" class="node">
<title>dir_629222d9fcf2f4ceefae477297f2ec84</title>
<g id="a_node10"><a xlink:href="dir_629222d9fcf2f4ceefae477297f2ec84.html" target="_top" xlink:title="overset">
<polygon fill="#ffffff" stroke="#000000" points="438,-628 384,-628 384,-592 438,-592 438,-628"/>
<text text-anchor="middle" x="411" y="-607.5" font-family="Helvetica,sans-Serif" font-size="10.00" fill="#000000">overset</text>
</a>
</g>
</g>
<!-- dir_d85575251dd712327fe3cf057fa568b4&#45;&gt;dir_629222d9fcf2f4ceefae477297f2ec84 -->
<g id="edge9" class="edge">
<title>dir_d85575251dd712327fe3cf057fa568b4&#45;&gt;dir_629222d9fcf2f4ceefae477297f2ec84</title>
<path fill="none" stroke="#000000" d="M177.0832,-677.4295C218.6414,-670.2122 298.8843,-654.5382 374.1432,-627.902"/>
<polygon fill="#000000" stroke="#000000" points="375.5534,-631.114 383.7689,-624.4239 373.1746,-624.5305 375.5534,-631.114"/>
<g id="a_edge9&#45;headlabel"><a xlink:href="dir_000000_000029.html" target="_top" xlink:title="2">
<text text-anchor="middle" x="373.1376" y="-632.5057" font-family="Helvetica,sans-Serif" font-size="10.00" fill="#000000">2</text>
</a>
</g>
</g>
<!-- dir_363965ad9f416a72819c4d9abdf3e48c -->
<g id="node12" class="node">
<title>dir_363965ad9f416a72819c4d9abdf3e48c</title>
<g id="a_node12"><a xlink:href="dir_363965ad9f416a72819c4d9abdf3e48c.html" target="_top" xlink:title="prob">
<polygon fill="#ffffff" stroke="#000000" points="294,-628 240,-628 240,-592 294,-592 294,-628"/>
<text text-anchor="middle" x="267" y="-607.5" font-family="Helvetica,sans-Serif" font-size="10.00" fill="#000000">prob</text>
</a>
</g>
</g>
<!-- dir_d85575251dd712327fe3cf057fa568b4&#45;&gt;dir_363965ad9f416a72819c4d9abdf3e48c -->
<g id="edge10" class="edge">
<title>dir_d85575251dd712327fe3cf057fa568b4&#45;&gt;dir_363965ad9f416a72819c4d9abdf3e48c</title>
<path fill="none" stroke="#000000" d="M177.2639,-664.7542C193.405,-654.9054 213.8042,-642.4585 231.0731,-631.9215"/>
<polygon fill="#000000" stroke="#000000" points="233.0657,-634.8058 239.7791,-626.6094 229.4196,-628.8303 233.0657,-634.8058"/>
<g id="a_edge10&#45;headlabel"><a xlink:href="dir_000000_000018.html" target="_top" xlink:title="1">
<text text-anchor="middle" x="231.4761" y="-636.6018" font-family="Helvetica,sans-Serif" font-size="10.00" fill="#000000">1</text>
</a>
</g>
</g>
<!-- dir_9ff815a534beac751fa88e427dbab695 -->
<g id="node16" class="node">
<title>dir_9ff815a534beac751fa88e427dbab695</title>
<g id="a_node16"><a xlink:href="dir_9ff815a534beac751fa88e427dbab695.html" target="_top" xlink:title="turbulence">
<polygon fill="#ffffff" stroke="#ff0000" points="158,-196 96,-196 96,-160 158,-160 158,-196"/>
<text text-anchor="middle" x="127" y="-175.5" font-family="Helvetica,sans-Serif" font-size="10.00" fill="#000000">turbulence</text>
</a>
</g>
</g>
<!-- dir_d85575251dd712327fe3cf057fa568b4&#45;&gt;dir_9ff815a534beac751fa88e427dbab695 -->
<g id="edge8" class="edge">
<title>dir_d85575251dd712327fe3cf057fa568b4&#45;&gt;dir_9ff815a534beac751fa88e427dbab695</title>
<path fill="none" stroke="#000000" d="M120.9672,-675.6788C95.5116,-668.4653 58.8552,-654.1287 38,-628 12.3768,-595.8976 17,-579.0745 17,-538 17,-538 17,-538 17,-394 17,-318.1739 71.4933,-242.0819 103.7706,-203.6622"/>
<polygon fill="#000000" stroke="#000000" points="106.4447,-205.9204 110.2934,-196.0493 101.129,-201.3658 106.4447,-205.9204"/>
<g id="a_edge8&#45;headlabel"><a xlink:href="dir_000000_000022.html" target="_top" xlink:title="5">
<text text-anchor="middle" x="106.262" y="-207.9974" font-family="Helvetica,sans-Serif" font-size="10.00" fill="#000000">5</text>
</a>
</g>
</g>
<!-- dir_e4cd57caa88bf1f4e1bf9521bc47c3c0 -->
<g id="node17" class="node">
<title>dir_e4cd57caa88bf1f4e1bf9521bc47c3c0</title>
<g id="a_node17"><a xlink:href="dir_e4cd57caa88bf1f4e1bf9521bc47c3c0.html" target="_top" xlink:title="utilities">
<polygon fill="#ffffff" stroke="#ff0000" points="349,-124 295,-124 295,-88 349,-88 349,-124"/>
<text text-anchor="middle" x="322" y="-103.5" font-family="Helvetica,sans-Serif" font-size="10.00" fill="#000000">utilities</text>
</a>
</g>
</g>
<!-- dir_d85575251dd712327fe3cf057fa568b4&#45;&gt;dir_e4cd57caa88bf1f4e1bf9521bc47c3c0 -->
<g id="edge12" class="edge">
<title>dir_d85575251dd712327fe3cf057fa568b4&#45;&gt;dir_e4cd57caa88bf1f4e1bf9521bc47c3c0</title>
<path fill="none" stroke="#000000" d="M177.0639,-680.0609C260.4181,-674.0193 502.1631,-654.351 525,-628 662.0618,-469.8475 625.5794,-303.2398 473,-160 441.4523,-130.3834 392.5537,-116.8243 359.0004,-110.7417"/>
<polygon fill="#000000" stroke="#000000" points="359.5573,-107.2862 349.1161,-109.0845 358.3997,-114.1899 359.5573,-107.2862"/>
<g id="a_edge12&#45;headlabel"><a xlink:href="dir_000000_000005.html" target="_top" xlink:title="54">
<text text-anchor="middle" x="363.5718" y="-102.5804" font-family="Helvetica,sans-Serif" font-size="10.00" fill="#000000">54</text>
</a>
</g>
</g>
<!-- dir_0c368f76a33d967d5b838b5681461de6 -->
<g id="node18" class="node">
<title>dir_0c368f76a33d967d5b838b5681461de6</title>
<g id="a_node18"><a xlink:href="dir_0c368f76a33d967d5b838b5681461de6.html" target="_top" xlink:title="wind_energy">
<polygon fill="#ffffff" stroke="#000000" points="227.5,-340 156.5,-340 156.5,-304 227.5,-304 227.5,-340"/>
<text text-anchor="middle" x="192" y="-319.5" font-family="Helvetica,sans-Serif" font-size="10.00" fill="#000000">wind_energy</text>
</a>
</g>
</g>
<!-- dir_d85575251dd712327fe3cf057fa568b4&#45;&gt;dir_0c368f76a33d967d5b838b5681461de6 -->
<g id="edge11" class="edge">
<title>dir_d85575251dd712327fe3cf057fa568b4&#45;&gt;dir_0c368f76a33d967d5b838b5681461de6</title>
<path fill="none" stroke="#000000" d="M120.9055,-675.7034C96.5947,-668.6069 62.9161,-654.4351 47,-628 38.7471,-614.2927 45.1492,-607.8926 47,-592 58.4717,-493.4918 42.1173,-454.2863 103,-376 114.5007,-361.2118 131.2795,-349.546 147.1766,-340.8985"/>
<polygon fill="#000000" stroke="#000000" points="149.1,-343.8449 156.3881,-336.1551 145.8952,-337.6216 149.1,-343.8449"/>
<g id="a_edge11&#45;headlabel"><a xlink:href="dir_000000_000001.html" target="_top" xlink:title="6">
<text text-anchor="middle" x="147.2041" y="-345.5148" font-family="Helvetica,sans-Serif" font-size="10.00" fill="#000000">6</text>
</a>
</g>
</g>
<!-- dir_ebb19deee3cd40f4ac122fef25c04ca8 -->
<g id="node2" class="node">
<title>dir_ebb19deee3cd40f4ac122fef25c04ca8</title>
<g id="a_node2"><a xlink:href="dir_ebb19deee3cd40f4ac122fef25c04ca8.html" target="_top" xlink:title="boundary_conditions">
<polygon fill="#ffffff" stroke="#000000" points="282,-484 176,-484 176,-448 282,-448 282,-484"/>
<text text-anchor="middle" x="229" y="-463.5" font-family="Helvetica,sans-Serif" font-size="10.00" fill="#000000">boundary_conditions</text>
</a>
</g>
</g>
<!-- dir_ebb19deee3cd40f4ac122fef25c04ca8&#45;&gt;dir_3d3615e9a999cab4f3407307569d6ced -->
<g id="edge34" class="edge">
<title>dir_ebb19deee3cd40f4ac122fef25c04ca8&#45;&gt;dir_3d3615e9a999cab4f3407307569d6ced</title>
<path fill="none" stroke="#000000" d="M260.4302,-484.1628C273.8616,-493.1154 289.3396,-504.0374 302.3328,-513.6982"/>
<polygon fill="#000000" stroke="#000000" points="300.3742,-516.6049 310.4658,-519.8314 304.5889,-511.0159 300.3742,-516.6049"/>
<g id="a_edge34&#45;headlabel"><a xlink:href="dir_000006_000009.html" target="_top" xlink:title="8">
<text text-anchor="middle" x="295.7947" y="-514.2076" font-family="Helvetica,sans-Serif" font-size="10.00" fill="#000000">8</text>
</a>
</g>
</g>
<!-- dir_f2c65bfcbdc19ebacbfc0bbbfb0d01b6 -->
<g id="node11" class="node">
<title>dir_f2c65bfcbdc19ebacbfc0bbbfb0d01b6</title>
<g id="a_node11"><a xlink:href="dir_f2c65bfcbdc19ebacbfc0bbbfb0d01b6.html" target="_top" xlink:title="physics">
<polygon fill="#ffffff" stroke="#ff0000" points="190,-412 136,-412 136,-376 190,-376 190,-412"/>
<text text-anchor="middle" x="163" y="-391.5" font-family="Helvetica,sans-Serif" font-size="10.00" fill="#000000">physics</text>
</a>
</g>
</g>
<!-- dir_ebb19deee3cd40f4ac122fef25c04ca8&#45;&gt;dir_f2c65bfcbdc19ebacbfc0bbbfb0d01b6 -->
<g id="edge32" class="edge">
<title>dir_ebb19deee3cd40f4ac122fef25c04ca8&#45;&gt;dir_f2c65bfcbdc19ebacbfc0bbbfb0d01b6</title>
<path fill="none" stroke="#000000" d="M212.3454,-447.8314C204.5886,-439.3694 195.2198,-429.1489 186.739,-419.8971"/>
<polygon fill="#000000" stroke="#000000" points="189.2162,-417.4198 179.8788,-412.4133 184.0561,-422.1499 189.2162,-417.4198"/>
<g id="a_edge32&#45;headlabel"><a xlink:href="dir_000006_000007.html" target="_top" xlink:title="2">
<text text-anchor="middle" x="193.7381" y="-415.651" font-family="Helvetica,sans-Serif" font-size="10.00" fill="#000000">2</text>
</a>
</g>
</g>
<!-- dir_ebb19deee3cd40f4ac122fef25c04ca8&#45;&gt;dir_0c368f76a33d967d5b838b5681461de6 -->
<g id="edge33" class="edge">
<title>dir_ebb19deee3cd40f4ac122fef25c04ca8&#45;&gt;dir_0c368f76a33d967d5b838b5681461de6</title>
<path fill="none" stroke="#000000" d="M224.3139,-447.7623C217.9752,-423.0928 206.6098,-378.8598 199.1875,-349.9731"/>
<polygon fill="#000000" stroke="#000000" points="202.5266,-348.904 196.648,-340.0896 195.7468,-350.6461 202.5266,-348.904"/>
<g id="a_edge33&#45;headlabel"><a xlink:href="dir_000006_000001.html" target="_top" xlink:title="1">
<text text-anchor="middle" x="206.171" y="-349.1789" font-family="Helvetica,sans-Serif" font-size="10.00" fill="#000000">1</text>
</a>
</g>
</g>
<!-- dir_35ffb1505af3943bdf99903da87524fe -->
<g id="node3" class="node">
<title>dir_35ffb1505af3943bdf99903da87524fe</title>
<g id="a_node3"><a xlink:href="dir_35ffb1505af3943bdf99903da87524fe.html" target="_top" xlink:title="convection">
<polygon fill="#ffffff" stroke="#000000" points="388,-196 324,-196 324,-160 388,-160 388,-196"/>
<text text-anchor="middle" x="356" y="-175.5" font-family="Helvetica,sans-Serif" font-size="10.00" fill="#000000">convection</text>
</a>
</g>
</g>
<!-- dir_35ffb1505af3943bdf99903da87524fe&#45;&gt;dir_3d3615e9a999cab4f3407307569d6ced -->
<g id="edge24" class="edge">
<title>dir_35ffb1505af3943bdf99903da87524fe&#45;&gt;dir_3d3615e9a999cab4f3407307569d6ced</title>
<path fill="none" stroke="#000000" d="M357.036,-196.1784C358.5005,-223.4857 361,-276.7227 361,-322 361,-394 361,-394 361,-394 361,-434.9963 348.8433,-481.1171 339.7554,-509.8674"/>
<polygon fill="#000000" stroke="#000000" points="336.3441,-509.0397 336.5743,-519.6321 342.9998,-511.2081 336.3441,-509.0397"/>
<g id="a_edge24&#45;headlabel"><a xlink:href="dir_000016_000009.html" target="_top" xlink:title="2">
<text text-anchor="middle" x="334.7578" y="-502.2425" font-family="Helvetica,sans-Serif" font-size="10.00" fill="#000000">2</text>
</a>
</g>
</g>
<!-- dir_35ffb1505af3943bdf99903da87524fe&#45;&gt;dir_e4cd57caa88bf1f4e1bf9521bc47c3c0 -->
<g id="edge23" class="edge">
<title>dir_35ffb1505af3943bdf99903da87524fe&#45;&gt;dir_e4cd57caa88bf1f4e1bf9521bc47c3c0</title>
<path fill="none" stroke="#000000" d="M347.4204,-159.8314C343.6642,-151.8771 339.1743,-142.369 335.0202,-133.5723"/>
<polygon fill="#000000" stroke="#000000" points="338.1301,-131.9612 330.6952,-124.4133 331.8004,-134.9503 338.1301,-131.9612"/>
<g id="a_edge23&#45;headlabel"><a xlink:href="dir_000016_000005.html" target="_top" xlink:title="3">
<text text-anchor="middle" x="342.2324" y="-131.4993" font-family="Helvetica,sans-Serif" font-size="10.00" fill="#000000">3</text>
</a>
</g>
</g>
<!-- dir_3d3615e9a999cab4f3407307569d6ced&#45;&gt;dir_ebb19deee3cd40f4ac122fef25c04ca8 -->
<g id="edge51" class="edge">
<title>dir_3d3615e9a999cab4f3407307569d6ced&#45;&gt;dir_ebb19deee3cd40f4ac122fef25c04ca8</title>
<path fill="none" stroke="#000000" d="M302.9445,-522.7307C288.5314,-513.2758 270.949,-500.9269 256.4841,-490.1655"/>
<polygon fill="#000000" stroke="#000000" points="258.4657,-487.2762 248.375,-484.0467 254.2493,-492.8639 258.4657,-487.2762"/>
<g id="a_edge51&#45;headlabel"><a xlink:href="dir_000009_000006.html" target="_top" xlink:title="1">
<text text-anchor="middle" x="263.0452" y="-484.6749" font-family="Helvetica,sans-Serif" font-size="10.00" fill="#000000">1</text>
</a>
</g>
</g>
<!-- dir_3d3615e9a999cab4f3407307569d6ced&#45;&gt;dir_e4cd57caa88bf1f4e1bf9521bc47c3c0 -->
<g id="edge52" class="edge">
<title>dir_3d3615e9a999cab4f3407307569d6ced&#45;&gt;dir_e4cd57caa88bf1f4e1bf9521bc47c3c0</title>
<path fill="none" stroke="#000000" d="M345.4537,-519.8166C355.6828,-510.1931 368.3888,-497.5706 377,-484 417.7391,-419.7983 432,-398.0364 432,-322 432,-322 432,-322 432,-250 432,-209.4482 440.8422,-192.8024 417,-160 402.7118,-140.3421 379.114,-127.2721 358.9198,-118.9222"/>
<polygon fill="#000000" stroke="#000000" points="359.9241,-115.5574 349.3355,-115.1941 357.3864,-122.0813 359.9241,-115.5574"/>
<g id="a_edge52&#45;headlabel"><a xlink:href="dir_000009_000005.html" target="_top" xlink:title="1">
<text text-anchor="middle" x="364.3034" y="-111.7143" font-family="Helvetica,sans-Serif" font-size="10.00" fill="#000000">1</text>
</a>
</g>
</g>
<!-- dir_63a0b6c750cdf58b4c6ba486311e48e1 -->
<g id="node5" class="node">
<title>dir_63a0b6c750cdf58b4c6ba486311e48e1</title>
<g id="a_node5"><a xlink:href="dir_63a0b6c750cdf58b4c6ba486311e48e1.html" target="_top" xlink:title="derive">
<polygon fill="#ffffff" stroke="#000000" points="222,-628 168,-628 168,-592 222,-592 222,-628"/>
<text text-anchor="middle" x="195" y="-607.5" font-family="Helvetica,sans-Serif" font-size="10.00" fill="#000000">derive</text>
</a>
</g>
</g>
<!-- dir_63a0b6c750cdf58b4c6ba486311e48e1&#45;&gt;dir_3d3615e9a999cab4f3407307569d6ced -->
<g id="edge35" class="edge">
<title>dir_63a0b6c750cdf58b4c6ba486311e48e1&#45;&gt;dir_3d3615e9a999cab4f3407307569d6ced</title>
<path fill="none" stroke="#000000" d="M222.3193,-595.4297C242.9049,-584.4507 271.3298,-569.2908 293.806,-557.3035"/>
<polygon fill="#000000" stroke="#000000" points="295.5449,-560.3428 302.7214,-552.5486 292.2507,-554.1663 295.5449,-560.3428"/>
<g id="a_edge35&#45;headlabel"><a xlink:href="dir_000014_000009.html" target="_top" xlink:title="1">
<text text-anchor="middle" x="293.7093" y="-562.0395" font-family="Helvetica,sans-Serif" font-size="10.00" fill="#000000">1</text>
</a>
</g>
</g>
<!-- dir_a816a247b59c90f95e41afe29b966a18 -->
<g id="node6" class="node">
<title>dir_a816a247b59c90f95e41afe29b966a18</title>
<g id="a_node6"><a xlink:href="dir_a816a247b59c90f95e41afe29b966a18.html" target="_top" xlink:title="diffusion">
<polygon fill="#ffffff" stroke="#000000" points="306,-196 252,-196 252,-160 306,-160 306,-196"/>
<text text-anchor="middle" x="279" y="-175.5" font-family="Helvetica,sans-Serif" font-size="10.00" fill="#000000">diffusion</text>
</a>
</g>
</g>
<!-- dir_a816a247b59c90f95e41afe29b966a18&#45;&gt;dir_3d3615e9a999cab4f3407307569d6ced -->
<g id="edge43" class="edge">
<title>dir_a816a247b59c90f95e41afe29b966a18&#45;&gt;dir_3d3615e9a999cab4f3407307569d6ced</title>
<path fill="none" stroke="#000000" d="M302.3551,-196.0365C312.9204,-205.5366 324.4781,-218.0959 331,-232 348.0912,-268.4368 341,-281.7538 341,-322 341,-394 341,-394 341,-394 341,-434.2409 336.6764,-480.6241 333.4505,-509.6311"/>
<polygon fill="#000000" stroke="#000000" points="329.941,-509.515 332.2792,-519.8486 336.8955,-510.3123 329.941,-509.515"/>
<g id="a_edge43&#45;headlabel"><a xlink:href="dir_000015_000009.html" target="_top" xlink:title="1">
<text text-anchor="middle" x="327.5295" y="-503.1204" font-family="Helvetica,sans-Serif" font-size="10.00" fill="#000000">1</text>
</a>
</g>
</g>
<!-- dir_4bb30ed846ea1df1fc4d16874a455d91&#45;&gt;dir_ebb19deee3cd40f4ac122fef25c04ca8 -->
<g id="edge47" class="edge">
<title>dir_4bb30ed846ea1df1fc4d16874a455d91&#45;&gt;dir_ebb19deee3cd40f4ac122fef25c04ca8</title>
<path fill="none" stroke="#000000" d="M275.2096,-268.0892C276.0567,-286.3774 276.3673,-315.3781 272,-340 265.7992,-374.9592 251.5579,-413.3304 241.1579,-438.432"/>
<polygon fill="#000000" stroke="#000000" points="237.9152,-437.114 237.2471,-447.6878 244.3633,-439.8385 237.9152,-437.114"/>
<g id="a_edge47&#45;headlabel"><a xlink:href="dir_000002_000006.html" target="_top" xlink:title="2">
<text text-anchor="middle" x="236.6988" y="-430.1978" font-family="Helvetica,sans-Serif" font-size="10.00" fill="#000000">2</text>
</a>
</g>
</g>
<!-- dir_4bb30ed846ea1df1fc4d16874a455d91&#45;&gt;dir_35ffb1505af3943bdf99903da87524fe -->
<g id="edge45" class="edge">
<title>dir_4bb30ed846ea1df1fc4d16874a455d91&#45;&gt;dir_35ffb1505af3943bdf99903da87524fe</title>
<path fill="none" stroke="#000000" d="M294.6921,-231.8314C304.6948,-223.0485 316.855,-212.3712 327.6999,-202.8489"/>
<polygon fill="#000000" stroke="#000000" points="330.1094,-205.3909 335.3146,-196.1628 325.4908,-200.1308 330.1094,-205.3909"/>
<g id="a_edge45&#45;headlabel"><a xlink:href="dir_000002_000016.html" target="_top" xlink:title="2">
<text text-anchor="middle" x="329.2817" y="-207.3962" font-family="Helvetica,sans-Serif" font-size="10.00" fill="#000000">2</text>
</a>
</g>
</g>
<!-- dir_4bb30ed846ea1df1fc4d16874a455d91&#45;&gt;dir_3d3615e9a999cab4f3407307569d6ced -->
<g id="edge50" class="edge">
<title>dir_4bb30ed846ea1df1fc4d16874a455d91&#45;&gt;dir_3d3615e9a999cab4f3407307569d6ced</title>
<path fill="none" stroke="#000000" d="M277.5017,-268.0089C286.9677,-316.6912 313.12,-451.1886 324.5428,-509.9345"/>
<polygon fill="#000000" stroke="#000000" points="321.1525,-510.8362 326.4969,-519.9843 328.0238,-509.5001 321.1525,-510.8362"/>
<g id="a_edge50&#45;headlabel"><a xlink:href="dir_000002_000009.html" target="_top" xlink:title="46">
<text text-anchor="middle" x="317.6794" y="-505.3496" font-family="Helvetica,sans-Serif" font-size="10.00" fill="#000000">46</text>
</a>
</g>
</g>
<!-- dir_4bb30ed846ea1df1fc4d16874a455d91&#45;&gt;dir_a816a247b59c90f95e41afe29b966a18 -->
<g id="edge49" class="edge">
<title>dir_4bb30ed846ea1df1fc4d16874a455d91&#45;&gt;dir_a816a247b59c90f95e41afe29b966a18</title>
<path fill="none" stroke="#000000" d="M275.2617,-231.8314C275.7965,-224.131 276.4323,-214.9743 277.0266,-206.4166"/>
<polygon fill="#000000" stroke="#000000" points="280.52,-206.6317 277.7213,-196.4133 273.5368,-206.1467 280.52,-206.6317"/>
<g id="a_edge49&#45;headlabel"><a xlink:href="dir_000002_000015.html" target="_top" xlink:title="1">
<text text-anchor="middle" x="283.1035" y="-207.9144" font-family="Helvetica,sans-Serif" font-size="10.00" fill="#000000">1</text>
</a>
</g>
</g>
<!-- dir_4bb30ed846ea1df1fc4d16874a455d91&#45;&gt;dir_9ff815a534beac751fa88e427dbab695 -->
<g id="edge44" class="edge">
<title>dir_4bb30ed846ea1df1fc4d16874a455d91&#45;&gt;dir_9ff815a534beac751fa88e427dbab695</title>
<path fill="none" stroke="#000000" d="M230.9533,-231.8314C210.7976,-222.4089 186.9833,-210.8062 167.1975,-200.7883"/>
<polygon fill="#000000" stroke="#000000" points="168.629,-197.5895 158.1306,-196.1628 165.4479,-203.8249 168.629,-197.5895"/>
<g id="a_edge44&#45;headlabel"><a xlink:href="dir_000002_000022.html" target="_top" xlink:title="2">
<text text-anchor="middle" x="173.1212" y="-194.1937" font-family="Helvetica,sans-Serif" font-size="10.00" fill="#000000">2</text>
</a>
</g>
</g>
<!-- dir_4bb30ed846ea1df1fc4d16874a455d91&#45;&gt;dir_e4cd57caa88bf1f4e1bf9521bc47c3c0 -->
<g id="edge48" class="edge">
<title>dir_4bb30ed846ea1df1fc4d16874a455d91&#45;&gt;dir_e4cd57caa88bf1f4e1bf9521bc47c3c0</title>
<path fill="none" stroke="#000000" d="M259.2309,-231.7381C246.0444,-213.0614 230.5816,-183.5309 243,-160 252.0747,-142.805 269.3624,-130.0461 285.4575,-121.2609"/>
<polygon fill="#000000" stroke="#000000" points="287.4007,-124.1992 294.7251,-116.544 284.2255,-117.9607 287.4007,-124.1992"/>
<g id="a_edge48&#45;headlabel"><a xlink:href="dir_000002_000005.html" target="_top" xlink:title="10">
<text text-anchor="middle" x="285.485" y="-125.86" font-family="Helvetica,sans-Serif" font-size="10.00" fill="#000000">10</text>
</a>
</g>
</g>
<!-- dir_4bb30ed846ea1df1fc4d16874a455d91&#45;&gt;dir_0c368f76a33d967d5b838b5681461de6 -->
<g id="edge46" class="edge">
<title>dir_4bb30ed846ea1df1fc4d16874a455d91&#45;&gt;dir_0c368f76a33d967d5b838b5681461de6</title>
<path fill="none" stroke="#000000" d="M259.2664,-268.1628C250.032,-277.0301 237.895,-287.8295 226.4302,-297.4219"/>
<polygon fill="#000000" stroke="#000000" points="224.1404,-294.7735 218.6445,-303.8314 228.5894,-300.1778 224.1404,-294.7735"/>
<g id="a_edge46&#45;headlabel"><a xlink:href="dir_000002_000001.html" target="_top" xlink:title="2">
<text text-anchor="middle" x="225.1111" y="-287.7968" font-family="Helvetica,sans-Serif" font-size="10.00" fill="#000000">2</text>
</a>
</g>
</g>
<!-- dir_7f7a014517bfe31ea45620a6a947e37b -->
<g id="node8" class="node">
<title>dir_7f7a014517bfe31ea45620a6a947e37b</title>
<g id="a_node8"><a xlink:href="dir_7f7a014517bfe31ea45620a6a947e37b.html" target="_top" xlink:title="fvm">
<polygon fill="#ffffff" stroke="#000000" points="154,-52 100,-52 100,-16 154,-16 154,-52"/>
<text text-anchor="middle" x="127" y="-31.5" font-family="Helvetica,sans-Serif" font-size="10.00" fill="#000000">fvm</text>
</a>
</g>
</g>
<!-- dir_7f7a014517bfe31ea45620a6a947e37b&#45;&gt;dir_3d3615e9a999cab4f3407307569d6ced -->
<g id="edge42" class="edge">
<title>dir_7f7a014517bfe31ea45620a6a947e37b&#45;&gt;dir_3d3615e9a999cab4f3407307569d6ced</title>
<path fill="none" stroke="#000000" d="M154.1377,-35.9511C198.9214,-40.1027 290.0955,-52.542 358,-88 400.4023,-110.1414 416.1521,-117.4457 438,-160 489.1545,-259.6364 468.7212,-304.5851 437,-412 426.8671,-446.3122 423.8316,-456.4551 401,-484 390.9627,-496.1094 377.7146,-507.1097 365.3832,-515.9751"/>
<polygon fill="#000000" stroke="#000000" points="363.266,-513.1841 357.0432,-521.7589 367.2551,-518.9362 363.266,-513.1841"/>
<g id="a_edge42&#45;headlabel"><a xlink:href="dir_000011_000009.html" target="_top" xlink:title="1">
<text text-anchor="middle" x="364.6017" y="-506.3025" font-family="Helvetica,sans-Serif" font-size="10.00" fill="#000000">1</text>
</a>
</g>
</g>
<!-- dir_2635c1cadbb62984b11c32cfeb0f45eb -->
<g id="node9" class="node">
<title>dir_2635c1cadbb62984b11c32cfeb0f45eb</title>
<g id="a_node9"><a xlink:href="dir_2635c1cadbb62984b11c32cfeb0f45eb.html" target="_top" xlink:title="mms">
<polygon fill="#ffffff" stroke="#000000" points="366,-628 312,-628 312,-592 366,-592 366,-628"/>
<text text-anchor="middle" x="339" y="-607.5" font-family="Helvetica,sans-Serif" font-size="10.00" fill="#000000">mms</text>
</a>
</g>
</g>
<!-- dir_2635c1cadbb62984b11c32cfeb0f45eb&#45;&gt;dir_3d3615e9a999cab4f3407307569d6ced -->
<g id="edge26" class="edge">
<title>dir_2635c1cadbb62984b11c32cfeb0f45eb&#45;&gt;dir_3d3615e9a999cab4f3407307569d6ced</title>
<path fill="none" stroke="#000000" d="M336.7289,-591.8314C335.7664,-584.131 334.6218,-574.9743 333.5521,-566.4166"/>
<polygon fill="#000000" stroke="#000000" points="337.0151,-565.9019 332.3017,-556.4133 330.0691,-566.7702 337.0151,-565.9019"/>
<g id="a_edge26&#45;headlabel"><a xlink:href="dir_000026_000009.html" target="_top" xlink:title="3">
<text text-anchor="middle" x="340.2782" y="-566.6166" font-family="Helvetica,sans-Serif" font-size="10.00" fill="#000000">3</text>
</a>
</g>
</g>
<!-- dir_2635c1cadbb62984b11c32cfeb0f45eb&#45;&gt;dir_4bb30ed846ea1df1fc4d16874a455d91 -->
<g id="edge25" class="edge">
<title>dir_2635c1cadbb62984b11c32cfeb0f45eb&#45;&gt;dir_4bb30ed846ea1df1fc4d16874a455d91</title>
<path fill="none" stroke="#000000" d="M350.7508,-591.8241C356.5858,-581.7142 363.0139,-568.6495 366,-556 369.676,-540.428 367.1032,-535.9619 366,-520 363.7725,-487.7697 364.4716,-479.1767 356,-448 338.8047,-384.7186 306.4185,-314.7207 287.9092,-277.25"/>
<polygon fill="#000000" stroke="#000000" points="290.8965,-275.3976 283.3003,-268.0119 284.6327,-278.5227 290.8965,-275.3976"/>
<g id="a_edge25&#45;headlabel"><a xlink:href="dir_000026_000002.html" target="_top" xlink:title="1">
<text text-anchor="middle" x="295.0418" y="-274.8466" font-family="Helvetica,sans-Serif" font-size="10.00" fill="#000000">1</text>
</a>
</g>
</g>
<!-- dir_629222d9fcf2f4ceefae477297f2ec84&#45;&gt;dir_3d3615e9a999cab4f3407307569d6ced -->
<g id="edge22" class="edge">
<title>dir_629222d9fcf2f4ceefae477297f2ec84&#45;&gt;dir_3d3615e9a999cab4f3407307569d6ced</title>
<path fill="none" stroke="#000000" d="M390.5603,-591.8314C380.6795,-583.0485 368.6676,-572.3712 357.955,-562.8489"/>
<polygon fill="#000000" stroke="#000000" points="360.2326,-560.1906 350.4332,-556.1628 355.582,-565.4224 360.2326,-560.1906"/>
<g id="a_edge22&#45;headlabel"><a xlink:href="dir_000029_000009.html" target="_top" xlink:title="3">
<text text-anchor="middle" x="364.8055" y="-557.9566" font-family="Helvetica,sans-Serif" font-size="10.00" fill="#000000">3</text>
</a>
</g>
</g>
<!-- dir_629222d9fcf2f4ceefae477297f2ec84&#45;&gt;dir_4bb30ed846ea1df1fc4d16874a455d91 -->
<g id="edge21" class="edge">
<title>dir_629222d9fcf2f4ceefae477297f2ec84&#45;&gt;dir_4bb30ed846ea1df1fc4d16874a455d91</title>
<path fill="none" stroke="#000000" d="M407.8005,-591.7348C398.6593,-542.6456 369.3841,-404.7686 313,-304 307.7484,-294.6145 301.1655,-284.9216 294.9116,-276.3832"/>
<polygon fill="#000000" stroke="#000000" points="297.6327,-274.1782 288.8288,-268.2839 292.0355,-278.3819 297.6327,-274.1782"/>
<g id="a_edge21&#45;headlabel"><a xlink:href="dir_000029_000002.html" target="_top" xlink:title="1">
<text text-anchor="middle" x="302.0616" y="-272.8474" font-family="Helvetica,sans-Serif" font-size="10.00" fill="#000000">1</text>
</a>
</g>
</g>
<!-- dir_629222d9fcf2f4ceefae477297f2ec84&#45;&gt;dir_e4cd57caa88bf1f4e1bf9521bc47c3c0 -->
<g id="edge20" class="edge">
<title>dir_629222d9fcf2f4ceefae477297f2ec84&#45;&gt;dir_e4cd57caa88bf1f4e1bf9521bc47c3c0</title>
<path fill="none" stroke="#000000" d="M426.5353,-591.8219C447.1578,-565.7696 481,-515.4792 481,-466 481,-466 481,-466 481,-322 481,-247.5068 485.8348,-217.1058 438,-160 417.8514,-135.9464 384.6225,-121.9967 358.8815,-114.324"/>
<polygon fill="#000000" stroke="#000000" points="359.6471,-110.904 349.0746,-111.5913 357.7681,-117.6471 359.6471,-110.904"/>
<g id="a_edge20&#45;headlabel"><a xlink:href="dir_000029_000005.html" target="_top" xlink:title="1">
<text text-anchor="middle" x="363.8719" y="-106.6337" font-family="Helvetica,sans-Serif" font-size="10.00" fill="#000000">1</text>
</a>
</g>
</g>
<!-- dir_f2c65bfcbdc19ebacbfc0bbbfb0d01b6&#45;&gt;dir_3d3615e9a999cab4f3407307569d6ced -->
<g id="edge19" class="edge">
<title>dir_f2c65bfcbdc19ebacbfc0bbbfb0d01b6&#45;&gt;dir_3d3615e9a999cab4f3407307569d6ced</title>
<path fill="none" stroke="#000000" d="M158.2549,-412.23C154.2693,-431.9804 151.4304,-463.4191 167,-484 182.3602,-504.3042 249.7867,-521.5533 292.9628,-530.7852"/>
<polygon fill="#000000" stroke="#000000" points="292.3356,-534.2297 302.84,-532.8484 293.767,-527.3776 292.3356,-534.2297"/>
<g id="a_edge19&#45;headlabel"><a xlink:href="dir_000007_000009.html" target="_top" xlink:title="30">
<text text-anchor="middle" x="288.2365" y="-533.7741" font-family="Helvetica,sans-Serif" font-size="10.00" fill="#000000">30</text>
</a>
</g>
</g>
<!-- dir_f2c65bfcbdc19ebacbfc0bbbfb0d01b6&#45;&gt;dir_4bb30ed846ea1df1fc4d16874a455d91 -->
<g id="edge18" class="edge">
<title>dir_f2c65bfcbdc19ebacbfc0bbbfb0d01b6&#45;&gt;dir_4bb30ed846ea1df1fc4d16874a455d91</title>
<path fill="none" stroke="#000000" d="M190.2167,-379.2344C205.6454,-369.7275 224.3366,-356.1419 237,-340 251.429,-321.6075 261.0698,-296.803 266.8829,-277.892"/>
<polygon fill="#000000" stroke="#000000" points="270.3073,-278.6491 269.7247,-268.0703 263.5831,-276.7035 270.3073,-278.6491"/>
<g id="a_edge18&#45;headlabel"><a xlink:href="dir_000007_000002.html" target="_top" xlink:title="1">
<text text-anchor="middle" x="272.0357" y="-280.3912" font-family="Helvetica,sans-Serif" font-size="10.00" fill="#000000">1</text>
</a>
</g>
</g>
<!-- dir_f2c65bfcbdc19ebacbfc0bbbfb0d01b6&#45;&gt;dir_7f7a014517bfe31ea45620a6a947e37b -->
<g id="edge17" class="edge">
<title>dir_f2c65bfcbdc19ebacbfc0bbbfb0d01b6&#45;&gt;dir_7f7a014517bfe31ea45620a6a947e37b</title>
<path fill="none" stroke="#000000" d="M151.4852,-375.8394C130.9183,-342.0618 88.9057,-266.585 77,-196 72.9747,-172.1353 81.7051,-88.734 82,-88 86.1373,-77.7025 93.0135,-67.9069 100.1608,-59.556"/>
<polygon fill="#000000" stroke="#000000" points="102.8741,-61.7746 107.0158,-52.0229 97.6968,-57.0634 102.8741,-61.7746"/>
<g id="a_edge17&#45;headlabel"><a xlink:href="dir_000007_000011.html" target="_top" xlink:title="2">
<text text-anchor="middle" x="102.5548" y="-63.8441" font-family="Helvetica,sans-Serif" font-size="10.00" fill="#000000">2</text>
</a>
</g>
</g>
<!-- dir_f2c65bfcbdc19ebacbfc0bbbfb0d01b6&#45;&gt;dir_e4cd57caa88bf1f4e1bf9521bc47c3c0 -->
<g id="edge16" class="edge">
<title>dir_f2c65bfcbdc19ebacbfc0bbbfb0d01b6&#45;&gt;dir_e4cd57caa88bf1f4e1bf9521bc47c3c0</title>
<path fill="none" stroke="#000000" d="M156.1711,-375.6901C150.2671,-357.4775 143.356,-328.7546 148,-304 160.6615,-236.5082 156.8791,-209.9507 204,-160 215.7877,-147.5044 255.4034,-130.7342 285.5107,-119.216"/>
<polygon fill="#000000" stroke="#000000" points="286.783,-122.4769 294.9044,-115.673 284.3126,-115.9273 286.783,-122.4769"/>
<g id="a_edge16&#45;headlabel"><a xlink:href="dir_000007_000005.html" target="_top" xlink:title="4">
<text text-anchor="middle" x="284.4216" y="-123.902" font-family="Helvetica,sans-Serif" font-size="10.00" fill="#000000">4</text>
</a>
</g>
</g>
<!-- dir_f2c65bfcbdc19ebacbfc0bbbfb0d01b6&#45;&gt;dir_0c368f76a33d967d5b838b5681461de6 -->
<g id="edge15" class="edge">
<title>dir_f2c65bfcbdc19ebacbfc0bbbfb0d01b6&#45;&gt;dir_0c368f76a33d967d5b838b5681461de6</title>
<path fill="none" stroke="#000000" d="M170.3179,-375.8314C173.4876,-367.9617 177.27,-358.5712 180.7813,-349.8533"/>
<polygon fill="#000000" stroke="#000000" points="184.0939,-350.9968 184.5835,-340.4133 177.6008,-348.3815 184.0939,-350.9968"/>
<g id="a_edge15&#45;headlabel"><a xlink:href="dir_000007_000001.html" target="_top" xlink:title="1">
<text text-anchor="middle" x="185.3847" y="-352.8919" font-family="Helvetica,sans-Serif" font-size="10.00" fill="#000000">1</text>
</a>
</g>
</g>
<!-- dir_d599e6111b2fbf4fd47cd3a4f2a09da4 -->
<g id="node13" class="node">
<title>dir_d599e6111b2fbf4fd47cd3a4f2a09da4</title>
<g id="a_node13"><a xlink:href="dir_d599e6111b2fbf4fd47cd3a4f2a09da4.html" target="_top" xlink:title="projection">
<polygon fill="#ffffff" stroke="#000000" points="515.5,-628 456.5,-628 456.5,-592 515.5,-592 515.5,-628"/>
<text text-anchor="middle" x="486" y="-607.5" font-family="Helvetica,sans-Serif" font-size="10.00" fill="#000000">projection</text>
</a>
</g>
</g>
<!-- dir_d599e6111b2fbf4fd47cd3a4f2a09da4&#45;&gt;dir_3d3615e9a999cab4f3407307569d6ced -->
<g id="edge7" class="edge">
<title>dir_d599e6111b2fbf4fd47cd3a4f2a09da4&#45;&gt;dir_3d3615e9a999cab4f3407307569d6ced</title>
<path fill="none" stroke="#000000" d="M456.2904,-596.2879C430.748,-584.4991 393.8154,-567.4533 366.4824,-554.838"/>
<polygon fill="#000000" stroke="#000000" points="367.7954,-551.5893 357.2491,-550.5765 364.862,-557.945 367.7954,-551.5893"/>
<g id="a_edge7&#45;headlabel"><a xlink:href="dir_000017_000009.html" target="_top" xlink:title="2">
<text text-anchor="middle" x="372.249" y="-548.0176" font-family="Helvetica,sans-Serif" font-size="10.00" fill="#000000">2</text>
</a>
</g>
</g>
<!-- dir_d599e6111b2fbf4fd47cd3a4f2a09da4&#45;&gt;dir_e4cd57caa88bf1f4e1bf9521bc47c3c0 -->
<g id="edge6" class="edge">
<title>dir_d599e6111b2fbf4fd47cd3a4f2a09da4&#45;&gt;dir_e4cd57caa88bf1f4e1bf9521bc47c3c0</title>
<path fill="none" stroke="#000000" d="M489.108,-591.8777C493.5016,-564.6417 501,-511.4948 501,-466 501,-466 501,-466 501,-322 501,-247.1537 507.5315,-213.3143 455,-160 429.1055,-133.7197 388.6813,-119.7759 359.1923,-112.6892"/>
<polygon fill="#000000" stroke="#000000" points="359.7833,-109.2348 349.2595,-110.4595 358.25,-116.0649 359.7833,-109.2348"/>
<g id="a_edge6&#45;headlabel"><a xlink:href="dir_000017_000005.html" target="_top" xlink:title="1">
<text text-anchor="middle" x="363.9124" y="-104.7517" font-family="Helvetica,sans-Serif" font-size="10.00" fill="#000000">1</text>
</a>
</g>
</g>
<!-- dir_073a3c37bc9e3eb3e412aa8cf4eda4c3 -->
<g id="node14" class="node">
<title>dir_073a3c37bc9e3eb3e412aa8cf4eda4c3</title>
<g id="a_node14"><a xlink:href="dir_073a3c37bc9e3eb3e412aa8cf4eda4c3.html" target="_top" xlink:title="setup">
<polygon fill="#ffffff" stroke="#000000" points="110,-628 56,-628 56,-592 110,-592 110,-628"/>
<text text-anchor="middle" x="83" y="-607.5" font-family="Helvetica,sans-Serif" font-size="10.00" fill="#000000">setup</text>
</a>
</g>
</g>
<!-- dir_073a3c37bc9e3eb3e412aa8cf4eda4c3&#45;&gt;dir_3d3615e9a999cab4f3407307569d6ced -->
<g id="edge41" class="edge">
<title>dir_073a3c37bc9e3eb3e412aa8cf4eda4c3&#45;&gt;dir_3d3615e9a999cab4f3407307569d6ced</title>
<path fill="none" stroke="#000000" d="M110.0185,-601.9997C120.6118,-598.8702 132.873,-595.2569 144,-592 195.6211,-576.8905 255.3523,-559.5798 292.9039,-548.718"/>
<polygon fill="#000000" stroke="#000000" points="294.2479,-551.9728 302.882,-545.8326 292.3033,-545.2483 294.2479,-551.9728"/>
<g id="a_edge41&#45;headlabel"><a xlink:href="dir_000019_000009.html" target="_top" xlink:title="1">
<text text-anchor="middle" x="291.5834" y="-553.1988" font-family="Helvetica,sans-Serif" font-size="10.00" fill="#000000">1</text>
</a>
</g>
</g>
<!-- dir_073a3c37bc9e3eb3e412aa8cf4eda4c3&#45;&gt;dir_f2c65bfcbdc19ebacbfc0bbbfb0d01b6 -->
<g id="edge38" class="edge">
<title>dir_073a3c37bc9e3eb3e412aa8cf4eda4c3&#45;&gt;dir_f2c65bfcbdc19ebacbfc0bbbfb0d01b6</title>
<path fill="none" stroke="#000000" d="M82.9327,-591.9343C83.5131,-560.8486 87.8175,-495.9642 112,-448 117.2893,-437.5092 125.2734,-427.6459 133.3643,-419.2923"/>
<polygon fill="#000000" stroke="#000000" points="136.0473,-421.564 140.7505,-412.0703 131.1535,-416.5589 136.0473,-421.564"/>
<g id="a_edge38&#45;headlabel"><a xlink:href="dir_000019_000007.html" target="_top" xlink:title="1">
<text text-anchor="middle" x="135.4621" y="-423.6071" font-family="Helvetica,sans-Serif" font-size="10.00" fill="#000000">1</text>
</a>
</g>
</g>
<!-- dir_073a3c37bc9e3eb3e412aa8cf4eda4c3&#45;&gt;dir_e4cd57caa88bf1f4e1bf9521bc47c3c0 -->
<g id="edge40" class="edge">
<title>dir_073a3c37bc9e3eb3e412aa8cf4eda4c3&#45;&gt;dir_e4cd57caa88bf1f4e1bf9521bc47c3c0</title>
<path fill="none" stroke="#000000" d="M75.9475,-591.7768C51.3549,-524.8502 -23.2971,-289.7813 87,-160 140.3978,-97.1694 189.3437,-145.3047 269,-124 274.3392,-122.572 279.922,-120.89 285.3766,-119.1375"/>
<polygon fill="#000000" stroke="#000000" points="286.591,-122.4222 294.9763,-115.9462 284.3827,-115.7796 286.591,-122.4222"/>
<g id="a_edge40&#45;headlabel"><a xlink:href="dir_000019_000005.html" target="_top" xlink:title="2">
<text text-anchor="middle" x="284.0756" y="-123.7504" font-family="Helvetica,sans-Serif" font-size="10.00" fill="#000000">2</text>
</a>
</g>
</g>
<!-- dir_073a3c37bc9e3eb3e412aa8cf4eda4c3&#45;&gt;dir_0c368f76a33d967d5b838b5681461de6 -->
<g id="edge39" class="edge">
<title>dir_073a3c37bc9e3eb3e412aa8cf4eda4c3&#45;&gt;dir_0c368f76a33d967d5b838b5681461de6</title>
<path fill="none" stroke="#000000" d="M81.2466,-591.6899C78.1738,-549.1268 76.3488,-442.1236 127,-376 135.3889,-365.0485 146.3847,-354.8567 156.9406,-346.3441"/>
<polygon fill="#000000" stroke="#000000" points="159.1281,-349.0768 164.8765,-340.1769 154.8327,-343.5495 159.1281,-349.0768"/>
<g id="a_edge39&#45;headlabel"><a xlink:href="dir_000019_000001.html" target="_top" xlink:title="1">
<text text-anchor="middle" x="158.032" y="-351.0243" font-family="Helvetica,sans-Serif" font-size="10.00" fill="#000000">1</text>
</a>
</g>
</g>
<!-- dir_7b7e55eaa727ae9c717abfc097345a8f -->
<g id="node15" class="node">
<title>dir_7b7e55eaa727ae9c717abfc097345a8f</title>
<g id="a_node15"><a xlink:href="dir_7b7e55eaa727ae9c717abfc097345a8f.html" target="_top" xlink:title="transport_models">
<polygon fill="#ffffff" stroke="#000000" points="260,-124 168,-124 168,-88 260,-88 260,-124"/>
<text text-anchor="middle" x="214" y="-103.5" font-family="Helvetica,sans-Serif" font-size="10.00" fill="#000000">transport_models</text>
</a>
</g>
</g>
<!-- dir_7b7e55eaa727ae9c717abfc097345a8f&#45;&gt;dir_3d3615e9a999cab4f3407307569d6ced -->
<g id="edge53" class="edge">
<title>dir_7b7e55eaa727ae9c717abfc097345a8f&#45;&gt;dir_3d3615e9a999cab4f3407307569d6ced</title>
<path fill="none" stroke="#000000" d="M260.1889,-118.1547C313.0019,-132.2698 392.773,-154.3455 397,-160 478.3697,-268.849 387.6064,-444.1172 347.3004,-510.9374"/>
<polygon fill="#000000" stroke="#000000" points="344.215,-509.2736 341.9711,-519.6281 350.1824,-512.933 344.215,-509.2736"/>
<g id="a_edge53&#45;headlabel"><a xlink:href="dir_000010_000009.html" target="_top" xlink:title="2">
<text text-anchor="middle" x="343.6737" y="-502.225" font-family="Helvetica,sans-Serif" font-size="10.00" fill="#000000">2</text>
</a>
</g>
</g>
<!-- dir_9ff815a534beac751fa88e427dbab695&#45;&gt;dir_3d3615e9a999cab4f3407307569d6ced -->
<g id="edge3" class="edge">
<title>dir_9ff815a534beac751fa88e427dbab695&#45;&gt;dir_3d3615e9a999cab4f3407307569d6ced</title>
<path fill="none" stroke="#000000" d="M121.3809,-196.1551C106.1758,-249.3205 70.5505,-405.8314 151,-484 171.2364,-503.6627 246.5399,-521.5233 292.7848,-530.9613"/>
<polygon fill="#000000" stroke="#000000" points="292.2497,-534.4236 302.7423,-532.9553 293.6242,-527.5598 292.2497,-534.4236"/>
<g id="a_edge3&#45;headlabel"><a xlink:href="dir_000022_000009.html" target="_top" xlink:title="5">
<text text-anchor="middle" x="288.1676" y="-534.0018" font-family="Helvetica,sans-Serif" font-size="10.00" fill="#000000">5</text>
</a>
</g>
</g>
<!-- dir_9ff815a534beac751fa88e427dbab695&#45;&gt;dir_4bb30ed846ea1df1fc4d16874a455d91 -->
<g id="edge4" class="edge">
<title>dir_9ff815a534beac751fa88e427dbab695&#45;&gt;dir_4bb30ed846ea1df1fc4d16874a455d91</title>
<path fill="none" stroke="#000000" d="M158.2564,-190.7168C180.313,-200.7893 209.9189,-215.1206 233.7185,-227.1692"/>
<polygon fill="#000000" stroke="#000000" points="232.3597,-230.4051 242.8581,-231.8314 235.5405,-224.1695 232.3597,-230.4051"/>
<g id="a_edge4&#45;headlabel"><a xlink:href="dir_000022_000002.html" target="_top" xlink:title="2">
<text text-anchor="middle" x="227.8675" y="-228.8009" font-family="Helvetica,sans-Serif" font-size="10.00" fill="#000000">2</text>
</a>
</g>
</g>
<!-- dir_9ff815a534beac751fa88e427dbab695&#45;&gt;dir_7f7a014517bfe31ea45620a6a947e37b -->
<g id="edge2" class="edge">
<title>dir_9ff815a534beac751fa88e427dbab695&#45;&gt;dir_7f7a014517bfe31ea45620a6a947e37b</title>
<path fill="none" stroke="#000000" d="M127,-159.7623C127,-135.201 127,-91.2474 127,-62.3541"/>
<polygon fill="#000000" stroke="#000000" points="130.5001,-62.0896 127,-52.0896 123.5001,-62.0897 130.5001,-62.0896"/>
<g id="a_edge2&#45;headlabel"><a xlink:href="dir_000022_000011.html" target="_top" xlink:title="3">
<text text-anchor="middle" x="133.3393" y="-63.1842" font-family="Helvetica,sans-Serif" font-size="10.00" fill="#000000">3</text>
</a>
</g>
</g>
<!-- dir_9ff815a534beac751fa88e427dbab695&#45;&gt;dir_7b7e55eaa727ae9c717abfc097345a8f -->
<g id="edge5" class="edge">
<title>dir_9ff815a534beac751fa88e427dbab695&#45;&gt;dir_7b7e55eaa727ae9c717abfc097345a8f</title>
<path fill="none" stroke="#000000" d="M148.9538,-159.8314C159.6695,-150.9632 172.7189,-140.1637 184.309,-130.5718"/>
<polygon fill="#000000" stroke="#000000" points="186.5808,-133.2349 192.0533,-124.1628 182.1178,-127.8422 186.5808,-133.2349"/>
<g id="a_edge5&#45;headlabel"><a xlink:href="dir_000022_000010.html" target="_top" xlink:title="2">
<text text-anchor="middle" x="185.6218" y="-135.2141" font-family="Helvetica,sans-Serif" font-size="10.00" fill="#000000">2</text>
</a>
</g>
</g>
<!-- dir_9ff815a534beac751fa88e427dbab695&#45;&gt;dir_e4cd57caa88bf1f4e1bf9521bc47c3c0 -->
<g id="edge1" class="edge">
<title>dir_9ff815a534beac751fa88e427dbab695&#45;&gt;dir_e4cd57caa88bf1f4e1bf9521bc47c3c0</title>
<path fill="none" stroke="#000000" d="M158.4165,-165.271C162.964,-163.4758 167.5951,-161.6733 172,-160 210.356,-145.4298 254.5888,-129.6265 285.0306,-118.904"/>
<polygon fill="#000000" stroke="#000000" points="286.5234,-122.0892 294.7972,-115.4715 284.2023,-115.4852 286.5234,-122.0892"/>
<g id="a_edge1&#45;headlabel"><a xlink:href="dir_000022_000005.html" target="_top" xlink:title="1">
<text text-anchor="middle" x="284.0735" y="-123.4597" font-family="Helvetica,sans-Serif" font-size="10.00" fill="#000000">1</text>
</a>
</g>
</g>
<!-- dir_e4cd57caa88bf1f4e1bf9521bc47c3c0&#45;&gt;dir_3d3615e9a999cab4f3407307569d6ced -->
<g id="edge37" class="edge">
<title>dir_e4cd57caa88bf1f4e1bf9521bc47c3c0&#45;&gt;dir_3d3615e9a999cab4f3407307569d6ced</title>
<path fill="none" stroke="#000000" d="M349.2768,-110.8348C375.9365,-117.5632 414.7853,-132.1884 435,-160 458.8422,-192.8024 450,-209.4482 450,-250 450,-322 450,-322 450,-322 450,-398.0364 435.7391,-419.7983 395,-484 387.1972,-496.2966 376.0325,-507.8147 365.0496,-517.0286"/>
<polygon fill="#000000" stroke="#000000" points="362.7932,-514.351 357.1353,-523.3087 367.1443,-519.8345 362.7932,-514.351"/>
<g id="a_edge37&#45;headlabel"><a xlink:href="dir_000005_000009.html" target="_top" xlink:title="14">
<text text-anchor="middle" x="363.8441" y="-507.3926" font-family="Helvetica,sans-Serif" font-size="10.00" fill="#000000">14</text>
</a>
</g>
</g>
<!-- dir_e4cd57caa88bf1f4e1bf9521bc47c3c0&#45;&gt;dir_7f7a014517bfe31ea45620a6a947e37b -->
<g id="edge36" class="edge">
<title>dir_e4cd57caa88bf1f4e1bf9521bc47c3c0&#45;&gt;dir_7f7a014517bfe31ea45620a6a947e37b</title>
<path fill="none" stroke="#000000" d="M294.8861,-95.9887C260.7829,-83.3968 202.0796,-61.7217 163.9068,-47.6271"/>
<polygon fill="#000000" stroke="#000000" points="164.7906,-44.2225 154.1973,-44.0421 162.3659,-50.7892 164.7906,-44.2225"/>
<g id="a_edge36&#45;headlabel"><a xlink:href="dir_000005_000011.html" target="_top" xlink:title="1">
<text text-anchor="middle" x="169.1461" y="-40.304" font-family="Helvetica,sans-Serif" font-size="10.00" fill="#000000">1</text>
</a>
</g>
</g>
<!-- dir_0c368f76a33d967d5b838b5681461de6&#45;&gt;dir_3d3615e9a999cab4f3407307569d6ced -->
<g id="edge30" class="edge">
<title>dir_0c368f76a33d967d5b838b5681461de6&#45;&gt;dir_3d3615e9a999cab4f3407307569d6ced</title>
<path fill="none" stroke="#000000" d="M208.7021,-340.1085C229.8122,-363.65 266.3616,-406.6571 291,-448 302.8425,-467.8716 313.0984,-491.9959 320.1169,-510.2642"/>
<polygon fill="#000000" stroke="#000000" points="316.8842,-511.6121 323.6725,-519.7466 323.4386,-509.1544 316.8842,-511.6121"/>
<g id="a_edge30&#45;headlabel"><a xlink:href="dir_000001_000009.html" target="_top" xlink:title="7">
<text text-anchor="middle" x="312.9637" y="-506.7432" font-family="Helvetica,sans-Serif" font-size="10.00" fill="#000000">7</text>
</a>
</g>
</g>
<!-- dir_0c368f76a33d967d5b838b5681461de6&#45;&gt;dir_a816a247b59c90f95e41afe29b966a18 -->
<g id="edge29" class="edge">
<title>dir_0c368f76a33d967d5b838b5681461de6&#45;&gt;dir_a816a247b59c90f95e41afe29b966a18</title>
<path fill="none" stroke="#000000" d="M193.9187,-303.8494C196.6209,-284.7322 202.9009,-254.359 217,-232 224.029,-220.8532 234.0514,-210.7232 243.9942,-202.3264"/>
<polygon fill="#000000" stroke="#000000" points="246.2911,-204.9708 251.8924,-195.9776 241.9055,-199.5149 246.2911,-204.9708"/>
<g id="a_edge29&#45;headlabel"><a xlink:href="dir_000001_000015.html" target="_top" xlink:title="1">
<text text-anchor="middle" x="245.2683" y="-206.9357" font-family="Helvetica,sans-Serif" font-size="10.00" fill="#000000">1</text>
</a>
</g>
</g>
<!-- dir_0c368f76a33d967d5b838b5681461de6&#45;&gt;dir_4bb30ed846ea1df1fc4d16874a455d91 -->
<g id="edge31" class="edge">
<title>dir_0c368f76a33d967d5b838b5681461de6&#45;&gt;dir_4bb30ed846ea1df1fc4d16874a455d91</title>
<path fill="none" stroke="#000000" d="M206.7397,-303.8314C215.9753,-294.9632 228.1128,-284.1637 239.5773,-274.5718"/>
<polygon fill="#000000" stroke="#000000" points="241.8666,-277.2206 247.3627,-268.1628 237.4177,-271.8162 241.8666,-277.2206"/>
<g id="a_edge31&#45;headlabel"><a xlink:href="dir_000001_000002.html" target="_top" xlink:title="3">
<text text-anchor="middle" x="240.8959" y="-279.1972" font-family="Helvetica,sans-Serif" font-size="10.00" fill="#000000">3</text>
</a>
</g>
</g>
<!-- dir_0c368f76a33d967d5b838b5681461de6&#45;&gt;dir_7f7a014517bfe31ea45620a6a947e37b -->
<g id="edge28" class="edge">
<title>dir_0c368f76a33d967d5b838b5681461de6&#45;&gt;dir_7f7a014517bfe31ea45620a6a947e37b</title>
<path fill="none" stroke="#000000" d="M169.538,-303.912C143.8944,-281.6663 103.3821,-241.2482 87,-196 70.3047,-149.8868 93.1821,-93.9192 110.5953,-61.2956"/>
<polygon fill="#000000" stroke="#000000" points="113.7669,-62.7928 115.5489,-52.3489 107.643,-59.402 113.7669,-62.7928"/>
<g id="a_edge28&#45;headlabel"><a xlink:href="dir_000001_000011.html" target="_top" xlink:title="1">
<text text-anchor="middle" x="114.5097" y="-64.8128" font-family="Helvetica,sans-Serif" font-size="10.00" fill="#000000">1</text>
</a>
</g>
</g>
<!-- dir_0c368f76a33d967d5b838b5681461de6&#45;&gt;dir_e4cd57caa88bf1f4e1bf9521bc47c3c0 -->
<g id="edge27" class="edge">
<title>dir_0c368f76a33d967d5b838b5681461de6&#45;&gt;dir_e4cd57caa88bf1f4e1bf9521bc47c3c0</title>
<path fill="none" stroke="#000000" d="M190.8145,-303.7176C190.1267,-285.2792 190.4398,-256.1639 197,-232 206.4264,-197.2788 209.5404,-186.3847 234,-160 248.3949,-144.4721 268.2419,-131.7768 285.4446,-122.6062"/>
<polygon fill="#000000" stroke="#000000" points="287.3722,-125.5513 294.6782,-117.8784 284.1819,-119.3206 287.3722,-125.5513"/>
<g id="a_edge27&#45;headlabel"><a xlink:href="dir_000001_000005.html" target="_top" xlink:title="21">
<text text-anchor="middle" x="285.4667" y="-127.2168" font-family="Helvetica,sans-Serif" font-size="10.00" fill="#000000">21</text>
</a>
</g>
</g>
</g>
</svg>
