<?xml version="1.0" encoding="UTF-8" standalone="no"?>
<!DOCTYPE svg PUBLIC "-//W3C//DTD SVG 1.1//EN"
 "http://www.w3.org/Graphics/SVG/1.1/DTD/svg11.dtd">
<!-- Generated by graphviz version 2.40.1 (20161225.0304)
 -->
<!-- Title: physics Pages: 1 -->
<svg width="374pt" height="447pt"
 viewBox="0.00 0.00 374.00 447.00" xmlns="http://www.w3.org/2000/svg" xmlns:xlink="http://www.w3.org/1999/xlink">
<g id="graph0" class="graph" transform="scale(1 1) rotate(0) translate(4 443)">
<title>physics</title>
<polygon fill="#ffffff" stroke="transparent" points="-4,4 -4,-443 370,-443 370,4 -4,4"/>
<g id="clust1" class="cluster">
<title>clusterdir_d85575251dd712327fe3cf057fa568b4</title>
<g id="a_clust1"><a xlink:href="dir_d85575251dd712327fe3cf057fa568b4.html" target="_top" xlink:title="amr&#45;wind">
<polygon fill="#ddddee" stroke="#000000" points="8,-272 8,-431 176,-431 176,-272 8,-272"/>
<text text-anchor="middle" x="92" y="-419" font-family="Helvetica,sans-Serif" font-size="10.00" fill="#000000">amr&#45;wind</text>
</a>
</g>
</g>
<g id="clust2" class="cluster">
<title>clusterdir_f2c65bfcbdc19ebacbfc0bbbfb0d01b6</title>
<g id="a_clust2"><a xlink:href="dir_f2c65bfcbdc19ebacbfc0bbbfb0d01b6.html" target="_top">
<polygon fill="#eeeeff" stroke="#000000" points="16,-280 16,-404 168,-404 168,-280 16,-280"/>
</a>
</g>
</g>
<!-- dir_f2c65bfcbdc19ebacbfc0bbbfb0d01b6 -->
<g id="node1" class="node">
<title>dir_f2c65bfcbdc19ebacbfc0bbbfb0d01b6</title>
<text text-anchor="middle" x="51" y="-375.5" font-family="Helvetica,sans-Serif" font-size="10.00" fill="#000000">physics</text>
</g>
<!-- dir_112afea7a726e6a1d518c2be02377acb -->
<g id="node3" class="node">
<title>dir_112afea7a726e6a1d518c2be02377acb</title>
<g id="a_node3"><a xlink:href="dir_112afea7a726e6a1d518c2be02377acb.html" target="_top" xlink:title="udfs">
<polygon fill="#ffffff" stroke="#000000" points="78,-324 24,-324 24,-288 78,-288 78,-324"/>
<text text-anchor="middle" x="51" y="-303.5" font-family="Helvetica,sans-Serif" font-size="10.00" fill="#000000">udfs</text>
</a>
</g>
</g>
<!-- dir_f2c65bfcbdc19ebacbfc0bbbfb0d01b6&#45;&gt;dir_112afea7a726e6a1d518c2be02377acb -->
<g id="edge1" class="edge">
<title>dir_f2c65bfcbdc19ebacbfc0bbbfb0d01b6&#45;&gt;dir_112afea7a726e6a1d518c2be02377acb</title>
<path fill="none" stroke="#000000" d="M51,-359.8314C51,-352.131 51,-342.9743 51,-334.4166"/>
<polygon fill="#000000" stroke="#000000" points="54.5001,-334.4132 51,-324.4133 47.5001,-334.4133 54.5001,-334.4132"/>
<g id="a_edge1&#45;headlabel"><a xlink:href="dir_000007_000024.html" target="_top" xlink:title="2">
<text text-anchor="middle" x="57.3393" y="-335.5079" font-family="Helvetica,sans-Serif" font-size="10.00" fill="#000000">2</text>
</a>
</g>
</g>
<!-- dir_0c368f76a33d967d5b838b5681461de6 -->
<g id="node4" class="node">
<title>dir_0c368f76a33d967d5b838b5681461de6</title>
<g id="a_node4"><a xlink:href="dir_0c368f76a33d967d5b838b5681461de6.html" target="_top" xlink:title="wind_energy">
<polygon fill="none" stroke="#000000" points="255.5,-324 184.5,-324 184.5,-288 255.5,-288 255.5,-324"/>
<text text-anchor="middle" x="220" y="-303.5" font-family="Helvetica,sans-Serif" font-size="10.00" fill="#000000">wind_energy</text>
</a>
</g>
</g>
<!-- dir_f2c65bfcbdc19ebacbfc0bbbfb0d01b6&#45;&gt;dir_0c368f76a33d967d5b838b5681461de6 -->
<g id="edge2" class="edge">
<title>dir_f2c65bfcbdc19ebacbfc0bbbfb0d01b6&#45;&gt;dir_0c368f76a33d967d5b838b5681461de6</title>
<path fill="none" stroke="#000000" d="M78.0181,-364.2082C81.0325,-362.754 84.0712,-361.3244 87,-360 115.8938,-346.9348 148.9229,-333.5167 174.838,-323.3242"/>
<polygon fill="#000000" stroke="#000000" points="176.3614,-326.4866 184.3984,-319.5833 173.8106,-319.9679 176.3614,-326.4866"/>
<g id="a_edge2&#45;headlabel"><a xlink:href="dir_000007_000001.html" target="_top" xlink:title="1">
<text text-anchor="middle" x="174.0485" y="-327.9405" font-family="Helvetica,sans-Serif" font-size="10.00" fill="#000000">1</text>
</a>
</g>
</g>
<!-- dir_e4cd57caa88bf1f4e1bf9521bc47c3c0 -->
<g id="node5" class="node">
<title>dir_e4cd57caa88bf1f4e1bf9521bc47c3c0</title>
<g id="a_node5"><a xlink:href="dir_e4cd57caa88bf1f4e1bf9521bc47c3c0.html" target="_top" xlink:title="utilities">
<polygon fill="#ffffff" stroke="#ff0000" points="241,-180 187,-180 187,-144 241,-144 241,-180"/>
<text text-anchor="middle" x="214" y="-159.5" font-family="Helvetica,sans-Serif" font-size="10.00" fill="#000000">utilities</text>
</a>
</g>
</g>
<!-- dir_f2c65bfcbdc19ebacbfc0bbbfb0d01b6&#45;&gt;dir_e4cd57caa88bf1f4e1bf9521bc47c3c0 -->
<g id="edge3" class="edge">
<title>dir_f2c65bfcbdc19ebacbfc0bbbfb0d01b6&#45;&gt;dir_e4cd57caa88bf1f4e1bf9521bc47c3c0</title>
<path fill="none" stroke="#000000" d="M78.1953,-363.4751C81.1226,-362.1922 84.0935,-361.0026 87,-360 162.8896,-333.8235 213.2063,-386.1646 264,-324 296.6208,-284.0766 261.1962,-222.9468 235.5692,-188.3192"/>
<polygon fill="#000000" stroke="#000000" points="238.1598,-185.9443 229.3124,-180.1156 232.5939,-190.1894 238.1598,-185.9443"/>
<g id="a_edge3&#45;headlabel"><a xlink:href="dir_000007_000005.html" target="_top" xlink:title="4">
<text text-anchor="middle" x="242.5972" y="-184.5806" font-family="Helvetica,sans-Serif" font-size="10.00" fill="#000000">4</text>
</a>
</g>
</g>
<!-- dir_e037da66ad872c58acfc861df6f5c212 -->
<g id="node2" class="node">
<title>dir_e037da66ad872c58acfc861df6f5c212</title>
<g id="a_node2"><a xlink:href="dir_e037da66ad872c58acfc861df6f5c212.html" target="_top" xlink:title="multiphase">
<polygon fill="#ffffff" stroke="#000000" points="160,-396 96,-396 96,-360 160,-360 160,-396"/>
<text text-anchor="middle" x="128" y="-375.5" font-family="Helvetica,sans-Serif" font-size="10.00" fill="#000000">multiphase</text>
</a>
</g>
</g>
<!-- dir_7f7a014517bfe31ea45620a6a947e37b -->
<g id="node6" class="node">
<title>dir_7f7a014517bfe31ea45620a6a947e37b</title>
<g id="a_node6"><a xlink:href="dir_7f7a014517bfe31ea45620a6a947e37b.html" target="_top" xlink:title="fvm">
<polygon fill="none" stroke="#000000" points="297,-108 243,-108 243,-72 297,-72 297,-108"/>
<text text-anchor="middle" x="270" y="-87.5" font-family="Helvetica,sans-Serif" font-size="10.00" fill="#000000">fvm</text>
</a>
</g>
</g>
<!-- dir_e037da66ad872c58acfc861df6f5c212&#45;&gt;dir_7f7a014517bfe31ea45620a6a947e37b -->
<g id="edge6" class="edge">
<title>dir_e037da66ad872c58acfc861df6f5c212&#45;&gt;dir_7f7a014517bfe31ea45620a6a947e37b</title>
<path fill="none" stroke="#000000" d="M160.0972,-371.5247C201.5847,-362.4283 270.2668,-344.6478 285,-324 329.3879,-261.7928 300.6102,-164.9894 282.1032,-117.7798"/>
<polygon fill="#000000" stroke="#000000" points="285.2291,-116.1742 278.2282,-108.222 278.7419,-118.8043 285.2291,-116.1742"/>
<g id="a_edge6&#45;headlabel"><a xlink:href="dir_000012_000011.html" target="_top" xlink:title="2">
<text text-anchor="middle" x="289.2108" y="-115.9387" font-family="Helvetica,sans-Serif" font-size="10.00" fill="#000000">2</text>
</a>
</g>
</g>
<!-- dir_3d3615e9a999cab4f3407307569d6ced -->
<g id="node8" class="node">
<title>dir_3d3615e9a999cab4f3407307569d6ced</title>
<g id="a_node8"><a xlink:href="dir_3d3615e9a999cab4f3407307569d6ced.html" target="_top" xlink:title="core">
<polygon fill="#ffffff" stroke="#ff0000" points="233,-36 179,-36 179,0 233,0 233,-36"/>
<text text-anchor="middle" x="206" y="-15.5" font-family="Helvetica,sans-Serif" font-size="10.00" fill="#000000">core</text>
</a>
</g>
</g>
<!-- dir_e037da66ad872c58acfc861df6f5c212&#45;&gt;dir_3d3615e9a999cab4f3407307569d6ced -->
<g id="edge7" class="edge">
<title>dir_e037da66ad872c58acfc861df6f5c212&#45;&gt;dir_3d3615e9a999cab4f3407307569d6ced</title>
<path fill="none" stroke="#000000" d="M160.1668,-375.2474C198.9382,-370.4978 264.4254,-357.751 309,-324 346.7474,-295.4184 366,-281.3474 366,-234 366,-234 366,-234 366,-162 366,-95.9209 289.6701,-52.4261 242.4519,-31.8416"/>
<polygon fill="#000000" stroke="#000000" points="243.7159,-28.5762 233.1418,-27.9136 240.9947,-35.0257 243.7159,-28.5762"/>
<g id="a_edge7&#45;headlabel"><a xlink:href="dir_000012_000009.html" target="_top" xlink:title="10">
<text text-anchor="middle" x="248.1315" y="-24.8575" font-family="Helvetica,sans-Serif" font-size="10.00" fill="#000000">10</text>
</a>
</g>
</g>
<!-- dir_4bb30ed846ea1df1fc4d16874a455d91 -->
<g id="node7" class="node">
<title>dir_4bb30ed846ea1df1fc4d16874a455d91</title>
<g id="a_node7"><a xlink:href="dir_4bb30ed846ea1df1fc4d16874a455d91.html" target="_top" xlink:title="equation_systems">
<polygon fill="#ffffff" stroke="#ff0000" points="148,-252 52,-252 52,-216 148,-216 148,-252"/>
<text text-anchor="middle" x="100" y="-231.5" font-family="Helvetica,sans-Serif" font-size="10.00" fill="#000000">equation_systems</text>
</a>
</g>
</g>
<!-- dir_112afea7a726e6a1d518c2be02377acb&#45;&gt;dir_4bb30ed846ea1df1fc4d16874a455d91 -->
<g id="edge4" class="edge">
<title>dir_112afea7a726e6a1d518c2be02377acb&#45;&gt;dir_4bb30ed846ea1df1fc4d16874a455d91</title>
<path fill="none" stroke="#000000" d="M63.3648,-287.8314C68.9509,-279.6232 75.663,-269.7606 81.8072,-260.7323"/>
<polygon fill="#000000" stroke="#000000" points="84.736,-262.6496 87.4687,-252.4133 78.949,-258.7112 84.736,-262.6496"/>
<g id="a_edge4&#45;headlabel"><a xlink:href="dir_000024_000002.html" target="_top" xlink:title="1">
<text text-anchor="middle" x="85.0609" y="-264.7187" font-family="Helvetica,sans-Serif" font-size="10.00" fill="#000000">1</text>
</a>
</g>
</g>
<!-- dir_112afea7a726e6a1d518c2be02377acb&#45;&gt;dir_3d3615e9a999cab4f3407307569d6ced -->
<g id="edge5" class="edge">
<title>dir_112afea7a726e6a1d518c2be02377acb&#45;&gt;dir_3d3615e9a999cab4f3407307569d6ced</title>
<path fill="none" stroke="#000000" d="M45.7856,-287.7663C41.355,-269.3658 36.64,-240.2794 43,-216 61.6073,-144.9664 73.9247,-125.7072 124,-72 137.1181,-57.9304 154.6055,-45.7716 170.0608,-36.573"/>
<polygon fill="#000000" stroke="#000000" points="171.9505,-39.5239 178.8774,-31.5071 168.463,-33.4545 171.9505,-39.5239"/>
<g id="a_edge5&#45;headlabel"><a xlink:href="dir_000024_000009.html" target="_top" xlink:title="8">
<text text-anchor="middle" x="170.2483" y="-41.2765" font-family="Helvetica,sans-Serif" font-size="10.00" fill="#000000">8</text>
</a>
</g>
</g>
<!-- dir_0c368f76a33d967d5b838b5681461de6&#45;&gt;dir_e4cd57caa88bf1f4e1bf9521bc47c3c0 -->
<g id="edge8" class="edge">
<title>dir_0c368f76a33d967d5b838b5681461de6&#45;&gt;dir_e4cd57caa88bf1f4e1bf9521bc47c3c0</title>
<path fill="none" stroke="#000000" d="M219.2401,-287.7623C218.2167,-263.201 216.3853,-219.2474 215.1814,-190.3541"/>
<polygon fill="#000000" stroke="#000000" points="218.6671,-189.9352 214.7537,-180.0896 211.6732,-190.2267 218.6671,-189.9352"/>
<g id="a_edge8&#45;headlabel"><a xlink:href="dir_000001_000005.html" target="_top" xlink:title="21">
<text text-anchor="middle" x="221.6535" y="-190.9085" font-family="Helvetica,sans-Serif" font-size="10.00" fill="#000000">21</text>
</a>
</g>
</g>
<!-- dir_0c368f76a33d967d5b838b5681461de6&#45;&gt;dir_7f7a014517bfe31ea45620a6a947e37b -->
<g id="edge9" class="edge">
<title>dir_0c368f76a33d967d5b838b5681461de6&#45;&gt;dir_7f7a014517bfe31ea45620a6a947e37b</title>
<path fill="none" stroke="#000000" d="M224.4589,-287.6574C230.3959,-263.1475 241.1742,-218.3489 250,-180 254.7269,-159.4613 259.8823,-136.2411 263.7749,-118.5313"/>
<polygon fill="#000000" stroke="#000000" points="267.2974,-118.8073 266.0202,-108.2897 260.4598,-117.3082 267.2974,-118.8073"/>
<g id="a_edge9&#45;headlabel"><a xlink:href="dir_000001_000011.html" target="_top" xlink:title="1">
<text text-anchor="middle" x="269.3011" y="-120.4266" font-family="Helvetica,sans-Serif" font-size="10.00" fill="#000000">1</text>
</a>
</g>
</g>
<!-- dir_0c368f76a33d967d5b838b5681461de6&#45;&gt;dir_4bb30ed846ea1df1fc4d16874a455d91 -->
<g id="edge11" class="edge">
<title>dir_0c368f76a33d967d5b838b5681461de6&#45;&gt;dir_4bb30ed846ea1df1fc4d16874a455d91</title>
<path fill="none" stroke="#000000" d="M187.1556,-287.8972C179.2718,-282.5674 170.9179,-276.8649 163,-272 154.5984,-266.8378 145.4287,-261.6671 136.7158,-256.8758"/>
<polygon fill="#000000" stroke="#000000" points="138.3068,-253.7568 127.8526,-252.0365 134.9522,-259.9007 138.3068,-253.7568"/>
<g id="a_edge11&#45;headlabel"><a xlink:href="dir_000001_000002.html" target="_top" xlink:title="3">
<text text-anchor="middle" x="142.8224" y="-250.4874" font-family="Helvetica,sans-Serif" font-size="10.00" fill="#000000">3</text>
</a>
</g>
</g>
<!-- dir_0c368f76a33d967d5b838b5681461de6&#45;&gt;dir_3d3615e9a999cab4f3407307569d6ced -->
<g id="edge10" class="edge">
<title>dir_0c368f76a33d967d5b838b5681461de6&#45;&gt;dir_3d3615e9a999cab4f3407307569d6ced</title>
<path fill="none" stroke="#000000" d="M211.8111,-287.6888C201.5201,-263.5797 184.4267,-219.6033 178,-180 170.3679,-132.969 184.5954,-78.3897 195.4191,-46.1046"/>
<polygon fill="#000000" stroke="#000000" points="198.7999,-47.0384 198.7816,-36.4436 192.1889,-44.7374 198.7999,-47.0384"/>
<g id="a_edge10&#45;headlabel"><a xlink:href="dir_000001_000009.html" target="_top" xlink:title="7">
<text text-anchor="middle" x="200.2999" y="-48.8666" font-family="Helvetica,sans-Serif" font-size="10.00" fill="#000000">7</text>
</a>
</g>
</g>
<!-- dir_e4cd57caa88bf1f4e1bf9521bc47c3c0&#45;&gt;dir_7f7a014517bfe31ea45620a6a947e37b -->
<g id="edge12" class="edge">
<title>dir_e4cd57caa88bf1f4e1bf9521bc47c3c0&#45;&gt;dir_7f7a014517bfe31ea45620a6a947e37b</title>
<path fill="none" stroke="#000000" d="M228.1312,-143.8314C234.5811,-135.5386 242.3445,-125.557 249.4252,-116.4533"/>
<polygon fill="#000000" stroke="#000000" points="252.3019,-118.4556 255.6786,-108.4133 246.7764,-114.158 252.3019,-118.4556"/>
<g id="a_edge12&#45;headlabel"><a xlink:href="dir_000005_000011.html" target="_top" xlink:title="1">
<text text-anchor="middle" x="252.3362" y="-120.5361" font-family="Helvetica,sans-Serif" font-size="10.00" fill="#000000">1</text>
</a>
</g>
</g>
<!-- dir_e4cd57caa88bf1f4e1bf9521bc47c3c0&#45;&gt;dir_3d3615e9a999cab4f3407307569d6ced -->
<g id="edge13" class="edge">
<title>dir_e4cd57caa88bf1f4e1bf9521bc47c3c0&#45;&gt;dir_3d3615e9a999cab4f3407307569d6ced</title>
<path fill="none" stroke="#000000" d="M208.3136,-143.7623C204.4893,-119.201 201.7727,-75.2474 202.0778,-46.3541"/>
<polygon fill="#000000" stroke="#000000" points="205.5835,-46.1779 202.3467,-36.0896 198.5859,-45.9945 205.5835,-46.1779"/>
<g id="a_edge13&#45;headlabel"><a xlink:href="dir_000005_000009.html" target="_top" xlink:title="14">
<text text-anchor="middle" x="208.3278" y="-47.3456" font-family="Helvetica,sans-Serif" font-size="10.00" fill="#000000">14</text>
</a>
</g>
</g>
<!-- dir_7f7a014517bfe31ea45620a6a947e37b&#45;&gt;dir_3d3615e9a999cab4f3407307569d6ced -->
<g id="edge14" class="edge">
<title>dir_7f7a014517bfe31ea45620a6a947e37b&#45;&gt;dir_3d3615e9a999cab4f3407307569d6ced</title>
<path fill="none" stroke="#000000" d="M253.8501,-71.8314C246.3283,-63.3694 237.2435,-53.1489 229.0196,-43.8971"/>
<polygon fill="#000000" stroke="#000000" points="231.627,-41.5621 222.3673,-36.4133 226.3951,-46.2127 231.627,-41.5621"/>
<g id="a_edge14&#45;headlabel"><a xlink:href="dir_000011_000009.html" target="_top" xlink:title="1">
<text text-anchor="middle" x="236.1372" y="-39.8624" font-family="Helvetica,sans-Serif" font-size="10.00" fill="#000000">1</text>
</a>
</g>
</g>
<!-- dir_4bb30ed846ea1df1fc4d16874a455d91&#45;&gt;dir_0c368f76a33d967d5b838b5681461de6 -->
<g id="edge16" class="edge">
<title>dir_4bb30ed846ea1df1fc4d16874a455d91&#45;&gt;dir_0c368f76a33d967d5b838b5681461de6</title>
<path fill="none" stroke="#000000" d="M144.9615,-252.0365C156.9656,-258.0738 169.68,-265.0447 181,-272 185.8943,-275.0072 190.9552,-278.3344 195.7777,-281.6957"/>
<polygon fill="#000000" stroke="#000000" points="193.9586,-284.6994 204.1134,-287.7214 198.0595,-279.0264 193.9586,-284.6994"/>
<g id="a_edge16&#45;headlabel"><a xlink:href="dir_000002_000001.html" target="_top" xlink:title="2">
<text text-anchor="middle" x="189.3821" y="-282.3946" font-family="Helvetica,sans-Serif" font-size="10.00" fill="#000000">2</text>
</a>
</g>
</g>
<!-- dir_4bb30ed846ea1df1fc4d16874a455d91&#45;&gt;dir_e4cd57caa88bf1f4e1bf9521bc47c3c0 -->
<g id="edge17" class="edge">
<title>dir_4bb30ed846ea1df1fc4d16874a455d91&#45;&gt;dir_e4cd57caa88bf1f4e1bf9521bc47c3c0</title>
<path fill="none" stroke="#000000" d="M128.767,-215.8314C143.7935,-206.3409 162.3223,-194.6386 178.2617,-184.5716"/>
<polygon fill="#000000" stroke="#000000" points="180.2259,-187.4707 186.8119,-179.1715 176.488,-181.5522 180.2259,-187.4707"/>
<g id="a_edge17&#45;headlabel"><a xlink:href="dir_000002_000005.html" target="_top" xlink:title="10">
<text text-anchor="middle" x="178.7029" y="-189.2907" font-family="Helvetica,sans-Serif" font-size="10.00" fill="#000000">10</text>
</a>
</g>
</g>
<!-- dir_4bb30ed846ea1df1fc4d16874a455d91&#45;&gt;dir_3d3615e9a999cab4f3407307569d6ced -->
<g id="edge18" class="edge">
<title>dir_4bb30ed846ea1df1fc4d16874a455d91&#45;&gt;dir_3d3615e9a999cab4f3407307569d6ced</title>
<path fill="none" stroke="#000000" d="M101.6823,-215.6321C105.2806,-184.0902 115.9166,-118.5365 145,-72 151.9201,-60.927 161.7822,-50.8177 171.5644,-42.417"/>
<polygon fill="#000000" stroke="#000000" points="173.8108,-45.1013 179.3347,-36.0604 169.3785,-39.6833 173.8108,-45.1013"/>
<g id="a_edge18&#45;headlabel"><a xlink:href="dir_000002_000009.html" target="_top" xlink:title="46">
<text text-anchor="middle" x="172.8264" y="-47.0749" font-family="Helvetica,sans-Serif" font-size="10.00" fill="#000000">46</text>
</a>
</g>
</g>
<!-- dir_3d3615e9a999cab4f3407307569d6ced&#45;&gt;dir_e4cd57caa88bf1f4e1bf9521bc47c3c0 -->
<g id="edge15" class="edge">
<title>dir_3d3615e9a999cab4f3407307569d6ced&#45;&gt;dir_e4cd57caa88bf1f4e1bf9521bc47c3c0</title>
<path fill="none" stroke="#000000" d="M211.6633,-36.0896C215.492,-60.5727 218.217,-104.5174 217.924,-133.4713"/>
<polygon fill="#000000" stroke="#000000" points="214.4177,-133.6758 217.66,-143.7623 221.4154,-133.8554 214.4177,-133.6758"/>
<g id="a_edge15&#45;headlabel"><a xlink:href="dir_000009_000005.html" target="_top" xlink:title="1">
<text text-anchor="middle" x="211.6715" y="-127.5096" font-family="Helvetica,sans-Serif" font-size="10.00" fill="#000000">1</text>
</a>
</g>
</g>
</g>
</svg>
