<?xml version="1.0" encoding="UTF-8" standalone="no"?>
<!DOCTYPE svg PUBLIC "-//W3C//DTD SVG 1.1//EN"
 "http://www.w3.org/Graphics/SVG/1.1/DTD/svg11.dtd">
<!-- Generated by graphviz version 2.40.1 (20161225.0304)
 -->
<!-- Title: field_ops.H Pages: 1 -->
<svg width="971pt" height="207pt"
 viewBox="0.00 0.00 970.50 207.00" xmlns="http://www.w3.org/2000/svg" xmlns:xlink="http://www.w3.org/1999/xlink">
<g id="graph0" class="graph" transform="scale(1 1) rotate(0) translate(4 203)">
<title>field_ops.H</title>
<polygon fill="#ffffff" stroke="transparent" points="-4,4 -4,-203 966.5,-203 966.5,4 -4,4"/>
<!-- Node12 -->
<g id="node1" class="node">
<title>Node12</title>
<polygon fill="#bfbfbf" stroke="#000000" points="416.5,-179.5 416.5,-198.5 482.5,-198.5 482.5,-179.5 416.5,-179.5"/>
<text text-anchor="middle" x="449.5" y="-186.5" font-family="Helvetica,sans-Serif" font-size="10.00" fill="#000000">field_ops.H</text>
</g>
<!-- Node13 -->
<g id="node2" class="node">
<title>Node13</title>
<g id="a_node2"><a xlink:href="_t_k_e_8_h.html" target="_top" xlink:title="TKE.H">
<polygon fill="#ffffff" stroke="#000000" points="4,-118 4,-137 51,-137 51,-118 4,-118"/>
<text text-anchor="middle" x="27.5" y="-125" font-family="Helvetica,sans-Serif" font-size="10.00" fill="#000000">TKE.H</text>
</a>
</g>
</g>
<!-- Node12&#45;&gt;Node13 -->
<g id="edge1" class="edge">
<title>Node12&#45;&gt;Node13</title>
<path fill="none" stroke="#191970" d="M406.2047,-185.7204C318.7125,-178.7942 123.7221,-161.7624 59.5,-143 54.5228,-141.5459 49.3665,-139.3772 44.6846,-137.1195"/>
<polygon fill="#191970" stroke="#191970" points="406.0824,-189.2214 416.3255,-186.5144 406.63,-182.2429 406.0824,-189.2214"/>
</g>
<!-- Node16 -->
<g id="node5" class="node">
<title>Node16</title>
<g id="a_node5"><a xlink:href="incflo__advance_8cpp.html" target="_top" xlink:title="incflo_advance.cpp">
<polygon fill="#ffffff" stroke="#000000" points="69,-118 69,-137 170,-137 170,-118 69,-118"/>
<text text-anchor="middle" x="119.5" y="-125" font-family="Helvetica,sans-Serif" font-size="10.00" fill="#000000">incflo_advance.cpp</text>
</a>
</g>
</g>
<!-- Node12&#45;&gt;Node16 -->
<g id="edge4" class="edge">
<title>Node12&#45;&gt;Node16</title>
<path fill="none" stroke="#191970" d="M406.3535,-182.7934C352.8727,-174.8377 259.0553,-160.0213 179.5,-143 171.294,-141.2443 162.5184,-139.1195 154.2822,-137.0136"/>
<polygon fill="#191970" stroke="#191970" points="406.0915,-186.2926 416.4956,-184.2917 407.1145,-179.3678 406.0915,-186.2926"/>
</g>
<!-- Node17 -->
<g id="node6" class="node">
<title>Node17</title>
<g id="a_node6"><a xlink:href="_tioga_interface_8cpp.html" target="_top" xlink:title="TiogaInterface.cpp">
<polygon fill="#ffffff" stroke="#000000" points="188.5,-118 188.5,-137 286.5,-137 286.5,-118 188.5,-118"/>
<text text-anchor="middle" x="237.5" y="-125" font-family="Helvetica,sans-Serif" font-size="10.00" fill="#000000">TiogaInterface.cpp</text>
</a>
</g>
</g>
<!-- Node12&#45;&gt;Node17 -->
<g id="edge5" class="edge">
<title>Node12&#45;&gt;Node17</title>
<path fill="none" stroke="#191970" d="M406.5787,-176.5488C366.3305,-164.873 307.0127,-147.6652 270.3924,-137.0419"/>
<polygon fill="#191970" stroke="#191970" points="405.7958,-179.9659 416.375,-179.3906 407.7461,-173.2431 405.7958,-179.9659"/>
</g>
<!-- Node18 -->
<g id="node7" class="node">
<title>Node18</title>
<g id="a_node7"><a xlink:href="_dam_break_8cpp.html" target="_top" xlink:title="DamBreak.cpp">
<polygon fill="#ffffff" stroke="#000000" points="304.5,-118 304.5,-137 386.5,-137 386.5,-118 304.5,-118"/>
<text text-anchor="middle" x="345.5" y="-125" font-family="Helvetica,sans-Serif" font-size="10.00" fill="#000000">DamBreak.cpp</text>
</a>
</g>
</g>
<!-- Node12&#45;&gt;Node18 -->
<g id="edge6" class="edge">
<title>Node12&#45;&gt;Node18</title>
<path fill="none" stroke="#191970" d="M424.5713,-174.2585C405.0458,-162.7122 378.4587,-146.99 361.6359,-137.0419"/>
<polygon fill="#191970" stroke="#191970" points="422.8608,-177.3132 433.25,-179.3906 426.4239,-171.2878 422.8608,-177.3132"/>
</g>
<!-- Node19 -->
<g id="node8" class="node">
<title>Node19</title>
<g id="a_node8"><a xlink:href="_zalesak_disk_8cpp.html" target="_top" xlink:title="ZalesakDisk.cpp">
<polygon fill="#ffffff" stroke="#000000" points="404.5,-118 404.5,-137 494.5,-137 494.5,-118 404.5,-118"/>
<text text-anchor="middle" x="449.5" y="-125" font-family="Helvetica,sans-Serif" font-size="10.00" fill="#000000">ZalesakDisk.cpp</text>
</a>
</g>
</g>
<!-- Node12&#45;&gt;Node19 -->
<g id="edge7" class="edge">
<title>Node12&#45;&gt;Node19</title>
<path fill="none" stroke="#191970" d="M449.5,-169.2462C449.5,-158.5519 449.5,-145.814 449.5,-137.2449"/>
<polygon fill="#191970" stroke="#191970" points="446.0001,-169.3906 449.5,-179.3906 453.0001,-169.3907 446.0001,-169.3906"/>
</g>
<!-- Node20 -->
<g id="node9" class="node">
<title>Node20</title>
<g id="a_node9"><a xlink:href="incflo__apply__nodal__projection_8cpp.html" target="_top" xlink:title="incflo_apply_nodal\l_projection.cpp">
<polygon fill="#ffffff" stroke="#000000" points="513,-112.5 513,-142.5 610,-142.5 610,-112.5 513,-112.5"/>
<text text-anchor="start" x="521" y="-130.5" font-family="Helvetica,sans-Serif" font-size="10.00" fill="#000000">incflo_apply_nodal</text>
<text text-anchor="middle" x="561.5" y="-119.5" font-family="Helvetica,sans-Serif" font-size="10.00" fill="#000000">_projection.cpp</text>
</a>
</g>
</g>
<!-- Node12&#45;&gt;Node20 -->
<g id="edge8" class="edge">
<title>Node12&#45;&gt;Node20</title>
<path fill="none" stroke="#191970" d="M476.1046,-174.3912C493.6028,-164.7829 516.445,-152.24 534.1017,-142.5446"/>
<polygon fill="#191970" stroke="#191970" points="474.0808,-171.5095 467,-179.3906 477.4501,-177.6453 474.0808,-171.5095"/>
</g>
<!-- Node21 -->
<g id="node10" class="node">
<title>Node21</title>
<g id="a_node10"><a xlink:href="_laminar_model_8cpp.html" target="_top" xlink:title="LaminarModel.cpp">
<polygon fill="#ffffff" stroke="#000000" points="628.5,-118 628.5,-137 724.5,-137 724.5,-118 628.5,-118"/>
<text text-anchor="middle" x="676.5" y="-125" font-family="Helvetica,sans-Serif" font-size="10.00" fill="#000000">LaminarModel.cpp</text>
</a>
</g>
</g>
<!-- Node12&#45;&gt;Node21 -->
<g id="edge9" class="edge">
<title>Node12&#45;&gt;Node21</title>
<path fill="none" stroke="#191970" d="M492.4092,-177.3748C535.4847,-165.7046 601.0573,-147.9393 641.2103,-137.0609"/>
<polygon fill="#191970" stroke="#191970" points="491.2445,-174.0641 482.5077,-180.0574 493.0751,-180.8205 491.2445,-174.0641"/>
</g>
<!-- Node22 -->
<g id="node11" class="node">
<title>Node22</title>
<g id="a_node11"><a xlink:href="_turb_model_base_8_h.html" target="_top" xlink:title="TurbModelBase.H">
<polygon fill="#ffffff" stroke="#000000" points="743,-118 743,-137 838,-137 838,-118 743,-118"/>
<text text-anchor="middle" x="790.5" y="-125" font-family="Helvetica,sans-Serif" font-size="10.00" fill="#000000">TurbModelBase.H</text>
</a>
</g>
</g>
<!-- Node12&#45;&gt;Node22 -->
<g id="edge10" class="edge">
<title>Node12&#45;&gt;Node22</title>
<path fill="none" stroke="#191970" d="M492.7496,-183.4337C548.6574,-175.9099 648.8826,-161.305 733.5,-143 741.4184,-141.287 749.8778,-139.1552 757.7902,-137.0262"/>
<polygon fill="#191970" stroke="#191970" points="491.9579,-180.0082 482.5083,-184.7993 492.8832,-186.9468 491.9579,-180.0082"/>
</g>
<!-- Node27 -->
<g id="node16" class="node">
<title>Node27</title>
<g id="a_node16"><a xlink:href="_derived_qty_defs_8cpp.html" target="_top" xlink:title="DerivedQtyDefs.cpp">
<polygon fill="#ffffff" stroke="#000000" points="856.5,-118 856.5,-137 962.5,-137 962.5,-118 856.5,-118"/>
<text text-anchor="middle" x="909.5" y="-125" font-family="Helvetica,sans-Serif" font-size="10.00" fill="#000000">DerivedQtyDefs.cpp</text>
</a>
</g>
</g>
<!-- Node12&#45;&gt;Node27 -->
<g id="edge16" class="edge">
<title>Node12&#45;&gt;Node27</title>
<path fill="none" stroke="#191970" d="M492.9855,-185.8346C566.4571,-180.0718 719.6584,-166.2663 847.5,-143 856.3418,-141.3908 865.7955,-139.2482 874.5885,-137.0708"/>
<polygon fill="#191970" stroke="#191970" points="492.437,-182.3664 482.7364,-186.6266 492.9764,-189.3456 492.437,-182.3664"/>
</g>
<!-- Node14 -->
<g id="node3" class="node">
<title>Node14</title>
<g id="a_node3"><a xlink:href="_t_k_e_8cpp.html" target="_top" xlink:title="TKE.cpp">
<polygon fill="#ffffff" stroke="#000000" points="0,-56.5 0,-75.5 55,-75.5 55,-56.5 0,-56.5"/>
<text text-anchor="middle" x="27.5" y="-63.5" font-family="Helvetica,sans-Serif" font-size="10.00" fill="#000000">TKE.cpp</text>
</a>
</g>
</g>
<!-- Node13&#45;&gt;Node14 -->
<g id="edge2" class="edge">
<title>Node13&#45;&gt;Node14</title>
<path fill="none" stroke="#191970" d="M27.5,-107.7462C27.5,-97.0519 27.5,-84.314 27.5,-75.7449"/>
<polygon fill="#191970" stroke="#191970" points="24.0001,-107.8906 27.5,-117.8906 31.0001,-107.8907 24.0001,-107.8906"/>
</g>
<!-- Node15 -->
<g id="node4" class="node">
<title>Node15</title>
<g id="a_node4"><a xlink:href="_one_eq_ksgs_8cpp.html" target="_top" xlink:title="OneEqKsgs.cpp">
<polygon fill="#ffffff" stroke="#000000" points="339.5,-.5 339.5,-19.5 427.5,-19.5 427.5,-.5 339.5,-.5"/>
<text text-anchor="middle" x="383.5" y="-7.5" font-family="Helvetica,sans-Serif" font-size="10.00" fill="#000000">OneEqKsgs.cpp</text>
</a>
</g>
</g>
<!-- Node13&#45;&gt;Node15 -->
<g id="edge3" class="edge">
<title>Node13&#45;&gt;Node15</title>
<path fill="none" stroke="#191970" d="M55.3604,-113.7116C56.7523,-113.1152 58.1374,-112.5411 59.5,-112 161.4425,-71.5154 286.2871,-36.0149 346.9395,-19.6275"/>
<polygon fill="#191970" stroke="#191970" points="53.9013,-110.5301 46.2468,-117.8553 56.7987,-116.9024 53.9013,-110.5301"/>
</g>
<!-- Node23 -->
<g id="node12" class="node">
<title>Node23</title>
<g id="a_node12"><a xlink:href="_one_eq_ksgs_8_h.html" target="_top" xlink:title="OneEqKsgs.H">
<polygon fill="#ffffff" stroke="#000000" points="469.5,-56.5 469.5,-75.5 549.5,-75.5 549.5,-56.5 469.5,-56.5"/>
<text text-anchor="middle" x="509.5" y="-63.5" font-family="Helvetica,sans-Serif" font-size="10.00" fill="#000000">OneEqKsgs.H</text>
</a>
</g>
</g>
<!-- Node22&#45;&gt;Node23 -->
<g id="edge11" class="edge">
<title>Node22&#45;&gt;Node23</title>
<path fill="none" stroke="#191970" d="M746.9837,-115.364C742.4406,-114.1877 737.883,-113.0449 733.5,-112 669.5868,-96.7635 594.6924,-82.002 549.7271,-73.4693"/>
<polygon fill="#191970" stroke="#191970" points="746.2703,-118.7956 756.8327,-117.9678 748.0594,-112.0281 746.2703,-118.7956"/>
</g>
<!-- Node24 -->
<g id="node13" class="node">
<title>Node24</title>
<g id="a_node13"><a xlink:href="_smagorinsky_8_h.html" target="_top" xlink:title="Smagorinsky.H">
<polygon fill="#ffffff" stroke="#000000" points="748.5,-56.5 748.5,-75.5 832.5,-75.5 832.5,-56.5 748.5,-56.5"/>
<text text-anchor="middle" x="790.5" y="-63.5" font-family="Helvetica,sans-Serif" font-size="10.00" fill="#000000">Smagorinsky.H</text>
</a>
</g>
</g>
<!-- Node22&#45;&gt;Node24 -->
<g id="edge13" class="edge">
<title>Node22&#45;&gt;Node24</title>
<path fill="none" stroke="#191970" d="M790.5,-107.7462C790.5,-97.0519 790.5,-84.314 790.5,-75.7449"/>
<polygon fill="#191970" stroke="#191970" points="787.0001,-107.8906 790.5,-117.8906 794.0001,-107.8907 787.0001,-107.8906"/>
</g>
<!-- Node23&#45;&gt;Node15 -->
<g id="edge12" class="edge">
<title>Node23&#45;&gt;Node15</title>
<path fill="none" stroke="#191970" d="M478.5564,-52.2473C455.6735,-42.0771 425.0986,-28.4883 404.8775,-19.5011"/>
<polygon fill="#191970" stroke="#191970" points="477.2802,-55.5102 487.8398,-56.3733 480.1232,-49.1135 477.2802,-55.5102"/>
</g>
<!-- Node25 -->
<g id="node14" class="node">
<title>Node25</title>
<g id="a_node14"><a xlink:href="_smagorinsky_8cpp.html" target="_top" xlink:title="Smagorinsky.cpp">
<polygon fill="#ffffff" stroke="#000000" points="688.5,-.5 688.5,-19.5 780.5,-19.5 780.5,-.5 688.5,-.5"/>
<text text-anchor="middle" x="734.5" y="-7.5" font-family="Helvetica,sans-Serif" font-size="10.00" fill="#000000">Smagorinsky.cpp</text>
</a>
</g>
</g>
<!-- Node24&#45;&gt;Node25 -->
<g id="edge14" class="edge">
<title>Node24&#45;&gt;Node25</title>
<path fill="none" stroke="#191970" d="M773.5751,-49.0751C763.9402,-39.4402 752.2196,-27.7196 744.1427,-19.6427"/>
<polygon fill="#191970" stroke="#191970" points="771.1996,-51.6493 780.7455,-56.2455 776.1493,-46.6996 771.1996,-51.6493"/>
</g>
<!-- Node26 -->
<g id="node15" class="node">
<title>Node26</title>
<g id="a_node15"><a xlink:href="turbulence__utils_8_h.html" target="_top" xlink:title="turbulence_utils.H">
<polygon fill="#ffffff" stroke="#000000" points="799,-.5 799,-19.5 894,-19.5 894,-.5 799,-.5"/>
<text text-anchor="middle" x="846.5" y="-7.5" font-family="Helvetica,sans-Serif" font-size="10.00" fill="#000000">turbulence_utils.H</text>
</a>
</g>
</g>
<!-- Node24&#45;&gt;Node26 -->
<g id="edge15" class="edge">
<title>Node24&#45;&gt;Node26</title>
<path fill="none" stroke="#191970" d="M807.4249,-49.0751C817.0598,-39.4402 828.7804,-27.7196 836.8573,-19.6427"/>
<polygon fill="#191970" stroke="#191970" points="804.8507,-46.6996 800.2545,-56.2455 809.8004,-51.6493 804.8507,-46.6996"/>
</g>
</g>
</svg>
