<?xml version="1.0" encoding="UTF-8" standalone="no"?>
<!DOCTYPE svg PUBLIC "-//W3C//DTD SVG 1.1//EN"
 "http://www.w3.org/Graphics/SVG/1.1/DTD/svg11.dtd">
<!-- Generated by graphviz version 2.40.1 (20161225.0304)
 -->
<!-- Title: field_ops.H Pages: 1 -->
<svg width="847pt" height="196pt"
 viewBox="0.00 0.00 846.50 196.00" xmlns="http://www.w3.org/2000/svg" xmlns:xlink="http://www.w3.org/1999/xlink">
<g id="graph0" class="graph" transform="scale(1 1) rotate(0) translate(4 192)">
<title>field_ops.H</title>
<polygon fill="#ffffff" stroke="transparent" points="-4,4 -4,-192 842.5,-192 842.5,4 -4,4"/>
<!-- Node0 -->
<g id="node1" class="node">
<title>Node0</title>
<polygon fill="#bfbfbf" stroke="#000000" points="124,-168.5 124,-187.5 190,-187.5 190,-168.5 124,-168.5"/>
<text text-anchor="middle" x="157" y="-175.5" font-family="Helvetica,sans-Serif" font-size="10.00" fill="#000000">field_ops.H</text>
</g>
<!-- Node1 -->
<g id="node2" class="node">
<title>Node1</title>
<g id="a_node2"><a xlink:href="_field_8_h.html" target="_top" xlink:title="amr&#45;wind/core/Field.H">
<polygon fill="#ffffff" stroke="#000000" points="299.5,-112.5 299.5,-131.5 412.5,-131.5 412.5,-112.5 299.5,-112.5"/>
<text text-anchor="middle" x="356" y="-119.5" font-family="Helvetica,sans-Serif" font-size="10.00" fill="#000000">amr&#45;wind/core/Field.H</text>
</a>
</g>
</g>
<!-- Node0&#45;&gt;Node1 -->
<g id="edge1" class="edge">
<title>Node0&#45;&gt;Node1</title>
<path fill="none" stroke="#191970" d="M190.3081,-168.6269C223.6833,-159.2349 275.2427,-144.7257 311.9761,-134.3886"/>
<polygon fill="#191970" stroke="#191970" points="313.2382,-137.6695 321.9162,-131.5914 311.3419,-130.9312 313.2382,-137.6695"/>
</g>
<!-- Node5 -->
<g id="node6" class="node">
<title>Node5</title>
<polygon fill="#ffffff" stroke="#bfbfbf" points="0,-.5 0,-19.5 104,-19.5 104,-.5 0,-.5"/>
<text text-anchor="middle" x="52" y="-7.5" font-family="Helvetica,sans-Serif" font-size="10.00" fill="#000000">AMReX_MultiFab.H</text>
</g>
<!-- Node0&#45;&gt;Node5 -->
<g id="edge15" class="edge">
<title>Node0&#45;&gt;Node5</title>
<path fill="none" stroke="#191970" d="M141.7463,-168.3383C118.1537,-152.4088 73.5962,-118.1607 55,-76 48.6352,-61.5699 48.2421,-43.6008 49.242,-30.0572"/>
<polygon fill="#191970" stroke="#191970" points="52.7454,-30.2072 50.309,-19.8963 45.7837,-29.4761 52.7454,-30.2072"/>
</g>
<!-- Node2 -->
<g id="node3" class="node">
<title>Node2</title>
<polygon fill="#ffffff" stroke="#bfbfbf" points="797.5,-.5 797.5,-19.5 838.5,-19.5 838.5,-.5 797.5,-.5"/>
<text text-anchor="middle" x="818" y="-7.5" font-family="Helvetica,sans-Serif" font-size="10.00" fill="#000000">string</text>
</g>
<!-- Node1&#45;&gt;Node2 -->
<g id="edge2" class="edge">
<title>Node1&#45;&gt;Node2</title>
<path fill="none" stroke="#191970" d="M412.8099,-118.5556C520.6111,-111.6194 746.8227,-94.9987 777,-76 794.066,-65.2558 805.182,-44.552 811.4772,-29.1853"/>
<polygon fill="#191970" stroke="#191970" points="814.8424,-30.1796 815.0792,-19.5874 808.2887,-27.7201 814.8424,-30.1796"/>
</g>
<!-- Node3 -->
<g id="node4" class="node">
<title>Node3</title>
<polygon fill="#ffffff" stroke="#bfbfbf" points="80,-56.5 80,-75.5 132,-75.5 132,-56.5 80,-56.5"/>
<text text-anchor="middle" x="106" y="-63.5" font-family="Helvetica,sans-Serif" font-size="10.00" fill="#000000">memory</text>
</g>
<!-- Node1&#45;&gt;Node3 -->
<g id="edge3" class="edge">
<title>Node1&#45;&gt;Node3</title>
<path fill="none" stroke="#191970" d="M306.6829,-112.4338C265.1842,-104.162 204.0739,-91.4646 142.248,-76.1985"/>
<polygon fill="#191970" stroke="#191970" points="142.8715,-72.7469 132.3221,-73.7266 141.1799,-79.5395 142.8715,-72.7469"/>
</g>
<!-- Node4 -->
<g id="node5" class="node">
<title>Node4</title>
<polygon fill="#ffffff" stroke="#bfbfbf" points="150.5,-56.5 150.5,-75.5 233.5,-75.5 233.5,-56.5 150.5,-56.5"/>
<text text-anchor="middle" x="192" y="-63.5" font-family="Helvetica,sans-Serif" font-size="10.00" fill="#000000">unordered_map</text>
</g>
<!-- Node1&#45;&gt;Node4 -->
<g id="edge4" class="edge">
<title>Node1&#45;&gt;Node4</title>
<path fill="none" stroke="#191970" d="M327.8074,-112.3733C300.6547,-103.1016 259.4093,-89.0178 229.4975,-78.804"/>
<polygon fill="#191970" stroke="#191970" points="230.4192,-75.4204 219.8247,-75.5011 228.1572,-82.0449 230.4192,-75.4204"/>
</g>
<!-- Node1&#45;&gt;Node5 -->
<g id="edge5" class="edge">
<title>Node1&#45;&gt;Node5</title>
<path fill="none" stroke="#191970" d="M299.256,-119.8857C225.9879,-115.9967 103.9582,-105.2147 71,-76 58.0591,-64.529 53.6829,-44.8723 52.3205,-29.9864"/>
<polygon fill="#191970" stroke="#191970" points="55.8021,-29.547 51.7742,-19.7477 48.812,-29.92 55.8021,-29.547"/>
</g>
<!-- Node6 -->
<g id="node7" class="node">
<title>Node6</title>
<polygon fill="#ffffff" stroke="#bfbfbf" points="251.5,-56.5 251.5,-75.5 350.5,-75.5 350.5,-56.5 251.5,-56.5"/>
<text text-anchor="middle" x="301" y="-63.5" font-family="Helvetica,sans-Serif" font-size="10.00" fill="#000000">AMReX_BCRec.H</text>
</g>
<!-- Node1&#45;&gt;Node6 -->
<g id="edge6" class="edge">
<title>Node1&#45;&gt;Node6</title>
<path fill="none" stroke="#191970" d="M346.4197,-112.2455C338.4542,-104.1352 326.9359,-92.4075 317.4921,-82.7919"/>
<polygon fill="#191970" stroke="#191970" points="319.9747,-80.3247 310.4705,-75.6427 314.9805,-85.2297 319.9747,-80.3247"/>
</g>
<!-- Node7 -->
<g id="node8" class="node">
<title>Node7</title>
<polygon fill="#ffffff" stroke="#bfbfbf" points="368.5,-56.5 368.5,-75.5 453.5,-75.5 453.5,-56.5 368.5,-56.5"/>
<text text-anchor="middle" x="411" y="-63.5" font-family="Helvetica,sans-Serif" font-size="10.00" fill="#000000">AMReX_Gpu.H</text>
</g>
<!-- Node1&#45;&gt;Node7 -->
<g id="edge7" class="edge">
<title>Node1&#45;&gt;Node7</title>
<path fill="none" stroke="#191970" d="M365.5803,-112.2455C373.5458,-104.1352 385.0641,-92.4075 394.5079,-82.7919"/>
<polygon fill="#191970" stroke="#191970" points="397.0195,-85.2297 401.5295,-75.6427 392.0253,-80.3247 397.0195,-85.2297"/>
</g>
<!-- Node8 -->
<g id="node9" class="node">
<title>Node8</title>
<g id="a_node9"><a xlink:href="incflo__enums_8_h.html" target="_top" xlink:title="amr&#45;wind/incflo_enums.H">
<polygon fill="#ffffff" stroke="#000000" points="472,-56.5 472,-75.5 600,-75.5 600,-56.5 472,-56.5"/>
<text text-anchor="middle" x="536" y="-63.5" font-family="Helvetica,sans-Serif" font-size="10.00" fill="#000000">amr&#45;wind/incflo_enums.H</text>
</a>
</g>
</g>
<!-- Node1&#45;&gt;Node8 -->
<g id="edge8" class="edge">
<title>Node1&#45;&gt;Node8</title>
<path fill="none" stroke="#191970" d="M386.9431,-112.3733C417.0039,-103.021 462.8026,-88.7725 495.6978,-78.5385"/>
<polygon fill="#191970" stroke="#191970" points="496.9519,-81.8139 505.4607,-75.5011 494.8723,-75.1299 496.9519,-81.8139"/>
</g>
<!-- Node9 -->
<g id="node10" class="node">
<title>Node9</title>
<g id="a_node10"><a xlink:href="_field_desc_types_8_h.html" target="_top" xlink:title="amr&#45;wind/core/FieldDescTypes.H">
<polygon fill="#ffffff" stroke="#000000" points="616.5,-.5 616.5,-19.5 779.5,-19.5 779.5,-.5 616.5,-.5"/>
<text text-anchor="middle" x="698" y="-7.5" font-family="Helvetica,sans-Serif" font-size="10.00" fill="#000000">amr&#45;wind/core/FieldDescTypes.H</text>
</a>
</g>
</g>
<!-- Node1&#45;&gt;Node9 -->
<g id="edge9" class="edge">
<title>Node1&#45;&gt;Node9</title>
<path fill="none" stroke="#191970" d="M412.5558,-119.6794C518.4816,-114.7493 738.2008,-101.5353 761,-76 777.2058,-57.8494 751.2807,-37.7179 727.95,-24.5178"/>
<polygon fill="#191970" stroke="#191970" points="729.3654,-21.3049 718.9008,-19.6484 726.0483,-27.4691 729.3654,-21.3049"/>
</g>
<!-- Node10 -->
<g id="node11" class="node">
<title>Node10</title>
<g id="a_node11"><a xlink:href="_view_field_8_h.html" target="_top" xlink:title="amr&#45;wind/core/ViewField.H">
<polygon fill="#ffffff" stroke="#000000" points="618,-56.5 618,-75.5 752,-75.5 752,-56.5 618,-56.5"/>
<text text-anchor="middle" x="685" y="-63.5" font-family="Helvetica,sans-Serif" font-size="10.00" fill="#000000">amr&#45;wind/core/ViewField.H</text>
</a>
</g>
</g>
<!-- Node1&#45;&gt;Node10 -->
<g id="edge10" class="edge">
<title>Node1&#45;&gt;Node10</title>
<path fill="none" stroke="#191970" d="M412.1833,-112.4369C469.4354,-102.6918 558.1987,-87.5832 618.8213,-77.2645"/>
<polygon fill="#191970" stroke="#191970" points="619.7775,-80.6521 629.0484,-75.5237 618.6029,-73.7514 619.7775,-80.6521"/>
</g>
<!-- Node10&#45;&gt;Node2 -->
<g id="edge11" class="edge">
<title>Node10&#45;&gt;Node2</title>
<path fill="none" stroke="#191970" d="M707.8635,-56.3733C729.9272,-47.0833 763.4649,-32.9621 787.7341,-22.7435"/>
<polygon fill="#191970" stroke="#191970" points="789.3252,-25.8713 797.1834,-18.7649 786.6088,-19.4198 789.3252,-25.8713"/>
</g>
<!-- Node10&#45;&gt;Node5 -->
<g id="edge13" class="edge">
<title>Node10&#45;&gt;Node5</title>
<path fill="none" stroke="#191970" d="M617.8843,-56.9898C614.8833,-56.6434 611.9112,-56.3115 609,-56 429.9096,-36.834 217.6833,-21.2772 114.5343,-14.1724"/>
<polygon fill="#191970" stroke="#191970" points="114.5146,-10.6629 104.2986,-13.4705 114.0357,-17.6465 114.5146,-10.6629"/>
</g>
<!-- Node10&#45;&gt;Node9 -->
<g id="edge12" class="edge">
<title>Node10&#45;&gt;Node9</title>
<path fill="none" stroke="#191970" d="M687.2644,-56.2455C688.9794,-48.8579 691.3912,-38.4689 693.4944,-29.4087"/>
<polygon fill="#191970" stroke="#191970" points="696.9095,-30.1751 695.7615,-19.6427 690.0908,-28.5922 696.9095,-30.1751"/>
</g>
<!-- Node11 -->
<g id="node12" class="node">
<title>Node11</title>
<polygon fill="#ffffff" stroke="#bfbfbf" points="503.5,-.5 503.5,-19.5 598.5,-19.5 598.5,-.5 503.5,-.5"/>
<text text-anchor="middle" x="551" y="-7.5" font-family="Helvetica,sans-Serif" font-size="10.00" fill="#000000">AMReX_Vector.H</text>
</g>
<!-- Node10&#45;&gt;Node11 -->
<g id="edge14" class="edge">
<title>Node10&#45;&gt;Node11</title>
<path fill="none" stroke="#191970" d="M661.9646,-56.3733C640.2612,-47.3032 607.5382,-33.6279 583.245,-23.4755"/>
<polygon fill="#191970" stroke="#191970" points="584.3111,-20.1278 573.7348,-19.5011 581.6119,-26.5865 584.3111,-20.1278"/>
</g>
</g>
</svg>
