<?xml version="1.0" encoding="UTF-8" standalone="no"?>
<!DOCTYPE svg PUBLIC "-//W3C//DTD SVG 1.1//EN"
 "http://www.w3.org/Graphics/SVG/1.1/DTD/svg11.dtd">
<!-- Generated by graphviz version 2.40.1 (20161225.0304)
 -->
<!-- Title: fvm.H Pages: 1 -->
<!--zoomable 375 -->
<svg id="main" version="1.1" xmlns="http://www.w3.org/2000/svg" xmlns:xlink="http://www.w3.org/1999/xlink" xml:space="preserve" onload="init(evt)">
<style type="text/css"><![CDATA[
.edge:hover path { stroke: red; }
.edge:hover polygon { stroke: red; fill: red; }
]]></style>
<script type="text/javascript"><![CDATA[
var edges = document.getElementsByTagName('g');
if (edges && edges.length) {
  for (var i=0;i<edges.length;i++) {
    if (edges[i].id.substr(0,4)=='edge') {
      edges[i].setAttribute('class','edge');
    }
  }
}
]]></script>
        <defs>
                <circle id="rim" cx="0" cy="0" r="7"/>
                <circle id="rim2" cx="0" cy="0" r="3.5"/>
                <g id="zoomPlus">
                        <use xlink:href="#rim" fill="#404040">
                                <set attributeName="fill" to="#808080" begin="zoomplus.mouseover" end="zoomplus.mouseout"/>
                        </use>
                        <path d="M-4,0h8M0,-4v8" fill="none" stroke="white" stroke-width="1.5" pointer-events="none"/>
                </g>
                <g id="zoomMin">
                        <use xlink:href="#rim" fill="#404040">
                                <set attributeName="fill" to="#808080" begin="zoomminus.mouseover" end="zoomminus.mouseout"/>
                        </use>
                        <path d="M-4,0h8" fill="none" stroke="white" stroke-width="1.5" pointer-events="none"/>
                </g>
                <g id="dirArrow">
                        <path fill="none" stroke="white" stroke-width="1.5" d="M0,-3.0v7 M-2.5,-0.5L0,-3.0L2.5,-0.5"/>
                </g>
               <g id="resetDef">
                       <use xlink:href="#rim2" fill="#404040">
                               <set attributeName="fill" to="#808080" begin="reset.mouseover" end="reset.mouseout"/>
                       </use>
               </g>
        </defs>

<script type="text/javascript">
var viewWidth = 1977;
var viewHeight = 375;
var sectionId = 'dynsection-0';
</script>
<script xlink:href="svgpan.js"/>
<svg id="graph" class="graph">
<g id="viewport">
<title>fvm.H</title>
<polygon fill="#ffffff" stroke="transparent" points="-4,4 -4,-371 1972.5,-371 1972.5,4 -4,4"/>
<!-- Node0 -->
<g id="node1" class="node">
<title>Node0</title>
<polygon fill="#bfbfbf" stroke="#000000" points="1452.5,-347.5 1452.5,-366.5 1496.5,-366.5 1496.5,-347.5 1452.5,-347.5"/>
<text text-anchor="middle" x="1474.5" y="-354.5" font-family="Helvetica,sans-Serif" font-size="10.00" fill="#000000">fvm.H</text>
</g>
<!-- Node1 -->
<g id="node2" class="node">
<title>Node1</title>
<g id="a_node2"><a xlink:href="curvature_8_h.html" target="_top" xlink:title="amr&#45;wind/fvm/curvature.H">
<polygon fill="#ffffff" stroke="#000000" points="1115.5,-286 1115.5,-305 1245.5,-305 1245.5,-286 1115.5,-286"/>
<text text-anchor="middle" x="1180.5" y="-293" font-family="Helvetica,sans-Serif" font-size="10.00" fill="#000000">amr&#45;wind/fvm/curvature.H</text>
</a>
</g>
</g>
<!-- Node0&#45;&gt;Node1 -->
<g id="edge1" class="edge">
<title>Node0&#45;&gt;Node1</title>
<path fill="none" stroke="#191970" d="M1452.3283,-352.3668C1412.6498,-344.0746 1326.8758,-326.1465 1254.5,-311 1248.4295,-309.7296 1242.0789,-308.4001 1235.7585,-307.0766"/>
<polygon fill="#191970" stroke="#191970" points="1236.4009,-303.6353 1225.8958,-305.0112 1234.9661,-310.4867 1236.4009,-303.6353"/>
</g>
<!-- Node28 -->
<g id="node29" class="node">
<title>Node28</title>
<g id="a_node29"><a xlink:href="divergence_8_h.html" target="_top" xlink:title="amr&#45;wind/fvm/divergence.H">
<polygon fill="#ffffff" stroke="#000000" points="1689,-286 1689,-305 1826,-305 1826,-286 1689,-286"/>
<text text-anchor="middle" x="1757.5" y="-293" font-family="Helvetica,sans-Serif" font-size="10.00" fill="#000000">amr&#45;wind/fvm/divergence.H</text>
</a>
</g>
</g>
<!-- Node0&#45;&gt;Node28 -->
<g id="edge45" class="edge">
<title>Node0&#45;&gt;Node28</title>
<path fill="none" stroke="#191970" d="M1496.7065,-352.1742C1540.8947,-342.5715 1640.9578,-320.8263 1703.4933,-307.2364"/>
<polygon fill="#191970" stroke="#191970" points="1704.5437,-310.5899 1713.5724,-305.0461 1703.0572,-303.7496 1704.5437,-310.5899"/>
</g>
<!-- Node30 -->
<g id="node31" class="node">
<title>Node30</title>
<g id="a_node31"><a xlink:href="gradient_8_h.html" target="_top" xlink:title="amr&#45;wind/fvm/gradient.H">
<polygon fill="#ffffff" stroke="#000000" points="1844.5,-286 1844.5,-305 1968.5,-305 1968.5,-286 1844.5,-286"/>
<text text-anchor="middle" x="1906.5" y="-293" font-family="Helvetica,sans-Serif" font-size="10.00" fill="#000000">amr&#45;wind/fvm/gradient.H</text>
</a>
</g>
</g>
<!-- Node0&#45;&gt;Node30 -->
<g id="edge50" class="edge">
<title>Node0&#45;&gt;Node30</title>
<path fill="none" stroke="#191970" d="M1496.577,-354.8722C1553.1542,-349.271 1707.8657,-333.0196 1835.5,-311 1842.0992,-309.8615 1849.0141,-308.5288 1855.8301,-307.1313"/>
<polygon fill="#191970" stroke="#191970" points="1856.6334,-310.539 1865.6971,-305.0527 1855.1904,-303.6893 1856.6334,-310.539"/>
</g>
<!-- Node31 -->
<g id="node32" class="node">
<title>Node31</title>
<g id="a_node32"><a xlink:href="laplacian_8_h.html" target="_top" xlink:title="amr&#45;wind/fvm/laplacian.H">
<polygon fill="#ffffff" stroke="#000000" points="1263.5,-286 1263.5,-305 1391.5,-305 1391.5,-286 1263.5,-286"/>
<text text-anchor="middle" x="1327.5" y="-293" font-family="Helvetica,sans-Serif" font-size="10.00" fill="#000000">amr&#45;wind/fvm/laplacian.H</text>
</a>
</g>
</g>
<!-- Node0&#45;&gt;Node31 -->
<g id="edge55" class="edge">
<title>Node0&#45;&gt;Node31</title>
<path fill="none" stroke="#191970" d="M1452.4926,-347.7928C1427.9895,-337.5415 1388.1426,-320.8709 1360.0366,-309.1122"/>
<polygon fill="#191970" stroke="#191970" points="1361.2052,-305.8073 1350.6292,-305.1765 1358.5035,-312.2649 1361.2052,-305.8073"/>
</g>
<!-- Node32 -->
<g id="node33" class="node">
<title>Node32</title>
<g id="a_node33"><a xlink:href="strainrate_8_h.html" target="_top" xlink:title="amr&#45;wind/fvm/strainrate.H">
<polygon fill="#ffffff" stroke="#000000" points="1409.5,-286 1409.5,-305 1539.5,-305 1539.5,-286 1409.5,-286"/>
<text text-anchor="middle" x="1474.5" y="-293" font-family="Helvetica,sans-Serif" font-size="10.00" fill="#000000">amr&#45;wind/fvm/strainrate.H</text>
</a>
</g>
</g>
<!-- Node0&#45;&gt;Node32 -->
<g id="edge57" class="edge">
<title>Node0&#45;&gt;Node32</title>
<path fill="none" stroke="#191970" d="M1474.5,-347.3906C1474.5,-338.8657 1474.5,-326.1392 1474.5,-315.4235"/>
<polygon fill="#191970" stroke="#191970" points="1478.0001,-315.2448 1474.5,-305.2449 1471.0001,-315.2449 1478.0001,-315.2448"/>
</g>
<!-- Node33 -->
<g id="node34" class="node">
<title>Node33</title>
<g id="a_node34"><a xlink:href="vorticity__mag_8_h.html" target="_top" xlink:title="amr&#45;wind/fvm/vorticity\l_mag.H">
<polygon fill="#ffffff" stroke="#000000" points="1558,-280.5 1558,-310.5 1671,-310.5 1671,-280.5 1558,-280.5"/>
<text text-anchor="start" x="1566" y="-298.5" font-family="Helvetica,sans-Serif" font-size="10.00" fill="#000000">amr&#45;wind/fvm/vorticity</text>
<text text-anchor="middle" x="1614.5" y="-287.5" font-family="Helvetica,sans-Serif" font-size="10.00" fill="#000000">_mag.H</text>
</a>
</g>
</g>
<!-- Node0&#45;&gt;Node33 -->
<g id="edge59" class="edge">
<title>Node0&#45;&gt;Node33</title>
<path fill="none" stroke="#191970" d="M1496.375,-347.3906C1516.2872,-338.6435 1546.2691,-325.4728 1571.0438,-314.5897"/>
<polygon fill="#191970" stroke="#191970" points="1572.5043,-317.771 1580.2521,-310.5446 1569.6889,-311.3621 1572.5043,-317.771"/>
</g>
<!-- Node34 -->
<g id="node35" class="node">
<title>Node34</title>
<g id="a_node35"><a xlink:href="qcriterion_8_h.html" target="_top" xlink:title="amr&#45;wind/fvm/qcriterion.H">
<polygon fill="#ffffff" stroke="#000000" points="968,-286 968,-305 1097,-305 1097,-286 968,-286"/>
<text text-anchor="middle" x="1032.5" y="-293" font-family="Helvetica,sans-Serif" font-size="10.00" fill="#000000">amr&#45;wind/fvm/qcriterion.H</text>
</a>
</g>
</g>
<!-- Node0&#45;&gt;Node34 -->
<g id="edge61" class="edge">
<title>Node0&#45;&gt;Node34</title>
<path fill="none" stroke="#191970" d="M1452.4246,-354.8796C1395.122,-349.2372 1237.0073,-332.7869 1106.5,-311 1099.6281,-309.8528 1092.4246,-308.515 1085.3225,-307.1149"/>
<polygon fill="#191970" stroke="#191970" points="1085.5355,-303.5872 1075.04,-305.0341 1084.1471,-310.4481 1085.5355,-303.5872"/>
</g>
<!-- Node2 -->
<g id="node3" class="node">
<title>Node2</title>
<g id="a_node3"><a xlink:href="fvm__utils_8_h.html" target="_top" xlink:title="amr&#45;wind/fvm/fvm_utils.H">
<polygon fill="#ffffff" stroke="#000000" points="1437,-224.5 1437,-243.5 1566,-243.5 1566,-224.5 1437,-224.5"/>
<text text-anchor="middle" x="1501.5" y="-231.5" font-family="Helvetica,sans-Serif" font-size="10.00" fill="#000000">amr&#45;wind/fvm/fvm_utils.H</text>
</a>
</g>
</g>
<!-- Node1&#45;&gt;Node2 -->
<g id="edge2" class="edge">
<title>Node1&#45;&gt;Node2</title>
<path fill="none" stroke="#191970" d="M1225.0768,-285.9948C1234.7683,-283.9753 1244.9714,-281.885 1254.5,-280 1316.95,-267.646 1388.4728,-254.4275 1438.4266,-245.3453"/>
<polygon fill="#191970" stroke="#191970" points="1439.2199,-248.7586 1448.4339,-243.5287 1437.9696,-241.8711 1439.2199,-248.7586"/>
</g>
<!-- Node3 -->
<g id="node4" class="node">
<title>Node3</title>
<g id="a_node4"><a xlink:href="_field_repo_8_h.html" target="_top" xlink:title="amr&#45;wind/core/FieldRepo.H">
<polygon fill="#ffffff" stroke="#000000" points="970.5,-168.5 970.5,-187.5 1106.5,-187.5 1106.5,-168.5 970.5,-168.5"/>
<text text-anchor="middle" x="1038.5" y="-175.5" font-family="Helvetica,sans-Serif" font-size="10.00" fill="#000000">amr&#45;wind/core/FieldRepo.H</text>
</a>
</g>
</g>
<!-- Node2&#45;&gt;Node3 -->
<g id="edge3" class="edge">
<title>Node2&#45;&gt;Node3</title>
<path fill="none" stroke="#191970" d="M1436.6343,-226.1545C1352.7604,-216.0099 1206.8062,-198.3567 1116.8368,-187.4749"/>
<polygon fill="#191970" stroke="#191970" points="1117.0388,-183.9739 1106.6909,-186.2477 1116.1982,-190.9232 1117.0388,-183.9739"/>
</g>
<!-- Node22 -->
<g id="node23" class="node">
<title>Node22</title>
<g id="a_node23"><a xlink:href="stencils_8_h.html" target="_top" xlink:title="Second&#45;order finite volume discretization stencil coefficients. ">
<polygon fill="#ffffff" stroke="#000000" points="1468,-168.5 1468,-187.5 1591,-187.5 1591,-168.5 1468,-168.5"/>
<text text-anchor="middle" x="1529.5" y="-175.5" font-family="Helvetica,sans-Serif" font-size="10.00" fill="#000000">amr&#45;wind/fvm/stencils.H</text>
</a>
</g>
</g>
<!-- Node2&#45;&gt;Node22 -->
<g id="edge39" class="edge">
<title>Node2&#45;&gt;Node22</title>
<path fill="none" stroke="#191970" d="M1506.3772,-224.2455C1510.1513,-216.6973 1515.4921,-206.0158 1520.0901,-196.8197"/>
<polygon fill="#191970" stroke="#191970" points="1523.337,-198.1522 1524.6787,-187.6427 1517.076,-195.0217 1523.337,-198.1522"/>
</g>
<!-- Node27 -->
<g id="node28" class="node">
<title>Node27</title>
<polygon fill="#ffffff" stroke="#bfbfbf" points="1631,-168.5 1631,-187.5 1726,-187.5 1726,-168.5 1631,-168.5"/>
<text text-anchor="middle" x="1678.5" y="-175.5" font-family="Helvetica,sans-Serif" font-size="10.00" fill="#000000">AMReX_MFIter.H</text>
</g>
<!-- Node2&#45;&gt;Node27 -->
<g id="edge44" class="edge">
<title>Node2&#45;&gt;Node27</title>
<path fill="none" stroke="#191970" d="M1531.9274,-224.3733C1561.4872,-215.021 1606.5226,-200.7725 1638.8695,-190.5385"/>
<polygon fill="#191970" stroke="#191970" points="1639.9913,-193.8546 1648.4697,-187.5011 1637.8797,-187.1807 1639.9913,-193.8546"/>
</g>
<!-- Node4 -->
<g id="node5" class="node">
<title>Node4</title>
<polygon fill="#ffffff" stroke="#bfbfbf" points="434,-.5 434,-19.5 475,-19.5 475,-.5 434,-.5"/>
<text text-anchor="middle" x="454.5" y="-7.5" font-family="Helvetica,sans-Serif" font-size="10.00" fill="#000000">string</text>
</g>
<!-- Node3&#45;&gt;Node4 -->
<g id="edge4" class="edge">
<title>Node3&#45;&gt;Node4</title>
<path fill="none" stroke="#191970" d="M970.2609,-175.6656C888.2973,-171.6435 747.1361,-160.8223 629.5,-132 562.4011,-115.5599 534.747,-123.4108 484.5,-76 471.3688,-63.61 463.5344,-44.3843 459.1834,-29.8728"/>
<polygon fill="#191970" stroke="#191970" points="462.4761,-28.638 456.5053,-19.8859 455.715,-30.4512 462.4761,-28.638"/>
</g>
<!-- Node5 -->
<g id="node6" class="node">
<title>Node5</title>
<polygon fill="#ffffff" stroke="#bfbfbf" points="996,-56.5 996,-75.5 1079,-75.5 1079,-56.5 996,-56.5"/>
<text text-anchor="middle" x="1037.5" y="-63.5" font-family="Helvetica,sans-Serif" font-size="10.00" fill="#000000">unordered_map</text>
</g>
<!-- Node3&#45;&gt;Node5 -->
<g id="edge5" class="edge">
<title>Node3&#45;&gt;Node5</title>
<path fill="none" stroke="#191970" d="M1038.4147,-168.4509C1038.2516,-150.184 1037.8925,-109.9553 1037.6759,-85.6976"/>
<polygon fill="#191970" stroke="#191970" points="1041.1743,-85.4932 1037.585,-75.5249 1034.1746,-85.5558 1041.1743,-85.4932"/>
</g>
<!-- Node6 -->
<g id="node7" class="node">
<title>Node6</title>
<g id="a_node7"><a xlink:href="_field_desc_types_8_h.html" target="_top" xlink:title="amr&#45;wind/core/FieldDescTypes.H">
<polygon fill="#ffffff" stroke="#000000" points="975,-.5 975,-19.5 1138,-19.5 1138,-.5 975,-.5"/>
<text text-anchor="middle" x="1056.5" y="-7.5" font-family="Helvetica,sans-Serif" font-size="10.00" fill="#000000">amr&#45;wind/core/FieldDescTypes.H</text>
</a>
</g>
</g>
<!-- Node3&#45;&gt;Node6 -->
<g id="edge6" class="edge">
<title>Node3&#45;&gt;Node6</title>
<path fill="none" stroke="#191970" d="M1106.6576,-168.5228C1142.515,-161.7001 1186.4015,-150.3637 1222.5,-132 1257.0909,-114.4033 1273.0645,-111.1575 1289.5,-76 1293.2644,-67.9476 1295.144,-62.8672 1289.5,-56 1271.4709,-34.0635 1205.3986,-22.4162 1148.1971,-16.3364"/>
<polygon fill="#191970" stroke="#191970" points="1148.3046,-12.8293 1138.002,-15.3004 1147.5969,-19.7935 1148.3046,-12.8293"/>
</g>
<!-- Node7 -->
<g id="node8" class="node">
<title>Node7</title>
<g id="a_node8"><a xlink:href="_field_utils_8_h.html" target="_top" xlink:title="amr&#45;wind/core/FieldUtils.H">
<polygon fill="#ffffff" stroke="#000000" points="1338,-56.5 1338,-75.5 1471,-75.5 1471,-56.5 1338,-56.5"/>
<text text-anchor="middle" x="1404.5" y="-63.5" font-family="Helvetica,sans-Serif" font-size="10.00" fill="#000000">amr&#45;wind/core/FieldUtils.H</text>
</a>
</g>
</g>
<!-- Node3&#45;&gt;Node7 -->
<g id="edge7" class="edge">
<title>Node3&#45;&gt;Node7</title>
<path fill="none" stroke="#191970" d="M1106.6338,-171.1129C1178.2862,-163.1461 1285.7766,-148.9308 1323.5,-132 1349.1488,-120.4885 1373.4296,-98.7251 1388.5981,-83.3421"/>
<polygon fill="#191970" stroke="#191970" points="1391.2711,-85.6112 1395.6586,-75.9675 1386.2149,-80.7703 1391.2711,-85.6112"/>
</g>
<!-- Node8 -->
<g id="node9" class="node">
<title>Node8</title>
<polygon fill="#ffffff" stroke="#bfbfbf" points="193.5,-.5 193.5,-19.5 297.5,-19.5 297.5,-.5 193.5,-.5"/>
<text text-anchor="middle" x="245.5" y="-7.5" font-family="Helvetica,sans-Serif" font-size="10.00" fill="#000000">AMReX_MultiFab.H</text>
</g>
<!-- Node3&#45;&gt;Node8 -->
<g id="edge37" class="edge">
<title>Node3&#45;&gt;Node8</title>
<path fill="none" stroke="#191970" d="M970.2484,-177.1284C792.2766,-174.4217 317.2063,-164.2998 163.5,-132 94.6742,-117.537 55.4735,-133.8644 15.5,-76 10.4477,-68.6865 9.8645,-62.8742 15.5,-56 36.3358,-30.5844 122.3336,-18.9314 183.0387,-13.7899"/>
<polygon fill="#191970" stroke="#191970" points="183.6169,-17.2547 193.3029,-12.9615 183.0537,-10.2774 183.6169,-17.2547"/>
</g>
<!-- Node10 -->
<g id="node11" class="node">
<title>Node10</title>
<g id="a_node11"><a xlink:href="_field_8_h.html" target="_top" xlink:title="amr&#45;wind/core/Field.H">
<polygon fill="#ffffff" stroke="#000000" points="639,-112.5 639,-131.5 752,-131.5 752,-112.5 639,-112.5"/>
<text text-anchor="middle" x="695.5" y="-119.5" font-family="Helvetica,sans-Serif" font-size="10.00" fill="#000000">amr&#45;wind/core/Field.H</text>
</a>
</g>
</g>
<!-- Node3&#45;&gt;Node10 -->
<g id="edge11" class="edge">
<title>Node3&#45;&gt;Node10</title>
<path fill="none" stroke="#191970" d="M979.9259,-168.4369C919.446,-158.5626 825.237,-143.1815 761.9962,-132.8565"/>
<polygon fill="#191970" stroke="#191970" points="762.5555,-129.4016 752.1222,-131.2444 761.4275,-136.3101 762.5555,-129.4016"/>
</g>
<!-- Node17 -->
<g id="node18" class="node">
<title>Node17</title>
<g id="a_node18"><a xlink:href="_int_field_8_h.html" target="_top" xlink:title="amr&#45;wind/core/IntField.H">
<polygon fill="#ffffff" stroke="#000000" points="1068.5,-112.5 1068.5,-131.5 1192.5,-131.5 1192.5,-112.5 1068.5,-112.5"/>
<text text-anchor="middle" x="1130.5" y="-119.5" font-family="Helvetica,sans-Serif" font-size="10.00" fill="#000000">amr&#45;wind/core/IntField.H</text>
</a>
</g>
</g>
<!-- Node3&#45;&gt;Node17 -->
<g id="edge25" class="edge">
<title>Node3&#45;&gt;Node17</title>
<path fill="none" stroke="#191970" d="M1054.5252,-168.2455C1068.6408,-159.6534 1089.4263,-147.0014 1105.6899,-137.1018"/>
<polygon fill="#191970" stroke="#191970" points="1107.9363,-139.8319 1114.6585,-131.6427 1104.2966,-133.8525 1107.9363,-139.8319"/>
</g>
<!-- Node18 -->
<g id="node19" class="node">
<title>Node18</title>
<polygon fill="#ffffff" stroke="#bfbfbf" points="1174,-56.5 1174,-75.5 1281,-75.5 1281,-56.5 1174,-56.5"/>
<text text-anchor="middle" x="1227.5" y="-63.5" font-family="Helvetica,sans-Serif" font-size="10.00" fill="#000000">AMReX_iMultiFab.H</text>
</g>
<!-- Node3&#45;&gt;Node18 -->
<g id="edge38" class="edge">
<title>Node3&#45;&gt;Node18</title>
<path fill="none" stroke="#191970" d="M1090.783,-168.4801C1131.9942,-160.0434 1185.1448,-146.7932 1201.5,-132 1214.7465,-120.0187 1221.3288,-100.4299 1224.5462,-85.6988"/>
<polygon fill="#191970" stroke="#191970" points="1228.0393,-86.0552 1226.4054,-75.5871 1221.1547,-84.7893 1228.0393,-86.0552"/>
</g>
<!-- Node19 -->
<g id="node20" class="node">
<title>Node19</title>
<g id="a_node20"><a xlink:href="_scratch_field_8_h.html" target="_top" xlink:title="amr&#45;wind/core/ScratchField.H">
<polygon fill="#ffffff" stroke="#000000" points="172.5,-112.5 172.5,-131.5 318.5,-131.5 318.5,-112.5 172.5,-112.5"/>
<text text-anchor="middle" x="245.5" y="-119.5" font-family="Helvetica,sans-Serif" font-size="10.00" fill="#000000">amr&#45;wind/core/ScratchField.H</text>
</a>
</g>
</g>
<!-- Node3&#45;&gt;Node19 -->
<g id="edge29" class="edge">
<title>Node3&#45;&gt;Node19</title>
<path fill="none" stroke="#191970" d="M970.2029,-173.177C825.0857,-162.9291 486.4534,-139.0156 328.8898,-127.8888"/>
<polygon fill="#191970" stroke="#191970" points="328.9989,-124.3879 318.7772,-127.1747 328.5058,-131.3705 328.9989,-124.3879"/>
</g>
<!-- Node21 -->
<g id="node22" class="node">
<title>Node21</title>
<polygon fill="#ffffff" stroke="#bfbfbf" points="904.5,-112.5 904.5,-131.5 1010.5,-131.5 1010.5,-112.5 904.5,-112.5"/>
<text text-anchor="middle" x="957.5" y="-119.5" font-family="Helvetica,sans-Serif" font-size="10.00" fill="#000000">AMReX_AmrCore.H</text>
</g>
<!-- Node3&#45;&gt;Node21 -->
<g id="edge36" class="edge">
<title>Node3&#45;&gt;Node21</title>
<path fill="none" stroke="#191970" d="M1024.3909,-168.2455C1012.0791,-159.7337 994.0042,-147.2375 979.7462,-137.3801"/>
<polygon fill="#191970" stroke="#191970" points="981.6634,-134.4506 971.4474,-131.6427 977.6826,-140.2085 981.6634,-134.4506"/>
</g>
<!-- Node7&#45;&gt;Node6 -->
<g id="edge8" class="edge">
<title>Node7&#45;&gt;Node6</title>
<path fill="none" stroke="#191970" d="M1345.0721,-56.4369C1284.2634,-46.6516 1189.8476,-31.4582 1125.7072,-21.1368"/>
<polygon fill="#191970" stroke="#191970" points="1126.1119,-17.657 1115.6828,-19.5237 1124.9997,-24.5681 1126.1119,-17.657"/>
</g>
<!-- Node7&#45;&gt;Node8 -->
<g id="edge9" class="edge">
<title>Node7&#45;&gt;Node8</title>
<path fill="none" stroke="#191970" d="M1337.9507,-59.6991C1322.0841,-58.3392 1305.1995,-57.0088 1289.5,-56 905.5146,-31.3272 808.821,-38.7317 424.5,-20 385.7615,-18.1119 342.3247,-15.6926 307.9419,-13.7065"/>
<polygon fill="#191970" stroke="#191970" points="307.7632,-10.1904 297.5772,-13.1051 307.3577,-17.1786 307.7632,-10.1904"/>
</g>
<!-- Node9 -->
<g id="node10" class="node">
<title>Node9</title>
<polygon fill="#ffffff" stroke="#bfbfbf" points="1346.5,-.5 1346.5,-19.5 1462.5,-19.5 1462.5,-.5 1346.5,-.5"/>
<text text-anchor="middle" x="1404.5" y="-7.5" font-family="Helvetica,sans-Serif" font-size="10.00" fill="#000000">AMReX_Interpolater.H</text>
</g>
<!-- Node7&#45;&gt;Node9 -->
<g id="edge10" class="edge">
<title>Node7&#45;&gt;Node9</title>
<path fill="none" stroke="#191970" d="M1404.5,-56.2455C1404.5,-48.9382 1404.5,-38.6944 1404.5,-29.7046"/>
<polygon fill="#191970" stroke="#191970" points="1408.0001,-29.6426 1404.5,-19.6427 1401.0001,-29.6427 1408.0001,-29.6426"/>
</g>
<!-- Node10&#45;&gt;Node4 -->
<g id="edge12" class="edge">
<title>Node10&#45;&gt;Node4</title>
<path fill="none" stroke="#191970" d="M638.9251,-116.8706C600.6431,-111.3235 550.1981,-99.8171 511.5,-76 492.0667,-64.0396 475.7586,-43.2855 465.6317,-28.2379"/>
<polygon fill="#191970" stroke="#191970" points="468.5115,-26.2454 460.1524,-19.7357 462.6275,-30.0374 468.5115,-26.2454"/>
</g>
<!-- Node10&#45;&gt;Node5 -->
<g id="edge14" class="edge">
<title>Node10&#45;&gt;Node5</title>
<path fill="none" stroke="#191970" d="M752.2538,-113.167C809.9955,-104.1108 902.0447,-89.483 981.5,-76 982.9605,-75.7522 984.4422,-75.499 985.9374,-75.2421"/>
<polygon fill="#191970" stroke="#191970" points="986.671,-78.6671 995.924,-73.5065 985.4724,-71.7705 986.671,-78.6671"/>
</g>
<!-- Node10&#45;&gt;Node6 -->
<g id="edge19" class="edge">
<title>Node10&#45;&gt;Node6</title>
<path fill="none" stroke="#191970" d="M752.1217,-117.7053C804.4769,-112.35 883.7367,-100.6882 948.5,-76 965.8569,-69.3834 1007.3924,-42.7204 1033.6004,-25.3747"/>
<polygon fill="#191970" stroke="#191970" points="1035.7792,-28.129 1042.1665,-19.6761 1031.9019,-22.3009 1035.7792,-28.129"/>
</g>
<!-- Node10&#45;&gt;Node8 -->
<g id="edge15" class="edge">
<title>Node10&#45;&gt;Node8</title>
<path fill="none" stroke="#191970" d="M647.9808,-112.4163C605.1033,-103.5846 540.3732,-89.7942 484.5,-76 415.0513,-58.8543 335.0561,-36.1573 287.4711,-22.341"/>
<polygon fill="#191970" stroke="#191970" points="288.4041,-18.9674 277.8244,-19.5327 286.4475,-25.6884 288.4041,-18.9674"/>
</g>
<!-- Node11 -->
<g id="node12" class="node">
<title>Node11</title>
<polygon fill="#ffffff" stroke="#bfbfbf" points="520.5,-56.5 520.5,-75.5 572.5,-75.5 572.5,-56.5 520.5,-56.5"/>
<text text-anchor="middle" x="546.5" y="-63.5" font-family="Helvetica,sans-Serif" font-size="10.00" fill="#000000">memory</text>
</g>
<!-- Node10&#45;&gt;Node11 -->
<g id="edge13" class="edge">
<title>Node10&#45;&gt;Node11</title>
<path fill="none" stroke="#191970" d="M669.886,-112.3733C645.4313,-103.1822 608.3946,-89.2624 581.2791,-79.0713"/>
<polygon fill="#191970" stroke="#191970" points="582.3719,-75.7431 571.7798,-75.5011 579.9091,-82.2956 582.3719,-75.7431"/>
</g>
<!-- Node12 -->
<g id="node13" class="node">
<title>Node12</title>
<polygon fill="#ffffff" stroke="#bfbfbf" points="591,-56.5 591,-75.5 690,-75.5 690,-56.5 591,-56.5"/>
<text text-anchor="middle" x="640.5" y="-63.5" font-family="Helvetica,sans-Serif" font-size="10.00" fill="#000000">AMReX_BCRec.H</text>
</g>
<!-- Node10&#45;&gt;Node12 -->
<g id="edge16" class="edge">
<title>Node10&#45;&gt;Node12</title>
<path fill="none" stroke="#191970" d="M685.9197,-112.2455C677.9542,-104.1352 666.4359,-92.4075 656.9921,-82.7919"/>
<polygon fill="#191970" stroke="#191970" points="659.4747,-80.3247 649.9705,-75.6427 654.4805,-85.2297 659.4747,-80.3247"/>
</g>
<!-- Node13 -->
<g id="node14" class="node">
<title>Node13</title>
<polygon fill="#ffffff" stroke="#bfbfbf" points="708,-56.5 708,-75.5 793,-75.5 793,-56.5 708,-56.5"/>
<text text-anchor="middle" x="750.5" y="-63.5" font-family="Helvetica,sans-Serif" font-size="10.00" fill="#000000">AMReX_Gpu.H</text>
</g>
<!-- Node10&#45;&gt;Node13 -->
<g id="edge17" class="edge">
<title>Node10&#45;&gt;Node13</title>
<path fill="none" stroke="#191970" d="M705.0803,-112.2455C713.0458,-104.1352 724.5641,-92.4075 734.0079,-82.7919"/>
<polygon fill="#191970" stroke="#191970" points="736.5195,-85.2297 741.0295,-75.6427 731.5253,-80.3247 736.5195,-85.2297"/>
</g>
<!-- Node14 -->
<g id="node15" class="node">
<title>Node14</title>
<g id="a_node15"><a xlink:href="incflo__enums_8_h.html" target="_top" xlink:title="amr&#45;wind/incflo_enums.H">
<polygon fill="#ffffff" stroke="#000000" points="811.5,-56.5 811.5,-75.5 939.5,-75.5 939.5,-56.5 811.5,-56.5"/>
<text text-anchor="middle" x="875.5" y="-63.5" font-family="Helvetica,sans-Serif" font-size="10.00" fill="#000000">amr&#45;wind/incflo_enums.H</text>
</a>
</g>
</g>
<!-- Node10&#45;&gt;Node14 -->
<g id="edge18" class="edge">
<title>Node10&#45;&gt;Node14</title>
<path fill="none" stroke="#191970" d="M726.4431,-112.3733C756.5039,-103.021 802.3026,-88.7725 835.1978,-78.5385"/>
<polygon fill="#191970" stroke="#191970" points="836.4519,-81.8139 844.9607,-75.5011 834.3723,-75.1299 836.4519,-81.8139"/>
</g>
<!-- Node15 -->
<g id="node16" class="node">
<title>Node15</title>
<g id="a_node16"><a xlink:href="_view_field_8_h.html" target="_top" xlink:title="amr&#45;wind/core/ViewField.H">
<polygon fill="#ffffff" stroke="#000000" points="178.5,-56.5 178.5,-75.5 312.5,-75.5 312.5,-56.5 178.5,-56.5"/>
<text text-anchor="middle" x="245.5" y="-63.5" font-family="Helvetica,sans-Serif" font-size="10.00" fill="#000000">amr&#45;wind/core/ViewField.H</text>
</a>
</g>
</g>
<!-- Node10&#45;&gt;Node15 -->
<g id="edge20" class="edge">
<title>Node10&#45;&gt;Node15</title>
<path fill="none" stroke="#191970" d="M638.9628,-114.9643C559.0682,-105.0218 412.8652,-86.8277 322.9323,-75.636"/>
<polygon fill="#191970" stroke="#191970" points="323.1478,-72.1359 312.7921,-74.3741 322.2833,-79.0823 323.1478,-72.1359"/>
</g>
<!-- Node15&#45;&gt;Node4 -->
<g id="edge21" class="edge">
<title>Node15&#45;&gt;Node4</title>
<path fill="none" stroke="#191970" d="M281.4284,-56.3733C321.6473,-45.5969 386.1283,-28.3197 423.9932,-18.1741"/>
<polygon fill="#191970" stroke="#191970" points="425.1716,-21.4819 433.925,-15.5129 423.3598,-14.7204 425.1716,-21.4819"/>
</g>
<!-- Node15&#45;&gt;Node6 -->
<g id="edge22" class="edge">
<title>Node15&#45;&gt;Node6</title>
<path fill="none" stroke="#191970" d="M312.5575,-61.3696C457.4353,-51.3657 799.8592,-27.7212 964.6963,-16.3391"/>
<polygon fill="#191970" stroke="#191970" points="965.0778,-19.8212 974.8129,-15.6405 964.5956,-12.8378 965.0778,-19.8212"/>
</g>
<!-- Node15&#45;&gt;Node8 -->
<g id="edge23" class="edge">
<title>Node15&#45;&gt;Node8</title>
<path fill="none" stroke="#191970" d="M245.5,-56.2455C245.5,-48.9382 245.5,-38.6944 245.5,-29.7046"/>
<polygon fill="#191970" stroke="#191970" points="249.0001,-29.6426 245.5,-19.6427 242.0001,-29.6427 249.0001,-29.6426"/>
</g>
<!-- Node16 -->
<g id="node17" class="node">
<title>Node16</title>
<polygon fill="#ffffff" stroke="#bfbfbf" points="0,-.5 0,-19.5 95,-19.5 95,-.5 0,-.5"/>
<text text-anchor="middle" x="47.5" y="-7.5" font-family="Helvetica,sans-Serif" font-size="10.00" fill="#000000">AMReX_Vector.H</text>
</g>
<!-- Node15&#45;&gt;Node16 -->
<g id="edge24" class="edge">
<title>Node15&#45;&gt;Node16</title>
<path fill="none" stroke="#191970" d="M211.4626,-56.3733C178.1106,-46.9404 127.1473,-32.5265 90.8998,-22.2747"/>
<polygon fill="#191970" stroke="#191970" points="91.6684,-18.8548 81.0933,-19.5011 89.7632,-25.5906 91.6684,-18.8548"/>
</g>
<!-- Node17&#45;&gt;Node4 -->
<g id="edge26" class="edge">
<title>Node17&#45;&gt;Node4</title>
<path fill="none" stroke="#191970" d="M1127.3524,-112.3084C1121.9051,-97.2872 1109.1734,-68.7848 1087.5,-56 1035.3298,-25.2256 605.7804,-13.3803 485.6236,-10.6507"/>
<polygon fill="#191970" stroke="#191970" points="485.371,-7.1444 475.2958,-10.4214 485.2156,-14.1426 485.371,-7.1444"/>
</g>
<!-- Node17&#45;&gt;Node6 -->
<g id="edge27" class="edge">
<title>Node17&#45;&gt;Node6</title>
<path fill="none" stroke="#191970" d="M1131.4757,-112.2541C1132.3565,-98.6333 1132.1754,-73.6 1121.5,-56 1113.4229,-42.6837 1099.8671,-32.1793 1087.2186,-24.5907"/>
<polygon fill="#191970" stroke="#191970" points="1088.6967,-21.4072 1078.2603,-19.5819 1085.2805,-27.517 1088.6967,-21.4072"/>
</g>
<!-- Node17&#45;&gt;Node18 -->
<g id="edge28" class="edge">
<title>Node17&#45;&gt;Node18</title>
<path fill="none" stroke="#191970" d="M1147.3961,-112.2455C1162.418,-103.5731 1184.6043,-90.7645 1201.821,-80.825"/>
<polygon fill="#191970" stroke="#191970" points="1203.8871,-83.6737 1210.7975,-75.6427 1200.3872,-77.6114 1203.8871,-83.6737"/>
</g>
<!-- Node19&#45;&gt;Node4 -->
<g id="edge30" class="edge">
<title>Node19&#45;&gt;Node4</title>
<path fill="none" stroke="#191970" d="M263.3192,-112.4509C300.106,-92.7375 384.6221,-47.4465 427.9004,-24.2543"/>
<polygon fill="#191970" stroke="#191970" points="429.5649,-27.3333 436.7259,-19.5249 426.2585,-21.1634 429.5649,-27.3333"/>
</g>
<!-- Node19&#45;&gt;Node6 -->
<g id="edge31" class="edge">
<title>Node19&#45;&gt;Node6</title>
<path fill="none" stroke="#191970" d="M277.0963,-112.4223C326.5787,-97.8193 425.5912,-70.1908 511.5,-56 669.4177,-29.9144 855.6607,-18.2374 964.4619,-13.3038"/>
<polygon fill="#191970" stroke="#191970" points="964.9109,-16.7874 974.7458,-12.8472 964.6003,-9.7943 964.9109,-16.7874"/>
</g>
<!-- Node19&#45;&gt;Node8 -->
<g id="edge33" class="edge">
<title>Node19&#45;&gt;Node8</title>
<path fill="none" stroke="#191970" d="M172.4209,-116.6466C115.1509,-110.7519 42.1364,-98.8939 23.5,-76 17.8884,-69.1064 17.8884,-62.8936 23.5,-56 43.3077,-31.6672 124.5439,-19.8012 183.0154,-14.3113"/>
<polygon fill="#191970" stroke="#191970" points="183.636,-17.7698 193.2832,-13.3901 183.0104,-10.7978 183.636,-17.7698"/>
</g>
<!-- Node19&#45;&gt;Node15 -->
<g id="edge32" class="edge">
<title>Node19&#45;&gt;Node15</title>
<path fill="none" stroke="#191970" d="M245.5,-112.2455C245.5,-104.9382 245.5,-94.6944 245.5,-85.7046"/>
<polygon fill="#191970" stroke="#191970" points="249.0001,-85.6426 245.5,-75.6427 242.0001,-85.6427 249.0001,-85.6426"/>
</g>
<!-- Node19&#45;&gt;Node16 -->
<g id="edge34" class="edge">
<title>Node19&#45;&gt;Node16</title>
<path fill="none" stroke="#191970" d="M172.4735,-117.2703C112.7807,-111.7014 35.1531,-99.9729 15.5,-76 3.3749,-61.2098 16.4905,-41.0575 29.4041,-26.9253"/>
<polygon fill="#191970" stroke="#191970" points="31.9132,-29.3654 36.3959,-19.7656 26.9051,-24.4747 31.9132,-29.3654"/>
</g>
<!-- Node20 -->
<g id="node21" class="node">
<title>Node20</title>
<polygon fill="#ffffff" stroke="#bfbfbf" points="32.5,-56.5 32.5,-75.5 160.5,-75.5 160.5,-56.5 32.5,-56.5"/>
<text text-anchor="middle" x="96.5" y="-63.5" font-family="Helvetica,sans-Serif" font-size="10.00" fill="#000000">AMReX_PhysBCFunct.H</text>
</g>
<!-- Node19&#45;&gt;Node20 -->
<g id="edge35" class="edge">
<title>Node19&#45;&gt;Node20</title>
<path fill="none" stroke="#191970" d="M219.886,-112.3733C195.4313,-103.1822 158.3946,-89.2624 131.2791,-79.0713"/>
<polygon fill="#191970" stroke="#191970" points="132.3719,-75.7431 121.7798,-75.5011 129.9091,-82.2956 132.3719,-75.7431"/>
</g>
<!-- Node23 -->
<g id="node24" class="node">
<title>Node23</title>
<polygon fill="#ffffff" stroke="#bfbfbf" points="1376,-112.5 1376,-131.5 1469,-131.5 1469,-112.5 1376,-112.5"/>
<text text-anchor="middle" x="1422.5" y="-119.5" font-family="Helvetica,sans-Serif" font-size="10.00" fill="#000000">AMReX_REAL.H</text>
</g>
<!-- Node22&#45;&gt;Node23 -->
<g id="edge40" class="edge">
<title>Node22&#45;&gt;Node23</title>
<path fill="none" stroke="#191970" d="M1510.862,-168.2455C1494.0614,-159.4527 1469.1366,-146.4079 1450.0382,-136.4125"/>
<polygon fill="#191970" stroke="#191970" points="1451.4073,-133.1787 1440.9244,-131.6427 1448.1614,-139.3807 1451.4073,-133.1787"/>
</g>
<!-- Node24 -->
<g id="node25" class="node">
<title>Node24</title>
<polygon fill="#ffffff" stroke="#bfbfbf" points="1487.5,-112.5 1487.5,-131.5 1571.5,-131.5 1571.5,-112.5 1487.5,-112.5"/>
<text text-anchor="middle" x="1529.5" y="-119.5" font-family="Helvetica,sans-Serif" font-size="10.00" fill="#000000">AMReX_Box.H</text>
</g>
<!-- Node22&#45;&gt;Node24 -->
<g id="edge41" class="edge">
<title>Node22&#45;&gt;Node24</title>
<path fill="none" stroke="#191970" d="M1529.5,-168.2455C1529.5,-160.9382 1529.5,-150.6944 1529.5,-141.7046"/>
<polygon fill="#191970" stroke="#191970" points="1533.0001,-141.6426 1529.5,-131.6427 1526.0001,-141.6427 1533.0001,-141.6426"/>
</g>
<!-- Node25 -->
<g id="node26" class="node">
<title>Node25</title>
<polygon fill="#ffffff" stroke="#bfbfbf" points="1589.5,-112.5 1589.5,-131.5 1703.5,-131.5 1703.5,-112.5 1589.5,-112.5"/>
<text text-anchor="middle" x="1646.5" y="-119.5" font-family="Helvetica,sans-Serif" font-size="10.00" fill="#000000">AMReX_Orientation.H</text>
</g>
<!-- Node22&#45;&gt;Node25 -->
<g id="edge42" class="edge">
<title>Node22&#45;&gt;Node25</title>
<path fill="none" stroke="#191970" d="M1549.613,-168.3733C1568.3103,-159.4241 1596.3744,-145.9917 1617.4934,-135.8835"/>
<polygon fill="#191970" stroke="#191970" points="1619.1405,-138.9755 1626.6494,-131.5011 1616.1183,-132.6614 1619.1405,-138.9755"/>
</g>
<!-- Node26 -->
<g id="node27" class="node">
<title>Node26</title>
<polygon fill="#ffffff" stroke="#bfbfbf" points="1721.5,-112.5 1721.5,-131.5 1831.5,-131.5 1831.5,-112.5 1721.5,-112.5"/>
<text text-anchor="middle" x="1776.5" y="-119.5" font-family="Helvetica,sans-Serif" font-size="10.00" fill="#000000">AMReX_Geometry.H</text>
</g>
<!-- Node22&#45;&gt;Node26 -->
<g id="edge43" class="edge">
<title>Node22&#45;&gt;Node26</title>
<path fill="none" stroke="#191970" d="M1571.6802,-168.4369C1613.9523,-158.8529 1679.1062,-144.0812 1724.5417,-133.78"/>
<polygon fill="#191970" stroke="#191970" points="1725.5152,-137.1482 1734.4938,-131.5237 1723.9674,-130.3215 1725.5152,-137.1482"/>
</g>
<!-- Node28&#45;&gt;Node2 -->
<g id="edge46" class="edge">
<title>Node28&#45;&gt;Node2</title>
<path fill="none" stroke="#191970" d="M1717.7809,-285.9581C1672.9397,-275.1857 1599.9157,-257.6428 1551.2975,-245.9631"/>
<polygon fill="#191970" stroke="#191970" points="1551.8532,-242.4971 1541.3123,-243.5643 1550.2181,-249.3034 1551.8532,-242.4971"/>
</g>
<!-- Node28&#45;&gt;Node26 -->
<g id="edge48" class="edge">
<title>Node28&#45;&gt;Node26</title>
<path fill="none" stroke="#191970" d="M1758.5486,-285.9248C1761.552,-258.499 1770.2325,-179.232 1774.3211,-141.8964"/>
<polygon fill="#191970" stroke="#191970" points="1777.8218,-142.0811 1775.4312,-131.7595 1770.8634,-141.3191 1777.8218,-142.0811"/>
</g>
<!-- Node28&#45;&gt;Node27 -->
<g id="edge49" class="edge">
<title>Node28&#45;&gt;Node27</title>
<path fill="none" stroke="#191970" d="M1751.0351,-285.8845C1737.8414,-266.261 1707.6308,-221.3274 1690.654,-196.0772"/>
<polygon fill="#191970" stroke="#191970" points="1693.5384,-194.0942 1685.0542,-187.7484 1687.7293,-198 1693.5384,-194.0942"/>
</g>
<!-- Node29 -->
<g id="node30" class="node">
<title>Node29</title>
<polygon fill="#ffffff" stroke="#bfbfbf" points="1783,-224.5 1783,-243.5 1878,-243.5 1878,-224.5 1783,-224.5"/>
<text text-anchor="middle" x="1830.5" y="-231.5" font-family="Helvetica,sans-Serif" font-size="10.00" fill="#000000">AMReX_Array4.H</text>
</g>
<!-- Node28&#45;&gt;Node29 -->
<g id="edge47" class="edge">
<title>Node28&#45;&gt;Node29</title>
<path fill="none" stroke="#191970" d="M1768.9063,-285.8906C1780.1969,-276.3786 1797.6967,-261.6357 1811.1619,-250.2917"/>
<polygon fill="#191970" stroke="#191970" points="1813.5402,-252.8646 1818.9329,-243.7449 1809.0301,-247.5111 1813.5402,-252.8646"/>
</g>
<!-- Node30&#45;&gt;Node2 -->
<g id="edge51" class="edge">
<title>Node30&#45;&gt;Node2</title>
<path fill="none" stroke="#191970" d="M1865.3102,-285.9377C1855.5653,-283.8338 1845.1892,-281.7221 1835.5,-280 1746.8347,-264.2408 1644.1074,-250.8093 1576.2445,-242.5996"/>
<polygon fill="#191970" stroke="#191970" points="1576.422,-239.0958 1566.0756,-241.377 1575.5863,-246.0458 1576.422,-239.0958"/>
</g>
<!-- Node30&#45;&gt;Node26 -->
<g id="edge53" class="edge">
<title>Node30&#45;&gt;Node26</title>
<path fill="none" stroke="#191970" d="M1909.3065,-285.6449C1912.8317,-271.2688 1917.3124,-244.0763 1907.5,-224 1886.9678,-181.991 1839.8558,-152.265 1808.0939,-136.1233"/>
<polygon fill="#191970" stroke="#191970" points="1809.2953,-132.8142 1798.776,-131.5514 1806.2118,-139.0985 1809.2953,-132.8142"/>
</g>
<!-- Node30&#45;&gt;Node27 -->
<g id="edge54" class="edge">
<title>Node30&#45;&gt;Node27</title>
<path fill="none" stroke="#191970" d="M1906.8867,-285.5933C1906.9157,-270.1323 1904.5672,-240.3471 1887.5,-224 1866.1374,-203.5386 1790.4866,-190.7342 1736.3498,-183.9779"/>
<polygon fill="#191970" stroke="#191970" points="1736.519,-180.4729 1726.171,-182.7465 1735.6782,-187.4222 1736.519,-180.4729"/>
</g>
<!-- Node30&#45;&gt;Node29 -->
<g id="edge52" class="edge">
<title>Node30&#45;&gt;Node29</title>
<path fill="none" stroke="#191970" d="M1894.625,-285.8906C1882.8703,-276.3786 1864.6514,-261.6357 1850.6328,-250.2917"/>
<polygon fill="#191970" stroke="#191970" points="1852.5178,-247.3146 1842.5424,-243.7449 1848.1144,-252.7562 1852.5178,-247.3146"/>
</g>
<!-- Node31&#45;&gt;Node2 -->
<g id="edge56" class="edge">
<title>Node31&#45;&gt;Node2</title>
<path fill="none" stroke="#191970" d="M1354.6875,-285.8906C1384.3117,-275.42 1431.8687,-258.6111 1464.7918,-246.9745"/>
<polygon fill="#191970" stroke="#191970" points="1466.2414,-250.1744 1474.5034,-243.5419 1463.9086,-243.5745 1466.2414,-250.1744"/>
</g>
<!-- Node32&#45;&gt;Node2 -->
<g id="edge58" class="edge">
<title>Node32&#45;&gt;Node2</title>
<path fill="none" stroke="#191970" d="M1478.7188,-285.8906C1482.5796,-277.0965 1488.4034,-263.8312 1493.1961,-252.9145"/>
<polygon fill="#191970" stroke="#191970" points="1496.4066,-254.3083 1497.2218,-243.7449 1489.9971,-251.4943 1496.4066,-254.3083"/>
</g>
<!-- Node33&#45;&gt;Node2 -->
<g id="edge60" class="edge">
<title>Node33&#45;&gt;Node2</title>
<path fill="none" stroke="#191970" d="M1586.8571,-280.4554C1568.9951,-270.734 1545.8732,-258.15 1528.2005,-248.5317"/>
<polygon fill="#191970" stroke="#191970" points="1529.4675,-245.2365 1519.011,-243.5303 1526.1213,-251.3849 1529.4675,-245.2365"/>
</g>
<!-- Node34&#45;&gt;Node2 -->
<g id="edge62" class="edge">
<title>Node34&#45;&gt;Node2</title>
<path fill="none" stroke="#191970" d="M1074.6401,-285.9849C1085.022,-283.8312 1096.1353,-281.6855 1106.5,-280 1217.3683,-261.9712 1346.8558,-248.2788 1426.5171,-240.6927"/>
<polygon fill="#191970" stroke="#191970" points="1427.313,-244.1332 1436.9395,-239.708 1426.6546,-237.1642 1427.313,-244.1332"/>
</g>
</g>
</svg>
        <g id="navigator" transform="translate(0 0)" fill="#404254">
                <rect fill="#f2f5e9" fill-opacity="0.5" stroke="#606060" stroke-width=".5" x="0" y="0" width="60" height="60"/>
                <use id="zoomplus" xlink:href="#zoomPlus" x="17" y="9" onmousedown="handleZoom(evt,'in')"/>
                <use id="zoomminus" xlink:href="#zoomMin" x="42" y="9" onmousedown="handleZoom(evt,'out')"/>
                <use id="reset" xlink:href="#resetDef" x="30" y="36" onmousedown="handleReset()"/>
                <g id="arrowUp" xlink:href="#dirArrow" transform="translate(30 24)" onmousedown="handlePan(0,-1)">
                  <use xlink:href="#rim" fill="#404040">
                        <set attributeName="fill" to="#808080" begin="arrowUp.mouseover" end="arrowUp.mouseout"/>
                  </use>
                  <path fill="none" stroke="white" stroke-width="1.5" d="M0,-3.0v7 M-2.5,-0.5L0,-3.0L2.5,-0.5"/>
                </g>
                <g id="arrowRight" xlink:href="#dirArrow" transform="rotate(90) translate(36 -43)" onmousedown="handlePan(1,0)">
                  <use xlink:href="#rim" fill="#404040">
                        <set attributeName="fill" to="#808080" begin="arrowRight.mouseover" end="arrowRight.mouseout"/>
                  </use>
                  <path fill="none" stroke="white" stroke-width="1.5" d="M0,-3.0v7 M-2.5,-0.5L0,-3.0L2.5,-0.5"/>
                </g>
                <g id="arrowDown" xlink:href="#dirArrow" transform="rotate(180) translate(-30 -48)" onmousedown="handlePan(0,1)">
                  <use xlink:href="#rim" fill="#404040">
                        <set attributeName="fill" to="#808080" begin="arrowDown.mouseover" end="arrowDown.mouseout"/>
                  </use>
                  <path fill="none" stroke="white" stroke-width="1.5" d="M0,-3.0v7 M-2.5,-0.5L0,-3.0L2.5,-0.5"/>
                </g>
                <g id="arrowLeft" xlink:href="#dirArrow" transform="rotate(270) translate(-36 17)" onmousedown="handlePan(-1,0)">
                  <use xlink:href="#rim" fill="#404040">
                        <set attributeName="fill" to="#808080" begin="arrowLeft.mouseover" end="arrowLeft.mouseout"/>
                  </use>
                  <path fill="none" stroke="white" stroke-width="1.5" d="M0,-3.0v7 M-2.5,-0.5L0,-3.0L2.5,-0.5"/>
                </g>
        </g>
        <svg viewBox="0 0 15 15" width="100%" height="30px" preserveAspectRatio="xMaxYMin meet">
         <g id="arrow_out" transform="scale(0.3 0.3)">
          <a xlink:href="fvm_8_h__incl_org.svg" target="_base">
           <rect id="button" ry="5" rx="5" y="6" x="6" height="38" width="38"
                fill="#f2f5e9" fill-opacity="0.5" stroke="#606060" stroke-width="1.0"/>
           <path id="arrow"
             d="M 11.500037,31.436501 C 11.940474,20.09759 22.043105,11.32322 32.158766,21.979434 L 37.068811,17.246167 C 37.068811,17.246167 37.088388,32 37.088388,32 L 22.160133,31.978069 C 22.160133,31.978069 26.997745,27.140456 26.997745,27.140456 C 18.528582,18.264221 13.291696,25.230495 11.500037,31.436501 z"
             style="fill:#404040;"/>
          </a>
         </g>
        </svg>
</svg>
