<?xml version="1.0" encoding="UTF-8" standalone="no"?>
<!DOCTYPE svg PUBLIC "-//W3C//DTD SVG 1.1//EN"
 "http://www.w3.org/Graphics/SVG/1.1/DTD/svg11.dtd">
<!-- Generated by graphviz version 2.40.1 (20161225.0304)
 -->
<!-- Title: gradient.H Pages: 1 -->
<svg width="2093pt" height="308pt"
 viewBox="0.00 0.00 2093.00 308.00" xmlns="http://www.w3.org/2000/svg" xmlns:xlink="http://www.w3.org/1999/xlink">
<g id="graph0" class="graph" transform="scale(1 1) rotate(0) translate(4 304)">
<title>gradient.H</title>
<polygon fill="#ffffff" stroke="transparent" points="-4,4 -4,-304 2089,-304 2089,4 -4,4"/>
<!-- Node0 -->
<g id="node1" class="node">
<title>Node0</title>
<polygon fill="#bfbfbf" stroke="#000000" points="1911.5,-280.5 1911.5,-299.5 1973.5,-299.5 1973.5,-280.5 1911.5,-280.5"/>
<text text-anchor="middle" x="1942.5" y="-287.5" font-family="Helvetica,sans-Serif" font-size="10.00" fill="#000000">gradient.H</text>
</g>
<!-- Node1 -->
<g id="node2" class="node">
<title>Node1</title>
<g id="a_node2"><a xlink:href="fvm__utils_8_h.html" target="_top" xlink:title="amr&#45;wind/fvm/fvm_utils.H">
<polygon fill="#ffffff" stroke="#000000" points="1730,-224.5 1730,-243.5 1859,-243.5 1859,-224.5 1730,-224.5"/>
<text text-anchor="middle" x="1794.5" y="-231.5" font-family="Helvetica,sans-Serif" font-size="10.00" fill="#000000">amr&#45;wind/fvm/fvm_utils.H</text>
</a>
</g>
</g>
<!-- Node0&#45;&gt;Node1 -->
<g id="edge1" class="edge">
<title>Node0&#45;&gt;Node1</title>
<path fill="none" stroke="#191970" d="M1917.0579,-280.3733C1892.7674,-271.1822 1855.9792,-257.2624 1829.0457,-247.0713"/>
<polygon fill="#191970" stroke="#191970" points="1830.2016,-243.7666 1819.6101,-243.5011 1827.7243,-250.3136 1830.2016,-243.7666"/>
</g>
<!-- Node25 -->
<g id="node26" class="node">
<title>Node25</title>
<polygon fill="#ffffff" stroke="#bfbfbf" points="1916.5,-112.5 1916.5,-131.5 2026.5,-131.5 2026.5,-112.5 1916.5,-112.5"/>
<text text-anchor="middle" x="1971.5" y="-119.5" font-family="Helvetica,sans-Serif" font-size="10.00" fill="#000000">AMReX_Geometry.H</text>
</g>
<!-- Node0&#45;&gt;Node25 -->
<g id="edge45" class="edge">
<title>Node0&#45;&gt;Node25</title>
<path fill="none" stroke="#191970" d="M1944.1423,-280.4862C1948.7463,-253.8144 1961.8486,-177.9117 1968.1003,-141.695"/>
<polygon fill="#191970" stroke="#191970" points="1971.5514,-142.2775 1969.8035,-131.8279 1964.6534,-141.0868 1971.5514,-142.2775"/>
</g>
<!-- Node26 -->
<g id="node27" class="node">
<title>Node26</title>
<polygon fill="#ffffff" stroke="#bfbfbf" points="1838,-168.5 1838,-187.5 1933,-187.5 1933,-168.5 1838,-168.5"/>
<text text-anchor="middle" x="1885.5" y="-175.5" font-family="Helvetica,sans-Serif" font-size="10.00" fill="#000000">AMReX_MFIter.H</text>
</g>
<!-- Node0&#45;&gt;Node26 -->
<g id="edge46" class="edge">
<title>Node0&#45;&gt;Node26</title>
<path fill="none" stroke="#191970" d="M1937.6402,-280.4509C1928.2174,-261.936 1907.3122,-220.8591 1895.0265,-196.7187"/>
<polygon fill="#191970" stroke="#191970" points="1898.0025,-194.8496 1890.3475,-187.5249 1891.7639,-198.0246 1898.0025,-194.8496"/>
</g>
<!-- Node27 -->
<g id="node28" class="node">
<title>Node27</title>
<polygon fill="#ffffff" stroke="#bfbfbf" points="1990,-224.5 1990,-243.5 2085,-243.5 2085,-224.5 1990,-224.5"/>
<text text-anchor="middle" x="2037.5" y="-231.5" font-family="Helvetica,sans-Serif" font-size="10.00" fill="#000000">AMReX_Array4.H</text>
</g>
<!-- Node0&#45;&gt;Node27 -->
<g id="edge44" class="edge">
<title>Node0&#45;&gt;Node27</title>
<path fill="none" stroke="#191970" d="M1959.0477,-280.2455C1973.7599,-271.5731 1995.4888,-258.7645 2012.3505,-248.825"/>
<polygon fill="#191970" stroke="#191970" points="2014.3046,-251.736 2021.1419,-243.6427 2010.7498,-245.7057 2014.3046,-251.736"/>
</g>
<!-- Node2 -->
<g id="node3" class="node">
<title>Node2</title>
<g id="a_node3"><a xlink:href="_field_repo_8_h.html" target="_top" xlink:title="amr&#45;wind/core/FieldRepo.H">
<polygon fill="#ffffff" stroke="#000000" points="982.5,-168.5 982.5,-187.5 1118.5,-187.5 1118.5,-168.5 982.5,-168.5"/>
<text text-anchor="middle" x="1050.5" y="-175.5" font-family="Helvetica,sans-Serif" font-size="10.00" fill="#000000">amr&#45;wind/core/FieldRepo.H</text>
</a>
</g>
</g>
<!-- Node1&#45;&gt;Node2 -->
<g id="edge2" class="edge">
<title>Node1&#45;&gt;Node2</title>
<path fill="none" stroke="#191970" d="M1729.7764,-229.1283C1593.3162,-218.8571 1276.549,-195.0144 1128.8893,-183.9003"/>
<polygon fill="#191970" stroke="#191970" points="1128.7894,-180.3829 1118.5549,-183.1224 1128.2639,-187.3632 1128.7894,-180.3829"/>
</g>
<!-- Node21 -->
<g id="node22" class="node">
<title>Node21</title>
<g id="a_node22"><a xlink:href="stencils_8_h.html" target="_top" xlink:title="Second&#45;order finite volume discretization stencil coefficients. ">
<polygon fill="#ffffff" stroke="#000000" points="1697,-168.5 1697,-187.5 1820,-187.5 1820,-168.5 1697,-168.5"/>
<text text-anchor="middle" x="1758.5" y="-175.5" font-family="Helvetica,sans-Serif" font-size="10.00" fill="#000000">amr&#45;wind/fvm/stencils.H</text>
</a>
</g>
</g>
<!-- Node1&#45;&gt;Node21 -->
<g id="edge38" class="edge">
<title>Node1&#45;&gt;Node21</title>
<path fill="none" stroke="#191970" d="M1788.2293,-224.2455C1783.2736,-216.5367 1776.217,-205.5598 1770.2224,-196.2348"/>
<polygon fill="#191970" stroke="#191970" points="1773.0506,-194.1618 1764.6989,-187.6427 1767.1624,-197.9471 1773.0506,-194.1618"/>
</g>
<!-- Node1&#45;&gt;Node26 -->
<g id="edge43" class="edge">
<title>Node1&#45;&gt;Node26</title>
<path fill="none" stroke="#191970" d="M1810.351,-224.2455C1824.3132,-215.6534 1844.8728,-203.0014 1860.9596,-193.1018"/>
<polygon fill="#191970" stroke="#191970" points="1863.1484,-195.8645 1869.8307,-187.6427 1859.4797,-189.9029 1863.1484,-195.8645"/>
</g>
<!-- Node3 -->
<g id="node4" class="node">
<title>Node3</title>
<polygon fill="#ffffff" stroke="#bfbfbf" points="629,-.5 629,-19.5 670,-19.5 670,-.5 629,-.5"/>
<text text-anchor="middle" x="649.5" y="-7.5" font-family="Helvetica,sans-Serif" font-size="10.00" fill="#000000">string</text>
</g>
<!-- Node2&#45;&gt;Node3 -->
<g id="edge3" class="edge">
<title>Node2&#45;&gt;Node3</title>
<path fill="none" stroke="#191970" d="M982.4199,-171.7543C908.3717,-161.9903 789.6204,-137.3519 707.5,-76 689.2841,-62.391 672.617,-42.2534 661.871,-27.8042"/>
<polygon fill="#191970" stroke="#191970" points="664.6761,-25.7102 655.9843,-19.6518 659.0009,-29.8081 664.6761,-25.7102"/>
</g>
<!-- Node4 -->
<g id="node5" class="node">
<title>Node4</title>
<polygon fill="#ffffff" stroke="#bfbfbf" points="1229,-56.5 1229,-75.5 1312,-75.5 1312,-56.5 1229,-56.5"/>
<text text-anchor="middle" x="1270.5" y="-63.5" font-family="Helvetica,sans-Serif" font-size="10.00" fill="#000000">unordered_map</text>
</g>
<!-- Node2&#45;&gt;Node4 -->
<g id="edge4" class="edge">
<title>Node2&#45;&gt;Node4</title>
<path fill="none" stroke="#191970" d="M1069.2571,-168.4509C1108.0611,-148.6961 1197.3175,-103.2565 1242.7864,-80.1088"/>
<polygon fill="#191970" stroke="#191970" points="1244.4667,-83.1808 1251.7904,-75.5249 1241.2908,-76.9427 1244.4667,-83.1808"/>
</g>
<!-- Node5 -->
<g id="node6" class="node">
<title>Node5</title>
<g id="a_node6"><a xlink:href="_field_desc_types_8_h.html" target="_top" xlink:title="amr&#45;wind/core/FieldDescTypes.H">
<polygon fill="#ffffff" stroke="#000000" points="903,-.5 903,-19.5 1066,-19.5 1066,-.5 903,-.5"/>
<text text-anchor="middle" x="984.5" y="-7.5" font-family="Helvetica,sans-Serif" font-size="10.00" fill="#000000">amr&#45;wind/core/FieldDescTypes.H</text>
</a>
</g>
</g>
<!-- Node2&#45;&gt;Node5 -->
<g id="edge5" class="edge">
<title>Node2&#45;&gt;Node5</title>
<path fill="none" stroke="#191970" d="M1118.795,-174.02C1214.9536,-167.7315 1384.9453,-153.9118 1442.5,-132 1488.333,-114.5508 1555.6681,-92.125 1522.5,-56 1493.0133,-23.8845 1222.2687,-14.1534 1076.4821,-11.2332"/>
<polygon fill="#191970" stroke="#191970" points="1076.2723,-7.7286 1066.2064,-11.0345 1076.1369,-14.7272 1076.2723,-7.7286"/>
</g>
<!-- Node6 -->
<g id="node7" class="node">
<title>Node6</title>
<g id="a_node7"><a xlink:href="_field_utils_8_h.html" target="_top" xlink:title="amr&#45;wind/core/FieldUtils.H">
<polygon fill="#ffffff" stroke="#000000" points="0,-56.5 0,-75.5 133,-75.5 133,-56.5 0,-56.5"/>
<text text-anchor="middle" x="66.5" y="-63.5" font-family="Helvetica,sans-Serif" font-size="10.00" fill="#000000">amr&#45;wind/core/FieldUtils.H</text>
</a>
</g>
</g>
<!-- Node2&#45;&gt;Node6 -->
<g id="edge6" class="edge">
<title>Node2&#45;&gt;Node6</title>
<path fill="none" stroke="#191970" d="M982.3703,-176.9684C785.4428,-173.6463 224.5976,-161.6644 147.5,-132 120.9732,-121.7935 96.5744,-99.3562 81.636,-83.4836"/>
<polygon fill="#191970" stroke="#191970" points="84.0417,-80.9267 74.7254,-75.8812 78.8619,-85.6352 84.0417,-80.9267"/>
</g>
<!-- Node7 -->
<g id="node8" class="node">
<title>Node7</title>
<polygon fill="#ffffff" stroke="#bfbfbf" points="147.5,-.5 147.5,-19.5 251.5,-19.5 251.5,-.5 147.5,-.5"/>
<text text-anchor="middle" x="199.5" y="-7.5" font-family="Helvetica,sans-Serif" font-size="10.00" fill="#000000">AMReX_MultiFab.H</text>
</g>
<!-- Node2&#45;&gt;Node7 -->
<g id="edge36" class="edge">
<title>Node2&#45;&gt;Node7</title>
<path fill="none" stroke="#191970" d="M982.1771,-176.5141C868.0823,-173.2259 631.8226,-162.9724 434.5,-132 329.7106,-115.5519 269.9933,-157.8292 202.5,-76 192.0314,-63.3078 192.3521,-44.1185 194.6581,-29.6975"/>
<polygon fill="#191970" stroke="#191970" points="198.1109,-30.281 196.6627,-19.7856 191.2498,-28.8933 198.1109,-30.281"/>
</g>
<!-- Node9 -->
<g id="node10" class="node">
<title>Node9</title>
<g id="a_node10"><a xlink:href="_field_8_h.html" target="_top" xlink:title="amr&#45;wind/core/Field.H">
<polygon fill="#ffffff" stroke="#000000" points="838,-112.5 838,-131.5 951,-131.5 951,-112.5 838,-112.5"/>
<text text-anchor="middle" x="894.5" y="-119.5" font-family="Helvetica,sans-Serif" font-size="10.00" fill="#000000">amr&#45;wind/core/Field.H</text>
</a>
</g>
</g>
<!-- Node2&#45;&gt;Node9 -->
<g id="edge10" class="edge">
<title>Node2&#45;&gt;Node9</title>
<path fill="none" stroke="#191970" d="M1023.6826,-168.3733C997.9668,-159.1419 958.962,-145.1402 930.5401,-134.9375"/>
<polygon fill="#191970" stroke="#191970" points="931.5619,-131.5857 920.9674,-131.5011 929.1968,-138.174 931.5619,-131.5857"/>
</g>
<!-- Node16 -->
<g id="node17" class="node">
<title>Node16</title>
<g id="a_node17"><a xlink:href="_int_field_8_h.html" target="_top" xlink:title="amr&#45;wind/core/IntField.H">
<polygon fill="#ffffff" stroke="#000000" points="1285.5,-112.5 1285.5,-131.5 1409.5,-131.5 1409.5,-112.5 1285.5,-112.5"/>
<text text-anchor="middle" x="1347.5" y="-119.5" font-family="Helvetica,sans-Serif" font-size="10.00" fill="#000000">amr&#45;wind/core/IntField.H</text>
</a>
</g>
</g>
<!-- Node2&#45;&gt;Node16 -->
<g id="edge24" class="edge">
<title>Node2&#45;&gt;Node16</title>
<path fill="none" stroke="#191970" d="M1101.2187,-168.4369C1152.6886,-158.7321 1232.3702,-143.708 1287.0784,-133.3926"/>
<polygon fill="#191970" stroke="#191970" points="1287.8122,-136.816 1296.9905,-131.5237 1286.5152,-129.9372 1287.8122,-136.816"/>
</g>
<!-- Node17 -->
<g id="node18" class="node">
<title>Node17</title>
<polygon fill="#ffffff" stroke="#bfbfbf" points="1407,-56.5 1407,-75.5 1514,-75.5 1514,-56.5 1407,-56.5"/>
<text text-anchor="middle" x="1460.5" y="-63.5" font-family="Helvetica,sans-Serif" font-size="10.00" fill="#000000">AMReX_iMultiFab.H</text>
</g>
<!-- Node2&#45;&gt;Node17 -->
<g id="edge37" class="edge">
<title>Node2&#45;&gt;Node17</title>
<path fill="none" stroke="#191970" d="M1118.6854,-176.3253C1211.0797,-172.9123 1370.0778,-162.6431 1418.5,-132 1435.6576,-121.1421 1447.0992,-100.4574 1453.6496,-85.1263"/>
<polygon fill="#191970" stroke="#191970" points="1457.0112,-86.1414 1457.4132,-75.5542 1450.4967,-83.58 1457.0112,-86.1414"/>
</g>
<!-- Node18 -->
<g id="node19" class="node">
<title>Node18</title>
<g id="a_node19"><a xlink:href="_scratch_field_8_h.html" target="_top" xlink:title="amr&#45;wind/core/ScratchField.H">
<polygon fill="#ffffff" stroke="#000000" points="443.5,-112.5 443.5,-131.5 589.5,-131.5 589.5,-112.5 443.5,-112.5"/>
<text text-anchor="middle" x="516.5" y="-119.5" font-family="Helvetica,sans-Serif" font-size="10.00" fill="#000000">amr&#45;wind/core/ScratchField.H</text>
</a>
</g>
</g>
<!-- Node2&#45;&gt;Node18 -->
<g id="edge28" class="edge">
<title>Node2&#45;&gt;Node18</title>
<path fill="none" stroke="#191970" d="M982.3261,-170.8507C884.6762,-160.6102 705.1696,-141.7856 599.7851,-130.734"/>
<polygon fill="#191970" stroke="#191970" points="600.1338,-127.2515 589.8233,-129.6893 599.4037,-134.2133 600.1338,-127.2515"/>
</g>
<!-- Node20 -->
<g id="node21" class="node">
<title>Node20</title>
<polygon fill="#ffffff" stroke="#bfbfbf" points="997.5,-112.5 997.5,-131.5 1103.5,-131.5 1103.5,-112.5 997.5,-112.5"/>
<text text-anchor="middle" x="1050.5" y="-119.5" font-family="Helvetica,sans-Serif" font-size="10.00" fill="#000000">AMReX_AmrCore.H</text>
</g>
<!-- Node2&#45;&gt;Node20 -->
<g id="edge35" class="edge">
<title>Node2&#45;&gt;Node20</title>
<path fill="none" stroke="#191970" d="M1050.5,-168.2455C1050.5,-160.9382 1050.5,-150.6944 1050.5,-141.7046"/>
<polygon fill="#191970" stroke="#191970" points="1054.0001,-141.6426 1050.5,-131.6427 1047.0001,-141.6427 1054.0001,-141.6426"/>
</g>
<!-- Node6&#45;&gt;Node5 -->
<g id="edge7" class="edge">
<title>Node6&#45;&gt;Node5</title>
<path fill="none" stroke="#191970" d="M133.085,-61.5367C159.654,-59.7774 190.5226,-57.7603 218.5,-56 461.9621,-40.6813 749.0274,-23.743 892.7681,-15.3389"/>
<polygon fill="#191970" stroke="#191970" points="893.0884,-18.8262 902.8671,-14.7486 892.6799,-11.8381 893.0884,-18.8262"/>
</g>
<!-- Node6&#45;&gt;Node7 -->
<g id="edge8" class="edge">
<title>Node6&#45;&gt;Node7</title>
<path fill="none" stroke="#191970" d="M89.3635,-56.3733C110.905,-47.3032 143.3838,-33.6279 167.4956,-23.4755"/>
<polygon fill="#191970" stroke="#191970" points="169.0767,-26.6075 176.9348,-19.5011 166.3603,-20.156 169.0767,-26.6075"/>
</g>
<!-- Node8 -->
<g id="node9" class="node">
<title>Node8</title>
<polygon fill="#ffffff" stroke="#bfbfbf" points="8.5,-.5 8.5,-19.5 124.5,-19.5 124.5,-.5 8.5,-.5"/>
<text text-anchor="middle" x="66.5" y="-7.5" font-family="Helvetica,sans-Serif" font-size="10.00" fill="#000000">AMReX_Interpolater.H</text>
</g>
<!-- Node6&#45;&gt;Node8 -->
<g id="edge9" class="edge">
<title>Node6&#45;&gt;Node8</title>
<path fill="none" stroke="#191970" d="M66.5,-56.2455C66.5,-48.9382 66.5,-38.6944 66.5,-29.7046"/>
<polygon fill="#191970" stroke="#191970" points="70.0001,-29.6426 66.5,-19.6427 63.0001,-29.6427 70.0001,-29.6426"/>
</g>
<!-- Node9&#45;&gt;Node3 -->
<g id="edge11" class="edge">
<title>Node9&#45;&gt;Node3</title>
<path fill="none" stroke="#191970" d="M851.1426,-112.4921C820.4437,-104.8631 778.7983,-92.6685 744.5,-76 716.2765,-62.2838 687.1143,-40.7233 668.674,-26.0042"/>
<polygon fill="#191970" stroke="#191970" points="670.7355,-23.1696 660.7658,-19.5841 666.3235,-28.6042 670.7355,-23.1696"/>
</g>
<!-- Node9&#45;&gt;Node4 -->
<g id="edge13" class="edge">
<title>Node9&#45;&gt;Node4</title>
<path fill="none" stroke="#191970" d="M951.2366,-114.4363C1015.273,-105.7619 1122.516,-90.8198 1214.5,-76 1215.9625,-75.7644 1217.446,-75.522 1218.9428,-75.2745"/>
<polygon fill="#191970" stroke="#191970" points="1219.6608,-78.7029 1228.9368,-73.5838 1218.4931,-71.801 1219.6608,-78.7029"/>
</g>
<!-- Node9&#45;&gt;Node5 -->
<g id="edge18" class="edge">
<title>Node9&#45;&gt;Node5</title>
<path fill="none" stroke="#191970" d="M951.0477,-114.8375C1032.5249,-104.2469 1174.0625,-84.7245 1181.5,-76 1187.2666,-69.2355 1187.0248,-62.9634 1181.5,-56 1167.9028,-38.862 1120.8873,-27.5105 1076.1985,-20.3722"/>
<polygon fill="#191970" stroke="#191970" points="1076.5297,-16.8821 1066.1144,-18.8242 1075.4675,-23.8011 1076.5297,-16.8821"/>
</g>
<!-- Node9&#45;&gt;Node7 -->
<g id="edge14" class="edge">
<title>Node9&#45;&gt;Node7</title>
<path fill="none" stroke="#191970" d="M837.8027,-119.2893C751.4483,-114.4795 582.0535,-102.3645 440.5,-76 430.6883,-74.1726 310.4139,-40.8579 243.5831,-22.2762"/>
<polygon fill="#191970" stroke="#191970" points="244.3078,-18.845 233.7356,-19.5373 242.432,-25.589 244.3078,-18.845"/>
</g>
<!-- Node10 -->
<g id="node11" class="node">
<title>Node10</title>
<polygon fill="#ffffff" stroke="#bfbfbf" points="753.5,-56.5 753.5,-75.5 805.5,-75.5 805.5,-56.5 753.5,-56.5"/>
<text text-anchor="middle" x="779.5" y="-63.5" font-family="Helvetica,sans-Serif" font-size="10.00" fill="#000000">memory</text>
</g>
<!-- Node9&#45;&gt;Node10 -->
<g id="edge12" class="edge">
<title>Node9&#45;&gt;Node10</title>
<path fill="none" stroke="#191970" d="M874.7308,-112.3733C856.3531,-103.4241 828.7688,-89.9917 808.0107,-79.8835"/>
<polygon fill="#191970" stroke="#191970" points="809.5343,-76.7325 799.0112,-75.5011 806.4696,-83.026 809.5343,-76.7325"/>
</g>
<!-- Node11 -->
<g id="node12" class="node">
<title>Node11</title>
<polygon fill="#ffffff" stroke="#bfbfbf" points="824,-56.5 824,-75.5 923,-75.5 923,-56.5 824,-56.5"/>
<text text-anchor="middle" x="873.5" y="-63.5" font-family="Helvetica,sans-Serif" font-size="10.00" fill="#000000">AMReX_BCRec.H</text>
</g>
<!-- Node9&#45;&gt;Node11 -->
<g id="edge15" class="edge">
<title>Node9&#45;&gt;Node11</title>
<path fill="none" stroke="#191970" d="M890.8421,-112.2455C888.0416,-104.7776 884.091,-94.2427 880.6676,-85.1137"/>
<polygon fill="#191970" stroke="#191970" points="883.9045,-83.777 877.116,-75.6427 877.3501,-86.2349 883.9045,-83.777"/>
</g>
<!-- Node12 -->
<g id="node13" class="node">
<title>Node12</title>
<polygon fill="#ffffff" stroke="#bfbfbf" points="941,-56.5 941,-75.5 1026,-75.5 1026,-56.5 941,-56.5"/>
<text text-anchor="middle" x="983.5" y="-63.5" font-family="Helvetica,sans-Serif" font-size="10.00" fill="#000000">AMReX_Gpu.H</text>
</g>
<!-- Node9&#45;&gt;Node12 -->
<g id="edge16" class="edge">
<title>Node9&#45;&gt;Node12</title>
<path fill="none" stroke="#191970" d="M910.0026,-112.2455C923.658,-103.6534 943.7657,-91.0014 959.4989,-81.1018"/>
<polygon fill="#191970" stroke="#191970" points="961.5751,-83.9307 968.175,-75.6427 957.8471,-78.006 961.5751,-83.9307"/>
</g>
<!-- Node13 -->
<g id="node14" class="node">
<title>Node13</title>
<g id="a_node14"><a xlink:href="incflo__enums_8_h.html" target="_top" xlink:title="amr&#45;wind/incflo_enums.H">
<polygon fill="#ffffff" stroke="#000000" points="1044.5,-56.5 1044.5,-75.5 1172.5,-75.5 1172.5,-56.5 1044.5,-56.5"/>
<text text-anchor="middle" x="1108.5" y="-63.5" font-family="Helvetica,sans-Serif" font-size="10.00" fill="#000000">amr&#45;wind/incflo_enums.H</text>
</a>
</g>
</g>
<!-- Node9&#45;&gt;Node13 -->
<g id="edge17" class="edge">
<title>Node9&#45;&gt;Node13</title>
<path fill="none" stroke="#191970" d="M931.2879,-112.3733C967.5661,-102.8799 1023.1236,-88.3415 1062.3446,-78.0781"/>
<polygon fill="#191970" stroke="#191970" points="1063.404,-81.4188 1072.1921,-75.5011 1061.6318,-74.6468 1063.404,-81.4188"/>
</g>
<!-- Node14 -->
<g id="node15" class="node">
<title>Node14</title>
<g id="a_node15"><a xlink:href="_view_field_8_h.html" target="_top" xlink:title="amr&#45;wind/core/ViewField.H">
<polygon fill="#ffffff" stroke="#000000" points="449.5,-56.5 449.5,-75.5 583.5,-75.5 583.5,-56.5 449.5,-56.5"/>
<text text-anchor="middle" x="516.5" y="-63.5" font-family="Helvetica,sans-Serif" font-size="10.00" fill="#000000">amr&#45;wind/core/ViewField.H</text>
</a>
</g>
</g>
<!-- Node9&#45;&gt;Node14 -->
<g id="edge19" class="edge">
<title>Node9&#45;&gt;Node14</title>
<path fill="none" stroke="#191970" d="M837.9096,-113.6162C772.1122,-103.8685 663.2883,-87.7464 590.7502,-77"/>
<polygon fill="#191970" stroke="#191970" points="591.1688,-73.5239 580.7639,-75.5206 590.1429,-80.4484 591.1688,-73.5239"/>
</g>
<!-- Node14&#45;&gt;Node3 -->
<g id="edge20" class="edge">
<title>Node14&#45;&gt;Node3</title>
<path fill="none" stroke="#191970" d="M539.3635,-56.3733C561.4272,-47.0833 594.9649,-32.9621 619.2341,-22.7435"/>
<polygon fill="#191970" stroke="#191970" points="620.8252,-25.8713 628.6834,-18.7649 618.1088,-19.4198 620.8252,-25.8713"/>
</g>
<!-- Node14&#45;&gt;Node5 -->
<g id="edge21" class="edge">
<title>Node14&#45;&gt;Node5</title>
<path fill="none" stroke="#191970" d="M583.553,-57.9766C665.4073,-48.182 804.1303,-31.5827 895.0285,-20.706"/>
<polygon fill="#191970" stroke="#191970" points="895.5306,-24.171 905.0439,-19.5076 894.6989,-17.2205 895.5306,-24.171"/>
</g>
<!-- Node14&#45;&gt;Node7 -->
<g id="edge22" class="edge">
<title>Node14&#45;&gt;Node7</title>
<path fill="none" stroke="#191970" d="M462.3659,-56.4369C406.7322,-46.6088 320.2171,-31.3254 261.7782,-21.0018"/>
<polygon fill="#191970" stroke="#191970" points="262.0248,-17.4913 251.5684,-19.1982 260.807,-24.3845 262.0248,-17.4913"/>
</g>
<!-- Node15 -->
<g id="node16" class="node">
<title>Node15</title>
<polygon fill="#ffffff" stroke="#bfbfbf" points="421,-.5 421,-19.5 516,-19.5 516,-.5 421,-.5"/>
<text text-anchor="middle" x="468.5" y="-7.5" font-family="Helvetica,sans-Serif" font-size="10.00" fill="#000000">AMReX_Vector.H</text>
</g>
<!-- Node14&#45;&gt;Node15 -->
<g id="edge23" class="edge">
<title>Node14&#45;&gt;Node15</title>
<path fill="none" stroke="#191970" d="M508.139,-56.2455C501.325,-48.2958 491.5319,-36.8706 483.3848,-27.3656"/>
<polygon fill="#191970" stroke="#191970" points="485.9305,-24.9575 476.7651,-19.6427 480.6157,-29.513 485.9305,-24.9575"/>
</g>
<!-- Node16&#45;&gt;Node3 -->
<g id="edge25" class="edge">
<title>Node16&#45;&gt;Node3</title>
<path fill="none" stroke="#191970" d="M1346.6764,-112.4394C1344.8359,-97.5976 1338.967,-69.3367 1320.5,-56 1294.228,-37.0267 808.7949,-16.3628 680.4237,-11.2128"/>
<polygon fill="#191970" stroke="#191970" points="680.2609,-7.7036 670.1294,-10.8024 679.982,-14.698 680.2609,-7.7036"/>
</g>
<!-- Node16&#45;&gt;Node5 -->
<g id="edge26" class="edge">
<title>Node16&#45;&gt;Node5</title>
<path fill="none" stroke="#191970" d="M1352.6152,-112.1131C1359.1923,-97.8588 1368.2314,-71.5443 1354.5,-56 1336.3292,-35.4303 1179.8353,-21.9256 1076.2744,-15.153"/>
<polygon fill="#191970" stroke="#191970" points="1076.3162,-11.6486 1066.1119,-14.4988 1075.8664,-18.6341 1076.3162,-11.6486"/>
</g>
<!-- Node16&#45;&gt;Node17 -->
<g id="edge27" class="edge">
<title>Node16&#45;&gt;Node17</title>
<path fill="none" stroke="#191970" d="M1366.9254,-112.3733C1384.9021,-103.4644 1411.8441,-90.1127 1432.209,-80.0203"/>
<polygon fill="#191970" stroke="#191970" points="1433.9222,-83.0776 1441.3281,-75.5011 1430.8139,-76.8055 1433.9222,-83.0776"/>
</g>
<!-- Node18&#45;&gt;Node3 -->
<g id="edge29" class="edge">
<title>Node18&#45;&gt;Node3</title>
<path fill="none" stroke="#191970" d="M536.0312,-112.3808C552.0783,-103.9785 574.9438,-90.8283 592.5,-76 609.3889,-61.7354 625.5554,-42.2716 636.3292,-28.1802"/>
<polygon fill="#191970" stroke="#191970" points="639.4047,-29.9112 642.5838,-19.8046 633.796,-25.7228 639.4047,-29.9112"/>
</g>
<!-- Node18&#45;&gt;Node5 -->
<g id="edge30" class="edge">
<title>Node18&#45;&gt;Node5</title>
<path fill="none" stroke="#191970" d="M546.1431,-112.4663C589.4185,-98.7665 672.5738,-73.2643 744.5,-56 802.0783,-42.1796 868.2121,-29.7557 916.4575,-21.3136"/>
<polygon fill="#191970" stroke="#191970" points="917.2184,-24.734 926.4715,-19.5735 916.0199,-17.8373 917.2184,-24.734"/>
</g>
<!-- Node18&#45;&gt;Node7 -->
<g id="edge32" class="edge">
<title>Node18&#45;&gt;Node7</title>
<path fill="none" stroke="#191970" d="M443.2957,-119.5496C366.0359,-115.4627 251.015,-104.6231 218.5,-76 205.5198,-64.5735 201.1488,-44.9109 199.7983,-30.0115"/>
<polygon fill="#191970" stroke="#191970" points="203.2798,-29.565 199.2618,-19.7617 196.2894,-29.931 203.2798,-29.565"/>
</g>
<!-- Node18&#45;&gt;Node14 -->
<g id="edge31" class="edge">
<title>Node18&#45;&gt;Node14</title>
<path fill="none" stroke="#191970" d="M516.5,-112.2455C516.5,-104.9382 516.5,-94.6944 516.5,-85.7046"/>
<polygon fill="#191970" stroke="#191970" points="520.0001,-85.6426 516.5,-75.6427 513.0001,-85.6427 520.0001,-85.6426"/>
</g>
<!-- Node18&#45;&gt;Node15 -->
<g id="edge33" class="edge">
<title>Node18&#45;&gt;Node15</title>
<path fill="none" stroke="#191970" d="M486.9315,-112.3976C470.0892,-105.2338 450.4206,-93.6009 440.5,-76 431.5923,-60.1962 441.9036,-40.9943 452.4371,-27.3863"/>
<polygon fill="#191970" stroke="#191970" points="455.1216,-29.6321 458.8546,-19.7167 449.753,-25.14 455.1216,-29.6321"/>
</g>
<!-- Node19 -->
<g id="node20" class="node">
<title>Node19</title>
<polygon fill="#ffffff" stroke="#bfbfbf" points="227.5,-56.5 227.5,-75.5 355.5,-75.5 355.5,-56.5 227.5,-56.5"/>
<text text-anchor="middle" x="291.5" y="-63.5" font-family="Helvetica,sans-Serif" font-size="10.00" fill="#000000">AMReX_PhysBCFunct.H</text>
</g>
<!-- Node18&#45;&gt;Node19 -->
<g id="edge34" class="edge">
<title>Node18&#45;&gt;Node19</title>
<path fill="none" stroke="#191970" d="M478.0768,-112.4369C439.8125,-102.9133 380.9663,-88.2672 339.6151,-77.9753"/>
<polygon fill="#191970" stroke="#191970" points="340.3141,-74.5426 329.7647,-75.5237 338.6234,-81.3353 340.3141,-74.5426"/>
</g>
<!-- Node22 -->
<g id="node23" class="node">
<title>Node22</title>
<polygon fill="#ffffff" stroke="#bfbfbf" points="1703,-112.5 1703,-131.5 1796,-131.5 1796,-112.5 1703,-112.5"/>
<text text-anchor="middle" x="1749.5" y="-119.5" font-family="Helvetica,sans-Serif" font-size="10.00" fill="#000000">AMReX_REAL.H</text>
</g>
<!-- Node21&#45;&gt;Node22 -->
<g id="edge39" class="edge">
<title>Node21&#45;&gt;Node22</title>
<path fill="none" stroke="#191970" d="M1756.9323,-168.2455C1755.7579,-160.9382 1754.1116,-150.6944 1752.6668,-141.7046"/>
<polygon fill="#191970" stroke="#191970" points="1756.0922,-140.9606 1751.0497,-131.6427 1749.1809,-142.0714 1756.0922,-140.9606"/>
</g>
<!-- Node23 -->
<g id="node24" class="node">
<title>Node23</title>
<polygon fill="#ffffff" stroke="#bfbfbf" points="1814.5,-112.5 1814.5,-131.5 1898.5,-131.5 1898.5,-112.5 1814.5,-112.5"/>
<text text-anchor="middle" x="1856.5" y="-119.5" font-family="Helvetica,sans-Serif" font-size="10.00" fill="#000000">AMReX_Box.H</text>
</g>
<!-- Node21&#45;&gt;Node23 -->
<g id="edge40" class="edge">
<title>Node21&#45;&gt;Node23</title>
<path fill="none" stroke="#191970" d="M1775.5703,-168.2455C1790.747,-159.5731 1813.1621,-146.7645 1830.5563,-136.825"/>
<polygon fill="#191970" stroke="#191970" points="1832.6794,-139.643 1839.6253,-131.6427 1829.2064,-133.5653 1832.6794,-139.643"/>
</g>
<!-- Node24 -->
<g id="node25" class="node">
<title>Node24</title>
<polygon fill="#ffffff" stroke="#bfbfbf" points="1570.5,-112.5 1570.5,-131.5 1684.5,-131.5 1684.5,-112.5 1570.5,-112.5"/>
<text text-anchor="middle" x="1627.5" y="-119.5" font-family="Helvetica,sans-Serif" font-size="10.00" fill="#000000">AMReX_Orientation.H</text>
</g>
<!-- Node21&#45;&gt;Node24 -->
<g id="edge41" class="edge">
<title>Node21&#45;&gt;Node24</title>
<path fill="none" stroke="#191970" d="M1735.9803,-168.3733C1714.7628,-159.3032 1682.7724,-145.6279 1659.0231,-135.4755"/>
<polygon fill="#191970" stroke="#191970" points="1660.2967,-132.2136 1649.7258,-131.5011 1657.5452,-138.6502 1660.2967,-132.2136"/>
</g>
<!-- Node21&#45;&gt;Node25 -->
<g id="edge42" class="edge">
<title>Node21&#45;&gt;Node25</title>
<path fill="none" stroke="#191970" d="M1795.116,-168.3733C1831.148,-158.9001 1886.2878,-144.4032 1925.3114,-134.1435"/>
<polygon fill="#191970" stroke="#191970" points="1926.5804,-137.4289 1935.3618,-131.5011 1924.8005,-130.6589 1926.5804,-137.4289"/>
</g>
</g>
</svg>
