<?xml version="1.0" encoding="UTF-8" standalone="no"?>
<!DOCTYPE svg PUBLIC "-//W3C//DTD SVG 1.1//EN"
 "http://www.w3.org/Graphics/SVG/1.1/DTD/svg11.dtd">
<!-- Generated by graphviz version 2.40.1 (20161225.0304)
 -->
<!-- Title: icns_advection.cpp Pages: 1 -->
<svg width="2229pt" height="620pt"
 viewBox="0.00 0.00 2229.43 620.00" xmlns="http://www.w3.org/2000/svg" xmlns:xlink="http://www.w3.org/1999/xlink">
<g id="graph0" class="graph" transform="scale(1 1) rotate(0) translate(4 616)">
<title>icns_advection.cpp</title>
<polygon fill="#ffffff" stroke="transparent" points="-4,4 -4,-616 2225.4261,-616 2225.4261,4 -4,4"/>
<!-- Node0 -->
<g id="node1" class="node">
<title>Node0</title>
<polygon fill="#bfbfbf" stroke="#000000" points="1683.7673,-592.5 1683.7673,-611.5 1784.7673,-611.5 1784.7673,-592.5 1683.7673,-592.5"/>
<text text-anchor="middle" x="1734.2673" y="-599.5" font-family="Helvetica,sans-Serif" font-size="10.00" fill="#000000">icns_advection.cpp</text>
</g>
<!-- Node1 -->
<g id="node2" class="node">
<title>Node1</title>
<g id="a_node2"><a xlink:href="icns__advection_8_h.html" target="_top" xlink:title="amr&#45;wind/equation_systems\l/icns/icns_advection.H">
<polygon fill="#ffffff" stroke="#000000" points="957.7673,-525.5 957.7673,-555.5 1096.7673,-555.5 1096.7673,-525.5 957.7673,-525.5"/>
<text text-anchor="start" x="965.7673" y="-543.5" font-family="Helvetica,sans-Serif" font-size="10.00" fill="#000000">amr&#45;wind/equation_systems</text>
<text text-anchor="middle" x="1027.2673" y="-532.5" font-family="Helvetica,sans-Serif" font-size="10.00" fill="#000000">/icns/icns_advection.H</text>
</a>
</g>
</g>
<!-- Node0&#45;&gt;Node1 -->
<g id="edge1" class="edge">
<title>Node0&#45;&gt;Node1</title>
<path fill="none" stroke="#191970" d="M1683.7053,-597.6018C1562.4107,-587.0507 1254.1172,-560.2331 1107.3224,-547.4638"/>
<polygon fill="#191970" stroke="#191970" points="1107.3028,-543.9489 1097.0371,-546.5691 1106.6961,-550.9226 1107.3028,-543.9489"/>
</g>
<!-- Node59 -->
<g id="node44" class="node">
<title>Node59</title>
<g id="a_node44"><a xlink:href="_m_l_m_g_options_8_h.html" target="_top" xlink:title="amr&#45;wind/core/MLMGOptions.H">
<polygon fill="#ffffff" stroke="#000000" points="1872.7673,-263 1872.7673,-282 2027.7673,-282 2027.7673,-263 1872.7673,-263"/>
<text text-anchor="middle" x="1950.2673" y="-270" font-family="Helvetica,sans-Serif" font-size="10.00" fill="#000000">amr&#45;wind/core/MLMGOptions.H</text>
</a>
</g>
</g>
<!-- Node0&#45;&gt;Node59 -->
<g id="edge123" class="edge">
<title>Node0&#45;&gt;Node59</title>
<path fill="none" stroke="#191970" d="M1744.4176,-592.42C1764.476,-572.3973 1807.2673,-523.7889 1807.2673,-473.5 1807.2673,-473.5 1807.2673,-473.5 1807.2673,-406.5 1807.2673,-346.718 1874.6353,-305.8732 1916.8924,-286.1333"/>
<polygon fill="#191970" stroke="#191970" points="1918.3351,-289.3222 1926.0093,-282.0176 1915.4549,-282.9422 1918.3351,-289.3222"/>
</g>
<!-- Node65 -->
<g id="node48" class="node">
<title>Node65</title>
<polygon fill="#ffffff" stroke="#bfbfbf" points="1347.7673,-464 1347.7673,-483 1472.7673,-483 1472.7673,-464 1347.7673,-464"/>
<text text-anchor="middle" x="1410.2673" y="-471" font-family="Helvetica,sans-Serif" font-size="10.00" fill="#000000">AMReX_MacProjector.H</text>
</g>
<!-- Node0&#45;&gt;Node65 -->
<g id="edge127" class="edge">
<title>Node0&#45;&gt;Node65</title>
<path fill="none" stroke="#191970" d="M1710.1793,-592.4466C1653.1259,-569.8189 1509.625,-512.9058 1443.9849,-486.8726"/>
<polygon fill="#191970" stroke="#191970" points="1445.0998,-483.5496 1434.5138,-483.1163 1442.5191,-490.0565 1445.0998,-483.5496"/>
</g>
<!-- Node66 -->
<g id="node49" class="node">
<title>Node66</title>
<g id="a_node49"><a xlink:href="console__io_8_h.html" target="_top" xlink:title="amr&#45;wind/utilities\l/console_io.H">
<polygon fill="#ffffff" stroke="#000000" points="1689.2673,-324.5 1689.2673,-354.5 1779.2673,-354.5 1779.2673,-324.5 1689.2673,-324.5"/>
<text text-anchor="start" x="1697.2673" y="-342.5" font-family="Helvetica,sans-Serif" font-size="10.00" fill="#000000">amr&#45;wind/utilities</text>
<text text-anchor="middle" x="1734.2673" y="-331.5" font-family="Helvetica,sans-Serif" font-size="10.00" fill="#000000">/console_io.H</text>
</a>
</g>
</g>
<!-- Node0&#45;&gt;Node66 -->
<g id="edge124" class="edge">
<title>Node0&#45;&gt;Node66</title>
<path fill="none" stroke="#191970" d="M1734.2673,-592.3462C1734.2673,-555.3184 1734.2673,-421.6255 1734.2673,-365.0599"/>
<polygon fill="#191970" stroke="#191970" points="1737.7674,-364.8267 1734.2673,-354.8267 1730.7674,-364.8267 1737.7674,-364.8267"/>
</g>
<!-- Node67 -->
<g id="node50" class="node">
<title>Node67</title>
<polygon fill="#ffffff" stroke="#bfbfbf" points="1835.7673,-531 1835.7673,-550 1954.7673,-550 1954.7673,-531 1835.7673,-531"/>
<text text-anchor="middle" x="1895.2673" y="-538" font-family="Helvetica,sans-Serif" font-size="10.00" fill="#000000">AMReX_MultiFabUtil.H</text>
</g>
<!-- Node0&#45;&gt;Node67 -->
<g id="edge128" class="edge">
<title>Node0&#45;&gt;Node67</title>
<path fill="none" stroke="#191970" d="M1759.4236,-592.3906C1786.7163,-581.9652 1830.4593,-565.2559 1860.907,-553.6252"/>
<polygon fill="#191970" stroke="#191970" points="1862.195,-556.8799 1870.2877,-550.0419 1859.6971,-550.3408 1862.195,-556.8799"/>
</g>
<!-- Node2 -->
<g id="node3" class="node">
<title>Node2</title>
<g id="a_node3"><a xlink:href="_adv_op___godunov_8_h.html" target="_top" xlink:title="amr&#45;wind/equation_systems\l/AdvOp_Godunov.H">
<polygon fill="#ffffff" stroke="#000000" points="521.7673,-324.5 521.7673,-354.5 660.7673,-354.5 660.7673,-324.5 521.7673,-324.5"/>
<text text-anchor="start" x="529.7673" y="-342.5" font-family="Helvetica,sans-Serif" font-size="10.00" fill="#000000">amr&#45;wind/equation_systems</text>
<text text-anchor="middle" x="591.2673" y="-331.5" font-family="Helvetica,sans-Serif" font-size="10.00" fill="#000000">/AdvOp_Godunov.H</text>
</a>
</g>
</g>
<!-- Node1&#45;&gt;Node2 -->
<g id="edge2" class="edge">
<title>Node1&#45;&gt;Node2</title>
<path fill="none" stroke="#191970" d="M994.4964,-525.3923C916.4245,-489.4005 719.5254,-398.6282 633.0691,-358.771"/>
<polygon fill="#191970" stroke="#191970" points="634.3705,-355.517 623.8237,-354.5088 631.4398,-361.874 634.3705,-355.517"/>
</g>
<!-- Node53 -->
<g id="node38" class="node">
<title>Node53</title>
<g id="a_node38"><a xlink:href="_adv_op___m_o_l_8_h.html" target="_top" xlink:title="amr&#45;wind/equation_systems\l/AdvOp_MOL.H">
<polygon fill="#ffffff" stroke="#000000" points="810.7673,-324.5 810.7673,-354.5 949.7673,-354.5 949.7673,-324.5 810.7673,-324.5"/>
<text text-anchor="start" x="818.7673" y="-342.5" font-family="Helvetica,sans-Serif" font-size="10.00" fill="#000000">amr&#45;wind/equation_systems</text>
<text text-anchor="middle" x="880.2673" y="-331.5" font-family="Helvetica,sans-Serif" font-size="10.00" fill="#000000">/AdvOp_MOL.H</text>
</a>
</g>
</g>
<!-- Node1&#45;&gt;Node53 -->
<g id="edge83" class="edge">
<title>Node1&#45;&gt;Node53</title>
<path fill="none" stroke="#191970" d="M995.6936,-525.3917C979.839,-516.5541 961.2869,-504.1478 948.2673,-489 916.0399,-451.5044 896.2727,-396.2146 886.8716,-364.4385"/>
<polygon fill="#191970" stroke="#191970" points="890.1819,-363.2831 884.0778,-354.6233 883.4493,-365.1995 890.1819,-363.2831"/>
</g>
<!-- Node55 -->
<g id="node40" class="node">
<title>Node55</title>
<g id="a_node40"><a xlink:href="icns_8_h.html" target="_top" xlink:title="amr&#45;wind/equation_systems\l/icns/icns.H">
<polygon fill="#ffffff" stroke="#000000" points="957.7673,-458.5 957.7673,-488.5 1096.7673,-488.5 1096.7673,-458.5 957.7673,-458.5"/>
<text text-anchor="start" x="965.7673" y="-476.5" font-family="Helvetica,sans-Serif" font-size="10.00" fill="#000000">amr&#45;wind/equation_systems</text>
<text text-anchor="middle" x="1027.2673" y="-465.5" font-family="Helvetica,sans-Serif" font-size="10.00" fill="#000000">/icns/icns.H</text>
</a>
</g>
</g>
<!-- Node1&#45;&gt;Node55 -->
<g id="edge92" class="edge">
<title>Node1&#45;&gt;Node55</title>
<path fill="none" stroke="#191970" d="M1027.2673,-525.2967C1027.2673,-517.5013 1027.2673,-507.7991 1027.2673,-498.9064"/>
<polygon fill="#191970" stroke="#191970" points="1030.7674,-498.6431 1027.2673,-488.6432 1023.7674,-498.6432 1030.7674,-498.6431"/>
</g>
<!-- Node1&#45;&gt;Node65 -->
<g id="edge122" class="edge">
<title>Node1&#45;&gt;Node65</title>
<path fill="none" stroke="#191970" d="M1097.0701,-528.2891C1168.0188,-515.8777 1277.0211,-496.8094 1345.9331,-484.7543"/>
<polygon fill="#191970" stroke="#191970" points="1346.553,-488.1991 1355.8003,-483.0282 1345.3467,-481.3038 1346.553,-488.1991"/>
</g>
<!-- Node3 -->
<g id="node4" class="node">
<title>Node3</title>
<polygon fill="#ffffff" stroke="#bfbfbf" points="540.2673,-263 540.2673,-282 602.2673,-282 602.2673,-263 540.2673,-263"/>
<text text-anchor="middle" x="571.2673" y="-270" font-family="Helvetica,sans-Serif" font-size="10.00" fill="#000000">type_traits</text>
</g>
<!-- Node2&#45;&gt;Node3 -->
<g id="edge3" class="edge">
<title>Node2&#45;&gt;Node3</title>
<path fill="none" stroke="#191970" d="M586.729,-324.2967C583.8549,-314.6685 580.1126,-302.1318 577.0296,-291.8038"/>
<polygon fill="#191970" stroke="#191970" points="580.3337,-290.636 574.1195,-282.055 573.6262,-292.6383 580.3337,-290.636"/>
</g>
<!-- Node4 -->
<g id="node5" class="node">
<title>Node4</title>
<g id="a_node5"><a xlink:href="_godunov_8_h.html" target="_top" xlink:title="amr&#45;wind/convection\l/Godunov.H">
<polygon fill="#ffffff" stroke="#000000" points="435.7673,-190.5 435.7673,-220.5 542.7673,-220.5 542.7673,-190.5 435.7673,-190.5"/>
<text text-anchor="start" x="443.7673" y="-208.5" font-family="Helvetica,sans-Serif" font-size="10.00" fill="#000000">amr&#45;wind/convection</text>
<text text-anchor="middle" x="489.2673" y="-197.5" font-family="Helvetica,sans-Serif" font-size="10.00" fill="#000000">/Godunov.H</text>
</a>
</g>
</g>
<!-- Node2&#45;&gt;Node4 -->
<g id="edge4" class="edge">
<title>Node2&#45;&gt;Node4</title>
<path fill="none" stroke="#191970" d="M545.025,-324.406C527.5817,-316.3568 509.3051,-304.5975 498.2673,-288 487.1013,-271.2096 485.4541,-248.1206 486.2553,-230.638"/>
<polygon fill="#191970" stroke="#191970" points="489.7516,-230.8167 487.0073,-220.5835 482.7711,-230.2946 489.7516,-230.8167"/>
</g>
<!-- Node15 -->
<g id="node14" class="node">
<title>Node15</title>
<polygon fill="#ffffff" stroke="#bfbfbf" points="224.7673,-.5 224.7673,-19.5 309.7673,-19.5 309.7673,-.5 224.7673,-.5"/>
<text text-anchor="middle" x="267.2673" y="-7.5" font-family="Helvetica,sans-Serif" font-size="10.00" fill="#000000">AMReX_Gpu.H</text>
</g>
<!-- Node2&#45;&gt;Node15 -->
<g id="edge81" class="edge">
<title>Node2&#45;&gt;Node15</title>
<path fill="none" stroke="#191970" d="M521.7342,-330.9978C365.5081,-310.9539 .2673,-258.433 .2673,-205.5 .2673,-205.5 .2673,-205.5 .2673,-138.5 .2673,-100.3133 -4.0095,-81.6641 24.2673,-56 85.9221,-.0421 127.3319,-33.5209 214.6819,-19.9326"/>
<polygon fill="#191970" stroke="#191970" points="215.4458,-23.3525 224.7026,-18.1988 214.2523,-16.455 215.4458,-23.3525"/>
</g>
<!-- Node24 -->
<g id="node19" class="node">
<title>Node24</title>
<g id="a_node19"><a xlink:href="_scheme_traits_8_h.html" target="_top" xlink:title="amr&#45;wind/equation_systems\l/SchemeTraits.H">
<polygon fill="#ffffff" stroke="#000000" points="1212.7673,-257.5 1212.7673,-287.5 1351.7673,-287.5 1351.7673,-257.5 1212.7673,-257.5"/>
<text text-anchor="start" x="1220.7673" y="-275.5" font-family="Helvetica,sans-Serif" font-size="10.00" fill="#000000">amr&#45;wind/equation_systems</text>
<text text-anchor="middle" x="1282.2673" y="-264.5" font-family="Helvetica,sans-Serif" font-size="10.00" fill="#000000">/SchemeTraits.H</text>
</a>
</g>
</g>
<!-- Node2&#45;&gt;Node24 -->
<g id="edge30" class="edge">
<title>Node2&#45;&gt;Node24</title>
<path fill="none" stroke="#191970" d="M660.964,-334.0694C803.3655,-322.9136 1120.5113,-297.7407 1202.5739,-287.8942"/>
<polygon fill="#191970" stroke="#191970" points="1203.0794,-291.3581 1212.5505,-286.6096 1202.1853,-284.4154 1203.0794,-291.3581"/>
</g>
<!-- Node25 -->
<g id="node20" class="node">
<title>Node25</title>
<g id="a_node20"><a xlink:href="_p_d_e_traits_8_h.html" target="_top" xlink:title="amr&#45;wind/equation_systems\l/PDETraits.H">
<polygon fill="#ffffff" stroke="#000000" points="658.7673,-257.5 658.7673,-287.5 797.7673,-287.5 797.7673,-257.5 658.7673,-257.5"/>
<text text-anchor="start" x="666.7673" y="-275.5" font-family="Helvetica,sans-Serif" font-size="10.00" fill="#000000">amr&#45;wind/equation_systems</text>
<text text-anchor="middle" x="728.2673" y="-264.5" font-family="Helvetica,sans-Serif" font-size="10.00" fill="#000000">/PDETraits.H</text>
</a>
</g>
</g>
<!-- Node2&#45;&gt;Node25 -->
<g id="edge32" class="edge">
<title>Node2&#45;&gt;Node25</title>
<path fill="none" stroke="#191970" d="M622.0128,-324.4639C641.5297,-314.9191 666.993,-302.4663 688.0998,-292.144"/>
<polygon fill="#191970" stroke="#191970" points="689.7048,-295.2552 697.1504,-287.7177 686.6295,-288.9669 689.7048,-295.2552"/>
</g>
<!-- Node32 -->
<g id="node25" class="node">
<title>Node32</title>
<g id="a_node25"><a xlink:href="_p_d_e_ops_8_h.html" target="_top" xlink:title="amr&#45;wind/equation_systems\l/PDEOps.H">
<polygon fill="#ffffff" stroke="#000000" points="1055.7673,-257.5 1055.7673,-287.5 1194.7673,-287.5 1194.7673,-257.5 1055.7673,-257.5"/>
<text text-anchor="start" x="1063.7673" y="-275.5" font-family="Helvetica,sans-Serif" font-size="10.00" fill="#000000">amr&#45;wind/equation_systems</text>
<text text-anchor="middle" x="1125.2673" y="-264.5" font-family="Helvetica,sans-Serif" font-size="10.00" fill="#000000">/PDEOps.H</text>
</a>
</g>
</g>
<!-- Node2&#45;&gt;Node32 -->
<g id="edge43" class="edge">
<title>Node2&#45;&gt;Node32</title>
<path fill="none" stroke="#191970" d="M660.8045,-330.7753C759.7585,-318.3597 940.7528,-295.6507 1045.1864,-282.5476"/>
<polygon fill="#191970" stroke="#191970" points="1045.8722,-285.9891 1055.3587,-281.2713 1045.0007,-279.0435 1045.8722,-285.9891"/>
</g>
<!-- Node52 -->
<g id="node37" class="node">
<title>Node52</title>
<polygon fill="#ffffff" stroke="#bfbfbf" points="758.2673,-196 758.2673,-215 874.2673,-215 874.2673,-196 758.2673,-196"/>
<text text-anchor="middle" x="816.2673" y="-203" font-family="Helvetica,sans-Serif" font-size="10.00" fill="#000000">AMReX_ParmParse.H</text>
</g>
<!-- Node2&#45;&gt;Node52 -->
<g id="edge82" class="edge">
<title>Node2&#45;&gt;Node52</title>
<path fill="none" stroke="#191970" d="M567.245,-324.4448C543.242,-307.552 512.4178,-279.561 531.2673,-257 538.2401,-248.6543 665.9904,-228.0625 748.0632,-215.5919"/>
<polygon fill="#191970" stroke="#191970" points="748.7188,-219.0326 758.0823,-214.0753 747.6711,-212.1114 748.7188,-219.0326"/>
</g>
<!-- Node5 -->
<g id="node6" class="node">
<title>Node5</title>
<g id="a_node6"><a xlink:href="_field_repo_8_h.html" target="_top" xlink:title="amr&#45;wind/core/FieldRepo.H">
<polygon fill="#ffffff" stroke="#000000" points="677.2673,-129 677.2673,-148 813.2673,-148 813.2673,-129 677.2673,-129"/>
<text text-anchor="middle" x="745.2673" y="-136" font-family="Helvetica,sans-Serif" font-size="10.00" fill="#000000">amr&#45;wind/core/FieldRepo.H</text>
</a>
</g>
</g>
<!-- Node4&#45;&gt;Node5 -->
<g id="edge5" class="edge">
<title>Node4&#45;&gt;Node5</title>
<path fill="none" stroke="#191970" d="M542.9333,-191.4546C589.0443,-179.3865 654.851,-162.1636 698.7583,-150.6723"/>
<polygon fill="#191970" stroke="#191970" points="699.8125,-154.0143 708.6004,-148.0964 698.0401,-147.2424 699.8125,-154.0143"/>
</g>
<!-- Node6 -->
<g id="node7" class="node">
<title>Node6</title>
<polygon fill="#ffffff" stroke="#bfbfbf" points="1398.7673,-.5 1398.7673,-19.5 1439.7673,-19.5 1439.7673,-.5 1398.7673,-.5"/>
<text text-anchor="middle" x="1419.2673" y="-7.5" font-family="Helvetica,sans-Serif" font-size="10.00" fill="#000000">string</text>
</g>
<!-- Node5&#45;&gt;Node6 -->
<g id="edge6" class="edge">
<title>Node5&#45;&gt;Node6</title>
<path fill="none" stroke="#191970" d="M813.5632,-129.3808C874.3151,-120.634 965.3438,-105.9658 1043.2673,-87 1087.6543,-76.1967 1096.7358,-66.191 1141.2673,-56 1247.1799,-31.762 1279.7604,-45.509 1388.7682,-20.0177"/>
<polygon fill="#191970" stroke="#191970" points="1389.5885,-23.4203 1398.498,-17.687 1387.9577,-16.6129 1389.5885,-23.4203"/>
</g>
<!-- Node7 -->
<g id="node8" class="node">
<title>Node7</title>
<polygon fill="#ffffff" stroke="#bfbfbf" points="1297.7673,-.5 1297.7673,-19.5 1380.7673,-19.5 1380.7673,-.5 1297.7673,-.5"/>
<text text-anchor="middle" x="1339.2673" y="-7.5" font-family="Helvetica,sans-Serif" font-size="10.00" fill="#000000">unordered_map</text>
</g>
<!-- Node5&#45;&gt;Node7 -->
<g id="edge7" class="edge">
<title>Node5&#45;&gt;Node7</title>
<path fill="none" stroke="#191970" d="M802.3424,-128.9486C851.9779,-120.0404 925.5717,-105.378 988.2673,-87 1025.6559,-76.0403 1032.6696,-66.2196 1070.2673,-56 1144.5746,-35.8021 1232.953,-22.7096 1287.5863,-15.8414"/>
<polygon fill="#191970" stroke="#191970" points="1288.2204,-19.2898 1297.7162,-14.5908 1287.3627,-12.3426 1288.2204,-19.2898"/>
</g>
<!-- Node8 -->
<g id="node9" class="node">
<title>Node8</title>
<g id="a_node9"><a xlink:href="_field_desc_types_8_h.html" target="_top" xlink:title="amr&#45;wind/core/FieldDescTypes.H">
<polygon fill="#ffffff" stroke="#000000" points="756.7673,-.5 756.7673,-19.5 919.7673,-19.5 919.7673,-.5 756.7673,-.5"/>
<text text-anchor="middle" x="838.2673" y="-7.5" font-family="Helvetica,sans-Serif" font-size="10.00" fill="#000000">amr&#45;wind/core/FieldDescTypes.H</text>
</a>
</g>
</g>
<!-- Node5&#45;&gt;Node8 -->
<g id="edge8" class="edge">
<title>Node5&#45;&gt;Node8</title>
<path fill="none" stroke="#191970" d="M726.8429,-128.8158C700.3498,-113.6231 656.8126,-83.1175 677.2673,-56 688.6366,-40.9273 729.9176,-29.3076 767.8293,-21.5172"/>
<polygon fill="#191970" stroke="#191970" points="768.7611,-24.9007 777.8884,-19.5208 767.3983,-18.0346 768.7611,-24.9007"/>
</g>
<!-- Node9 -->
<g id="node10" class="node">
<title>Node9</title>
<g id="a_node10"><a xlink:href="_field_utils_8_h.html" target="_top" xlink:title="amr&#45;wind/core/FieldUtils.H">
<polygon fill="#ffffff" stroke="#000000" points="180.7673,-62 180.7673,-81 313.7673,-81 313.7673,-62 180.7673,-62"/>
<text text-anchor="middle" x="247.2673" y="-69" font-family="Helvetica,sans-Serif" font-size="10.00" fill="#000000">amr&#45;wind/core/FieldUtils.H</text>
</a>
</g>
</g>
<!-- Node5&#45;&gt;Node9 -->
<g id="edge9" class="edge">
<title>Node5&#45;&gt;Node9</title>
<path fill="none" stroke="#191970" d="M698.1121,-128.9204C686.7329,-126.7933 674.5897,-124.6757 663.2673,-123 515.1348,-101.076 476.375,-109.0908 328.2673,-87 320.2132,-85.7987 311.7398,-84.3661 303.431,-82.8643"/>
<polygon fill="#191970" stroke="#191970" points="303.8871,-79.3894 293.4168,-81.009 302.6119,-86.2722 303.8871,-79.3894"/>
</g>
<!-- Node10 -->
<g id="node11" class="node">
<title>Node10</title>
<polygon fill="#ffffff" stroke="#bfbfbf" points="328.2673,-.5 328.2673,-19.5 432.2673,-19.5 432.2673,-.5 328.2673,-.5"/>
<text text-anchor="middle" x="380.2673" y="-7.5" font-family="Helvetica,sans-Serif" font-size="10.00" fill="#000000">AMReX_MultiFab.H</text>
</g>
<!-- Node5&#45;&gt;Node10 -->
<g id="edge28" class="edge">
<title>Node5&#45;&gt;Node10</title>
<path fill="none" stroke="#191970" d="M696.7734,-128.9287C685.7747,-126.8707 674.1333,-124.7811 663.2673,-123 605.9236,-113.6008 448.5846,-124.5848 404.2673,-87 387.6318,-72.8917 382.3552,-47.4419 380.7733,-29.6773"/>
<polygon fill="#191970" stroke="#191970" points="384.2591,-29.3273 380.1911,-19.5446 377.2706,-29.7289 384.2591,-29.3273"/>
</g>
<!-- Node12 -->
<g id="node13" class="node">
<title>Node12</title>
<g id="a_node13"><a xlink:href="_field_8_h.html" target="_top" xlink:title="amr&#45;wind/core/Field.H">
<polygon fill="#ffffff" stroke="#ff0000" points="866.7673,-62 866.7673,-81 979.7673,-81 979.7673,-62 866.7673,-62"/>
<text text-anchor="middle" x="923.2673" y="-69" font-family="Helvetica,sans-Serif" font-size="10.00" fill="#000000">amr&#45;wind/core/Field.H</text>
</a>
</g>
</g>
<!-- Node5&#45;&gt;Node12 -->
<g id="edge13" class="edge">
<title>Node5&#45;&gt;Node12</title>
<path fill="none" stroke="#191970" d="M770.7704,-128.9005C801.568,-117.3082 853.5323,-97.7486 888.1154,-84.7313"/>
<polygon fill="#191970" stroke="#191970" points="889.6856,-87.8801 897.8116,-81.0817 887.2196,-81.3288 889.6856,-87.8801"/>
</g>
<!-- Node19 -->
<g id="node15" class="node">
<title>Node19</title>
<g id="a_node15"><a xlink:href="_int_field_8_h.html" target="_top" xlink:title="amr&#45;wind/core/IntField.H">
<polygon fill="#ffffff" stroke="#000000" points="686.2673,-62 686.2673,-81 810.2673,-81 810.2673,-62 686.2673,-62"/>
<text text-anchor="middle" x="748.2673" y="-69" font-family="Helvetica,sans-Serif" font-size="10.00" fill="#000000">amr&#45;wind/core/IntField.H</text>
</a>
</g>
</g>
<!-- Node5&#45;&gt;Node19 -->
<g id="edge19" class="edge">
<title>Node5&#45;&gt;Node19</title>
<path fill="none" stroke="#191970" d="M745.6971,-128.9005C746.1338,-119.149 746.8228,-103.7597 747.3776,-91.3695"/>
<polygon fill="#191970" stroke="#191970" points="750.8874,-91.2282 747.8383,-81.0817 743.8944,-90.9151 750.8874,-91.2282"/>
</g>
<!-- Node20 -->
<g id="node16" class="node">
<title>Node20</title>
<polygon fill="#ffffff" stroke="#bfbfbf" points="522.7673,-.5 522.7673,-19.5 629.7673,-19.5 629.7673,-.5 522.7673,-.5"/>
<text text-anchor="middle" x="576.2673" y="-7.5" font-family="Helvetica,sans-Serif" font-size="10.00" fill="#000000">AMReX_iMultiFab.H</text>
</g>
<!-- Node5&#45;&gt;Node20 -->
<g id="edge29" class="edge">
<title>Node5&#45;&gt;Node20</title>
<path fill="none" stroke="#191970" d="M695.1653,-128.9946C617.1546,-114.1873 475.4877,-87.2664 475.2673,-87 466.4849,-76.3841 467.8125,-67.5868 475.2673,-56 485.383,-40.2774 502.3404,-29.8649 519.4997,-22.996"/>
<polygon fill="#191970" stroke="#191970" points="520.812,-26.243 529.0113,-19.5332 518.4173,-19.6653 520.812,-26.243"/>
</g>
<!-- Node21 -->
<g id="node17" class="node">
<title>Node21</title>
<g id="a_node17"><a xlink:href="_scratch_field_8_h.html" target="_top" xlink:title="amr&#45;wind/core/ScratchField.H">
<polygon fill="#ffffff" stroke="#ff0000" points="484.2673,-62 484.2673,-81 630.2673,-81 630.2673,-62 484.2673,-62"/>
<text text-anchor="middle" x="557.2673" y="-69" font-family="Helvetica,sans-Serif" font-size="10.00" fill="#000000">amr&#45;wind/core/ScratchField.H</text>
</a>
</g>
</g>
<!-- Node5&#45;&gt;Node21 -->
<g id="edge23" class="edge">
<title>Node5&#45;&gt;Node21</title>
<path fill="none" stroke="#191970" d="M718.3315,-128.9005C685.664,-117.2584 630.4485,-97.5805 593.9248,-84.5641"/>
<polygon fill="#191970" stroke="#191970" points="594.7478,-81.1418 584.1532,-81.0817 592.3979,-87.7356 594.7478,-81.1418"/>
</g>
<!-- Node23 -->
<g id="node18" class="node">
<title>Node23</title>
<polygon fill="#ffffff" stroke="#bfbfbf" points="1150.2673,-62 1150.2673,-81 1256.2673,-81 1256.2673,-62 1150.2673,-62"/>
<text text-anchor="middle" x="1203.2673" y="-69" font-family="Helvetica,sans-Serif" font-size="10.00" fill="#000000">AMReX_AmrCore.H</text>
</g>
<!-- Node5&#45;&gt;Node23 -->
<g id="edge27" class="edge">
<title>Node5&#45;&gt;Node23</title>
<path fill="none" stroke="#191970" d="M810.6572,-128.9939C881.521,-118.6841 997.926,-101.7257 1098.2673,-87 1111.8376,-85.0085 1126.3932,-82.8647 1140.214,-80.8256"/>
<polygon fill="#191970" stroke="#191970" points="1140.7414,-84.2857 1150.1231,-79.3629 1139.7192,-77.3607 1140.7414,-84.2857"/>
</g>
<!-- Node9&#45;&gt;Node8 -->
<g id="edge10" class="edge">
<title>Node9&#45;&gt;Node8</title>
<path fill="none" stroke="#191970" d="M313.9137,-64.5647C419.6587,-53.5608 626.1481,-32.0733 746.0343,-19.5979"/>
<polygon fill="#191970" stroke="#191970" points="746.7074,-23.0468 756.2914,-18.5305 745.9829,-16.0844 746.7074,-23.0468"/>
</g>
<!-- Node9&#45;&gt;Node10 -->
<g id="edge11" class="edge">
<title>Node9&#45;&gt;Node10</title>
<path fill="none" stroke="#191970" d="M268.0486,-61.8906C290.1067,-51.6908 325.1723,-35.4763 350.2342,-23.8875"/>
<polygon fill="#191970" stroke="#191970" points="352.0244,-26.9158 359.632,-19.5419 349.0864,-20.5622 352.0244,-26.9158"/>
</g>
<!-- Node11 -->
<g id="node12" class="node">
<title>Node11</title>
<polygon fill="#ffffff" stroke="#bfbfbf" points="90.2673,-.5 90.2673,-19.5 206.2673,-19.5 206.2673,-.5 90.2673,-.5"/>
<text text-anchor="middle" x="148.2673" y="-7.5" font-family="Helvetica,sans-Serif" font-size="10.00" fill="#000000">AMReX_Interpolater.H</text>
</g>
<!-- Node9&#45;&gt;Node11 -->
<g id="edge12" class="edge">
<title>Node9&#45;&gt;Node11</title>
<path fill="none" stroke="#191970" d="M231.7986,-61.8906C215.8152,-51.9616 190.657,-36.333 172.124,-24.8201"/>
<polygon fill="#191970" stroke="#191970" points="173.9688,-21.8457 163.6274,-19.5419 170.2749,-27.7918 173.9688,-21.8457"/>
</g>
<!-- Node12&#45;&gt;Node6 -->
<g id="edge14" class="edge">
<title>Node12&#45;&gt;Node6</title>
<path fill="none" stroke="#191970" d="M980.0189,-65.4073C1091.7698,-53.3898 1333.7019,-27.2658 1388.3384,-19.462"/>
<polygon fill="#191970" stroke="#191970" points="1389.2257,-22.8627 1398.5182,-17.7736 1388.0803,-15.957 1389.2257,-22.8627"/>
</g>
<!-- Node12&#45;&gt;Node7 -->
<g id="edge15" class="edge">
<title>Node12&#45;&gt;Node7</title>
<path fill="none" stroke="#191970" d="M979.8039,-63.1418C1060.9134,-51.1509 1209.136,-29.2382 1287.5098,-17.6517"/>
<polygon fill="#191970" stroke="#191970" points="1288.2508,-21.0802 1297.6314,-16.1553 1287.227,-14.1555 1288.2508,-21.0802"/>
</g>
<!-- Node12&#45;&gt;Node8 -->
<g id="edge18" class="edge">
<title>Node12&#45;&gt;Node8</title>
<path fill="none" stroke="#191970" d="M909.9861,-61.8906C896.5125,-52.1421 875.4453,-36.8994 859.6238,-25.4521"/>
<polygon fill="#191970" stroke="#191970" points="861.6087,-22.5682 851.4553,-19.5419 857.5054,-28.2394 861.6087,-22.5682"/>
</g>
<!-- Node12&#45;&gt;Node10 -->
<g id="edge16" class="edge">
<title>Node12&#45;&gt;Node10</title>
<path fill="none" stroke="#191970" d="M866.6546,-62.6053C851.2974,-60.3174 834.6607,-57.9526 819.2673,-56 685.2138,-38.9953 527.5519,-23.5919 442.4049,-15.6516"/>
<polygon fill="#191970" stroke="#191970" points="442.668,-12.161 432.387,-14.7206 442.0202,-19.131 442.668,-12.161"/>
</g>
<!-- Node12&#45;&gt;Node15 -->
<g id="edge17" class="edge">
<title>Node12&#45;&gt;Node15</title>
<path fill="none" stroke="#191970" d="M866.6944,-62.2699C851.3371,-59.9826 834.6904,-57.7021 819.2673,-56 601.0582,-31.919 541.8821,-48.5836 319.7823,-19.9063"/>
<polygon fill="#191970" stroke="#191970" points="320.1373,-16.423 309.7679,-18.597 319.2298,-23.364 320.1373,-16.423"/>
</g>
<!-- Node19&#45;&gt;Node6 -->
<g id="edge20" class="edge">
<title>Node19&#45;&gt;Node6</title>
<path fill="none" stroke="#191970" d="M809.5631,-61.9743C825.0983,-59.783 841.7741,-57.6226 857.2673,-56 1090.0607,-31.6201 1155.7083,-66.1086 1388.4099,-19.9235"/>
<polygon fill="#191970" stroke="#191970" points="1389.4295,-23.2885 1398.5416,-17.883 1388.0474,-16.4263 1389.4295,-23.2885"/>
</g>
<!-- Node19&#45;&gt;Node8 -->
<g id="edge21" class="edge">
<title>Node19&#45;&gt;Node8</title>
<path fill="none" stroke="#191970" d="M762.3298,-61.8906C776.5959,-52.1421 798.9023,-36.8994 815.6545,-25.4521"/>
<polygon fill="#191970" stroke="#191970" points="818.0218,-28.0736 824.3035,-19.5419 814.0724,-22.2941 818.0218,-28.0736"/>
</g>
<!-- Node19&#45;&gt;Node20 -->
<g id="edge22" class="edge">
<title>Node19&#45;&gt;Node20</title>
<path fill="none" stroke="#191970" d="M721.3923,-61.8906C692.1087,-51.42 645.0983,-34.6111 612.5536,-22.9745"/>
<polygon fill="#191970" stroke="#191970" points="613.5482,-19.6131 602.9536,-19.5419 611.1914,-26.2045 613.5482,-19.6131"/>
</g>
<!-- Node21&#45;&gt;Node6 -->
<g id="edge24" class="edge">
<title>Node21&#45;&gt;Node6</title>
<path fill="none" stroke="#191970" d="M623.8128,-61.9654C641.1825,-59.7344 659.9017,-57.5575 677.2673,-56 989.8965,-27.9599 1076.8972,-79.1921 1388.3251,-19.8979"/>
<polygon fill="#191970" stroke="#191970" points="1389.3935,-23.2565 1398.5503,-17.927 1388.0686,-16.383 1389.3935,-23.2565"/>
</g>
<!-- Node21&#45;&gt;Node8 -->
<g id="edge25" class="edge">
<title>Node21&#45;&gt;Node8</title>
<path fill="none" stroke="#191970" d="M600.8652,-61.9581C650.3944,-51.1181 731.248,-33.4224 784.6084,-21.7439"/>
<polygon fill="#191970" stroke="#191970" points="785.5466,-25.1214 794.5671,-19.5643 784.05,-18.2833 785.5466,-25.1214"/>
</g>
<!-- Node21&#45;&gt;Node10 -->
<g id="edge26" class="edge">
<title>Node21&#45;&gt;Node10</title>
<path fill="none" stroke="#191970" d="M529.6111,-61.8906C499.3462,-51.3749 450.6818,-34.466 417.1762,-22.8243"/>
<polygon fill="#191970" stroke="#191970" points="418.3242,-19.5179 407.7293,-19.5419 416.0266,-26.1302 418.3242,-19.5179"/>
</g>
<!-- Node24&#45;&gt;Node6 -->
<g id="edge31" class="edge">
<title>Node24&#45;&gt;Node6</title>
<path fill="none" stroke="#191970" d="M1351.9445,-268.6916C1533.6889,-257.0141 2013.431,-214.409 2090.2673,-87 2097.3825,-75.2017 2099.6706,-66.07 2090.2673,-56 2079.1853,-44.1322 1580.5117,-18.1464 1450.1703,-11.5477"/>
<polygon fill="#191970" stroke="#191970" points="1450.2337,-8.0466 1440.0699,-11.0379 1449.8808,-15.0377 1450.2337,-8.0466"/>
</g>
<!-- Node25&#45;&gt;Node6 -->
<g id="edge33" class="edge">
<title>Node25&#45;&gt;Node6</title>
<path fill="none" stroke="#191970" d="M797.9802,-258.4906C800.7773,-257.978 803.5479,-257.4791 806.2673,-257 909.8946,-238.7413 938.8037,-248.8771 1040.2673,-221 1116.9849,-199.9218 1136.0328,-191.3763 1206.2673,-154 1281.0515,-114.2025 1362.0177,-54.2706 1398.8986,-25.9301"/>
<polygon fill="#191970" stroke="#191970" points="1401.1221,-28.6352 1406.8928,-19.7498 1396.8406,-23.0972 1401.1221,-28.6352"/>
</g>
<!-- Node26 -->
<g id="node21" class="node">
<title>Node26</title>
<polygon fill="#ffffff" stroke="#bfbfbf" points="578.7673,-196 578.7673,-215 701.7673,-215 701.7673,-196 578.7673,-196"/>
<text text-anchor="middle" x="640.2673" y="-203" font-family="Helvetica,sans-Serif" font-size="10.00" fill="#000000">AMReX_MLTensorOp.H</text>
</g>
<!-- Node25&#45;&gt;Node26 -->
<g id="edge34" class="edge">
<title>Node25&#45;&gt;Node26</title>
<path fill="none" stroke="#191970" d="M708.2987,-257.2967C694.1886,-246.5537 675.3222,-232.1895 661.0365,-221.3129"/>
<polygon fill="#191970" stroke="#191970" points="662.8937,-218.328 652.8171,-215.055 658.6533,-223.8975 662.8937,-218.328"/>
</g>
<!-- Node27 -->
<g id="node22" class="node">
<title>Node27</title>
<g id="a_node22"><a xlink:href="_source_term_8_h.html" target="_top" xlink:title="amr&#45;wind/equation_systems\l/SourceTerm.H">
<polygon fill="#ffffff" stroke="#000000" points="261.7673,-190.5 261.7673,-220.5 400.7673,-220.5 400.7673,-190.5 261.7673,-190.5"/>
<text text-anchor="start" x="269.7673" y="-208.5" font-family="Helvetica,sans-Serif" font-size="10.00" fill="#000000">amr&#45;wind/equation_systems</text>
<text text-anchor="middle" x="331.2673" y="-197.5" font-family="Helvetica,sans-Serif" font-size="10.00" fill="#000000">/SourceTerm.H</text>
</a>
</g>
</g>
<!-- Node25&#45;&gt;Node27 -->
<g id="edge35" class="edge">
<title>Node25&#45;&gt;Node27</title>
<path fill="none" stroke="#191970" d="M658.6141,-259.5398C653.7607,-258.6699 648.9421,-257.8158 644.2673,-257 621.6648,-253.0556 495.8472,-232.422 410.7756,-218.4996"/>
<polygon fill="#191970" stroke="#191970" points="411.3051,-215.0398 400.8712,-216.8789 410.1747,-221.9479 411.3051,-215.0398"/>
</g>
<!-- Node27&#45;&gt;Node5 -->
<g id="edge41" class="edge">
<title>Node27&#45;&gt;Node5</title>
<path fill="none" stroke="#191970" d="M400.7894,-194.1432C409.3698,-192.7456 418.0197,-191.3386 426.2673,-190 512.3383,-176.0307 611.4902,-160.0392 676.1082,-149.631"/>
<polygon fill="#191970" stroke="#191970" points="676.8589,-153.0553 686.1752,-148.0097 675.7458,-146.1443 676.8589,-153.0553"/>
</g>
<!-- Node27&#45;&gt;Node8 -->
<g id="edge39" class="edge">
<title>Node27&#45;&gt;Node8</title>
<path fill="none" stroke="#191970" d="M292.5836,-190.3091C231.0688,-164.0842 122.6288,-108.1084 171.2673,-56 180.9596,-45.6162 566.0049,-24.2073 746.5655,-14.7124"/>
<polygon fill="#191970" stroke="#191970" points="746.7802,-18.2061 756.583,-14.1869 746.4133,-11.2157 746.7802,-18.2061"/>
</g>
<!-- Node27&#45;&gt;Node9 -->
<g id="edge40" class="edge">
<title>Node27&#45;&gt;Node9</title>
<path fill="none" stroke="#191970" d="M321.7947,-190.389C306.28,-165.6393 275.5073,-116.5495 258.7664,-89.8438"/>
<polygon fill="#191970" stroke="#191970" points="261.5647,-87.7181 253.2878,-81.1042 255.6337,-91.436 261.5647,-87.7181"/>
</g>
<!-- Node27&#45;&gt;Node10 -->
<g id="edge42" class="edge">
<title>Node27&#45;&gt;Node10</title>
<path fill="none" stroke="#191970" d="M261.6547,-199.4455C201.1858,-192.5727 120.2485,-178.9265 100.2673,-154 73.0251,-120.0155 72.0756,-89.2011 100.2673,-56 100.7103,-55.4783 235.6522,-33.484 318.0175,-20.1012"/>
<polygon fill="#191970" stroke="#191970" points="318.7263,-23.532 328.0356,-18.4738 317.6038,-16.6226 318.7263,-23.532"/>
</g>
<!-- Node28 -->
<g id="node23" class="node">
<title>Node28</title>
<g id="a_node23"><a xlink:href="_factory_8_h.html" target="_top" xlink:title="amr&#45;wind/core/Factory.H">
<polygon fill="#ffffff" stroke="#ff0000" points="1806.7673,-62 1806.7673,-81 1931.7673,-81 1931.7673,-62 1806.7673,-62"/>
<text text-anchor="middle" x="1869.2673" y="-69" font-family="Helvetica,sans-Serif" font-size="10.00" fill="#000000">amr&#45;wind/core/Factory.H</text>
</a>
</g>
</g>
<!-- Node27&#45;&gt;Node28 -->
<g id="edge36" class="edge">
<title>Node27&#45;&gt;Node28</title>
<path fill="none" stroke="#191970" d="M400.9105,-193.0395C409.43,-191.84 418.0323,-190.7813 426.2673,-190 571.3374,-176.2363 1597.7572,-196.0918 1737.2673,-154 1781.9701,-140.5127 1826.4601,-107.6503 1850.6613,-87.7103"/>
<polygon fill="#191970" stroke="#191970" points="1853.2262,-90.1261 1858.6224,-81.0084 1848.7181,-84.771 1853.2262,-90.1261"/>
</g>
<!-- Node28&#45;&gt;Node7 -->
<g id="edge37" class="edge">
<title>Node28&#45;&gt;Node7</title>
<path fill="none" stroke="#191970" d="M1806.4826,-64.8955C1690.2857,-52.6537 1448.9159,-27.1303 1391.0107,-19.8382"/>
<polygon fill="#191970" stroke="#191970" points="1391.3432,-16.3514 1380.9646,-18.4809 1390.4059,-23.2884 1391.3432,-16.3514"/>
</g>
<!-- Node29 -->
<g id="node24" class="node">
<title>Node29</title>
<polygon fill="#ffffff" stroke="#bfbfbf" points="2157.2673,-.5 2157.2673,-19.5 2211.2673,-19.5 2211.2673,-.5 2157.2673,-.5"/>
<text text-anchor="middle" x="2184.2673" y="-7.5" font-family="Helvetica,sans-Serif" font-size="10.00" fill="#000000">iostream</text>
</g>
<!-- Node28&#45;&gt;Node29 -->
<g id="edge38" class="edge">
<title>Node28&#45;&gt;Node29</title>
<path fill="none" stroke="#191970" d="M1912.6347,-61.9809C1922.0645,-59.9622 1931.9932,-57.8758 1941.2673,-56 2014.1936,-41.2502 2099.7324,-25.3919 2147.3952,-16.684"/>
<polygon fill="#191970" stroke="#191970" points="2148.0455,-20.1232 2157.2553,-14.8859 2146.7896,-13.2368 2148.0455,-20.1232"/>
</g>
<!-- Node32&#45;&gt;Node9 -->
<g id="edge44" class="edge">
<title>Node32&#45;&gt;Node9</title>
<path fill="none" stroke="#191970" d="M1114.9326,-257.4886C1100.6555,-238.1179 1072.9273,-205.1161 1040.2673,-190 889.5243,-120.2313 830.7545,-188.4821 668.2673,-154 625.6473,-144.9554 617.6006,-133.3034 575.2673,-123 490.2979,-102.3195 390.8435,-88.0635 323.914,-79.8805"/>
<polygon fill="#191970" stroke="#191970" points="324.2175,-76.3918 313.8701,-78.6683 323.3787,-83.3414 324.2175,-76.3918"/>
</g>
<!-- Node33 -->
<g id="node26" class="node">
<title>Node33</title>
<g id="a_node26"><a xlink:href="_p_d_e_helpers_8_h.html" target="_top" xlink:title="amr&#45;wind/equation_systems\l/PDEHelpers.H">
<polygon fill="#ffffff" stroke="#000000" points="1250.7673,-190.5 1250.7673,-220.5 1389.7673,-220.5 1389.7673,-190.5 1250.7673,-190.5"/>
<text text-anchor="start" x="1258.7673" y="-208.5" font-family="Helvetica,sans-Serif" font-size="10.00" fill="#000000">amr&#45;wind/equation_systems</text>
<text text-anchor="middle" x="1320.2673" y="-197.5" font-family="Helvetica,sans-Serif" font-size="10.00" fill="#000000">/PDEHelpers.H</text>
</a>
</g>
</g>
<!-- Node32&#45;&gt;Node33 -->
<g id="edge45" class="edge">
<title>Node32&#45;&gt;Node33</title>
<path fill="none" stroke="#191970" d="M1169.0291,-257.4639C1197.9065,-247.5419 1235.9301,-234.4774 1266.6266,-223.9304"/>
<polygon fill="#191970" stroke="#191970" points="1267.9946,-227.1613 1276.3146,-220.6017 1265.72,-220.5411 1267.9946,-227.1613"/>
</g>
<!-- Node45 -->
<g id="node32" class="node">
<title>Node45</title>
<g id="a_node32"><a xlink:href="_turbulence_model_8_h.html" target="_top" xlink:title="amr&#45;wind/turbulence\l/TurbulenceModel.H">
<polygon fill="#ffffff" stroke="#000000" points="1428.2673,-123.5 1428.2673,-153.5 1532.2673,-153.5 1532.2673,-123.5 1428.2673,-123.5"/>
<text text-anchor="start" x="1436.2673" y="-141.5" font-family="Helvetica,sans-Serif" font-size="10.00" fill="#000000">amr&#45;wind/turbulence</text>
<text text-anchor="middle" x="1480.2673" y="-130.5" font-family="Helvetica,sans-Serif" font-size="10.00" fill="#000000">/TurbulenceModel.H</text>
</a>
</g>
</g>
<!-- Node32&#45;&gt;Node45 -->
<g id="edge63" class="edge">
<title>Node32&#45;&gt;Node45</title>
<path fill="none" stroke="#191970" d="M1194.9986,-258.591C1197.7907,-258.0506 1200.5551,-257.5185 1203.2673,-257 1290.26,-240.3683 1321.042,-262.5348 1399.2673,-221 1425.8639,-206.8782 1449.1056,-180.975 1463.7904,-161.9487"/>
<polygon fill="#191970" stroke="#191970" points="1466.73,-163.8621 1469.9167,-153.7578 1461.1245,-159.6695 1466.73,-163.8621"/>
</g>
<!-- Node46 -->
<g id="node33" class="node">
<title>Node46</title>
<g id="a_node33"><a xlink:href="_i_o_manager_8_h.html" target="_top" xlink:title="amr&#45;wind/utilities\l/IOManager.H">
<polygon fill="#ffffff" stroke="#ff0000" points="1622.2673,-56.5 1622.2673,-86.5 1712.2673,-86.5 1712.2673,-56.5 1622.2673,-56.5"/>
<text text-anchor="start" x="1630.2673" y="-74.5" font-family="Helvetica,sans-Serif" font-size="10.00" fill="#000000">amr&#45;wind/utilities</text>
<text text-anchor="middle" x="1667.2673" y="-63.5" font-family="Helvetica,sans-Serif" font-size="10.00" fill="#000000">/IOManager.H</text>
</a>
</g>
</g>
<!-- Node32&#45;&gt;Node46 -->
<g id="edge67" class="edge">
<title>Node32&#45;&gt;Node46</title>
<path fill="none" stroke="#191970" d="M1194.9822,-258.502C1197.7788,-257.9863 1200.5487,-257.4836 1203.2673,-257 1304.7026,-238.9559 1335.6114,-256.67 1432.2673,-221 1485.6151,-201.3125 1494.7032,-186.6399 1541.2673,-154 1559.3986,-141.2906 1562.0308,-135.5579 1580.2673,-123 1596.3396,-111.9324 1614.861,-100.7644 1630.6727,-91.6708"/>
<polygon fill="#191970" stroke="#191970" points="1632.6705,-94.561 1639.6303,-86.5728 1629.208,-88.4773 1632.6705,-94.561"/>
</g>
<!-- Node48 -->
<g id="node35" class="node">
<title>Node48</title>
<g id="a_node35"><a xlink:href="_c_f_d_sim_8_h.html" target="_top" xlink:title="amr&#45;wind/CFDSim.H">
<polygon fill="#ffffff" stroke="#ff0000" points="1522.2673,-196 1522.2673,-215 1630.2673,-215 1630.2673,-196 1522.2673,-196"/>
<text text-anchor="middle" x="1576.2673" y="-203" font-family="Helvetica,sans-Serif" font-size="10.00" fill="#000000">amr&#45;wind/CFDSim.H</text>
</a>
</g>
</g>
<!-- Node32&#45;&gt;Node48 -->
<g id="edge71" class="edge">
<title>Node32&#45;&gt;Node48</title>
<path fill="none" stroke="#191970" d="M1194.9598,-258.3686C1197.7626,-257.8898 1200.5399,-257.4313 1203.2673,-257 1338.0888,-235.6814 1373.7569,-244.2005 1508.2673,-221 1514.5317,-219.9195 1521.0866,-218.6303 1527.5494,-217.2634"/>
<polygon fill="#191970" stroke="#191970" points="1528.5533,-220.6267 1537.5743,-215.0704 1527.0574,-213.7884 1528.5533,-220.6267"/>
</g>
<!-- Node32&#45;&gt;Node52 -->
<g id="edge80" class="edge">
<title>Node32&#45;&gt;Node52</title>
<path fill="none" stroke="#191970" d="M1055.5653,-258.007C1007.1751,-247.862 941.2401,-233.8733 883.2673,-221 877.9496,-219.8192 872.3992,-218.5669 866.868,-217.3062"/>
<polygon fill="#191970" stroke="#191970" points="867.5162,-213.864 856.9869,-215.0413 865.9522,-220.6871 867.5162,-213.864"/>
</g>
<!-- Node33&#45;&gt;Node5 -->
<g id="edge50" class="edge">
<title>Node33&#45;&gt;Node5</title>
<path fill="none" stroke="#191970" d="M1250.5693,-197.5966C1162.6163,-187.594 1006.7013,-169.7655 873.2673,-154 857.1593,-152.0968 839.915,-150.0292 823.4682,-148.0427"/>
<polygon fill="#191970" stroke="#191970" points="823.696,-144.5448 813.3481,-146.8185 822.8553,-151.4942 823.696,-144.5448"/>
</g>
<!-- Node33&#45;&gt;Node6 -->
<g id="edge46" class="edge">
<title>Node33&#45;&gt;Node6</title>
<path fill="none" stroke="#191970" d="M1327.8713,-190.4841C1345.6604,-155.3551 1389.9664,-67.8618 1409.618,-29.0549"/>
<polygon fill="#191970" stroke="#191970" points="1412.8639,-30.3924 1414.2592,-19.8898 1406.6189,-27.23 1412.8639,-30.3924"/>
</g>
<!-- Node34 -->
<g id="node27" class="node">
<title>Node34</title>
<g id="a_node27"><a xlink:href="_p_d_e_fields_8_h.html" target="_top" xlink:title="amr&#45;wind/equation_systems\l/PDEFields.H">
<polygon fill="#ffffff" stroke="#ff0000" points="1426.7673,-56.5 1426.7673,-86.5 1565.7673,-86.5 1565.7673,-56.5 1426.7673,-56.5"/>
<text text-anchor="start" x="1434.7673" y="-74.5" font-family="Helvetica,sans-Serif" font-size="10.00" fill="#000000">amr&#45;wind/equation_systems</text>
<text text-anchor="middle" x="1496.2673" y="-63.5" font-family="Helvetica,sans-Serif" font-size="10.00" fill="#000000">/PDEFields.H</text>
</a>
</g>
</g>
<!-- Node33&#45;&gt;Node34 -->
<g id="edge47" class="edge">
<title>Node33&#45;&gt;Node34</title>
<path fill="none" stroke="#191970" d="M1337.3438,-190.3268C1356.7281,-173.3282 1389.525,-145.2425 1419.2673,-123 1433.4245,-112.4127 1449.6204,-101.4223 1463.4941,-92.3271"/>
<polygon fill="#191970" stroke="#191970" points="1465.7547,-95.0321 1472.231,-86.6471 1461.9393,-89.1633 1465.7547,-95.0321"/>
</g>
<!-- Node36 -->
<g id="node28" class="node">
<title>Node36</title>
<g id="a_node28"><a xlink:href="_sim_time_8_h.html" target="_top" xlink:title="amr&#45;wind/core/SimTime.H">
<polygon fill="#ffffff" stroke="#ff0000" points="1949.7673,-62 1949.7673,-81 2080.7673,-81 2080.7673,-62 1949.7673,-62"/>
<text text-anchor="middle" x="2015.2673" y="-69" font-family="Helvetica,sans-Serif" font-size="10.00" fill="#000000">amr&#45;wind/core/SimTime.H</text>
</a>
</g>
</g>
<!-- Node33&#45;&gt;Node36 -->
<g id="edge48" class="edge">
<title>Node33&#45;&gt;Node36</title>
<path fill="none" stroke="#191970" d="M1389.934,-199.6741C1531.8253,-187.704 1842.8848,-160.8877 1865.2673,-154 1890.952,-146.0961 1955.2004,-108.1907 1990.7124,-86.6144"/>
<polygon fill="#191970" stroke="#191970" points="1992.7831,-89.451 1999.4962,-81.2543 1989.1368,-83.4757 1992.7831,-89.451"/>
</g>
<!-- Node40 -->
<g id="node30" class="node">
<title>Node40</title>
<g id="a_node30"><a xlink:href="_field_fill_patch_ops_8_h.html" target="_top" xlink:title="amr&#45;wind/core/FieldFillPatch\lOps.H">
<polygon fill="#ffffff" stroke="#ff0000" points="1057.2673,-123.5 1057.2673,-153.5 1197.2673,-153.5 1197.2673,-123.5 1057.2673,-123.5"/>
<text text-anchor="start" x="1065.2673" y="-141.5" font-family="Helvetica,sans-Serif" font-size="10.00" fill="#000000">amr&#45;wind/core/FieldFillPatch</text>
<text text-anchor="middle" x="1127.2673" y="-130.5" font-family="Helvetica,sans-Serif" font-size="10.00" fill="#000000">Ops.H</text>
</a>
</g>
</g>
<!-- Node33&#45;&gt;Node40 -->
<g id="edge51" class="edge">
<title>Node33&#45;&gt;Node40</title>
<path fill="none" stroke="#191970" d="M1276.9543,-190.4639C1248.3731,-180.5419 1210.7395,-167.4774 1180.3579,-156.9304"/>
<polygon fill="#191970" stroke="#191970" points="1181.364,-153.5748 1170.7692,-153.6017 1179.0683,-160.1877 1181.364,-153.5748"/>
</g>
<!-- Node42 -->
<g id="node31" class="node">
<title>Node42</title>
<g id="a_node31"><a xlink:href="_field_b_c_ops_8_h.html" target="_top" xlink:title="amr&#45;wind/core/FieldBCOps.H">
<polygon fill="#ffffff" stroke="#ff0000" points="882.7673,-129 882.7673,-148 1027.7673,-148 1027.7673,-129 882.7673,-129"/>
<text text-anchor="middle" x="955.2673" y="-136" font-family="Helvetica,sans-Serif" font-size="10.00" fill="#000000">amr&#45;wind/core/FieldBCOps.H</text>
</a>
</g>
</g>
<!-- Node33&#45;&gt;Node42 -->
<g id="edge59" class="edge">
<title>Node33&#45;&gt;Node42</title>
<path fill="none" stroke="#191970" d="M1250.7545,-192.7401C1183.3133,-180.3605 1081.9339,-161.7511 1017.1928,-149.8671"/>
<polygon fill="#191970" stroke="#191970" points="1017.5953,-146.3826 1007.1277,-148.0196 1016.3314,-153.2676 1017.5953,-146.3826"/>
</g>
<!-- Node37 -->
<g id="node29" class="node">
<title>Node37</title>
<polygon fill="#ffffff" stroke="#bfbfbf" points="1968.7673,-.5 1968.7673,-19.5 2061.7673,-19.5 2061.7673,-.5 1968.7673,-.5"/>
<text text-anchor="middle" x="2015.2673" y="-7.5" font-family="Helvetica,sans-Serif" font-size="10.00" fill="#000000">AMReX_REAL.H</text>
</g>
<!-- Node36&#45;&gt;Node37 -->
<g id="edge49" class="edge">
<title>Node36&#45;&gt;Node37</title>
<path fill="none" stroke="#191970" d="M2015.2673,-61.8906C2015.2673,-53.3657 2015.2673,-40.6392 2015.2673,-29.9235"/>
<polygon fill="#191970" stroke="#191970" points="2018.7674,-29.7448 2015.2673,-19.7449 2011.7674,-29.7449 2018.7674,-29.7448"/>
</g>
<!-- Node40&#45;&gt;Node8 -->
<g id="edge54" class="edge">
<title>Node40&#45;&gt;Node8</title>
<path fill="none" stroke="#191970" d="M1108.9832,-123.3046C1086.0725,-104.9582 1044.9788,-74.2938 1005.2673,-56 971.6028,-40.4919 931.6447,-29.2541 899.2561,-21.7694"/>
<polygon fill="#191970" stroke="#191970" points="899.9872,-18.3464 889.4628,-19.5664 898.4509,-25.1758 899.9872,-18.3464"/>
</g>
<!-- Node40&#45;&gt;Node9 -->
<g id="edge55" class="edge">
<title>Node40&#45;&gt;Node9</title>
<path fill="none" stroke="#191970" d="M1056.8328,-125.7031C1049.8985,-124.684 1042.9555,-123.7577 1036.2673,-123 756.7113,-91.3301 684.7637,-108.8255 404.2673,-87 378.1113,-84.9648 349.549,-82.2826 324.0428,-79.7226"/>
<polygon fill="#191970" stroke="#191970" points="324.3617,-76.237 314.0598,-78.7113 323.6561,-83.2014 324.3617,-76.237"/>
</g>
<!-- Node40&#45;&gt;Node10 -->
<g id="edge57" class="edge">
<title>Node40&#45;&gt;Node10</title>
<path fill="none" stroke="#191970" d="M1056.827,-125.7535C1049.8939,-124.7241 1042.9527,-123.7817 1036.2673,-123 912.1895,-108.4922 591.6184,-132.4774 475.2673,-87 442.3683,-74.141 412.1053,-45.4723 394.9482,-26.9755"/>
<polygon fill="#191970" stroke="#191970" points="397.5208,-24.602 388.2263,-19.5164 392.3207,-29.2881 397.5208,-24.602"/>
</g>
<!-- Node40&#45;&gt;Node12 -->
<g id="edge52" class="edge">
<title>Node40&#45;&gt;Node12</title>
<path fill="none" stroke="#191970" d="M1081.4857,-123.4639C1045.4542,-111.63 995.8116,-95.3258 961.7968,-84.1543"/>
<polygon fill="#191970" stroke="#191970" points="962.8016,-80.8004 952.2088,-81.0053 960.6173,-87.4509 962.8016,-80.8004"/>
</g>
<!-- Node40&#45;&gt;Node23 -->
<g id="edge56" class="edge">
<title>Node40&#45;&gt;Node23</title>
<path fill="none" stroke="#191970" d="M1144.5129,-123.2967C1156.469,-112.7564 1172.3792,-98.7303 1184.6277,-87.9323"/>
<polygon fill="#191970" stroke="#191970" points="1187.2421,-90.2934 1192.4288,-81.055 1182.613,-85.0425 1187.2421,-90.2934"/>
</g>
<!-- Node40&#45;&gt;Node36 -->
<g id="edge53" class="edge">
<title>Node40&#45;&gt;Node36</title>
<path fill="none" stroke="#191970" d="M1197.3361,-134.6446C1381.2571,-124.4427 1868.6533,-96.8502 1941.2673,-87 1949.041,-85.9455 1957.2182,-84.5385 1965.1869,-83.0012"/>
<polygon fill="#191970" stroke="#191970" points="1966.0104,-86.4057 1975.1229,-81.0009 1964.6288,-79.5434 1966.0104,-86.4057"/>
</g>
<!-- Node40&#45;&gt;Node37 -->
<g id="edge58" class="edge">
<title>Node40&#45;&gt;Node37</title>
<path fill="none" stroke="#191970" d="M1197.4691,-135.022C1332.4683,-127.9039 1623.5486,-110.3563 1721.2673,-87 1757.1482,-78.4239 1762.9781,-66.7547 1798.2673,-56 1851.7526,-39.6999 1914.3696,-27.0927 1958.5561,-19.2326"/>
<polygon fill="#191970" stroke="#191970" points="1959.2883,-22.6577 1968.5333,-17.4827 1958.079,-15.7629 1959.2883,-22.6577"/>
</g>
<!-- Node42&#45;&gt;Node8 -->
<g id="edge60" class="edge">
<title>Node42&#45;&gt;Node8</title>
<path fill="none" stroke="#191970" d="M964.9045,-128.8061C979.9034,-112.525 1005.4163,-79.1963 988.2673,-56 977.5734,-41.5351 937.9845,-29.7512 902.1638,-21.7324"/>
<polygon fill="#191970" stroke="#191970" points="902.7019,-18.2678 892.1876,-19.5714 901.2199,-25.1092 902.7019,-18.2678"/>
</g>
<!-- Node42&#45;&gt;Node12 -->
<g id="edge61" class="edge">
<title>Node42&#45;&gt;Node12</title>
<path fill="none" stroke="#191970" d="M950.6825,-128.9005C945.8825,-118.8505 938.2224,-102.8122 932.2179,-90.2403"/>
<polygon fill="#191970" stroke="#191970" points="935.3117,-88.5968 927.8436,-81.0817 928.9952,-91.6137 935.3117,-88.5968"/>
</g>
<!-- Node42&#45;&gt;Node15 -->
<g id="edge62" class="edge">
<title>Node42&#45;&gt;Node15</title>
<path fill="none" stroke="#191970" d="M882.4858,-129.6172C862.9428,-127.3415 841.8106,-124.9799 822.2673,-123 636.7514,-104.2054 582.4608,-141.9222 404.2673,-87 359.9523,-73.3414 314.0933,-43.8792 288.2734,-25.6181"/>
<polygon fill="#191970" stroke="#191970" points="290.1723,-22.6725 280.0117,-19.6703 286.0824,-28.3535 290.1723,-22.6725"/>
</g>
<!-- Node45&#45;&gt;Node7 -->
<g id="edge64" class="edge">
<title>Node45&#45;&gt;Node7</title>
<path fill="none" stroke="#191970" d="M1461.2179,-123.3302C1448.7817,-113.2683 1432.3079,-99.6377 1418.2673,-87 1396.2049,-67.1419 1371.9011,-43.1064 1356.156,-27.2299"/>
<polygon fill="#191970" stroke="#191970" points="1358.2755,-24.3949 1348.7597,-19.7365 1353.2936,-29.3123 1358.2755,-24.3949"/>
</g>
<!-- Node45&#45;&gt;Node8 -->
<g id="edge66" class="edge">
<title>Node45&#45;&gt;Node8</title>
<path fill="none" stroke="#191970" d="M1448.6809,-123.3894C1407.4819,-104.3848 1332.6961,-72.2763 1265.2673,-56 1151.8,-28.6107 1017.4255,-17.5176 930.1476,-13.0322"/>
<polygon fill="#191970" stroke="#191970" points="930.1673,-9.529 920.0064,-12.5299 929.8209,-16.5204 930.1673,-9.529"/>
</g>
<!-- Node45&#45;&gt;Node28 -->
<g id="edge65" class="edge">
<title>Node45&#45;&gt;Node28</title>
<path fill="none" stroke="#191970" d="M1532.5322,-130.4464C1594.5813,-120.7526 1701.1395,-103.6876 1792.2673,-87 1799.0263,-85.7623 1806.1078,-84.4113 1813.123,-83.0395"/>
<polygon fill="#191970" stroke="#191970" points="1814.1771,-86.3989 1823.3083,-81.0257 1812.8194,-79.5319 1814.1771,-86.3989"/>
</g>
<!-- Node46&#45;&gt;Node6 -->
<g id="edge68" class="edge">
<title>Node46&#45;&gt;Node6</title>
<path fill="none" stroke="#191970" d="M1622.1911,-59.5679C1617.4923,-58.3511 1612.7848,-57.1431 1608.2673,-56 1552.4569,-41.8785 1487.1666,-26.1663 1449.7702,-17.2438"/>
<polygon fill="#191970" stroke="#191970" points="1450.5322,-13.8275 1439.9933,-14.9143 1448.9097,-20.6368 1450.5322,-13.8275"/>
</g>
<!-- Node46&#45;&gt;Node7 -->
<g id="edge69" class="edge">
<title>Node46&#45;&gt;Node7</title>
<path fill="none" stroke="#191970" d="M1621.9514,-59.1392C1617.3431,-58.0191 1612.721,-56.9506 1608.2673,-56 1515.3244,-36.1624 1488.6113,-37.3474 1390.9899,-20.0761"/>
<polygon fill="#191970" stroke="#191970" points="1391.4568,-16.6042 1380.9967,-18.2879 1390.2237,-23.4947 1391.4568,-16.6042"/>
</g>
<!-- Node47 -->
<g id="node34" class="node">
<title>Node47</title>
<polygon fill="#ffffff" stroke="#bfbfbf" points="1652.2673,-.5 1652.2673,-19.5 1682.2673,-19.5 1682.2673,-.5 1652.2673,-.5"/>
<text text-anchor="middle" x="1667.2673" y="-7.5" font-family="Helvetica,sans-Serif" font-size="10.00" fill="#000000">set</text>
</g>
<!-- Node46&#45;&gt;Node47 -->
<g id="edge70" class="edge">
<title>Node46&#45;&gt;Node47</title>
<path fill="none" stroke="#191970" d="M1667.2673,-56.2977C1667.2673,-48.3834 1667.2673,-38.6043 1667.2673,-30.0759"/>
<polygon fill="#191970" stroke="#191970" points="1670.7674,-29.8469 1667.2673,-19.8469 1663.7674,-29.847 1670.7674,-29.8469"/>
</g>
<!-- Node48&#45;&gt;Node5 -->
<g id="edge74" class="edge">
<title>Node48&#45;&gt;Node5</title>
<path fill="none" stroke="#191970" d="M1522.0629,-200.4845C1487.0408,-197.3104 1440.4768,-193.2143 1399.2673,-190 1165.6522,-171.7783 1106.5482,-176.0923 873.2673,-154 857.1195,-152.4708 839.8579,-150.5654 823.4068,-148.6194"/>
<polygon fill="#191970" stroke="#191970" points="823.6313,-145.1213 813.2856,-147.4054 822.7976,-152.0715 823.6313,-145.1213"/>
</g>
<!-- Node48&#45;&gt;Node23 -->
<g id="edge72" class="edge">
<title>Node48&#45;&gt;Node23</title>
<path fill="none" stroke="#191970" d="M1545.7297,-195.96C1513.9853,-185.9316 1462.929,-169.4893 1419.2673,-154 1354.1222,-130.8894 1278.8878,-101.5425 1236.6114,-84.805"/>
<polygon fill="#191970" stroke="#191970" points="1237.6872,-81.4665 1227.1013,-81.0324 1235.106,-87.9732 1237.6872,-81.4665"/>
</g>
<!-- Node48&#45;&gt;Node36 -->
<g id="edge73" class="edge">
<title>Node48&#45;&gt;Node36</title>
<path fill="none" stroke="#191970" d="M1630.4411,-201.6473C1715.9352,-194.8951 1877.7314,-179.1973 1929.2673,-154 1960.2148,-138.8689 1987.2851,-108.5219 2002.4305,-89.1521"/>
<polygon fill="#191970" stroke="#191970" points="2005.2684,-91.2022 2008.5212,-81.119 1999.6904,-86.973 2005.2684,-91.2022"/>
</g>
<!-- Node49 -->
<g id="node36" class="node">
<title>Node49</title>
<g id="a_node36"><a xlink:href="_p_d_e_base_8_h.html" target="_top" xlink:title="amr&#45;wind/equation_systems\l/PDEBase.H">
<polygon fill="#ffffff" stroke="#ff0000" points="1588.7673,-123.5 1588.7673,-153.5 1727.7673,-153.5 1727.7673,-123.5 1588.7673,-123.5"/>
<text text-anchor="start" x="1596.7673" y="-141.5" font-family="Helvetica,sans-Serif" font-size="10.00" fill="#000000">amr&#45;wind/equation_systems</text>
<text text-anchor="middle" x="1658.2673" y="-130.5" font-family="Helvetica,sans-Serif" font-size="10.00" fill="#000000">/PDEBase.H</text>
</a>
</g>
</g>
<!-- Node48&#45;&gt;Node49 -->
<g id="edge75" class="edge">
<title>Node48&#45;&gt;Node49</title>
<path fill="none" stroke="#191970" d="M1588.0159,-195.9005C1599.4496,-186.5583 1617.2162,-172.0417 1632.0212,-159.945"/>
<polygon fill="#191970" stroke="#191970" points="1634.3532,-162.5594 1639.8825,-153.5218 1629.9241,-157.1387 1634.3532,-162.5594"/>
</g>
<!-- Node49&#45;&gt;Node6 -->
<g id="edge76" class="edge">
<title>Node49&#45;&gt;Node6</title>
<path fill="none" stroke="#191970" d="M1683.3809,-123.4928C1708.4857,-106.6431 1740.7633,-78.6904 1721.2673,-56 1703.6841,-35.5357 1523.235,-18.54 1449.9513,-12.429"/>
<polygon fill="#191970" stroke="#191970" points="1450.2018,-8.9378 1439.9487,-11.6072 1449.6286,-15.9143 1450.2018,-8.9378"/>
</g>
<!-- Node49&#45;&gt;Node8 -->
<g id="edge79" class="edge">
<title>Node49&#45;&gt;Node8</title>
<path fill="none" stroke="#191970" d="M1645.3881,-123.3467C1626.5853,-101.6574 1592.0386,-63.537 1575.2673,-56 1517.8488,-30.1961 1114.7042,-16.9097 930.1379,-12.1224"/>
<polygon fill="#191970" stroke="#191970" points="929.9947,-8.6177 919.9082,-11.86 929.8151,-15.6154 929.9947,-8.6177"/>
</g>
<!-- Node49&#45;&gt;Node28 -->
<g id="edge77" class="edge">
<title>Node49&#45;&gt;Node28</title>
<path fill="none" stroke="#191970" d="M1705.6198,-123.4639C1742.8877,-111.63 1794.2338,-95.3258 1829.4157,-84.1543"/>
<polygon fill="#191970" stroke="#191970" points="1830.861,-87.3677 1839.3327,-81.0053 1828.7424,-80.6959 1830.861,-87.3677"/>
</g>
<!-- Node49&#45;&gt;Node34 -->
<g id="edge78" class="edge">
<title>Node49&#45;&gt;Node34</title>
<path fill="none" stroke="#191970" d="M1621.9113,-123.4639C1598.3363,-113.7137 1567.4238,-100.9289 1542.1605,-90.4805"/>
<polygon fill="#191970" stroke="#191970" points="1543.3604,-87.1893 1532.7818,-86.6017 1540.685,-93.6579 1543.3604,-87.1893"/>
</g>
<!-- Node53&#45;&gt;Node3 -->
<g id="edge84" class="edge">
<title>Node53&#45;&gt;Node3</title>
<path fill="none" stroke="#191970" d="M810.7387,-328.6549C757.1502,-319.6435 681.4389,-305.4897 616.2673,-288 613.2521,-287.1908 610.1468,-286.2829 607.0436,-285.323"/>
<polygon fill="#191970" stroke="#191970" points="607.8442,-281.9029 597.252,-282.1372 605.6784,-288.5595 607.8442,-281.9029"/>
</g>
<!-- Node53&#45;&gt;Node15 -->
<g id="edge90" class="edge">
<title>Node53&#45;&gt;Node15</title>
<path fill="none" stroke="#191970" d="M810.5322,-332.5044C763.1916,-325.7407 700.1874,-312.7119 649.2673,-288 629.6586,-278.4837 631.4089,-265.3293 611.2673,-257 463.0823,-195.7204 408.226,-258.2941 252.2673,-221 172.0745,-201.8237 126.3747,-221.6721 79.2673,-154 54.3819,-118.2509 51.3544,-90.2488 78.2673,-56 82.5765,-50.5162 160.0445,-32.9511 214.4463,-21.1827"/>
<polygon fill="#191970" stroke="#191970" points="215.2745,-24.5847 224.313,-19.057 213.8002,-17.7417 215.2745,-24.5847"/>
</g>
<!-- Node53&#45;&gt;Node24 -->
<g id="edge87" class="edge">
<title>Node53&#45;&gt;Node24</title>
<path fill="none" stroke="#191970" d="M950.0108,-329.1139C1013.2715,-319.5253 1109.3489,-304.5462 1202.6159,-288.0808"/>
<polygon fill="#191970" stroke="#191970" points="1203.2703,-291.5195 1212.5057,-286.3273 1202.0482,-284.627 1203.2703,-291.5195"/>
</g>
<!-- Node53&#45;&gt;Node25 -->
<g id="edge88" class="edge">
<title>Node53&#45;&gt;Node25</title>
<path fill="none" stroke="#191970" d="M846.1555,-324.4639C824.2306,-314.7996 795.5419,-302.154 771.9554,-291.7572"/>
<polygon fill="#191970" stroke="#191970" points="773.0901,-288.4325 762.5278,-287.6017 770.2666,-294.8379 773.0901,-288.4325"/>
</g>
<!-- Node53&#45;&gt;Node32 -->
<g id="edge89" class="edge">
<title>Node53&#45;&gt;Node32</title>
<path fill="none" stroke="#191970" d="M935.2501,-324.4639C972.3173,-314.3272 1021.3787,-300.9104 1060.3638,-290.2491"/>
<polygon fill="#191970" stroke="#191970" points="1061.3222,-293.6156 1070.0447,-287.6017 1059.4756,-286.8636 1061.3222,-293.6156"/>
</g>
<!-- Node53&#45;&gt;Node52 -->
<g id="edge91" class="edge">
<title>Node53&#45;&gt;Node52</title>
<path fill="none" stroke="#191970" d="M900.7453,-324.4768C920.8209,-307.8498 946.3742,-280.3179 931.2673,-257 922.5578,-243.5567 886.1799,-228.6409 856.6392,-218.3365"/>
<polygon fill="#191970" stroke="#191970" points="857.5275,-214.9416 846.933,-215.0275 855.2687,-221.5672 857.5275,-214.9416"/>
</g>
<!-- Node54 -->
<g id="node39" class="node">
<title>Node54</title>
<g id="a_node39"><a xlink:href="_m_o_l_8_h.html" target="_top" xlink:title="amr&#45;wind/convection\l/MOL.H">
<polygon fill="#ffffff" stroke="#000000" points="815.7673,-257.5 815.7673,-287.5 922.7673,-287.5 922.7673,-257.5 815.7673,-257.5"/>
<text text-anchor="start" x="823.7673" y="-275.5" font-family="Helvetica,sans-Serif" font-size="10.00" fill="#000000">amr&#45;wind/convection</text>
<text text-anchor="middle" x="869.2673" y="-264.5" font-family="Helvetica,sans-Serif" font-size="10.00" fill="#000000">/MOL.H</text>
</a>
</g>
</g>
<!-- Node53&#45;&gt;Node54 -->
<g id="edge85" class="edge">
<title>Node53&#45;&gt;Node54</title>
<path fill="none" stroke="#191970" d="M877.7712,-324.2967C876.4773,-316.4156 874.8635,-306.5857 873.3904,-297.6135"/>
<polygon fill="#191970" stroke="#191970" points="876.8274,-296.944 871.7535,-287.6432 869.9199,-298.0781 876.8274,-296.944"/>
</g>
<!-- Node54&#45;&gt;Node5 -->
<g id="edge86" class="edge">
<title>Node54&#45;&gt;Node5</title>
<path fill="none" stroke="#191970" d="M820.3575,-257.3965C791.1328,-247.3052 758.0275,-233.6164 749.2673,-221 736.5343,-202.662 737.8091,-176.1159 740.7633,-158.1276"/>
<polygon fill="#191970" stroke="#191970" points="744.2236,-158.6692 742.7095,-148.1832 737.3539,-157.3248 744.2236,-158.6692"/>
</g>
<!-- Node55&#45;&gt;Node24 -->
<g id="edge94" class="edge">
<title>Node55&#45;&gt;Node24</title>
<path fill="none" stroke="#191970" d="M1040.1497,-458.427C1065.2946,-429.6494 1123.6015,-366.0112 1182.2673,-324 1199.438,-311.7039 1219.9479,-300.6057 1237.9111,-291.8879"/>
<polygon fill="#191970" stroke="#191970" points="1239.5095,-295.0035 1247.0414,-287.5522 1236.5068,-288.6802 1239.5095,-295.0035"/>
</g>
<!-- Node55&#45;&gt;Node25 -->
<g id="edge93" class="edge">
<title>Node55&#45;&gt;Node25</title>
<path fill="none" stroke="#191970" d="M988.7884,-458.4376C941.7026,-438.9024 860.8974,-401.7272 801.2673,-355 779.4042,-337.8677 758.8526,-313.6215 745.1611,-295.8472"/>
<polygon fill="#191970" stroke="#191970" points="747.832,-293.5761 739.0152,-287.7011 742.244,-297.792 747.832,-293.5761"/>
</g>
<!-- Node55&#45;&gt;Node33 -->
<g id="edge95" class="edge">
<title>Node55&#45;&gt;Node33</title>
<path fill="none" stroke="#191970" d="M1026.3273,-458.2024C1023.9414,-413.8401 1019.5994,-286.4258 1046.2673,-257 1046.6849,-256.5392 1159.6554,-235.4146 1240.3883,-220.3671"/>
<polygon fill="#191970" stroke="#191970" points="1241.3694,-223.7446 1250.5589,-218.4718 1240.0869,-216.8631 1241.3694,-223.7446"/>
</g>
<!-- Node56 -->
<g id="node41" class="node">
<title>Node56</title>
<g id="a_node41"><a xlink:href="_p_d_e_8_h.html" target="_top" xlink:title="amr&#45;wind/equation_systems\l/PDE.H">
<polygon fill="#ffffff" stroke="#000000" points="1348.7673,-391.5 1348.7673,-421.5 1487.7673,-421.5 1487.7673,-391.5 1348.7673,-391.5"/>
<text text-anchor="start" x="1356.7673" y="-409.5" font-family="Helvetica,sans-Serif" font-size="10.00" fill="#000000">amr&#45;wind/equation_systems</text>
<text text-anchor="middle" x="1418.2673" y="-398.5" font-family="Helvetica,sans-Serif" font-size="10.00" fill="#000000">/PDE.H</text>
</a>
</g>
</g>
<!-- Node55&#45;&gt;Node56 -->
<g id="edge96" class="edge">
<title>Node55&#45;&gt;Node56</title>
<path fill="none" stroke="#191970" d="M1097.1703,-461.5217C1164.8991,-449.916 1267.5042,-432.3341 1338.4162,-420.1829"/>
<polygon fill="#191970" stroke="#191970" points="1339.3756,-423.5696 1348.6408,-418.4309 1338.1933,-416.6702 1339.3756,-423.5696"/>
</g>
<!-- Node64 -->
<g id="node47" class="node">
<title>Node64</title>
<g id="a_node47"><a xlink:href="_momentum_source_8_h.html" target="_top" xlink:title="amr&#45;wind/equation_systems\l/icns/MomentumSource.H">
<polygon fill="#ffffff" stroke="#000000" points="892.7673,-190.5 892.7673,-220.5 1031.7673,-220.5 1031.7673,-190.5 892.7673,-190.5"/>
<text text-anchor="start" x="900.7673" y="-208.5" font-family="Helvetica,sans-Serif" font-size="10.00" fill="#000000">amr&#45;wind/equation_systems</text>
<text text-anchor="middle" x="962.2673" y="-197.5" font-family="Helvetica,sans-Serif" font-size="10.00" fill="#000000">/icns/MomentumSource.H</text>
</a>
</g>
</g>
<!-- Node55&#45;&gt;Node64 -->
<g id="edge116" class="edge">
<title>Node55&#45;&gt;Node64</title>
<path fill="none" stroke="#191970" d="M1022.9648,-458.2123C1020.1227,-447.9856 1016.3652,-434.2143 1013.2673,-422 995.7073,-352.7646 976.8976,-270.5527 967.8116,-230.2619"/>
<polygon fill="#191970" stroke="#191970" points="971.2259,-229.4921 965.6165,-220.504 964.3966,-231.0284 971.2259,-229.4921"/>
</g>
<!-- Node56&#45;&gt;Node6 -->
<g id="edge97" class="edge">
<title>Node56&#45;&gt;Node6</title>
<path fill="none" stroke="#191970" d="M1487.9207,-399.4248C1562.6239,-391.2277 1684.5135,-376.0941 1788.2673,-355 1900.5727,-332.1673 1928.921,-325.3485 2037.2673,-288 2115.3892,-261.0702 2215.4328,-270.1349 2195.2673,-190 2178.7685,-124.4359 2180.132,-92.5687 2123.2673,-56 2108.8945,-46.7571 1584.3121,-18.6579 1450.2244,-11.6144"/>
<polygon fill="#191970" stroke="#191970" points="1450.0311,-8.0996 1439.8616,-11.0712 1449.6646,-15.09 1450.0311,-8.0996"/>
</g>
<!-- Node56&#45;&gt;Node32 -->
<g id="edge100" class="edge">
<title>Node56&#45;&gt;Node32</title>
<path fill="none" stroke="#191970" d="M1348.5004,-397.0507C1289.0446,-387.9642 1209.0898,-372.9796 1182.2673,-355 1160.9637,-340.7198 1145.3028,-315.5541 1135.8452,-296.7606"/>
<polygon fill="#191970" stroke="#191970" points="1138.9391,-295.1172 1131.468,-287.605 1132.6237,-298.1366 1138.9391,-295.1172"/>
</g>
<!-- Node56&#45;&gt;Node48 -->
<g id="edge98" class="edge">
<title>Node56&#45;&gt;Node48</title>
<path fill="none" stroke="#191970" d="M1449.0901,-391.288C1464.9271,-382.3464 1483.6944,-369.8765 1497.2673,-355 1533.7273,-315.0383 1558.6311,-255.1453 1569.7241,-224.7204"/>
<polygon fill="#191970" stroke="#191970" points="1573.0322,-225.8635 1573.0681,-215.2687 1566.433,-223.5287 1573.0322,-225.8635"/>
</g>
<!-- Node56&#45;&gt;Node49 -->
<g id="edge99" class="edge">
<title>Node56&#45;&gt;Node49</title>
<path fill="none" stroke="#191970" d="M1457.4158,-391.4884C1477.8599,-382.6035 1502.6352,-370.1239 1522.2673,-355 1584.8997,-306.7501 1603.3156,-291.4155 1639.2673,-221 1648.4232,-203.0672 1653.2208,-180.7024 1655.7027,-163.7841"/>
<polygon fill="#191970" stroke="#191970" points="1659.2141,-163.9197 1657.0218,-153.5542 1652.2716,-163.0244 1659.2141,-163.9197"/>
</g>
<!-- Node57 -->
<g id="node42" class="node">
<title>Node57</title>
<g id="a_node42"><a xlink:href="_comp_r_h_s_ops_8_h.html" target="_top" xlink:title="amr&#45;wind/equation_systems\l/CompRHSOps.H">
<polygon fill="#ffffff" stroke="#ff0000" points="1191.7673,-324.5 1191.7673,-354.5 1330.7673,-354.5 1330.7673,-324.5 1191.7673,-324.5"/>
<text text-anchor="start" x="1199.7673" y="-342.5" font-family="Helvetica,sans-Serif" font-size="10.00" fill="#000000">amr&#45;wind/equation_systems</text>
<text text-anchor="middle" x="1261.2673" y="-331.5" font-family="Helvetica,sans-Serif" font-size="10.00" fill="#000000">/CompRHSOps.H</text>
</a>
</g>
</g>
<!-- Node56&#45;&gt;Node57 -->
<g id="edge101" class="edge">
<title>Node56&#45;&gt;Node57</title>
<path fill="none" stroke="#191970" d="M1383.0334,-391.4639C1360.2867,-381.7567 1330.4914,-369.0415 1306.068,-358.6188"/>
<polygon fill="#191970" stroke="#191970" points="1307.2261,-355.3077 1296.6548,-354.6017 1304.4786,-361.7459 1307.2261,-355.3077"/>
</g>
<!-- Node58 -->
<g id="node43" class="node">
<title>Node58</title>
<g id="a_node43"><a xlink:href="_diffusion_ops_8_h.html" target="_top" xlink:title="amr&#45;wind/equation_systems\l/DiffusionOps.H">
<polygon fill="#ffffff" stroke="#ff0000" points="1348.7673,-324.5 1348.7673,-354.5 1487.7673,-354.5 1487.7673,-324.5 1348.7673,-324.5"/>
<text text-anchor="start" x="1356.7673" y="-342.5" font-family="Helvetica,sans-Serif" font-size="10.00" fill="#000000">amr&#45;wind/equation_systems</text>
<text text-anchor="middle" x="1418.2673" y="-331.5" font-family="Helvetica,sans-Serif" font-size="10.00" fill="#000000">/DiffusionOps.H</text>
</a>
</g>
</g>
<!-- Node56&#45;&gt;Node58 -->
<g id="edge104" class="edge">
<title>Node56&#45;&gt;Node58</title>
<path fill="none" stroke="#191970" d="M1418.2673,-391.2967C1418.2673,-383.5013 1418.2673,-373.7991 1418.2673,-364.9064"/>
<polygon fill="#191970" stroke="#191970" points="1421.7674,-364.6431 1418.2673,-354.6432 1414.7674,-364.6432 1421.7674,-364.6431"/>
</g>
<!-- Node57&#45;&gt;Node24 -->
<g id="edge103" class="edge">
<title>Node57&#45;&gt;Node24</title>
<path fill="none" stroke="#191970" d="M1266.0325,-324.2967C1268.5296,-316.3299 1271.6508,-306.3718 1274.4875,-297.3213"/>
<polygon fill="#191970" stroke="#191970" points="1277.8698,-298.2323 1277.5209,-287.6432 1271.1902,-296.1386 1277.8698,-298.2323"/>
</g>
<!-- Node57&#45;&gt;Node32 -->
<g id="edge102" class="edge">
<title>Node57&#45;&gt;Node32</title>
<path fill="none" stroke="#191970" d="M1230.7462,-324.4639C1211.3718,-314.9191 1186.0943,-302.4663 1165.1416,-292.144"/>
<polygon fill="#191970" stroke="#191970" points="1166.6743,-288.9974 1156.157,-287.7177 1163.5808,-295.2768 1166.6743,-288.9974"/>
</g>
<!-- Node58&#45;&gt;Node23 -->
<g id="edge115" class="edge">
<title>Node58&#45;&gt;Node23</title>
<path fill="none" stroke="#191970" d="M1420.5776,-324.3553C1424.1423,-295.4552 1427.866,-231.6166 1399.2673,-190 1380.1221,-162.14 1361.4163,-171.1187 1332.2673,-154 1294.2933,-131.6985 1251.4485,-103.714 1225.9375,-86.7397"/>
<polygon fill="#191970" stroke="#191970" points="1227.6242,-83.6575 1217.3641,-81.0151 1223.737,-89.479 1227.6242,-83.6575"/>
</g>
<!-- Node58&#45;&gt;Node24 -->
<g id="edge111" class="edge">
<title>Node58&#45;&gt;Node24</title>
<path fill="none" stroke="#191970" d="M1387.7462,-324.4639C1368.3718,-314.9191 1343.0943,-302.4663 1322.1416,-292.144"/>
<polygon fill="#191970" stroke="#191970" points="1323.6743,-288.9974 1313.157,-287.7177 1320.5808,-295.2768 1323.6743,-288.9974"/>
</g>
<!-- Node58&#45;&gt;Node25 -->
<g id="edge110" class="edge">
<title>Node58&#45;&gt;Node25</title>
<path fill="none" stroke="#191970" d="M1348.559,-325.3274C1345.4242,-324.8465 1342.316,-324.4004 1339.2673,-324 1107.1938,-293.5199 1043.4336,-318.4745 808.1789,-288.1471"/>
<polygon fill="#191970" stroke="#191970" points="808.3042,-284.6338 797.9344,-286.8058 807.3954,-291.5745 808.3042,-284.6338"/>
</g>
<!-- Node58&#45;&gt;Node32 -->
<g id="edge112" class="edge">
<title>Node58&#45;&gt;Node32</title>
<path fill="none" stroke="#191970" d="M1352.5124,-324.4639C1307.5408,-314.1803 1247.8064,-300.5209 1200.8678,-289.7875"/>
<polygon fill="#191970" stroke="#191970" points="1201.5843,-286.3611 1191.0557,-287.5438 1200.0239,-293.1849 1201.5843,-286.3611"/>
</g>
<!-- Node58&#45;&gt;Node33 -->
<g id="edge113" class="edge">
<title>Node58&#45;&gt;Node33</title>
<path fill="none" stroke="#191970" d="M1408.2701,-324.3813C1397.1171,-307.6707 1378.3867,-280.0661 1361.2673,-257 1354.2476,-247.542 1346.2349,-237.3523 1339.1664,-228.5531"/>
<polygon fill="#191970" stroke="#191970" points="1341.7526,-226.1851 1332.7419,-220.6121 1336.3105,-230.5878 1341.7526,-226.1851"/>
</g>
<!-- Node58&#45;&gt;Node59 -->
<g id="edge105" class="edge">
<title>Node58&#45;&gt;Node59</title>
<path fill="none" stroke="#191970" d="M1487.817,-330.7409C1584.5807,-318.5545 1759.7079,-296.499 1864.4636,-283.3061"/>
<polygon fill="#191970" stroke="#191970" points="1865.2047,-286.7405 1874.689,-282.0183 1864.33,-279.7954 1865.2047,-286.7405"/>
</g>
<!-- Node62 -->
<g id="node46" class="node">
<title>Node62</title>
<polygon fill="#ffffff" stroke="#bfbfbf" points="1686.2673,-263 1686.2673,-282 1782.2673,-282 1782.2673,-263 1686.2673,-263"/>
<text text-anchor="middle" x="1734.2673" y="-270" font-family="Helvetica,sans-Serif" font-size="10.00" fill="#000000">AMReX_MLMG.H</text>
</g>
<!-- Node58&#45;&gt;Node62 -->
<g id="edge114" class="edge">
<title>Node58&#45;&gt;Node62</title>
<path fill="none" stroke="#191970" d="M1488.006,-324.7136C1545.5489,-312.5131 1626.0884,-295.4367 1679.1825,-284.1794"/>
<polygon fill="#191970" stroke="#191970" points="1680.036,-287.5763 1689.0926,-282.0782 1678.5841,-280.7285 1680.036,-287.5763"/>
</g>
<!-- Node59&#45;&gt;Node6 -->
<g id="edge106" class="edge">
<title>Node59&#45;&gt;Node6</title>
<path fill="none" stroke="#191970" d="M1961.0548,-262.8212C2001.7713,-225.7766 2142.0764,-93.2141 2107.2673,-56 2095.8707,-43.8159 1582.357,-17.9578 1450.0819,-11.4902"/>
<polygon fill="#191970" stroke="#191970" points="1450.0082,-7.9826 1439.8496,-10.9915 1449.6673,-14.9743 1450.0082,-7.9826"/>
</g>
<!-- Node59&#45;&gt;Node37 -->
<g id="edge107" class="edge">
<title>Node59&#45;&gt;Node37</title>
<path fill="none" stroke="#191970" d="M2027.9612,-264.1021C2082.6426,-256.4034 2149.0363,-242.8223 2166.2673,-221 2189.006,-192.2025 2252.445,-175.582 2161.2673,-56 2150.0735,-41.319 2108.0257,-29.0242 2071.9115,-20.8497"/>
<polygon fill="#191970" stroke="#191970" points="2072.4312,-17.3806 2061.9133,-18.6548 2070.9302,-24.2178 2072.4312,-17.3806"/>
</g>
<!-- Node59&#45;&gt;Node52 -->
<g id="edge108" class="edge">
<title>Node59&#45;&gt;Node52</title>
<path fill="none" stroke="#191970" d="M1872.7048,-264.0369C1846.8309,-261.4545 1817.8307,-258.8198 1791.2673,-257 1388.3391,-229.3958 1283.5471,-274.7511 883.2673,-221 876.3506,-220.0712 869.0994,-218.7584 862.0271,-217.2855"/>
<polygon fill="#191970" stroke="#191970" points="862.3726,-213.7775 851.8531,-215.0389 860.8632,-220.6129 862.3726,-213.7775"/>
</g>
<!-- Node60 -->
<g id="node45" class="node">
<title>Node60</title>
<polygon fill="#ffffff" stroke="#bfbfbf" points="2051.2673,-196 2051.2673,-215 2157.2673,-215 2157.2673,-196 2051.2673,-196"/>
<text text-anchor="middle" x="2104.2673" y="-203" font-family="Helvetica,sans-Serif" font-size="10.00" fill="#000000">AMReX_MLLinOp.H</text>
</g>
<!-- Node59&#45;&gt;Node60 -->
<g id="edge109" class="edge">
<title>Node59&#45;&gt;Node60</title>
<path fill="none" stroke="#191970" d="M1972.3317,-262.9005C1998.6338,-251.4574 2042.7801,-232.2509 2072.6918,-219.2374"/>
<polygon fill="#191970" stroke="#191970" points="2074.4703,-222.2806 2082.2438,-215.0817 2071.6777,-215.8617 2074.4703,-222.2806"/>
</g>
<!-- Node64&#45;&gt;Node5 -->
<g id="edge120" class="edge">
<title>Node64&#45;&gt;Node5</title>
<path fill="none" stroke="#191970" d="M913.5683,-190.4639C875.0761,-178.5792 821.9809,-162.1858 785.7872,-151.0108"/>
<polygon fill="#191970" stroke="#191970" points="786.6406,-147.6113 776.0531,-148.0053 784.5754,-154.2997 786.6406,-147.6113"/>
</g>
<!-- Node64&#45;&gt;Node8 -->
<g id="edge118" class="edge">
<title>Node64&#45;&gt;Node8</title>
<path fill="none" stroke="#191970" d="M921.293,-190.3641C904.1087,-182.0793 885.3519,-170.1522 873.2673,-154 845.2508,-116.5532 839.3747,-59.6816 838.3224,-29.8517"/>
<polygon fill="#191970" stroke="#191970" points="841.8215,-29.7669 838.1192,-19.84 834.8229,-29.909 841.8215,-29.7669"/>
</g>
<!-- Node64&#45;&gt;Node9 -->
<g id="edge119" class="edge">
<title>Node64&#45;&gt;Node9</title>
<path fill="none" stroke="#191970" d="M892.5149,-191.6197C889.392,-191.0597 886.2984,-190.517 883.2673,-190 773.4756,-171.2724 744.9079,-173.5926 635.2673,-154 513.5416,-132.2479 371.6958,-100.4238 297.8358,-83.3572"/>
<polygon fill="#191970" stroke="#191970" points="298.4061,-79.8967 287.8742,-81.0496 296.8263,-86.7161 298.4061,-79.8967"/>
</g>
<!-- Node64&#45;&gt;Node10 -->
<g id="edge121" class="edge">
<title>Node64&#45;&gt;Node10</title>
<path fill="none" stroke="#191970" d="M892.5475,-191.4117C889.4157,-190.908 886.3114,-190.4341 883.2673,-190 724.999,-167.432 271.7053,-211.38 171.2673,-87 162.6114,-76.2807 162.6353,-66.7385 171.2673,-56 176.0051,-50.1061 259.2702,-33.0998 319.2504,-21.5018"/>
<polygon fill="#191970" stroke="#191970" points="320.2488,-24.874 329.4067,-19.5465 318.9254,-18.0002 320.2488,-24.874"/>
</g>
<!-- Node64&#45;&gt;Node28 -->
<g id="edge117" class="edge">
<title>Node64&#45;&gt;Node28</title>
<path fill="none" stroke="#191970" d="M1031.7777,-201.6553C1232.5724,-190.5 1799.7559,-158.6217 1808.2673,-154 1833.9948,-140.0298 1851.8302,-109.9939 1861.303,-90.2786"/>
<polygon fill="#191970" stroke="#191970" points="1864.546,-91.6019 1865.4918,-81.0493 1858.1718,-88.7088 1864.546,-91.6019"/>
</g>
<!-- Node66&#45;&gt;Node29 -->
<g id="edge125" class="edge">
<title>Node66&#45;&gt;Node29</title>
<path fill="none" stroke="#191970" d="M1779.4148,-335.1446C1839.2741,-328.6221 1947.7769,-314.1905 2037.2673,-288 2110.4717,-266.5758 2142.8943,-276.4521 2195.2673,-221 2245.4207,-167.898 2210.897,-69.7451 2193.0814,-28.7533"/>
<polygon fill="#191970" stroke="#191970" points="2196.2692,-27.3082 2188.9737,-19.6254 2189.8858,-30.1809 2196.2692,-27.3082"/>
</g>
<!-- Node66&#45;&gt;Node62 -->
<g id="edge126" class="edge">
<title>Node66&#45;&gt;Node62</title>
<path fill="none" stroke="#191970" d="M1734.2673,-324.2967C1734.2673,-314.7699 1734.2673,-302.3954 1734.2673,-292.1306"/>
<polygon fill="#191970" stroke="#191970" points="1737.7674,-292.0549 1734.2673,-282.055 1730.7674,-292.055 1737.7674,-292.0549"/>
</g>
</g>
</svg>
