<?xml version="1.0" encoding="UTF-8" standalone="no"?>
<!DOCTYPE svg PUBLIC "-//W3C//DTD SVG 1.1//EN"
 "http://www.w3.org/Graphics/SVG/1.1/DTD/svg11.dtd">
<!-- Generated by graphviz version 2.40.1 (20161225.0304)
 -->
<!-- Title: icns_diffusion.H Pages: 1 -->
<svg width="2817pt" height="553pt"
 viewBox="0.00 0.00 2816.73 553.00" xmlns="http://www.w3.org/2000/svg" xmlns:xlink="http://www.w3.org/1999/xlink">
<g id="graph0" class="graph" transform="scale(1 1) rotate(0) translate(4 549)">
<title>icns_diffusion.H</title>
<polygon fill="#ffffff" stroke="transparent" points="-4,4 -4,-549 2812.7337,-549 2812.7337,4 -4,4"/>
<!-- Node0 -->
<g id="node1" class="node">
<title>Node0</title>
<polygon fill="#bfbfbf" stroke="#000000" points="1758.7337,-525.5 1758.7337,-544.5 1845.7337,-544.5 1845.7337,-525.5 1758.7337,-525.5"/>
<text text-anchor="middle" x="1802.2337" y="-532.5" font-family="Helvetica,sans-Serif" font-size="10.00" fill="#000000">icns_diffusion.H</text>
</g>
<!-- Node1 -->
<g id="node2" class="node">
<title>Node1</title>
<g id="a_node2"><a xlink:href="_p_d_e_traits_8_h.html" target="_top" xlink:title="amr&#45;wind/equation_systems\l/PDETraits.H">
<polygon fill="#ffffff" stroke="#000000" points="1476.7337,-257.5 1476.7337,-287.5 1615.7337,-287.5 1615.7337,-257.5 1476.7337,-257.5"/>
<text text-anchor="start" x="1484.7337" y="-275.5" font-family="Helvetica,sans-Serif" font-size="10.00" fill="#000000">amr&#45;wind/equation_systems</text>
<text text-anchor="middle" x="1546.2337" y="-264.5" font-family="Helvetica,sans-Serif" font-size="10.00" fill="#000000">/PDETraits.H</text>
</a>
</g>
</g>
<!-- Node0&#45;&gt;Node1 -->
<g id="edge1" class="edge">
<title>Node0&#45;&gt;Node1</title>
<path fill="none" stroke="#191970" d="M1777.5628,-525.3542C1757.9248,-517.1173 1730.1895,-504.2072 1708.2337,-489 1636.8987,-439.5915 1609.8094,-430.0402 1566.2337,-355 1556.0951,-337.5406 1551.0801,-315.1425 1548.6085,-298.091"/>
<polygon fill="#191970" stroke="#191970" points="1552.0315,-297.2547 1547.3233,-287.7635 1545.0851,-298.1192 1552.0315,-297.2547"/>
</g>
<!-- Node27 -->
<g id="node21" class="node">
<title>Node27</title>
<g id="a_node21"><a xlink:href="_p_d_e_ops_8_h.html" target="_top" xlink:title="amr&#45;wind/equation_systems\l/PDEOps.H">
<polygon fill="#ffffff" stroke="#000000" points="1672.7337,-257.5 1672.7337,-287.5 1811.7337,-287.5 1811.7337,-257.5 1672.7337,-257.5"/>
<text text-anchor="start" x="1680.7337" y="-275.5" font-family="Helvetica,sans-Serif" font-size="10.00" fill="#000000">amr&#45;wind/equation_systems</text>
<text text-anchor="middle" x="1742.2337" y="-264.5" font-family="Helvetica,sans-Serif" font-size="10.00" fill="#000000">/PDEOps.H</text>
</a>
</g>
</g>
<!-- Node0&#45;&gt;Node27 -->
<g id="edge37" class="edge">
<title>Node0&#45;&gt;Node27</title>
<path fill="none" stroke="#191970" d="M1771.5146,-525.4362C1754.3262,-518.3313 1734.3705,-506.7464 1724.2337,-489 1689.0646,-427.4298 1715.2572,-339.5317 1731.6538,-297.1795"/>
<polygon fill="#191970" stroke="#191970" points="1734.9928,-298.2566 1735.4699,-287.6725 1728.4966,-295.649 1734.9928,-298.2566"/>
</g>
<!-- Node28 -->
<g id="node22" class="node">
<title>Node28</title>
<g id="a_node22"><a xlink:href="_p_d_e_helpers_8_h.html" target="_top" xlink:title="amr&#45;wind/equation_systems\l/PDEHelpers.H">
<polygon fill="#ffffff" stroke="#000000" points="1940.7337,-190.5 1940.7337,-220.5 2079.7337,-220.5 2079.7337,-190.5 1940.7337,-190.5"/>
<text text-anchor="start" x="1948.7337" y="-208.5" font-family="Helvetica,sans-Serif" font-size="10.00" fill="#000000">amr&#45;wind/equation_systems</text>
<text text-anchor="middle" x="2010.2337" y="-197.5" font-family="Helvetica,sans-Serif" font-size="10.00" fill="#000000">/PDEHelpers.H</text>
</a>
</g>
</g>
<!-- Node0&#45;&gt;Node28 -->
<g id="edge88" class="edge">
<title>Node0&#45;&gt;Node28</title>
<path fill="none" stroke="#191970" d="M1845.7466,-527.6156C1905.6591,-514.6719 2006.2337,-481.7385 2006.2337,-406.5 2006.2337,-406.5 2006.2337,-406.5 2006.2337,-339.5 2006.2337,-301.6566 2007.8473,-257.8283 2009.0248,-230.8841"/>
<polygon fill="#191970" stroke="#191970" points="2012.5268,-230.9162 2009.4813,-220.7685 2005.5339,-230.6005 2012.5268,-230.9162"/>
</g>
<!-- Node48 -->
<g id="node41" class="node">
<title>Node48</title>
<g id="a_node41"><a xlink:href="_diffusion_ops_8_h.html" target="_top" xlink:title="amr&#45;wind/equation_systems\l/DiffusionOps.H">
<polygon fill="#ffffff" stroke="#000000" points="2120.7337,-324.5 2120.7337,-354.5 2259.7337,-354.5 2259.7337,-324.5 2120.7337,-324.5"/>
<text text-anchor="start" x="2128.7337" y="-342.5" font-family="Helvetica,sans-Serif" font-size="10.00" fill="#000000">amr&#45;wind/equation_systems</text>
<text text-anchor="middle" x="2190.2337" y="-331.5" font-family="Helvetica,sans-Serif" font-size="10.00" fill="#000000">/DiffusionOps.H</text>
</a>
</g>
</g>
<!-- Node0&#45;&gt;Node48 -->
<g id="edge89" class="edge">
<title>Node0&#45;&gt;Node48</title>
<path fill="none" stroke="#191970" d="M1845.745,-532.3453C1891.3489,-528.109 1964.0415,-517.1659 2020.2337,-489 2083.7204,-457.1778 2142.2765,-395.8003 2171.2352,-362.4412"/>
<polygon fill="#191970" stroke="#191970" points="2174.1033,-364.4727 2177.9448,-354.5988 2168.7843,-359.922 2174.1033,-364.4727"/>
</g>
<!-- Node55 -->
<g id="node48" class="node">
<title>Node55</title>
<g id="a_node48"><a xlink:href="icns_8_h.html" target="_top" xlink:title="amr&#45;wind/equation_systems\l/icns/icns.H">
<polygon fill="#ffffff" stroke="#000000" points="1732.7337,-458.5 1732.7337,-488.5 1871.7337,-488.5 1871.7337,-458.5 1732.7337,-458.5"/>
<text text-anchor="start" x="1740.7337" y="-476.5" font-family="Helvetica,sans-Serif" font-size="10.00" fill="#000000">amr&#45;wind/equation_systems</text>
<text text-anchor="middle" x="1802.2337" y="-465.5" font-family="Helvetica,sans-Serif" font-size="10.00" fill="#000000">/icns/icns.H</text>
</a>
</g>
</g>
<!-- Node0&#45;&gt;Node55 -->
<g id="edge106" class="edge">
<title>Node0&#45;&gt;Node55</title>
<path fill="none" stroke="#191970" d="M1802.2337,-525.3906C1802.2337,-518.2234 1802.2337,-508.0862 1802.2337,-498.671"/>
<polygon fill="#191970" stroke="#191970" points="1805.7338,-498.5446 1802.2337,-488.5446 1798.7338,-498.5446 1805.7338,-498.5446"/>
</g>
<!-- Node2 -->
<g id="node3" class="node">
<title>Node2</title>
<polygon fill="#ffffff" stroke="#bfbfbf" points="2051.7337,-.5 2051.7337,-19.5 2092.7337,-19.5 2092.7337,-.5 2051.7337,-.5"/>
<text text-anchor="middle" x="2072.2337" y="-7.5" font-family="Helvetica,sans-Serif" font-size="10.00" fill="#000000">string</text>
</g>
<!-- Node1&#45;&gt;Node2 -->
<g id="edge2" class="edge">
<title>Node1&#45;&gt;Node2</title>
<path fill="none" stroke="#191970" d="M1615.9996,-259.7781C1668.2658,-249.9686 1741.4482,-235.6427 1805.2337,-221 1812.4241,-219.3493 2057.2632,-159.4518 2062.2337,-154 2093.3607,-119.8588 2084.8415,-60.2099 2077.6356,-29.4986"/>
<polygon fill="#191970" stroke="#191970" points="2080.9734,-28.4226 2075.1161,-19.5941 2074.1895,-30.1483 2080.9734,-28.4226"/>
</g>
<!-- Node3 -->
<g id="node4" class="node">
<title>Node3</title>
<polygon fill="#ffffff" stroke="#bfbfbf" points="49.7337,-196 49.7337,-215 172.7337,-215 172.7337,-196 49.7337,-196"/>
<text text-anchor="middle" x="111.2337" y="-203" font-family="Helvetica,sans-Serif" font-size="10.00" fill="#000000">AMReX_MLTensorOp.H</text>
</g>
<!-- Node1&#45;&gt;Node3 -->
<g id="edge3" class="edge">
<title>Node1&#45;&gt;Node3</title>
<path fill="none" stroke="#191970" d="M1476.4463,-271.3625C1235.6797,-267.2025 440.7026,-251.443 187.2337,-221 178.8733,-219.9959 170.0626,-218.5575 161.5206,-216.9569"/>
<polygon fill="#191970" stroke="#191970" points="162.1465,-213.513 151.6593,-215.0198 160.7971,-220.3818 162.1465,-213.513"/>
</g>
<!-- Node4 -->
<g id="node5" class="node">
<title>Node4</title>
<g id="a_node5"><a xlink:href="_source_term_8_h.html" target="_top" xlink:title="amr&#45;wind/equation_systems\l/SourceTerm.H">
<polygon fill="#ffffff" stroke="#000000" points="278.7337,-190.5 278.7337,-220.5 417.7337,-220.5 417.7337,-190.5 278.7337,-190.5"/>
<text text-anchor="start" x="286.7337" y="-208.5" font-family="Helvetica,sans-Serif" font-size="10.00" fill="#000000">amr&#45;wind/equation_systems</text>
<text text-anchor="middle" x="348.2337" y="-197.5" font-family="Helvetica,sans-Serif" font-size="10.00" fill="#000000">/SourceTerm.H</text>
</a>
</g>
</g>
<!-- Node1&#45;&gt;Node4 -->
<g id="edge4" class="edge">
<title>Node1&#45;&gt;Node4</title>
<path fill="none" stroke="#191970" d="M1476.5008,-270.6671C1267.9317,-264.9708 650.1394,-246.4876 427.8571,-221.0582"/>
<polygon fill="#191970" stroke="#191970" points="428.2329,-217.5783 417.8913,-219.8808 427.4115,-224.53 428.2329,-217.5783"/>
</g>
<!-- Node5 -->
<g id="node6" class="node">
<title>Node5</title>
<g id="a_node6"><a xlink:href="_factory_8_h.html" target="_top" xlink:title="amr&#45;wind/core/Factory.H">
<polygon fill="#ffffff" stroke="#ff0000" points="15.7337,-62 15.7337,-81 140.7337,-81 140.7337,-62 15.7337,-62"/>
<text text-anchor="middle" x="78.2337" y="-69" font-family="Helvetica,sans-Serif" font-size="10.00" fill="#000000">amr&#45;wind/core/Factory.H</text>
</a>
</g>
</g>
<!-- Node4&#45;&gt;Node5 -->
<g id="edge5" class="edge">
<title>Node4&#45;&gt;Node5</title>
<path fill="none" stroke="#191970" d="M317.7861,-190.389C265.1833,-164.2824 158.0119,-111.0936 106.7669,-85.661"/>
<polygon fill="#191970" stroke="#191970" points="108.0988,-82.4147 97.5853,-81.1042 104.9869,-88.6849 108.0988,-82.4147"/>
</g>
<!-- Node11 -->
<g id="node8" class="node">
<title>Node11</title>
<g id="a_node8"><a xlink:href="_field_desc_types_8_h.html" target="_top" xlink:title="amr&#45;wind/core/FieldDescTypes.H">
<polygon fill="#ffffff" stroke="#000000" points="918.7337,-.5 918.7337,-19.5 1081.7337,-19.5 1081.7337,-.5 918.7337,-.5"/>
<text text-anchor="middle" x="1000.2337" y="-7.5" font-family="Helvetica,sans-Serif" font-size="10.00" fill="#000000">amr&#45;wind/core/FieldDescTypes.H</text>
</a>
</g>
</g>
<!-- Node4&#45;&gt;Node11 -->
<g id="edge7" class="edge">
<title>Node4&#45;&gt;Node11</title>
<path fill="none" stroke="#191970" d="M359.8311,-190.3829C367.511,-180.2282 377.7025,-166.4731 386.2337,-154 415.3306,-111.4587 404.1583,-82.7162 448.2337,-56 486.5315,-32.7859 761.367,-18.9994 908.2273,-13.2118"/>
<polygon fill="#191970" stroke="#191970" points="908.7188,-16.6954 918.575,-12.8089 908.4464,-9.7007 908.7188,-16.6954"/>
</g>
<!-- Node12 -->
<g id="node9" class="node">
<title>Node12</title>
<g id="a_node9"><a xlink:href="_field_utils_8_h.html" target="_top" xlink:title="amr&#45;wind/core/FieldUtils.H">
<polygon fill="#ffffff" stroke="#000000" points="457.7337,-62 457.7337,-81 590.7337,-81 590.7337,-62 457.7337,-62"/>
<text text-anchor="middle" x="524.2337" y="-69" font-family="Helvetica,sans-Serif" font-size="10.00" fill="#000000">amr&#45;wind/core/FieldUtils.H</text>
</a>
</g>
</g>
<!-- Node4&#45;&gt;Node12 -->
<g id="edge8" class="edge">
<title>Node4&#45;&gt;Node12</title>
<path fill="none" stroke="#191970" d="M381.7941,-190.3696C400.6748,-181.1235 424.2039,-168.3369 443.2337,-154 469.135,-134.4862 494.6051,-106.7438 509.872,-88.9312"/>
<polygon fill="#191970" stroke="#191970" points="512.7347,-90.9656 516.5042,-81.064 507.3827,-86.4538 512.7347,-90.9656"/>
</g>
<!-- Node13 -->
<g id="node10" class="node">
<title>Node13</title>
<polygon fill="#ffffff" stroke="#bfbfbf" points="605.2337,-.5 605.2337,-19.5 709.2337,-19.5 709.2337,-.5 605.2337,-.5"/>
<text text-anchor="middle" x="657.2337" y="-7.5" font-family="Helvetica,sans-Serif" font-size="10.00" fill="#000000">AMReX_MultiFab.H</text>
</g>
<!-- Node4&#45;&gt;Node13 -->
<g id="edge36" class="edge">
<title>Node4&#45;&gt;Node13</title>
<path fill="none" stroke="#191970" d="M352.2499,-190.38C361.2139,-159.7545 385.8859,-90.39 433.2337,-56 446.3176,-46.4968 533.4808,-30.4573 595.1289,-20.0509"/>
<polygon fill="#191970" stroke="#191970" points="595.8867,-23.4727 605.1704,-18.3673 594.7293,-16.5691 595.8867,-23.4727"/>
</g>
<!-- Node15 -->
<g id="node12" class="node">
<title>Node15</title>
<g id="a_node12"><a xlink:href="_field_repo_8_h.html" target="_top" xlink:title="amr&#45;wind/core/FieldRepo.H">
<polygon fill="#ffffff" stroke="#000000" points="1071.2337,-129 1071.2337,-148 1207.2337,-148 1207.2337,-129 1071.2337,-129"/>
<text text-anchor="middle" x="1139.2337" y="-136" font-family="Helvetica,sans-Serif" font-size="10.00" fill="#000000">amr&#45;wind/core/FieldRepo.H</text>
</a>
</g>
</g>
<!-- Node4&#45;&gt;Node15 -->
<g id="edge12" class="edge">
<title>Node4&#45;&gt;Node15</title>
<path fill="none" stroke="#191970" d="M417.903,-191.2105C420.7122,-190.7755 423.4972,-190.3693 426.2337,-190 655.5539,-159.0546 929.0497,-145.8673 1060.729,-140.986"/>
<polygon fill="#191970" stroke="#191970" points="1061.2456,-144.4695 1071.1114,-140.6075 1060.9905,-137.4742 1061.2456,-144.4695"/>
</g>
<!-- Node7 -->
<g id="node7" class="node">
<title>Node7</title>
<polygon fill="#ffffff" stroke="#bfbfbf" points="126.7337,-.5 126.7337,-19.5 209.7337,-19.5 209.7337,-.5 126.7337,-.5"/>
<text text-anchor="middle" x="168.2337" y="-7.5" font-family="Helvetica,sans-Serif" font-size="10.00" fill="#000000">unordered_map</text>
</g>
<!-- Node5&#45;&gt;Node7 -->
<g id="edge6" class="edge">
<title>Node5&#45;&gt;Node7</title>
<path fill="none" stroke="#191970" d="M92.2962,-61.8906C106.5623,-52.1421 128.8687,-36.8994 145.6209,-25.4521"/>
<polygon fill="#191970" stroke="#191970" points="147.9881,-28.0736 154.2699,-19.5419 144.0388,-22.2941 147.9881,-28.0736"/>
</g>
<!-- Node12&#45;&gt;Node11 -->
<g id="edge9" class="edge">
<title>Node12&#45;&gt;Node11</title>
<path fill="none" stroke="#191970" d="M590.9206,-62.8839C676.1272,-51.8751 823.6527,-32.8146 916.3834,-20.8336"/>
<polygon fill="#191970" stroke="#191970" points="917.1058,-24.2694 926.5749,-19.5168 916.2088,-17.3271 917.1058,-24.2694"/>
</g>
<!-- Node12&#45;&gt;Node13 -->
<g id="edge10" class="edge">
<title>Node12&#45;&gt;Node13</title>
<path fill="none" stroke="#191970" d="M545.0149,-61.8906C567.0731,-51.6908 602.1387,-35.4763 627.2006,-23.8875"/>
<polygon fill="#191970" stroke="#191970" points="628.9907,-26.9158 636.5983,-19.5419 626.0527,-20.5622 628.9907,-26.9158"/>
</g>
<!-- Node14 -->
<g id="node11" class="node">
<title>Node14</title>
<polygon fill="#ffffff" stroke="#bfbfbf" points="357.2337,-.5 357.2337,-19.5 473.2337,-19.5 473.2337,-.5 357.2337,-.5"/>
<text text-anchor="middle" x="415.2337" y="-7.5" font-family="Helvetica,sans-Serif" font-size="10.00" fill="#000000">AMReX_Interpolater.H</text>
</g>
<!-- Node12&#45;&gt;Node14 -->
<g id="edge11" class="edge">
<title>Node12&#45;&gt;Node14</title>
<path fill="none" stroke="#191970" d="M507.2024,-61.8906C489.4447,-51.8713 461.4006,-36.0483 440.9454,-24.5071"/>
<polygon fill="#191970" stroke="#191970" points="442.5746,-21.4077 432.1453,-19.5419 439.1348,-27.5042 442.5746,-21.4077"/>
</g>
<!-- Node15&#45;&gt;Node2 -->
<g id="edge13" class="edge">
<title>Node15&#45;&gt;Node2</title>
<path fill="none" stroke="#191970" d="M1207.5417,-130.4422C1228.8914,-127.9815 1252.5348,-125.3156 1274.2337,-123 1436.3227,-105.7026 1478.914,-116.4899 1639.2337,-87 1690.8739,-77.5011 1701.8197,-66.6558 1753.2337,-56 1857.9813,-34.2906 1984.1852,-19.3519 2041.3812,-13.1786"/>
<polygon fill="#191970" stroke="#191970" points="2041.9827,-16.6344 2051.5557,-12.0947 2041.2412,-9.6738 2041.9827,-16.6344"/>
</g>
<!-- Node15&#45;&gt;Node7 -->
<g id="edge14" class="edge">
<title>Node15&#45;&gt;Node7</title>
<path fill="none" stroke="#191970" d="M1071.0945,-135.8826C856.1154,-127.4878 205.3246,-100.9737 188.2337,-87 171.577,-73.3814 167.7861,-47.8253 167.3708,-29.9025"/>
<polygon fill="#191970" stroke="#191970" points="170.8729,-29.7014 167.4736,-19.6667 163.8733,-29.631 170.8729,-29.7014"/>
</g>
<!-- Node15&#45;&gt;Node11 -->
<g id="edge15" class="edge">
<title>Node15&#45;&gt;Node11</title>
<path fill="none" stroke="#191970" d="M1071.2077,-134.2553C965.7933,-126.9763 772.8865,-110.5832 752.2337,-87 743.1566,-76.635 743.4244,-66.5935 752.2337,-56 772.1253,-32.0795 846.3365,-20.5415 908.4403,-15.0096"/>
<polygon fill="#191970" stroke="#191970" points="909.0199,-18.4731 918.6883,-14.1404 908.4283,-11.4981 909.0199,-18.4731"/>
</g>
<!-- Node15&#45;&gt;Node12 -->
<g id="edge16" class="edge">
<title>Node15&#45;&gt;Node12</title>
<path fill="none" stroke="#191970" d="M1070.9756,-131.9806C975.2878,-122.7121 795.8611,-104.8606 643.2337,-87 629.5795,-85.4022 615.0582,-83.5983 601.024,-81.8007"/>
<polygon fill="#191970" stroke="#191970" points="601.276,-78.3043 590.9103,-80.4959 600.3803,-85.2467 601.276,-78.3043"/>
</g>
<!-- Node15&#45;&gt;Node13 -->
<g id="edge34" class="edge">
<title>Node15&#45;&gt;Node13</title>
<path fill="none" stroke="#191970" d="M1070.8694,-134.5645C973.187,-128.1108 799.182,-113.2922 742.2337,-87 712.7158,-73.372 686.273,-45.8039 670.9908,-27.6222"/>
<polygon fill="#191970" stroke="#191970" points="673.4487,-25.0976 664.4206,-19.5529 668.0205,-29.5174 673.4487,-25.0976"/>
</g>
<!-- Node16 -->
<g id="node13" class="node">
<title>Node16</title>
<g id="a_node13"><a xlink:href="_field_8_h.html" target="_top" xlink:title="amr&#45;wind/core/Field.H">
<polygon fill="#ffffff" stroke="#ff0000" points="1167.7337,-62 1167.7337,-81 1280.7337,-81 1280.7337,-62 1167.7337,-62"/>
<text text-anchor="middle" x="1224.2337" y="-69" font-family="Helvetica,sans-Serif" font-size="10.00" fill="#000000">amr&#45;wind/core/Field.H</text>
</a>
</g>
</g>
<!-- Node15&#45;&gt;Node16 -->
<g id="edge17" class="edge">
<title>Node15&#45;&gt;Node16</title>
<path fill="none" stroke="#191970" d="M1151.4121,-128.9005C1165.1721,-118.0544 1187.7802,-100.2339 1204.1599,-87.3229"/>
<polygon fill="#191970" stroke="#191970" points="1206.3909,-90.0209 1212.0778,-81.0817 1202.0576,-84.5234 1206.3909,-90.0209"/>
</g>
<!-- Node22 -->
<g id="node15" class="node">
<title>Node22</title>
<g id="a_node15"><a xlink:href="_int_field_8_h.html" target="_top" xlink:title="amr&#45;wind/core/IntField.H">
<polygon fill="#ffffff" stroke="#000000" points="1506.2337,-62 1506.2337,-81 1630.2337,-81 1630.2337,-62 1506.2337,-62"/>
<text text-anchor="middle" x="1568.2337" y="-69" font-family="Helvetica,sans-Serif" font-size="10.00" fill="#000000">amr&#45;wind/core/IntField.H</text>
</a>
</g>
</g>
<!-- Node15&#45;&gt;Node22 -->
<g id="edge23" class="edge">
<title>Node15&#45;&gt;Node22</title>
<path fill="none" stroke="#191970" d="M1200.2433,-128.9717C1278.5211,-116.7465 1414.0689,-95.577 1496.994,-82.626"/>
<polygon fill="#191970" stroke="#191970" points="1497.7474,-86.0509 1507.0876,-81.0496 1496.6672,-79.1347 1497.7474,-86.0509"/>
</g>
<!-- Node23 -->
<g id="node16" class="node">
<title>Node23</title>
<polygon fill="#ffffff" stroke="#bfbfbf" points="1175.7337,-.5 1175.7337,-19.5 1282.7337,-19.5 1282.7337,-.5 1175.7337,-.5"/>
<text text-anchor="middle" x="1229.2337" y="-7.5" font-family="Helvetica,sans-Serif" font-size="10.00" fill="#000000">AMReX_iMultiFab.H</text>
</g>
<!-- Node15&#45;&gt;Node23 -->
<g id="edge35" class="edge">
<title>Node15&#45;&gt;Node23</title>
<path fill="none" stroke="#191970" d="M1139.3403,-128.9244C1139.9716,-112.5268 1143.279,-78.6523 1159.2337,-56 1168.7588,-42.4763 1183.6397,-31.8887 1197.2361,-24.2981"/>
<polygon fill="#191970" stroke="#191970" points="1199.1248,-27.2601 1206.3623,-19.5226 1195.8793,-21.0579 1199.1248,-27.2601"/>
</g>
<!-- Node24 -->
<g id="node17" class="node">
<title>Node24</title>
<g id="a_node17"><a xlink:href="_scratch_field_8_h.html" target="_top" xlink:title="amr&#45;wind/core/ScratchField.H">
<polygon fill="#ffffff" stroke="#ff0000" points="927.2337,-62 927.2337,-81 1073.2337,-81 1073.2337,-62 927.2337,-62"/>
<text text-anchor="middle" x="1000.2337" y="-69" font-family="Helvetica,sans-Serif" font-size="10.00" fill="#000000">amr&#45;wind/core/ScratchField.H</text>
</a>
</g>
</g>
<!-- Node15&#45;&gt;Node24 -->
<g id="edge27" class="edge">
<title>Node15&#45;&gt;Node24</title>
<path fill="none" stroke="#191970" d="M1119.3184,-128.9005C1095.7846,-117.5569 1056.4236,-98.5844 1029.4408,-85.5783"/>
<polygon fill="#191970" stroke="#191970" points="1030.6399,-82.2709 1020.112,-81.0817 1027.6004,-88.5766 1030.6399,-82.2709"/>
</g>
<!-- Node26 -->
<g id="node20" class="node">
<title>Node26</title>
<polygon fill="#ffffff" stroke="#bfbfbf" points="1762.2337,-62 1762.2337,-81 1868.2337,-81 1868.2337,-62 1762.2337,-62"/>
<text text-anchor="middle" x="1815.2337" y="-69" font-family="Helvetica,sans-Serif" font-size="10.00" fill="#000000">AMReX_AmrCore.H</text>
</g>
<!-- Node15&#45;&gt;Node26 -->
<g id="edge33" class="edge">
<title>Node15&#45;&gt;Node26</title>
<path fill="none" stroke="#191970" d="M1207.5115,-130.1432C1228.8598,-127.6694 1252.5101,-125.0713 1274.2337,-123 1484.5532,-102.9468 1539.3826,-118.901 1748.2337,-87 1754.8946,-85.9826 1761.8749,-84.6604 1768.7101,-83.2173"/>
<polygon fill="#191970" stroke="#191970" points="1769.558,-86.6145 1778.5665,-81.038 1768.0467,-79.7796 1769.558,-86.6145"/>
</g>
<!-- Node16&#45;&gt;Node2 -->
<g id="edge18" class="edge">
<title>Node16&#45;&gt;Node2</title>
<path fill="none" stroke="#191970" d="M1259.9854,-61.9228C1269.7317,-59.6362 1280.3337,-57.4427 1290.2337,-56 1439.3067,-34.2755 1916.0197,-15.7015 2041.648,-11.095"/>
<polygon fill="#191970" stroke="#191970" points="2041.8552,-14.5899 2051.7211,-10.7281 2041.6003,-7.5945 2041.8552,-14.5899"/>
</g>
<!-- Node16&#45;&gt;Node7 -->
<g id="edge19" class="edge">
<title>Node16&#45;&gt;Node7</title>
<path fill="none" stroke="#191970" d="M1167.6531,-64.4443C1141.6673,-61.4302 1110.4249,-58.1242 1082.2337,-56 702.7007,-27.4023 602.1807,-64.4199 219.8493,-19.8753"/>
<polygon fill="#191970" stroke="#191970" points="220.2411,-16.3973 209.9007,-18.7053 219.4235,-23.3494 220.2411,-16.3973"/>
</g>
<!-- Node16&#45;&gt;Node11 -->
<g id="edge22" class="edge">
<title>Node16&#45;&gt;Node11</title>
<path fill="none" stroke="#191970" d="M1189.2337,-61.8906C1150.2749,-51.1944 1087.2243,-33.8836 1044.7766,-22.2294"/>
<polygon fill="#191970" stroke="#191970" points="1045.5577,-18.8144 1034.9879,-19.5419 1043.7044,-25.5646 1045.5577,-18.8144"/>
</g>
<!-- Node16&#45;&gt;Node13 -->
<g id="edge20" class="edge">
<title>Node16&#45;&gt;Node13</title>
<path fill="none" stroke="#191970" d="M1167.5741,-65.3034C1141.5723,-62.4628 1110.3392,-59.0549 1082.2337,-56 953.1515,-41.9694 802.0056,-25.6319 719.2408,-16.6935"/>
<polygon fill="#191970" stroke="#191970" points="719.5661,-13.2084 709.2481,-15.6144 718.8145,-20.1679 719.5661,-13.2084"/>
</g>
<!-- Node18 -->
<g id="node14" class="node">
<title>Node18</title>
<polygon fill="#ffffff" stroke="#bfbfbf" points="1452.7337,-.5 1452.7337,-19.5 1537.7337,-19.5 1537.7337,-.5 1452.7337,-.5"/>
<text text-anchor="middle" x="1495.2337" y="-7.5" font-family="Helvetica,sans-Serif" font-size="10.00" fill="#000000">AMReX_Gpu.H</text>
</g>
<!-- Node16&#45;&gt;Node18 -->
<g id="edge21" class="edge">
<title>Node16&#45;&gt;Node18</title>
<path fill="none" stroke="#191970" d="M1264.7076,-61.9278C1273.1399,-59.9523 1281.9741,-57.8965 1290.2337,-56 1341.9602,-44.1229 1401.1113,-30.8869 1442.5372,-21.6736"/>
<polygon fill="#191970" stroke="#191970" points="1443.4061,-25.0659 1452.4086,-19.4796 1441.8874,-18.2327 1443.4061,-25.0659"/>
</g>
<!-- Node22&#45;&gt;Node2 -->
<g id="edge24" class="edge">
<title>Node22&#45;&gt;Node2</title>
<path fill="none" stroke="#191970" d="M1630.2865,-63.9281C1739.0677,-50.6542 1960.3393,-23.6538 2041.4997,-13.7503"/>
<polygon fill="#191970" stroke="#191970" points="2042.059,-17.2081 2051.5614,-12.5225 2041.211,-10.2596 2042.059,-17.2081"/>
</g>
<!-- Node22&#45;&gt;Node11 -->
<g id="edge25" class="edge">
<title>Node22&#45;&gt;Node11</title>
<path fill="none" stroke="#191970" d="M1525.7693,-61.9968C1514.8794,-59.792 1503.1564,-57.6196 1492.2337,-56 1353.3747,-35.4101 1191.02,-22.3481 1091.9367,-15.6027"/>
<polygon fill="#191970" stroke="#191970" points="1092.1683,-12.1105 1081.9556,-14.9301 1091.6975,-19.0947 1092.1683,-12.1105"/>
</g>
<!-- Node22&#45;&gt;Node23 -->
<g id="edge26" class="edge">
<title>Node22&#45;&gt;Node23</title>
<path fill="none" stroke="#191970" d="M1522.4592,-61.9483C1512.5054,-59.9317 1502.0245,-57.8543 1492.2337,-56 1424.3112,-43.1363 1346.2688,-29.6488 1292.9497,-20.63"/>
<polygon fill="#191970" stroke="#191970" points="1293.4011,-17.1568 1282.958,-18.9433 1292.2359,-24.0591 1293.4011,-17.1568"/>
</g>
<!-- Node24&#45;&gt;Node2 -->
<g id="edge28" class="edge">
<title>Node24&#45;&gt;Node2</title>
<path fill="none" stroke="#191970" d="M1073.3926,-63.6445C1100.3521,-60.9406 1131.1592,-58.0745 1159.2337,-56 1504.9936,-30.4507 1925.4822,-15.0094 2041.3884,-11.0295"/>
<polygon fill="#191970" stroke="#191970" points="2041.7666,-14.5187 2051.6416,-10.6802 2041.5282,-7.5228 2041.7666,-14.5187"/>
</g>
<!-- Node24&#45;&gt;Node11 -->
<g id="edge29" class="edge">
<title>Node24&#45;&gt;Node11</title>
<path fill="none" stroke="#191970" d="M1000.2337,-61.8906C1000.2337,-53.3657 1000.2337,-40.6392 1000.2337,-29.9235"/>
<polygon fill="#191970" stroke="#191970" points="1003.7338,-29.7448 1000.2337,-19.7449 996.7338,-29.7449 1003.7338,-29.7448"/>
</g>
<!-- Node24&#45;&gt;Node13 -->
<g id="edge30" class="edge">
<title>Node24&#45;&gt;Node13</title>
<path fill="none" stroke="#191970" d="M947.0163,-61.9581C885.5733,-50.9414 784.6375,-32.8435 719.5733,-21.1775"/>
<polygon fill="#191970" stroke="#191970" points="719.9112,-17.6824 709.4504,-19.3625 718.6757,-24.5725 719.9112,-17.6824"/>
</g>
<!-- Node21 -->
<g id="node18" class="node">
<title>Node21</title>
<polygon fill="#ffffff" stroke="#bfbfbf" points="491.7337,-.5 491.7337,-19.5 586.7337,-19.5 586.7337,-.5 491.7337,-.5"/>
<text text-anchor="middle" x="539.2337" y="-7.5" font-family="Helvetica,sans-Serif" font-size="10.00" fill="#000000">AMReX_Vector.H</text>
</g>
<!-- Node24&#45;&gt;Node21 -->
<g id="edge31" class="edge">
<title>Node24&#45;&gt;Node21</title>
<path fill="none" stroke="#191970" d="M926.9408,-62.005C911.5147,-60.0144 895.3401,-57.9331 880.2337,-56 757.2349,-40.2606 723.7248,-39.0514 596.8974,-20.0405"/>
<polygon fill="#191970" stroke="#191970" points="597.2016,-16.5469 586.7918,-18.5179 596.1586,-23.4688 597.2016,-16.5469"/>
</g>
<!-- Node25 -->
<g id="node19" class="node">
<title>Node25</title>
<polygon fill="#ffffff" stroke="#bfbfbf" points="1632.2337,-.5 1632.2337,-19.5 1760.2337,-19.5 1760.2337,-.5 1632.2337,-.5"/>
<text text-anchor="middle" x="1696.2337" y="-7.5" font-family="Helvetica,sans-Serif" font-size="10.00" fill="#000000">AMReX_PhysBCFunct.H</text>
</g>
<!-- Node24&#45;&gt;Node25 -->
<g id="edge32" class="edge">
<title>Node24&#45;&gt;Node25</title>
<path fill="none" stroke="#191970" d="M1073.4371,-64.1826C1100.4013,-61.5351 1131.1999,-58.567 1159.2337,-56 1324.4846,-40.8681 1518.4888,-24.6258 1622.1038,-16.0735"/>
<polygon fill="#191970" stroke="#191970" points="1622.4712,-19.5552 1632.1497,-15.2451 1621.8959,-12.5789 1622.4712,-19.5552"/>
</g>
<!-- Node27&#45;&gt;Node12 -->
<g id="edge38" class="edge">
<title>Node27&#45;&gt;Node12</title>
<path fill="none" stroke="#191970" d="M1672.639,-259.1663C1667.7717,-258.3853 1662.9339,-257.6532 1658.2337,-257 1415.9335,-223.3272 761.8378,-295.4262 562.2337,-154 541.4858,-139.2995 531.7988,-110.3861 527.4703,-90.9972"/>
<polygon fill="#191970" stroke="#191970" points="530.8911,-90.2523 525.5391,-81.1086 524.0209,-91.5941 530.8911,-90.2523"/>
</g>
<!-- Node27&#45;&gt;Node28 -->
<g id="edge39" class="edge">
<title>Node27&#45;&gt;Node28</title>
<path fill="none" stroke="#191970" d="M1802.3781,-257.4639C1843.1828,-247.2627 1897.2749,-233.7397 1940.049,-223.0462"/>
<polygon fill="#191970" stroke="#191970" points="1940.9744,-226.4226 1949.8269,-220.6017 1939.2766,-219.6316 1940.9744,-226.4226"/>
</g>
<!-- Node40 -->
<g id="node34" class="node">
<title>Node40</title>
<g id="a_node34"><a xlink:href="_turbulence_model_8_h.html" target="_top" xlink:title="amr&#45;wind/turbulence\l/TurbulenceModel.H">
<polygon fill="#ffffff" stroke="#000000" points="67.2337,-123.5 67.2337,-153.5 171.2337,-153.5 171.2337,-123.5 67.2337,-123.5"/>
<text text-anchor="start" x="75.2337" y="-141.5" font-family="Helvetica,sans-Serif" font-size="10.00" fill="#000000">amr&#45;wind/turbulence</text>
<text text-anchor="middle" x="119.2337" y="-130.5" font-family="Helvetica,sans-Serif" font-size="10.00" fill="#000000">/TurbulenceModel.H</text>
</a>
</g>
</g>
<!-- Node27&#45;&gt;Node40 -->
<g id="edge65" class="edge">
<title>Node27&#45;&gt;Node40</title>
<path fill="none" stroke="#191970" d="M1672.4511,-262.0237C1656.9392,-260.039 1640.5536,-258.2083 1625.2337,-257 1470.1085,-244.7648 371.7483,-273.4118 225.2337,-221 216.0409,-217.7115 173.5133,-183.4201 145.1985,-160.0957"/>
<polygon fill="#191970" stroke="#191970" points="147.2133,-157.2202 137.2747,-153.5494 142.7549,-162.6168 147.2133,-157.2202"/>
</g>
<!-- Node41 -->
<g id="node35" class="node">
<title>Node41</title>
<g id="a_node35"><a xlink:href="_i_o_manager_8_h.html" target="_top" xlink:title="amr&#45;wind/utilities\l/IOManager.H">
<polygon fill="#ffffff" stroke="#000000" points="197.2337,-56.5 197.2337,-86.5 287.2337,-86.5 287.2337,-56.5 197.2337,-56.5"/>
<text text-anchor="start" x="205.2337" y="-74.5" font-family="Helvetica,sans-Serif" font-size="10.00" fill="#000000">amr&#45;wind/utilities</text>
<text text-anchor="middle" x="242.2337" y="-63.5" font-family="Helvetica,sans-Serif" font-size="10.00" fill="#000000">/IOManager.H</text>
</a>
</g>
</g>
<!-- Node27&#45;&gt;Node41 -->
<g id="edge69" class="edge">
<title>Node27&#45;&gt;Node41</title>
<path fill="none" stroke="#191970" d="M1672.4503,-262.0333C1656.9384,-260.0481 1640.5531,-258.2147 1625.2337,-257 1550.1096,-251.0432 326.4166,-270.0839 269.2337,-221 233.8386,-190.6181 234.4628,-130.8614 238.2313,-96.8183"/>
<polygon fill="#191970" stroke="#191970" points="241.7234,-97.1026 239.5237,-86.7387 234.7803,-96.2123 241.7234,-97.1026"/>
</g>
<!-- Node43 -->
<g id="node37" class="node">
<title>Node43</title>
<g id="a_node37"><a xlink:href="_c_f_d_sim_8_h.html" target="_top" xlink:title="amr&#45;wind/CFDSim.H">
<polygon fill="#ffffff" stroke="#000000" points="1688.2337,-196 1688.2337,-215 1796.2337,-215 1796.2337,-196 1688.2337,-196"/>
<text text-anchor="middle" x="1742.2337" y="-203" font-family="Helvetica,sans-Serif" font-size="10.00" fill="#000000">amr&#45;wind/CFDSim.H</text>
</a>
</g>
</g>
<!-- Node27&#45;&gt;Node43 -->
<g id="edge74" class="edge">
<title>Node27&#45;&gt;Node43</title>
<path fill="none" stroke="#191970" d="M1742.2337,-257.2967C1742.2337,-247.7699 1742.2337,-235.3954 1742.2337,-225.1306"/>
<polygon fill="#191970" stroke="#191970" points="1745.7338,-225.0549 1742.2337,-215.055 1738.7338,-225.055 1745.7338,-225.0549"/>
</g>
<!-- Node47 -->
<g id="node40" class="node">
<title>Node47</title>
<polygon fill="#ffffff" stroke="#bfbfbf" points="2098.2337,-196 2098.2337,-215 2214.2337,-215 2214.2337,-196 2098.2337,-196"/>
<text text-anchor="middle" x="2156.2337" y="-203" font-family="Helvetica,sans-Serif" font-size="10.00" fill="#000000">AMReX_ParmParse.H</text>
</g>
<!-- Node27&#45;&gt;Node47 -->
<g id="edge87" class="edge">
<title>Node27&#45;&gt;Node47</title>
<path fill="none" stroke="#191970" d="M1811.966,-263.8188C1882.2308,-254.6801 1993.6436,-239.1205 2089.2337,-221 2095.0951,-219.8889 2101.221,-218.621 2107.2849,-217.2998"/>
<polygon fill="#191970" stroke="#191970" points="2108.378,-220.6419 2117.3735,-215.0445 2106.8508,-213.8105 2108.378,-220.6419"/>
</g>
<!-- Node28&#45;&gt;Node2 -->
<g id="edge40" class="edge">
<title>Node28&#45;&gt;Node2</title>
<path fill="none" stroke="#191970" d="M2054.6137,-190.2952C2072.6286,-182.0964 2092.2177,-170.2553 2105.2337,-154 2132.9645,-119.3677 2142.4571,-96.4512 2124.2337,-56 2118.664,-43.6369 2107.9474,-33.2563 2097.6831,-25.5033"/>
<polygon fill="#191970" stroke="#191970" points="2099.4886,-22.4948 2089.2904,-19.623 2095.4719,-28.2277 2099.4886,-22.4948"/>
</g>
<!-- Node28&#45;&gt;Node15 -->
<g id="edge47" class="edge">
<title>Node28&#45;&gt;Node15</title>
<path fill="none" stroke="#191970" d="M1940.6659,-191.958C1935.7922,-191.2266 1930.9457,-190.5625 1926.2337,-190 1638.0606,-155.5987 1563.4115,-178.5627 1274.2337,-154 1255.8873,-152.4417 1236.1798,-150.3928 1217.6462,-148.2975"/>
<polygon fill="#191970" stroke="#191970" points="1217.8206,-144.7946 1207.4867,-147.1314 1217.0224,-151.7489 1217.8206,-144.7946"/>
</g>
<!-- Node29 -->
<g id="node23" class="node">
<title>Node29</title>
<g id="a_node23"><a xlink:href="_p_d_e_fields_8_h.html" target="_top" xlink:title="amr&#45;wind/equation_systems\l/PDEFields.H">
<polygon fill="#ffffff" stroke="#000000" points="2363.7337,-56.5 2363.7337,-86.5 2502.7337,-86.5 2502.7337,-56.5 2363.7337,-56.5"/>
<text text-anchor="start" x="2371.7337" y="-74.5" font-family="Helvetica,sans-Serif" font-size="10.00" fill="#000000">amr&#45;wind/equation_systems</text>
<text text-anchor="middle" x="2433.2337" y="-63.5" font-family="Helvetica,sans-Serif" font-size="10.00" fill="#000000">/PDEFields.H</text>
</a>
</g>
</g>
<!-- Node28&#45;&gt;Node29 -->
<g id="edge41" class="edge">
<title>Node28&#45;&gt;Node29</title>
<path fill="none" stroke="#191970" d="M2079.9833,-191.2603C2136.0311,-179.549 2210.0465,-163.4026 2239.2337,-154 2293.9896,-136.3605 2354.6403,-109.2813 2393.3055,-91.0036"/>
<polygon fill="#191970" stroke="#191970" points="2395.1204,-94.0161 2402.645,-86.5575 2392.1115,-87.6957 2395.1204,-94.0161"/>
</g>
<!-- Node31 -->
<g id="node25" class="node">
<title>Node31</title>
<g id="a_node25"><a xlink:href="_sim_time_8_h.html" target="_top" xlink:title="amr&#45;wind/core/SimTime.H">
<polygon fill="#ffffff" stroke="#000000" points="2214.7337,-62 2214.7337,-81 2345.7337,-81 2345.7337,-62 2214.7337,-62"/>
<text text-anchor="middle" x="2280.2337" y="-69" font-family="Helvetica,sans-Serif" font-size="10.00" fill="#000000">amr&#45;wind/core/SimTime.H</text>
</a>
</g>
</g>
<!-- Node28&#45;&gt;Node31 -->
<g id="edge43" class="edge">
<title>Node28&#45;&gt;Node31</title>
<path fill="none" stroke="#191970" d="M2076.3768,-190.4551C2129.7239,-177.9778 2197.7204,-161.1655 2209.2337,-154 2235.4475,-137.6852 2257.1226,-108.5881 2269.3738,-89.6718"/>
<polygon fill="#191970" stroke="#191970" points="2272.4201,-91.4015 2274.7527,-81.0666 2266.4843,-87.6911 2272.4201,-91.4015"/>
</g>
<!-- Node35 -->
<g id="node29" class="node">
<title>Node35</title>
<g id="a_node29"><a xlink:href="_field_fill_patch_ops_8_h.html" target="_top" xlink:title="amr&#45;wind/core/FieldFillPatch\lOps.H">
<polygon fill="#ffffff" stroke="#000000" points="1755.2337,-123.5 1755.2337,-153.5 1895.2337,-153.5 1895.2337,-123.5 1755.2337,-123.5"/>
<text text-anchor="start" x="1763.2337" y="-141.5" font-family="Helvetica,sans-Serif" font-size="10.00" fill="#000000">amr&#45;wind/core/FieldFillPatch</text>
<text text-anchor="middle" x="1825.2337" y="-130.5" font-family="Helvetica,sans-Serif" font-size="10.00" fill="#000000">Ops.H</text>
</a>
</g>
</g>
<!-- Node28&#45;&gt;Node35 -->
<g id="edge48" class="edge">
<title>Node28&#45;&gt;Node35</title>
<path fill="none" stroke="#191970" d="M1968.7161,-190.4639C1941.4382,-180.5849 1905.5581,-167.5905 1876.5022,-157.0675"/>
<polygon fill="#191970" stroke="#191970" points="1877.5266,-153.7161 1866.9324,-153.6017 1875.1429,-160.2978 1877.5266,-153.7161"/>
</g>
<!-- Node37 -->
<g id="node31" class="node">
<title>Node37</title>
<g id="a_node31"><a xlink:href="_field_b_c_ops_8_h.html" target="_top" xlink:title="amr&#45;wind/core/FieldBCOps.H">
<polygon fill="#ffffff" stroke="#000000" points="1282.7337,-129 1282.7337,-148 1427.7337,-148 1427.7337,-129 1282.7337,-129"/>
<text text-anchor="middle" x="1355.2337" y="-136" font-family="Helvetica,sans-Serif" font-size="10.00" fill="#000000">amr&#45;wind/core/FieldBCOps.H</text>
</a>
</g>
</g>
<!-- Node28&#45;&gt;Node37 -->
<g id="edge58" class="edge">
<title>Node28&#45;&gt;Node37</title>
<path fill="none" stroke="#191970" d="M1940.6418,-192.1461C1935.7738,-191.3699 1930.9352,-190.6444 1926.2337,-190 1753.3877,-166.3099 1549.5529,-150.9176 1438.192,-143.566"/>
<polygon fill="#191970" stroke="#191970" points="1438.2439,-140.062 1428.0366,-142.901 1437.7865,-147.047 1438.2439,-140.062"/>
</g>
<!-- Node30 -->
<g id="node24" class="node">
<title>Node30</title>
<polygon fill="#ffffff" stroke="#bfbfbf" points="2508.7337,-.5 2508.7337,-19.5 2553.7337,-19.5 2553.7337,-.5 2508.7337,-.5"/>
<text text-anchor="middle" x="2531.2337" y="-7.5" font-family="Helvetica,sans-Serif" font-size="10.00" fill="#000000">iosfwd</text>
</g>
<!-- Node29&#45;&gt;Node30 -->
<g id="edge42" class="edge">
<title>Node29&#45;&gt;Node30</title>
<path fill="none" stroke="#191970" d="M2457.2072,-56.4554C2472.4112,-46.9141 2492.0096,-34.6151 2507.2212,-25.0691"/>
<polygon fill="#191970" stroke="#191970" points="2509.4373,-27.8105 2516.0471,-19.5303 2505.7164,-21.8813 2509.4373,-27.8105"/>
</g>
<!-- Node32 -->
<g id="node26" class="node">
<title>Node32</title>
<polygon fill="#ffffff" stroke="#bfbfbf" points="2124.7337,-.5 2124.7337,-19.5 2217.7337,-19.5 2217.7337,-.5 2124.7337,-.5"/>
<text text-anchor="middle" x="2171.2337" y="-7.5" font-family="Helvetica,sans-Serif" font-size="10.00" fill="#000000">AMReX_REAL.H</text>
</g>
<!-- Node31&#45;&gt;Node32 -->
<g id="edge44" class="edge">
<title>Node31&#45;&gt;Node32</title>
<path fill="none" stroke="#191970" d="M2263.2024,-61.8906C2245.4447,-51.8713 2217.4006,-36.0483 2196.9454,-24.5071"/>
<polygon fill="#191970" stroke="#191970" points="2198.5746,-21.4077 2188.1453,-19.5419 2195.1348,-27.5042 2198.5746,-21.4077"/>
</g>
<!-- Node33 -->
<g id="node27" class="node">
<title>Node33</title>
<polygon fill="#ffffff" stroke="#bfbfbf" points="2236.2337,-.5 2236.2337,-19.5 2362.2337,-19.5 2362.2337,-.5 2236.2337,-.5"/>
<text text-anchor="middle" x="2299.2337" y="-7.5" font-family="Helvetica,sans-Serif" font-size="10.00" fill="#000000">AMReX_GpuQualifiers.H</text>
</g>
<!-- Node31&#45;&gt;Node33 -->
<g id="edge45" class="edge">
<title>Node31&#45;&gt;Node33</title>
<path fill="none" stroke="#191970" d="M2283.2024,-61.8906C2285.8639,-53.276 2289.8508,-40.3708 2293.1828,-29.5858"/>
<polygon fill="#191970" stroke="#191970" points="2296.6153,-30.3324 2296.2231,-19.7449 2289.9272,-28.2661 2296.6153,-30.3324"/>
</g>
<!-- Node34 -->
<g id="node28" class="node">
<title>Node34</title>
<polygon fill="#ffffff" stroke="#bfbfbf" points="2380.2337,-.5 2380.2337,-19.5 2490.2337,-19.5 2490.2337,-.5 2380.2337,-.5"/>
<text text-anchor="middle" x="2435.2337" y="-7.5" font-family="Helvetica,sans-Serif" font-size="10.00" fill="#000000">AMReX_Extension.H</text>
</g>
<!-- Node31&#45;&gt;Node34 -->
<g id="edge46" class="edge">
<title>Node31&#45;&gt;Node34</title>
<path fill="none" stroke="#191970" d="M2304.4524,-61.8906C2330.6143,-51.5103 2372.4766,-34.9004 2401.7724,-23.2766"/>
<polygon fill="#191970" stroke="#191970" points="2403.1807,-26.4833 2411.185,-19.5419 2400.5991,-19.9767 2403.1807,-26.4833"/>
</g>
<!-- Node35&#45;&gt;Node11 -->
<g id="edge51" class="edge">
<title>Node35&#45;&gt;Node11</title>
<path fill="none" stroke="#191970" d="M1755.1124,-132.5152C1665.4415,-124.1715 1515.6113,-107.7099 1464.2337,-87 1442.3824,-78.1919 1443.2268,-64.4478 1421.2337,-56 1391.2939,-44.4998 1206.5919,-27.307 1092.0011,-17.5238"/>
<polygon fill="#191970" stroke="#191970" points="1092.084,-14.0183 1081.8235,-16.6586 1091.4911,-20.9932 1092.084,-14.0183"/>
</g>
<!-- Node35&#45;&gt;Node12 -->
<g id="edge52" class="edge">
<title>Node35&#45;&gt;Node12</title>
<path fill="none" stroke="#191970" d="M1755.2207,-135.623C1583.9921,-128.4816 1130.4249,-108.9289 752.2337,-87 701.8918,-84.081 645.3368,-80.2398 601.1471,-77.1116"/>
<polygon fill="#191970" stroke="#191970" points="601.2775,-73.6121 591.0545,-76.3944 600.7812,-80.5945 601.2775,-73.6121"/>
</g>
<!-- Node35&#45;&gt;Node13 -->
<g id="edge54" class="edge">
<title>Node35&#45;&gt;Node13</title>
<path fill="none" stroke="#191970" d="M1754.9712,-135.6967C1548.7244,-127.311 957.0323,-102.0712 918.2337,-87 897.9167,-79.108 899.9176,-65.3598 880.2337,-56 829.2874,-31.7748 765.8438,-20.2638 719.6678,-14.8199"/>
<polygon fill="#191970" stroke="#191970" points="719.8264,-11.3159 709.5,-13.6859 719.0505,-18.2728 719.8264,-11.3159"/>
</g>
<!-- Node35&#45;&gt;Node16 -->
<g id="edge49" class="edge">
<title>Node35&#45;&gt;Node16</title>
<path fill="none" stroke="#191970" d="M1755.1649,-134.7732C1652.5813,-128.6356 1455.7288,-114.2711 1290.2337,-87 1283.9842,-85.9702 1277.4457,-84.6884 1271.016,-83.3061"/>
<polygon fill="#191970" stroke="#191970" points="1271.5823,-79.8463 1261.0587,-81.073 1270.0504,-86.6766 1271.5823,-79.8463"/>
</g>
<!-- Node35&#45;&gt;Node25 -->
<g id="edge56" class="edge">
<title>Node35&#45;&gt;Node25</title>
<path fill="none" stroke="#191970" d="M1846.3929,-123.3058C1867.5001,-106.2884 1894.4866,-78.1861 1877.2337,-56 1863.8465,-38.785 1814.5502,-26.9604 1770.78,-19.6146"/>
<polygon fill="#191970" stroke="#191970" points="1771.1024,-16.1214 1760.6717,-17.9791 1769.9843,-23.0315 1771.1024,-16.1214"/>
</g>
<!-- Node35&#45;&gt;Node26 -->
<g id="edge53" class="edge">
<title>Node35&#45;&gt;Node26</title>
<path fill="none" stroke="#191970" d="M1822.9645,-123.2967C1821.5426,-113.7699 1819.6957,-101.3954 1818.1636,-91.1306"/>
<polygon fill="#191970" stroke="#191970" points="1821.5977,-90.4287 1816.6598,-81.055 1814.6744,-91.4621 1821.5977,-90.4287"/>
</g>
<!-- Node35&#45;&gt;Node31 -->
<g id="edge50" class="edge">
<title>Node35&#45;&gt;Node31</title>
<path fill="none" stroke="#191970" d="M1895.4248,-124.6125C1898.7372,-124.0477 1902.0195,-123.5068 1905.2337,-123 2035.7052,-102.4254 2069.7622,-107.5746 2200.2337,-87 2207.8978,-85.7914 2215.9498,-84.3893 2223.8717,-82.932"/>
<polygon fill="#191970" stroke="#191970" points="2224.6158,-86.3535 2233.7975,-81.067 2223.3232,-79.4739 2224.6158,-86.3535"/>
</g>
<!-- Node35&#45;&gt;Node32 -->
<g id="edge55" class="edge">
<title>Node35&#45;&gt;Node32</title>
<path fill="none" stroke="#191970" d="M1895.4565,-123.9489C1956.9197,-110.9976 2038.6342,-93.1752 2053.2337,-87 2090.6255,-71.1842 2129.1309,-43.5115 2151.5896,-26.0036"/>
<polygon fill="#191970" stroke="#191970" points="2153.9812,-28.5742 2159.645,-19.6202 2149.6337,-23.0879 2153.9812,-28.5742"/>
</g>
<!-- Node36 -->
<g id="node30" class="node">
<title>Node36</title>
<polygon fill="#ffffff" stroke="#bfbfbf" points="1924.2337,-62 1924.2337,-81 2044.2337,-81 2044.2337,-62 1924.2337,-62"/>
<text text-anchor="middle" x="1984.2337" y="-69" font-family="Helvetica,sans-Serif" font-size="10.00" fill="#000000">AMReX_FillPatchUtil.H</text>
</g>
<!-- Node35&#45;&gt;Node36 -->
<g id="edge57" class="edge">
<title>Node35&#45;&gt;Node36</title>
<path fill="none" stroke="#191970" d="M1860.9164,-123.4639C1888.1954,-111.969 1925.4841,-96.2561 1951.8958,-85.1266"/>
<polygon fill="#191970" stroke="#191970" points="1953.5861,-88.2125 1961.4423,-81.1039 1950.8679,-81.7618 1953.5861,-88.2125"/>
</g>
<!-- Node37&#45;&gt;Node11 -->
<g id="edge59" class="edge">
<title>Node37&#45;&gt;Node11</title>
<path fill="none" stroke="#191970" d="M1308.9119,-128.9974C1268.6957,-120.1202 1209.2312,-105.4757 1159.2337,-87 1110.7394,-69.0798 1057.1721,-41.3751 1026.2372,-24.5403"/>
<polygon fill="#191970" stroke="#191970" points="1027.8446,-21.4301 1017.394,-19.6876 1024.477,-27.5668 1027.8446,-21.4301"/>
</g>
<!-- Node37&#45;&gt;Node16 -->
<g id="edge60" class="edge">
<title>Node37&#45;&gt;Node16</title>
<path fill="none" stroke="#191970" d="M1336.4646,-128.9005C1314.3825,-117.6067 1277.5148,-98.7506 1252.0951,-85.7497"/>
<polygon fill="#191970" stroke="#191970" points="1253.4648,-82.5191 1242.968,-81.0817 1250.2773,-88.7513 1253.4648,-82.5191"/>
</g>
<!-- Node37&#45;&gt;Node18 -->
<g id="edge61" class="edge">
<title>Node37&#45;&gt;Node18</title>
<path fill="none" stroke="#191970" d="M1428.0178,-135.5905C1503.0849,-130.8801 1612.8178,-118.6369 1639.2337,-87 1669.2767,-51.019 1600.4416,-29.3956 1547.9215,-18.593"/>
<polygon fill="#191970" stroke="#191970" points="1548.4891,-15.1376 1538.001,-16.6382 1547.1357,-22.0055 1548.4891,-15.1376"/>
</g>
<!-- Node37&#45;&gt;Node25 -->
<g id="edge64" class="edge">
<title>Node37&#45;&gt;Node25</title>
<path fill="none" stroke="#191970" d="M1427.8537,-133.4701C1505.0311,-126.8546 1620.7459,-112.9057 1656.2337,-87 1675.3671,-73.0328 1686.0875,-47.1704 1691.511,-29.2969"/>
<polygon fill="#191970" stroke="#191970" points="1694.8973,-30.1826 1694.1737,-19.6125 1688.1478,-28.3268 1694.8973,-30.1826"/>
</g>
<!-- Node38 -->
<g id="node32" class="node">
<title>Node38</title>
<polygon fill="#ffffff" stroke="#bfbfbf" points="1298.7337,-62 1298.7337,-81 1411.7337,-81 1411.7337,-62 1298.7337,-62"/>
<text text-anchor="middle" x="1355.2337" y="-69" font-family="Helvetica,sans-Serif" font-size="10.00" fill="#000000">AMReX_FArrayBox.H</text>
</g>
<!-- Node37&#45;&gt;Node38 -->
<g id="edge62" class="edge">
<title>Node37&#45;&gt;Node38</title>
<path fill="none" stroke="#191970" d="M1355.2337,-128.9005C1355.2337,-119.149 1355.2337,-103.7597 1355.2337,-91.3695"/>
<polygon fill="#191970" stroke="#191970" points="1358.7338,-91.0816 1355.2337,-81.0817 1351.7338,-91.0817 1358.7338,-91.0816"/>
</g>
<!-- Node39 -->
<g id="node33" class="node">
<title>Node39</title>
<polygon fill="#ffffff" stroke="#bfbfbf" points="761.2337,-62 761.2337,-81 871.2337,-81 871.2337,-62 761.2337,-62"/>
<text text-anchor="middle" x="816.2337" y="-69" font-family="Helvetica,sans-Serif" font-size="10.00" fill="#000000">AMReX_Geometry.H</text>
</g>
<!-- Node37&#45;&gt;Node39 -->
<g id="edge63" class="edge">
<title>Node37&#45;&gt;Node39</title>
<path fill="none" stroke="#191970" d="M1282.3764,-130.3379C1261.0594,-127.96 1237.7143,-125.3658 1216.2337,-123 1069.1444,-106.8002 1031.211,-111.2551 885.2337,-87 878.6423,-85.9048 871.7351,-84.5748 864.9442,-83.1592"/>
<polygon fill="#191970" stroke="#191970" points="865.6416,-79.7292 855.1284,-81.0415 864.1653,-86.5718 865.6416,-79.7292"/>
</g>
<!-- Node40&#45;&gt;Node5 -->
<g id="edge67" class="edge">
<title>Node40&#45;&gt;Node5</title>
<path fill="none" stroke="#191970" d="M109.9301,-123.2967C103.8522,-113.3645 95.8802,-100.3371 89.4518,-89.8321"/>
<polygon fill="#191970" stroke="#191970" points="92.2858,-87.7578 84.0807,-81.055 86.315,-91.4115 92.2858,-87.7578"/>
</g>
<!-- Node40&#45;&gt;Node7 -->
<g id="edge66" class="edge">
<title>Node40&#45;&gt;Node7</title>
<path fill="none" stroke="#191970" d="M67.8069,-123.4413C28.2764,-109.1739 -16.0973,-85.5547 6.2337,-56 19.6546,-38.2377 74.4379,-25.3295 116.6221,-17.7861"/>
<polygon fill="#191970" stroke="#191970" points="117.2411,-21.2311 126.497,-16.0756 116.0463,-14.3338 117.2411,-21.2311"/>
</g>
<!-- Node40&#45;&gt;Node11 -->
<g id="edge68" class="edge">
<title>Node40&#45;&gt;Node11</title>
<path fill="none" stroke="#191970" d="M171.2097,-123.4234C249.4998,-100.8037 391.1349,-60.2645 415.2337,-56 587.837,-25.4565 792.6814,-15.1906 908.4608,-11.7421"/>
<polygon fill="#191970" stroke="#191970" points="908.8018,-15.2338 918.6972,-11.4481 908.6008,-8.2367 908.8018,-15.2338"/>
</g>
<!-- Node41&#45;&gt;Node2 -->
<g id="edge70" class="edge">
<title>Node41&#45;&gt;Node2</title>
<path fill="none" stroke="#191970" d="M287.6066,-67.459C329.3201,-63.8931 392.8948,-58.8343 448.2337,-56 1034.7939,-25.9576 1182.1709,-37.6867 1769.2337,-20 1868.8618,-16.9985 1986.8999,-12.9654 2041.5916,-11.0695"/>
<polygon fill="#191970" stroke="#191970" points="2041.7886,-14.5649 2051.6611,-10.7198 2041.5456,-7.5691 2041.7886,-14.5649"/>
</g>
<!-- Node41&#45;&gt;Node7 -->
<g id="edge71" class="edge">
<title>Node41&#45;&gt;Node7</title>
<path fill="none" stroke="#191970" d="M223.9415,-56.2977C213.0276,-47.2274 199.1666,-35.7077 188.0013,-26.4285"/>
<polygon fill="#191970" stroke="#191970" points="190.0098,-23.5468 180.082,-19.8469 185.5357,-28.9303 190.0098,-23.5468"/>
</g>
<!-- Node41&#45;&gt;Node21 -->
<g id="edge73" class="edge">
<title>Node41&#45;&gt;Node21</title>
<path fill="none" stroke="#191970" d="M287.2563,-59.3451C291.9655,-58.1716 296.6901,-57.0347 301.2337,-56 334.7866,-48.3589 422.5977,-31.708 481.6512,-20.6769"/>
<polygon fill="#191970" stroke="#191970" points="482.4069,-24.0964 491.5953,-18.8217 481.123,-17.2152 482.4069,-24.0964"/>
</g>
<!-- Node42 -->
<g id="node36" class="node">
<title>Node42</title>
<polygon fill="#ffffff" stroke="#bfbfbf" points="228.2337,-.5 228.2337,-19.5 258.2337,-19.5 258.2337,-.5 228.2337,-.5"/>
<text text-anchor="middle" x="243.2337" y="-7.5" font-family="Helvetica,sans-Serif" font-size="10.00" fill="#000000">set</text>
</g>
<!-- Node41&#45;&gt;Node42 -->
<g id="edge72" class="edge">
<title>Node41&#45;&gt;Node42</title>
<path fill="none" stroke="#191970" d="M242.4809,-56.2977C242.6095,-48.3834 242.7686,-38.6043 242.9072,-30.0759"/>
<polygon fill="#191970" stroke="#191970" points="246.4104,-29.9025 243.0736,-19.8469 239.4113,-29.7887 246.4104,-29.9025"/>
</g>
<!-- Node43&#45;&gt;Node15 -->
<g id="edge77" class="edge">
<title>Node43&#45;&gt;Node15</title>
<path fill="none" stroke="#191970" d="M1688.1768,-199.6351C1601.0337,-190.1617 1424.1006,-170.8493 1274.2337,-154 1255.9365,-151.9429 1236.2482,-149.6994 1217.7176,-147.5744"/>
<polygon fill="#191970" stroke="#191970" points="1217.8921,-144.0715 1207.5581,-146.408 1217.0936,-151.0259 1217.8921,-144.0715"/>
</g>
<!-- Node43&#45;&gt;Node26 -->
<g id="edge75" class="edge">
<title>Node43&#45;&gt;Node26</title>
<path fill="none" stroke="#191970" d="M1740.2034,-195.9098C1737.3087,-179.7815 1733.6366,-146.6722 1746.2337,-123 1754.7014,-107.0876 1770.5014,-94.7393 1784.8473,-86.1279"/>
<polygon fill="#191970" stroke="#191970" points="1786.9639,-88.9538 1793.973,-81.0088 1783.5391,-82.8487 1786.9639,-88.9538"/>
</g>
<!-- Node43&#45;&gt;Node31 -->
<g id="edge76" class="edge">
<title>Node43&#45;&gt;Node31</title>
<path fill="none" stroke="#191970" d="M1796.4367,-200.1596C1860.6486,-193.0598 1970.4853,-178.4735 2062.2337,-154 2131.1903,-135.6061 2208.5995,-103.4013 2250.0883,-85.1443"/>
<polygon fill="#191970" stroke="#191970" points="2251.6286,-88.2901 2259.3512,-81.0366 2248.7909,-81.891 2251.6286,-88.2901"/>
</g>
<!-- Node44 -->
<g id="node38" class="node">
<title>Node44</title>
<g id="a_node38"><a xlink:href="_p_d_e_base_8_h.html" target="_top" xlink:title="amr&#45;wind/equation_systems\l/PDEBase.H">
<polygon fill="#ffffff" stroke="#ff0000" points="1913.7337,-123.5 1913.7337,-153.5 2052.7337,-153.5 2052.7337,-123.5 1913.7337,-123.5"/>
<text text-anchor="start" x="1921.7337" y="-141.5" font-family="Helvetica,sans-Serif" font-size="10.00" fill="#000000">amr&#45;wind/equation_systems</text>
<text text-anchor="middle" x="1983.2337" y="-130.5" font-family="Helvetica,sans-Serif" font-size="10.00" fill="#000000">/PDEBase.H</text>
</a>
</g>
</g>
<!-- Node43&#45;&gt;Node44 -->
<g id="edge78" class="edge">
<title>Node43&#45;&gt;Node44</title>
<path fill="none" stroke="#191970" d="M1776.5072,-195.9717C1813.5544,-185.6723 1873.4366,-169.0245 1919.239,-156.291"/>
<polygon fill="#191970" stroke="#191970" points="1920.3822,-159.606 1929.0794,-153.5553 1918.5072,-152.8618 1920.3822,-159.606"/>
</g>
<!-- Node46 -->
<g id="node39" class="node">
<title>Node46</title>
<g id="a_node39"><a xlink:href="_physics_8_h.html" target="_top" xlink:title="amr&#45;wind/core/Physics.H">
<polygon fill="#ffffff" stroke="#ff0000" points="571.7337,-129 571.7337,-148 698.7337,-148 698.7337,-129 571.7337,-129"/>
<text text-anchor="middle" x="635.2337" y="-136" font-family="Helvetica,sans-Serif" font-size="10.00" fill="#000000">amr&#45;wind/core/Physics.H</text>
</a>
</g>
</g>
<!-- Node43&#45;&gt;Node46 -->
<g id="edge83" class="edge">
<title>Node43&#45;&gt;Node46</title>
<path fill="none" stroke="#191970" d="M1688.0914,-202.2231C1506.3475,-191.2232 917.8002,-155.602 709.298,-142.9827"/>
<polygon fill="#191970" stroke="#191970" points="709.2603,-139.4741 699.067,-142.3634 708.8373,-146.4613 709.2603,-139.4741"/>
</g>
<!-- Node44&#45;&gt;Node2 -->
<g id="edge79" class="edge">
<title>Node44&#45;&gt;Node2</title>
<path fill="none" stroke="#191970" d="M2012.6383,-123.302C2026.8958,-114.5128 2043.0888,-102.1775 2053.2337,-87 2064.6727,-69.8863 2069.231,-46.501 2071.0439,-30.0055"/>
<polygon fill="#191970" stroke="#191970" points="2074.5477,-30.1096 2071.9112,-19.848 2067.5731,-29.514 2074.5477,-30.1096"/>
</g>
<!-- Node44&#45;&gt;Node5 -->
<g id="edge80" class="edge">
<title>Node44&#45;&gt;Node5</title>
<path fill="none" stroke="#191970" d="M1913.5466,-124.1496C1910.406,-123.7168 1907.2909,-123.3295 1904.2337,-123 1145.7911,-41.2603 948.5989,-148.328 188.2337,-87 174.6211,-85.9021 160.1227,-84.2256 146.2702,-82.3746"/>
<polygon fill="#191970" stroke="#191970" points="146.7041,-78.9014 136.3195,-81.0017 145.7473,-85.8357 146.7041,-78.9014"/>
</g>
<!-- Node44&#45;&gt;Node11 -->
<g id="edge82" class="edge">
<title>Node44&#45;&gt;Node11</title>
<path fill="none" stroke="#191970" d="M1913.5145,-124.4067C1910.3826,-123.9043 1907.2781,-123.4321 1904.2337,-123 1724.4402,-97.4831 1666.6834,-152.2962 1497.2337,-87 1475.9169,-78.7858 1477.4994,-64.3453 1456.2337,-56 1423.2736,-43.0654 1215.6998,-25.8794 1092.2633,-16.6071"/>
<polygon fill="#191970" stroke="#191970" points="1092.2914,-13.0995 1082.0582,-15.8441 1091.7694,-20.08 1092.2914,-13.0995"/>
</g>
<!-- Node44&#45;&gt;Node29 -->
<g id="edge81" class="edge">
<title>Node44&#45;&gt;Node29</title>
<path fill="none" stroke="#191970" d="M2053.0096,-130.0797C2125.7091,-121.0259 2243.1448,-105.6145 2353.5536,-87.2339"/>
<polygon fill="#191970" stroke="#191970" points="2354.246,-90.6668 2363.5298,-85.5617 2353.0888,-83.7631 2354.246,-90.6668"/>
</g>
<!-- Node46&#45;&gt;Node5 -->
<g id="edge84" class="edge">
<title>Node46&#45;&gt;Node5</title>
<path fill="none" stroke="#191970" d="M571.7099,-133.5531C479.5966,-125.9567 303.7164,-109.8608 155.2337,-87 147.7369,-85.8458 139.8626,-84.4613 132.1287,-83.0012"/>
<polygon fill="#191970" stroke="#191970" points="132.5702,-79.5216 122.0863,-81.0512 131.2358,-86.3933 132.5702,-79.5216"/>
</g>
<!-- Node46&#45;&gt;Node13 -->
<g id="edge85" class="edge">
<title>Node46&#45;&gt;Node13</title>
<path fill="none" stroke="#191970" d="M635.5522,-128.7561C636.1995,-113.2281 638.0758,-81.9705 643.2337,-56 644.9975,-47.1187 647.7801,-37.5053 650.4014,-29.3746"/>
<polygon fill="#191970" stroke="#191970" points="653.7759,-30.3206 653.6552,-19.7265 647.143,-28.0836 653.7759,-30.3206"/>
</g>
<!-- Node46&#45;&gt;Node39 -->
<g id="edge86" class="edge">
<title>Node46&#45;&gt;Node39</title>
<path fill="none" stroke="#191970" d="M661.1666,-128.9005C692.6177,-117.2584 745.7773,-97.5805 780.9411,-84.5641"/>
<polygon fill="#191970" stroke="#191970" points="782.1858,-87.8355 790.3489,-81.0817 779.7557,-81.2708 782.1858,-87.8355"/>
</g>
<!-- Node48&#45;&gt;Node1 -->
<g id="edge95" class="edge">
<title>Node48&#45;&gt;Node1</title>
<path fill="none" stroke="#191970" d="M2120.3866,-333.4006C2019.5589,-324.4279 1827.4091,-306.7 1664.2337,-288 1651.8425,-286.58 1638.7341,-284.9678 1625.9358,-283.3331"/>
<polygon fill="#191970" stroke="#191970" points="1626.1235,-279.8284 1615.7579,-282.0205 1625.2281,-286.7709 1626.1235,-279.8284"/>
</g>
<!-- Node48&#45;&gt;Node26 -->
<g id="edge105" class="edge">
<title>Node48&#45;&gt;Node26</title>
<path fill="none" stroke="#191970" d="M2167.2384,-324.3536C2145.1219,-307.8507 2117.2273,-280.642 2133.2337,-257 2157.3863,-221.3258 2199.081,-256.6742 2223.2337,-221 2230.9579,-209.5911 2230.8787,-201.4621 2223.2337,-190 2180.2278,-125.522 2136.2774,-145.9006 2062.2337,-123 2000.9623,-104.0497 1928.9827,-89.9301 1878.5854,-81.3142"/>
<polygon fill="#191970" stroke="#191970" points="1878.9298,-77.823 1868.4871,-79.6121 1877.7663,-84.7256 1878.9298,-77.823"/>
</g>
<!-- Node48&#45;&gt;Node27 -->
<g id="edge98" class="edge">
<title>Node48&#45;&gt;Node27</title>
<path fill="none" stroke="#191970" d="M2120.7252,-329.1048C2039.9548,-317.0253 1906.9332,-297.1314 1822.0158,-284.4317"/>
<polygon fill="#191970" stroke="#191970" points="1822.3129,-280.9373 1811.9052,-282.9196 1821.2775,-287.8603 1822.3129,-280.9373"/>
</g>
<!-- Node48&#45;&gt;Node28 -->
<g id="edge99" class="edge">
<title>Node48&#45;&gt;Node28</title>
<path fill="none" stroke="#191970" d="M2160.0227,-324.3853C2142.0456,-314.8685 2119.1322,-301.8037 2100.2337,-288 2075.2968,-269.7858 2049.5948,-245.5838 2032.0747,-228.1082"/>
<polygon fill="#191970" stroke="#191970" points="2034.1576,-225.2377 2024.6328,-220.5978 2029.1852,-230.1648 2034.1576,-225.2377"/>
</g>
<!-- Node49 -->
<g id="node42" class="node">
<title>Node49</title>
<g id="a_node42"><a xlink:href="_m_l_m_g_options_8_h.html" target="_top" xlink:title="amr&#45;wind/core/MLMGOptions.H">
<polygon fill="#ffffff" stroke="#000000" points="2653.7337,-263 2653.7337,-282 2808.7337,-282 2808.7337,-263 2653.7337,-263"/>
<text text-anchor="middle" x="2731.2337" y="-270" font-family="Helvetica,sans-Serif" font-size="10.00" fill="#000000">amr&#45;wind/core/MLMGOptions.H</text>
</a>
</g>
</g>
<!-- Node48&#45;&gt;Node49 -->
<g id="edge90" class="edge">
<title>Node48&#45;&gt;Node49</title>
<path fill="none" stroke="#191970" d="M2259.7932,-333.0584C2349.2066,-324.4501 2509.1566,-307.9419 2645.2337,-288 2653.6491,-286.7667 2662.5031,-285.3303 2671.2,-283.8387"/>
<polygon fill="#191970" stroke="#191970" points="2672.0543,-287.2425 2681.3015,-282.0714 2670.8479,-280.3473 2672.0543,-287.2425"/>
</g>
<!-- Node51 -->
<g id="node44" class="node">
<title>Node51</title>
<g id="a_node44"><a xlink:href="_scheme_traits_8_h.html" target="_top" xlink:title="amr&#45;wind/equation_systems\l/SchemeTraits.H">
<polygon fill="#ffffff" stroke="#000000" points="2496.7337,-257.5 2496.7337,-287.5 2635.7337,-287.5 2635.7337,-257.5 2496.7337,-257.5"/>
<text text-anchor="start" x="2504.7337" y="-275.5" font-family="Helvetica,sans-Serif" font-size="10.00" fill="#000000">amr&#45;wind/equation_systems</text>
<text text-anchor="middle" x="2566.2337" y="-264.5" font-family="Helvetica,sans-Serif" font-size="10.00" fill="#000000">/SchemeTraits.H</text>
</a>
</g>
</g>
<!-- Node48&#45;&gt;Node51 -->
<g id="edge96" class="edge">
<title>Node48&#45;&gt;Node51</title>
<path fill="none" stroke="#191970" d="M2260.0752,-327.0548C2324.2121,-315.6262 2419.2035,-298.6995 2486.3372,-286.7369"/>
<polygon fill="#191970" stroke="#191970" points="2487.2171,-290.1353 2496.4479,-284.9352 2485.989,-283.2439 2487.2171,-290.1353"/>
</g>
<!-- Node52 -->
<g id="node45" class="node">
<title>Node52</title>
<g id="a_node45"><a xlink:href="diffusion_8_h.html" target="_top" xlink:title="amr&#45;wind/diffusion\l/diffusion.H">
<polygon fill="#ffffff" stroke="#000000" points="2142.2337,-257.5 2142.2337,-287.5 2238.2337,-287.5 2238.2337,-257.5 2142.2337,-257.5"/>
<text text-anchor="start" x="2150.2337" y="-275.5" font-family="Helvetica,sans-Serif" font-size="10.00" fill="#000000">amr&#45;wind/diffusion</text>
<text text-anchor="middle" x="2190.2337" y="-264.5" font-family="Helvetica,sans-Serif" font-size="10.00" fill="#000000">/diffusion.H</text>
</a>
</g>
</g>
<!-- Node48&#45;&gt;Node52 -->
<g id="edge100" class="edge">
<title>Node48&#45;&gt;Node52</title>
<path fill="none" stroke="#191970" d="M2190.2337,-324.2967C2190.2337,-316.5013 2190.2337,-306.7991 2190.2337,-297.9064"/>
<polygon fill="#191970" stroke="#191970" points="2193.7338,-297.6431 2190.2337,-287.6432 2186.7338,-297.6432 2193.7338,-297.6431"/>
</g>
<!-- Node53 -->
<g id="node46" class="node">
<title>Node53</title>
<polygon fill="#ffffff" stroke="#bfbfbf" points="2326.2337,-196 2326.2337,-215 2422.2337,-215 2422.2337,-196 2326.2337,-196"/>
<text text-anchor="middle" x="2374.2337" y="-203" font-family="Helvetica,sans-Serif" font-size="10.00" fill="#000000">AMReX_MLMG.H</text>
</g>
<!-- Node48&#45;&gt;Node53 -->
<g id="edge104" class="edge">
<title>Node48&#45;&gt;Node53</title>
<path fill="none" stroke="#191970" d="M2259.955,-332.6261C2317.4624,-325.3454 2392.5272,-311.5669 2411.2337,-288 2427.0597,-268.062 2407.9889,-240.2794 2391.8819,-222.5909"/>
<polygon fill="#191970" stroke="#191970" points="2394.2753,-220.0301 2384.8259,-215.2385 2389.2248,-224.877 2394.2753,-220.0301"/>
</g>
<!-- Node54 -->
<g id="node47" class="node">
<title>Node54</title>
<polygon fill="#ffffff" stroke="#bfbfbf" points="2256.2337,-263 2256.2337,-282 2402.2337,-282 2402.2337,-263 2256.2337,-263"/>
<text text-anchor="middle" x="2329.2337" y="-270" font-family="Helvetica,sans-Serif" font-size="10.00" fill="#000000">AMReX_MLABecLaplacian.H</text>
</g>
<!-- Node48&#45;&gt;Node54 -->
<g id="edge103" class="edge">
<title>Node48&#45;&gt;Node54</title>
<path fill="none" stroke="#191970" d="M2221.428,-324.4639C2244.9605,-313.1209 2277.0139,-297.6707 2300.0431,-286.5703"/>
<polygon fill="#191970" stroke="#191970" points="2301.8207,-289.5989 2309.3091,-282.1039 2298.7812,-283.2932 2301.8207,-289.5989"/>
</g>
<!-- Node49&#45;&gt;Node2 -->
<g id="edge91" class="edge">
<title>Node49&#45;&gt;Node2</title>
<path fill="none" stroke="#191970" d="M2730.8242,-262.9427C2729.7608,-246.8628 2725.9409,-213.823 2712.2337,-190 2668.7962,-114.5059 2648.9,-91.2058 2569.2337,-56 2476.8668,-15.1816 2216.0627,-35.2297 2116.2337,-20 2111.9647,-19.3487 2107.4941,-18.5143 2103.1066,-17.6057"/>
<polygon fill="#191970" stroke="#191970" points="2103.6739,-14.1466 2093.1538,-15.4025 2102.1609,-20.9812 2103.6739,-14.1466"/>
</g>
<!-- Node49&#45;&gt;Node32 -->
<g id="edge92" class="edge">
<title>Node49&#45;&gt;Node32</title>
<path fill="none" stroke="#191970" d="M2736.217,-262.6519C2752.61,-228.7197 2800.7317,-115.489 2745.2337,-56 2707.5299,-15.5849 2319.208,-26.0648 2228.1357,-19.6688"/>
<polygon fill="#191970" stroke="#191970" points="2228.2076,-16.1606 2217.9277,-18.7248 2227.5629,-23.1309 2228.2076,-16.1606"/>
</g>
<!-- Node49&#45;&gt;Node47 -->
<g id="edge93" class="edge">
<title>Node49&#45;&gt;Node47</title>
<path fill="none" stroke="#191970" d="M2681.7646,-262.9433C2669.8308,-260.8154 2657.0989,-258.6917 2645.2337,-257 2565.7625,-245.6691 2339.1325,-223.1909 2224.461,-212.06"/>
<polygon fill="#191970" stroke="#191970" points="2224.6824,-208.5652 2214.3913,-211.0839 2224.0069,-215.5325 2224.6824,-208.5652"/>
</g>
<!-- Node50 -->
<g id="node43" class="node">
<title>Node50</title>
<polygon fill="#ffffff" stroke="#bfbfbf" points="2597.2337,-196 2597.2337,-215 2703.2337,-215 2703.2337,-196 2597.2337,-196"/>
<text text-anchor="middle" x="2650.2337" y="-203" font-family="Helvetica,sans-Serif" font-size="10.00" fill="#000000">AMReX_MLLinOp.H</text>
</g>
<!-- Node49&#45;&gt;Node50 -->
<g id="edge94" class="edge">
<title>Node49&#45;&gt;Node50</title>
<path fill="none" stroke="#191970" d="M2719.6283,-262.9005C2706.6362,-252.1539 2685.3663,-234.5603 2669.7939,-221.6794"/>
<polygon fill="#191970" stroke="#191970" points="2671.7539,-218.7585 2661.8175,-215.0817 2667.2922,-224.1524 2671.7539,-218.7585"/>
</g>
<!-- Node51&#45;&gt;Node2 -->
<g id="edge97" class="edge">
<title>Node51&#45;&gt;Node2</title>
<path fill="none" stroke="#191970" d="M2570.4067,-257.4914C2580.3596,-218.0551 2600.7312,-110.782 2545.2337,-56 2511.1911,-22.3963 2163.5047,-27.3184 2116.2337,-20 2111.9662,-19.3393 2107.4964,-18.4995 2103.1092,-17.5883"/>
<polygon fill="#191970" stroke="#191970" points="2103.6771,-14.1293 2093.1567,-15.3834 2102.1629,-20.9636 2103.6771,-14.1293"/>
</g>
<!-- Node52&#45;&gt;Node15 -->
<g id="edge102" class="edge">
<title>Node52&#45;&gt;Node15</title>
<path fill="none" stroke="#191970" d="M2142.0799,-263.52C2090.1598,-253.6903 2005.1418,-237.1673 1932.2337,-221 1875.5099,-208.4216 1862.6517,-198.8867 1805.2337,-190 1571.4751,-153.8209 1509.7966,-175.4965 1274.2337,-154 1255.8974,-152.3267 1236.1939,-150.233 1217.6609,-148.1308"/>
<polygon fill="#191970" stroke="#191970" points="1217.8353,-144.6279 1207.5014,-146.9647 1217.037,-151.5823 1217.8353,-144.6279"/>
</g>
<!-- Node52&#45;&gt;Node53 -->
<g id="edge101" class="edge">
<title>Node52&#45;&gt;Node53</title>
<path fill="none" stroke="#191970" d="M2231.5269,-257.4639C2263.7469,-245.7316 2308.0338,-229.6054 2338.6884,-218.4431"/>
<polygon fill="#191970" stroke="#191970" points="2339.9307,-221.7156 2348.1296,-215.0053 2337.5356,-215.1381 2339.9307,-221.7156"/>
</g>
<!-- Node55&#45;&gt;Node1 -->
<g id="edge107" class="edge">
<title>Node55&#45;&gt;Node1</title>
<path fill="none" stroke="#191970" d="M1732.65,-460.987C1703.8167,-453.2773 1671.3217,-441.0743 1646.2337,-422 1602.3059,-388.602 1571.373,-330.0733 1556.4268,-297.0248"/>
<polygon fill="#191970" stroke="#191970" points="1559.5315,-295.39 1552.3048,-287.6424 1553.1227,-298.2056 1559.5315,-295.39"/>
</g>
<!-- Node55&#45;&gt;Node28 -->
<g id="edge109" class="edge">
<title>Node55&#45;&gt;Node28</title>
<path fill="none" stroke="#191970" d="M1803.4096,-458.286C1805.2944,-441.0018 1810.1121,-412.4202 1822.2337,-391 1862.5862,-319.6924 1938.202,-257.5532 1980.1929,-226.5251"/>
<polygon fill="#191970" stroke="#191970" points="1982.3523,-229.2822 1988.3703,-220.5624 1978.2281,-223.6262 1982.3523,-229.2822"/>
</g>
<!-- Node55&#45;&gt;Node51 -->
<g id="edge108" class="edge">
<title>Node55&#45;&gt;Node51</title>
<path fill="none" stroke="#191970" d="M1872.0113,-466.6528C2023.2177,-450.967 2376.0357,-409.5422 2482.2337,-355 2509.6349,-340.927 2533.8843,-314.8338 2549.1972,-295.7491"/>
<polygon fill="#191970" stroke="#191970" points="2552.006,-297.8386 2555.3894,-287.7985 2546.4834,-293.5373 2552.006,-297.8386"/>
</g>
<!-- Node56 -->
<g id="node49" class="node">
<title>Node56</title>
<g id="a_node49"><a xlink:href="_p_d_e_8_h.html" target="_top" xlink:title="amr&#45;wind/equation_systems\l/PDE.H">
<polygon fill="#ffffff" stroke="#ff0000" points="1830.7337,-391.5 1830.7337,-421.5 1969.7337,-421.5 1969.7337,-391.5 1830.7337,-391.5"/>
<text text-anchor="start" x="1838.7337" y="-409.5" font-family="Helvetica,sans-Serif" font-size="10.00" fill="#000000">amr&#45;wind/equation_systems</text>
<text text-anchor="middle" x="1900.2337" y="-398.5" font-family="Helvetica,sans-Serif" font-size="10.00" fill="#000000">/PDE.H</text>
</a>
</g>
</g>
<!-- Node55&#45;&gt;Node56 -->
<g id="edge110" class="edge">
<title>Node55&#45;&gt;Node56</title>
<path fill="none" stroke="#191970" d="M1824.4714,-458.2967C1837.8784,-449.1306 1855.1413,-437.3285 1869.8017,-427.3055"/>
<polygon fill="#191970" stroke="#191970" points="1871.8042,-430.1763 1878.084,-421.6432 1867.8534,-424.3977 1871.8042,-430.1763"/>
</g>
<!-- Node58 -->
<g id="node50" class="node">
<title>Node58</title>
<g id="a_node50"><a xlink:href="_momentum_source_8_h.html" target="_top" xlink:title="amr&#45;wind/equation_systems\l/icns/MomentumSource.H">
<polygon fill="#ffffff" stroke="#000000" points="435.7337,-190.5 435.7337,-220.5 574.7337,-220.5 574.7337,-190.5 435.7337,-190.5"/>
<text text-anchor="start" x="443.7337" y="-208.5" font-family="Helvetica,sans-Serif" font-size="10.00" fill="#000000">amr&#45;wind/equation_systems</text>
<text text-anchor="middle" x="505.2337" y="-197.5" font-family="Helvetica,sans-Serif" font-size="10.00" fill="#000000">/icns/MomentumSource.H</text>
</a>
</g>
</g>
<!-- Node55&#45;&gt;Node58 -->
<g id="edge116" class="edge">
<title>Node55&#45;&gt;Node58</title>
<path fill="none" stroke="#191970" d="M1792.2167,-458.2184C1762.0339,-412.7114 1671.2192,-279.8306 1625.2337,-257 1526.2452,-207.8548 741.4032,-229.7549 631.2337,-221 616.1846,-219.8041 600.1684,-218.1385 584.7799,-216.3402"/>
<polygon fill="#191970" stroke="#191970" points="585.1197,-212.8559 574.7746,-215.1429 584.2879,-219.8064 585.1197,-212.8559"/>
</g>
<!-- Node56&#45;&gt;Node2 -->
<g id="edge111" class="edge">
<title>Node56&#45;&gt;Node2</title>
<path fill="none" stroke="#191970" d="M1970.0236,-402.2311C2045.0579,-396.3825 2167.3041,-383.1954 2269.2337,-355 2342.748,-334.6647 2373.3257,-341.9612 2427.2337,-288 2495.7841,-219.3819 2492.9604,-182.0587 2512.2337,-87 2514.9714,-73.497 2521.5246,-66.1738 2512.2337,-56 2482.4404,-23.3754 2159.8712,-26.911 2116.2337,-20 2111.9685,-19.3245 2107.5,-18.4763 2103.1135,-17.561"/>
<polygon fill="#191970" stroke="#191970" points="2103.6821,-14.1021 2093.1614,-15.3533 2102.1661,-20.936 2103.6821,-14.1021"/>
</g>
<!-- Node56&#45;&gt;Node27 -->
<g id="edge114" class="edge">
<title>Node56&#45;&gt;Node27</title>
<path fill="none" stroke="#191970" d="M1876.4995,-391.4595C1861.6074,-381.6678 1842.2599,-368.2863 1826.2337,-355 1803.4445,-336.107 1779.5574,-312.188 1763.1076,-294.9755"/>
<polygon fill="#191970" stroke="#191970" points="1765.5215,-292.4344 1756.1036,-287.5812 1760.4394,-297.2482 1765.5215,-292.4344"/>
</g>
<!-- Node56&#45;&gt;Node43 -->
<g id="edge112" class="edge">
<title>Node56&#45;&gt;Node43</title>
<path fill="none" stroke="#191970" d="M1888.3759,-391.2428C1880.9204,-381.2579 1871.3925,-367.745 1864.2337,-355 1840.9403,-313.5302 1851.9945,-293.278 1821.2337,-257 1807.9569,-241.3419 1788.7332,-228.6673 1772.5736,-219.81"/>
<polygon fill="#191970" stroke="#191970" points="1773.963,-216.5866 1763.4813,-215.0424 1770.7123,-222.786 1773.963,-216.5866"/>
</g>
<!-- Node56&#45;&gt;Node44 -->
<g id="edge113" class="edge">
<title>Node56&#45;&gt;Node44</title>
<path fill="none" stroke="#191970" d="M1899.3452,-391.3744C1897.83,-354.7004 1897.7411,-258.9879 1932.2337,-190 1937.7611,-178.9447 1946.5552,-168.7912 1955.2954,-160.475"/>
<polygon fill="#191970" stroke="#191970" points="1957.7782,-162.9496 1962.8788,-153.6633 1953.1005,-157.7419 1957.7782,-162.9496"/>
</g>
<!-- Node56&#45;&gt;Node48 -->
<g id="edge115" class="edge">
<title>Node56&#45;&gt;Node48</title>
<path fill="none" stroke="#191970" d="M1965.3153,-391.4639C2009.7333,-381.2018 2068.7019,-367.578 2115.1155,-356.8549"/>
<polygon fill="#191970" stroke="#191970" points="2116.1634,-360.2051 2125.1188,-354.5438 2114.5876,-353.3847 2116.1634,-360.2051"/>
</g>
<!-- Node58&#45;&gt;Node5 -->
<g id="edge117" class="edge">
<title>Node58&#45;&gt;Node5</title>
<path fill="none" stroke="#191970" d="M457.0814,-190.389C372.0569,-163.7068 196.886,-108.7352 118.129,-84.0199"/>
<polygon fill="#191970" stroke="#191970" points="119.1567,-80.6741 108.5675,-81.0193 117.0607,-87.353 119.1567,-80.6741"/>
</g>
<!-- Node58&#45;&gt;Node11 -->
<g id="edge118" class="edge">
<title>Node58&#45;&gt;Node11</title>
<path fill="none" stroke="#191970" d="M574.7693,-194.9069C625.1763,-185.9406 687.7674,-171.7282 707.2337,-154 741.4283,-122.8585 706.9226,-85.8695 742.2337,-56 767.0871,-34.9766 844.7658,-23.0836 908.4498,-16.6824"/>
<polygon fill="#191970" stroke="#191970" points="908.9258,-20.1527 918.5403,-15.7016 908.2486,-13.1855 908.9258,-20.1527"/>
</g>
<!-- Node58&#45;&gt;Node12 -->
<g id="edge119" class="edge">
<title>Node58&#45;&gt;Node12</title>
<path fill="none" stroke="#191970" d="M507.3763,-190.389C510.824,-166.0735 517.6029,-118.2644 521.4305,-91.2698"/>
<polygon fill="#191970" stroke="#191970" points="524.9333,-91.4965 522.8719,-81.1042 518.0026,-90.5137 524.9333,-91.4965"/>
</g>
<!-- Node58&#45;&gt;Node13 -->
<g id="edge121" class="edge">
<title>Node58&#45;&gt;Node13</title>
<path fill="none" stroke="#191970" d="M490.4741,-190.3858C464.0995,-161.5377 414.6458,-97.7843 448.2337,-56 452.9714,-50.1061 536.2365,-33.0998 596.2168,-21.5018"/>
<polygon fill="#191970" stroke="#191970" points="597.2152,-24.874 606.3731,-19.5465 595.8917,-18.0002 597.2152,-24.874"/>
</g>
<!-- Node58&#45;&gt;Node15 -->
<g id="edge120" class="edge">
<title>Node58&#45;&gt;Node15</title>
<path fill="none" stroke="#191970" d="M574.8963,-198.1382C693.9457,-185.5572 935.7545,-160.0033 1060.6476,-146.8048"/>
<polygon fill="#191970" stroke="#191970" points="1061.3215,-150.2532 1070.8982,-145.7216 1060.5858,-143.292 1061.3215,-150.2532"/>
</g>
</g>
</svg>
