<?xml version="1.0" encoding="UTF-8" standalone="no"?>
<!DOCTYPE svg PUBLIC "-//W3C//DTD SVG 1.1//EN"
 "http://www.w3.org/Graphics/SVG/1.1/DTD/svg11.dtd">
<!-- Generated by graphviz version 2.40.1 (20161225.0304)
 -->
<!-- Title: incflo_godunov_advection.cpp Pages: 1 -->
<svg width="1802pt" height="352pt"
 viewBox="0.00 0.00 1802.18 352.00" xmlns="http://www.w3.org/2000/svg" xmlns:xlink="http://www.w3.org/1999/xlink">
<g id="graph0" class="graph" transform="scale(1 1) rotate(0) translate(4 348)">
<title>incflo_godunov_advection.cpp</title>
<polygon fill="#ffffff" stroke="transparent" points="-4,4 -4,-348 1798.1834,-348 1798.1834,4 -4,4"/>
<!-- Node0 -->
<g id="node1" class="node">
<title>Node0</title>
<polygon fill="#bfbfbf" stroke="#000000" points="272,-324.5 272,-343.5 420,-343.5 420,-324.5 272,-324.5"/>
<text text-anchor="middle" x="346" y="-331.5" font-family="Helvetica,sans-Serif" font-size="10.00" fill="#000000">incflo_godunov_advection.cpp</text>
</g>
<!-- Node1 -->
<g id="node2" class="node">
<title>Node1</title>
<g id="a_node2"><a xlink:href="incflo__godunov__plm_8_h.html" target="_top" xlink:title="amr&#45;wind/convection\l/incflo_godunov_plm.H">
<polygon fill="#ffffff" stroke="#000000" points="1,-129 1,-159 117,-159 117,-129 1,-129"/>
<text text-anchor="start" x="9" y="-147" font-family="Helvetica,sans-Serif" font-size="10.00" fill="#000000">amr&#45;wind/convection</text>
<text text-anchor="middle" x="59" y="-136" font-family="Helvetica,sans-Serif" font-size="10.00" fill="#000000">/incflo_godunov_plm.H</text>
</a>
</g>
</g>
<!-- Node0&#45;&gt;Node1 -->
<g id="edge1" class="edge">
<title>Node0&#45;&gt;Node1</title>
<path fill="none" stroke="#191970" d="M331.3731,-324.3167C286.8436,-294.8372 152.2263,-205.7177 90.5178,-164.8654"/>
<polygon fill="#191970" stroke="#191970" points="92.2321,-161.8029 81.9617,-159.2011 88.3679,-167.6397 92.2321,-161.8029"/>
</g>
<!-- Node6 -->
<g id="node7" class="node">
<title>Node6</title>
<g id="a_node7"><a xlink:href="incflo__godunov__ppm_8_h.html" target="_top" xlink:title="amr&#45;wind/convection\l/incflo_godunov_ppm.H">
<polygon fill="#ffffff" stroke="#000000" points="135.5,-129 135.5,-159 254.5,-159 254.5,-129 135.5,-129"/>
<text text-anchor="start" x="143.5" y="-147" font-family="Helvetica,sans-Serif" font-size="10.00" fill="#000000">amr&#45;wind/convection</text>
<text text-anchor="middle" x="195" y="-136" font-family="Helvetica,sans-Serif" font-size="10.00" fill="#000000">/incflo_godunov_ppm.H</text>
</a>
</g>
</g>
<!-- Node0&#45;&gt;Node6 -->
<g id="edge6" class="edge">
<title>Node0&#45;&gt;Node6</title>
<path fill="none" stroke="#191970" d="M338.3043,-324.3167C315.308,-295.3809 246.6457,-208.9847 213.4174,-167.1743"/>
<polygon fill="#191970" stroke="#191970" points="216.0428,-164.8522 207.0809,-159.2011 210.5626,-169.2075 216.0428,-164.8522"/>
</g>
<!-- Node7 -->
<g id="node8" class="node">
<title>Node7</title>
<g id="a_node8"><a xlink:href="incflo__godunov__ppm__nolim_8_h.html" target="_top" xlink:title="amr&#45;wind/convection\l/incflo_godunov_ppm\l_nolim.H">
<polygon fill="#ffffff" stroke="#000000" points="272.5,-123.5 272.5,-164.5 381.5,-164.5 381.5,-123.5 272.5,-123.5"/>
<text text-anchor="start" x="280.5" y="-152.5" font-family="Helvetica,sans-Serif" font-size="10.00" fill="#000000">amr&#45;wind/convection</text>
<text text-anchor="start" x="280.5" y="-141.5" font-family="Helvetica,sans-Serif" font-size="10.00" fill="#000000">/incflo_godunov_ppm</text>
<text text-anchor="middle" x="327" y="-130.5" font-family="Helvetica,sans-Serif" font-size="10.00" fill="#000000">_nolim.H</text>
</a>
</g>
</g>
<!-- Node0&#45;&gt;Node7 -->
<g id="edge9" class="edge">
<title>Node0&#45;&gt;Node7</title>
<path fill="none" stroke="#191970" d="M345.0317,-324.3167C342.3071,-297.0707 334.488,-218.8796 330.0935,-174.9352"/>
<polygon fill="#191970" stroke="#191970" points="333.5589,-174.4135 329.0811,-164.8114 326.5936,-175.1101 333.5589,-174.4135"/>
</g>
<!-- Node8 -->
<g id="node9" class="node">
<title>Node8</title>
<g id="a_node9"><a xlink:href="incflo__godunov__weno_8_h.html" target="_top" xlink:title="amr&#45;wind/convection\l/incflo_godunov_weno.H">
<polygon fill="#ffffff" stroke="#000000" points="400,-129 400,-159 524,-159 524,-129 400,-129"/>
<text text-anchor="start" x="408" y="-147" font-family="Helvetica,sans-Serif" font-size="10.00" fill="#000000">amr&#45;wind/convection</text>
<text text-anchor="middle" x="462" y="-136" font-family="Helvetica,sans-Serif" font-size="10.00" fill="#000000">/incflo_godunov_weno.H</text>
</a>
</g>
</g>
<!-- Node0&#45;&gt;Node8 -->
<g id="edge12" class="edge">
<title>Node0&#45;&gt;Node8</title>
<path fill="none" stroke="#191970" d="M350.4156,-324.3044C357.27,-309.4943 371.1308,-280.4828 385,-257 403.8643,-225.0596 428.3873,-190.0109 444.6329,-167.5483"/>
<polygon fill="#191970" stroke="#191970" points="447.5777,-169.4501 450.6323,-159.3051 441.9179,-165.3309 447.5777,-169.4501"/>
</g>
<!-- Node9 -->
<g id="node10" class="node">
<title>Node9</title>
<g id="a_node10"><a xlink:href="_godunov_8_h.html" target="_top" xlink:title="amr&#45;wind/convection\l/Godunov.H">
<polygon fill="#ffffff" stroke="#000000" points="393.5,-257.5 393.5,-287.5 500.5,-287.5 500.5,-257.5 393.5,-257.5"/>
<text text-anchor="start" x="401.5" y="-275.5" font-family="Helvetica,sans-Serif" font-size="10.00" fill="#000000">amr&#45;wind/convection</text>
<text text-anchor="middle" x="447" y="-264.5" font-family="Helvetica,sans-Serif" font-size="10.00" fill="#000000">/Godunov.H</text>
</a>
</g>
</g>
<!-- Node0&#45;&gt;Node9 -->
<g id="edge15" class="edge">
<title>Node0&#45;&gt;Node9</title>
<path fill="none" stroke="#191970" d="M361.7813,-324.3906C375.5769,-315.9903 396.0726,-303.5103 413.5066,-292.8945"/>
<polygon fill="#191970" stroke="#191970" points="415.5717,-295.7349 422.2926,-287.5446 411.9311,-289.756 415.5717,-295.7349"/>
</g>
<!-- Node27 -->
<g id="node28" class="node">
<title>Node27</title>
<polygon fill="#ffffff" stroke="#bfbfbf" points="519,-263 519,-282 629,-282 629,-263 519,-263"/>
<text text-anchor="middle" x="574" y="-270" font-family="Helvetica,sans-Serif" font-size="10.00" fill="#000000">AMReX_Geometry.H</text>
</g>
<!-- Node0&#45;&gt;Node27 -->
<g id="edge52" class="edge">
<title>Node0&#45;&gt;Node27</title>
<path fill="none" stroke="#191970" d="M381.625,-324.3906C421.3631,-313.6718 485.7268,-296.3105 528.9349,-284.6557"/>
<polygon fill="#191970" stroke="#191970" points="529.8818,-288.0255 538.6252,-282.0419 528.0587,-281.267 529.8818,-288.0255"/>
</g>
<!-- Node2 -->
<g id="node3" class="node">
<title>Node2</title>
<g id="a_node3"><a xlink:href="incflo__convection___k_8_h.html" target="_top" xlink:title="amr&#45;wind/convection\l/incflo_convection_K.H">
<polygon fill="#ffffff" stroke="#000000" points="0,-56.5 0,-86.5 118,-86.5 118,-56.5 0,-56.5"/>
<text text-anchor="start" x="8" y="-74.5" font-family="Helvetica,sans-Serif" font-size="10.00" fill="#000000">amr&#45;wind/convection</text>
<text text-anchor="middle" x="59" y="-63.5" font-family="Helvetica,sans-Serif" font-size="10.00" fill="#000000">/incflo_convection_K.H</text>
</a>
</g>
</g>
<!-- Node1&#45;&gt;Node2 -->
<g id="edge2" class="edge">
<title>Node1&#45;&gt;Node2</title>
<path fill="none" stroke="#191970" d="M59,-128.978C59,-119.6459 59,-107.4157 59,-96.6368"/>
<polygon fill="#191970" stroke="#191970" points="62.5001,-96.5028 59,-86.5028 55.5001,-96.5028 62.5001,-96.5028"/>
</g>
<!-- Node4 -->
<g id="node5" class="node">
<title>Node4</title>
<polygon fill="#ffffff" stroke="#bfbfbf" points="211.5,-62 211.5,-81 296.5,-81 296.5,-62 211.5,-62"/>
<text text-anchor="middle" x="254" y="-69" font-family="Helvetica,sans-Serif" font-size="10.00" fill="#000000">AMReX_Gpu.H</text>
</g>
<!-- Node1&#45;&gt;Node4 -->
<g id="edge4" class="edge">
<title>Node1&#45;&gt;Node4</title>
<path fill="none" stroke="#191970" d="M99.4041,-128.978C134.6362,-115.8788 185.2261,-97.0698 218.8214,-84.5792"/>
<polygon fill="#191970" stroke="#191970" points="220.0889,-87.8421 228.2423,-81.0766 217.6494,-81.2809 220.0889,-87.8421"/>
</g>
<!-- Node5 -->
<g id="node6" class="node">
<title>Node5</title>
<polygon fill="#ffffff" stroke="#bfbfbf" points="314.5,-62 314.5,-81 413.5,-81 413.5,-62 314.5,-62"/>
<text text-anchor="middle" x="364" y="-69" font-family="Helvetica,sans-Serif" font-size="10.00" fill="#000000">AMReX_BCRec.H</text>
</g>
<!-- Node1&#45;&gt;Node5 -->
<g id="edge5" class="edge">
<title>Node1&#45;&gt;Node5</title>
<path fill="none" stroke="#191970" d="M104.9489,-128.8914C111.9657,-126.7897 119.1506,-124.7531 126,-123 205.0366,-102.7711 226.5505,-105.5412 306,-87 310.4597,-85.9592 315.0971,-84.8191 319.7197,-83.6445"/>
<polygon fill="#191970" stroke="#191970" points="320.9418,-86.9433 329.7415,-81.0428 319.1828,-80.1679 320.9418,-86.9433"/>
</g>
<!-- Node3 -->
<g id="node4" class="node">
<title>Node3</title>
<polygon fill="#ffffff" stroke="#bfbfbf" points="2.5,-.5 2.5,-19.5 115.5,-19.5 115.5,-.5 2.5,-.5"/>
<text text-anchor="middle" x="59" y="-7.5" font-family="Helvetica,sans-Serif" font-size="10.00" fill="#000000">AMReX_FArrayBox.H</text>
</g>
<!-- Node2&#45;&gt;Node3 -->
<g id="edge3" class="edge">
<title>Node2&#45;&gt;Node3</title>
<path fill="none" stroke="#191970" d="M59,-56.2977C59,-48.3834 59,-38.6043 59,-30.0759"/>
<polygon fill="#191970" stroke="#191970" points="62.5001,-29.8469 59,-19.8469 55.5001,-29.847 62.5001,-29.8469"/>
</g>
<!-- Node6&#45;&gt;Node4 -->
<g id="edge7" class="edge">
<title>Node6&#45;&gt;Node4</title>
<path fill="none" stroke="#191970" d="M207.2248,-128.978C216.5681,-117.4969 229.4809,-101.6294 239.3725,-89.4744"/>
<polygon fill="#191970" stroke="#191970" points="242.3497,-91.3611 245.947,-81.3957 236.9203,-86.9427 242.3497,-91.3611"/>
</g>
<!-- Node6&#45;&gt;Node5 -->
<g id="edge8" class="edge">
<title>Node6&#45;&gt;Node5</title>
<path fill="none" stroke="#191970" d="M230.0169,-128.978C260.0714,-116.0848 303.0208,-97.6597 332.1279,-85.1729"/>
<polygon fill="#191970" stroke="#191970" points="333.6196,-88.3416 341.4298,-81.1825 330.8598,-81.9085 333.6196,-88.3416"/>
</g>
<!-- Node7&#45;&gt;Node4 -->
<g id="edge10" class="edge">
<title>Node7&#45;&gt;Node4</title>
<path fill="none" stroke="#191970" d="M306.2764,-123.4183C295.1245,-112.3428 281.5395,-98.8509 271.0135,-88.397"/>
<polygon fill="#191970" stroke="#191970" points="273.2132,-85.6487 263.6515,-81.0853 268.2804,-90.6155 273.2132,-85.6487"/>
</g>
<!-- Node7&#45;&gt;Node5 -->
<g id="edge11" class="edge">
<title>Node7&#45;&gt;Node5</title>
<path fill="none" stroke="#191970" d="M337.5037,-123.4183C342.8236,-112.9943 349.2358,-100.4298 354.4197,-90.2722"/>
<polygon fill="#191970" stroke="#191970" points="357.6799,-91.5835 359.1082,-81.0853 351.4449,-88.4015 357.6799,-91.5835"/>
</g>
<!-- Node8&#45;&gt;Node4 -->
<g id="edge13" class="edge">
<title>Node8&#45;&gt;Node4</title>
<path fill="none" stroke="#191970" d="M418.9023,-128.978C381.1601,-115.8226 326.8953,-96.9082 291.0635,-84.4188"/>
<polygon fill="#191970" stroke="#191970" points="292.0697,-81.063 281.4749,-81.0766 289.7657,-87.673 292.0697,-81.063"/>
</g>
<!-- Node8&#45;&gt;Node5 -->
<g id="edge14" class="edge">
<title>Node8&#45;&gt;Node5</title>
<path fill="none" stroke="#191970" d="M441.6943,-128.978C425.1756,-116.7574 401.9392,-99.5673 385.1873,-87.1743"/>
<polygon fill="#191970" stroke="#191970" points="387.2089,-84.3162 377.0881,-81.1825 383.0457,-89.9436 387.2089,-84.3162"/>
</g>
<!-- Node10 -->
<g id="node11" class="node">
<title>Node10</title>
<g id="a_node11"><a xlink:href="_field_repo_8_h.html" target="_top" xlink:title="amr&#45;wind/core/FieldRepo.H">
<polygon fill="#ffffff" stroke="#000000" points="1068,-201.5 1068,-220.5 1204,-220.5 1204,-201.5 1068,-201.5"/>
<text text-anchor="middle" x="1136" y="-208.5" font-family="Helvetica,sans-Serif" font-size="10.00" fill="#000000">amr&#45;wind/core/FieldRepo.H</text>
</a>
</g>
</g>
<!-- Node9&#45;&gt;Node10 -->
<g id="edge16" class="edge">
<title>Node9&#45;&gt;Node10</title>
<path fill="none" stroke="#191970" d="M500.835,-258.6245C503.9255,-258.0247 506.9964,-257.4764 510,-257 705.5649,-225.9823 938.8856,-215.8218 1057.8417,-212.5369"/>
<polygon fill="#191970" stroke="#191970" points="1058.0448,-216.0328 1067.9477,-212.2668 1057.8577,-209.0353 1058.0448,-216.0328"/>
</g>
<!-- Node11 -->
<g id="node12" class="node">
<title>Node11</title>
<polygon fill="#ffffff" stroke="#bfbfbf" points="1381.5,-.5 1381.5,-19.5 1422.5,-19.5 1422.5,-.5 1381.5,-.5"/>
<text text-anchor="middle" x="1402" y="-7.5" font-family="Helvetica,sans-Serif" font-size="10.00" fill="#000000">string</text>
</g>
<!-- Node10&#45;&gt;Node11 -->
<g id="edge17" class="edge">
<title>Node10&#45;&gt;Node11</title>
<path fill="none" stroke="#191970" d="M1204.3901,-208.3833C1324.1908,-203.2144 1566.9761,-189.9711 1648,-165 1716.0683,-144.0218 1751.9157,-148.4109 1788,-87 1794.9799,-75.1211 1797.1478,-66.3027 1788,-56 1764.4763,-29.5065 1519.8215,-15.5257 1432.6421,-11.3561"/>
<polygon fill="#191970" stroke="#191970" points="1432.7356,-7.8567 1422.5829,-10.8854 1432.4084,-14.8491 1432.7356,-7.8567"/>
</g>
<!-- Node12 -->
<g id="node13" class="node">
<title>Node12</title>
<polygon fill="#ffffff" stroke="#bfbfbf" points="797.5,-62 797.5,-81 880.5,-81 880.5,-62 797.5,-62"/>
<text text-anchor="middle" x="839" y="-69" font-family="Helvetica,sans-Serif" font-size="10.00" fill="#000000">unordered_map</text>
</g>
<!-- Node10&#45;&gt;Node12 -->
<g id="edge18" class="edge">
<title>Node10&#45;&gt;Node12</title>
<path fill="none" stroke="#191970" d="M1111.7636,-201.4133C1089.3387,-192.414 1055.1657,-178.3712 1026,-165 968.3006,-138.5473 902.1714,-104.6049 866.0531,-85.7487"/>
<polygon fill="#191970" stroke="#191970" points="867.5995,-82.6077 857.1166,-81.0711 864.3532,-88.8095 867.5995,-82.6077"/>
</g>
<!-- Node13 -->
<g id="node14" class="node">
<title>Node13</title>
<g id="a_node14"><a xlink:href="_field_desc_types_8_h.html" target="_top" xlink:title="amr&#45;wind/core/FieldDescTypes.H">
<polygon fill="#ffffff" stroke="#000000" points="1062.5,-.5 1062.5,-19.5 1225.5,-19.5 1225.5,-.5 1062.5,-.5"/>
<text text-anchor="middle" x="1144" y="-7.5" font-family="Helvetica,sans-Serif" font-size="10.00" fill="#000000">amr&#45;wind/core/FieldDescTypes.H</text>
</a>
</g>
</g>
<!-- Node10&#45;&gt;Node13 -->
<g id="edge19" class="edge">
<title>Node10&#45;&gt;Node13</title>
<path fill="none" stroke="#191970" d="M1136.3859,-201.3054C1137.6267,-170.1298 1141.5312,-72.0298 1143.2147,-29.7302"/>
<polygon fill="#191970" stroke="#191970" points="1146.7175,-29.7287 1143.618,-19.5974 1139.723,-29.4502 1146.7175,-29.7287"/>
</g>
<!-- Node14 -->
<g id="node15" class="node">
<title>Node14</title>
<g id="a_node15"><a xlink:href="_field_utils_8_h.html" target="_top" xlink:title="amr&#45;wind/core/FieldUtils.H">
<polygon fill="#ffffff" stroke="#000000" points="898.5,-62 898.5,-81 1031.5,-81 1031.5,-62 898.5,-62"/>
<text text-anchor="middle" x="965" y="-69" font-family="Helvetica,sans-Serif" font-size="10.00" fill="#000000">amr&#45;wind/core/FieldUtils.H</text>
</a>
</g>
</g>
<!-- Node10&#45;&gt;Node14 -->
<g id="edge20" class="edge">
<title>Node10&#45;&gt;Node14</title>
<path fill="none" stroke="#191970" d="M1124.2465,-201.4116C1095.326,-177.8186 1020.4667,-116.7491 984.6526,-87.5324"/>
<polygon fill="#191970" stroke="#191970" points="986.7969,-84.7648 976.8358,-81.1555 982.372,-90.1888 986.7969,-84.7648"/>
</g>
<!-- Node15 -->
<g id="node16" class="node">
<title>Node15</title>
<polygon fill="#ffffff" stroke="#bfbfbf" points="926,-.5 926,-19.5 1030,-19.5 1030,-.5 926,-.5"/>
<text text-anchor="middle" x="978" y="-7.5" font-family="Helvetica,sans-Serif" font-size="10.00" fill="#000000">AMReX_MultiFab.H</text>
</g>
<!-- Node10&#45;&gt;Node15 -->
<g id="edge50" class="edge">
<title>Node10&#45;&gt;Node15</title>
<path fill="none" stroke="#191970" d="M1067.9029,-208.2537C923.36,-200.7546 594.1531,-174.2478 534,-87 466.7129,10.595 340.7722,-93.1849 915.5549,-20.1117"/>
<polygon fill="#191970" stroke="#191970" points="916.3167,-23.5428 925.7912,-18.8011 915.4277,-16.5995 916.3167,-23.5428"/>
</g>
<!-- Node17 -->
<g id="node18" class="node">
<title>Node17</title>
<g id="a_node18"><a xlink:href="_field_8_h.html" target="_top" xlink:title="amr&#45;wind/core/Field.H">
<polygon fill="#ffffff" stroke="#000000" points="747.5,-134.5 747.5,-153.5 860.5,-153.5 860.5,-134.5 747.5,-134.5"/>
<text text-anchor="middle" x="804" y="-141.5" font-family="Helvetica,sans-Serif" font-size="10.00" fill="#000000">amr&#45;wind/core/Field.H</text>
</a>
</g>
</g>
<!-- Node10&#45;&gt;Node17 -->
<g id="edge24" class="edge">
<title>Node10&#45;&gt;Node17</title>
<path fill="none" stroke="#191970" d="M1088.7851,-201.4717C1028.8844,-189.3833 925.6492,-168.5497 861.3015,-155.5638"/>
<polygon fill="#191970" stroke="#191970" points="861.8153,-152.0971 851.3205,-153.5496 860.4305,-158.9587 861.8153,-152.0971"/>
</g>
<!-- Node22 -->
<g id="node23" class="node">
<title>Node22</title>
<g id="a_node23"><a xlink:href="_int_field_8_h.html" target="_top" xlink:title="amr&#45;wind/core/IntField.H">
<polygon fill="#ffffff" stroke="#000000" points="1164,-134.5 1164,-153.5 1288,-153.5 1288,-134.5 1164,-134.5"/>
<text text-anchor="middle" x="1226" y="-141.5" font-family="Helvetica,sans-Serif" font-size="10.00" fill="#000000">amr&#45;wind/core/IntField.H</text>
</a>
</g>
</g>
<!-- Node10&#45;&gt;Node22 -->
<g id="edge38" class="edge">
<title>Node10&#45;&gt;Node22</title>
<path fill="none" stroke="#191970" d="M1148.8948,-201.4005C1163.4642,-190.5544 1187.4022,-172.7339 1204.7454,-159.8229"/>
<polygon fill="#191970" stroke="#191970" points="1207.1978,-162.3606 1213.1291,-153.5817 1203.0177,-156.7457 1207.1978,-162.3606"/>
</g>
<!-- Node23 -->
<g id="node24" class="node">
<title>Node23</title>
<polygon fill="#ffffff" stroke="#bfbfbf" points="1430.5,-62 1430.5,-81 1537.5,-81 1537.5,-62 1430.5,-62"/>
<text text-anchor="middle" x="1484" y="-69" font-family="Helvetica,sans-Serif" font-size="10.00" fill="#000000">AMReX_iMultiFab.H</text>
</g>
<!-- Node10&#45;&gt;Node23 -->
<g id="edge51" class="edge">
<title>Node10&#45;&gt;Node23</title>
<path fill="none" stroke="#191970" d="M1198.9633,-201.4559C1230.159,-194.6957 1267.3858,-183.436 1297,-165 1318.3702,-151.6962 1314.0001,-136.881 1335,-123 1363.2061,-104.3557 1398.8866,-91.7129 1428.2597,-83.621"/>
<polygon fill="#191970" stroke="#191970" points="1429.1903,-86.9953 1437.9593,-81.0492 1427.3962,-80.2291 1429.1903,-86.9953"/>
</g>
<!-- Node24 -->
<g id="node25" class="node">
<title>Node24</title>
<g id="a_node25"><a xlink:href="_scratch_field_8_h.html" target="_top" xlink:title="amr&#45;wind/core/ScratchField.H">
<polygon fill="#ffffff" stroke="#000000" points="1493,-134.5 1493,-153.5 1639,-153.5 1639,-134.5 1493,-134.5"/>
<text text-anchor="middle" x="1566" y="-141.5" font-family="Helvetica,sans-Serif" font-size="10.00" fill="#000000">amr&#45;wind/core/ScratchField.H</text>
</a>
</g>
</g>
<!-- Node10&#45;&gt;Node24 -->
<g id="edge42" class="edge">
<title>Node10&#45;&gt;Node24</title>
<path fill="none" stroke="#191970" d="M1204.2155,-202.3395C1269.6989,-193.7771 1371.3183,-179.8374 1459,-165 1475.6939,-162.1751 1493.7832,-158.7608 1510.2554,-155.5139"/>
<polygon fill="#191970" stroke="#191970" points="1511.1508,-158.9044 1520.2758,-153.5205 1509.7851,-152.0389 1511.1508,-158.9044"/>
</g>
<!-- Node26 -->
<g id="node27" class="node">
<title>Node26</title>
<polygon fill="#ffffff" stroke="#bfbfbf" points="1344,-134.5 1344,-153.5 1450,-153.5 1450,-134.5 1344,-134.5"/>
<text text-anchor="middle" x="1397" y="-141.5" font-family="Helvetica,sans-Serif" font-size="10.00" fill="#000000">AMReX_AmrCore.H</text>
</g>
<!-- Node10&#45;&gt;Node26 -->
<g id="edge49" class="edge">
<title>Node10&#45;&gt;Node26</title>
<path fill="none" stroke="#191970" d="M1180.1438,-201.47C1219.6127,-192.7271 1278.9343,-179.038 1330,-165 1339.236,-162.461 1349.1145,-159.5022 1358.371,-156.6204"/>
<polygon fill="#191970" stroke="#191970" points="1359.6278,-159.894 1368.1112,-153.5472 1357.5215,-153.2184 1359.6278,-159.894"/>
</g>
<!-- Node14&#45;&gt;Node13 -->
<g id="edge21" class="edge">
<title>Node14&#45;&gt;Node13</title>
<path fill="none" stroke="#191970" d="M992.9688,-61.8906C1023.5755,-51.3749 1072.7899,-34.466 1106.6741,-22.8243"/>
<polygon fill="#191970" stroke="#191970" points="1107.9076,-26.1014 1116.2276,-19.5419 1105.633,-19.4812 1107.9076,-26.1014"/>
</g>
<!-- Node14&#45;&gt;Node15 -->
<g id="edge22" class="edge">
<title>Node14&#45;&gt;Node15</title>
<path fill="none" stroke="#191970" d="M967.0313,-61.8906C968.8522,-53.276 971.5802,-40.3708 973.8599,-29.5858"/>
<polygon fill="#191970" stroke="#191970" points="977.2962,-30.2525 975.9401,-19.7449 970.4476,-28.8048 977.2962,-30.2525"/>
</g>
<!-- Node16 -->
<g id="node17" class="node">
<title>Node16</title>
<polygon fill="#ffffff" stroke="#bfbfbf" points="792,-.5 792,-19.5 908,-19.5 908,-.5 792,-.5"/>
<text text-anchor="middle" x="850" y="-7.5" font-family="Helvetica,sans-Serif" font-size="10.00" fill="#000000">AMReX_Interpolater.H</text>
</g>
<!-- Node14&#45;&gt;Node16 -->
<g id="edge23" class="edge">
<title>Node14&#45;&gt;Node16</title>
<path fill="none" stroke="#191970" d="M947.0313,-61.8906C928.2116,-51.8262 898.4415,-35.9057 876.8359,-24.3514"/>
<polygon fill="#191970" stroke="#191970" points="878.3114,-21.1714 867.8426,-19.5419 875.0102,-27.3442 878.3114,-21.1714"/>
</g>
<!-- Node17&#45;&gt;Node4 -->
<g id="edge30" class="edge">
<title>Node17&#45;&gt;Node4</title>
<path fill="none" stroke="#191970" d="M747.4796,-140.7748C654.5857,-134.7514 464.1507,-119.3596 306,-87 301.5715,-86.0939 296.9762,-84.9829 292.4322,-83.7756"/>
<polygon fill="#191970" stroke="#191970" points="293.2257,-80.363 282.6514,-81.0212 291.3282,-87.1009 293.2257,-80.363"/>
</g>
<!-- Node17&#45;&gt;Node5 -->
<g id="edge29" class="edge">
<title>Node17&#45;&gt;Node5</title>
<path fill="none" stroke="#191970" d="M747.3785,-134.6703C663.9626,-120.9257 508.7564,-95.3519 423.6442,-81.3277"/>
<polygon fill="#191970" stroke="#191970" points="424.0576,-77.8487 413.6216,-79.6763 422.9195,-84.7556 424.0576,-77.8487"/>
</g>
<!-- Node17&#45;&gt;Node11 -->
<g id="edge25" class="edge">
<title>Node17&#45;&gt;Node11</title>
<path fill="none" stroke="#191970" d="M860.5324,-140.6206C990.6941,-132.4742 1303.5929,-110.6678 1345,-87 1368.1489,-73.7684 1384.6579,-46.9129 1393.7651,-28.6854"/>
<polygon fill="#191970" stroke="#191970" points="1396.9557,-30.1253 1398.0583,-19.588 1390.6252,-27.1378 1396.9557,-30.1253"/>
</g>
<!-- Node17&#45;&gt;Node12 -->
<g id="edge27" class="edge">
<title>Node17&#45;&gt;Node12</title>
<path fill="none" stroke="#191970" d="M808.7203,-134.2223C814.1256,-123.0256 823.1076,-104.42 829.8886,-90.3737"/>
<polygon fill="#191970" stroke="#191970" points="833.1589,-91.6499 834.3545,-81.1228 826.855,-88.6066 833.1589,-91.6499"/>
</g>
<!-- Node17&#45;&gt;Node13 -->
<g id="edge32" class="edge">
<title>Node17&#45;&gt;Node13</title>
<path fill="none" stroke="#191970" d="M860.7338,-136.9579C910.1396,-129.3081 982.774,-114.3395 1041,-87 1074.2446,-71.3903 1107.2941,-44.0477 1126.6723,-26.4961"/>
<polygon fill="#191970" stroke="#191970" points="1129.1287,-28.9919 1134.1009,-19.6363 1124.3797,-23.8492 1129.1287,-28.9919"/>
</g>
<!-- Node17&#45;&gt;Node15 -->
<g id="edge28" class="edge">
<title>Node17&#45;&gt;Node15</title>
<path fill="none" stroke="#191970" d="M798.0527,-134.3628C788.0621,-116.8051 770.7103,-79.2751 789,-56 797.0369,-45.7724 863.8573,-31.1939 915.794,-21.2061"/>
<polygon fill="#191970" stroke="#191970" points="916.461,-24.6421 925.6306,-19.3346 915.1526,-17.7655 916.461,-24.6421"/>
</g>
<!-- Node18 -->
<g id="node19" class="node">
<title>Node18</title>
<polygon fill="#ffffff" stroke="#bfbfbf" points="543,-62 543,-81 595,-81 595,-62 543,-62"/>
<text text-anchor="middle" x="569" y="-69" font-family="Helvetica,sans-Serif" font-size="10.00" fill="#000000">memory</text>
</g>
<!-- Node17&#45;&gt;Node18 -->
<g id="edge26" class="edge">
<title>Node17&#45;&gt;Node18</title>
<path fill="none" stroke="#191970" d="M764.3964,-134.4503C723.6717,-124.2275 658.6589,-106.783 604,-87 602.1722,-86.3385 600.3052,-85.6257 598.4317,-84.8822"/>
<polygon fill="#191970" stroke="#191970" points="599.7389,-81.6351 589.163,-81.0014 597.0354,-88.092 599.7389,-81.6351"/>
</g>
<!-- Node19 -->
<g id="node20" class="node">
<title>Node19</title>
<g id="a_node20"><a xlink:href="incflo__enums_8_h.html" target="_top" xlink:title="amr&#45;wind/incflo_enums.H">
<polygon fill="#ffffff" stroke="#000000" points="613,-62 613,-81 741,-81 741,-62 613,-62"/>
<text text-anchor="middle" x="677" y="-69" font-family="Helvetica,sans-Serif" font-size="10.00" fill="#000000">amr&#45;wind/incflo_enums.H</text>
</a>
</g>
</g>
<!-- Node17&#45;&gt;Node19 -->
<g id="edge31" class="edge">
<title>Node17&#45;&gt;Node19</title>
<path fill="none" stroke="#191970" d="M787.1354,-134.3726C765.5965,-122.0768 728.1037,-100.6734 702.9232,-86.2987"/>
<polygon fill="#191970" stroke="#191970" points="704.3541,-83.0854 693.9344,-81.1673 700.8837,-89.1646 704.3541,-83.0854"/>
</g>
<!-- Node20 -->
<g id="node21" class="node">
<title>Node20</title>
<g id="a_node21"><a xlink:href="_view_field_8_h.html" target="_top" xlink:title="amr&#45;wind/core/ViewField.H">
<polygon fill="#ffffff" stroke="#000000" points="1202,-62 1202,-81 1336,-81 1336,-62 1202,-62"/>
<text text-anchor="middle" x="1269" y="-69" font-family="Helvetica,sans-Serif" font-size="10.00" fill="#000000">amr&#45;wind/core/ViewField.H</text>
</a>
</g>
</g>
<!-- Node17&#45;&gt;Node20 -->
<g id="edge33" class="edge">
<title>Node17&#45;&gt;Node20</title>
<path fill="none" stroke="#191970" d="M860.5532,-135.1826C945.355,-121.9608 1105.3621,-97.0134 1197.9366,-82.5798"/>
<polygon fill="#191970" stroke="#191970" points="1198.7145,-86.0009 1208.0559,-81.002 1197.6361,-79.0844 1198.7145,-86.0009"/>
</g>
<!-- Node20&#45;&gt;Node11 -->
<g id="edge34" class="edge">
<title>Node20&#45;&gt;Node11</title>
<path fill="none" stroke="#191970" d="M1289.7813,-61.8906C1311.8394,-51.6908 1346.905,-35.4763 1371.9669,-23.8875"/>
<polygon fill="#191970" stroke="#191970" points="1373.7571,-26.9158 1381.3647,-19.5419 1370.8191,-20.5622 1373.7571,-26.9158"/>
</g>
<!-- Node20&#45;&gt;Node13 -->
<g id="edge35" class="edge">
<title>Node20&#45;&gt;Node13</title>
<path fill="none" stroke="#191970" d="M1249.4688,-61.8906C1228.8292,-51.7359 1196.0724,-35.6196 1172.5398,-24.0416"/>
<polygon fill="#191970" stroke="#191970" points="1173.912,-20.8161 1163.3941,-19.5419 1170.8218,-27.0971 1173.912,-20.8161"/>
</g>
<!-- Node20&#45;&gt;Node15 -->
<g id="edge36" class="edge">
<title>Node20&#45;&gt;Node15</title>
<path fill="none" stroke="#191970" d="M1223.8505,-61.9581C1172.4522,-51.0956 1088.4795,-33.3488 1033.2242,-21.6711"/>
<polygon fill="#191970" stroke="#191970" points="1033.763,-18.2077 1023.2554,-19.5643 1032.3155,-25.0565 1033.763,-18.2077"/>
</g>
<!-- Node21 -->
<g id="node22" class="node">
<title>Node21</title>
<polygon fill="#ffffff" stroke="#bfbfbf" points="1252.5,-.5 1252.5,-19.5 1347.5,-19.5 1347.5,-.5 1252.5,-.5"/>
<text text-anchor="middle" x="1300" y="-7.5" font-family="Helvetica,sans-Serif" font-size="10.00" fill="#000000">AMReX_Vector.H</text>
</g>
<!-- Node20&#45;&gt;Node21 -->
<g id="edge37" class="edge">
<title>Node20&#45;&gt;Node21</title>
<path fill="none" stroke="#191970" d="M1273.8438,-61.8906C1278.2766,-53.0965 1284.9631,-39.8312 1290.4659,-28.9145"/>
<polygon fill="#191970" stroke="#191970" points="1293.7122,-30.25 1295.088,-19.7449 1287.4614,-27.0992 1293.7122,-30.25"/>
</g>
<!-- Node22&#45;&gt;Node11 -->
<g id="edge39" class="edge">
<title>Node22&#45;&gt;Node11</title>
<path fill="none" stroke="#191970" d="M1262.1249,-134.4246C1301.7197,-123.2637 1361.7889,-104.156 1378,-87 1392.7522,-71.3879 1398.4423,-46.8384 1400.6337,-29.668"/>
<polygon fill="#191970" stroke="#191970" points="1404.1264,-29.9144 1401.6287,-19.6182 1397.1604,-29.2247 1404.1264,-29.9144"/>
</g>
<!-- Node22&#45;&gt;Node13 -->
<g id="edge40" class="edge">
<title>Node22&#45;&gt;Node13</title>
<path fill="none" stroke="#191970" d="M1220.1028,-134.3631C1206.5097,-112.1501 1172.7943,-57.0541 1155.1566,-28.2316"/>
<polygon fill="#191970" stroke="#191970" points="1158.0489,-26.2524 1149.8438,-19.5496 1152.0781,-29.9062 1158.0489,-26.2524"/>
</g>
<!-- Node22&#45;&gt;Node23 -->
<g id="edge41" class="edge">
<title>Node22&#45;&gt;Node23</title>
<path fill="none" stroke="#191970" d="M1259.9943,-134.4473C1306.3035,-121.4341 1389.2669,-98.1207 1440.1928,-83.8102"/>
<polygon fill="#191970" stroke="#191970" points="1441.2502,-87.1487 1449.9304,-81.0738 1439.3564,-80.4097 1441.2502,-87.1487"/>
</g>
<!-- Node24&#45;&gt;Node11 -->
<g id="edge43" class="edge">
<title>Node24&#45;&gt;Node11</title>
<path fill="none" stroke="#191970" d="M1571.7483,-134.3795C1581.394,-116.8489 1598.0916,-79.3613 1580,-56 1562.0959,-32.8808 1478.6363,-19.2914 1432.6334,-13.4335"/>
<polygon fill="#191970" stroke="#191970" points="1432.9655,-9.9481 1422.6137,-12.2045 1432.1132,-16.896 1432.9655,-9.9481"/>
</g>
<!-- Node24&#45;&gt;Node13 -->
<g id="edge44" class="edge">
<title>Node24&#45;&gt;Node13</title>
<path fill="none" stroke="#191970" d="M1567.1767,-134.3136C1568.8042,-115.9832 1569.3595,-76.2488 1547,-56 1544.1233,-53.3949 1353.9499,-32.5479 1235.9047,-19.8293"/>
<polygon fill="#191970" stroke="#191970" points="1236.0906,-16.3292 1225.7733,-18.7386 1235.3412,-23.289 1236.0906,-16.3292"/>
</g>
<!-- Node24&#45;&gt;Node15 -->
<g id="edge46" class="edge">
<title>Node24&#45;&gt;Node15</title>
<path fill="none" stroke="#191970" d="M1520.5501,-134.4622C1501.5713,-130.6403 1479.2638,-126.3567 1459,-123 1341.3039,-103.5036 1308.9029,-115.2669 1193,-87 1125.7806,-70.6063 1050.2978,-40.7822 1009.0535,-23.4561"/>
<polygon fill="#191970" stroke="#191970" points="1010.3892,-20.2209 999.816,-19.5434 1007.659,-26.6666 1010.3892,-20.2209"/>
</g>
<!-- Node24&#45;&gt;Node20 -->
<g id="edge45" class="edge">
<title>Node24&#45;&gt;Node20</title>
<path fill="none" stroke="#191970" d="M1526.867,-134.4473C1473.1134,-121.3257 1376.4585,-97.7315 1317.9714,-83.4543"/>
<polygon fill="#191970" stroke="#191970" points="1318.7644,-80.0452 1308.2196,-81.0738 1317.1043,-86.8455 1318.7644,-80.0452"/>
</g>
<!-- Node24&#45;&gt;Node21 -->
<g id="edge47" class="edge">
<title>Node24&#45;&gt;Node21</title>
<path fill="none" stroke="#191970" d="M1639.2364,-136.5234C1713.5818,-126.1772 1812.0632,-103.1557 1769,-56 1739.2068,-23.3754 1416.8977,-24.9994 1373,-20 1368.1703,-19.45 1363.1659,-18.8429 1358.1452,-18.2078"/>
<polygon fill="#191970" stroke="#191970" points="1358.2344,-14.6901 1347.8672,-16.8742 1357.3336,-21.6319 1358.2344,-14.6901"/>
</g>
<!-- Node25 -->
<g id="node26" class="node">
<title>Node25</title>
<polygon fill="#ffffff" stroke="#bfbfbf" points="1632,-62 1632,-81 1760,-81 1760,-62 1632,-62"/>
<text text-anchor="middle" x="1696" y="-69" font-family="Helvetica,sans-Serif" font-size="10.00" fill="#000000">AMReX_PhysBCFunct.H</text>
</g>
<!-- Node24&#45;&gt;Node25 -->
<g id="edge48" class="edge">
<title>Node24&#45;&gt;Node25</title>
<path fill="none" stroke="#191970" d="M1583.263,-134.3726C1605.4078,-122.0226 1644.0276,-100.4846 1669.8043,-86.1091"/>
<polygon fill="#191970" stroke="#191970" points="1671.6367,-89.0948 1678.6656,-81.1673 1668.2272,-82.9812 1671.6367,-89.0948"/>
</g>
</g>
</svg>
