<?xml version="1.0" encoding="UTF-8" standalone="no"?>
<!DOCTYPE svg PUBLIC "-//W3C//DTD SVG 1.1//EN"
 "http://www.w3.org/Graphics/SVG/1.1/DTD/svg11.dtd">
<!-- Generated by graphviz version 2.40.1 (20161225.0304)
 -->
<!-- Title: incflo_godunov_ppm.cpp Pages: 1 -->
<svg width="1613pt" height="341pt"
 viewBox="0.00 0.00 1612.50 341.00" xmlns="http://www.w3.org/2000/svg" xmlns:xlink="http://www.w3.org/1999/xlink">
<g id="graph0" class="graph" transform="scale(1 1) rotate(0) translate(4 337)">
<title>incflo_godunov_ppm.cpp</title>
<polygon fill="#ffffff" stroke="transparent" points="-4,4 -4,-337 1608.5,-337 1608.5,4 -4,4"/>
<!-- Node0 -->
<g id="node1" class="node">
<title>Node0</title>
<polygon fill="#bfbfbf" stroke="#000000" points="129,-313.5 129,-332.5 254,-332.5 254,-313.5 129,-313.5"/>
<text text-anchor="middle" x="191.5" y="-320.5" font-family="Helvetica,sans-Serif" font-size="10.00" fill="#000000">incflo_godunov_ppm.cpp</text>
</g>
<!-- Node1 -->
<g id="node2" class="node">
<title>Node1</title>
<g id="a_node2"><a xlink:href="incflo__godunov__ppm_8_h.html" target="_top" xlink:title="amr&#45;wind/convection\l/incflo_godunov_ppm.H">
<polygon fill="#ffffff" stroke="#000000" points="0,-118 0,-148 119,-148 119,-118 0,-118"/>
<text text-anchor="start" x="8" y="-136" font-family="Helvetica,sans-Serif" font-size="10.00" fill="#000000">amr&#45;wind/convection</text>
<text text-anchor="middle" x="59.5" y="-125" font-family="Helvetica,sans-Serif" font-size="10.00" fill="#000000">/incflo_godunov_ppm.H</text>
</a>
</g>
</g>
<!-- Node0&#45;&gt;Node1 -->
<g id="edge1" class="edge">
<title>Node0&#45;&gt;Node1</title>
<path fill="none" stroke="#191970" d="M184.7726,-313.3167C164.7118,-284.4413 104.8977,-198.3451 75.7823,-156.4367"/>
<polygon fill="#191970" stroke="#191970" points="78.6408,-154.4167 70.0608,-148.2011 72.892,-158.4107 78.6408,-154.4167"/>
</g>
<!-- Node4 -->
<g id="node5" class="node">
<title>Node4</title>
<g id="a_node5"><a xlink:href="incflo__godunov__ppm__nolim_8_h.html" target="_top" xlink:title="amr&#45;wind/convection\l/incflo_godunov_ppm\l_nolim.H">
<polygon fill="#ffffff" stroke="#000000" points="137,-112.5 137,-153.5 246,-153.5 246,-112.5 137,-112.5"/>
<text text-anchor="start" x="145" y="-141.5" font-family="Helvetica,sans-Serif" font-size="10.00" fill="#000000">amr&#45;wind/convection</text>
<text text-anchor="start" x="145" y="-130.5" font-family="Helvetica,sans-Serif" font-size="10.00" fill="#000000">/incflo_godunov_ppm</text>
<text text-anchor="middle" x="191.5" y="-119.5" font-family="Helvetica,sans-Serif" font-size="10.00" fill="#000000">_nolim.H</text>
</a>
</g>
</g>
<!-- Node0&#45;&gt;Node4 -->
<g id="edge4" class="edge">
<title>Node0&#45;&gt;Node4</title>
<path fill="none" stroke="#191970" d="M191.5,-313.3167C191.5,-286.0707 191.5,-207.8796 191.5,-163.9352"/>
<polygon fill="#191970" stroke="#191970" points="195.0001,-163.8114 191.5,-153.8114 188.0001,-163.8115 195.0001,-163.8114"/>
</g>
<!-- Node5 -->
<g id="node6" class="node">
<title>Node5</title>
<g id="a_node6"><a xlink:href="_godunov_8_h.html" target="_top" xlink:title="amr&#45;wind/convection\l/Godunov.H">
<polygon fill="#ffffff" stroke="#000000" points="671,-246.5 671,-276.5 778,-276.5 778,-246.5 671,-246.5"/>
<text text-anchor="start" x="679" y="-264.5" font-family="Helvetica,sans-Serif" font-size="10.00" fill="#000000">amr&#45;wind/convection</text>
<text text-anchor="middle" x="724.5" y="-253.5" font-family="Helvetica,sans-Serif" font-size="10.00" fill="#000000">/Godunov.H</text>
</a>
</g>
</g>
<!-- Node0&#45;&gt;Node5 -->
<g id="edge7" class="edge">
<title>Node0&#45;&gt;Node5</title>
<path fill="none" stroke="#191970" d="M254.2092,-315.7643C356.4745,-303.9645 558.0483,-280.706 660.8921,-268.8394"/>
<polygon fill="#191970" stroke="#191970" points="661.2974,-272.3159 670.8303,-267.6927 660.495,-265.3621 661.2974,-272.3159"/>
</g>
<!-- Node2 -->
<g id="node3" class="node">
<title>Node2</title>
<polygon fill="#ffffff" stroke="#bfbfbf" points="40,-56.5 40,-75.5 125,-75.5 125,-56.5 40,-56.5"/>
<text text-anchor="middle" x="82.5" y="-63.5" font-family="Helvetica,sans-Serif" font-size="10.00" fill="#000000">AMReX_Gpu.H</text>
</g>
<!-- Node1&#45;&gt;Node2 -->
<g id="edge2" class="edge">
<title>Node1&#45;&gt;Node2</title>
<path fill="none" stroke="#191970" d="M64.7191,-117.7967C68.0242,-108.1685 72.3279,-95.6318 75.8733,-85.3038"/>
<polygon fill="#191970" stroke="#191970" points="79.2834,-86.1496 79.2199,-75.555 72.6626,-83.8768 79.2834,-86.1496"/>
</g>
<!-- Node3 -->
<g id="node4" class="node">
<title>Node3</title>
<polygon fill="#ffffff" stroke="#bfbfbf" points="143,-56.5 143,-75.5 242,-75.5 242,-56.5 143,-56.5"/>
<text text-anchor="middle" x="192.5" y="-63.5" font-family="Helvetica,sans-Serif" font-size="10.00" fill="#000000">AMReX_BCRec.H</text>
</g>
<!-- Node1&#45;&gt;Node3 -->
<g id="edge3" class="edge">
<title>Node1&#45;&gt;Node3</title>
<path fill="none" stroke="#191970" d="M89.3478,-117.9639C111.764,-106.6715 142.2606,-91.3086 164.2738,-80.2192"/>
<polygon fill="#191970" stroke="#191970" points="166.0793,-83.2287 173.4355,-75.6039 162.93,-76.9772 166.0793,-83.2287"/>
</g>
<!-- Node4&#45;&gt;Node2 -->
<g id="edge5" class="edge">
<title>Node4&#45;&gt;Node2</title>
<path fill="none" stroke="#191970" d="M157.907,-112.3511C141.4342,-102.2256 121.9579,-90.254 106.9257,-81.0139"/>
<polygon fill="#191970" stroke="#191970" points="108.5589,-77.9095 98.2068,-75.6546 104.8932,-83.873 108.5589,-77.9095"/>
</g>
<!-- Node4&#45;&gt;Node3 -->
<g id="edge6" class="edge">
<title>Node4&#45;&gt;Node3</title>
<path fill="none" stroke="#191970" d="M191.8109,-112.168C191.9355,-103.8226 192.0784,-94.2471 192.2017,-85.9879"/>
<polygon fill="#191970" stroke="#191970" points="195.7043,-85.8316 192.354,-75.7805 188.7051,-85.7271 195.7043,-85.8316"/>
</g>
<!-- Node6 -->
<g id="node7" class="node">
<title>Node6</title>
<g id="a_node7"><a xlink:href="_field_repo_8_h.html" target="_top" xlink:title="amr&#45;wind/core/FieldRepo.H">
<polygon fill="#ffffff" stroke="#000000" points="1128.5,-190.5 1128.5,-209.5 1264.5,-209.5 1264.5,-190.5 1128.5,-190.5"/>
<text text-anchor="middle" x="1196.5" y="-197.5" font-family="Helvetica,sans-Serif" font-size="10.00" fill="#000000">amr&#45;wind/core/FieldRepo.H</text>
</a>
</g>
</g>
<!-- Node5&#45;&gt;Node6 -->
<g id="edge8" class="edge">
<title>Node5&#45;&gt;Node6</title>
<path fill="none" stroke="#191970" d="M778.1849,-254.505C861.4958,-243.6499 1022.3092,-222.6965 1118.4569,-210.1687"/>
<polygon fill="#191970" stroke="#191970" points="1118.9515,-213.634 1128.4155,-208.8712 1118.047,-206.6927 1118.9515,-213.634"/>
</g>
<!-- Node7 -->
<g id="node8" class="node">
<title>Node7</title>
<polygon fill="#ffffff" stroke="#bfbfbf" points="544,-.5 544,-19.5 585,-19.5 585,-.5 544,-.5"/>
<text text-anchor="middle" x="564.5" y="-7.5" font-family="Helvetica,sans-Serif" font-size="10.00" fill="#000000">string</text>
</g>
<!-- Node6&#45;&gt;Node7 -->
<g id="edge9" class="edge">
<title>Node6&#45;&gt;Node7</title>
<path fill="none" stroke="#191970" d="M1128.4336,-197.1895C984.6551,-190.9284 654.1573,-174.737 543.5,-154 428.2636,-132.4049 361.075,-170.3668 291.5,-76 286.2251,-68.8455 285.7605,-62.7875 291.5,-56 307.0394,-37.6231 465.3654,-19.8448 533.5442,-12.9768"/>
<polygon fill="#191970" stroke="#191970" points="534.072,-16.4417 543.6768,-11.9698 533.3796,-9.476 534.072,-16.4417"/>
</g>
<!-- Node8 -->
<g id="node9" class="node">
<title>Node8</title>
<polygon fill="#ffffff" stroke="#bfbfbf" points="669,-56.5 669,-75.5 752,-75.5 752,-56.5 669,-56.5"/>
<text text-anchor="middle" x="710.5" y="-63.5" font-family="Helvetica,sans-Serif" font-size="10.00" fill="#000000">unordered_map</text>
</g>
<!-- Node6&#45;&gt;Node8 -->
<g id="edge10" class="edge">
<title>Node6&#45;&gt;Node8</title>
<path fill="none" stroke="#191970" d="M1128.4579,-192.5809C1073.3054,-185.5757 993.9477,-173.2353 926.5,-154 857.1037,-134.209 779.6498,-99.3265 738.9875,-79.9553"/>
<polygon fill="#191970" stroke="#191970" points="740.4701,-76.7847 729.9404,-75.6112 737.4401,-83.0949 740.4701,-76.7847"/>
</g>
<!-- Node9 -->
<g id="node10" class="node">
<title>Node9</title>
<g id="a_node10"><a xlink:href="_field_desc_types_8_h.html" target="_top" xlink:title="amr&#45;wind/core/FieldDescTypes.H">
<polygon fill="#ffffff" stroke="#000000" points="1149,-.5 1149,-19.5 1312,-19.5 1312,-.5 1149,-.5"/>
<text text-anchor="middle" x="1230.5" y="-7.5" font-family="Helvetica,sans-Serif" font-size="10.00" fill="#000000">amr&#45;wind/core/FieldDescTypes.H</text>
</a>
</g>
</g>
<!-- Node6&#45;&gt;Node9 -->
<g id="edge11" class="edge">
<title>Node6&#45;&gt;Node9</title>
<path fill="none" stroke="#191970" d="M1254.9189,-190.4468C1299.767,-182.1296 1357.0427,-169.0635 1375.5,-154 1405.3752,-129.618 1404.8339,-113.5754 1413.5,-76 1415.4976,-67.3385 1418.9658,-63.0098 1413.5,-56 1400.9587,-39.9161 1357.323,-28.5958 1315.8084,-21.2102"/>
<polygon fill="#191970" stroke="#191970" points="1316.3294,-17.7485 1305.8819,-19.5093 1315.1472,-24.648 1316.3294,-17.7485"/>
</g>
<!-- Node10 -->
<g id="node11" class="node">
<title>Node10</title>
<g id="a_node11"><a xlink:href="_field_utils_8_h.html" target="_top" xlink:title="amr&#45;wind/core/FieldUtils.H">
<polygon fill="#ffffff" stroke="#000000" points="1461,-56.5 1461,-75.5 1594,-75.5 1594,-56.5 1461,-56.5"/>
<text text-anchor="middle" x="1527.5" y="-63.5" font-family="Helvetica,sans-Serif" font-size="10.00" fill="#000000">amr&#45;wind/core/FieldUtils.H</text>
</a>
</g>
</g>
<!-- Node6&#45;&gt;Node10 -->
<g id="edge12" class="edge">
<title>Node6&#45;&gt;Node10</title>
<path fill="none" stroke="#191970" d="M1264.6419,-192.3826C1327.6223,-184.4649 1415.9293,-170.8751 1446.5,-154 1454.6714,-149.4894 1491.3211,-107.9052 1512.4149,-83.5495"/>
<polygon fill="#191970" stroke="#191970" points="1515.2696,-85.5987 1519.1551,-75.7421 1509.971,-81.0244 1515.2696,-85.5987"/>
</g>
<!-- Node11 -->
<g id="node12" class="node">
<title>Node11</title>
<polygon fill="#ffffff" stroke="#bfbfbf" points="956.5,-.5 956.5,-19.5 1060.5,-19.5 1060.5,-.5 956.5,-.5"/>
<text text-anchor="middle" x="1008.5" y="-7.5" font-family="Helvetica,sans-Serif" font-size="10.00" fill="#000000">AMReX_MultiFab.H</text>
</g>
<!-- Node6&#45;&gt;Node11 -->
<g id="edge42" class="edge">
<title>Node6&#45;&gt;Node11</title>
<path fill="none" stroke="#191970" d="M1198.13,-190.49C1201.8962,-165.1181 1208.3951,-95.0988 1173.5,-56 1159.5972,-40.4223 1111.3016,-28.0937 1070.5268,-20.1368"/>
<polygon fill="#191970" stroke="#191970" points="1071.0946,-16.6822 1060.6177,-18.2583 1069.7908,-23.5597 1071.0946,-16.6822"/>
</g>
<!-- Node13 -->
<g id="node14" class="node">
<title>Node13</title>
<g id="a_node14"><a xlink:href="_field_8_h.html" target="_top" xlink:title="amr&#45;wind/core/Field.H">
<polygon fill="#ffffff" stroke="#000000" points="552,-123.5 552,-142.5 665,-142.5 665,-123.5 552,-123.5"/>
<text text-anchor="middle" x="608.5" y="-130.5" font-family="Helvetica,sans-Serif" font-size="10.00" fill="#000000">amr&#45;wind/core/Field.H</text>
</a>
</g>
</g>
<!-- Node6&#45;&gt;Node13 -->
<g id="edge16" class="edge">
<title>Node6&#45;&gt;Node13</title>
<path fill="none" stroke="#191970" d="M1128.4977,-194.9306C1037.2545,-187.7602 870.2632,-173.3433 728.5,-154 708.6919,-151.2972 687.1515,-147.7274 667.8585,-144.2992"/>
<polygon fill="#191970" stroke="#191970" points="668.4572,-140.8508 657.9954,-142.5248 667.2177,-147.7402 668.4572,-140.8508"/>
</g>
<!-- Node18 -->
<g id="node19" class="node">
<title>Node18</title>
<g id="a_node19"><a xlink:href="_int_field_8_h.html" target="_top" xlink:title="amr&#45;wind/core/IntField.H">
<polygon fill="#ffffff" stroke="#000000" points="1224.5,-123.5 1224.5,-142.5 1348.5,-142.5 1348.5,-123.5 1224.5,-123.5"/>
<text text-anchor="middle" x="1286.5" y="-130.5" font-family="Helvetica,sans-Serif" font-size="10.00" fill="#000000">amr&#45;wind/core/IntField.H</text>
</a>
</g>
</g>
<!-- Node6&#45;&gt;Node18 -->
<g id="edge30" class="edge">
<title>Node6&#45;&gt;Node18</title>
<path fill="none" stroke="#191970" d="M1209.3948,-190.4005C1223.9642,-179.5544 1247.9022,-161.7339 1265.2454,-148.8229"/>
<polygon fill="#191970" stroke="#191970" points="1267.6978,-151.3606 1273.6291,-142.5817 1263.5177,-145.7457 1267.6978,-151.3606"/>
</g>
<!-- Node19 -->
<g id="node20" class="node">
<title>Node19</title>
<polygon fill="#ffffff" stroke="#bfbfbf" points="1297,-56.5 1297,-75.5 1404,-75.5 1404,-56.5 1297,-56.5"/>
<text text-anchor="middle" x="1350.5" y="-63.5" font-family="Helvetica,sans-Serif" font-size="10.00" fill="#000000">AMReX_iMultiFab.H</text>
</g>
<!-- Node6&#45;&gt;Node19 -->
<g id="edge43" class="edge">
<title>Node6&#45;&gt;Node19</title>
<path fill="none" stroke="#191970" d="M1256.8789,-190.4792C1297.233,-182.7415 1345.1147,-170.4196 1357.5,-154 1372.3735,-134.2817 1365.7468,-104.5158 1358.795,-85.1667"/>
<polygon fill="#191970" stroke="#191970" points="1361.9556,-83.6403 1355.034,-75.6189 1355.4426,-86.2058 1361.9556,-83.6403"/>
</g>
<!-- Node20 -->
<g id="node21" class="node">
<title>Node20</title>
<g id="a_node21"><a xlink:href="_scratch_field_8_h.html" target="_top" xlink:title="amr&#45;wind/core/ScratchField.H">
<polygon fill="#ffffff" stroke="#000000" points="935.5,-123.5 935.5,-142.5 1081.5,-142.5 1081.5,-123.5 935.5,-123.5"/>
<text text-anchor="middle" x="1008.5" y="-130.5" font-family="Helvetica,sans-Serif" font-size="10.00" fill="#000000">amr&#45;wind/core/ScratchField.H</text>
</a>
</g>
</g>
<!-- Node6&#45;&gt;Node20 -->
<g id="edge34" class="edge">
<title>Node6&#45;&gt;Node20</title>
<path fill="none" stroke="#191970" d="M1169.5642,-190.4005C1136.8967,-178.7584 1081.6812,-159.0805 1045.1575,-146.0641"/>
<polygon fill="#191970" stroke="#191970" points="1045.9805,-142.6418 1035.3858,-142.5817 1043.6306,-149.2356 1045.9805,-142.6418"/>
</g>
<!-- Node22 -->
<g id="node23" class="node">
<title>Node22</title>
<polygon fill="#ffffff" stroke="#bfbfbf" points="1498.5,-123.5 1498.5,-142.5 1604.5,-142.5 1604.5,-123.5 1498.5,-123.5"/>
<text text-anchor="middle" x="1551.5" y="-130.5" font-family="Helvetica,sans-Serif" font-size="10.00" fill="#000000">AMReX_AmrCore.H</text>
</g>
<!-- Node6&#45;&gt;Node22 -->
<g id="edge41" class="edge">
<title>Node6&#45;&gt;Node22</title>
<path fill="none" stroke="#191970" d="M1264.544,-191.9692C1323.2485,-184.3672 1410.0749,-171.5093 1484.5,-154 1494.2755,-151.7002 1504.6979,-148.7058 1514.3385,-145.7021"/>
<polygon fill="#191970" stroke="#191970" points="1515.5844,-148.9783 1524.042,-142.5972 1513.4511,-142.3113 1515.5844,-148.9783"/>
</g>
<!-- Node10&#45;&gt;Node9 -->
<g id="edge13" class="edge">
<title>Node10&#45;&gt;Node9</title>
<path fill="none" stroke="#191970" d="M1476.7813,-56.4369C1425.3114,-46.7321 1345.6298,-31.708 1290.9216,-21.3926"/>
<polygon fill="#191970" stroke="#191970" points="1291.4848,-17.9372 1281.0095,-19.5237 1290.1878,-24.816 1291.4848,-17.9372"/>
</g>
<!-- Node10&#45;&gt;Node11 -->
<g id="edge14" class="edge">
<title>Node10&#45;&gt;Node11</title>
<path fill="none" stroke="#191970" d="M1460.9769,-58.8222C1359.9294,-47.9192 1169.1349,-27.3325 1070.7115,-16.7126"/>
<polygon fill="#191970" stroke="#191970" points="1070.9351,-13.2165 1060.6173,-15.6234 1070.1841,-20.1761 1070.9351,-13.2165"/>
</g>
<!-- Node12 -->
<g id="node13" class="node">
<title>Node12</title>
<polygon fill="#ffffff" stroke="#bfbfbf" points="1469.5,-.5 1469.5,-19.5 1585.5,-19.5 1585.5,-.5 1469.5,-.5"/>
<text text-anchor="middle" x="1527.5" y="-7.5" font-family="Helvetica,sans-Serif" font-size="10.00" fill="#000000">AMReX_Interpolater.H</text>
</g>
<!-- Node10&#45;&gt;Node12 -->
<g id="edge15" class="edge">
<title>Node10&#45;&gt;Node12</title>
<path fill="none" stroke="#191970" d="M1527.5,-56.2455C1527.5,-48.9382 1527.5,-38.6944 1527.5,-29.7046"/>
<polygon fill="#191970" stroke="#191970" points="1531.0001,-29.6426 1527.5,-19.6427 1524.0001,-29.6427 1531.0001,-29.6426"/>
</g>
<!-- Node13&#45;&gt;Node2 -->
<g id="edge22" class="edge">
<title>Node13&#45;&gt;Node2</title>
<path fill="none" stroke="#191970" d="M551.6458,-127.5549C464.2559,-118.8822 291.4697,-100.5366 135.2966,-76.197"/>
<polygon fill="#191970" stroke="#191970" points="135.4568,-72.6793 125.0348,-74.5851 134.3706,-79.5945 135.4568,-72.6793"/>
</g>
<!-- Node13&#45;&gt;Node3 -->
<g id="edge21" class="edge">
<title>Node13&#45;&gt;Node3</title>
<path fill="none" stroke="#191970" d="M551.9635,-123.8944C473.4579,-111.2504 332.0794,-88.4803 252.0175,-75.5858"/>
<polygon fill="#191970" stroke="#191970" points="252.5203,-72.1217 242.091,-73.987 251.4072,-79.0327 252.5203,-72.1217"/>
</g>
<!-- Node13&#45;&gt;Node7 -->
<g id="edge17" class="edge">
<title>Node13&#45;&gt;Node7</title>
<path fill="none" stroke="#191970" d="M593.3009,-123.38C579.1976,-113.4624 559.1259,-96.5713 550.5,-76 544.1474,-60.8501 548.9573,-42.4907 554.6057,-28.9855"/>
<polygon fill="#191970" stroke="#191970" points="557.8638,-30.2801 558.9174,-19.7378 551.5195,-27.3221 557.8638,-30.2801"/>
</g>
<!-- Node13&#45;&gt;Node8 -->
<g id="edge19" class="edge">
<title>Node13&#45;&gt;Node8</title>
<path fill="none" stroke="#191970" d="M623.1141,-123.4005C639.929,-112.3554 667.7549,-94.0776 687.4858,-81.1172"/>
<polygon fill="#191970" stroke="#191970" points="689.4764,-83.9972 695.913,-75.5817 685.6333,-78.1465 689.4764,-83.9972"/>
</g>
<!-- Node13&#45;&gt;Node9 -->
<g id="edge24" class="edge">
<title>Node13&#45;&gt;Node9</title>
<path fill="none" stroke="#191970" d="M665.2491,-125.2145C733.5208,-115.4698 851.4501,-97.4295 951.5,-76 985.6532,-68.6848 993.574,-64.3052 1027.5,-56 1077.9232,-43.6563 1135.6794,-30.6809 1176.6608,-21.6698"/>
<polygon fill="#191970" stroke="#191970" points="1177.4244,-25.0856 1186.4422,-19.5242 1175.9245,-18.2481 1177.4244,-25.0856"/>
</g>
<!-- Node13&#45;&gt;Node11 -->
<g id="edge20" class="edge">
<title>Node13&#45;&gt;Node11</title>
<path fill="none" stroke="#191970" d="M611.9937,-123.2346C618.5866,-106.3667 634.5747,-72.0424 660.5,-56 706.9844,-27.2358 859.2142,-16.1962 946.1556,-12.1649"/>
<polygon fill="#191970" stroke="#191970" points="946.331,-15.6606 956.165,-11.7183 946.0189,-8.6676 946.331,-15.6606"/>
</g>
<!-- Node14 -->
<g id="node15" class="node">
<title>Node14</title>
<polygon fill="#ffffff" stroke="#bfbfbf" points="300.5,-56.5 300.5,-75.5 352.5,-75.5 352.5,-56.5 300.5,-56.5"/>
<text text-anchor="middle" x="326.5" y="-63.5" font-family="Helvetica,sans-Serif" font-size="10.00" fill="#000000">memory</text>
</g>
<!-- Node13&#45;&gt;Node14 -->
<g id="edge18" class="edge">
<title>Node13&#45;&gt;Node14</title>
<path fill="none" stroke="#191970" d="M564.1607,-123.4894C516.6276,-113.1332 438.7422,-95.7034 362.5924,-76.1951"/>
<polygon fill="#191970" stroke="#191970" points="363.3906,-72.7866 352.8336,-73.681 361.6442,-79.5652 363.3906,-72.7866"/>
</g>
<!-- Node15 -->
<g id="node16" class="node">
<title>Node15</title>
<g id="a_node16"><a xlink:href="incflo__enums_8_h.html" target="_top" xlink:title="amr&#45;wind/incflo_enums.H">
<polygon fill="#ffffff" stroke="#000000" points="370.5,-56.5 370.5,-75.5 498.5,-75.5 498.5,-56.5 370.5,-56.5"/>
<text text-anchor="middle" x="434.5" y="-63.5" font-family="Helvetica,sans-Serif" font-size="10.00" fill="#000000">amr&#45;wind/incflo_enums.H</text>
</a>
</g>
</g>
<!-- Node13&#45;&gt;Node15 -->
<g id="edge23" class="edge">
<title>Node13&#45;&gt;Node15</title>
<path fill="none" stroke="#191970" d="M583.57,-123.4005C553.4645,-111.8082 502.6679,-92.2486 468.862,-79.2313"/>
<polygon fill="#191970" stroke="#191970" points="469.9735,-75.9089 459.3837,-75.5817 467.4581,-82.4413 469.9735,-75.9089"/>
</g>
<!-- Node16 -->
<g id="node17" class="node">
<title>Node16</title>
<g id="a_node17"><a xlink:href="_view_field_8_h.html" target="_top" xlink:title="amr&#45;wind/core/ViewField.H">
<polygon fill="#ffffff" stroke="#000000" points="808.5,-56.5 808.5,-75.5 942.5,-75.5 942.5,-56.5 808.5,-56.5"/>
<text text-anchor="middle" x="875.5" y="-63.5" font-family="Helvetica,sans-Serif" font-size="10.00" fill="#000000">amr&#45;wind/core/ViewField.H</text>
</a>
</g>
</g>
<!-- Node13&#45;&gt;Node16 -->
<g id="edge25" class="edge">
<title>Node13&#45;&gt;Node16</title>
<path fill="none" stroke="#191970" d="M646.471,-123.4717C693.982,-111.5495 775.3917,-91.1208 827.2655,-78.1038"/>
<polygon fill="#191970" stroke="#191970" points="828.3803,-81.4326 837.2277,-75.6039 826.6765,-74.6431 828.3803,-81.4326"/>
</g>
<!-- Node16&#45;&gt;Node7 -->
<g id="edge26" class="edge">
<title>Node16&#45;&gt;Node7</title>
<path fill="none" stroke="#191970" d="M822.3906,-56.4369C756.9816,-44.6591 648.0623,-25.0466 595.1809,-15.5245"/>
<polygon fill="#191970" stroke="#191970" points="595.5439,-12.0337 585.0819,-13.7061 594.3033,-18.9229 595.5439,-12.0337"/>
</g>
<!-- Node16&#45;&gt;Node9 -->
<g id="edge27" class="edge">
<title>Node16&#45;&gt;Node9</title>
<path fill="none" stroke="#191970" d="M936.1233,-56.4369C998.1552,-46.6516 1094.4701,-31.4582 1159.9007,-21.1368"/>
<polygon fill="#191970" stroke="#191970" points="1160.7943,-24.5392 1170.1267,-19.5237 1159.7035,-17.6247 1160.7943,-24.5392"/>
</g>
<!-- Node16&#45;&gt;Node11 -->
<g id="edge28" class="edge">
<title>Node16&#45;&gt;Node11</title>
<path fill="none" stroke="#191970" d="M898.3635,-56.3733C919.905,-47.3032 952.3838,-33.6279 976.4956,-23.4755"/>
<polygon fill="#191970" stroke="#191970" points="978.0767,-26.6075 985.9348,-19.5011 975.3603,-20.156 978.0767,-26.6075"/>
</g>
<!-- Node17 -->
<g id="node18" class="node">
<title>Node17</title>
<polygon fill="#ffffff" stroke="#bfbfbf" points="716,-.5 716,-19.5 811,-19.5 811,-.5 716,-.5"/>
<text text-anchor="middle" x="763.5" y="-7.5" font-family="Helvetica,sans-Serif" font-size="10.00" fill="#000000">AMReX_Vector.H</text>
</g>
<!-- Node16&#45;&gt;Node17 -->
<g id="edge29" class="edge">
<title>Node16&#45;&gt;Node17</title>
<path fill="none" stroke="#191970" d="M856.2465,-56.3733C838.4288,-47.4644 811.7253,-34.1127 791.5406,-24.0203"/>
<polygon fill="#191970" stroke="#191970" points="793.0118,-20.8428 782.5022,-19.5011 789.8813,-27.1038 793.0118,-20.8428"/>
</g>
<!-- Node18&#45;&gt;Node7 -->
<g id="edge31" class="edge">
<title>Node18&#45;&gt;Node7</title>
<path fill="none" stroke="#191970" d="M1224.494,-126.3535C1097.8251,-112.6914 819.5483,-82.2126 799.5,-76 781.27,-70.3509 779.3824,-62.6685 761.5,-56 704.5278,-34.7546 634.5155,-21.2066 595.1568,-14.6615"/>
<polygon fill="#191970" stroke="#191970" points="595.569,-11.1827 585.1378,-13.0373 594.4488,-18.0925 595.569,-11.1827"/>
</g>
<!-- Node18&#45;&gt;Node9 -->
<g id="edge32" class="edge">
<title>Node18&#45;&gt;Node9</title>
<path fill="none" stroke="#191970" d="M1282.1058,-123.3484C1272.8642,-103.0499 1251.2717,-55.6235 1239.1495,-28.9981"/>
<polygon fill="#191970" stroke="#191970" points="1242.2029,-27.2576 1234.8738,-19.6068 1235.8321,-30.1582 1242.2029,-27.2576"/>
</g>
<!-- Node18&#45;&gt;Node19 -->
<g id="edge33" class="edge">
<title>Node18&#45;&gt;Node19</title>
<path fill="none" stroke="#191970" d="M1295.6696,-123.4005C1305.7449,-112.853 1322.1207,-95.7096 1334.3569,-82.8998"/>
<polygon fill="#191970" stroke="#191970" points="1336.9709,-85.2304 1341.3474,-75.5817 1331.9091,-80.3952 1336.9709,-85.2304"/>
</g>
<!-- Node20&#45;&gt;Node7 -->
<g id="edge35" class="edge">
<title>Node20&#45;&gt;Node7</title>
<path fill="none" stroke="#191970" d="M935.3883,-125.6517C845.9977,-115.9264 700.4366,-97.4806 650.5,-76 623.7049,-64.4739 597.8331,-42.7135 581.5876,-27.3353"/>
<polygon fill="#191970" stroke="#191970" points="583.6223,-24.4314 574.0158,-19.9632 578.7392,-29.4469 583.6223,-24.4314"/>
</g>
<!-- Node20&#45;&gt;Node9 -->
<g id="edge36" class="edge">
<title>Node20&#45;&gt;Node9</title>
<path fill="none" stroke="#191970" d="M1056.6906,-123.4289C1091.3324,-114.9331 1137.9981,-100.0558 1173.5,-76 1192.1831,-63.3405 1208.4343,-43.0467 1218.7513,-28.3012"/>
<polygon fill="#191970" stroke="#191970" points="1221.69,-30.2034 1224.3769,-19.955 1215.8854,-26.291 1221.69,-30.2034"/>
</g>
<!-- Node20&#45;&gt;Node11 -->
<g id="edge38" class="edge">
<title>Node20&#45;&gt;Node11</title>
<path fill="none" stroke="#191970" d="M1008.5,-123.3484C1008.5,-103.2295 1008.5,-56.4608 1008.5,-29.7098"/>
<polygon fill="#191970" stroke="#191970" points="1012.0001,-29.6067 1008.5,-19.6068 1005.0001,-29.6068 1012.0001,-29.6067"/>
</g>
<!-- Node20&#45;&gt;Node16 -->
<g id="edge37" class="edge">
<title>Node20&#45;&gt;Node16</title>
<path fill="none" stroke="#191970" d="M989.4443,-123.4005C967.0252,-112.1067 929.5946,-93.2506 903.7868,-80.2497"/>
<polygon fill="#191970" stroke="#191970" points="905.0258,-76.9549 894.5203,-75.5817 901.8765,-83.2065 905.0258,-76.9549"/>
</g>
<!-- Node20&#45;&gt;Node17 -->
<g id="edge39" class="edge">
<title>Node20&#45;&gt;Node17</title>
<path fill="none" stroke="#191970" d="M935.3636,-126.0485C838.5871,-116.1003 678.0891,-96.7045 660.5,-76 640.1386,-52.0322 677.7944,-33.7095 713.1621,-22.5204"/>
<polygon fill="#191970" stroke="#191970" points="714.4579,-25.7857 723.0269,-19.5549 712.4426,-19.082 714.4579,-25.7857"/>
</g>
<!-- Node21 -->
<g id="node22" class="node">
<title>Node21</title>
<polygon fill="#ffffff" stroke="#bfbfbf" points="1036.5,-56.5 1036.5,-75.5 1164.5,-75.5 1164.5,-56.5 1036.5,-56.5"/>
<text text-anchor="middle" x="1100.5" y="-63.5" font-family="Helvetica,sans-Serif" font-size="10.00" fill="#000000">AMReX_PhysBCFunct.H</text>
</g>
<!-- Node20&#45;&gt;Node21 -->
<g id="edge40" class="edge">
<title>Node20&#45;&gt;Node21</title>
<path fill="none" stroke="#191970" d="M1021.6814,-123.4005C1036.7111,-112.4549 1061.4942,-94.4064 1079.2593,-81.4688"/>
<polygon fill="#191970" stroke="#191970" points="1081.32,-84.2979 1087.3431,-75.5817 1077.1991,-78.6394 1081.32,-84.2979"/>
</g>
</g>
</svg>
