<?xml version="1.0" encoding="UTF-8" standalone="no"?>
<!DOCTYPE svg PUBLIC "-//W3C//DTD SVG 1.1//EN"
 "http://www.w3.org/Graphics/SVG/1.1/DTD/svg11.dtd">
<!-- Generated by graphviz version 2.40.1 (20161225.0304)
 -->
<!-- Title: incflo_godunov_weno.cpp Pages: 1 -->
<svg width="1510pt" height="330pt"
 viewBox="0.00 0.00 1510.00 330.00" xmlns="http://www.w3.org/2000/svg" xmlns:xlink="http://www.w3.org/1999/xlink">
<g id="graph0" class="graph" transform="scale(1 1) rotate(0) translate(4 326)">
<title>incflo_godunov_weno.cpp</title>
<polygon fill="#ffffff" stroke="transparent" points="-4,4 -4,-326 1506,-326 1506,4 -4,4"/>
<!-- Node0 -->
<g id="node1" class="node">
<title>Node0</title>
<polygon fill="#bfbfbf" stroke="#000000" points="526,-302.5 526,-321.5 655,-321.5 655,-302.5 526,-302.5"/>
<text text-anchor="middle" x="590.5" y="-309.5" font-family="Helvetica,sans-Serif" font-size="10.00" fill="#000000">incflo_godunov_weno.cpp</text>
</g>
<!-- Node1 -->
<g id="node2" class="node">
<title>Node1</title>
<g id="a_node2"><a xlink:href="incflo__godunov__weno_8_h.html" target="_top" xlink:title="amr&#45;wind/convection\l/incflo_godunov_weno.H">
<polygon fill="#ffffff" stroke="#000000" points="280.5,-112.5 280.5,-142.5 404.5,-142.5 404.5,-112.5 280.5,-112.5"/>
<text text-anchor="start" x="288.5" y="-130.5" font-family="Helvetica,sans-Serif" font-size="10.00" fill="#000000">amr&#45;wind/convection</text>
<text text-anchor="middle" x="342.5" y="-119.5" font-family="Helvetica,sans-Serif" font-size="10.00" fill="#000000">/incflo_godunov_weno.H</text>
</a>
</g>
</g>
<!-- Node0&#45;&gt;Node1 -->
<g id="edge1" class="edge">
<title>Node0&#45;&gt;Node1</title>
<path fill="none" stroke="#191970" d="M577.5156,-302.3402C539.0123,-273.6956 424.8079,-188.7331 371.0656,-148.7514"/>
<polygon fill="#191970" stroke="#191970" points="373.0927,-145.8971 362.9803,-142.7363 368.9144,-151.5134 373.0927,-145.8971"/>
</g>
<!-- Node4 -->
<g id="node5" class="node">
<title>Node4</title>
<g id="a_node5"><a xlink:href="_godunov_8_h.html" target="_top" xlink:title="amr&#45;wind/convection\l/Godunov.H">
<polygon fill="#ffffff" stroke="#000000" points="585,-235.5 585,-265.5 692,-265.5 692,-235.5 585,-235.5"/>
<text text-anchor="start" x="593" y="-253.5" font-family="Helvetica,sans-Serif" font-size="10.00" fill="#000000">amr&#45;wind/convection</text>
<text text-anchor="middle" x="638.5" y="-242.5" font-family="Helvetica,sans-Serif" font-size="10.00" fill="#000000">/Godunov.H</text>
</a>
</g>
</g>
<!-- Node0&#45;&gt;Node4 -->
<g id="edge4" class="edge">
<title>Node0&#45;&gt;Node4</title>
<path fill="none" stroke="#191970" d="M598,-302.3906C604.015,-294.6839 612.7101,-283.5434 620.5028,-273.5589"/>
<polygon fill="#191970" stroke="#191970" points="623.3642,-275.5812 626.7579,-265.5446 617.846,-271.2743 623.3642,-275.5812"/>
</g>
<!-- Node2 -->
<g id="node3" class="node">
<title>Node2</title>
<polygon fill="#ffffff" stroke="#bfbfbf" points="190,-56.5 190,-75.5 275,-75.5 275,-56.5 190,-56.5"/>
<text text-anchor="middle" x="232.5" y="-63.5" font-family="Helvetica,sans-Serif" font-size="10.00" fill="#000000">AMReX_Gpu.H</text>
</g>
<!-- Node1&#45;&gt;Node2 -->
<g id="edge2" class="edge">
<title>Node1&#45;&gt;Node2</title>
<path fill="none" stroke="#191970" d="M315.591,-112.4554C298.2032,-102.734 275.6951,-90.15 258.4916,-80.5317"/>
<polygon fill="#191970" stroke="#191970" points="259.9826,-77.3554 249.5461,-75.5303 256.5665,-83.4653 259.9826,-77.3554"/>
</g>
<!-- Node3 -->
<g id="node4" class="node">
<title>Node3</title>
<polygon fill="#ffffff" stroke="#bfbfbf" points="293,-56.5 293,-75.5 392,-75.5 392,-56.5 293,-56.5"/>
<text text-anchor="middle" x="342.5" y="-63.5" font-family="Helvetica,sans-Serif" font-size="10.00" fill="#000000">AMReX_BCRec.H</text>
</g>
<!-- Node1&#45;&gt;Node3 -->
<g id="edge3" class="edge">
<title>Node1&#45;&gt;Node3</title>
<path fill="none" stroke="#191970" d="M342.5,-112.2977C342.5,-104.3834 342.5,-94.6043 342.5,-86.0759"/>
<polygon fill="#191970" stroke="#191970" points="346.0001,-85.8469 342.5,-75.8469 339.0001,-85.847 346.0001,-85.8469"/>
</g>
<!-- Node5 -->
<g id="node6" class="node">
<title>Node5</title>
<g id="a_node6"><a xlink:href="_field_repo_8_h.html" target="_top" xlink:title="amr&#45;wind/core/FieldRepo.H">
<polygon fill="#ffffff" stroke="#000000" points="783.5,-179.5 783.5,-198.5 919.5,-198.5 919.5,-179.5 783.5,-179.5"/>
<text text-anchor="middle" x="851.5" y="-186.5" font-family="Helvetica,sans-Serif" font-size="10.00" fill="#000000">amr&#45;wind/core/FieldRepo.H</text>
</a>
</g>
</g>
<!-- Node4&#45;&gt;Node5 -->
<g id="edge5" class="edge">
<title>Node4&#45;&gt;Node5</title>
<path fill="none" stroke="#191970" d="M690.6057,-235.4554C726.9246,-224.9689 774.7803,-211.1515 808.8354,-201.3187"/>
<polygon fill="#191970" stroke="#191970" points="809.8559,-204.667 818.4926,-198.5303 807.9141,-197.9418 809.8559,-204.667"/>
</g>
<!-- Node6 -->
<g id="node7" class="node">
<title>Node6</title>
<polygon fill="#ffffff" stroke="#bfbfbf" points="1261,-.5 1261,-19.5 1302,-19.5 1302,-.5 1261,-.5"/>
<text text-anchor="middle" x="1281.5" y="-7.5" font-family="Helvetica,sans-Serif" font-size="10.00" fill="#000000">string</text>
</g>
<!-- Node5&#45;&gt;Node6 -->
<g id="edge6" class="edge">
<title>Node5&#45;&gt;Node6</title>
<path fill="none" stroke="#191970" d="M919.5345,-186.8636C1041.3732,-182.4022 1291.8007,-170.1675 1374.5,-143 1428.8843,-125.1342 1456.4621,-125.9071 1484.5,-76 1488.8538,-68.2504 1490.0476,-62.9453 1484.5,-56 1463.2869,-29.4422 1363.6322,-17.0763 1312.2749,-12.3857"/>
<polygon fill="#191970" stroke="#191970" points="1312.3606,-8.88 1302.0945,-11.499 1311.7531,-15.8536 1312.3606,-8.88"/>
</g>
<!-- Node7 -->
<g id="node8" class="node">
<title>Node7</title>
<polygon fill="#ffffff" stroke="#bfbfbf" points="410,-56.5 410,-75.5 493,-75.5 493,-56.5 410,-56.5"/>
<text text-anchor="middle" x="451.5" y="-63.5" font-family="Helvetica,sans-Serif" font-size="10.00" fill="#000000">unordered_map</text>
</g>
<!-- Node5&#45;&gt;Node7 -->
<g id="edge7" class="edge">
<title>Node5&#45;&gt;Node7</title>
<path fill="none" stroke="#191970" d="M783.2889,-185.0399C699.9959,-179.2601 564.7369,-166.5451 520.5,-143 494.8626,-129.3545 474.0699,-102.1999 462.2389,-84.0629"/>
<polygon fill="#191970" stroke="#191970" points="465.1636,-82.1387 456.8907,-75.5198 459.2303,-85.8531 465.1636,-82.1387"/>
</g>
<!-- Node8 -->
<g id="node9" class="node">
<title>Node8</title>
<g id="a_node9"><a xlink:href="_field_desc_types_8_h.html" target="_top" xlink:title="amr&#45;wind/core/FieldDescTypes.H">
<polygon fill="#ffffff" stroke="#000000" points="529,-.5 529,-19.5 692,-19.5 692,-.5 529,-.5"/>
<text text-anchor="middle" x="610.5" y="-7.5" font-family="Helvetica,sans-Serif" font-size="10.00" fill="#000000">amr&#45;wind/core/FieldDescTypes.H</text>
</a>
</g>
</g>
<!-- Node5&#45;&gt;Node8 -->
<g id="edge8" class="edge">
<title>Node5&#45;&gt;Node8</title>
<path fill="none" stroke="#191970" d="M783.3545,-188.2575C650.894,-186.0539 363.6019,-177.3416 271.5,-143 224.4407,-125.4532 203.1595,-120.8221 180.5,-76 176.4896,-68.0672 174.5583,-62.6112 180.5,-56 202.6574,-31.3459 398.8808,-18.8159 518.465,-13.4152"/>
<polygon fill="#191970" stroke="#191970" points="518.8843,-16.9001 528.7196,-12.961 518.5745,-9.907 518.8843,-16.9001"/>
</g>
<!-- Node9 -->
<g id="node10" class="node">
<title>Node9</title>
<g id="a_node10"><a xlink:href="_field_utils_8_h.html" target="_top" xlink:title="amr&#45;wind/core/FieldUtils.H">
<polygon fill="#ffffff" stroke="#000000" points="0,-56.5 0,-75.5 133,-75.5 133,-56.5 0,-56.5"/>
<text text-anchor="middle" x="66.5" y="-63.5" font-family="Helvetica,sans-Serif" font-size="10.00" fill="#000000">amr&#45;wind/core/FieldUtils.H</text>
</a>
</g>
</g>
<!-- Node5&#45;&gt;Node9 -->
<g id="edge9" class="edge">
<title>Node5&#45;&gt;Node9</title>
<path fill="none" stroke="#191970" d="M783.2426,-187.1782C617.7935,-182.388 204.7225,-168.0524 147.5,-143 118.4787,-130.2943 93.5263,-102.472 79.2585,-83.9852"/>
<polygon fill="#191970" stroke="#191970" points="81.9201,-81.699 73.1417,-75.7669 76.3047,-85.8785 81.9201,-81.699"/>
</g>
<!-- Node10 -->
<g id="node11" class="node">
<title>Node10</title>
<polygon fill="#ffffff" stroke="#bfbfbf" points="799.5,-.5 799.5,-19.5 903.5,-19.5 903.5,-.5 799.5,-.5"/>
<text text-anchor="middle" x="851.5" y="-7.5" font-family="Helvetica,sans-Serif" font-size="10.00" fill="#000000">AMReX_MultiFab.H</text>
</g>
<!-- Node5&#45;&gt;Node10 -->
<g id="edge39" class="edge">
<title>Node5&#45;&gt;Node10</title>
<path fill="none" stroke="#191970" d="M851.5,-179.3762C851.5,-151.2097 851.5,-68.5126 851.5,-30.0713"/>
<polygon fill="#191970" stroke="#191970" points="855.0001,-29.6714 851.5,-19.6714 848.0001,-29.6714 855.0001,-29.6714"/>
</g>
<!-- Node12 -->
<g id="node13" class="node">
<title>Node12</title>
<g id="a_node13"><a xlink:href="_field_8_h.html" target="_top" xlink:title="amr&#45;wind/core/Field.H">
<polygon fill="#ffffff" stroke="#000000" points="530,-118 530,-137 643,-137 643,-118 530,-118"/>
<text text-anchor="middle" x="586.5" y="-125" font-family="Helvetica,sans-Serif" font-size="10.00" fill="#000000">amr&#45;wind/core/Field.H</text>
</a>
</g>
</g>
<!-- Node5&#45;&gt;Node12 -->
<g id="edge13" class="edge">
<title>Node5&#45;&gt;Node12</title>
<path fill="none" stroke="#191970" d="M810.3845,-179.4581C763.8698,-168.6632 688.0592,-151.0694 637.7327,-139.3899"/>
<polygon fill="#191970" stroke="#191970" points="638.2443,-135.9156 627.7119,-137.0643 636.6618,-142.7344 638.2443,-135.9156"/>
</g>
<!-- Node17 -->
<g id="node18" class="node">
<title>Node17</title>
<g id="a_node18"><a xlink:href="_int_field_8_h.html" target="_top" xlink:title="amr&#45;wind/core/IntField.H">
<polygon fill="#ffffff" stroke="#000000" points="935.5,-118 935.5,-137 1059.5,-137 1059.5,-118 935.5,-118"/>
<text text-anchor="middle" x="997.5" y="-125" font-family="Helvetica,sans-Serif" font-size="10.00" fill="#000000">amr&#45;wind/core/IntField.H</text>
</a>
</g>
</g>
<!-- Node5&#45;&gt;Node17 -->
<g id="edge27" class="edge">
<title>Node5&#45;&gt;Node17</title>
<path fill="none" stroke="#191970" d="M874.3125,-179.3906C898.8481,-169.0554 938.0442,-152.5447 965.6211,-140.9284"/>
<polygon fill="#191970" stroke="#191970" points="966.9906,-144.1495 974.8477,-137.0419 964.2732,-137.6984 966.9906,-144.1495"/>
</g>
<!-- Node18 -->
<g id="node19" class="node">
<title>Node18</title>
<polygon fill="#ffffff" stroke="#bfbfbf" points="880,-56.5 880,-75.5 987,-75.5 987,-56.5 880,-56.5"/>
<text text-anchor="middle" x="933.5" y="-63.5" font-family="Helvetica,sans-Serif" font-size="10.00" fill="#000000">AMReX_iMultiFab.H</text>
</g>
<!-- Node5&#45;&gt;Node18 -->
<g id="edge40" class="edge">
<title>Node5&#45;&gt;Node18</title>
<path fill="none" stroke="#191970" d="M857.9344,-179.3484C871.6464,-158.7804 903.9269,-110.3596 921.5341,-83.9489"/>
<polygon fill="#191970" stroke="#191970" points="924.4606,-85.8688 927.0955,-75.6068 918.6363,-81.9858 924.4606,-85.8688"/>
</g>
<!-- Node19 -->
<g id="node20" class="node">
<title>Node19</title>
<g id="a_node20"><a xlink:href="_scratch_field_8_h.html" target="_top" xlink:title="amr&#45;wind/core/ScratchField.H">
<polygon fill="#ffffff" stroke="#000000" points="1095.5,-118 1095.5,-137 1241.5,-137 1241.5,-118 1095.5,-118"/>
<text text-anchor="middle" x="1168.5" y="-125" font-family="Helvetica,sans-Serif" font-size="10.00" fill="#000000">amr&#45;wind/core/ScratchField.H</text>
</a>
</g>
</g>
<!-- Node5&#45;&gt;Node19 -->
<g id="edge31" class="edge">
<title>Node5&#45;&gt;Node19</title>
<path fill="none" stroke="#191970" d="M900.6834,-179.4581C956.9886,-168.5345 1049.1783,-150.6492 1109.353,-138.9749"/>
<polygon fill="#191970" stroke="#191970" points="1110.3117,-142.3542 1119.462,-137.0137 1108.9784,-135.4824 1110.3117,-142.3542"/>
</g>
<!-- Node21 -->
<g id="node22" class="node">
<title>Node21</title>
<polygon fill="#ffffff" stroke="#bfbfbf" points="1259.5,-118 1259.5,-137 1365.5,-137 1365.5,-118 1259.5,-118"/>
<text text-anchor="middle" x="1312.5" y="-125" font-family="Helvetica,sans-Serif" font-size="10.00" fill="#000000">AMReX_AmrCore.H</text>
</g>
<!-- Node5&#45;&gt;Node21 -->
<g id="edge38" class="edge">
<title>Node5&#45;&gt;Node21</title>
<path fill="none" stroke="#191970" d="M919.6713,-183.86C999.4267,-177.2197 1135.2443,-163.9587 1250.5,-143 1256.0263,-141.9951 1261.7915,-140.7814 1267.485,-139.481"/>
<polygon fill="#191970" stroke="#191970" points="1268.6729,-142.7959 1277.5889,-137.0726 1267.0498,-135.9867 1268.6729,-142.7959"/>
</g>
<!-- Node9&#45;&gt;Node8 -->
<g id="edge10" class="edge">
<title>Node9&#45;&gt;Node8</title>
<path fill="none" stroke="#191970" d="M133.2304,-57.634C138.0579,-57.068 142.8529,-56.5176 147.5,-56 276.2753,-41.6559 425.4505,-27.2275 518.9031,-18.4519"/>
<polygon fill="#191970" stroke="#191970" points="519.2633,-21.9336 528.893,-17.5155 518.6099,-14.9642 519.2633,-21.9336"/>
</g>
<!-- Node9&#45;&gt;Node10 -->
<g id="edge11" class="edge">
<title>Node9&#45;&gt;Node10</title>
<path fill="none" stroke="#191970" d="M133.0927,-59.9438C148.6451,-58.589 165.1493,-57.1993 180.5,-56 297.7606,-46.8385 646.0063,-23.6091 789.073,-14.1267"/>
<polygon fill="#191970" stroke="#191970" points="789.6748,-17.5946 799.4215,-13.4411 789.2119,-10.61 789.6748,-17.5946"/>
</g>
<!-- Node11 -->
<g id="node12" class="node">
<title>Node11</title>
<polygon fill="#ffffff" stroke="#bfbfbf" points="8.5,-.5 8.5,-19.5 124.5,-19.5 124.5,-.5 8.5,-.5"/>
<text text-anchor="middle" x="66.5" y="-7.5" font-family="Helvetica,sans-Serif" font-size="10.00" fill="#000000">AMReX_Interpolater.H</text>
</g>
<!-- Node9&#45;&gt;Node11 -->
<g id="edge12" class="edge">
<title>Node9&#45;&gt;Node11</title>
<path fill="none" stroke="#191970" d="M66.5,-56.2455C66.5,-48.9382 66.5,-38.6944 66.5,-29.7046"/>
<polygon fill="#191970" stroke="#191970" points="70.0001,-29.6426 66.5,-19.6427 63.0001,-29.6427 70.0001,-29.6426"/>
</g>
<!-- Node12&#45;&gt;Node2 -->
<g id="edge19" class="edge">
<title>Node12&#45;&gt;Node2</title>
<path fill="none" stroke="#191970" d="M529.7427,-118.2926C470.9471,-108.6556 376.1418,-92.8405 285.007,-76.2457"/>
<polygon fill="#191970" stroke="#191970" points="285.5277,-72.7829 275.0615,-74.4288 284.2697,-79.669 285.5277,-72.7829"/>
</g>
<!-- Node12&#45;&gt;Node3 -->
<g id="edge18" class="edge">
<title>Node12&#45;&gt;Node3</title>
<path fill="none" stroke="#191970" d="M548.6427,-117.9581C505.9929,-107.2082 436.5936,-89.7162 390.2544,-78.0365"/>
<polygon fill="#191970" stroke="#191970" points="390.9983,-74.6146 380.4461,-75.5643 389.2874,-81.4023 390.9983,-74.6146"/>
</g>
<!-- Node12&#45;&gt;Node6 -->
<g id="edge14" class="edge">
<title>Node12&#45;&gt;Node6</title>
<path fill="none" stroke="#191970" d="M625.6453,-117.9884C667.4868,-107.7795 735.7469,-91.0033 794.5,-76 828.3418,-67.3581 836.1643,-62.4039 870.5,-56 1011.1964,-29.7588 1181.976,-16.4933 1250.685,-11.9065"/>
<polygon fill="#191970" stroke="#191970" points="1251.0654,-15.3892 1260.8157,-11.2442 1250.6086,-8.4041 1251.0654,-15.3892"/>
</g>
<!-- Node12&#45;&gt;Node7 -->
<g id="edge16" class="edge">
<title>Node12&#45;&gt;Node7</title>
<path fill="none" stroke="#191970" d="M565.4063,-117.8906C542.9173,-107.6457 507.1082,-91.3326 481.6476,-79.7339"/>
<polygon fill="#191970" stroke="#191970" points="482.9968,-76.5025 472.4456,-75.5419 480.0948,-82.8727 482.9968,-76.5025"/>
</g>
<!-- Node12&#45;&gt;Node8 -->
<g id="edge21" class="edge">
<title>Node12&#45;&gt;Node8</title>
<path fill="none" stroke="#191970" d="M574.1411,-117.9321C558.1895,-104.3526 533.7956,-78.6219 545.5,-56 552.5546,-42.365 565.7195,-31.9036 578.3663,-24.4282"/>
<polygon fill="#191970" stroke="#191970" points="580.2837,-27.3692 587.3888,-19.5099 576.9334,-21.2231 580.2837,-27.3692"/>
</g>
<!-- Node12&#45;&gt;Node10 -->
<g id="edge17" class="edge">
<title>Node12&#45;&gt;Node10</title>
<path fill="none" stroke="#191970" d="M581.4359,-117.8787C574.2854,-102.8086 563.6601,-73.5496 578.5,-56 591.9955,-40.0404 713.1847,-24.5321 789.4913,-16.2298"/>
<polygon fill="#191970" stroke="#191970" points="789.9154,-19.7044 799.4841,-15.1557 789.1672,-12.7445 789.9154,-19.7044"/>
</g>
<!-- Node13 -->
<g id="node14" class="node">
<title>Node13</title>
<polygon fill="#ffffff" stroke="#bfbfbf" points="587.5,-56.5 587.5,-75.5 639.5,-75.5 639.5,-56.5 587.5,-56.5"/>
<text text-anchor="middle" x="613.5" y="-63.5" font-family="Helvetica,sans-Serif" font-size="10.00" fill="#000000">memory</text>
</g>
<!-- Node12&#45;&gt;Node13 -->
<g id="edge15" class="edge">
<title>Node12&#45;&gt;Node13</title>
<path fill="none" stroke="#191970" d="M590.7188,-117.8906C594.5796,-109.0965 600.4034,-95.8312 605.1961,-84.9145"/>
<polygon fill="#191970" stroke="#191970" points="608.4066,-86.3083 609.2218,-75.7449 601.9971,-83.4943 608.4066,-86.3083"/>
</g>
<!-- Node14 -->
<g id="node15" class="node">
<title>Node14</title>
<g id="a_node15"><a xlink:href="incflo__enums_8_h.html" target="_top" xlink:title="amr&#45;wind/incflo_enums.H">
<polygon fill="#ffffff" stroke="#000000" points="657.5,-56.5 657.5,-75.5 785.5,-75.5 785.5,-56.5 657.5,-56.5"/>
<text text-anchor="middle" x="721.5" y="-63.5" font-family="Helvetica,sans-Serif" font-size="10.00" fill="#000000">amr&#45;wind/incflo_enums.H</text>
</a>
</g>
</g>
<!-- Node12&#45;&gt;Node14 -->
<g id="edge20" class="edge">
<title>Node12&#45;&gt;Node14</title>
<path fill="none" stroke="#191970" d="M607.5938,-117.8906C630.0827,-107.6457 665.8918,-91.3326 691.3524,-79.7339"/>
<polygon fill="#191970" stroke="#191970" points="692.9052,-82.8727 700.5544,-75.5419 690.0032,-76.5025 692.9052,-82.8727"/>
</g>
<!-- Node15 -->
<g id="node16" class="node">
<title>Node15</title>
<g id="a_node16"><a xlink:href="_view_field_8_h.html" target="_top" xlink:title="amr&#45;wind/core/ViewField.H">
<polygon fill="#ffffff" stroke="#000000" points="1119.5,-56.5 1119.5,-75.5 1253.5,-75.5 1253.5,-56.5 1119.5,-56.5"/>
<text text-anchor="middle" x="1186.5" y="-63.5" font-family="Helvetica,sans-Serif" font-size="10.00" fill="#000000">amr&#45;wind/core/ViewField.H</text>
</a>
</g>
</g>
<!-- Node12&#45;&gt;Node15 -->
<g id="edge22" class="edge">
<title>Node12&#45;&gt;Node15</title>
<path fill="none" stroke="#191970" d="M643.2167,-121.6865C751.3297,-110.605 987.012,-86.4475 1109.3491,-73.908"/>
<polygon fill="#191970" stroke="#191970" points="1109.8016,-77.38 1119.3926,-72.8785 1109.0878,-70.4165 1109.8016,-77.38"/>
</g>
<!-- Node15&#45;&gt;Node6 -->
<g id="edge23" class="edge">
<title>Node15&#45;&gt;Node6</title>
<path fill="none" stroke="#191970" d="M1203.0477,-56.2455C1217.7599,-47.5731 1239.4888,-34.7645 1256.3505,-24.825"/>
<polygon fill="#191970" stroke="#191970" points="1258.3046,-27.736 1265.1419,-19.6427 1254.7498,-21.7057 1258.3046,-27.736"/>
</g>
<!-- Node15&#45;&gt;Node8 -->
<g id="edge24" class="edge">
<title>Node15&#45;&gt;Node8</title>
<path fill="none" stroke="#191970" d="M1119.2982,-59.4665C1016.1697,-49.4401 818.6418,-30.236 702.3679,-18.9316"/>
<polygon fill="#191970" stroke="#191970" points="702.3587,-15.4143 692.067,-17.9301 701.6813,-22.3814 702.3587,-15.4143"/>
</g>
<!-- Node15&#45;&gt;Node10 -->
<g id="edge25" class="edge">
<title>Node15&#45;&gt;Node10</title>
<path fill="none" stroke="#191970" d="M1129.2921,-56.4369C1069.2822,-46.4054 975.2724,-30.6903 913.5179,-20.3672"/>
<polygon fill="#191970" stroke="#191970" points="913.9559,-16.8919 903.5156,-18.6951 912.8017,-23.7961 913.9559,-16.8919"/>
</g>
<!-- Node16 -->
<g id="node17" class="node">
<title>Node16</title>
<polygon fill="#ffffff" stroke="#bfbfbf" points="1407,-.5 1407,-19.5 1502,-19.5 1502,-.5 1407,-.5"/>
<text text-anchor="middle" x="1454.5" y="-7.5" font-family="Helvetica,sans-Serif" font-size="10.00" fill="#000000">AMReX_Vector.H</text>
</g>
<!-- Node15&#45;&gt;Node16 -->
<g id="edge26" class="edge">
<title>Node15&#45;&gt;Node16</title>
<path fill="none" stroke="#191970" d="M1232.2663,-56.4369C1278.4215,-46.7925 1349.7178,-31.8948 1399.0537,-21.5858"/>
<polygon fill="#191970" stroke="#191970" points="1399.8498,-24.9951 1408.9224,-19.5237 1398.4179,-18.1431 1399.8498,-24.9951"/>
</g>
<!-- Node17&#45;&gt;Node6 -->
<g id="edge28" class="edge">
<title>Node17&#45;&gt;Node6</title>
<path fill="none" stroke="#191970" d="M1050.1409,-117.9805C1126.287,-104.1108 1258.5675,-79.5996 1262.5,-76 1275.2561,-64.3239 1279.657,-44.6945 1281.0754,-29.8708"/>
<polygon fill="#191970" stroke="#191970" points="1284.5813,-29.8695 1281.6677,-19.6832 1277.5931,-29.4631 1284.5813,-29.8695"/>
</g>
<!-- Node17&#45;&gt;Node8 -->
<g id="edge29" class="edge">
<title>Node17&#45;&gt;Node8</title>
<path fill="none" stroke="#191970" d="M1000.7702,-117.7185C1005.1989,-102.429 1010.9056,-72.8746 995.5,-56 976.0442,-34.689 809.9281,-21.2891 702.3463,-14.7635"/>
<polygon fill="#191970" stroke="#191970" points="702.3156,-11.2555 692.1248,-14.1534 701.8985,-18.243 702.3156,-11.2555"/>
</g>
<!-- Node17&#45;&gt;Node18 -->
<g id="edge30" class="edge">
<title>Node17&#45;&gt;Node18</title>
<path fill="none" stroke="#191970" d="M987.5,-117.8906C977.7881,-108.5581 962.8361,-94.1902 951.1259,-82.9374"/>
<polygon fill="#191970" stroke="#191970" points="953.2766,-80.15 943.641,-75.7449 948.4264,-85.1974 953.2766,-80.15"/>
</g>
<!-- Node19&#45;&gt;Node6 -->
<g id="edge32" class="edge">
<title>Node19&#45;&gt;Node6</title>
<path fill="none" stroke="#191970" d="M1229.7132,-117.926C1254.4435,-110.7214 1280.613,-98.1014 1295.5,-76 1304.873,-62.0849 1299.3747,-43.0797 1292.7122,-29.0365"/>
<polygon fill="#191970" stroke="#191970" points="1295.6158,-27.0397 1287.851,-19.8315 1289.426,-30.3086 1295.6158,-27.0397"/>
</g>
<!-- Node19&#45;&gt;Node8 -->
<g id="edge33" class="edge">
<title>Node19&#45;&gt;Node8</title>
<path fill="none" stroke="#191970" d="M1149.8165,-117.902C1115.1267,-100.2373 1041.8133,-63.6776 1014.5,-56 957.75,-40.048 803.095,-25.3314 702.4354,-17.0278"/>
<polygon fill="#191970" stroke="#191970" points="702.5138,-13.5226 692.2616,-16.1952 701.9428,-20.4993 702.5138,-13.5226"/>
</g>
<!-- Node19&#45;&gt;Node10 -->
<g id="edge35" class="edge">
<title>Node19&#45;&gt;Node10</title>
<path fill="none" stroke="#191970" d="M1158.1849,-117.9826C1140.8335,-102.5138 1104.1013,-72.0355 1067.5,-56 1018.3033,-34.4463 958.2686,-22.7071 913.9891,-16.4954"/>
<polygon fill="#191970" stroke="#191970" points="914.3188,-13.0082 903.9411,-15.1423 913.3846,-19.9456 914.3188,-13.0082"/>
</g>
<!-- Node19&#45;&gt;Node15 -->
<g id="edge34" class="edge">
<title>Node19&#45;&gt;Node15</title>
<path fill="none" stroke="#191970" d="M1171.3125,-117.8906C1173.8339,-109.276 1177.611,-96.3708 1180.7676,-85.5858"/>
<polygon fill="#191970" stroke="#191970" points="1184.1979,-86.3254 1183.6478,-75.7449 1177.4797,-84.3591 1184.1979,-86.3254"/>
</g>
<!-- Node19&#45;&gt;Node16 -->
<g id="edge36" class="edge">
<title>Node19&#45;&gt;Node16</title>
<path fill="none" stroke="#191970" d="M1217.448,-117.9643C1228.3173,-115.9259 1239.79,-113.8355 1250.5,-112 1302.3557,-103.1128 1450.2428,-115.9305 1484.5,-76 1496.6946,-61.7858 1484.5781,-41.798 1472.2919,-27.5504"/>
<polygon fill="#191970" stroke="#191970" points="1474.5825,-24.8726 1465.2208,-19.9119 1469.4456,-29.6279 1474.5825,-24.8726"/>
</g>
<!-- Node20 -->
<g id="node21" class="node">
<title>Node20</title>
<polygon fill="#ffffff" stroke="#bfbfbf" points="1347.5,-56.5 1347.5,-75.5 1475.5,-75.5 1475.5,-56.5 1347.5,-56.5"/>
<text text-anchor="middle" x="1411.5" y="-63.5" font-family="Helvetica,sans-Serif" font-size="10.00" fill="#000000">AMReX_PhysBCFunct.H</text>
</g>
<!-- Node19&#45;&gt;Node20 -->
<g id="edge37" class="edge">
<title>Node19&#45;&gt;Node20</title>
<path fill="none" stroke="#191970" d="M1206.2021,-117.9581C1248.6772,-107.2082 1317.792,-89.7162 1363.9413,-78.0365"/>
<polygon fill="#191970" stroke="#191970" points="1364.8738,-81.4109 1373.7094,-75.5643 1363.1563,-74.6248 1364.8738,-81.4109"/>
</g>
</g>
</svg>
