<?xml version="1.0" encoding="UTF-8" standalone="no"?>
<!DOCTYPE svg PUBLIC "-//W3C//DTD SVG 1.1//EN"
 "http://www.w3.org/Graphics/SVG/1.1/DTD/svg11.dtd">
<!-- Generated by graphviz version 2.40.1 (20161225.0304)
 -->
<!-- Title: incflo_godunov_plm.cpp Pages: 1 -->
<svg width="1536pt" height="330pt"
 viewBox="0.00 0.00 1536.36 330.00" xmlns="http://www.w3.org/2000/svg" xmlns:xlink="http://www.w3.org/1999/xlink">
<g id="graph0" class="graph" transform="scale(1 1) rotate(0) translate(4 326)">
<title>incflo_godunov_plm.cpp</title>
<polygon fill="#ffffff" stroke="transparent" points="-4,4 -4,-326 1532.3607,-326 1532.3607,4 -4,4"/>
<!-- Node0 -->
<g id="node1" class="node">
<title>Node0</title>
<polygon fill="#bfbfbf" stroke="#000000" points="732.8607,-302.5 732.8607,-321.5 854.8607,-321.5 854.8607,-302.5 732.8607,-302.5"/>
<text text-anchor="middle" x="793.8607" y="-309.5" font-family="Helvetica,sans-Serif" font-size="10.00" fill="#000000">incflo_godunov_plm.cpp</text>
</g>
<!-- Node1 -->
<g id="node2" class="node">
<title>Node1</title>
<g id="a_node2"><a xlink:href="incflo__convection___k_8_h.html" target="_top" xlink:title="amr&#45;wind/convection\l/incflo_convection_K.H">
<polygon fill="#ffffff" stroke="#000000" points="597.8607,-235.5 597.8607,-265.5 715.8607,-265.5 715.8607,-235.5 597.8607,-235.5"/>
<text text-anchor="start" x="605.8607" y="-253.5" font-family="Helvetica,sans-Serif" font-size="10.00" fill="#000000">amr&#45;wind/convection</text>
<text text-anchor="middle" x="656.8607" y="-242.5" font-family="Helvetica,sans-Serif" font-size="10.00" fill="#000000">/incflo_convection_K.H</text>
</a>
</g>
</g>
<!-- Node0&#45;&gt;Node1 -->
<g id="edge1" class="edge">
<title>Node0&#45;&gt;Node1</title>
<path fill="none" stroke="#191970" d="M772.4544,-302.3906C753.0547,-293.682 723.8877,-280.5888 699.7063,-269.7336"/>
<polygon fill="#191970" stroke="#191970" points="700.931,-266.447 690.3746,-265.5446 698.0642,-272.833 700.931,-266.447"/>
</g>
<!-- Node3 -->
<g id="node4" class="node">
<title>Node3</title>
<g id="a_node4"><a xlink:href="_godunov_8_h.html" target="_top" xlink:title="amr&#45;wind/convection\l/Godunov.H">
<polygon fill="#ffffff" stroke="#000000" points="740.3607,-235.5 740.3607,-265.5 847.3607,-265.5 847.3607,-235.5 740.3607,-235.5"/>
<text text-anchor="start" x="748.3607" y="-253.5" font-family="Helvetica,sans-Serif" font-size="10.00" fill="#000000">amr&#45;wind/convection</text>
<text text-anchor="middle" x="793.8607" y="-242.5" font-family="Helvetica,sans-Serif" font-size="10.00" fill="#000000">/Godunov.H</text>
</a>
</g>
</g>
<!-- Node0&#45;&gt;Node3 -->
<g id="edge3" class="edge">
<title>Node0&#45;&gt;Node3</title>
<path fill="none" stroke="#191970" d="M793.8607,-302.3906C793.8607,-295.2234 793.8607,-285.0862 793.8607,-275.671"/>
<polygon fill="#191970" stroke="#191970" points="797.3608,-275.5446 793.8607,-265.5446 790.3608,-275.5446 797.3608,-275.5446"/>
</g>
<!-- Node23 -->
<g id="node24" class="node">
<title>Node23</title>
<g id="a_node24"><a xlink:href="bc__ops_8_h.html" target="_top" xlink:title="Boundary condition utilities. ">
<polygon fill="#ffffff" stroke="#000000" points="1119.8607,-168.5 1119.8607,-198.5 1209.8607,-198.5 1209.8607,-168.5 1119.8607,-168.5"/>
<text text-anchor="start" x="1127.8607" y="-186.5" font-family="Helvetica,sans-Serif" font-size="10.00" fill="#000000">amr&#45;wind/utilities</text>
<text text-anchor="middle" x="1164.8607" y="-175.5" font-family="Helvetica,sans-Serif" font-size="10.00" fill="#000000">/bc_ops.H</text>
</a>
</g>
</g>
<!-- Node0&#45;&gt;Node23 -->
<g id="edge40" class="edge">
<title>Node0&#45;&gt;Node23</title>
<path fill="none" stroke="#191970" d="M821.4429,-302.4466C882.8,-281.1949 1031.4722,-229.7006 1111.5938,-201.9496"/>
<polygon fill="#191970" stroke="#191970" points="1113.182,-205.1035 1121.4858,-198.5234 1110.891,-198.4891 1113.182,-205.1035"/>
</g>
<!-- Node2 -->
<g id="node3" class="node">
<title>Node2</title>
<polygon fill="#ffffff" stroke="#bfbfbf" points="594.3607,-174 594.3607,-193 707.3607,-193 707.3607,-174 594.3607,-174"/>
<text text-anchor="middle" x="650.8607" y="-181" font-family="Helvetica,sans-Serif" font-size="10.00" fill="#000000">AMReX_FArrayBox.H</text>
</g>
<!-- Node1&#45;&gt;Node2 -->
<g id="edge2" class="edge">
<title>Node1&#45;&gt;Node2</title>
<path fill="none" stroke="#191970" d="M655.4992,-235.2967C654.646,-225.7699 653.5379,-213.3954 652.6186,-203.1306"/>
<polygon fill="#191970" stroke="#191970" points="656.0944,-202.7029 651.7163,-193.055 649.1223,-203.3273 656.0944,-202.7029"/>
</g>
<!-- Node4 -->
<g id="node5" class="node">
<title>Node4</title>
<g id="a_node5"><a xlink:href="_field_repo_8_h.html" target="_top" xlink:title="amr&#45;wind/core/FieldRepo.H">
<polygon fill="#ffffff" stroke="#000000" points="725.8607,-174 725.8607,-193 861.8607,-193 861.8607,-174 725.8607,-174"/>
<text text-anchor="middle" x="793.8607" y="-181" font-family="Helvetica,sans-Serif" font-size="10.00" fill="#000000">amr&#45;wind/core/FieldRepo.H</text>
</a>
</g>
</g>
<!-- Node3&#45;&gt;Node4 -->
<g id="edge4" class="edge">
<title>Node3&#45;&gt;Node4</title>
<path fill="none" stroke="#191970" d="M793.8607,-235.2967C793.8607,-225.7699 793.8607,-213.3954 793.8607,-203.1306"/>
<polygon fill="#191970" stroke="#191970" points="797.3608,-203.0549 793.8607,-193.055 790.3608,-203.055 797.3608,-203.0549"/>
</g>
<!-- Node5 -->
<g id="node6" class="node">
<title>Node5</title>
<polygon fill="#ffffff" stroke="#bfbfbf" points="166.3607,-.5 166.3607,-19.5 207.3607,-19.5 207.3607,-.5 166.3607,-.5"/>
<text text-anchor="middle" x="186.8607" y="-7.5" font-family="Helvetica,sans-Serif" font-size="10.00" fill="#000000">string</text>
</g>
<!-- Node4&#45;&gt;Node5 -->
<g id="edge5" class="edge">
<title>Node4&#45;&gt;Node5</title>
<path fill="none" stroke="#191970" d="M751.5286,-173.9892C740.0104,-171.7024 727.5009,-169.4923 715.8607,-168 557.6182,-147.7129 84.8244,-213.4668 3.8607,-76 -.6504,-68.3408 -1.6052,-63.0098 3.8607,-56 22.4477,-32.1627 109.3339,-18.7885 156.3906,-13.1795"/>
<polygon fill="#191970" stroke="#191970" points="156.801,-16.6555 166.3371,-12.0389 156.0035,-9.701 156.801,-16.6555"/>
</g>
<!-- Node6 -->
<g id="node7" class="node">
<title>Node6</title>
<polygon fill="#ffffff" stroke="#bfbfbf" points="741.3607,-56.5 741.3607,-75.5 824.3607,-75.5 824.3607,-56.5 741.3607,-56.5"/>
<text text-anchor="middle" x="782.8607" y="-63.5" font-family="Helvetica,sans-Serif" font-size="10.00" fill="#000000">unordered_map</text>
</g>
<!-- Node4&#45;&gt;Node6 -->
<g id="edge6" class="edge">
<title>Node4&#45;&gt;Node6</title>
<path fill="none" stroke="#191970" d="M813.1207,-173.8961C836.0669,-161.0661 869.6733,-137.0301 855.8607,-112 847.9643,-97.6908 833.5396,-87.2233 819.5853,-79.9219"/>
<polygon fill="#191970" stroke="#191970" points="821.0847,-76.7593 810.5565,-75.5725 818.0467,-83.0657 821.0847,-76.7593"/>
</g>
<!-- Node7 -->
<g id="node8" class="node">
<title>Node7</title>
<g id="a_node8"><a xlink:href="_field_desc_types_8_h.html" target="_top" xlink:title="amr&#45;wind/core/FieldDescTypes.H">
<polygon fill="#ffffff" stroke="#000000" points="593.3607,-.5 593.3607,-19.5 756.3607,-19.5 756.3607,-.5 593.3607,-.5"/>
<text text-anchor="middle" x="674.8607" y="-7.5" font-family="Helvetica,sans-Serif" font-size="10.00" fill="#000000">amr&#45;wind/core/FieldDescTypes.H</text>
</a>
</g>
</g>
<!-- Node4&#45;&gt;Node7 -->
<g id="edge7" class="edge">
<title>Node4&#45;&gt;Node7</title>
<path fill="none" stroke="#191970" d="M778.976,-173.9746C765.3041,-164.6239 745.1988,-149.28 731.8607,-132 706.8622,-99.6138 689.4052,-54.4949 680.8609,-29.1855"/>
<polygon fill="#191970" stroke="#191970" points="684.1778,-28.0675 677.7487,-19.6462 677.523,-30.2387 684.1778,-28.0675"/>
</g>
<!-- Node8 -->
<g id="node9" class="node">
<title>Node8</title>
<g id="a_node9"><a xlink:href="_field_utils_8_h.html" target="_top" xlink:title="amr&#45;wind/core/FieldUtils.H">
<polygon fill="#ffffff" stroke="#000000" points="1395.3607,-56.5 1395.3607,-75.5 1528.3607,-75.5 1528.3607,-56.5 1395.3607,-56.5"/>
<text text-anchor="middle" x="1461.8607" y="-63.5" font-family="Helvetica,sans-Serif" font-size="10.00" fill="#000000">amr&#45;wind/core/FieldUtils.H</text>
</a>
</g>
</g>
<!-- Node4&#45;&gt;Node8 -->
<g id="edge8" class="edge">
<title>Node4&#45;&gt;Node8</title>
<path fill="none" stroke="#191970" d="M862.0068,-179.7782C1006.3955,-171.5668 1333.7919,-151.1067 1380.8607,-132 1407.1962,-121.3096 1431.6379,-98.9807 1446.6383,-83.2651"/>
<polygon fill="#191970" stroke="#191970" points="1449.3687,-85.4674 1453.582,-75.7464 1444.2261,-80.7182 1449.3687,-85.4674"/>
</g>
<!-- Node9 -->
<g id="node10" class="node">
<title>Node9</title>
<polygon fill="#ffffff" stroke="#bfbfbf" points="1158.8607,-.5 1158.8607,-19.5 1262.8607,-19.5 1262.8607,-.5 1158.8607,-.5"/>
<text text-anchor="middle" x="1210.8607" y="-7.5" font-family="Helvetica,sans-Serif" font-size="10.00" fill="#000000">AMReX_MultiFab.H</text>
</g>
<!-- Node4&#45;&gt;Node9 -->
<g id="edge38" class="edge">
<title>Node4&#45;&gt;Node9</title>
<path fill="none" stroke="#191970" d="M862.1089,-180.6925C996.3442,-173.587 1286.9703,-149.8415 1347.8607,-76 1373.3422,-45.0986 1320.5093,-27.6438 1273.2334,-18.5506"/>
<polygon fill="#191970" stroke="#191970" points="1273.7249,-15.0826 1263.2597,-16.7353 1272.4713,-21.9695 1273.7249,-15.0826"/>
</g>
<!-- Node11 -->
<g id="node12" class="node">
<title>Node11</title>
<g id="a_node12"><a xlink:href="_field_8_h.html" target="_top" xlink:title="amr&#45;wind/core/Field.H">
<polygon fill="#ffffff" stroke="#000000" points="903.3607,-112.5 903.3607,-131.5 1016.3607,-131.5 1016.3607,-112.5 903.3607,-112.5"/>
<text text-anchor="middle" x="959.8607" y="-119.5" font-family="Helvetica,sans-Serif" font-size="10.00" fill="#000000">amr&#45;wind/core/Field.H</text>
</a>
</g>
</g>
<!-- Node4&#45;&gt;Node11 -->
<g id="edge12" class="edge">
<title>Node4&#45;&gt;Node11</title>
<path fill="none" stroke="#191970" d="M819.7982,-173.8906C847.9385,-163.4652 893.04,-146.7559 924.4332,-135.1252"/>
<polygon fill="#191970" stroke="#191970" points="925.9441,-138.298 934.1053,-131.5419 923.5122,-131.734 925.9441,-138.298"/>
</g>
<!-- Node18 -->
<g id="node19" class="node">
<title>Node18</title>
<g id="a_node19"><a xlink:href="_int_field_8_h.html" target="_top" xlink:title="amr&#45;wind/core/IntField.H">
<polygon fill="#ffffff" stroke="#000000" points="145.8607,-112.5 145.8607,-131.5 269.8607,-131.5 269.8607,-112.5 145.8607,-112.5"/>
<text text-anchor="middle" x="207.8607" y="-119.5" font-family="Helvetica,sans-Serif" font-size="10.00" fill="#000000">amr&#45;wind/core/IntField.H</text>
</a>
</g>
</g>
<!-- Node4&#45;&gt;Node18 -->
<g id="edge26" class="edge">
<title>Node4&#45;&gt;Node18</title>
<path fill="none" stroke="#191970" d="M750.2721,-173.9918C739.0958,-171.7871 727.066,-169.6161 715.8607,-168 561.3696,-145.7191 378.7949,-132.3131 280.048,-126.1234"/>
<polygon fill="#191970" stroke="#191970" points="280.0816,-122.6188 269.8841,-125.4933 279.6484,-129.6054 280.0816,-122.6188"/>
</g>
<!-- Node19 -->
<g id="node20" class="node">
<title>Node19</title>
<polygon fill="#ffffff" stroke="#bfbfbf" points="13.3607,-56.5 13.3607,-75.5 120.3607,-75.5 120.3607,-56.5 13.3607,-56.5"/>
<text text-anchor="middle" x="66.8607" y="-63.5" font-family="Helvetica,sans-Serif" font-size="10.00" fill="#000000">AMReX_iMultiFab.H</text>
</g>
<!-- Node4&#45;&gt;Node19 -->
<g id="edge39" class="edge">
<title>Node4&#45;&gt;Node19</title>
<path fill="none" stroke="#191970" d="M751.1184,-173.9338C739.7129,-171.6756 727.3615,-169.4934 715.8607,-168 588.0188,-151.3995 255.1404,-183.2739 136.8607,-132 113.0689,-121.6863 92.3896,-99.6088 79.7978,-83.8288"/>
<polygon fill="#191970" stroke="#191970" points="82.5258,-81.6345 73.6659,-75.8247 76.969,-85.8916 82.5258,-81.6345"/>
</g>
<!-- Node20 -->
<g id="node21" class="node">
<title>Node20</title>
<g id="a_node21"><a xlink:href="_scratch_field_8_h.html" target="_top" xlink:title="amr&#45;wind/core/ScratchField.H">
<polygon fill="#ffffff" stroke="#000000" points="468.8607,-112.5 468.8607,-131.5 614.8607,-131.5 614.8607,-112.5 468.8607,-112.5"/>
<text text-anchor="middle" x="541.8607" y="-119.5" font-family="Helvetica,sans-Serif" font-size="10.00" fill="#000000">amr&#45;wind/core/ScratchField.H</text>
</a>
</g>
</g>
<!-- Node4&#45;&gt;Node20 -->
<g id="edge30" class="edge">
<title>Node4&#45;&gt;Node20</title>
<path fill="none" stroke="#191970" d="M754.7622,-173.9581C710.6216,-163.1857 638.7387,-145.6428 590.8801,-133.9631"/>
<polygon fill="#191970" stroke="#191970" points="591.5956,-130.535 581.0509,-131.5643 589.9359,-137.3355 591.5956,-130.535"/>
</g>
<!-- Node22 -->
<g id="node23" class="node">
<title>Node22</title>
<polygon fill="#ffffff" stroke="#bfbfbf" points="740.8607,-112.5 740.8607,-131.5 846.8607,-131.5 846.8607,-112.5 740.8607,-112.5"/>
<text text-anchor="middle" x="793.8607" y="-119.5" font-family="Helvetica,sans-Serif" font-size="10.00" fill="#000000">AMReX_AmrCore.H</text>
</g>
<!-- Node4&#45;&gt;Node22 -->
<g id="edge37" class="edge">
<title>Node4&#45;&gt;Node22</title>
<path fill="none" stroke="#191970" d="M793.8607,-173.8906C793.8607,-165.3657 793.8607,-152.6392 793.8607,-141.9235"/>
<polygon fill="#191970" stroke="#191970" points="797.3608,-141.7448 793.8607,-131.7449 790.3608,-141.7449 797.3608,-141.7448"/>
</g>
<!-- Node8&#45;&gt;Node7 -->
<g id="edge9" class="edge">
<title>Node8&#45;&gt;Node7</title>
<path fill="none" stroke="#191970" d="M1395.2682,-59.9416C1379.7157,-58.5868 1363.2115,-57.1978 1347.8607,-56 1140.2536,-39.8009 896.3686,-23.913 766.7558,-15.7188"/>
<polygon fill="#191970" stroke="#191970" points="766.6807,-12.2072 756.48,-15.0702 766.2396,-19.1933 766.6807,-12.2072"/>
</g>
<!-- Node8&#45;&gt;Node9 -->
<g id="edge10" class="edge">
<title>Node8&#45;&gt;Node9</title>
<path fill="none" stroke="#191970" d="M1418.9974,-56.4369C1375.9505,-46.8328 1309.5534,-32.0191 1263.3697,-21.7152"/>
<polygon fill="#191970" stroke="#191970" points="1264.0693,-18.2853 1253.5471,-19.5237 1262.545,-25.1173 1264.0693,-18.2853"/>
</g>
<!-- Node10 -->
<g id="node11" class="node">
<title>Node10</title>
<polygon fill="#ffffff" stroke="#bfbfbf" points="1403.8607,-.5 1403.8607,-19.5 1519.8607,-19.5 1519.8607,-.5 1403.8607,-.5"/>
<text text-anchor="middle" x="1461.8607" y="-7.5" font-family="Helvetica,sans-Serif" font-size="10.00" fill="#000000">AMReX_Interpolater.H</text>
</g>
<!-- Node8&#45;&gt;Node10 -->
<g id="edge11" class="edge">
<title>Node8&#45;&gt;Node10</title>
<path fill="none" stroke="#191970" d="M1461.8607,-56.2455C1461.8607,-48.9382 1461.8607,-38.6944 1461.8607,-29.7046"/>
<polygon fill="#191970" stroke="#191970" points="1465.3608,-29.6426 1461.8607,-19.6427 1458.3608,-29.6427 1465.3608,-29.6426"/>
</g>
<!-- Node11&#45;&gt;Node5 -->
<g id="edge13" class="edge">
<title>Node11&#45;&gt;Node5</title>
<path fill="none" stroke="#191970" d="M903.19,-116.5114C887.8328,-115.0348 871.2107,-113.4464 855.8607,-112 682.5581,-95.6696 637.2818,-106.2531 465.8607,-76 431.4644,-69.9296 423.7867,-64.3052 389.8607,-56 328.8022,-41.0528 256.9912,-25.1793 217.2334,-16.5401"/>
<polygon fill="#191970" stroke="#191970" points="217.8879,-13.1007 207.3734,-14.4031 216.4052,-19.9419 217.8879,-13.1007"/>
</g>
<!-- Node11&#45;&gt;Node6 -->
<g id="edge15" class="edge">
<title>Node11&#45;&gt;Node6</title>
<path fill="none" stroke="#191970" d="M929.4333,-112.3733C899.8735,-103.021 854.8381,-88.7725 822.4912,-78.5385"/>
<polygon fill="#191970" stroke="#191970" points="823.481,-75.1807 812.891,-75.5011 821.3694,-81.8546 823.481,-75.1807"/>
</g>
<!-- Node11&#45;&gt;Node7 -->
<g id="edge20" class="edge">
<title>Node11&#45;&gt;Node7</title>
<path fill="none" stroke="#191970" d="M941.6135,-112.4588C907.1487,-94.4455 835.6572,-57.1211 832.8607,-56 797.9256,-41.9942 757.1036,-30.2214 725.7056,-22.0925"/>
<polygon fill="#191970" stroke="#191970" points="726.4167,-18.662 715.8619,-19.5831 724.6874,-25.445 726.4167,-18.662"/>
</g>
<!-- Node11&#45;&gt;Node9 -->
<g id="edge16" class="edge">
<title>Node11&#45;&gt;Node9</title>
<path fill="none" stroke="#191970" d="M1016.4166,-117.4913C1076.6655,-111.555 1166.7644,-99.059 1191.8607,-76 1204.5946,-64.2997 1208.9984,-44.6736 1210.4236,-29.8572"/>
<polygon fill="#191970" stroke="#191970" points="1213.9292,-29.8636 1211.0214,-19.6756 1206.9412,-29.4532 1213.9292,-29.8636"/>
</g>
<!-- Node12 -->
<g id="node13" class="node">
<title>Node12</title>
<polygon fill="#ffffff" stroke="#bfbfbf" points="880.8607,-56.5 880.8607,-75.5 932.8607,-75.5 932.8607,-56.5 880.8607,-56.5"/>
<text text-anchor="middle" x="906.8607" y="-63.5" font-family="Helvetica,sans-Serif" font-size="10.00" fill="#000000">memory</text>
</g>
<!-- Node11&#45;&gt;Node12 -->
<g id="edge14" class="edge">
<title>Node11&#45;&gt;Node12</title>
<path fill="none" stroke="#191970" d="M950.6288,-112.2455C943.0289,-104.2155 932.0729,-92.6394 923.0239,-83.0781"/>
<polygon fill="#191970" stroke="#191970" points="925.4027,-80.4998 915.9868,-75.6427 920.3186,-85.3115 925.4027,-80.4998"/>
</g>
<!-- Node13 -->
<g id="node14" class="node">
<title>Node13</title>
<polygon fill="#ffffff" stroke="#bfbfbf" points="1239.3607,-56.5 1239.3607,-75.5 1338.3607,-75.5 1338.3607,-56.5 1239.3607,-56.5"/>
<text text-anchor="middle" x="1288.8607" y="-63.5" font-family="Helvetica,sans-Serif" font-size="10.00" fill="#000000">AMReX_BCRec.H</text>
</g>
<!-- Node11&#45;&gt;Node13 -->
<g id="edge17" class="edge">
<title>Node11&#45;&gt;Node13</title>
<path fill="none" stroke="#191970" d="M1016.044,-112.4369C1075.2912,-102.3522 1168.2842,-86.5237 1228.9147,-76.2036"/>
<polygon fill="#191970" stroke="#191970" points="1229.8287,-79.5984 1239.0996,-74.47 1228.6541,-72.6977 1229.8287,-79.5984"/>
</g>
<!-- Node14 -->
<g id="node15" class="node">
<title>Node14</title>
<polygon fill="#ffffff" stroke="#bfbfbf" points="951.3607,-56.5 951.3607,-75.5 1036.3607,-75.5 1036.3607,-56.5 951.3607,-56.5"/>
<text text-anchor="middle" x="993.8607" y="-63.5" font-family="Helvetica,sans-Serif" font-size="10.00" fill="#000000">AMReX_Gpu.H</text>
</g>
<!-- Node11&#45;&gt;Node14 -->
<g id="edge18" class="edge">
<title>Node11&#45;&gt;Node14</title>
<path fill="none" stroke="#191970" d="M965.783,-112.2455C970.4634,-104.5367 977.1279,-93.5598 982.7895,-84.2348"/>
<polygon fill="#191970" stroke="#191970" points="985.8081,-86.007 988.0062,-75.6427 979.8246,-82.3741 985.8081,-86.007"/>
</g>
<!-- Node15 -->
<g id="node16" class="node">
<title>Node15</title>
<g id="a_node16"><a xlink:href="incflo__enums_8_h.html" target="_top" xlink:title="amr&#45;wind/incflo_enums.H">
<polygon fill="#ffffff" stroke="#000000" points="1054.8607,-56.5 1054.8607,-75.5 1182.8607,-75.5 1182.8607,-56.5 1054.8607,-56.5"/>
<text text-anchor="middle" x="1118.8607" y="-63.5" font-family="Helvetica,sans-Serif" font-size="10.00" fill="#000000">amr&#45;wind/incflo_enums.H</text>
</a>
</g>
</g>
<!-- Node11&#45;&gt;Node15 -->
<g id="edge19" class="edge">
<title>Node11&#45;&gt;Node15</title>
<path fill="none" stroke="#191970" d="M987.1937,-112.3733C1013.4041,-103.1419 1053.159,-89.1402 1082.1275,-78.9375"/>
<polygon fill="#191970" stroke="#191970" points="1083.6149,-82.1244 1091.8843,-75.5011 1081.2894,-75.5219 1083.6149,-82.1244"/>
</g>
<!-- Node16 -->
<g id="node17" class="node">
<title>Node16</title>
<g id="a_node17"><a xlink:href="_view_field_8_h.html" target="_top" xlink:title="amr&#45;wind/core/ViewField.H">
<polygon fill="#ffffff" stroke="#000000" points="474.8607,-56.5 474.8607,-75.5 608.8607,-75.5 608.8607,-56.5 474.8607,-56.5"/>
<text text-anchor="middle" x="541.8607" y="-63.5" font-family="Helvetica,sans-Serif" font-size="10.00" fill="#000000">amr&#45;wind/core/ViewField.H</text>
</a>
</g>
</g>
<!-- Node11&#45;&gt;Node16 -->
<g id="edge21" class="edge">
<title>Node11&#45;&gt;Node16</title>
<path fill="none" stroke="#191970" d="M903.0523,-114.3893C829.5532,-104.5425 701.2083,-87.348 618.9575,-76.3288"/>
<polygon fill="#191970" stroke="#191970" points="619.2898,-72.8421 608.9136,-74.9832 618.3603,-79.7801 619.2898,-72.8421"/>
</g>
<!-- Node16&#45;&gt;Node5 -->
<g id="edge22" class="edge">
<title>Node16&#45;&gt;Node5</title>
<path fill="none" stroke="#191970" d="M481.2374,-56.4369C404.8018,-44.3794 276.3138,-24.1109 217.6927,-14.8636"/>
<polygon fill="#191970" stroke="#191970" points="218.0115,-11.3707 207.5882,-13.2697 216.9207,-18.2852 218.0115,-11.3707"/>
</g>
<!-- Node16&#45;&gt;Node7 -->
<g id="edge23" class="edge">
<title>Node16&#45;&gt;Node7</title>
<path fill="none" stroke="#191970" d="M564.7242,-56.3733C586.2656,-47.3032 618.7444,-33.6279 642.8563,-23.4755"/>
<polygon fill="#191970" stroke="#191970" points="644.4374,-26.6075 652.2955,-19.5011 641.7209,-20.156 644.4374,-26.6075"/>
</g>
<!-- Node16&#45;&gt;Node9 -->
<g id="edge24" class="edge">
<title>Node16&#45;&gt;Node9</title>
<path fill="none" stroke="#191970" d="M608.8868,-60.3629C625.8448,-58.9379 644.0227,-57.4116 660.8607,-56 837.6423,-41.1795 1046.3911,-23.7362 1148.4068,-15.2153"/>
<polygon fill="#191970" stroke="#191970" points="1148.8603,-18.6897 1158.5342,-14.3695 1148.2776,-11.714 1148.8603,-18.6897"/>
</g>
<!-- Node17 -->
<g id="node18" class="node">
<title>Node17</title>
<polygon fill="#ffffff" stroke="#bfbfbf" points="420.3607,-.5 420.3607,-19.5 515.3607,-19.5 515.3607,-.5 420.3607,-.5"/>
<text text-anchor="middle" x="467.8607" y="-7.5" font-family="Helvetica,sans-Serif" font-size="10.00" fill="#000000">AMReX_Vector.H</text>
</g>
<!-- Node16&#45;&gt;Node17 -->
<g id="edge25" class="edge">
<title>Node16&#45;&gt;Node17</title>
<path fill="none" stroke="#191970" d="M528.9709,-56.2455C517.9353,-47.8943 501.8315,-35.7076 488.9253,-25.9408"/>
<polygon fill="#191970" stroke="#191970" points="490.6889,-22.8862 480.6028,-19.6427 486.4648,-28.4681 490.6889,-22.8862"/>
</g>
<!-- Node18&#45;&gt;Node5 -->
<g id="edge27" class="edge">
<title>Node18&#45;&gt;Node5</title>
<path fill="none" stroke="#191970" d="M197.3016,-112.2076C188.8597,-103.6048 177.6701,-90.2634 172.8607,-76 167.6633,-60.5858 172.2248,-42.4726 177.4868,-29.1249"/>
<polygon fill="#191970" stroke="#191970" points="180.8607,-30.1473 181.6839,-19.5845 174.4533,-27.3285 180.8607,-30.1473"/>
</g>
<!-- Node18&#45;&gt;Node7 -->
<g id="edge28" class="edge">
<title>Node18&#45;&gt;Node7</title>
<path fill="none" stroke="#191970" d="M210.0627,-112.44C214.0296,-97.599 223.8901,-69.3392 243.8607,-56 257.7835,-46.7003 460.7072,-28.0945 583.0774,-17.6195"/>
<polygon fill="#191970" stroke="#191970" points="583.5346,-21.0933 593.2008,-16.7558 582.9394,-14.1187 583.5346,-21.0933"/>
</g>
<!-- Node18&#45;&gt;Node19 -->
<g id="edge29" class="edge">
<title>Node18&#45;&gt;Node19</title>
<path fill="none" stroke="#191970" d="M183.6219,-112.3733C160.5817,-103.2226 125.7393,-89.3844 100.1106,-79.2057"/>
<polygon fill="#191970" stroke="#191970" points="101.3689,-75.9395 90.7831,-75.5011 98.785,-82.4452 101.3689,-75.9395"/>
</g>
<!-- Node20&#45;&gt;Node5 -->
<g id="edge31" class="edge">
<title>Node20&#45;&gt;Node5</title>
<path fill="none" stroke="#191970" d="M468.6119,-116.5054C393.1499,-109.8269 281.4119,-96.7979 243.8607,-76 223.6796,-64.8227 207.3287,-43.5686 197.3981,-28.1934"/>
<polygon fill="#191970" stroke="#191970" points="200.2865,-26.2086 192.0678,-19.5225 194.3232,-29.8745 200.2865,-26.2086"/>
</g>
<!-- Node20&#45;&gt;Node7 -->
<g id="edge32" class="edge">
<title>Node20&#45;&gt;Node7</title>
<path fill="none" stroke="#191970" d="M561.3919,-112.3808C577.439,-103.9785 600.3044,-90.8283 617.8607,-76 634.7495,-61.7354 650.916,-42.2716 661.6899,-28.1802"/>
<polygon fill="#191970" stroke="#191970" points="664.7654,-29.9112 667.9444,-19.8046 659.1567,-25.7228 664.7654,-29.9112"/>
</g>
<!-- Node20&#45;&gt;Node9 -->
<g id="edge34" class="edge">
<title>Node20&#45;&gt;Node9</title>
<path fill="none" stroke="#191970" d="M563.8829,-112.4077C598.7811,-97.6551 669.259,-69.6729 731.8607,-56 879.0194,-23.8589 1056.4935,-14.174 1148.5838,-11.2567"/>
<polygon fill="#191970" stroke="#191970" points="1148.9537,-14.7473 1158.8441,-10.9487 1148.7435,-7.7504 1148.9537,-14.7473"/>
</g>
<!-- Node20&#45;&gt;Node16 -->
<g id="edge33" class="edge">
<title>Node20&#45;&gt;Node16</title>
<path fill="none" stroke="#191970" d="M541.8607,-112.2455C541.8607,-104.9382 541.8607,-94.6944 541.8607,-85.7046"/>
<polygon fill="#191970" stroke="#191970" points="545.3608,-85.6426 541.8607,-75.6427 538.3608,-85.6427 545.3608,-85.6426"/>
</g>
<!-- Node20&#45;&gt;Node17 -->
<g id="edge35" class="edge">
<title>Node20&#45;&gt;Node17</title>
<path fill="none" stroke="#191970" d="M512.2922,-112.3976C495.4499,-105.2338 475.7813,-93.6009 465.8607,-76 457.9548,-61.9736 459.326,-43.4715 462.1744,-29.6269"/>
<polygon fill="#191970" stroke="#191970" points="465.627,-30.2443 464.6264,-19.6969 458.8311,-28.5662 465.627,-30.2443"/>
</g>
<!-- Node21 -->
<g id="node22" class="node">
<title>Node21</title>
<polygon fill="#ffffff" stroke="#bfbfbf" points="252.8607,-56.5 252.8607,-75.5 380.8607,-75.5 380.8607,-56.5 252.8607,-56.5"/>
<text text-anchor="middle" x="316.8607" y="-63.5" font-family="Helvetica,sans-Serif" font-size="10.00" fill="#000000">AMReX_PhysBCFunct.H</text>
</g>
<!-- Node20&#45;&gt;Node21 -->
<g id="edge36" class="edge">
<title>Node20&#45;&gt;Node21</title>
<path fill="none" stroke="#191970" d="M503.4374,-112.4369C465.1731,-102.9133 406.327,-88.2672 364.9758,-77.9753"/>
<polygon fill="#191970" stroke="#191970" points="365.6747,-74.5426 355.1254,-75.5237 363.984,-81.3353 365.6747,-74.5426"/>
</g>
<!-- Node23&#45;&gt;Node13 -->
<g id="edge41" class="edge">
<title>Node23&#45;&gt;Node13</title>
<path fill="none" stroke="#191970" d="M1180.8176,-168.3795C1204.0896,-146.3274 1247.1892,-105.4871 1271.3232,-82.6181"/>
<polygon fill="#191970" stroke="#191970" points="1273.8734,-85.0235 1278.7247,-75.6046 1269.0586,-79.9423 1273.8734,-85.0235"/>
</g>
</g>
</svg>
