<?xml version="1.0" encoding="UTF-8" standalone="no"?>
<!DOCTYPE svg PUBLIC "-//W3C//DTD SVG 1.1//EN"
 "http://www.w3.org/Graphics/SVG/1.1/DTD/svg11.dtd">
<!-- Generated by graphviz version 2.40.1 (20161225.0304)
 -->
<!-- Title: incflo_godunov_predict.cpp Pages: 1 -->
<!--zoomable 341 -->
<svg id="main" version="1.1" xmlns="http://www.w3.org/2000/svg" xmlns:xlink="http://www.w3.org/1999/xlink" xml:space="preserve" onload="init(evt)">
<style type="text/css"><![CDATA[
.edge:hover path { stroke: red; }
.edge:hover polygon { stroke: red; fill: red; }
]]></style>
<script type="text/javascript"><![CDATA[
var edges = document.getElementsByTagName('g');
if (edges && edges.length) {
  for (var i=0;i<edges.length;i++) {
    if (edges[i].id.substr(0,4)=='edge') {
      edges[i].setAttribute('class','edge');
    }
  }
}
]]></script>
        <defs>
                <circle id="rim" cx="0" cy="0" r="7"/>
                <circle id="rim2" cx="0" cy="0" r="3.5"/>
                <g id="zoomPlus">
                        <use xlink:href="#rim" fill="#404040">
                                <set attributeName="fill" to="#808080" begin="zoomplus.mouseover" end="zoomplus.mouseout"/>
                        </use>
                        <path d="M-4,0h8M0,-4v8" fill="none" stroke="white" stroke-width="1.5" pointer-events="none"/>
                </g>
                <g id="zoomMin">
                        <use xlink:href="#rim" fill="#404040">
                                <set attributeName="fill" to="#808080" begin="zoomminus.mouseover" end="zoomminus.mouseout"/>
                        </use>
                        <path d="M-4,0h8" fill="none" stroke="white" stroke-width="1.5" pointer-events="none"/>
                </g>
                <g id="dirArrow">
                        <path fill="none" stroke="white" stroke-width="1.5" d="M0,-3.0v7 M-2.5,-0.5L0,-3.0L2.5,-0.5"/>
                </g>
               <g id="resetDef">
                       <use xlink:href="#rim2" fill="#404040">
                               <set attributeName="fill" to="#808080" begin="reset.mouseover" end="reset.mouseout"/>
                       </use>
               </g>
        </defs>

<script type="text/javascript">
var viewWidth = 1635;
var viewHeight = 341;
var sectionId = 'dynsection-0';
</script>
<script xlink:href="svgpan.js"/>
<svg id="graph" class="graph">
<g id="viewport">
<title>incflo_godunov_predict.cpp</title>
<polygon fill="#ffffff" stroke="transparent" points="-4,4 -4,-337 1631.0281,-337 1631.0281,4 -4,4"/>
<!-- Node0 -->
<g id="node1" class="node">
<title>Node0</title>
<polygon fill="#bfbfbf" stroke="#000000" points="161.5,-313.5 161.5,-332.5 296.5,-332.5 296.5,-313.5 161.5,-313.5"/>
<text text-anchor="middle" x="229" y="-320.5" font-family="Helvetica,sans-Serif" font-size="10.00" fill="#000000">incflo_godunov_predict.cpp</text>
</g>
<!-- Node1 -->
<g id="node2" class="node">
<title>Node1</title>
<g id="a_node2"><a xlink:href="incflo__godunov__plm_8_h.html" target="_top" xlink:title="amr&#45;wind/convection\l/incflo_godunov_plm.H">
<polygon fill="#ffffff" stroke="#000000" points="128,-123.5 128,-153.5 244,-153.5 244,-123.5 128,-123.5"/>
<text text-anchor="start" x="136" y="-141.5" font-family="Helvetica,sans-Serif" font-size="10.00" fill="#000000">amr&#45;wind/convection</text>
<text text-anchor="middle" x="186" y="-130.5" font-family="Helvetica,sans-Serif" font-size="10.00" fill="#000000">/incflo_godunov_plm.H</text>
</a>
</g>
</g>
<!-- Node0&#45;&gt;Node1 -->
<g id="edge1" class="edge">
<title>Node0&#45;&gt;Node1</title>
<path fill="none" stroke="#191970" d="M226.7487,-313.3402C220.2787,-285.5797 201.4809,-204.924 191.845,-163.579"/>
<polygon fill="#191970" stroke="#191970" points="195.2295,-162.6809 189.551,-153.7363 188.4122,-164.2698 195.2295,-162.6809"/>
</g>
<!-- Node5 -->
<g id="node6" class="node">
<title>Node5</title>
<polygon fill="#ffffff" stroke="#bfbfbf" points="136.5,-62 136.5,-81 235.5,-81 235.5,-62 136.5,-62"/>
<text text-anchor="middle" x="186" y="-69" font-family="Helvetica,sans-Serif" font-size="10.00" fill="#000000">AMReX_BCRec.H</text>
</g>
<!-- Node0&#45;&gt;Node5 -->
<g id="edge9" class="edge">
<title>Node0&#45;&gt;Node5</title>
<path fill="none" stroke="#191970" d="M219.7431,-313.3886C197.1056,-289.1304 139.3189,-222.4647 119,-154 115.08,-140.7916 112.9114,-135.3595 119,-123 126.8181,-107.1298 142.1367,-94.7839 156.1551,-86.1633"/>
<polygon fill="#191970" stroke="#191970" points="158.1567,-89.0501 165.0876,-81.0368 154.6723,-82.9789 158.1567,-89.0501"/>
</g>
<!-- Node6 -->
<g id="node7" class="node">
<title>Node6</title>
<g id="a_node7"><a xlink:href="incflo__godunov__ppm_8_h.html" target="_top" xlink:title="amr&#45;wind/convection\l/incflo_godunov_ppm.H">
<polygon fill="#ffffff" stroke="#000000" points="262.5,-123.5 262.5,-153.5 381.5,-153.5 381.5,-123.5 262.5,-123.5"/>
<text text-anchor="start" x="270.5" y="-141.5" font-family="Helvetica,sans-Serif" font-size="10.00" fill="#000000">amr&#45;wind/convection</text>
<text text-anchor="middle" x="322" y="-130.5" font-family="Helvetica,sans-Serif" font-size="10.00" fill="#000000">/incflo_godunov_ppm.H</text>
</a>
</g>
</g>
<!-- Node0&#45;&gt;Node6 -->
<g id="edge6" class="edge">
<title>Node0&#45;&gt;Node6</title>
<path fill="none" stroke="#191970" d="M233.8691,-313.3402C247.9514,-285.4029 289.037,-203.8944 309.7544,-162.7938"/>
<polygon fill="#191970" stroke="#191970" points="312.9441,-164.2415 314.3199,-153.7363 306.6933,-161.0906 312.9441,-164.2415"/>
</g>
<!-- Node7 -->
<g id="node8" class="node">
<title>Node7</title>
<g id="a_node8"><a xlink:href="_godunov_8_h.html" target="_top" xlink:title="amr&#45;wind/convection\l/Godunov.H">
<polygon fill="#ffffff" stroke="#000000" points="682.5,-246.5 682.5,-276.5 789.5,-276.5 789.5,-246.5 682.5,-246.5"/>
<text text-anchor="start" x="690.5" y="-264.5" font-family="Helvetica,sans-Serif" font-size="10.00" fill="#000000">amr&#45;wind/convection</text>
<text text-anchor="middle" x="736" y="-253.5" font-family="Helvetica,sans-Serif" font-size="10.00" fill="#000000">/Godunov.H</text>
</a>
</g>
</g>
<!-- Node0&#45;&gt;Node7 -->
<g id="edge10" class="edge">
<title>Node0&#45;&gt;Node7</title>
<path fill="none" stroke="#191970" d="M296.5877,-314.8015C394.9128,-302.8745 576.1203,-280.8937 672.2407,-269.2341"/>
<polygon fill="#191970" stroke="#191970" points="672.895,-272.6805 682.4007,-268.0017 672.052,-265.7314 672.895,-272.6805"/>
</g>
<!-- Node2 -->
<g id="node3" class="node">
<title>Node2</title>
<g id="a_node3"><a xlink:href="incflo__convection___k_8_h.html" target="_top" xlink:title="amr&#45;wind/convection\l/incflo_convection_K.H">
<polygon fill="#ffffff" stroke="#000000" points="0,-56.5 0,-86.5 118,-86.5 118,-56.5 0,-56.5"/>
<text text-anchor="start" x="8" y="-74.5" font-family="Helvetica,sans-Serif" font-size="10.00" fill="#000000">amr&#45;wind/convection</text>
<text text-anchor="middle" x="59" y="-63.5" font-family="Helvetica,sans-Serif" font-size="10.00" fill="#000000">/incflo_convection_K.H</text>
</a>
</g>
</g>
<!-- Node1&#45;&gt;Node2 -->
<g id="edge2" class="edge">
<title>Node1&#45;&gt;Node2</title>
<path fill="none" stroke="#191970" d="M157.4987,-123.4639C139.5687,-114.0047 116.2247,-101.6894 96.763,-91.4222"/>
<polygon fill="#191970" stroke="#191970" points="98.3234,-88.2882 87.8456,-86.7177 95.0571,-94.4795 98.3234,-88.2882"/>
</g>
<!-- Node4 -->
<g id="node5" class="node">
<title>Node4</title>
<polygon fill="#ffffff" stroke="#bfbfbf" points="253.5,-62 253.5,-81 338.5,-81 338.5,-62 253.5,-62"/>
<text text-anchor="middle" x="296" y="-69" font-family="Helvetica,sans-Serif" font-size="10.00" fill="#000000">AMReX_Gpu.H</text>
</g>
<!-- Node1&#45;&gt;Node4 -->
<g id="edge4" class="edge">
<title>Node1&#45;&gt;Node4</title>
<path fill="none" stroke="#191970" d="M210.6861,-123.4639C228.8102,-112.4247 253.3209,-97.4954 271.42,-86.4715"/>
<polygon fill="#191970" stroke="#191970" points="273.5126,-89.2951 280.2324,-81.1039 269.8712,-83.3167 273.5126,-89.2951"/>
</g>
<!-- Node1&#45;&gt;Node5 -->
<g id="edge5" class="edge">
<title>Node1&#45;&gt;Node5</title>
<path fill="none" stroke="#191970" d="M186,-123.2967C186,-113.7699 186,-101.3954 186,-91.1306"/>
<polygon fill="#191970" stroke="#191970" points="189.5001,-91.0549 186,-81.055 182.5001,-91.055 189.5001,-91.0549"/>
</g>
<!-- Node3 -->
<g id="node4" class="node">
<title>Node3</title>
<polygon fill="#ffffff" stroke="#bfbfbf" points="2.5,-.5 2.5,-19.5 115.5,-19.5 115.5,-.5 2.5,-.5"/>
<text text-anchor="middle" x="59" y="-7.5" font-family="Helvetica,sans-Serif" font-size="10.00" fill="#000000">AMReX_FArrayBox.H</text>
</g>
<!-- Node2&#45;&gt;Node3 -->
<g id="edge3" class="edge">
<title>Node2&#45;&gt;Node3</title>
<path fill="none" stroke="#191970" d="M59,-56.2977C59,-48.3834 59,-38.6043 59,-30.0759"/>
<polygon fill="#191970" stroke="#191970" points="62.5001,-29.8469 59,-19.8469 55.5001,-29.847 62.5001,-29.8469"/>
</g>
<!-- Node6&#45;&gt;Node4 -->
<g id="edge7" class="edge">
<title>Node6&#45;&gt;Node4</title>
<path fill="none" stroke="#191970" d="M316.1002,-123.2967C312.3246,-113.5672 307.3963,-100.8675 303.3647,-90.4784"/>
<polygon fill="#191970" stroke="#191970" points="306.5886,-89.1114 299.7079,-81.055 300.0628,-91.6439 306.5886,-89.1114"/>
</g>
<!-- Node6&#45;&gt;Node5 -->
<g id="edge8" class="edge">
<title>Node6&#45;&gt;Node5</title>
<path fill="none" stroke="#191970" d="M291.4789,-123.4639C268.4543,-112.1209 237.0928,-96.6707 214.5606,-85.5703"/>
<polygon fill="#191970" stroke="#191970" points="216.0118,-82.3836 205.4945,-81.1039 212.9183,-88.6629 216.0118,-82.3836"/>
</g>
<!-- Node8 -->
<g id="node9" class="node">
<title>Node8</title>
<g id="a_node9"><a xlink:href="_field_repo_8_h.html" target="_top" xlink:title="amr&#45;wind/core/FieldRepo.H">
<polygon fill="#ffffff" stroke="#000000" points="952,-190.5 952,-209.5 1088,-209.5 1088,-190.5 952,-190.5"/>
<text text-anchor="middle" x="1020" y="-197.5" font-family="Helvetica,sans-Serif" font-size="10.00" fill="#000000">amr&#45;wind/core/FieldRepo.H</text>
</a>
</g>
</g>
<!-- Node7&#45;&gt;Node8 -->
<g id="edge11" class="edge">
<title>Node7&#45;&gt;Node8</title>
<path fill="none" stroke="#191970" d="M789.7521,-249.86C840.1512,-238.9461 915.1225,-222.7112 965.699,-211.7588"/>
<polygon fill="#191970" stroke="#191970" points="966.7561,-215.1111 975.7888,-209.5739 965.2746,-208.2697 966.7561,-215.1111"/>
</g>
<!-- Node9 -->
<g id="node10" class="node">
<title>Node9</title>
<polygon fill="#ffffff" stroke="#bfbfbf" points="1359.5,-.5 1359.5,-19.5 1400.5,-19.5 1400.5,-.5 1359.5,-.5"/>
<text text-anchor="middle" x="1380" y="-7.5" font-family="Helvetica,sans-Serif" font-size="10.00" fill="#000000">string</text>
</g>
<!-- Node8&#45;&gt;Node9 -->
<g id="edge12" class="edge">
<title>Node8&#45;&gt;Node9</title>
<path fill="none" stroke="#191970" d="M1088.1532,-196.8967C1201.7969,-191.1501 1424.9368,-177.2706 1500,-154 1558.7149,-135.7976 1589.7888,-139.9587 1621,-87 1627.9954,-75.1302 1629.7817,-66.6164 1621,-56 1594.6743,-24.1743 1469.9329,-14.1692 1410.9904,-11.1885"/>
<polygon fill="#191970" stroke="#191970" points="1410.9419,-7.6824 1400.7888,-10.71 1410.6138,-14.6747 1410.9419,-7.6824"/>
</g>
<!-- Node10 -->
<g id="node11" class="node">
<title>Node10</title>
<polygon fill="#ffffff" stroke="#bfbfbf" points="1040.5,-62 1040.5,-81 1123.5,-81 1123.5,-62 1040.5,-62"/>
<text text-anchor="middle" x="1082" y="-69" font-family="Helvetica,sans-Serif" font-size="10.00" fill="#000000">unordered_map</text>
</g>
<!-- Node8&#45;&gt;Node10 -->
<g id="edge13" class="edge">
<title>Node8&#45;&gt;Node10</title>
<path fill="none" stroke="#191970" d="M1088.0836,-197.3366C1155.657,-193.0931 1252.4623,-182.1441 1276,-154 1347.737,-68.2238 1270.7012,-122.6716 1138,-87 1133.9997,-85.9247 1129.842,-84.7955 1125.6801,-83.6575"/>
<polygon fill="#191970" stroke="#191970" points="1126.6041,-80.2817 1116.0341,-81.0071 1124.7494,-87.0315 1126.6041,-80.2817"/>
</g>
<!-- Node11 -->
<g id="node12" class="node">
<title>Node11</title>
<g id="a_node12"><a xlink:href="_field_desc_types_8_h.html" target="_top" xlink:title="amr&#45;wind/core/FieldDescTypes.H">
<polygon fill="#ffffff" stroke="#000000" points="1019.5,-.5 1019.5,-19.5 1182.5,-19.5 1182.5,-.5 1019.5,-.5"/>
<text text-anchor="middle" x="1101" y="-7.5" font-family="Helvetica,sans-Serif" font-size="10.00" fill="#000000">amr&#45;wind/core/FieldDescTypes.H</text>
</a>
</g>
</g>
<!-- Node8&#45;&gt;Node11 -->
<g id="edge14" class="edge">
<title>Node8&#45;&gt;Node11</title>
<path fill="none" stroke="#191970" d="M1039.413,-190.4484C1054.6863,-182.2648 1075.8478,-169.3804 1091,-154 1115.6647,-128.9638 1123.2885,-120.7764 1133,-87 1136.8072,-73.7587 1137.1229,-69.1464 1133,-56 1129.7504,-45.6383 1123.2506,-35.5669 1116.9529,-27.5026"/>
<polygon fill="#191970" stroke="#191970" points="1119.4619,-25.047 1110.3618,-19.6212 1114.0921,-29.5376 1119.4619,-25.047"/>
</g>
<!-- Node12 -->
<g id="node13" class="node">
<title>Node12</title>
<g id="a_node13"><a xlink:href="_field_utils_8_h.html" target="_top" xlink:title="amr&#45;wind/core/FieldUtils.H">
<polygon fill="#ffffff" stroke="#000000" points="356.5,-62 356.5,-81 489.5,-81 489.5,-62 356.5,-62"/>
<text text-anchor="middle" x="423" y="-69" font-family="Helvetica,sans-Serif" font-size="10.00" fill="#000000">amr&#45;wind/core/FieldUtils.H</text>
</a>
</g>
</g>
<!-- Node8&#45;&gt;Node12 -->
<g id="edge15" class="edge">
<title>Node8&#45;&gt;Node12</title>
<path fill="none" stroke="#191970" d="M951.8141,-196.5483C820.853,-189.5362 543.5347,-172.6964 504,-154 473.767,-139.7025 448.577,-109.0699 434.6719,-89.4213"/>
<polygon fill="#191970" stroke="#191970" points="437.4671,-87.308 428.9393,-81.0209 431.6852,-91.2538 437.4671,-87.308"/>
</g>
<!-- Node13 -->
<g id="node14" class="node">
<title>Node13</title>
<polygon fill="#ffffff" stroke="#bfbfbf" points="650,-.5 650,-19.5 754,-19.5 754,-.5 650,-.5"/>
<text text-anchor="middle" x="702" y="-7.5" font-family="Helvetica,sans-Serif" font-size="10.00" fill="#000000">AMReX_MultiFab.H</text>
</g>
<!-- Node8&#45;&gt;Node13 -->
<g id="edge45" class="edge">
<title>Node8&#45;&gt;Node13</title>
<path fill="none" stroke="#191970" d="M951.7596,-195.0803C829.8337,-184.6232 582.9903,-155.3121 537,-87 508.4799,-44.6373 581.6635,-25.0773 639.547,-16.4105"/>
<polygon fill="#191970" stroke="#191970" points="640.3703,-19.829 649.7825,-14.9647 639.3912,-12.8979 640.3703,-19.829"/>
</g>
<!-- Node15 -->
<g id="node16" class="node">
<title>Node15</title>
<g id="a_node16"><a xlink:href="_field_8_h.html" target="_top" xlink:title="amr&#45;wind/core/Field.H">
<polygon fill="#ffffff" stroke="#000000" points="710.5,-129 710.5,-148 823.5,-148 823.5,-129 710.5,-129"/>
<text text-anchor="middle" x="767" y="-136" font-family="Helvetica,sans-Serif" font-size="10.00" fill="#000000">amr&#45;wind/core/Field.H</text>
</a>
</g>
</g>
<!-- Node8&#45;&gt;Node15 -->
<g id="edge19" class="edge">
<title>Node8&#45;&gt;Node15</title>
<path fill="none" stroke="#191970" d="M980.7463,-190.4581C936.4306,-179.6857 864.2624,-162.1428 816.214,-150.4631"/>
<polygon fill="#191970" stroke="#191970" points="816.8895,-147.0254 806.3457,-148.0643 815.236,-153.8274 816.8895,-147.0254"/>
</g>
<!-- Node20 -->
<g id="node21" class="node">
<title>Node20</title>
<g id="a_node21"><a xlink:href="_int_field_8_h.html" target="_top" xlink:title="amr&#45;wind/core/IntField.H">
<polygon fill="#ffffff" stroke="#000000" points="958,-129 958,-148 1082,-148 1082,-129 958,-129"/>
<text text-anchor="middle" x="1020" y="-136" font-family="Helvetica,sans-Serif" font-size="10.00" fill="#000000">amr&#45;wind/core/IntField.H</text>
</a>
</g>
</g>
<!-- Node8&#45;&gt;Node20 -->
<g id="edge33" class="edge">
<title>Node8&#45;&gt;Node20</title>
<path fill="none" stroke="#191970" d="M1020,-190.3906C1020,-181.8657 1020,-169.1392 1020,-158.4235"/>
<polygon fill="#191970" stroke="#191970" points="1023.5001,-158.2448 1020,-148.2449 1016.5001,-158.2449 1023.5001,-158.2448"/>
</g>
<!-- Node21 -->
<g id="node22" class="node">
<title>Node21</title>
<polygon fill="#ffffff" stroke="#bfbfbf" points="876.5,-62 876.5,-81 983.5,-81 983.5,-62 876.5,-62"/>
<text text-anchor="middle" x="930" y="-69" font-family="Helvetica,sans-Serif" font-size="10.00" fill="#000000">AMReX_iMultiFab.H</text>
</g>
<!-- Node8&#45;&gt;Node21 -->
<g id="edge46" class="edge">
<title>Node8&#45;&gt;Node21</title>
<path fill="none" stroke="#191970" d="M996.4054,-190.435C980.6394,-182.8448 960.7143,-170.7202 949,-154 935.9319,-135.3475 931.7227,-109.0496 930.4357,-91.1953"/>
<polygon fill="#191970" stroke="#191970" points="933.9258,-90.9022 929.9535,-81.0802 926.9338,-91.2356 933.9258,-90.9022"/>
</g>
<!-- Node22 -->
<g id="node23" class="node">
<title>Node22</title>
<g id="a_node23"><a xlink:href="_scratch_field_8_h.html" target="_top" xlink:title="amr&#45;wind/core/ScratchField.H">
<polygon fill="#ffffff" stroke="#000000" points="1345,-129 1345,-148 1491,-148 1491,-129 1345,-129"/>
<text text-anchor="middle" x="1418" y="-136" font-family="Helvetica,sans-Serif" font-size="10.00" fill="#000000">amr&#45;wind/core/ScratchField.H</text>
</a>
</g>
</g>
<!-- Node8&#45;&gt;Node22 -->
<g id="edge37" class="edge">
<title>Node8&#45;&gt;Node22</title>
<path fill="none" stroke="#191970" d="M1081.7508,-190.4581C1153.3195,-179.3991 1271.0658,-161.2047 1346.5308,-149.5436"/>
<polygon fill="#191970" stroke="#191970" points="1347.0836,-152.9998 1356.4318,-148.0137 1346.0146,-146.0819 1347.0836,-152.9998"/>
</g>
<!-- Node24 -->
<g id="node25" class="node">
<title>Node24</title>
<polygon fill="#ffffff" stroke="#bfbfbf" points="1161,-129 1161,-148 1267,-148 1267,-129 1161,-129"/>
<text text-anchor="middle" x="1214" y="-136" font-family="Helvetica,sans-Serif" font-size="10.00" fill="#000000">AMReX_AmrCore.H</text>
</g>
<!-- Node8&#45;&gt;Node24 -->
<g id="edge44" class="edge">
<title>Node8&#45;&gt;Node24</title>
<path fill="none" stroke="#191970" d="M1050.3125,-190.3906C1083.6265,-179.8298 1137.2808,-162.8208 1174.0181,-151.1747"/>
<polygon fill="#191970" stroke="#191970" points="1175.4256,-154.4002 1183.9004,-148.0419 1173.3102,-147.7275 1175.4256,-154.4002"/>
</g>
<!-- Node12&#45;&gt;Node11 -->
<g id="edge16" class="edge">
<title>Node12&#45;&gt;Node11</title>
<path fill="none" stroke="#191970" d="M488.6346,-61.9622C504.4517,-59.8336 521.3131,-57.7049 537,-56 702.9792,-37.9609 897.1392,-23.6003 1008.9189,-15.984"/>
<polygon fill="#191970" stroke="#191970" points="1009.4033,-19.4593 1019.1435,-15.2906 1008.9295,-12.4754 1009.4033,-19.4593"/>
</g>
<!-- Node12&#45;&gt;Node13 -->
<g id="edge17" class="edge">
<title>Node12&#45;&gt;Node13</title>
<path fill="none" stroke="#191970" d="M466.2876,-61.9581C515.4642,-51.1181 595.7424,-33.4224 648.723,-21.7439"/>
<polygon fill="#191970" stroke="#191970" points="649.5987,-25.1349 658.6108,-19.5643 648.0918,-18.299 649.5987,-25.1349"/>
</g>
<!-- Node14 -->
<g id="node15" class="node">
<title>Node14</title>
<polygon fill="#ffffff" stroke="#bfbfbf" points="365,-.5 365,-19.5 481,-19.5 481,-.5 365,-.5"/>
<text text-anchor="middle" x="423" y="-7.5" font-family="Helvetica,sans-Serif" font-size="10.00" fill="#000000">AMReX_Interpolater.H</text>
</g>
<!-- Node12&#45;&gt;Node14 -->
<g id="edge18" class="edge">
<title>Node12&#45;&gt;Node14</title>
<path fill="none" stroke="#191970" d="M423,-61.8906C423,-53.3657 423,-40.6392 423,-29.9235"/>
<polygon fill="#191970" stroke="#191970" points="426.5001,-29.7448 423,-19.7449 419.5001,-29.7449 426.5001,-29.7448"/>
</g>
<!-- Node15&#45;&gt;Node4 -->
<g id="edge25" class="edge">
<title>Node15&#45;&gt;Node4</title>
<path fill="none" stroke="#191970" d="M710.2574,-134.5553C629.244,-128.2398 476.0576,-113.7588 348,-87 343.6286,-86.0866 339.093,-84.9799 334.604,-83.7829"/>
<polygon fill="#191970" stroke="#191970" points="335.5073,-80.4012 324.9328,-81.0581 333.6089,-87.1389 335.5073,-80.4012"/>
</g>
<!-- Node15&#45;&gt;Node5 -->
<g id="edge24" class="edge">
<title>Node15&#45;&gt;Node5</title>
<path fill="none" stroke="#191970" d="M710.4702,-135.957C614.0959,-130.9492 412.0933,-117.5265 244,-87 238.8132,-86.0581 233.4119,-84.8833 228.0834,-83.6044"/>
<polygon fill="#191970" stroke="#191970" points="228.5548,-80.1134 218.0015,-81.0508 226.836,-86.8991 228.5548,-80.1134"/>
</g>
<!-- Node15&#45;&gt;Node9 -->
<g id="edge20" class="edge">
<title>Node15&#45;&gt;Node9</title>
<path fill="none" stroke="#191970" d="M778.618,-128.8609C804.6049,-107.3204 865.3664,-57.0742 868,-56 912.5458,-37.8316 1245.2696,-17.6356 1349.1268,-11.7164"/>
<polygon fill="#191970" stroke="#191970" points="1349.4841,-15.2018 1359.2703,-11.1423 1349.0885,-8.213 1349.4841,-15.2018"/>
</g>
<!-- Node15&#45;&gt;Node10 -->
<g id="edge22" class="edge">
<title>Node15&#45;&gt;Node10</title>
<path fill="none" stroke="#191970" d="M811.7973,-128.9717C869.4406,-116.711 969.3795,-95.4542 1030.2197,-82.5136"/>
<polygon fill="#191970" stroke="#191970" points="1031.3174,-85.8585 1040.3704,-80.3545 1029.8611,-79.0116 1031.3174,-85.8585"/>
</g>
<!-- Node15&#45;&gt;Node11 -->
<g id="edge27" class="edge">
<title>Node15&#45;&gt;Node11</title>
<path fill="none" stroke="#191970" d="M762.09,-128.9808C754.1263,-112.0568 741.0015,-76.5814 759,-56 775.3311,-37.3252 913.704,-23.5591 1009.3538,-16.1675"/>
<polygon fill="#191970" stroke="#191970" points="1009.6356,-19.6563 1019.3409,-15.4068 1009.1039,-12.6765 1009.6356,-19.6563"/>
</g>
<!-- Node15&#45;&gt;Node13 -->
<g id="edge23" class="edge">
<title>Node15&#45;&gt;Node13</title>
<path fill="none" stroke="#191970" d="M757.2919,-128.6515C748.0905,-118.8332 734.4543,-102.9554 726,-87 716.2521,-68.6032 709.7314,-45.6013 705.9775,-29.5496"/>
<polygon fill="#191970" stroke="#191970" points="709.376,-28.7074 703.815,-19.6893 702.5385,-30.207 709.376,-28.7074"/>
</g>
<!-- Node16 -->
<g id="node17" class="node">
<title>Node16</title>
<polygon fill="#ffffff" stroke="#bfbfbf" points="768,-62 768,-81 820,-81 820,-62 768,-62"/>
<text text-anchor="middle" x="794" y="-69" font-family="Helvetica,sans-Serif" font-size="10.00" fill="#000000">memory</text>
</g>
<!-- Node15&#45;&gt;Node16 -->
<g id="edge21" class="edge">
<title>Node15&#45;&gt;Node16</title>
<path fill="none" stroke="#191970" d="M770.8684,-128.9005C774.8784,-118.95 781.2539,-103.1292 786.297,-90.6147"/>
<polygon fill="#191970" stroke="#191970" points="789.6472,-91.6651 790.1387,-81.0817 783.1546,-89.0486 789.6472,-91.6651"/>
</g>
<!-- Node17 -->
<g id="node18" class="node">
<title>Node17</title>
<g id="a_node18"><a xlink:href="incflo__enums_8_h.html" target="_top" xlink:title="amr&#45;wind/incflo_enums.H">
<polygon fill="#ffffff" stroke="#000000" points="546,-62 546,-81 674,-81 674,-62 546,-62"/>
<text text-anchor="middle" x="610" y="-69" font-family="Helvetica,sans-Serif" font-size="10.00" fill="#000000">amr&#45;wind/incflo_enums.H</text>
</a>
</g>
</g>
<!-- Node15&#45;&gt;Node17 -->
<g id="edge26" class="edge">
<title>Node15&#45;&gt;Node17</title>
<path fill="none" stroke="#191970" d="M744.5057,-128.9005C717.5747,-117.4077 672.2933,-98.0838 641.7936,-85.068"/>
<polygon fill="#191970" stroke="#191970" points="643.0238,-81.7876 632.4525,-81.0817 640.2763,-88.2259 643.0238,-81.7876"/>
</g>
<!-- Node18 -->
<g id="node19" class="node">
<title>Node18</title>
<g id="a_node19"><a xlink:href="_view_field_8_h.html" target="_top" xlink:title="amr&#45;wind/core/ViewField.H">
<polygon fill="#ffffff" stroke="#000000" points="1218,-62 1218,-81 1352,-81 1352,-62 1218,-62"/>
<text text-anchor="middle" x="1285" y="-69" font-family="Helvetica,sans-Serif" font-size="10.00" fill="#000000">amr&#45;wind/core/ViewField.H</text>
</a>
</g>
</g>
<!-- Node15&#45;&gt;Node18 -->
<g id="edge28" class="edge">
<title>Node15&#45;&gt;Node18</title>
<path fill="none" stroke="#191970" d="M823.9168,-131.1382C917.1351,-119.081 1102.4753,-95.1084 1207.5662,-81.5156"/>
<polygon fill="#191970" stroke="#191970" points="1208.323,-84.9469 1217.7914,-80.193 1207.425,-78.0048 1208.323,-84.9469"/>
</g>
<!-- Node18&#45;&gt;Node9 -->
<g id="edge29" class="edge">
<title>Node18&#45;&gt;Node9</title>
<path fill="none" stroke="#191970" d="M1299.8438,-61.8906C1315.0418,-52.0519 1338.8848,-36.6167 1356.6206,-25.1351"/>
<polygon fill="#191970" stroke="#191970" points="1358.768,-27.9144 1365.2605,-19.5419 1354.9639,-22.0382 1358.768,-27.9144"/>
</g>
<!-- Node18&#45;&gt;Node11 -->
<g id="edge30" class="edge">
<title>Node18&#45;&gt;Node11</title>
<path fill="none" stroke="#191970" d="M1256.25,-61.8906C1224.7883,-51.3749 1174.1992,-34.466 1139.3686,-22.8243"/>
<polygon fill="#191970" stroke="#191970" points="1140.1419,-19.3925 1129.5481,-19.5419 1137.9228,-26.0315 1140.1419,-19.3925"/>
</g>
<!-- Node18&#45;&gt;Node13 -->
<g id="edge31" class="edge">
<title>Node18&#45;&gt;Node13</title>
<path fill="none" stroke="#191970" d="M1217.7054,-62.3684C1200.8355,-60.1802 1182.7659,-57.9225 1166,-56 1022.4964,-39.5448 853.6171,-23.6805 764.4542,-15.5778"/>
<polygon fill="#191970" stroke="#191970" points="764.5199,-12.0695 754.2447,-14.6523 763.8879,-19.0409 764.5199,-12.0695"/>
</g>
<!-- Node19 -->
<g id="node20" class="node">
<title>Node19</title>
<polygon fill="#ffffff" stroke="#bfbfbf" points="1524.5,-.5 1524.5,-19.5 1619.5,-19.5 1619.5,-.5 1524.5,-.5"/>
<text text-anchor="middle" x="1572" y="-7.5" font-family="Helvetica,sans-Serif" font-size="10.00" fill="#000000">AMReX_Vector.H</text>
</g>
<!-- Node18&#45;&gt;Node19 -->
<g id="edge32" class="edge">
<title>Node18&#45;&gt;Node19</title>
<path fill="none" stroke="#191970" d="M1329.5289,-61.9581C1380.2207,-51.0956 1463.0391,-33.3488 1517.5349,-21.6711"/>
<polygon fill="#191970" stroke="#191970" points="1518.322,-25.082 1527.3667,-19.5643 1516.8553,-18.2373 1518.322,-25.082"/>
</g>
<!-- Node20&#45;&gt;Node9 -->
<g id="edge34" class="edge">
<title>Node20&#45;&gt;Node9</title>
<path fill="none" stroke="#191970" d="M1082.1662,-130.9178C1177.713,-119.0085 1350.7836,-96.317 1361,-87 1376.7645,-72.6234 1380.406,-47.4402 1380.8246,-29.7997"/>
<polygon fill="#191970" stroke="#191970" points="1384.3239,-29.6902 1380.739,-19.7203 1377.3241,-29.7497 1384.3239,-29.6902"/>
</g>
<!-- Node20&#45;&gt;Node11 -->
<g id="edge35" class="edge">
<title>Node20&#45;&gt;Node11</title>
<path fill="none" stroke="#191970" d="M1019.0132,-128.9984C1017.8055,-112.7125 1017.4629,-79.0017 1032,-56 1040.6243,-42.354 1054.9304,-31.8372 1068.2868,-24.3263"/>
<polygon fill="#191970" stroke="#191970" points="1070.0659,-27.3456 1077.3003,-19.6052 1066.8179,-21.1447 1070.0659,-27.3456"/>
</g>
<!-- Node20&#45;&gt;Node21 -->
<g id="edge36" class="edge">
<title>Node20&#45;&gt;Node21</title>
<path fill="none" stroke="#191970" d="M1007.1052,-128.9005C992.5358,-118.0544 968.5978,-100.2339 951.2546,-87.3229"/>
<polygon fill="#191970" stroke="#191970" points="952.9823,-84.2457 942.8709,-81.0817 948.8022,-89.8606 952.9823,-84.2457"/>
</g>
<!-- Node22&#45;&gt;Node9 -->
<g id="edge38" class="edge">
<title>Node22&#45;&gt;Node9</title>
<path fill="none" stroke="#191970" d="M1423.0574,-128.8944C1430.6793,-113.0244 1443.099,-80.6368 1432,-56 1426.4303,-43.6369 1415.7137,-33.2563 1405.4494,-25.5033"/>
<polygon fill="#191970" stroke="#191970" points="1407.2549,-22.4948 1397.0567,-19.623 1403.2382,-28.2277 1407.2549,-22.4948"/>
</g>
<!-- Node22&#45;&gt;Node11 -->
<g id="edge39" class="edge">
<title>Node22&#45;&gt;Node11</title>
<path fill="none" stroke="#191970" d="M1414.3679,-128.9948C1407.127,-111.4341 1389.129,-74.0558 1361,-56 1333.4911,-38.3423 1255.9366,-26.082 1192.6363,-18.6858"/>
<polygon fill="#191970" stroke="#191970" points="1192.9418,-15.198 1182.6092,-17.5404 1192.1473,-22.1528 1192.9418,-15.198"/>
</g>
<!-- Node22&#45;&gt;Node13 -->
<g id="edge41" class="edge">
<title>Node22&#45;&gt;Node13</title>
<path fill="none" stroke="#191970" d="M1370.9666,-128.965C1328.2438,-119.8207 1263.7281,-104.7996 1209,-87 1174.309,-75.7172 1168.3742,-64.9124 1133,-56 1064.8329,-38.8255 866.5994,-22.2183 764.4573,-14.4981"/>
<polygon fill="#191970" stroke="#191970" points="764.5167,-10.9928 754.2828,-13.7345 763.9928,-17.9732 764.5167,-10.9928"/>
</g>
<!-- Node22&#45;&gt;Node18 -->
<g id="edge40" class="edge">
<title>Node22&#45;&gt;Node18</title>
<path fill="none" stroke="#191970" d="M1398.9443,-128.9005C1376.5252,-117.6067 1339.0946,-98.7506 1313.2868,-85.7497"/>
<polygon fill="#191970" stroke="#191970" points="1314.5258,-82.4549 1304.0203,-81.0817 1311.3765,-88.7065 1314.5258,-82.4549"/>
</g>
<!-- Node22&#45;&gt;Node19 -->
<g id="edge42" class="edge">
<title>Node22&#45;&gt;Node19</title>
<path fill="none" stroke="#191970" d="M1491.0699,-129.4595C1542.4878,-121.422 1604.8972,-107.6981 1621,-87 1636.5796,-66.9744 1613.499,-41.8752 1594.0258,-25.8841"/>
<polygon fill="#191970" stroke="#191970" points="1596.0585,-23.0306 1586.0243,-19.6297 1591.7476,-28.5457 1596.0585,-23.0306"/>
</g>
<!-- Node23 -->
<g id="node24" class="node">
<title>Node23</title>
<polygon fill="#ffffff" stroke="#bfbfbf" points="1484,-62 1484,-81 1612,-81 1612,-62 1484,-62"/>
<text text-anchor="middle" x="1548" y="-69" font-family="Helvetica,sans-Serif" font-size="10.00" fill="#000000">AMReX_PhysBCFunct.H</text>
</g>
<!-- Node22&#45;&gt;Node23 -->
<g id="edge43" class="edge">
<title>Node22&#45;&gt;Node23</title>
<path fill="none" stroke="#191970" d="M1436.6258,-128.9005C1458.5393,-117.6067 1495.1256,-98.7506 1520.3513,-85.7497"/>
<polygon fill="#191970" stroke="#191970" points="1522.1232,-88.774 1529.4087,-81.0817 1518.9164,-82.5518 1522.1232,-88.774"/>
</g>
</g>
</svg>
        <g id="navigator" transform="translate(0 0)" fill="#404254">
                <rect fill="#f2f5e9" fill-opacity="0.5" stroke="#606060" stroke-width=".5" x="0" y="0" width="60" height="60"/>
                <use id="zoomplus" xlink:href="#zoomPlus" x="17" y="9" onmousedown="handleZoom(evt,'in')"/>
                <use id="zoomminus" xlink:href="#zoomMin" x="42" y="9" onmousedown="handleZoom(evt,'out')"/>
                <use id="reset" xlink:href="#resetDef" x="30" y="36" onmousedown="handleReset()"/>
                <g id="arrowUp" xlink:href="#dirArrow" transform="translate(30 24)" onmousedown="handlePan(0,-1)">
                  <use xlink:href="#rim" fill="#404040">
                        <set attributeName="fill" to="#808080" begin="arrowUp.mouseover" end="arrowUp.mouseout"/>
                  </use>
                  <path fill="none" stroke="white" stroke-width="1.5" d="M0,-3.0v7 M-2.5,-0.5L0,-3.0L2.5,-0.5"/>
                </g>
                <g id="arrowRight" xlink:href="#dirArrow" transform="rotate(90) translate(36 -43)" onmousedown="handlePan(1,0)">
                  <use xlink:href="#rim" fill="#404040">
                        <set attributeName="fill" to="#808080" begin="arrowRight.mouseover" end="arrowRight.mouseout"/>
                  </use>
                  <path fill="none" stroke="white" stroke-width="1.5" d="M0,-3.0v7 M-2.5,-0.5L0,-3.0L2.5,-0.5"/>
                </g>
                <g id="arrowDown" xlink:href="#dirArrow" transform="rotate(180) translate(-30 -48)" onmousedown="handlePan(0,1)">
                  <use xlink:href="#rim" fill="#404040">
                        <set attributeName="fill" to="#808080" begin="arrowDown.mouseover" end="arrowDown.mouseout"/>
                  </use>
                  <path fill="none" stroke="white" stroke-width="1.5" d="M0,-3.0v7 M-2.5,-0.5L0,-3.0L2.5,-0.5"/>
                </g>
                <g id="arrowLeft" xlink:href="#dirArrow" transform="rotate(270) translate(-36 17)" onmousedown="handlePan(-1,0)">
                  <use xlink:href="#rim" fill="#404040">
                        <set attributeName="fill" to="#808080" begin="arrowLeft.mouseover" end="arrowLeft.mouseout"/>
                  </use>
                  <path fill="none" stroke="white" stroke-width="1.5" d="M0,-3.0v7 M-2.5,-0.5L0,-3.0L2.5,-0.5"/>
                </g>
        </g>
        <svg viewBox="0 0 15 15" width="100%" height="30px" preserveAspectRatio="xMaxYMin meet">
         <g id="arrow_out" transform="scale(0.3 0.3)">
          <a xlink:href="incflo__godunov__predict_8cpp__incl_org.svg" target="_base">
           <rect id="button" ry="5" rx="5" y="6" x="6" height="38" width="38"
                fill="#f2f5e9" fill-opacity="0.5" stroke="#606060" stroke-width="1.0"/>
           <path id="arrow"
             d="M 11.500037,31.436501 C 11.940474,20.09759 22.043105,11.32322 32.158766,21.979434 L 37.068811,17.246167 C 37.068811,17.246167 37.088388,32 37.088388,32 L 22.160133,31.978069 C 22.160133,31.978069 26.997745,27.140456 26.997745,27.140456 C 18.528582,18.264221 13.291696,25.230495 11.500037,31.436501 z"
             style="fill:#404040;"/>
          </a>
         </g>
        </svg>
</svg>
