<?xml version="1.0" encoding="UTF-8" standalone="no"?>
<!DOCTYPE svg PUBLIC "-//W3C//DTD SVG 1.1//EN"
 "http://www.w3.org/Graphics/SVG/1.1/DTD/svg11.dtd">
<!-- Generated by graphviz version 2.40.1 (20161225.0304)
 -->
<!-- Title: Graphical Class Hierarchy Pages: 1 -->
<svg width="243pt" height="458pt"
 viewBox="0.00 0.00 243.00 458.00" xmlns="http://www.w3.org/2000/svg" xmlns:xlink="http://www.w3.org/1999/xlink">
<g id="graph0" class="graph" transform="scale(1 1) rotate(0) translate(4 454)">
<title>Graphical Class Hierarchy</title>
<polygon fill="#ffffff" stroke="transparent" points="-4,4 -4,-454 239,-454 239,4 -4,4"/>
<!-- Node61 -->
<g id="node1" class="node">
<title>Node61</title>
<polygon fill="#ffffff" stroke="#bfbfbf" points="0,-209.5 0,-228.5 53,-228.5 53,-209.5 0,-209.5"/>
<text text-anchor="middle" x="26.5" y="-216.5" font-family="Helvetica,sans-Serif" font-size="10.00" fill="#000000">Register</text>
</g>
<!-- Node0 -->
<g id="node2" class="node">
<title>Node0</title>
<g id="a_node2"><a xlink:href="classamr__wind_1_1_a_b_l.html" target="_top" xlink:title="Atmospheric Boundary Layer physicsThis class implements the necessary code to simulation atmospheric ...">
<polygon fill="#ffffff" stroke="#000000" points="120.5,-430.5 120.5,-449.5 203.5,-449.5 203.5,-430.5 120.5,-430.5"/>
<text text-anchor="middle" x="162" y="-437.5" font-family="Helvetica,sans-Serif" font-size="10.00" fill="#000000">amr_wind::ABL</text>
</a>
</g>
</g>
<!-- Node61&#45;&gt;Node0 -->
<g id="edge1" class="edge">
<title>Node61&#45;&gt;Node0</title>
<path fill="none" stroke="#191970" d="M30.0504,-238.5373C38.7037,-284.0746 62.1517,-395.3447 89,-421 97.5213,-429.1427 109.0736,-433.9083 120.4725,-436.6651"/>
<polygon fill="#191970" stroke="#191970" points="33.4899,-237.889 28.2181,-228.6988 26.6082,-239.1707 33.4899,-237.889"/>
</g>
<!-- Node63 -->
<g id="node3" class="node">
<title>Node63</title>
<g id="a_node3"><a xlink:href="classamr__wind_1_1_boussinesq_bubble.html" target="_top" xlink:title="Boussinesq Bubble physics. ">
<polygon fill="#ffffff" stroke="#000000" points="89,-392.5 89,-411.5 235,-411.5 235,-392.5 89,-392.5"/>
<text text-anchor="middle" x="162" y="-399.5" font-family="Helvetica,sans-Serif" font-size="10.00" fill="#000000">amr_wind::BoussinesqBubble</text>
</a>
</g>
</g>
<!-- Node61&#45;&gt;Node63 -->
<g id="edge2" class="edge">
<title>Node61&#45;&gt;Node63</title>
<path fill="none" stroke="#191970" d="M28.3112,-239.1034C32.5322,-273.7403 46.1868,-344.6349 89,-383 93.2913,-386.8454 98.264,-389.9303 103.557,-392.4024"/>
<polygon fill="#191970" stroke="#191970" points="31.7578,-238.4168 27.2129,-228.8463 24.7976,-239.1621 31.7578,-238.4168"/>
</g>
<!-- Node64 -->
<g id="node4" class="node">
<title>Node64</title>
<g id="a_node4"><a xlink:href="classamr__wind_1_1ctv_1_1_convecting_taylor_vortex.html" target="_top" xlink:title="Convecting Taylor Vortex physics. ">
<polygon fill="#ffffff" stroke="#000000" points="95,-343 95,-373 229,-373 229,-343 95,-343"/>
<text text-anchor="start" x="103" y="-361" font-family="Helvetica,sans-Serif" font-size="10.00" fill="#000000">amr_wind::ctv::Convecting</text>
<text text-anchor="middle" x="162" y="-350" font-family="Helvetica,sans-Serif" font-size="10.00" fill="#000000">TaylorVortex</text>
</a>
</g>
</g>
<!-- Node61&#45;&gt;Node64 -->
<g id="edge3" class="edge">
<title>Node61&#45;&gt;Node64</title>
<path fill="none" stroke="#191970" d="M32.2353,-238.3774C40.67,-263.6324 58.7798,-307.5653 89,-333 93.6122,-336.8818 98.8585,-340.1714 104.3735,-342.957"/>
<polygon fill="#191970" stroke="#191970" points="35.5603,-237.2834 29.2057,-228.8058 28.8866,-239.3958 35.5603,-237.2834"/>
</g>
<!-- Node65 -->
<g id="node5" class="node">
<title>Node65</title>
<g id="a_node5"><a xlink:href="classamr__wind_1_1_dam_break.html" target="_top" xlink:title="amr_wind::DamBreak">
<polygon fill="#ffffff" stroke="#000000" points="106.5,-304.5 106.5,-323.5 217.5,-323.5 217.5,-304.5 106.5,-304.5"/>
<text text-anchor="middle" x="162" y="-311.5" font-family="Helvetica,sans-Serif" font-size="10.00" fill="#000000">amr_wind::DamBreak</text>
</a>
</g>
</g>
<!-- Node61&#45;&gt;Node65 -->
<g id="edge4" class="edge">
<title>Node61&#45;&gt;Node65</title>
<path fill="none" stroke="#191970" d="M36.8376,-237.2894C47.6327,-254.7207 66.1656,-280.4091 89,-295 95.0694,-298.8783 101.9004,-301.9671 108.8856,-304.4267"/>
<polygon fill="#191970" stroke="#191970" points="39.7771,-235.3848 31.6583,-228.5778 33.7602,-238.9621 39.7771,-235.3848"/>
</g>
<!-- Node66 -->
<g id="node6" class="node">
<title>Node66</title>
<g id="a_node6"><a xlink:href="classamr__wind_1_1_ekman_spiral.html" target="_top" xlink:title="Ekman Spiral physics. ">
<polygon fill="#ffffff" stroke="#000000" points="102,-266.5 102,-285.5 222,-285.5 222,-266.5 102,-266.5"/>
<text text-anchor="middle" x="162" y="-273.5" font-family="Helvetica,sans-Serif" font-size="10.00" fill="#000000">amr_wind::EkmanSpiral</text>
</a>
</g>
</g>
<!-- Node61&#45;&gt;Node66 -->
<g id="edge5" class="edge">
<title>Node61&#45;&gt;Node66</title>
<path fill="none" stroke="#191970" d="M48.3578,-234.4622C59.9879,-242.1178 74.7897,-250.9844 89,-257 97.8036,-260.7268 107.5224,-263.8731 116.9185,-266.467"/>
<polygon fill="#191970" stroke="#191970" points="50.0261,-231.3651 39.7825,-228.6597 46.1032,-237.1626 50.0261,-231.3651"/>
</g>
<!-- Node67 -->
<g id="node7" class="node">
<title>Node67</title>
<g id="a_node7"><a xlink:href="classamr__wind_1_1_free_stream.html" target="_top" xlink:title="Freestream physicsInitializes the velocity, and density field to user&#45;defined constant values through...">
<polygon fill="#ffffff" stroke="#000000" points="104,-228.5 104,-247.5 220,-247.5 220,-228.5 104,-228.5"/>
<text text-anchor="middle" x="162" y="-235.5" font-family="Helvetica,sans-Serif" font-size="10.00" fill="#000000">amr_wind::FreeStream</text>
</a>
</g>
</g>
<!-- Node61&#45;&gt;Node67 -->
<g id="edge6" class="edge">
<title>Node61&#45;&gt;Node67</title>
<path fill="none" stroke="#191970" d="M63.3105,-224.1616C75.8263,-225.9166 90.1362,-227.9232 103.9031,-229.8536"/>
<polygon fill="#191970" stroke="#191970" points="63.6596,-220.6764 53.2704,-222.7538 62.6875,-227.6086 63.6596,-220.6764"/>
</g>
<!-- Node68 -->
<g id="node8" class="node">
<title>Node68</title>
<g id="a_node8"><a xlink:href="classamr__wind_1_1mms_1_1_m_m_s.html" target="_top" xlink:title="Method of manufactured solutions physics. ">
<polygon fill="#ffffff" stroke="#000000" points="104,-190.5 104,-209.5 220,-209.5 220,-190.5 104,-190.5"/>
<text text-anchor="middle" x="162" y="-197.5" font-family="Helvetica,sans-Serif" font-size="10.00" fill="#000000">amr_wind::mms::MMS</text>
</a>
</g>
</g>
<!-- Node61&#45;&gt;Node68 -->
<g id="edge7" class="edge">
<title>Node61&#45;&gt;Node68</title>
<path fill="none" stroke="#191970" d="M63.3105,-213.8384C75.8263,-212.0834 90.1362,-210.0768 103.9031,-208.1464"/>
<polygon fill="#191970" stroke="#191970" points="62.6875,-210.3914 53.2704,-215.2462 63.6596,-217.3236 62.6875,-210.3914"/>
</g>
<!-- Node69 -->
<g id="node9" class="node">
<title>Node69</title>
<g id="a_node9"><a xlink:href="classamr__wind_1_1_multi_phase.html" target="_top" xlink:title="amr_wind::MultiPhase">
<polygon fill="#ffffff" stroke="#000000" points="105.5,-152.5 105.5,-171.5 218.5,-171.5 218.5,-152.5 105.5,-152.5"/>
<text text-anchor="middle" x="162" y="-159.5" font-family="Helvetica,sans-Serif" font-size="10.00" fill="#000000">amr_wind::MultiPhase</text>
</a>
</g>
</g>
<!-- Node61&#45;&gt;Node69 -->
<g id="edge8" class="edge">
<title>Node61&#45;&gt;Node69</title>
<path fill="none" stroke="#191970" d="M48.3578,-203.5378C59.9879,-195.8822 74.7897,-187.0156 89,-181 97.8036,-177.2732 107.5224,-174.1269 116.9185,-171.533"/>
<polygon fill="#191970" stroke="#191970" points="46.1032,-200.8374 39.7825,-209.3403 50.0261,-206.6349 46.1032,-200.8374"/>
</g>
<!-- Node70 -->
<g id="node10" class="node">
<title>Node70</title>
<g id="a_node10"><a xlink:href="classamr__wind_1_1_rayleigh_taylor.html" target="_top" xlink:title="Rayleigh Taylor physics. ">
<polygon fill="#ffffff" stroke="#000000" points="97,-114.5 97,-133.5 227,-133.5 227,-114.5 97,-114.5"/>
<text text-anchor="middle" x="162" y="-121.5" font-family="Helvetica,sans-Serif" font-size="10.00" fill="#000000">amr_wind::RayleighTaylor</text>
</a>
</g>
</g>
<!-- Node61&#45;&gt;Node70 -->
<g id="edge9" class="edge">
<title>Node61&#45;&gt;Node70</title>
<path fill="none" stroke="#191970" d="M36.8376,-200.7106C47.6327,-183.2793 66.1656,-157.5909 89,-143 95.0694,-139.1217 101.9004,-136.0329 108.8856,-133.5733"/>
<polygon fill="#191970" stroke="#191970" points="33.7602,-199.0379 31.6583,-209.4222 39.7771,-202.6152 33.7602,-199.0379"/>
</g>
<!-- Node71 -->
<g id="node11" class="node">
<title>Node71</title>
<g id="a_node11"><a xlink:href="classamr__wind_1_1_taylor_green_vortex.html" target="_top" xlink:title="Taylor Green Vortex physics. ">
<polygon fill="#ffffff" stroke="#000000" points="89,-76.5 89,-95.5 235,-95.5 235,-76.5 89,-76.5"/>
<text text-anchor="middle" x="162" y="-83.5" font-family="Helvetica,sans-Serif" font-size="10.00" fill="#000000">amr_wind::TaylorGreenVortex</text>
</a>
</g>
</g>
<!-- Node61&#45;&gt;Node71 -->
<g id="edge10" class="edge">
<title>Node61&#45;&gt;Node71</title>
<path fill="none" stroke="#191970" d="M31.833,-199.6586C39.9002,-174.0803 57.6878,-129.4002 89,-105 93.9583,-101.1362 99.6237,-98.0534 105.5566,-95.5945"/>
<polygon fill="#191970" stroke="#191970" points="28.4507,-198.7539 28.9597,-209.3365 35.1612,-200.7463 28.4507,-198.7539"/>
</g>
<!-- Node72 -->
<g id="node12" class="node">
<title>Node72</title>
<g id="a_node12"><a xlink:href="classamr__wind_1_1_vortex_patch.html" target="_top" xlink:title="amr_wind::VortexPatch">
<polygon fill="#ffffff" stroke="#000000" points="102.5,-38.5 102.5,-57.5 221.5,-57.5 221.5,-38.5 102.5,-38.5"/>
<text text-anchor="middle" x="162" y="-45.5" font-family="Helvetica,sans-Serif" font-size="10.00" fill="#000000">amr_wind::VortexPatch</text>
</a>
</g>
</g>
<!-- Node61&#45;&gt;Node72 -->
<g id="edge11" class="edge">
<title>Node61&#45;&gt;Node72</title>
<path fill="none" stroke="#191970" d="M28.9169,-199.4502C33.9898,-166.9896 48.8135,-102.0799 89,-67 93.4396,-63.1246 98.574,-60.0245 104.0218,-57.547"/>
<polygon fill="#191970" stroke="#191970" points="25.4338,-199.0859 27.5037,-209.4765 32.3652,-200.063 25.4338,-199.0859"/>
</g>
<!-- Node73 -->
<g id="node13" class="node">
<title>Node73</title>
<g id="a_node13"><a xlink:href="classamr__wind_1_1_zalesak_disk.html" target="_top" xlink:title="amr_wind::ZalesakDisk">
<polygon fill="#ffffff" stroke="#000000" points="102.5,-.5 102.5,-19.5 221.5,-19.5 221.5,-.5 102.5,-.5"/>
<text text-anchor="middle" x="162" y="-7.5" font-family="Helvetica,sans-Serif" font-size="10.00" fill="#000000">amr_wind::ZalesakDisk</text>
</a>
</g>
</g>
<!-- Node61&#45;&gt;Node73 -->
<g id="edge12" class="edge">
<title>Node61&#45;&gt;Node73</title>
<path fill="none" stroke="#191970" d="M30.4543,-199.4691C39.6469,-155.9223 63.6138,-52.8311 89,-29 93.1056,-25.1459 97.8916,-22.0504 103.0136,-19.5675"/>
<polygon fill="#191970" stroke="#191970" points="26.9992,-198.894 28.3984,-209.396 33.8537,-200.3137 26.9992,-198.894"/>
</g>
</g>
</svg>
