<?xml version="1.0" encoding="UTF-8" standalone="no"?>
<!DOCTYPE svg PUBLIC "-//W3C//DTD SVG 1.1//EN"
 "http://www.w3.org/Graphics/SVG/1.1/DTD/svg11.dtd">
<!-- Generated by graphviz version 2.40.1 (20161225.0304)
 -->
<!-- Title: io_utils.H Pages: 1 -->
<svg width="530pt" height="84pt"
 viewBox="0.00 0.00 529.50 84.00" xmlns="http://www.w3.org/2000/svg" xmlns:xlink="http://www.w3.org/1999/xlink">
<g id="graph0" class="graph" transform="scale(1 1) rotate(0) translate(4 80)">
<title>io_utils.H</title>
<polygon fill="#ffffff" stroke="transparent" points="-4,4 -4,-80 525.5,-80 525.5,4 -4,4"/>
<!-- Node6 -->
<g id="node1" class="node">
<title>Node6</title>
<polygon fill="#bfbfbf" stroke="#000000" points="261,-56.5 261,-75.5 319,-75.5 319,-56.5 261,-56.5"/>
<text text-anchor="middle" x="290" y="-63.5" font-family="Helvetica,sans-Serif" font-size="10.00" fill="#000000">io_utils.H</text>
</g>
<!-- Node7 -->
<g id="node2" class="node">
<title>Node7</title>
<g id="a_node2"><a xlink:href="_derived_qty_defs_8cpp.html" target="_top" xlink:title="DerivedQtyDefs.cpp">
<polygon fill="#ffffff" stroke="#000000" points="0,-.5 0,-19.5 106,-19.5 106,-.5 0,-.5"/>
<text text-anchor="middle" x="53" y="-7.5" font-family="Helvetica,sans-Serif" font-size="10.00" fill="#000000">DerivedQtyDefs.cpp</text>
</a>
</g>
</g>
<!-- Node6&#45;&gt;Node7 -->
<g id="edge1" class="edge">
<title>Node6&#45;&gt;Node7</title>
<path fill="none" stroke="#191970" d="M251.016,-56.7886C207.516,-46.5101 137.4734,-29.96 93.4052,-19.5472"/>
<polygon fill="#191970" stroke="#191970" points="250.4023,-60.2399 260.9391,-59.1333 252.012,-53.4275 250.4023,-60.2399"/>
</g>
<!-- Node8 -->
<g id="node3" class="node">
<title>Node8</title>
<g id="a_node3"><a xlink:href="_derived_quantity_8cpp.html" target="_top" xlink:title="DerivedQuantity.cpp">
<polygon fill="#ffffff" stroke="#000000" points="124,-.5 124,-19.5 230,-19.5 230,-.5 124,-.5"/>
<text text-anchor="middle" x="177" y="-7.5" font-family="Helvetica,sans-Serif" font-size="10.00" fill="#000000">DerivedQuantity.cpp</text>
</a>
</g>
</g>
<!-- Node6&#45;&gt;Node8 -->
<g id="edge2" class="edge">
<title>Node6&#45;&gt;Node8</title>
<path fill="none" stroke="#191970" d="M261.4208,-51.8368C240.9942,-41.7139 214.0638,-28.3679 196.1719,-19.5011"/>
<polygon fill="#191970" stroke="#191970" points="260.0604,-55.0688 270.5746,-56.3733 263.1687,-48.7968 260.0604,-55.0688"/>
</g>
<!-- Node9 -->
<g id="node4" class="node">
<title>Node9</title>
<g id="a_node4"><a xlink:href="_i_o_manager_8cpp.html" target="_top" xlink:title="IOManager.cpp">
<polygon fill="#ffffff" stroke="#000000" points="248.5,-.5 248.5,-19.5 331.5,-19.5 331.5,-.5 248.5,-.5"/>
<text text-anchor="middle" x="290" y="-7.5" font-family="Helvetica,sans-Serif" font-size="10.00" fill="#000000">IOManager.cpp</text>
</a>
</g>
</g>
<!-- Node6&#45;&gt;Node9 -->
<g id="edge3" class="edge">
<title>Node6&#45;&gt;Node9</title>
<path fill="none" stroke="#191970" d="M290,-46.1575C290,-37.155 290,-26.9199 290,-19.6427"/>
<polygon fill="#191970" stroke="#191970" points="286.5001,-46.2455 290,-56.2455 293.5001,-46.2456 286.5001,-46.2455"/>
</g>
<!-- Node10 -->
<g id="node5" class="node">
<title>Node10</title>
<g id="a_node5"><a xlink:href="_sampling_8cpp.html" target="_top" xlink:title="Sampling.cpp">
<polygon fill="#ffffff" stroke="#000000" points="350,-.5 350,-19.5 426,-19.5 426,-.5 350,-.5"/>
<text text-anchor="middle" x="388" y="-7.5" font-family="Helvetica,sans-Serif" font-size="10.00" fill="#000000">Sampling.cpp</text>
</a>
</g>
</g>
<!-- Node6&#45;&gt;Node10 -->
<g id="edge4" class="edge">
<title>Node6&#45;&gt;Node10</title>
<path fill="none" stroke="#191970" d="M316.1686,-51.0465C333.6058,-41.0824 356.0111,-28.2794 371.1253,-19.6427"/>
<polygon fill="#191970" stroke="#191970" points="314.0162,-48.2453 307.0703,-56.2455 317.4892,-54.323 314.0162,-48.2453"/>
</g>
<!-- Node11 -->
<g id="node6" class="node">
<title>Node11</title>
<g id="a_node6"><a xlink:href="_a_b_l_stats_8cpp.html" target="_top" xlink:title="ABLStats.cpp">
<polygon fill="#ffffff" stroke="#000000" points="444.5,-.5 444.5,-19.5 521.5,-19.5 521.5,-.5 444.5,-.5"/>
<text text-anchor="middle" x="483" y="-7.5" font-family="Helvetica,sans-Serif" font-size="10.00" fill="#000000">ABLStats.cpp</text>
</a>
</g>
</g>
<!-- Node6&#45;&gt;Node11 -->
<g id="edge5" class="edge">
<title>Node6&#45;&gt;Node11</title>
<path fill="none" stroke="#191970" d="M329.3464,-54.5834C364.9424,-44.2551 416.7582,-29.2204 450.1748,-19.5244"/>
<polygon fill="#191970" stroke="#191970" points="327.9411,-51.3468 319.3125,-57.4948 329.8918,-58.0695 327.9411,-51.3468"/>
</g>
</g>
</svg>
