<?xml version="1.0" encoding="UTF-8" standalone="no"?>
<!DOCTYPE svg PUBLIC "-//W3C//DTD SVG 1.1//EN"
 "http://www.w3.org/Graphics/SVG/1.1/DTD/svg11.dtd">
<!-- Generated by graphviz version 2.40.1 (20161225.0304)
 -->
<!-- Title: levelset.H Pages: 1 -->
<svg width="2930pt" height="486pt"
 viewBox="0.00 0.00 2930.10 486.00" xmlns="http://www.w3.org/2000/svg" xmlns:xlink="http://www.w3.org/1999/xlink">
<g id="graph0" class="graph" transform="scale(1 1) rotate(0) translate(4 482)">
<title>levelset.H</title>
<polygon fill="#ffffff" stroke="transparent" points="-4,4 -4,-482 2926.0997,-482 2926.0997,4 -4,4"/>
<!-- Node0 -->
<g id="node1" class="node">
<title>Node0</title>
<polygon fill="#bfbfbf" stroke="#000000" points="730.5997,-458.5 730.5997,-477.5 791.5997,-477.5 791.5997,-458.5 730.5997,-458.5"/>
<text text-anchor="middle" x="761.0997" y="-465.5" font-family="Helvetica,sans-Serif" font-size="10.00" fill="#000000">levelset.H</text>
</g>
<!-- Node1 -->
<g id="node2" class="node">
<title>Node1</title>
<g id="a_node2"><a xlink:href="_p_d_e_traits_8_h.html" target="_top" xlink:title="amr&#45;wind/equation_systems\l/PDETraits.H">
<polygon fill="#ffffff" stroke="#000000" points="534.5997,-257.5 534.5997,-287.5 673.5997,-287.5 673.5997,-257.5 534.5997,-257.5"/>
<text text-anchor="start" x="542.5997" y="-275.5" font-family="Helvetica,sans-Serif" font-size="10.00" fill="#000000">amr&#45;wind/equation_systems</text>
<text text-anchor="middle" x="604.0997" y="-264.5" font-family="Helvetica,sans-Serif" font-size="10.00" fill="#000000">/PDETraits.H</text>
</a>
</g>
</g>
<!-- Node0&#45;&gt;Node1 -->
<g id="edge1" class="edge">
<title>Node0&#45;&gt;Node1</title>
<path fill="none" stroke="#191970" d="M743.3301,-458.3888C729.1039,-450.0829 709.2569,-437.0618 695.0997,-422 659.0458,-383.6424 630.1133,-328.7312 615.176,-297.2398"/>
<polygon fill="#191970" stroke="#191970" points="618.2176,-295.4801 610.8267,-287.889 611.8706,-298.4322 618.2176,-295.4801"/>
</g>
<!-- Node27 -->
<g id="node23" class="node">
<title>Node27</title>
<g id="a_node23"><a xlink:href="_scheme_traits_8_h.html" target="_top" xlink:title="amr&#45;wind/equation_systems\l/SchemeTraits.H">
<polygon fill="#ffffff" stroke="#000000" points="691.5997,-257.5 691.5997,-287.5 830.5997,-287.5 830.5997,-257.5 691.5997,-257.5"/>
<text text-anchor="start" x="699.5997" y="-275.5" font-family="Helvetica,sans-Serif" font-size="10.00" fill="#000000">amr&#45;wind/equation_systems</text>
<text text-anchor="middle" x="761.0997" y="-264.5" font-family="Helvetica,sans-Serif" font-size="10.00" fill="#000000">/SchemeTraits.H</text>
</a>
</g>
</g>
<!-- Node0&#45;&gt;Node27 -->
<g id="edge40" class="edge">
<title>Node0&#45;&gt;Node27</title>
<path fill="none" stroke="#191970" d="M751.0628,-458.2787C733.0488,-440.0471 695.8318,-398.6085 682.0997,-355 677.9614,-341.8584 675.5361,-336.1139 682.0997,-324 689.2606,-310.7836 701.4465,-300.4229 714.1319,-292.5696"/>
<polygon fill="#191970" stroke="#191970" points="715.9981,-295.5343 722.9382,-287.529 712.5207,-289.4591 715.9981,-295.5343"/>
</g>
<!-- Node28 -->
<g id="node24" class="node">
<title>Node28</title>
<g id="a_node24"><a xlink:href="_p_d_e_helpers_8_h.html" target="_top" xlink:title="amr&#45;wind/equation_systems\l/PDEHelpers.H">
<polygon fill="#ffffff" stroke="#000000" points="1659.5997,-190.5 1659.5997,-220.5 1798.5997,-220.5 1798.5997,-190.5 1659.5997,-190.5"/>
<text text-anchor="start" x="1667.5997" y="-208.5" font-family="Helvetica,sans-Serif" font-size="10.00" fill="#000000">amr&#45;wind/equation_systems</text>
<text text-anchor="middle" x="1729.0997" y="-197.5" font-family="Helvetica,sans-Serif" font-size="10.00" fill="#000000">/PDEHelpers.H</text>
</a>
</g>
</g>
<!-- Node0&#45;&gt;Node28 -->
<g id="edge42" class="edge">
<title>Node0&#45;&gt;Node28</title>
<path fill="none" stroke="#191970" d="M791.9831,-466.9345C907.8548,-461.8634 1325.5247,-433.87 1628.0997,-288 1659.1099,-273.0501 1688.9134,-246.7552 1708.004,-227.866"/>
<polygon fill="#191970" stroke="#191970" points="1710.7167,-230.1005 1715.2599,-220.5292 1705.7395,-225.1783 1710.7167,-230.1005"/>
</g>
<!-- Node40 -->
<g id="node36" class="node">
<title>Node40</title>
<g id="a_node36"><a xlink:href="_p_d_e_8_h.html" target="_top" xlink:title="amr&#45;wind/equation_systems\l/PDE.H">
<polygon fill="#ffffff" stroke="#000000" points="789.5997,-391.5 789.5997,-421.5 928.5997,-421.5 928.5997,-391.5 789.5997,-391.5"/>
<text text-anchor="start" x="797.5997" y="-409.5" font-family="Helvetica,sans-Serif" font-size="10.00" fill="#000000">amr&#45;wind/equation_systems</text>
<text text-anchor="middle" x="859.0997" y="-398.5" font-family="Helvetica,sans-Serif" font-size="10.00" fill="#000000">/PDE.H</text>
</a>
</g>
</g>
<!-- Node0&#45;&gt;Node40 -->
<g id="edge68" class="edge">
<title>Node0&#45;&gt;Node40</title>
<path fill="none" stroke="#191970" d="M776.4122,-458.3906C789.7981,-449.9903 809.685,-437.5103 826.6011,-426.8945"/>
<polygon fill="#191970" stroke="#191970" points="828.5163,-429.8248 835.1262,-421.5446 824.7955,-423.8956 828.5163,-429.8248"/>
</g>
<!-- Node2 -->
<g id="node3" class="node">
<title>Node2</title>
<polygon fill="#ffffff" stroke="#bfbfbf" points="805.5997,-.5 805.5997,-19.5 846.5997,-19.5 846.5997,-.5 805.5997,-.5"/>
<text text-anchor="middle" x="826.0997" y="-7.5" font-family="Helvetica,sans-Serif" font-size="10.00" fill="#000000">string</text>
</g>
<!-- Node1&#45;&gt;Node2 -->
<g id="edge2" class="edge">
<title>Node1&#45;&gt;Node2</title>
<path fill="none" stroke="#191970" d="M602.1068,-257.0866C599.1854,-227.7271 597.0682,-163.1374 628.0997,-123 652.4445,-91.5115 675.1673,-106.0768 710.0997,-87 744.7474,-68.0786 782.3993,-41.9604 805.1205,-25.5291"/>
<polygon fill="#191970" stroke="#191970" points="807.3197,-28.2572 813.3375,-19.5372 803.1954,-22.6012 807.3197,-28.2572"/>
</g>
<!-- Node3 -->
<g id="node4" class="node">
<title>Node3</title>
<polygon fill="#ffffff" stroke="#bfbfbf" points="419.5997,-196 419.5997,-215 542.5997,-215 542.5997,-196 419.5997,-196"/>
<text text-anchor="middle" x="481.0997" y="-203" font-family="Helvetica,sans-Serif" font-size="10.00" fill="#000000">AMReX_MLTensorOp.H</text>
</g>
<!-- Node1&#45;&gt;Node3 -->
<g id="edge3" class="edge">
<title>Node1&#45;&gt;Node3</title>
<path fill="none" stroke="#191970" d="M576.4961,-257.4639C555.9512,-246.2728 528.067,-231.0838 507.7532,-220.0186"/>
<polygon fill="#191970" stroke="#191970" points="509.1867,-216.8139 498.7307,-215.1039 505.8382,-222.9611 509.1867,-216.8139"/>
</g>
<!-- Node4 -->
<g id="node5" class="node">
<title>Node4</title>
<g id="a_node5"><a xlink:href="_source_term_8_h.html" target="_top" xlink:title="amr&#45;wind/equation_systems\l/SourceTerm.H">
<polygon fill="#ffffff" stroke="#000000" points="1455.5997,-190.5 1455.5997,-220.5 1594.5997,-220.5 1594.5997,-190.5 1455.5997,-190.5"/>
<text text-anchor="start" x="1463.5997" y="-208.5" font-family="Helvetica,sans-Serif" font-size="10.00" fill="#000000">amr&#45;wind/equation_systems</text>
<text text-anchor="middle" x="1525.0997" y="-197.5" font-family="Helvetica,sans-Serif" font-size="10.00" fill="#000000">/SourceTerm.H</text>
</a>
</g>
</g>
<!-- Node1&#45;&gt;Node4 -->
<g id="edge4" class="edge">
<title>Node1&#45;&gt;Node4</title>
<path fill="none" stroke="#191970" d="M673.7639,-258.1718C676.5745,-257.7475 679.3612,-257.3541 682.0997,-257 828.224,-238.1058 1264.4655,-217.1376 1445.2518,-208.9965"/>
<polygon fill="#191970" stroke="#191970" points="1445.6547,-212.482 1455.4876,-208.537 1445.3407,-205.4891 1445.6547,-212.482"/>
</g>
<!-- Node5 -->
<g id="node6" class="node">
<title>Node5</title>
<g id="a_node6"><a xlink:href="_factory_8_h.html" target="_top" xlink:title="amr&#45;wind/core/Factory.H">
<polygon fill="#ffffff" stroke="#ff0000" points="211.5997,-62 211.5997,-81 336.5997,-81 336.5997,-62 211.5997,-62"/>
<text text-anchor="middle" x="274.0997" y="-69" font-family="Helvetica,sans-Serif" font-size="10.00" fill="#000000">amr&#45;wind/core/Factory.H</text>
</a>
</g>
</g>
<!-- Node4&#45;&gt;Node5 -->
<g id="edge5" class="edge">
<title>Node4&#45;&gt;Node5</title>
<path fill="none" stroke="#191970" d="M1455.338,-203.0454C1273.3958,-196.3953 787.5073,-176.9776 628.0997,-154 513.9704,-137.549 382.4142,-102.5516 316.4536,-83.8646"/>
<polygon fill="#191970" stroke="#191970" points="317.0196,-80.3866 306.4432,-81.0108 315.1005,-87.1184 317.0196,-80.3866"/>
</g>
<!-- Node11 -->
<g id="node11" class="node">
<title>Node11</title>
<g id="a_node11"><a xlink:href="_field_desc_types_8_h.html" target="_top" xlink:title="amr&#45;wind/core/FieldDescTypes.H">
<polygon fill="#ffffff" stroke="#000000" points="1354.5997,-.5 1354.5997,-19.5 1517.5997,-19.5 1517.5997,-.5 1354.5997,-.5"/>
<text text-anchor="middle" x="1436.0997" y="-7.5" font-family="Helvetica,sans-Serif" font-size="10.00" fill="#000000">amr&#45;wind/core/FieldDescTypes.H</text>
</a>
</g>
</g>
<!-- Node4&#45;&gt;Node11 -->
<g id="edge10" class="edge">
<title>Node4&#45;&gt;Node11</title>
<path fill="none" stroke="#191970" d="M1567.5569,-190.4829C1632.2031,-165.3671 1743.1029,-112.0491 1696.0997,-56 1685.098,-42.881 1598.3835,-29.4073 1528.0758,-20.4612"/>
<polygon fill="#191970" stroke="#191970" points="1528.1907,-16.9482 1517.8325,-19.1747 1527.3184,-23.8936 1528.1907,-16.9482"/>
</g>
<!-- Node12 -->
<g id="node12" class="node">
<title>Node12</title>
<g id="a_node12"><a xlink:href="_field_utils_8_h.html" target="_top" xlink:title="amr&#45;wind/core/FieldUtils.H">
<polygon fill="#ffffff" stroke="#ff0000" points="1781.5997,-62 1781.5997,-81 1914.5997,-81 1914.5997,-62 1781.5997,-62"/>
<text text-anchor="middle" x="1848.0997" y="-69" font-family="Helvetica,sans-Serif" font-size="10.00" fill="#000000">amr&#45;wind/core/FieldUtils.H</text>
</a>
</g>
</g>
<!-- Node4&#45;&gt;Node12 -->
<g id="edge11" class="edge">
<title>Node4&#45;&gt;Node12</title>
<path fill="none" stroke="#191970" d="M1594.6985,-192.8096C1660.7047,-180.4322 1751.9916,-162.2953 1767.0997,-154 1796.1109,-138.0709 1821.3534,-108.4361 1835.6466,-89.3593"/>
<polygon fill="#191970" stroke="#191970" points="1838.5384,-91.3337 1841.5851,-81.1864 1832.8754,-87.2189 1838.5384,-91.3337"/>
</g>
<!-- Node13 -->
<g id="node13" class="node">
<title>Node13</title>
<polygon fill="#ffffff" stroke="#bfbfbf" points="1663.0997,-.5 1663.0997,-19.5 1767.0997,-19.5 1767.0997,-.5 1663.0997,-.5"/>
<text text-anchor="middle" x="1715.0997" y="-7.5" font-family="Helvetica,sans-Serif" font-size="10.00" fill="#000000">AMReX_MultiFab.H</text>
</g>
<!-- Node4&#45;&gt;Node13 -->
<g id="edge39" class="edge">
<title>Node4&#45;&gt;Node13</title>
<path fill="none" stroke="#191970" d="M1594.81,-194.7434C1730.7561,-173.0568 2020.472,-123.0821 2048.0997,-87 2056.4758,-76.0607 2057.151,-66.3876 2048.0997,-56 2030.6099,-35.9282 1868.8771,-21.0998 1777.4094,-14.2373"/>
<polygon fill="#191970" stroke="#191970" points="1777.3903,-10.7264 1767.1594,-13.4795 1776.8741,-17.7074 1777.3903,-10.7264"/>
</g>
<!-- Node15 -->
<g id="node14" class="node">
<title>Node15</title>
<g id="a_node14"><a xlink:href="_field_repo_8_h.html" target="_top" xlink:title="amr&#45;wind/core/FieldRepo.H">
<polygon fill="#ffffff" stroke="#000000" points="1355.0997,-129 1355.0997,-148 1491.0997,-148 1491.0997,-129 1355.0997,-129"/>
<text text-anchor="middle" x="1423.0997" y="-136" font-family="Helvetica,sans-Serif" font-size="10.00" fill="#000000">amr&#45;wind/core/FieldRepo.H</text>
</a>
</g>
</g>
<!-- Node4&#45;&gt;Node15 -->
<g id="edge14" class="edge">
<title>Node4&#45;&gt;Node15</title>
<path fill="none" stroke="#191970" d="M1502.2089,-190.4639C1485.5571,-179.526 1463.0913,-164.769 1446.3555,-153.7759"/>
<polygon fill="#191970" stroke="#191970" points="1448.0003,-150.6688 1437.7206,-148.1039 1444.1571,-156.5195 1448.0003,-150.6688"/>
</g>
<!-- Node6 -->
<g id="node7" class="node">
<title>Node6</title>
<polygon fill="#ffffff" stroke="#bfbfbf" points="430.0997,-.5 430.0997,-19.5 482.0997,-19.5 482.0997,-.5 430.0997,-.5"/>
<text text-anchor="middle" x="456.0997" y="-7.5" font-family="Helvetica,sans-Serif" font-size="10.00" fill="#000000">memory</text>
</g>
<!-- Node5&#45;&gt;Node6 -->
<g id="edge6" class="edge">
<title>Node5&#45;&gt;Node6</title>
<path fill="none" stroke="#191970" d="M302.5372,-61.8906C334.2939,-51.1597 385.7524,-33.7712 420.2437,-22.1161"/>
<polygon fill="#191970" stroke="#191970" points="421.5734,-25.3613 429.9267,-18.8442 419.3324,-18.7297 421.5734,-25.3613"/>
</g>
<!-- Node7 -->
<g id="node8" class="node">
<title>Node7</title>
<polygon fill="#ffffff" stroke="#bfbfbf" points="503.5997,-.5 503.5997,-19.5 586.5997,-19.5 586.5997,-.5 503.5997,-.5"/>
<text text-anchor="middle" x="545.0997" y="-7.5" font-family="Helvetica,sans-Serif" font-size="10.00" fill="#000000">unordered_map</text>
</g>
<!-- Node5&#45;&gt;Node7 -->
<g id="edge7" class="edge">
<title>Node5&#45;&gt;Node7</title>
<path fill="none" stroke="#191970" d="M316.1461,-61.9581C363.9527,-51.109 442.0197,-33.3927 493.4797,-21.7145"/>
<polygon fill="#191970" stroke="#191970" points="494.4227,-25.0896 503.4001,-19.4632 492.8735,-18.2631 494.4227,-25.0896"/>
</g>
<!-- Node8 -->
<g id="node9" class="node">
<title>Node8</title>
<polygon fill="#ffffff" stroke="#bfbfbf" points="250.0997,-.5 250.0997,-19.5 304.0997,-19.5 304.0997,-.5 250.0997,-.5"/>
<text text-anchor="middle" x="277.0997" y="-7.5" font-family="Helvetica,sans-Serif" font-size="10.00" fill="#000000">iostream</text>
</g>
<!-- Node5&#45;&gt;Node8 -->
<g id="edge8" class="edge">
<title>Node5&#45;&gt;Node8</title>
<path fill="none" stroke="#191970" d="M274.5684,-61.8906C274.9843,-53.3657 275.6051,-40.6392 276.1278,-29.9235"/>
<polygon fill="#191970" stroke="#191970" points="279.6328,-29.9035 276.6243,-19.7449 272.6411,-29.5624 279.6328,-29.9035"/>
</g>
<!-- Node9 -->
<g id="node10" class="node">
<title>Node9</title>
<polygon fill="#ffffff" stroke="#bfbfbf" points="322.5997,-.5 322.5997,-19.5 409.5997,-19.5 409.5997,-.5 322.5997,-.5"/>
<text text-anchor="middle" x="366.0997" y="-7.5" font-family="Helvetica,sans-Serif" font-size="10.00" fill="#000000">AMReX_Print.H</text>
</g>
<!-- Node5&#45;&gt;Node9 -->
<g id="edge9" class="edge">
<title>Node5&#45;&gt;Node9</title>
<path fill="none" stroke="#191970" d="M288.4747,-61.8906C303.1928,-52.0519 326.2829,-36.6167 343.4586,-25.1351"/>
<polygon fill="#191970" stroke="#191970" points="345.4572,-28.0091 351.8256,-19.5419 341.5669,-22.1896 345.4572,-28.0091"/>
</g>
<!-- Node12&#45;&gt;Node11 -->
<g id="edge12" class="edge">
<title>Node12&#45;&gt;Node11</title>
<path fill="none" stroke="#191970" d="M1800.6296,-61.9966C1789.6391,-59.913 1777.9771,-57.7954 1767.0997,-56 1684.4749,-42.3623 1589.7966,-29.4797 1522.9237,-20.8362"/>
<polygon fill="#191970" stroke="#191970" points="1523.2154,-17.345 1512.8502,-19.5391 1522.3213,-24.2876 1523.2154,-17.345"/>
</g>
<!-- Node12&#45;&gt;Node13 -->
<g id="edge13" class="edge">
<title>Node12&#45;&gt;Node13</title>
<path fill="none" stroke="#191970" d="M1827.3184,-61.8906C1805.2603,-51.6908 1770.1947,-35.4763 1745.1328,-23.8875"/>
<polygon fill="#191970" stroke="#191970" points="1746.2806,-20.5622 1735.735,-19.5419 1743.3426,-26.9158 1746.2806,-20.5622"/>
</g>
<!-- Node15&#45;&gt;Node2 -->
<g id="edge15" class="edge">
<title>Node15&#45;&gt;Node2</title>
<path fill="none" stroke="#191970" d="M1355.0957,-135.5481C1240.5169,-129.8616 1014.2337,-115.3648 940.0997,-87 918.0956,-78.5809 916.5475,-69.2982 897.0997,-56 881.5848,-45.3911 863.8397,-33.8941 849.9708,-25.0479"/>
<polygon fill="#191970" stroke="#191970" points="851.7968,-22.0613 841.4792,-19.6534 848.0432,-27.9699 851.7968,-22.0613"/>
</g>
<!-- Node15&#45;&gt;Node7 -->
<g id="edge16" class="edge">
<title>Node15&#45;&gt;Node7</title>
<path fill="none" stroke="#191970" d="M1355.0939,-135.4667C1155.0115,-126.4072 581.3738,-99.4093 566.0997,-87 549.3468,-73.3892 545.2065,-47.8315 544.5324,-29.9061"/>
<polygon fill="#191970" stroke="#191970" points="548.0313,-29.6524 544.4853,-19.6686 541.0314,-29.6847 548.0313,-29.6524"/>
</g>
<!-- Node15&#45;&gt;Node11 -->
<g id="edge17" class="edge">
<title>Node15&#45;&gt;Node11</title>
<path fill="none" stroke="#191970" d="M1405.1801,-128.9469C1390.8191,-120.1758 1371.6975,-105.7105 1363.0997,-87 1357.3468,-74.4807 1356.4429,-68.0629 1363.0997,-56 1370.9961,-41.6908 1385.4207,-31.2233 1399.3751,-23.9219"/>
<polygon fill="#191970" stroke="#191970" points="1400.9137,-27.0657 1408.4038,-19.5725 1397.8756,-20.7593 1400.9137,-27.0657"/>
</g>
<!-- Node15&#45;&gt;Node12 -->
<g id="edge18" class="edge">
<title>Node15&#45;&gt;Node12</title>
<path fill="none" stroke="#191970" d="M1483.5405,-128.9717C1561.0884,-116.7465 1695.3723,-95.577 1777.5242,-82.626"/>
<polygon fill="#191970" stroke="#191970" points="1778.1908,-86.0642 1787.5237,-81.0496 1777.1006,-79.1496 1778.1908,-86.0642"/>
</g>
<!-- Node15&#45;&gt;Node13 -->
<g id="edge37" class="edge">
<title>Node15&#45;&gt;Node13</title>
<path fill="none" stroke="#191970" d="M1491.105,-133.9701C1562.1395,-127.8352 1667.1936,-114.3456 1696.0997,-87 1711.5253,-72.4072 1715.2608,-47.4525 1715.7928,-29.9161"/>
<polygon fill="#191970" stroke="#191970" points="1719.2923,-29.6392 1715.7705,-19.6469 1712.2923,-29.6545 1719.2923,-29.6392"/>
</g>
<!-- Node16 -->
<g id="node15" class="node">
<title>Node16</title>
<g id="a_node15"><a xlink:href="_field_8_h.html" target="_top" xlink:title="amr&#45;wind/core/Field.H">
<polygon fill="#ffffff" stroke="#ff0000" points="1371.5997,-62 1371.5997,-81 1484.5997,-81 1484.5997,-62 1371.5997,-62"/>
<text text-anchor="middle" x="1428.0997" y="-69" font-family="Helvetica,sans-Serif" font-size="10.00" fill="#000000">amr&#45;wind/core/Field.H</text>
</a>
</g>
</g>
<!-- Node15&#45;&gt;Node16 -->
<g id="edge19" class="edge">
<title>Node15&#45;&gt;Node16</title>
<path fill="none" stroke="#191970" d="M1423.816,-128.9005C1424.5438,-119.149 1425.6922,-103.7597 1426.6169,-91.3695"/>
<polygon fill="#191970" stroke="#191970" points="1430.1306,-91.3144 1427.3846,-81.0817 1423.15,-90.7934 1430.1306,-91.3144"/>
</g>
<!-- Node22 -->
<g id="node18" class="node">
<title>Node22</title>
<g id="a_node18"><a xlink:href="_int_field_8_h.html" target="_top" xlink:title="amr&#45;wind/core/IntField.H">
<polygon fill="#ffffff" stroke="#000000" points="949.0997,-62 949.0997,-81 1073.0997,-81 1073.0997,-62 949.0997,-62"/>
<text text-anchor="middle" x="1011.0997" y="-69" font-family="Helvetica,sans-Serif" font-size="10.00" fill="#000000">amr&#45;wind/core/IntField.H</text>
</a>
</g>
</g>
<!-- Node15&#45;&gt;Node22 -->
<g id="edge27" class="edge">
<title>Node15&#45;&gt;Node22</title>
<path fill="none" stroke="#191970" d="M1364.5077,-128.9717C1289.4083,-116.7589 1159.4202,-95.6201 1079.7595,-82.6656"/>
<polygon fill="#191970" stroke="#191970" points="1080.2549,-79.2002 1069.8227,-81.0496 1079.1312,-86.1095 1080.2549,-79.2002"/>
</g>
<!-- Node23 -->
<g id="node19" class="node">
<title>Node23</title>
<polygon fill="#ffffff" stroke="#bfbfbf" points="1021.5997,-.5 1021.5997,-19.5 1128.5997,-19.5 1128.5997,-.5 1021.5997,-.5"/>
<text text-anchor="middle" x="1075.0997" y="-7.5" font-family="Helvetica,sans-Serif" font-size="10.00" fill="#000000">AMReX_iMultiFab.H</text>
</g>
<!-- Node15&#45;&gt;Node23 -->
<g id="edge38" class="edge">
<title>Node15&#45;&gt;Node23</title>
<path fill="none" stroke="#191970" d="M1354.929,-129.3109C1308.8438,-121.5997 1247.295,-108.3387 1196.0997,-87 1157.7859,-71.0305 1118.0619,-43.208 1095.0108,-25.7412"/>
<polygon fill="#191970" stroke="#191970" points="1097.09,-22.9249 1087.0303,-19.6003 1092.8211,-28.4726 1097.09,-22.9249"/>
</g>
<!-- Node24 -->
<g id="node20" class="node">
<title>Node24</title>
<g id="a_node20"><a xlink:href="_scratch_field_8_h.html" target="_top" xlink:title="amr&#45;wind/core/ScratchField.H">
<polygon fill="#ffffff" stroke="#ff0000" points="1541.0997,-62 1541.0997,-81 1687.0997,-81 1687.0997,-62 1541.0997,-62"/>
<text text-anchor="middle" x="1614.0997" y="-69" font-family="Helvetica,sans-Serif" font-size="10.00" fill="#000000">amr&#45;wind/core/ScratchField.H</text>
</a>
</g>
</g>
<!-- Node15&#45;&gt;Node24 -->
<g id="edge31" class="edge">
<title>Node15&#45;&gt;Node24</title>
<path fill="none" stroke="#191970" d="M1450.4653,-128.9005C1483.7959,-117.2086 1540.2306,-97.4122 1577.3319,-84.3976"/>
<polygon fill="#191970" stroke="#191970" points="1578.5071,-87.6945 1586.7848,-81.0817 1576.19,-81.0891 1578.5071,-87.6945"/>
</g>
<!-- Node26 -->
<g id="node22" class="node">
<title>Node26</title>
<polygon fill="#ffffff" stroke="#bfbfbf" points="1933.0997,-62 1933.0997,-81 2039.0997,-81 2039.0997,-62 1933.0997,-62"/>
<text text-anchor="middle" x="1986.0997" y="-69" font-family="Helvetica,sans-Serif" font-size="10.00" fill="#000000">AMReX_AmrCore.H</text>
</g>
<!-- Node15&#45;&gt;Node26 -->
<g id="edge36" class="edge">
<title>Node15&#45;&gt;Node26</title>
<path fill="none" stroke="#191970" d="M1491.3637,-132.6983C1608.4251,-122.5458 1842.7147,-101.281 1924.0997,-87 1929.8404,-85.9926 1935.8358,-84.7461 1941.7395,-83.4008"/>
<polygon fill="#191970" stroke="#191970" points="1942.6112,-86.7912 1951.5276,-81.0686 1940.9886,-79.9818 1942.6112,-86.7912"/>
</g>
<!-- Node16&#45;&gt;Node2 -->
<g id="edge20" class="edge">
<title>Node16&#45;&gt;Node2</title>
<path fill="none" stroke="#191970" d="M1371.5027,-62.4786C1356.1454,-60.1909 1339.5048,-57.858 1324.0997,-56 1147.9149,-34.7506 935.6219,-18.1103 857.1809,-12.2642"/>
<polygon fill="#191970" stroke="#191970" points="857.2498,-8.7599 847.0186,-11.5116 856.7328,-15.7407 857.2498,-8.7599"/>
</g>
<!-- Node16&#45;&gt;Node6 -->
<g id="edge21" class="edge">
<title>Node16&#45;&gt;Node6</title>
<path fill="none" stroke="#191970" d="M1371.5572,-61.9752C1356.1998,-59.6885 1339.5455,-57.4819 1324.0997,-56 956.5516,-20.7372 859.1708,-75.3002 494.0997,-20 493.4884,-19.9074 492.8728,-19.8088 492.2539,-19.7048"/>
<polygon fill="#191970" stroke="#191970" points="492.6099,-16.2052 482.1112,-17.6292 491.2065,-23.0631 492.6099,-16.2052"/>
</g>
<!-- Node16&#45;&gt;Node7 -->
<g id="edge22" class="edge">
<title>Node16&#45;&gt;Node7</title>
<path fill="none" stroke="#191970" d="M1371.5411,-62.1368C1356.1837,-59.8497 1339.5334,-57.6026 1324.0997,-56 1182.4697,-41.2937 748.2051,-19.724 597.3692,-12.4776"/>
<polygon fill="#191970" stroke="#191970" points="597.1629,-8.9638 587.0067,-11.9809 596.8277,-15.9557 597.1629,-8.9638"/>
</g>
<!-- Node16&#45;&gt;Node11 -->
<g id="edge26" class="edge">
<title>Node16&#45;&gt;Node11</title>
<path fill="none" stroke="#191970" d="M1429.3497,-61.8906C1430.4586,-53.3657 1432.1141,-40.6392 1433.508,-29.9235"/>
<polygon fill="#191970" stroke="#191970" points="1437.0128,-30.1128 1434.832,-19.7449 1430.0713,-29.2098 1437.0128,-30.1128"/>
</g>
<!-- Node16&#45;&gt;Node13 -->
<g id="edge23" class="edge">
<title>Node16&#45;&gt;Node13</title>
<path fill="none" stroke="#191970" d="M1471.648,-61.9562C1480.7186,-59.9786 1490.2197,-57.9148 1499.0997,-56 1553.864,-44.1909 1616.4813,-30.8764 1660.1458,-21.6223"/>
<polygon fill="#191970" stroke="#191970" points="1660.9345,-25.0329 1669.9919,-19.5362 1659.4836,-18.185 1660.9345,-25.0329"/>
</g>
<!-- Node18 -->
<g id="node16" class="node">
<title>Node18</title>
<polygon fill="#ffffff" stroke="#bfbfbf" points="1551.5997,-.5 1551.5997,-19.5 1636.5997,-19.5 1636.5997,-.5 1551.5997,-.5"/>
<text text-anchor="middle" x="1594.0997" y="-7.5" font-family="Helvetica,sans-Serif" font-size="10.00" fill="#000000">AMReX_Gpu.H</text>
</g>
<!-- Node16&#45;&gt;Node18 -->
<g id="edge24" class="edge">
<title>Node16&#45;&gt;Node18</title>
<path fill="none" stroke="#191970" d="M1454.0372,-61.8906C1482.1775,-51.4652 1527.279,-34.7559 1558.6722,-23.1252"/>
<polygon fill="#191970" stroke="#191970" points="1560.1831,-26.298 1568.3443,-19.5419 1557.7512,-19.734 1560.1831,-26.298"/>
</g>
<!-- Node19 -->
<g id="node17" class="node">
<title>Node19</title>
<g id="a_node17"><a xlink:href="incflo__enums_8_h.html" target="_top" xlink:title="amr&#45;wind/incflo_enums.H">
<polygon fill="#ffffff" stroke="#000000" points="104.0997,-.5 104.0997,-19.5 232.0997,-19.5 232.0997,-.5 104.0997,-.5"/>
<text text-anchor="middle" x="168.0997" y="-7.5" font-family="Helvetica,sans-Serif" font-size="10.00" fill="#000000">amr&#45;wind/incflo_enums.H</text>
</a>
</g>
</g>
<!-- Node16&#45;&gt;Node19 -->
<g id="edge25" class="edge">
<title>Node16&#45;&gt;Node19</title>
<path fill="none" stroke="#191970" d="M1372.3788,-61.9917C1356.7978,-59.6613 1339.8255,-57.4285 1324.0997,-56 847.7539,-12.7298 722.6782,-60.0789 242.126,-19.9941"/>
<polygon fill="#191970" stroke="#191970" points="242.4108,-16.5058 232.1523,-19.1539 241.8232,-23.4811 242.4108,-16.5058"/>
</g>
<!-- Node22&#45;&gt;Node2 -->
<g id="edge28" class="edge">
<title>Node22&#45;&gt;Node2</title>
<path fill="none" stroke="#191970" d="M982.1934,-61.8906C947.9709,-50.5139 891.2392,-31.6545 856.4132,-20.0772"/>
<polygon fill="#191970" stroke="#191970" points="857.3765,-16.7092 846.783,-16.8758 855.1683,-23.3518 857.3765,-16.7092"/>
</g>
<!-- Node22&#45;&gt;Node11 -->
<g id="edge29" class="edge">
<title>Node22&#45;&gt;Node11</title>
<path fill="none" stroke="#191970" d="M1055.2084,-61.959C1065.6389,-59.8542 1076.7407,-57.7368 1087.0997,-56 1173.9893,-41.4317 1273.691,-28.6839 1344.2214,-20.326"/>
<polygon fill="#191970" stroke="#191970" points="1344.8894,-23.7716 1354.4109,-19.125 1344.0699,-16.8197 1344.8894,-23.7716"/>
</g>
<!-- Node22&#45;&gt;Node23 -->
<g id="edge30" class="edge">
<title>Node22&#45;&gt;Node23</title>
<path fill="none" stroke="#191970" d="M1021.0997,-61.8906C1030.8116,-52.5581 1045.7636,-38.1902 1057.4738,-26.9374"/>
<polygon fill="#191970" stroke="#191970" points="1060.1733,-29.1974 1064.9587,-19.7449 1055.3231,-24.15 1060.1733,-29.1974"/>
</g>
<!-- Node24&#45;&gt;Node2 -->
<g id="edge32" class="edge">
<title>Node24&#45;&gt;Node2</title>
<path fill="none" stroke="#191970" d="M1545.9606,-61.9812C1529.0382,-59.8151 1510.9277,-57.6647 1494.0997,-56 1367.744,-43.5002 970.6133,-18.8373 856.8391,-11.8716"/>
<polygon fill="#191970" stroke="#191970" points="856.9268,-8.3706 846.7318,-11.2538 856.4996,-15.3575 856.9268,-8.3706"/>
</g>
<!-- Node24&#45;&gt;Node11 -->
<g id="edge33" class="edge">
<title>Node24&#45;&gt;Node11</title>
<path fill="none" stroke="#191970" d="M1586.2872,-61.8906C1555.8514,-51.3749 1506.912,-34.466 1473.2171,-22.8243"/>
<polygon fill="#191970" stroke="#191970" points="1474.3116,-19.4995 1463.7169,-19.5419 1472.0256,-26.1157 1474.3116,-19.4995"/>
</g>
<!-- Node24&#45;&gt;Node13 -->
<g id="edge34" class="edge">
<title>Node24&#45;&gt;Node13</title>
<path fill="none" stroke="#191970" d="M1629.8809,-61.8906C1646.1871,-51.9616 1671.8537,-36.333 1690.761,-24.8201"/>
<polygon fill="#191970" stroke="#191970" points="1692.7084,-27.7322 1699.4292,-19.5419 1689.0678,-21.7533 1692.7084,-27.7322"/>
</g>
<!-- Node25 -->
<g id="node21" class="node">
<title>Node25</title>
<polygon fill="#ffffff" stroke="#bfbfbf" points="2249.0997,-.5 2249.0997,-19.5 2377.0997,-19.5 2377.0997,-.5 2249.0997,-.5"/>
<text text-anchor="middle" x="2313.0997" y="-7.5" font-family="Helvetica,sans-Serif" font-size="10.00" fill="#000000">AMReX_PhysBCFunct.H</text>
</g>
<!-- Node24&#45;&gt;Node25 -->
<g id="edge35" class="edge">
<title>Node24&#45;&gt;Node25</title>
<path fill="none" stroke="#191970" d="M1687.3025,-64.1754C1714.2665,-61.5271 1745.0653,-58.5604 1773.0997,-56 1939.4974,-40.8027 2134.8923,-24.5541 2238.9807,-16.026"/>
<polygon fill="#191970" stroke="#191970" points="2239.3897,-19.5043 2249.0708,-15.2 2238.8186,-12.5276 2239.3897,-19.5043"/>
</g>
<!-- Node27&#45;&gt;Node2 -->
<g id="edge41" class="edge">
<title>Node27&#45;&gt;Node2</title>
<path fill="none" stroke="#191970" d="M760.9267,-257.4304C761.0138,-221.2756 764.2381,-127.3218 793.0997,-56 797.2151,-45.83 804.0158,-35.7831 810.3775,-27.6856"/>
<polygon fill="#191970" stroke="#191970" points="813.2694,-29.6815 816.9606,-19.7504 807.8819,-25.212 813.2694,-29.6815"/>
</g>
<!-- Node28&#45;&gt;Node2 -->
<g id="edge43" class="edge">
<title>Node28&#45;&gt;Node2</title>
<path fill="none" stroke="#191970" d="M1659.3685,-196.8746C1465.2887,-172.6946 930.8251,-104.8599 897.0997,-87 871.2367,-73.3038 849.8304,-46.3944 837.4994,-28.2994"/>
<polygon fill="#191970" stroke="#191970" points="840.3107,-26.2036 831.9029,-19.757 834.4554,-30.0397 840.3107,-26.2036"/>
</g>
<!-- Node28&#45;&gt;Node15 -->
<g id="edge50" class="edge">
<title>Node28&#45;&gt;Node15</title>
<path fill="none" stroke="#191970" d="M1660.4273,-190.4639C1604.7563,-178.2745 1527.4234,-161.3421 1476.3601,-150.1616"/>
<polygon fill="#191970" stroke="#191970" points="1477.0291,-146.7252 1466.5119,-148.0053 1475.5318,-153.5632 1477.0291,-146.7252"/>
</g>
<!-- Node29 -->
<g id="node25" class="node">
<title>Node29</title>
<g id="a_node25"><a xlink:href="_p_d_e_fields_8_h.html" target="_top" xlink:title="amr&#45;wind/equation_systems\l/PDEFields.H">
<polygon fill="#ffffff" stroke="#000000" points="15.5997,-56.5 15.5997,-86.5 154.5997,-86.5 154.5997,-56.5 15.5997,-56.5"/>
<text text-anchor="start" x="23.5997" y="-74.5" font-family="Helvetica,sans-Serif" font-size="10.00" fill="#000000">amr&#45;wind/equation_systems</text>
<text text-anchor="middle" x="85.0997" y="-63.5" font-family="Helvetica,sans-Serif" font-size="10.00" fill="#000000">/PDEFields.H</text>
</a>
</g>
</g>
<!-- Node28&#45;&gt;Node29 -->
<g id="edge44" class="edge">
<title>Node28&#45;&gt;Node29</title>
<path fill="none" stroke="#191970" d="M1659.4668,-195.6689C1641.4654,-193.4562 1622.0889,-191.3622 1604.0997,-190 1317.0326,-168.2617 591.7894,-208.4664 309.0997,-154 242.3739,-141.1438 169.2296,-110.9114 125.2628,-90.8359"/>
<polygon fill="#191970" stroke="#191970" points="126.6161,-87.6057 116.0699,-86.5917 123.6819,-93.9611 126.6161,-87.6057"/>
</g>
<!-- Node31 -->
<g id="node27" class="node">
<title>Node31</title>
<g id="a_node27"><a xlink:href="_sim_time_8_h.html" target="_top" xlink:title="amr&#45;wind/core/SimTime.H">
<polygon fill="#ffffff" stroke="#000000" points="2631.5997,-62 2631.5997,-81 2762.5997,-81 2762.5997,-62 2631.5997,-62"/>
<text text-anchor="middle" x="2697.0997" y="-69" font-family="Helvetica,sans-Serif" font-size="10.00" fill="#000000">amr&#45;wind/core/SimTime.H</text>
</a>
</g>
</g>
<!-- Node28&#45;&gt;Node31 -->
<g id="edge46" class="edge">
<title>Node28&#45;&gt;Node31</title>
<path fill="none" stroke="#191970" d="M1799.031,-192.7049C1806.1314,-191.6712 1813.2484,-190.7415 1820.0997,-190 1989.7412,-171.6404 2426.5336,-211.7395 2587.0997,-154 2625.3732,-140.2368 2661.4267,-108.2492 2681.2613,-88.3927"/>
<polygon fill="#191970" stroke="#191970" points="2683.7995,-90.803 2688.2699,-81.1975 2678.7851,-85.9187 2683.7995,-90.803"/>
</g>
<!-- Node35 -->
<g id="node31" class="node">
<title>Node35</title>
<g id="a_node31"><a xlink:href="_field_fill_patch_ops_8_h.html" target="_top" xlink:title="amr&#45;wind/core/FieldFillPatch\lOps.H">
<polygon fill="#ffffff" stroke="#000000" points="2300.0997,-123.5 2300.0997,-153.5 2440.0997,-153.5 2440.0997,-123.5 2300.0997,-123.5"/>
<text text-anchor="start" x="2308.0997" y="-141.5" font-family="Helvetica,sans-Serif" font-size="10.00" fill="#000000">amr&#45;wind/core/FieldFillPatch</text>
<text text-anchor="middle" x="2370.0997" y="-130.5" font-family="Helvetica,sans-Serif" font-size="10.00" fill="#000000">Ops.H</text>
</a>
</g>
</g>
<!-- Node28&#45;&gt;Node35 -->
<g id="edge51" class="edge">
<title>Node28&#45;&gt;Node35</title>
<path fill="none" stroke="#191970" d="M1799.0706,-193.0351C1806.1631,-191.9357 1813.2675,-190.9004 1820.0997,-190 1908.6241,-178.3331 2159.3568,-156.3915 2289.4905,-145.2948"/>
<polygon fill="#191970" stroke="#191970" points="2290.1252,-148.7535 2299.7921,-144.4175 2289.5312,-141.7787 2290.1252,-148.7535"/>
</g>
<!-- Node37 -->
<g id="node33" class="node">
<title>Node37</title>
<g id="a_node33"><a xlink:href="_field_b_c_ops_8_h.html" target="_top" xlink:title="amr&#45;wind/core/FieldBCOps.H">
<polygon fill="#ffffff" stroke="#000000" points="2032.5997,-129 2032.5997,-148 2177.5997,-148 2177.5997,-129 2032.5997,-129"/>
<text text-anchor="middle" x="2105.0997" y="-136" font-family="Helvetica,sans-Serif" font-size="10.00" fill="#000000">amr&#45;wind/core/FieldBCOps.H</text>
</a>
</g>
</g>
<!-- Node28&#45;&gt;Node37 -->
<g id="edge61" class="edge">
<title>Node28&#45;&gt;Node37</title>
<path fill="none" stroke="#191970" d="M1798.9412,-193.0548C1868.5322,-180.6543 1974.4486,-161.7809 2041.6898,-149.7991"/>
<polygon fill="#191970" stroke="#191970" points="2042.4984,-153.2102 2051.7293,-148.0101 2041.2704,-146.3188 2042.4984,-153.2102"/>
</g>
<!-- Node30 -->
<g id="node26" class="node">
<title>Node30</title>
<polygon fill="#ffffff" stroke="#bfbfbf" points="40.5997,-.5 40.5997,-19.5 85.5997,-19.5 85.5997,-.5 40.5997,-.5"/>
<text text-anchor="middle" x="63.0997" y="-7.5" font-family="Helvetica,sans-Serif" font-size="10.00" fill="#000000">iosfwd</text>
</g>
<!-- Node29&#45;&gt;Node30 -->
<g id="edge45" class="edge">
<title>Node29&#45;&gt;Node30</title>
<path fill="none" stroke="#191970" d="M79.6615,-56.2977C76.7667,-48.2055 73.1746,-38.1639 70.0763,-29.5029"/>
<polygon fill="#191970" stroke="#191970" points="73.2859,-28.0837 66.6221,-19.8469 66.6949,-30.4415 73.2859,-28.0837"/>
</g>
<!-- Node32 -->
<g id="node28" class="node">
<title>Node32</title>
<polygon fill="#ffffff" stroke="#bfbfbf" points="2556.5997,-.5 2556.5997,-19.5 2649.5997,-19.5 2649.5997,-.5 2556.5997,-.5"/>
<text text-anchor="middle" x="2603.0997" y="-7.5" font-family="Helvetica,sans-Serif" font-size="10.00" fill="#000000">AMReX_REAL.H</text>
</g>
<!-- Node31&#45;&gt;Node32 -->
<g id="edge47" class="edge">
<title>Node31&#45;&gt;Node32</title>
<path fill="none" stroke="#191970" d="M2682.4122,-61.8906C2667.3741,-52.0519 2643.782,-36.6167 2626.2329,-25.1351"/>
<polygon fill="#191970" stroke="#191970" points="2627.9684,-22.088 2617.684,-19.5419 2624.1359,-27.9457 2627.9684,-22.088"/>
</g>
<!-- Node33 -->
<g id="node29" class="node">
<title>Node33</title>
<polygon fill="#ffffff" stroke="#bfbfbf" points="2668.0997,-.5 2668.0997,-19.5 2794.0997,-19.5 2794.0997,-.5 2668.0997,-.5"/>
<text text-anchor="middle" x="2731.0997" y="-7.5" font-family="Helvetica,sans-Serif" font-size="10.00" fill="#000000">AMReX_GpuQualifiers.H</text>
</g>
<!-- Node31&#45;&gt;Node33 -->
<g id="edge48" class="edge">
<title>Node31&#45;&gt;Node33</title>
<path fill="none" stroke="#191970" d="M2702.4122,-61.8906C2707.3236,-53.0068 2714.7575,-39.5601 2720.8272,-28.5811"/>
<polygon fill="#191970" stroke="#191970" points="2723.937,-30.1899 2725.7123,-19.7449 2717.8109,-26.8031 2723.937,-30.1899"/>
</g>
<!-- Node34 -->
<g id="node30" class="node">
<title>Node34</title>
<polygon fill="#ffffff" stroke="#bfbfbf" points="2812.0997,-.5 2812.0997,-19.5 2922.0997,-19.5 2922.0997,-.5 2812.0997,-.5"/>
<text text-anchor="middle" x="2867.0997" y="-7.5" font-family="Helvetica,sans-Serif" font-size="10.00" fill="#000000">AMReX_Extension.H</text>
</g>
<!-- Node31&#45;&gt;Node34 -->
<g id="edge49" class="edge">
<title>Node31&#45;&gt;Node34</title>
<path fill="none" stroke="#191970" d="M2723.6622,-61.8906C2752.6053,-51.42 2799.0691,-34.6111 2831.2353,-22.9745"/>
<polygon fill="#191970" stroke="#191970" points="2832.5108,-26.2351 2840.7237,-19.5419 2830.1294,-19.6526 2832.5108,-26.2351"/>
</g>
<!-- Node35&#45;&gt;Node11 -->
<g id="edge54" class="edge">
<title>Node35&#45;&gt;Node11</title>
<path fill="none" stroke="#191970" d="M2355.1954,-123.212C2334.8922,-103.5352 2296.4279,-70.1952 2256.0997,-56 2106.4531,-3.3259 1701.337,-31.3838 1543.0997,-20 1538.1101,-19.641 1532.9919,-19.2476 1527.8268,-18.8308"/>
<polygon fill="#191970" stroke="#191970" points="1528.1129,-15.3426 1517.8577,-18.0034 1527.5339,-22.3186 1528.1129,-15.3426"/>
</g>
<!-- Node35&#45;&gt;Node12 -->
<g id="edge55" class="edge">
<title>Node35&#45;&gt;Node12</title>
<path fill="none" stroke="#191970" d="M2299.9339,-132.2851C2211.8618,-124.0511 2056.3012,-108.0736 1924.0997,-87 1916.7026,-85.8209 1908.9318,-84.4223 1901.2991,-82.9555"/>
<polygon fill="#191970" stroke="#191970" points="1901.8759,-79.5019 1891.3876,-81.0004 1900.5212,-86.3695 1901.8759,-79.5019"/>
</g>
<!-- Node35&#45;&gt;Node13 -->
<g id="edge57" class="edge">
<title>Node35&#45;&gt;Node13</title>
<path fill="none" stroke="#191970" d="M2374.4463,-123.3471C2378.7514,-104.7524 2382.463,-73.5399 2365.0997,-56 2344.5956,-35.2874 1935.8089,-18.1104 1777.2245,-12.201"/>
<polygon fill="#191970" stroke="#191970" points="1777.27,-8.7004 1767.1474,-11.8281 1777.0111,-15.6956 1777.27,-8.7004"/>
</g>
<!-- Node35&#45;&gt;Node16 -->
<g id="edge52" class="edge">
<title>Node35&#45;&gt;Node16</title>
<path fill="none" stroke="#191970" d="M2299.7479,-132.0513C2265.7368,-129.059 2224.3141,-125.5981 2187.0997,-123 1896.2571,-102.6947 1822.1517,-116.5207 1532.0997,-87 1520.0395,-85.7726 1507.2382,-84.1389 1494.8917,-82.3925"/>
<polygon fill="#191970" stroke="#191970" points="1495.0533,-78.8793 1484.654,-80.9053 1494.0469,-85.8066 1495.0533,-78.8793"/>
</g>
<!-- Node35&#45;&gt;Node25 -->
<g id="edge59" class="edge">
<title>Node35&#45;&gt;Node25</title>
<path fill="none" stroke="#191970" d="M2440.2503,-129.9942C2503.0619,-119.5113 2580.3826,-97.713 2546.0997,-56 2526.2081,-31.7974 2447.8341,-20.1195 2387.4156,-14.6251"/>
<polygon fill="#191970" stroke="#191970" points="2387.3899,-11.1098 2377.1248,-13.7324 2386.7849,-18.0836 2387.3899,-11.1098"/>
</g>
<!-- Node35&#45;&gt;Node26 -->
<g id="edge56" class="edge">
<title>Node35&#45;&gt;Node26</title>
<path fill="none" stroke="#191970" d="M2299.6682,-126.2112C2228.1018,-113.7243 2118.2544,-94.5582 2049.3784,-82.5408"/>
<polygon fill="#191970" stroke="#191970" points="2049.5586,-79.0195 2039.1058,-80.7485 2048.3553,-85.9153 2049.5586,-79.0195"/>
</g>
<!-- Node35&#45;&gt;Node31 -->
<g id="edge53" class="edge">
<title>Node35&#45;&gt;Node31</title>
<path fill="none" stroke="#191970" d="M2440.2494,-124.1268C2500.1395,-111.8558 2585.1604,-94.4356 2640.7149,-83.0528"/>
<polygon fill="#191970" stroke="#191970" points="2641.6386,-86.4364 2650.7326,-81.0003 2640.2335,-79.5788 2641.6386,-86.4364"/>
</g>
<!-- Node35&#45;&gt;Node32 -->
<g id="edge58" class="edge">
<title>Node35&#45;&gt;Node32</title>
<path fill="none" stroke="#191970" d="M2440.3126,-126.1206C2487.6911,-116.6139 2544.9404,-102.5163 2564.0997,-87 2582.2296,-72.3173 2592.7322,-47.0147 2598.1792,-29.4397"/>
<polygon fill="#191970" stroke="#191970" points="2601.5916,-30.2343 2600.9404,-19.6595 2594.855,-28.3323 2601.5916,-30.2343"/>
</g>
<!-- Node36 -->
<g id="node32" class="node">
<title>Node36</title>
<polygon fill="#ffffff" stroke="#bfbfbf" points="2417.0997,-62 2417.0997,-81 2537.0997,-81 2537.0997,-62 2417.0997,-62"/>
<text text-anchor="middle" x="2477.0997" y="-69" font-family="Helvetica,sans-Serif" font-size="10.00" fill="#000000">AMReX_FillPatchUtil.H</text>
</g>
<!-- Node35&#45;&gt;Node36 -->
<g id="edge60" class="edge">
<title>Node35&#45;&gt;Node36</title>
<path fill="none" stroke="#191970" d="M2394.1126,-123.4639C2411.7423,-112.4247 2435.5846,-97.4954 2453.19,-86.4715"/>
<polygon fill="#191970" stroke="#191970" points="2455.144,-89.3775 2461.7621,-81.1039 2451.429,-83.4446 2455.144,-89.3775"/>
</g>
<!-- Node37&#45;&gt;Node11 -->
<g id="edge62" class="edge">
<title>Node37&#45;&gt;Node11</title>
<path fill="none" stroke="#191970" d="M2101.7442,-128.9963C2094.8591,-111.089 2077.2798,-72.6564 2048.0997,-56 1950.3903,-.2262 1655.227,-29.2351 1543.0997,-20 1538.1141,-19.5894 1532.999,-19.1551 1527.8364,-18.7065"/>
<polygon fill="#191970" stroke="#191970" points="1528.1396,-15.2198 1517.8711,-17.829 1527.5255,-22.1928 1528.1396,-15.2198"/>
</g>
<!-- Node37&#45;&gt;Node16 -->
<g id="edge63" class="edge">
<title>Node37&#45;&gt;Node16</title>
<path fill="none" stroke="#191970" d="M2032.5958,-133.346C1923.7195,-125.2984 1711.6087,-108.4253 1532.0997,-87 1520.0627,-85.5633 1507.2725,-83.829 1494.9298,-82.0482"/>
<polygon fill="#191970" stroke="#191970" points="1495.0957,-78.5351 1484.6936,-80.5468 1494.0798,-85.461 1495.0957,-78.5351"/>
</g>
<!-- Node37&#45;&gt;Node18 -->
<g id="edge64" class="edge">
<title>Node37&#45;&gt;Node18</title>
<path fill="none" stroke="#191970" d="M2158.5597,-128.9065C2214.7274,-116.6448 2290.5113,-92.531 2256.0997,-56 2210.1536,-7.2242 1720.6849,-27.5185 1654.0997,-20 1651.6205,-19.7201 1649.088,-19.4066 1646.533,-19.0683"/>
<polygon fill="#191970" stroke="#191970" points="1647.0263,-15.6033 1636.6325,-17.6577 1646.0389,-22.5333 1647.0263,-15.6033"/>
</g>
<!-- Node37&#45;&gt;Node25 -->
<g id="edge67" class="edge">
<title>Node37&#45;&gt;Node25</title>
<path fill="none" stroke="#191970" d="M2160.7273,-128.963C2207.9128,-119.8173 2270.7763,-104.7953 2289.0997,-87 2304.5907,-71.9554 2310.1274,-47.0933 2312.0812,-29.7019"/>
<polygon fill="#191970" stroke="#191970" points="2315.5862,-29.7832 2312.9164,-19.5303 2308.6097,-29.2103 2315.5862,-29.7832"/>
</g>
<!-- Node38 -->
<g id="node34" class="node">
<title>Node38</title>
<polygon fill="#ffffff" stroke="#bfbfbf" points="2133.5997,-62 2133.5997,-81 2246.5997,-81 2246.5997,-62 2133.5997,-62"/>
<text text-anchor="middle" x="2190.0997" y="-69" font-family="Helvetica,sans-Serif" font-size="10.00" fill="#000000">AMReX_FArrayBox.H</text>
</g>
<!-- Node37&#45;&gt;Node38 -->
<g id="edge65" class="edge">
<title>Node37&#45;&gt;Node38</title>
<path fill="none" stroke="#191970" d="M2117.2781,-128.9005C2131.0381,-118.0544 2153.6462,-100.2339 2170.0259,-87.3229"/>
<polygon fill="#191970" stroke="#191970" points="2172.2569,-90.0209 2177.9438,-81.0817 2167.9236,-84.5234 2172.2569,-90.0209"/>
</g>
<!-- Node39 -->
<g id="node35" class="node">
<title>Node39</title>
<polygon fill="#ffffff" stroke="#bfbfbf" points="1205.0997,-62 1205.0997,-81 1315.0997,-81 1315.0997,-62 1205.0997,-62"/>
<text text-anchor="middle" x="1260.0997" y="-69" font-family="Helvetica,sans-Serif" font-size="10.00" fill="#000000">AMReX_Geometry.H</text>
</g>
<!-- Node37&#45;&gt;Node39 -->
<g id="edge66" class="edge">
<title>Node37&#45;&gt;Node39</title>
<path fill="none" stroke="#191970" d="M2032.5174,-135.3944C1899.4881,-129.273 1607.7828,-113.8584 1363.0997,-87 1350.8308,-85.6533 1337.7824,-83.9229 1325.2423,-82.1091"/>
<polygon fill="#191970" stroke="#191970" points="1325.7232,-78.6422 1315.3189,-80.6423 1324.6996,-85.567 1325.7232,-78.6422"/>
</g>
<!-- Node40&#45;&gt;Node2 -->
<g id="edge69" class="edge">
<title>Node40&#45;&gt;Node2</title>
<path fill="none" stroke="#191970" d="M857.8463,-391.4409C852.7386,-330.0705 833.4924,-98.8246 827.7359,-29.6592"/>
<polygon fill="#191970" stroke="#191970" points="831.2221,-29.3473 826.9047,-19.672 824.2462,-29.9279 831.2221,-29.3473"/>
</g>
<!-- Node41 -->
<g id="node37" class="node">
<title>Node41</title>
<g id="a_node37"><a xlink:href="_c_f_d_sim_8_h.html" target="_top" xlink:title="amr&#45;wind/CFDSim.H">
<polygon fill="#ffffff" stroke="#000000" points="881.0997,-196 881.0997,-215 989.0997,-215 989.0997,-196 881.0997,-196"/>
<text text-anchor="middle" x="935.0997" y="-203" font-family="Helvetica,sans-Serif" font-size="10.00" fill="#000000">amr&#45;wind/CFDSim.H</text>
</a>
</g>
</g>
<!-- Node40&#45;&gt;Node41 -->
<g id="edge70" class="edge">
<title>Node40&#45;&gt;Node41</title>
<path fill="none" stroke="#191970" d="M864.812,-391.3923C878.4383,-355.3544 912.8307,-264.3956 927.8709,-224.6181"/>
<polygon fill="#191970" stroke="#191970" points="931.1478,-225.8478 931.4108,-215.2562 924.6002,-223.372 931.1478,-225.8478"/>
</g>
<!-- Node42 -->
<g id="node38" class="node">
<title>Node42</title>
<g id="a_node38"><a xlink:href="_p_d_e_base_8_h.html" target="_top" xlink:title="amr&#45;wind/equation_systems\l/PDEBase.H">
<polygon fill="#ffffff" stroke="#000000" points="318.5997,-123.5 318.5997,-153.5 457.5997,-153.5 457.5997,-123.5 318.5997,-123.5"/>
<text text-anchor="start" x="326.5997" y="-141.5" font-family="Helvetica,sans-Serif" font-size="10.00" fill="#000000">amr&#45;wind/equation_systems</text>
<text text-anchor="middle" x="388.0997" y="-130.5" font-family="Helvetica,sans-Serif" font-size="10.00" fill="#000000">/PDEBase.H</text>
</a>
</g>
</g>
<!-- Node40&#45;&gt;Node42 -->
<g id="edge89" class="edge">
<title>Node40&#45;&gt;Node42</title>
<path fill="none" stroke="#191970" d="M789.4966,-399.2509C688.3084,-384.7165 502.5936,-342.183 410.0997,-221 397.5127,-204.5089 392.1129,-181.3919 389.8039,-163.8225"/>
<polygon fill="#191970" stroke="#191970" points="393.2663,-163.2828 388.729,-153.7087 386.3055,-164.0226 393.2663,-163.2828"/>
</g>
<!-- Node45 -->
<g id="node41" class="node">
<title>Node45</title>
<g id="a_node41"><a xlink:href="_p_d_e_ops_8_h.html" target="_top" xlink:title="amr&#45;wind/equation_systems\l/PDEOps.H">
<polygon fill="#ffffff" stroke="#000000" points="925.5997,-257.5 925.5997,-287.5 1064.5997,-287.5 1064.5997,-257.5 925.5997,-257.5"/>
<text text-anchor="start" x="933.5997" y="-275.5" font-family="Helvetica,sans-Serif" font-size="10.00" fill="#000000">amr&#45;wind/equation_systems</text>
<text text-anchor="middle" x="995.0997" y="-264.5" font-family="Helvetica,sans-Serif" font-size="10.00" fill="#000000">/PDEOps.H</text>
</a>
</g>
</g>
<!-- Node40&#45;&gt;Node45 -->
<g id="edge90" class="edge">
<title>Node40&#45;&gt;Node45</title>
<path fill="none" stroke="#191970" d="M874.4362,-391.389C898.3114,-367.8649 944.504,-322.3517 972.2941,-294.9702"/>
<polygon fill="#191970" stroke="#191970" points="974.9437,-297.2731 979.6105,-287.7614 970.0307,-292.2868 974.9437,-297.2731"/>
</g>
<!-- Node50 -->
<g id="node45" class="node">
<title>Node50</title>
<g id="a_node45"><a xlink:href="_comp_r_h_s_ops_8_h.html" target="_top" xlink:title="amr&#45;wind/equation_systems\l/CompRHSOps.H">
<polygon fill="#ffffff" stroke="#000000" points="691.5997,-324.5 691.5997,-354.5 830.5997,-354.5 830.5997,-324.5 691.5997,-324.5"/>
<text text-anchor="start" x="699.5997" y="-342.5" font-family="Helvetica,sans-Serif" font-size="10.00" fill="#000000">amr&#45;wind/equation_systems</text>
<text text-anchor="middle" x="761.0997" y="-331.5" font-family="Helvetica,sans-Serif" font-size="10.00" fill="#000000">/CompRHSOps.H</text>
</a>
</g>
</g>
<!-- Node40&#45;&gt;Node50 -->
<g id="edge102" class="edge">
<title>Node40&#45;&gt;Node50</title>
<path fill="none" stroke="#191970" d="M836.862,-391.2967C823.4549,-382.1306 806.1921,-370.3285 791.5317,-360.3055"/>
<polygon fill="#191970" stroke="#191970" points="793.4799,-357.3977 783.2494,-354.6432 789.5292,-363.1763 793.4799,-357.3977"/>
</g>
<!-- Node51 -->
<g id="node46" class="node">
<title>Node51</title>
<g id="a_node46"><a xlink:href="_diffusion_ops_8_h.html" target="_top" xlink:title="amr&#45;wind/equation_systems\l/DiffusionOps.H">
<polygon fill="#ffffff" stroke="#000000" points="1170.5997,-324.5 1170.5997,-354.5 1309.5997,-354.5 1309.5997,-324.5 1170.5997,-324.5"/>
<text text-anchor="start" x="1178.5997" y="-342.5" font-family="Helvetica,sans-Serif" font-size="10.00" fill="#000000">amr&#45;wind/equation_systems</text>
<text text-anchor="middle" x="1240.0997" y="-331.5" font-family="Helvetica,sans-Serif" font-size="10.00" fill="#000000">/DiffusionOps.H</text>
</a>
</g>
</g>
<!-- Node40&#45;&gt;Node51 -->
<g id="edge106" class="edge">
<title>Node40&#45;&gt;Node51</title>
<path fill="none" stroke="#191970" d="M928.9809,-394.2112C994.4008,-382.7069 1092.0604,-365.5332 1160.4665,-353.5037"/>
<polygon fill="#191970" stroke="#191970" points="1161.097,-356.9467 1170.3396,-351.7675 1159.8845,-350.0524 1161.097,-356.9467"/>
</g>
<!-- Node41&#45;&gt;Node15 -->
<g id="edge73" class="edge">
<title>Node41&#45;&gt;Node15</title>
<path fill="none" stroke="#191970" d="M970.5879,-195.9746C979.5225,-193.7961 989.125,-191.6416 998.0997,-190 1118.2366,-168.0252 1259.2496,-153.0424 1344.842,-145.1292"/>
<polygon fill="#191970" stroke="#191970" points="1345.361,-148.5965 1355.0002,-144.1993 1344.7227,-141.6256 1345.361,-148.5965"/>
</g>
<!-- Node41&#45;&gt;Node26 -->
<g id="edge71" class="edge">
<title>Node41&#45;&gt;Node26</title>
<path fill="none" stroke="#191970" d="M969.2166,-195.988C978.52,-193.7013 988.6424,-191.4914 998.0997,-190 1219.053,-155.1548 1277.8715,-179.4796 1500.0997,-154 1689.6406,-132.2681 1737.1523,-125.0617 1924.0997,-87 1929.3998,-85.9209 1934.9297,-84.6907 1940.4096,-83.4061"/>
<polygon fill="#191970" stroke="#191970" points="1941.2578,-86.802 1950.1591,-81.0559 1939.6173,-79.9969 1941.2578,-86.802"/>
</g>
<!-- Node41&#45;&gt;Node31 -->
<g id="edge72" class="edge">
<title>Node41&#45;&gt;Node31</title>
<path fill="none" stroke="#191970" d="M968.1915,-195.9339C977.7607,-193.557 988.2752,-191.3146 998.0997,-190 1317.7938,-147.2207 2131.3693,-209.5143 2449.0997,-154 2529.8865,-139.8848 2620.2162,-104.5785 2666.3459,-85.039"/>
<polygon fill="#191970" stroke="#191970" points="2667.9492,-88.16 2675.7651,-81.0071 2665.1946,-81.7247 2667.9492,-88.16"/>
</g>
<!-- Node41&#45;&gt;Node42 -->
<g id="edge74" class="edge">
<title>Node41&#45;&gt;Node42</title>
<path fill="none" stroke="#191970" d="M880.903,-198.8617C783.9727,-186.989 580.5336,-162.0705 467.7118,-148.2514"/>
<polygon fill="#191970" stroke="#191970" points="468.101,-144.773 457.7496,-147.0312 467.2499,-151.7211 468.101,-144.773"/>
</g>
<!-- Node44 -->
<g id="node40" class="node">
<title>Node44</title>
<g id="a_node40"><a xlink:href="_physics_8_h.html" target="_top" xlink:title="amr&#45;wind/core/Physics.H">
<polygon fill="#ffffff" stroke="#000000" points="873.5997,-129 873.5997,-148 1000.5997,-148 1000.5997,-129 873.5997,-129"/>
<text text-anchor="middle" x="937.0997" y="-136" font-family="Helvetica,sans-Serif" font-size="10.00" fill="#000000">amr&#45;wind/core/Physics.H</text>
</a>
</g>
</g>
<!-- Node41&#45;&gt;Node44 -->
<g id="edge84" class="edge">
<title>Node41&#45;&gt;Node44</title>
<path fill="none" stroke="#191970" d="M935.3862,-195.9005C935.6773,-186.149 936.1367,-170.7597 936.5066,-158.3695"/>
<polygon fill="#191970" stroke="#191970" points="940.0136,-158.1817 936.8137,-148.0817 933.0167,-157.9727 940.0136,-158.1817"/>
</g>
<!-- Node42&#45;&gt;Node2 -->
<g id="edge75" class="edge">
<title>Node42&#45;&gt;Node2</title>
<path fill="none" stroke="#191970" d="M457.8756,-134.611C517.358,-129.2922 604.0895,-116.7153 674.0997,-87 695.7868,-77.7951 696.5609,-67.5422 717.0997,-56 742.5653,-41.689 773.3768,-29.0819 795.7351,-20.7023"/>
<polygon fill="#191970" stroke="#191970" points="797.1877,-23.8972 805.3634,-17.1587 794.7699,-17.328 797.1877,-23.8972"/>
</g>
<!-- Node42&#45;&gt;Node5 -->
<g id="edge76" class="edge">
<title>Node42&#45;&gt;Node5</title>
<path fill="none" stroke="#191970" d="M362.5158,-123.4639C343.6466,-112.3741 318.0975,-97.3584 299.3158,-86.32"/>
<polygon fill="#191970" stroke="#191970" points="300.8354,-83.1534 290.4407,-81.1039 297.2885,-89.1883 300.8354,-83.1534"/>
</g>
<!-- Node42&#45;&gt;Node11 -->
<g id="edge82" class="edge">
<title>Node42&#45;&gt;Node11</title>
<path fill="none" stroke="#191970" d="M457.7518,-133.9451C630.8929,-122.5419 1067.9198,-93.2325 1082.0997,-87 1100.5218,-78.9029 1096.9646,-64.721 1115.0997,-56 1154.45,-37.0767 1263.9659,-24.197 1344.1707,-16.9845"/>
<polygon fill="#191970" stroke="#191970" points="1344.64,-20.4568 1354.2931,-16.0902 1344.0239,-13.484 1344.64,-20.4568"/>
</g>
<!-- Node42&#45;&gt;Node19 -->
<g id="edge83" class="edge">
<title>Node42&#45;&gt;Node19</title>
<path fill="none" stroke="#191970" d="M318.5864,-125.7036C273.4263,-116.1987 219.7843,-102.2791 202.0997,-87 185.0464,-72.2665 176.2007,-47.3406 171.8625,-29.8494"/>
<polygon fill="#191970" stroke="#191970" points="175.1788,-28.6311 169.6217,-19.6106 168.3407,-30.1277 175.1788,-28.6311"/>
</g>
<!-- Node42&#45;&gt;Node29 -->
<g id="edge81" class="edge">
<title>Node42&#45;&gt;Node29</title>
<path fill="none" stroke="#191970" d="M320.1006,-123.4639C273.4968,-113.1588 211.5625,-99.4637 162.9759,-88.7202"/>
<polygon fill="#191970" stroke="#191970" points="163.6533,-85.2855 153.1334,-86.5438 162.1419,-92.1204 163.6533,-85.2855"/>
</g>
<!-- Node43 -->
<g id="node39" class="node">
<title>Node43</title>
<g id="a_node39"><a xlink:href="_coll_mgr_8_h.html" target="_top" xlink:title="amr&#45;wind/core/CollMgr.H">
<polygon fill="#ffffff" stroke="#ff0000" points="393.5997,-62 393.5997,-81 518.5997,-81 518.5997,-62 393.5997,-62"/>
<text text-anchor="middle" x="456.0997" y="-69" font-family="Helvetica,sans-Serif" font-size="10.00" fill="#000000">amr&#45;wind/core/CollMgr.H</text>
</a>
</g>
</g>
<!-- Node42&#45;&gt;Node43 -->
<g id="edge77" class="edge">
<title>Node42&#45;&gt;Node43</title>
<path fill="none" stroke="#191970" d="M403.5299,-123.2967C414.1246,-112.8578 428.1896,-98.9997 439.1051,-88.2446"/>
<polygon fill="#191970" stroke="#191970" points="441.7353,-90.5666 446.4021,-81.055 436.8223,-85.5804 441.7353,-90.5666"/>
</g>
<!-- Node43&#45;&gt;Node2 -->
<g id="edge78" class="edge">
<title>Node43&#45;&gt;Node2</title>
<path fill="none" stroke="#191970" d="M513.5062,-61.9581C592.9446,-48.7542 733.5799,-25.3783 795.4442,-15.0954"/>
<polygon fill="#191970" stroke="#191970" points="796.0722,-18.5392 805.363,-13.4468 794.9244,-11.6339 796.0722,-18.5392"/>
</g>
<!-- Node43&#45;&gt;Node6 -->
<g id="edge79" class="edge">
<title>Node43&#45;&gt;Node6</title>
<path fill="none" stroke="#191970" d="M456.0997,-61.8906C456.0997,-53.3657 456.0997,-40.6392 456.0997,-29.9235"/>
<polygon fill="#191970" stroke="#191970" points="459.5998,-29.7448 456.0997,-19.7449 452.5998,-29.7449 459.5998,-29.7448"/>
</g>
<!-- Node43&#45;&gt;Node7 -->
<g id="edge80" class="edge">
<title>Node43&#45;&gt;Node7</title>
<path fill="none" stroke="#191970" d="M470.0059,-61.8906C484.1135,-52.1421 506.1721,-36.8994 522.7382,-25.4521"/>
<polygon fill="#191970" stroke="#191970" points="525.0539,-28.1063 531.2911,-19.5419 521.0744,-22.3474 525.0539,-28.1063"/>
</g>
<!-- Node44&#45;&gt;Node5 -->
<g id="edge85" class="edge">
<title>Node44&#45;&gt;Node5</title>
<path fill="none" stroke="#191970" d="M873.2944,-132.9395C748.7609,-122.0235 477.3553,-97.9065 384.0997,-87 372.1276,-85.5998 359.4447,-83.9595 347.1118,-82.2796"/>
<polygon fill="#191970" stroke="#191970" points="347.2424,-78.7646 336.8577,-80.8637 346.2849,-85.6988 347.2424,-78.7646"/>
</g>
<!-- Node44&#45;&gt;Node13 -->
<g id="edge87" class="edge">
<title>Node44&#45;&gt;Node13</title>
<path fill="none" stroke="#191970" d="M1001.001,-137.2518C1127.7309,-134.0203 1406.236,-122.9368 1494.0997,-87 1514.2734,-78.7488 1512.6207,-65.7792 1532.0997,-56 1553.9423,-45.0341 1612.4941,-31.2236 1657.541,-21.6102"/>
<polygon fill="#191970" stroke="#191970" points="1658.4479,-24.9959 1667.5082,-19.5041 1657.0006,-18.1472 1658.4479,-24.9959"/>
</g>
<!-- Node44&#45;&gt;Node39 -->
<g id="edge88" class="edge">
<title>Node44&#45;&gt;Node39</title>
<path fill="none" stroke="#191970" d="M985.856,-128.9291C1037.0372,-118.8085 1119.8176,-102.231 1191.0997,-87 1196.5777,-85.8295 1202.2948,-84.5839 1207.9917,-83.3271"/>
<polygon fill="#191970" stroke="#191970" points="1209.1653,-86.6518 1218.1684,-81.0667 1207.6474,-79.8184 1209.1653,-86.6518"/>
</g>
<!-- Node44&#45;&gt;Node43 -->
<g id="edge86" class="edge">
<title>Node44&#45;&gt;Node43</title>
<path fill="none" stroke="#191970" d="M873.5681,-131.83C793.8172,-123.1293 652.9339,-106.6731 533.0997,-87 525.8838,-85.8154 518.3124,-84.4469 510.8509,-83.0237"/>
<polygon fill="#191970" stroke="#191970" points="511.2732,-79.5401 500.7881,-81.0609 509.9331,-86.4107 511.2732,-79.5401"/>
</g>
<!-- Node45&#45;&gt;Node12 -->
<g id="edge91" class="edge">
<title>Node45&#45;&gt;Node12</title>
<path fill="none" stroke="#191970" d="M1064.9355,-259.2526C1070.3941,-258.4193 1075.8302,-257.6542 1081.0997,-257 1196.7093,-242.6466 1493.7345,-258.298 1604.0997,-221 1627.8059,-212.9884 1628.1509,-199.9762 1651.0997,-190 1713.579,-162.8392 1745.4735,-194.7107 1800.0997,-154 1821.413,-138.116 1834.8626,-109.7459 1841.9351,-90.7739"/>
<polygon fill="#191970" stroke="#191970" points="1845.3213,-91.692 1845.2958,-81.0972 1838.7087,-89.3954 1845.3213,-91.692"/>
</g>
<!-- Node45&#45;&gt;Node28 -->
<g id="edge92" class="edge">
<title>Node45&#45;&gt;Node28</title>
<path fill="none" stroke="#191970" d="M1064.9319,-259.2233C1070.3914,-258.3966 1075.8286,-257.6411 1081.0997,-257 1330.439,-226.674 1395.8238,-251.8437 1645.0997,-221 1646.5714,-220.8179 1648.0563,-220.6264 1649.5512,-220.4264"/>
<polygon fill="#191970" stroke="#191970" points="1650.1246,-223.8801 1659.5263,-218.9955 1649.1306,-216.951 1650.1246,-223.8801"/>
</g>
<!-- Node45&#45;&gt;Node41 -->
<g id="edge100" class="edge">
<title>Node45&#45;&gt;Node41</title>
<path fill="none" stroke="#191970" d="M981.4847,-257.2967C972.2272,-246.9591 959.9669,-233.2684 950.3762,-222.5588"/>
<polygon fill="#191970" stroke="#191970" points="952.9349,-220.1696 943.6564,-215.055 947.7203,-224.8394 952.9349,-220.1696"/>
</g>
<!-- Node46 -->
<g id="node42" class="node">
<title>Node46</title>
<g id="a_node42"><a xlink:href="_turbulence_model_8_h.html" target="_top" xlink:title="amr&#45;wind/turbulence\l/TurbulenceModel.H">
<polygon fill="#ffffff" stroke="#000000" points="637.0997,-123.5 637.0997,-153.5 741.0997,-153.5 741.0997,-123.5 637.0997,-123.5"/>
<text text-anchor="start" x="645.0997" y="-141.5" font-family="Helvetica,sans-Serif" font-size="10.00" fill="#000000">amr&#45;wind/turbulence</text>
<text text-anchor="middle" x="689.0997" y="-130.5" font-family="Helvetica,sans-Serif" font-size="10.00" fill="#000000">/TurbulenceModel.H</text>
</a>
</g>
</g>
<!-- Node45&#45;&gt;Node46 -->
<g id="edge93" class="edge">
<title>Node45&#45;&gt;Node46</title>
<path fill="none" stroke="#191970" d="M925.2298,-262.1783C885.1065,-254.4461 834.6065,-241.5711 793.0997,-221 761.7444,-205.4601 730.9965,-179.3301 711.1667,-160.6401"/>
<polygon fill="#191970" stroke="#191970" points="713.5078,-158.0356 703.8712,-153.6326 708.6587,-163.0841 713.5078,-158.0356"/>
</g>
<!-- Node47 -->
<g id="node43" class="node">
<title>Node47</title>
<g id="a_node43"><a xlink:href="_i_o_manager_8_h.html" target="_top" xlink:title="amr&#45;wind/utilities\l/IOManager.H">
<polygon fill="#ffffff" stroke="#ff0000" points="575.0997,-56.5 575.0997,-86.5 665.0997,-86.5 665.0997,-56.5 575.0997,-56.5"/>
<text text-anchor="start" x="583.0997" y="-74.5" font-family="Helvetica,sans-Serif" font-size="10.00" fill="#000000">amr&#45;wind/utilities</text>
<text text-anchor="middle" x="620.0997" y="-63.5" font-family="Helvetica,sans-Serif" font-size="10.00" fill="#000000">/IOManager.H</text>
</a>
</g>
</g>
<!-- Node45&#45;&gt;Node47 -->
<g id="edge97" class="edge">
<title>Node45&#45;&gt;Node47</title>
<path fill="none" stroke="#191970" d="M950.9753,-257.4668C926.8784,-248.4196 896.9701,-235.7943 872.0997,-221 812.3263,-185.4434 810.214,-157.9771 750.0997,-123 726.5864,-109.319 698.7487,-97.7472 674.8778,-89.0596"/>
<polygon fill="#191970" stroke="#191970" points="675.8535,-85.6918 665.2588,-85.635 673.5056,-92.2864 675.8535,-85.6918"/>
</g>
<!-- Node49 -->
<g id="node44" class="node">
<title>Node49</title>
<polygon fill="#ffffff" stroke="#bfbfbf" points="1007.0997,-196 1007.0997,-215 1123.0997,-215 1123.0997,-196 1007.0997,-196"/>
<text text-anchor="middle" x="1065.0997" y="-203" font-family="Helvetica,sans-Serif" font-size="10.00" fill="#000000">AMReX_ParmParse.H</text>
</g>
<!-- Node45&#45;&gt;Node49 -->
<g id="edge101" class="edge">
<title>Node45&#45;&gt;Node49</title>
<path fill="none" stroke="#191970" d="M1010.9838,-257.2967C1021.8901,-246.8578 1036.3687,-232.9997 1047.6053,-222.2446"/>
<polygon fill="#191970" stroke="#191970" points="1050.3128,-224.498 1055.1169,-215.055 1045.4726,-219.4411 1050.3128,-224.498"/>
</g>
<!-- Node46&#45;&gt;Node5 -->
<g id="edge95" class="edge">
<title>Node46&#45;&gt;Node5</title>
<path fill="none" stroke="#191970" d="M636.9611,-125.752C632.2862,-124.7616 627.6149,-123.8269 623.0997,-123 503.1514,-101.0332 471.3843,-107.0434 351.0997,-87 343.8867,-85.7981 336.3169,-84.4196 328.8563,-82.9912"/>
<polygon fill="#191970" stroke="#191970" points="329.2798,-79.5078 318.7941,-81.0244 327.9369,-86.3778 329.2798,-79.5078"/>
</g>
<!-- Node46&#45;&gt;Node7 -->
<g id="edge94" class="edge">
<title>Node46&#45;&gt;Node7</title>
<path fill="none" stroke="#191970" d="M636.9448,-125.8391C632.2733,-124.8301 627.6073,-123.8673 623.0997,-123 570.3569,-112.8518 419.1361,-127.7092 384.0997,-87 375.1121,-76.5573 375.8028,-66.9995 384.0997,-56 390.9148,-46.965 449.0117,-31.901 493.4802,-21.4858"/>
<polygon fill="#191970" stroke="#191970" points="494.3568,-24.8755 503.3078,-19.2071 492.7756,-18.0564 494.3568,-24.8755"/>
</g>
<!-- Node46&#45;&gt;Node11 -->
<g id="edge96" class="edge">
<title>Node46&#45;&gt;Node11</title>
<path fill="none" stroke="#191970" d="M741.122,-133.8199C838.6278,-124.782 1045.3208,-104.2917 1115.0997,-87 1152.5144,-77.7284 1159.0273,-66.5578 1196.0997,-56 1250.0015,-40.6494 1312.1822,-28.8923 1359.7441,-21.1077"/>
<polygon fill="#191970" stroke="#191970" points="1360.3486,-24.5555 1369.6632,-19.507 1359.2333,-17.645 1360.3486,-24.5555"/>
</g>
<!-- Node47&#45;&gt;Node2 -->
<g id="edge98" class="edge">
<title>Node47&#45;&gt;Node2</title>
<path fill="none" stroke="#191970" d="M665.3072,-58.0036C704.8058,-46.2115 761.0691,-29.4145 795.4987,-19.1357"/>
<polygon fill="#191970" stroke="#191970" points="796.8593,-22.3823 805.4401,-16.1678 794.8568,-15.6748 796.8593,-22.3823"/>
</g>
<!-- Node47&#45;&gt;Node7 -->
<g id="edge99" class="edge">
<title>Node47&#45;&gt;Node7</title>
<path fill="none" stroke="#191970" d="M601.5603,-56.2977C590.4989,-47.2274 576.4506,-35.7077 565.1344,-26.4285"/>
<polygon fill="#191970" stroke="#191970" points="567.0601,-23.4813 557.1081,-19.8469 562.6215,-28.8942 567.0601,-23.4813"/>
</g>
<!-- Node50&#45;&gt;Node19 -->
<g id="edge103" class="edge">
<title>Node50&#45;&gt;Node19</title>
<path fill="none" stroke="#191970" d="M691.4258,-327.1101C520.0212,-295.0347 85.972,-203.5864 6.0997,-87 -1.6872,-75.6338 -2.2062,-66.9927 6.0997,-56 17.5062,-40.9036 58.7907,-29.3137 96.8248,-21.5435"/>
<polygon fill="#191970" stroke="#191970" points="97.7861,-24.9214 106.9196,-19.5522 96.4313,-18.0538 97.7861,-24.9214"/>
</g>
<!-- Node50&#45;&gt;Node27 -->
<g id="edge105" class="edge">
<title>Node50&#45;&gt;Node27</title>
<path fill="none" stroke="#191970" d="M761.0997,-324.2967C761.0997,-316.5013 761.0997,-306.7991 761.0997,-297.9064"/>
<polygon fill="#191970" stroke="#191970" points="764.5998,-297.6431 761.0997,-287.6432 757.5998,-297.6432 764.5998,-297.6431"/>
</g>
<!-- Node50&#45;&gt;Node45 -->
<g id="edge104" class="edge">
<title>Node50&#45;&gt;Node45</title>
<path fill="none" stroke="#191970" d="M813.6138,-324.4639C848.8668,-314.3701 895.4785,-301.024 932.6363,-290.3848"/>
<polygon fill="#191970" stroke="#191970" points="933.7062,-293.7192 942.3565,-287.6017 931.7793,-286.9896 933.7062,-293.7192"/>
</g>
<!-- Node51&#45;&gt;Node1 -->
<g id="edge111" class="edge">
<title>Node51&#45;&gt;Node1</title>
<path fill="none" stroke="#191970" d="M1170.2311,-335.3962C1066.2045,-328.767 864.3075,-313.9058 683.7239,-288.1526"/>
<polygon fill="#191970" stroke="#191970" points="684.1756,-284.6816 673.7787,-286.72 683.1775,-291.6101 684.1756,-284.6816"/>
</g>
<!-- Node51&#45;&gt;Node26 -->
<g id="edge120" class="edge">
<title>Node51&#45;&gt;Node26</title>
<path fill="none" stroke="#191970" d="M1309.88,-334.6221C1400.3778,-327.6263 1562.8946,-312.7795 1700.0997,-288 1820.4977,-266.2559 1885.9061,-312.521 1967.0997,-221 1999.2651,-184.7433 1994.8278,-122.6748 1989.9185,-91.1367"/>
<polygon fill="#191970" stroke="#191970" points="1993.3177,-90.2551 1988.1553,-81.0031 1986.4214,-91.455 1993.3177,-90.2551"/>
</g>
<!-- Node51&#45;&gt;Node27 -->
<g id="edge112" class="edge">
<title>Node51&#45;&gt;Node27</title>
<path fill="none" stroke="#191970" d="M1170.449,-329.7576C1082.9153,-317.5139 933.0171,-296.5469 840.9396,-283.6676"/>
<polygon fill="#191970" stroke="#191970" points="841.2229,-280.1732 830.8344,-282.2541 840.2532,-287.1057 841.2229,-280.1732"/>
</g>
<!-- Node51&#45;&gt;Node28 -->
<g id="edge114" class="edge">
<title>Node51&#45;&gt;Node28</title>
<path fill="none" stroke="#191970" d="M1254.8664,-324.3005C1274.5957,-305.0438 1311.5644,-272.5018 1350.0997,-257 1472.6399,-207.7049 1514.5378,-240.9933 1645.0997,-221 1646.5655,-220.7755 1648.0451,-220.5449 1649.5349,-220.3091"/>
<polygon fill="#191970" stroke="#191970" points="1650.1782,-223.7505 1659.4832,-218.6841 1649.0497,-216.842 1650.1782,-223.7505"/>
</g>
<!-- Node51&#45;&gt;Node45 -->
<g id="edge113" class="edge">
<title>Node51&#45;&gt;Node45</title>
<path fill="none" stroke="#191970" d="M1185.1169,-324.4639C1148.0497,-314.3272 1098.9883,-300.9104 1060.0032,-290.2491"/>
<polygon fill="#191970" stroke="#191970" points="1060.8914,-286.8636 1050.3223,-287.6017 1059.0448,-293.6156 1060.8914,-286.8636"/>
</g>
<!-- Node52 -->
<g id="node47" class="node">
<title>Node52</title>
<g id="a_node47"><a xlink:href="_m_l_m_g_options_8_h.html" target="_top" xlink:title="amr&#45;wind/core/MLMGOptions.H">
<polygon fill="#ffffff" stroke="#ff0000" points="1089.5997,-263 1089.5997,-282 1244.5997,-282 1244.5997,-263 1089.5997,-263"/>
<text text-anchor="middle" x="1167.0997" y="-270" font-family="Helvetica,sans-Serif" font-size="10.00" fill="#000000">amr&#45;wind/core/MLMGOptions.H</text>
</a>
</g>
</g>
<!-- Node51&#45;&gt;Node52 -->
<g id="edge107" class="edge">
<title>Node51&#45;&gt;Node52</title>
<path fill="none" stroke="#191970" d="M1223.5348,-324.2967C1212.0507,-313.7564 1196.7685,-299.7303 1185.0035,-288.9323"/>
<polygon fill="#191970" stroke="#191970" points="1187.2443,-286.2382 1177.5103,-282.055 1182.511,-291.3954 1187.2443,-286.2382"/>
</g>
<!-- Node54 -->
<g id="node48" class="node">
<title>Node54</title>
<g id="a_node48"><a xlink:href="diffusion_8_h.html" target="_top" xlink:title="amr&#45;wind/diffusion\l/diffusion.H">
<polygon fill="#ffffff" stroke="#000000" points="1359.0997,-257.5 1359.0997,-287.5 1455.0997,-287.5 1455.0997,-257.5 1359.0997,-257.5"/>
<text text-anchor="start" x="1367.0997" y="-275.5" font-family="Helvetica,sans-Serif" font-size="10.00" fill="#000000">amr&#45;wind/diffusion</text>
<text text-anchor="middle" x="1407.0997" y="-264.5" font-family="Helvetica,sans-Serif" font-size="10.00" fill="#000000">/diffusion.H</text>
</a>
</g>
</g>
<!-- Node51&#45;&gt;Node54 -->
<g id="edge115" class="edge">
<title>Node51&#45;&gt;Node54</title>
<path fill="none" stroke="#191970" d="M1277.5777,-324.4639C1301.9874,-314.6708 1334.0279,-301.8162 1360.1338,-291.3426"/>
<polygon fill="#191970" stroke="#191970" points="1361.4805,-294.5736 1369.4581,-287.6017 1358.874,-288.0769 1361.4805,-294.5736"/>
</g>
<!-- Node55 -->
<g id="node49" class="node">
<title>Node55</title>
<polygon fill="#ffffff" stroke="#bfbfbf" points="1862.0997,-196 1862.0997,-215 1958.0997,-215 1958.0997,-196 1862.0997,-196"/>
<text text-anchor="middle" x="1910.0997" y="-203" font-family="Helvetica,sans-Serif" font-size="10.00" fill="#000000">AMReX_MLMG.H</text>
</g>
<!-- Node51&#45;&gt;Node55 -->
<g id="edge119" class="edge">
<title>Node51&#45;&gt;Node55</title>
<path fill="none" stroke="#191970" d="M1309.6789,-333.4948C1387.7511,-326.0104 1517.9037,-311.29 1628.0997,-288 1717.1834,-269.1721 1819.1364,-236.4917 1872.7037,-218.4294"/>
<polygon fill="#191970" stroke="#191970" points="1874.0953,-221.6533 1882.4414,-215.1269 1871.8471,-215.0242 1874.0953,-221.6533"/>
</g>
<!-- Node56 -->
<g id="node50" class="node">
<title>Node56</title>
<polygon fill="#ffffff" stroke="#bfbfbf" points="1473.0997,-263 1473.0997,-282 1619.0997,-282 1619.0997,-263 1473.0997,-263"/>
<text text-anchor="middle" x="1546.0997" y="-270" font-family="Helvetica,sans-Serif" font-size="10.00" fill="#000000">AMReX_MLABecLaplacian.H</text>
</g>
<!-- Node51&#45;&gt;Node56 -->
<g id="edge118" class="edge">
<title>Node51&#45;&gt;Node56</title>
<path fill="none" stroke="#191970" d="M1308.772,-324.4639C1364.4431,-312.2745 1441.7759,-295.3421 1492.8393,-284.1616"/>
<polygon fill="#191970" stroke="#191970" points="1493.6675,-287.5632 1502.6875,-282.0053 1492.1702,-280.7252 1493.6675,-287.5632"/>
</g>
<!-- Node52&#45;&gt;Node2 -->
<g id="edge108" class="edge">
<title>Node52&#45;&gt;Node2</title>
<path fill="none" stroke="#191970" d="M1165.2217,-262.981C1161.517,-246.3689 1151.8541,-211.782 1132.0997,-190 1090.2801,-143.8883 1067.2015,-145.346 1009.0997,-123 945.1094,-98.3893 911.5051,-131.2054 859.0997,-87 841.8734,-72.4692 833.4105,-47.3184 829.4135,-29.7276"/>
<polygon fill="#191970" stroke="#191970" points="832.7999,-28.8102 827.4239,-19.6807 825.9333,-30.1701 832.7999,-28.8102"/>
</g>
<!-- Node52&#45;&gt;Node32 -->
<g id="edge109" class="edge">
<title>Node52&#45;&gt;Node32</title>
<path fill="none" stroke="#191970" d="M1245.0077,-265.7965C1277.4945,-263.0285 1315.6196,-259.8153 1350.0997,-257 1451.8528,-248.6918 1711.8807,-255.1267 1808.0997,-221 1830.989,-212.8817 1830.0836,-197.7515 1853.0997,-190 2016.2798,-135.0433 2459.8351,-194.8724 2627.0997,-154 2696.0622,-137.1485 2733.8516,-146.8071 2772.0997,-87 2779.5227,-75.3929 2780.4654,-66.9472 2772.0997,-56 2765.0042,-46.715 2705.4943,-31.9947 2659.0751,-21.7145"/>
<polygon fill="#191970" stroke="#191970" points="2659.6119,-18.2491 2649.0944,-19.5272 2658.1133,-25.0868 2659.6119,-18.2491"/>
</g>
<!-- Node52&#45;&gt;Node49 -->
<g id="edge110" class="edge">
<title>Node52&#45;&gt;Node49</title>
<path fill="none" stroke="#191970" d="M1152.4856,-262.9005C1135.6706,-251.8554 1107.8447,-233.5776 1088.1139,-220.6172"/>
<polygon fill="#191970" stroke="#191970" points="1089.9664,-217.6465 1079.6867,-215.0817 1086.1233,-223.4972 1089.9664,-217.6465"/>
</g>
<!-- Node54&#45;&gt;Node15 -->
<g id="edge117" class="edge">
<title>Node54&#45;&gt;Node15</title>
<path fill="none" stroke="#191970" d="M1408.904,-257.389C1411.8073,-233.0735 1417.5159,-185.2644 1420.7391,-158.2698"/>
<polygon fill="#191970" stroke="#191970" points="1424.2425,-158.4486 1421.9529,-148.1042 1417.2919,-157.6186 1424.2425,-158.4486"/>
</g>
<!-- Node54&#45;&gt;Node55 -->
<g id="edge116" class="edge">
<title>Node54&#45;&gt;Node55</title>
<path fill="none" stroke="#191970" d="M1455.1686,-258.8041C1458.1787,-258.1405 1461.1734,-257.531 1464.0997,-257 1632.7608,-226.3971 1679.1333,-249.8699 1848.0997,-221 1853.9149,-220.0064 1859.9892,-218.7569 1865.964,-217.4006"/>
<polygon fill="#191970" stroke="#191970" points="1866.9448,-220.765 1875.862,-215.0436 1865.3232,-213.9554 1866.9448,-220.765"/>
</g>
</g>
</svg>
