<?xml version="1.0" encoding="UTF-8" standalone="no"?>
<!DOCTYPE svg PUBLIC "-//W3C//DTD SVG 1.1//EN"
 "http://www.w3.org/Graphics/SVG/1.1/DTD/svg11.dtd">
<!-- Generated by graphviz version 2.40.1 (20161225.0304)
 -->
<!-- Title: main.cpp Pages: 1 -->
<svg width="2671pt" height="408pt"
 viewBox="0.00 0.00 2671.00 408.00" xmlns="http://www.w3.org/2000/svg" xmlns:xlink="http://www.w3.org/1999/xlink">
<g id="graph0" class="graph" transform="scale(1 1) rotate(0) translate(4 404)">
<title>main.cpp</title>
<polygon fill="#ffffff" stroke="transparent" points="-4,4 -4,-404 2667,-404 2667,4 -4,4"/>
<!-- Node0 -->
<g id="node1" class="node">
<title>Node0</title>
<polygon fill="#bfbfbf" stroke="#000000" points="1206,-380.5 1206,-399.5 1262,-399.5 1262,-380.5 1206,-380.5"/>
<text text-anchor="middle" x="1234" y="-387.5" font-family="Helvetica,sans-Serif" font-size="10.00" fill="#000000">main.cpp</text>
</g>
<!-- Node1 -->
<g id="node2" class="node">
<title>Node1</title>
<g id="a_node2"><a xlink:href="incflo_8_h.html" target="_top" xlink:title="amr&#45;wind/incflo.H">
<polygon fill="#ffffff" stroke="#000000" points="1040.5,-319 1040.5,-338 1133.5,-338 1133.5,-319 1040.5,-319"/>
<text text-anchor="middle" x="1087" y="-326" font-family="Helvetica,sans-Serif" font-size="10.00" fill="#000000">amr&#45;wind/incflo.H</text>
</a>
</g>
</g>
<!-- Node0&#45;&gt;Node1 -->
<g id="edge1" class="edge">
<title>Node0&#45;&gt;Node1</title>
<path fill="none" stroke="#191970" d="M1211.0313,-380.3906C1186.3276,-370.0554 1146.863,-353.5447 1119.0973,-341.9284"/>
<polygon fill="#191970" stroke="#191970" points="1120.3835,-338.6727 1109.8075,-338.0419 1117.6818,-345.1303 1120.3835,-338.6727"/>
</g>
<!-- Node40 -->
<g id="node41" class="node">
<title>Node40</title>
<g id="a_node41"><a xlink:href="console__io_8_h.html" target="_top" xlink:title="amr&#45;wind/utilities\l/console_io.H">
<polygon fill="#ffffff" stroke="#000000" points="1336,-313.5 1336,-343.5 1426,-343.5 1426,-313.5 1336,-313.5"/>
<text text-anchor="start" x="1344" y="-331.5" font-family="Helvetica,sans-Serif" font-size="10.00" fill="#000000">amr&#45;wind/utilities</text>
<text text-anchor="middle" x="1381" y="-320.5" font-family="Helvetica,sans-Serif" font-size="10.00" fill="#000000">/console_io.H</text>
</a>
</g>
</g>
<!-- Node0&#45;&gt;Node40 -->
<g id="edge75" class="edge">
<title>Node0&#45;&gt;Node40</title>
<path fill="none" stroke="#191970" d="M1256.9688,-380.3906C1277.9687,-371.6049 1309.6352,-358.3567 1335.7145,-347.446"/>
<polygon fill="#191970" stroke="#191970" points="1337.1654,-350.633 1345.0398,-343.5446 1334.4637,-344.1754 1337.1654,-350.633"/>
</g>
<!-- Node2 -->
<g id="node3" class="node">
<title>Node2</title>
<polygon fill="#ffffff" stroke="#bfbfbf" points="2405,-118 2405,-137 2511,-137 2511,-118 2405,-118"/>
<text text-anchor="middle" x="2458" y="-125" font-family="Helvetica,sans-Serif" font-size="10.00" fill="#000000">AMReX_AmrCore.H</text>
</g>
<!-- Node1&#45;&gt;Node2 -->
<g id="edge2" class="edge">
<title>Node1&#45;&gt;Node2</title>
<path fill="none" stroke="#191970" d="M1133.527,-322.743C1301.794,-301.7275 1894.3719,-226.0252 2380,-143 2387.2043,-141.7683 2394.7644,-140.3832 2402.2251,-138.9609"/>
<polygon fill="#191970" stroke="#191970" points="2403.1433,-142.3481 2412.2945,-137.0091 2401.8112,-135.476 2403.1433,-142.3481"/>
</g>
<!-- Node3 -->
<g id="node4" class="node">
<title>Node3</title>
<polygon fill="#ffffff" stroke="#bfbfbf" points="1195.5,-252 1195.5,-271 1314.5,-271 1314.5,-252 1195.5,-252"/>
<text text-anchor="middle" x="1255" y="-259" font-family="Helvetica,sans-Serif" font-size="10.00" fill="#000000">AMReX_MultiFabUtil.H</text>
</g>
<!-- Node1&#45;&gt;Node3 -->
<g id="edge3" class="edge">
<title>Node1&#45;&gt;Node3</title>
<path fill="none" stroke="#191970" d="M1111.0703,-318.9005C1140.013,-307.3579 1188.7621,-287.9163 1221.4017,-274.8993"/>
<polygon fill="#191970" stroke="#191970" points="1222.9823,-278.0371 1230.9743,-271.0817 1220.3892,-271.5351 1222.9823,-278.0371"/>
</g>
<!-- Node4 -->
<g id="node5" class="node">
<title>Node4</title>
<polygon fill="#ffffff" stroke="#bfbfbf" points="164,-252 164,-271 280,-271 280,-252 164,-252"/>
<text text-anchor="middle" x="222" y="-259" font-family="Helvetica,sans-Serif" font-size="10.00" fill="#000000">AMReX_ParmParse.H</text>
</g>
<!-- Node1&#45;&gt;Node4 -->
<g id="edge4" class="edge">
<title>Node1&#45;&gt;Node4</title>
<path fill="none" stroke="#191970" d="M1040.2785,-327.8623C917.4403,-325.6684 575.4857,-316.2217 294,-277 286.5154,-275.9571 278.6491,-274.5696 270.9763,-273.0522"/>
<polygon fill="#191970" stroke="#191970" points="271.551,-269.5971 261.0495,-271.0007 270.1342,-276.4522 271.551,-269.5971"/>
</g>
<!-- Node5 -->
<g id="node6" class="node">
<title>Node5</title>
<polygon fill="#ffffff" stroke="#bfbfbf" points="2301.5,-56.5 2301.5,-75.5 2408.5,-75.5 2408.5,-56.5 2301.5,-56.5"/>
<text text-anchor="middle" x="2355" y="-63.5" font-family="Helvetica,sans-Serif" font-size="10.00" fill="#000000">AMReX_iMultiFab.H</text>
</g>
<!-- Node1&#45;&gt;Node5 -->
<g id="edge5" class="edge">
<title>Node1&#45;&gt;Node5</title>
<path fill="none" stroke="#191970" d="M1133.5168,-324.6616C1225.3304,-316.9272 1436.2807,-298.3713 1613,-277 2017.5393,-228.0775 2254.3311,-451.9749 2520,-143 2553.4128,-104.1407 2478.3325,-83.6186 2418.7732,-73.7928"/>
<polygon fill="#191970" stroke="#191970" points="2419.039,-70.2916 2408.6163,-72.1935 2417.9501,-77.2064 2419.039,-70.2916"/>
</g>
<!-- Node6 -->
<g id="node7" class="node">
<title>Node6</title>
<polygon fill="#ffffff" stroke="#bfbfbf" points="336.5,-252 336.5,-271 467.5,-271 467.5,-252 336.5,-252"/>
<text text-anchor="middle" x="402" y="-259" font-family="Helvetica,sans-Serif" font-size="10.00" fill="#000000">AMReX_NodalProjector.H</text>
</g>
<!-- Node1&#45;&gt;Node6 -->
<g id="edge6" class="edge">
<title>Node1&#45;&gt;Node6</title>
<path fill="none" stroke="#191970" d="M1040.1281,-326.2137C938.2184,-320.8698 688.9933,-305.7792 482,-277 473.7414,-275.8518 465.0453,-274.4107 456.5507,-272.8725"/>
<polygon fill="#191970" stroke="#191970" points="457.1825,-269.43 446.7097,-271.0338 455.8968,-276.3109 457.1825,-269.43"/>
</g>
<!-- Node7 -->
<g id="node8" class="node">
<title>Node7</title>
<g id="a_node8"><a xlink:href="incflo__enums_8_h.html" target="_top" xlink:title="amr&#45;wind/incflo_enums.H">
<polygon fill="#ffffff" stroke="#000000" points="422,-56.5 422,-75.5 550,-75.5 550,-56.5 422,-56.5"/>
<text text-anchor="middle" x="486" y="-63.5" font-family="Helvetica,sans-Serif" font-size="10.00" fill="#000000">amr&#45;wind/incflo_enums.H</text>
</a>
</g>
</g>
<!-- Node1&#45;&gt;Node7 -->
<g id="edge7" class="edge">
<title>Node1&#45;&gt;Node7</title>
<path fill="none" stroke="#191970" d="M1049.5344,-318.9621C1011.6288,-309.1297 951.4426,-293.0167 900,-277 727.0117,-223.1397 644.7205,-269.4851 515,-143 499.3111,-127.7024 492.0115,-103.0905 488.6805,-85.8195"/>
<polygon fill="#191970" stroke="#191970" points="492.093,-85.0011 487.0164,-75.7018 485.1858,-86.1373 492.093,-85.0011"/>
</g>
<!-- Node8 -->
<g id="node9" class="node">
<title>Node8</title>
<g id="a_node9"><a xlink:href="_c_f_d_sim_8_h.html" target="_top" xlink:title="amr&#45;wind/CFDSim.H">
<polygon fill="#ffffff" stroke="#000000" points="909,-252 909,-271 1017,-271 1017,-252 909,-252"/>
<text text-anchor="middle" x="963" y="-259" font-family="Helvetica,sans-Serif" font-size="10.00" fill="#000000">amr&#45;wind/CFDSim.H</text>
</a>
</g>
</g>
<!-- Node1&#45;&gt;Node8 -->
<g id="edge8" class="edge">
<title>Node1&#45;&gt;Node8</title>
<path fill="none" stroke="#191970" d="M1069.2338,-318.9005C1048.4238,-307.6564 1013.7412,-288.9166 989.6913,-275.9219"/>
<polygon fill="#191970" stroke="#191970" points="991.1949,-272.7561 980.7332,-271.0817 987.8673,-278.9147 991.1949,-272.7561"/>
</g>
<!-- Node9 -->
<g id="node10" class="node">
<title>Node9</title>
<g id="a_node10"><a xlink:href="_sim_time_8_h.html" target="_top" xlink:title="amr&#45;wind/core/SimTime.H">
<polygon fill="#ffffff" stroke="#000000" points="237.5,-185 237.5,-204 368.5,-204 368.5,-185 237.5,-185"/>
<text text-anchor="middle" x="303" y="-192" font-family="Helvetica,sans-Serif" font-size="10.00" fill="#000000">amr&#45;wind/core/SimTime.H</text>
</a>
</g>
</g>
<!-- Node1&#45;&gt;Node9 -->
<g id="edge72" class="edge">
<title>Node1&#45;&gt;Node9</title>
<path fill="none" stroke="#191970" d="M1040.2938,-326.8028C879.1664,-320.7582 354.881,-299.4395 327,-277 308.3491,-261.9891 303.651,-233.3722 302.7413,-214.1102"/>
<polygon fill="#191970" stroke="#191970" points="306.2393,-213.9616 302.5666,-204.0237 299.2404,-214.0828 306.2393,-213.9616"/>
</g>
<!-- Node13 -->
<g id="node14" class="node">
<title>Node13</title>
<g id="a_node14"><a xlink:href="_field_repo_8_h.html" target="_top" xlink:title="amr&#45;wind/core/FieldRepo.H">
<polygon fill="#ffffff" stroke="#000000" points="1223,-185 1223,-204 1359,-204 1359,-185 1223,-185"/>
<text text-anchor="middle" x="1291" y="-192" font-family="Helvetica,sans-Serif" font-size="10.00" fill="#000000">amr&#45;wind/core/FieldRepo.H</text>
</a>
</g>
</g>
<!-- Node1&#45;&gt;Node13 -->
<g id="edge73" class="edge">
<title>Node1&#45;&gt;Node13</title>
<path fill="none" stroke="#191970" d="M1098.2674,-318.9567C1122.3887,-298.5626 1177.6022,-252.0875 1187,-246 1209.8765,-231.1816 1237.6173,-217.6431 1258.6931,-208.1698"/>
<polygon fill="#191970" stroke="#191970" points="1260.1361,-211.3588 1267.8662,-204.1133 1257.305,-204.9568 1260.1361,-211.3588"/>
</g>
<!-- Node39 -->
<g id="node40" class="node">
<title>Node39</title>
<g id="a_node40"><a xlink:href="incflo__prob___i_8_h.html" target="_top" xlink:title="amr&#45;wind/prob/incflo\l_prob_I.H">
<polygon fill="#ffffff" stroke="#000000" points="1035,-246.5 1035,-276.5 1139,-276.5 1139,-246.5 1035,-246.5"/>
<text text-anchor="start" x="1043" y="-264.5" font-family="Helvetica,sans-Serif" font-size="10.00" fill="#000000">amr&#45;wind/prob/incflo</text>
<text text-anchor="middle" x="1087" y="-253.5" font-family="Helvetica,sans-Serif" font-size="10.00" fill="#000000">_prob_I.H</text>
</a>
</g>
</g>
<!-- Node1&#45;&gt;Node39 -->
<g id="edge74" class="edge">
<title>Node1&#45;&gt;Node39</title>
<path fill="none" stroke="#191970" d="M1087,-318.9005C1087,-310.5099 1087,-297.9451 1087,-286.7085"/>
<polygon fill="#191970" stroke="#191970" points="1090.5001,-286.5217 1087,-276.5218 1083.5001,-286.5218 1090.5001,-286.5217"/>
</g>
<!-- Node8&#45;&gt;Node2 -->
<g id="edge9" class="edge">
<title>Node8&#45;&gt;Node2</title>
<path fill="none" stroke="#191970" d="M998.14,-251.9563C1007.1683,-249.7523 1016.9018,-247.5904 1026,-246 1176.5568,-219.6816 1225.2154,-264.5212 1368,-210 1390.0098,-201.5957 1388.7167,-186.6495 1411,-179 1617.1181,-108.2435 2174.972,-171.6893 2391,-143 2397.9181,-142.0813 2405.17,-140.774 2412.2426,-139.3035"/>
<polygon fill="#191970" stroke="#191970" points="2413.4059,-142.6311 2422.4168,-137.0585 2411.8975,-135.7955 2413.4059,-142.6311"/>
</g>
<!-- Node8&#45;&gt;Node9 -->
<g id="edge10" class="edge">
<title>Node8&#45;&gt;Node9</title>
<path fill="none" stroke="#191970" d="M908.9894,-256.0171C791.7453,-244.1151 513.653,-215.8845 378.8571,-202.2006"/>
<polygon fill="#191970" stroke="#191970" points="378.9215,-198.6893 368.6191,-201.1613 378.2144,-205.6535 378.9215,-198.6893"/>
</g>
<!-- Node8&#45;&gt;Node13 -->
<g id="edge14" class="edge">
<title>Node8&#45;&gt;Node13</title>
<path fill="none" stroke="#191970" d="M1000.5734,-251.9342C1008.9261,-249.8975 1017.7496,-247.8155 1026,-246 1094.6945,-230.8841 1173.9207,-215.7919 1227.7216,-205.8906"/>
<polygon fill="#191970" stroke="#191970" points="1228.593,-209.2892 1237.7974,-204.0423 1227.3299,-202.4041 1228.593,-209.2892"/>
</g>
<!-- Node29 -->
<g id="node30" class="node">
<title>Node29</title>
<g id="a_node30"><a xlink:href="_p_d_e_base_8_h.html" target="_top" xlink:title="amr&#45;wind/equation_systems\l/PDEBase.H">
<polygon fill="#ffffff" stroke="#000000" points="968.5,-179.5 968.5,-209.5 1107.5,-209.5 1107.5,-179.5 968.5,-179.5"/>
<text text-anchor="start" x="976.5" y="-197.5" font-family="Helvetica,sans-Serif" font-size="10.00" fill="#000000">amr&#45;wind/equation_systems</text>
<text text-anchor="middle" x="1038" y="-186.5" font-family="Helvetica,sans-Serif" font-size="10.00" fill="#000000">/PDEBase.H</text>
</a>
</g>
</g>
<!-- Node8&#45;&gt;Node29 -->
<g id="edge50" class="edge">
<title>Node8&#45;&gt;Node29</title>
<path fill="none" stroke="#191970" d="M973.7457,-251.9005C984.1065,-242.6448 1000.1529,-228.3101 1013.6176,-216.2816"/>
<polygon fill="#191970" stroke="#191970" points="1016.0587,-218.7941 1021.1846,-209.5218 1011.3952,-213.5738 1016.0587,-218.7941"/>
</g>
<!-- Node37 -->
<g id="node38" class="node">
<title>Node37</title>
<g id="a_node38"><a xlink:href="_physics_8_h.html" target="_top" xlink:title="amr&#45;wind/core/Physics.H">
<polygon fill="#ffffff" stroke="#000000" points="823.5,-185 823.5,-204 950.5,-204 950.5,-185 823.5,-185"/>
<text text-anchor="middle" x="887" y="-192" font-family="Helvetica,sans-Serif" font-size="10.00" fill="#000000">amr&#45;wind/core/Physics.H</text>
</a>
</g>
</g>
<!-- Node8&#45;&gt;Node37 -->
<g id="edge67" class="edge">
<title>Node8&#45;&gt;Node37</title>
<path fill="none" stroke="#191970" d="M952.1111,-251.9005C940.0338,-241.2535 920.3329,-223.8856 905.76,-211.0385"/>
<polygon fill="#191970" stroke="#191970" points="907.6846,-208.0692 897.8687,-204.0817 903.0555,-213.3201 907.6846,-208.0692"/>
</g>
<!-- Node10 -->
<g id="node11" class="node">
<title>Node10</title>
<polygon fill="#ffffff" stroke="#bfbfbf" points="128.5,-118 128.5,-137 221.5,-137 221.5,-118 128.5,-118"/>
<text text-anchor="middle" x="175" y="-125" font-family="Helvetica,sans-Serif" font-size="10.00" fill="#000000">AMReX_REAL.H</text>
</g>
<!-- Node9&#45;&gt;Node10 -->
<g id="edge11" class="edge">
<title>Node9&#45;&gt;Node10</title>
<path fill="none" stroke="#191970" d="M284.6607,-184.9005C263.0844,-173.6067 227.0609,-154.7506 202.2234,-141.7497"/>
<polygon fill="#191970" stroke="#191970" points="203.7881,-138.6183 193.3053,-137.0817 200.5418,-144.8201 203.7881,-138.6183"/>
</g>
<!-- Node11 -->
<g id="node12" class="node">
<title>Node11</title>
<polygon fill="#ffffff" stroke="#bfbfbf" points="240,-118 240,-137 366,-137 366,-118 240,-118"/>
<text text-anchor="middle" x="303" y="-125" font-family="Helvetica,sans-Serif" font-size="10.00" fill="#000000">AMReX_GpuQualifiers.H</text>
</g>
<!-- Node9&#45;&gt;Node11 -->
<g id="edge12" class="edge">
<title>Node9&#45;&gt;Node11</title>
<path fill="none" stroke="#191970" d="M303,-184.9005C303,-175.149 303,-159.7597 303,-147.3695"/>
<polygon fill="#191970" stroke="#191970" points="306.5001,-147.0816 303,-137.0817 299.5001,-147.0817 306.5001,-147.0816"/>
</g>
<!-- Node12 -->
<g id="node13" class="node">
<title>Node12</title>
<polygon fill="#ffffff" stroke="#bfbfbf" points="0,-118 0,-137 110,-137 110,-118 0,-118"/>
<text text-anchor="middle" x="55" y="-125" font-family="Helvetica,sans-Serif" font-size="10.00" fill="#000000">AMReX_Extension.H</text>
</g>
<!-- Node9&#45;&gt;Node12 -->
<g id="edge13" class="edge">
<title>Node9&#45;&gt;Node12</title>
<path fill="none" stroke="#191970" d="M267.731,-184.9717C223.7849,-173.0991 148.6141,-152.7909 100.4058,-139.7669"/>
<polygon fill="#191970" stroke="#191970" points="101.1156,-136.3332 90.5488,-137.1039 99.2899,-143.091 101.1156,-136.3332"/>
</g>
<!-- Node13&#45;&gt;Node2 -->
<g id="edge47" class="edge">
<title>Node13&#45;&gt;Node2</title>
<path fill="none" stroke="#191970" d="M1334.6474,-184.9806C1346.9899,-182.635 1360.4729,-180.3973 1373,-179 1822.9369,-128.8124 1942.1723,-202.2932 2391,-143 2397.9187,-142.086 2405.171,-140.7813 2412.2438,-139.3119"/>
<polygon fill="#191970" stroke="#191970" points="2413.4067,-142.6396 2422.418,-137.0677 2411.8989,-135.8039 2413.4067,-142.6396"/>
</g>
<!-- Node13&#45;&gt;Node5 -->
<g id="edge49" class="edge">
<title>Node13&#45;&gt;Node5</title>
<path fill="none" stroke="#191970" d="M1335.0759,-184.9214C1347.3022,-182.6055 1360.6188,-180.3976 1373,-179 1477.6337,-167.1885 2232.5669,-201.6785 2320,-143 2339.2753,-130.0639 2348.0914,-103.7417 2352.0156,-85.4988"/>
<polygon fill="#191970" stroke="#191970" points="2355.4666,-86.084 2353.8399,-75.6148 2348.5829,-84.8134 2355.4666,-86.084"/>
</g>
<!-- Node14 -->
<g id="node15" class="node">
<title>Node14</title>
<polygon fill="#ffffff" stroke="#bfbfbf" points="2100.5,-.5 2100.5,-19.5 2141.5,-19.5 2141.5,-.5 2100.5,-.5"/>
<text text-anchor="middle" x="2121" y="-7.5" font-family="Helvetica,sans-Serif" font-size="10.00" fill="#000000">string</text>
</g>
<!-- Node13&#45;&gt;Node14 -->
<g id="edge15" class="edge">
<title>Node13&#45;&gt;Node14</title>
<path fill="none" stroke="#191970" d="M1329.8116,-184.9611C1340.7989,-182.6154 1352.8132,-180.3824 1364,-179 1472.25,-165.6231 2244.1015,-184.4305 2345,-143 2365.3688,-134.6363 2409.14,-96.1579 2418,-76 2421.5767,-67.8625 2423.7844,-62.7493 2418,-56 2400.8022,-35.9335 2224.8078,-18.8177 2152.1329,-12.5502"/>
<polygon fill="#191970" stroke="#191970" points="2152.0533,-9.031 2141.7929,-11.6719 2151.4607,-16.0058 2152.0533,-9.031"/>
</g>
<!-- Node15 -->
<g id="node16" class="node">
<title>Node15</title>
<polygon fill="#ffffff" stroke="#bfbfbf" points="1186.5,-56.5 1186.5,-75.5 1269.5,-75.5 1269.5,-56.5 1186.5,-56.5"/>
<text text-anchor="middle" x="1228" y="-63.5" font-family="Helvetica,sans-Serif" font-size="10.00" fill="#000000">unordered_map</text>
</g>
<!-- Node13&#45;&gt;Node15 -->
<g id="edge16" class="edge">
<title>Node13&#45;&gt;Node15</title>
<path fill="none" stroke="#191970" d="M1290.4268,-184.7649C1289.1289,-168.7088 1284.9808,-136.0596 1272,-112 1265.9736,-100.8303 1256.4992,-90.4248 1247.8833,-82.3457"/>
<polygon fill="#191970" stroke="#191970" points="1250.1314,-79.6611 1240.3355,-75.625 1245.4764,-84.889 1250.1314,-79.6611"/>
</g>
<!-- Node16 -->
<g id="node17" class="node">
<title>Node16</title>
<g id="a_node17"><a xlink:href="_field_desc_types_8_h.html" target="_top" xlink:title="amr&#45;wind/core/FieldDescTypes.H">
<polygon fill="#ffffff" stroke="#000000" points="1779.5,-.5 1779.5,-19.5 1942.5,-19.5 1942.5,-.5 1779.5,-.5"/>
<text text-anchor="middle" x="1861" y="-7.5" font-family="Helvetica,sans-Serif" font-size="10.00" fill="#000000">amr&#45;wind/core/FieldDescTypes.H</text>
</a>
</g>
</g>
<!-- Node13&#45;&gt;Node16 -->
<g id="edge17" class="edge">
<title>Node13&#45;&gt;Node16</title>
<path fill="none" stroke="#191970" d="M1330.587,-184.9255C1341.367,-182.6389 1353.0825,-180.4448 1364,-179 1511.155,-159.5261 1894.5803,-201.5106 2031,-143 2070.8746,-125.8977 2084.8173,-115.84 2102,-76 2105.5203,-67.8379 2107.6656,-62.8493 2102,-56 2083.0079,-33.04 2012.7946,-21.4368 1953.0182,-15.6347"/>
<polygon fill="#191970" stroke="#191970" points="1953.0406,-12.1219 1942.7605,-14.6849 1952.3951,-19.0921 1953.0406,-12.1219"/>
</g>
<!-- Node17 -->
<g id="node18" class="node">
<title>Node17</title>
<g id="a_node18"><a xlink:href="_field_utils_8_h.html" target="_top" xlink:title="amr&#45;wind/core/FieldUtils.H">
<polygon fill="#ffffff" stroke="#000000" points="669.5,-56.5 669.5,-75.5 802.5,-75.5 802.5,-56.5 669.5,-56.5"/>
<text text-anchor="middle" x="736" y="-63.5" font-family="Helvetica,sans-Serif" font-size="10.00" fill="#000000">amr&#45;wind/core/FieldUtils.H</text>
</a>
</g>
</g>
<!-- Node13&#45;&gt;Node17 -->
<g id="edge18" class="edge">
<title>Node13&#45;&gt;Node17</title>
<path fill="none" stroke="#191970" d="M1222.9783,-187.4097C1137.6615,-177.9817 996.5486,-160.4673 947,-143 921.2634,-133.9271 919.0677,-122.7844 894,-112 860.1362,-97.4314 820.2686,-85.8624 789.053,-77.9705"/>
<polygon fill="#191970" stroke="#191970" points="789.789,-74.5471 779.2406,-75.5383 788.1048,-81.3415 789.789,-74.5471"/>
</g>
<!-- Node18 -->
<g id="node19" class="node">
<title>Node18</title>
<polygon fill="#ffffff" stroke="#bfbfbf" points="1029,-.5 1029,-19.5 1133,-19.5 1133,-.5 1029,-.5"/>
<text text-anchor="middle" x="1081" y="-7.5" font-family="Helvetica,sans-Serif" font-size="10.00" fill="#000000">AMReX_MultiFab.H</text>
</g>
<!-- Node13&#45;&gt;Node18 -->
<g id="edge48" class="edge">
<title>Node13&#45;&gt;Node18</title>
<path fill="none" stroke="#191970" d="M1222.7985,-188.3348C1075.9921,-175.0408 742.7676,-144.7323 737,-143 709.0066,-134.5923 705.29,-124.7732 679,-112 643.1998,-94.6062 618.7643,-109.3244 597,-76 592.1394,-68.5577 591.0193,-62.576 597,-56 624.8606,-25.366 894.3969,-14.6675 1018.732,-11.3419"/>
<polygon fill="#191970" stroke="#191970" points="1018.9595,-14.8372 1028.8652,-11.0786 1018.7776,-7.8396 1018.9595,-14.8372"/>
</g>
<!-- Node20 -->
<g id="node21" class="node">
<title>Node20</title>
<g id="a_node21"><a xlink:href="_field_8_h.html" target="_top" xlink:title="amr&#45;wind/core/Field.H">
<polygon fill="#ffffff" stroke="#000000" points="1319.5,-118 1319.5,-137 1432.5,-137 1432.5,-118 1319.5,-118"/>
<text text-anchor="middle" x="1376" y="-125" font-family="Helvetica,sans-Serif" font-size="10.00" fill="#000000">amr&#45;wind/core/Field.H</text>
</a>
</g>
</g>
<!-- Node13&#45;&gt;Node20 -->
<g id="edge22" class="edge">
<title>Node13&#45;&gt;Node20</title>
<path fill="none" stroke="#191970" d="M1303.1784,-184.9005C1316.9384,-174.0544 1339.5465,-156.2339 1355.9262,-143.3229"/>
<polygon fill="#191970" stroke="#191970" points="1358.1573,-146.0209 1363.8442,-137.0817 1353.8239,-140.5234 1358.1573,-146.0209"/>
</g>
<!-- Node26 -->
<g id="node27" class="node">
<title>Node26</title>
<g id="a_node27"><a xlink:href="_int_field_8_h.html" target="_top" xlink:title="amr&#45;wind/core/IntField.H">
<polygon fill="#ffffff" stroke="#000000" points="2187,-118 2187,-137 2311,-137 2311,-118 2187,-118"/>
<text text-anchor="middle" x="2249" y="-125" font-family="Helvetica,sans-Serif" font-size="10.00" fill="#000000">amr&#45;wind/core/IntField.H</text>
</a>
</g>
</g>
<!-- Node13&#45;&gt;Node26 -->
<g id="edge36" class="edge">
<title>Node13&#45;&gt;Node26</title>
<path fill="none" stroke="#191970" d="M1335.0824,-184.9785C1347.3087,-182.6628 1360.6237,-180.4408 1373,-179 1726.5278,-137.8435 1819.777,-186.6952 2173,-143 2181.1709,-141.9892 2189.774,-140.5771 2198.1367,-139.0131"/>
<polygon fill="#191970" stroke="#191970" points="2199.0325,-142.4042 2208.1729,-137.0467 2197.6865,-135.5348 2199.0325,-142.4042"/>
</g>
<!-- Node27 -->
<g id="node28" class="node">
<title>Node27</title>
<g id="a_node28"><a xlink:href="_scratch_field_8_h.html" target="_top" xlink:title="amr&#45;wind/core/ScratchField.H">
<polygon fill="#ffffff" stroke="#000000" points="1876,-118 1876,-137 2022,-137 2022,-118 1876,-118"/>
<text text-anchor="middle" x="1949" y="-125" font-family="Helvetica,sans-Serif" font-size="10.00" fill="#000000">amr&#45;wind/core/ScratchField.H</text>
</a>
</g>
</g>
<!-- Node13&#45;&gt;Node27 -->
<g id="edge40" class="edge">
<title>Node13&#45;&gt;Node27</title>
<path fill="none" stroke="#191970" d="M1336.3946,-184.9697C1348.265,-182.7387 1361.0765,-180.5607 1373,-179 1589.0783,-150.7167 1645.7761,-170.1475 1862,-143 1871.1668,-141.8491 1880.835,-140.382 1890.2614,-138.8111"/>
<polygon fill="#191970" stroke="#191970" points="1891.0972,-142.2189 1900.36,-137.0759 1889.9117,-135.32 1891.0972,-142.2189"/>
</g>
<!-- Node17&#45;&gt;Node16 -->
<g id="edge19" class="edge">
<title>Node17&#45;&gt;Node16</title>
<path fill="none" stroke="#191970" d="M802.621,-56.792C805.4496,-56.5039 808.2517,-56.2378 811,-56 1208.9449,-21.568 1310.1267,-41.1126 1709,-20 1728.5421,-18.9656 1749.4868,-17.6937 1769.3903,-16.408"/>
<polygon fill="#191970" stroke="#191970" points="1769.6267,-19.9001 1779.3775,-15.7562 1769.1708,-12.915 1769.6267,-19.9001"/>
</g>
<!-- Node17&#45;&gt;Node18 -->
<g id="edge20" class="edge">
<title>Node17&#45;&gt;Node18</title>
<path fill="none" stroke="#191970" d="M794.9156,-56.4369C857.3009,-46.3106 955.3662,-30.3927 1018.9251,-20.0759"/>
<polygon fill="#191970" stroke="#191970" points="1019.5089,-23.5271 1028.8189,-18.47 1018.3873,-16.6175 1019.5089,-23.5271"/>
</g>
<!-- Node19 -->
<g id="node20" class="node">
<title>Node19</title>
<polygon fill="#ffffff" stroke="#bfbfbf" points="678,-.5 678,-19.5 794,-19.5 794,-.5 678,-.5"/>
<text text-anchor="middle" x="736" y="-7.5" font-family="Helvetica,sans-Serif" font-size="10.00" fill="#000000">AMReX_Interpolater.H</text>
</g>
<!-- Node17&#45;&gt;Node19 -->
<g id="edge21" class="edge">
<title>Node17&#45;&gt;Node19</title>
<path fill="none" stroke="#191970" d="M736,-56.2455C736,-48.9382 736,-38.6944 736,-29.7046"/>
<polygon fill="#191970" stroke="#191970" points="739.5001,-29.6426 736,-19.6427 732.5001,-29.6427 739.5001,-29.6426"/>
</g>
<!-- Node20&#45;&gt;Node7 -->
<g id="edge29" class="edge">
<title>Node20&#45;&gt;Node7</title>
<path fill="none" stroke="#191970" d="M1319.4474,-118.0779C1304.09,-115.791 1287.4383,-113.5586 1272,-112 973.0931,-81.8232 896.6574,-97.4817 597,-76 585.1641,-75.1515 572.6287,-74.1356 560.4083,-73.0813"/>
<polygon fill="#191970" stroke="#191970" points="560.5071,-69.5766 550.2395,-72.1894 559.8954,-76.5499 560.5071,-69.5766"/>
</g>
<!-- Node20&#45;&gt;Node14 -->
<g id="edge23" class="edge">
<title>Node20&#45;&gt;Node14</title>
<path fill="none" stroke="#191970" d="M1432.6533,-122.0762C1514.0021,-113.9542 1668.4854,-97.2849 1799,-76 1906.8975,-58.4036 2033.6323,-30.1823 2090.5861,-17.0925"/>
<polygon fill="#191970" stroke="#191970" points="2091.4314,-20.4895 2100.3883,-14.8305 2089.8573,-13.6688 2091.4314,-20.4895"/>
</g>
<!-- Node20&#45;&gt;Node15 -->
<g id="edge25" class="edge">
<title>Node20&#45;&gt;Node15</title>
<path fill="none" stroke="#191970" d="M1352.875,-117.8906C1328.0033,-107.5554 1288.2702,-91.0447 1260.3156,-79.4284"/>
<polygon fill="#191970" stroke="#191970" points="1261.5402,-76.1472 1250.9626,-75.5419 1258.854,-82.6113 1261.5402,-76.1472"/>
</g>
<!-- Node20&#45;&gt;Node16 -->
<g id="edge30" class="edge">
<title>Node20&#45;&gt;Node16</title>
<path fill="none" stroke="#191970" d="M1432.691,-124.7C1503.2839,-119.9745 1626.9025,-107.6009 1728,-76 1768.0992,-63.4659 1811.0488,-40.1397 1836.9658,-24.8436"/>
<polygon fill="#191970" stroke="#191970" points="1838.9274,-27.7484 1845.7067,-19.6064 1835.3296,-21.7438 1838.9274,-27.7484"/>
</g>
<!-- Node20&#45;&gt;Node18 -->
<g id="edge26" class="edge">
<title>Node20&#45;&gt;Node18</title>
<path fill="none" stroke="#191970" d="M1365.8667,-117.7887C1349.155,-102.323 1314.1521,-72.1955 1279,-56 1235.8597,-36.1241 1183.3508,-24.4327 1143.2494,-17.8137"/>
<polygon fill="#191970" stroke="#191970" points="1143.7601,-14.351 1133.3347,-16.2383 1142.6615,-21.2643 1143.7601,-14.351"/>
</g>
<!-- Node21 -->
<g id="node22" class="node">
<title>Node21</title>
<polygon fill="#ffffff" stroke="#bfbfbf" points="1078,-56.5 1078,-75.5 1130,-75.5 1130,-56.5 1078,-56.5"/>
<text text-anchor="middle" x="1104" y="-63.5" font-family="Helvetica,sans-Serif" font-size="10.00" fill="#000000">memory</text>
</g>
<!-- Node20&#45;&gt;Node21 -->
<g id="edge24" class="edge">
<title>Node20&#45;&gt;Node21</title>
<path fill="none" stroke="#191970" d="M1333.7984,-117.9581C1280.7216,-105.9573 1190.4818,-85.5538 1140.3323,-74.2148"/>
<polygon fill="#191970" stroke="#191970" points="1140.7929,-70.7307 1130.2672,-71.9391 1139.2491,-77.5584 1140.7929,-70.7307"/>
</g>
<!-- Node22 -->
<g id="node23" class="node">
<title>Node22</title>
<polygon fill="#ffffff" stroke="#bfbfbf" points="1326.5,-56.5 1326.5,-75.5 1425.5,-75.5 1425.5,-56.5 1326.5,-56.5"/>
<text text-anchor="middle" x="1376" y="-63.5" font-family="Helvetica,sans-Serif" font-size="10.00" fill="#000000">AMReX_BCRec.H</text>
</g>
<!-- Node20&#45;&gt;Node22 -->
<g id="edge27" class="edge">
<title>Node20&#45;&gt;Node22</title>
<path fill="none" stroke="#191970" d="M1376,-117.8906C1376,-109.3657 1376,-96.6392 1376,-85.9235"/>
<polygon fill="#191970" stroke="#191970" points="1379.5001,-85.7448 1376,-75.7449 1372.5001,-85.7449 1379.5001,-85.7448"/>
</g>
<!-- Node23 -->
<g id="node24" class="node">
<title>Node23</title>
<polygon fill="#ffffff" stroke="#bfbfbf" points="1443.5,-56.5 1443.5,-75.5 1528.5,-75.5 1528.5,-56.5 1443.5,-56.5"/>
<text text-anchor="middle" x="1486" y="-63.5" font-family="Helvetica,sans-Serif" font-size="10.00" fill="#000000">AMReX_Gpu.H</text>
</g>
<!-- Node20&#45;&gt;Node23 -->
<g id="edge28" class="edge">
<title>Node20&#45;&gt;Node23</title>
<path fill="none" stroke="#191970" d="M1393.1875,-117.8906C1411.1082,-107.8713 1439.4095,-92.0483 1460.0523,-80.5071"/>
<polygon fill="#191970" stroke="#191970" points="1461.9128,-83.4769 1468.9332,-75.5419 1458.4967,-77.367 1461.9128,-83.4769"/>
</g>
<!-- Node24 -->
<g id="node25" class="node">
<title>Node24</title>
<g id="a_node25"><a xlink:href="_view_field_8_h.html" target="_top" xlink:title="amr&#45;wind/core/ViewField.H">
<polygon fill="#ffffff" stroke="#000000" points="1585,-56.5 1585,-75.5 1719,-75.5 1719,-56.5 1585,-56.5"/>
<text text-anchor="middle" x="1652" y="-63.5" font-family="Helvetica,sans-Serif" font-size="10.00" fill="#000000">amr&#45;wind/core/ViewField.H</text>
</a>
</g>
</g>
<!-- Node20&#45;&gt;Node24 -->
<g id="edge31" class="edge">
<title>Node20&#45;&gt;Node24</title>
<path fill="none" stroke="#191970" d="M1418.8222,-117.9581C1467.47,-107.1181 1546.885,-89.4224 1599.2958,-77.7439"/>
<polygon fill="#191970" stroke="#191970" points="1600.078,-81.1555 1609.0774,-75.5643 1598.5555,-74.3231 1600.078,-81.1555"/>
</g>
<!-- Node24&#45;&gt;Node14 -->
<g id="edge32" class="edge">
<title>Node24&#45;&gt;Node14</title>
<path fill="none" stroke="#191970" d="M1719.1963,-57.9766C1822.2799,-45.6681 2015.3636,-22.6133 2090.2331,-13.6737"/>
<polygon fill="#191970" stroke="#191970" points="2090.8824,-17.1211 2100.3969,-12.4601 2090.0525,-10.1705 2090.8824,-17.1211"/>
</g>
<!-- Node24&#45;&gt;Node16 -->
<g id="edge33" class="edge">
<title>Node24&#45;&gt;Node16</title>
<path fill="none" stroke="#191970" d="M1687.9284,-56.3733C1723.2837,-46.9001 1777.388,-32.4032 1815.6788,-22.1435"/>
<polygon fill="#191970" stroke="#191970" points="1816.787,-25.4701 1825.5405,-19.5011 1814.9753,-18.7086 1816.787,-25.4701"/>
</g>
<!-- Node24&#45;&gt;Node18 -->
<g id="edge34" class="edge">
<title>Node24&#45;&gt;Node18</title>
<path fill="none" stroke="#191970" d="M1584.834,-57.5545C1580.154,-57.0133 1575.5076,-56.4897 1571,-56 1417.4855,-39.3216 1236.5162,-23.2664 1143.3639,-15.2666"/>
<polygon fill="#191970" stroke="#191970" points="1143.5264,-11.7678 1133.2641,-14.4013 1142.9288,-18.7422 1143.5264,-11.7678"/>
</g>
<!-- Node25 -->
<g id="node26" class="node">
<title>Node25</title>
<polygon fill="#ffffff" stroke="#bfbfbf" points="1604.5,-.5 1604.5,-19.5 1699.5,-19.5 1699.5,-.5 1604.5,-.5"/>
<text text-anchor="middle" x="1652" y="-7.5" font-family="Helvetica,sans-Serif" font-size="10.00" fill="#000000">AMReX_Vector.H</text>
</g>
<!-- Node24&#45;&gt;Node25 -->
<g id="edge35" class="edge">
<title>Node24&#45;&gt;Node25</title>
<path fill="none" stroke="#191970" d="M1652,-56.2455C1652,-48.9382 1652,-38.6944 1652,-29.7046"/>
<polygon fill="#191970" stroke="#191970" points="1655.5001,-29.6426 1652,-19.6427 1648.5001,-29.6427 1655.5001,-29.6426"/>
</g>
<!-- Node26&#45;&gt;Node5 -->
<g id="edge39" class="edge">
<title>Node26&#45;&gt;Node5</title>
<path fill="none" stroke="#191970" d="M2265.5625,-117.8906C2282.7537,-107.9165 2309.8582,-92.1908 2329.7266,-80.6633"/>
<polygon fill="#191970" stroke="#191970" points="2331.6606,-83.5877 2338.5538,-75.5419 2328.1477,-77.533 2331.6606,-83.5877"/>
</g>
<!-- Node26&#45;&gt;Node14 -->
<g id="edge37" class="edge">
<title>Node26&#45;&gt;Node14</title>
<path fill="none" stroke="#191970" d="M2252.2577,-117.6633C2256.5132,-102.8221 2261.9958,-74.4799 2249,-56 2237.5516,-39.7206 2185.6848,-24.936 2151.5898,-16.7357"/>
<polygon fill="#191970" stroke="#191970" points="2152.1781,-13.2789 2141.6436,-14.4078 2150.5828,-20.0947 2152.1781,-13.2789"/>
</g>
<!-- Node26&#45;&gt;Node16 -->
<g id="edge38" class="edge">
<title>Node26&#45;&gt;Node16</title>
<path fill="none" stroke="#191970" d="M2242.0587,-117.9329C2229.9909,-102.105 2203.4945,-70.7546 2173,-56 2135.2063,-37.7137 2030.7199,-24.8281 1953.0133,-17.4351"/>
<polygon fill="#191970" stroke="#191970" points="1952.9995,-13.9187 1942.7171,-16.4726 1952.3478,-20.8883 1952.9995,-13.9187"/>
</g>
<!-- Node27&#45;&gt;Node14 -->
<g id="edge41" class="edge">
<title>Node27&#45;&gt;Node14</title>
<path fill="none" stroke="#191970" d="M1991.2447,-117.9487C2030.9593,-108.1685 2086.5498,-92.1517 2102,-76 2113.8223,-63.6409 2118.3613,-44.4115 2120.0672,-29.8907"/>
<polygon fill="#191970" stroke="#191970" points="2123.5576,-30.1505 2120.8932,-19.8961 2116.5814,-29.5739 2123.5576,-30.1505"/>
</g>
<!-- Node27&#45;&gt;Node16 -->
<g id="edge42" class="edge">
<title>Node27&#45;&gt;Node16</title>
<path fill="none" stroke="#191970" d="M1941.7986,-117.8845C1927.1018,-98.261 1893.4495,-53.3274 1874.5387,-28.0772"/>
<polygon fill="#191970" stroke="#191970" points="1877.0969,-25.6544 1868.3009,-19.7484 1871.4941,-29.8506 1877.0969,-25.6544"/>
</g>
<!-- Node27&#45;&gt;Node18 -->
<g id="edge44" class="edge">
<title>Node27&#45;&gt;Node18</title>
<path fill="none" stroke="#191970" d="M1875.8432,-124.8699C1799.4128,-120.4103 1676.8263,-108.3909 1576,-76 1557.8294,-70.1626 1556.2752,-61.5013 1538,-56 1465.6939,-34.2339 1250.2502,-19.4968 1143.0315,-13.3013"/>
<polygon fill="#191970" stroke="#191970" points="1143.1851,-9.8045 1133.0018,-12.7285 1142.7859,-16.7931 1143.1851,-9.8045"/>
</g>
<!-- Node27&#45;&gt;Node24 -->
<g id="edge43" class="edge">
<title>Node27&#45;&gt;Node24</title>
<path fill="none" stroke="#191970" d="M1902.9196,-117.9581C1850.3527,-107.073 1764.4017,-89.2751 1708.0123,-77.5985"/>
<polygon fill="#191970" stroke="#191970" points="1708.6905,-74.1648 1698.1885,-75.5643 1707.271,-81.0193 1708.6905,-74.1648"/>
</g>
<!-- Node27&#45;&gt;Node25 -->
<g id="edge45" class="edge">
<title>Node27&#45;&gt;Node25</title>
<path fill="none" stroke="#191970" d="M1924.9468,-117.984C1872.2287,-97.1275 1746.3869,-47.3416 1685.7709,-23.3605"/>
<polygon fill="#191970" stroke="#191970" points="1686.864,-20.0291 1676.2777,-19.6048 1684.2888,-26.5382 1686.864,-20.0291"/>
</g>
<!-- Node28 -->
<g id="node29" class="node">
<title>Node28</title>
<polygon fill="#ffffff" stroke="#bfbfbf" points="1965,-56.5 1965,-75.5 2093,-75.5 2093,-56.5 1965,-56.5"/>
<text text-anchor="middle" x="2029" y="-63.5" font-family="Helvetica,sans-Serif" font-size="10.00" fill="#000000">AMReX_PhysBCFunct.H</text>
</g>
<!-- Node27&#45;&gt;Node28 -->
<g id="edge46" class="edge">
<title>Node27&#45;&gt;Node28</title>
<path fill="none" stroke="#191970" d="M1961.5,-117.8906C1974.0636,-108.2324 1993.6423,-93.1812 2008.4849,-81.771"/>
<polygon fill="#191970" stroke="#191970" points="2010.7928,-84.4115 2016.5878,-75.5419 2006.5265,-78.8618 2010.7928,-84.4115"/>
</g>
<!-- Node29&#45;&gt;Node7 -->
<g id="edge66" class="edge">
<title>Node29&#45;&gt;Node7</title>
<path fill="none" stroke="#191970" d="M968.3001,-180.4143C965.4994,-179.9228 962.7245,-179.4492 960,-179 838.8117,-159.0196 800.17,-188.2884 686,-143 664.1003,-134.3129 664.1646,-122.3499 643,-112 611.7089,-96.698 574.368,-85.5003 543.9547,-77.9863"/>
<polygon fill="#191970" stroke="#191970" points="544.4657,-74.5096 533.9249,-75.5787 542.8317,-81.3163 544.4657,-74.5096"/>
</g>
<!-- Node29&#45;&gt;Node14 -->
<g id="edge51" class="edge">
<title>Node29&#45;&gt;Node14</title>
<path fill="none" stroke="#191970" d="M1107.7497,-187.6495C1140.0504,-184.659 1178.9548,-181.3142 1214,-179 1304.6684,-173.0128 1945.3961,-173.4726 2031,-143 2077.9792,-126.2767 2098.6193,-120.5626 2121,-76 2128.2229,-61.6183 2127.5202,-43.1508 2125.4144,-29.4098"/>
<polygon fill="#191970" stroke="#191970" points="2128.8507,-28.7446 2123.5494,-19.5715 2121.9732,-30.0484 2128.8507,-28.7446"/>
</g>
<!-- Node29&#45;&gt;Node16 -->
<g id="edge65" class="edge">
<title>Node29&#45;&gt;Node16</title>
<path fill="none" stroke="#191970" d="M1107.6997,-187.5027C1265.923,-170.9228 1647.6727,-126.804 1766,-76 1795.0213,-63.5397 1824.2378,-41.481 1842.4573,-26.3192"/>
<polygon fill="#191970" stroke="#191970" points="1845.1209,-28.6484 1850.469,-19.5025 1840.5847,-23.3171 1845.1209,-28.6484"/>
</g>
<!-- Node30 -->
<g id="node31" class="node">
<title>Node30</title>
<g id="a_node31"><a xlink:href="_factory_8_h.html" target="_top" xlink:title="amr&#45;wind/core/Factory.H">
<polygon fill="#ffffff" stroke="#000000" points="955.5,-118 955.5,-137 1080.5,-137 1080.5,-118 955.5,-118"/>
<text text-anchor="middle" x="1018" y="-125" font-family="Helvetica,sans-Serif" font-size="10.00" fill="#000000">amr&#45;wind/core/Factory.H</text>
</a>
</g>
</g>
<!-- Node29&#45;&gt;Node30 -->
<g id="edge52" class="edge">
<title>Node29&#45;&gt;Node30</title>
<path fill="none" stroke="#191970" d="M1033.4617,-179.2967C1030.5876,-169.6685 1026.8453,-157.1318 1023.7623,-146.8038"/>
<polygon fill="#191970" stroke="#191970" points="1027.0664,-145.636 1020.8522,-137.055 1020.3589,-147.6383 1027.0664,-145.636"/>
</g>
<!-- Node34 -->
<g id="node35" class="node">
<title>Node34</title>
<g id="a_node35"><a xlink:href="_coll_mgr_8_h.html" target="_top" xlink:title="amr&#45;wind/core/CollMgr.H">
<polygon fill="#ffffff" stroke="#000000" points="1137.5,-118 1137.5,-137 1262.5,-137 1262.5,-118 1137.5,-118"/>
<text text-anchor="middle" x="1200" y="-125" font-family="Helvetica,sans-Serif" font-size="10.00" fill="#000000">amr&#45;wind/core/CollMgr.H</text>
</a>
</g>
</g>
<!-- Node29&#45;&gt;Node34 -->
<g id="edge58" class="edge">
<title>Node29&#45;&gt;Node34</title>
<path fill="none" stroke="#191970" d="M1074.356,-179.4639C1102.2721,-167.9183 1140.4769,-152.1176 1167.407,-140.9798"/>
<polygon fill="#191970" stroke="#191970" points="1168.8754,-144.1601 1176.7786,-137.1039 1166.2,-137.6915 1168.8754,-144.1601"/>
</g>
<!-- Node35 -->
<g id="node36" class="node">
<title>Node35</title>
<g id="a_node36"><a xlink:href="_p_d_e_fields_8_h.html" target="_top" xlink:title="amr&#45;wind/equation_systems\l/PDEFields.H">
<polygon fill="#ffffff" stroke="#000000" points="746.5,-112.5 746.5,-142.5 885.5,-142.5 885.5,-112.5 746.5,-112.5"/>
<text text-anchor="start" x="754.5" y="-130.5" font-family="Helvetica,sans-Serif" font-size="10.00" fill="#000000">amr&#45;wind/equation_systems</text>
<text text-anchor="middle" x="816" y="-119.5" font-family="Helvetica,sans-Serif" font-size="10.00" fill="#000000">/PDEFields.H</text>
</a>
</g>
</g>
<!-- Node29&#45;&gt;Node35 -->
<g id="edge63" class="edge">
<title>Node29&#45;&gt;Node35</title>
<path fill="none" stroke="#191970" d="M988.1789,-179.4639C954.8761,-169.4131 910.8885,-156.1375 875.7106,-145.5208"/>
<polygon fill="#191970" stroke="#191970" points="876.6232,-142.1403 866.0384,-142.6017 874.6007,-148.8418 876.6232,-142.1403"/>
</g>
<!-- Node30&#45;&gt;Node15 -->
<g id="edge54" class="edge">
<title>Node30&#45;&gt;Node15</title>
<path fill="none" stroke="#191970" d="M1050.8125,-117.8906C1087.1822,-107.2395 1145.9478,-90.0296 1185.7363,-78.3772"/>
<polygon fill="#191970" stroke="#191970" points="1186.8047,-81.7114 1195.4179,-75.5419 1184.8373,-74.9936 1186.8047,-81.7114"/>
</g>
<!-- Node30&#45;&gt;Node21 -->
<g id="edge53" class="edge">
<title>Node30&#45;&gt;Node21</title>
<path fill="none" stroke="#191970" d="M1031.4375,-117.8906C1045.0695,-108.1421 1066.3846,-92.8994 1082.3922,-81.4521"/>
<polygon fill="#191970" stroke="#191970" points="1084.5586,-84.2057 1090.6569,-75.5419 1080.4868,-78.5118 1084.5586,-84.2057"/>
</g>
<!-- Node31 -->
<g id="node32" class="node">
<title>Node31</title>
<polygon fill="#ffffff" stroke="#bfbfbf" points="1006,-56.5 1006,-75.5 1060,-75.5 1060,-56.5 1006,-56.5"/>
<text text-anchor="middle" x="1033" y="-63.5" font-family="Helvetica,sans-Serif" font-size="10.00" fill="#000000">iostream</text>
</g>
<!-- Node30&#45;&gt;Node31 -->
<g id="edge55" class="edge">
<title>Node30&#45;&gt;Node31</title>
<path fill="none" stroke="#191970" d="M1020.3438,-117.8906C1022.4449,-109.276 1025.5925,-96.3708 1028.223,-85.5858"/>
<polygon fill="#191970" stroke="#191970" points="1031.6539,-86.2894 1030.6232,-75.7449 1024.8532,-84.6307 1031.6539,-86.2894"/>
</g>
<!-- Node32 -->
<g id="node33" class="node">
<title>Node32</title>
<polygon fill="#ffffff" stroke="#bfbfbf" points="820.5,-56.5 820.5,-75.5 907.5,-75.5 907.5,-56.5 820.5,-56.5"/>
<text text-anchor="middle" x="864" y="-63.5" font-family="Helvetica,sans-Serif" font-size="10.00" fill="#000000">AMReX_Print.H</text>
</g>
<!-- Node30&#45;&gt;Node32 -->
<g id="edge56" class="edge">
<title>Node30&#45;&gt;Node32</title>
<path fill="none" stroke="#191970" d="M993.9375,-117.8906C967.9444,-107.5103 926.3522,-90.9004 897.2453,-79.2766"/>
<polygon fill="#191970" stroke="#191970" points="898.4785,-76.0003 887.8935,-75.5419 895.8823,-82.5011 898.4785,-76.0003"/>
</g>
<!-- Node33 -->
<g id="node34" class="node">
<title>Node33</title>
<polygon fill="#ffffff" stroke="#bfbfbf" points="926,-56.5 926,-75.5 988,-75.5 988,-56.5 926,-56.5"/>
<text text-anchor="middle" x="957" y="-63.5" font-family="Helvetica,sans-Serif" font-size="10.00" fill="#000000">AMReX.H</text>
</g>
<!-- Node30&#45;&gt;Node33 -->
<g id="edge57" class="edge">
<title>Node30&#45;&gt;Node33</title>
<path fill="none" stroke="#191970" d="M1008.4688,-117.8906C999.2121,-108.5581 984.961,-94.1902 973.7997,-82.9374"/>
<polygon fill="#191970" stroke="#191970" points="976.1928,-80.38 966.6656,-75.7449 971.2228,-85.3095 976.1928,-80.38"/>
</g>
<!-- Node34&#45;&gt;Node14 -->
<g id="edge59" class="edge">
<title>Node34&#45;&gt;Node14</title>
<path fill="none" stroke="#191970" d="M1262.7389,-118.1522C1278.4755,-115.9693 1295.3387,-113.7683 1311,-112 1495.8482,-91.1295 1544.9943,-109.3669 1728,-76 1760.2519,-70.1196 1766.9246,-62.7775 1799,-56 1904.8865,-33.6263 2032.6964,-18.9713 2090.2616,-13.0174"/>
<polygon fill="#191970" stroke="#191970" points="2090.898,-16.4708 2100.4916,-11.9749 2090.1883,-9.5068 2090.898,-16.4708"/>
</g>
<!-- Node34&#45;&gt;Node15 -->
<g id="edge61" class="edge">
<title>Node34&#45;&gt;Node15</title>
<path fill="none" stroke="#191970" d="M1204.375,-117.8906C1208.3788,-109.0965 1214.4183,-95.8312 1219.3885,-84.9145"/>
<polygon fill="#191970" stroke="#191970" points="1222.6051,-86.2963 1223.5633,-75.7449 1216.2343,-83.3957 1222.6051,-86.2963"/>
</g>
<!-- Node34&#45;&gt;Node21 -->
<g id="edge60" class="edge">
<title>Node34&#45;&gt;Node21</title>
<path fill="none" stroke="#191970" d="M1185,-117.8906C1169.6419,-108.0519 1145.5479,-92.6167 1127.6255,-81.1351"/>
<polygon fill="#191970" stroke="#191970" points="1129.203,-77.9891 1118.8947,-75.5419 1125.427,-83.8833 1129.203,-77.9891"/>
</g>
<!-- Node34&#45;&gt;Node25 -->
<g id="edge62" class="edge">
<title>Node34&#45;&gt;Node25</title>
<path fill="none" stroke="#191970" d="M1191.9468,-117.9132C1180.331,-102.8905 1161.9391,-73.695 1178,-56 1205.5029,-25.6988 1473.958,-14.7531 1594.2315,-11.3481"/>
<polygon fill="#191970" stroke="#191970" points="1594.4607,-14.8432 1604.3606,-11.0693 1594.2681,-7.8459 1594.4607,-14.8432"/>
</g>
<!-- Node36 -->
<g id="node37" class="node">
<title>Node36</title>
<polygon fill="#ffffff" stroke="#bfbfbf" points="606.5,-56.5 606.5,-75.5 651.5,-75.5 651.5,-56.5 606.5,-56.5"/>
<text text-anchor="middle" x="629" y="-63.5" font-family="Helvetica,sans-Serif" font-size="10.00" fill="#000000">iosfwd</text>
</g>
<!-- Node35&#45;&gt;Node36 -->
<g id="edge64" class="edge">
<title>Node35&#45;&gt;Node36</title>
<path fill="none" stroke="#191970" d="M770.2547,-112.4554C736.448,-101.3372 691.2558,-86.4745 661.1899,-76.5865"/>
<polygon fill="#191970" stroke="#191970" points="662.2048,-73.2359 651.6118,-73.4365 660.0178,-79.8855 662.2048,-73.2359"/>
</g>
<!-- Node37&#45;&gt;Node18 -->
<g id="edge70" class="edge">
<title>Node37&#45;&gt;Node18</title>
<path fill="none" stroke="#191970" d="M823.3899,-189.1038C732.4248,-180.8088 570.0833,-163.6943 515,-143 459.2227,-122.045 372.3409,-99.5553 413,-56 433.4968,-34.0432 856.4301,-17.5531 1018.5279,-12.0172"/>
<polygon fill="#191970" stroke="#191970" points="1018.9451,-15.5051 1028.8208,-11.6684 1018.708,-8.5092 1018.9451,-15.5051"/>
</g>
<!-- Node37&#45;&gt;Node30 -->
<g id="edge68" class="edge">
<title>Node37&#45;&gt;Node30</title>
<path fill="none" stroke="#191970" d="M905.7691,-184.9005C927.8511,-173.6067 964.7189,-154.7506 990.1386,-141.7497"/>
<polygon fill="#191970" stroke="#191970" points="991.9563,-144.7513 999.2657,-137.0817 988.7688,-138.5191 991.9563,-144.7513"/>
</g>
<!-- Node37&#45;&gt;Node34 -->
<g id="edge69" class="edge">
<title>Node37&#45;&gt;Node34</title>
<path fill="none" stroke="#191970" d="M931.5129,-184.9717C987.8693,-172.9082 1084.9123,-152.1354 1145.6029,-139.1441"/>
<polygon fill="#191970" stroke="#191970" points="1146.3417,-142.5653 1155.3876,-137.0496 1144.8765,-135.7204 1146.3417,-142.5653"/>
</g>
<!-- Node38 -->
<g id="node39" class="node">
<title>Node38</title>
<polygon fill="#ffffff" stroke="#bfbfbf" points="524,-118 524,-137 634,-137 634,-118 524,-118"/>
<text text-anchor="middle" x="579" y="-125" font-family="Helvetica,sans-Serif" font-size="10.00" fill="#000000">AMReX_Geometry.H</text>
</g>
<!-- Node37&#45;&gt;Node38 -->
<g id="edge71" class="edge">
<title>Node37&#45;&gt;Node38</title>
<path fill="none" stroke="#191970" d="M842.0442,-184.9352C793.9866,-174.6819 715.5694,-157.869 648,-143 642.6041,-141.8126 636.9732,-140.5637 631.3566,-139.3117"/>
<polygon fill="#191970" stroke="#191970" points="631.8388,-135.8331 621.3161,-137.0671 630.3116,-142.6645 631.8388,-135.8331"/>
</g>
<!-- Node40&#45;&gt;Node31 -->
<g id="edge76" class="edge">
<title>Node40&#45;&gt;Node31</title>
<path fill="none" stroke="#191970" d="M1374.3669,-313.4673C1365.4776,-294.9965 1347.9953,-263.9119 1324,-246 1282.778,-215.2288 1259.3414,-234.2957 1214,-210 1171.6006,-187.2807 1166.6511,-172.9378 1129,-143 1102.4872,-121.9187 1071.9945,-97.417 1052.6196,-81.8166"/>
<polygon fill="#191970" stroke="#191970" points="1054.7808,-79.0632 1044.7975,-75.5156 1050.3895,-84.5146 1054.7808,-79.0632"/>
</g>
<!-- Node41 -->
<g id="node42" class="node">
<title>Node41</title>
<polygon fill="#ffffff" stroke="#bfbfbf" points="2567,-252 2567,-271 2663,-271 2663,-252 2567,-252"/>
<text text-anchor="middle" x="2615" y="-259" font-family="Helvetica,sans-Serif" font-size="10.00" fill="#000000">AMReX_MLMG.H</text>
</g>
<!-- Node40&#45;&gt;Node41 -->
<g id="edge77" class="edge">
<title>Node40&#45;&gt;Node41</title>
<path fill="none" stroke="#191970" d="M1426.005,-327.7324C1613.0217,-324.3559 2329.4082,-309.5235 2553,-277 2559.2687,-276.0882 2565.8251,-274.8121 2572.229,-273.3796"/>
<polygon fill="#191970" stroke="#191970" points="2573.1857,-276.7498 2582.1037,-271.0297 2571.565,-269.9399 2573.1857,-276.7498"/>
</g>
</g>
</svg>
