<?xml version="1.0" encoding="UTF-8" standalone="no"?>
<!DOCTYPE svg PUBLIC "-//W3C//DTD SVG 1.1//EN"
 "http://www.w3.org/Graphics/SVG/1.1/DTD/svg11.dtd">
<!-- Generated by graphviz version 2.40.1 (20161225.0304)
 -->
<!-- Title: set_background_pressure.cpp Pages: 1 -->
<svg width="2287pt" height="397pt"
 viewBox="0.00 0.00 2287.00 397.00" xmlns="http://www.w3.org/2000/svg" xmlns:xlink="http://www.w3.org/1999/xlink">
<g id="graph0" class="graph" transform="scale(1 1) rotate(0) translate(4 393)">
<title>set_background_pressure.cpp</title>
<polygon fill="#ffffff" stroke="transparent" points="-4,4 -4,-393 2283,-393 2283,4 -4,4"/>
<!-- Node0 -->
<g id="node1" class="node">
<title>Node0</title>
<polygon fill="#bfbfbf" stroke="#000000" points="753.5,-369.5 753.5,-388.5 900.5,-388.5 900.5,-369.5 753.5,-369.5"/>
<text text-anchor="middle" x="827" y="-376.5" font-family="Helvetica,sans-Serif" font-size="10.00" fill="#000000">set_background_pressure.cpp</text>
</g>
<!-- Node1 -->
<g id="node2" class="node">
<title>Node1</title>
<g id="a_node2"><a xlink:href="incflo_8_h.html" target="_top" xlink:title="amr&#45;wind/incflo.H">
<polygon fill="#ffffff" stroke="#000000" points="780.5,-313.5 780.5,-332.5 873.5,-332.5 873.5,-313.5 780.5,-313.5"/>
<text text-anchor="middle" x="827" y="-320.5" font-family="Helvetica,sans-Serif" font-size="10.00" fill="#000000">amr&#45;wind/incflo.H</text>
</a>
</g>
</g>
<!-- Node0&#45;&gt;Node1 -->
<g id="edge1" class="edge">
<title>Node0&#45;&gt;Node1</title>
<path fill="none" stroke="#191970" d="M827,-369.2455C827,-361.9382 827,-351.6944 827,-342.7046"/>
<polygon fill="#191970" stroke="#191970" points="830.5001,-342.6426 827,-332.6427 823.5001,-342.6427 830.5001,-342.6426"/>
</g>
<!-- Node2 -->
<g id="node3" class="node">
<title>Node2</title>
<polygon fill="#ffffff" stroke="#bfbfbf" points="709,-129 709,-148 815,-148 815,-129 709,-129"/>
<text text-anchor="middle" x="762" y="-136" font-family="Helvetica,sans-Serif" font-size="10.00" fill="#000000">AMReX_AmrCore.H</text>
</g>
<!-- Node1&#45;&gt;Node2 -->
<g id="edge2" class="edge">
<title>Node1&#45;&gt;Node2</title>
<path fill="none" stroke="#191970" d="M834.6619,-313.4654C841.2487,-304.6125 850.2597,-290.7614 854,-277 857.6137,-263.7046 858.7752,-258.9238 854,-246 839.8072,-207.588 805.0869,-173.6182 782.5918,-154.5934"/>
<polygon fill="#191970" stroke="#191970" points="784.5851,-151.7013 774.6372,-148.0557 780.1404,-157.1092 784.5851,-151.7013"/>
</g>
<!-- Node3 -->
<g id="node4" class="node">
<title>Node3</title>
<polygon fill="#ffffff" stroke="#bfbfbf" points="316.5,-252 316.5,-271 435.5,-271 435.5,-252 316.5,-252"/>
<text text-anchor="middle" x="376" y="-259" font-family="Helvetica,sans-Serif" font-size="10.00" fill="#000000">AMReX_MultiFabUtil.H</text>
</g>
<!-- Node1&#45;&gt;Node3 -->
<g id="edge3" class="edge">
<title>Node1&#45;&gt;Node3</title>
<path fill="none" stroke="#191970" d="M780.3252,-318.9142C708.125,-312.2488 565.1417,-297.6733 445,-277 438.6476,-275.9069 431.9987,-274.6103 425.4421,-273.2395"/>
<polygon fill="#191970" stroke="#191970" points="425.7843,-269.7328 415.2708,-271.0432 424.3067,-276.5751 425.7843,-269.7328"/>
</g>
<!-- Node4 -->
<g id="node5" class="node">
<title>Node4</title>
<polygon fill="#ffffff" stroke="#bfbfbf" points="454,-252 454,-271 570,-271 570,-252 454,-252"/>
<text text-anchor="middle" x="512" y="-259" font-family="Helvetica,sans-Serif" font-size="10.00" fill="#000000">AMReX_ParmParse.H</text>
</g>
<!-- Node1&#45;&gt;Node4 -->
<g id="edge4" class="edge">
<title>Node1&#45;&gt;Node4</title>
<path fill="none" stroke="#191970" d="M780.2578,-314.9615C730.3123,-306.2248 648.8776,-291.5561 579,-277 573.5211,-275.8587 567.8023,-274.6157 562.1152,-273.3465"/>
<polygon fill="#191970" stroke="#191970" points="562.4971,-269.8444 551.9711,-271.0499 560.9514,-276.6716 562.4971,-269.8444"/>
</g>
<!-- Node5 -->
<g id="node6" class="node">
<title>Node5</title>
<polygon fill="#ffffff" stroke="#bfbfbf" points="2074.5,-62 2074.5,-81 2181.5,-81 2181.5,-62 2074.5,-62"/>
<text text-anchor="middle" x="2128" y="-69" font-family="Helvetica,sans-Serif" font-size="10.00" fill="#000000">AMReX_iMultiFab.H</text>
</g>
<!-- Node1&#45;&gt;Node5 -->
<g id="edge5" class="edge">
<title>Node1&#45;&gt;Node5</title>
<path fill="none" stroke="#191970" d="M873.6137,-320.1536C1093.9269,-306.273 2023.9442,-242.7341 2115,-154 2131.5026,-137.9182 2132.5261,-110.0105 2130.9291,-91.1567"/>
<polygon fill="#191970" stroke="#191970" points="2134.3815,-90.5444 2129.7473,-81.0168 2127.4286,-91.3548 2134.3815,-90.5444"/>
</g>
<!-- Node6 -->
<g id="node7" class="node">
<title>Node6</title>
<polygon fill="#ffffff" stroke="#bfbfbf" points="714.5,-252 714.5,-271 845.5,-271 845.5,-252 714.5,-252"/>
<text text-anchor="middle" x="780" y="-259" font-family="Helvetica,sans-Serif" font-size="10.00" fill="#000000">AMReX_NodalProjector.H</text>
</g>
<!-- Node1&#45;&gt;Node6 -->
<g id="edge6" class="edge">
<title>Node1&#45;&gt;Node6</title>
<path fill="none" stroke="#191970" d="M819.6563,-313.3906C812.7298,-304.3273 802.174,-290.5149 793.694,-279.4188"/>
<polygon fill="#191970" stroke="#191970" points="796.3003,-277.065 787.4473,-271.2449 790.7385,-281.3155 796.3003,-277.065"/>
</g>
<!-- Node7 -->
<g id="node8" class="node">
<title>Node7</title>
<g id="a_node8"><a xlink:href="incflo__enums_8_h.html" target="_top" xlink:title="amr&#45;wind/incflo_enums.H">
<polygon fill="#ffffff" stroke="#000000" points="763,-62 763,-81 891,-81 891,-62 763,-62"/>
<text text-anchor="middle" x="827" y="-69" font-family="Helvetica,sans-Serif" font-size="10.00" fill="#000000">amr&#45;wind/incflo_enums.H</text>
</a>
</g>
</g>
<!-- Node1&#45;&gt;Node7 -->
<g id="edge7" class="edge">
<title>Node1&#45;&gt;Node7</title>
<path fill="none" stroke="#191970" d="M840.331,-313.3825C850.6173,-305.0729 864.0611,-292.0499 870,-277 895.9268,-211.2977 857.9642,-127.3147 837.9798,-90.3728"/>
<polygon fill="#191970" stroke="#191970" points="840.8195,-88.2793 832.8879,-81.2551 834.7079,-91.6924 840.8195,-88.2793"/>
</g>
<!-- Node8 -->
<g id="node9" class="node">
<title>Node8</title>
<g id="a_node9"><a xlink:href="_c_f_d_sim_8_h.html" target="_top" xlink:title="amr&#45;wind/CFDSim.H">
<polygon fill="#ffffff" stroke="#000000" points="588,-252 588,-271 696,-271 696,-252 588,-252"/>
<text text-anchor="middle" x="642" y="-259" font-family="Helvetica,sans-Serif" font-size="10.00" fill="#000000">amr&#45;wind/CFDSim.H</text>
</a>
</g>
</g>
<!-- Node1&#45;&gt;Node8 -->
<g id="edge8" class="edge">
<title>Node1&#45;&gt;Node8</title>
<path fill="none" stroke="#191970" d="M798.0938,-313.3906C766.461,-302.8749 715.597,-285.966 680.5771,-274.3243"/>
<polygon fill="#191970" stroke="#191970" points="681.2968,-270.8753 670.7033,-271.0419 679.0885,-277.5178 681.2968,-270.8753"/>
</g>
<!-- Node9 -->
<g id="node10" class="node">
<title>Node9</title>
<g id="a_node10"><a xlink:href="_sim_time_8_h.html" target="_top" xlink:title="amr&#45;wind/core/SimTime.H">
<polygon fill="#ffffff" stroke="#000000" points="222.5,-190.5 222.5,-209.5 353.5,-209.5 353.5,-190.5 222.5,-190.5"/>
<text text-anchor="middle" x="288" y="-197.5" font-family="Helvetica,sans-Serif" font-size="10.00" fill="#000000">amr&#45;wind/core/SimTime.H</text>
</a>
</g>
</g>
<!-- Node1&#45;&gt;Node9 -->
<g id="edge72" class="edge">
<title>Node1&#45;&gt;Node9</title>
<path fill="none" stroke="#191970" d="M780.1782,-321.9206C659.0866,-318.705 342.5262,-307.4466 307,-277 290.7137,-263.0424 287.2127,-237.5599 286.9676,-219.7466"/>
<polygon fill="#191970" stroke="#191970" points="290.4701,-219.6475 287.1627,-209.5821 283.4714,-219.5131 290.4701,-219.6475"/>
</g>
<!-- Node13 -->
<g id="node14" class="node">
<title>Node13</title>
<g id="a_node14"><a xlink:href="_field_repo_8_h.html" target="_top" xlink:title="amr&#45;wind/core/FieldRepo.H">
<polygon fill="#ffffff" stroke="#000000" points="1283,-190.5 1283,-209.5 1419,-209.5 1419,-190.5 1283,-190.5"/>
<text text-anchor="middle" x="1351" y="-197.5" font-family="Helvetica,sans-Serif" font-size="10.00" fill="#000000">amr&#45;wind/core/FieldRepo.H</text>
</a>
</g>
</g>
<!-- Node1&#45;&gt;Node13 -->
<g id="edge73" class="edge">
<title>Node1&#45;&gt;Node13</title>
<path fill="none" stroke="#191970" d="M867.6814,-313.4507C962.2788,-291.2456 1196.8462,-236.1849 1300.4412,-211.8678"/>
<polygon fill="#191970" stroke="#191970" points="1301.409,-215.2358 1310.3445,-209.5432 1299.8093,-208.4211 1301.409,-215.2358"/>
</g>
<!-- Node39 -->
<g id="node40" class="node">
<title>Node39</title>
<g id="a_node40"><a xlink:href="incflo__prob___i_8_h.html" target="_top" xlink:title="amr&#45;wind/prob/incflo\l_prob_I.H">
<polygon fill="#ffffff" stroke="#000000" points="2175,-246.5 2175,-276.5 2279,-276.5 2279,-246.5 2175,-246.5"/>
<text text-anchor="start" x="2183" y="-264.5" font-family="Helvetica,sans-Serif" font-size="10.00" fill="#000000">amr&#45;wind/prob/incflo</text>
<text text-anchor="middle" x="2227" y="-253.5" font-family="Helvetica,sans-Serif" font-size="10.00" fill="#000000">_prob_I.H</text>
</a>
</g>
</g>
<!-- Node1&#45;&gt;Node39 -->
<g id="edge74" class="edge">
<title>Node1&#45;&gt;Node39</title>
<path fill="none" stroke="#191970" d="M873.6302,-322.6191C1079.0352,-320.7529 1904.3085,-311.23 2161,-277 2162.2797,-276.8294 2163.5709,-276.6449 2164.8703,-276.4481"/>
<polygon fill="#191970" stroke="#191970" points="2165.6717,-279.8618 2174.9365,-274.7225 2164.4889,-272.9625 2165.6717,-279.8618"/>
</g>
<!-- Node8&#45;&gt;Node2 -->
<g id="edge9" class="edge">
<title>Node8&#45;&gt;Node2</title>
<path fill="none" stroke="#191970" d="M651.4162,-251.8484C671.7454,-231.011 719.9647,-181.5862 745.4904,-155.4224"/>
<polygon fill="#191970" stroke="#191970" points="748.1495,-157.7088 752.6275,-148.1068 743.139,-152.8205 748.1495,-157.7088"/>
</g>
<!-- Node8&#45;&gt;Node9 -->
<g id="edge10" class="edge">
<title>Node8&#45;&gt;Node9</title>
<path fill="none" stroke="#191970" d="M605.4728,-251.9591C596.825,-249.8543 587.6123,-247.7369 579,-246 506.2461,-231.3271 422.4754,-218.5089 363.5514,-210.157"/>
<polygon fill="#191970" stroke="#191970" points="363.9718,-206.6818 353.5814,-208.7529 362.9955,-213.6134 363.9718,-206.6818"/>
</g>
<!-- Node8&#45;&gt;Node13 -->
<g id="edge14" class="edge">
<title>Node8&#45;&gt;Node13</title>
<path fill="none" stroke="#191970" d="M676.1165,-251.9848C685.4198,-249.6981 695.5424,-247.4891 705,-246 908.0992,-214.0229 1150.653,-204.2579 1272.6725,-201.2884"/>
<polygon fill="#191970" stroke="#191970" points="1272.7588,-204.7874 1282.6739,-201.0537 1272.5946,-197.7893 1272.7588,-204.7874"/>
</g>
<!-- Node29 -->
<g id="node30" class="node">
<title>Node29</title>
<g id="a_node30"><a xlink:href="_p_d_e_base_8_h.html" target="_top" xlink:title="amr&#45;wind/equation_systems\l/PDEBase.H">
<polygon fill="#ffffff" stroke="#000000" points="551.5,-123.5 551.5,-153.5 690.5,-153.5 690.5,-123.5 551.5,-123.5"/>
<text text-anchor="start" x="559.5" y="-141.5" font-family="Helvetica,sans-Serif" font-size="10.00" fill="#000000">amr&#45;wind/equation_systems</text>
<text text-anchor="middle" x="621" y="-130.5" font-family="Helvetica,sans-Serif" font-size="10.00" fill="#000000">/PDEBase.H</text>
</a>
</g>
</g>
<!-- Node8&#45;&gt;Node29 -->
<g id="edge50" class="edge">
<title>Node8&#45;&gt;Node29</title>
<path fill="none" stroke="#191970" d="M640.3522,-251.8484C637.1426,-233.0498 629.9607,-190.9842 625.3061,-163.7217"/>
<polygon fill="#191970" stroke="#191970" points="628.7345,-163.0048 623.6014,-153.7365 621.8343,-164.1829 628.7345,-163.0048"/>
</g>
<!-- Node37 -->
<g id="node38" class="node">
<title>Node37</title>
<g id="a_node38"><a xlink:href="_physics_8_h.html" target="_top" xlink:title="amr&#45;wind/core/Physics.H">
<polygon fill="#ffffff" stroke="#000000" points="406.5,-129 406.5,-148 533.5,-148 533.5,-129 406.5,-129"/>
<text text-anchor="middle" x="470" y="-136" font-family="Helvetica,sans-Serif" font-size="10.00" fill="#000000">amr&#45;wind/core/Physics.H</text>
</a>
</g>
</g>
<!-- Node8&#45;&gt;Node37 -->
<g id="edge67" class="edge">
<title>Node8&#45;&gt;Node37</title>
<path fill="none" stroke="#191970" d="M628.5034,-251.8484C598.8626,-230.6517 527.8555,-179.8734 491.8008,-154.0901"/>
<polygon fill="#191970" stroke="#191970" points="493.6039,-151.0767 483.4339,-148.1068 489.5321,-156.7706 493.6039,-151.0767"/>
</g>
<!-- Node10 -->
<g id="node11" class="node">
<title>Node10</title>
<polygon fill="#ffffff" stroke="#bfbfbf" points="150.5,-129 150.5,-148 243.5,-148 243.5,-129 150.5,-129"/>
<text text-anchor="middle" x="197" y="-136" font-family="Helvetica,sans-Serif" font-size="10.00" fill="#000000">AMReX_REAL.H</text>
</g>
<!-- Node9&#45;&gt;Node10 -->
<g id="edge11" class="edge">
<title>Node9&#45;&gt;Node10</title>
<path fill="none" stroke="#191970" d="M273.7813,-190.3906C259.3566,-180.6421 236.8024,-165.3994 219.864,-153.9521"/>
<polygon fill="#191970" stroke="#191970" points="221.3641,-150.7415 211.1189,-148.0419 217.4444,-156.5412 221.3641,-150.7415"/>
</g>
<!-- Node11 -->
<g id="node12" class="node">
<title>Node11</title>
<polygon fill="#ffffff" stroke="#bfbfbf" points="262,-129 262,-148 388,-148 388,-129 262,-129"/>
<text text-anchor="middle" x="325" y="-136" font-family="Helvetica,sans-Serif" font-size="10.00" fill="#000000">AMReX_GpuQualifiers.H</text>
</g>
<!-- Node9&#45;&gt;Node11 -->
<g id="edge12" class="edge">
<title>Node9&#45;&gt;Node11</title>
<path fill="none" stroke="#191970" d="M293.7813,-190.3906C299.126,-181.5068 307.2159,-168.0601 313.8211,-157.0811"/>
<polygon fill="#191970" stroke="#191970" points="316.9811,-158.618 319.1372,-148.2449 310.9829,-155.0093 316.9811,-158.618"/>
</g>
<!-- Node12 -->
<g id="node13" class="node">
<title>Node12</title>
<polygon fill="#ffffff" stroke="#bfbfbf" points="22,-129 22,-148 132,-148 132,-129 22,-129"/>
<text text-anchor="middle" x="77" y="-136" font-family="Helvetica,sans-Serif" font-size="10.00" fill="#000000">AMReX_Extension.H</text>
</g>
<!-- Node9&#45;&gt;Node12 -->
<g id="edge13" class="edge">
<title>Node9&#45;&gt;Node12</title>
<path fill="none" stroke="#191970" d="M255.0313,-190.3906C218.4883,-179.7395 159.4429,-162.5296 119.465,-150.8772"/>
<polygon fill="#191970" stroke="#191970" points="120.3172,-147.48 109.7372,-148.0419 118.3583,-154.2004 120.3172,-147.48"/>
</g>
<!-- Node13&#45;&gt;Node2 -->
<g id="edge47" class="edge">
<title>Node13&#45;&gt;Node2</title>
<path fill="none" stroke="#191970" d="M1282.6415,-197.02C1182.5601,-191.9696 990.5026,-179.6689 829,-154 822.5775,-152.9792 815.8549,-151.6911 809.2506,-150.2957"/>
<polygon fill="#191970" stroke="#191970" points="809.5497,-146.7774 799.0301,-148.0375 808.0394,-153.6126 809.5497,-146.7774"/>
</g>
<!-- Node13&#45;&gt;Node5 -->
<g id="edge49" class="edge">
<title>Node13&#45;&gt;Node5</title>
<path fill="none" stroke="#191970" d="M1419.1644,-197.6439C1596.8829,-191.2501 2062.5771,-172.7877 2090,-154 2110.9771,-139.6284 2120.6045,-110.6296 2124.8575,-91.1324"/>
<polygon fill="#191970" stroke="#191970" points="2128.3199,-91.6593 2126.7458,-81.1821 2121.4427,-90.3542 2128.3199,-91.6593"/>
</g>
<!-- Node14 -->
<g id="node15" class="node">
<title>Node14</title>
<polygon fill="#ffffff" stroke="#bfbfbf" points="974.5,-.5 974.5,-19.5 1015.5,-19.5 1015.5,-.5 974.5,-.5"/>
<text text-anchor="middle" x="995" y="-7.5" font-family="Helvetica,sans-Serif" font-size="10.00" fill="#000000">string</text>
</g>
<!-- Node13&#45;&gt;Node14 -->
<g id="edge15" class="edge">
<title>Node13&#45;&gt;Node14</title>
<path fill="none" stroke="#191970" d="M1282.8591,-194.0973C1209.8782,-186.9116 1099.4926,-173.2995 1062,-154 1024.8357,-134.8695 1012.1013,-125.5734 996,-87 988.4164,-68.8321 989.2264,-46.0874 991.283,-30.0427"/>
<polygon fill="#191970" stroke="#191970" points="994.8124,-30.1256 992.8986,-19.7051 987.8964,-29.0447 994.8124,-30.1256"/>
</g>
<!-- Node15 -->
<g id="node16" class="node">
<title>Node15</title>
<polygon fill="#ffffff" stroke="#bfbfbf" points="552.5,-.5 552.5,-19.5 635.5,-19.5 635.5,-.5 552.5,-.5"/>
<text text-anchor="middle" x="594" y="-7.5" font-family="Helvetica,sans-Serif" font-size="10.00" fill="#000000">unordered_map</text>
</g>
<!-- Node13&#45;&gt;Node15 -->
<g id="edge16" class="edge">
<title>Node13&#45;&gt;Node15</title>
<path fill="none" stroke="#191970" d="M1282.8367,-194.3801C1169.9325,-183.4819 938.284,-154.3463 754,-87 705.194,-69.164 651.2919,-41.4325 620.1647,-24.5698"/>
<polygon fill="#191970" stroke="#191970" points="621.7204,-21.4314 611.2666,-19.7084 618.3642,-27.5744 621.7204,-21.4314"/>
</g>
<!-- Node16 -->
<g id="node17" class="node">
<title>Node16</title>
<g id="a_node17"><a xlink:href="_field_desc_types_8_h.html" target="_top" xlink:title="amr&#45;wind/core/FieldDescTypes.H">
<polygon fill="#ffffff" stroke="#000000" points="1704.5,-.5 1704.5,-19.5 1867.5,-19.5 1867.5,-.5 1704.5,-.5"/>
<text text-anchor="middle" x="1786" y="-7.5" font-family="Helvetica,sans-Serif" font-size="10.00" fill="#000000">amr&#45;wind/core/FieldDescTypes.H</text>
</a>
</g>
</g>
<!-- Node13&#45;&gt;Node16 -->
<g id="edge17" class="edge">
<title>Node13&#45;&gt;Node16</title>
<path fill="none" stroke="#191970" d="M1419.0313,-196.0049C1500.8308,-190.3669 1641.9825,-177.9738 1761,-154 1812.7692,-143.5721 1957.3573,-129.2792 1989,-87 1997.2555,-75.9694 1997.5987,-66.7652 1989,-56 1980.4278,-45.268 1910.4372,-31.0587 1855.0039,-21.2876"/>
<polygon fill="#191970" stroke="#191970" points="1855.2932,-17.7854 1844.8407,-19.5166 1854.0914,-24.6814 1855.2932,-17.7854"/>
</g>
<!-- Node17 -->
<g id="node18" class="node">
<title>Node17</title>
<g id="a_node18"><a xlink:href="_field_utils_8_h.html" target="_top" xlink:title="amr&#45;wind/core/FieldUtils.H">
<polygon fill="#ffffff" stroke="#000000" points="1846.5,-62 1846.5,-81 1979.5,-81 1979.5,-62 1846.5,-62"/>
<text text-anchor="middle" x="1913" y="-69" font-family="Helvetica,sans-Serif" font-size="10.00" fill="#000000">amr&#45;wind/core/FieldUtils.H</text>
</a>
</g>
</g>
<!-- Node13&#45;&gt;Node17 -->
<g id="edge18" class="edge">
<title>Node13&#45;&gt;Node17</title>
<path fill="none" stroke="#191970" d="M1419.0859,-196.0479C1490.6822,-190.7491 1606.1659,-178.9466 1703,-154 1770.1072,-136.7117 1844.7537,-103.9183 1884.4705,-85.3064"/>
<polygon fill="#191970" stroke="#191970" points="1886.0149,-88.4478 1893.5586,-81.0085 1883.0222,-82.1198 1886.0149,-88.4478"/>
</g>
<!-- Node18 -->
<g id="node19" class="node">
<title>Node18</title>
<polygon fill="#ffffff" stroke="#bfbfbf" points="1461,-.5 1461,-19.5 1565,-19.5 1565,-.5 1461,-.5"/>
<text text-anchor="middle" x="1513" y="-7.5" font-family="Helvetica,sans-Serif" font-size="10.00" fill="#000000">AMReX_MultiFab.H</text>
</g>
<!-- Node13&#45;&gt;Node18 -->
<g id="edge48" class="edge">
<title>Node13&#45;&gt;Node18</title>
<path fill="none" stroke="#191970" d="M1361.9319,-190.3785C1382.8754,-171.6544 1429.5441,-128.5046 1463,-87 1478.1593,-68.1938 1492.8926,-44.6695 1502.3919,-28.6035"/>
<polygon fill="#191970" stroke="#191970" points="1505.584,-30.0767 1507.5871,-19.6729 1499.5333,-26.5568 1505.584,-30.0767"/>
</g>
<!-- Node20 -->
<g id="node21" class="node">
<title>Node20</title>
<g id="a_node21"><a xlink:href="_field_8_h.html" target="_top" xlink:title="amr&#45;wind/core/Field.H">
<polygon fill="#ffffff" stroke="#000000" points="1071.5,-129 1071.5,-148 1184.5,-148 1184.5,-129 1071.5,-129"/>
<text text-anchor="middle" x="1128" y="-136" font-family="Helvetica,sans-Serif" font-size="10.00" fill="#000000">amr&#45;wind/core/Field.H</text>
</a>
</g>
</g>
<!-- Node13&#45;&gt;Node20 -->
<g id="edge22" class="edge">
<title>Node13&#45;&gt;Node20</title>
<path fill="none" stroke="#191970" d="M1316.1563,-190.3906C1277.3714,-179.6944 1214.6023,-162.3836 1172.3441,-150.7294"/>
<polygon fill="#191970" stroke="#191970" points="1173.1697,-147.3265 1162.5991,-148.0419 1171.3087,-154.0746 1173.1697,-147.3265"/>
</g>
<!-- Node26 -->
<g id="node27" class="node">
<title>Node26</title>
<g id="a_node27"><a xlink:href="_int_field_8_h.html" target="_top" xlink:title="amr&#45;wind/core/IntField.H">
<polygon fill="#ffffff" stroke="#000000" points="1957,-129 1957,-148 2081,-148 2081,-129 1957,-129"/>
<text text-anchor="middle" x="2019" y="-136" font-family="Helvetica,sans-Serif" font-size="10.00" fill="#000000">amr&#45;wind/core/IntField.H</text>
</a>
</g>
</g>
<!-- Node13&#45;&gt;Node26 -->
<g id="edge36" class="edge">
<title>Node13&#45;&gt;Node26</title>
<path fill="none" stroke="#191970" d="M1419.2168,-197.442C1529.6869,-192.685 1754.3923,-180.4573 1943,-154 1950.7825,-152.9083 1958.9663,-151.5088 1966.9641,-149.9986"/>
<polygon fill="#191970" stroke="#191970" points="1967.8106,-153.3994 1976.9508,-148.0413 1966.4643,-146.5301 1967.8106,-153.3994"/>
</g>
<!-- Node27 -->
<g id="node28" class="node">
<title>Node27</title>
<g id="a_node28"><a xlink:href="_scratch_field_8_h.html" target="_top" xlink:title="amr&#45;wind/core/ScratchField.H">
<polygon fill="#ffffff" stroke="#000000" points="1548,-129 1548,-148 1694,-148 1694,-129 1548,-129"/>
<text text-anchor="middle" x="1621" y="-136" font-family="Helvetica,sans-Serif" font-size="10.00" fill="#000000">amr&#45;wind/core/ScratchField.H</text>
</a>
</g>
</g>
<!-- Node13&#45;&gt;Node27 -->
<g id="edge40" class="edge">
<title>Node13&#45;&gt;Node27</title>
<path fill="none" stroke="#191970" d="M1392.8913,-190.4581C1440.3826,-179.6406 1517.8472,-161.9959 1569.1215,-150.3168"/>
<polygon fill="#191970" stroke="#191970" points="1570.0375,-153.6978 1579.0105,-148.0643 1568.4829,-146.8727 1570.0375,-153.6978"/>
</g>
<!-- Node17&#45;&gt;Node16 -->
<g id="edge19" class="edge">
<title>Node17&#45;&gt;Node16</title>
<path fill="none" stroke="#191970" d="M1893.1563,-61.8906C1872.1864,-51.7359 1838.9056,-35.6196 1814.9964,-24.0416"/>
<polygon fill="#191970" stroke="#191970" points="1816.2301,-20.7502 1805.7044,-19.5419 1813.1792,-27.0504 1816.2301,-20.7502"/>
</g>
<!-- Node17&#45;&gt;Node18 -->
<g id="edge20" class="edge">
<title>Node17&#45;&gt;Node18</title>
<path fill="none" stroke="#191970" d="M1850.9389,-61.9581C1775.9089,-50.4222 1650.3802,-31.1222 1575.2608,-19.5726"/>
<polygon fill="#191970" stroke="#191970" points="1575.4219,-16.0563 1565.0062,-17.9959 1574.3581,-22.975 1575.4219,-16.0563"/>
</g>
<!-- Node19 -->
<g id="node20" class="node">
<title>Node19</title>
<polygon fill="#ffffff" stroke="#bfbfbf" points="1886,-.5 1886,-19.5 2002,-19.5 2002,-.5 1886,-.5"/>
<text text-anchor="middle" x="1944" y="-7.5" font-family="Helvetica,sans-Serif" font-size="10.00" fill="#000000">AMReX_Interpolater.H</text>
</g>
<!-- Node17&#45;&gt;Node19 -->
<g id="edge21" class="edge">
<title>Node17&#45;&gt;Node19</title>
<path fill="none" stroke="#191970" d="M1917.8438,-61.8906C1922.2766,-53.0965 1928.9631,-39.8312 1934.4659,-28.9145"/>
<polygon fill="#191970" stroke="#191970" points="1937.7122,-30.25 1939.088,-19.7449 1931.4614,-27.0992 1937.7122,-30.25"/>
</g>
<!-- Node20&#45;&gt;Node7 -->
<g id="edge29" class="edge">
<title>Node20&#45;&gt;Node7</title>
<path fill="none" stroke="#191970" d="M1085.1937,-128.9717C1031.1863,-116.9501 938.3239,-96.2797 879.9217,-83.2799"/>
<polygon fill="#191970" stroke="#191970" points="880.6676,-79.8603 870.146,-81.1039 879.1466,-86.6931 880.6676,-79.8603"/>
</g>
<!-- Node20&#45;&gt;Node14 -->
<g id="edge23" class="edge">
<title>Node20&#45;&gt;Node14</title>
<path fill="none" stroke="#191970" d="M1084.9015,-128.9493C1060.7306,-121.4405 1031.9236,-108.5318 1014,-87 1000.6873,-71.0074 996.4711,-47.0628 995.2508,-30.1281"/>
<polygon fill="#191970" stroke="#191970" points="998.7296,-29.5509 994.8097,-19.708 991.7359,-29.8471 998.7296,-29.5509"/>
</g>
<!-- Node20&#45;&gt;Node15 -->
<g id="edge25" class="edge">
<title>Node20&#45;&gt;Node15</title>
<path fill="none" stroke="#191970" d="M1103.6556,-128.9968C1053.5431,-109.5497 940.193,-66.1858 900,-56 812.1284,-33.7313 707.1511,-20.8337 645.7945,-14.6283"/>
<polygon fill="#191970" stroke="#191970" points="645.8919,-11.1209 635.5955,-13.618 645.2018,-18.0868 645.8919,-11.1209"/>
</g>
<!-- Node20&#45;&gt;Node16 -->
<g id="edge30" class="edge">
<title>Node20&#45;&gt;Node16</title>
<path fill="none" stroke="#191970" d="M1184.6624,-131.7741C1251.5642,-123.3758 1366.0077,-107.5742 1463,-87 1514.3637,-76.1046 1526.0118,-68.5358 1577,-56 1628.4376,-43.3537 1687.4048,-30.5261 1729.5612,-21.6415"/>
<polygon fill="#191970" stroke="#191970" points="1730.2963,-25.0635 1739.3634,-19.5828 1728.8575,-18.213 1730.2963,-25.0635"/>
</g>
<!-- Node20&#45;&gt;Node18 -->
<g id="edge26" class="edge">
<title>Node20&#45;&gt;Node18</title>
<path fill="none" stroke="#191970" d="M1147.8009,-128.9668C1188.0911,-109.67 1278.5382,-66.8917 1311,-56 1356.8952,-40.6011 1410.3679,-28.679 1450.7638,-20.8344"/>
<polygon fill="#191970" stroke="#191970" points="1451.5743,-24.243 1460.7397,-18.9282 1450.2605,-17.3673 1451.5743,-24.243"/>
</g>
<!-- Node21 -->
<g id="node22" class="node">
<title>Node21</title>
<polygon fill="#ffffff" stroke="#bfbfbf" points="413,-.5 413,-19.5 465,-19.5 465,-.5 413,-.5"/>
<text text-anchor="middle" x="439" y="-7.5" font-family="Helvetica,sans-Serif" font-size="10.00" fill="#000000">memory</text>
</g>
<!-- Node20&#45;&gt;Node21 -->
<g id="edge24" class="edge">
<title>Node20&#45;&gt;Node21</title>
<path fill="none" stroke="#191970" d="M1071.439,-135.0325C911.9952,-125.1443 469.6697,-96.8852 458,-87 441.6336,-73.1364 438.15,-47.6335 437.9308,-29.7898"/>
<polygon fill="#191970" stroke="#191970" points="441.4338,-29.6763 438.1427,-19.6056 434.4353,-29.5306 441.4338,-29.6763"/>
</g>
<!-- Node22 -->
<g id="node23" class="node">
<title>Node22</title>
<polygon fill="#ffffff" stroke="#bfbfbf" points="1023.5,-62 1023.5,-81 1122.5,-81 1122.5,-62 1023.5,-62"/>
<text text-anchor="middle" x="1073" y="-69" font-family="Helvetica,sans-Serif" font-size="10.00" fill="#000000">AMReX_BCRec.H</text>
</g>
<!-- Node20&#45;&gt;Node22 -->
<g id="edge27" class="edge">
<title>Node20&#45;&gt;Node22</title>
<path fill="none" stroke="#191970" d="M1120.1198,-128.9005C1111.6248,-118.552 1097.9176,-101.8542 1087.472,-89.1295"/>
<polygon fill="#191970" stroke="#191970" points="1089.9158,-86.5902 1080.8655,-81.0817 1084.5053,-91.0317 1089.9158,-86.5902"/>
</g>
<!-- Node23 -->
<g id="node24" class="node">
<title>Node23</title>
<polygon fill="#ffffff" stroke="#bfbfbf" points="1140.5,-62 1140.5,-81 1225.5,-81 1225.5,-62 1140.5,-62"/>
<text text-anchor="middle" x="1183" y="-69" font-family="Helvetica,sans-Serif" font-size="10.00" fill="#000000">AMReX_Gpu.H</text>
</g>
<!-- Node20&#45;&gt;Node23 -->
<g id="edge28" class="edge">
<title>Node20&#45;&gt;Node23</title>
<path fill="none" stroke="#191970" d="M1135.8802,-128.9005C1144.3752,-118.552 1158.0824,-101.8542 1168.528,-89.1295"/>
<polygon fill="#191970" stroke="#191970" points="1171.4947,-91.0317 1175.1345,-81.0817 1166.0842,-86.5902 1171.4947,-91.0317"/>
</g>
<!-- Node24 -->
<g id="node25" class="node">
<title>Node24</title>
<g id="a_node25"><a xlink:href="_view_field_8_h.html" target="_top" xlink:title="amr&#45;wind/core/ViewField.H">
<polygon fill="#ffffff" stroke="#000000" points="1320,-62 1320,-81 1454,-81 1454,-62 1320,-62"/>
<text text-anchor="middle" x="1387" y="-69" font-family="Helvetica,sans-Serif" font-size="10.00" fill="#000000">amr&#45;wind/core/ViewField.H</text>
</a>
</g>
</g>
<!-- Node20&#45;&gt;Node24 -->
<g id="edge31" class="edge">
<title>Node20&#45;&gt;Node24</title>
<path fill="none" stroke="#191970" d="M1164.8333,-128.9717C1210.8247,-117.0743 1289.5623,-96.7059 1339.8959,-83.6852"/>
<polygon fill="#191970" stroke="#191970" points="1341.0697,-86.9969 1349.8744,-81.1039 1339.3165,-80.22 1341.0697,-86.9969"/>
</g>
<!-- Node24&#45;&gt;Node14 -->
<g id="edge32" class="edge">
<title>Node24&#45;&gt;Node14</title>
<path fill="none" stroke="#191970" d="M1326.1801,-61.9581C1241.2333,-48.631 1090.2358,-24.9413 1025.6661,-14.8111"/>
<polygon fill="#191970" stroke="#191970" points="1026.1338,-11.3418 1015.7122,-13.2495 1025.0488,-18.2572 1026.1338,-11.3418"/>
</g>
<!-- Node24&#45;&gt;Node16 -->
<g id="edge33" class="edge">
<title>Node24&#45;&gt;Node16</title>
<path fill="none" stroke="#191970" d="M1434.906,-61.9597C1445.7704,-59.9001 1457.2688,-57.8019 1468,-56 1547.7648,-42.6061 1639.1851,-29.6282 1703.4707,-20.8915"/>
<polygon fill="#191970" stroke="#191970" points="1704.1096,-24.337 1713.5493,-19.5263 1703.1699,-17.4004 1704.1096,-24.337"/>
</g>
<!-- Node24&#45;&gt;Node18 -->
<g id="edge34" class="edge">
<title>Node24&#45;&gt;Node18</title>
<path fill="none" stroke="#191970" d="M1406.6875,-61.8906C1427.4922,-51.7359 1460.511,-35.6196 1484.2319,-24.0416"/>
<polygon fill="#191970" stroke="#191970" points="1485.9993,-27.0736 1493.4507,-19.5419 1482.9288,-20.783 1485.9993,-27.0736"/>
</g>
<!-- Node25 -->
<g id="node26" class="node">
<title>Node25</title>
<polygon fill="#ffffff" stroke="#bfbfbf" points="1339.5,-.5 1339.5,-19.5 1434.5,-19.5 1434.5,-.5 1339.5,-.5"/>
<text text-anchor="middle" x="1387" y="-7.5" font-family="Helvetica,sans-Serif" font-size="10.00" fill="#000000">AMReX_Vector.H</text>
</g>
<!-- Node24&#45;&gt;Node25 -->
<g id="edge35" class="edge">
<title>Node24&#45;&gt;Node25</title>
<path fill="none" stroke="#191970" d="M1387,-61.8906C1387,-53.3657 1387,-40.6392 1387,-29.9235"/>
<polygon fill="#191970" stroke="#191970" points="1390.5001,-29.7448 1387,-19.7449 1383.5001,-29.7449 1390.5001,-29.7448"/>
</g>
<!-- Node26&#45;&gt;Node5 -->
<g id="edge39" class="edge">
<title>Node26&#45;&gt;Node5</title>
<path fill="none" stroke="#191970" d="M2034.617,-128.9005C2052.6669,-117.8057 2082.5896,-99.4128 2103.6908,-86.4424"/>
<polygon fill="#191970" stroke="#191970" points="2105.7255,-89.3001 2112.4119,-81.0817 2102.0598,-83.3366 2105.7255,-89.3001"/>
</g>
<!-- Node26&#45;&gt;Node14 -->
<g id="edge37" class="edge">
<title>Node26&#45;&gt;Node14</title>
<path fill="none" stroke="#191970" d="M1985.4339,-128.9423C1910.7191,-107.6955 1736.1996,-58.2313 1723,-56 1585.5769,-32.7695 1146.2953,-15.4806 1025.8158,-11.0892"/>
<polygon fill="#191970" stroke="#191970" points="1025.9154,-7.5907 1015.7954,-10.7271 1025.6625,-14.5861 1025.9154,-7.5907"/>
</g>
<!-- Node26&#45;&gt;Node16 -->
<g id="edge38" class="edge">
<title>Node26&#45;&gt;Node16</title>
<path fill="none" stroke="#191970" d="M2023.0484,-128.8011C2029.3809,-111.9106 2039.2248,-76.9064 2022,-56 2012.0634,-43.9396 1933.0083,-30.25 1869.0917,-20.9632"/>
<polygon fill="#191970" stroke="#191970" points="1869.3722,-17.4677 1858.9764,-19.5115 1868.3777,-24.3967 1869.3722,-17.4677"/>
</g>
<!-- Node27&#45;&gt;Node14 -->
<g id="edge41" class="edge">
<title>Node27&#45;&gt;Node14</title>
<path fill="none" stroke="#191970" d="M1547.9605,-131.0195C1484.4954,-123.4226 1390.5267,-109.5208 1311,-87 1275.9006,-77.0604 1269.9738,-66.3731 1235,-56 1161.2291,-34.1198 1071.5212,-20.1534 1025.4879,-13.87"/>
<polygon fill="#191970" stroke="#191970" points="1025.9295,-10.398 1015.5538,-12.5414 1025.0015,-17.3363 1025.9295,-10.398"/>
</g>
<!-- Node27&#45;&gt;Node16 -->
<g id="edge42" class="edge">
<title>Node27&#45;&gt;Node16</title>
<path fill="none" stroke="#191970" d="M1678.6407,-128.9267C1723.3497,-120.1878 1779.9972,-105.7786 1794,-87 1806.3752,-70.4042 1800.9622,-45.9034 1794.6868,-29.0183"/>
<polygon fill="#191970" stroke="#191970" points="1797.8638,-27.5415 1790.8192,-19.6279 1791.3913,-30.2073 1797.8638,-27.5415"/>
</g>
<!-- Node27&#45;&gt;Node18 -->
<g id="edge44" class="edge">
<title>Node27&#45;&gt;Node18</title>
<path fill="none" stroke="#191970" d="M1612.5251,-128.6609C1603.6354,-118.3216 1589.2765,-101.568 1577,-87 1559.7987,-66.5879 1540.2051,-42.9579 1527.2788,-27.3152"/>
<polygon fill="#191970" stroke="#191970" points="1529.9067,-25.0008 1520.841,-19.5178 1524.5088,-29.4575 1529.9067,-25.0008"/>
</g>
<!-- Node27&#45;&gt;Node24 -->
<g id="edge43" class="edge">
<title>Node27&#45;&gt;Node24</title>
<path fill="none" stroke="#191970" d="M1587.4735,-128.9005C1546.1179,-117.0594 1475.7294,-96.9054 1430.3162,-83.9025"/>
<polygon fill="#191970" stroke="#191970" points="1431.0414,-80.4696 1420.4643,-81.0817 1429.1145,-87.1992 1431.0414,-80.4696"/>
</g>
<!-- Node27&#45;&gt;Node25 -->
<g id="edge45" class="edge">
<title>Node27&#45;&gt;Node25</title>
<path fill="none" stroke="#191970" d="M1650.4232,-128.922C1689.291,-114.783 1749.8626,-86.667 1723,-56 1682.9706,-10.3014 1512.1367,-28.6193 1452,-20 1449.5277,-19.6456 1447.0033,-19.2788 1444.4538,-18.9043"/>
<polygon fill="#191970" stroke="#191970" points="1444.9587,-15.441 1434.5525,-17.4312 1443.9285,-22.3648 1444.9587,-15.441"/>
</g>
<!-- Node28 -->
<g id="node29" class="node">
<title>Node28</title>
<polygon fill="#ffffff" stroke="#bfbfbf" points="1586,-62 1586,-81 1714,-81 1714,-62 1586,-62"/>
<text text-anchor="middle" x="1650" y="-69" font-family="Helvetica,sans-Serif" font-size="10.00" fill="#000000">AMReX_PhysBCFunct.H</text>
</g>
<!-- Node27&#45;&gt;Node28 -->
<g id="edge46" class="edge">
<title>Node27&#45;&gt;Node28</title>
<path fill="none" stroke="#191970" d="M1625.155,-128.9005C1629.4619,-118.95 1636.3097,-103.1292 1641.7265,-90.6147"/>
<polygon fill="#191970" stroke="#191970" points="1645.0925,-91.6492 1645.8527,-81.0817 1638.6684,-88.8686 1645.0925,-91.6492"/>
</g>
<!-- Node29&#45;&gt;Node7 -->
<g id="edge66" class="edge">
<title>Node29&#45;&gt;Node7</title>
<path fill="none" stroke="#191970" d="M667.2304,-123.4639C703.6152,-111.63 753.7445,-95.3258 788.0927,-84.1543"/>
<polygon fill="#191970" stroke="#191970" points="789.3477,-87.4267 797.7748,-81.0053 787.1826,-80.7699 789.3477,-87.4267"/>
</g>
<!-- Node29&#45;&gt;Node14 -->
<g id="edge51" class="edge">
<title>Node29&#45;&gt;Node14</title>
<path fill="none" stroke="#191970" d="M634.5482,-123.2038C652.3621,-104.1569 685.5766,-72.1631 721,-56 764.0387,-36.3622 901.9867,-19.8119 964.1335,-13.1469"/>
<polygon fill="#191970" stroke="#191970" points="964.5485,-16.6226 974.1251,-12.0907 963.8126,-9.6614 964.5485,-16.6226"/>
</g>
<!-- Node29&#45;&gt;Node16 -->
<g id="edge65" class="edge">
<title>Node29&#45;&gt;Node16</title>
<path fill="none" stroke="#191970" d="M638.4606,-123.4997C662.5787,-103.8139 708.3071,-70.1116 754,-56 928.2758,-2.1773 1391.7911,-28.2971 1574,-20 1613.3648,-18.2075 1656.838,-16.1674 1694.1171,-14.3995"/>
<polygon fill="#191970" stroke="#191970" points="1694.6361,-17.8789 1704.4589,-13.9085 1694.3041,-10.8868 1694.6361,-17.8789"/>
</g>
<!-- Node30 -->
<g id="node31" class="node">
<title>Node30</title>
<g id="a_node31"><a xlink:href="_factory_8_h.html" target="_top" xlink:title="amr&#45;wind/core/Factory.H">
<polygon fill="#ffffff" stroke="#000000" points="128.5,-62 128.5,-81 253.5,-81 253.5,-62 128.5,-62"/>
<text text-anchor="middle" x="191" y="-69" font-family="Helvetica,sans-Serif" font-size="10.00" fill="#000000">amr&#45;wind/core/Factory.H</text>
</a>
</g>
</g>
<!-- Node29&#45;&gt;Node30 -->
<g id="edge52" class="edge">
<title>Node29&#45;&gt;Node30</title>
<path fill="none" stroke="#191970" d="M551.2579,-124.5578C548.1322,-124.0145 545.0352,-123.4923 542,-123 418.1499,-102.9107 385.6302,-108.4007 262,-87 255.4014,-85.8578 248.4869,-84.5229 241.6712,-83.1243"/>
<polygon fill="#191970" stroke="#191970" points="242.3111,-79.6824 231.8042,-81.0447 240.8674,-86.5319 242.3111,-79.6824"/>
</g>
<!-- Node34 -->
<g id="node35" class="node">
<title>Node34</title>
<g id="a_node35"><a xlink:href="_coll_mgr_8_h.html" target="_top" xlink:title="amr&#45;wind/core/CollMgr.H">
<polygon fill="#ffffff" stroke="#000000" points="467.5,-62 467.5,-81 592.5,-81 592.5,-62 467.5,-62"/>
<text text-anchor="middle" x="530" y="-69" font-family="Helvetica,sans-Serif" font-size="10.00" fill="#000000">amr&#45;wind/core/CollMgr.H</text>
</a>
</g>
</g>
<!-- Node29&#45;&gt;Node34 -->
<g id="edge58" class="edge">
<title>Node29&#45;&gt;Node34</title>
<path fill="none" stroke="#191970" d="M600.3507,-123.2967C585.6219,-112.4524 565.8814,-97.9182 551.0604,-87.006"/>
<polygon fill="#191970" stroke="#191970" points="553.1056,-84.1655 542.9776,-81.055 548.9553,-89.8025 553.1056,-84.1655"/>
</g>
<!-- Node35 -->
<g id="node36" class="node">
<title>Node35</title>
<g id="a_node36"><a xlink:href="_p_d_e_fields_8_h.html" target="_top" xlink:title="amr&#45;wind/equation_systems\l/PDEFields.H">
<polygon fill="#ffffff" stroke="#000000" points="271.5,-56.5 271.5,-86.5 410.5,-86.5 410.5,-56.5 271.5,-56.5"/>
<text text-anchor="start" x="279.5" y="-74.5" font-family="Helvetica,sans-Serif" font-size="10.00" fill="#000000">amr&#45;wind/equation_systems</text>
<text text-anchor="middle" x="341" y="-63.5" font-family="Helvetica,sans-Serif" font-size="10.00" fill="#000000">/PDEFields.H</text>
</a>
</g>
</g>
<!-- Node29&#45;&gt;Node35 -->
<g id="edge63" class="edge">
<title>Node29&#45;&gt;Node35</title>
<path fill="none" stroke="#191970" d="M558.1625,-123.4639C515.441,-113.2412 458.7786,-99.6827 414.0452,-88.9787"/>
<polygon fill="#191970" stroke="#191970" points="414.6515,-85.525 404.1115,-86.6017 413.0224,-92.3328 414.6515,-85.525"/>
</g>
<!-- Node30&#45;&gt;Node15 -->
<g id="edge54" class="edge">
<title>Node30&#45;&gt;Node15</title>
<path fill="none" stroke="#191970" d="M232.1908,-61.9434C241.9357,-59.8393 252.3115,-57.7261 262,-56 360.6967,-38.4165 476.9154,-23.6661 542.372,-15.8993"/>
<polygon fill="#191970" stroke="#191970" points="542.9097,-19.3602 552.4311,-14.7133 542.0901,-12.4084 542.9097,-19.3602"/>
</g>
<!-- Node30&#45;&gt;Node21 -->
<g id="edge53" class="edge">
<title>Node30&#45;&gt;Node21</title>
<path fill="none" stroke="#191970" d="M229.4779,-61.9581C276.9101,-50.1957 356.8932,-30.3612 403.1057,-18.9012"/>
<polygon fill="#191970" stroke="#191970" points="404.1191,-22.256 412.9826,-16.4519 402.4342,-15.4618 404.1191,-22.256"/>
</g>
<!-- Node31 -->
<g id="node32" class="node">
<title>Node31</title>
<polygon fill="#ffffff" stroke="#bfbfbf" points="240,-.5 240,-19.5 294,-19.5 294,-.5 240,-.5"/>
<text text-anchor="middle" x="267" y="-7.5" font-family="Helvetica,sans-Serif" font-size="10.00" fill="#000000">iostream</text>
</g>
<!-- Node30&#45;&gt;Node31 -->
<g id="edge55" class="edge">
<title>Node30&#45;&gt;Node31</title>
<path fill="none" stroke="#191970" d="M202.875,-61.8906C214.6297,-52.3786 232.8486,-37.6357 246.8672,-26.2917"/>
<polygon fill="#191970" stroke="#191970" points="249.3856,-28.7562 254.9576,-19.7449 244.9822,-23.3146 249.3856,-28.7562"/>
</g>
<!-- Node32 -->
<g id="node33" class="node">
<title>Node32</title>
<polygon fill="#ffffff" stroke="#bfbfbf" points="54.5,-.5 54.5,-19.5 141.5,-19.5 141.5,-.5 54.5,-.5"/>
<text text-anchor="middle" x="98" y="-7.5" font-family="Helvetica,sans-Serif" font-size="10.00" fill="#000000">AMReX_Print.H</text>
</g>
<!-- Node30&#45;&gt;Node32 -->
<g id="edge56" class="edge">
<title>Node30&#45;&gt;Node32</title>
<path fill="none" stroke="#191970" d="M176.4688,-61.8906C161.5906,-52.0519 138.2496,-36.6167 120.8872,-25.1351"/>
<polygon fill="#191970" stroke="#191970" points="122.701,-22.1385 112.4292,-19.5419 118.8398,-27.9773 122.701,-22.1385"/>
</g>
<!-- Node33 -->
<g id="node34" class="node">
<title>Node33</title>
<polygon fill="#ffffff" stroke="#bfbfbf" points="160,-.5 160,-19.5 222,-19.5 222,-.5 160,-.5"/>
<text text-anchor="middle" x="191" y="-7.5" font-family="Helvetica,sans-Serif" font-size="10.00" fill="#000000">AMReX.H</text>
</g>
<!-- Node30&#45;&gt;Node33 -->
<g id="edge57" class="edge">
<title>Node30&#45;&gt;Node33</title>
<path fill="none" stroke="#191970" d="M191,-61.8906C191,-53.3657 191,-40.6392 191,-29.9235"/>
<polygon fill="#191970" stroke="#191970" points="194.5001,-29.7448 191,-19.7449 187.5001,-29.7449 194.5001,-29.7448"/>
</g>
<!-- Node34&#45;&gt;Node14 -->
<g id="edge59" class="edge">
<title>Node34&#45;&gt;Node14</title>
<path fill="none" stroke="#191970" d="M574.2714,-61.953C584.9571,-59.8247 596.3621,-57.6985 607,-56 739.2976,-34.8772 898.4035,-18.967 964.2065,-12.799"/>
<polygon fill="#191970" stroke="#191970" points="964.6748,-16.2707 974.308,-11.8602 964.027,-9.3007 964.6748,-16.2707"/>
</g>
<!-- Node34&#45;&gt;Node15 -->
<g id="edge61" class="edge">
<title>Node34&#45;&gt;Node15</title>
<path fill="none" stroke="#191970" d="M540,-61.8906C549.7119,-52.5581 564.6639,-38.1902 576.3741,-26.9374"/>
<polygon fill="#191970" stroke="#191970" points="579.0736,-29.1974 583.859,-19.7449 574.2234,-24.15 579.0736,-29.1974"/>
</g>
<!-- Node34&#45;&gt;Node21 -->
<g id="edge60" class="edge">
<title>Node34&#45;&gt;Node21</title>
<path fill="none" stroke="#191970" d="M515.7813,-61.8906C501.3566,-52.1421 478.8024,-36.8994 461.864,-25.4521"/>
<polygon fill="#191970" stroke="#191970" points="463.3641,-22.2415 453.1189,-19.5419 459.4444,-28.0412 463.3641,-22.2415"/>
</g>
<!-- Node34&#45;&gt;Node25 -->
<g id="edge62" class="edge">
<title>Node34&#45;&gt;Node25</title>
<path fill="none" stroke="#191970" d="M592.8546,-64.6217C620.4856,-61.73 653.334,-58.4711 683,-56 922.5788,-36.0437 1208.6286,-19.6478 1329.0521,-13.084"/>
<polygon fill="#191970" stroke="#191970" points="1329.3588,-16.5726 1339.1542,-12.5353 1328.9791,-9.5829 1329.3588,-16.5726"/>
</g>
<!-- Node36 -->
<g id="node37" class="node">
<title>Node36</title>
<polygon fill="#ffffff" stroke="#bfbfbf" points="318.5,-.5 318.5,-19.5 363.5,-19.5 363.5,-.5 318.5,-.5"/>
<text text-anchor="middle" x="341" y="-7.5" font-family="Helvetica,sans-Serif" font-size="10.00" fill="#000000">iosfwd</text>
</g>
<!-- Node35&#45;&gt;Node36 -->
<g id="edge64" class="edge">
<title>Node35&#45;&gt;Node36</title>
<path fill="none" stroke="#191970" d="M341,-56.2977C341,-48.3834 341,-38.6043 341,-30.0759"/>
<polygon fill="#191970" stroke="#191970" points="344.5001,-29.8469 341,-19.8469 337.5001,-29.847 344.5001,-29.8469"/>
</g>
<!-- Node37&#45;&gt;Node18 -->
<g id="edge70" class="edge">
<title>Node37&#45;&gt;Node18</title>
<path fill="none" stroke="#191970" d="M492.3075,-128.9075C535.4979,-110.8484 633.9599,-72.1677 721,-56 1037.3207,2.7564 1123.7759,-51.1073 1444,-20 1446.2025,-19.786 1448.4422,-19.5517 1450.7027,-19.3008"/>
<polygon fill="#191970" stroke="#191970" points="1451.1807,-22.7687 1460.6955,-18.1083 1450.3512,-15.818 1451.1807,-22.7687"/>
</g>
<!-- Node37&#45;&gt;Node30 -->
<g id="edge68" class="edge">
<title>Node37&#45;&gt;Node30</title>
<path fill="none" stroke="#191970" d="M430.3224,-128.9717C380.4693,-116.9998 294.898,-96.4504 240.7264,-83.4415"/>
<polygon fill="#191970" stroke="#191970" points="241.5333,-80.0358 230.9924,-81.1039 239.8987,-86.8423 241.5333,-80.0358"/>
</g>
<!-- Node37&#45;&gt;Node34 -->
<g id="edge69" class="edge">
<title>Node37&#45;&gt;Node34</title>
<path fill="none" stroke="#191970" d="M478.5965,-128.9005C487.953,-118.4525 503.1052,-101.5325 514.5401,-88.7635"/>
<polygon fill="#191970" stroke="#191970" points="517.3555,-90.8661 521.4194,-81.0817 512.1408,-86.1963 517.3555,-90.8661"/>
</g>
<!-- Node38 -->
<g id="node39" class="node">
<title>Node38</title>
<polygon fill="#ffffff" stroke="#bfbfbf" points="0,-62 0,-81 110,-81 110,-62 0,-62"/>
<text text-anchor="middle" x="55" y="-69" font-family="Helvetica,sans-Serif" font-size="10.00" fill="#000000">AMReX_Geometry.H</text>
</g>
<!-- Node37&#45;&gt;Node38 -->
<g id="edge71" class="edge">
<title>Node37&#45;&gt;Node38</title>
<path fill="none" stroke="#191970" d="M428.0345,-128.9861C417.9037,-126.8567 407.0895,-124.7216 397,-123 274.1877,-102.0448 241.5024,-109.6964 119,-87 113.239,-85.9326 107.2196,-84.6714 101.2762,-83.3368"/>
<polygon fill="#191970" stroke="#191970" points="101.9375,-79.8972 91.4047,-81.0425 100.3528,-86.7155 101.9375,-79.8972"/>
</g>
</g>
</svg>
