<?xml version="1.0" encoding="UTF-8" standalone="no"?>
<!DOCTYPE svg PUBLIC "-//W3C//DTD SVG 1.1//EN"
 "http://www.w3.org/Graphics/SVG/1.1/DTD/svg11.dtd">
<!-- Generated by graphviz version 2.40.1 (20161225.0304)
 -->
<!-- Title: stencils.H Pages: 1 -->
<svg width="769pt" height="252pt"
 viewBox="0.00 0.00 769.00 252.00" xmlns="http://www.w3.org/2000/svg" xmlns:xlink="http://www.w3.org/1999/xlink">
<g id="graph0" class="graph" transform="scale(1 1) rotate(0) translate(4 248)">
<title>stencils.H</title>
<polygon fill="#ffffff" stroke="transparent" points="-4,4 -4,-248 765,-248 765,4 -4,4"/>
<!-- Node5 -->
<g id="node1" class="node">
<title>Node5</title>
<polygon fill="#bfbfbf" stroke="#000000" points="283.5,-224.5 283.5,-243.5 344.5,-243.5 344.5,-224.5 283.5,-224.5"/>
<text text-anchor="middle" x="314" y="-231.5" font-family="Helvetica,sans-Serif" font-size="10.00" fill="#000000">stencils.H</text>
</g>
<!-- Node6 -->
<g id="node2" class="node">
<title>Node6</title>
<g id="a_node2"><a xlink:href="fvm__utils_8_h.html" target="_top" xlink:title="fvm_utils.H">
<polygon fill="#ffffff" stroke="#000000" points="280.5,-168.5 280.5,-187.5 347.5,-187.5 347.5,-168.5 280.5,-168.5"/>
<text text-anchor="middle" x="314" y="-175.5" font-family="Helvetica,sans-Serif" font-size="10.00" fill="#000000">fvm_utils.H</text>
</a>
</g>
</g>
<!-- Node5&#45;&gt;Node6 -->
<g id="edge1" class="edge">
<title>Node5&#45;&gt;Node6</title>
<path fill="none" stroke="#191970" d="M314,-214.1575C314,-205.155 314,-194.9199 314,-187.6427"/>
<polygon fill="#191970" stroke="#191970" points="310.5001,-214.2455 314,-224.2455 317.5001,-214.2456 310.5001,-214.2455"/>
</g>
<!-- Node7 -->
<g id="node3" class="node">
<title>Node7</title>
<g id="a_node3"><a xlink:href="curvature_8_h.html" target="_top" xlink:title="curvature.H">
<polygon fill="#ffffff" stroke="#000000" points="366,-112.5 366,-131.5 434,-131.5 434,-112.5 366,-112.5"/>
<text text-anchor="middle" x="400" y="-119.5" font-family="Helvetica,sans-Serif" font-size="10.00" fill="#000000">curvature.H</text>
</a>
</g>
</g>
<!-- Node6&#45;&gt;Node7 -->
<g id="edge2" class="edge">
<title>Node6&#45;&gt;Node7</title>
<path fill="none" stroke="#191970" d="M337.3905,-162.769C352.6299,-152.8456 372.0509,-140.1994 385.1916,-131.6427"/>
<polygon fill="#191970" stroke="#191970" points="335.4502,-159.8558 328.9801,-168.2455 339.2699,-165.7218 335.4502,-159.8558"/>
</g>
<!-- Node10 -->
<g id="node6" class="node">
<title>Node10</title>
<g id="a_node6"><a xlink:href="divergence_8_h.html" target="_top" xlink:title="divergence.H">
<polygon fill="#ffffff" stroke="#000000" points="0,-112.5 0,-131.5 74,-131.5 74,-112.5 0,-112.5"/>
<text text-anchor="middle" x="37" y="-119.5" font-family="Helvetica,sans-Serif" font-size="10.00" fill="#000000">divergence.H</text>
</a>
</g>
</g>
<!-- Node6&#45;&gt;Node10 -->
<g id="edge5" class="edge">
<title>Node6&#45;&gt;Node10</title>
<path fill="none" stroke="#191970" d="M270.2666,-169.5277C223.7772,-160.4662 148.1314,-145.5634 83,-132 80.1196,-131.4002 77.1397,-130.7713 74.1452,-130.1334"/>
<polygon fill="#191970" stroke="#191970" points="269.8126,-173.0049 280.2972,-171.4803 271.1502,-166.1339 269.8126,-173.0049"/>
</g>
<!-- Node11 -->
<g id="node7" class="node">
<title>Node11</title>
<g id="a_node7"><a xlink:href="gradient_8_h.html" target="_top" xlink:title="gradient.H">
<polygon fill="#ffffff" stroke="#000000" points="452,-112.5 452,-131.5 514,-131.5 514,-112.5 452,-112.5"/>
<text text-anchor="middle" x="483" y="-119.5" font-family="Helvetica,sans-Serif" font-size="10.00" fill="#000000">gradient.H</text>
</a>
</g>
</g>
<!-- Node6&#45;&gt;Node11 -->
<g id="edge7" class="edge">
<title>Node6&#45;&gt;Node11</title>
<path fill="none" stroke="#191970" d="M352.6573,-165.1905C383.6193,-154.9309 426.3574,-140.7691 454.327,-131.5011"/>
<polygon fill="#191970" stroke="#191970" points="351.4437,-161.9054 343.0521,-168.3733 353.6455,-168.5501 351.4437,-161.9054"/>
</g>
<!-- Node16 -->
<g id="node12" class="node">
<title>Node16</title>
<g id="a_node12"><a xlink:href="laplacian_8_h.html" target="_top" xlink:title="laplacian.H">
<polygon fill="#ffffff" stroke="#000000" points="92.5,-112.5 92.5,-131.5 157.5,-131.5 157.5,-112.5 92.5,-112.5"/>
<text text-anchor="middle" x="125" y="-119.5" font-family="Helvetica,sans-Serif" font-size="10.00" fill="#000000">laplacian.H</text>
</a>
</g>
</g>
<!-- Node6&#45;&gt;Node16 -->
<g id="edge13" class="edge">
<title>Node6&#45;&gt;Node16</title>
<path fill="none" stroke="#191970" d="M271.6643,-165.4561C236.9706,-155.1765 188.6166,-140.8494 157.0663,-131.5011"/>
<polygon fill="#191970" stroke="#191970" points="270.9274,-168.8881 281.5097,-168.3733 272.9161,-162.1765 270.9274,-168.8881"/>
</g>
<!-- Node17 -->
<g id="node13" class="node">
<title>Node17</title>
<g id="a_node13"><a xlink:href="strainrate_8_h.html" target="_top" xlink:title="strainrate.H">
<polygon fill="#ffffff" stroke="#000000" points="553,-112.5 553,-131.5 621,-131.5 621,-112.5 553,-112.5"/>
<text text-anchor="middle" x="587" y="-119.5" font-family="Helvetica,sans-Serif" font-size="10.00" fill="#000000">strainrate.H</text>
</a>
</g>
</g>
<!-- Node6&#45;&gt;Node17 -->
<g id="edge15" class="edge">
<title>Node6&#45;&gt;Node17</title>
<path fill="none" stroke="#191970" d="M357.7642,-169.0227C412.0668,-157.8837 503.5132,-139.1255 552.8995,-128.995"/>
<polygon fill="#191970" stroke="#191970" points="356.8417,-165.639 347.749,-171.0771 358.2483,-172.4962 356.8417,-165.639"/>
</g>
<!-- Node19 -->
<g id="node15" class="node">
<title>Node19</title>
<g id="a_node15"><a xlink:href="vorticity__mag_8_h.html" target="_top" xlink:title="vorticity_mag.H">
<polygon fill="#ffffff" stroke="#000000" points="176,-112.5 176,-131.5 262,-131.5 262,-112.5 176,-112.5"/>
<text text-anchor="middle" x="219" y="-119.5" font-family="Helvetica,sans-Serif" font-size="10.00" fill="#000000">vorticity_mag.H</text>
</a>
</g>
</g>
<!-- Node6&#45;&gt;Node19 -->
<g id="edge19" class="edge">
<title>Node6&#45;&gt;Node19</title>
<path fill="none" stroke="#191970" d="M288.6324,-163.0465C271.729,-153.0824 250.0096,-140.2794 235.3581,-131.6427"/>
<polygon fill="#191970" stroke="#191970" points="287.0602,-166.1825 297.4523,-168.2455 290.6149,-160.1522 287.0602,-166.1825"/>
</g>
<!-- Node20 -->
<g id="node16" class="node">
<title>Node20</title>
<g id="a_node16"><a xlink:href="qcriterion_8_h.html" target="_top" xlink:title="qcriterion.H">
<polygon fill="#ffffff" stroke="#000000" points="280.5,-112.5 280.5,-131.5 347.5,-131.5 347.5,-112.5 280.5,-112.5"/>
<text text-anchor="middle" x="314" y="-119.5" font-family="Helvetica,sans-Serif" font-size="10.00" fill="#000000">qcriterion.H</text>
</a>
</g>
</g>
<!-- Node6&#45;&gt;Node20 -->
<g id="edge21" class="edge">
<title>Node6&#45;&gt;Node20</title>
<path fill="none" stroke="#191970" d="M314,-158.1575C314,-149.155 314,-138.9199 314,-131.6427"/>
<polygon fill="#191970" stroke="#191970" points="310.5001,-158.2455 314,-168.2455 317.5001,-158.2456 310.5001,-158.2455"/>
</g>
<!-- Node8 -->
<g id="node4" class="node">
<title>Node8</title>
<g id="a_node4"><a xlink:href="fvm_8_h.html" target="_top" xlink:title="fvm.H">
<polygon fill="#ffffff" stroke="#000000" points="197,-56.5 197,-75.5 241,-75.5 241,-56.5 197,-56.5"/>
<text text-anchor="middle" x="219" y="-63.5" font-family="Helvetica,sans-Serif" font-size="10.00" fill="#000000">fvm.H</text>
</a>
</g>
</g>
<!-- Node7&#45;&gt;Node8 -->
<g id="edge3" class="edge">
<title>Node7&#45;&gt;Node8</title>
<path fill="none" stroke="#191970" d="M358.6009,-109.4803C328.4518,-100.3198 286.6505,-87.5304 250,-76 247.087,-75.0836 244.0236,-74.1088 241.0029,-73.1411"/>
<polygon fill="#191970" stroke="#191970" points="357.7689,-112.8853 368.3544,-112.4406 359.802,-106.1871 357.7689,-112.8853"/>
</g>
<!-- Node9 -->
<g id="node5" class="node">
<title>Node9</title>
<g id="a_node5"><a xlink:href="_derived_qty_defs_8cpp.html" target="_top" xlink:title="DerivedQtyDefs.cpp">
<polygon fill="#ffffff" stroke="#000000" points="166,-.5 166,-19.5 272,-19.5 272,-.5 166,-.5"/>
<text text-anchor="middle" x="219" y="-7.5" font-family="Helvetica,sans-Serif" font-size="10.00" fill="#000000">DerivedQtyDefs.cpp</text>
</a>
</g>
</g>
<!-- Node8&#45;&gt;Node9 -->
<g id="edge4" class="edge">
<title>Node8&#45;&gt;Node9</title>
<path fill="none" stroke="#191970" d="M219,-46.1575C219,-37.155 219,-26.9199 219,-19.6427"/>
<polygon fill="#191970" stroke="#191970" points="215.5001,-46.2455 219,-56.2455 222.5001,-46.2456 215.5001,-46.2455"/>
</g>
<!-- Node10&#45;&gt;Node8 -->
<g id="edge6" class="edge">
<title>Node10&#45;&gt;Node8</title>
<path fill="none" stroke="#191970" d="M78.2274,-109.3147C115.063,-97.9806 167.6138,-81.8111 196.9793,-72.7756"/>
<polygon fill="#191970" stroke="#191970" points="76.8154,-106.0871 68.2869,-112.3733 78.874,-112.7776 76.8154,-106.0871"/>
</g>
<!-- Node11&#45;&gt;Node8 -->
<g id="edge8" class="edge">
<title>Node11&#45;&gt;Node8</title>
<path fill="none" stroke="#191970" d="M441.6964,-111.8254C355.9919,-93.6678 331.5266,-96.6631 250,-76 247.1495,-75.2775 244.178,-74.436 241.2522,-73.5535"/>
<polygon fill="#191970" stroke="#191970" points="441.0864,-115.2742 451.5993,-113.959 442.5608,-108.4312 441.0864,-115.2742"/>
</g>
<!-- Node12 -->
<g id="node8" class="node">
<title>Node12</title>
<g id="a_node8"><a xlink:href="_dam_break_8cpp.html" target="_top" xlink:title="DamBreak.cpp">
<polygon fill="#ffffff" stroke="#000000" points="259,-56.5 259,-75.5 341,-75.5 341,-56.5 259,-56.5"/>
<text text-anchor="middle" x="300" y="-63.5" font-family="Helvetica,sans-Serif" font-size="10.00" fill="#000000">DamBreak.cpp</text>
</a>
</g>
</g>
<!-- Node11&#45;&gt;Node12 -->
<g id="edge9" class="edge">
<title>Node11&#45;&gt;Node12</title>
<path fill="none" stroke="#191970" d="M442.0039,-109.4547C408.4659,-99.1918 361.7462,-84.895 331.1957,-75.5462"/>
<polygon fill="#191970" stroke="#191970" points="441.3701,-112.9209 451.9565,-112.5004 443.4184,-106.2273 441.3701,-112.9209"/>
</g>
<!-- Node13 -->
<g id="node9" class="node">
<title>Node13</title>
<g id="a_node9"><a xlink:href="_zalesak_disk_8cpp.html" target="_top" xlink:title="ZalesakDisk.cpp">
<polygon fill="#ffffff" stroke="#000000" points="359,-56.5 359,-75.5 449,-75.5 449,-56.5 359,-56.5"/>
<text text-anchor="middle" x="404" y="-63.5" font-family="Helvetica,sans-Serif" font-size="10.00" fill="#000000">ZalesakDisk.cpp</text>
</a>
</g>
</g>
<!-- Node11&#45;&gt;Node13 -->
<g id="edge10" class="edge">
<title>Node11&#45;&gt;Node13</title>
<path fill="none" stroke="#191970" d="M460.7244,-106.2097C446.8495,-96.3743 429.4485,-84.0394 417.6031,-75.6427"/>
<polygon fill="#191970" stroke="#191970" points="459.0569,-109.3178 469.2393,-112.2455 463.1051,-103.6071 459.0569,-109.3178"/>
</g>
<!-- Node14 -->
<g id="node10" class="node">
<title>Node14</title>
<g id="a_node10"><a xlink:href="_one_eq_ksgs_8cpp.html" target="_top" xlink:title="OneEqKsgs.cpp">
<polygon fill="#ffffff" stroke="#000000" points="563,-56.5 563,-75.5 651,-75.5 651,-56.5 563,-56.5"/>
<text text-anchor="middle" x="607" y="-63.5" font-family="Helvetica,sans-Serif" font-size="10.00" fill="#000000">OneEqKsgs.cpp</text>
</a>
</g>
</g>
<!-- Node11&#45;&gt;Node14 -->
<g id="edge11" class="edge">
<title>Node11&#45;&gt;Node14</title>
<path fill="none" stroke="#191970" d="M513.4524,-108.2473C535.9722,-98.0771 566.0617,-84.4883 585.9618,-75.5011"/>
<polygon fill="#191970" stroke="#191970" points="511.9895,-105.0675 504.3164,-112.3733 514.8706,-111.4471 511.9895,-105.0675"/>
</g>
<!-- Node15 -->
<g id="node11" class="node">
<title>Node15</title>
<g id="a_node11"><a xlink:href="_a_b_l_stats_8cpp.html" target="_top" xlink:title="ABLStats.cpp">
<polygon fill="#ffffff" stroke="#000000" points="467.5,-56.5 467.5,-75.5 544.5,-75.5 544.5,-56.5 467.5,-56.5"/>
<text text-anchor="middle" x="506" y="-63.5" font-family="Helvetica,sans-Serif" font-size="10.00" fill="#000000">ABLStats.cpp</text>
</a>
</g>
</g>
<!-- Node11&#45;&gt;Node15 -->
<g id="edge12" class="edge">
<title>Node11&#45;&gt;Node15</title>
<path fill="none" stroke="#191970" d="M490.9066,-102.7493C494.6617,-93.6064 498.9851,-83.0798 502.0396,-75.6427"/>
<polygon fill="#191970" stroke="#191970" points="487.568,-101.6656 487.0063,-112.2455 494.0431,-104.3251 487.568,-101.6656"/>
</g>
<!-- Node16&#45;&gt;Node8 -->
<g id="edge14" class="edge">
<title>Node16&#45;&gt;Node8</title>
<path fill="none" stroke="#191970" d="M150.1005,-107.0465C166.826,-97.0824 188.3168,-84.2794 202.8141,-75.6427"/>
<polygon fill="#191970" stroke="#191970" points="148.1732,-104.1206 141.3736,-112.2455 151.7559,-110.1343 148.1732,-104.1206"/>
</g>
<!-- Node17&#45;&gt;Node8 -->
<g id="edge16" class="edge">
<title>Node17&#45;&gt;Node8</title>
<path fill="none" stroke="#191970" d="M542.6397,-114.9281C536.0589,-113.9199 529.3551,-112.9154 523,-112 401.8664,-94.5521 369.3917,-102.8961 250,-76 247.1313,-75.3537 244.1489,-74.5574 241.2175,-73.6987"/>
<polygon fill="#191970" stroke="#191970" points="542.394,-118.4317 552.8119,-116.5035 543.4654,-111.5142 542.394,-118.4317"/>
</g>
<!-- Node17&#45;&gt;Node14 -->
<g id="edge17" class="edge">
<title>Node17&#45;&gt;Node14</title>
<path fill="none" stroke="#191970" d="M593.8753,-102.7493C597.1406,-93.6064 600.9001,-83.0798 603.5562,-75.6427"/>
<polygon fill="#191970" stroke="#191970" points="590.5511,-101.6509 590.4837,-112.2455 597.1433,-104.0053 590.5511,-101.6509"/>
</g>
<!-- Node18 -->
<g id="node14" class="node">
<title>Node18</title>
<g id="a_node14"><a xlink:href="_smagorinsky_8cpp.html" target="_top" xlink:title="Smagorinsky.cpp">
<polygon fill="#ffffff" stroke="#000000" points="669,-56.5 669,-75.5 761,-75.5 761,-56.5 669,-56.5"/>
<text text-anchor="middle" x="715" y="-63.5" font-family="Helvetica,sans-Serif" font-size="10.00" fill="#000000">Smagorinsky.cpp</text>
</a>
</g>
</g>
<!-- Node17&#45;&gt;Node18 -->
<g id="edge18" class="edge">
<title>Node17&#45;&gt;Node18</title>
<path fill="none" stroke="#191970" d="M618.4348,-108.2473C641.6809,-98.0771 672.7411,-84.4883 693.2831,-75.5011"/>
<polygon fill="#191970" stroke="#191970" points="616.7627,-105.1585 609.004,-112.3733 619.5685,-111.5716 616.7627,-105.1585"/>
</g>
<!-- Node19&#45;&gt;Node8 -->
<g id="edge20" class="edge">
<title>Node19&#45;&gt;Node8</title>
<path fill="none" stroke="#191970" d="M219,-102.1575C219,-93.155 219,-82.9199 219,-75.6427"/>
<polygon fill="#191970" stroke="#191970" points="215.5001,-102.2455 219,-112.2455 222.5001,-102.2456 215.5001,-102.2455"/>
</g>
<!-- Node20&#45;&gt;Node8 -->
<g id="edge22" class="edge">
<title>Node20&#45;&gt;Node8</title>
<path fill="none" stroke="#191970" d="M288.6324,-107.0465C271.729,-97.0824 250.0096,-84.2794 235.3581,-75.6427"/>
<polygon fill="#191970" stroke="#191970" points="287.0602,-110.1825 297.4523,-112.2455 290.6149,-104.1522 287.0602,-110.1825"/>
</g>
</g>
</svg>
