<?xml version="1.0" encoding="UTF-8" standalone="no"?>
<!DOCTYPE svg PUBLIC "-//W3C//DTD SVG 1.1//EN"
 "http://www.w3.org/Graphics/SVG/1.1/DTD/svg11.dtd">
<!-- Generated by graphviz version 2.40.1 (20161225.0304)
 -->
<!-- Title: strainrate.H Pages: 1 -->
<!--zoomable 308 -->
<svg id="main" version="1.1" xmlns="http://www.w3.org/2000/svg" xmlns:xlink="http://www.w3.org/1999/xlink" xml:space="preserve" onload="init(evt)">
<style type="text/css"><![CDATA[
.edge:hover path { stroke: red; }
.edge:hover polygon { stroke: red; fill: red; }
]]></style>
<script type="text/javascript"><![CDATA[
var edges = document.getElementsByTagName('g');
if (edges && edges.length) {
  for (var i=0;i<edges.length;i++) {
    if (edges[i].id.substr(0,4)=='edge') {
      edges[i].setAttribute('class','edge');
    }
  }
}
]]></script>
        <defs>
                <circle id="rim" cx="0" cy="0" r="7"/>
                <circle id="rim2" cx="0" cy="0" r="3.5"/>
                <g id="zoomPlus">
                        <use xlink:href="#rim" fill="#404040">
                                <set attributeName="fill" to="#808080" begin="zoomplus.mouseover" end="zoomplus.mouseout"/>
                        </use>
                        <path d="M-4,0h8M0,-4v8" fill="none" stroke="white" stroke-width="1.5" pointer-events="none"/>
                </g>
                <g id="zoomMin">
                        <use xlink:href="#rim" fill="#404040">
                                <set attributeName="fill" to="#808080" begin="zoomminus.mouseover" end="zoomminus.mouseout"/>
                        </use>
                        <path d="M-4,0h8" fill="none" stroke="white" stroke-width="1.5" pointer-events="none"/>
                </g>
                <g id="dirArrow">
                        <path fill="none" stroke="white" stroke-width="1.5" d="M0,-3.0v7 M-2.5,-0.5L0,-3.0L2.5,-0.5"/>
                </g>
               <g id="resetDef">
                       <use xlink:href="#rim2" fill="#404040">
                               <set attributeName="fill" to="#808080" begin="reset.mouseover" end="reset.mouseout"/>
                       </use>
               </g>
        </defs>

<script type="text/javascript">
var viewWidth = 2035;
var viewHeight = 308;
var sectionId = 'dynsection-0';
</script>
<script xlink:href="svgpan.js"/>
<svg id="graph" class="graph">
<g id="viewport">
<title>strainrate.H</title>
<polygon fill="#ffffff" stroke="transparent" points="-4,4 -4,-304 2030.5,-304 2030.5,4 -4,4"/>
<!-- Node0 -->
<g id="node1" class="node">
<title>Node0</title>
<polygon fill="#bfbfbf" stroke="#000000" points="1723.5,-280.5 1723.5,-299.5 1791.5,-299.5 1791.5,-280.5 1723.5,-280.5"/>
<text text-anchor="middle" x="1757.5" y="-287.5" font-family="Helvetica,sans-Serif" font-size="10.00" fill="#000000">strainrate.H</text>
</g>
<!-- Node1 -->
<g id="node2" class="node">
<title>Node1</title>
<g id="a_node2"><a xlink:href="fvm__utils_8_h.html" target="_top" xlink:title="amr&#45;wind/fvm/fvm_utils.H">
<polygon fill="#ffffff" stroke="#000000" points="1693,-224.5 1693,-243.5 1822,-243.5 1822,-224.5 1693,-224.5"/>
<text text-anchor="middle" x="1757.5" y="-231.5" font-family="Helvetica,sans-Serif" font-size="10.00" fill="#000000">amr&#45;wind/fvm/fvm_utils.H</text>
</a>
</g>
</g>
<!-- Node0&#45;&gt;Node1 -->
<g id="edge1" class="edge">
<title>Node0&#45;&gt;Node1</title>
<path fill="none" stroke="#191970" d="M1757.5,-280.2455C1757.5,-272.9382 1757.5,-262.6944 1757.5,-253.7046"/>
<polygon fill="#191970" stroke="#191970" points="1761.0001,-253.6426 1757.5,-243.6427 1754.0001,-253.6427 1761.0001,-253.6426"/>
</g>
<!-- Node2 -->
<g id="node3" class="node">
<title>Node2</title>
<g id="a_node3"><a xlink:href="_field_repo_8_h.html" target="_top" xlink:title="amr&#45;wind/core/FieldRepo.H">
<polygon fill="#ffffff" stroke="#000000" points="1004.5,-168.5 1004.5,-187.5 1140.5,-187.5 1140.5,-168.5 1004.5,-168.5"/>
<text text-anchor="middle" x="1072.5" y="-175.5" font-family="Helvetica,sans-Serif" font-size="10.00" fill="#000000">amr&#45;wind/core/FieldRepo.H</text>
</a>
</g>
</g>
<!-- Node1&#45;&gt;Node2 -->
<g id="edge2" class="edge">
<title>Node1&#45;&gt;Node2</title>
<path fill="none" stroke="#191970" d="M1692.7484,-228.7064C1566.3447,-218.3727 1287.1949,-195.5517 1150.7118,-184.394"/>
<polygon fill="#191970" stroke="#191970" points="1150.99,-180.9051 1140.738,-183.5786 1150.4196,-187.8818 1150.99,-180.9051"/>
</g>
<!-- Node21 -->
<g id="node22" class="node">
<title>Node21</title>
<g id="a_node22"><a xlink:href="stencils_8_h.html" target="_top" xlink:title="Second&#45;order finite volume discretization stencil coefficients. ">
<polygon fill="#ffffff" stroke="#000000" points="1696,-168.5 1696,-187.5 1819,-187.5 1819,-168.5 1696,-168.5"/>
<text text-anchor="middle" x="1757.5" y="-175.5" font-family="Helvetica,sans-Serif" font-size="10.00" fill="#000000">amr&#45;wind/fvm/stencils.H</text>
</a>
</g>
</g>
<!-- Node1&#45;&gt;Node21 -->
<g id="edge38" class="edge">
<title>Node1&#45;&gt;Node21</title>
<path fill="none" stroke="#191970" d="M1757.5,-224.2455C1757.5,-216.9382 1757.5,-206.6944 1757.5,-197.7046"/>
<polygon fill="#191970" stroke="#191970" points="1761.0001,-197.6426 1757.5,-187.6427 1754.0001,-197.6427 1761.0001,-197.6426"/>
</g>
<!-- Node26 -->
<g id="node27" class="node">
<title>Node26</title>
<polygon fill="#ffffff" stroke="#bfbfbf" points="1837,-168.5 1837,-187.5 1932,-187.5 1932,-168.5 1837,-168.5"/>
<text text-anchor="middle" x="1884.5" y="-175.5" font-family="Helvetica,sans-Serif" font-size="10.00" fill="#000000">AMReX_MFIter.H</text>
</g>
<!-- Node1&#45;&gt;Node26 -->
<g id="edge43" class="edge">
<title>Node1&#45;&gt;Node26</title>
<path fill="none" stroke="#191970" d="M1779.3321,-224.3733C1799.8103,-215.3435 1830.6399,-201.7494 1853.6319,-191.6111"/>
<polygon fill="#191970" stroke="#191970" points="1855.215,-194.7383 1862.9528,-187.5011 1852.3907,-188.3333 1855.215,-194.7383"/>
</g>
<!-- Node3 -->
<g id="node4" class="node">
<title>Node3</title>
<polygon fill="#ffffff" stroke="#bfbfbf" points="667,-.5 667,-19.5 708,-19.5 708,-.5 667,-.5"/>
<text text-anchor="middle" x="687.5" y="-7.5" font-family="Helvetica,sans-Serif" font-size="10.00" fill="#000000">string</text>
</g>
<!-- Node2&#45;&gt;Node3 -->
<g id="edge3" class="edge">
<title>Node2&#45;&gt;Node3</title>
<path fill="none" stroke="#191970" d="M1016.3107,-168.4358C927.5022,-152.2685 760.3598,-117.2369 717.5,-76 704.4901,-63.4828 696.641,-44.2724 692.2538,-29.799"/>
<polygon fill="#191970" stroke="#191970" points="695.5479,-28.5742 689.5455,-19.8437 688.7934,-30.4118 695.5479,-28.5742"/>
</g>
<!-- Node4 -->
<g id="node5" class="node">
<title>Node4</title>
<polygon fill="#ffffff" stroke="#bfbfbf" points="1229,-56.5 1229,-75.5 1312,-75.5 1312,-56.5 1229,-56.5"/>
<text text-anchor="middle" x="1270.5" y="-63.5" font-family="Helvetica,sans-Serif" font-size="10.00" fill="#000000">unordered_map</text>
</g>
<!-- Node2&#45;&gt;Node4 -->
<g id="edge4" class="edge">
<title>Node2&#45;&gt;Node4</title>
<path fill="none" stroke="#191970" d="M1089.3814,-168.4509C1124.0858,-148.8201 1203.6292,-103.8259 1244.7826,-80.5472"/>
<polygon fill="#191970" stroke="#191970" points="1246.6806,-83.4948 1253.6614,-75.5249 1243.2341,-77.402 1246.6806,-83.4948"/>
</g>
<!-- Node5 -->
<g id="node6" class="node">
<title>Node5</title>
<g id="a_node6"><a xlink:href="_field_desc_types_8_h.html" target="_top" xlink:title="amr&#45;wind/core/FieldDescTypes.H">
<polygon fill="#ffffff" stroke="#000000" points="922,-.5 922,-19.5 1085,-19.5 1085,-.5 922,-.5"/>
<text text-anchor="middle" x="1003.5" y="-7.5" font-family="Helvetica,sans-Serif" font-size="10.00" fill="#000000">amr&#45;wind/core/FieldDescTypes.H</text>
</a>
</g>
</g>
<!-- Node2&#45;&gt;Node5 -->
<g id="edge5" class="edge">
<title>Node2&#45;&gt;Node5</title>
<path fill="none" stroke="#191970" d="M1140.8735,-174.5411C1235.6265,-168.9464 1401.4213,-156.0319 1456.5,-132 1497.5037,-114.1093 1552.705,-89.0006 1522.5,-56 1494.3097,-25.2006 1236.8273,-14.9003 1095.4511,-11.5508"/>
<polygon fill="#191970" stroke="#191970" points="1095.1386,-8.0428 1085.0608,-11.3122 1094.9778,-15.041 1095.1386,-8.0428"/>
</g>
<!-- Node6 -->
<g id="node7" class="node">
<title>Node6</title>
<g id="a_node7"><a xlink:href="_field_utils_8_h.html" target="_top" xlink:title="amr&#45;wind/core/FieldUtils.H">
<polygon fill="#ffffff" stroke="#000000" points="0,-56.5 0,-75.5 133,-75.5 133,-56.5 0,-56.5"/>
<text text-anchor="middle" x="66.5" y="-63.5" font-family="Helvetica,sans-Serif" font-size="10.00" fill="#000000">amr&#45;wind/core/FieldUtils.H</text>
</a>
</g>
</g>
<!-- Node2&#45;&gt;Node6 -->
<g id="edge6" class="edge">
<title>Node2&#45;&gt;Node6</title>
<path fill="none" stroke="#191970" d="M1004.4987,-177.06C804.4059,-173.954 226.724,-162.4276 147.5,-132 120.9671,-121.8095 96.5696,-99.3686 81.6332,-83.4908"/>
<polygon fill="#191970" stroke="#191970" points="84.0387,-80.9336 74.7237,-75.8857 78.8577,-85.6407 84.0387,-80.9336"/>
</g>
<!-- Node7 -->
<g id="node8" class="node">
<title>Node7</title>
<polygon fill="#ffffff" stroke="#bfbfbf" points="147.5,-.5 147.5,-19.5 251.5,-19.5 251.5,-.5 147.5,-.5"/>
<text text-anchor="middle" x="199.5" y="-7.5" font-family="Helvetica,sans-Serif" font-size="10.00" fill="#000000">AMReX_MultiFab.H</text>
</g>
<!-- Node2&#45;&gt;Node7 -->
<g id="edge36" class="edge">
<title>Node2&#45;&gt;Node7</title>
<path fill="none" stroke="#191970" d="M1004.4768,-177.0139C847.5314,-174.2091 464.032,-164.1816 339.5,-132 283.2957,-117.4757 259.9834,-119.4616 221.5,-76 210.1277,-63.1565 204.6024,-44.2487 201.9367,-29.9591"/>
<polygon fill="#191970" stroke="#191970" points="205.337,-29.0436 200.3549,-19.6932 198.4187,-30.1096 205.337,-29.0436"/>
</g>
<!-- Node9 -->
<g id="node10" class="node">
<title>Node9</title>
<g id="a_node10"><a xlink:href="_field_8_h.html" target="_top" xlink:title="amr&#45;wind/core/Field.H">
<polygon fill="#ffffff" stroke="#000000" points="864,-112.5 864,-131.5 977,-131.5 977,-112.5 864,-112.5"/>
<text text-anchor="middle" x="920.5" y="-119.5" font-family="Helvetica,sans-Serif" font-size="10.00" fill="#000000">amr&#45;wind/core/Field.H</text>
</a>
</g>
</g>
<!-- Node2&#45;&gt;Node9 -->
<g id="edge10" class="edge">
<title>Node2&#45;&gt;Node9</title>
<path fill="none" stroke="#191970" d="M1046.3703,-168.3733C1021.4232,-159.1822 983.6408,-145.2624 955.9794,-135.0713"/>
<polygon fill="#191970" stroke="#191970" points="956.8822,-131.674 946.2888,-131.5011 954.4622,-138.2424 956.8822,-131.674"/>
</g>
<!-- Node16 -->
<g id="node17" class="node">
<title>Node16</title>
<g id="a_node17"><a xlink:href="_int_field_8_h.html" target="_top" xlink:title="amr&#45;wind/core/IntField.H">
<polygon fill="#ffffff" stroke="#000000" points="1301.5,-112.5 1301.5,-131.5 1425.5,-131.5 1425.5,-112.5 1301.5,-112.5"/>
<text text-anchor="middle" x="1363.5" y="-119.5" font-family="Helvetica,sans-Serif" font-size="10.00" fill="#000000">amr&#45;wind/core/IntField.H</text>
</a>
</g>
</g>
<!-- Node2&#45;&gt;Node16 -->
<g id="edge24" class="edge">
<title>Node2&#45;&gt;Node16</title>
<path fill="none" stroke="#191970" d="M1122.194,-168.4369C1172.5196,-158.7522 1250.3723,-143.7703 1303.9651,-133.4569"/>
<polygon fill="#191970" stroke="#191970" points="1304.8525,-136.8504 1314.0109,-131.5237 1303.5297,-129.9765 1304.8525,-136.8504"/>
</g>
<!-- Node17 -->
<g id="node18" class="node">
<title>Node17</title>
<polygon fill="#ffffff" stroke="#bfbfbf" points="1407,-56.5 1407,-75.5 1514,-75.5 1514,-56.5 1407,-56.5"/>
<text text-anchor="middle" x="1460.5" y="-63.5" font-family="Helvetica,sans-Serif" font-size="10.00" fill="#000000">AMReX_iMultiFab.H</text>
</g>
<!-- Node2&#45;&gt;Node17 -->
<g id="edge37" class="edge">
<title>Node2&#45;&gt;Node17</title>
<path fill="none" stroke="#191970" d="M1140.8642,-173.0637C1239.3298,-165.3932 1411.8076,-149.6466 1434.5,-132 1448.7379,-120.928 1455.1945,-100.9238 1458.1132,-85.831"/>
<polygon fill="#191970" stroke="#191970" points="1461.5777,-86.3293 1459.6738,-75.907 1454.6627,-85.2418 1461.5777,-86.3293"/>
</g>
<!-- Node18 -->
<g id="node19" class="node">
<title>Node18</title>
<g id="a_node19"><a xlink:href="_scratch_field_8_h.html" target="_top" xlink:title="amr&#45;wind/core/ScratchField.H">
<polygon fill="#ffffff" stroke="#000000" points="348.5,-112.5 348.5,-131.5 494.5,-131.5 494.5,-112.5 348.5,-112.5"/>
<text text-anchor="middle" x="421.5" y="-119.5" font-family="Helvetica,sans-Serif" font-size="10.00" fill="#000000">amr&#45;wind/core/ScratchField.H</text>
</a>
</g>
</g>
<!-- Node2&#45;&gt;Node18 -->
<g id="edge28" class="edge">
<title>Node2&#45;&gt;Node18</title>
<path fill="none" stroke="#191970" d="M1004.3682,-172.1392C884.2106,-161.8031 635.0614,-140.3709 504.8572,-129.1705"/>
<polygon fill="#191970" stroke="#191970" points="504.8088,-125.6535 494.5456,-128.2835 504.2088,-132.6278 504.8088,-125.6535"/>
</g>
<!-- Node20 -->
<g id="node21" class="node">
<title>Node20</title>
<polygon fill="#ffffff" stroke="#bfbfbf" points="1019.5,-112.5 1019.5,-131.5 1125.5,-131.5 1125.5,-112.5 1019.5,-112.5"/>
<text text-anchor="middle" x="1072.5" y="-119.5" font-family="Helvetica,sans-Serif" font-size="10.00" fill="#000000">AMReX_AmrCore.H</text>
</g>
<!-- Node2&#45;&gt;Node20 -->
<g id="edge35" class="edge">
<title>Node2&#45;&gt;Node20</title>
<path fill="none" stroke="#191970" d="M1072.5,-168.2455C1072.5,-160.9382 1072.5,-150.6944 1072.5,-141.7046"/>
<polygon fill="#191970" stroke="#191970" points="1076.0001,-141.6426 1072.5,-131.6427 1069.0001,-141.6427 1076.0001,-141.6426"/>
</g>
<!-- Node6&#45;&gt;Node5 -->
<g id="edge7" class="edge">
<title>Node6&#45;&gt;Node5</title>
<path fill="none" stroke="#191970" d="M133.1356,-62.0175C297.6612,-52.1846 723.4161,-26.7393 911.6659,-15.4885"/>
<polygon fill="#191970" stroke="#191970" points="912.039,-18.9725 921.8123,-14.8821 911.6213,-11.985 912.039,-18.9725"/>
</g>
<!-- Node6&#45;&gt;Node7 -->
<g id="edge8" class="edge">
<title>Node6&#45;&gt;Node7</title>
<path fill="none" stroke="#191970" d="M89.3635,-56.3733C110.905,-47.3032 143.3838,-33.6279 167.4956,-23.4755"/>
<polygon fill="#191970" stroke="#191970" points="169.0767,-26.6075 176.9348,-19.5011 166.3603,-20.156 169.0767,-26.6075"/>
</g>
<!-- Node8 -->
<g id="node9" class="node">
<title>Node8</title>
<polygon fill="#ffffff" stroke="#bfbfbf" points="8.5,-.5 8.5,-19.5 124.5,-19.5 124.5,-.5 8.5,-.5"/>
<text text-anchor="middle" x="66.5" y="-7.5" font-family="Helvetica,sans-Serif" font-size="10.00" fill="#000000">AMReX_Interpolater.H</text>
</g>
<!-- Node6&#45;&gt;Node8 -->
<g id="edge9" class="edge">
<title>Node6&#45;&gt;Node8</title>
<path fill="none" stroke="#191970" d="M66.5,-56.2455C66.5,-48.9382 66.5,-38.6944 66.5,-29.7046"/>
<polygon fill="#191970" stroke="#191970" points="70.0001,-29.6426 66.5,-19.6427 63.0001,-29.6427 70.0001,-29.6426"/>
</g>
<!-- Node9&#45;&gt;Node3 -->
<g id="edge11" class="edge">
<title>Node9&#45;&gt;Node3</title>
<path fill="none" stroke="#191970" d="M863.9666,-115.9918C827.655,-110.1 780.6901,-98.5405 744.5,-76 725.1308,-63.9362 708.8113,-43.2004 698.6642,-28.1854"/>
<polygon fill="#191970" stroke="#191970" points="701.5454,-26.1954 693.1718,-19.7044 695.6699,-30.0005 701.5454,-26.1954"/>
</g>
<!-- Node9&#45;&gt;Node4 -->
<g id="edge13" class="edge">
<title>Node9&#45;&gt;Node4</title>
<path fill="none" stroke="#191970" d="M977.1944,-113.4992C1036.4449,-104.5286 1132.0838,-89.8045 1214.5,-76 1215.961,-75.7553 1217.4431,-75.5049 1218.9388,-75.2504"/>
<polygon fill="#191970" stroke="#191970" points="1219.6685,-78.6763 1228.9274,-73.5262 1218.4777,-71.7783 1219.6685,-78.6763"/>
</g>
<!-- Node9&#45;&gt;Node5 -->
<g id="edge18" class="edge">
<title>Node9&#45;&gt;Node5</title>
<path fill="none" stroke="#191970" d="M977.2221,-115.8744C1050.0031,-107.4346 1168.4863,-91.5079 1181.5,-76 1211.6919,-40.0216 1153.1127,-23.6472 1095.238,-16.1999"/>
<polygon fill="#191970" stroke="#191970" points="1095.5644,-12.7141 1085.218,-14.995 1094.7286,-19.664 1095.5644,-12.7141"/>
</g>
<!-- Node9&#45;&gt;Node7 -->
<g id="edge14" class="edge">
<title>Node9&#45;&gt;Node7</title>
<path fill="none" stroke="#191970" d="M863.94,-118.9024C779.4919,-113.6499 615.6839,-101.0358 478.5,-76 444.1397,-69.7293 436.426,-64.3052 402.5,-56 352.0768,-43.6563 294.3206,-30.6809 253.3392,-21.6698"/>
<polygon fill="#191970" stroke="#191970" points="254.0755,-18.2481 243.5578,-19.5242 252.5756,-25.0856 254.0755,-18.2481"/>
</g>
<!-- Node10 -->
<g id="node11" class="node">
<title>Node10</title>
<polygon fill="#ffffff" stroke="#bfbfbf" points="753.5,-56.5 753.5,-75.5 805.5,-75.5 805.5,-56.5 753.5,-56.5"/>
<text text-anchor="middle" x="779.5" y="-63.5" font-family="Helvetica,sans-Serif" font-size="10.00" fill="#000000">memory</text>
</g>
<!-- Node9&#45;&gt;Node10 -->
<g id="edge12" class="edge">
<title>Node9&#45;&gt;Node10</title>
<path fill="none" stroke="#191970" d="M896.2612,-112.3733C873.2211,-103.2226 838.3786,-89.3844 812.7499,-79.2057"/>
<polygon fill="#191970" stroke="#191970" points="814.0082,-75.9395 803.4225,-75.5011 811.4244,-82.4452 814.0082,-75.9395"/>
</g>
<!-- Node11 -->
<g id="node12" class="node">
<title>Node11</title>
<polygon fill="#ffffff" stroke="#bfbfbf" points="824,-56.5 824,-75.5 923,-75.5 923,-56.5 824,-56.5"/>
<text text-anchor="middle" x="873.5" y="-63.5" font-family="Helvetica,sans-Serif" font-size="10.00" fill="#000000">AMReX_BCRec.H</text>
</g>
<!-- Node9&#45;&gt;Node11 -->
<g id="edge15" class="edge">
<title>Node9&#45;&gt;Node11</title>
<path fill="none" stroke="#191970" d="M912.3132,-112.2455C905.6411,-104.2958 896.0521,-92.8706 888.0747,-83.3656"/>
<polygon fill="#191970" stroke="#191970" points="890.7026,-81.0524 881.593,-75.6427 885.3408,-85.5525 890.7026,-81.0524"/>
</g>
<!-- Node12 -->
<g id="node13" class="node">
<title>Node12</title>
<polygon fill="#ffffff" stroke="#bfbfbf" points="941,-56.5 941,-75.5 1026,-75.5 1026,-56.5 941,-56.5"/>
<text text-anchor="middle" x="983.5" y="-63.5" font-family="Helvetica,sans-Serif" font-size="10.00" fill="#000000">AMReX_Gpu.H</text>
</g>
<!-- Node9&#45;&gt;Node12 -->
<g id="edge16" class="edge">
<title>Node9&#45;&gt;Node12</title>
<path fill="none" stroke="#191970" d="M931.4738,-112.2455C940.6882,-104.0549 954.0532,-92.1749 964.9297,-82.5069"/>
<polygon fill="#191970" stroke="#191970" points="967.5032,-84.9023 972.652,-75.6427 962.8526,-79.6704 967.5032,-84.9023"/>
</g>
<!-- Node13 -->
<g id="node14" class="node">
<title>Node13</title>
<g id="a_node14"><a xlink:href="incflo__enums_8_h.html" target="_top" xlink:title="amr&#45;wind/incflo_enums.H">
<polygon fill="#ffffff" stroke="#000000" points="1044.5,-56.5 1044.5,-75.5 1172.5,-75.5 1172.5,-56.5 1044.5,-56.5"/>
<text text-anchor="middle" x="1108.5" y="-63.5" font-family="Helvetica,sans-Serif" font-size="10.00" fill="#000000">amr&#45;wind/incflo_enums.H</text>
</a>
</g>
</g>
<!-- Node9&#45;&gt;Node13 -->
<g id="edge17" class="edge">
<title>Node9&#45;&gt;Node13</title>
<path fill="none" stroke="#191970" d="M952.8184,-112.3733C984.3506,-102.9807 1032.4621,-88.6496 1066.8501,-78.4064"/>
<polygon fill="#191970" stroke="#191970" points="1068.0187,-81.7103 1076.6034,-75.5011 1066.0203,-75.0016 1068.0187,-81.7103"/>
</g>
<!-- Node14 -->
<g id="node15" class="node">
<title>Node14</title>
<g id="a_node15"><a xlink:href="_view_field_8_h.html" target="_top" xlink:title="amr&#45;wind/core/ViewField.H">
<polygon fill="#ffffff" stroke="#000000" points="487.5,-56.5 487.5,-75.5 621.5,-75.5 621.5,-56.5 487.5,-56.5"/>
<text text-anchor="middle" x="554.5" y="-63.5" font-family="Helvetica,sans-Serif" font-size="10.00" fill="#000000">amr&#45;wind/core/ViewField.H</text>
</a>
</g>
</g>
<!-- Node9&#45;&gt;Node14 -->
<g id="edge19" class="edge">
<title>Node9&#45;&gt;Node14</title>
<path fill="none" stroke="#191970" d="M863.7141,-113.3114C799.8907,-103.5461 696.1328,-87.6706 626.6256,-77.0356"/>
<polygon fill="#191970" stroke="#191970" points="627.0421,-73.5587 616.6278,-75.5059 625.9834,-80.4782 627.0421,-73.5587"/>
</g>
<!-- Node14&#45;&gt;Node3 -->
<g id="edge20" class="edge">
<title>Node14&#45;&gt;Node3</title>
<path fill="none" stroke="#191970" d="M577.3635,-56.3733C599.4272,-47.0833 632.9649,-32.9621 657.2341,-22.7435"/>
<polygon fill="#191970" stroke="#191970" points="658.8252,-25.8713 666.6834,-18.7649 656.1088,-19.4198 658.8252,-25.8713"/>
</g>
<!-- Node14&#45;&gt;Node5 -->
<g id="edge21" class="edge">
<title>Node14&#45;&gt;Node5</title>
<path fill="none" stroke="#191970" d="M621.7198,-57.6162C700.4354,-47.7987 830.9934,-31.5153 917.1468,-20.7701"/>
<polygon fill="#191970" stroke="#191970" points="917.6755,-24.2314 927.1654,-19.5206 916.8091,-17.2852 917.6755,-24.2314"/>
</g>
<!-- Node14&#45;&gt;Node7 -->
<g id="edge22" class="edge">
<title>Node14&#45;&gt;Node7</title>
<path fill="none" stroke="#191970" d="M493.8767,-56.4369C429.2132,-46.2364 327.296,-30.1594 261.9435,-19.8502"/>
<polygon fill="#191970" stroke="#191970" points="262.2034,-16.348 251.7801,-18.247 261.1126,-23.2625 262.2034,-16.348"/>
</g>
<!-- Node15 -->
<g id="node16" class="node">
<title>Node15</title>
<polygon fill="#ffffff" stroke="#bfbfbf" points="389,-.5 389,-19.5 484,-19.5 484,-.5 389,-.5"/>
<text text-anchor="middle" x="436.5" y="-7.5" font-family="Helvetica,sans-Serif" font-size="10.00" fill="#000000">AMReX_Vector.H</text>
</g>
<!-- Node14&#45;&gt;Node15 -->
<g id="edge23" class="edge">
<title>Node14&#45;&gt;Node15</title>
<path fill="none" stroke="#191970" d="M534.2151,-56.3733C515.3579,-47.4241 487.054,-33.9917 465.7545,-23.8835"/>
<polygon fill="#191970" stroke="#191970" points="467.0551,-20.6266 456.5202,-19.5011 464.0539,-26.9506 467.0551,-20.6266"/>
</g>
<!-- Node16&#45;&gt;Node3 -->
<g id="edge25" class="edge">
<title>Node16&#45;&gt;Node3</title>
<path fill="none" stroke="#191970" d="M1360.3524,-112.3084C1354.9051,-97.2872 1342.1734,-68.7848 1320.5,-56 1294.3023,-40.5463 842.261,-17.5239 718.5674,-11.4907"/>
<polygon fill="#191970" stroke="#191970" points="718.4438,-7.9806 708.2858,-10.9915 718.1043,-14.9724 718.4438,-7.9806"/>
</g>
<!-- Node16&#45;&gt;Node5 -->
<g id="edge26" class="edge">
<title>Node16&#45;&gt;Node5</title>
<path fill="none" stroke="#191970" d="M1365.4191,-112.3648C1367.6753,-97.9401 1369.4214,-70.8437 1354.5,-56 1336.3523,-37.9467 1193.1642,-23.9088 1095.3737,-16.3061"/>
<polygon fill="#191970" stroke="#191970" points="1095.4081,-12.7985 1085.1696,-15.5232 1094.8725,-19.778 1095.4081,-12.7985"/>
</g>
<!-- Node16&#45;&gt;Node17 -->
<g id="edge27" class="edge">
<title>Node16&#45;&gt;Node17</title>
<path fill="none" stroke="#191970" d="M1380.3961,-112.2455C1395.418,-103.5731 1417.6043,-90.7645 1434.821,-80.825"/>
<polygon fill="#191970" stroke="#191970" points="1436.8871,-83.6737 1443.7975,-75.6427 1433.3872,-77.6114 1436.8871,-83.6737"/>
</g>
<!-- Node18&#45;&gt;Node3 -->
<g id="edge29" class="edge">
<title>Node18&#45;&gt;Node3</title>
<path fill="none" stroke="#191970" d="M427.1017,-112.1806C436.0068,-97.5152 454.8312,-70.1088 478.5,-56 508.3687,-38.1955 606.2984,-21.8345 656.7884,-14.325"/>
<polygon fill="#191970" stroke="#191970" points="657.4132,-17.771 666.8009,-12.8596 656.3994,-10.8448 657.4132,-17.771"/>
</g>
<!-- Node18&#45;&gt;Node5 -->
<g id="edge30" class="edge">
<title>Node18&#45;&gt;Node5</title>
<path fill="none" stroke="#191970" d="M466.3651,-112.4517C528.6769,-99.2773 644.9916,-74.9999 744.5,-56 810.0005,-43.4935 885.0409,-30.2888 937.4296,-21.251"/>
<polygon fill="#191970" stroke="#191970" points="938.3348,-24.6467 947.5958,-19.5004 937.1469,-17.7482 938.3348,-24.6467"/>
</g>
<!-- Node18&#45;&gt;Node7 -->
<g id="edge32" class="edge">
<title>Node18&#45;&gt;Node7</title>
<path fill="none" stroke="#191970" d="M369.0116,-112.4496C324.6996,-103.6401 265.3832,-89.8635 245.5,-76 228.5582,-64.1874 215.8403,-43.9997 208.1193,-29.0539"/>
<polygon fill="#191970" stroke="#191970" points="211.0991,-27.1778 203.5819,-19.7117 204.8025,-30.236 211.0991,-27.1778"/>
</g>
<!-- Node18&#45;&gt;Node14 -->
<g id="edge31" class="edge">
<title>Node18&#45;&gt;Node14</title>
<path fill="none" stroke="#191970" d="M444.3635,-112.3733C465.905,-103.3032 498.3838,-89.6279 522.4956,-79.4755"/>
<polygon fill="#191970" stroke="#191970" points="524.0767,-82.6075 531.9348,-75.5011 521.3603,-76.156 524.0767,-82.6075"/>
</g>
<!-- Node18&#45;&gt;Node15 -->
<g id="edge33" class="edge">
<title>Node18&#45;&gt;Node15</title>
<path fill="none" stroke="#191970" d="M348.2461,-116.5813C291.7177,-109.4687 227.6417,-93.1606 256.5,-56 271.5212,-36.6573 332.0595,-24.0762 378.8284,-17.041"/>
<polygon fill="#191970" stroke="#191970" points="379.4845,-20.4825 388.8776,-15.5815 378.4784,-13.5552 379.4845,-20.4825"/>
</g>
<!-- Node19 -->
<g id="node20" class="node">
<title>Node19</title>
<polygon fill="#ffffff" stroke="#bfbfbf" points="265.5,-56.5 265.5,-75.5 393.5,-75.5 393.5,-56.5 265.5,-56.5"/>
<text text-anchor="middle" x="329.5" y="-63.5" font-family="Helvetica,sans-Serif" font-size="10.00" fill="#000000">AMReX_PhysBCFunct.H</text>
</g>
<!-- Node18&#45;&gt;Node19 -->
<g id="edge34" class="edge">
<title>Node18&#45;&gt;Node19</title>
<path fill="none" stroke="#191970" d="M405.4748,-112.2455C391.3592,-103.6534 370.5737,-91.0014 354.3101,-81.1018"/>
<polygon fill="#191970" stroke="#191970" points="355.7034,-77.8525 345.3415,-75.6427 352.0637,-83.8319 355.7034,-77.8525"/>
</g>
<!-- Node22 -->
<g id="node23" class="node">
<title>Node22</title>
<polygon fill="#ffffff" stroke="#bfbfbf" points="1831,-112.5 1831,-131.5 1924,-131.5 1924,-112.5 1831,-112.5"/>
<text text-anchor="middle" x="1877.5" y="-119.5" font-family="Helvetica,sans-Serif" font-size="10.00" fill="#000000">AMReX_REAL.H</text>
</g>
<!-- Node21&#45;&gt;Node22 -->
<g id="edge39" class="edge">
<title>Node21&#45;&gt;Node22</title>
<path fill="none" stroke="#191970" d="M1778.1287,-168.3733C1797.3919,-159.3838 1826.3486,-145.8706 1848.0419,-135.7471"/>
<polygon fill="#191970" stroke="#191970" points="1849.5587,-138.9017 1857.1405,-131.5011 1846.5985,-132.5584 1849.5587,-138.9017"/>
</g>
<!-- Node23 -->
<g id="node24" class="node">
<title>Node23</title>
<polygon fill="#ffffff" stroke="#bfbfbf" points="1942.5,-112.5 1942.5,-131.5 2026.5,-131.5 2026.5,-112.5 1942.5,-112.5"/>
<text text-anchor="middle" x="1984.5" y="-119.5" font-family="Helvetica,sans-Serif" font-size="10.00" fill="#000000">AMReX_Box.H</text>
</g>
<!-- Node21&#45;&gt;Node23 -->
<g id="edge40" class="edge">
<title>Node21&#45;&gt;Node23</title>
<path fill="none" stroke="#191970" d="M1796.2648,-168.4369C1834.8692,-158.9133 1894.2384,-144.2672 1935.9572,-133.9753"/>
<polygon fill="#191970" stroke="#191970" points="1937.0245,-137.317 1945.8951,-131.5237 1935.3479,-130.5208 1937.0245,-137.317"/>
</g>
<!-- Node24 -->
<g id="node25" class="node">
<title>Node24</title>
<polygon fill="#ffffff" stroke="#bfbfbf" points="1570.5,-112.5 1570.5,-131.5 1684.5,-131.5 1684.5,-112.5 1570.5,-112.5"/>
<text text-anchor="middle" x="1627.5" y="-119.5" font-family="Helvetica,sans-Serif" font-size="10.00" fill="#000000">AMReX_Orientation.H</text>
</g>
<!-- Node21&#45;&gt;Node24 -->
<g id="edge41" class="edge">
<title>Node21&#45;&gt;Node24</title>
<path fill="none" stroke="#191970" d="M1735.1522,-168.3733C1714.0967,-159.3032 1682.3505,-145.6279 1658.7825,-135.4755"/>
<polygon fill="#191970" stroke="#191970" points="1660.125,-132.243 1649.5562,-131.5011 1657.3556,-138.6719 1660.125,-132.243"/>
</g>
<!-- Node25 -->
<g id="node26" class="node">
<title>Node25</title>
<polygon fill="#ffffff" stroke="#bfbfbf" points="1702.5,-112.5 1702.5,-131.5 1812.5,-131.5 1812.5,-112.5 1702.5,-112.5"/>
<text text-anchor="middle" x="1757.5" y="-119.5" font-family="Helvetica,sans-Serif" font-size="10.00" fill="#000000">AMReX_Geometry.H</text>
</g>
<!-- Node21&#45;&gt;Node25 -->
<g id="edge42" class="edge">
<title>Node21&#45;&gt;Node25</title>
<path fill="none" stroke="#191970" d="M1757.5,-168.2455C1757.5,-160.9382 1757.5,-150.6944 1757.5,-141.7046"/>
<polygon fill="#191970" stroke="#191970" points="1761.0001,-141.6426 1757.5,-131.6427 1754.0001,-141.6427 1761.0001,-141.6426"/>
</g>
</g>
</svg>
        <g id="navigator" transform="translate(0 0)" fill="#404254">
                <rect fill="#f2f5e9" fill-opacity="0.5" stroke="#606060" stroke-width=".5" x="0" y="0" width="60" height="60"/>
                <use id="zoomplus" xlink:href="#zoomPlus" x="17" y="9" onmousedown="handleZoom(evt,'in')"/>
                <use id="zoomminus" xlink:href="#zoomMin" x="42" y="9" onmousedown="handleZoom(evt,'out')"/>
                <use id="reset" xlink:href="#resetDef" x="30" y="36" onmousedown="handleReset()"/>
                <g id="arrowUp" xlink:href="#dirArrow" transform="translate(30 24)" onmousedown="handlePan(0,-1)">
                  <use xlink:href="#rim" fill="#404040">
                        <set attributeName="fill" to="#808080" begin="arrowUp.mouseover" end="arrowUp.mouseout"/>
                  </use>
                  <path fill="none" stroke="white" stroke-width="1.5" d="M0,-3.0v7 M-2.5,-0.5L0,-3.0L2.5,-0.5"/>
                </g>
                <g id="arrowRight" xlink:href="#dirArrow" transform="rotate(90) translate(36 -43)" onmousedown="handlePan(1,0)">
                  <use xlink:href="#rim" fill="#404040">
                        <set attributeName="fill" to="#808080" begin="arrowRight.mouseover" end="arrowRight.mouseout"/>
                  </use>
                  <path fill="none" stroke="white" stroke-width="1.5" d="M0,-3.0v7 M-2.5,-0.5L0,-3.0L2.5,-0.5"/>
                </g>
                <g id="arrowDown" xlink:href="#dirArrow" transform="rotate(180) translate(-30 -48)" onmousedown="handlePan(0,1)">
                  <use xlink:href="#rim" fill="#404040">
                        <set attributeName="fill" to="#808080" begin="arrowDown.mouseover" end="arrowDown.mouseout"/>
                  </use>
                  <path fill="none" stroke="white" stroke-width="1.5" d="M0,-3.0v7 M-2.5,-0.5L0,-3.0L2.5,-0.5"/>
                </g>
                <g id="arrowLeft" xlink:href="#dirArrow" transform="rotate(270) translate(-36 17)" onmousedown="handlePan(-1,0)">
                  <use xlink:href="#rim" fill="#404040">
                        <set attributeName="fill" to="#808080" begin="arrowLeft.mouseover" end="arrowLeft.mouseout"/>
                  </use>
                  <path fill="none" stroke="white" stroke-width="1.5" d="M0,-3.0v7 M-2.5,-0.5L0,-3.0L2.5,-0.5"/>
                </g>
        </g>
        <svg viewBox="0 0 15 15" width="100%" height="30px" preserveAspectRatio="xMaxYMin meet">
         <g id="arrow_out" transform="scale(0.3 0.3)">
          <a xlink:href="strainrate_8_h__incl_org.svg" target="_base">
           <rect id="button" ry="5" rx="5" y="6" x="6" height="38" width="38"
                fill="#f2f5e9" fill-opacity="0.5" stroke="#606060" stroke-width="1.0"/>
           <path id="arrow"
             d="M 11.500037,31.436501 C 11.940474,20.09759 22.043105,11.32322 32.158766,21.979434 L 37.068811,17.246167 C 37.068811,17.246167 37.088388,32 37.088388,32 L 22.160133,31.978069 C 22.160133,31.978069 26.997745,27.140456 26.997745,27.140456 C 18.528582,18.264221 13.291696,25.230495 11.500037,31.436501 z"
             style="fill:#404040;"/>
          </a>
         </g>
        </svg>
</svg>
