<?xml version="1.0" encoding="UTF-8" standalone="no"?>
<!DOCTYPE svg PUBLIC "-//W3C//DTD SVG 1.1//EN"
 "http://www.w3.org/Graphics/SVG/1.1/DTD/svg11.dtd">
<!-- Generated by graphviz version 2.40.1 (20161225.0304)
 -->
<!-- Title: amr_wind::Factory&lt; Base, Args &gt; Pages: 1 -->
<svg width="1374pt" height="888pt"
 viewBox="0.00 0.00 1374.00 887.55" xmlns="http://www.w3.org/2000/svg" xmlns:xlink="http://www.w3.org/1999/xlink">
<g id="graph0" class="graph" transform="scale(1 1) rotate(0) translate(4 883.5486)">
<title>amr_wind::Factory&lt; Base, Args &gt;</title>
<polygon fill="#ffffff" stroke="transparent" points="-4,4 -4,-883.5486 1370,-883.5486 1370,4 -4,4"/>
<!-- Node0 -->
<g id="node1" class="node">
<title>Node0</title>
<polygon fill="#bfbfbf" stroke="#000000" points="0,-412.5486 0,-442.5486 104,-442.5486 104,-412.5486 0,-412.5486"/>
<text text-anchor="start" x="8" y="-430.5486" font-family="Helvetica,sans-Serif" font-size="10.00" fill="#000000">amr_wind::Factory&lt;</text>
<text text-anchor="middle" x="52" y="-419.5486" font-family="Helvetica,sans-Serif" font-size="10.00" fill="#000000"> Base, Args &gt;</text>
</g>
<!-- Node1 -->
<g id="node2" class="node">
<title>Node1</title>
<g id="a_node2"><a xlink:href="structamr__wind_1_1_factory.html" target="_top" xlink:title="amr_wind::Factory\&lt;\l PDEBase, CFDSim &amp;,\l const int \&gt;">
<polygon fill="#ffffff" stroke="#000000" points="305,-827.0486 305,-868.0486 425,-868.0486 425,-827.0486 305,-827.0486"/>
<text text-anchor="start" x="313" y="-856.0486" font-family="Helvetica,sans-Serif" font-size="10.00" fill="#000000">amr_wind::Factory&lt;</text>
<text text-anchor="start" x="313" y="-845.0486" font-family="Helvetica,sans-Serif" font-size="10.00" fill="#000000"> PDEBase, CFDSim &amp;,</text>
<text text-anchor="middle" x="365" y="-834.0486" font-family="Helvetica,sans-Serif" font-size="10.00" fill="#000000"> const int &gt;</text>
</a>
</g>
</g>
<!-- Node0&#45;&gt;Node1 -->
<g id="edge1" class="edge">
<title>Node0&#45;&gt;Node1</title>
<path fill="none" stroke="#ffa500" stroke-dasharray="5,2" d="M52.8945,-453.2524C56.1624,-531.1868 70.1341,-762.5573 122,-812.5486 169.9506,-858.7661 249.8923,-861.6043 304.9105,-856.799"/>
<polygon fill="#ffa500" stroke="#ffa500" points="56.378,-452.7615 52.4868,-442.9071 49.3834,-453.0372 56.378,-452.7615"/>
<text text-anchor="start" x="138" y="-871.5486" font-family="Helvetica,sans-Serif" font-size="10.00" fill="#000000"> &lt; PDEBase, CFDSim &amp;,</text>
<text text-anchor="middle" x="194.5" y="-860.5486" font-family="Helvetica,sans-Serif" font-size="10.00" fill="#000000"> const int &gt;</text>
</g>
<!-- Node3 -->
<g id="node4" class="node">
<title>Node3</title>
<g id="a_node4"><a xlink:href="structamr__wind_1_1_factory.html" target="_top" xlink:title="amr_wind::Factory\&lt;\l TemperatureSource,\l const CFDSim &amp;\&gt;">
<polygon fill="#ffffff" stroke="#000000" points="311,-767.0486 311,-808.0486 419,-808.0486 419,-767.0486 311,-767.0486"/>
<text text-anchor="start" x="319" y="-796.0486" font-family="Helvetica,sans-Serif" font-size="10.00" fill="#000000">amr_wind::Factory&lt;</text>
<text text-anchor="start" x="319" y="-785.0486" font-family="Helvetica,sans-Serif" font-size="10.00" fill="#000000"> TemperatureSource,</text>
<text text-anchor="middle" x="365" y="-774.0486" font-family="Helvetica,sans-Serif" font-size="10.00" fill="#000000"> const CFDSim &amp;&gt;</text>
</a>
</g>
</g>
<!-- Node0&#45;&gt;Node3 -->
<g id="edge3" class="edge">
<title>Node0&#45;&gt;Node3</title>
<path fill="none" stroke="#ffa500" stroke-dasharray="5,2" d="M53.6642,-452.8227C58.8131,-522.7247 76.9366,-716.2109 122,-757.5486 148.7042,-782.045 247.6267,-787.2187 310.7252,-787.9421"/>
<polygon fill="#ffa500" stroke="#ffa500" points="57.1455,-452.4346 52.947,-442.7072 50.1631,-452.9297 57.1455,-452.4346"/>
<text text-anchor="start" x="144" y="-800.5486" font-family="Helvetica,sans-Serif" font-size="10.00" fill="#000000"> &lt; TemperatureSource,</text>
<text text-anchor="middle" x="194.5" y="-789.5486" font-family="Helvetica,sans-Serif" font-size="10.00" fill="#000000"> const CFDSim &amp;&gt;</text>
</g>
<!-- Node5 -->
<g id="node6" class="node">
<title>Node5</title>
<g id="a_node6"><a xlink:href="structamr__wind_1_1_factory.html" target="_top" xlink:title="amr_wind::Factory\&lt;\l DerivedQty, const FieldRepo\l &amp;, std::vector\&lt; std::string \&gt; &amp;\&gt;">
<polygon fill="#ffffff" stroke="#000000" points="287,-707.0486 287,-748.0486 443,-748.0486 443,-707.0486 287,-707.0486"/>
<text text-anchor="start" x="295" y="-736.0486" font-family="Helvetica,sans-Serif" font-size="10.00" fill="#000000">amr_wind::Factory&lt;</text>
<text text-anchor="start" x="295" y="-725.0486" font-family="Helvetica,sans-Serif" font-size="10.00" fill="#000000"> DerivedQty, const FieldRepo</text>
<text text-anchor="middle" x="365" y="-714.0486" font-family="Helvetica,sans-Serif" font-size="10.00" fill="#000000"> &amp;, std::vector&lt; std::string &gt; &amp;&gt;</text>
</a>
</g>
</g>
<!-- Node0&#45;&gt;Node5 -->
<g id="edge5" class="edge">
<title>Node0&#45;&gt;Node5</title>
<path fill="none" stroke="#ffa500" stroke-dasharray="5,2" d="M55.3302,-452.6878C63.6268,-511.3818 87.0945,-654.8688 122,-686.5486 145.7608,-708.1136 225.1044,-718.4834 286.737,-723.3735"/>
<polygon fill="#ffa500" stroke="#ffa500" points="58.7944,-452.1879 53.9582,-442.7612 51.8603,-453.1463 58.7944,-452.1879"/>
<text text-anchor="start" x="139.5" y="-745.5486" font-family="Helvetica,sans-Serif" font-size="10.00" fill="#000000"> &lt; DerivedQty, const</text>
<text text-anchor="start" x="139.5" y="-734.5486" font-family="Helvetica,sans-Serif" font-size="10.00" fill="#000000"> FieldRepo &amp;, std::vector</text>
<text text-anchor="middle" x="194.5" y="-723.5486" font-family="Helvetica,sans-Serif" font-size="10.00" fill="#000000">&lt; std::string &gt; &amp;&gt;</text>
</g>
<!-- Node7 -->
<g id="node8" class="node">
<title>Node7</title>
<g id="a_node8"><a xlink:href="structamr__wind_1_1_factory.html" target="_top" xlink:title="amr_wind::Factory\&lt;\l MomentumSource, const\l CFDSim &amp;\&gt;">
<polygon fill="#ffffff" stroke="#000000" points="300.5,-647.0486 300.5,-688.0486 429.5,-688.0486 429.5,-647.0486 300.5,-647.0486"/>
<text text-anchor="start" x="308.5" y="-676.0486" font-family="Helvetica,sans-Serif" font-size="10.00" fill="#000000">amr_wind::Factory&lt;</text>
<text text-anchor="start" x="308.5" y="-665.0486" font-family="Helvetica,sans-Serif" font-size="10.00" fill="#000000"> MomentumSource, const</text>
<text text-anchor="middle" x="365" y="-654.0486" font-family="Helvetica,sans-Serif" font-size="10.00" fill="#000000"> CFDSim &amp;&gt;</text>
</a>
</g>
</g>
<!-- Node0&#45;&gt;Node7 -->
<g id="edge7" class="edge">
<title>Node0&#45;&gt;Node7</title>
<path fill="none" stroke="#ffa500" stroke-dasharray="5,2" d="M57.4949,-452.6582C68.5556,-500.8614 94.7829,-603.6308 122,-626.5486 148.3452,-648.7322 237.6651,-659.2294 300.3293,-663.9654"/>
<polygon fill="#ffa500" stroke="#ffa500" points="60.8668,-451.7003 55.2517,-442.7158 54.0384,-453.2409 60.8668,-451.7003"/>
<text text-anchor="start" x="133.5" y="-674.5486" font-family="Helvetica,sans-Serif" font-size="10.00" fill="#000000"> &lt; MomentumSource, const</text>
<text text-anchor="middle" x="194.5" y="-663.5486" font-family="Helvetica,sans-Serif" font-size="10.00" fill="#000000"> CFDSim &amp;&gt;</text>
</g>
<!-- Node9 -->
<g id="node10" class="node">
<title>Node9</title>
<g id="a_node10"><a xlink:href="structamr__wind_1_1_factory.html" target="_top" xlink:title="amr_wind::Factory\&lt;\l UDF, Field &amp;\&gt;">
<polygon fill="#ffffff" stroke="#000000" points="313,-597.5486 313,-627.5486 417,-627.5486 417,-597.5486 313,-597.5486"/>
<text text-anchor="start" x="321" y="-615.5486" font-family="Helvetica,sans-Serif" font-size="10.00" fill="#000000">amr_wind::Factory&lt;</text>
<text text-anchor="middle" x="365" y="-604.5486" font-family="Helvetica,sans-Serif" font-size="10.00" fill="#000000"> UDF, Field &amp;&gt;</text>
</a>
</g>
</g>
<!-- Node0&#45;&gt;Node9 -->
<g id="edge9" class="edge">
<title>Node0&#45;&gt;Node9</title>
<path fill="none" stroke="#ffa500" stroke-dasharray="5,2" d="M55.246,-453.3156C61.3227,-489.7567 78.0536,-555.4761 122,-587.5486 151.4184,-609.0184 250.7387,-612.9327 312.9254,-613.1838"/>
<polygon fill="#ffa500" stroke="#ffa500" points="58.6439,-452.378 53.6838,-443.016 51.7231,-453.4278 58.6439,-452.378"/>
<text text-anchor="middle" x="194.5" y="-614.5486" font-family="Helvetica,sans-Serif" font-size="10.00" fill="#000000"> &lt; UDF, Field &amp;&gt;</text>
</g>
<!-- Node11 -->
<g id="node12" class="node">
<title>Node11</title>
<g id="a_node12"><a xlink:href="structamr__wind_1_1_factory.html" target="_top" xlink:title="amr_wind::Factory\&lt;\l SourceTerm, const CFDSim &amp;\&gt;">
<polygon fill="#ffffff" stroke="#000000" points="285,-548.5486 285,-578.5486 445,-578.5486 445,-548.5486 285,-548.5486"/>
<text text-anchor="start" x="293" y="-566.5486" font-family="Helvetica,sans-Serif" font-size="10.00" fill="#000000">amr_wind::Factory&lt;</text>
<text text-anchor="middle" x="365" y="-555.5486" font-family="Helvetica,sans-Serif" font-size="10.00" fill="#000000"> SourceTerm, const CFDSim &amp;&gt;</text>
</a>
</g>
</g>
<!-- Node0&#45;&gt;Node11 -->
<g id="edge11" class="edge">
<title>Node0&#45;&gt;Node11</title>
<path fill="none" stroke="#ffa500" stroke-dasharray="5,2" d="M60.285,-452.522C70.4035,-478.7361 90.2119,-518.8248 122,-538.5486 148.4871,-554.9832 224.6791,-560.7868 284.7595,-562.7496"/>
<polygon fill="#ffa500" stroke="#ffa500" points="63.486,-451.0844 56.7624,-442.8963 56.9123,-453.4901 63.486,-451.0844"/>
<text text-anchor="start" x="146.5" y="-575.5486" font-family="Helvetica,sans-Serif" font-size="10.00" fill="#000000"> &lt; SourceTerm, const</text>
<text text-anchor="middle" x="194.5" y="-564.5486" font-family="Helvetica,sans-Serif" font-size="10.00" fill="#000000"> CFDSim &amp;&gt;</text>
</g>
<!-- Node13 -->
<g id="node14" class="node">
<title>Node13</title>
<g id="a_node14"><a xlink:href="structamr__wind_1_1_factory.html" target="_top" xlink:title="amr_wind::Factory\&lt;\l PostProcessBase, CFDSim\l &amp;, const std::string &amp;\&gt;">
<polygon fill="#ffffff" stroke="#000000" points="293.5,-488.0486 293.5,-529.0486 436.5,-529.0486 436.5,-488.0486 293.5,-488.0486"/>
<text text-anchor="start" x="301.5" y="-517.0486" font-family="Helvetica,sans-Serif" font-size="10.00" fill="#000000">amr_wind::Factory&lt;</text>
<text text-anchor="start" x="301.5" y="-506.0486" font-family="Helvetica,sans-Serif" font-size="10.00" fill="#000000"> PostProcessBase, CFDSim</text>
<text text-anchor="middle" x="365" y="-495.0486" font-family="Helvetica,sans-Serif" font-size="10.00" fill="#000000"> &amp;, const std::string &amp;&gt;</text>
</a>
</g>
</g>
<!-- Node0&#45;&gt;Node13 -->
<g id="edge13" class="edge">
<title>Node0&#45;&gt;Node13</title>
<path fill="none" stroke="#ffa500" stroke-dasharray="5,2" d="M80.1585,-448.3868C92.4375,-456.512 107.3538,-465.1526 122,-470.5486 177.4934,-490.9935 244.0668,-500.4389 293.4885,-504.8024"/>
<polygon fill="#ffa500" stroke="#ffa500" points="81.9544,-445.3748 71.7252,-442.6154 78.001,-451.1515 81.9544,-445.3748"/>
<text text-anchor="start" x="145.5" y="-526.5486" font-family="Helvetica,sans-Serif" font-size="10.00" fill="#000000"> &lt; PostProcessBase,</text>
<text text-anchor="start" x="145.5" y="-515.5486" font-family="Helvetica,sans-Serif" font-size="10.00" fill="#000000"> CFDSim &amp;, const std</text>
<text text-anchor="middle" x="194.5" y="-504.5486" font-family="Helvetica,sans-Serif" font-size="10.00" fill="#000000">::string &amp;&gt;</text>
</g>
<!-- Node15 -->
<g id="node16" class="node">
<title>Node15</title>
<g id="a_node16"><a xlink:href="structamr__wind_1_1_factory.html" target="_top" xlink:title="amr_wind::Factory\&lt;\l SDRSource, const CFDSim &amp;\&gt;">
<polygon fill="#ffffff" stroke="#000000" points="285.5,-438.5486 285.5,-468.5486 444.5,-468.5486 444.5,-438.5486 285.5,-438.5486"/>
<text text-anchor="start" x="293.5" y="-456.5486" font-family="Helvetica,sans-Serif" font-size="10.00" fill="#000000">amr_wind::Factory&lt;</text>
<text text-anchor="middle" x="365" y="-445.5486" font-family="Helvetica,sans-Serif" font-size="10.00" fill="#000000"> SDRSource, const CFDSim &amp;&gt;</text>
</a>
</g>
</g>
<!-- Node0&#45;&gt;Node15 -->
<g id="edge15" class="edge">
<title>Node0&#45;&gt;Node15</title>
<path fill="none" stroke="#ffa500" stroke-dasharray="5,2" d="M114.1971,-432.7151C163.2731,-436.7917 232.0779,-442.5071 285.2102,-446.9207"/>
<polygon fill="#ffa500" stroke="#ffa500" points="114.2924,-429.2111 104.0369,-431.8712 113.7129,-436.187 114.2924,-429.2111"/>
<text text-anchor="start" x="147" y="-458.5486" font-family="Helvetica,sans-Serif" font-size="10.00" fill="#000000"> &lt; SDRSource, const</text>
<text text-anchor="middle" x="194.5" y="-447.5486" font-family="Helvetica,sans-Serif" font-size="10.00" fill="#000000"> CFDSim &amp;&gt;</text>
</g>
<!-- Node17 -->
<g id="node18" class="node">
<title>Node17</title>
<g id="a_node18"><a xlink:href="structamr__wind_1_1_factory.html" target="_top" xlink:title="amr_wind::Factory\&lt;\l TurbulenceModel, CFDSim &amp;\&gt;">
<polygon fill="#ffffff" stroke="#000000" points="288,-389.5486 288,-419.5486 442,-419.5486 442,-389.5486 288,-389.5486"/>
<text text-anchor="start" x="296" y="-407.5486" font-family="Helvetica,sans-Serif" font-size="10.00" fill="#000000">amr_wind::Factory&lt;</text>
<text text-anchor="middle" x="365" y="-396.5486" font-family="Helvetica,sans-Serif" font-size="10.00" fill="#000000"> TurbulenceModel, CFDSim &amp;&gt;</text>
</a>
</g>
</g>
<!-- Node0&#45;&gt;Node17 -->
<g id="edge17" class="edge">
<title>Node0&#45;&gt;Node17</title>
<path fill="none" stroke="#ffa500" stroke-dasharray="5,2" d="M111.4235,-410.3461C114.984,-409.6501 118.5285,-409.0405 122,-408.5486 177.0398,-400.7501 239.789,-399.9191 287.7344,-400.9496"/>
<polygon fill="#ffa500" stroke="#ffa500" points="110.4312,-406.9796 101.3944,-412.51 111.9076,-413.8221 110.4312,-406.9796"/>
<text text-anchor="start" x="149.5" y="-422.5486" font-family="Helvetica,sans-Serif" font-size="10.00" fill="#000000"> &lt; TurbulenceModel,</text>
<text text-anchor="middle" x="194.5" y="-411.5486" font-family="Helvetica,sans-Serif" font-size="10.00" fill="#000000"> CFDSim &amp;&gt;</text>
</g>
<!-- Node26 -->
<g id="node27" class="node">
<title>Node26</title>
<g id="a_node27"><a xlink:href="structamr__wind_1_1_factory.html" target="_top" xlink:title="amr_wind::Factory\&lt;\l OversetManager, CFDSim &amp;\&gt;">
<polygon fill="#ffffff" stroke="#000000" points="289,-340.5486 289,-370.5486 441,-370.5486 441,-340.5486 289,-340.5486"/>
<text text-anchor="start" x="297" y="-358.5486" font-family="Helvetica,sans-Serif" font-size="10.00" fill="#000000">amr_wind::Factory&lt;</text>
<text text-anchor="middle" x="365" y="-347.5486" font-family="Helvetica,sans-Serif" font-size="10.00" fill="#000000"> OversetManager, CFDSim &amp;&gt;</text>
</a>
</g>
</g>
<!-- Node0&#45;&gt;Node26 -->
<g id="edge26" class="edge">
<title>Node0&#45;&gt;Node26</title>
<path fill="none" stroke="#ffa500" stroke-dasharray="5,2" d="M80.4113,-406.802C92.6354,-398.8826 107.4429,-390.5612 122,-385.5486 175.8569,-367.0033 239.9111,-359.653 288.7313,-356.8591"/>
<polygon fill="#ffa500" stroke="#ffa500" points="78.3587,-403.9644 72.0074,-412.4445 82.2607,-409.776 78.3587,-403.9644"/>
<text text-anchor="middle" x="194.5" y="-388.5486" font-family="Helvetica,sans-Serif" font-size="10.00" fill="#000000"> &lt; OversetManager, CFDSim &amp;&gt;</text>
</g>
<!-- Node28 -->
<g id="node29" class="node">
<title>Node28</title>
<g id="a_node29"><a xlink:href="structamr__wind_1_1_factory.html" target="_top" xlink:title="amr_wind::Factory\&lt;\l Physics, CFDSim &amp;\&gt;">
<polygon fill="#ffffff" stroke="#000000" points="307.5,-291.5486 307.5,-321.5486 422.5,-321.5486 422.5,-291.5486 307.5,-291.5486"/>
<text text-anchor="start" x="315.5" y="-309.5486" font-family="Helvetica,sans-Serif" font-size="10.00" fill="#000000">amr_wind::Factory&lt;</text>
<text text-anchor="middle" x="365" y="-298.5486" font-family="Helvetica,sans-Serif" font-size="10.00" fill="#000000"> Physics, CFDSim &amp;&gt;</text>
</a>
</g>
</g>
<!-- Node0&#45;&gt;Node28 -->
<g id="edge28" class="edge">
<title>Node0&#45;&gt;Node28</title>
<path fill="none" stroke="#ffa500" stroke-dasharray="5,2" d="M65.0498,-403.8833C77.1459,-384.3522 97.021,-357.6385 122,-343.5486 179.2394,-311.2616 255.5489,-304.4305 307.2711,-304.1125"/>
<polygon fill="#ffa500" stroke="#ffa500" points="62.0026,-402.1598 59.8987,-412.5437 68.0189,-405.7382 62.0026,-402.1598"/>
<text text-anchor="middle" x="194.5" y="-346.5486" font-family="Helvetica,sans-Serif" font-size="10.00" fill="#000000"> &lt; Physics, CFDSim &amp;&gt;</text>
</g>
<!-- Node30 -->
<g id="node31" class="node">
<title>Node30</title>
<g id="a_node31"><a xlink:href="structamr__wind_1_1_factory.html" target="_top" xlink:title="amr_wind::Factory\&lt;\l SamplerBase, CFDSim &amp;\&gt;">
<polygon fill="#ffffff" stroke="#000000" points="296,-242.5486 296,-272.5486 434,-272.5486 434,-242.5486 296,-242.5486"/>
<text text-anchor="start" x="304" y="-260.5486" font-family="Helvetica,sans-Serif" font-size="10.00" fill="#000000">amr_wind::Factory&lt;</text>
<text text-anchor="middle" x="365" y="-249.5486" font-family="Helvetica,sans-Serif" font-size="10.00" fill="#000000"> SamplerBase, CFDSim &amp;&gt;</text>
</a>
</g>
</g>
<!-- Node0&#45;&gt;Node30 -->
<g id="edge30" class="edge">
<title>Node0&#45;&gt;Node30</title>
<path fill="none" stroke="#ffa500" stroke-dasharray="5,2" d="M57.3596,-402.3294C65.503,-370.6877 84.2175,-317.3342 122,-290.5486 172.3615,-254.8452 243.6311,-249.0001 295.9672,-250.6437"/>
<polygon fill="#ffa500" stroke="#ffa500" points="53.9313,-401.6163 54.9909,-412.158 60.7365,-403.2563 53.9313,-401.6163"/>
<text text-anchor="middle" x="194.5" y="-293.5486" font-family="Helvetica,sans-Serif" font-size="10.00" fill="#000000"> &lt; SamplerBase, CFDSim &amp;&gt;</text>
</g>
<!-- Node32 -->
<g id="node33" class="node">
<title>Node32</title>
<g id="a_node33"><a xlink:href="structamr__wind_1_1_factory.html" target="_top" xlink:title="amr_wind::Factory\&lt;\l GeometryType, const\l CFDSim &amp;, const std\l::string &amp;\&gt;">
<polygon fill="#ffffff" stroke="#000000" points="308,-171.5486 308,-223.5486 422,-223.5486 422,-171.5486 308,-171.5486"/>
<text text-anchor="start" x="316" y="-211.5486" font-family="Helvetica,sans-Serif" font-size="10.00" fill="#000000">amr_wind::Factory&lt;</text>
<text text-anchor="start" x="316" y="-200.5486" font-family="Helvetica,sans-Serif" font-size="10.00" fill="#000000"> GeometryType, const</text>
<text text-anchor="start" x="316" y="-189.5486" font-family="Helvetica,sans-Serif" font-size="10.00" fill="#000000"> CFDSim &amp;, const std</text>
<text text-anchor="middle" x="365" y="-178.5486" font-family="Helvetica,sans-Serif" font-size="10.00" fill="#000000">::string &amp;&gt;</text>
</a>
</g>
</g>
<!-- Node0&#45;&gt;Node32 -->
<g id="edge32" class="edge">
<title>Node0&#45;&gt;Node32</title>
<path fill="none" stroke="#ffa500" stroke-dasharray="5,2" d="M56.5961,-402.4412C66.5322,-351.1455 91.5892,-237.1606 122,-213.5486 174.513,-172.7756 254.2,-176.0559 307.8634,-184.6534"/>
<polygon fill="#ffa500" stroke="#ffa500" points="53.1358,-401.9031 54.7089,-412.3805 60.0129,-403.209 53.1358,-401.9031"/>
<text text-anchor="start" x="141" y="-238.5486" font-family="Helvetica,sans-Serif" font-size="10.00" fill="#000000"> &lt; GeometryType, const</text>
<text text-anchor="start" x="141" y="-227.5486" font-family="Helvetica,sans-Serif" font-size="10.00" fill="#000000"> CFDSim &amp;, const std</text>
<text text-anchor="middle" x="194.5" y="-216.5486" font-family="Helvetica,sans-Serif" font-size="10.00" fill="#000000">::string &amp;&gt;</text>
</g>
<!-- Node34 -->
<g id="node35" class="node">
<title>Node34</title>
<g id="a_node35"><a xlink:href="structamr__wind_1_1_factory.html" target="_top" xlink:title="amr_wind::Factory\&lt;\l DensitySource, const\l CFDSim &amp;\&gt;">
<polygon fill="#ffffff" stroke="#000000" points="308,-111.0486 308,-152.0486 422,-152.0486 422,-111.0486 308,-111.0486"/>
<text text-anchor="start" x="316" y="-140.0486" font-family="Helvetica,sans-Serif" font-size="10.00" fill="#000000">amr_wind::Factory&lt;</text>
<text text-anchor="start" x="316" y="-129.0486" font-family="Helvetica,sans-Serif" font-size="10.00" fill="#000000"> DensitySource, const</text>
<text text-anchor="middle" x="365" y="-118.0486" font-family="Helvetica,sans-Serif" font-size="10.00" fill="#000000"> CFDSim &amp;&gt;</text>
</a>
</g>
</g>
<!-- Node0&#45;&gt;Node34 -->
<g id="edge34" class="edge">
<title>Node0&#45;&gt;Node34</title>
<path fill="none" stroke="#ffa500" stroke-dasharray="5,2" d="M54.7243,-402.3594C61.9361,-340.7495 83.6472,-185.1076 122,-152.5486 173.0041,-109.2494 253.6137,-111.3984 307.856,-119.3889"/>
<polygon fill="#ffa500" stroke="#ffa500" points="51.2357,-402.061 53.5816,-412.3928 58.1907,-402.8531 51.2357,-402.061"/>
<text text-anchor="start" x="141" y="-166.5486" font-family="Helvetica,sans-Serif" font-size="10.00" fill="#000000"> &lt; DensitySource, const</text>
<text text-anchor="middle" x="194.5" y="-155.5486" font-family="Helvetica,sans-Serif" font-size="10.00" fill="#000000"> CFDSim &amp;&gt;</text>
</g>
<!-- Node36 -->
<g id="node37" class="node">
<title>Node36</title>
<g id="a_node37"><a xlink:href="structamr__wind_1_1_factory.html" target="_top" xlink:title="amr_wind::Factory\&lt;\l RefinementCriteria,\l CFDSim &amp;\&gt;">
<polygon fill="#ffffff" stroke="#000000" points="313,-51.0486 313,-92.0486 417,-92.0486 417,-51.0486 313,-51.0486"/>
<text text-anchor="start" x="321" y="-80.0486" font-family="Helvetica,sans-Serif" font-size="10.00" fill="#000000">amr_wind::Factory&lt;</text>
<text text-anchor="start" x="321" y="-69.0486" font-family="Helvetica,sans-Serif" font-size="10.00" fill="#000000"> RefinementCriteria,</text>
<text text-anchor="middle" x="365" y="-58.0486" font-family="Helvetica,sans-Serif" font-size="10.00" fill="#000000"> CFDSim &amp;&gt;</text>
</a>
</g>
</g>
<!-- Node0&#45;&gt;Node36 -->
<g id="edge36" class="edge">
<title>Node0&#45;&gt;Node36</title>
<path fill="none" stroke="#ffa500" stroke-dasharray="5,2" d="M53.4119,-401.9567C57.9363,-330.2568 74.6563,-129.9473 122,-88.5486 149.4187,-64.5729 249.9532,-65.165 312.798,-68.1184"/>
<polygon fill="#ffa500" stroke="#ffa500" points="49.8955,-402.1234 52.7876,-412.3158 56.8829,-402.5445 49.8955,-402.1234"/>
<text text-anchor="start" x="146" y="-102.5486" font-family="Helvetica,sans-Serif" font-size="10.00" fill="#000000"> &lt; RefinementCriteria,</text>
<text text-anchor="middle" x="194.5" y="-91.5486" font-family="Helvetica,sans-Serif" font-size="10.00" fill="#000000"> CFDSim &amp;&gt;</text>
</g>
<!-- Node38 -->
<g id="node39" class="node">
<title>Node38</title>
<g id="a_node39"><a xlink:href="structamr__wind_1_1_factory.html" target="_top" xlink:title="amr_wind::Factory\&lt;\l TKESource, const CFDSim &amp;\&gt;">
<polygon fill="#ffffff" stroke="#000000" points="286.5,-1.5486 286.5,-31.5486 443.5,-31.5486 443.5,-1.5486 286.5,-1.5486"/>
<text text-anchor="start" x="294.5" y="-19.5486" font-family="Helvetica,sans-Serif" font-size="10.00" fill="#000000">amr_wind::Factory&lt;</text>
<text text-anchor="middle" x="365" y="-8.5486" font-family="Helvetica,sans-Serif" font-size="10.00" fill="#000000"> TKESource, const CFDSim &amp;&gt;</text>
</a>
</g>
</g>
<!-- Node0&#45;&gt;Node38 -->
<g id="edge38" class="edge">
<title>Node0&#45;&gt;Node38</title>
<path fill="none" stroke="#ffa500" stroke-dasharray="5,2" d="M52.7561,-402.1366C55.6418,-324.0238 68.6686,-89.7509 122,-40.5486 165.3098,-.592 233.2279,3.0498 286.2629,-1.9674"/>
<polygon fill="#ffa500" stroke="#ffa500" points="49.246,-402.3734 52.4003,-412.4878 56.2418,-402.6139 49.246,-402.3734"/>
<text text-anchor="start" x="148" y="-54.5486" font-family="Helvetica,sans-Serif" font-size="10.00" fill="#000000"> &lt; TKESource, const</text>
<text text-anchor="middle" x="194.5" y="-43.5486" font-family="Helvetica,sans-Serif" font-size="10.00" fill="#000000"> CFDSim &amp;&gt;</text>
</g>
<!-- Node2 -->
<g id="node3" class="node">
<title>Node2</title>
<g id="a_node3"><a xlink:href="classamr__wind_1_1pde_1_1_p_d_e_base.html" target="_top" xlink:title="Abstract interface defining a PDE and its solution process withn AMR&#45;WindThe exact behavior is implem...">
<polygon fill="#ffffff" stroke="#000000" points="500,-838.0486 500,-857.0486 630,-857.0486 630,-838.0486 500,-838.0486"/>
<text text-anchor="middle" x="565" y="-845.0486" font-family="Helvetica,sans-Serif" font-size="10.00" fill="#000000">amr_wind::pde::PDEBase</text>
</a>
</g>
</g>
<!-- Node1&#45;&gt;Node2 -->
<g id="edge2" class="edge">
<title>Node1&#45;&gt;Node2</title>
<path fill="none" stroke="#191970" d="M435.15,-847.5486C456.167,-847.5486 479.1205,-847.5486 499.8044,-847.5486"/>
<polygon fill="#191970" stroke="#191970" points="435.0066,-844.0487 425.0066,-847.5486 435.0066,-851.0487 435.0066,-844.0487"/>
</g>
<!-- Node4 -->
<g id="node5" class="node">
<title>Node4</title>
<g id="a_node5"><a xlink:href="classamr__wind_1_1pde_1_1_temperature_source.html" target="_top" xlink:title="Representation of a temperature source termAll temperature source terms must inherit from this class...">
<polygon fill="#ffffff" stroke="#000000" points="494.5,-772.5486 494.5,-802.5486 635.5,-802.5486 635.5,-772.5486 494.5,-772.5486"/>
<text text-anchor="start" x="502.5" y="-790.5486" font-family="Helvetica,sans-Serif" font-size="10.00" fill="#000000">amr_wind::pde::Temperature</text>
<text text-anchor="middle" x="565" y="-779.5486" font-family="Helvetica,sans-Serif" font-size="10.00" fill="#000000">Source</text>
</a>
</g>
</g>
<!-- Node3&#45;&gt;Node4 -->
<g id="edge4" class="edge">
<title>Node3&#45;&gt;Node4</title>
<path fill="none" stroke="#191970" d="M429.3966,-787.5486C450.1026,-787.5486 473.1509,-787.5486 494.2852,-787.5486"/>
<polygon fill="#191970" stroke="#191970" points="429.1229,-784.0487 419.1229,-787.5486 429.1228,-791.0487 429.1229,-784.0487"/>
</g>
<!-- Node6 -->
<g id="node7" class="node">
<title>Node6</title>
<g id="a_node7"><a xlink:href="classamr__wind_1_1_derived_qty.html" target="_top" xlink:title="amr_wind::DerivedQty">
<polygon fill="#ffffff" stroke="#000000" points="508,-718.0486 508,-737.0486 622,-737.0486 622,-718.0486 508,-718.0486"/>
<text text-anchor="middle" x="565" y="-725.0486" font-family="Helvetica,sans-Serif" font-size="10.00" fill="#000000">amr_wind::DerivedQty</text>
</a>
</g>
</g>
<!-- Node5&#45;&gt;Node6 -->
<g id="edge6" class="edge">
<title>Node5&#45;&gt;Node6</title>
<path fill="none" stroke="#191970" d="M453.3896,-727.5486C471.8877,-727.5486 490.9231,-727.5486 507.9175,-727.5486"/>
<polygon fill="#191970" stroke="#191970" points="453.1845,-724.0487 443.1845,-727.5486 453.1845,-731.0487 453.1845,-724.0487"/>
</g>
<!-- Node8 -->
<g id="node9" class="node">
<title>Node8</title>
<g id="a_node9"><a xlink:href="classamr__wind_1_1pde_1_1_momentum_source.html" target="_top" xlink:title="Representation of a momentum source termAll momentum source terms must inherit from this class...">
<polygon fill="#ffffff" stroke="#000000" points="482,-658.0486 482,-677.0486 648,-677.0486 648,-658.0486 482,-658.0486"/>
<text text-anchor="middle" x="565" y="-665.0486" font-family="Helvetica,sans-Serif" font-size="10.00" fill="#000000">amr_wind::pde::MomentumSource</text>
</a>
</g>
</g>
<!-- Node7&#45;&gt;Node8 -->
<g id="edge8" class="edge">
<title>Node7&#45;&gt;Node8</title>
<path fill="none" stroke="#191970" d="M439.9792,-667.5486C453.6708,-667.5486 468.0311,-667.5486 481.941,-667.5486"/>
<polygon fill="#191970" stroke="#191970" points="439.6581,-664.0487 429.6581,-667.5486 439.658,-671.0487 439.6581,-664.0487"/>
</g>
<!-- Node10 -->
<g id="node11" class="node">
<title>Node10</title>
<g id="a_node11"><a xlink:href="classamr__wind_1_1udf_1_1_u_d_f.html" target="_top" xlink:title="amr_wind::udf::UDF">
<polygon fill="#ffffff" stroke="#000000" points="512.5,-603.0486 512.5,-622.0486 617.5,-622.0486 617.5,-603.0486 512.5,-603.0486"/>
<text text-anchor="middle" x="565" y="-610.0486" font-family="Helvetica,sans-Serif" font-size="10.00" fill="#000000">amr_wind::udf::UDF</text>
</a>
</g>
</g>
<!-- Node9&#45;&gt;Node10 -->
<g id="edge10" class="edge">
<title>Node9&#45;&gt;Node10</title>
<path fill="none" stroke="#191970" d="M427.2331,-612.5486C454.481,-612.5486 486.1142,-612.5486 512.1918,-612.5486"/>
<polygon fill="#191970" stroke="#191970" points="427.0256,-609.0487 417.0255,-612.5486 427.0255,-616.0487 427.0256,-609.0487"/>
</g>
<!-- Node12 -->
<g id="node13" class="node">
<title>Node12</title>
<g id="a_node13"><a xlink:href="classamr__wind_1_1pde_1_1_source_term.html" target="_top" xlink:title="Abstract representation of a source term. ">
<polygon fill="#ffffff" stroke="#000000" points="495,-554.0486 495,-573.0486 635,-573.0486 635,-554.0486 495,-554.0486"/>
<text text-anchor="middle" x="565" y="-561.0486" font-family="Helvetica,sans-Serif" font-size="10.00" fill="#000000">amr_wind::pde::SourceTerm</text>
</a>
</g>
</g>
<!-- Node11&#45;&gt;Node12 -->
<g id="edge12" class="edge">
<title>Node11&#45;&gt;Node12</title>
<path fill="none" stroke="#191970" d="M455.2712,-563.5486C468.5265,-563.5486 482.0119,-563.5486 494.7841,-563.5486"/>
<polygon fill="#191970" stroke="#191970" points="455.1953,-560.0487 445.1953,-563.5486 455.1952,-567.0487 455.1953,-560.0487"/>
</g>
<!-- Node14 -->
<g id="node15" class="node">
<title>Node14</title>
<g id="a_node15"><a xlink:href="classamr__wind_1_1_post_process_base.html" target="_top" xlink:title="Abstract representation of a post&#45;processing utilityProvides an interface for a runtime&#45;selectable po...">
<polygon fill="#ffffff" stroke="#000000" points="493.5,-499.0486 493.5,-518.0486 636.5,-518.0486 636.5,-499.0486 493.5,-499.0486"/>
<text text-anchor="middle" x="565" y="-506.0486" font-family="Helvetica,sans-Serif" font-size="10.00" fill="#000000">amr_wind::PostProcessBase</text>
</a>
</g>
</g>
<!-- Node13&#45;&gt;Node14 -->
<g id="edge14" class="edge">
<title>Node13&#45;&gt;Node14</title>
<path fill="none" stroke="#191970" d="M446.6676,-508.5486C462.084,-508.5486 478.1022,-508.5486 493.1883,-508.5486"/>
<polygon fill="#191970" stroke="#191970" points="446.6397,-505.0487 436.6397,-508.5486 446.6396,-512.0487 446.6397,-505.0487"/>
</g>
<!-- Node16 -->
<g id="node17" class="node">
<title>Node16</title>
<g id="a_node17"><a xlink:href="classamr__wind_1_1pde_1_1_s_d_r_source.html" target="_top" xlink:title="Base class for SDR source terms. ">
<polygon fill="#ffffff" stroke="#000000" points="495.5,-444.0486 495.5,-463.0486 634.5,-463.0486 634.5,-444.0486 495.5,-444.0486"/>
<text text-anchor="middle" x="565" y="-451.0486" font-family="Helvetica,sans-Serif" font-size="10.00" fill="#000000">amr_wind::pde::SDRSource</text>
</a>
</g>
</g>
<!-- Node15&#45;&gt;Node16 -->
<g id="edge16" class="edge">
<title>Node15&#45;&gt;Node16</title>
<path fill="none" stroke="#191970" d="M454.9248,-453.5486C468.4859,-453.5486 482.2966,-453.5486 495.3458,-453.5486"/>
<polygon fill="#191970" stroke="#191970" points="454.62,-450.0487 444.62,-453.5486 454.6199,-457.0487 454.62,-450.0487"/>
</g>
<!-- Node18 -->
<g id="node19" class="node">
<title>Node18</title>
<g id="a_node19"><a xlink:href="classamr__wind_1_1turbulence_1_1_turbulence_model.html" target="_top" xlink:title="Abstract representation of a turbulence modelThis class is an abstract representation of a turbulence...">
<polygon fill="#ffffff" stroke="#000000" points="510,-389.5486 510,-419.5486 620,-419.5486 620,-389.5486 510,-389.5486"/>
<text text-anchor="start" x="518" y="-407.5486" font-family="Helvetica,sans-Serif" font-size="10.00" fill="#000000">amr_wind::turbulence</text>
<text text-anchor="middle" x="565" y="-396.5486" font-family="Helvetica,sans-Serif" font-size="10.00" fill="#000000">::TurbulenceModel</text>
</a>
</g>
</g>
<!-- Node17&#45;&gt;Node18 -->
<g id="edge18" class="edge">
<title>Node17&#45;&gt;Node18</title>
<path fill="none" stroke="#191970" d="M452.1774,-404.5486C471.7112,-404.5486 491.9087,-404.5486 509.7218,-404.5486"/>
<polygon fill="#191970" stroke="#191970" points="452.0392,-401.0487 442.0391,-404.5486 452.0391,-408.0487 452.0392,-401.0487"/>
</g>
<!-- Node19 -->
<g id="node20" class="node">
<title>Node19</title>
<g id="a_node20"><a xlink:href="classamr__wind_1_1turbulence_1_1_turb_model.html" target="_top" xlink:title="Turbulence model with a specific transport modelThis templated class allows turbulence model to be sp...">
<polygon fill="#ffffff" stroke="#000000" points="685,-389.5486 685,-419.5486 813,-419.5486 813,-389.5486 685,-389.5486"/>
<text text-anchor="start" x="693" y="-407.5486" font-family="Helvetica,sans-Serif" font-size="10.00" fill="#000000">amr_wind::turbulence</text>
<text text-anchor="middle" x="749" y="-396.5486" font-family="Helvetica,sans-Serif" font-size="10.00" fill="#000000">::TurbModel&lt; Transport &gt;</text>
</a>
</g>
</g>
<!-- Node18&#45;&gt;Node19 -->
<g id="edge19" class="edge">
<title>Node18&#45;&gt;Node19</title>
<path fill="none" stroke="#191970" d="M630.419,-404.5486C648.0829,-404.5486 667.177,-404.5486 684.7749,-404.5486"/>
<polygon fill="#191970" stroke="#191970" points="630.2061,-401.0487 620.2061,-404.5486 630.206,-408.0487 630.2061,-401.0487"/>
</g>
<!-- Node20 -->
<g id="node21" class="node">
<title>Node20</title>
<g id="a_node21"><a xlink:href="classamr__wind_1_1turbulence_1_1_laminar.html" target="_top" xlink:title="Laminar modelImplementation of laminar flow model. ">
<polygon fill="#ffffff" stroke="#000000" points="867,-414.5486 867,-444.5486 983,-444.5486 983,-414.5486 867,-414.5486"/>
<text text-anchor="start" x="875" y="-432.5486" font-family="Helvetica,sans-Serif" font-size="10.00" fill="#000000">amr_wind::turbulence</text>
<text text-anchor="middle" x="925" y="-421.5486" font-family="Helvetica,sans-Serif" font-size="10.00" fill="#000000">::Laminar&lt; Transport &gt;</text>
</a>
</g>
</g>
<!-- Node19&#45;&gt;Node20 -->
<g id="edge20" class="edge">
<title>Node19&#45;&gt;Node20</title>
<path fill="none" stroke="#191970" d="M823.0595,-415.0684C837.6864,-417.1461 852.8406,-419.2987 866.8499,-421.2886"/>
<polygon fill="#191970" stroke="#191970" points="823.4308,-411.5861 813.0379,-413.6449 822.4463,-418.5165 823.4308,-411.5861"/>
</g>
<!-- Node21 -->
<g id="node22" class="node">
<title>Node21</title>
<g id="a_node22"><a xlink:href="classamr__wind_1_1turbulence_1_1_turb_model_base.html" target="_top" xlink:title="Turbulence model aspects common to both LES and RANS modelsThis class implements more of the common m...">
<polygon fill="#ffffff" stroke="#000000" points="850,-365.5486 850,-395.5486 1000,-395.5486 1000,-365.5486 850,-365.5486"/>
<text text-anchor="start" x="858" y="-383.5486" font-family="Helvetica,sans-Serif" font-size="10.00" fill="#000000">amr_wind::turbulence</text>
<text text-anchor="middle" x="925" y="-372.5486" font-family="Helvetica,sans-Serif" font-size="10.00" fill="#000000">::TurbModelBase&lt; Transport &gt;</text>
</a>
</g>
</g>
<!-- Node19&#45;&gt;Node21 -->
<g id="edge21" class="edge">
<title>Node19&#45;&gt;Node21</title>
<path fill="none" stroke="#191970" d="M822.9982,-394.4579C831.9121,-393.2424 841.0227,-392 849.9514,-390.7825"/>
<polygon fill="#191970" stroke="#191970" points="822.4733,-390.997 813.0379,-395.8162 823.4191,-397.9328 822.4733,-390.997"/>
</g>
<!-- Node22 -->
<g id="node23" class="node">
<title>Node22</title>
<g id="a_node23"><a xlink:href="classamr__wind_1_1turbulence_1_1_one_eq_ksgs.html" target="_top" xlink:title="Base class for 1&#45;Equation subgrid scale TKE turbulence model. ">
<polygon fill="#ffffff" stroke="#000000" points="1039.5,-402.5486 1039.5,-432.5486 1173.5,-432.5486 1173.5,-402.5486 1039.5,-402.5486"/>
<text text-anchor="start" x="1047.5" y="-420.5486" font-family="Helvetica,sans-Serif" font-size="10.00" fill="#000000">amr_wind::turbulence</text>
<text text-anchor="middle" x="1106.5" y="-409.5486" font-family="Helvetica,sans-Serif" font-size="10.00" fill="#000000">::OneEqKsgs&lt; Transport &gt;</text>
</a>
</g>
</g>
<!-- Node21&#45;&gt;Node22 -->
<g id="edge22" class="edge">
<title>Node21&#45;&gt;Node22</title>
<path fill="none" stroke="#191970" d="M1008.6649,-397.6043C1018.9878,-399.7086 1029.4337,-401.8381 1039.464,-403.8828"/>
<polygon fill="#191970" stroke="#191970" points="1009.3206,-394.166 998.823,-395.5979 1007.9223,-401.0249 1009.3206,-394.166"/>
</g>
<!-- Node25 -->
<g id="node26" class="node">
<title>Node25</title>
<g id="a_node26"><a xlink:href="classamr__wind_1_1turbulence_1_1_smagorinsky.html" target="_top" xlink:title="Smagorinsky LES Model. ">
<polygon fill="#ffffff" stroke="#000000" points="1037,-353.5486 1037,-383.5486 1176,-383.5486 1176,-353.5486 1037,-353.5486"/>
<text text-anchor="start" x="1045" y="-371.5486" font-family="Helvetica,sans-Serif" font-size="10.00" fill="#000000">amr_wind::turbulence</text>
<text text-anchor="middle" x="1106.5" y="-360.5486" font-family="Helvetica,sans-Serif" font-size="10.00" fill="#000000">::Smagorinsky&lt; Transport &gt;</text>
</a>
</g>
</g>
<!-- Node21&#45;&gt;Node25 -->
<g id="edge25" class="edge">
<title>Node21&#45;&gt;Node25</title>
<path fill="none" stroke="#191970" d="M1010.2013,-374.9154C1019.1626,-374.323 1028.1964,-373.7257 1036.9513,-373.1469"/>
<polygon fill="#191970" stroke="#191970" points="1009.8804,-371.4289 1000.1332,-375.5811 1010.3423,-378.4137 1009.8804,-371.4289"/>
</g>
<!-- Node23 -->
<g id="node24" class="node">
<title>Node23</title>
<g id="a_node24"><a xlink:href="classamr__wind_1_1turbulence_1_1_one_eq_ksgs_m84.html" target="_top" xlink:title="1&#45;equation subgrid scale TKE turbulence modelImplements the model described in Moeng 1984 paper ...">
<polygon fill="#ffffff" stroke="#000000" points="1213,-426.5486 1213,-456.5486 1366,-456.5486 1366,-426.5486 1213,-426.5486"/>
<text text-anchor="start" x="1221" y="-444.5486" font-family="Helvetica,sans-Serif" font-size="10.00" fill="#000000">amr_wind::turbulence</text>
<text text-anchor="middle" x="1289.5" y="-433.5486" font-family="Helvetica,sans-Serif" font-size="10.00" fill="#000000">::OneEqKsgsM84&lt; Transport &gt;</text>
</a>
</g>
</g>
<!-- Node22&#45;&gt;Node23 -->
<g id="edge23" class="edge">
<title>Node22&#45;&gt;Node23</title>
<path fill="none" stroke="#191970" d="M1183.5827,-427.6578C1193.2533,-428.9261 1203.1444,-430.2233 1212.8091,-431.4908"/>
<polygon fill="#191970" stroke="#191970" points="1183.9736,-424.1792 1173.6033,-426.349 1183.0633,-431.1197 1183.9736,-424.1792"/>
</g>
<!-- Node24 -->
<g id="node25" class="node">
<title>Node24</title>
<g id="a_node25"><a xlink:href="classamr__wind_1_1turbulence_1_1_one_eq_ksgs_s94.html" target="_top" xlink:title="1&#45;equation subgrid scale TKE turbulence modelImplements the model described in Sullivan 1994 paper ...">
<polygon fill="#ffffff" stroke="#000000" points="1213.5,-377.5486 1213.5,-407.5486 1365.5,-407.5486 1365.5,-377.5486 1213.5,-377.5486"/>
<text text-anchor="start" x="1221.5" y="-395.5486" font-family="Helvetica,sans-Serif" font-size="10.00" fill="#000000">amr_wind::turbulence</text>
<text text-anchor="middle" x="1289.5" y="-384.5486" font-family="Helvetica,sans-Serif" font-size="10.00" fill="#000000">::OneEqKsgsS94&lt; Transport &gt;</text>
</a>
</g>
</g>
<!-- Node22&#45;&gt;Node24 -->
<g id="edge24" class="edge">
<title>Node22&#45;&gt;Node24</title>
<path fill="none" stroke="#191970" d="M1183.7439,-406.9961C1193.5718,-405.6535 1203.6246,-404.2802 1213.4338,-402.9402"/>
<polygon fill="#191970" stroke="#191970" points="1183.0375,-403.5601 1173.6033,-408.3815 1183.9851,-410.4956 1183.0375,-403.5601"/>
</g>
<!-- Node27 -->
<g id="node28" class="node">
<title>Node27</title>
<g id="a_node28"><a xlink:href="classamr__wind_1_1_overset_manager.html" target="_top" xlink:title="Overset interface manager. ">
<polygon fill="#ffffff" stroke="#000000" points="496.5,-346.0486 496.5,-365.0486 633.5,-365.0486 633.5,-346.0486 496.5,-346.0486"/>
<text text-anchor="middle" x="565" y="-353.0486" font-family="Helvetica,sans-Serif" font-size="10.00" fill="#000000">amr_wind::OversetManager</text>
</a>
</g>
</g>
<!-- Node26&#45;&gt;Node27 -->
<g id="edge27" class="edge">
<title>Node26&#45;&gt;Node27</title>
<path fill="none" stroke="#191970" d="M451.4652,-355.5486C466.4384,-355.5486 481.824,-355.5486 496.2457,-355.5486"/>
<polygon fill="#191970" stroke="#191970" points="451.182,-352.0487 441.182,-355.5486 451.1819,-359.0487 451.182,-352.0487"/>
</g>
<!-- Node29 -->
<g id="node30" class="node">
<title>Node29</title>
<g id="a_node30"><a xlink:href="classamr__wind_1_1_physics.html" target="_top" xlink:title="Abstract representation of different physicsThis class defines an abstract API that represents the no...">
<polygon fill="#ffffff" stroke="#000000" points="515,-297.0486 515,-316.0486 615,-316.0486 615,-297.0486 515,-297.0486"/>
<text text-anchor="middle" x="565" y="-304.0486" font-family="Helvetica,sans-Serif" font-size="10.00" fill="#000000">amr_wind::Physics</text>
</a>
</g>
</g>
<!-- Node28&#45;&gt;Node29 -->
<g id="edge29" class="edge">
<title>Node28&#45;&gt;Node29</title>
<path fill="none" stroke="#191970" d="M432.7111,-306.5486C459.6415,-306.5486 490.0717,-306.5486 514.9514,-306.5486"/>
<polygon fill="#191970" stroke="#191970" points="432.58,-303.0487 422.58,-306.5486 432.5799,-310.0487 432.58,-303.0487"/>
</g>
<!-- Node31 -->
<g id="node32" class="node">
<title>Node31</title>
<g id="a_node32"><a xlink:href="classamr__wind_1_1sampling_1_1_sampler_base.html" target="_top" xlink:title="Abstract representation of data probes to sample flow dataThis class defines the interface by which t...">
<polygon fill="#ffffff" stroke="#000000" points="513,-242.5486 513,-272.5486 617,-272.5486 617,-242.5486 513,-242.5486"/>
<text text-anchor="start" x="521" y="-260.5486" font-family="Helvetica,sans-Serif" font-size="10.00" fill="#000000">amr_wind::sampling</text>
<text text-anchor="middle" x="565" y="-249.5486" font-family="Helvetica,sans-Serif" font-size="10.00" fill="#000000">::SamplerBase</text>
</a>
</g>
</g>
<!-- Node30&#45;&gt;Node31 -->
<g id="edge31" class="edge">
<title>Node30&#45;&gt;Node31</title>
<path fill="none" stroke="#191970" d="M444.2431,-257.5486C467.3379,-257.5486 491.9777,-257.5486 512.9373,-257.5486"/>
<polygon fill="#191970" stroke="#191970" points="444.1087,-254.0487 434.1087,-257.5486 444.1087,-261.0487 444.1087,-254.0487"/>
</g>
<!-- Node33 -->
<g id="node34" class="node">
<title>Node33</title>
<g id="a_node34"><a xlink:href="classamr__wind_1_1tagging_1_1_geometry_type.html" target="_top" xlink:title="Abstract definition of shapes for AMR. ">
<polygon fill="#ffffff" stroke="#000000" points="514,-182.5486 514,-212.5486 616,-212.5486 616,-182.5486 514,-182.5486"/>
<text text-anchor="start" x="522" y="-200.5486" font-family="Helvetica,sans-Serif" font-size="10.00" fill="#000000">amr_wind::tagging::</text>
<text text-anchor="middle" x="565" y="-189.5486" font-family="Helvetica,sans-Serif" font-size="10.00" fill="#000000">GeometryType</text>
</a>
</g>
</g>
<!-- Node32&#45;&gt;Node33 -->
<g id="edge33" class="edge">
<title>Node32&#45;&gt;Node33</title>
<path fill="none" stroke="#191970" d="M432.0623,-197.5486C458.6976,-197.5486 488.8423,-197.5486 513.6848,-197.5486"/>
<polygon fill="#191970" stroke="#191970" points="432.0444,-194.0487 422.0443,-197.5486 432.0443,-201.0487 432.0444,-194.0487"/>
</g>
<!-- Node35 -->
<g id="node36" class="node">
<title>Node35</title>
<g id="a_node36"><a xlink:href="classamr__wind_1_1pde_1_1_density_source.html" target="_top" xlink:title="amr_wind::pde::DensitySource">
<polygon fill="#ffffff" stroke="#000000" points="489.5,-122.0486 489.5,-141.0486 640.5,-141.0486 640.5,-122.0486 489.5,-122.0486"/>
<text text-anchor="middle" x="565" y="-129.0486" font-family="Helvetica,sans-Serif" font-size="10.00" fill="#000000">amr_wind::pde::DensitySource</text>
</a>
</g>
</g>
<!-- Node34&#45;&gt;Node35 -->
<g id="edge35" class="edge">
<title>Node34&#45;&gt;Node35</title>
<path fill="none" stroke="#191970" d="M432.0482,-131.5486C450.3969,-131.5486 470.4118,-131.5486 489.212,-131.5486"/>
<polygon fill="#191970" stroke="#191970" points="432.0444,-128.0487 422.0443,-131.5486 432.0443,-135.0487 432.0444,-128.0487"/>
</g>
<!-- Node37 -->
<g id="node38" class="node">
<title>Node37</title>
<g id="a_node38"><a xlink:href="classamr__wind_1_1_refinement_criteria.html" target="_top" xlink:title="Abstract interface for tagging cells for refinementThis class provides an API that can be used by con...">
<polygon fill="#ffffff" stroke="#000000" points="492,-62.0486 492,-81.0486 638,-81.0486 638,-62.0486 492,-62.0486"/>
<text text-anchor="middle" x="565" y="-69.0486" font-family="Helvetica,sans-Serif" font-size="10.00" fill="#000000">amr_wind::RefinementCriteria</text>
</a>
</g>
</g>
<!-- Node36&#45;&gt;Node37 -->
<g id="edge37" class="edge">
<title>Node36&#45;&gt;Node37</title>
<path fill="none" stroke="#191970" d="M427.1648,-71.5486C447.6283,-71.5486 470.5712,-71.5486 491.7793,-71.5486"/>
<polygon fill="#191970" stroke="#191970" points="427.0256,-68.0487 417.0255,-71.5486 427.0255,-75.0487 427.0256,-68.0487"/>
</g>
<!-- Node39 -->
<g id="node40" class="node">
<title>Node39</title>
<g id="a_node40"><a xlink:href="classamr__wind_1_1pde_1_1_t_k_e_source.html" target="_top" xlink:title="Base class for all TKE source terms. ">
<polygon fill="#ffffff" stroke="#000000" points="496.5,-7.0486 496.5,-26.0486 633.5,-26.0486 633.5,-7.0486 496.5,-7.0486"/>
<text text-anchor="middle" x="565" y="-14.0486" font-family="Helvetica,sans-Serif" font-size="10.00" fill="#000000">amr_wind::pde::TKESource</text>
</a>
</g>
</g>
<!-- Node38&#45;&gt;Node39 -->
<g id="edge39" class="edge">
<title>Node38&#45;&gt;Node39</title>
<path fill="none" stroke="#191970" d="M454.0282,-16.5486C468.2277,-16.5486 482.7258,-16.5486 496.3588,-16.5486"/>
<polygon fill="#191970" stroke="#191970" points="453.7582,-13.0487 443.7582,-16.5486 453.7582,-20.0487 453.7582,-13.0487"/>
</g>
</g>
</svg>
