<?xml version="1.0" encoding="UTF-8" standalone="no"?>
<!DOCTYPE svg PUBLIC "-//W3C//DTD SVG 1.1//EN"
 "http://www.w3.org/Graphics/SVG/1.1/DTD/svg11.dtd">
<!-- Generated by graphviz version 2.40.1 (20161225.0304)
 -->
<!-- Title: temperature.cpp Pages: 1 -->
<svg width="2716pt" height="553pt"
 viewBox="0.00 0.00 2716.04 553.00" xmlns="http://www.w3.org/2000/svg" xmlns:xlink="http://www.w3.org/1999/xlink">
<g id="graph0" class="graph" transform="scale(1 1) rotate(0) translate(4 549)">
<title>temperature.cpp</title>
<polygon fill="#ffffff" stroke="transparent" points="-4,4 -4,-549 2712.0379,-549 2712.0379,4 -4,4"/>
<!-- Node0 -->
<g id="node1" class="node">
<title>Node0</title>
<polygon fill="#bfbfbf" stroke="#000000" points="1633.0379,-525.5 1633.0379,-544.5 1720.0379,-544.5 1720.0379,-525.5 1633.0379,-525.5"/>
<text text-anchor="middle" x="1676.5379" y="-532.5" font-family="Helvetica,sans-Serif" font-size="10.00" fill="#000000">temperature.cpp</text>
</g>
<!-- Node1 -->
<g id="node2" class="node">
<title>Node1</title>
<g id="a_node2"><a xlink:href="temperature_8_h.html" target="_top" xlink:title="amr&#45;wind/equation_systems\l/temperature/temperature.H">
<polygon fill="#ffffff" stroke="#000000" points="1147.0379,-458.5 1147.0379,-488.5 1286.0379,-488.5 1286.0379,-458.5 1147.0379,-458.5"/>
<text text-anchor="start" x="1155.0379" y="-476.5" font-family="Helvetica,sans-Serif" font-size="10.00" fill="#000000">amr&#45;wind/equation_systems</text>
<text text-anchor="middle" x="1216.5379" y="-465.5" font-family="Helvetica,sans-Serif" font-size="10.00" fill="#000000">/temperature/temperature.H</text>
</a>
</g>
</g>
<!-- Node0&#45;&gt;Node1 -->
<g id="edge1" class="edge">
<title>Node0&#45;&gt;Node1</title>
<path fill="none" stroke="#191970" d="M1632.8475,-529.1588C1555.6297,-518.8351 1393.9952,-497.2253 1296.404,-484.1778"/>
<polygon fill="#191970" stroke="#191970" points="1296.6658,-480.6817 1286.2902,-482.8256 1295.7381,-487.62 1296.6658,-480.6817"/>
</g>
<!-- Node59 -->
<g id="node42" class="node">
<title>Node59</title>
<g id="a_node42"><a xlink:href="_adv_op___godunov_8_h.html" target="_top" xlink:title="amr&#45;wind/equation_systems\l/AdvOp_Godunov.H">
<polygon fill="#ffffff" stroke="#000000" points="1558.0379,-324.5 1558.0379,-354.5 1697.0379,-354.5 1697.0379,-324.5 1558.0379,-324.5"/>
<text text-anchor="start" x="1566.0379" y="-342.5" font-family="Helvetica,sans-Serif" font-size="10.00" fill="#000000">amr&#45;wind/equation_systems</text>
<text text-anchor="middle" x="1627.5379" y="-331.5" font-family="Helvetica,sans-Serif" font-size="10.00" fill="#000000">/AdvOp_Godunov.H</text>
</a>
</g>
</g>
<!-- Node0&#45;&gt;Node59 -->
<g id="edge104" class="edge">
<title>Node0&#45;&gt;Node59</title>
<path fill="none" stroke="#191970" d="M1674.108,-525.3051C1666.7757,-496.051 1644.7071,-408.0017 1633.7912,-364.4493"/>
<polygon fill="#191970" stroke="#191970" points="1637.1593,-363.4908 1631.333,-354.6418 1630.3693,-365.1927 1637.1593,-363.4908"/>
</g>
<!-- Node62 -->
<g id="node45" class="node">
<title>Node62</title>
<g id="a_node45"><a xlink:href="_adv_op___m_o_l_8_h.html" target="_top" xlink:title="amr&#45;wind/equation_systems\l/AdvOp_MOL.H">
<polygon fill="#ffffff" stroke="#000000" points="1715.0379,-324.5 1715.0379,-354.5 1854.0379,-354.5 1854.0379,-324.5 1715.0379,-324.5"/>
<text text-anchor="start" x="1723.0379" y="-342.5" font-family="Helvetica,sans-Serif" font-size="10.00" fill="#000000">amr&#45;wind/equation_systems</text>
<text text-anchor="middle" x="1784.5379" y="-331.5" font-family="Helvetica,sans-Serif" font-size="10.00" fill="#000000">/AdvOp_MOL.H</text>
</a>
</g>
</g>
<!-- Node0&#45;&gt;Node62 -->
<g id="edge113" class="edge">
<title>Node0&#45;&gt;Node62</title>
<path fill="none" stroke="#191970" d="M1681.8936,-525.3051C1698.1569,-495.8655 1747.3138,-406.8825 1771.2099,-363.626"/>
<polygon fill="#191970" stroke="#191970" points="1774.4012,-365.0874 1776.1731,-354.6418 1768.2739,-361.7025 1774.4012,-365.0874"/>
</g>
<!-- Node64 -->
<g id="node47" class="node">
<title>Node64</title>
<g id="a_node47"><a xlink:href="_b_c_ops_8_h.html" target="_top" xlink:title="amr&#45;wind/equation_systems\l/BCOps.H">
<polygon fill="#ffffff" stroke="#000000" points="1872.0379,-324.5 1872.0379,-354.5 2011.0379,-354.5 2011.0379,-324.5 1872.0379,-324.5"/>
<text text-anchor="start" x="1880.0379" y="-342.5" font-family="Helvetica,sans-Serif" font-size="10.00" fill="#000000">amr&#45;wind/equation_systems</text>
<text text-anchor="middle" x="1941.5379" y="-331.5" font-family="Helvetica,sans-Serif" font-size="10.00" fill="#000000">/BCOps.H</text>
</a>
</g>
</g>
<!-- Node0&#45;&gt;Node64 -->
<g id="edge122" class="edge">
<title>Node0&#45;&gt;Node64</title>
<path fill="none" stroke="#191970" d="M1689.6793,-525.3051C1730.5068,-495.1852 1855.8188,-402.738 1912.799,-360.7017"/>
<polygon fill="#191970" stroke="#191970" points="1915.0439,-363.3949 1921.0132,-354.6418 1910.8883,-357.7619 1915.0439,-363.3949"/>
</g>
<!-- Node2 -->
<g id="node3" class="node">
<title>Node2</title>
<g id="a_node3"><a xlink:href="_p_d_e_traits_8_h.html" target="_top" xlink:title="amr&#45;wind/equation_systems\l/PDETraits.H">
<polygon fill="#ffffff" stroke="#000000" points="1629.0379,-257.5 1629.0379,-287.5 1768.0379,-287.5 1768.0379,-257.5 1629.0379,-257.5"/>
<text text-anchor="start" x="1637.0379" y="-275.5" font-family="Helvetica,sans-Serif" font-size="10.00" fill="#000000">amr&#45;wind/equation_systems</text>
<text text-anchor="middle" x="1698.5379" y="-264.5" font-family="Helvetica,sans-Serif" font-size="10.00" fill="#000000">/PDETraits.H</text>
</a>
</g>
</g>
<!-- Node1&#45;&gt;Node2 -->
<g id="edge2" class="edge">
<title>Node1&#45;&gt;Node2</title>
<path fill="none" stroke="#191970" d="M1249.6026,-458.4535C1327.7681,-422.9125 1519.6399,-335.8509 1549.5379,-324 1579.6951,-312.0463 1613.867,-300.1219 1641.8715,-290.7622"/>
<polygon fill="#191970" stroke="#191970" points="1643.1164,-294.0367 1651.5031,-287.5626 1640.9096,-287.3937 1643.1164,-294.0367"/>
</g>
<!-- Node28 -->
<g id="node21" class="node">
<title>Node28</title>
<g id="a_node21"><a xlink:href="_scheme_traits_8_h.html" target="_top" xlink:title="amr&#45;wind/equation_systems\l/SchemeTraits.H">
<polygon fill="#ffffff" stroke="#000000" points="825.0379,-257.5 825.0379,-287.5 964.0379,-287.5 964.0379,-257.5 825.0379,-257.5"/>
<text text-anchor="start" x="833.0379" y="-275.5" font-family="Helvetica,sans-Serif" font-size="10.00" fill="#000000">amr&#45;wind/equation_systems</text>
<text text-anchor="middle" x="894.5379" y="-264.5" font-family="Helvetica,sans-Serif" font-size="10.00" fill="#000000">/SchemeTraits.H</text>
</a>
</g>
</g>
<!-- Node1&#45;&gt;Node28 -->
<g id="edge37" class="edge">
<title>Node1&#45;&gt;Node28</title>
<path fill="none" stroke="#191970" d="M1146.9576,-465.3592C1077.372,-453.4256 972.4626,-424.4516 913.5379,-355 900.0881,-339.1474 895.7006,-315.6271 894.4671,-297.7516"/>
<polygon fill="#191970" stroke="#191970" points="897.9628,-297.5739 894.0571,-287.7253 890.9687,-297.86 897.9628,-297.5739"/>
</g>
<!-- Node29 -->
<g id="node22" class="node">
<title>Node29</title>
<g id="a_node22"><a xlink:href="_p_d_e_helpers_8_h.html" target="_top" xlink:title="amr&#45;wind/equation_systems\l/PDEHelpers.H">
<polygon fill="#ffffff" stroke="#000000" points="787.0379,-190.5 787.0379,-220.5 926.0379,-220.5 926.0379,-190.5 787.0379,-190.5"/>
<text text-anchor="start" x="795.0379" y="-208.5" font-family="Helvetica,sans-Serif" font-size="10.00" fill="#000000">amr&#45;wind/equation_systems</text>
<text text-anchor="middle" x="856.5379" y="-197.5" font-family="Helvetica,sans-Serif" font-size="10.00" fill="#000000">/PDEHelpers.H</text>
</a>
</g>
</g>
<!-- Node1&#45;&gt;Node29 -->
<g id="edge39" class="edge">
<title>Node1&#45;&gt;Node29</title>
<path fill="none" stroke="#191970" d="M1205.3266,-458.4733C1175.4472,-419.456 1089.666,-314.0049 994.5379,-257 971.5957,-243.2521 944.3653,-232.1415 920.18,-223.808"/>
<polygon fill="#191970" stroke="#191970" points="920.9699,-220.3814 910.376,-220.522 918.7453,-227.0186 920.9699,-220.3814"/>
</g>
<!-- Node41 -->
<g id="node32" class="node">
<title>Node41</title>
<g id="a_node32"><a xlink:href="_p_d_e_8_h.html" target="_top" xlink:title="amr&#45;wind/equation_systems\l/PDE.H">
<polygon fill="#ffffff" stroke="#000000" points="727.0379,-391.5 727.0379,-421.5 866.0379,-421.5 866.0379,-391.5 727.0379,-391.5"/>
<text text-anchor="start" x="735.0379" y="-409.5" font-family="Helvetica,sans-Serif" font-size="10.00" fill="#000000">amr&#45;wind/equation_systems</text>
<text text-anchor="middle" x="796.5379" y="-398.5" font-family="Helvetica,sans-Serif" font-size="10.00" fill="#000000">/PDE.H</text>
</a>
</g>
</g>
<!-- Node1&#45;&gt;Node41 -->
<g id="edge63" class="edge">
<title>Node1&#45;&gt;Node41</title>
<path fill="none" stroke="#191970" d="M1146.9397,-463.4624C1078.9198,-453.5038 972.4793,-437.5251 880.5379,-422 879.0756,-421.7531 877.5994,-421.5018 876.1126,-421.2469"/>
<polygon fill="#191970" stroke="#191970" points="876.6329,-417.7849 866.1809,-419.5192 875.4331,-424.6813 876.6329,-417.7849"/>
</g>
<!-- Node58 -->
<g id="node41" class="node">
<title>Node58</title>
<g id="a_node41"><a xlink:href="_temperature_source_8_h.html" target="_top" xlink:title="amr&#45;wind/equation_systems\l/temperature/TemperatureSource.H">
<polygon fill="#ffffff" stroke="#000000" points="1623.5379,-190.5 1623.5379,-220.5 1793.5379,-220.5 1793.5379,-190.5 1623.5379,-190.5"/>
<text text-anchor="start" x="1631.5379" y="-208.5" font-family="Helvetica,sans-Serif" font-size="10.00" fill="#000000">amr&#45;wind/equation_systems</text>
<text text-anchor="middle" x="1708.5379" y="-197.5" font-family="Helvetica,sans-Serif" font-size="10.00" fill="#000000">/temperature/TemperatureSource.H</text>
</a>
</g>
</g>
<!-- Node1&#45;&gt;Node58 -->
<g id="edge98" class="edge">
<title>Node1&#45;&gt;Node58</title>
<path fill="none" stroke="#191970" d="M1231.2856,-458.218C1270.4246,-418.5846 1381.734,-311.7741 1495.5379,-257 1532.1988,-239.355 1575.401,-227.4649 1613.2814,-219.6007"/>
<polygon fill="#191970" stroke="#191970" points="1614.1861,-222.989 1623.3007,-217.5877 1612.8071,-216.1262 1614.1861,-222.989"/>
</g>
<!-- Node3 -->
<g id="node4" class="node">
<title>Node3</title>
<polygon fill="#ffffff" stroke="#bfbfbf" points="918.0379,-.5 918.0379,-19.5 959.0379,-19.5 959.0379,-.5 918.0379,-.5"/>
<text text-anchor="middle" x="938.5379" y="-7.5" font-family="Helvetica,sans-Serif" font-size="10.00" fill="#000000">string</text>
</g>
<!-- Node2&#45;&gt;Node3 -->
<g id="edge3" class="edge">
<title>Node2&#45;&gt;Node3</title>
<path fill="none" stroke="#191970" d="M1628.8216,-258.5097C1626.0254,-257.9918 1623.2559,-257.4866 1620.5379,-257 1502.4739,-235.8631 632.3849,-178.2454 554.5379,-87 545.5955,-76.5185 545.3074,-66.2286 554.5379,-56 606.9205,2.0469 827.8206,-35.0946 904.5379,-20 905.6245,-19.7862 906.7265,-19.553 907.8362,-19.3042"/>
<polygon fill="#191970" stroke="#191970" points="909.01,-22.6167 917.8299,-16.7465 907.2743,-15.8353 909.01,-22.6167"/>
</g>
<!-- Node4 -->
<g id="node5" class="node">
<title>Node4</title>
<polygon fill="#ffffff" stroke="#bfbfbf" points="2008.0379,-196 2008.0379,-215 2131.0379,-215 2131.0379,-196 2008.0379,-196"/>
<text text-anchor="middle" x="2069.5379" y="-203" font-family="Helvetica,sans-Serif" font-size="10.00" fill="#000000">AMReX_MLTensorOp.H</text>
</g>
<!-- Node2&#45;&gt;Node4 -->
<g id="edge4" class="edge">
<title>Node2&#45;&gt;Node4</title>
<path fill="none" stroke="#191970" d="M1768.1967,-259.5716C1773.0487,-258.694 1777.8655,-257.8296 1782.5379,-257 1876.2057,-240.3682 1900.0298,-238.5077 1993.5379,-221 2000.2076,-219.7512 2007.1963,-218.3935 2014.1199,-217.0181"/>
<polygon fill="#191970" stroke="#191970" points="2015.0565,-220.4 2024.1725,-215.001 2013.6793,-213.5368 2015.0565,-220.4"/>
</g>
<!-- Node5 -->
<g id="node6" class="node">
<title>Node5</title>
<g id="a_node6"><a xlink:href="_source_term_8_h.html" target="_top" xlink:title="amr&#45;wind/equation_systems\l/SourceTerm.H">
<polygon fill="#ffffff" stroke="#000000" points="1812.0379,-190.5 1812.0379,-220.5 1951.0379,-220.5 1951.0379,-190.5 1812.0379,-190.5"/>
<text text-anchor="start" x="1820.0379" y="-208.5" font-family="Helvetica,sans-Serif" font-size="10.00" fill="#000000">amr&#45;wind/equation_systems</text>
<text text-anchor="middle" x="1881.5379" y="-197.5" font-family="Helvetica,sans-Serif" font-size="10.00" fill="#000000">/SourceTerm.H</text>
</a>
</g>
</g>
<!-- Node2&#45;&gt;Node5 -->
<g id="edge5" class="edge">
<title>Node2&#45;&gt;Node5</title>
<path fill="none" stroke="#191970" d="M1739.6066,-257.4639C1766.5897,-247.5849 1802.0819,-234.5905 1830.8236,-224.0675"/>
<polygon fill="#191970" stroke="#191970" points="1832.1029,-227.3264 1840.29,-220.6017 1829.6962,-220.7531 1832.1029,-227.3264"/>
</g>
<!-- Node6 -->
<g id="node7" class="node">
<title>Node6</title>
<g id="a_node7"><a xlink:href="_factory_8_h.html" target="_top" xlink:title="amr&#45;wind/core/Factory.H">
<polygon fill="#ffffff" stroke="#ff0000" points="1162.0379,-62 1162.0379,-81 1287.0379,-81 1287.0379,-62 1162.0379,-62"/>
<text text-anchor="middle" x="1224.5379" y="-69" font-family="Helvetica,sans-Serif" font-size="10.00" fill="#000000">amr&#45;wind/core/Factory.H</text>
</a>
</g>
</g>
<!-- Node5&#45;&gt;Node6 -->
<g id="edge6" class="edge">
<title>Node5&#45;&gt;Node6</title>
<path fill="none" stroke="#191970" d="M1811.8016,-191.5212C1808.6743,-190.9878 1805.5754,-190.4777 1802.5379,-190 1668.5708,-168.93 1631.8829,-183.5955 1499.5379,-154 1457.0189,-144.4917 1448.1771,-135.8237 1406.5379,-123 1360.353,-108.7764 1307.1234,-93.887 1270.2109,-83.7978"/>
<polygon fill="#191970" stroke="#191970" points="1270.8202,-80.3363 1260.2518,-81.0839 1268.9798,-87.09 1270.8202,-80.3363"/>
</g>
<!-- Node12 -->
<g id="node9" class="node">
<title>Node12</title>
<g id="a_node9"><a xlink:href="_field_desc_types_8_h.html" target="_top" xlink:title="amr&#45;wind/core/FieldDescTypes.H">
<polygon fill="#ffffff" stroke="#000000" points="1793.0379,-.5 1793.0379,-19.5 1956.0379,-19.5 1956.0379,-.5 1793.0379,-.5"/>
<text text-anchor="middle" x="1874.5379" y="-7.5" font-family="Helvetica,sans-Serif" font-size="10.00" fill="#000000">amr&#45;wind/core/FieldDescTypes.H</text>
</a>
</g>
</g>
<!-- Node5&#45;&gt;Node12 -->
<g id="edge8" class="edge">
<title>Node5&#45;&gt;Node12</title>
<path fill="none" stroke="#191970" d="M1951.1064,-195.229C2019.3126,-184.6479 2118.182,-167.8 2154.5379,-154 2216.376,-130.5275 2310.4983,-105.4206 2266.5379,-56 2256.6326,-44.8644 2079.101,-27.6157 1966.3841,-17.708"/>
<polygon fill="#191970" stroke="#191970" points="1966.6288,-14.2161 1956.3619,-16.8314 1966.0188,-21.1895 1966.6288,-14.2161"/>
</g>
<!-- Node13 -->
<g id="node10" class="node">
<title>Node13</title>
<g id="a_node10"><a xlink:href="_field_utils_8_h.html" target="_top" xlink:title="amr&#45;wind/core/FieldUtils.H">
<polygon fill="#ffffff" stroke="#ff0000" points="2124.0379,-62 2124.0379,-81 2257.0379,-81 2257.0379,-62 2124.0379,-62"/>
<text text-anchor="middle" x="2190.5379" y="-69" font-family="Helvetica,sans-Serif" font-size="10.00" fill="#000000">amr&#45;wind/core/FieldUtils.H</text>
</a>
</g>
</g>
<!-- Node5&#45;&gt;Node13 -->
<g id="edge9" class="edge">
<title>Node5&#45;&gt;Node13</title>
<path fill="none" stroke="#191970" d="M1951.1668,-191.9366C2020.2926,-178.289 2117.0469,-158.6181 2124.5379,-154 2149.9333,-138.3442 2169.7008,-109.2798 2180.7405,-90.1647"/>
<polygon fill="#191970" stroke="#191970" points="2183.9222,-91.6437 2185.7016,-81.1993 2177.7974,-88.2544 2183.9222,-91.6437"/>
</g>
<!-- Node14 -->
<g id="node11" class="node">
<title>Node14</title>
<polygon fill="#ffffff" stroke="#bfbfbf" points="2043.5379,-.5 2043.5379,-19.5 2147.5379,-19.5 2147.5379,-.5 2043.5379,-.5"/>
<text text-anchor="middle" x="2095.5379" y="-7.5" font-family="Helvetica,sans-Serif" font-size="10.00" fill="#000000">AMReX_MultiFab.H</text>
</g>
<!-- Node5&#45;&gt;Node14 -->
<g id="edge36" class="edge">
<title>Node5&#45;&gt;Node14</title>
<path fill="none" stroke="#191970" d="M1951.054,-195.5044C2043.3085,-182.0952 2195.9826,-159.344 2207.5379,-154 2249.0168,-134.817 2266.4637,-128.5291 2285.5379,-87 2291.2884,-74.4797 2294.0572,-66.8281 2285.5379,-56 2269.733,-35.9121 2206.7521,-23.5382 2157.5805,-16.7549"/>
<polygon fill="#191970" stroke="#191970" points="2158.0085,-13.2811 2147.6342,-15.4319 2157.0854,-20.22 2158.0085,-13.2811"/>
</g>
<!-- Node16 -->
<g id="node12" class="node">
<title>Node16</title>
<g id="a_node12"><a xlink:href="_field_repo_8_h.html" target="_top" xlink:title="amr&#45;wind/core/FieldRepo.H">
<polygon fill="#ffffff" stroke="#000000" points="1508.5379,-129 1508.5379,-148 1644.5379,-148 1644.5379,-129 1508.5379,-129"/>
<text text-anchor="middle" x="1576.5379" y="-136" font-family="Helvetica,sans-Serif" font-size="10.00" fill="#000000">amr&#45;wind/core/FieldRepo.H</text>
</a>
</g>
</g>
<!-- Node5&#45;&gt;Node16 -->
<g id="edge12" class="edge">
<title>Node5&#45;&gt;Node16</title>
<path fill="none" stroke="#191970" d="M1813.0899,-190.4639C1757.6008,-178.2745 1680.5207,-161.3421 1629.6242,-150.1616"/>
<polygon fill="#191970" stroke="#191970" points="1630.3263,-146.7324 1619.8082,-148.0053 1628.8244,-153.5694 1630.3263,-146.7324"/>
</g>
<!-- Node8 -->
<g id="node8" class="node">
<title>Node8</title>
<polygon fill="#ffffff" stroke="#bfbfbf" points="1183.0379,-.5 1183.0379,-19.5 1266.0379,-19.5 1266.0379,-.5 1183.0379,-.5"/>
<text text-anchor="middle" x="1224.5379" y="-7.5" font-family="Helvetica,sans-Serif" font-size="10.00" fill="#000000">unordered_map</text>
</g>
<!-- Node6&#45;&gt;Node8 -->
<g id="edge7" class="edge">
<title>Node6&#45;&gt;Node8</title>
<path fill="none" stroke="#191970" d="M1224.5379,-61.8906C1224.5379,-53.3657 1224.5379,-40.6392 1224.5379,-29.9235"/>
<polygon fill="#191970" stroke="#191970" points="1228.038,-29.7448 1224.5379,-19.7449 1221.038,-29.7449 1228.038,-29.7448"/>
</g>
<!-- Node13&#45;&gt;Node12 -->
<g id="edge10" class="edge">
<title>Node13&#45;&gt;Node12</title>
<path fill="none" stroke="#191970" d="M2141.5096,-61.9581C2085.382,-51.0345 1993.4832,-33.1492 1933.4982,-21.4749"/>
<polygon fill="#191970" stroke="#191970" points="1933.9057,-17.9886 1923.4212,-19.5137 1932.5684,-24.8597 1933.9057,-17.9886"/>
</g>
<!-- Node13&#45;&gt;Node14 -->
<g id="edge11" class="edge">
<title>Node13&#45;&gt;Node14</title>
<path fill="none" stroke="#191970" d="M2175.6941,-61.8906C2160.496,-52.0519 2136.653,-36.6167 2118.9172,-25.1351"/>
<polygon fill="#191970" stroke="#191970" points="2120.574,-22.0382 2110.2774,-19.5419 2116.7699,-27.9144 2120.574,-22.0382"/>
</g>
<!-- Node16&#45;&gt;Node3 -->
<g id="edge13" class="edge">
<title>Node16&#45;&gt;Node3</title>
<path fill="none" stroke="#191970" d="M1528.1654,-128.9518C1485.3865,-119.9495 1421.5605,-105.1476 1367.5379,-87 1334.5115,-75.9056 1329.1401,-65.2041 1295.5379,-56 1177.8427,-23.7616 1031.9796,-13.9404 969.4028,-11.0951"/>
<polygon fill="#191970" stroke="#191970" points="969.1959,-7.5832 959.0561,-10.6546 968.8982,-14.5768 969.1959,-7.5832"/>
</g>
<!-- Node16&#45;&gt;Node8 -->
<g id="edge14" class="edge">
<title>Node16&#45;&gt;Node8</title>
<path fill="none" stroke="#191970" d="M1532.4123,-128.9522C1498.0769,-120.5551 1449.8247,-106.5984 1410.5379,-87 1389.4557,-76.4831 1388.565,-66.6264 1367.5379,-56 1338.4122,-41.2809 1303.5934,-29.9606 1275.606,-22.2332"/>
<polygon fill="#191970" stroke="#191970" points="1276.193,-18.7668 1265.6271,-19.5492 1274.3748,-25.5266 1276.193,-18.7668"/>
</g>
<!-- Node16&#45;&gt;Node12 -->
<g id="edge15" class="edge">
<title>Node16&#45;&gt;Node12</title>
<path fill="none" stroke="#191970" d="M1626.2187,-128.9338C1637.4854,-126.8755 1649.4096,-124.7845 1660.5379,-123 1719.0006,-113.6253 1885.6014,-131.6064 1924.5379,-87 1941.4887,-67.5808 1917.0703,-41.9686 1896.7852,-25.7372"/>
<polygon fill="#191970" stroke="#191970" points="1898.8265,-22.8922 1888.7551,-19.6032 1894.5772,-28.455 1898.8265,-22.8922"/>
</g>
<!-- Node16&#45;&gt;Node13 -->
<g id="edge16" class="edge">
<title>Node16&#45;&gt;Node13</title>
<path fill="none" stroke="#191970" d="M1623.4956,-128.9576C1635.5313,-126.7535 1648.4822,-124.5913 1660.5379,-123 1859.0122,-96.8018 1911.1511,-113.8531 2109.5379,-87 2117.9001,-85.8681 2126.7052,-84.4359 2135.306,-82.9015"/>
<polygon fill="#191970" stroke="#191970" points="2136.07,-86.3197 2145.2701,-81.0653 2134.8014,-79.4357 2136.07,-86.3197"/>
</g>
<!-- Node16&#45;&gt;Node14 -->
<g id="edge34" class="edge">
<title>Node16&#45;&gt;Node14</title>
<path fill="none" stroke="#191970" d="M1624.8514,-128.9409C1636.5079,-126.813 1648.9451,-124.69 1660.5379,-123 1808.7177,-101.3981 1856.5638,-142.7685 1995.5379,-87 2029.1943,-73.4941 2061.1301,-45.2672 2079.5024,-26.9991"/>
<polygon fill="#191970" stroke="#191970" points="2082.2306,-29.2157 2086.7292,-19.6234 2077.2306,-24.3167 2082.2306,-29.2157"/>
</g>
<!-- Node17 -->
<g id="node13" class="node">
<title>Node17</title>
<g id="a_node13"><a xlink:href="_field_8_h.html" target="_top" xlink:title="amr&#45;wind/core/Field.H">
<polygon fill="#ffffff" stroke="#ff0000" points="1600.0379,-62 1600.0379,-81 1713.0379,-81 1713.0379,-62 1600.0379,-62"/>
<text text-anchor="middle" x="1656.5379" y="-69" font-family="Helvetica,sans-Serif" font-size="10.00" fill="#000000">amr&#45;wind/core/Field.H</text>
</a>
</g>
</g>
<!-- Node16&#45;&gt;Node17 -->
<g id="edge17" class="edge">
<title>Node16&#45;&gt;Node17</title>
<path fill="none" stroke="#191970" d="M1587.9999,-128.9005C1600.8317,-118.1539 1621.839,-100.5603 1637.2191,-87.6794"/>
<polygon fill="#191970" stroke="#191970" points="1639.6778,-90.1856 1645.0971,-81.0817 1635.1833,-84.8191 1639.6778,-90.1856"/>
</g>
<!-- Node23 -->
<g id="node16" class="node">
<title>Node23</title>
<g id="a_node16"><a xlink:href="_int_field_8_h.html" target="_top" xlink:title="amr&#45;wind/core/IntField.H">
<polygon fill="#ffffff" stroke="#000000" points="1419.5379,-62 1419.5379,-81 1543.5379,-81 1543.5379,-62 1419.5379,-62"/>
<text text-anchor="middle" x="1481.5379" y="-69" font-family="Helvetica,sans-Serif" font-size="10.00" fill="#000000">amr&#45;wind/core/IntField.H</text>
</a>
</g>
</g>
<!-- Node16&#45;&gt;Node23 -->
<g id="edge24" class="edge">
<title>Node16&#45;&gt;Node23</title>
<path fill="none" stroke="#191970" d="M1562.9267,-128.9005C1547.4068,-117.9549 1521.8156,-99.9064 1503.4712,-86.9688"/>
<polygon fill="#191970" stroke="#191970" points="1505.3131,-83.9849 1495.1238,-81.0817 1501.2787,-89.7054 1505.3131,-83.9849"/>
</g>
<!-- Node24 -->
<g id="node17" class="node">
<title>Node24</title>
<polygon fill="#ffffff" stroke="#bfbfbf" points="1473.0379,-.5 1473.0379,-19.5 1580.0379,-19.5 1580.0379,-.5 1473.0379,-.5"/>
<text text-anchor="middle" x="1526.5379" y="-7.5" font-family="Helvetica,sans-Serif" font-size="10.00" fill="#000000">AMReX_iMultiFab.H</text>
</g>
<!-- Node16&#45;&gt;Node24 -->
<g id="edge35" class="edge">
<title>Node16&#45;&gt;Node24</title>
<path fill="none" stroke="#191970" d="M1574.4394,-128.5954C1570.931,-112.847 1563.1951,-81.2931 1552.5379,-56 1548.544,-46.5213 1543.061,-36.5213 1538.1595,-28.2751"/>
<polygon fill="#191970" stroke="#191970" points="1541.0103,-26.2289 1532.7966,-19.5366 1535.0442,-29.8903 1541.0103,-26.2289"/>
</g>
<!-- Node25 -->
<g id="node18" class="node">
<title>Node25</title>
<g id="a_node18"><a xlink:href="_scratch_field_8_h.html" target="_top" xlink:title="amr&#45;wind/core/ScratchField.H">
<polygon fill="#ffffff" stroke="#ff0000" points="1769.5379,-62 1769.5379,-81 1915.5379,-81 1915.5379,-62 1769.5379,-62"/>
<text text-anchor="middle" x="1842.5379" y="-69" font-family="Helvetica,sans-Serif" font-size="10.00" fill="#000000">amr&#45;wind/core/ScratchField.H</text>
</a>
</g>
</g>
<!-- Node16&#45;&gt;Node25 -->
<g id="edge28" class="edge">
<title>Node16&#45;&gt;Node25</title>
<path fill="none" stroke="#191970" d="M1614.3667,-128.9717C1661.6997,-117.0495 1742.8045,-96.6208 1794.484,-83.6038"/>
<polygon fill="#191970" stroke="#191970" points="1795.5667,-86.9405 1804.4089,-81.1039 1793.8569,-80.1525 1795.5667,-86.9405"/>
</g>
<!-- Node27 -->
<g id="node20" class="node">
<title>Node27</title>
<polygon fill="#ffffff" stroke="#bfbfbf" points="563.5379,-62 563.5379,-81 669.5379,-81 669.5379,-62 563.5379,-62"/>
<text text-anchor="middle" x="616.5379" y="-69" font-family="Helvetica,sans-Serif" font-size="10.00" fill="#000000">AMReX_AmrCore.H</text>
</g>
<!-- Node16&#45;&gt;Node27 -->
<g id="edge33" class="edge">
<title>Node16&#45;&gt;Node27</title>
<path fill="none" stroke="#191970" d="M1508.4165,-134.7907C1318.9043,-124.4193 794.291,-95.3353 716.5379,-87 704.5966,-85.7199 691.9023,-84.0182 679.7084,-82.2114"/>
<polygon fill="#191970" stroke="#191970" points="680.0234,-78.7191 669.6109,-80.6758 678.971,-85.6395 680.0234,-78.7191"/>
</g>
<!-- Node17&#45;&gt;Node3 -->
<g id="edge18" class="edge">
<title>Node17&#45;&gt;Node3</title>
<path fill="none" stroke="#191970" d="M1599.9617,-62.2999C1584.6043,-60.0125 1567.9585,-57.7244 1552.5379,-56 1329.4843,-31.0566 1059.2867,-16.0855 969.3231,-11.5077"/>
<polygon fill="#191970" stroke="#191970" points="969.4241,-8.0085 959.2607,-11.001 969.072,-14.9996 969.4241,-8.0085"/>
</g>
<!-- Node17&#45;&gt;Node8 -->
<g id="edge19" class="edge">
<title>Node17&#45;&gt;Node8</title>
<path fill="none" stroke="#191970" d="M1599.8764,-62.9648C1584.5192,-60.6762 1567.8948,-58.2212 1552.5379,-56 1454.8975,-41.8774 1340.8071,-26.023 1276.1732,-17.1015"/>
<polygon fill="#191970" stroke="#191970" points="1276.6191,-13.63 1266.2346,-15.7305 1275.6625,-20.5643 1276.6191,-13.63"/>
</g>
<!-- Node17&#45;&gt;Node12 -->
<g id="edge23" class="edge">
<title>Node17&#45;&gt;Node12</title>
<path fill="none" stroke="#191970" d="M1690.6004,-61.8906C1728.4356,-51.2169 1789.6185,-33.9566 1830.9264,-22.3033"/>
<polygon fill="#191970" stroke="#191970" points="1832.0405,-25.6256 1840.7146,-19.5419 1830.1399,-18.8886 1832.0405,-25.6256"/>
</g>
<!-- Node17&#45;&gt;Node14 -->
<g id="edge20" class="edge">
<title>Node17&#45;&gt;Node14</title>
<path fill="none" stroke="#191970" d="M1713.1951,-62.9353C1728.5523,-60.6467 1745.1778,-58.1991 1760.5379,-56 1855.6115,-42.3882 1965.9849,-27.3874 2033.2739,-18.332"/>
<polygon fill="#191970" stroke="#191970" points="2033.8439,-21.787 2043.2882,-16.9855 2032.911,-14.8494 2033.8439,-21.787"/>
</g>
<!-- Node19 -->
<g id="node14" class="node">
<title>Node19</title>
<polygon fill="#ffffff" stroke="#bfbfbf" points="2338.0379,-.5 2338.0379,-19.5 2423.0379,-19.5 2423.0379,-.5 2338.0379,-.5"/>
<text text-anchor="middle" x="2380.5379" y="-7.5" font-family="Helvetica,sans-Serif" font-size="10.00" fill="#000000">AMReX_Gpu.H</text>
</g>
<!-- Node17&#45;&gt;Node19 -->
<g id="edge21" class="edge">
<title>Node17&#45;&gt;Node19</title>
<path fill="none" stroke="#191970" d="M1713.1132,-62.2924C1728.4706,-60.0051 1745.1166,-57.7189 1760.5379,-56 1969.9816,-32.655 2220.5949,-18.162 2327.7465,-12.598"/>
<polygon fill="#191970" stroke="#191970" points="2328.1599,-16.0815 2337.9667,-12.0719 2327.8,-9.0907 2328.1599,-16.0815"/>
</g>
<!-- Node20 -->
<g id="node15" class="node">
<title>Node20</title>
<g id="a_node15"><a xlink:href="incflo__enums_8_h.html" target="_top" xlink:title="amr&#45;wind/incflo_enums.H">
<polygon fill="#ffffff" stroke="#000000" points="767.5379,-.5 767.5379,-19.5 895.5379,-19.5 895.5379,-.5 767.5379,-.5"/>
<text text-anchor="middle" x="831.5379" y="-7.5" font-family="Helvetica,sans-Serif" font-size="10.00" fill="#000000">amr&#45;wind/incflo_enums.H</text>
</a>
</g>
</g>
<!-- Node17&#45;&gt;Node20 -->
<g id="edge22" class="edge">
<title>Node17&#45;&gt;Node20</title>
<path fill="none" stroke="#191970" d="M1599.9826,-62.1043C1584.6252,-59.8174 1567.9741,-57.5784 1552.5379,-56 1267.3557,-26.8401 1193.9816,-46.4776 908.5379,-20 907.6276,-19.9156 906.7116,-19.8286 905.7907,-19.7393"/>
<polygon fill="#191970" stroke="#191970" points="906.0889,-16.2515 895.7811,-18.7011 905.3667,-23.2142 906.0889,-16.2515"/>
</g>
<!-- Node23&#45;&gt;Node3 -->
<g id="edge25" class="edge">
<title>Node23&#45;&gt;Node3</title>
<path fill="none" stroke="#191970" d="M1419.4551,-62.7342C1402.6212,-60.446 1384.3915,-58.0489 1367.5379,-56 1218.3021,-37.8573 1039.3905,-19.8891 969.0556,-12.9726"/>
<polygon fill="#191970" stroke="#191970" points="969.3948,-9.4891 959.1009,-11.9963 968.7115,-16.4557 969.3948,-9.4891"/>
</g>
<!-- Node23&#45;&gt;Node12 -->
<g id="edge26" class="edge">
<title>Node23&#45;&gt;Node12</title>
<path fill="none" stroke="#191970" d="M1542.5129,-61.9581C1613.0382,-50.9217 1728.9752,-32.7789 1803.5098,-21.1151"/>
<polygon fill="#191970" stroke="#191970" points="1804.4045,-24.5177 1813.7431,-19.5137 1803.3222,-17.6019 1804.4045,-24.5177"/>
</g>
<!-- Node23&#45;&gt;Node24 -->
<g id="edge27" class="edge">
<title>Node23&#45;&gt;Node24</title>
<path fill="none" stroke="#191970" d="M1488.5691,-61.8906C1495.2008,-52.8273 1505.3075,-39.0149 1513.4266,-27.9188"/>
<polygon fill="#191970" stroke="#191970" points="1516.327,-29.882 1519.4075,-19.7449 1510.6777,-25.7484 1516.327,-29.882"/>
</g>
<!-- Node25&#45;&gt;Node3 -->
<g id="edge29" class="edge">
<title>Node25&#45;&gt;Node3</title>
<path fill="none" stroke="#191970" d="M1775.3551,-61.9817C1758.1631,-59.7772 1739.6878,-57.6087 1722.5379,-56 1572.1664,-41.8945 1094.9045,-17.7525 969.1519,-11.5091"/>
<polygon fill="#191970" stroke="#191970" points="969.23,-8.0088 959.069,-11.0095 968.8835,-15.0002 969.23,-8.0088"/>
</g>
<!-- Node25&#45;&gt;Node12 -->
<g id="edge30" class="edge">
<title>Node25&#45;&gt;Node12</title>
<path fill="none" stroke="#191970" d="M1847.5379,-61.8906C1852.1137,-53.0965 1859.0159,-39.8312 1864.6962,-28.9145"/>
<polygon fill="#191970" stroke="#191970" points="1867.9564,-30.2314 1869.4674,-19.7449 1861.7467,-27.0003 1867.9564,-30.2314"/>
</g>
<!-- Node25&#45;&gt;Node14 -->
<g id="edge31" class="edge">
<title>Node25&#45;&gt;Node14</title>
<path fill="none" stroke="#191970" d="M1881.7915,-61.9581C1926.1072,-51.1857 1998.2755,-33.6428 2046.3239,-21.9631"/>
<polygon fill="#191970" stroke="#191970" points="2047.3018,-25.3274 2056.1921,-19.5643 2045.6483,-18.5254 2047.3018,-25.3274"/>
</g>
<!-- Node26 -->
<g id="node19" class="node">
<title>Node26</title>
<polygon fill="#ffffff" stroke="#bfbfbf" points="1646.5379,-.5 1646.5379,-19.5 1774.5379,-19.5 1774.5379,-.5 1646.5379,-.5"/>
<text text-anchor="middle" x="1710.5379" y="-7.5" font-family="Helvetica,sans-Serif" font-size="10.00" fill="#000000">AMReX_PhysBCFunct.H</text>
</g>
<!-- Node25&#45;&gt;Node26 -->
<g id="edge32" class="edge">
<title>Node25&#45;&gt;Node26</title>
<path fill="none" stroke="#191970" d="M1821.9129,-61.8906C1800.0206,-51.6908 1765.2186,-35.4763 1740.3451,-23.8875"/>
<polygon fill="#191970" stroke="#191970" points="1741.5607,-20.5926 1731.018,-19.5419 1738.6044,-26.9377 1741.5607,-20.5926"/>
</g>
<!-- Node28&#45;&gt;Node3 -->
<g id="edge38" class="edge">
<title>Node28&#45;&gt;Node3</title>
<path fill="none" stroke="#191970" d="M824.9514,-263.4259C759.709,-254.0699 667.551,-238.423 635.5379,-221 554.9647,-177.1483 449.7019,-123.7593 511.5379,-56 541.0961,-23.6104 861.4668,-28.2254 904.5379,-20 905.6257,-19.7923 906.7287,-19.5643 907.8392,-19.32"/>
<polygon fill="#191970" stroke="#191970" points="909.0047,-22.6353 917.8372,-16.784 907.2836,-15.8501 909.0047,-22.6353"/>
</g>
<!-- Node29&#45;&gt;Node3 -->
<g id="edge40" class="edge">
<title>Node29&#45;&gt;Node3</title>
<path fill="none" stroke="#191970" d="M786.8864,-190.7424C698.2179,-170.3794 552.7441,-131.1397 521.5379,-87 513.5842,-75.7499 512.2626,-66.188 521.5379,-56 579.0879,7.2131 820.5882,-36.1352 904.5379,-20 905.6255,-19.791 906.7282,-19.5619 907.8386,-19.3166"/>
<polygon fill="#191970" stroke="#191970" points="909.0058,-22.6313 917.8357,-16.776 907.2816,-15.847 909.0058,-22.6313"/>
</g>
<!-- Node29&#45;&gt;Node16 -->
<g id="edge47" class="edge">
<title>Node29&#45;&gt;Node16</title>
<path fill="none" stroke="#191970" d="M926.2287,-199.0149C1061.0217,-186.4716 1356.5972,-158.9667 1498.0635,-145.8025"/>
<polygon fill="#191970" stroke="#191970" points="1498.757,-149.2532 1508.3897,-144.8416 1498.1083,-142.2833 1498.757,-149.2532"/>
</g>
<!-- Node30 -->
<g id="node23" class="node">
<title>Node30</title>
<g id="a_node23"><a xlink:href="_p_d_e_fields_8_h.html" target="_top" xlink:title="amr&#45;wind/equation_systems\l/PDEFields.H">
<polygon fill="#ffffff" stroke="#000000" points="67.0379,-56.5 67.0379,-86.5 206.0379,-86.5 206.0379,-56.5 67.0379,-56.5"/>
<text text-anchor="start" x="75.0379" y="-74.5" font-family="Helvetica,sans-Serif" font-size="10.00" fill="#000000">amr&#45;wind/equation_systems</text>
<text text-anchor="middle" x="136.5379" y="-63.5" font-family="Helvetica,sans-Serif" font-size="10.00" fill="#000000">/PDEFields.H</text>
</a>
</g>
</g>
<!-- Node29&#45;&gt;Node30 -->
<g id="edge41" class="edge">
<title>Node29&#45;&gt;Node30</title>
<path fill="none" stroke="#191970" d="M786.8531,-193.4277C778.3408,-192.1608 769.7516,-190.9801 761.5379,-190 551.7528,-164.9664 490.1143,-213.9935 287.5379,-154 242.1116,-140.5469 195.017,-112.0998 165.7553,-92.3996"/>
<polygon fill="#191970" stroke="#191970" points="167.4977,-89.351 157.2681,-86.5929 163.545,-95.1282 167.4977,-89.351"/>
</g>
<!-- Node32 -->
<g id="node25" class="node">
<title>Node32</title>
<g id="a_node25"><a xlink:href="_sim_time_8_h.html" target="_top" xlink:title="amr&#45;wind/core/SimTime.H">
<polygon fill="#ffffff" stroke="#000000" points="224.0379,-62 224.0379,-81 355.0379,-81 355.0379,-62 224.0379,-62"/>
<text text-anchor="middle" x="289.5379" y="-69" font-family="Helvetica,sans-Serif" font-size="10.00" fill="#000000">amr&#45;wind/core/SimTime.H</text>
</a>
</g>
</g>
<!-- Node29&#45;&gt;Node32 -->
<g id="edge43" class="edge">
<title>Node29&#45;&gt;Node32</title>
<path fill="none" stroke="#191970" d="M786.8498,-193.4557C778.338,-192.1839 769.7499,-190.9945 761.5379,-190 711.4121,-183.9295 346.7674,-186.984 308.5379,-154 290.7699,-138.67 287.7745,-110.3709 288.0363,-91.2432"/>
<polygon fill="#191970" stroke="#191970" points="291.5347,-91.3531 288.4797,-81.2083 284.5416,-91.044 291.5347,-91.3531"/>
</g>
<!-- Node36 -->
<g id="node29" class="node">
<title>Node36</title>
<g id="a_node29"><a xlink:href="_field_fill_patch_ops_8_h.html" target="_top" xlink:title="amr&#45;wind/core/FieldFillPatch\lOps.H">
<polygon fill="#ffffff" stroke="#000000" points="1020.5379,-123.5 1020.5379,-153.5 1160.5379,-153.5 1160.5379,-123.5 1020.5379,-123.5"/>
<text text-anchor="start" x="1028.5379" y="-141.5" font-family="Helvetica,sans-Serif" font-size="10.00" fill="#000000">amr&#45;wind/core/FieldFillPatch</text>
<text text-anchor="middle" x="1090.5379" y="-130.5" font-family="Helvetica,sans-Serif" font-size="10.00" fill="#000000">Ops.H</text>
</a>
</g>
</g>
<!-- Node29&#45;&gt;Node36 -->
<g id="edge48" class="edge">
<title>Node29&#45;&gt;Node36</title>
<path fill="none" stroke="#191970" d="M909.052,-190.4639C944.305,-180.3701 990.9167,-167.024 1028.0745,-156.3848"/>
<polygon fill="#191970" stroke="#191970" points="1029.1444,-159.7192 1037.7947,-153.6017 1027.2175,-152.9896 1029.1444,-159.7192"/>
</g>
<!-- Node38 -->
<g id="node31" class="node">
<title>Node38</title>
<g id="a_node31"><a xlink:href="_field_b_c_ops_8_h.html" target="_top" xlink:title="amr&#45;wind/core/FieldBCOps.H">
<polygon fill="#ffffff" stroke="#ff0000" points="1669.0379,-129 1669.0379,-148 1814.0379,-148 1814.0379,-129 1669.0379,-129"/>
<text text-anchor="middle" x="1741.5379" y="-136" font-family="Helvetica,sans-Serif" font-size="10.00" fill="#000000">amr&#45;wind/core/FieldBCOps.H</text>
</a>
</g>
</g>
<!-- Node29&#45;&gt;Node38 -->
<g id="edge58" class="edge">
<title>Node29&#45;&gt;Node38</title>
<path fill="none" stroke="#191970" d="M926.0682,-203.5751C1064.8215,-199.1676 1385.772,-186.1343 1653.5379,-154 1663.026,-152.8613 1673.0434,-151.3732 1682.7858,-149.7696"/>
<polygon fill="#191970" stroke="#191970" points="1683.5332,-153.1929 1692.8053,-148.0666 1682.3602,-146.2919 1683.5332,-153.1929"/>
</g>
<!-- Node31 -->
<g id="node24" class="node">
<title>Node31</title>
<polygon fill="#ffffff" stroke="#bfbfbf" points="114.0379,-.5 114.0379,-19.5 159.0379,-19.5 159.0379,-.5 114.0379,-.5"/>
<text text-anchor="middle" x="136.5379" y="-7.5" font-family="Helvetica,sans-Serif" font-size="10.00" fill="#000000">iosfwd</text>
</g>
<!-- Node30&#45;&gt;Node31 -->
<g id="edge42" class="edge">
<title>Node30&#45;&gt;Node31</title>
<path fill="none" stroke="#191970" d="M136.5379,-56.2977C136.5379,-48.3834 136.5379,-38.6043 136.5379,-30.0759"/>
<polygon fill="#191970" stroke="#191970" points="140.038,-29.8469 136.5379,-19.8469 133.038,-29.847 140.038,-29.8469"/>
</g>
<!-- Node33 -->
<g id="node26" class="node">
<title>Node33</title>
<polygon fill="#ffffff" stroke="#bfbfbf" points="565.0379,-.5 565.0379,-19.5 658.0379,-19.5 658.0379,-.5 565.0379,-.5"/>
<text text-anchor="middle" x="611.5379" y="-7.5" font-family="Helvetica,sans-Serif" font-size="10.00" fill="#000000">AMReX_REAL.H</text>
</g>
<!-- Node32&#45;&gt;Node33 -->
<g id="edge44" class="edge">
<title>Node32&#45;&gt;Node33</title>
<path fill="none" stroke="#191970" d="M338.6097,-61.9639C348.8298,-59.9858 359.5345,-57.9198 369.5379,-56 432.8631,-43.8469 505.5408,-30.0528 554.588,-20.7664"/>
<polygon fill="#191970" stroke="#191970" points="555.509,-24.1542 564.6836,-18.8554 554.2071,-17.2764 555.509,-24.1542"/>
</g>
<!-- Node34 -->
<g id="node27" class="node">
<title>Node34</title>
<polygon fill="#ffffff" stroke="#bfbfbf" points="333.5379,-.5 333.5379,-19.5 459.5379,-19.5 459.5379,-.5 333.5379,-.5"/>
<text text-anchor="middle" x="396.5379" y="-7.5" font-family="Helvetica,sans-Serif" font-size="10.00" fill="#000000">AMReX_GpuQualifiers.H</text>
</g>
<!-- Node32&#45;&gt;Node34 -->
<g id="edge45" class="edge">
<title>Node32&#45;&gt;Node34</title>
<path fill="none" stroke="#191970" d="M306.2566,-61.8906C323.61,-51.9165 350.9702,-36.1908 371.0261,-24.6633"/>
<polygon fill="#191970" stroke="#191970" points="373.0107,-27.5596 379.9365,-19.5419 369.5224,-21.4907 373.0107,-27.5596"/>
</g>
<!-- Node35 -->
<g id="node28" class="node">
<title>Node35</title>
<polygon fill="#ffffff" stroke="#bfbfbf" points="205.5379,-.5 205.5379,-19.5 315.5379,-19.5 315.5379,-.5 205.5379,-.5"/>
<text text-anchor="middle" x="260.5379" y="-7.5" font-family="Helvetica,sans-Serif" font-size="10.00" fill="#000000">AMReX_Extension.H</text>
</g>
<!-- Node32&#45;&gt;Node35 -->
<g id="edge46" class="edge">
<title>Node32&#45;&gt;Node35</title>
<path fill="none" stroke="#191970" d="M285.0066,-61.8906C280.8598,-53.0965 274.6046,-39.8312 269.4569,-28.9145"/>
<polygon fill="#191970" stroke="#191970" points="272.5638,-27.2969 265.133,-19.7449 266.2324,-30.2825 272.5638,-27.2969"/>
</g>
<!-- Node36&#45;&gt;Node12 -->
<g id="edge51" class="edge">
<title>Node36&#45;&gt;Node12</title>
<path fill="none" stroke="#191970" d="M1099.7037,-123.377C1113.1691,-101.7264 1138.2439,-63.6547 1152.5379,-56 1212.208,-24.0454 1678.058,-25.6686 1782.5209,-19.8817"/>
<polygon fill="#191970" stroke="#191970" points="1782.9621,-23.36 1792.705,-19.1975 1782.4928,-16.3758 1782.9621,-23.36"/>
</g>
<!-- Node36&#45;&gt;Node13 -->
<g id="edge52" class="edge">
<title>Node36&#45;&gt;Node13</title>
<path fill="none" stroke="#191970" d="M1160.6625,-124.1741C1163.6555,-123.7422 1166.6234,-123.3474 1169.5379,-123 1534.4141,-79.5036 1628.7716,-109.5619 1995.5379,-87 2034.4107,-84.6087 2077.5876,-81.2494 2113.4116,-78.2692"/>
<polygon fill="#191970" stroke="#191970" points="2114.1216,-81.7221 2123.7943,-77.3991 2113.5369,-74.7465 2114.1216,-81.7221"/>
</g>
<!-- Node36&#45;&gt;Node14 -->
<g id="edge54" class="edge">
<title>Node36&#45;&gt;Node14</title>
<path fill="none" stroke="#191970" d="M1160.6643,-124.1892C1163.6568,-123.7531 1166.6241,-123.3534 1169.5379,-123 1503.0308,-82.5529 1597.8636,-165.3419 1924.5379,-87 1931.8874,-85.2375 2018.5586,-45.5127 2065.6019,-23.8298"/>
<polygon fill="#191970" stroke="#191970" points="2067.1068,-26.9901 2074.7216,-19.6236 2064.1751,-20.6336 2067.1068,-26.9901"/>
</g>
<!-- Node36&#45;&gt;Node17 -->
<g id="edge49" class="edge">
<title>Node36&#45;&gt;Node17</title>
<path fill="none" stroke="#191970" d="M1160.6868,-124.3586C1163.6731,-123.8762 1166.633,-123.4204 1169.5379,-123 1338.7474,-98.5106 1382.812,-107.6091 1552.5379,-87 1564.5719,-85.5388 1577.3607,-83.7926 1589.7029,-82.0078"/>
<polygon fill="#191970" stroke="#191970" points="1590.5535,-85.4205 1599.9389,-80.5048 1589.5365,-78.4947 1590.5535,-85.4205"/>
</g>
<!-- Node36&#45;&gt;Node26 -->
<g id="edge56" class="edge">
<title>Node36&#45;&gt;Node26</title>
<path fill="none" stroke="#191970" d="M1091.1081,-123.4802C1092.7165,-104.4177 1098.5831,-72.0855 1119.5379,-56 1160.9959,-24.1755 1536.4373,-24.1348 1588.5379,-20 1603.9177,-18.7794 1620.3858,-17.4469 1636.0881,-16.1641"/>
<polygon fill="#191970" stroke="#191970" points="1636.596,-19.6343 1646.2771,-15.33 1636.0248,-12.6577 1636.596,-19.6343"/>
</g>
<!-- Node36&#45;&gt;Node27 -->
<g id="edge53" class="edge">
<title>Node36&#45;&gt;Node27</title>
<path fill="none" stroke="#191970" d="M1020.4739,-125.1845C1015.7637,-124.4088 1011.0856,-123.6721 1006.5379,-123 863.6457,-101.881 825.9203,-111.3193 683.5379,-87 677.2821,-85.9315 670.7355,-84.6384 664.2886,-83.2601"/>
<polygon fill="#191970" stroke="#191970" points="664.8166,-79.7923 654.296,-81.0441 663.301,-86.6262 664.8166,-79.7923"/>
</g>
<!-- Node36&#45;&gt;Node32 -->
<g id="edge50" class="edge">
<title>Node36&#45;&gt;Node32</title>
<path fill="none" stroke="#191970" d="M1020.5064,-132.6422C870.71,-120.1124 520.2523,-90.7982 365.4001,-77.8455"/>
<polygon fill="#191970" stroke="#191970" points="365.2976,-74.3248 355.0406,-76.979 364.714,-81.3005 365.2976,-74.3248"/>
</g>
<!-- Node36&#45;&gt;Node33 -->
<g id="edge55" class="edge">
<title>Node36&#45;&gt;Node33</title>
<path fill="none" stroke="#191970" d="M1020.4727,-133.3962C927.7037,-125.8637 769.6479,-110.1191 716.5379,-87 696.5533,-78.3006 695.9815,-69.0684 678.5379,-56 664.2251,-45.2772 647.6609,-33.896 634.5833,-25.137"/>
<polygon fill="#191970" stroke="#191970" points="636.4219,-22.1564 626.1572,-19.5323 632.5451,-27.9848 636.4219,-22.1564"/>
</g>
<!-- Node37 -->
<g id="node30" class="node">
<title>Node37</title>
<polygon fill="#ffffff" stroke="#bfbfbf" points="725.5379,-62 725.5379,-81 845.5379,-81 845.5379,-62 725.5379,-62"/>
<text text-anchor="middle" x="785.5379" y="-69" font-family="Helvetica,sans-Serif" font-size="10.00" fill="#000000">AMReX_FillPatchUtil.H</text>
</g>
<!-- Node36&#45;&gt;Node37 -->
<g id="edge57" class="edge">
<title>Node36&#45;&gt;Node37</title>
<path fill="none" stroke="#191970" d="M1022.0899,-123.4639C966.6008,-111.2745 889.5207,-94.3421 838.6242,-83.1616"/>
<polygon fill="#191970" stroke="#191970" points="839.3263,-79.7324 828.8082,-81.0053 837.8244,-86.5694 839.3263,-79.7324"/>
</g>
<!-- Node38&#45;&gt;Node12 -->
<g id="edge59" class="edge">
<title>Node38&#45;&gt;Node12</title>
<path fill="none" stroke="#191970" d="M1814.1503,-130.8055C1869.7229,-123.2428 1939.7694,-109.5031 1957.5379,-87 1966.0761,-76.1867 1964.531,-67.8711 1957.5379,-56 1948.7433,-41.071 1933.1662,-30.6447 1917.8637,-23.541"/>
<polygon fill="#191970" stroke="#191970" points="1919.0069,-20.224 1908.4344,-19.5368 1916.2708,-26.6672 1919.0069,-20.224"/>
</g>
<!-- Node38&#45;&gt;Node17 -->
<g id="edge60" class="edge">
<title>Node38&#45;&gt;Node17</title>
<path fill="none" stroke="#191970" d="M1729.3594,-128.9005C1715.5995,-118.0544 1692.9914,-100.2339 1676.6117,-87.3229"/>
<polygon fill="#191970" stroke="#191970" points="1678.714,-84.5234 1668.6937,-81.0817 1674.3806,-90.0209 1678.714,-84.5234"/>
</g>
<!-- Node38&#45;&gt;Node19 -->
<g id="edge61" class="edge">
<title>Node38&#45;&gt;Node19</title>
<path fill="none" stroke="#191970" d="M1814.3583,-135.7724C1938.4178,-130.3932 2185.2259,-116.3055 2266.5379,-87 2304.2255,-73.4171 2341.4669,-44.5772 2362.6674,-26.3047"/>
<polygon fill="#191970" stroke="#191970" points="2365.0351,-28.8833 2370.2256,-19.647 2360.4082,-23.6305 2365.0351,-28.8833"/>
</g>
<!-- Node38&#45;&gt;Node26 -->
<g id="edge62" class="edge">
<title>Node38&#45;&gt;Node26</title>
<path fill="none" stroke="#191970" d="M1739.4048,-128.8257C1735.9807,-113.3931 1728.9865,-82.264 1722.5379,-56 1720.4032,-47.3059 1717.9231,-37.721 1715.7736,-29.5611"/>
<polygon fill="#191970" stroke="#191970" points="1719.1442,-28.6166 1713.1951,-19.8497 1712.3786,-30.413 1719.1442,-28.6166"/>
</g>
<!-- Node41&#45;&gt;Node3 -->
<g id="edge64" class="edge">
<title>Node41&#45;&gt;Node3</title>
<path fill="none" stroke="#191970" d="M726.9237,-401.489C539.5379,-387.0744 38.5379,-342.0334 38.5379,-272.5 38.5379,-272.5 38.5379,-272.5 38.5379,-138.5 38.5379,-100.8735 28.6016,-80.0509 57.5379,-56 129.9784,4.2102 811.6098,-35.4036 904.5379,-20 905.6305,-19.8189 906.7375,-19.6138 907.8516,-19.389"/>
<polygon fill="#191970" stroke="#191970" points="908.9793,-22.7168 917.8666,-16.9492 907.3223,-15.9157 908.9793,-22.7168"/>
</g>
<!-- Node42 -->
<g id="node33" class="node">
<title>Node42</title>
<g id="a_node33"><a xlink:href="_c_f_d_sim_8_h.html" target="_top" xlink:title="amr&#45;wind/CFDSim.H">
<polygon fill="#ffffff" stroke="#ff0000" points="644.5379,-196 644.5379,-215 752.5379,-215 752.5379,-196 644.5379,-196"/>
<text text-anchor="middle" x="698.5379" y="-203" font-family="Helvetica,sans-Serif" font-size="10.00" fill="#000000">amr&#45;wind/CFDSim.H</text>
</a>
</g>
</g>
<!-- Node41&#45;&gt;Node42 -->
<g id="edge65" class="edge">
<title>Node41&#45;&gt;Node42</title>
<path fill="none" stroke="#191970" d="M760.1393,-391.3607C744.4924,-382.9676 727.5351,-370.9547 717.5379,-355 692.1618,-314.502 693.3256,-255.6827 696.0748,-225.3064"/>
<polygon fill="#191970" stroke="#191970" points="699.5772,-225.4685 697.1541,-215.1545 692.6164,-224.7284 699.5772,-225.4685"/>
</g>
<!-- Node43 -->
<g id="node34" class="node">
<title>Node43</title>
<g id="a_node34"><a xlink:href="_p_d_e_base_8_h.html" target="_top" xlink:title="amr&#45;wind/equation_systems\l/PDEBase.H">
<polygon fill="#ffffff" stroke="#ff0000" points="318.0379,-123.5 318.0379,-153.5 457.0379,-153.5 457.0379,-123.5 318.0379,-123.5"/>
<text text-anchor="start" x="326.0379" y="-141.5" font-family="Helvetica,sans-Serif" font-size="10.00" fill="#000000">amr&#45;wind/equation_systems</text>
<text text-anchor="middle" x="387.5379" y="-130.5" font-family="Helvetica,sans-Serif" font-size="10.00" fill="#000000">/PDEBase.H</text>
</a>
</g>
</g>
<!-- Node41&#45;&gt;Node43 -->
<g id="edge75" class="edge">
<title>Node41&#45;&gt;Node43</title>
<path fill="none" stroke="#191970" d="M766.2121,-391.3453C747.0726,-381.5094 721.9993,-368.1215 700.5379,-355 592.1821,-288.7515 470.0832,-199.9315 415.967,-159.7845"/>
<polygon fill="#191970" stroke="#191970" points="417.9911,-156.9281 407.8779,-153.77 413.8143,-162.5455 417.9911,-156.9281"/>
</g>
<!-- Node46 -->
<g id="node35" class="node">
<title>Node46</title>
<g id="a_node35"><a xlink:href="_p_d_e_ops_8_h.html" target="_top" xlink:title="amr&#45;wind/equation_systems\l/PDEOps.H">
<polygon fill="#ffffff" stroke="#000000" points="1119.0379,-257.5 1119.0379,-287.5 1258.0379,-287.5 1258.0379,-257.5 1119.0379,-257.5"/>
<text text-anchor="start" x="1127.0379" y="-275.5" font-family="Helvetica,sans-Serif" font-size="10.00" fill="#000000">amr&#45;wind/equation_systems</text>
<text text-anchor="middle" x="1188.5379" y="-264.5" font-family="Helvetica,sans-Serif" font-size="10.00" fill="#000000">/PDEOps.H</text>
</a>
</g>
</g>
<!-- Node41&#45;&gt;Node46 -->
<g id="edge76" class="edge">
<title>Node41&#45;&gt;Node46</title>
<path fill="none" stroke="#191970" d="M866.1426,-401.5893C922.9659,-395.6807 1004.3892,-382.8093 1070.5379,-355 1106.0421,-340.0738 1141.5535,-313.2296 1164.2022,-294.2205"/>
<polygon fill="#191970" stroke="#191970" points="1166.6118,-296.7653 1171.9407,-287.6082 1162.0644,-291.4435 1166.6118,-296.7653"/>
</g>
<!-- Node51 -->
<g id="node39" class="node">
<title>Node51</title>
<g id="a_node39"><a xlink:href="_comp_r_h_s_ops_8_h.html" target="_top" xlink:title="amr&#45;wind/equation_systems\l/CompRHSOps.H">
<polygon fill="#ffffff" stroke="#000000" points="727.0379,-324.5 727.0379,-354.5 866.0379,-354.5 866.0379,-324.5 727.0379,-324.5"/>
<text text-anchor="start" x="735.0379" y="-342.5" font-family="Helvetica,sans-Serif" font-size="10.00" fill="#000000">amr&#45;wind/equation_systems</text>
<text text-anchor="middle" x="796.5379" y="-331.5" font-family="Helvetica,sans-Serif" font-size="10.00" fill="#000000">/CompRHSOps.H</text>
</a>
</g>
</g>
<!-- Node41&#45;&gt;Node51 -->
<g id="edge88" class="edge">
<title>Node41&#45;&gt;Node51</title>
<path fill="none" stroke="#191970" d="M796.5379,-391.2967C796.5379,-383.5013 796.5379,-373.7991 796.5379,-364.9064"/>
<polygon fill="#191970" stroke="#191970" points="800.038,-364.6431 796.5379,-354.6432 793.038,-364.6432 800.038,-364.6431"/>
</g>
<!-- Node52 -->
<g id="node40" class="node">
<title>Node52</title>
<g id="a_node40"><a xlink:href="_diffusion_ops_8_h.html" target="_top" xlink:title="amr&#45;wind/equation_systems\l/DiffusionOps.H">
<polygon fill="#ffffff" stroke="#ff0000" points="923.0379,-324.5 923.0379,-354.5 1062.0379,-354.5 1062.0379,-324.5 923.0379,-324.5"/>
<text text-anchor="start" x="931.0379" y="-342.5" font-family="Helvetica,sans-Serif" font-size="10.00" fill="#000000">amr&#45;wind/equation_systems</text>
<text text-anchor="middle" x="992.5379" y="-331.5" font-family="Helvetica,sans-Serif" font-size="10.00" fill="#000000">/DiffusionOps.H</text>
</a>
</g>
</g>
<!-- Node41&#45;&gt;Node52 -->
<g id="edge92" class="edge">
<title>Node41&#45;&gt;Node52</title>
<path fill="none" stroke="#191970" d="M840.5241,-391.4639C869.5496,-381.5419 907.7682,-368.4774 938.6221,-357.9304"/>
<polygon fill="#191970" stroke="#191970" points="940.0295,-361.1482 948.3598,-354.6017 937.7652,-354.5245 940.0295,-361.1482"/>
</g>
<!-- Node42&#45;&gt;Node16 -->
<g id="edge68" class="edge">
<title>Node42&#45;&gt;Node16</title>
<path fill="none" stroke="#191970" d="M741.8355,-195.9575C753.3872,-193.6992 765.895,-191.511 777.5379,-190 847.6696,-180.8986 1311.2169,-153.7227 1498.3741,-142.9602"/>
<polygon fill="#191970" stroke="#191970" points="1498.6369,-146.451 1508.4196,-142.3831 1498.2353,-139.4625 1498.6369,-146.451"/>
</g>
<!-- Node42&#45;&gt;Node27 -->
<g id="edge66" class="edge">
<title>Node42&#45;&gt;Node27</title>
<path fill="none" stroke="#191970" d="M692.6406,-195.8631C679.0476,-173.6501 645.3322,-118.5541 627.6945,-89.7316"/>
<polygon fill="#191970" stroke="#191970" points="630.5868,-87.7524 622.3817,-81.0496 624.616,-91.4062 630.5868,-87.7524"/>
</g>
<!-- Node42&#45;&gt;Node32 -->
<g id="edge67" class="edge">
<title>Node42&#45;&gt;Node32</title>
<path fill="none" stroke="#191970" d="M644.5133,-202.8562C535.9599,-196.9894 299.6331,-181.2067 275.5379,-154 260.0253,-136.4842 269.5723,-108.3547 278.7877,-89.8986"/>
<polygon fill="#191970" stroke="#191970" points="281.9183,-91.467 283.5769,-81.0028 275.7548,-88.1488 281.9183,-91.467"/>
</g>
<!-- Node42&#45;&gt;Node43 -->
<g id="edge69" class="edge">
<title>Node42&#45;&gt;Node43</title>
<path fill="none" stroke="#191970" d="M654.3094,-195.9717C605.7208,-185.504 526.6941,-168.479 467.2388,-155.6703"/>
<polygon fill="#191970" stroke="#191970" points="467.6391,-152.1763 457.1262,-153.4917 466.1648,-159.0193 467.6391,-152.1763"/>
</g>
<!-- Node43&#45;&gt;Node3 -->
<g id="edge70" class="edge">
<title>Node43&#45;&gt;Node3</title>
<path fill="none" stroke="#191970" d="M393.432,-123.1733C401.7889,-103.7789 419.0724,-71.0884 445.5379,-56 534.4209,-5.3265 803.9175,-38.5346 904.5379,-20 905.6271,-19.7994 906.7312,-19.5775 907.8427,-19.3384"/>
<polygon fill="#191970" stroke="#191970" points="908.9982,-22.657 917.8455,-16.8281 907.2943,-15.8676 908.9982,-22.657"/>
</g>
<!-- Node43&#45;&gt;Node6 -->
<g id="edge71" class="edge">
<title>Node43&#45;&gt;Node6</title>
<path fill="none" stroke="#191970" d="M457.3244,-132.9692C575.7934,-123.5729 823.8241,-103.8687 1033.5379,-87 1072.473,-83.8682 1115.87,-80.3487 1151.4464,-77.456"/>
<polygon fill="#191970" stroke="#191970" points="1152.0582,-80.9179 1161.7415,-76.6186 1151.4907,-73.9409 1152.0582,-80.9179"/>
</g>
<!-- Node43&#45;&gt;Node12 -->
<g id="edge73" class="edge">
<title>Node43&#45;&gt;Node12</title>
<path fill="none" stroke="#191970" d="M457.4191,-136.423C571.7155,-132.1787 805.4562,-119.9471 1000.5379,-87 1055.2773,-77.7551 1066.6681,-64.4368 1121.5379,-56 1409.5015,-11.7226 1488.1097,-43.3734 1782.5876,-20.0249"/>
<polygon fill="#191970" stroke="#191970" points="1783.02,-23.5014 1792.7058,-19.2078 1782.4565,-16.5241 1783.02,-23.5014"/>
</g>
<!-- Node43&#45;&gt;Node20 -->
<g id="edge74" class="edge">
<title>Node43&#45;&gt;Node20</title>
<path fill="none" stroke="#191970" d="M386.4396,-123.4115C385.9804,-104.584 388.3782,-72.8218 407.5379,-56 420.4966,-44.6225 639.1888,-25.4397 757.28,-15.84"/>
<polygon fill="#191970" stroke="#191970" points="757.6567,-19.321 767.3416,-15.0255 757.0918,-12.3439 757.6567,-19.321"/>
</g>
<!-- Node43&#45;&gt;Node30 -->
<g id="edge72" class="edge">
<title>Node43&#45;&gt;Node30</title>
<path fill="none" stroke="#191970" d="M331.2086,-123.4639C293.1532,-113.3057 242.7577,-99.8535 202.7772,-89.1814"/>
<polygon fill="#191970" stroke="#191970" points="203.6773,-85.7992 193.1129,-86.6017 201.8719,-92.5624 203.6773,-85.7992"/>
</g>
<!-- Node46&#45;&gt;Node13 -->
<g id="edge77" class="edge">
<title>Node46&#45;&gt;Node13</title>
<path fill="none" stroke="#191970" d="M1258.331,-268.9744C1442.2051,-259.5349 1928.0828,-233.5548 1960.5379,-221 1981.1887,-213.0115 1979.5992,-199.6292 1999.5379,-190 2063.2226,-159.2439 2100.1638,-199.2232 2154.5379,-154 2173.7211,-138.0452 2182.9792,-109.9007 2187.2304,-90.9778"/>
<polygon fill="#191970" stroke="#191970" points="2190.6844,-91.5529 2189.1921,-81.0637 2183.8176,-90.1941 2190.6844,-91.5529"/>
</g>
<!-- Node46&#45;&gt;Node29 -->
<g id="edge78" class="edge">
<title>Node46&#45;&gt;Node29</title>
<path fill="none" stroke="#191970" d="M1118.9398,-258.4546C1065.4867,-247.6674 991.6252,-232.7616 935.8809,-221.512"/>
<polygon fill="#191970" stroke="#191970" points="936.5391,-218.0743 926.0443,-219.5269 935.1543,-224.936 936.5391,-218.0743"/>
</g>
<!-- Node46&#45;&gt;Node42 -->
<g id="edge86" class="edge">
<title>Node46&#45;&gt;Node42</title>
<path fill="none" stroke="#191970" d="M1118.8814,-265.2562C1036.9649,-256.3944 897.0001,-240.1805 777.5379,-221 770.0535,-219.7983 762.1947,-218.4102 754.4559,-216.9684"/>
<polygon fill="#191970" stroke="#191970" points="754.8714,-213.4847 744.3933,-215.0535 753.5626,-220.3613 754.8714,-213.4847"/>
</g>
<!-- Node47 -->
<g id="node36" class="node">
<title>Node47</title>
<g id="a_node36"><a xlink:href="_turbulence_model_8_h.html" target="_top" xlink:title="amr&#45;wind/turbulence\l/TurbulenceModel.H">
<polygon fill="#ffffff" stroke="#000000" points="1178.5379,-123.5 1178.5379,-153.5 1282.5379,-153.5 1282.5379,-123.5 1178.5379,-123.5"/>
<text text-anchor="start" x="1186.5379" y="-141.5" font-family="Helvetica,sans-Serif" font-size="10.00" fill="#000000">amr&#45;wind/turbulence</text>
<text text-anchor="middle" x="1230.5379" y="-130.5" font-family="Helvetica,sans-Serif" font-size="10.00" fill="#000000">/TurbulenceModel.H</text>
</a>
</g>
</g>
<!-- Node46&#45;&gt;Node47 -->
<g id="edge79" class="edge">
<title>Node46&#45;&gt;Node47</title>
<path fill="none" stroke="#191970" d="M1193.2742,-257.389C1200.4268,-234.5686 1214.0654,-191.055 1222.7098,-163.4751"/>
<polygon fill="#191970" stroke="#191970" points="1226.1033,-164.3505 1225.7545,-153.7614 1219.4237,-162.2568 1226.1033,-164.3505"/>
</g>
<!-- Node48 -->
<g id="node37" class="node">
<title>Node48</title>
<g id="a_node37"><a xlink:href="_i_o_manager_8_h.html" target="_top" xlink:title="amr&#45;wind/utilities\l/IOManager.H">
<polygon fill="#ffffff" stroke="#ff0000" points="901.5379,-56.5 901.5379,-86.5 991.5379,-86.5 991.5379,-56.5 901.5379,-56.5"/>
<text text-anchor="start" x="909.5379" y="-74.5" font-family="Helvetica,sans-Serif" font-size="10.00" fill="#000000">amr&#45;wind/utilities</text>
<text text-anchor="middle" x="946.5379" y="-63.5" font-family="Helvetica,sans-Serif" font-size="10.00" fill="#000000">/IOManager.H</text>
</a>
</g>
</g>
<!-- Node46&#45;&gt;Node48 -->
<g id="edge83" class="edge">
<title>Node46&#45;&gt;Node48</title>
<path fill="none" stroke="#191970" d="M1160.5421,-257.4436C1123.9331,-236.9674 1058.8978,-197.8314 1011.5379,-154 992.3925,-136.2811 974.346,-112.6014 962.1492,-95.1568"/>
<polygon fill="#191970" stroke="#191970" points="964.8706,-92.9364 956.3295,-86.6674 959.0969,-96.8944 964.8706,-92.9364"/>
</g>
<!-- Node50 -->
<g id="node38" class="node">
<title>Node50</title>
<polygon fill="#ffffff" stroke="#bfbfbf" points="2149.5379,-196 2149.5379,-215 2265.5379,-215 2265.5379,-196 2149.5379,-196"/>
<text text-anchor="middle" x="2207.5379" y="-203" font-family="Helvetica,sans-Serif" font-size="10.00" fill="#000000">AMReX_ParmParse.H</text>
</g>
<!-- Node46&#45;&gt;Node50 -->
<g id="edge87" class="edge">
<title>Node46&#45;&gt;Node50</title>
<path fill="none" stroke="#191970" d="M1258.246,-268.8907C1474.162,-257.6902 2118.7208,-224.0899 2140.5379,-221 2147.3683,-220.0326 2154.5286,-218.7123 2161.5219,-217.2476"/>
<polygon fill="#191970" stroke="#191970" points="2162.5814,-220.598 2171.5906,-215.0227 2161.0709,-213.7629 2162.5814,-220.598"/>
</g>
<!-- Node47&#45;&gt;Node6 -->
<g id="edge81" class="edge">
<title>Node47&#45;&gt;Node6</title>
<path fill="none" stroke="#191970" d="M1229.1764,-123.2967C1228.3232,-113.7699 1227.2151,-101.3954 1226.2958,-91.1306"/>
<polygon fill="#191970" stroke="#191970" points="1229.7716,-90.7029 1225.3935,-81.055 1222.7995,-91.3273 1229.7716,-90.7029"/>
</g>
<!-- Node47&#45;&gt;Node8 -->
<g id="edge80" class="edge">
<title>Node47&#45;&gt;Node8</title>
<path fill="none" stroke="#191970" d="M1192.8467,-123.3598C1177.4417,-115.0741 1161.2261,-103.1476 1152.5379,-87 1146.0097,-74.867 1145.9187,-68.0836 1152.5379,-56 1160.2966,-41.836 1174.4788,-31.3995 1188.2174,-24.0818"/>
<polygon fill="#191970" stroke="#191970" points="1190.1277,-27.0438 1197.5735,-19.5066 1187.0525,-20.7555 1190.1277,-27.0438"/>
</g>
<!-- Node47&#45;&gt;Node12 -->
<g id="edge82" class="edge">
<title>Node47&#45;&gt;Node12</title>
<path fill="none" stroke="#191970" d="M1256.0402,-123.4808C1290.0227,-104.2616 1352.6143,-71.5945 1410.5379,-56 1568.2185,-13.5484 1616.0092,-36.1695 1782.5924,-20.0558"/>
<polygon fill="#191970" stroke="#191970" points="1783.0888,-23.5237 1792.6908,-19.0459 1782.3921,-16.5584 1783.0888,-23.5237"/>
</g>
<!-- Node48&#45;&gt;Node3 -->
<g id="edge84" class="edge">
<title>Node48&#45;&gt;Node3</title>
<path fill="none" stroke="#191970" d="M944.5603,-56.2977C943.5193,-48.2945 942.2301,-38.3843 941.112,-29.7889"/>
<polygon fill="#191970" stroke="#191970" points="944.5796,-29.3119 939.8188,-19.8469 937.638,-30.2149 944.5796,-29.3119"/>
</g>
<!-- Node48&#45;&gt;Node8 -->
<g id="edge85" class="edge">
<title>Node48&#45;&gt;Node8</title>
<path fill="none" stroke="#191970" d="M991.5779,-59.4203C996.2838,-58.2322 1001.0028,-57.0713 1005.5379,-56 1062.5389,-42.535 1128.3531,-28.9763 1172.8328,-20.1039"/>
<polygon fill="#191970" stroke="#191970" points="1173.6985,-23.5003 1182.8244,-18.1181 1172.3339,-16.6346 1173.6985,-23.5003"/>
</g>
<!-- Node51&#45;&gt;Node20 -->
<g id="edge89" class="edge">
<title>Node51&#45;&gt;Node20</title>
<path fill="none" stroke="#191970" d="M726.9436,-335.084C532.9927,-321.8541 .5379,-278.854 .5379,-205.5 .5379,-205.5 .5379,-205.5 .5379,-138.5 .5379,-100.3133 -5.3496,-79.769 24.5379,-56 80.4558,-11.5294 595.2138,-24.1611 666.5379,-20 696.1366,-18.2732 728.7179,-16.3115 757.0539,-14.5858"/>
<polygon fill="#191970" stroke="#191970" points="757.5198,-18.0639 767.2881,-13.9615 757.0935,-11.0769 757.5198,-18.0639"/>
</g>
<!-- Node51&#45;&gt;Node28 -->
<g id="edge91" class="edge">
<title>Node51&#45;&gt;Node28</title>
<path fill="none" stroke="#191970" d="M818.7756,-324.2967C832.1826,-315.1306 849.4455,-303.3285 864.1059,-293.3055"/>
<polygon fill="#191970" stroke="#191970" points="866.1084,-296.1763 872.3882,-287.6432 862.1577,-290.3977 866.1084,-296.1763"/>
</g>
<!-- Node51&#45;&gt;Node46 -->
<g id="edge90" class="edge">
<title>Node51&#45;&gt;Node46</title>
<path fill="none" stroke="#191970" d="M866.1679,-327.5989C934.1098,-315.9864 1037.3682,-298.3377 1108.6243,-286.1587"/>
<polygon fill="#191970" stroke="#191970" points="1109.6299,-289.5377 1118.8973,-284.4029 1108.4505,-282.6377 1109.6299,-289.5377"/>
</g>
<!-- Node52&#45;&gt;Node2 -->
<g id="edge93" class="edge">
<title>Node52&#45;&gt;Node2</title>
<path fill="none" stroke="#191970" d="M1062.0549,-336.4005C1176.3033,-330.7345 1411.0361,-316.6904 1618.6843,-288.1686"/>
<polygon fill="#191970" stroke="#191970" points="1619.4401,-291.5973 1628.8639,-286.7556 1618.4776,-284.6638 1619.4401,-291.5973"/>
</g>
<!-- Node52&#45;&gt;Node27 -->
<g id="edge97" class="edge">
<title>Node52&#45;&gt;Node27</title>
<path fill="none" stroke="#191970" d="M922.9722,-325.8005C829.6938,-305.9303 671.5994,-266.4766 635.5379,-221 605.568,-183.2054 608.9102,-122.3127 613.1278,-91.1914"/>
<polygon fill="#191970" stroke="#191970" points="616.6082,-91.585 614.6612,-81.1706 609.6888,-90.5261 616.6082,-91.585"/>
</g>
<!-- Node52&#45;&gt;Node28 -->
<g id="edge94" class="edge">
<title>Node52&#45;&gt;Node28</title>
<path fill="none" stroke="#191970" d="M970.3002,-324.2967C956.8931,-315.1306 939.6303,-303.3285 924.9699,-293.3055"/>
<polygon fill="#191970" stroke="#191970" points="926.9181,-290.3977 916.6876,-287.6432 922.9674,-296.1763 926.9181,-290.3977"/>
</g>
<!-- Node52&#45;&gt;Node29 -->
<g id="edge96" class="edge">
<title>Node52&#45;&gt;Node29</title>
<path fill="none" stroke="#191970" d="M992.7178,-324.3368C992.1425,-306.3053 988.59,-276.2365 972.5379,-257 960.5668,-242.6541 943.7989,-232.1616 926.7255,-224.5436"/>
<polygon fill="#191970" stroke="#191970" points="927.8148,-221.2061 917.2373,-220.6009 925.1287,-227.6703 927.8148,-221.2061"/>
</g>
<!-- Node52&#45;&gt;Node46 -->
<g id="edge95" class="edge">
<title>Node52&#45;&gt;Node46</title>
<path fill="none" stroke="#191970" d="M1036.5241,-324.4639C1065.5496,-314.5419 1103.7682,-301.4774 1134.6221,-290.9304"/>
<polygon fill="#191970" stroke="#191970" points="1136.0295,-294.1482 1144.3598,-287.6017 1133.7652,-287.5245 1136.0295,-294.1482"/>
</g>
<!-- Node58&#45;&gt;Node6 -->
<g id="edge99" class="edge">
<title>Node58&#45;&gt;Node6</title>
<path fill="none" stroke="#191970" d="M1623.3627,-193.5032C1569.2684,-184.8733 1498.1009,-171.6441 1436.5379,-154 1369.8976,-134.9007 1294.976,-103.2074 1254.4583,-85.1694"/>
<polygon fill="#191970" stroke="#191970" points="1255.7183,-81.8986 1245.1615,-81.0007 1252.8542,-88.2859 1255.7183,-81.8986"/>
</g>
<!-- Node58&#45;&gt;Node12 -->
<g id="edge100" class="edge">
<title>Node58&#45;&gt;Node12</title>
<path fill="none" stroke="#191970" d="M1793.6555,-192.2691C1855.1485,-177.7782 1934.0616,-147.896 1973.5379,-87 1981.0324,-75.4389 1980.9486,-67.615 1973.5379,-56 1963.5175,-40.2949 1946.5962,-29.8684 1929.5509,-22.9824"/>
<polygon fill="#191970" stroke="#191970" points="1930.705,-19.6777 1920.1115,-19.51 1928.2883,-26.2473 1930.705,-19.6777"/>
</g>
<!-- Node58&#45;&gt;Node13 -->
<g id="edge101" class="edge">
<title>Node58&#45;&gt;Node13</title>
<path fill="none" stroke="#191970" d="M1793.7156,-191.4834C1797.0313,-190.9756 1800.3146,-190.4793 1803.5379,-190 1922.4115,-172.322 1959.484,-197.4441 2071.5379,-154 2092.4609,-145.888 2142.0766,-108.9666 2170.1892,-87.3637"/>
<polygon fill="#191970" stroke="#191970" points="2172.394,-90.0832 2178.1679,-81.2 2168.1145,-84.5437 2172.394,-90.0832"/>
</g>
<!-- Node58&#45;&gt;Node14 -->
<g id="edge103" class="edge">
<title>Node58&#45;&gt;Node14</title>
<path fill="none" stroke="#191970" d="M1793.7058,-191.4156C1797.0242,-190.9267 1800.3108,-190.4529 1803.5379,-190 1907.9192,-175.352 2208.4462,-174.951 2266.5379,-87 2295.8834,-42.5708 2217.9511,-23.4831 2157.8286,-15.4907"/>
<polygon fill="#191970" stroke="#191970" points="2157.9539,-11.9793 2147.5971,-14.2123 2157.086,-18.9252 2157.9539,-11.9793"/>
</g>
<!-- Node58&#45;&gt;Node16 -->
<g id="edge102" class="edge">
<title>Node58&#45;&gt;Node16</title>
<path fill="none" stroke="#191970" d="M1678.9145,-190.4639C1656.6668,-179.1715 1626.3995,-163.8086 1604.5518,-152.7192"/>
<polygon fill="#191970" stroke="#191970" points="1605.9603,-149.5091 1595.459,-148.1039 1602.792,-155.7511 1605.9603,-149.5091"/>
</g>
<!-- Node59&#45;&gt;Node2 -->
<g id="edge109" class="edge">
<title>Node59&#45;&gt;Node2</title>
<path fill="none" stroke="#191970" d="M1643.6489,-324.2967C1652.9082,-315.559 1664.7061,-304.4257 1674.9894,-294.7218"/>
<polygon fill="#191970" stroke="#191970" points="1677.6198,-297.052 1682.4906,-287.6432 1672.8155,-291.9609 1677.6198,-297.052"/>
</g>
<!-- Node59&#45;&gt;Node19 -->
<g id="edge111" class="edge">
<title>Node59&#45;&gt;Node19</title>
<path fill="none" stroke="#191970" d="M1691.364,-324.4345C1735.9511,-313.4015 1791.1723,-298.5709 1812.5379,-288 1833.0134,-277.8695 1832.2092,-265.1831 1853.5379,-257 1941.204,-223.3654 2196.7919,-273.6518 2274.5379,-221 2342.1526,-175.2094 2368.7225,-72.9252 2377.1844,-29.7902"/>
<polygon fill="#191970" stroke="#191970" points="2380.6688,-30.1941 2379.0355,-19.7259 2373.7843,-28.9278 2380.6688,-30.1941"/>
</g>
<!-- Node59&#45;&gt;Node28 -->
<g id="edge108" class="edge">
<title>Node59&#45;&gt;Node28</title>
<path fill="none" stroke="#191970" d="M1557.9182,-333.1364C1421.2902,-320.6479 1118.8082,-292.9995 974.3514,-279.7954"/>
<polygon fill="#191970" stroke="#191970" points="974.5052,-276.2949 964.2281,-278.87 973.8679,-283.2659 974.5052,-276.2949"/>
</g>
<!-- Node59&#45;&gt;Node46 -->
<g id="edge110" class="edge">
<title>Node59&#45;&gt;Node46</title>
<path fill="none" stroke="#191970" d="M1557.977,-328.8837C1479.1826,-316.8581 1351.0103,-297.2965 1268.2477,-284.6653"/>
<polygon fill="#191970" stroke="#191970" points="1268.5493,-281.1709 1258.1357,-283.122 1267.4931,-288.0907 1268.5493,-281.1709"/>
</g>
<!-- Node59&#45;&gt;Node50 -->
<g id="edge112" class="edge">
<title>Node59&#45;&gt;Node50</title>
<path fill="none" stroke="#191970" d="M1684.0007,-324.4175C1712.8226,-315.6589 1747.9512,-303.316 1777.5379,-288 1798.4604,-277.1691 1798.5583,-265.4829 1820.5379,-257 1954.0581,-205.4684 1999.474,-245.169 2140.5379,-221 2146.7931,-219.9283 2153.3394,-218.6333 2159.7861,-217.2541"/>
<polygon fill="#191970" stroke="#191970" points="2160.774,-220.6201 2169.7786,-215.0372 2159.2579,-213.7862 2160.774,-220.6201"/>
</g>
<!-- Node60 -->
<g id="node43" class="node">
<title>Node60</title>
<polygon fill="#ffffff" stroke="#bfbfbf" points="1862.5379,-263 1862.5379,-282 1924.5379,-282 1924.5379,-263 1862.5379,-263"/>
<text text-anchor="middle" x="1893.5379" y="-270" font-family="Helvetica,sans-Serif" font-size="10.00" fill="#000000">type_traits</text>
</g>
<!-- Node59&#45;&gt;Node60 -->
<g id="edge105" class="edge">
<title>Node59&#45;&gt;Node60</title>
<path fill="none" stroke="#191970" d="M1697.1903,-325.1909C1740.9362,-315.7308 1798.3758,-302.4423 1848.5379,-288 1851.4609,-287.1584 1854.4738,-286.2384 1857.4903,-285.2798"/>
<polygon fill="#191970" stroke="#191970" points="1858.6293,-288.5897 1867.0316,-282.1359 1856.4386,-281.9413 1858.6293,-288.5897"/>
</g>
<!-- Node61 -->
<g id="node44" class="node">
<title>Node61</title>
<g id="a_node44"><a xlink:href="_godunov_8_h.html" target="_top" xlink:title="amr&#45;wind/convection\l/Godunov.H">
<polygon fill="#ffffff" stroke="#000000" points="1504.0379,-257.5 1504.0379,-287.5 1611.0379,-287.5 1611.0379,-257.5 1504.0379,-257.5"/>
<text text-anchor="start" x="1512.0379" y="-275.5" font-family="Helvetica,sans-Serif" font-size="10.00" fill="#000000">amr&#45;wind/convection</text>
<text text-anchor="middle" x="1557.5379" y="-264.5" font-family="Helvetica,sans-Serif" font-size="10.00" fill="#000000">/Godunov.H</text>
</a>
</g>
</g>
<!-- Node59&#45;&gt;Node61 -->
<g id="edge106" class="edge">
<title>Node59&#45;&gt;Node61</title>
<path fill="none" stroke="#191970" d="M1611.6538,-324.2967C1602.5249,-315.559 1590.8931,-304.4257 1580.7547,-294.7218"/>
<polygon fill="#191970" stroke="#191970" points="1583.0034,-292.0293 1573.3591,-287.6432 1578.1632,-297.0862 1583.0034,-292.0293"/>
</g>
<!-- Node61&#45;&gt;Node16 -->
<g id="edge107" class="edge">
<title>Node61&#45;&gt;Node16</title>
<path fill="none" stroke="#191970" d="M1559.6805,-257.389C1563.1282,-233.0735 1569.9071,-185.2644 1573.7347,-158.2698"/>
<polygon fill="#191970" stroke="#191970" points="1577.2375,-158.4965 1575.1761,-148.1042 1570.3068,-157.5137 1577.2375,-158.4965"/>
</g>
<!-- Node62&#45;&gt;Node2 -->
<g id="edge118" class="edge">
<title>Node62&#45;&gt;Node2</title>
<path fill="none" stroke="#191970" d="M1765.0231,-324.2967C1753.4777,-315.302 1738.6739,-303.7687 1725.9673,-293.8694"/>
<polygon fill="#191970" stroke="#191970" points="1728.015,-291.028 1717.9754,-287.6432 1723.713,-296.55 1728.015,-291.028"/>
</g>
<!-- Node62&#45;&gt;Node19 -->
<g id="edge120" class="edge">
<title>Node62&#45;&gt;Node19</title>
<path fill="none" stroke="#191970" d="M1854.293,-325.6354C1857.4152,-325.0711 1860.5078,-324.5233 1863.5379,-324 2000.0432,-300.4258 2475.5379,-344.026 2475.5379,-205.5 2475.5379,-205.5 2475.5379,-205.5 2475.5379,-138.5 2475.5379,-100.3133 2474.3275,-86.6407 2451.5379,-56 2441.5673,-42.5945 2426.4395,-32.0202 2412.706,-24.4076"/>
<polygon fill="#191970" stroke="#191970" points="2413.9873,-21.1287 2403.5015,-19.6122 2410.7529,-27.3367 2413.9873,-21.1287"/>
</g>
<!-- Node62&#45;&gt;Node28 -->
<g id="edge117" class="edge">
<title>Node62&#45;&gt;Node28</title>
<path fill="none" stroke="#191970" d="M1714.874,-325.1691C1712.0633,-324.7455 1709.2765,-324.353 1706.5379,-324 1442.9038,-290.0169 1374.7727,-305.5572 1109.5379,-288 1064.7864,-285.0377 1014.8165,-281.452 974.3216,-278.4758"/>
<polygon fill="#191970" stroke="#191970" points="974.4696,-274.9773 964.2394,-277.7331 973.9552,-281.9584 974.4696,-274.9773"/>
</g>
<!-- Node62&#45;&gt;Node46 -->
<g id="edge119" class="edge">
<title>Node62&#45;&gt;Node46</title>
<path fill="none" stroke="#191970" d="M1714.8552,-325.3046C1712.0497,-324.8435 1709.2691,-324.4062 1706.5379,-324 1552.2731,-301.0592 1370.5978,-285.6447 1268.5701,-278.0343"/>
<polygon fill="#191970" stroke="#191970" points="1268.5753,-274.5252 1258.3443,-277.2778 1268.0588,-281.5061 1268.5753,-274.5252"/>
</g>
<!-- Node62&#45;&gt;Node50 -->
<g id="edge121" class="edge">
<title>Node62&#45;&gt;Node50</title>
<path fill="none" stroke="#191970" d="M1854.3159,-325.7619C1857.4319,-325.1634 1860.517,-324.5738 1863.5379,-324 1950.5507,-307.4736 1976.1911,-317.961 2059.5379,-288 2107.0416,-270.9236 2157.3605,-239.671 2185.3757,-220.9202"/>
<polygon fill="#191970" stroke="#191970" points="2187.675,-223.5898 2193.9852,-215.0791 2183.7449,-217.7971 2187.675,-223.5898"/>
</g>
<!-- Node62&#45;&gt;Node60 -->
<g id="edge114" class="edge">
<title>Node62&#45;&gt;Node60</title>
<path fill="none" stroke="#191970" d="M1808.9996,-324.4639C1826.9589,-313.4247 1851.2468,-298.4954 1869.1813,-287.4715"/>
<polygon fill="#191970" stroke="#191970" points="1871.2271,-290.3223 1877.9136,-282.1039 1867.5615,-284.3588 1871.2271,-290.3223"/>
</g>
<!-- Node63 -->
<g id="node46" class="node">
<title>Node63</title>
<g id="a_node46"><a xlink:href="_m_o_l_8_h.html" target="_top" xlink:title="amr&#45;wind/convection\l/MOL.H">
<polygon fill="#ffffff" stroke="#000000" points="1943.0379,-257.5 1943.0379,-287.5 2050.0379,-287.5 2050.0379,-257.5 1943.0379,-257.5"/>
<text text-anchor="start" x="1951.0379" y="-275.5" font-family="Helvetica,sans-Serif" font-size="10.00" fill="#000000">amr&#45;wind/convection</text>
<text text-anchor="middle" x="1996.5379" y="-264.5" font-family="Helvetica,sans-Serif" font-size="10.00" fill="#000000">/MOL.H</text>
</a>
</g>
</g>
<!-- Node62&#45;&gt;Node63 -->
<g id="edge115" class="edge">
<title>Node62&#45;&gt;Node63</title>
<path fill="none" stroke="#191970" d="M1832.1148,-324.4639C1863.7815,-314.456 1905.5648,-301.2509 1939.0858,-290.657"/>
<polygon fill="#191970" stroke="#191970" points="1940.273,-293.9525 1948.7534,-287.6017 1938.1635,-287.2779 1940.273,-293.9525"/>
</g>
<!-- Node63&#45;&gt;Node16 -->
<g id="edge116" class="edge">
<title>Node63&#45;&gt;Node16</title>
<path fill="none" stroke="#191970" d="M1943.022,-258.8358C1939.8217,-258.1735 1936.6425,-257.5547 1933.5379,-257 1863.3112,-244.4523 1672.359,-262.7846 1614.5379,-221 1593.9282,-206.1064 1584.2053,-177.2432 1579.8313,-157.9178"/>
<polygon fill="#191970" stroke="#191970" points="1583.2556,-157.1919 1577.8741,-148.0655 1576.3897,-158.5559 1583.2556,-157.1919"/>
</g>
<!-- Node64&#45;&gt;Node2 -->
<g id="edge123" class="edge">
<title>Node64&#45;&gt;Node2</title>
<path fill="none" stroke="#191970" d="M1887.0039,-324.4639C1850.3951,-314.3701 1801.9906,-301.024 1763.4036,-290.3848"/>
<polygon fill="#191970" stroke="#191970" points="1763.8803,-286.8857 1753.3097,-287.6017 1762.0196,-293.6339 1763.8803,-286.8857"/>
</g>
<!-- Node64&#45;&gt;Node46 -->
<g id="edge124" class="edge">
<title>Node64&#45;&gt;Node46</title>
<path fill="none" stroke="#191970" d="M1871.8666,-325.2246C1869.058,-324.7857 1866.2736,-324.3748 1863.5379,-324 1649.5517,-294.6832 1394.9445,-280.9179 1268.3103,-275.4842"/>
<polygon fill="#191970" stroke="#191970" points="1268.4461,-271.9869 1258.307,-275.0609 1268.1501,-278.9806 1268.4461,-271.9869"/>
</g>
<!-- Node65 -->
<g id="node48" class="node">
<title>Node65</title>
<g id="a_node48"><a xlink:href="_b_c_interface_8_h.html" target="_top" xlink:title="amr&#45;wind/boundary_conditions\l/BCInterface.H">
<polygon fill="#ffffff" stroke="#000000" points="2503.0379,-123.5 2503.0379,-153.5 2652.0379,-153.5 2652.0379,-123.5 2503.0379,-123.5"/>
<text text-anchor="start" x="2511.0379" y="-141.5" font-family="Helvetica,sans-Serif" font-size="10.00" fill="#000000">amr&#45;wind/boundary_conditions</text>
<text text-anchor="middle" x="2577.5379" y="-130.5" font-family="Helvetica,sans-Serif" font-size="10.00" fill="#000000">/BCInterface.H</text>
</a>
</g>
</g>
<!-- Node64&#45;&gt;Node65 -->
<g id="edge125" class="edge">
<title>Node64&#45;&gt;Node65</title>
<path fill="none" stroke="#191970" d="M2011.223,-336.4786C2149.7875,-329.9629 2450.0225,-313.1191 2489.5379,-288 2534.9149,-259.1548 2559.8,-197.8329 2570.7056,-163.3609"/>
<polygon fill="#191970" stroke="#191970" points="2574.1157,-164.1749 2573.6485,-153.5903 2567.4131,-162.156 2574.1157,-164.1749"/>
</g>
<!-- Node65&#45;&gt;Node17 -->
<g id="edge126" class="edge">
<title>Node65&#45;&gt;Node17</title>
<path fill="none" stroke="#191970" d="M2503.012,-135.9237C2359.1546,-130.4813 2033.3093,-115.8711 1760.5379,-87 1748.4828,-85.724 1735.6839,-84.0671 1723.3382,-82.3127"/>
<polygon fill="#191970" stroke="#191970" points="1723.5007,-78.7995 1713.1008,-80.8222 1722.4922,-85.7265 1723.5007,-78.7995"/>
</g>
<!-- Node65&#45;&gt;Node20 -->
<g id="edge127" class="edge">
<title>Node65&#45;&gt;Node20</title>
<path fill="none" stroke="#191970" d="M2502.8459,-137.0717C2181.2214,-130.815 928.9954,-105.3219 892.5379,-87 867.8664,-74.6012 850.0028,-47.0876 840.2039,-28.5364"/>
<polygon fill="#191970" stroke="#191970" points="843.3105,-26.9231 835.7094,-19.5424 837.0488,-30.0523 843.3105,-26.9231"/>
</g>
<!-- Node66 -->
<g id="node49" class="node">
<title>Node66</title>
<polygon fill="#ffffff" stroke="#bfbfbf" points="2589.0379,-62 2589.0379,-81 2708.0379,-81 2708.0379,-62 2589.0379,-62"/>
<text text-anchor="middle" x="2648.5379" y="-69" font-family="Helvetica,sans-Serif" font-size="10.00" fill="#000000">AMReX_BC_TYPES.H</text>
</g>
<!-- Node65&#45;&gt;Node66 -->
<g id="edge128" class="edge">
<title>Node65&#45;&gt;Node66</title>
<path fill="none" stroke="#191970" d="M2593.6489,-123.2967C2604.8184,-112.7564 2619.6819,-98.7303 2631.1246,-87.9323"/>
<polygon fill="#191970" stroke="#191970" points="2633.5416,-90.4638 2638.4125,-81.055 2628.7373,-85.3727 2633.5416,-90.4638"/>
</g>
<!-- Node67 -->
<g id="node50" class="node">
<title>Node67</title>
<polygon fill="#ffffff" stroke="#bfbfbf" points="2530.5379,-62 2530.5379,-81 2570.5379,-81 2570.5379,-62 2530.5379,-62"/>
<text text-anchor="middle" x="2550.5379" y="-69" font-family="Helvetica,sans-Serif" font-size="10.00" fill="#000000">utility</text>
</g>
<!-- Node65&#45;&gt;Node67 -->
<g id="edge129" class="edge">
<title>Node65&#45;&gt;Node67</title>
<path fill="none" stroke="#191970" d="M2571.4112,-123.2967C2567.4903,-113.5672 2562.3725,-100.8675 2558.1859,-90.4784"/>
<polygon fill="#191970" stroke="#191970" points="2561.3725,-89.0219 2554.3884,-81.055 2554.8799,-91.6384 2561.3725,-89.0219"/>
</g>
</g>
</svg>
