<?xml version="1.0" encoding="UTF-8" standalone="no"?>
<!DOCTYPE svg PUBLIC "-//W3C//DTD SVG 1.1//EN"
 "http://www.w3.org/Graphics/SVG/1.1/DTD/svg11.dtd">
<!-- Generated by graphviz version 2.40.1 (20161225.0304)
 -->
<!-- Title: tensor.H Pages: 1 -->
<svg width="233pt" height="196pt"
 viewBox="0.00 0.00 233.00 196.00" xmlns="http://www.w3.org/2000/svg" xmlns:xlink="http://www.w3.org/1999/xlink">
<g id="graph0" class="graph" transform="scale(1 1) rotate(0) translate(4 192)">
<title>tensor.H</title>
<polygon fill="#ffffff" stroke="transparent" points="-4,4 -4,-192 229,-192 229,4 -4,4"/>
<!-- Node11 -->
<g id="node1" class="node">
<title>Node11</title>
<polygon fill="#bfbfbf" stroke="#000000" points="1.5,-168.5 1.5,-187.5 55.5,-187.5 55.5,-168.5 1.5,-168.5"/>
<text text-anchor="middle" x="28.5" y="-175.5" font-family="Helvetica,sans-Serif" font-size="10.00" fill="#000000">tensor.H</text>
</g>
<!-- Node12 -->
<g id="node2" class="node">
<title>Node12</title>
<g id="a_node2"><a xlink:href="tensor_i_8_h.html" target="_top" xlink:title="tensorI.H">
<polygon fill="#ffffff" stroke="#000000" points="0,-112.5 0,-131.5 57,-131.5 57,-112.5 0,-112.5"/>
<text text-anchor="middle" x="28.5" y="-119.5" font-family="Helvetica,sans-Serif" font-size="10.00" fill="#000000">tensorI.H</text>
</a>
</g>
</g>
<!-- Node11&#45;&gt;Node12 -->
<g id="edge1" class="edge">
<title>Node11&#45;&gt;Node12</title>
<path fill="none" stroke="#191970" d="M22.0113,-158.1575C21.419,-149.155 21.8335,-138.9199 23.2549,-131.6427"/>
<polygon fill="#191970" stroke="#191970" points="18.5561,-158.739 23.2332,-168.2455 25.5053,-157.8972 18.5561,-158.739"/>
</g>
<!-- Node13 -->
<g id="node3" class="node">
<title>Node13</title>
<g id="a_node3"><a xlink:href="vector__space_8_h.html" target="_top" xlink:title="vector_space.H">
<polygon fill="#ffffff" stroke="#000000" points="75.5,-112.5 75.5,-131.5 161.5,-131.5 161.5,-112.5 75.5,-112.5"/>
<text text-anchor="middle" x="118.5" y="-119.5" font-family="Helvetica,sans-Serif" font-size="10.00" fill="#000000">vector_space.H</text>
</a>
</g>
</g>
<!-- Node11&#45;&gt;Node13 -->
<g id="edge3" class="edge">
<title>Node11&#45;&gt;Node13</title>
<path fill="none" stroke="#191970" d="M52.9784,-162.769C68.9266,-152.8456 89.251,-140.1994 103.0028,-131.6427"/>
<polygon fill="#191970" stroke="#191970" points="50.8183,-159.9908 44.1768,-168.2455 54.5165,-165.9342 50.8183,-159.9908"/>
</g>
<!-- Node12&#45;&gt;Node11 -->
<g id="edge2" class="edge">
<title>Node12&#45;&gt;Node11</title>
<path fill="none" stroke="#191970" d="M34.9795,-141.7046C35.5821,-150.6944 35.1779,-160.9382 33.7668,-168.2455"/>
<polygon fill="#191970" stroke="#191970" points="38.4368,-141.1421 33.7451,-131.6427 31.4889,-141.9945 38.4368,-141.1421"/>
</g>
<!-- Node14 -->
<g id="node4" class="node">
<title>Node14</title>
<g id="a_node4"><a xlink:href="_box_refiner_8_h.html" target="_top" xlink:title="BoxRefiner.H">
<polygon fill="#ffffff" stroke="#000000" points="27.5,-56.5 27.5,-75.5 103.5,-75.5 103.5,-56.5 27.5,-56.5"/>
<text text-anchor="middle" x="65.5" y="-63.5" font-family="Helvetica,sans-Serif" font-size="10.00" fill="#000000">BoxRefiner.H</text>
</a>
</g>
</g>
<!-- Node13&#45;&gt;Node14 -->
<g id="edge4" class="edge">
<title>Node13&#45;&gt;Node14</title>
<path fill="none" stroke="#191970" d="M102.2104,-104.7884C93.1438,-95.2085 82.1946,-83.6396 74.6261,-75.6427"/>
<polygon fill="#191970" stroke="#191970" points="99.8522,-107.3884 109.2681,-112.2455 104.9363,-102.5767 99.8522,-107.3884"/>
</g>
<!-- Node16 -->
<g id="node6" class="node">
<title>Node16</title>
<g id="a_node6"><a xlink:href="_cylinder_refiner_8_h.html" target="_top" xlink:title="CylinderRefiner.H">
<polygon fill="#ffffff" stroke="#000000" points="124,-56.5 124,-75.5 219,-75.5 219,-56.5 124,-56.5"/>
<text text-anchor="middle" x="171.5" y="-63.5" font-family="Helvetica,sans-Serif" font-size="10.00" fill="#000000">CylinderRefiner.H</text>
</a>
</g>
</g>
<!-- Node13&#45;&gt;Node16 -->
<g id="edge6" class="edge">
<title>Node13&#45;&gt;Node16</title>
<path fill="none" stroke="#191970" d="M134.7896,-104.7884C143.8562,-95.2085 154.8054,-83.6396 162.3739,-75.6427"/>
<polygon fill="#191970" stroke="#191970" points="132.0637,-102.5767 127.7319,-112.2455 137.1478,-107.3884 132.0637,-102.5767"/>
</g>
<!-- Node15 -->
<g id="node5" class="node">
<title>Node15</title>
<g id="a_node5"><a xlink:href="_box_refiner_8cpp.html" target="_top" xlink:title="BoxRefiner.cpp">
<polygon fill="#ffffff" stroke="#000000" points="19.5,-.5 19.5,-19.5 103.5,-19.5 103.5,-.5 19.5,-.5"/>
<text text-anchor="middle" x="61.5" y="-7.5" font-family="Helvetica,sans-Serif" font-size="10.00" fill="#000000">BoxRefiner.cpp</text>
</a>
</g>
</g>
<!-- Node14&#45;&gt;Node15 -->
<g id="edge5" class="edge">
<title>Node14&#45;&gt;Node15</title>
<path fill="none" stroke="#191970" d="M64.0827,-46.1575C63.4396,-37.155 62.7086,-26.9199 62.1888,-19.6427"/>
<polygon fill="#191970" stroke="#191970" points="60.5996,-46.5204 64.8033,-56.2455 67.5818,-46.0216 60.5996,-46.5204"/>
</g>
<!-- Node17 -->
<g id="node7" class="node">
<title>Node17</title>
<g id="a_node7"><a xlink:href="_cylinder_refiner_8cpp.html" target="_top" xlink:title="CylinderRefiner.cpp">
<polygon fill="#ffffff" stroke="#000000" points="122,-.5 122,-19.5 225,-19.5 225,-.5 122,-.5"/>
<text text-anchor="middle" x="173.5" y="-7.5" font-family="Helvetica,sans-Serif" font-size="10.00" fill="#000000">CylinderRefiner.cpp</text>
</a>
</g>
</g>
<!-- Node16&#45;&gt;Node17 -->
<g id="edge7" class="edge">
<title>Node16&#45;&gt;Node17</title>
<path fill="none" stroke="#191970" d="M172.2087,-46.1575C172.5302,-37.155 172.8957,-26.9199 173.1556,-19.6427"/>
<polygon fill="#191970" stroke="#191970" points="168.7076,-46.127 171.8484,-56.2455 175.7032,-46.3769 168.7076,-46.127"/>
</g>
</g>
</svg>
