<?xml version="1.0" encoding="UTF-8" standalone="no"?>
<!DOCTYPE svg PUBLIC "-//W3C//DTD SVG 1.1//EN"
 "http://www.w3.org/Graphics/SVG/1.1/DTD/svg11.dtd">
<!-- Generated by graphviz version 2.40.1 (20161225.0304)
 -->
<!-- Title: trig_ops.H Pages: 1 -->
<!--zoomable 319 -->
<svg id="main" version="1.1" xmlns="http://www.w3.org/2000/svg" xmlns:xlink="http://www.w3.org/1999/xlink" xml:space="preserve" onload="init(evt)">
<style type="text/css"><![CDATA[
.edge:hover path { stroke: red; }
.edge:hover polygon { stroke: red; fill: red; }
]]></style>
<script type="text/javascript"><![CDATA[
var edges = document.getElementsByTagName('g');
if (edges && edges.length) {
  for (var i=0;i<edges.length;i++) {
    if (edges[i].id.substr(0,4)=='edge') {
      edges[i].setAttribute('class','edge');
    }
  }
}
]]></script>
        <defs>
                <circle id="rim" cx="0" cy="0" r="7"/>
                <circle id="rim2" cx="0" cy="0" r="3.5"/>
                <g id="zoomPlus">
                        <use xlink:href="#rim" fill="#404040">
                                <set attributeName="fill" to="#808080" begin="zoomplus.mouseover" end="zoomplus.mouseout"/>
                        </use>
                        <path d="M-4,0h8M0,-4v8" fill="none" stroke="white" stroke-width="1.5" pointer-events="none"/>
                </g>
                <g id="zoomMin">
                        <use xlink:href="#rim" fill="#404040">
                                <set attributeName="fill" to="#808080" begin="zoomminus.mouseover" end="zoomminus.mouseout"/>
                        </use>
                        <path d="M-4,0h8" fill="none" stroke="white" stroke-width="1.5" pointer-events="none"/>
                </g>
                <g id="dirArrow">
                        <path fill="none" stroke="white" stroke-width="1.5" d="M0,-3.0v7 M-2.5,-0.5L0,-3.0L2.5,-0.5"/>
                </g>
               <g id="resetDef">
                       <use xlink:href="#rim2" fill="#404040">
                               <set attributeName="fill" to="#808080" begin="reset.mouseover" end="reset.mouseout"/>
                       </use>
               </g>
        </defs>

<script type="text/javascript">
var viewWidth = 1614;
var viewHeight = 319;
var sectionId = 'dynsection-1';
</script>
<script xlink:href="svgpan.js"/>
<svg id="graph" class="graph">
<g id="viewport">
<title>trig_ops.H</title>
<polygon fill="#ffffff" stroke="transparent" points="-4,4 -4,-315 1610,-315 1610,4 -4,4"/>
<!-- Node4 -->
<g id="node1" class="node">
<title>Node4</title>
<polygon fill="#bfbfbf" stroke="#000000" points="942.5,-291.5 942.5,-310.5 1004.5,-310.5 1004.5,-291.5 942.5,-291.5"/>
<text text-anchor="middle" x="973.5" y="-298.5" font-family="Helvetica,sans-Serif" font-size="10.00" fill="#000000">trig_ops.H</text>
</g>
<!-- Node5 -->
<g id="node2" class="node">
<title>Node5</title>
<g id="a_node2"><a xlink:href="_m_o_data_8_h.html" target="_top" xlink:title="MOData.H">
<polygon fill="#ffffff" stroke="#000000" points="558.5,-235.5 558.5,-254.5 622.5,-254.5 622.5,-235.5 558.5,-235.5"/>
<text text-anchor="middle" x="590.5" y="-242.5" font-family="Helvetica,sans-Serif" font-size="10.00" fill="#000000">MOData.H</text>
</a>
</g>
</g>
<!-- Node4&#45;&gt;Node5 -->
<g id="edge1" class="edge">
<title>Node4&#45;&gt;Node5</title>
<path fill="none" stroke="#191970" d="M932.2365,-296.11C869.1879,-288.4557 745.1624,-272.6787 640.5,-255 634.739,-254.0269 628.6251,-252.8909 622.7233,-251.7406"/>
<polygon fill="#191970" stroke="#191970" points="931.8378,-299.5872 942.1854,-297.3118 932.6773,-292.6378 931.8378,-299.5872"/>
</g>
<!-- Node14 -->
<g id="node11" class="node">
<title>Node14</title>
<g id="a_node11"><a xlink:href="_a_b_l_wall_function_8cpp.html" target="_top" xlink:title="ABLWallFunction.cpp">
<polygon fill="#ffffff" stroke="#000000" points="583,-6 583,-25 694,-25 694,-6 583,-6"/>
<text text-anchor="middle" x="638.5" y="-13" font-family="Helvetica,sans-Serif" font-size="10.00" fill="#000000">ABLWallFunction.cpp</text>
</a>
</g>
</g>
<!-- Node4&#45;&gt;Node14 -->
<g id="edge32" class="edge">
<title>Node4&#45;&gt;Node14</title>
<path fill="none" stroke="#191970" d="M932.1777,-300.0212C859.1035,-297.4448 711.2134,-288.1656 673.5,-255 650.578,-234.8422 654.5,-219.5246 654.5,-189 654.5,-189 654.5,-189 654.5,-133 654.5,-92.6484 645.1211,-45.2088 640.7247,-25.1881"/>
<polygon fill="#191970" stroke="#191970" points="932.2854,-303.5265 942.3943,-300.3547 932.5139,-296.5302 932.2854,-303.5265"/>
</g>
<!-- Node19 -->
<g id="node16" class="node">
<title>Node19</title>
<g id="a_node16"><a xlink:href="tensor_i_8_h.html" target="_top" xlink:title="tensorI.H">
<polygon fill="#ffffff" stroke="#000000" points="683,-235.5 683,-254.5 740,-254.5 740,-235.5 683,-235.5"/>
<text text-anchor="middle" x="711.5" y="-242.5" font-family="Helvetica,sans-Serif" font-size="10.00" fill="#000000">tensorI.H</text>
</a>
</g>
</g>
<!-- Node4&#45;&gt;Node19 -->
<g id="edge17" class="edge">
<title>Node4&#45;&gt;Node19</title>
<path fill="none" stroke="#191970" d="M932.4165,-293.3976C887.1805,-284.8416 812.3846,-270.1479 748.5,-255 745.7807,-254.3552 742.9577,-253.6528 740.1383,-252.9291"/>
<polygon fill="#191970" stroke="#191970" points="931.9553,-296.8722 942.4302,-295.2826 933.2503,-289.993 931.9553,-296.8722"/>
</g>
<!-- Node26 -->
<g id="node23" class="node">
<title>Node26</title>
<g id="a_node23"><a xlink:href="_body_force_8cpp.html" target="_top" xlink:title="BodyForce.cpp">
<polygon fill="#ffffff" stroke="#000000" points="758,-235.5 758,-254.5 841,-254.5 841,-235.5 758,-235.5"/>
<text text-anchor="middle" x="799.5" y="-242.5" font-family="Helvetica,sans-Serif" font-size="10.00" fill="#000000">BodyForce.cpp</text>
</a>
</g>
</g>
<!-- Node4&#45;&gt;Node26 -->
<g id="edge25" class="edge">
<title>Node4&#45;&gt;Node26</title>
<path fill="none" stroke="#191970" d="M933.699,-288.1905C901.821,-277.9309 857.8184,-263.7691 829.0213,-254.5011"/>
<polygon fill="#191970" stroke="#191970" points="932.9969,-291.6413 943.5883,-291.3733 935.1415,-284.9779 932.9969,-291.6413"/>
</g>
<!-- Node27 -->
<g id="node24" class="node">
<title>Node27</title>
<g id="a_node24"><a xlink:href="_coriolis_forcing_8cpp.html" target="_top" xlink:title="CoriolisForcing.cpp">
<polygon fill="#ffffff" stroke="#000000" points="859,-235.5 859,-254.5 960,-254.5 960,-235.5 859,-235.5"/>
<text text-anchor="middle" x="909.5" y="-242.5" font-family="Helvetica,sans-Serif" font-size="10.00" fill="#000000">CoriolisForcing.cpp</text>
</a>
</g>
</g>
<!-- Node4&#45;&gt;Node27 -->
<g id="edge26" class="edge">
<title>Node4&#45;&gt;Node27</title>
<path fill="none" stroke="#191970" d="M954.8086,-284.645C943.6781,-274.9058 929.9337,-262.8795 920.5202,-254.6427"/>
<polygon fill="#191970" stroke="#191970" points="952.5215,-287.2945 962.3521,-291.2455 957.131,-282.0264 952.5215,-287.2945"/>
</g>
<!-- Node28 -->
<g id="node25" class="node">
<title>Node28</title>
<g id="a_node25"><a xlink:href="_geostrophic_forcing_8cpp.html" target="_top" xlink:title="GeostrophicForcing.cpp">
<polygon fill="#ffffff" stroke="#000000" points="978.5,-235.5 978.5,-254.5 1098.5,-254.5 1098.5,-235.5 978.5,-235.5"/>
<text text-anchor="middle" x="1038.5" y="-242.5" font-family="Helvetica,sans-Serif" font-size="10.00" fill="#000000">GeostrophicForcing.cpp</text>
</a>
</g>
</g>
<!-- Node4&#45;&gt;Node28 -->
<g id="edge27" class="edge">
<title>Node4&#45;&gt;Node28</title>
<path fill="none" stroke="#191970" d="M992.4835,-284.645C1003.7879,-274.9058 1017.747,-262.8795 1027.3076,-254.6427"/>
<polygon fill="#191970" stroke="#191970" points="990.1138,-282.0668 984.8221,-291.2455 994.6827,-287.3701 990.1138,-282.0668"/>
</g>
<!-- Node29 -->
<g id="node26" class="node">
<title>Node29</title>
<g id="a_node26"><a xlink:href="_convecting_taylor_vortex_8cpp.html" target="_top" xlink:title="ConvectingTaylorVortex.cpp">
<polygon fill="#ffffff" stroke="#000000" points="1116.5,-235.5 1116.5,-254.5 1256.5,-254.5 1256.5,-235.5 1116.5,-235.5"/>
<text text-anchor="middle" x="1186.5" y="-242.5" font-family="Helvetica,sans-Serif" font-size="10.00" fill="#000000">ConvectingTaylorVortex.cpp</text>
</a>
</g>
</g>
<!-- Node4&#45;&gt;Node29 -->
<g id="edge28" class="edge">
<title>Node4&#45;&gt;Node29</title>
<path fill="none" stroke="#191970" d="M1014.7348,-290.1589C1054.069,-279.8175 1112.7342,-264.3938 1150.3034,-254.5165"/>
<polygon fill="#191970" stroke="#191970" points="1013.7103,-286.8093 1004.9289,-292.737 1015.4902,-293.5792 1013.7103,-286.8093"/>
</g>
<!-- Node30 -->
<g id="node27" class="node">
<title>Node30</title>
<g id="a_node27"><a xlink:href="_ekman_spiral_8cpp.html" target="_top" xlink:title="EkmanSpiral.cpp">
<polygon fill="#ffffff" stroke="#000000" points="1275,-235.5 1275,-254.5 1366,-254.5 1366,-235.5 1275,-235.5"/>
<text text-anchor="middle" x="1320.5" y="-242.5" font-family="Helvetica,sans-Serif" font-size="10.00" fill="#000000">EkmanSpiral.cpp</text>
</a>
</g>
</g>
<!-- Node4&#45;&gt;Node30 -->
<g id="edge29" class="edge">
<title>Node4&#45;&gt;Node30</title>
<path fill="none" stroke="#191970" d="M1014.6405,-294.832C1071.2172,-286.2782 1176.19,-270.1516 1265.5,-255 1268.5619,-254.4805 1271.7177,-253.9347 1274.8961,-253.3772"/>
<polygon fill="#191970" stroke="#191970" points="1014.02,-291.3859 1004.6543,-296.3391 1015.0647,-298.3075 1014.02,-291.3859"/>
</g>
<!-- Node31 -->
<g id="node28" class="node">
<title>Node31</title>
<g id="a_node28"><a xlink:href="_free_stream_8cpp.html" target="_top" xlink:title="FreeStream.cpp">
<polygon fill="#ffffff" stroke="#000000" points="1384.5,-235.5 1384.5,-254.5 1470.5,-254.5 1470.5,-235.5 1384.5,-235.5"/>
<text text-anchor="middle" x="1427.5" y="-242.5" font-family="Helvetica,sans-Serif" font-size="10.00" fill="#000000">FreeStream.cpp</text>
</a>
</g>
</g>
<!-- Node4&#45;&gt;Node31 -->
<g id="edge30" class="edge">
<title>Node4&#45;&gt;Node31</title>
<path fill="none" stroke="#191970" d="M1014.7757,-297.322C1087.763,-290.5856 1244.2928,-275.0932 1375.5,-255 1378.4079,-254.5547 1381.4014,-254.0644 1384.4135,-253.5475"/>
<polygon fill="#191970" stroke="#191970" points="1014.2651,-293.854 1004.6262,-298.2519 1014.9039,-300.8249 1014.2651,-293.854"/>
</g>
<!-- Node32 -->
<g id="node29" class="node">
<title>Node32</title>
<g id="a_node29"><a xlink:href="_taylor_green_vortex_8cpp.html" target="_top" xlink:title="TaylorGreenVortex.cpp">
<polygon fill="#ffffff" stroke="#000000" points="1489,-235.5 1489,-254.5 1606,-254.5 1606,-235.5 1489,-235.5"/>
<text text-anchor="middle" x="1547.5" y="-242.5" font-family="Helvetica,sans-Serif" font-size="10.00" fill="#000000">TaylorGreenVortex.cpp</text>
</a>
</g>
</g>
<!-- Node4&#45;&gt;Node32 -->
<g id="edge31" class="edge">
<title>Node4&#45;&gt;Node32</title>
<path fill="none" stroke="#191970" d="M1014.8339,-298.0217C1101.2592,-291.623 1307.335,-275.469 1479.5,-255 1482.5808,-254.6337 1485.7372,-254.2387 1488.922,-253.8245"/>
<polygon fill="#191970" stroke="#191970" points="1014.3714,-294.5462 1004.6554,-298.7711 1014.8854,-301.5273 1014.3714,-294.5462"/>
</g>
<!-- Node6 -->
<g id="node3" class="node">
<title>Node6</title>
<g id="a_node3"><a xlink:href="_a_b_l_wall_function_8_h.html" target="_top" xlink:title="ABLWallFunction.H">
<polygon fill="#ffffff" stroke="#000000" points="433,-179.5 433,-198.5 536,-198.5 536,-179.5 433,-179.5"/>
<text text-anchor="middle" x="484.5" y="-186.5" font-family="Helvetica,sans-Serif" font-size="10.00" fill="#000000">ABLWallFunction.H</text>
</a>
</g>
</g>
<!-- Node5&#45;&gt;Node6 -->
<g id="edge2" class="edge">
<title>Node5&#45;&gt;Node6</title>
<path fill="none" stroke="#191970" d="M562.9778,-230.46C544.0092,-220.4388 519.3273,-207.3993 502.7522,-198.6427"/>
<polygon fill="#191970" stroke="#191970" points="561.5593,-233.669 572.0362,-235.2455 564.8292,-227.4796 561.5593,-233.669"/>
</g>
<!-- Node18 -->
<g id="node15" class="node">
<title>Node18</title>
<g id="a_node15"><a xlink:href="_m_o_data_8cpp.html" target="_top" xlink:title="MOData.cpp">
<polygon fill="#ffffff" stroke="#000000" points="554.5,-179.5 554.5,-198.5 626.5,-198.5 626.5,-179.5 554.5,-179.5"/>
<text text-anchor="middle" x="590.5" y="-186.5" font-family="Helvetica,sans-Serif" font-size="10.00" fill="#000000">MOData.cpp</text>
</a>
</g>
</g>
<!-- Node5&#45;&gt;Node18 -->
<g id="edge16" class="edge">
<title>Node5&#45;&gt;Node18</title>
<path fill="none" stroke="#191970" d="M590.5,-225.1575C590.5,-216.155 590.5,-205.9199 590.5,-198.6427"/>
<polygon fill="#191970" stroke="#191970" points="587.0001,-225.2455 590.5,-235.2455 594.0001,-225.2456 587.0001,-225.2455"/>
</g>
<!-- Node7 -->
<g id="node4" class="node">
<title>Node7</title>
<g id="a_node4"><a xlink:href="_a_b_l_8_h.html" target="_top" xlink:title="ABL.H">
<polygon fill="#ffffff" stroke="#000000" points="335.5,-67.5 335.5,-86.5 381.5,-86.5 381.5,-67.5 335.5,-67.5"/>
<text text-anchor="middle" x="358.5" y="-74.5" font-family="Helvetica,sans-Serif" font-size="10.00" fill="#000000">ABL.H</text>
</a>
</g>
</g>
<!-- Node6&#45;&gt;Node7 -->
<g id="edge3" class="edge">
<title>Node6&#45;&gt;Node7</title>
<path fill="none" stroke="#191970" d="M494.9012,-170.2162C501.2239,-156.0121 506.3633,-136.6847 496.5,-123 482.878,-104.1004 417.2118,-88.5498 381.5937,-81.3376"/>
<polygon fill="#191970" stroke="#191970" points="491.6037,-168.987 490.2858,-179.4996 497.8717,-172.1034 491.6037,-168.987"/>
</g>
<!-- Node6&#45;&gt;Node14 -->
<g id="edge15" class="edge">
<title>Node6&#45;&gt;Node14</title>
<path fill="none" stroke="#191970" d="M499.8601,-171.6949C531.8572,-135.6463 604.7601,-53.5121 629.8374,-25.2595"/>
<polygon fill="#191970" stroke="#191970" points="497.0198,-169.6225 492.9991,-179.4248 502.255,-174.2693 497.0198,-169.6225"/>
</g>
<!-- Node15 -->
<g id="node12" class="node">
<title>Node15</title>
<g id="a_node12"><a xlink:href="_a_b_l_stats_8_h.html" target="_top" xlink:title="ABLStats.H">
<polygon fill="#ffffff" stroke="#000000" points="284,-123.5 284,-142.5 353,-142.5 353,-123.5 284,-123.5"/>
<text text-anchor="middle" x="318.5" y="-130.5" font-family="Helvetica,sans-Serif" font-size="10.00" fill="#000000">ABLStats.H</text>
</a>
</g>
</g>
<!-- Node6&#45;&gt;Node15 -->
<g id="edge11" class="edge">
<title>Node6&#45;&gt;Node15</title>
<path fill="none" stroke="#191970" d="M446.1333,-176.057C415.7534,-165.8084 374.0181,-151.729 346.664,-142.5011"/>
<polygon fill="#191970" stroke="#191970" points="445.3694,-179.4931 455.9636,-179.3733 447.607,-172.8603 445.3694,-179.4931"/>
</g>
<!-- Node17 -->
<g id="node14" class="node">
<title>Node17</title>
<g id="a_node14"><a xlink:href="_boussinesq_bubble_8cpp.html" target="_top" xlink:title="BoussinesqBubble.cpp">
<polygon fill="#ffffff" stroke="#000000" points="371.5,-123.5 371.5,-142.5 487.5,-142.5 487.5,-123.5 371.5,-123.5"/>
<text text-anchor="middle" x="429.5" y="-130.5" font-family="Helvetica,sans-Serif" font-size="10.00" fill="#000000">BoussinesqBubble.cpp</text>
</a>
</g>
</g>
<!-- Node6&#45;&gt;Node17 -->
<g id="edge14" class="edge">
<title>Node6&#45;&gt;Node17</title>
<path fill="none" stroke="#191970" d="M467.8774,-172.0751C458.4145,-162.4402 446.9031,-150.7196 438.9705,-142.6427"/>
<polygon fill="#191970" stroke="#191970" points="465.4155,-174.5635 474.9197,-179.2455 470.4097,-169.6585 465.4155,-174.5635"/>
</g>
<!-- Node8 -->
<g id="node5" class="node">
<title>Node8</title>
<g id="a_node5"><a xlink:href="incflo__set__velocity__bcs_8cpp.html" target="_top" xlink:title="incflo_set_velocity\l_bcs.cpp">
<polygon fill="#ffffff" stroke="#000000" points="215.5,-.5 215.5,-30.5 313.5,-30.5 313.5,-.5 215.5,-.5"/>
<text text-anchor="start" x="223.5" y="-18.5" font-family="Helvetica,sans-Serif" font-size="10.00" fill="#000000">incflo_set_velocity</text>
<text text-anchor="middle" x="264.5" y="-7.5" font-family="Helvetica,sans-Serif" font-size="10.00" fill="#000000">_bcs.cpp</text>
</a>
</g>
</g>
<!-- Node7&#45;&gt;Node8 -->
<g id="edge4" class="edge">
<title>Node7&#45;&gt;Node8</title>
<path fill="none" stroke="#191970" d="M335.3507,-61.8545C320.7766,-52.3193 302.0396,-40.0605 287.495,-30.5446"/>
<polygon fill="#191970" stroke="#191970" points="333.5281,-64.8445 343.8125,-67.3906 337.3606,-58.9868 333.5281,-64.8445"/>
</g>
<!-- Node9 -->
<g id="node6" class="node">
<title>Node9</title>
<g id="a_node6"><a xlink:href="_a_b_l_forcing_8cpp.html" target="_top" xlink:title="ABLForcing.cpp">
<polygon fill="#ffffff" stroke="#000000" points="331.5,-6 331.5,-25 417.5,-25 417.5,-6 331.5,-6"/>
<text text-anchor="middle" x="374.5" y="-13" font-family="Helvetica,sans-Serif" font-size="10.00" fill="#000000">ABLForcing.cpp</text>
</a>
</g>
</g>
<!-- Node7&#45;&gt;Node9 -->
<g id="edge5" class="edge">
<title>Node7&#45;&gt;Node9</title>
<path fill="none" stroke="#191970" d="M363.5515,-57.5832C366.3516,-46.8205 369.7119,-33.9042 371.9648,-25.2449"/>
<polygon fill="#191970" stroke="#191970" points="360.1306,-56.8315 361,-67.3906 366.9051,-58.594 360.1306,-56.8315"/>
</g>
<!-- Node10 -->
<g id="node7" class="node">
<title>Node10</title>
<g id="a_node7"><a xlink:href="_a_b_l_mean_boussinesq_8cpp.html" target="_top" xlink:title="ABLMeanBoussinesq.cpp">
<polygon fill="#ffffff" stroke="#000000" points="436,-6 436,-25 565,-25 565,-6 436,-6"/>
<text text-anchor="middle" x="500.5" y="-13" font-family="Helvetica,sans-Serif" font-size="10.00" fill="#000000">ABLMeanBoussinesq.cpp</text>
</a>
</g>
</g>
<!-- Node7&#45;&gt;Node10 -->
<g id="edge6" class="edge">
<title>Node7&#45;&gt;Node10</title>
<path fill="none" stroke="#191970" d="M390.0337,-63.3428C416.8841,-51.7139 454.7711,-35.3051 478.4683,-25.0419"/>
<polygon fill="#191970" stroke="#191970" points="388.4728,-60.2046 380.6875,-67.3906 391.2549,-66.628 388.4728,-60.2046"/>
</g>
<!-- Node11 -->
<g id="node8" class="node">
<title>Node11</title>
<g id="a_node8"><a xlink:href="incflo_8cpp.html" target="_top" xlink:title="incflo.cpp">
<polygon fill="#ffffff" stroke="#000000" points="0,-6 0,-25 59,-25 59,-6 0,-6"/>
<text text-anchor="middle" x="29.5" y="-13" font-family="Helvetica,sans-Serif" font-size="10.00" fill="#000000">incflo.cpp</text>
</a>
</g>
</g>
<!-- Node7&#45;&gt;Node11 -->
<g id="edge7" class="edge">
<title>Node7&#45;&gt;Node11</title>
<path fill="none" stroke="#191970" d="M325.3455,-67.3108C211.0042,-43.1667 176.9496,-59.7029 68.5,-31 62.7244,-29.4714 56.6473,-27.3317 51.0546,-25.1293"/>
<polygon fill="#191970" stroke="#191970" points="324.6677,-70.7451 335.1825,-69.4454 326.1522,-63.9043 324.6677,-70.7451"/>
</g>
<!-- Node12 -->
<g id="node9" class="node">
<title>Node12</title>
<g id="a_node9"><a xlink:href="init_8cpp.html" target="_top" xlink:title="init.cpp">
<polygon fill="#ffffff" stroke="#000000" points="77.5,-6 77.5,-25 125.5,-25 125.5,-6 77.5,-6"/>
<text text-anchor="middle" x="101.5" y="-13" font-family="Helvetica,sans-Serif" font-size="10.00" fill="#000000">init.cpp</text>
</a>
</g>
</g>
<!-- Node7&#45;&gt;Node12 -->
<g id="edge8" class="edge">
<title>Node7&#45;&gt;Node12</title>
<path fill="none" stroke="#191970" d="M325.2723,-67.2065C239.7233,-47.1992 213.7245,-56.6142 134.5,-31 129.5614,-29.4033 124.4008,-27.2392 119.6671,-25.035"/>
<polygon fill="#191970" stroke="#191970" points="324.6089,-70.6467 335.1503,-69.584 326.2469,-63.841 324.6089,-70.6467"/>
</g>
<!-- Node13 -->
<g id="node10" class="node">
<title>Node13</title>
<g id="a_node10"><a xlink:href="_a_b_l_8cpp.html" target="_top" xlink:title="ABL.cpp">
<polygon fill="#ffffff" stroke="#000000" points="143.5,-6 143.5,-25 197.5,-25 197.5,-6 143.5,-6"/>
<text text-anchor="middle" x="170.5" y="-13" font-family="Helvetica,sans-Serif" font-size="10.00" fill="#000000">ABL.cpp</text>
</a>
</g>
</g>
<!-- Node7&#45;&gt;Node13 -->
<g id="edge9" class="edge">
<title>Node7&#45;&gt;Node13</title>
<path fill="none" stroke="#191970" d="M325.8013,-67.0912C325.7007,-67.0608 325.6003,-67.0304 325.5,-67 272.6148,-50.9877 258.4029,-49.9559 206.5,-31 201.6423,-29.2259 196.496,-27.139 191.6606,-25.0815"/>
<polygon fill="#191970" stroke="#191970" points="324.8363,-70.4559 335.4215,-70.005 326.8655,-63.7564 324.8363,-70.4559"/>
</g>
<!-- Node7&#45;&gt;Node14 -->
<g id="edge10" class="edge">
<title>Node7&#45;&gt;Node14</title>
<path fill="none" stroke="#191970" d="M391.7817,-70.1303C434.0804,-61.3417 509.3177,-45.5165 573.5,-31 581.7602,-29.1318 590.5949,-27.0686 599.0048,-25.0737"/>
<polygon fill="#191970" stroke="#191970" points="390.8451,-66.75 381.7643,-72.208 392.2667,-73.6041 390.8451,-66.75"/>
</g>
<!-- Node15&#45;&gt;Node7 -->
<g id="edge12" class="edge">
<title>Node15&#45;&gt;Node7</title>
<path fill="none" stroke="#191970" d="M331.4136,-114.9209C338.1303,-105.5176 346.0717,-94.3997 351.6124,-86.6427"/>
<polygon fill="#191970" stroke="#191970" points="328.4318,-113.0738 325.4675,-123.2455 334.128,-117.1425 328.4318,-113.0738"/>
</g>
<!-- Node16 -->
<g id="node13" class="node">
<title>Node16</title>
<g id="a_node13"><a xlink:href="_a_b_l_stats_8cpp.html" target="_top" xlink:title="ABLStats.cpp">
<polygon fill="#ffffff" stroke="#000000" points="240,-67.5 240,-86.5 317,-86.5 317,-67.5 240,-67.5"/>
<text text-anchor="middle" x="278.5" y="-74.5" font-family="Helvetica,sans-Serif" font-size="10.00" fill="#000000">ABLStats.cpp</text>
</a>
</g>
</g>
<!-- Node15&#45;&gt;Node16 -->
<g id="edge13" class="edge">
<title>Node15&#45;&gt;Node16</title>
<path fill="none" stroke="#191970" d="M305.5864,-114.9209C298.8697,-105.5176 290.9283,-94.3997 285.3876,-86.6427"/>
<polygon fill="#191970" stroke="#191970" points="302.872,-117.1425 311.5325,-123.2455 308.5682,-113.0738 302.872,-117.1425"/>
</g>
<!-- Node20 -->
<g id="node17" class="node">
<title>Node20</title>
<g id="a_node17"><a xlink:href="tensor_8_h.html" target="_top" xlink:title="tensor.H">
<polygon fill="#ffffff" stroke="#000000" points="684.5,-179.5 684.5,-198.5 738.5,-198.5 738.5,-179.5 684.5,-179.5"/>
<text text-anchor="middle" x="711.5" y="-186.5" font-family="Helvetica,sans-Serif" font-size="10.00" fill="#000000">tensor.H</text>
</a>
</g>
</g>
<!-- Node19&#45;&gt;Node20 -->
<g id="edge18" class="edge">
<title>Node19&#45;&gt;Node20</title>
<path fill="none" stroke="#191970" d="M705.0113,-225.1575C704.419,-216.155 704.8335,-205.9199 706.2549,-198.6427"/>
<polygon fill="#191970" stroke="#191970" points="701.5561,-225.739 706.2332,-235.2455 708.5053,-224.8972 701.5561,-225.739"/>
</g>
<!-- Node20&#45;&gt;Node19 -->
<g id="edge19" class="edge">
<title>Node20&#45;&gt;Node19</title>
<path fill="none" stroke="#191970" d="M717.9795,-208.7046C718.5821,-217.6944 718.1779,-227.9382 716.7668,-235.2455"/>
<polygon fill="#191970" stroke="#191970" points="721.4368,-208.1421 716.7451,-198.6427 714.4889,-208.9945 721.4368,-208.1421"/>
</g>
<!-- Node21 -->
<g id="node18" class="node">
<title>Node21</title>
<g id="a_node18"><a xlink:href="vector__space_8_h.html" target="_top" xlink:title="vector_space.H">
<polygon fill="#ffffff" stroke="#000000" points="711.5,-123.5 711.5,-142.5 797.5,-142.5 797.5,-123.5 711.5,-123.5"/>
<text text-anchor="middle" x="754.5" y="-130.5" font-family="Helvetica,sans-Serif" font-size="10.00" fill="#000000">vector_space.H</text>
</a>
</g>
</g>
<!-- Node20&#45;&gt;Node21 -->
<g id="edge20" class="edge">
<title>Node20&#45;&gt;Node21</title>
<path fill="none" stroke="#191970" d="M725.1592,-171.2112C732.4263,-161.7472 741.0781,-150.4797 747.0958,-142.6427"/>
<polygon fill="#191970" stroke="#191970" points="722.3043,-169.1824 718.99,-179.2455 727.8564,-173.4456 722.3043,-169.1824"/>
</g>
<!-- Node22 -->
<g id="node19" class="node">
<title>Node22</title>
<g id="a_node19"><a xlink:href="_box_refiner_8_h.html" target="_top" xlink:title="BoxRefiner.H">
<polygon fill="#ffffff" stroke="#000000" points="716.5,-67.5 716.5,-86.5 792.5,-86.5 792.5,-67.5 716.5,-67.5"/>
<text text-anchor="middle" x="754.5" y="-74.5" font-family="Helvetica,sans-Serif" font-size="10.00" fill="#000000">BoxRefiner.H</text>
</a>
</g>
</g>
<!-- Node21&#45;&gt;Node22 -->
<g id="edge21" class="edge">
<title>Node21&#45;&gt;Node22</title>
<path fill="none" stroke="#191970" d="M754.5,-113.1575C754.5,-104.155 754.5,-93.9199 754.5,-86.6427"/>
<polygon fill="#191970" stroke="#191970" points="751.0001,-113.2455 754.5,-123.2455 758.0001,-113.2456 751.0001,-113.2455"/>
</g>
<!-- Node24 -->
<g id="node21" class="node">
<title>Node24</title>
<g id="a_node21"><a xlink:href="_cylinder_refiner_8_h.html" target="_top" xlink:title="CylinderRefiner.H">
<polygon fill="#ffffff" stroke="#000000" points="815,-67.5 815,-86.5 910,-86.5 910,-67.5 815,-67.5"/>
<text text-anchor="middle" x="862.5" y="-74.5" font-family="Helvetica,sans-Serif" font-size="10.00" fill="#000000">CylinderRefiner.H</text>
</a>
</g>
</g>
<!-- Node21&#45;&gt;Node24 -->
<g id="edge23" class="edge">
<title>Node21&#45;&gt;Node24</title>
<path fill="none" stroke="#191970" d="M782.2771,-118.5971C801.6382,-108.558 826.9385,-95.4393 843.9034,-86.6427"/>
<polygon fill="#191970" stroke="#191970" points="780.5786,-115.5352 773.3122,-123.2455 783.8008,-121.7495 780.5786,-115.5352"/>
</g>
<!-- Node23 -->
<g id="node20" class="node">
<title>Node23</title>
<g id="a_node20"><a xlink:href="_box_refiner_8cpp.html" target="_top" xlink:title="BoxRefiner.cpp">
<polygon fill="#ffffff" stroke="#000000" points="712.5,-6 712.5,-25 796.5,-25 796.5,-6 712.5,-6"/>
<text text-anchor="middle" x="754.5" y="-13" font-family="Helvetica,sans-Serif" font-size="10.00" fill="#000000">BoxRefiner.cpp</text>
</a>
</g>
</g>
<!-- Node22&#45;&gt;Node23 -->
<g id="edge22" class="edge">
<title>Node22&#45;&gt;Node23</title>
<path fill="none" stroke="#191970" d="M754.5,-57.2462C754.5,-46.5519 754.5,-33.814 754.5,-25.2449"/>
<polygon fill="#191970" stroke="#191970" points="751.0001,-57.3906 754.5,-67.3906 758.0001,-57.3907 751.0001,-57.3906"/>
</g>
<!-- Node25 -->
<g id="node22" class="node">
<title>Node25</title>
<g id="a_node22"><a xlink:href="_cylinder_refiner_8cpp.html" target="_top" xlink:title="CylinderRefiner.cpp">
<polygon fill="#ffffff" stroke="#000000" points="815,-6 815,-25 918,-25 918,-6 815,-6"/>
<text text-anchor="middle" x="866.5" y="-13" font-family="Helvetica,sans-Serif" font-size="10.00" fill="#000000">CylinderRefiner.cpp</text>
</a>
</g>
</g>
<!-- Node24&#45;&gt;Node25 -->
<g id="edge24" class="edge">
<title>Node24&#45;&gt;Node25</title>
<path fill="none" stroke="#191970" d="M863.7848,-57.2462C864.4804,-46.5519 865.3088,-33.814 865.8662,-25.2449"/>
<polygon fill="#191970" stroke="#191970" points="860.2815,-57.1845 863.125,-67.3906 867.2667,-57.6389 860.2815,-57.1845"/>
</g>
</g>
</svg>
        <g id="navigator" transform="translate(0 0)" fill="#404254">
                <rect fill="#f2f5e9" fill-opacity="0.5" stroke="#606060" stroke-width=".5" x="0" y="0" width="60" height="60"/>
                <use id="zoomplus" xlink:href="#zoomPlus" x="17" y="9" onmousedown="handleZoom(evt,'in')"/>
                <use id="zoomminus" xlink:href="#zoomMin" x="42" y="9" onmousedown="handleZoom(evt,'out')"/>
                <use id="reset" xlink:href="#resetDef" x="30" y="36" onmousedown="handleReset()"/>
                <g id="arrowUp" xlink:href="#dirArrow" transform="translate(30 24)" onmousedown="handlePan(0,-1)">
                  <use xlink:href="#rim" fill="#404040">
                        <set attributeName="fill" to="#808080" begin="arrowUp.mouseover" end="arrowUp.mouseout"/>
                  </use>
                  <path fill="none" stroke="white" stroke-width="1.5" d="M0,-3.0v7 M-2.5,-0.5L0,-3.0L2.5,-0.5"/>
                </g>
                <g id="arrowRight" xlink:href="#dirArrow" transform="rotate(90) translate(36 -43)" onmousedown="handlePan(1,0)">
                  <use xlink:href="#rim" fill="#404040">
                        <set attributeName="fill" to="#808080" begin="arrowRight.mouseover" end="arrowRight.mouseout"/>
                  </use>
                  <path fill="none" stroke="white" stroke-width="1.5" d="M0,-3.0v7 M-2.5,-0.5L0,-3.0L2.5,-0.5"/>
                </g>
                <g id="arrowDown" xlink:href="#dirArrow" transform="rotate(180) translate(-30 -48)" onmousedown="handlePan(0,1)">
                  <use xlink:href="#rim" fill="#404040">
                        <set attributeName="fill" to="#808080" begin="arrowDown.mouseover" end="arrowDown.mouseout"/>
                  </use>
                  <path fill="none" stroke="white" stroke-width="1.5" d="M0,-3.0v7 M-2.5,-0.5L0,-3.0L2.5,-0.5"/>
                </g>
                <g id="arrowLeft" xlink:href="#dirArrow" transform="rotate(270) translate(-36 17)" onmousedown="handlePan(-1,0)">
                  <use xlink:href="#rim" fill="#404040">
                        <set attributeName="fill" to="#808080" begin="arrowLeft.mouseover" end="arrowLeft.mouseout"/>
                  </use>
                  <path fill="none" stroke="white" stroke-width="1.5" d="M0,-3.0v7 M-2.5,-0.5L0,-3.0L2.5,-0.5"/>
                </g>
        </g>
        <svg viewBox="0 0 15 15" width="100%" height="30px" preserveAspectRatio="xMaxYMin meet">
         <g id="arrow_out" transform="scale(0.3 0.3)">
          <a xlink:href="trig__ops_8_h__dep__incl_org.svg" target="_base">
           <rect id="button" ry="5" rx="5" y="6" x="6" height="38" width="38"
                fill="#f2f5e9" fill-opacity="0.5" stroke="#606060" stroke-width="1.0"/>
           <path id="arrow"
             d="M 11.500037,31.436501 C 11.940474,20.09759 22.043105,11.32322 32.158766,21.979434 L 37.068811,17.246167 C 37.068811,17.246167 37.088388,32 37.088388,32 L 22.160133,31.978069 C 22.160133,31.978069 26.997745,27.140456 26.997745,27.140456 C 18.528582,18.264221 13.291696,25.230495 11.500037,31.436501 z"
             style="fill:#404040;"/>
          </a>
         </g>
        </svg>
</svg>
