<?xml version="1.0" encoding="UTF-8" standalone="no"?>
<!DOCTYPE svg PUBLIC "-//W3C//DTD SVG 1.1//EN"
 "http://www.w3.org/Graphics/SVG/1.1/DTD/svg11.dtd">
<!-- Generated by graphviz version 2.40.1 (20161225.0304)
 -->
<!-- Title: vector.H Pages: 1 -->
<svg width="330pt" height="252pt"
 viewBox="0.00 0.00 330.00 252.00" xmlns="http://www.w3.org/2000/svg" xmlns:xlink="http://www.w3.org/1999/xlink">
<g id="graph0" class="graph" transform="scale(1 1) rotate(0) translate(4 248)">
<title>vector.H</title>
<polygon fill="#ffffff" stroke="transparent" points="-4,4 -4,-248 326,-248 326,4 -4,4"/>
<!-- Node8 -->
<g id="node1" class="node">
<title>Node8</title>
<polygon fill="#bfbfbf" stroke="#000000" points="139.5,-224.5 139.5,-243.5 193.5,-243.5 193.5,-224.5 139.5,-224.5"/>
<text text-anchor="middle" x="166.5" y="-231.5" font-family="Helvetica,sans-Serif" font-size="10.00" fill="#000000">vector.H</text>
</g>
<!-- Node9 -->
<g id="node2" class="node">
<title>Node9</title>
<g id="a_node2"><a xlink:href="tensor_8_h.html" target="_top" xlink:title="tensor.H">
<polygon fill="#ffffff" stroke="#000000" points="18.5,-168.5 18.5,-187.5 72.5,-187.5 72.5,-168.5 18.5,-168.5"/>
<text text-anchor="middle" x="45.5" y="-175.5" font-family="Helvetica,sans-Serif" font-size="10.00" fill="#000000">tensor.H</text>
</a>
</g>
</g>
<!-- Node8&#45;&gt;Node9 -->
<g id="edge1" class="edge">
<title>Node8&#45;&gt;Node9</title>
<path fill="none" stroke="#191970" d="M136.4896,-220.1109C114.5475,-209.9559 85.3612,-196.4482 66.0292,-187.5011"/>
<polygon fill="#191970" stroke="#191970" points="135.1541,-223.3494 145.6994,-224.3733 138.0942,-216.9968 135.1541,-223.3494"/>
</g>
<!-- Node11 -->
<g id="node4" class="node">
<title>Node11</title>
<g id="a_node4"><a xlink:href="vector__space_8_h.html" target="_top" xlink:title="vector_space.H">
<polygon fill="#ffffff" stroke="#000000" points="75.5,-112.5 75.5,-131.5 161.5,-131.5 161.5,-112.5 75.5,-112.5"/>
<text text-anchor="middle" x="118.5" y="-119.5" font-family="Helvetica,sans-Serif" font-size="10.00" fill="#000000">vector_space.H</text>
</a>
</g>
</g>
<!-- Node8&#45;&gt;Node11 -->
<g id="edge11" class="edge">
<title>Node8&#45;&gt;Node11</title>
<path fill="none" stroke="#191970" d="M148.549,-216.8711C141.1706,-208.8105 133.2562,-198.6387 128.5,-188 120.1754,-169.3793 118.5705,-145.1667 118.3805,-131.8523"/>
<polygon fill="#191970" stroke="#191970" points="146.1419,-219.4166 155.6119,-224.1672 151.1713,-214.5479 146.1419,-219.4166"/>
</g>
<!-- Node16 -->
<g id="node9" class="node">
<title>Node16</title>
<g id="a_node9"><a xlink:href="vector_i_8_h.html" target="_top" xlink:title="vectorI.H">
<polygon fill="#ffffff" stroke="#000000" points="138,-168.5 138,-187.5 195,-187.5 195,-168.5 138,-168.5"/>
<text text-anchor="middle" x="166.5" y="-175.5" font-family="Helvetica,sans-Serif" font-size="10.00" fill="#000000">vectorI.H</text>
</a>
</g>
</g>
<!-- Node8&#45;&gt;Node16 -->
<g id="edge9" class="edge">
<title>Node8&#45;&gt;Node16</title>
<path fill="none" stroke="#191970" d="M160.0113,-214.1575C159.419,-205.155 159.8335,-194.9199 161.2549,-187.6427"/>
<polygon fill="#191970" stroke="#191970" points="156.5561,-214.739 161.2332,-224.2455 163.5053,-213.8972 156.5561,-214.739"/>
</g>
<!-- Node17 -->
<g id="node10" class="node">
<title>Node17</title>
<g id="a_node10"><a xlink:href="_power_law_profile_8cpp.html" target="_top" xlink:title="PowerLawProfile.cpp">
<polygon fill="#ffffff" stroke="#000000" points="213,-168.5 213,-187.5 322,-187.5 322,-168.5 213,-168.5"/>
<text text-anchor="middle" x="267.5" y="-175.5" font-family="Helvetica,sans-Serif" font-size="10.00" fill="#000000">PowerLawProfile.cpp</text>
</a>
</g>
</g>
<!-- Node8&#45;&gt;Node17 -->
<g id="edge12" class="edge">
<title>Node8&#45;&gt;Node17</title>
<path fill="none" stroke="#191970" d="M192.9719,-219.3225C211.0125,-209.3198 234.3877,-196.3593 250.1087,-187.6427"/>
<polygon fill="#191970" stroke="#191970" points="191.1413,-216.3354 184.0929,-224.2455 194.5357,-222.4574 191.1413,-216.3354"/>
</g>
<!-- Node10 -->
<g id="node3" class="node">
<title>Node10</title>
<g id="a_node3"><a xlink:href="tensor_i_8_h.html" target="_top" xlink:title="tensorI.H">
<polygon fill="#ffffff" stroke="#000000" points="0,-112.5 0,-131.5 57,-131.5 57,-112.5 0,-112.5"/>
<text text-anchor="middle" x="28.5" y="-119.5" font-family="Helvetica,sans-Serif" font-size="10.00" fill="#000000">tensorI.H</text>
</a>
</g>
</g>
<!-- Node9&#45;&gt;Node10 -->
<g id="edge2" class="edge">
<title>Node9&#45;&gt;Node10</title>
<path fill="none" stroke="#191970" d="M33.3186,-159.0437C29.8421,-149.8331 26.9959,-139.1598 26.1821,-131.6427"/>
<polygon fill="#191970" stroke="#191970" points="30.1087,-160.4392 37.272,-168.2455 36.5403,-157.676 30.1087,-160.4392"/>
</g>
<!-- Node9&#45;&gt;Node11 -->
<g id="edge4" class="edge">
<title>Node9&#45;&gt;Node11</title>
<path fill="none" stroke="#191970" d="M66.451,-161.928C79.2107,-152.1397 95.0885,-139.9595 105.9301,-131.6427"/>
<polygon fill="#191970" stroke="#191970" points="64.0196,-159.3819 58.2156,-168.2455 68.2803,-164.9359 64.0196,-159.3819"/>
</g>
<!-- Node10&#45;&gt;Node9 -->
<g id="edge3" class="edge">
<title>Node10&#45;&gt;Node9</title>
<path fill="none" stroke="#191970" d="M40.7407,-141.1137C44.173,-150.2427 46.9807,-160.7776 47.8057,-168.2455"/>
<polygon fill="#191970" stroke="#191970" points="43.8351,-139.4495 36.6724,-131.6427 37.4034,-142.2123 43.8351,-139.4495"/>
</g>
<!-- Node12 -->
<g id="node5" class="node">
<title>Node12</title>
<g id="a_node5"><a xlink:href="_box_refiner_8_h.html" target="_top" xlink:title="BoxRefiner.H">
<polygon fill="#ffffff" stroke="#000000" points="27.5,-56.5 27.5,-75.5 103.5,-75.5 103.5,-56.5 27.5,-56.5"/>
<text text-anchor="middle" x="65.5" y="-63.5" font-family="Helvetica,sans-Serif" font-size="10.00" fill="#000000">BoxRefiner.H</text>
</a>
</g>
</g>
<!-- Node11&#45;&gt;Node12 -->
<g id="edge5" class="edge">
<title>Node11&#45;&gt;Node12</title>
<path fill="none" stroke="#191970" d="M102.2104,-104.7884C93.1438,-95.2085 82.1946,-83.6396 74.6261,-75.6427"/>
<polygon fill="#191970" stroke="#191970" points="99.8522,-107.3884 109.2681,-112.2455 104.9363,-102.5767 99.8522,-107.3884"/>
</g>
<!-- Node14 -->
<g id="node7" class="node">
<title>Node14</title>
<g id="a_node7"><a xlink:href="_cylinder_refiner_8_h.html" target="_top" xlink:title="CylinderRefiner.H">
<polygon fill="#ffffff" stroke="#000000" points="124,-56.5 124,-75.5 219,-75.5 219,-56.5 124,-56.5"/>
<text text-anchor="middle" x="171.5" y="-63.5" font-family="Helvetica,sans-Serif" font-size="10.00" fill="#000000">CylinderRefiner.H</text>
</a>
</g>
</g>
<!-- Node11&#45;&gt;Node14 -->
<g id="edge7" class="edge">
<title>Node11&#45;&gt;Node14</title>
<path fill="none" stroke="#191970" d="M134.7896,-104.7884C143.8562,-95.2085 154.8054,-83.6396 162.3739,-75.6427"/>
<polygon fill="#191970" stroke="#191970" points="132.0637,-102.5767 127.7319,-112.2455 137.1478,-107.3884 132.0637,-102.5767"/>
</g>
<!-- Node13 -->
<g id="node6" class="node">
<title>Node13</title>
<g id="a_node6"><a xlink:href="_box_refiner_8cpp.html" target="_top" xlink:title="BoxRefiner.cpp">
<polygon fill="#ffffff" stroke="#000000" points="19.5,-.5 19.5,-19.5 103.5,-19.5 103.5,-.5 19.5,-.5"/>
<text text-anchor="middle" x="61.5" y="-7.5" font-family="Helvetica,sans-Serif" font-size="10.00" fill="#000000">BoxRefiner.cpp</text>
</a>
</g>
</g>
<!-- Node12&#45;&gt;Node13 -->
<g id="edge6" class="edge">
<title>Node12&#45;&gt;Node13</title>
<path fill="none" stroke="#191970" d="M64.0827,-46.1575C63.4396,-37.155 62.7086,-26.9199 62.1888,-19.6427"/>
<polygon fill="#191970" stroke="#191970" points="60.5996,-46.5204 64.8033,-56.2455 67.5818,-46.0216 60.5996,-46.5204"/>
</g>
<!-- Node15 -->
<g id="node8" class="node">
<title>Node15</title>
<g id="a_node8"><a xlink:href="_cylinder_refiner_8cpp.html" target="_top" xlink:title="CylinderRefiner.cpp">
<polygon fill="#ffffff" stroke="#000000" points="122,-.5 122,-19.5 225,-19.5 225,-.5 122,-.5"/>
<text text-anchor="middle" x="173.5" y="-7.5" font-family="Helvetica,sans-Serif" font-size="10.00" fill="#000000">CylinderRefiner.cpp</text>
</a>
</g>
</g>
<!-- Node14&#45;&gt;Node15 -->
<g id="edge8" class="edge">
<title>Node14&#45;&gt;Node15</title>
<path fill="none" stroke="#191970" d="M172.2087,-46.1575C172.5302,-37.155 172.8957,-26.9199 173.1556,-19.6427"/>
<polygon fill="#191970" stroke="#191970" points="168.7076,-46.127 171.8484,-56.2455 175.7032,-46.3769 168.7076,-46.127"/>
</g>
<!-- Node16&#45;&gt;Node8 -->
<g id="edge10" class="edge">
<title>Node16&#45;&gt;Node8</title>
<path fill="none" stroke="#191970" d="M172.9795,-197.7046C173.5821,-206.6944 173.1779,-216.9382 171.7668,-224.2455"/>
<polygon fill="#191970" stroke="#191970" points="176.4368,-197.1421 171.7451,-187.6427 169.4889,-197.9945 176.4368,-197.1421"/>
</g>
</g>
</svg>
