<?xml version="1.0" encoding="UTF-8" standalone="no"?>
<!DOCTYPE svg PUBLIC "-//W3C//DTD SVG 1.1//EN"
 "http://www.w3.org/Graphics/SVG/1.1/DTD/svg11.dtd">
<!-- Generated by graphviz version 2.40.1 (20161225.0304)
 -->
<!-- Title: velocity_bcs.H Pages: 1 -->
<!--zoomable 263 -->
<svg id="main" version="1.1" xmlns="http://www.w3.org/2000/svg" xmlns:xlink="http://www.w3.org/1999/xlink" xml:space="preserve" onload="init(evt)">
<style type="text/css"><![CDATA[
.edge:hover path { stroke: red; }
.edge:hover polygon { stroke: red; fill: red; }
]]></style>
<script type="text/javascript"><![CDATA[
var edges = document.getElementsByTagName('g');
if (edges && edges.length) {
  for (var i=0;i<edges.length;i++) {
    if (edges[i].id.substr(0,4)=='edge') {
      edges[i].setAttribute('class','edge');
    }
  }
}
]]></script>
        <defs>
                <circle id="rim" cx="0" cy="0" r="7"/>
                <circle id="rim2" cx="0" cy="0" r="3.5"/>
                <g id="zoomPlus">
                        <use xlink:href="#rim" fill="#404040">
                                <set attributeName="fill" to="#808080" begin="zoomplus.mouseover" end="zoomplus.mouseout"/>
                        </use>
                        <path d="M-4,0h8M0,-4v8" fill="none" stroke="white" stroke-width="1.5" pointer-events="none"/>
                </g>
                <g id="zoomMin">
                        <use xlink:href="#rim" fill="#404040">
                                <set attributeName="fill" to="#808080" begin="zoomminus.mouseover" end="zoomminus.mouseout"/>
                        </use>
                        <path d="M-4,0h8" fill="none" stroke="white" stroke-width="1.5" pointer-events="none"/>
                </g>
                <g id="dirArrow">
                        <path fill="none" stroke="white" stroke-width="1.5" d="M0,-3.0v7 M-2.5,-0.5L0,-3.0L2.5,-0.5"/>
                </g>
               <g id="resetDef">
                       <use xlink:href="#rim2" fill="#404040">
                               <set attributeName="fill" to="#808080" begin="reset.mouseover" end="reset.mouseout"/>
                       </use>
               </g>
        </defs>

<script type="text/javascript">
var viewWidth = 2208;
var viewHeight = 263;
var sectionId = 'dynsection-0';
</script>
<script xlink:href="svgpan.js"/>
<svg id="graph" class="graph">
<g id="viewport">
<title>velocity_bcs.H</title>
<polygon fill="#ffffff" stroke="transparent" points="-4,4 -4,-259 2204.2224,-259 2204.2224,4 -4,4"/>
<!-- Node0 -->
<g id="node1" class="node">
<title>Node0</title>
<polygon fill="#bfbfbf" stroke="#000000" points="1726.7224,-235.5 1726.7224,-254.5 1808.7224,-254.5 1808.7224,-235.5 1726.7224,-235.5"/>
<text text-anchor="middle" x="1767.7224" y="-242.5" font-family="Helvetica,sans-Serif" font-size="10.00" fill="#000000">velocity_bcs.H</text>
</g>
<!-- Node1 -->
<g id="node2" class="node">
<title>Node1</title>
<g id="a_node2"><a xlink:href="_field_b_c_ops_8_h.html" target="_top" xlink:title="amr&#45;wind/core/FieldBCOps.H">
<polygon fill="#ffffff" stroke="#000000" points="1746.2224,-174 1746.2224,-193 1891.2224,-193 1891.2224,-174 1746.2224,-174"/>
<text text-anchor="middle" x="1818.7224" y="-181" font-family="Helvetica,sans-Serif" font-size="10.00" fill="#000000">amr&#45;wind/core/FieldBCOps.H</text>
</a>
</g>
</g>
<!-- Node0&#45;&gt;Node1 -->
<g id="edge1" class="edge">
<title>Node0&#45;&gt;Node1</title>
<path fill="none" stroke="#191970" d="M1775.6912,-235.3906C1783.2815,-226.2376 1794.8885,-212.2409 1804.1356,-201.09"/>
<polygon fill="#191970" stroke="#191970" points="1806.9521,-203.1766 1810.6413,-193.2449 1801.5638,-198.7083 1806.9521,-203.1766"/>
</g>
<!-- Node16 -->
<g id="node17" class="node">
<title>Node16</title>
<g id="a_node17"><a xlink:href="_field_fill_patch_ops_8_h.html" target="_top" xlink:title="amr&#45;wind/core/FieldFillPatch\lOps.H">
<polygon fill="#ffffff" stroke="#000000" points="1345.7224,-168.5 1345.7224,-198.5 1485.7224,-198.5 1485.7224,-168.5 1345.7224,-168.5"/>
<text text-anchor="start" x="1353.7224" y="-186.5" font-family="Helvetica,sans-Serif" font-size="10.00" fill="#000000">amr&#45;wind/core/FieldFillPatch</text>
<text text-anchor="middle" x="1415.7224" y="-175.5" font-family="Helvetica,sans-Serif" font-size="10.00" fill="#000000">Ops.H</text>
</a>
</g>
</g>
<!-- Node0&#45;&gt;Node16 -->
<g id="edge21" class="edge">
<title>Node0&#45;&gt;Node16</title>
<path fill="none" stroke="#191970" d="M1726.6547,-237.8248C1670.2754,-227.9745 1567.7293,-210.058 1495.8653,-197.5022"/>
<polygon fill="#191970" stroke="#191970" points="1496.3898,-194.0409 1485.9366,-195.7675 1495.185,-200.9365 1496.3898,-194.0409"/>
</g>
<!-- Node17 -->
<g id="node18" class="node">
<title>Node17</title>
<g id="a_node18"><a xlink:href="_sim_time_8_h.html" target="_top" xlink:title="amr&#45;wind/core/SimTime.H">
<polygon fill="#ffffff" stroke="#000000" points="1652.2224,-112.5 1652.2224,-131.5 1783.2224,-131.5 1783.2224,-112.5 1652.2224,-112.5"/>
<text text-anchor="middle" x="1717.7224" y="-119.5" font-family="Helvetica,sans-Serif" font-size="10.00" fill="#000000">amr&#45;wind/core/SimTime.H</text>
</a>
</g>
</g>
<!-- Node0&#45;&gt;Node17 -->
<g id="edge57" class="edge">
<title>Node0&#45;&gt;Node17</title>
<path fill="none" stroke="#191970" d="M1760.0558,-235.3079C1753.3071,-226.3489 1743.6561,-212.4306 1737.7224,-199 1729.5481,-180.4977 1724.181,-157.9646 1721.0845,-142.0681"/>
<polygon fill="#191970" stroke="#191970" points="1724.4537,-141.0322 1719.2233,-131.8184 1717.5663,-142.2828 1724.4537,-141.0322"/>
</g>
<!-- Node25 -->
<g id="node26" class="node">
<title>Node25</title>
<g id="a_node26"><a xlink:href="_field_repo_8_h.html" target="_top" xlink:title="amr&#45;wind/core/FieldRepo.H">
<polygon fill="#ffffff" stroke="#000000" points="535.7224,-174 535.7224,-193 671.7224,-193 671.7224,-174 535.7224,-174"/>
<text text-anchor="middle" x="603.7224" y="-181" font-family="Helvetica,sans-Serif" font-size="10.00" fill="#000000">amr&#45;wind/core/FieldRepo.H</text>
</a>
</g>
</g>
<!-- Node0&#45;&gt;Node25 -->
<g id="edge37" class="edge">
<title>Node0&#45;&gt;Node25</title>
<path fill="none" stroke="#191970" d="M1726.637,-242.8292C1556.8717,-233.8597 908.428,-199.5991 682.1703,-187.6448"/>
<polygon fill="#191970" stroke="#191970" points="682.2113,-184.1422 672.0405,-187.1096 681.8419,-191.1324 682.2113,-184.1422"/>
</g>
<!-- Node29 -->
<g id="node30" class="node">
<title>Node29</title>
<g id="a_node30"><a xlink:href="_linear_profile_8_h.html" target="_top" xlink:title="amr&#45;wind/physics/udfs\l/LinearProfile.H">
<polygon fill="#ffffff" stroke="#000000" points="2085.2224,-168.5 2085.2224,-198.5 2200.2224,-198.5 2200.2224,-168.5 2085.2224,-168.5"/>
<text text-anchor="start" x="2093.2224" y="-186.5" font-family="Helvetica,sans-Serif" font-size="10.00" fill="#000000">amr&#45;wind/physics/udfs</text>
<text text-anchor="middle" x="2142.7224" y="-175.5" font-family="Helvetica,sans-Serif" font-size="10.00" fill="#000000">/LinearProfile.H</text>
</a>
</g>
</g>
<!-- Node0&#45;&gt;Node29 -->
<g id="edge58" class="edge">
<title>Node0&#45;&gt;Node29</title>
<path fill="none" stroke="#191970" d="M1808.8917,-239.975C1866.3762,-232.7168 1974.1385,-218.2339 2075.1258,-199.2219"/>
<polygon fill="#191970" stroke="#191970" points="2076.0198,-202.6147 2085.1896,-197.3077 2074.7117,-195.738 2076.0198,-202.6147"/>
</g>
<!-- Node30 -->
<g id="node31" class="node">
<title>Node30</title>
<g id="a_node31"><a xlink:href="_power_law_profile_8_h.html" target="_top" xlink:title="amr&#45;wind/physics/udfs\l/PowerLawProfile.H">
<polygon fill="#ffffff" stroke="#000000" points="1952.2224,-168.5 1952.2224,-198.5 2067.2224,-198.5 2067.2224,-168.5 1952.2224,-168.5"/>
<text text-anchor="start" x="1960.2224" y="-186.5" font-family="Helvetica,sans-Serif" font-size="10.00" fill="#000000">amr&#45;wind/physics/udfs</text>
<text text-anchor="middle" x="2009.7224" y="-175.5" font-family="Helvetica,sans-Serif" font-size="10.00" fill="#000000">/PowerLawProfile.H</text>
</a>
</g>
</g>
<!-- Node0&#45;&gt;Node30 -->
<g id="edge61" class="edge">
<title>Node0&#45;&gt;Node30</title>
<path fill="none" stroke="#191970" d="M1805.2694,-235.4581C1841.68,-226.205 1897.7472,-211.9565 1941.9652,-200.7193"/>
<polygon fill="#191970" stroke="#191970" points="1942.951,-204.0801 1951.7808,-198.2248 1941.2268,-197.2958 1942.951,-204.0801"/>
</g>
<!-- Node2 -->
<g id="node3" class="node">
<title>Node2</title>
<g id="a_node3"><a xlink:href="_field_desc_types_8_h.html" target="_top" xlink:title="amr&#45;wind/core/FieldDescTypes.H">
<polygon fill="#ffffff" stroke="#000000" points="647.2224,-.5 647.2224,-19.5 810.2224,-19.5 810.2224,-.5 647.2224,-.5"/>
<text text-anchor="middle" x="728.7224" y="-7.5" font-family="Helvetica,sans-Serif" font-size="10.00" fill="#000000">amr&#45;wind/core/FieldDescTypes.H</text>
</a>
</g>
</g>
<!-- Node1&#45;&gt;Node2 -->
<g id="edge2" class="edge">
<title>Node1&#45;&gt;Node2</title>
<path fill="none" stroke="#191970" d="M1817.5569,-173.8207C1816.3024,-158.6712 1816.2482,-129.3053 1831.7224,-112 1870.9533,-68.127 1992.5496,-98.3916 1951.7224,-56 1932.1355,-35.6625 1101.43,-17.376 820.4769,-11.7628"/>
<polygon fill="#191970" stroke="#191970" points="820.3831,-8.2604 810.3154,-11.5606 820.2437,-15.259 820.3831,-8.2604"/>
</g>
<!-- Node3 -->
<g id="node4" class="node">
<title>Node3</title>
<g id="a_node4"><a xlink:href="_field_8_h.html" target="_top" xlink:title="amr&#45;wind/core/Field.H">
<polygon fill="#ffffff" stroke="#000000" points="1074.2224,-112.5 1074.2224,-131.5 1187.2224,-131.5 1187.2224,-112.5 1074.2224,-112.5"/>
<text text-anchor="middle" x="1130.7224" y="-119.5" font-family="Helvetica,sans-Serif" font-size="10.00" fill="#000000">amr&#45;wind/core/Field.H</text>
</a>
</g>
</g>
<!-- Node1&#45;&gt;Node3 -->
<g id="edge3" class="edge">
<title>Node1&#45;&gt;Node3</title>
<path fill="none" stroke="#191970" d="M1746.0705,-177.0057C1611.883,-165.0107 1327.0688,-139.5513 1197.4554,-127.9652"/>
<polygon fill="#191970" stroke="#191970" points="1197.5446,-124.4593 1187.2727,-127.055 1196.9213,-131.4315 1197.5446,-124.4593"/>
</g>
<!-- Node9 -->
<g id="node10" class="node">
<title>Node9</title>
<polygon fill="#ffffff" stroke="#bfbfbf" points="2052.2224,-56.5 2052.2224,-75.5 2137.2224,-75.5 2137.2224,-56.5 2052.2224,-56.5"/>
<text text-anchor="middle" x="2094.7224" y="-63.5" font-family="Helvetica,sans-Serif" font-size="10.00" fill="#000000">AMReX_Gpu.H</text>
</g>
<!-- Node1&#45;&gt;Node9 -->
<g id="edge17" class="edge">
<title>Node1&#45;&gt;Node9</title>
<path fill="none" stroke="#191970" d="M1849.2688,-173.965C1878.7549,-164.4377 1924.4373,-148.821 1962.7224,-132 1980.1956,-124.323 1983.7048,-120.6399 2000.7224,-112 2022.3816,-101.0036 2047.0556,-88.9468 2065.6882,-79.9363"/>
<polygon fill="#191970" stroke="#191970" points="2067.3477,-83.0217 2074.8331,-75.5238 2064.3057,-76.7172 2067.3477,-83.0217"/>
</g>
<!-- Node13 -->
<g id="node14" class="node">
<title>Node13</title>
<polygon fill="#ffffff" stroke="#bfbfbf" points="1840.2224,-112.5 1840.2224,-131.5 1953.2224,-131.5 1953.2224,-112.5 1840.2224,-112.5"/>
<text text-anchor="middle" x="1896.7224" y="-119.5" font-family="Helvetica,sans-Serif" font-size="10.00" fill="#000000">AMReX_FArrayBox.H</text>
</g>
<!-- Node1&#45;&gt;Node13 -->
<g id="edge18" class="edge">
<title>Node1&#45;&gt;Node13</title>
<path fill="none" stroke="#191970" d="M1830.9099,-173.8906C1843.1594,-164.2324 1862.2487,-149.1812 1876.7202,-137.771"/>
<polygon fill="#191970" stroke="#191970" points="1878.9349,-140.4819 1884.6205,-131.5419 1874.6008,-134.985 1878.9349,-140.4819"/>
</g>
<!-- Node14 -->
<g id="node15" class="node">
<title>Node14</title>
<polygon fill="#ffffff" stroke="#bfbfbf" points="2009.7224,-112.5 2009.7224,-131.5 2119.7224,-131.5 2119.7224,-112.5 2009.7224,-112.5"/>
<text text-anchor="middle" x="2064.7224" y="-119.5" font-family="Helvetica,sans-Serif" font-size="10.00" fill="#000000">AMReX_Geometry.H</text>
</g>
<!-- Node1&#45;&gt;Node14 -->
<g id="edge19" class="edge">
<title>Node1&#45;&gt;Node14</title>
<path fill="none" stroke="#191970" d="M1856.89,-173.9581C1899.8894,-163.2082 1969.8576,-145.7162 2016.5766,-134.0365"/>
<polygon fill="#191970" stroke="#191970" points="2017.6128,-137.3852 2026.4653,-131.5643 2015.915,-130.5942 2017.6128,-137.3852"/>
</g>
<!-- Node15 -->
<g id="node16" class="node">
<title>Node15</title>
<polygon fill="#ffffff" stroke="#bfbfbf" points="1430.7224,-56.5 1430.7224,-75.5 1558.7224,-75.5 1558.7224,-56.5 1430.7224,-56.5"/>
<text text-anchor="middle" x="1494.7224" y="-63.5" font-family="Helvetica,sans-Serif" font-size="10.00" fill="#000000">AMReX_PhysBCFunct.H</text>
</g>
<!-- Node1&#45;&gt;Node15 -->
<g id="edge20" class="edge">
<title>Node1&#45;&gt;Node15</title>
<path fill="none" stroke="#191970" d="M1781.0513,-173.9438C1745.2951,-164.5155 1690.2543,-149.0695 1643.7224,-132 1601.0062,-116.3302 1553.1576,-94.3018 1523.4825,-80.0877"/>
<polygon fill="#191970" stroke="#191970" points="1524.6768,-76.778 1514.1491,-75.5874 1521.6365,-83.0833 1524.6768,-76.778"/>
</g>
<!-- Node3&#45;&gt;Node2 -->
<g id="edge11" class="edge">
<title>Node3&#45;&gt;Node2</title>
<path fill="none" stroke="#191970" d="M1140.3864,-112.3859C1153.2171,-98.4714 1172.616,-72.576 1157.7224,-56 1135.619,-31.3998 939.8511,-18.8494 820.5441,-13.4307"/>
<polygon fill="#191970" stroke="#191970" points="820.4592,-9.9236 810.3133,-12.975 820.1476,-16.9166 820.4592,-9.9236"/>
</g>
<!-- Node4 -->
<g id="node5" class="node">
<title>Node4</title>
<polygon fill="#ffffff" stroke="#bfbfbf" points="166.2224,-.5 166.2224,-19.5 207.2224,-19.5 207.2224,-.5 166.2224,-.5"/>
<text text-anchor="middle" x="186.7224" y="-7.5" font-family="Helvetica,sans-Serif" font-size="10.00" fill="#000000">string</text>
</g>
<!-- Node3&#45;&gt;Node4 -->
<g id="edge4" class="edge">
<title>Node3&#45;&gt;Node4</title>
<path fill="none" stroke="#191970" d="M1095.3684,-112.4206C1061.7227,-103.2526 1009.6992,-88.9433 964.7224,-76 934.8583,-67.4058 928.3263,-61.3973 897.7224,-56 630.704,-8.9084 559.029,-41.2317 288.7224,-20 264.8148,-18.1221 237.8088,-15.4498 217.5935,-13.3401"/>
<polygon fill="#191970" stroke="#191970" points="217.7217,-9.8342 207.4094,-12.2649 216.9867,-16.7955 217.7217,-9.8342"/>
</g>
<!-- Node5 -->
<g id="node6" class="node">
<title>Node5</title>
<polygon fill="#ffffff" stroke="#bfbfbf" points="1204.7224,-56.5 1204.7224,-75.5 1256.7224,-75.5 1256.7224,-56.5 1204.7224,-56.5"/>
<text text-anchor="middle" x="1230.7224" y="-63.5" font-family="Helvetica,sans-Serif" font-size="10.00" fill="#000000">memory</text>
</g>
<!-- Node3&#45;&gt;Node5 -->
<g id="edge5" class="edge">
<title>Node3&#45;&gt;Node5</title>
<path fill="none" stroke="#191970" d="M1148.1411,-112.2455C1163.771,-103.4928 1186.9243,-90.527 1204.741,-80.5496"/>
<polygon fill="#191970" stroke="#191970" points="1206.4884,-83.5825 1213.5034,-75.6427 1203.0682,-77.475 1206.4884,-83.5825"/>
</g>
<!-- Node6 -->
<g id="node7" class="node">
<title>Node6</title>
<polygon fill="#ffffff" stroke="#bfbfbf" points="805.2224,-56.5 805.2224,-75.5 888.2224,-75.5 888.2224,-56.5 805.2224,-56.5"/>
<text text-anchor="middle" x="846.7224" y="-63.5" font-family="Helvetica,sans-Serif" font-size="10.00" fill="#000000">unordered_map</text>
</g>
<!-- Node3&#45;&gt;Node6 -->
<g id="edge6" class="edge">
<title>Node3&#45;&gt;Node6</title>
<path fill="none" stroke="#191970" d="M1082.2238,-112.4369C1031.1316,-102.3624 950.9679,-86.5554 898.6269,-76.2347"/>
<polygon fill="#191970" stroke="#191970" points="899.0347,-72.7478 888.5465,-74.247 897.6805,-79.6155 899.0347,-72.7478"/>
</g>
<!-- Node7 -->
<g id="node8" class="node">
<title>Node7</title>
<polygon fill="#ffffff" stroke="#bfbfbf" points="457.7224,-.5 457.7224,-19.5 561.7224,-19.5 561.7224,-.5 457.7224,-.5"/>
<text text-anchor="middle" x="509.7224" y="-7.5" font-family="Helvetica,sans-Serif" font-size="10.00" fill="#000000">AMReX_MultiFab.H</text>
</g>
<!-- Node3&#45;&gt;Node7 -->
<g id="edge7" class="edge">
<title>Node3&#45;&gt;Node7</title>
<path fill="none" stroke="#191970" d="M1104.5224,-112.4436C1080.2761,-103.4651 1043.3159,-89.436 1011.7224,-76 992.3264,-67.7513 989.0493,-61.5736 968.7224,-56 931.4233,-45.7727 689.0703,-24.7885 572.3556,-15.1043"/>
<polygon fill="#191970" stroke="#191970" points="572.3949,-11.5957 562.1403,-14.2589 571.8175,-18.5718 572.3949,-11.5957"/>
</g>
<!-- Node8 -->
<g id="node9" class="node">
<title>Node8</title>
<polygon fill="#ffffff" stroke="#bfbfbf" points="1275.2224,-56.5 1275.2224,-75.5 1374.2224,-75.5 1374.2224,-56.5 1275.2224,-56.5"/>
<text text-anchor="middle" x="1324.7224" y="-63.5" font-family="Helvetica,sans-Serif" font-size="10.00" fill="#000000">AMReX_BCRec.H</text>
</g>
<!-- Node3&#45;&gt;Node8 -->
<g id="edge8" class="edge">
<title>Node3&#45;&gt;Node8</title>
<path fill="none" stroke="#191970" d="M1164.0722,-112.3733C1196.7504,-102.9404 1246.6842,-88.5265 1282.1994,-78.2747"/>
<polygon fill="#191970" stroke="#191970" points="1283.1708,-81.6373 1291.8078,-75.5011 1281.2294,-74.9119 1283.1708,-81.6373"/>
</g>
<!-- Node3&#45;&gt;Node9 -->
<g id="edge9" class="edge">
<title>Node3&#45;&gt;Node9</title>
<path fill="none" stroke="#191970" d="M1187.4736,-119.0915C1320.8419,-112.197 1664.6333,-94.0799 1951.7224,-76 1981.6753,-74.1137 2015.141,-71.7855 2042.1632,-69.8503"/>
<polygon fill="#191970" stroke="#191970" points="2042.4604,-73.338 2052.1835,-69.1296 2041.9582,-66.3561 2042.4604,-73.338"/>
</g>
<!-- Node10 -->
<g id="node11" class="node">
<title>Node10</title>
<g id="a_node11"><a xlink:href="incflo__enums_8_h.html" target="_top" xlink:title="amr&#45;wind/incflo_enums.H">
<polygon fill="#ffffff" stroke="#000000" points="1020.7224,-56.5 1020.7224,-75.5 1148.7224,-75.5 1148.7224,-56.5 1020.7224,-56.5"/>
<text text-anchor="middle" x="1084.7224" y="-63.5" font-family="Helvetica,sans-Serif" font-size="10.00" fill="#000000">amr&#45;wind/incflo_enums.H</text>
</a>
</g>
</g>
<!-- Node3&#45;&gt;Node10 -->
<g id="edge10" class="edge">
<title>Node3&#45;&gt;Node10</title>
<path fill="none" stroke="#191970" d="M1122.7098,-112.2455C1116.2457,-104.3761 1106.984,-93.101 1099.2241,-83.6542"/>
<polygon fill="#191970" stroke="#191970" points="1101.6952,-81.1484 1092.6432,-75.6427 1096.2861,-85.5916 1101.6952,-81.1484"/>
</g>
<!-- Node11 -->
<g id="node12" class="node">
<title>Node11</title>
<g id="a_node12"><a xlink:href="_view_field_8_h.html" target="_top" xlink:title="amr&#45;wind/core/ViewField.H">
<polygon fill="#ffffff" stroke="#000000" points="328.7224,-56.5 328.7224,-75.5 462.7224,-75.5 462.7224,-56.5 328.7224,-56.5"/>
<text text-anchor="middle" x="395.7224" y="-63.5" font-family="Helvetica,sans-Serif" font-size="10.00" fill="#000000">amr&#45;wind/core/ViewField.H</text>
</a>
</g>
</g>
<!-- Node3&#45;&gt;Node11 -->
<g id="edge12" class="edge">
<title>Node3&#45;&gt;Node11</title>
<path fill="none" stroke="#191970" d="M1073.9646,-117.6756C943.4196,-107.7293 621.6872,-83.2164 473.1599,-71.9"/>
<polygon fill="#191970" stroke="#191970" points="473.0073,-68.3783 462.7703,-71.1084 472.4755,-75.3581 473.0073,-68.3783"/>
</g>
<!-- Node11&#45;&gt;Node2 -->
<g id="edge14" class="edge">
<title>Node11&#45;&gt;Node2</title>
<path fill="none" stroke="#191970" d="M452.5888,-56.4369C510.6567,-46.6717 600.7509,-31.5207 662.1191,-21.2006"/>
<polygon fill="#191970" stroke="#191970" points="662.8095,-24.6337 672.0906,-19.5237 661.6486,-17.7306 662.8095,-24.6337"/>
</g>
<!-- Node11&#45;&gt;Node4 -->
<g id="edge13" class="edge">
<title>Node11&#45;&gt;Node4</title>
<path fill="none" stroke="#191970" d="M359.7941,-56.3733C319.5752,-45.5969 255.0941,-28.3197 217.2292,-18.1741"/>
<polygon fill="#191970" stroke="#191970" points="217.8626,-14.7204 207.2975,-15.5129 216.0509,-21.4819 217.8626,-14.7204"/>
</g>
<!-- Node11&#45;&gt;Node7 -->
<g id="edge15" class="edge">
<title>Node11&#45;&gt;Node7</title>
<path fill="none" stroke="#191970" d="M415.3197,-56.3733C433.4556,-47.4644 460.6359,-34.1127 481.1811,-24.0203"/>
<polygon fill="#191970" stroke="#191970" points="482.9485,-27.0517 490.3809,-19.5011 479.8621,-20.7688 482.9485,-27.0517"/>
</g>
<!-- Node12 -->
<g id="node13" class="node">
<title>Node12</title>
<polygon fill="#ffffff" stroke="#bfbfbf" points="298.2224,-.5 298.2224,-19.5 393.2224,-19.5 393.2224,-.5 298.2224,-.5"/>
<text text-anchor="middle" x="345.7224" y="-7.5" font-family="Helvetica,sans-Serif" font-size="10.00" fill="#000000">AMReX_Vector.H</text>
</g>
<!-- Node11&#45;&gt;Node12 -->
<g id="edge16" class="edge">
<title>Node11&#45;&gt;Node12</title>
<path fill="none" stroke="#191970" d="M387.0131,-56.2455C379.9151,-48.2958 369.714,-36.8706 361.2274,-27.3656"/>
<polygon fill="#191970" stroke="#191970" points="363.6029,-24.771 354.332,-19.6427 358.3814,-29.4331 363.6029,-24.771"/>
</g>
<!-- Node16&#45;&gt;Node2 -->
<g id="edge27" class="edge">
<title>Node16&#45;&gt;Node2</title>
<path fill="none" stroke="#191970" d="M1406.5375,-168.2999C1400.981,-158.3377 1394.299,-144.8287 1390.7224,-132 1381.613,-99.3253 1407.9672,-79.7236 1383.7224,-56 1363.9032,-36.6068 995.7417,-20.1171 820.2718,-13.3226"/>
<polygon fill="#191970" stroke="#191970" points="820.4018,-9.8251 810.2746,-12.9379 820.1326,-16.8199 820.4018,-9.8251"/>
</g>
<!-- Node16&#45;&gt;Node3 -->
<g id="edge22" class="edge">
<title>Node16&#45;&gt;Node3</title>
<path fill="none" stroke="#191970" d="M1346.0036,-168.4554C1296.3649,-157.7439 1230.6202,-143.5569 1184.9013,-133.6912"/>
<polygon fill="#191970" stroke="#191970" points="1185.4006,-130.2185 1174.8873,-131.5303 1183.924,-137.061 1185.4006,-130.2185"/>
</g>
<!-- Node16&#45;&gt;Node7 -->
<g id="edge33" class="edge">
<title>Node16&#45;&gt;Node7</title>
<path fill="none" stroke="#191970" d="M1345.4298,-178.9356C1273.8677,-172.9541 1160.3093,-159.7592 1065.7224,-132 987.0874,-108.9223 976.6738,-77.9711 897.7224,-56 837.9623,-39.3696 665.5523,-23.0229 571.9552,-15.0428"/>
<polygon fill="#191970" stroke="#191970" points="572.031,-11.5368 561.7715,-14.181 571.4407,-18.5118 572.031,-11.5368"/>
</g>
<!-- Node16&#45;&gt;Node15 -->
<g id="edge35" class="edge">
<title>Node16&#45;&gt;Node15</title>
<path fill="none" stroke="#191970" d="M1480.441,-168.4523C1499.2249,-160.759 1517.6427,-149.2258 1528.7224,-132 1538.981,-116.0508 1526.2185,-96.6349 1513.5073,-83.0047"/>
<polygon fill="#191970" stroke="#191970" points="1515.7548,-80.303 1506.2035,-75.718 1510.8109,-85.2586 1515.7548,-80.303"/>
</g>
<!-- Node16&#45;&gt;Node17 -->
<g id="edge23" class="edge">
<title>Node16&#45;&gt;Node17</title>
<path fill="none" stroke="#191970" d="M1485.7664,-169.2361C1538.9093,-158.4139 1611.046,-143.7238 1660.691,-133.614"/>
<polygon fill="#191970" stroke="#191970" points="1661.5174,-137.0176 1670.6179,-131.5925 1660.1205,-130.1584 1661.5174,-137.0176"/>
</g>
<!-- Node18 -->
<g id="node19" class="node">
<title>Node18</title>
<polygon fill="#ffffff" stroke="#bfbfbf" points="1577.2224,-56.5 1577.2224,-75.5 1670.2224,-75.5 1670.2224,-56.5 1577.2224,-56.5"/>
<text text-anchor="middle" x="1623.7224" y="-63.5" font-family="Helvetica,sans-Serif" font-size="10.00" fill="#000000">AMReX_REAL.H</text>
</g>
<!-- Node16&#45;&gt;Node18 -->
<g id="edge34" class="edge">
<title>Node16&#45;&gt;Node18</title>
<path fill="none" stroke="#191970" d="M1462.9612,-168.4292C1487.8558,-159.5275 1518.394,-147.0508 1543.7224,-132 1567.4485,-117.9013 1591.443,-97.0245 1606.8785,-82.5408"/>
<polygon fill="#191970" stroke="#191970" points="1609.3104,-85.058 1614.1233,-75.6194 1604.4749,-79.9966 1609.3104,-85.058"/>
</g>
<!-- Node21 -->
<g id="node22" class="node">
<title>Node21</title>
<g id="a_node22"><a xlink:href="_field_utils_8_h.html" target="_top" xlink:title="amr&#45;wind/core/FieldUtils.H">
<polygon fill="#ffffff" stroke="#000000" points="632.2224,-112.5 632.2224,-131.5 765.2224,-131.5 765.2224,-112.5 632.2224,-112.5"/>
<text text-anchor="middle" x="698.7224" y="-119.5" font-family="Helvetica,sans-Serif" font-size="10.00" fill="#000000">amr&#45;wind/core/FieldUtils.H</text>
</a>
</g>
</g>
<!-- Node16&#45;&gt;Node21 -->
<g id="edge28" class="edge">
<title>Node16&#45;&gt;Node21</title>
<path fill="none" stroke="#191970" d="M1345.6226,-177.5656C1233.1916,-168.0357 1005.5901,-148.6951 812.7224,-132 800.738,-130.9626 788.0456,-129.8565 775.6505,-128.7723"/>
<polygon fill="#191970" stroke="#191970" points="775.5978,-125.2544 765.3306,-127.8687 774.9871,-132.2277 775.5978,-125.2544"/>
</g>
<!-- Node23 -->
<g id="node24" class="node">
<title>Node23</title>
<polygon fill="#ffffff" stroke="#bfbfbf" points="821.7224,-112.5 821.7224,-131.5 927.7224,-131.5 927.7224,-112.5 821.7224,-112.5"/>
<text text-anchor="middle" x="874.7224" y="-119.5" font-family="Helvetica,sans-Serif" font-size="10.00" fill="#000000">AMReX_AmrCore.H</text>
</g>
<!-- Node16&#45;&gt;Node23 -->
<g id="edge32" class="edge">
<title>Node16&#45;&gt;Node23</title>
<path fill="none" stroke="#191970" d="M1345.3483,-176.7401C1252.6926,-167.6369 1084.776,-150.4395 941.7224,-132 940.443,-131.8351 939.1502,-131.6659 937.8476,-131.4932"/>
<polygon fill="#191970" stroke="#191970" points="938.1072,-127.9963 927.7255,-130.1105 937.1597,-134.9319 938.1072,-127.9963"/>
</g>
<!-- Node24 -->
<g id="node25" class="node">
<title>Node24</title>
<polygon fill="#ffffff" stroke="#bfbfbf" points="1399.7224,-112.5 1399.7224,-131.5 1519.7224,-131.5 1519.7224,-112.5 1399.7224,-112.5"/>
<text text-anchor="middle" x="1459.7224" y="-119.5" font-family="Helvetica,sans-Serif" font-size="10.00" fill="#000000">AMReX_FillPatchUtil.H</text>
</g>
<!-- Node16&#45;&gt;Node24 -->
<g id="edge36" class="edge">
<title>Node16&#45;&gt;Node24</title>
<path fill="none" stroke="#191970" d="M1426.5988,-168.2977C1432.7065,-159.7609 1440.3664,-149.0545 1446.7812,-140.0883"/>
<polygon fill="#191970" stroke="#191970" points="1449.7053,-142.0163 1452.6775,-131.8469 1444.0123,-137.9433 1449.7053,-142.0163"/>
</g>
<!-- Node17&#45;&gt;Node18 -->
<g id="edge24" class="edge">
<title>Node17&#45;&gt;Node18</title>
<path fill="none" stroke="#191970" d="M1701.3489,-112.2455C1686.7916,-103.5731 1665.2914,-90.7645 1648.6072,-80.825"/>
<polygon fill="#191970" stroke="#191970" points="1650.2907,-77.7539 1639.9084,-75.6427 1646.708,-83.7676 1650.2907,-77.7539"/>
</g>
<!-- Node19 -->
<g id="node20" class="node">
<title>Node19</title>
<polygon fill="#ffffff" stroke="#bfbfbf" points="1816.7224,-56.5 1816.7224,-75.5 1942.7224,-75.5 1942.7224,-56.5 1816.7224,-56.5"/>
<text text-anchor="middle" x="1879.7224" y="-63.5" font-family="Helvetica,sans-Serif" font-size="10.00" fill="#000000">AMReX_GpuQualifiers.H</text>
</g>
<!-- Node17&#45;&gt;Node19 -->
<g id="edge25" class="edge">
<title>Node17&#45;&gt;Node19</title>
<path fill="none" stroke="#191970" d="M1745.5712,-112.3733C1772.3928,-103.1016 1813.1352,-89.0178 1842.6822,-78.804"/>
<polygon fill="#191970" stroke="#191970" points="1843.9293,-82.0762 1852.237,-75.5011 1841.6423,-75.4603 1843.9293,-82.0762"/>
</g>
<!-- Node20 -->
<g id="node21" class="node">
<title>Node20</title>
<polygon fill="#ffffff" stroke="#bfbfbf" points="1688.7224,-56.5 1688.7224,-75.5 1798.7224,-75.5 1798.7224,-56.5 1688.7224,-56.5"/>
<text text-anchor="middle" x="1743.7224" y="-63.5" font-family="Helvetica,sans-Serif" font-size="10.00" fill="#000000">AMReX_Extension.H</text>
</g>
<!-- Node17&#45;&gt;Node20 -->
<g id="edge26" class="edge">
<title>Node17&#45;&gt;Node20</title>
<path fill="none" stroke="#191970" d="M1722.2513,-112.2455C1725.7558,-104.6973 1730.7151,-94.0158 1734.9847,-84.8197"/>
<polygon fill="#191970" stroke="#191970" points="1738.2088,-86.1867 1739.2455,-75.6427 1731.8598,-83.2389 1738.2088,-86.1867"/>
</g>
<!-- Node21&#45;&gt;Node2 -->
<g id="edge29" class="edge">
<title>Node21&#45;&gt;Node2</title>
<path fill="none" stroke="#191970" d="M718.8785,-112.4543C732.6039,-104.7394 749.686,-92.4561 757.7224,-76 765.6518,-59.7633 755.4137,-40.8487 744.9779,-27.4409"/>
<polygon fill="#191970" stroke="#191970" points="747.4061,-24.8915 738.2804,-19.5088 742.0576,-29.4075 747.4061,-24.8915"/>
</g>
<!-- Node21&#45;&gt;Node7 -->
<g id="edge30" class="edge">
<title>Node21&#45;&gt;Node7</title>
<path fill="none" stroke="#191970" d="M682.6084,-112.4509C649.5512,-92.8615 573.8731,-48.0152 534.5194,-24.6945"/>
<polygon fill="#191970" stroke="#191970" points="536.1829,-21.6119 525.7957,-19.5249 532.6143,-27.634 536.1829,-21.6119"/>
</g>
<!-- Node22 -->
<g id="node23" class="node">
<title>Node22</title>
<polygon fill="#ffffff" stroke="#bfbfbf" points="632.7224,-56.5 632.7224,-75.5 748.7224,-75.5 748.7224,-56.5 632.7224,-56.5"/>
<text text-anchor="middle" x="690.7224" y="-63.5" font-family="Helvetica,sans-Serif" font-size="10.00" fill="#000000">AMReX_Interpolater.H</text>
</g>
<!-- Node21&#45;&gt;Node22 -->
<g id="edge31" class="edge">
<title>Node21&#45;&gt;Node22</title>
<path fill="none" stroke="#191970" d="M697.3289,-112.2455C696.285,-104.9382 694.8216,-94.6944 693.5374,-85.7046"/>
<polygon fill="#191970" stroke="#191970" points="696.9791,-85.0472 692.1,-75.6427 690.0494,-86.0372 696.9791,-85.0472"/>
</g>
<!-- Node25&#45;&gt;Node2 -->
<g id="edge40" class="edge">
<title>Node25&#45;&gt;Node2</title>
<path fill="none" stroke="#191970" d="M602.3281,-173.6589C599.6123,-150.5063 596.0893,-91.8455 623.7224,-56 635.8804,-40.2288 654.5748,-29.7588 672.8389,-22.8554"/>
<polygon fill="#191970" stroke="#191970" points="674.0177,-26.1511 682.3137,-19.5612 671.7189,-19.5393 674.0177,-26.1511"/>
</g>
<!-- Node25&#45;&gt;Node3 -->
<g id="edge42" class="edge">
<title>Node25&#45;&gt;Node3</title>
<path fill="none" stroke="#191970" d="M671.8087,-175.5544C773.3605,-163.7035 963.3175,-141.5359 1064.0447,-129.7812"/>
<polygon fill="#191970" stroke="#191970" points="1064.5729,-133.2434 1074.0997,-128.6078 1063.7614,-126.2906 1064.5729,-133.2434"/>
</g>
<!-- Node25&#45;&gt;Node4 -->
<g id="edge38" class="edge">
<title>Node25&#45;&gt;Node4</title>
<path fill="none" stroke="#191970" d="M535.4779,-181.4146C412.6282,-176.905 159.4404,-163.9499 77.7224,-132 39.3092,-116.9813 22.0881,-112.9302 3.7224,-76 -.2357,-68.041 -1.7434,-63.0098 3.7224,-56 22.3094,-32.1627 109.1956,-18.7885 156.2524,-13.1795"/>
<polygon fill="#191970" stroke="#191970" points="156.6627,-16.6555 166.1989,-12.0389 155.8652,-9.701 156.6627,-16.6555"/>
</g>
<!-- Node25&#45;&gt;Node6 -->
<g id="edge39" class="edge">
<title>Node25&#45;&gt;Node6</title>
<path fill="none" stroke="#191970" d="M655.9323,-173.9414C690.8449,-166.0819 736.9457,-152.7949 773.7224,-132 796.5612,-119.0862 818.2673,-97.9167 831.9817,-83.0427"/>
<polygon fill="#191970" stroke="#191970" points="834.6595,-85.2991 838.735,-75.5195 829.4504,-80.6231 834.6595,-85.2991"/>
</g>
<!-- Node25&#45;&gt;Node7 -->
<g id="edge55" class="edge">
<title>Node25&#45;&gt;Node7</title>
<path fill="none" stroke="#191970" d="M550.1256,-173.9197C510.1092,-165.6859 454.6456,-151.955 408.7224,-132 365.8598,-113.3749 342.3159,-116.9101 319.7224,-76 315.4251,-68.2189 314.2261,-62.9859 319.7224,-56 335.5273,-35.9121 398.5082,-23.5382 447.6798,-16.7549"/>
<polygon fill="#191970" stroke="#191970" points="448.1749,-20.22 457.6261,-15.4319 447.2518,-13.2811 448.1749,-20.22"/>
</g>
<!-- Node25&#45;&gt;Node21 -->
<g id="edge41" class="edge">
<title>Node25&#45;&gt;Node21</title>
<path fill="none" stroke="#191970" d="M618.5662,-173.8906C633.7643,-164.0519 657.6073,-148.6167 675.3431,-137.1351"/>
<polygon fill="#191970" stroke="#191970" points="677.4904,-139.9144 683.9829,-131.5419 673.6864,-134.0382 677.4904,-139.9144"/>
</g>
<!-- Node25&#45;&gt;Node23 -->
<g id="edge54" class="edge">
<title>Node25&#45;&gt;Node23</title>
<path fill="none" stroke="#191970" d="M645.7688,-173.9581C693.4361,-163.1406 771.1876,-145.4959 822.6518,-133.8168"/>
<polygon fill="#191970" stroke="#191970" points="823.6,-137.1907 832.5774,-131.5643 822.0507,-130.3642 823.6,-137.1907"/>
</g>
<!-- Node26 -->
<g id="node27" class="node">
<title>Node26</title>
<g id="a_node27"><a xlink:href="_int_field_8_h.html" target="_top" xlink:title="amr&#45;wind/core/IntField.H">
<polygon fill="#ffffff" stroke="#000000" points="106.7224,-112.5 106.7224,-131.5 230.7224,-131.5 230.7224,-112.5 106.7224,-112.5"/>
<text text-anchor="middle" x="168.7224" y="-119.5" font-family="Helvetica,sans-Serif" font-size="10.00" fill="#000000">amr&#45;wind/core/IntField.H</text>
</a>
</g>
</g>
<!-- Node25&#45;&gt;Node26 -->
<g id="edge43" class="edge">
<title>Node25&#45;&gt;Node26</title>
<path fill="none" stroke="#191970" d="M536.231,-173.9581C456.0514,-162.6224 322.8434,-143.7895 240.7316,-132.1806"/>
<polygon fill="#191970" stroke="#191970" points="241.1229,-128.7012 230.7314,-130.7668 240.1429,-135.6323 241.1229,-128.7012"/>
</g>
<!-- Node27 -->
<g id="node28" class="node">
<title>Node27</title>
<polygon fill="#ffffff" stroke="#bfbfbf" points="13.2224,-56.5 13.2224,-75.5 120.2224,-75.5 120.2224,-56.5 13.2224,-56.5"/>
<text text-anchor="middle" x="66.7224" y="-63.5" font-family="Helvetica,sans-Serif" font-size="10.00" fill="#000000">AMReX_iMultiFab.H</text>
</g>
<!-- Node25&#45;&gt;Node27 -->
<g id="edge56" class="edge">
<title>Node25&#45;&gt;Node27</title>
<path fill="none" stroke="#191970" d="M535.7105,-180.2843C405.9353,-173.6134 132.7081,-156.7952 97.7224,-132 82.4299,-121.1618 74.457,-100.7829 70.4523,-85.5248"/>
<polygon fill="#191970" stroke="#191970" points="73.8112,-84.5098 68.1897,-75.5293 66.9839,-86.0552 73.8112,-84.5098"/>
</g>
<!-- Node28 -->
<g id="node29" class="node">
<title>Node28</title>
<g id="a_node29"><a xlink:href="_scratch_field_8_h.html" target="_top" xlink:title="amr&#45;wind/core/ScratchField.H">
<polygon fill="#ffffff" stroke="#000000" points="417.7224,-112.5 417.7224,-131.5 563.7224,-131.5 563.7224,-112.5 417.7224,-112.5"/>
<text text-anchor="middle" x="490.7224" y="-119.5" font-family="Helvetica,sans-Serif" font-size="10.00" fill="#000000">amr&#45;wind/core/ScratchField.H</text>
</a>
</g>
</g>
<!-- Node25&#45;&gt;Node28 -->
<g id="edge47" class="edge">
<title>Node25&#45;&gt;Node28</title>
<path fill="none" stroke="#191970" d="M586.0662,-173.8906C567.5738,-163.8262 538.3215,-147.9057 517.0917,-136.3514"/>
<polygon fill="#191970" stroke="#191970" points="518.7113,-133.2481 508.2547,-131.5419 515.365,-139.3965 518.7113,-133.2481"/>
</g>
<!-- Node26&#45;&gt;Node2 -->
<g id="edge45" class="edge">
<title>Node26&#45;&gt;Node2</title>
<path fill="none" stroke="#191970" d="M186.2192,-112.269C213.7209,-97.461 269.1532,-69.5625 319.7224,-56 377.5805,-40.4826 535.094,-25.5594 636.906,-17.1083"/>
<polygon fill="#191970" stroke="#191970" points="637.2072,-20.5954 646.8859,-16.2858 636.6321,-13.6191 637.2072,-20.5954"/>
</g>
<!-- Node26&#45;&gt;Node4 -->
<g id="edge44" class="edge">
<title>Node26&#45;&gt;Node4</title>
<path fill="none" stroke="#191970" d="M168.6022,-112.0741C168.609,-99.0841 169.1861,-75.6585 172.7224,-56 174.3256,-47.0883 177.0836,-37.4703 179.73,-29.3443"/>
<polygon fill="#191970" stroke="#191970" points="183.1019,-30.3011 183.0381,-19.7064 176.4811,-28.0285 183.1019,-30.3011"/>
</g>
<!-- Node26&#45;&gt;Node27 -->
<g id="edge46" class="edge">
<title>Node26&#45;&gt;Node27</title>
<path fill="none" stroke="#191970" d="M150.9554,-112.2455C135.0129,-103.4928 111.3965,-90.527 93.2235,-80.5496"/>
<polygon fill="#191970" stroke="#191970" points="94.7361,-77.3873 84.2859,-75.6427 91.3673,-83.5233 94.7361,-77.3873"/>
</g>
<!-- Node28&#45;&gt;Node2 -->
<g id="edge49" class="edge">
<title>Node28&#45;&gt;Node2</title>
<path fill="none" stroke="#191970" d="M503.0265,-112.3321C521.2904,-98.3506 557.0491,-72.3726 590.7224,-56 619.8505,-41.8374 654.4285,-30.3201 681.6854,-22.3521"/>
<polygon fill="#191970" stroke="#191970" points="682.722,-25.696 691.3725,-19.5788 680.7954,-18.9664 682.722,-25.696"/>
</g>
<!-- Node28&#45;&gt;Node4 -->
<g id="edge48" class="edge">
<title>Node28&#45;&gt;Node4</title>
<path fill="none" stroke="#191970" d="M440.7458,-112.4444C404.2942,-104.6897 354.0737,-92.3616 311.7224,-76 274.9821,-61.8061 235.1782,-39.4682 210.5929,-24.7768"/>
<polygon fill="#191970" stroke="#191970" points="212.322,-21.7323 201.9536,-19.5535 208.7003,-27.7225 212.322,-21.7323"/>
</g>
<!-- Node28&#45;&gt;Node7 -->
<g id="edge51" class="edge">
<title>Node28&#45;&gt;Node7</title>
<path fill="none" stroke="#191970" d="M492.3424,-112.4509C495.4412,-94.184 502.2657,-53.9553 506.3809,-29.6976"/>
<polygon fill="#191970" stroke="#191970" points="509.8847,-29.9694 508.1066,-19.5249 502.9833,-28.7986 509.8847,-29.9694"/>
</g>
<!-- Node28&#45;&gt;Node11 -->
<g id="edge50" class="edge">
<title>Node28&#45;&gt;Node11</title>
<path fill="none" stroke="#191970" d="M474.1747,-112.2455C459.4626,-103.5731 437.7337,-90.7645 420.8719,-80.825"/>
<polygon fill="#191970" stroke="#191970" points="422.4726,-77.7057 412.0805,-75.6427 418.9179,-83.736 422.4726,-77.7057"/>
</g>
<!-- Node28&#45;&gt;Node12 -->
<g id="edge52" class="edge">
<title>Node28&#45;&gt;Node12</title>
<path fill="none" stroke="#191970" d="M423.4472,-112.4206C381.31,-104.8872 332.6276,-92.8354 319.7224,-76 308.6783,-61.5923 318.9731,-41.8942 329.6943,-27.7751"/>
<polygon fill="#191970" stroke="#191970" points="332.5993,-29.7526 336.238,-19.8021 327.1883,-25.3116 332.5993,-29.7526"/>
</g>
<!-- Node28&#45;&gt;Node15 -->
<g id="edge53" class="edge">
<title>Node28&#45;&gt;Node15</title>
<path fill="none" stroke="#191970" d="M564.0085,-116.0766C583.114,-114.6343 603.6831,-113.1713 622.7224,-112 960.684,-91.2088 1045.9174,-99.196 1383.7224,-76 1395.5609,-75.1871 1408.0975,-74.1898 1420.3185,-73.143"/>
<polygon fill="#191970" stroke="#191970" points="1420.8299,-76.6118 1430.4876,-72.2551 1420.221,-69.6383 1420.8299,-76.6118"/>
</g>
<!-- Node29&#45;&gt;Node9 -->
<g id="edge60" class="edge">
<title>Node29&#45;&gt;Node9</title>
<path fill="none" stroke="#191970" d="M2152.9361,-168.2667C2161.6022,-153.276 2171.2356,-130.0709 2161.7224,-112 2154.5295,-98.3365 2141.2423,-87.9486 2128.3857,-80.5328"/>
<polygon fill="#191970" stroke="#191970" points="2129.6674,-77.2506 2119.1936,-75.6538 2126.3856,-83.4336 2129.6674,-77.2506"/>
</g>
<!-- Node29&#45;&gt;Node14 -->
<g id="edge59" class="edge">
<title>Node29&#45;&gt;Node14</title>
<path fill="none" stroke="#191970" d="M2123.4415,-168.2977C2111.8248,-159.1384 2097.0406,-147.4816 2085.2132,-138.1562"/>
<polygon fill="#191970" stroke="#191970" points="2087.231,-135.2901 2077.2112,-131.8469 2082.8969,-140.787 2087.231,-135.2901"/>
</g>
<!-- Node30&#45;&gt;Node9 -->
<g id="edge63" class="edge">
<title>Node30&#45;&gt;Node9</title>
<path fill="none" stroke="#191970" d="M2058.4334,-168.4836C2087.5014,-158.4285 2120.3492,-144.7474 2128.7224,-132 2139.1336,-116.15 2126.3482,-96.7192 2113.5901,-83.0585"/>
<polygon fill="#191970" stroke="#191970" points="2115.8115,-80.3311 2106.257,-75.7527 2110.871,-85.2901 2115.8115,-80.3311"/>
</g>
<!-- Node30&#45;&gt;Node14 -->
<g id="edge62" class="edge">
<title>Node30&#45;&gt;Node14</title>
<path fill="none" stroke="#191970" d="M2023.3179,-168.2977C2031.1116,-159.5831 2040.9271,-148.6075 2049.045,-139.5302"/>
<polygon fill="#191970" stroke="#191970" points="2051.8589,-141.6341 2055.9162,-131.8469 2046.6411,-136.9678 2051.8589,-141.6341"/>
</g>
</g>
</svg>
        <g id="navigator" transform="translate(0 0)" fill="#404254">
                <rect fill="#f2f5e9" fill-opacity="0.5" stroke="#606060" stroke-width=".5" x="0" y="0" width="60" height="60"/>
                <use id="zoomplus" xlink:href="#zoomPlus" x="17" y="9" onmousedown="handleZoom(evt,'in')"/>
                <use id="zoomminus" xlink:href="#zoomMin" x="42" y="9" onmousedown="handleZoom(evt,'out')"/>
                <use id="reset" xlink:href="#resetDef" x="30" y="36" onmousedown="handleReset()"/>
                <g id="arrowUp" xlink:href="#dirArrow" transform="translate(30 24)" onmousedown="handlePan(0,-1)">
                  <use xlink:href="#rim" fill="#404040">
                        <set attributeName="fill" to="#808080" begin="arrowUp.mouseover" end="arrowUp.mouseout"/>
                  </use>
                  <path fill="none" stroke="white" stroke-width="1.5" d="M0,-3.0v7 M-2.5,-0.5L0,-3.0L2.5,-0.5"/>
                </g>
                <g id="arrowRight" xlink:href="#dirArrow" transform="rotate(90) translate(36 -43)" onmousedown="handlePan(1,0)">
                  <use xlink:href="#rim" fill="#404040">
                        <set attributeName="fill" to="#808080" begin="arrowRight.mouseover" end="arrowRight.mouseout"/>
                  </use>
                  <path fill="none" stroke="white" stroke-width="1.5" d="M0,-3.0v7 M-2.5,-0.5L0,-3.0L2.5,-0.5"/>
                </g>
                <g id="arrowDown" xlink:href="#dirArrow" transform="rotate(180) translate(-30 -48)" onmousedown="handlePan(0,1)">
                  <use xlink:href="#rim" fill="#404040">
                        <set attributeName="fill" to="#808080" begin="arrowDown.mouseover" end="arrowDown.mouseout"/>
                  </use>
                  <path fill="none" stroke="white" stroke-width="1.5" d="M0,-3.0v7 M-2.5,-0.5L0,-3.0L2.5,-0.5"/>
                </g>
                <g id="arrowLeft" xlink:href="#dirArrow" transform="rotate(270) translate(-36 17)" onmousedown="handlePan(-1,0)">
                  <use xlink:href="#rim" fill="#404040">
                        <set attributeName="fill" to="#808080" begin="arrowLeft.mouseover" end="arrowLeft.mouseout"/>
                  </use>
                  <path fill="none" stroke="white" stroke-width="1.5" d="M0,-3.0v7 M-2.5,-0.5L0,-3.0L2.5,-0.5"/>
                </g>
        </g>
        <svg viewBox="0 0 15 15" width="100%" height="30px" preserveAspectRatio="xMaxYMin meet">
         <g id="arrow_out" transform="scale(0.3 0.3)">
          <a xlink:href="velocity__bcs_8_h__incl_org.svg" target="_base">
           <rect id="button" ry="5" rx="5" y="6" x="6" height="38" width="38"
                fill="#f2f5e9" fill-opacity="0.5" stroke="#606060" stroke-width="1.0"/>
           <path id="arrow"
             d="M 11.500037,31.436501 C 11.940474,20.09759 22.043105,11.32322 32.158766,21.979434 L 37.068811,17.246167 C 37.068811,17.246167 37.088388,32 37.088388,32 L 22.160133,31.978069 C 22.160133,31.978069 26.997745,27.140456 26.997745,27.140456 C 18.528582,18.264221 13.291696,25.230495 11.500037,31.436501 z"
             style="fill:#404040;"/>
          </a>
         </g>
        </svg>
</svg>
