<?xml version="1.0" encoding="UTF-8" standalone="no"?>
<!DOCTYPE svg PUBLIC "-//W3C//DTD SVG 1.1//EN"
 "http://www.w3.org/Graphics/SVG/1.1/DTD/svg11.dtd">
<!-- Generated by graphviz version 2.40.1 (20161225.0304)
 -->
<!-- Title: vstraits.H Pages: 1 -->
<svg width="321pt" height="308pt"
 viewBox="0.00 0.00 321.00 308.00" xmlns="http://www.w3.org/2000/svg" xmlns:xlink="http://www.w3.org/1999/xlink">
<g id="graph0" class="graph" transform="scale(1 1) rotate(0) translate(4 304)">
<title>vstraits.H</title>
<polygon fill="#ffffff" stroke="transparent" points="-4,4 -4,-304 317,-304 317,4 -4,4"/>
<!-- Node3 -->
<g id="node1" class="node">
<title>Node3</title>
<polygon fill="#bfbfbf" stroke="#000000" points="71,-280.5 71,-299.5 130,-299.5 130,-280.5 71,-280.5"/>
<text text-anchor="middle" x="100.5" y="-287.5" font-family="Helvetica,sans-Serif" font-size="10.00" fill="#000000">vstraits.H</text>
</g>
<!-- Node4 -->
<g id="node2" class="node">
<title>Node4</title>
<g id="a_node2"><a xlink:href="tensor_8_h.html" target="_top" xlink:title="tensor.H">
<polygon fill="#ffffff" stroke="#000000" points="18.5,-168.5 18.5,-187.5 72.5,-187.5 72.5,-168.5 18.5,-168.5"/>
<text text-anchor="middle" x="45.5" y="-175.5" font-family="Helvetica,sans-Serif" font-size="10.00" fill="#000000">tensor.H</text>
</a>
</g>
</g>
<!-- Node3&#45;&gt;Node4 -->
<g id="edge1" class="edge">
<title>Node3&#45;&gt;Node4</title>
<path fill="none" stroke="#191970" d="M91.2923,-271.2498C79.4304,-247.0946 59.2599,-206.0202 50.1774,-187.5249"/>
<polygon fill="#191970" stroke="#191970" points="88.2611,-273.0176 95.8107,-280.4509 94.5444,-269.932 88.2611,-273.0176"/>
</g>
<!-- Node11 -->
<g id="node9" class="node">
<title>Node11</title>
<g id="a_node9"><a xlink:href="vector_8_h.html" target="_top" xlink:title="vector.H">
<polygon fill="#ffffff" stroke="#000000" points="115.5,-224.5 115.5,-243.5 169.5,-243.5 169.5,-224.5 115.5,-224.5"/>
<text text-anchor="middle" x="142.5" y="-231.5" font-family="Helvetica,sans-Serif" font-size="10.00" fill="#000000">vector.H</text>
</a>
</g>
</g>
<!-- Node3&#45;&gt;Node11 -->
<g id="edge9" class="edge">
<title>Node3&#45;&gt;Node11</title>
<path fill="none" stroke="#191970" d="M113.8416,-272.2112C120.9396,-262.7472 129.3903,-251.4797 135.268,-243.6427"/>
<polygon fill="#191970" stroke="#191970" points="111.0159,-270.1455 107.8158,-280.2455 116.6159,-274.3455 111.0159,-270.1455"/>
</g>
<!-- Node5 -->
<g id="node3" class="node">
<title>Node5</title>
<g id="a_node3"><a xlink:href="tensor_i_8_h.html" target="_top" xlink:title="tensorI.H">
<polygon fill="#ffffff" stroke="#000000" points="0,-112.5 0,-131.5 57,-131.5 57,-112.5 0,-112.5"/>
<text text-anchor="middle" x="28.5" y="-119.5" font-family="Helvetica,sans-Serif" font-size="10.00" fill="#000000">tensorI.H</text>
</a>
</g>
</g>
<!-- Node4&#45;&gt;Node5 -->
<g id="edge2" class="edge">
<title>Node4&#45;&gt;Node5</title>
<path fill="none" stroke="#191970" d="M33.3186,-159.0437C29.8421,-149.8331 26.9959,-139.1598 26.1821,-131.6427"/>
<polygon fill="#191970" stroke="#191970" points="30.1087,-160.4392 37.272,-168.2455 36.5403,-157.676 30.1087,-160.4392"/>
</g>
<!-- Node6 -->
<g id="node4" class="node">
<title>Node6</title>
<g id="a_node4"><a xlink:href="vector__space_8_h.html" target="_top" xlink:title="vector_space.H">
<polygon fill="#ffffff" stroke="#000000" points="75.5,-112.5 75.5,-131.5 161.5,-131.5 161.5,-112.5 75.5,-112.5"/>
<text text-anchor="middle" x="118.5" y="-119.5" font-family="Helvetica,sans-Serif" font-size="10.00" fill="#000000">vector_space.H</text>
</a>
</g>
</g>
<!-- Node4&#45;&gt;Node6 -->
<g id="edge4" class="edge">
<title>Node4&#45;&gt;Node6</title>
<path fill="none" stroke="#191970" d="M66.451,-161.928C79.2107,-152.1397 95.0885,-139.9595 105.9301,-131.6427"/>
<polygon fill="#191970" stroke="#191970" points="64.0196,-159.3819 58.2156,-168.2455 68.2803,-164.9359 64.0196,-159.3819"/>
</g>
<!-- Node5&#45;&gt;Node4 -->
<g id="edge3" class="edge">
<title>Node5&#45;&gt;Node4</title>
<path fill="none" stroke="#191970" d="M40.7407,-141.1137C44.173,-150.2427 46.9807,-160.7776 47.8057,-168.2455"/>
<polygon fill="#191970" stroke="#191970" points="43.8351,-139.4495 36.6724,-131.6427 37.4034,-142.2123 43.8351,-139.4495"/>
</g>
<!-- Node7 -->
<g id="node5" class="node">
<title>Node7</title>
<g id="a_node5"><a xlink:href="_box_refiner_8_h.html" target="_top" xlink:title="BoxRefiner.H">
<polygon fill="#ffffff" stroke="#000000" points="27.5,-56.5 27.5,-75.5 103.5,-75.5 103.5,-56.5 27.5,-56.5"/>
<text text-anchor="middle" x="65.5" y="-63.5" font-family="Helvetica,sans-Serif" font-size="10.00" fill="#000000">BoxRefiner.H</text>
</a>
</g>
</g>
<!-- Node6&#45;&gt;Node7 -->
<g id="edge5" class="edge">
<title>Node6&#45;&gt;Node7</title>
<path fill="none" stroke="#191970" d="M102.2104,-104.7884C93.1438,-95.2085 82.1946,-83.6396 74.6261,-75.6427"/>
<polygon fill="#191970" stroke="#191970" points="99.8522,-107.3884 109.2681,-112.2455 104.9363,-102.5767 99.8522,-107.3884"/>
</g>
<!-- Node9 -->
<g id="node7" class="node">
<title>Node9</title>
<g id="a_node7"><a xlink:href="_cylinder_refiner_8_h.html" target="_top" xlink:title="CylinderRefiner.H">
<polygon fill="#ffffff" stroke="#000000" points="124,-56.5 124,-75.5 219,-75.5 219,-56.5 124,-56.5"/>
<text text-anchor="middle" x="171.5" y="-63.5" font-family="Helvetica,sans-Serif" font-size="10.00" fill="#000000">CylinderRefiner.H</text>
</a>
</g>
</g>
<!-- Node6&#45;&gt;Node9 -->
<g id="edge7" class="edge">
<title>Node6&#45;&gt;Node9</title>
<path fill="none" stroke="#191970" d="M134.7896,-104.7884C143.8562,-95.2085 154.8054,-83.6396 162.3739,-75.6427"/>
<polygon fill="#191970" stroke="#191970" points="132.0637,-102.5767 127.7319,-112.2455 137.1478,-107.3884 132.0637,-102.5767"/>
</g>
<!-- Node8 -->
<g id="node6" class="node">
<title>Node8</title>
<g id="a_node6"><a xlink:href="_box_refiner_8cpp.html" target="_top" xlink:title="BoxRefiner.cpp">
<polygon fill="#ffffff" stroke="#000000" points="19.5,-.5 19.5,-19.5 103.5,-19.5 103.5,-.5 19.5,-.5"/>
<text text-anchor="middle" x="61.5" y="-7.5" font-family="Helvetica,sans-Serif" font-size="10.00" fill="#000000">BoxRefiner.cpp</text>
</a>
</g>
</g>
<!-- Node7&#45;&gt;Node8 -->
<g id="edge6" class="edge">
<title>Node7&#45;&gt;Node8</title>
<path fill="none" stroke="#191970" d="M64.0827,-46.1575C63.4396,-37.155 62.7086,-26.9199 62.1888,-19.6427"/>
<polygon fill="#191970" stroke="#191970" points="60.5996,-46.5204 64.8033,-56.2455 67.5818,-46.0216 60.5996,-46.5204"/>
</g>
<!-- Node10 -->
<g id="node8" class="node">
<title>Node10</title>
<g id="a_node8"><a xlink:href="_cylinder_refiner_8cpp.html" target="_top" xlink:title="CylinderRefiner.cpp">
<polygon fill="#ffffff" stroke="#000000" points="122,-.5 122,-19.5 225,-19.5 225,-.5 122,-.5"/>
<text text-anchor="middle" x="173.5" y="-7.5" font-family="Helvetica,sans-Serif" font-size="10.00" fill="#000000">CylinderRefiner.cpp</text>
</a>
</g>
</g>
<!-- Node9&#45;&gt;Node10 -->
<g id="edge8" class="edge">
<title>Node9&#45;&gt;Node10</title>
<path fill="none" stroke="#191970" d="M172.2087,-46.1575C172.5302,-37.155 172.8957,-26.9199 173.1556,-19.6427"/>
<polygon fill="#191970" stroke="#191970" points="168.7076,-46.127 171.8484,-56.2455 175.7032,-46.3769 168.7076,-46.127"/>
</g>
<!-- Node11&#45;&gt;Node4 -->
<g id="edge10" class="edge">
<title>Node11&#45;&gt;Node4</title>
<path fill="none" stroke="#191970" d="M116.5984,-219.0465C99.3391,-209.0824 77.1624,-196.2794 62.2025,-187.6427"/>
<polygon fill="#191970" stroke="#191970" points="115.1936,-222.2768 125.6039,-224.2455 118.6935,-216.2146 115.1936,-222.2768"/>
</g>
<!-- Node11&#45;&gt;Node6 -->
<g id="edge13" class="edge">
<title>Node11&#45;&gt;Node6</title>
<path fill="none" stroke="#191970" d="M130.9463,-215.6427C126.4602,-207.4993 121.8434,-197.6011 119.5,-188 114.7176,-168.4062 116.0383,-144.5586 117.3308,-131.5673"/>
<polygon fill="#191970" stroke="#191970" points="127.9301,-217.4184 136.0085,-224.2733 133.9681,-213.8768 127.9301,-217.4184"/>
</g>
<!-- Node12 -->
<g id="node10" class="node">
<title>Node12</title>
<g id="a_node10"><a xlink:href="vector_i_8_h.html" target="_top" xlink:title="vectorI.H">
<polygon fill="#ffffff" stroke="#000000" points="129,-168.5 129,-187.5 186,-187.5 186,-168.5 129,-168.5"/>
<text text-anchor="middle" x="157.5" y="-175.5" font-family="Helvetica,sans-Serif" font-size="10.00" fill="#000000">vectorI.H</text>
</a>
</g>
</g>
<!-- Node11&#45;&gt;Node12 -->
<g id="edge11" class="edge">
<title>Node11&#45;&gt;Node12</title>
<path fill="none" stroke="#191970" d="M141.3263,-214.1575C143.1454,-205.155 146.3014,-194.9199 149.672,-187.6427"/>
<polygon fill="#191970" stroke="#191970" points="137.835,-213.8433 139.846,-224.2455 144.7608,-214.8597 137.835,-213.8433"/>
</g>
<!-- Node13 -->
<g id="node11" class="node">
<title>Node13</title>
<g id="a_node11"><a xlink:href="_power_law_profile_8cpp.html" target="_top" xlink:title="PowerLawProfile.cpp">
<polygon fill="#ffffff" stroke="#000000" points="204,-168.5 204,-187.5 313,-187.5 313,-168.5 204,-168.5"/>
<text text-anchor="middle" x="258.5" y="-175.5" font-family="Helvetica,sans-Serif" font-size="10.00" fill="#000000">PowerLawProfile.cpp</text>
</a>
</g>
</g>
<!-- Node11&#45;&gt;Node13 -->
<g id="edge14" class="edge">
<title>Node11&#45;&gt;Node13</title>
<path fill="none" stroke="#191970" d="M171.5537,-219.9741C192.5565,-209.8348 220.3691,-196.408 238.8191,-187.5011"/>
<polygon fill="#191970" stroke="#191970" points="169.925,-216.8738 162.4411,-224.3733 172.9683,-223.1776 169.925,-216.8738"/>
</g>
<!-- Node12&#45;&gt;Node11 -->
<g id="edge12" class="edge">
<title>Node12&#45;&gt;Node11</title>
<path fill="none" stroke="#191970" d="M158.7015,-197.7046C156.8961,-206.6944 153.748,-216.9382 150.3796,-224.2455"/>
<polygon fill="#191970" stroke="#191970" points="162.1891,-198.0418 160.1623,-187.6427 155.2618,-197.036 162.1891,-198.0418"/>
</g>
</g>
</svg>
